<svg xmlns="http://www.w3.org/2000/svg" xmlns:svg="http://www.w3.org/2000/svg" id="svg8422" width="671.901" height="522.843" version="1.1"><metadata id="metadata8428"/><g id="g7960" transform="translate(13.5,42.921537)"><g id="g7958" transform="scale(1.5)"><path id="path7948" d="m 0.5,8.5 v -4 a 4,4 90 0 1 4,-4 h 4 v 2 h 10 v -2 h 9 36.147461 4 a 4,4 90 0 1 4,4 v 4 h -4 v -3 h -4 v 10 h 4 v -3 h 4 v 4 a 4,4 90 0 1 -4,4 h -4 H 27.5 h -1 v 2 h -8 v -2 h -1 -4 a 5,5 90 0 0 -5,5 v 4 4 63 4 a 5,5 90 0 0 5,5 h 4 v 2 h 10 v -2 h 8 v 6 6 4 a 4,4 90 0 1 -4,4 h -4 -9 -1 v 2 h -8 v -2 h -1 -4 a 4,4 90 0 1 -4,-4 v -4 z" style="fill:#ff8b2d;fill-opacity:1;stroke:#520000;stroke-width:1;stroke-linecap:round;stroke-opacity:1"/><text id="text7952" style="font-size:10px;font-family:sans-serif;text-anchor:start;fill:#000"><tspan id="tspan7950" x="5.333" y="15.25">音価</tspan></text></g></g><g id="g7978" transform="translate(109.72119,42.921537)"><g id="g7976" transform="scale(1.5)"><path id="path7962" d="m 8.5,8.5 v -4 a 4,4 90 0 1 4,-4 h 4 10 30 4 a 4,4 90 0 1 4,4 v 4 h -4 v -3 h -4 v 10 h 4 v -3 h 4 v 17 h -4 v -3 h -4 v 10 h 4 v -3 h 4 v 4 a 4,4 90 0 1 -4,4 h -4 -30 -10 -4 a 4,4 90 0 1 -4,-4 v -4 -21 -1 h -6 v 3 h -2 v -8 h 2 v 3 h 6 z" style="fill:#ffb2bc;fill-opacity:1;stroke:#601136;stroke-width:1;stroke-linecap:round;stroke-opacity:1"/><text id="text7966" style="font-size:14px;font-family:sans-serif;text-anchor:end;fill:#000"><tspan id="tspan7964" x="54.333" y="23.8">/</tspan></text></g></g><g id="g7988" transform="translate(195.22119,42.921537)"><g id="g7986" transform="scale(1.5)"><path id="path7980" d="m 8.5,0.5 h 60 v 20 h -60 v -8 -1 h -6 v 3 h -2 v -8 h 2 v 3 h 6 v -1 z" style="fill:#ffb2bc;fill-opacity:1;stroke:#601136;stroke-width:1;stroke-linecap:round;stroke-opacity:1"/><text id="text7984" style="font-size:10px;font-family:sans-serif;text-anchor:start;fill:#000"><tspan id="tspan7982" x="13.333" y="13.833">1</tspan></text></g></g><g id="g7998" transform="translate(195.22119,74.421537)"><g id="g7996" transform="scale(1.5)"><path id="path7990" d="m 8.5,0.5 h 60 v 20 h -60 v -8 -1 h -6 v 3 h -2 v -8 h 2 v 3 h 6 v -1 z" style="fill:#ffb2bc;fill-opacity:1;stroke:#601136;stroke-width:1;stroke-linecap:round;stroke-opacity:1"/><text id="text7994" style="font-size:10px;font-family:sans-serif;text-anchor:start;fill:#000"><tspan id="tspan7992" x="13.333" y="13.833">4</tspan></text></g></g><g id="g8008" transform="translate(27,74.421537)"><g id="g8006" transform="scale(1.5)"><path id="path8000" d="m 0.5,8.5 v -4 a 4,4 90 0 1 4,-4 h 4 v 2 h 10 v -2 h 20 4 a 4,4 90 0 1 4,4 v 4 4 4 a 4,4 90 0 1 -4,4 h -4 -20 -1 v 2 h -8 v -2 h -1 -4 a 4,4 90 0 1 -4,-4 v -4 z" style="fill:#d57e6f;fill-opacity:1;stroke:#000;stroke-width:1;stroke-linecap:round;stroke-opacity:1"/><text id="text8004" style="font-size:10px;font-family:sans-serif;text-anchor:end;fill:#000"><tspan id="tspan8002" x="36.333" y="13.5">↓</tspan></text></g></g><g id="g8022" transform="translate(0,2.4215375)"><g id="g8020" transform="scale(1.5)"><path id="path8010" d="m 0.5,14.5 v -4 a 4,4 90 0 1 4,-4 h 4 l 5,-6 5,6 h 9 35 4 a 4,4 90 0 1 4,4 v 4 h -4 v -3 h -4 v 10 h 4 v -3 h 4 v 4 a 4,4 90 0 1 -4,4 h -4 -35 -1 v 2 h -8 v -2 h -1 -4 a 5,5 90 0 0 -5,5 v 4 4 189 4 a 5,5 90 0 0 5,5 h 4 v 2 h 10 v -2 h 8 v 6 6 4 a 4,4 90 0 1 -4,4 h -4 -9 l -5,6 -5,-6 h -4 a 4,4 90 0 1 -4,-4 v -4 z" style="fill:#ffe05c;fill-opacity:1;stroke:#644300;stroke-width:1;stroke-linecap:round;stroke-opacity:1"/><text id="text8014" style="font-size:10px;font-family:sans-serif;text-anchor:start;fill:#000"><tspan id="tspan8012" x="5.333" y="21.5">動作</tspan></text></g></g><g id="g8032" transform="translate(94.5,11.421537)"><g id="g8030" transform="scale(1.5)"><path id="path8024" d="m 8.5,0.5 h 60 v 20 h -60 v -8 -1 h -6 v 3 h -2 v -8 h 2 v 3 h 6 v -1 z" style="fill:#76dbd7;fill-opacity:1;stroke:#003b41;stroke-width:1;stroke-linecap:round;stroke-opacity:1"/><text id="text8028" style="font-size:10px;font-family:sans-serif;text-anchor:start;fill:#000"><tspan id="tspan8026" x="13.333" y="13.833">chunk</tspan></text></g></g><g id="g8042" transform="translate(335,0.42153745)"><g id="g8040" transform="scale(1.5)"><path id="path8034" d="m 0.5,14.5 v -4 a 4,4 90 0 1 4,-4 h 4 l 5,-6 5,6 h 9 30 4 a 4,4 90 0 1 4,4 v 4 4 4 a 4,4 90 0 1 -4,4 h -4 -30 -1 v 2 h -8 v -2 h -1 -4 a 5,5 90 0 0 -5,5 v 4 4 273 4 a 5,5 90 0 0 5,5 h 4 v 2 h 10 v -2 h 8 v 6 6 4 a 4,4 90 0 1 -4,4 h -4 -9 l -5,6 -5,-6 h -4 a 4,4 90 0 1 -4,-4 v -4 z" style="fill:#ffe05c;fill-opacity:1;stroke:#644300;stroke-width:1;stroke-linecap:round;stroke-opacity:1"/><text id="text8038" style="font-size:10px;font-family:sans-serif;text-anchor:start;fill:#000"><tspan id="tspan8036" x="5.333" y="21.5">スタート</tspan></text></g></g><g id="g8056" transform="translate(348.5,40.921537)"><g id="g8054" transform="scale(1.5)"><path id="path8044" d="m 0.5,8.5 v -4 a 4,4 90 0 1 4,-4 h 4 v 2 h 10 v -2 h 9 20 4 a 4,4 90 0 1 4,4 v 4 h -4 v -3 h -4 v 10 h 4 v -3 h 4 v 4 a 4,4 90 0 1 -4,4 h -4 -20 -1 v 2 h -8 v -2 h -1 -4 a 5,5 90 0 0 -5,5 v 4 4 231 4 a 5,5 90 0 0 5,5 h 4 v 2 h 10 v -2 h 8 v 6 6 4 a 4,4 90 0 1 -4,4 h -4 -9 -1 v 2 h -8 v -2 h -1 -4 a 4,4 90 0 1 -4,-4 v -4 z" style="fill:#e9a066;fill-opacity:1;stroke:#3f0a00;stroke-width:1;stroke-linecap:round;stroke-opacity:1"/><text id="text8048" style="font-size:10px;font-family:sans-serif;text-anchor:start;fill:#000"><tspan id="tspan8046" x="5.333" y="15.25">回繰り返す</tspan></text></g></g><g id="g8066" transform="translate(420.5,40.921537)"><g id="g8064" transform="scale(1.5)"><path id="path8058" d="m 8.5,0.5 h 60 v 20 h -60 v -8 -1 h -6 v 3 h -2 v -8 h 2 v 3 h 6 v -1 z" style="fill:#ffb2bc;fill-opacity:1;stroke:#601136;stroke-width:1;stroke-linecap:round;stroke-opacity:1"/><text id="text8062" style="font-size:10px;font-family:sans-serif;text-anchor:start;fill:#000"><tspan id="tspan8060" x="13.333" y="13.833">5</tspan></text></g></g><g id="g8076" transform="translate(389,229.92154)"><g id="g8074" transform="scale(1.5)"><path id="path8068" d="m 0.5,8.5 v -4 a 4,4 90 0 1 4,-4 h 4 v 2 h 10 v -2 h 40 4 a 4,4 90 0 1 4,4 v 4 4 4 a 4,4 90 0 1 -4,4 h -4 -40 -1 v 2 h -8 v -2 h -1 -4 a 4,4 90 0 1 -4,-4 v -4 z" style="fill:#ffe05c;fill-opacity:1;stroke:#644300;stroke-width:1;stroke-linecap:round;stroke-opacity:1"/><text id="text8072" style="font-size:10px;font-family:sans-serif;text-anchor:end;fill:#000"><tspan id="tspan8070" x="56.333" y="13.5">chunk</tspan></text></g></g><g id="g8090" transform="translate(375.5,198.42154)"><g id="g8088" transform="scale(1.5)"><path id="path8078" d="m 0.5,8.5 v -4 a 4,4 90 0 1 4,-4 h 4 v 2 h 10 v -2 h 9 80.60059 4 a 4,4 90 0 1 4,4 v 4 h -4 v -3 h -4 v 10 h 4 v -3 h 4 v 4 a 4,4 90 0 1 -4,4 h -4 H 27.5 h -1 v 2 h -8 v -2 h -1 -4 a 5,5 90 0 0 -5,5 v 4 4 4 a 5,5 90 0 0 5,5 h 4 v 2 h 10 v -2 h 8 v 6 6 4 a 4,4 90 0 1 -4,4 h -4 -9 -1 v 2 h -8 v -2 h -1 -4 a 4,4 90 0 1 -4,-4 v -4 z" style="fill:#93e042;fill-opacity:1;stroke:#004000;stroke-width:1;stroke-linecap:round;stroke-opacity:1"/><text id="text8082" style="font-size:10px;font-family:sans-serif;text-anchor:start;fill:#000"><tspan id="tspan8080" x="5.333" y="15.25">半音で移調</tspan></text></g></g><g id="g8104" transform="translate(362,166.92154)"><g id="g8102" transform="scale(1.5)"><path id="path8092" d="m 0.5,8.5 v -4 a 4,4 90 0 1 4,-4 h 4 v 2 h 10 v -2 h 9 20 4 a 4,4 90 0 1 4,4 v 4 h -4 v -3 h -4 v 10 h 4 v -3 h 4 v 4 a 4,4 90 0 1 -4,4 h -4 -20 -1 v 2 h -8 v -2 h -1 -4 a 5,5 90 0 0 -5,5 v 4 4 126 4 a 5,5 90 0 0 5,5 h 4 v 2 h 10 v -2 h 8 v 6 6 4 a 4,4 90 0 1 -4,4 h -4 -9 -1 v 2 h -8 v -2 h -1 -4 a 4,4 90 0 1 -4,-4 v -4 z" style="fill:#e9a066;fill-opacity:1;stroke:#3f0a00;stroke-width:1;stroke-linecap:round;stroke-opacity:1"/><text id="text8096" style="font-size:10px;font-family:sans-serif;text-anchor:start;fill:#000"><tspan id="tspan8094" x="5.333" y="15.25">回繰り返す</tspan></text></g></g><g id="g8114" transform="translate(434,166.92154)"><g id="g8112" transform="scale(1.5)"><path id="path8106" d="m 8.5,0.5 h 60 v 20 h -60 v -8 -1 h -6 v 3 h -2 v -8 h 2 v 3 h 6 v -1 z" style="fill:#ffb2bc;fill-opacity:1;stroke:#601136;stroke-width:1;stroke-linecap:round;stroke-opacity:1"/><text id="text8110" style="font-size:10px;font-family:sans-serif;text-anchor:start;fill:#000"><tspan id="tspan8108" x="13.333" y="13.833">24</tspan></text></g></g><g id="g8132" transform="translate(27,105.92154)"><g id="g8130" transform="scale(1.5)"><path id="path8116" d="m 0.5,8.5 v -4 a 4,4 90 0 1 4,-4 h 4 v 2 h 10 v -2 h 30 4 a 4,4 90 0 1 4,4 v 4 h -4 v -3 h -4 v 10 h 4 v -3 h 4 v 17 h -4 v -3 h -4 v 10 h 4 v -3 h 4 v 4 a 4,4 90 0 1 -4,4 h -4 -30 -1 v 2 h -8 v -2 h -1 -4 a 4,4 90 0 1 -4,-4 v -4 -21 z" style="fill:#93e042;fill-opacity:1;stroke:#004000;stroke-width:1;stroke-linecap:round;stroke-opacity:1"/><text id="text8120" style="font-size:10px;font-family:sans-serif;text-anchor:end;fill:#000"><tspan id="tspan8118" x="46.333" y="24">ピッチ</tspan></text><text id="text8124" style="font-size:6.66666651px;font-family:sans-serif;text-anchor:end;fill:#000"><tspan id="tspan8122" x="46.333" y="11.25">名前</tspan></text><text id="text8128" style="font-size:6.66666651px;font-family:sans-serif;text-anchor:end;fill:#000"><tspan id="tspan8126" x="46.333" y="32.25">オクターヴ</tspan></text></g></g><g id="g8142" transform="translate(100.5,105.92154)"><g id="g8140" transform="scale(1.5)"><path id="path8134" d="m 8.5,0.5 h 60 v 20 h -60 v -8 -1 h -6 v 3 h -2 v -8 h 2 v 3 h 6 v -1 z" style="fill:#93e042;fill-opacity:1;stroke:#004000;stroke-width:1;stroke-linecap:round;stroke-opacity:1"/><text id="text8138" style="font-size:10px;font-family:sans-serif;text-anchor:start;fill:#000"><tspan id="tspan8136" x="13.333" y="13.833">ソ</tspan></text></g></g><g id="g8152" transform="translate(100.5,137.42154)"><g id="g8150" transform="scale(1.5)"><path id="path8144" d="m 8.5,0.5 h 60 v 20 h -60 v -8 -1 h -6 v 3 h -2 v -8 h 2 v 3 h 6 v -1 z" style="fill:#ffb2bc;fill-opacity:1;stroke:#601136;stroke-width:1;stroke-linecap:round;stroke-opacity:1"/><text id="text8148" style="font-size:10px;font-family:sans-serif;text-anchor:start;fill:#000"><tspan id="tspan8146" x="13.333" y="13.833">4</tspan></text></g></g><g id="g8166" transform="translate(27,168.92154)"><g id="g8164" transform="scale(1.5)"><path id="path8154" d="m 0.5,8.5 v -4 a 4,4 90 0 1 4,-4 h 4 v 2 h 10 v -2 h 33.344727 4 a 4,4 90 0 1 4,4 v 4 h -4 v -3 h -4 v 10 h 4 v -3 h 4 v 4 a 4,4 90 0 1 -4,4 h -4 H 18.5 h -1 v 2 h -8 v -2 h -1 -4 a 4,4 90 0 1 -4,-4 v -4 z" style="fill:#9ddd5f;fill-opacity:1;stroke:#003e00;stroke-width:1;stroke-linecap:round;stroke-opacity:1"/><text id="text8158" style="font-size:10px;font-family:sans-serif;text-anchor:end;fill:#000"><tspan id="tspan8156" x="49.678" y="13.5">前</tspan></text></g></g><g id="g8176" transform="translate(105.51709,168.92154)"><g id="g8174" transform="scale(1.5)"><path id="path8168" d="m 8.5,0.5 h 60 v 20 h -60 v -8 -1 h -6 v 3 h -2 v -8 h 2 v 3 h 6 v -1 z" style="fill:#ffb2bc;fill-opacity:1;stroke:#601136;stroke-width:1;stroke-linecap:round;stroke-opacity:1"/><text id="text8172" style="font-size:10px;font-family:sans-serif;text-anchor:start;fill:#000"><tspan id="tspan8170" x="13.333" y="13.833">10</tspan></text></g></g><g id="g8190" transform="translate(13.5,231.92154)"><g id="g8188" transform="scale(1.5)"><path id="path8178" d="m 0.5,8.5 v -4 a 4,4 90 0 1 4,-4 h 4 v 2 h 10 v -2 h 9 36.147461 4 a 4,4 90 0 1 4,4 v 4 h -4 v -3 h -4 v 10 h 4 v -3 h 4 v 4 a 4,4 90 0 1 -4,4 h -4 H 27.5 h -1 v 2 h -8 v -2 h -1 -4 a 5,5 90 0 0 -5,5 v 4 4 21 4 a 5,5 90 0 0 5,5 h 4 v 2 h 10 v -2 h 8 v 6 6 4 a 4,4 90 0 1 -4,4 h -4 -9 -1 v 2 h -8 v -2 h -1 -4 a 4,4 90 0 1 -4,-4 v -4 z" style="fill:#ff8b2d;fill-opacity:1;stroke:#520000;stroke-width:1;stroke-linecap:round;stroke-opacity:1"/><text id="text8182" style="font-size:10px;font-family:sans-serif;text-anchor:start;fill:#000"><tspan id="tspan8180" x="5.333" y="15.25">音価</tspan></text></g></g><g id="g8208" transform="translate(109.72119,231.92154)"><g id="g8206" transform="scale(1.5)"><path id="path8192" d="m 8.5,8.5 v -4 a 4,4 90 0 1 4,-4 h 4 10 30 4 a 4,4 90 0 1 4,4 v 4 h -4 v -3 h -4 v 10 h 4 v -3 h 4 v 17 h -4 v -3 h -4 v 10 h 4 v -3 h 4 v 4 a 4,4 90 0 1 -4,4 h -4 -30 -10 -4 a 4,4 90 0 1 -4,-4 v -4 -21 -1 h -6 v 3 h -2 v -8 h 2 v 3 h 6 z" style="fill:#ffb2bc;fill-opacity:1;stroke:#601136;stroke-width:1;stroke-linecap:round;stroke-opacity:1"/><text id="text8196" style="font-size:14px;font-family:sans-serif;text-anchor:end;fill:#000"><tspan id="tspan8194" x="54.333" y="23.8">/</tspan></text></g></g><g id="g8218" transform="translate(195.22119,231.92154)"><g id="g8216" transform="scale(1.5)"><path id="path8210" d="m 8.5,0.5 h 60 v 20 h -60 v -8 -1 h -6 v 3 h -2 v -8 h 2 v 3 h 6 v -1 z" style="fill:#ffb2bc;fill-opacity:1;stroke:#601136;stroke-width:1;stroke-linecap:round;stroke-opacity:1"/><text id="text8214" style="font-size:10px;font-family:sans-serif;text-anchor:start;fill:#000"><tspan id="tspan8212" x="13.333" y="13.833">1</tspan></text></g></g><g id="g8228" transform="translate(195.22119,263.42154)"><g id="g8226" transform="scale(1.5)"><path id="path8220" d="m 8.5,0.5 h 60 v 20 h -60 v -8 -1 h -6 v 3 h -2 v -8 h 2 v 3 h 6 v -1 z" style="fill:#ffb2bc;fill-opacity:1;stroke:#601136;stroke-width:1;stroke-linecap:round;stroke-opacity:1"/><text id="text8224" style="font-size:10px;font-family:sans-serif;text-anchor:start;fill:#000"><tspan id="tspan8222" x="13.333" y="13.833">8</tspan></text></g></g><g id="g8238" transform="translate(27,263.42154)"><g id="g8236" transform="scale(1.5)"><path id="path8230" d="m 0.5,8.5 v -4 a 4,4 90 0 1 4,-4 h 4 v 2 h 10 v -2 h 20 4 a 4,4 90 0 1 4,4 v 4 4 4 a 4,4 90 0 1 -4,4 h -4 -20 -1 v 2 h -8 v -2 h -1 -4 a 4,4 90 0 1 -4,-4 v -4 z" style="fill:#d57e6f;fill-opacity:1;stroke:#000;stroke-width:1;stroke-linecap:round;stroke-opacity:1"/><text id="text8234" style="font-size:10px;font-family:sans-serif;text-anchor:end;fill:#000"><tspan id="tspan8232" x="36.333" y="13.5">↓</tspan></text></g></g><g id="g8252" transform="translate(27,294.92154)"><g id="g8250" transform="scale(1.5)"><path id="path8240" d="m 0.5,8.5 v -4 a 4,4 90 0 1 4,-4 h 4 v 2 h 10 v -2 h 30 4 a 4,4 90 0 1 4,4 v 4 h -4 v -3 h -4 v 10 h 4 v -3 h 4 v 4 a 4,4 90 0 1 -4,4 h -4 -30 -1 v 2 h -8 v -2 h -1 -4 a 4,4 90 0 1 -4,-4 v -4 z" style="fill:#9ddd5f;fill-opacity:1;stroke:#003e00;stroke-width:1;stroke-linecap:round;stroke-opacity:1"/><text id="text8244" style="font-size:10px;font-family:sans-serif;text-anchor:end;fill:#000"><tspan id="tspan8242" x="46.333" y="13.5">右</tspan></text></g></g><g id="g8262" transform="translate(100.5,294.92154)"><g id="g8260" transform="scale(1.5)"><path id="path8254" d="m 8.5,0.5 h 60 v 20 h -60 v -8 -1 h -6 v 3 h -2 v -8 h 2 v 3 h 6 v -1 z" style="fill:#ffb2bc;fill-opacity:1;stroke:#601136;stroke-width:1;stroke-linecap:round;stroke-opacity:1"/><text id="text8258" style="font-size:10px;font-family:sans-serif;text-anchor:start;fill:#000"><tspan id="tspan8256" x="13.333" y="13.833">3</tspan></text></g></g><g id="g8272" transform="translate(538.40088,198.42154)"><g id="g8270" transform="scale(1.5)"><path id="path8264" d="m 8.5,0.5 h 80 v 20 h -80 v -8 -1 h -6 v 3 h -2 v -8 h 2 v 3 h 6 v -1 z" style="fill:#ff8b2d;fill-opacity:1;stroke:#520000;stroke-width:1;stroke-linecap:round;stroke-opacity:1"/><text id="text8268" style="font-size:10px;font-family:sans-serif;text-anchor:start;fill:#000"><tspan id="tspan8266" x="13.333" y="13.833">ボックス</tspan></text></g></g><g id="g8286" transform="translate(362,72.421537)"><g id="g8284" transform="scale(1.5)"><path id="path8274" d="m 0.5,8.5 v -4 a 4,4 90 0 1 4,-4 h 4 v 2 h 10 v -2 h 53.364258 4 a 4,4 90 0 1 4,4 v 4 h -4 v -3 h -4 v 10 h 4 v -3 h 4 v 4 a 4,4 90 0 1 -4,4 h -4 H 18.5 h -1 v 2 h -8 v -2 h -1 -4 a 4,4 90 0 1 -4,-4 v -4 z" style="fill:#3ea4a3;fill-opacity:1;stroke:#000;stroke-width:1;stroke-linecap:round;stroke-opacity:1"/><text id="text8278" style="font-size:10px;font-family:sans-serif;text-anchor:end;fill:#000"><tspan id="tspan8276" x="69.698" y="13.5">ペンの大きさの設定</tspan></text></g></g><g id="g8296" transform="translate(470.54639,72.421537)"><g id="g8294" transform="scale(1.5)"><path id="path8288" d="m 8.5,0.5 h 60 v 20 h -60 v -8 -1 h -6 v 3 h -2 v -8 h 2 v 3 h 6 v -1 z" style="fill:#ffb2bc;fill-opacity:1;stroke:#601136;stroke-width:1;stroke-linecap:round;stroke-opacity:1"/><text id="text8292" style="font-size:10px;font-family:sans-serif;text-anchor:start;fill:#000"><tspan id="tspan8290" x="13.333" y="13.833">50</tspan></text></g></g><g id="g8314" transform="translate(362,103.92154)"><g id="g8312" transform="scale(1.5)"><path id="path8298" d="m 0.5,8.5 v -4 a 4,4 90 0 1 4,-4 h 4 v 2 h 10 v -2 h 32.792969 4 a 4,4 90 0 1 4,4 v 4 h -4 v -3 h -4 v 10 h 4 v -3 h 4 v 17 h -4 v -3 h -4 v 10 h 4 v -3 h 4 v 4 a 4,4 90 0 1 -4,4 h -4 H 18.5 h -1 v 2 h -8 v -2 h -1 -4 a 4,4 90 0 1 -4,-4 v -4 -21 z" style="fill:#ff8b2d;fill-opacity:1;stroke:#520000;stroke-width:1;stroke-linecap:round;stroke-opacity:1"/><text id="text8302" style="font-size:10px;font-family:sans-serif;text-anchor:end;fill:#000"><tspan id="tspan8300" x="49.126" y="24">方存</tspan></text><text id="text8306" style="font-size:6.66666651px;font-family:sans-serif;text-anchor:end;fill:#000"><tspan id="tspan8304" x="49.126" y="11.25">名前</tspan></text><text id="text8310" style="font-size:6.66666651px;font-family:sans-serif;text-anchor:end;fill:#000"><tspan id="tspan8308" x="49.126" y="32.25">価値</tspan></text></g></g><g id="g8324" transform="translate(439.68945,103.92154)"><g id="g8322" transform="scale(1.5)"><path id="path8316" d="m 8.5,0.5 h 60 v 20 h -60 v -8 -1 h -6 v 3 h -2 v -8 h 2 v 3 h 6 v -1 z" style="fill:#76dbd7;fill-opacity:1;stroke:#003b41;stroke-width:1;stroke-linecap:round;stroke-opacity:1"/><text id="text8320" style="font-size:10px;font-family:sans-serif;text-anchor:start;fill:#000"><tspan id="tspan8318" x="13.333" y="13.833">ボックス</tspan></text></g></g><g id="g8334" transform="translate(439.68945,135.42154)"><g id="g8332" transform="scale(1.5)"><path id="path8326" d="m 8.5,0.5 h 60 v 20 h -60 v -8 -1 h -6 v 3 h -2 v -8 h 2 v 3 h 6 v -1 z" style="fill:#ffb2bc;fill-opacity:1;stroke:#601136;stroke-width:1;stroke-linecap:round;stroke-opacity:1"/><text id="text8330" style="font-size:10px;font-family:sans-serif;text-anchor:start;fill:#000"><tspan id="tspan8328" x="13.333" y="13.833">0</tspan></text></g></g><g id="g8348" transform="translate(375.5,292.92154)"><g id="g8346" transform="scale(1.5)"><path id="path8336" d="m 0.5,8.5 v -4 a 4,4 90 0 1 4,-4 h 4 v 2 h 10 v -2 h 36.142578 4 a 4,4 90 0 1 4,4 v 4 h -4 v -3 h -4 v 10 h 4 v -3 h 4 v 4 a 4,4 90 0 1 -4,4 h -4 H 18.5 h -1 v 2 h -8 v -2 h -1 -4 a 4,4 90 0 1 -4,-4 v -4 z" style="fill:#ff8b2d;fill-opacity:1;stroke:#520000;stroke-width:1;stroke-linecap:round;stroke-opacity:1"/><text id="text8340" style="font-size:10px;font-family:sans-serif;text-anchor:end;fill:#000"><tspan id="tspan8338" x="52.476" y="13.5">に１を足す</tspan></text></g></g><g id="g8358" transform="translate(458.21387,292.92154)"><g id="g8356" transform="scale(1.5)"><path id="path8350" d="m 8.5,0.5 h 80 v 20 h -80 v -8 -1 h -6 v 3 h -2 v -8 h 2 v 3 h 6 v -1 z" style="fill:#ff8b2d;fill-opacity:1;stroke:#520000;stroke-width:1;stroke-linecap:round;stroke-opacity:1"/><text id="text8354" style="font-size:10px;font-family:sans-serif;text-anchor:start;fill:#000"><tspan id="tspan8352" x="13.333" y="13.833">ボックス</tspan></text></g></g><g id="g8372" transform="translate(375.5,324.42154)"><g id="g8370" transform="scale(1.5)"><path id="path8360" d="m 0.5,8.5 v -4 a 4,4 90 0 1 4,-4 h 4 v 2 h 10 v -2 h 36.142578 4 a 4,4 90 0 1 4,4 v 4 h -4 v -3 h -4 v 10 h 4 v -3 h 4 v 4 a 4,4 90 0 1 -4,4 h -4 H 18.5 h -1 v 2 h -8 v -2 h -1 -4 a 4,4 90 0 1 -4,-4 v -4 z" style="fill:#ff8b2d;fill-opacity:1;stroke:#520000;stroke-width:1;stroke-linecap:round;stroke-opacity:1"/><text id="text8364" style="font-size:10px;font-family:sans-serif;text-anchor:end;fill:#000"><tspan id="tspan8362" x="52.476" y="13.5">に１を足す</tspan></text></g></g><g id="g8390" transform="translate(375.5,355.92154)"><g id="g8388" transform="scale(1.5)"><path id="path8374" d="m 0.5,8.5 v -4 a 4,4 90 0 1 4,-4 h 4 v 2 h 10 v -2 h 30 4 a 4,4 90 0 1 4,4 v 4 h -4 v -3 h -4 v 10 h 4 v -3 h 4 v 17 h -4 v -3 h -4 v 10 h 4 v -3 h 4 v 4 a 4,4 90 0 1 -4,4 h -4 -30 -1 v 2 h -8 v -2 h -1 -4 a 4,4 90 0 1 -4,-4 v -4 -21 z" style="fill:#ff8b2d;fill-opacity:1;stroke:#520000;stroke-width:1;stroke-linecap:round;stroke-opacity:1"/><text id="text8378" style="font-size:10px;font-family:sans-serif;text-anchor:end;fill:#000"><tspan id="tspan8376" x="46.333" y="24">足し算をする</tspan></text><text id="text8382" style="font-size:6.66666651px;font-family:sans-serif;text-anchor:end;fill:#000"><tspan id="tspan8380" x="46.333" y="11.25">最終の状態</tspan></text><text id="text8386" style="font-size:6.66666651px;font-family:sans-serif;text-anchor:end;fill:#000"><tspan id="tspan8384" x="46.333" y="32.25">価値</tspan></text></g></g><g id="g8400" transform="translate(449,355.92154)"><g id="g8398" transform="scale(1.5)"><path id="path8392" d="m 8.5,0.5 h 77.246094 v 20 H 8.5 v -8 -1 h -6 v 3 h -2 v -8 h 2 v 3 h 6 v -1 z" style="fill:#3ea4a3;fill-opacity:1;stroke:#000;stroke-width:1;stroke-linecap:round;stroke-opacity:1"/><text id="text8396" style="font-size:10px;font-family:sans-serif;text-anchor:start;fill:#000"><tspan id="tspan8394" x="13.333" y="13.833">ペンの大きさ</tspan></text></g></g><g id="g8410" transform="translate(458.21387,324.42154)"><g id="g8408" transform="scale(1.5)"><path id="path8402" d="m 8.5,0.5 h 70 v 20 h -70 v -8 -1 h -6 v 3 h -2 v -8 h 2 v 3 h 6 v -1 z" style="fill:#3ea4a3;fill-opacity:1;stroke:#000;stroke-width:1;stroke-linecap:round;stroke-opacity:1"/><text id="text8406" style="font-size:10px;font-family:sans-serif;text-anchor:start;fill:#000"><tspan id="tspan8404" x="13.333" y="13.833">いろ</tspan></text></g></g><g id="g8420" transform="translate(449,387.42154)"><g id="g8418" transform="scale(1.5)"><path id="path8412" d="m 8.5,0.5 h 60 v 20 h -60 v -8 -1 h -6 v 3 h -2 v -8 h 2 v 3 h 6 v -1 z" style="fill:#ffb2bc;fill-opacity:1;stroke:#601136;stroke-width:1;stroke-linecap:round;stroke-opacity:1"/><text id="text8416" style="font-size:10px;font-family:sans-serif;text-anchor:start;fill:#000"><tspan id="tspan8414" x="13.333" y="13.833">-2</tspan></text></g></g></svg>