<svg xmlns="http://www.w3.org/2000/svg" xmlns:svg="http://www.w3.org/2000/svg" id="svg1394" width="639.388" height="813.343" version="1.1"><metadata id="metadata1400"/><g id="g736" transform="translate(-3.3333333e-6,7.4215375)"><g id="g734" transform="scale(1.5)"><path id="path728" d="m 0.5,14.5 v -4 a 4,4 90 0 1 4,-4 h 4 l 5,-6 5,6 h 9 30 4 a 4,4 90 0 1 4,4 v 4 4 4 a 4,4 90 0 1 -4,4 h -4 -30 -1 v 2 h -8 v -2 h -1 -4 a 5,5 90 0 0 -5,5 v 4 4 462 4 a 5,5 90 0 0 5,5 h 4 v 2 h 10 v -2 h 8 v 6 6 4 a 4,4 90 0 1 -4,4 h -4 -9 l -5,6 -5,-6 h -4 a 4,4 90 0 1 -4,-4 v -4 z" style="fill:#ffe05c;fill-opacity:1;stroke:#644300;stroke-width:1;stroke-linecap:round;stroke-opacity:1"/><text id="text732" style="font-size:10px;font-family:sans-serif;text-anchor:start;fill:#000"><tspan id="tspan730" x="5.333" y="21.5">スタート</tspan></text></g></g><g id="g754" transform="translate(26.999997,362.92154)"><g id="g752" transform="scale(1.5)"><path id="path738" d="m 0.5,8.5 v -4 a 4,4 90 0 1 4,-4 h 4 v 2 h 10 v -2 h 30 4 a 4,4 90 0 1 4,4 v 4 h -4 v -3 h -4 v 10 h 4 v -3 h 4 v 17 h -4 v -3 h -4 v 10 h 4 v -3 h 4 v 4 a 4,4 90 0 1 -4,4 h -4 -30 -1 v 2 h -8 v -2 h -1 -4 a 4,4 90 0 1 -4,-4 v -4 -21 z" style="fill:#ff8b2d;fill-opacity:1;stroke:#520000;stroke-width:1;stroke-linecap:round;stroke-opacity:1"/><text id="text742" style="font-size:10px;font-family:sans-serif;text-anchor:end;fill:#000"><tspan id="tspan740" x="46.333" y="24">足し算をする</tspan></text><text id="text746" style="font-size:6.66666651px;font-family:sans-serif;text-anchor:end;fill:#000"><tspan id="tspan744" x="46.333" y="11.25">最終の状態</tspan></text><text id="text750" style="font-size:6.66666651px;font-family:sans-serif;text-anchor:end;fill:#000"><tspan id="tspan748" x="46.333" y="32.25">価値</tspan></text></g></g><g id="g772" transform="translate(13.499997,47.921537)"><g id="g770" transform="scale(1.5)"><path id="path756" d="m 0.5,8.5 v -4 a 4,4 90 0 1 4,-4 h 4 v 2 h 10 v -2 h 32.792969 4 a 4,4 90 0 1 4,4 v 4 h -4 v -3 h -4 v 10 h 4 v -3 h 4 v 17 h -4 v -3 h -4 v 10 h 4 v -3 h 4 v 4 a 4,4 90 0 1 -4,4 h -4 H 18.5 h -1 v 2 h -8 v -2 h -1 -4 a 4,4 90 0 1 -4,-4 v -4 -21 z" style="fill:#ff8b2d;fill-opacity:1;stroke:#520000;stroke-width:1;stroke-linecap:round;stroke-opacity:1"/><text id="text760" style="font-size:10px;font-family:sans-serif;text-anchor:end;fill:#000"><tspan id="tspan758" x="49.126" y="24">方存</tspan></text><text id="text764" style="font-size:6.66666651px;font-family:sans-serif;text-anchor:end;fill:#000"><tspan id="tspan762" x="49.126" y="11.25">名前</tspan></text><text id="text768" style="font-size:6.66666651px;font-family:sans-serif;text-anchor:end;fill:#000"><tspan id="tspan766" x="49.126" y="32.25">価値</tspan></text></g></g><g id="g782" transform="translate(91.189457,47.921537)"><g id="g780" transform="scale(1.5)"><path id="path774" d="m 8.5,0.5 h 60 v 20 h -60 v -8 -1 h -6 v 3 h -2 v -8 h 2 v 3 h 6 v -1 z" style="fill:#76dbd7;fill-opacity:1;stroke:#003b41;stroke-width:1;stroke-linecap:round;stroke-opacity:1"/><text id="text778" style="font-size:10px;font-family:sans-serif;text-anchor:start;fill:#000"><tspan id="tspan776" x="13.333" y="13.833">ボックス</tspan></text></g></g><g id="g792" transform="translate(91.189457,79.421537)"><g id="g790" transform="scale(1.5)"><path id="path784" d="m 8.5,0.5 h 60 v 20 h -60 v -8 -1 h -6 v 3 h -2 v -8 h 2 v 3 h 6 v -1 z" style="fill:#ffb2bc;fill-opacity:1;stroke:#601136;stroke-width:1;stroke-linecap:round;stroke-opacity:1"/><text id="text788" style="font-size:10px;font-family:sans-serif;text-anchor:start;fill:#000"><tspan id="tspan786" x="13.333" y="13.833">0</tspan></text></g></g><g id="g806" transform="translate(313.66667,0.42153745)"><g id="g804" transform="scale(1.5)"><path id="path794" d="m 0.5,14.5 v -4 a 4,4 90 0 1 4,-4 h 4 l 5,-6 5,6 h 9 35 4 a 4,4 90 0 1 4,4 v 4 h -4 v -3 h -4 v 10 h 4 v -3 h 4 v 4 a 4,4 90 0 1 -4,4 h -4 -35 -1 v 2 h -8 v -2 h -1 -4 a 5,5 90 0 0 -5,5 v 4 4 315 4 a 5,5 90 0 0 5,5 h 4 v 2 h 10 v -2 h 8 v 6 6 4 a 4,4 90 0 1 -4,4 h -4 -9 l -5,6 -5,-6 h -4 a 4,4 90 0 1 -4,-4 v -4 z" style="fill:#ffe05c;fill-opacity:1;stroke:#644300;stroke-width:1;stroke-linecap:round;stroke-opacity:1"/><text id="text798" style="font-size:10px;font-family:sans-serif;text-anchor:start;fill:#000"><tspan id="tspan796" x="5.333" y="21.5">動作</tspan></text></g></g><g id="g816" transform="translate(408.16667,9.4215375)"><g id="g814" transform="scale(1.5)"><path id="path808" d="m 8.5,0.5 h 60 v 20 h -60 v -8 -1 h -6 v 3 h -2 v -8 h 2 v 3 h 6 v -1 z" style="fill:#76dbd7;fill-opacity:1;stroke:#003b41;stroke-width:1;stroke-linecap:round;stroke-opacity:1"/><text id="text812" style="font-size:10px;font-family:sans-serif;text-anchor:start;fill:#000"><tspan id="tspan810" x="13.333" y="13.833">動作</tspan></text></g></g><g id="g830" transform="translate(327.16667,40.921537)"><g id="g828" transform="scale(1.5)"><path id="path818" d="m 0.5,8.5 v -4 a 4,4 90 0 1 4,-4 h 4 v 2 h 10 v -2 h 9 80.60059 4 a 4,4 90 0 1 4,4 v 4 h -4 v -3 h -4 v 10 h 4 v -3 h 4 v 4 a 4,4 90 0 1 -4,4 h -4 H 27.5 h -1 v 2 h -8 v -2 h -1 -4 a 5,5 90 0 0 -5,5 v 4 4 273 4 a 5,5 90 0 0 5,5 h 4 v 2 h 10 v -2 h 8 v 6 6 4 a 4,4 90 0 1 -4,4 h -4 -9 -1 v 2 h -8 v -2 h -1 -4 a 4,4 90 0 1 -4,-4 v -4 z" style="fill:#93e042;fill-opacity:1;stroke:#004000;stroke-width:1;stroke-linecap:round;stroke-opacity:1"/><text id="text822" style="font-size:10px;font-family:sans-serif;text-anchor:start;fill:#000"><tspan id="tspan820" x="5.333" y="15.25">半音で移調</tspan></text></g></g><g id="g840" transform="translate(490.06755,40.921537)"><g id="g838" transform="scale(1.5)"><path id="path832" d="m 8.5,0.5 h 80 v 20 h -80 v -8 -1 h -6 v 3 h -2 v -8 h 2 v 3 h 6 v -1 z" style="fill:#ff8b2d;fill-opacity:1;stroke:#520000;stroke-width:1;stroke-linecap:round;stroke-opacity:1"/><text id="text836" style="font-size:10px;font-family:sans-serif;text-anchor:start;fill:#000"><tspan id="tspan834" x="13.333" y="13.833">ボックス</tspan></text></g></g><g id="g850" transform="translate(13.499997,110.92154)"><g id="g848" transform="scale(1.5)"><path id="path842" d="m 0.5,8.5 v -4 a 4,4 90 0 1 4,-4 h 4 v 2 h 10 v -2 h 40 4 a 4,4 90 0 1 4,4 v 4 4 4 a 4,4 90 0 1 -4,4 h -4 -40 -1 v 2 h -8 v -2 h -1 -4 a 4,4 90 0 1 -4,-4 v -4 z" style="fill:#ffe05c;fill-opacity:1;stroke:#644300;stroke-width:1;stroke-linecap:round;stroke-opacity:1"/><text id="text846" style="font-size:10px;font-family:sans-serif;text-anchor:end;fill:#000"><tspan id="tspan844" x="56.333" y="13.5">動作</tspan></text></g></g><g id="g868" transform="translate(13.499997,142.42154)"><g id="g866" transform="scale(1.5)"><path id="path852" d="m 0.5,8.5 v -4 a 4,4 90 0 1 4,-4 h 4 v 2 h 10 v -2 h 30 4 a 4,4 90 0 1 4,4 v 4 h -4 v -3 h -4 v 10 h 4 v -3 h 4 v 17 h -4 v -3 h -4 v 10 h 4 v -3 h 4 v 4 a 4,4 90 0 1 -4,4 h -4 -30 -1 v 2 h -8 v -2 h -1 -4 a 4,4 90 0 1 -4,-4 v -4 -21 z" style="fill:#ff8b2d;fill-opacity:1;stroke:#520000;stroke-width:1;stroke-linecap:round;stroke-opacity:1"/><text id="text856" style="font-size:10px;font-family:sans-serif;text-anchor:end;fill:#000"><tspan id="tspan854" x="46.333" y="24">足し算をする</tspan></text><text id="text860" style="font-size:6.66666651px;font-family:sans-serif;text-anchor:end;fill:#000"><tspan id="tspan858" x="46.333" y="11.25">最終の状態</tspan></text><text id="text864" style="font-size:6.66666651px;font-family:sans-serif;text-anchor:end;fill:#000"><tspan id="tspan862" x="46.333" y="32.25">価値</tspan></text></g></g><g id="g878" transform="translate(86.999997,142.42154)"><g id="g876" transform="scale(1.5)"><path id="path870" d="m 8.5,0.5 h 80 v 20 h -80 v -8 -1 h -6 v 3 h -2 v -8 h 2 v 3 h 6 v -1 z" style="fill:#ff8b2d;fill-opacity:1;stroke:#520000;stroke-width:1;stroke-linecap:round;stroke-opacity:1"/><text id="text874" style="font-size:10px;font-family:sans-serif;text-anchor:start;fill:#000"><tspan id="tspan872" x="13.333" y="13.833">ボックス</tspan></text></g></g><g id="g888" transform="translate(13.499997,205.42154)"><g id="g886" transform="scale(1.5)"><path id="path880" d="m 0.5,8.5 v -4 a 4,4 90 0 1 4,-4 h 4 v 2 h 10 v -2 h 40 4 a 4,4 90 0 1 4,4 v 4 4 4 a 4,4 90 0 1 -4,4 h -4 -40 -1 v 2 h -8 v -2 h -1 -4 a 4,4 90 0 1 -4,-4 v -4 z" style="fill:#ffe05c;fill-opacity:1;stroke:#644300;stroke-width:1;stroke-linecap:round;stroke-opacity:1"/><text id="text884" style="font-size:10px;font-family:sans-serif;text-anchor:end;fill:#000"><tspan id="tspan882" x="56.333" y="13.5">動作</tspan></text></g></g><g id="g902" transform="translate(340.66667,72.421537)"><g id="g900" transform="scale(1.5)"><path id="path890" d="m 0.5,8.5 v -4 a 4,4 90 0 1 4,-4 h 4 v 2 h 10 v -2 h 9 20 4 a 4,4 90 0 1 4,4 v 4 h -4 v -3 h -4 v 10 h 4 v -3 h 4 v 4 a 4,4 90 0 1 -4,4 h -4 -20 -1 v 2 h -8 v -2 h -1 -4 a 5,5 90 0 0 -5,5 v 4 4 84 4 a 5,5 90 0 0 5,5 h 4 v 2 h 10 v -2 h 8 v 6 6 4 a 4,4 90 0 1 -4,4 h -4 -9 -1 v 2 h -8 v -2 h -1 -4 a 4,4 90 0 1 -4,-4 v -4 z" style="fill:#e9a066;fill-opacity:1;stroke:#3f0a00;stroke-width:1;stroke-linecap:round;stroke-opacity:1"/><text id="text894" style="font-size:10px;font-family:sans-serif;text-anchor:start;fill:#000"><tspan id="tspan892" x="5.333" y="15.25">回繰り返す</tspan></text></g></g><g id="g912" transform="translate(412.66667,72.421537)"><g id="g910" transform="scale(1.5)"><path id="path904" d="m 8.5,0.5 h 60 v 20 h -60 v -8 -1 h -6 v 3 h -2 v -8 h 2 v 3 h 6 v -1 z" style="fill:#ffb2bc;fill-opacity:1;stroke:#601136;stroke-width:1;stroke-linecap:round;stroke-opacity:1"/><text id="text908" style="font-size:10px;font-family:sans-serif;text-anchor:start;fill:#000"><tspan id="tspan906" x="13.333" y="13.833">4</tspan></text></g></g><g id="g926" transform="translate(354.16667,103.92154)"><g id="g924" transform="scale(1.5)"><path id="path914" d="m 0.5,8.5 v -4 a 4,4 90 0 1 4,-4 h 4 v 2 h 10 v -2 h 9 36.147461 4 a 4,4 90 0 1 4,4 v 4 h -4 v -3 h -4 v 10 h 4 v -3 h 4 v 4 a 4,4 90 0 1 -4,4 h -4 H 27.5 h -1 v 2 h -8 v -2 h -1 -4 a 5,5 90 0 0 -5,5 v 4 4 42 4 a 5,5 90 0 0 5,5 h 4 v 2 h 10 v -2 h 8 v 6 6 4 a 4,4 90 0 1 -4,4 h -4 -9 -1 v 2 h -8 v -2 h -1 -4 a 4,4 90 0 1 -4,-4 v -4 z" style="fill:#ff8b2d;fill-opacity:1;stroke:#520000;stroke-width:1;stroke-linecap:round;stroke-opacity:1"/><text id="text918" style="font-size:10px;font-family:sans-serif;text-anchor:start;fill:#000"><tspan id="tspan916" x="5.333" y="15.25">音価</tspan></text></g></g><g id="g944" transform="translate(450.38786,103.92154)"><g id="g942" transform="scale(1.5)"><path id="path928" d="m 8.5,8.5 v -4 a 4,4 90 0 1 4,-4 h 4 10 30 4 a 4,4 90 0 1 4,4 v 4 h -4 v -3 h -4 v 10 h 4 v -3 h 4 v 17 h -4 v -3 h -4 v 10 h 4 v -3 h 4 v 4 a 4,4 90 0 1 -4,4 h -4 -30 -10 -4 a 4,4 90 0 1 -4,-4 v -4 -21 -1 h -6 v 3 h -2 v -8 h 2 v 3 h 6 z" style="fill:#ffb2bc;fill-opacity:1;stroke:#601136;stroke-width:1;stroke-linecap:round;stroke-opacity:1"/><text id="text932" style="font-size:14px;font-family:sans-serif;text-anchor:end;fill:#000"><tspan id="tspan930" x="54.333" y="23.8">/</tspan></text></g></g><g id="g954" transform="translate(535.88786,103.92154)"><g id="g952" transform="scale(1.5)"><path id="path946" d="m 8.5,0.5 h 60 v 20 h -60 v -8 -1 h -6 v 3 h -2 v -8 h 2 v 3 h 6 v -1 z" style="fill:#ffb2bc;fill-opacity:1;stroke:#601136;stroke-width:1;stroke-linecap:round;stroke-opacity:1"/><text id="text950" style="font-size:10px;font-family:sans-serif;text-anchor:start;fill:#000"><tspan id="tspan948" x="13.333" y="13.833">1</tspan></text></g></g><g id="g964" transform="translate(535.88786,135.42154)"><g id="g962" transform="scale(1.5)"><path id="path956" d="m 8.5,0.5 h 60 v 20 h -60 v -8 -1 h -6 v 3 h -2 v -8 h 2 v 3 h 6 v -1 z" style="fill:#ffb2bc;fill-opacity:1;stroke:#601136;stroke-width:1;stroke-linecap:round;stroke-opacity:1"/><text id="text960" style="font-size:10px;font-family:sans-serif;text-anchor:start;fill:#000"><tspan id="tspan958" x="13.333" y="13.833">8</tspan></text></g></g><g id="g974" transform="translate(367.66667,135.42154)"><g id="g972" transform="scale(1.5)"><path id="path966" d="m 0.5,8.5 v -4 a 4,4 90 0 1 4,-4 h 4 v 2 h 10 v -2 h 20 4 a 4,4 90 0 1 4,4 v 4 4 4 a 4,4 90 0 1 -4,4 h -4 -20 -1 v 2 h -8 v -2 h -1 -4 a 4,4 90 0 1 -4,-4 v -4 z" style="fill:#d57e6f;fill-opacity:1;stroke:#000;stroke-width:1;stroke-linecap:round;stroke-opacity:1"/><text id="text970" style="font-size:10px;font-family:sans-serif;text-anchor:end;fill:#000"><tspan id="tspan968" x="36.333" y="13.5">↓</tspan></text></g></g><g id="g992" transform="translate(367.66667,166.92154)"><g id="g990" transform="scale(1.5)"><path id="path976" d="m 0.5,8.5 v -4 a 4,4 90 0 1 4,-4 h 4 v 2 h 10 v -2 h 30 4 a 4,4 90 0 1 4,4 v 4 h -4 v -3 h -4 v 10 h 4 v -3 h 4 v 17 h -4 v -3 h -4 v 10 h 4 v -3 h 4 v 4 a 4,4 90 0 1 -4,4 h -4 -30 -1 v 2 h -8 v -2 h -1 -4 a 4,4 90 0 1 -4,-4 v -4 -21 z" style="fill:#93e042;fill-opacity:1;stroke:#004000;stroke-width:1;stroke-linecap:round;stroke-opacity:1"/><text id="text980" style="font-size:10px;font-family:sans-serif;text-anchor:end;fill:#000"><tspan id="tspan978" x="46.333" y="24">ピッチ</tspan></text><text id="text984" style="font-size:6.66666651px;font-family:sans-serif;text-anchor:end;fill:#000"><tspan id="tspan982" x="46.333" y="11.25">名前</tspan></text><text id="text988" style="font-size:6.66666651px;font-family:sans-serif;text-anchor:end;fill:#000"><tspan id="tspan986" x="46.333" y="32.25">オクターヴ</tspan></text></g></g><g id="g1002" transform="translate(441.16667,166.92154)"><g id="g1000" transform="scale(1.5)"><path id="path994" d="m 8.5,0.5 h 60 v 20 h -60 v -8 -1 h -6 v 3 h -2 v -8 h 2 v 3 h 6 v -1 z" style="fill:#93e042;fill-opacity:1;stroke:#004000;stroke-width:1;stroke-linecap:round;stroke-opacity:1"/><text id="text998" style="font-size:10px;font-family:sans-serif;text-anchor:start;fill:#000"><tspan id="tspan996" x="13.333" y="13.833">をするのは</tspan></text></g></g><g id="g1012" transform="translate(441.16667,198.42154)"><g id="g1010" transform="scale(1.5)"><path id="path1004" d="m 8.5,0.5 h 60 v 20 h -60 v -8 -1 h -6 v 3 h -2 v -8 h 2 v 3 h 6 v -1 z" style="fill:#ffb2bc;fill-opacity:1;stroke:#601136;stroke-width:1;stroke-linecap:round;stroke-opacity:1"/><text id="text1008" style="font-size:10px;font-family:sans-serif;text-anchor:start;fill:#000"><tspan id="tspan1006" x="13.333" y="13.833">4</tspan></text></g></g><g id="g1026" transform="translate(340.66667,292.92154)"><g id="g1024" transform="scale(1.5)"><path id="path1014" d="m 0.5,8.5 v -4 a 4,4 90 0 1 4,-4 h 4 v 2 h 10 v -2 h 9 20 4 a 4,4 90 0 1 4,4 v 4 h -4 v -3 h -4 v 10 h 4 v -3 h 4 v 4 a 4,4 90 0 1 -4,4 h -4 -20 -1 v 2 h -8 v -2 h -1 -4 a 5,5 90 0 0 -5,5 v 4 4 84 4 a 5,5 90 0 0 5,5 h 4 v 2 h 10 v -2 h 8 v 6 6 4 a 4,4 90 0 1 -4,4 h -4 -9 -1 v 2 h -8 v -2 h -1 -4 a 4,4 90 0 1 -4,-4 v -4 z" style="fill:#e9a066;fill-opacity:1;stroke:#3f0a00;stroke-width:1;stroke-linecap:round;stroke-opacity:1"/><text id="text1018" style="font-size:10px;font-family:sans-serif;text-anchor:start;fill:#000"><tspan id="tspan1016" x="5.333" y="15.25">回繰り返す</tspan></text></g></g><g id="g1036" transform="translate(412.66667,292.92154)"><g id="g1034" transform="scale(1.5)"><path id="path1028" d="m 8.5,0.5 h 60 v 20 h -60 v -8 -1 h -6 v 3 h -2 v -8 h 2 v 3 h 6 v -1 z" style="fill:#ffb2bc;fill-opacity:1;stroke:#601136;stroke-width:1;stroke-linecap:round;stroke-opacity:1"/><text id="text1032" style="font-size:10px;font-family:sans-serif;text-anchor:start;fill:#000"><tspan id="tspan1030" x="13.333" y="13.833">2</tspan></text></g></g><g id="g1050" transform="translate(354.16667,324.42154)"><g id="g1048" transform="scale(1.5)"><path id="path1038" d="m 0.5,8.5 v -4 a 4,4 90 0 1 4,-4 h 4 v 2 h 10 v -2 h 9 36.147461 4 a 4,4 90 0 1 4,4 v 4 h -4 v -3 h -4 v 10 h 4 v -3 h 4 v 4 a 4,4 90 0 1 -4,4 h -4 H 27.5 h -1 v 2 h -8 v -2 h -1 -4 a 5,5 90 0 0 -5,5 v 4 4 42 4 a 5,5 90 0 0 5,5 h 4 v 2 h 10 v -2 h 8 v 6 6 4 a 4,4 90 0 1 -4,4 h -4 -9 -1 v 2 h -8 v -2 h -1 -4 a 4,4 90 0 1 -4,-4 v -4 z" style="fill:#ff8b2d;fill-opacity:1;stroke:#520000;stroke-width:1;stroke-linecap:round;stroke-opacity:1"/><text id="text1042" style="font-size:10px;font-family:sans-serif;text-anchor:start;fill:#000"><tspan id="tspan1040" x="5.333" y="15.25">音価</tspan></text></g></g><g id="g1068" transform="translate(450.38786,324.42154)"><g id="g1066" transform="scale(1.5)"><path id="path1052" d="m 8.5,8.5 v -4 a 4,4 90 0 1 4,-4 h 4 10 30 4 a 4,4 90 0 1 4,4 v 4 h -4 v -3 h -4 v 10 h 4 v -3 h 4 v 17 h -4 v -3 h -4 v 10 h 4 v -3 h 4 v 4 a 4,4 90 0 1 -4,4 h -4 -30 -10 -4 a 4,4 90 0 1 -4,-4 v -4 -21 -1 h -6 v 3 h -2 v -8 h 2 v 3 h 6 z" style="fill:#ffb2bc;fill-opacity:1;stroke:#601136;stroke-width:1;stroke-linecap:round;stroke-opacity:1"/><text id="text1056" style="font-size:14px;font-family:sans-serif;text-anchor:end;fill:#000"><tspan id="tspan1054" x="54.333" y="23.8">/</tspan></text></g></g><g id="g1078" transform="translate(535.88786,324.42154)"><g id="g1076" transform="scale(1.5)"><path id="path1070" d="m 8.5,0.5 h 60 v 20 h -60 v -8 -1 h -6 v 3 h -2 v -8 h 2 v 3 h 6 v -1 z" style="fill:#ffb2bc;fill-opacity:1;stroke:#601136;stroke-width:1;stroke-linecap:round;stroke-opacity:1"/><text id="text1074" style="font-size:10px;font-family:sans-serif;text-anchor:start;fill:#000"><tspan id="tspan1072" x="13.333" y="13.833">1</tspan></text></g></g><g id="g1088" transform="translate(535.88786,355.92154)"><g id="g1086" transform="scale(1.5)"><path id="path1080" d="m 8.5,0.5 h 60 v 20 h -60 v -8 -1 h -6 v 3 h -2 v -8 h 2 v 3 h 6 v -1 z" style="fill:#ffb2bc;fill-opacity:1;stroke:#601136;stroke-width:1;stroke-linecap:round;stroke-opacity:1"/><text id="text1084" style="font-size:10px;font-family:sans-serif;text-anchor:start;fill:#000"><tspan id="tspan1082" x="13.333" y="13.833">4</tspan></text></g></g><g id="g1098" transform="translate(367.66667,355.92154)"><g id="g1096" transform="scale(1.5)"><path id="path1090" d="m 0.5,8.5 v -4 a 4,4 90 0 1 4,-4 h 4 v 2 h 10 v -2 h 20 4 a 4,4 90 0 1 4,4 v 4 4 4 a 4,4 90 0 1 -4,4 h -4 -20 -1 v 2 h -8 v -2 h -1 -4 a 4,4 90 0 1 -4,-4 v -4 z" style="fill:#d57e6f;fill-opacity:1;stroke:#000;stroke-width:1;stroke-linecap:round;stroke-opacity:1"/><text id="text1094" style="font-size:10px;font-family:sans-serif;text-anchor:end;fill:#000"><tspan id="tspan1092" x="36.333" y="13.5">↓</tspan></text></g></g><g id="g1116" transform="translate(367.66667,387.42154)"><g id="g1114" transform="scale(1.5)"><path id="path1100" d="m 0.5,8.5 v -4 a 4,4 90 0 1 4,-4 h 4 v 2 h 10 v -2 h 30 4 a 4,4 90 0 1 4,4 v 4 h -4 v -3 h -4 v 10 h 4 v -3 h 4 v 17 h -4 v -3 h -4 v 10 h 4 v -3 h 4 v 4 a 4,4 90 0 1 -4,4 h -4 -30 -1 v 2 h -8 v -2 h -1 -4 a 4,4 90 0 1 -4,-4 v -4 -21 z" style="fill:#93e042;fill-opacity:1;stroke:#004000;stroke-width:1;stroke-linecap:round;stroke-opacity:1"/><text id="text1104" style="font-size:10px;font-family:sans-serif;text-anchor:end;fill:#000"><tspan id="tspan1102" x="46.333" y="24">ピッチ</tspan></text><text id="text1108" style="font-size:6.66666651px;font-family:sans-serif;text-anchor:end;fill:#000"><tspan id="tspan1106" x="46.333" y="11.25">名前</tspan></text><text id="text1112" style="font-size:6.66666651px;font-family:sans-serif;text-anchor:end;fill:#000"><tspan id="tspan1110" x="46.333" y="32.25">オクターヴ</tspan></text></g></g><g id="g1126" transform="translate(441.16667,387.42154)"><g id="g1124" transform="scale(1.5)"><path id="path1118" d="m 8.5,0.5 h 60 v 20 h -60 v -8 -1 h -6 v 3 h -2 v -8 h 2 v 3 h 6 v -1 z" style="fill:#93e042;fill-opacity:1;stroke:#004000;stroke-width:1;stroke-linecap:round;stroke-opacity:1"/><text id="text1122" style="font-size:10px;font-family:sans-serif;text-anchor:start;fill:#000"><tspan id="tspan1120" x="13.333" y="13.833">をするのは</tspan></text></g></g><g id="g1136" transform="translate(441.16667,418.92154)"><g id="g1134" transform="scale(1.5)"><path id="path1128" d="m 8.5,0.5 h 60 v 20 h -60 v -8 -1 h -6 v 3 h -2 v -8 h 2 v 3 h 6 v -1 z" style="fill:#ffb2bc;fill-opacity:1;stroke:#601136;stroke-width:1;stroke-linecap:round;stroke-opacity:1"/><text id="text1132" style="font-size:10px;font-family:sans-serif;text-anchor:start;fill:#000"><tspan id="tspan1130" x="13.333" y="13.833">4</tspan></text></g></g><g id="g1150" transform="translate(13.499997,331.42154)"><g id="g1148" transform="scale(1.5)"><path id="path1138" d="m 0.5,8.5 v -4 a 4,4 90 0 1 4,-4 h 4 v 2 h 10 v -2 h 9 20 4 a 4,4 90 0 1 4,4 v 4 h -4 v -3 h -4 v 10 h 4 v -3 h 4 v 4 a 4,4 90 0 1 -4,4 h -4 -20 -1 v 2 h -8 v -2 h -1 -4 a 5,5 90 0 0 -5,5 v 4 4 42 4 a 5,5 90 0 0 5,5 h 4 v 2 h 10 v -2 h 8 v 6 6 4 a 4,4 90 0 1 -4,4 h -4 -9 -1 v 2 h -8 v -2 h -1 -4 a 4,4 90 0 1 -4,-4 v -4 z" style="fill:#e9a066;fill-opacity:1;stroke:#3f0a00;stroke-width:1;stroke-linecap:round;stroke-opacity:1"/><text id="text1142" style="font-size:10px;font-family:sans-serif;text-anchor:start;fill:#000"><tspan id="tspan1140" x="5.333" y="15.25">回繰り返す</tspan></text></g></g><g id="g1160" transform="translate(85.499997,331.42154)"><g id="g1158" transform="scale(1.5)"><path id="path1152" d="m 8.5,0.5 h 60 v 20 h -60 v -8 -1 h -6 v 3 h -2 v -8 h 2 v 3 h 6 v -1 z" style="fill:#ffb2bc;fill-opacity:1;stroke:#601136;stroke-width:1;stroke-linecap:round;stroke-opacity:1"/><text id="text1156" style="font-size:10px;font-family:sans-serif;text-anchor:start;fill:#000"><tspan id="tspan1154" x="13.333" y="13.833">2</tspan></text></g></g><g id="g1170" transform="translate(100.5,362.92154)"><g id="g1168" transform="scale(1.5)"><path id="path1162" d="m 8.5,0.5 h 80 v 20 h -80 v -8 -1 h -6 v 3 h -2 v -8 h 2 v 3 h 6 v -1 z" style="fill:#ff8b2d;fill-opacity:1;stroke:#520000;stroke-width:1;stroke-linecap:round;stroke-opacity:1"/><text id="text1166" style="font-size:10px;font-family:sans-serif;text-anchor:start;fill:#000"><tspan id="tspan1164" x="13.333" y="13.833">ボックス</tspan></text></g></g><g id="g1180" transform="translate(13.499997,551.92154)"><g id="g1178" transform="scale(1.5)"><path id="path1172" d="m 0.5,8.5 v -4 a 4,4 90 0 1 4,-4 h 4 v 2 h 10 v -2 h 40 4 a 4,4 90 0 1 4,4 v 4 4 4 a 4,4 90 0 1 -4,4 h -4 -40 -1 v 2 h -8 v -2 h -1 -4 a 4,4 90 0 1 -4,-4 v -4 z" style="fill:#ffe05c;fill-opacity:1;stroke:#644300;stroke-width:1;stroke-linecap:round;stroke-opacity:1"/><text id="text1176" style="font-size:10px;font-family:sans-serif;text-anchor:end;fill:#000"><tspan id="tspan1174" x="56.333" y="13.5">動作</tspan></text></g></g><g id="g1198" transform="translate(13.499997,236.92154)"><g id="g1196" transform="scale(1.5)"><path id="path1182" d="m 0.5,8.5 v -4 a 4,4 90 0 1 4,-4 h 4 v 2 h 10 v -2 h 30 4 a 4,4 90 0 1 4,4 v 4 h -4 v -3 h -4 v 10 h 4 v -3 h 4 v 17 h -4 v -3 h -4 v 10 h 4 v -3 h 4 v 4 a 4,4 90 0 1 -4,4 h -4 -30 -1 v 2 h -8 v -2 h -1 -4 a 4,4 90 0 1 -4,-4 v -4 -21 z" style="fill:#ff8b2d;fill-opacity:1;stroke:#520000;stroke-width:1;stroke-linecap:round;stroke-opacity:1"/><text id="text1186" style="font-size:10px;font-family:sans-serif;text-anchor:end;fill:#000"><tspan id="tspan1184" x="46.333" y="24">足し算をする</tspan></text><text id="text1190" style="font-size:6.66666651px;font-family:sans-serif;text-anchor:end;fill:#000"><tspan id="tspan1188" x="46.333" y="11.25">最終の状態</tspan></text><text id="text1194" style="font-size:6.66666651px;font-family:sans-serif;text-anchor:end;fill:#000"><tspan id="tspan1192" x="46.333" y="32.25">価値</tspan></text></g></g><g id="g1208" transform="translate(86.999997,236.92154)"><g id="g1206" transform="scale(1.5)"><path id="path1200" d="m 8.5,0.5 h 80 v 20 h -80 v -8 -1 h -6 v 3 h -2 v -8 h 2 v 3 h 6 v -1 z" style="fill:#ff8b2d;fill-opacity:1;stroke:#520000;stroke-width:1;stroke-linecap:round;stroke-opacity:1"/><text id="text1204" style="font-size:10px;font-family:sans-serif;text-anchor:start;fill:#000"><tspan id="tspan1202" x="13.333" y="13.833">ボックス</tspan></text></g></g><g id="g1218" transform="translate(13.499997,299.92154)"><g id="g1216" transform="scale(1.5)"><path id="path1210" d="m 0.5,8.5 v -4 a 4,4 90 0 1 4,-4 h 4 v 2 h 10 v -2 h 40 4 a 4,4 90 0 1 4,4 v 4 4 4 a 4,4 90 0 1 -4,4 h -4 -40 -1 v 2 h -8 v -2 h -1 -4 a 4,4 90 0 1 -4,-4 v -4 z" style="fill:#ffe05c;fill-opacity:1;stroke:#644300;stroke-width:1;stroke-linecap:round;stroke-opacity:1"/><text id="text1214" style="font-size:10px;font-family:sans-serif;text-anchor:end;fill:#000"><tspan id="tspan1212" x="56.333" y="13.5">動作</tspan></text></g></g><g id="g1232" transform="translate(13.499997,583.42154)"><g id="g1230" transform="scale(1.5)"><path id="path1220" d="m 0.5,8.5 v -4 a 4,4 90 0 1 4,-4 h 4 v 2 h 10 v -2 h 9 20 4 a 4,4 90 0 1 4,4 v 4 h -4 v -3 h -4 v 10 h 4 v -3 h 4 v 4 a 4,4 90 0 1 -4,4 h -4 -20 -1 v 2 h -8 v -2 h -1 -4 a 5,5 90 0 0 -5,5 v 4 4 42 4 a 5,5 90 0 0 5,5 h 4 v 2 h 10 v -2 h 8 v 6 6 4 a 4,4 90 0 1 -4,4 h -4 -9 -1 v 2 h -8 v -2 h -1 -4 a 4,4 90 0 1 -4,-4 v -4 z" style="fill:#e9a066;fill-opacity:1;stroke:#3f0a00;stroke-width:1;stroke-linecap:round;stroke-opacity:1"/><text id="text1224" style="font-size:10px;font-family:sans-serif;text-anchor:start;fill:#000"><tspan id="tspan1222" x="5.333" y="15.25">回繰り返す</tspan></text></g></g><g id="g1242" transform="translate(85.499997,583.42154)"><g id="g1240" transform="scale(1.5)"><path id="path1234" d="m 8.5,0.5 h 60 v 20 h -60 v -8 -1 h -6 v 3 h -2 v -8 h 2 v 3 h 6 v -1 z" style="fill:#ffb2bc;fill-opacity:1;stroke:#601136;stroke-width:1;stroke-linecap:round;stroke-opacity:1"/><text id="text1238" style="font-size:10px;font-family:sans-serif;text-anchor:start;fill:#000"><tspan id="tspan1236" x="13.333" y="13.833">2</tspan></text></g></g><g id="g1252" transform="translate(26.999997,425.92154)"><g id="g1250" transform="scale(1.5)"><path id="path1244" d="m 0.5,8.5 v -4 a 4,4 90 0 1 4,-4 h 4 v 2 h 10 v -2 h 40 4 a 4,4 90 0 1 4,4 v 4 4 4 a 4,4 90 0 1 -4,4 h -4 -40 -1 v 2 h -8 v -2 h -1 -4 a 4,4 90 0 1 -4,-4 v -4 z" style="fill:#ffe05c;fill-opacity:1;stroke:#644300;stroke-width:1;stroke-linecap:round;stroke-opacity:1"/><text id="text1248" style="font-size:10px;font-family:sans-serif;text-anchor:end;fill:#000"><tspan id="tspan1246" x="56.333" y="13.5">動作</tspan></text></g></g><g id="g1262" transform="translate(26.999997,677.92154)"><g id="g1260" transform="scale(1.5)"><path id="path1254" d="m 0.5,8.5 v -4 a 4,4 90 0 1 4,-4 h 4 v 2 h 10 v -2 h 40 4 a 4,4 90 0 1 4,4 v 4 4 4 a 4,4 90 0 1 -4,4 h -4 -40 -1 v 2 h -8 v -2 h -1 -4 a 4,4 90 0 1 -4,-4 v -4 z" style="fill:#ffe05c;fill-opacity:1;stroke:#644300;stroke-width:1;stroke-linecap:round;stroke-opacity:1"/><text id="text1258" style="font-size:10px;font-family:sans-serif;text-anchor:end;fill:#000"><tspan id="tspan1256" x="56.333" y="13.5">動作</tspan></text></g></g><g id="g1280" transform="translate(13.499997,488.92154)"><g id="g1278" transform="scale(1.5)"><path id="path1264" d="m 0.5,8.5 v -4 a 4,4 90 0 1 4,-4 h 4 v 2 h 10 v -2 h 30 4 a 4,4 90 0 1 4,4 v 4 h -4 v -3 h -4 v 10 h 4 v -3 h 4 v 17 h -4 v -3 h -4 v 10 h 4 v -3 h 4 v 4 a 4,4 90 0 1 -4,4 h -4 -30 -1 v 2 h -8 v -2 h -1 -4 a 4,4 90 0 1 -4,-4 v -4 -21 z" style="fill:#ff8b2d;fill-opacity:1;stroke:#520000;stroke-width:1;stroke-linecap:round;stroke-opacity:1"/><text id="text1268" style="font-size:10px;font-family:sans-serif;text-anchor:end;fill:#000"><tspan id="tspan1266" x="46.333" y="24">足し算をする</tspan></text><text id="text1272" style="font-size:6.66666651px;font-family:sans-serif;text-anchor:end;fill:#000"><tspan id="tspan1270" x="46.333" y="11.25">最終の状態</tspan></text><text id="text1276" style="font-size:6.66666651px;font-family:sans-serif;text-anchor:end;fill:#000"><tspan id="tspan1274" x="46.333" y="32.25">価値</tspan></text></g></g><g id="g1298" transform="translate(26.999997,614.92154)"><g id="g1296" transform="scale(1.5)"><path id="path1282" d="m 0.5,8.5 v -4 a 4,4 90 0 1 4,-4 h 4 v 2 h 10 v -2 h 30 4 a 4,4 90 0 1 4,4 v 4 h -4 v -3 h -4 v 10 h 4 v -3 h 4 v 17 h -4 v -3 h -4 v 10 h 4 v -3 h 4 v 4 a 4,4 90 0 1 -4,4 h -4 -30 -1 v 2 h -8 v -2 h -1 -4 a 4,4 90 0 1 -4,-4 v -4 -21 z" style="fill:#ff8b2d;fill-opacity:1;stroke:#520000;stroke-width:1;stroke-linecap:round;stroke-opacity:1"/><text id="text1286" style="font-size:10px;font-family:sans-serif;text-anchor:end;fill:#000"><tspan id="tspan1284" x="46.333" y="24">足し算をする</tspan></text><text id="text1290" style="font-size:6.66666651px;font-family:sans-serif;text-anchor:end;fill:#000"><tspan id="tspan1288" x="46.333" y="11.25">最終の状態</tspan></text><text id="text1294" style="font-size:6.66666651px;font-family:sans-serif;text-anchor:end;fill:#000"><tspan id="tspan1292" x="46.333" y="32.25">価値</tspan></text></g></g><g id="g1308" transform="translate(86.999997,488.92154)"><g id="g1306" transform="scale(1.5)"><path id="path1300" d="m 8.5,0.5 h 80 v 20 h -80 v -8 -1 h -6 v 3 h -2 v -8 h 2 v 3 h 6 v -1 z" style="fill:#ff8b2d;fill-opacity:1;stroke:#520000;stroke-width:1;stroke-linecap:round;stroke-opacity:1"/><text id="text1304" style="font-size:10px;font-family:sans-serif;text-anchor:start;fill:#000"><tspan id="tspan1302" x="13.333" y="13.833">ボックス</tspan></text></g></g><g id="g1318" transform="translate(100.5,614.92154)"><g id="g1316" transform="scale(1.5)"><path id="path1310" d="m 8.5,0.5 h 80 v 20 h -80 v -8 -1 h -6 v 3 h -2 v -8 h 2 v 3 h 6 v -1 z" style="fill:#ff8b2d;fill-opacity:1;stroke:#520000;stroke-width:1;stroke-linecap:round;stroke-opacity:1"/><text id="text1314" style="font-size:10px;font-family:sans-serif;text-anchor:start;fill:#000"><tspan id="tspan1312" x="13.333" y="13.833">ボックス</tspan></text></g></g><g id="g1332" transform="translate(13.499997,740.92154)"><g id="g1330" transform="scale(1.5)"><path id="path1320" d="m 0.5,8.5 v -4 a 4,4 90 0 1 4,-4 h 4 v 2 h 10 v -2 h 71.152344 4 a 4,4 90 0 1 4,4 v 4 h -4 v -3 h -4 v 10 h 4 v -3 h 4 v 4 a 4,4 90 0 1 -4,4 h -4 H 18.5 h -1 v 2 h -8 v -2 h -1 -4 a 4,4 90 0 1 -4,-4 v -4 z" style="fill:#d57e6f;fill-opacity:1;stroke:#000;stroke-width:1;stroke-linecap:round;stroke-opacity:1"/><text id="text1324" style="font-size:10px;font-family:sans-serif;text-anchor:end;fill:#000"><tspan id="tspan1322" x="87.486" y="13.5">Lilypondのファイルフォーマットで保存</tspan></text></g></g><g id="g1342" transform="translate(148.72852,740.92154)"><g id="g1340" transform="scale(1.5)"><path id="path1334" d="m 8.5,0.5 h 60 v 20 h -60 v -8 -1 h -6 v 3 h -2 v -8 h 2 v 3 h 6 v -1 z" style="fill:#76dbd7;fill-opacity:1;stroke:#003b41;stroke-width:1;stroke-linecap:round;stroke-opacity:1"/><text id="text1338" style="font-size:10px;font-family:sans-serif;text-anchor:start;fill:#000"><tspan id="tspan1336" x="13.333" y="13.833">hotdog.ly</tspan></text></g></g><g id="g1352" transform="translate(100.5,394.42154)"><g id="g1350" transform="scale(1.5)"><path id="path1344" d="m 8.5,0.5 h 60 v 20 h -60 v -8 -1 h -6 v 3 h -2 v -8 h 2 v 3 h 6 v -1 z" style="fill:#ffb2bc;fill-opacity:1;stroke:#601136;stroke-width:1;stroke-linecap:round;stroke-opacity:1"/><text id="text1348" style="font-size:10px;font-family:sans-serif;text-anchor:start;fill:#000"><tspan id="tspan1346" x="13.333" y="13.833">-2</tspan></text></g></g><g id="g1362" transform="translate(86.999997,520.42154)"><g id="g1360" transform="scale(1.5)"><path id="path1354" d="m 8.5,0.5 h 60 v 20 h -60 v -8 -1 h -6 v 3 h -2 v -8 h 2 v 3 h 6 v -1 z" style="fill:#ffb2bc;fill-opacity:1;stroke:#601136;stroke-width:1;stroke-linecap:round;stroke-opacity:1"/><text id="text1358" style="font-size:10px;font-family:sans-serif;text-anchor:start;fill:#000"><tspan id="tspan1356" x="13.333" y="13.833">-1</tspan></text></g></g><g id="g1372" transform="translate(100.5,646.42154)"><g id="g1370" transform="scale(1.5)"><path id="path1364" d="m 8.5,0.5 h 60 v 20 h -60 v -8 -1 h -6 v 3 h -2 v -8 h 2 v 3 h 6 v -1 z" style="fill:#ffb2bc;fill-opacity:1;stroke:#601136;stroke-width:1;stroke-linecap:round;stroke-opacity:1"/><text id="text1368" style="font-size:10px;font-family:sans-serif;text-anchor:start;fill:#000"><tspan id="tspan1366" x="13.333" y="13.833">-2</tspan></text></g></g><g id="g1382" transform="translate(86.999997,268.42154)"><g id="g1380" transform="scale(1.5)"><path id="path1374" d="m 8.5,0.5 h 60 v 20 h -60 v -8 -1 h -6 v 3 h -2 v -8 h 2 v 3 h 6 v -1 z" style="fill:#ffb2bc;fill-opacity:1;stroke:#601136;stroke-width:1;stroke-linecap:round;stroke-opacity:1"/><text id="text1378" style="font-size:10px;font-family:sans-serif;text-anchor:start;fill:#000"><tspan id="tspan1376" x="13.333" y="13.833">2</tspan></text></g></g><g id="g1392" transform="translate(86.999997,173.92154)"><g id="g1390" transform="scale(1.5)"><path id="path1384" d="m 8.5,0.5 h 60 v 20 h -60 v -8 -1 h -6 v 3 h -2 v -8 h 2 v 3 h 6 v -1 z" style="fill:#ffb2bc;fill-opacity:1;stroke:#601136;stroke-width:1;stroke-linecap:round;stroke-opacity:1"/><text id="text1388" style="font-size:10px;font-family:sans-serif;text-anchor:start;fill:#000"><tspan id="tspan1386" x="13.333" y="13.833">7</tspan></text></g></g></svg>