<svg xmlns="http://www.w3.org/2000/svg" xmlns:svg="http://www.w3.org/2000/svg" id="svg4455" width="285.221" height="223.5" version="1.1"><metadata id="metadata4461"/><g id="g4319"><g id="g4317" transform="scale(1.5)"><path id="path4307" d="m 0.5,8.5 v -4 a 4,4 90 0 1 4,-4 h 4 v 2 h 10 v -2 h 9 36.147461 4 a 4,4 90 0 1 4,4 v 4 h -4 v -3 h -4 v 10 h 4 v -3 h 4 v 4 a 4,4 90 0 1 -4,4 h -4 H 27.5 h -1 v 2 h -8 v -2 h -1 -4 a 5,5 90 0 0 -5,5 v 4 4 84 4 a 5,5 90 0 0 5,5 h 4 v 2 h 10 v -2 h 8 v 6 6 4 a 4,4 90 0 1 -4,4 h -4 -9 -1 v 2 h -8 v -2 h -1 -4 a 4,4 90 0 1 -4,-4 v -4 z" style="fill:#ff8b2d;fill-opacity:1;stroke:#520000;stroke-width:1;stroke-linecap:round;stroke-opacity:1"/><text id="text4311" style="font-size:10px;font-family:sans-serif;text-anchor:start;fill:#000"><tspan id="tspan4309" x="5.333" y="15.25">音価</tspan></text></g></g><g id="g4337" transform="translate(96.22119)"><g id="g4335" transform="scale(1.5)"><path id="path4321" d="m 8.5,8.5 v -4 a 4,4 90 0 1 4,-4 h 4 10 30 4 a 4,4 90 0 1 4,4 v 4 h -4 v -3 h -4 v 10 h 4 v -3 h 4 v 17 h -4 v -3 h -4 v 10 h 4 v -3 h 4 v 4 a 4,4 90 0 1 -4,4 h -4 -30 -10 -4 a 4,4 90 0 1 -4,-4 v -4 -21 -1 h -6 v 3 h -2 v -8 h 2 v 3 h 6 z" style="fill:#ffb2bc;fill-opacity:1;stroke:#601136;stroke-width:1;stroke-linecap:round;stroke-opacity:1"/><text id="text4325" style="font-size:14px;font-family:sans-serif;text-anchor:end;fill:#000"><tspan id="tspan4323" x="54.333" y="23.8">/</tspan></text></g></g><g id="g4347" transform="translate(181.72119)"><g id="g4345" transform="scale(1.5)"><path id="path4339" d="m 8.5,0.5 h 60 v 20 h -60 v -8 -1 h -6 v 3 h -2 v -8 h 2 v 3 h 6 v -1 z" style="fill:#ffb2bc;fill-opacity:1;stroke:#601136;stroke-width:1;stroke-linecap:round;stroke-opacity:1"/><text id="text4343" style="font-size:10px;font-family:sans-serif;text-anchor:start;fill:#000"><tspan id="tspan4341" x="13.333" y="13.833">1</tspan></text></g></g><g id="g4357" transform="translate(181.72119,31.5)"><g id="g4355" transform="scale(1.5)"><path id="path4349" d="m 8.5,0.5 h 60 v 20 h -60 v -8 -1 h -6 v 3 h -2 v -8 h 2 v 3 h 6 v -1 z" style="fill:#ffb2bc;fill-opacity:1;stroke:#601136;stroke-width:1;stroke-linecap:round;stroke-opacity:1"/><text id="text4353" style="font-size:10px;font-family:sans-serif;text-anchor:start;fill:#000"><tspan id="tspan4351" x="13.333" y="13.833">4</tspan></text></g></g><g id="g4367" transform="translate(13.5,31.5)"><g id="g4365" transform="scale(1.5)"><path id="path4359" d="m 0.5,8.5 v -4 a 4,4 90 0 1 4,-4 h 4 v 2 h 10 v -2 h 20 4 a 4,4 90 0 1 4,4 v 4 4 4 a 4,4 90 0 1 -4,4 h -4 -20 -1 v 2 h -8 v -2 h -1 -4 a 4,4 90 0 1 -4,-4 v -4 z" style="fill:#d57e6f;fill-opacity:1;stroke:#000;stroke-width:1;stroke-linecap:round;stroke-opacity:1"/><text id="text4363" style="font-size:10px;font-family:sans-serif;text-anchor:end;fill:#000"><tspan id="tspan4361" x="36.333" y="13.5">↓</tspan></text></g></g><g id="g4385" transform="translate(13.5,63)"><g id="g4383" transform="scale(1.5)"><path id="path4369" d="m 0.5,8.5 v -4 a 4,4 90 0 1 4,-4 h 4 v 2 h 10 v -2 h 30 4 a 4,4 90 0 1 4,4 v 4 h -4 v -3 h -4 v 10 h 4 v -3 h 4 v 17 h -4 v -3 h -4 v 10 h 4 v -3 h 4 v 4 a 4,4 90 0 1 -4,4 h -4 -30 -1 v 2 h -8 v -2 h -1 -4 a 4,4 90 0 1 -4,-4 v -4 -21 z" style="fill:#93e042;fill-opacity:1;stroke:#004000;stroke-width:1;stroke-linecap:round;stroke-opacity:1"/><text id="text4373" style="font-size:10px;font-family:sans-serif;text-anchor:end;fill:#000"><tspan id="tspan4371" x="46.333" y="24">ピッチ</tspan></text><text id="text4377" style="font-size:6.66666651px;font-family:sans-serif;text-anchor:end;fill:#000"><tspan id="tspan4375" x="46.333" y="11.25">名前</tspan></text><text id="text4381" style="font-size:6.66666651px;font-family:sans-serif;text-anchor:end;fill:#000"><tspan id="tspan4379" x="46.333" y="32.25">オクターヴ</tspan></text></g></g><g id="g4395" transform="translate(87,63)"><g id="g4393" transform="scale(1.5)"><path id="path4387" d="m 8.5,0.5 h 60 v 20 h -60 v -8 -1 h -6 v 3 h -2 v -8 h 2 v 3 h 6 v -1 z" style="fill:#93e042;fill-opacity:1;stroke:#004000;stroke-width:1;stroke-linecap:round;stroke-opacity:1"/><text id="text4391" style="font-size:10px;font-family:sans-serif;text-anchor:start;fill:#000"><tspan id="tspan4389" x="13.333" y="13.833">レ</tspan></text></g></g><g id="g4405" transform="translate(87,94.5)"><g id="g4403" transform="scale(1.5)"><path id="path4397" d="m 8.5,0.5 h 60 v 20 h -60 v -8 -1 h -6 v 3 h -2 v -8 h 2 v 3 h 6 v -1 z" style="fill:#ffb2bc;fill-opacity:1;stroke:#601136;stroke-width:1;stroke-linecap:round;stroke-opacity:1"/><text id="text4401" style="font-size:10px;font-family:sans-serif;text-anchor:start;fill:#000"><tspan id="tspan4399" x="13.333" y="13.833">5</tspan></text></g></g><g id="g4419" transform="translate(13.5,126)"><g id="g4417" transform="scale(1.5)"><path id="path4407" d="m 0.5,8.5 v -4 a 4,4 90 0 1 4,-4 h 4 v 2 h 10 v -2 h 30 4 a 4,4 90 0 1 4,4 v 4 h -4 v -3 h -4 v 10 h 4 v -3 h 4 v 4 a 4,4 90 0 1 -4,4 h -4 -30 -1 v 2 h -8 v -2 h -1 -4 a 4,4 90 0 1 -4,-4 v -4 z" style="fill:#3ea4a3;fill-opacity:1;stroke:#000;stroke-width:1;stroke-linecap:round;stroke-opacity:1"/><text id="text4411" style="font-size:10px;font-family:sans-serif;text-anchor:end;fill:#000"><tspan id="tspan4409" x="46.333" y="13.5">ドラム</tspan></text></g></g><g id="g4429" transform="translate(87,126)"><g id="g4427" transform="scale(1.5)"><path id="path4421" d="m 8.5,0.5 h 60 v 20 h -60 v -8 -1 h -6 v 3 h -2 v -8 h 2 v 3 h 6 v -1 z" style="fill:#3ea4a3;fill-opacity:1;stroke:#000;stroke-width:1;stroke-linecap:round;stroke-opacity:1"/><text id="text4425" style="font-size:10px;font-family:sans-serif;text-anchor:start;fill:#000"><tspan id="tspan4423" x="13.333" y="13.833">スネア</tspan></text></g></g><g id="g4443" transform="translate(13.5,157.5)"><g id="g4441" transform="scale(1.5)"><path id="path4431" d="m 0.5,8.5 v -4 a 4,4 90 0 1 4,-4 h 4 v 2 h 10 v -2 h 30 4 a 4,4 90 0 1 4,4 v 4 h -4 v -3 h -4 v 10 h 4 v -3 h 4 v 4 a 4,4 90 0 1 -4,4 h -4 -30 -1 v 2 h -8 v -2 h -1 -4 a 4,4 90 0 1 -4,-4 v -4 z" style="fill:#3ea4a3;fill-opacity:1;stroke:#000;stroke-width:1;stroke-linecap:round;stroke-opacity:1"/><text id="text4435" style="font-size:10px;font-family:sans-serif;text-anchor:end;fill:#000"><tspan id="tspan4433" x="46.333" y="13.5">ドラム</tspan></text></g></g><g id="g4453" transform="translate(87,157.5)"><g id="g4451" transform="scale(1.5)"><path id="path4445" d="m 8.5,0.5 h 60 v 20 h -60 v -8 -1 h -6 v 3 h -2 v -8 h 2 v 3 h 6 v -1 z" style="fill:#3ea4a3;fill-opacity:1;stroke:#000;stroke-width:1;stroke-linecap:round;stroke-opacity:1"/><text id="text4449" style="font-size:10px;font-family:sans-serif;text-anchor:start;fill:#000"><tspan id="tspan4447" x="13.333" y="13.833">トライアングルのベル</tspan></text></g></g></svg>