<svg xmlns="http://www.w3.org/2000/svg" xmlns:svg="http://www.w3.org/2000/svg" id="svg312" width="285.221" height="504.5" version="1.1"><metadata id="metadata318"/><g id="g1175" transform="translate(-765.5,-106.5)"><g id="g24" transform="translate(765.5,106.5)"><g id="g22" transform="scale(1.5)"><path style="fill:#ff8b2d;fill-opacity:1;stroke:#520000;stroke-width:1;stroke-linecap:round;stroke-opacity:1" id="path12" d="m 0.5,8.5 v -4 a 4,4 90 0 1 4,-4 h 4 v 2 h 10 v -2 h 9 36.147461 4 a 4,4 90 0 1 4,4 v 4 h -4 v -3 h -4 v 10 h 4 v -3 h 4 v 4 a 4,4 90 0 1 -4,4 h -4 H 27.5 h -1 v 2 h -8 v -2 h -1 -4 a 5,5 90 0 0 -5,5 v 4 4 42 4 a 5,5 90 0 0 5,5 h 4 v 2 h 10 v -2 h 8 v 6 6 4 a 4,4 90 0 1 -4,4 h -4 -9 -1 v 2 h -8 v -2 h -1 -4 a 4,4 90 0 1 -4,-4 v -4 z"/><text style="font-size:10px;font-family:sans-serif;text-anchor:start;fill:#000" id="text16"><tspan id="tspan14" x="5.333" y="15.25">音価</tspan></text></g></g><g id="g42" transform="translate(861.72119,106.5)"><g id="g40" transform="scale(1.5)"><path style="fill:#ffb2bc;fill-opacity:1;stroke:#601136;stroke-width:1;stroke-linecap:round;stroke-opacity:1" id="path26" d="m 8.5,8.5 v -4 a 4,4 90 0 1 4,-4 h 4 10 30 4 a 4,4 90 0 1 4,4 v 4 h -4 v -3 h -4 v 10 h 4 v -3 h 4 v 17 h -4 v -3 h -4 v 10 h 4 v -3 h 4 v 4 a 4,4 90 0 1 -4,4 h -4 -30 -10 -4 a 4,4 90 0 1 -4,-4 v -4 -21 -1 h -6 v 3 h -2 v -8 h 2 v 3 h 6 z"/><text style="font-size:14px;font-family:sans-serif;text-anchor:end;fill:#000" id="text30"><tspan id="tspan28" x="54.333" y="23.8">/</tspan></text></g></g><g id="g52" transform="translate(947.22119,106.5)"><g id="g50" transform="scale(1.5)"><path style="fill:#ffb2bc;fill-opacity:1;stroke:#601136;stroke-width:1;stroke-linecap:round;stroke-opacity:1" id="path44" d="m 8.5,0.5 h 60 v 20 h -60 v -8 -1 h -6 v 3 h -2 v -8 h 2 v 3 h 6 v -1 z"/><text style="font-size:10px;font-family:sans-serif;text-anchor:start;fill:#000" id="text48"><tspan id="tspan46" x="13.333" y="13.833">1</tspan></text></g></g><g id="g62" transform="translate(947.22119,138)"><g id="g60" transform="scale(1.5)"><path style="fill:#ffb2bc;fill-opacity:1;stroke:#601136;stroke-width:1;stroke-linecap:round;stroke-opacity:1" id="path54" d="m 8.5,0.5 h 60 v 20 h -60 v -8 -1 h -6 v 3 h -2 v -8 h 2 v 3 h 6 v -1 z"/><text style="font-size:10px;font-family:sans-serif;text-anchor:start;fill:#000" id="text58"><tspan id="tspan56" x="13.333" y="13.833">4</tspan></text></g></g><g id="g72" transform="translate(779,138)"><g id="g70" transform="scale(1.5)"><path style="fill:#d57e6f;fill-opacity:1;stroke:#000;stroke-width:1;stroke-linecap:round;stroke-opacity:1" id="path64" d="m 0.5,8.5 v -4 a 4,4 90 0 1 4,-4 h 4 v 2 h 10 v -2 h 20 4 a 4,4 90 0 1 4,4 v 4 4 4 a 4,4 90 0 1 -4,4 h -4 -20 -1 v 2 h -8 v -2 h -1 -4 a 4,4 90 0 1 -4,-4 v -4 z"/><text style="font-size:10px;font-family:sans-serif;text-anchor:end;fill:#000" id="text68"><tspan id="tspan66" x="36.333" y="13.5">↓</tspan></text></g></g><g id="g90" transform="translate(779,169.5)"><g id="g88" transform="scale(1.5)"><path style="fill:#93e042;fill-opacity:1;stroke:#004000;stroke-width:1;stroke-linecap:round;stroke-opacity:1" id="path74" d="m 0.5,8.5 v -4 a 4,4 90 0 1 4,-4 h 4 v 2 h 10 v -2 h 30 4 a 4,4 90 0 1 4,4 v 4 h -4 v -3 h -4 v 10 h 4 v -3 h 4 v 17 h -4 v -3 h -4 v 10 h 4 v -3 h 4 v 4 a 4,4 90 0 1 -4,4 h -4 -30 -1 v 2 h -8 v -2 h -1 -4 a 4,4 90 0 1 -4,-4 v -4 -21 z"/><text style="font-size:10px;font-family:sans-serif;text-anchor:end;fill:#000" id="text78"><tspan id="tspan76" x="46.333" y="24">ピッチ</tspan></text><text style="font-size:6.66666651px;font-family:sans-serif;text-anchor:end;fill:#000" id="text82"><tspan id="tspan80" x="46.333" y="11.25">名前</tspan></text><text style="font-size:6.66666651px;font-family:sans-serif;text-anchor:end;fill:#000" id="text86"><tspan id="tspan84" x="46.333" y="32.25">オクターヴ</tspan></text></g></g><g id="g100" transform="translate(852.5,169.5)"><g id="g98" transform="scale(1.5)"><path style="fill:#93e042;fill-opacity:1;stroke:#004000;stroke-width:1;stroke-linecap:round;stroke-opacity:1" id="path92" d="m 8.5,0.5 h 60 v 20 h -60 v -8 -1 h -6 v 3 h -2 v -8 h 2 v 3 h 6 v -1 z"/><text style="font-size:10px;font-family:sans-serif;text-anchor:start;fill:#000" id="text96"><tspan id="tspan94" x="13.333" y="13.833">レ</tspan></text></g></g><g id="g110" transform="translate(852.5,201)"><g id="g108" transform="scale(1.5)"><path style="fill:#ffb2bc;fill-opacity:1;stroke:#601136;stroke-width:1;stroke-linecap:round;stroke-opacity:1" id="path102" d="m 8.5,0.5 h 60 v 20 h -60 v -8 -1 h -6 v 3 h -2 v -8 h 2 v 3 h 6 v -1 z"/><text style="font-size:10px;font-family:sans-serif;text-anchor:start;fill:#000" id="text106"><tspan id="tspan104" x="13.333" y="13.833">4</tspan></text></g></g></g><g id="g124" transform="translate(0,172.5)"><g id="g122" transform="scale(1.5)"><path id="path112" d="m 0.5,8.5 v -4 a 4,4 90 0 1 4,-4 h 4 v 2 h 10 v -2 h 9 36.147461 4 a 4,4 90 0 1 4,4 v 4 h -4 v -3 h -4 v 10 h 4 v -3 h 4 v 4 a 4,4 90 0 1 -4,4 h -4 H 27.5 h -1 v 2 h -8 v -2 h -1 -4 a 5,5 90 0 0 -5,5 v 4 4 42 4 a 5,5 90 0 0 5,5 h 4 v 2 h 10 v -2 h 8 v 6 6 4 a 4,4 90 0 1 -4,4 h -4 -9 -1 v 2 h -8 v -2 h -1 -4 a 4,4 90 0 1 -4,-4 v -4 z" style="fill:#ff8b2d;fill-opacity:1;stroke:#520000;stroke-width:1;stroke-linecap:round;stroke-opacity:1"/><text id="text116" style="font-size:10px;font-family:sans-serif;text-anchor:start;fill:#000"><tspan id="tspan114" x="5.333" y="15.25">音価</tspan></text></g></g><g id="g142" transform="translate(96.22119,172.5)"><g id="g140" transform="scale(1.5)"><path id="path126" d="m 8.5,8.5 v -4 a 4,4 90 0 1 4,-4 h 4 10 30 4 a 4,4 90 0 1 4,4 v 4 h -4 v -3 h -4 v 10 h 4 v -3 h 4 v 17 h -4 v -3 h -4 v 10 h 4 v -3 h 4 v 4 a 4,4 90 0 1 -4,4 h -4 -30 -10 -4 a 4,4 90 0 1 -4,-4 v -4 -21 -1 h -6 v 3 h -2 v -8 h 2 v 3 h 6 z" style="fill:#ffb2bc;fill-opacity:1;stroke:#601136;stroke-width:1;stroke-linecap:round;stroke-opacity:1"/><text id="text130" style="font-size:14px;font-family:sans-serif;text-anchor:end;fill:#000"><tspan id="tspan128" x="54.333" y="23.8">/</tspan></text></g></g><g id="g152" transform="translate(181.72119,172.5)"><g id="g150" transform="scale(1.5)"><path id="path144" d="m 8.5,0.5 h 60 v 20 h -60 v -8 -1 h -6 v 3 h -2 v -8 h 2 v 3 h 6 v -1 z" style="fill:#ffb2bc;fill-opacity:1;stroke:#601136;stroke-width:1;stroke-linecap:round;stroke-opacity:1"/><text id="text148" style="font-size:10px;font-family:sans-serif;text-anchor:start;fill:#000"><tspan id="tspan146" x="13.333" y="13.833">1</tspan></text></g></g><g id="g162" transform="translate(181.72119,204)"><g id="g160" transform="scale(1.5)"><path id="path154" d="m 8.5,0.5 h 60 v 20 h -60 v -8 -1 h -6 v 3 h -2 v -8 h 2 v 3 h 6 v -1 z" style="fill:#ffb2bc;fill-opacity:1;stroke:#601136;stroke-width:1;stroke-linecap:round;stroke-opacity:1"/><text id="text158" style="font-size:10px;font-family:sans-serif;text-anchor:start;fill:#000"><tspan id="tspan156" x="13.333" y="13.833">16</tspan></text></g></g><g id="g172" transform="translate(13.5,204)"><g id="g170" transform="scale(1.5)"><path id="path164" d="m 0.5,8.5 v -4 a 4,4 90 0 1 4,-4 h 4 v 2 h 10 v -2 h 20 4 a 4,4 90 0 1 4,4 v 4 4 4 a 4,4 90 0 1 -4,4 h -4 -20 -1 v 2 h -8 v -2 h -1 -4 a 4,4 90 0 1 -4,-4 v -4 z" style="fill:#d57e6f;fill-opacity:1;stroke:#000;stroke-width:1;stroke-linecap:round;stroke-opacity:1"/><text id="text168" style="font-size:10px;font-family:sans-serif;text-anchor:end;fill:#000"><tspan id="tspan166" x="36.333" y="13.5">↓</tspan></text></g></g><g id="g190" transform="translate(13.5,235.5)"><g id="g188" transform="scale(1.5)"><path id="path174" d="m 0.5,8.5 v -4 a 4,4 90 0 1 4,-4 h 4 v 2 h 10 v -2 h 30 4 a 4,4 90 0 1 4,4 v 4 h -4 v -3 h -4 v 10 h 4 v -3 h 4 v 17 h -4 v -3 h -4 v 10 h 4 v -3 h 4 v 4 a 4,4 90 0 1 -4,4 h -4 -30 -1 v 2 h -8 v -2 h -1 -4 a 4,4 90 0 1 -4,-4 v -4 -21 z" style="fill:#93e042;fill-opacity:1;stroke:#004000;stroke-width:1;stroke-linecap:round;stroke-opacity:1"/><text id="text178" style="font-size:10px;font-family:sans-serif;text-anchor:end;fill:#000"><tspan id="tspan176" x="46.333" y="24">ピッチ</tspan></text><text id="text182" style="font-size:6.66666651px;font-family:sans-serif;text-anchor:end;fill:#000"><tspan id="tspan180" x="46.333" y="11.25">名前</tspan></text><text id="text186" style="font-size:6.66666651px;font-family:sans-serif;text-anchor:end;fill:#000"><tspan id="tspan184" x="46.333" y="32.25">オクターヴ</tspan></text></g></g><g id="g200" transform="translate(87,235.5)"><g id="g198" transform="scale(1.5)"><path id="path192" d="m 8.5,0.5 h 60 v 20 h -60 v -8 -1 h -6 v 3 h -2 v -8 h 2 v 3 h 6 v -1 z" style="fill:#93e042;fill-opacity:1;stroke:#004000;stroke-width:1;stroke-linecap:round;stroke-opacity:1"/><text id="text196" style="font-size:10px;font-family:sans-serif;text-anchor:start;fill:#000"><tspan id="tspan194" x="13.333" y="13.833">ミ</tspan></text></g></g><g id="g210" transform="translate(87,267)"><g id="g208" transform="scale(1.5)"><path id="path202" d="m 8.5,0.5 h 60 v 20 h -60 v -8 -1 h -6 v 3 h -2 v -8 h 2 v 3 h 6 v -1 z" style="fill:#ffb2bc;fill-opacity:1;stroke:#601136;stroke-width:1;stroke-linecap:round;stroke-opacity:1"/><text id="text206" style="font-size:10px;font-family:sans-serif;text-anchor:start;fill:#000"><tspan id="tspan204" x="13.333" y="13.833">4</tspan></text></g></g><g id="g224" transform="translate(0,344)"><g id="g222" transform="scale(1.5)"><path id="path212" d="m 0.5,8.5 v -4 a 4,4 90 0 1 4,-4 h 4 v 2 h 10 v -2 h 9 36.147461 4 a 4,4 90 0 1 4,4 v 4 h -4 v -3 h -4 v 10 h 4 v -3 h 4 v 4 a 4,4 90 0 1 -4,4 h -4 H 27.5 h -1 v 2 h -8 v -2 h -1 -4 a 5,5 90 0 0 -5,5 v 4 4 42 4 a 5,5 90 0 0 5,5 h 4 v 2 h 10 v -2 h 8 v 6 6 4 a 4,4 90 0 1 -4,4 h -4 -9 -1 v 2 h -8 v -2 h -1 -4 a 4,4 90 0 1 -4,-4 v -4 z" style="fill:#ff8b2d;fill-opacity:1;stroke:#520000;stroke-width:1;stroke-linecap:round;stroke-opacity:1"/><text id="text216" style="font-size:10px;font-family:sans-serif;text-anchor:start;fill:#000"><tspan id="tspan214" x="5.333" y="15.25">音価</tspan></text></g></g><g id="g242" transform="translate(96.22119,344)"><g id="g240" transform="scale(1.5)"><path id="path226" d="m 8.5,8.5 v -4 a 4,4 90 0 1 4,-4 h 4 10 30 4 a 4,4 90 0 1 4,4 v 4 h -4 v -3 h -4 v 10 h 4 v -3 h 4 v 17 h -4 v -3 h -4 v 10 h 4 v -3 h 4 v 4 a 4,4 90 0 1 -4,4 h -4 -30 -10 -4 a 4,4 90 0 1 -4,-4 v -4 -21 -1 h -6 v 3 h -2 v -8 h 2 v 3 h 6 z" style="fill:#ffb2bc;fill-opacity:1;stroke:#601136;stroke-width:1;stroke-linecap:round;stroke-opacity:1"/><text id="text230" style="font-size:14px;font-family:sans-serif;text-anchor:end;fill:#000"><tspan id="tspan228" x="54.333" y="23.8">/</tspan></text></g></g><g id="g252" transform="translate(181.72119,344)"><g id="g250" transform="scale(1.5)"><path id="path244" d="m 8.5,0.5 h 60 v 20 h -60 v -8 -1 h -6 v 3 h -2 v -8 h 2 v 3 h 6 v -1 z" style="fill:#ffb2bc;fill-opacity:1;stroke:#601136;stroke-width:1;stroke-linecap:round;stroke-opacity:1"/><text id="text248" style="font-size:10px;font-family:sans-serif;text-anchor:start;fill:#000"><tspan id="tspan246" x="13.333" y="13.833">1</tspan></text></g></g><g id="g262" transform="translate(181.72119,375.5)"><g id="g260" transform="scale(1.5)"><path id="path254" d="m 8.5,0.5 h 60 v 20 h -60 v -8 -1 h -6 v 3 h -2 v -8 h 2 v 3 h 6 v -1 z" style="fill:#ffb2bc;fill-opacity:1;stroke:#601136;stroke-width:1;stroke-linecap:round;stroke-opacity:1"/><text id="text258" style="font-size:10px;font-family:sans-serif;text-anchor:start;fill:#000"><tspan id="tspan256" x="13.333" y="13.833">2</tspan></text></g></g><g id="g272" transform="translate(13.5,375.5)"><g id="g270" transform="scale(1.5)"><path id="path264" d="m 0.5,8.5 v -4 a 4,4 90 0 1 4,-4 h 4 v 2 h 10 v -2 h 20 4 a 4,4 90 0 1 4,4 v 4 4 4 a 4,4 90 0 1 -4,4 h -4 -20 -1 v 2 h -8 v -2 h -1 -4 a 4,4 90 0 1 -4,-4 v -4 z" style="fill:#d57e6f;fill-opacity:1;stroke:#000;stroke-width:1;stroke-linecap:round;stroke-opacity:1"/><text id="text268" style="font-size:10px;font-family:sans-serif;text-anchor:end;fill:#000"><tspan id="tspan266" x="36.333" y="13.5">↓</tspan></text></g></g><g id="g290" transform="translate(13.5,407)"><g id="g288" transform="scale(1.5)"><path id="path274" d="m 0.5,8.5 v -4 a 4,4 90 0 1 4,-4 h 4 v 2 h 10 v -2 h 30 4 a 4,4 90 0 1 4,4 v 4 h -4 v -3 h -4 v 10 h 4 v -3 h 4 v 17 h -4 v -3 h -4 v 10 h 4 v -3 h 4 v 4 a 4,4 90 0 1 -4,4 h -4 -30 -1 v 2 h -8 v -2 h -1 -4 a 4,4 90 0 1 -4,-4 v -4 -21 z" style="fill:#93e042;fill-opacity:1;stroke:#004000;stroke-width:1;stroke-linecap:round;stroke-opacity:1"/><text id="text278" style="font-size:10px;font-family:sans-serif;text-anchor:end;fill:#000"><tspan id="tspan276" x="46.333" y="24">ピッチ</tspan></text><text id="text282" style="font-size:6.66666651px;font-family:sans-serif;text-anchor:end;fill:#000"><tspan id="tspan280" x="46.333" y="11.25">名前</tspan></text><text id="text286" style="font-size:6.66666651px;font-family:sans-serif;text-anchor:end;fill:#000"><tspan id="tspan284" x="46.333" y="32.25">オクターヴ</tspan></text></g></g><g id="g300" transform="translate(87,407)"><g id="g298" transform="scale(1.5)"><path id="path292" d="m 8.5,0.5 h 60 v 20 h -60 v -8 -1 h -6 v 3 h -2 v -8 h 2 v 3 h 6 v -1 z" style="fill:#93e042;fill-opacity:1;stroke:#004000;stroke-width:1;stroke-linecap:round;stroke-opacity:1"/><text id="text296" style="font-size:10px;font-family:sans-serif;text-anchor:start;fill:#000"><tspan id="tspan294" x="13.333" y="13.833">ソ</tspan></text></g></g><g id="g310" transform="translate(87,438.5)"><g id="g308" transform="scale(1.5)"><path id="path302" d="m 8.5,0.5 h 60 v 20 h -60 v -8 -1 h -6 v 3 h -2 v -8 h 2 v 3 h 6 v -1 z" style="fill:#ffb2bc;fill-opacity:1;stroke:#601136;stroke-width:1;stroke-linecap:round;stroke-opacity:1"/><text id="text306" style="font-size:10px;font-family:sans-serif;text-anchor:start;fill:#000"><tspan id="tspan304" x="13.333" y="13.833">4</tspan></text></g></g></svg>