<svg xmlns="http://www.w3.org/2000/svg" xmlns:svg="http://www.w3.org/2000/svg" id="svg4167" width="270.933" height="159.066" version="1.1" viewBox="0 0 254 149.124"><metadata id="metadata4172"/><g id="layer1" transform="translate(387,22.199845)"><path style="fill:#76c61c;fill-opacity:1;stroke:#538d38;stroke-width:2;stroke-linecap:round;stroke-opacity:1" id="path3194" d="m -368,47.924255 0,-8 c 0,-4.418278 3.58172,-8 8,-8 l 8,0 0,4 20,0 0,-4 60,0 8,0 c 4.41828,0 8,3.581722 8,8 l 0,8 -8,0 0,-6 -8,0 0,20 8,0 0,-6 8,0 0,8 c 0,4.418278 -3.58172,8 -8,8 l -8,0 -60,0 -2,0 0,4 -16,0 0,-4 -2,0 -8,0 c -4.41828,0 -8,-3.581722 -8,-8 l 0,-8 0,0 z"/><text style="font-size:20px;font-family:Sans;text-anchor:end;fill:#000" id="text3196" x="-369" y="10.924"><tspan id="tspan3198" x="-275" y="59.924">ハーツ</tspan></text><g id="g3710" transform="translate(-552.83636,85.748495)"><path id="path21-6" d="m 298.83636,-53.824242 120,0 0,40 -120,0 0,-16 0,-2 -12,0 0,6 -4,0 0,-16 4,0 0,6 12,0 0,-2 z" style="fill:#ee97a8;fill-opacity:1;stroke:#a75862;stroke-width:2;stroke-linecap:round;stroke-opacity:1"/><text id="text23-9" x="319.836" y="-54.824" style="font-size:20px;font-family:Sans;text-anchor:start;fill:#000"><tspan id="tspan25-8" x="339.836" y="-28.824">220</tspan></text></g><g id="g3990" transform="translate(-387,-21.075745)"><path id="path3660" d="m 1,28.43795 0,-8 c 0,-4.18879 3.81121,-8 8,-8 l 8,0 L 27,0.43795006 37,12.43795 l 18,0 60,0 8,0 c 4.18879,0 6.98407,3.936277 8,8 l 0,8 0,8 0,8 c 0,4.18879 -3.81121,8 -8,8 l -8,0 -60,0 -2,0 0,4 -16,0 0,-4 -2,0 -8,0 c -2.61799,0 -5.21987,1.077731 -7.07107,2.928932 C 18.07773,57.218083 17,59.819956 17,62.43795 l 0,8 0,6 0,8 c 0,2.61799 1.07773,5.21987 2.92893,7.07107 1.8512,1.8512 4.531247,3.56389 7.07107,2.92893 l 8,0 0,4 20,0 0,-4 16,0 0,12 0,12 0,8 c 0,4.18879 -3.936277,9.01593 -8,8 l -8,0 -18,0 -10,12 -10,-12 -8,0 c -4.18879,0 -8,-3.81121 -8,-8 l 0,-8 z" style="fill:#76c61c;fill-opacity:1;stroke:#538d38;stroke-width:2;stroke-linecap:round;stroke-opacity:1"/><text id="text3662" x="1.145" y="-4" style="font-size:20px;font-family:Sans;text-anchor:start;fill:#000"><tspan id="tspan3664" x="9.145" y="39">調子スライダー</tspan></text></g></g></svg>