<svg xmlns="http://www.w3.org/2000/svg" xmlns:svg="http://www.w3.org/2000/svg" id="svg46" width="307.241" height="113.343" version="1.1"><metadata id="metadata52"/><g id="g20" transform="translate(0,0.42153745)"><g id="g18" transform="scale(1.5)"><path id="path12" d="m 0.5,14.5 v -4 a 4,4 90 0 1 4,-4 h 4 l 5,-6 5,6 h 9 40 4 a 4,4 90 0 1 4,4 v 4 4 4 a 4,4 90 0 1 -4,4 h -4 -40 -1 v 2 h -8 v -2 h -1 -4 a 5,5 90 0 0 -5,5 v 4 4 4 a 5,5 90 0 0 5,5 h 4 v 2 h 10 v -2 h 8 v 6 6 4 a 4,4 90 0 1 -4,4 h -4 -9 l -5,6 -5,-6 h -4 a 4,4 90 0 1 -4,-4 v -4 z" style="fill:#9ddd5f;fill-opacity:1;stroke:#003e00;stroke-width:1;stroke-linecap:round;stroke-opacity:1"/><text id="text16" style="font-size:10px;font-family:sans-serif;text-anchor:start;fill:#000"><tspan id="tspan14" x="5.333" y="21.5">テンポ</tspan></text></g></g><g id="g34" transform="translate(13.5,40.921537)"><g id="g32" transform="scale(1.5)"><path id="path22" d="m 0.5,8.5 v -4 a 4,4 90 0 1 4,-4 h 4 v 2 h 10 v -2 h 107.82715 4 a 4,4 90 0 1 4,4 v 4 h -4 v -3 h -4 v 10 h 4 v -3 h 4 v 4 a 4,4 90 0 1 -4,4 h -4 H 18.5 h -1 v 2 h -8 v -2 h -1 -4 a 4,4 90 0 1 -4,-4 v -4 z" style="fill:#ff8b2d;fill-opacity:1;stroke:#520000;stroke-width:1;stroke-linecap:round;stroke-opacity:1"/><text id="text26" style="font-size:10px;font-family:sans-serif;text-anchor:end;fill:#000"><tspan id="tspan24" x="124.16" y="13.5">BPM(一分当たりの拍数)のマスター・テンポ</tspan></text></g></g><g id="g44" transform="translate(203.74072,40.921537)"><g id="g42" transform="scale(1.5)"><path id="path36" d="m 8.5,0.5 h 60 v 20 h -60 v -8 -1 h -6 v 3 h -2 v -8 h 2 v 3 h 6 v -1 z" style="fill:#ffb2bc;fill-opacity:1;stroke:#601136;stroke-width:1;stroke-linecap:round;stroke-opacity:1"/><text id="text40" style="font-size:10px;font-family:sans-serif;text-anchor:start;fill:#000"><tspan id="tspan38" x="13.333" y="13.833">90</tspan></text></g></g></svg>