<svg xmlns="http://www.w3.org/2000/svg" xmlns:svg="http://www.w3.org/2000/svg" id="svg1878" width="298.721" height="381" version="1.1"><metadata id="metadata1884"/><g id="g1666"><g id="g1664" transform="scale(1.5)"><path id="path1654" d="m 0.5,8.5 v -4 a 4,4 90 0 1 4,-4 h 4 v 2 h 10 v -2 h 9 33.901367 4 a 4,4 90 0 1 4,4 v 4 h -4 v -3 h -4 v 10 h 4 v -3 h 4 v 4 a 4,4 90 0 1 -4,4 h -4 H 27.5 h -1 v 2 h -8 v -2 h -1 -4 a 5,5 90 0 0 -5,5 v 4 4 189 4 a 5,5 90 0 0 5,5 h 4 v 2 h 10 v -2 h 8 v 6 6 4 a 4,4 90 0 1 -4,4 h -4 -9 -1 v 2 h -8 v -2 h -1 -4 a 4,4 90 0 1 -4,-4 v -4 z" style="fill:#3ea4a3;fill-opacity:1;stroke:#000;stroke-width:1;stroke-linecap:round;stroke-opacity:1"/><text id="text1658" style="font-size:10px;font-family:sans-serif;text-anchor:start;fill:#000"><tspan id="tspan1656" x="5.333" y="15.25">音色の設定</tspan></text></g></g><g id="g1676" transform="translate(92.85205)"><g id="g1674" transform="scale(1.5)"><path id="path1668" d="m 8.5,0.5 h 60 v 20 h -60 v -8 -1 h -6 v 3 h -2 v -8 h 2 v 3 h 6 v -1 z" style="fill:#3ea4a3;fill-opacity:1;stroke:#000;stroke-width:1;stroke-linecap:round;stroke-opacity:1"/><text id="text1672" style="font-size:10px;font-family:sans-serif;text-anchor:start;fill:#000"><tspan id="tspan1670" x="13.333" y="13.833">バイオリン</tspan></text></g></g><g id="g1690" transform="translate(13.5,31.5)"><g id="g1688" transform="scale(1.5)"><path id="path1678" d="m 0.5,8.5 v -4 a 4,4 90 0 1 4,-4 h 4 v 2 h 10 v -2 h 9 36.147461 4 a 4,4 90 0 1 4,4 v 4 h -4 v -3 h -4 v 10 h 4 v -3 h 4 v 4 a 4,4 90 0 1 -4,4 h -4 H 27.5 h -1 v 2 h -8 v -2 h -1 -4 a 5,5 90 0 0 -5,5 v 4 4 42 4 a 5,5 90 0 0 5,5 h 4 v 2 h 10 v -2 h 8 v 6 6 4 a 4,4 90 0 1 -4,4 h -4 -9 -1 v 2 h -8 v -2 h -1 -4 a 4,4 90 0 1 -4,-4 v -4 z" style="fill:#ff8b2d;fill-opacity:1;stroke:#520000;stroke-width:1;stroke-linecap:round;stroke-opacity:1"/><text id="text1682" style="font-size:10px;font-family:sans-serif;text-anchor:start;fill:#000"><tspan id="tspan1680" x="5.333" y="15.25">音価</tspan></text></g></g><g id="g1708" transform="translate(109.72119,31.5)"><g id="g1706" transform="scale(1.5)"><path id="path1692" d="m 8.5,8.5 v -4 a 4,4 90 0 1 4,-4 h 4 10 30 4 a 4,4 90 0 1 4,4 v 4 h -4 v -3 h -4 v 10 h 4 v -3 h 4 v 17 h -4 v -3 h -4 v 10 h 4 v -3 h 4 v 4 a 4,4 90 0 1 -4,4 h -4 -30 -10 -4 a 4,4 90 0 1 -4,-4 v -4 -21 -1 h -6 v 3 h -2 v -8 h 2 v 3 h 6 z" style="fill:#ffb2bc;fill-opacity:1;stroke:#601136;stroke-width:1;stroke-linecap:round;stroke-opacity:1"/><text id="text1696" style="font-size:14px;font-family:sans-serif;text-anchor:end;fill:#000"><tspan id="tspan1694" x="54.333" y="23.8">/</tspan></text></g></g><g id="g1718" transform="translate(195.22119,31.5)"><g id="g1716" transform="scale(1.5)"><path id="path1710" d="m 8.5,0.5 h 60 v 20 h -60 v -8 -1 h -6 v 3 h -2 v -8 h 2 v 3 h 6 v -1 z" style="fill:#ffb2bc;fill-opacity:1;stroke:#601136;stroke-width:1;stroke-linecap:round;stroke-opacity:1"/><text id="text1714" style="font-size:10px;font-family:sans-serif;text-anchor:start;fill:#000"><tspan id="tspan1712" x="13.333" y="13.833">1</tspan></text></g></g><g id="g1728" transform="translate(195.22119,63)"><g id="g1726" transform="scale(1.5)"><path id="path1720" d="m 8.5,0.5 h 60 v 20 h -60 v -8 -1 h -6 v 3 h -2 v -8 h 2 v 3 h 6 v -1 z" style="fill:#ffb2bc;fill-opacity:1;stroke:#601136;stroke-width:1;stroke-linecap:round;stroke-opacity:1"/><text id="text1724" style="font-size:10px;font-family:sans-serif;text-anchor:start;fill:#000"><tspan id="tspan1722" x="13.333" y="13.833">8</tspan></text></g></g><g id="g1738" transform="translate(27,63)"><g id="g1736" transform="scale(1.5)"><path id="path1730" d="m 0.5,8.5 v -4 a 4,4 90 0 1 4,-4 h 4 v 2 h 10 v -2 h 20 4 a 4,4 90 0 1 4,4 v 4 4 4 a 4,4 90 0 1 -4,4 h -4 -20 -1 v 2 h -8 v -2 h -1 -4 a 4,4 90 0 1 -4,-4 v -4 z" style="fill:#d57e6f;fill-opacity:1;stroke:#000;stroke-width:1;stroke-linecap:round;stroke-opacity:1"/><text id="text1734" style="font-size:10px;font-family:sans-serif;text-anchor:end;fill:#000"><tspan id="tspan1732" x="36.333" y="13.5">↓</tspan></text></g></g><g id="g1756" transform="translate(27,94.5)"><g id="g1754" transform="scale(1.5)"><path id="path1740" d="m 0.5,8.5 v -4 a 4,4 90 0 1 4,-4 h 4 v 2 h 10 v -2 h 30 4 a 4,4 90 0 1 4,4 v 4 h -4 v -3 h -4 v 10 h 4 v -3 h 4 v 17 h -4 v -3 h -4 v 10 h 4 v -3 h 4 v 4 a 4,4 90 0 1 -4,4 h -4 -30 -1 v 2 h -8 v -2 h -1 -4 a 4,4 90 0 1 -4,-4 v -4 -21 z" style="fill:#93e042;fill-opacity:1;stroke:#004000;stroke-width:1;stroke-linecap:round;stroke-opacity:1"/><text id="text1744" style="font-size:10px;font-family:sans-serif;text-anchor:end;fill:#000"><tspan id="tspan1742" x="46.333" y="24">ピッチ</tspan></text><text id="text1748" style="font-size:6.66666651px;font-family:sans-serif;text-anchor:end;fill:#000"><tspan id="tspan1746" x="46.333" y="11.25">名前</tspan></text><text id="text1752" style="font-size:6.66666651px;font-family:sans-serif;text-anchor:end;fill:#000"><tspan id="tspan1750" x="46.333" y="32.25">オクターヴ</tspan></text></g></g><g id="g1766" transform="translate(100.5,94.5)"><g id="g1764" transform="scale(1.5)"><path id="path1758" d="m 8.5,0.5 h 60 v 20 h -60 v -8 -1 h -6 v 3 h -2 v -8 h 2 v 3 h 6 v -1 z" style="fill:#93e042;fill-opacity:1;stroke:#004000;stroke-width:1;stroke-linecap:round;stroke-opacity:1"/><text id="text1762" style="font-size:10px;font-family:sans-serif;text-anchor:start;fill:#000"><tspan id="tspan1760" x="13.333" y="13.833">レ</tspan></text></g></g><g id="g1776" transform="translate(100.5,126)"><g id="g1774" transform="scale(1.5)"><path id="path1768" d="m 8.5,0.5 h 60 v 20 h -60 v -8 -1 h -6 v 3 h -2 v -8 h 2 v 3 h 6 v -1 z" style="fill:#ffb2bc;fill-opacity:1;stroke:#601136;stroke-width:1;stroke-linecap:round;stroke-opacity:1"/><text id="text1772" style="font-size:10px;font-family:sans-serif;text-anchor:start;fill:#000"><tspan id="tspan1770" x="13.333" y="13.833">5</tspan></text></g></g><g id="g1790" transform="translate(13.5,189)"><g id="g1788" transform="scale(1.5)"><path id="path1778" d="m 0.5,8.5 v -4 a 4,4 90 0 1 4,-4 h 4 v 2 h 10 v -2 h 9 36.147461 4 a 4,4 90 0 1 4,4 v 4 h -4 v -3 h -4 v 10 h 4 v -3 h 4 v 4 a 4,4 90 0 1 -4,4 h -4 H 27.5 h -1 v 2 h -8 v -2 h -1 -4 a 5,5 90 0 0 -5,5 v 4 4 42 4 a 5,5 90 0 0 5,5 h 4 v 2 h 10 v -2 h 8 v 6 6 4 a 4,4 90 0 1 -4,4 h -4 -9 -1 v 2 h -8 v -2 h -1 -4 a 4,4 90 0 1 -4,-4 v -4 z" style="fill:#ff8b2d;fill-opacity:1;stroke:#520000;stroke-width:1;stroke-linecap:round;stroke-opacity:1"/><text id="text1782" style="font-size:10px;font-family:sans-serif;text-anchor:start;fill:#000"><tspan id="tspan1780" x="5.333" y="15.25">音価</tspan></text></g></g><g id="g1808" transform="translate(109.72119,189)"><g id="g1806" transform="scale(1.5)"><path id="path1792" d="m 8.5,8.5 v -4 a 4,4 90 0 1 4,-4 h 4 10 30 4 a 4,4 90 0 1 4,4 v 4 h -4 v -3 h -4 v 10 h 4 v -3 h 4 v 17 h -4 v -3 h -4 v 10 h 4 v -3 h 4 v 4 a 4,4 90 0 1 -4,4 h -4 -30 -10 -4 a 4,4 90 0 1 -4,-4 v -4 -21 -1 h -6 v 3 h -2 v -8 h 2 v 3 h 6 z" style="fill:#ffb2bc;fill-opacity:1;stroke:#601136;stroke-width:1;stroke-linecap:round;stroke-opacity:1"/><text id="text1796" style="font-size:14px;font-family:sans-serif;text-anchor:end;fill:#000"><tspan id="tspan1794" x="54.333" y="23.8">/</tspan></text></g></g><g id="g1818" transform="translate(195.22119,189)"><g id="g1816" transform="scale(1.5)"><path id="path1810" d="m 8.5,0.5 h 60 v 20 h -60 v -8 -1 h -6 v 3 h -2 v -8 h 2 v 3 h 6 v -1 z" style="fill:#ffb2bc;fill-opacity:1;stroke:#601136;stroke-width:1;stroke-linecap:round;stroke-opacity:1"/><text id="text1814" style="font-size:10px;font-family:sans-serif;text-anchor:start;fill:#000"><tspan id="tspan1812" x="13.333" y="13.833">1</tspan></text></g></g><g id="g1828" transform="translate(195.22119,220.5)"><g id="g1826" transform="scale(1.5)"><path id="path1820" d="m 8.5,0.5 h 60 v 20 h -60 v -8 -1 h -6 v 3 h -2 v -8 h 2 v 3 h 6 v -1 z" style="fill:#ffb2bc;fill-opacity:1;stroke:#601136;stroke-width:1;stroke-linecap:round;stroke-opacity:1"/><text id="text1824" style="font-size:10px;font-family:sans-serif;text-anchor:start;fill:#000"><tspan id="tspan1822" x="13.333" y="13.833">8</tspan></text></g></g><g id="g1838" transform="translate(27,220.5)"><g id="g1836" transform="scale(1.5)"><path id="path1830" d="m 0.5,8.5 v -4 a 4,4 90 0 1 4,-4 h 4 v 2 h 10 v -2 h 20 4 a 4,4 90 0 1 4,4 v 4 4 4 a 4,4 90 0 1 -4,4 h -4 -20 -1 v 2 h -8 v -2 h -1 -4 a 4,4 90 0 1 -4,-4 v -4 z" style="fill:#d57e6f;fill-opacity:1;stroke:#000;stroke-width:1;stroke-linecap:round;stroke-opacity:1"/><text id="text1834" style="font-size:10px;font-family:sans-serif;text-anchor:end;fill:#000"><tspan id="tspan1832" x="36.333" y="13.5">↓</tspan></text></g></g><g id="g1856" transform="translate(27,252)"><g id="g1854" transform="scale(1.5)"><path id="path1840" d="m 0.5,8.5 v -4 a 4,4 90 0 1 4,-4 h 4 v 2 h 10 v -2 h 30 4 a 4,4 90 0 1 4,4 v 4 h -4 v -3 h -4 v 10 h 4 v -3 h 4 v 17 h -4 v -3 h -4 v 10 h 4 v -3 h 4 v 4 a 4,4 90 0 1 -4,4 h -4 -30 -1 v 2 h -8 v -2 h -1 -4 a 4,4 90 0 1 -4,-4 v -4 -21 z" style="fill:#93e042;fill-opacity:1;stroke:#004000;stroke-width:1;stroke-linecap:round;stroke-opacity:1"/><text id="text1844" style="font-size:10px;font-family:sans-serif;text-anchor:end;fill:#000"><tspan id="tspan1842" x="46.333" y="24">ピッチ</tspan></text><text id="text1848" style="font-size:6.66666651px;font-family:sans-serif;text-anchor:end;fill:#000"><tspan id="tspan1846" x="46.333" y="11.25">名前</tspan></text><text id="text1852" style="font-size:6.66666651px;font-family:sans-serif;text-anchor:end;fill:#000"><tspan id="tspan1850" x="46.333" y="32.25">オクターヴ</tspan></text></g></g><g id="g1866" transform="translate(100.5,252)"><g id="g1864" transform="scale(1.5)"><path id="path1858" d="m 8.5,0.5 h 60 v 20 h -60 v -8 -1 h -6 v 3 h -2 v -8 h 2 v 3 h 6 v -1 z" style="fill:#93e042;fill-opacity:1;stroke:#004000;stroke-width:1;stroke-linecap:round;stroke-opacity:1"/><text id="text1862" style="font-size:10px;font-family:sans-serif;text-anchor:start;fill:#000"><tspan id="tspan1860" x="13.333" y="13.833">ミ</tspan></text></g></g><g id="g1876" transform="translate(100.5,283.5)"><g id="g1874" transform="scale(1.5)"><path id="path1868" d="m 8.5,0.5 h 60 v 20 h -60 v -8 -1 h -6 v 3 h -2 v -8 h 2 v 3 h 6 v -1 z" style="fill:#ffb2bc;fill-opacity:1;stroke:#601136;stroke-width:1;stroke-linecap:round;stroke-opacity:1"/><text id="text1872" style="font-size:10px;font-family:sans-serif;text-anchor:start;fill:#000"><tspan id="tspan1870" x="13.333" y="13.833">5</tspan></text></g></g></svg>