<svg xmlns="http://www.w3.org/2000/svg" xmlns:svg="http://www.w3.org/2000/svg" id="svg4307" width="437.401" height="412.5" version="1.1"><metadata id="metadata4313"/><g id="g4029"><g id="g4027" transform="scale(1.5)"><path id="path4017" d="m 0.5,8.5 v -4 a 4,4 90 0 1 4,-4 h 4 v 2 h 10 v -2 h 9 80.60059 4 a 4,4 90 0 1 4,4 v 4 h -4 v -3 h -4 v 10 h 4 v -3 h 4 v 4 a 4,4 90 0 1 -4,4 h -4 H 27.5 h -1 v 2 h -8 v -2 h -1 -4 a 5,5 90 0 0 -5,5 v 4 4 210 4 a 5,5 90 0 0 5,5 h 4 v 2 h 10 v -2 h 8 v 6 6 4 a 4,4 90 0 1 -4,4 h -4 -9 -1 v 2 h -8 v -2 h -1 -4 a 4,4 90 0 1 -4,-4 v -4 z" style="fill:#93e042;fill-opacity:1;stroke:#004000;stroke-width:1;stroke-linecap:round;stroke-opacity:1"/><text id="text4021" style="font-size:10px;font-family:sans-serif;text-anchor:start;fill:#000"><tspan id="tspan4019" x="5.333" y="15.25">半音で移調</tspan></text></g></g><g id="g4047" transform="translate(162.90088)"><g id="g4045" transform="scale(1.5)"><path id="path4031" d="m 8.5,8.5 v -4 a 4,4 90 0 1 4,-4 h 4 10 30 4 a 4,4 90 0 1 4,4 v 4 h -4 v -3 h -4 v 10 h 4 v -3 h 4 v 17 h -4 v -3 h -4 v 10 h 4 v -3 h 4 v 4 a 4,4 90 0 1 -4,4 h -4 -30 -10 -4 a 4,4 90 0 1 -4,-4 v -4 -21 -1 h -6 v 3 h -2 v -8 h 2 v 3 h 6 z" style="fill:#ffb2bc;fill-opacity:1;stroke:#601136;stroke-width:1;stroke-linecap:round;stroke-opacity:1"/><text id="text4035" style="font-size:14px;font-family:sans-serif;text-anchor:end;fill:#000"><tspan id="tspan4033" x="54.333" y="23.8">+</tspan></text></g></g><g id="g4057" transform="translate(248.40088)"><g id="g4055" transform="scale(1.5)"><path id="path4049" d="m 8.5,0.5 h 60 v 20 h -60 v -8 -1 h -6 v 3 h -2 v -8 h 2 v 3 h 6 v -1 z" style="fill:#ffb2bc;fill-opacity:1;stroke:#601136;stroke-width:1;stroke-linecap:round;stroke-opacity:1"/><text id="text4053" style="font-size:10px;font-family:sans-serif;text-anchor:start;fill:#000"><tspan id="tspan4051" x="13.333" y="13.833">0</tspan></text></g></g><g id="g4075" transform="translate(248.40088,31.5)"><g id="g4073" transform="scale(1.5)"><path id="path4059" d="m 8.5,8.5 v -4 a 4,4 90 0 1 4,-4 h 4 10 30 4 a 4,4 90 0 1 4,4 v 4 h -4 v -3 h -4 v 10 h 4 v -3 h 4 v 17 h -4 v -3 h -4 v 10 h 4 v -3 h 4 v 4 a 4,4 90 0 1 -4,4 h -4 -30 -10 -4 a 4,4 90 0 1 -4,-4 v -4 -21 -1 h -6 v 3 h -2 v -8 h 2 v 3 h 6 z" style="fill:#ffb2bc;fill-opacity:1;stroke:#601136;stroke-width:1;stroke-linecap:round;stroke-opacity:1"/><text id="text4063" style="font-size:14px;font-family:sans-serif;text-anchor:end;fill:#000"><tspan id="tspan4061" x="54.333" y="23.8">×</tspan></text></g></g><g id="g4085" transform="translate(333.90088,31.5)"><g id="g4083" transform="scale(1.5)"><path id="path4077" d="m 8.5,0.5 h 60 v 20 h -60 v -8 -1 h -6 v 3 h -2 v -8 h 2 v 3 h 6 v -1 z" style="fill:#ffb2bc;fill-opacity:1;stroke:#601136;stroke-width:1;stroke-linecap:round;stroke-opacity:1"/><text id="text4081" style="font-size:10px;font-family:sans-serif;text-anchor:start;fill:#000"><tspan id="tspan4079" x="13.333" y="13.833">1</tspan></text></g></g><g id="g4095" transform="translate(333.90088,63)"><g id="g4093" transform="scale(1.5)"><path id="path4087" d="m 8.5,0.5 h 60 v 20 h -60 v -8 -1 h -6 v 3 h -2 v -8 h 2 v 3 h 6 v -1 z" style="fill:#ffb2bc;fill-opacity:1;stroke:#601136;stroke-width:1;stroke-linecap:round;stroke-opacity:1"/><text id="text4091" style="font-size:10px;font-family:sans-serif;text-anchor:start;fill:#000"><tspan id="tspan4089" x="13.333" y="13.833">12</tspan></text></g></g><g id="g4105" transform="translate(13.5,31.5)"><g id="g4103" transform="scale(1.5)"><path id="path4097" d="m 0.5,8.5 v -4 a 4,4 90 0 1 4,-4 h 4 v 2 h 10 v -2 h 20 4 a 4,4 90 0 1 4,4 v 4 4 4 a 4,4 90 0 1 -4,4 h -4 -20 -1 v 2 h -8 v -2 h -1 -4 a 4,4 90 0 1 -4,-4 v -4 z" style="fill:#d57e6f;fill-opacity:1;stroke:#000;stroke-width:1;stroke-linecap:round;stroke-opacity:1"/><text id="text4101" style="font-size:10px;font-family:sans-serif;text-anchor:end;fill:#000"><tspan id="tspan4099" x="36.333" y="13.5">↓</tspan></text></g></g><g id="g4119" transform="translate(13.5,63)"><g id="g4117" transform="scale(1.5)"><path id="path4107" d="m 0.5,8.5 v -4 a 4,4 90 0 1 4,-4 h 4 v 2 h 10 v -2 h 9 36.147461 4 a 4,4 90 0 1 4,4 v 4 h -4 v -3 h -4 v 10 h 4 v -3 h 4 v 4 a 4,4 90 0 1 -4,4 h -4 H 27.5 h -1 v 2 h -8 v -2 h -1 -4 a 5,5 90 0 0 -5,5 v 4 4 42 4 a 5,5 90 0 0 5,5 h 4 v 2 h 10 v -2 h 8 v 6 6 4 a 4,4 90 0 1 -4,4 h -4 -9 -1 v 2 h -8 v -2 h -1 -4 a 4,4 90 0 1 -4,-4 v -4 z" style="fill:#ff8b2d;fill-opacity:1;stroke:#520000;stroke-width:1;stroke-linecap:round;stroke-opacity:1"/><text id="text4111" style="font-size:10px;font-family:sans-serif;text-anchor:start;fill:#000"><tspan id="tspan4109" x="5.333" y="15.25">音価</tspan></text></g></g><g id="g4137" transform="translate(109.72119,63)"><g id="g4135" transform="scale(1.5)"><path id="path4121" d="m 8.5,8.5 v -4 a 4,4 90 0 1 4,-4 h 4 10 30 4 a 4,4 90 0 1 4,4 v 4 h -4 v -3 h -4 v 10 h 4 v -3 h 4 v 17 h -4 v -3 h -4 v 10 h 4 v -3 h 4 v 4 a 4,4 90 0 1 -4,4 h -4 -30 -10 -4 a 4,4 90 0 1 -4,-4 v -4 -21 -1 h -6 v 3 h -2 v -8 h 2 v 3 h 6 z" style="fill:#ffb2bc;fill-opacity:1;stroke:#601136;stroke-width:1;stroke-linecap:round;stroke-opacity:1"/><text id="text4125" style="font-size:14px;font-family:sans-serif;text-anchor:end;fill:#000"><tspan id="tspan4123" x="54.333" y="23.8">/</tspan></text></g></g><g id="g4147" transform="translate(195.22119,63)"><g id="g4145" transform="scale(1.5)"><path id="path4139" d="m 8.5,0.5 h 60 v 20 h -60 v -8 -1 h -6 v 3 h -2 v -8 h 2 v 3 h 6 v -1 z" style="fill:#ffb2bc;fill-opacity:1;stroke:#601136;stroke-width:1;stroke-linecap:round;stroke-opacity:1"/><text id="text4143" style="font-size:10px;font-family:sans-serif;text-anchor:start;fill:#000"><tspan id="tspan4141" x="13.333" y="13.833">1</tspan></text></g></g><g id="g4157" transform="translate(195.22119,94.5)"><g id="g4155" transform="scale(1.5)"><path id="path4149" d="m 8.5,0.5 h 60 v 20 h -60 v -8 -1 h -6 v 3 h -2 v -8 h 2 v 3 h 6 v -1 z" style="fill:#ffb2bc;fill-opacity:1;stroke:#601136;stroke-width:1;stroke-linecap:round;stroke-opacity:1"/><text id="text4153" style="font-size:10px;font-family:sans-serif;text-anchor:start;fill:#000"><tspan id="tspan4151" x="13.333" y="13.833">8</tspan></text></g></g><g id="g4167" transform="translate(27,94.5)"><g id="g4165" transform="scale(1.5)"><path id="path4159" d="m 0.5,8.5 v -4 a 4,4 90 0 1 4,-4 h 4 v 2 h 10 v -2 h 20 4 a 4,4 90 0 1 4,4 v 4 4 4 a 4,4 90 0 1 -4,4 h -4 -20 -1 v 2 h -8 v -2 h -1 -4 a 4,4 90 0 1 -4,-4 v -4 z" style="fill:#d57e6f;fill-opacity:1;stroke:#000;stroke-width:1;stroke-linecap:round;stroke-opacity:1"/><text id="text4163" style="font-size:10px;font-family:sans-serif;text-anchor:end;fill:#000"><tspan id="tspan4161" x="36.333" y="13.5">↓</tspan></text></g></g><g id="g4185" transform="translate(27,126)"><g id="g4183" transform="scale(1.5)"><path id="path4169" d="m 0.5,8.5 v -4 a 4,4 90 0 1 4,-4 h 4 v 2 h 10 v -2 h 30 4 a 4,4 90 0 1 4,4 v 4 h -4 v -3 h -4 v 10 h 4 v -3 h 4 v 17 h -4 v -3 h -4 v 10 h 4 v -3 h 4 v 4 a 4,4 90 0 1 -4,4 h -4 -30 -1 v 2 h -8 v -2 h -1 -4 a 4,4 90 0 1 -4,-4 v -4 -21 z" style="fill:#93e042;fill-opacity:1;stroke:#004000;stroke-width:1;stroke-linecap:round;stroke-opacity:1"/><text id="text4173" style="font-size:10px;font-family:sans-serif;text-anchor:end;fill:#000"><tspan id="tspan4171" x="46.333" y="24">ピッチ</tspan></text><text id="text4177" style="font-size:6.66666651px;font-family:sans-serif;text-anchor:end;fill:#000"><tspan id="tspan4175" x="46.333" y="11.25">名前</tspan></text><text id="text4181" style="font-size:6.66666651px;font-family:sans-serif;text-anchor:end;fill:#000"><tspan id="tspan4179" x="46.333" y="32.25">オクターヴ</tspan></text></g></g><g id="g4195" transform="translate(100.5,126)"><g id="g4193" transform="scale(1.5)"><path id="path4187" d="m 8.5,0.5 h 60 v 20 h -60 v -8 -1 h -6 v 3 h -2 v -8 h 2 v 3 h 6 v -1 z" style="fill:#93e042;fill-opacity:1;stroke:#004000;stroke-width:1;stroke-linecap:round;stroke-opacity:1"/><text id="text4191" style="font-size:10px;font-family:sans-serif;text-anchor:start;fill:#000"><tspan id="tspan4189" x="13.333" y="13.833">レ</tspan></text></g></g><g id="g4205" transform="translate(100.5,157.5)"><g id="g4203" transform="scale(1.5)"><path id="path4197" d="m 8.5,0.5 h 60 v 20 h -60 v -8 -1 h -6 v 3 h -2 v -8 h 2 v 3 h 6 v -1 z" style="fill:#ffb2bc;fill-opacity:1;stroke:#601136;stroke-width:1;stroke-linecap:round;stroke-opacity:1"/><text id="text4201" style="font-size:10px;font-family:sans-serif;text-anchor:start;fill:#000"><tspan id="tspan4199" x="13.333" y="13.833">5</tspan></text></g></g><g id="g4219" transform="translate(13.5,220.5)"><g id="g4217" transform="scale(1.5)"><path id="path4207" d="m 0.5,8.5 v -4 a 4,4 90 0 1 4,-4 h 4 v 2 h 10 v -2 h 9 36.147461 4 a 4,4 90 0 1 4,4 v 4 h -4 v -3 h -4 v 10 h 4 v -3 h 4 v 4 a 4,4 90 0 1 -4,4 h -4 H 27.5 h -1 v 2 h -8 v -2 h -1 -4 a 5,5 90 0 0 -5,5 v 4 4 42 4 a 5,5 90 0 0 5,5 h 4 v 2 h 10 v -2 h 8 v 6 6 4 a 4,4 90 0 1 -4,4 h -4 -9 -1 v 2 h -8 v -2 h -1 -4 a 4,4 90 0 1 -4,-4 v -4 z" style="fill:#ff8b2d;fill-opacity:1;stroke:#520000;stroke-width:1;stroke-linecap:round;stroke-opacity:1"/><text id="text4211" style="font-size:10px;font-family:sans-serif;text-anchor:start;fill:#000"><tspan id="tspan4209" x="5.333" y="15.25">音価</tspan></text></g></g><g id="g4237" transform="translate(109.72119,220.5)"><g id="g4235" transform="scale(1.5)"><path id="path4221" d="m 8.5,8.5 v -4 a 4,4 90 0 1 4,-4 h 4 10 30 4 a 4,4 90 0 1 4,4 v 4 h -4 v -3 h -4 v 10 h 4 v -3 h 4 v 17 h -4 v -3 h -4 v 10 h 4 v -3 h 4 v 4 a 4,4 90 0 1 -4,4 h -4 -30 -10 -4 a 4,4 90 0 1 -4,-4 v -4 -21 -1 h -6 v 3 h -2 v -8 h 2 v 3 h 6 z" style="fill:#ffb2bc;fill-opacity:1;stroke:#601136;stroke-width:1;stroke-linecap:round;stroke-opacity:1"/><text id="text4225" style="font-size:14px;font-family:sans-serif;text-anchor:end;fill:#000"><tspan id="tspan4223" x="54.333" y="23.8">/</tspan></text></g></g><g id="g4247" transform="translate(195.22119,220.5)"><g id="g4245" transform="scale(1.5)"><path id="path4239" d="m 8.5,0.5 h 60 v 20 h -60 v -8 -1 h -6 v 3 h -2 v -8 h 2 v 3 h 6 v -1 z" style="fill:#ffb2bc;fill-opacity:1;stroke:#601136;stroke-width:1;stroke-linecap:round;stroke-opacity:1"/><text id="text4243" style="font-size:10px;font-family:sans-serif;text-anchor:start;fill:#000"><tspan id="tspan4241" x="13.333" y="13.833">1</tspan></text></g></g><g id="g4257" transform="translate(195.22119,252)"><g id="g4255" transform="scale(1.5)"><path id="path4249" d="m 8.5,0.5 h 60 v 20 h -60 v -8 -1 h -6 v 3 h -2 v -8 h 2 v 3 h 6 v -1 z" style="fill:#ffb2bc;fill-opacity:1;stroke:#601136;stroke-width:1;stroke-linecap:round;stroke-opacity:1"/><text id="text4253" style="font-size:10px;font-family:sans-serif;text-anchor:start;fill:#000"><tspan id="tspan4251" x="13.333" y="13.833">8</tspan></text></g></g><g id="g4267" transform="translate(27,252)"><g id="g4265" transform="scale(1.5)"><path id="path4259" d="m 0.5,8.5 v -4 a 4,4 90 0 1 4,-4 h 4 v 2 h 10 v -2 h 20 4 a 4,4 90 0 1 4,4 v 4 4 4 a 4,4 90 0 1 -4,4 h -4 -20 -1 v 2 h -8 v -2 h -1 -4 a 4,4 90 0 1 -4,-4 v -4 z" style="fill:#d57e6f;fill-opacity:1;stroke:#000;stroke-width:1;stroke-linecap:round;stroke-opacity:1"/><text id="text4263" style="font-size:10px;font-family:sans-serif;text-anchor:end;fill:#000"><tspan id="tspan4261" x="36.333" y="13.5">↓</tspan></text></g></g><g id="g4285" transform="translate(27,283.5)"><g id="g4283" transform="scale(1.5)"><path id="path4269" d="m 0.5,8.5 v -4 a 4,4 90 0 1 4,-4 h 4 v 2 h 10 v -2 h 30 4 a 4,4 90 0 1 4,4 v 4 h -4 v -3 h -4 v 10 h 4 v -3 h 4 v 17 h -4 v -3 h -4 v 10 h 4 v -3 h 4 v 4 a 4,4 90 0 1 -4,4 h -4 -30 -1 v 2 h -8 v -2 h -1 -4 a 4,4 90 0 1 -4,-4 v -4 -21 z" style="fill:#93e042;fill-opacity:1;stroke:#004000;stroke-width:1;stroke-linecap:round;stroke-opacity:1"/><text id="text4273" style="font-size:10px;font-family:sans-serif;text-anchor:end;fill:#000"><tspan id="tspan4271" x="46.333" y="24">ピッチ</tspan></text><text id="text4277" style="font-size:6.66666651px;font-family:sans-serif;text-anchor:end;fill:#000"><tspan id="tspan4275" x="46.333" y="11.25">名前</tspan></text><text id="text4281" style="font-size:6.66666651px;font-family:sans-serif;text-anchor:end;fill:#000"><tspan id="tspan4279" x="46.333" y="32.25">オクターヴ</tspan></text></g></g><g id="g4295" transform="translate(100.5,283.5)"><g id="g4293" transform="scale(1.5)"><path id="path4287" d="m 8.5,0.5 h 60 v 20 h -60 v -8 -1 h -6 v 3 h -2 v -8 h 2 v 3 h 6 v -1 z" style="fill:#93e042;fill-opacity:1;stroke:#004000;stroke-width:1;stroke-linecap:round;stroke-opacity:1"/><text id="text4291" style="font-size:10px;font-family:sans-serif;text-anchor:start;fill:#000"><tspan id="tspan4289" x="13.333" y="13.833">ミ</tspan></text></g></g><g id="g4305" transform="translate(100.5,315)"><g id="g4303" transform="scale(1.5)"><path id="path4297" d="m 8.5,0.5 h 60 v 20 h -60 v -8 -1 h -6 v 3 h -2 v -8 h 2 v 3 h 6 v -1 z" style="fill:#ffb2bc;fill-opacity:1;stroke:#601136;stroke-width:1;stroke-linecap:round;stroke-opacity:1"/><text id="text4301" style="font-size:10px;font-family:sans-serif;text-anchor:start;fill:#000"><tspan id="tspan4299" x="13.333" y="13.833">5</tspan></text></g></g><rect id="rect4327" width="0" height="43.228" x="453.272" y="453.899" ry="1.235"/></svg>