<svg xmlns="http://www.w3.org/2000/svg" xmlns:svg="http://www.w3.org/2000/svg" id="svg3641" width="462" height="949.124" version="1.1" viewBox="0 0 462 949.124"><metadata id="metadata3670"/><path id="path3035-8-1-5-4-3-5" d="m 311,838.12407 v -8 c 0,-4.41828 3.58172,-8 8,-8 h 8 v 4 h 20 v -4 h 18 56.00001 8 c 4.41828,0 6.92841,3.71364 8,8 v 8 8 8 c 0,4.41827 -3.58172,8 -8,8 h -8 H 365 363 v 4 h -16 v -4 h -2 -8 c -5.52284,0 -10,4.47715 -10,10 v 8 6.00004 7.99998 c 0,5.52286 4.64205,11.3395 10,10.00001 h 8 v 4 h 20 v -4 h 16.00001 v 12 12 8 c 0,4.41827 -3.71365,9.0716 -8.00001,8 h -8 -18 -2 v 4 h -16 v -4 h -2 -8 c -4.41828,0 -8,-3.58173 -8,-8 v -8 z" style="fill:#1d8989;fill-opacity:1;stroke:#005459;stroke-width:2;stroke-linecap:round;stroke-opacity:1"/><text style="font-size:20px;font-family:Sans;text-anchor:start;fill:#000" id="text3037-2-2" x="313.867" y="818.146"><tspan id="tspan3039-2-1" x="321.867" y="848.646">逆に弾く</tspan></text><path style="fill:#ffc000;fill-opacity:1;stroke:#c48d00;stroke-width:2;stroke-linecap:round;stroke-opacity:1" id="path3058" d="m 329,880.1241 v -8 a 8,8 0 0 1 8,-8 h 8 v 4 h 20 v -4 h 80 8 a 8,8 0 0 1 8,8 v 8 8 8 a 8,8 0 0 1 -8,8 h -8 -80 -2 v 4 h -16 v -4 h -2 -8 a 8,8 0 0 1 -8,-8 v -8 z"/><text style="font-size:20px;font-family:Sans;text-anchor:end;fill:#000" id="text3060" x="328" y="863.124"><tspan id="tspan3062" x="442" y="891.124">chunk</tspan></text><path id="path3027-4-9" d="m 1,29.56205 v -8 c 0,-4.18879 3.81121,-8 8,-8 h 8 L 27,1.5620499 37,13.56205 h 18 70 8 c 4.18879,0 8,3.81121 8,8 v 8 h -8 v -6 h -8 v 20 h 8 v -6 h 8 v 8 c 0,4.18879 -3.81121,8 -8,8 h -8 -70 -2 v 4 H 37 v -4 h -2 -8 c -2.61799,0 -5.21987,1.07773 -7.07107,2.92893 C 18.07773,58.34218 17,60.94405 17,63.56205 v 8 806 8 c 0,2.61799 1.07773,5.21987 2.92893,7.07107 1.8512,1.8512 4.53125,2.29397 7.07107,2.92893 h 8 v 4 h 20 v -4 h 16 v 12 12 8 c 0,4.18878 -3.93628,9.01593 -8,8 H 55 37 l -10,12 -10,-12 H 9 c -4.18879,0 -8,-3.81122 -8,-8 v -8 z" style="fill:#ffc000;fill-opacity:1;stroke:#c48d00;stroke-width:2;stroke-linecap:round;stroke-opacity:1"/><text id="text3029-4-3" x="-.055" y="-1.727" style="font-size:20px;font-family:Sans;text-anchor:start;fill:#000"><tspan id="tspan3031-5-2" x="7.945" y="41.273">動作</tspan></text><path id="path21-2-0-4" d="m 143,13.56205 h 120 v 40 H 143 v -16 -2 h -12 v 6 h -4 v -16 h 4 v 6 h 12 v -2 z" style="fill:#5dc1bc;fill-opacity:1;stroke:#5aa4af;stroke-width:2;stroke-linecap:round;stroke-opacity:1"/><text id="text23-2-3" x="149.218" y="12.018" style="font-size:20px;font-family:Sans;text-anchor:start;fill:#000"><tspan id="tspan25-1-7" x="169.218" y="38.018">chunk</tspan></text><path style="fill:#76c61c;fill-opacity:1;stroke:#538d38;stroke-width:2;stroke-linecap:round;stroke-opacity:1" id="path3194-36-6" d="m 37,786.12408 v -8 a 8,8 0 0 1 8,-8 h 8 v 4 h 20 v -4 h 60 8 a 8,8 0 0 1 8,8 v 8 h -8 v -6 h -8 v 20 h 8 v -6 h 8 v 34 h -8 v -5.99999 h -8 v 19.99999 h 8 v -6 h 8 v 8 a 8,8 0 0 1 -8,8 h -8 -60 -2 v 4 H 55 v -4 h -2 -8 a 8,8 0 0 1 -8,-8 v -8 -42 z"/><text style="font-size:20px;font-family:Sans;text-anchor:end;fill:#000" id="text3196-75-2" x="36" y="769.124"><tspan id="tspan3198-3-1" x="130" y="818.124">ピッチ</tspan></text><text style="font-size:13.33333302px;font-family:Sans;text-anchor:end;fill:#000" id="text3200-5-7" x="36" y="771.124"><tspan id="tspan3202-6-8" x="130" y="793.624">名前</tspan></text><text style="font-size:13.33333302px;font-family:Sans;text-anchor:end;fill:#000" id="text3204-2-5" x="36" y="773.124"><tspan id="tspan3206-9-7" x="130" y="837.624">オクターヴ</tspan></text><path id="path21-1-4" d="m 151,770.12408 h 120 v 40.00001 H 151 v -16.00001 -2 h -12 v 6 h -4 v -16 h 4 v 6 h 12 v -2 z" style="fill:#76c61c;fill-opacity:1;stroke:#538d38;stroke-width:2;stroke-linecap:round;stroke-opacity:1"/><text id="text23-2-2-1" x="176" y="769.124" style="font-size:20px;font-family:Sans;text-anchor:start;fill:#000"><tspan id="tspan25-70-8" x="196" y="795.124">ソ</tspan></text><path style="fill:#ee97a8;fill-opacity:1;stroke:#a75862;stroke-width:2;stroke-linecap:round;stroke-opacity:1" id="path21-6-9-5" d="m 151,812.12408 h 120 v 40 H 151 v -16 -2 h -12 v 6 h -4 v -16 h 4 v 6 h 12 v -2 z"/><text style="font-size:20px;font-family:Sans;text-anchor:start;fill:#000" id="text23-9-3-2-9" x="186" y="811.124"><tspan id="tspan25-8-6-7" x="206" y="837.124">4</tspan></text><path style="fill:#f2740b;fill-opacity:1;stroke:#a86129;stroke-width:2;stroke-linecap:round;stroke-opacity:1" id="path3035-0-5" d="m 19,702.1241 v -8 c 0,-4.41828 3.58172,-8 8,-8 h 8 v 4 h 20 v -4 h 18 60 8 c 4.41828,0 9.07159,3.71364 8,8 v 8 h -8 v -6 h -8 v 20 h 8 v -6 h 8 v 8 c 0,4.41827 -3.58172,8 -8,8 h -8 -60 -2 v 4 H 55 v -4 h -2 -8 c -5.52285,0 -10,4.47715 -10,9.99999 v 8 92.00001 7.99999 c 0,5.52285 4.64205,11.3395 10,10 h 8 v 4 h 20 v -4 h 16 v 12 12 8 c 0,4.41828 -3.71365,9.0716 -8,8 H 73 55 53 v 4 H 37 v -4 h -2 -8 c -4.41828,0 -8,-3.58172 -8,-8 v -8 z"/><text style="font-size:20px;font-family:Sans;text-anchor:start;fill:#000" id="text3037-6-3" x="16" y="683.124"><tspan id="tspan3039-2-8" x="24" y="713.624">音価</tspan></text><path style="fill:#ee97a8;fill-opacity:1;stroke:#a75862;stroke-width:2;stroke-linecap:round;stroke-opacity:1" id="path21-6-1-1-6-3" d="m 265,728.1241 h 120 v 40 H 265 v -16 -2 h -12 v 6 h -4 v -16 h 4 v 6 h 12 v -2 z"/><text style="font-size:20px;font-family:Sans;text-anchor:start;fill:#000" id="text23-9-82-8-1" x="300" y="727.124"><tspan id="tspan25-8-5-7-8" x="320" y="753.124">4</tspan></text><path style="fill:#ee97a8;fill-opacity:1;stroke:#a75862;stroke-width:2;stroke-linecap:round;stroke-opacity:1" id="path3798-4-4-5-2-64" d="m 151,702.1241 v -8 a 8,8 0 0 1 8,-8 h 8 20 60 8 a 8,8 0 0 1 8,8 v 8 h -8 v -6 h -8 v 20 h 8 v -6 h 8 v 34 h -8 v -6 h -8 v 20 h 8 v -6 h 8 v 8 a 8,8 0 0 1 -8,8 h -8 -60 -20 -8 a 8,8 0 0 1 -8,-8 v -8 -42 -2 h -12 v 6 h -4 v -16 h 4 v 6 h 12 z"/><text style="font-size:28px;font-family:sans-serif;text-anchor:end;fill:#000" id="text3800-3-2-0-0-33" x="126" y="685.124"><tspan id="tspan3802-6-2-5-2-3" x="236" y="734.124">/</tspan></text><path style="fill:#ee97a8;fill-opacity:1;stroke:#a75862;stroke-width:2;stroke-linecap:round;stroke-opacity:1" id="path21-8-2-1-0-6-7-6" d="m 265,686.1241 h 120 v 40 H 265 v -16 -2 h -12 v 6 h -4 v -16 h 4 v 6 h 12 v -2 z"/><text style="font-size:20px;font-family:Sans;text-anchor:start;fill:#000" id="text23-0-1-0-1-0-5-0" x="297" y="687.124"><tspan id="tspan25-7-0-5-2-5-9-4" x="317" y="713.124">1</tspan></text><path id="path3124-2-8" d="m 37,744.1241 v -8 c 0,-4.41828 3.58172,-8 8,-8 h 8 v 4 h 20 v -4 h 60 8 c 4.41828,0 8,3.58172 8,8 v 8 8 8 c 0,4.41828 -3.71364,6.92841 -8,8 h -8 -60 -2 v 4 H 55 v -4 h -2 -8 c -4.41828,0 -8,-3.58172 -8,-8 v -8 0 z" style="fill:#be6152;fill-opacity:1;stroke:#923111;stroke-width:2;stroke-linecap:round;stroke-opacity:1"/><text style="font-style:normal;font-weight:400;font-size:16px;line-height:125%;font-family:sans-serif;text-align:center;letter-spacing:0;word-spacing:0;text-anchor:middle;fill:#000;fill-opacity:1;stroke:none;stroke-width:1px;stroke-linecap:butt;stroke-linejoin:miter;stroke-opacity:1" id="text6137-2-8" x="118.823" y="755.047" xml:space="preserve"><tspan id="tspan6139-8-8" x="118.823" y="755.047" style="font-size:22.5px">↓</tspan></text><path style="fill:#76c61c;fill-opacity:1;stroke:#538d38;stroke-width:2;stroke-linecap:round;stroke-opacity:1" id="path3194-9-1-7" d="m 37.00004,576.12408 v -8 a 8,8 0 0 1 8,-8 h 8 v 4 h 20 v -4 h 60 8 a 8,8 0 0 1 8,8 v 8 h -8 v -6 h -8 v 20 h 8 v -6 h 8 v 34 h -8 v -5.99999 h -8 v 19.99999 h 8 v -6 h 8 v 8 a 8,8 0 0 1 -8,8 h -8 -60 -2 v 4 h -16 v -4 h -2 -8 a 8,8 0 0 1 -8,-8 v -8 -42 z"/><text style="font-size:20px;font-family:Sans;text-anchor:end;fill:#000" id="text3196-73-7" x="36" y="559.124"><tspan id="tspan3198-6-6" x="130" y="608.124">ピッチ</tspan></text><text style="font-size:13.33333302px;font-family:Sans;text-anchor:end;fill:#000" id="text3200-1-4" x="36" y="561.124"><tspan id="tspan3202-2-3" x="130" y="583.624">名前</tspan></text><text style="font-size:13.33333302px;font-family:Sans;text-anchor:end;fill:#000" id="text3204-93-0" x="36" y="563.124"><tspan id="tspan3206-1-0-30" x="130" y="627.624">オクターヴ</tspan></text><path id="path21-9-9" d="m 151.00004,560.12408 h 120 v 40.00001 h -120 v -16.00001 -2 h -12 v 6 h -4 v -16 h 4 v 6 h 12 v -2 z" style="fill:#76c61c;fill-opacity:1;stroke:#538d38;stroke-width:2;stroke-linecap:round;stroke-opacity:1"/><text id="text23-4-2" x="180" y="559.124" style="font-size:20px;font-family:Sans;text-anchor:start;fill:#000"><tspan id="tspan25-78-5" x="200" y="585.124">シ</tspan></text><path style="fill:#ee97a8;fill-opacity:1;stroke:#a75862;stroke-width:2;stroke-linecap:round;stroke-opacity:1" id="path21-6-4-4" d="m 151.00004,602.12408 h 120 v 40 h -120 v -16 -2 h -12 v 6 h -4 v -16 h 4 v 6 h 12 v -2 z"/><text style="font-size:20px;font-family:Sans;text-anchor:start;fill:#000" id="text23-9-50-0" x="186" y="601.124"><tspan id="tspan25-8-3-59" x="206" y="627.124">4</tspan></text><path style="fill:#f2740b;fill-opacity:1;stroke:#a86129;stroke-width:2;stroke-linecap:round;stroke-opacity:1" id="path3035-6-4" d="m 19.00004,492.1241 v -8 c 0,-4.41828 3.58172,-8 8,-8 h 8 v 4 h 20 v -4 h 18 60 8 c 4.41828,0 9.07159,3.71364 8,8 v 8 h -8 v -6 h -8 v 20 h 8 v -6 h 8 v 8 c 0,4.41827 -3.58172,8 -8,8 h -8 -60 -2 v 4 h -16 v -4 h -2 -8 c -5.52285,0 -10,4.47715 -10,9.99999 v 8 92.00001 7.99999 c 0,5.52285 4.64205,11.3395 10,10 h 8 v 4 h 20 v -4 h 16 v 12 12 8 c 0,4.41828 -3.71364,9.0716 -8,8 h -8 -18 -2 v 4 h -16 v -4 h -2 -8 c -4.41828,0 -8,-3.58172 -8,-8 v -8 z"/><text style="font-size:20px;font-family:Sans;text-anchor:start;fill:#000" id="text3037-1-6" x="16" y="473.124"><tspan id="tspan3039-0-9" x="24" y="503.624">音価</tspan></text><path style="fill:#ee97a8;fill-opacity:1;stroke:#a75862;stroke-width:2;stroke-linecap:round;stroke-opacity:1" id="path21-6-1-20-2" d="m 265.00004,518.1241 h 120 v 40 h -120 v -16 -2 h -12 v 6 h -4 v -16 h 4 v 6 h 12 v -2 z"/><text style="font-size:20px;font-family:Sans;text-anchor:start;fill:#000" id="text23-9-82-6-4" x="300" y="517.124"><tspan id="tspan25-8-5-15-7" x="320" y="543.124">4</tspan></text><path style="fill:#ee97a8;fill-opacity:1;stroke:#a75862;stroke-width:2;stroke-linecap:round;stroke-opacity:1" id="path3798-4-4-5-4-5" d="m 151.00004,492.1241 v -8 a 8,8 0 0 1 8,-8 h 8 20 60 8 a 8,8 0 0 1 8,8 v 8 h -8 v -6 h -8 v 20 h 8 v -6 h 8 v 34 h -8 v -6 h -8 v 20 h 8 v -6 h 8 v 8 a 8,8 0 0 1 -8,8 h -8 -60 -20 -8 a 8,8 0 0 1 -8,-8 v -8 -42 -2 h -12 v 6 h -4 v -16 h 4 v 6 h 12 z"/><text style="font-size:28px;font-family:sans-serif;text-anchor:end;fill:#000" id="text3800-3-2-0-7-48" x="126" y="475.124"><tspan id="tspan3802-6-2-5-6-1" x="236" y="524.124">/</tspan></text><path style="fill:#ee97a8;fill-opacity:1;stroke:#a75862;stroke-width:2;stroke-linecap:round;stroke-opacity:1" id="path21-8-2-1-0-6-6-8" d="m 265.00004,476.1241 h 120 v 40 h -120 v -16 -2 h -12 v 6 h -4 v -16 h 4 v 6 h 12 v -2 z"/><text style="font-size:20px;font-family:Sans;text-anchor:start;fill:#000" id="text23-0-1-0-1-0-9-9" x="297" y="477.124"><tspan id="tspan25-7-0-5-2-5-3-36" x="317" y="503.124">1</tspan></text><path id="path3124-7-8" d="m 37.00004,534.1241 v -8 c 0,-4.41828 3.58172,-8 8,-8 h 8 v 4 h 20 v -4 h 60 8 c 4.41828,0 8,3.58172 8,8 v 8 8 8 c 0,4.41828 -3.71364,6.92841 -8,8 h -8 -60 -2 v 4 h -16 v -4 h -2 -8 c -4.41828,0 -8,-3.58172 -8,-8 v -8 0 z" style="fill:#be6152;fill-opacity:1;stroke:#923111;stroke-width:2;stroke-linecap:round;stroke-opacity:1"/><text style="font-style:normal;font-weight:400;font-size:16px;line-height:125%;font-family:sans-serif;text-align:center;letter-spacing:0;word-spacing:0;text-anchor:middle;fill:#000;fill-opacity:1;stroke:none;stroke-width:1px;stroke-linecap:butt;stroke-linejoin:miter;stroke-opacity:1" id="text6137-4-0" x="118.823" y="545.047" xml:space="preserve"><tspan id="tspan6139-5-2" x="118.823" y="545.047" style="font-size:22.5px">↓</tspan></text><path style="fill:#76c61c;fill-opacity:1;stroke:#538d38;stroke-width:2;stroke-linecap:round;stroke-opacity:1" id="path3194-36-0" d="m 37,366.12409 v -8 a 8,8 0 0 1 8,-8 h 8 v 4 h 20 v -4 h 60 8 a 8,8 0 0 1 8,8 v 8 h -8 v -6 h -8 v 20 h 8 v -6 h 8 v 34 h -8 v -5.99999 h -8 v 19.99999 h 8 v -6 h 8 v 8 a 8,8 0 0 1 -8,8 h -8 -60 -2 v 4 H 55 v -4 h -2 -8 a 8,8 0 0 1 -8,-8 v -8 -42 z"/><text style="font-size:20px;font-family:Sans;text-anchor:end;fill:#000" id="text3196-75-51" x="36" y="349.124"><tspan id="tspan3198-3-10" x="130" y="398.124">ピッチ</tspan></text><text style="font-size:13.33333302px;font-family:Sans;text-anchor:end;fill:#000" id="text3200-5-8" x="36" y="351.124"><tspan id="tspan3202-6-5" x="130" y="373.624">名前</tspan></text><text style="font-size:13.33333302px;font-family:Sans;text-anchor:end;fill:#000" id="text3204-2-06" x="36" y="353.124"><tspan id="tspan3206-9-4" x="130" y="417.624">オクターヴ</tspan></text><path id="path21-1-6" d="M 151,350.12409 H 271 V 390.1241 H 151 v -16.00001 -2 h -12 v 6 h -4 v -16 h 4 v 6 h 12 v -2 z" style="fill:#76c61c;fill-opacity:1;stroke:#538d38;stroke-width:2;stroke-linecap:round;stroke-opacity:1"/><text id="text23-2-2-2" x="180" y="349.124" style="font-size:20px;font-family:Sans;text-anchor:start;fill:#000"><tspan id="tspan25-70-5" x="200" y="375.124">ラ</tspan></text><path style="fill:#ee97a8;fill-opacity:1;stroke:#a75862;stroke-width:2;stroke-linecap:round;stroke-opacity:1" id="path21-6-9-8" d="m 151,392.12409 h 120 v 40 H 151 v -16 -2 h -12 v 6 h -4 v -16 h 4 v 6 h 12 v -2 z"/><text style="font-size:20px;font-family:Sans;text-anchor:start;fill:#000" id="text23-9-3-2-6" x="186" y="391.124"><tspan id="tspan25-8-6-2" x="206" y="417.124">4</tspan></text><path style="fill:#f2740b;fill-opacity:1;stroke:#a86129;stroke-width:2;stroke-linecap:round;stroke-opacity:1" id="path3035-0-8" d="m 19,282.12411 v -8 c 0,-4.41828 3.58172,-8 8,-8 h 8 v 4 h 20 v -4 h 18 60 8 c 4.41828,0 9.07159,3.71364 8,8 v 8 h -8 v -6 h -8 v 20 h 8 v -6 h 8 v 8 c 0,4.41828 -3.58172,8 -8,8 h -8 -60 -2 v 4 H 55 v -4 h -2 -8 c -5.52285,0 -10,4.47715 -10,9.99999 v 8 92.00001 7.99999 c 0,5.52285 4.64205,11.3395 10,10 h 8 v 4 h 20 v -4 h 16 v 12 12 8 c 0,4.41828 -3.71365,9.0716 -8,8 H 73 55 53 v 4 H 37 v -4 h -2 -8 c -4.41828,0 -8,-3.58172 -8,-8 v -8 z"/><text style="font-size:20px;font-family:Sans;text-anchor:start;fill:#000" id="text3037-6-4" x="16" y="263.124"><tspan id="tspan3039-2-72" x="24" y="293.624">音価</tspan></text><path style="fill:#ee97a8;fill-opacity:1;stroke:#a75862;stroke-width:2;stroke-linecap:round;stroke-opacity:1" id="path21-6-1-1-6-0" d="m 265,308.12411 h 120 v 40 H 265 v -16 -2 h -12 v 6 h -4 v -16 h 4 v 6 h 12 v -2 z"/><text style="font-size:20px;font-family:Sans;text-anchor:start;fill:#000" id="text23-9-82-8-6" x="300" y="307.124"><tspan id="tspan25-8-5-7-2" x="320" y="333.124">4</tspan></text><path style="fill:#ee97a8;fill-opacity:1;stroke:#a75862;stroke-width:2;stroke-linecap:round;stroke-opacity:1" id="path3798-4-4-5-2-0" d="m 151,282.12411 v -8 a 8,8 0 0 1 8,-8 h 8 20 60 8 a 8,8 0 0 1 8,8 v 8 h -8 v -6 h -8 v 20 h 8 v -6 h 8 v 34 h -8 v -6 h -8 v 20 h 8 v -6 h 8 v 8 a 8,8 0 0 1 -8,8 h -8 -60 -20 -8 a 8,8 0 0 1 -8,-8 v -8 -42 -2 h -12 v 6 h -4 v -16 h 4 v 6 h 12 z"/><text style="font-size:28px;font-family:sans-serif;text-anchor:end;fill:#000" id="text3800-3-2-0-0-8" x="126" y="265.124"><tspan id="tspan3802-6-2-5-2-1" x="236" y="314.124">/</tspan></text><path style="fill:#ee97a8;fill-opacity:1;stroke:#a75862;stroke-width:2;stroke-linecap:round;stroke-opacity:1" id="path21-8-2-1-0-6-7-1" d="m 265,266.12411 h 120 v 40 H 265 v -16 -2 h -12 v 6 h -4 v -16 h 4 v 6 h 12 v -2 z"/><text style="font-size:20px;font-family:Sans;text-anchor:start;fill:#000" id="text23-0-1-0-1-0-5-10" x="297" y="267.124"><tspan id="tspan25-7-0-5-2-5-9-3" x="317" y="293.124">1</tspan></text><path id="path3124-2-4" d="m 37,324.12411 v -8 c 0,-4.41828 3.58172,-8 8,-8 h 8 v 4 h 20 v -4 h 60 8 c 4.41828,0 8,3.58172 8,8 v 8 8 8 c 0,4.41828 -3.71364,6.92841 -8,8 h -8 -60 -2 v 4 H 55 v -4 h -2 -8 c -4.41828,0 -8,-3.58172 -8,-8 v -8 0 z" style="fill:#be6152;fill-opacity:1;stroke:#923111;stroke-width:2;stroke-linecap:round;stroke-opacity:1"/><text style="font-style:normal;font-weight:400;font-size:16px;line-height:125%;font-family:sans-serif;text-align:center;letter-spacing:0;word-spacing:0;text-anchor:middle;fill:#000;fill-opacity:1;stroke:none;stroke-width:1px;stroke-linecap:butt;stroke-linejoin:miter;stroke-opacity:1" id="text6137-2-0" x="118.823" y="335.047" xml:space="preserve"><tspan id="tspan6139-8-3" x="118.823" y="335.047" style="font-size:22.5px">↓</tspan></text><path style="fill:#76c61c;fill-opacity:1;stroke:#538d38;stroke-width:2;stroke-linecap:round;stroke-opacity:1" id="path3194-9-1-9" d="m 37.00004,156.12408 v -8 a 8,8 0 0 1 8,-8 h 8 v 4 h 20 v -4 h 60 8 a 8,8 0 0 1 8,8 v 8 h -8 v -6 h -8 v 20 h 8 v -6 h 8 v 34 h -8 v -5.99999 h -8 v 19.99999 h 8 v -6 h 8 v 8 a 8,8 0 0 1 -8,8 h -8 -60 -2 v 4 h -16 v -4 h -2 -8 a 8,8 0 0 1 -8,-8 v -8 -42 z"/><text style="font-size:20px;font-family:Sans;text-anchor:end;fill:#000" id="text3196-73-6" x="36" y="139.124"><tspan id="tspan3198-6-9" x="130" y="188.124">ピッチ</tspan></text><text style="font-size:13.33333302px;font-family:Sans;text-anchor:end;fill:#000" id="text3200-1-3" x="36" y="141.124"><tspan id="tspan3202-2-38" x="130" y="163.624">名前</tspan></text><text style="font-size:13.33333302px;font-family:Sans;text-anchor:end;fill:#000" id="text3204-93-05" x="36" y="143.124"><tspan id="tspan3206-1-0-6" x="130" y="207.624">オクターヴ</tspan></text><path id="path21-9-6" d="m 151.00004,140.12408 h 120 v 40.00001 h -120 v -16.00001 -2 h -12 v 6 h -4 v -16 h 4 v 6 h 12 v -2 z" style="fill:#76c61c;fill-opacity:1;stroke:#538d38;stroke-width:2;stroke-linecap:round;stroke-opacity:1"/><text id="text23-4-4" x="180" y="139.124" style="font-size:20px;font-family:Sans;text-anchor:start;fill:#000"><tspan id="tspan25-78-0" x="200" y="165.124">ソ</tspan></text><path style="fill:#ee97a8;fill-opacity:1;stroke:#a75862;stroke-width:2;stroke-linecap:round;stroke-opacity:1" id="path21-6-4-0" d="m 151.00004,182.12408 h 120 v 40 h -120 v -16 -2 h -12 v 6 h -4 v -16 h 4 v 6 h 12 v -2 z"/><text style="font-size:20px;font-family:Sans;text-anchor:start;fill:#000" id="text23-9-50-4" x="186" y="181.124"><tspan id="tspan25-8-3-6" x="206" y="207.124">4</tspan></text><path style="fill:#f2740b;fill-opacity:1;stroke:#a86129;stroke-width:2;stroke-linecap:round;stroke-opacity:1" id="path3035-6-2" d="M 19.00004,72.124097 V 64.1241 c 0,-4.41828 3.58172,-8 8,-8 h 8 v 4 h 20 v -4 h 18 60 8 c 4.41828,0 9.07159,3.71364 8,8 v 7.999997 h -8 V 66.1241 h -8 v 19.999997 h 8 v -6 h 8 v 8 c 0,4.418278 -3.58172,8 -8,8 h -8 -60 -2 v 4.000003 h -16 v -4.000003 h -2 -8 c -5.52285,0 -10,4.477153 -10,9.999993 v 8 92.00001 7.99999 c 0,5.52285 4.64205,11.3395 10,10 h 8 v 4 h 20 v -4 h 16 v 12 12 8 c 0,4.41828 -3.71364,9.0716 -8,8 h -8 -18 -2 v 4 h -16 v -4 h -2 -8 c -4.41828,0 -8,-3.58172 -8,-8 v -8 z"/><text style="font-size:20px;font-family:Sans;text-anchor:start;fill:#000" id="text3037-1-67" x="16" y="53.124"><tspan id="tspan3039-0-5" x="24" y="83.624">音価</tspan></text><path style="fill:#ee97a8;fill-opacity:1;stroke:#a75862;stroke-width:2;stroke-linecap:round;stroke-opacity:1" id="path21-6-1-20-9" d="m 265.00004,98.1241 h 120 v 40 h -120 v -16 -2 h -12 v 6 h -4 v -16 h 4 v 6 h 12 v -2 z"/><text style="font-size:20px;font-family:Sans;text-anchor:start;fill:#000" id="text23-9-82-6-8" x="300" y="97.124"><tspan id="tspan25-8-5-15-72" x="320" y="123.124">4</tspan></text><path style="fill:#ee97a8;fill-opacity:1;stroke:#a75862;stroke-width:2;stroke-linecap:round;stroke-opacity:1" id="path3798-4-4-5-4-2" d="m 151.00004,72.1241 v -8 a 8,8 0 0 1 8,-8 h 8 20 60 8 a 8,8 0 0 1 8,8 v 8 h -8 v -6 h -8 v 20 h 8 v -6 h 8 v 34 h -8 v -6 h -8 v 20 h 8 v -6 h 8 v 8 a 8,8 0 0 1 -8,8 h -8 -60 -20 -8 a 8,8 0 0 1 -8,-8 v -8 -42 -2 h -12 v 6 h -4 v -16 h 4 v 6 h 12 z"/><text style="font-size:28px;font-family:sans-serif;text-anchor:end;fill:#000" id="text3800-3-2-0-7-9" x="126" y="55.124"><tspan id="tspan3802-6-2-5-6-9" x="236" y="104.124">/</tspan></text><path style="fill:#ee97a8;fill-opacity:1;stroke:#a75862;stroke-width:2;stroke-linecap:round;stroke-opacity:1" id="path21-8-2-1-0-6-6-0" d="m 265.00004,56.1241 h 120 v 40 h -120 v -16 -2 h -12 v 6 h -4 v -16 h 4 v 6 h 12 v -2 z"/><text style="font-size:20px;font-family:Sans;text-anchor:start;fill:#000" id="text23-0-1-0-1-0-9-2" x="297" y="57.124"><tspan id="tspan25-7-0-5-2-5-3-7" x="317" y="83.124">1</tspan></text><path id="path3124-7-6" d="m 37.00004,114.1241 v -8 c 0,-4.41828 3.58172,-8.000003 8,-8.000003 h 8 v 4.000003 h 20 v -4.000003 h 60 8 c 4.41828,0 8,3.581723 8,8.000003 v 8 8 8 c 0,4.41828 -3.71364,6.92841 -8,8 h -8 -60 -2 v 4 h -16 v -4 h -2 -8 c -4.41828,0 -8,-3.58172 -8,-8 v -8 0 z" style="fill:#be6152;fill-opacity:1;stroke:#923111;stroke-width:2;stroke-linecap:round;stroke-opacity:1"/><text style="font-style:normal;font-weight:400;font-size:16px;line-height:125%;font-family:sans-serif;text-align:center;letter-spacing:0;word-spacing:0;text-anchor:middle;fill:#000;fill-opacity:1;stroke:none;stroke-width:1px;stroke-linecap:butt;stroke-linejoin:miter;stroke-opacity:1" id="text6137-4-1" x="118.823" y="125.047" xml:space="preserve"><tspan id="tspan6139-5-3" x="118.823" y="125.047" style="font-size:22.5px">↓</tspan></text></svg>