<svg xmlns="http://www.w3.org/2000/svg" xmlns:svg="http://www.w3.org/2000/svg" id="svg4802" width="450.901" height="522.843" version="1.1"><metadata id="metadata4808"/><g id="g4584" transform="translate(-3.3333326e-7,0.42153745)"><g id="g4582" transform="scale(1.5)"><path id="path4576" d="m 0.5,14.5 v -4 a 4,4 90 0 1 4,-4 h 4 l 5,-6 5,6 h 9 30 4 a 4,4 90 0 1 4,4 v 4 4 4 a 4,4 90 0 1 -4,4 h -4 -30 -1 v 2 h -8 v -2 h -1 -4 a 5,5 90 0 0 -5,5 v 4 4 273 4 a 5,5 90 0 0 5,5 h 4 v 2 h 10 v -2 h 8 v 6 6 4 a 4,4 90 0 1 -4,4 h -4 -9 l -5,6 -5,-6 h -4 a 4,4 90 0 1 -4,-4 v -4 z" style="fill:#ffe05c;fill-opacity:1;stroke:#644300;stroke-width:1;stroke-linecap:round;stroke-opacity:1"/><text id="text4580" style="font-size:10px;font-family:sans-serif;text-anchor:start;fill:#000"><tspan id="tspan4578" x="5.333" y="21.5">スタート</tspan></text></g></g><g id="g4598" transform="translate(13.499997,40.921537)"><g id="g4596" transform="scale(1.5)"><path id="path4586" d="m 0.5,8.5 v -4 a 4,4 90 0 1 4,-4 h 4 v 2 h 10 v -2 h 9 80.60059 4 a 4,4 90 0 1 4,4 v 4 h -4 v -3 h -4 v 10 h 4 v -3 h 4 v 4 a 4,4 90 0 1 -4,4 h -4 H 27.5 h -1 v 2 h -8 v -2 h -1 -4 a 5,5 90 0 0 -5,5 v 4 4 231 4 a 5,5 90 0 0 5,5 h 4 v 2 h 10 v -2 h 8 v 6 6 4 a 4,4 90 0 1 -4,4 h -4 -9 -1 v 2 h -8 v -2 h -1 -4 a 4,4 90 0 1 -4,-4 v -4 z" style="fill:#93e042;fill-opacity:1;stroke:#004000;stroke-width:1;stroke-linecap:round;stroke-opacity:1"/><text id="text4590" style="font-size:10px;font-family:sans-serif;text-anchor:start;fill:#000"><tspan id="tspan4588" x="5.333" y="15.25">半音で移調</tspan></text></g></g><g id="g4616" transform="translate(176.40088,40.921537)"><g id="g4614" transform="scale(1.5)"><path id="path4600" d="m 8.5,8.5 v -4 a 4,4 90 0 1 4,-4 h 4 10 30 4 a 4,4 90 0 1 4,4 v 4 h -4 v -3 h -4 v 10 h 4 v -3 h 4 v 17 h -4 v -3 h -4 v 10 h 4 v -3 h 4 v 4 a 4,4 90 0 1 -4,4 h -4 -30 -10 -4 a 4,4 90 0 1 -4,-4 v -4 -21 -1 h -6 v 3 h -2 v -8 h 2 v 3 h 6 z" style="fill:#ffb2bc;fill-opacity:1;stroke:#601136;stroke-width:1;stroke-linecap:round;stroke-opacity:1"/><text id="text4604" style="font-size:14px;font-family:sans-serif;text-anchor:end;fill:#000"><tspan id="tspan4602" x="54.333" y="23.8">+</tspan></text></g></g><g id="g4626" transform="translate(261.90088,40.921537)"><g id="g4624" transform="scale(1.5)"><path id="path4618" d="m 8.5,0.5 h 60 v 20 h -60 v -8 -1 h -6 v 3 h -2 v -8 h 2 v 3 h 6 v -1 z" style="fill:#ffb2bc;fill-opacity:1;stroke:#601136;stroke-width:1;stroke-linecap:round;stroke-opacity:1"/><text id="text4622" style="font-size:10px;font-family:sans-serif;text-anchor:start;fill:#000"><tspan id="tspan4620" x="13.333" y="13.833">0</tspan></text></g></g><g id="g4644" transform="translate(261.90088,72.421537)"><g id="g4642" transform="scale(1.5)"><path id="path4628" d="m 8.5,8.5 v -4 a 4,4 90 0 1 4,-4 h 4 10 30 4 a 4,4 90 0 1 4,4 v 4 h -4 v -3 h -4 v 10 h 4 v -3 h 4 v 17 h -4 v -3 h -4 v 10 h 4 v -3 h 4 v 4 a 4,4 90 0 1 -4,4 h -4 -30 -10 -4 a 4,4 90 0 1 -4,-4 v -4 -21 -1 h -6 v 3 h -2 v -8 h 2 v 3 h 6 z" style="fill:#ffb2bc;fill-opacity:1;stroke:#601136;stroke-width:1;stroke-linecap:round;stroke-opacity:1"/><text id="text4632" style="font-size:14px;font-family:sans-serif;text-anchor:end;fill:#000"><tspan id="tspan4630" x="54.333" y="23.8">×</tspan></text></g></g><g id="g4654" transform="translate(347.40088,72.421537)"><g id="g4652" transform="scale(1.5)"><path id="path4646" d="m 8.5,0.5 h 60 v 20 h -60 v -8 -1 h -6 v 3 h -2 v -8 h 2 v 3 h 6 v -1 z" style="fill:#ffb2bc;fill-opacity:1;stroke:#601136;stroke-width:1;stroke-linecap:round;stroke-opacity:1"/><text id="text4650" style="font-size:10px;font-family:sans-serif;text-anchor:start;fill:#000"><tspan id="tspan4648" x="13.333" y="13.833">1</tspan></text></g></g><g id="g4664" transform="translate(347.40088,103.92154)"><g id="g4662" transform="scale(1.5)"><path id="path4656" d="m 8.5,0.5 h 60 v 20 h -60 v -8 -1 h -6 v 3 h -2 v -8 h 2 v 3 h 6 v -1 z" style="fill:#ffb2bc;fill-opacity:1;stroke:#601136;stroke-width:1;stroke-linecap:round;stroke-opacity:1"/><text id="text4660" style="font-size:10px;font-family:sans-serif;text-anchor:start;fill:#000"><tspan id="tspan4658" x="13.333" y="13.833">12</tspan></text></g></g><g id="g4678" transform="translate(26.999997,72.421537)"><g id="g4676" transform="scale(1.5)"><path id="path4666" d="m 0.5,8.5 v -4 a 4,4 90 0 1 4,-4 h 4 v 2 h 10 v -2 h 9 20 4 a 4,4 90 0 1 4,4 v 4 h -4 v -3 h -4 v 10 h 4 v -3 h 4 v 4 a 4,4 90 0 1 -4,4 h -4 -20 -1 v 2 h -8 v -2 h -1 -4 a 5,5 90 0 0 -5,5 v 4 4 4 a 5,5 90 0 0 5,5 h 4 v 2 h 10 v -2 h 8 v 6 6 4 a 4,4 90 0 1 -4,4 h -4 -9 -1 v 2 h -8 v -2 h -1 -4 a 4,4 90 0 1 -4,-4 v -4 z" style="fill:#e9a066;fill-opacity:1;stroke:#3f0a00;stroke-width:1;stroke-linecap:round;stroke-opacity:1"/><text id="text4670" style="font-size:10px;font-family:sans-serif;text-anchor:start;fill:#000"><tspan id="tspan4668" x="5.333" y="15.25">回繰り返す</tspan></text></g></g><g id="g4688" transform="translate(98.999997,72.421537)"><g id="g4686" transform="scale(1.5)"><path id="path4680" d="m 8.5,0.5 h 60 v 20 h -60 v -8 -1 h -6 v 3 h -2 v -8 h 2 v 3 h 6 v -1 z" style="fill:#ffb2bc;fill-opacity:1;stroke:#601136;stroke-width:1;stroke-linecap:round;stroke-opacity:1"/><text id="text4684" style="font-size:10px;font-family:sans-serif;text-anchor:start;fill:#000"><tspan id="tspan4682" x="13.333" y="13.833">2</tspan></text></g></g><g id="g4702" transform="translate(26.999997,166.92154)"><g id="g4700" transform="scale(1.5)"><path id="path4690" d="m 0.5,8.5 v -4 a 4,4 90 0 1 4,-4 h 4 v 2 h 10 v -2 h 9 20 4 a 4,4 90 0 1 4,4 v 4 h -4 v -3 h -4 v 10 h 4 v -3 h 4 v 4 a 4,4 90 0 1 -4,4 h -4 -20 -1 v 2 h -8 v -2 h -1 -4 a 5,5 90 0 0 -5,5 v 4 4 4 a 5,5 90 0 0 5,5 h 4 v 2 h 10 v -2 h 8 v 6 6 4 a 4,4 90 0 1 -4,4 h -4 -9 -1 v 2 h -8 v -2 h -1 -4 a 4,4 90 0 1 -4,-4 v -4 z" style="fill:#e9a066;fill-opacity:1;stroke:#3f0a00;stroke-width:1;stroke-linecap:round;stroke-opacity:1"/><text id="text4694" style="font-size:10px;font-family:sans-serif;text-anchor:start;fill:#000"><tspan id="tspan4692" x="5.333" y="15.25">回繰り返す</tspan></text></g></g><g id="g4712" transform="translate(98.999997,166.92154)"><g id="g4710" transform="scale(1.5)"><path id="path4704" d="m 8.5,0.5 h 60 v 20 h -60 v -8 -1 h -6 v 3 h -2 v -8 h 2 v 3 h 6 v -1 z" style="fill:#ffb2bc;fill-opacity:1;stroke:#601136;stroke-width:1;stroke-linecap:round;stroke-opacity:1"/><text id="text4708" style="font-size:10px;font-family:sans-serif;text-anchor:start;fill:#000"><tspan id="tspan4706" x="13.333" y="13.833">2</tspan></text></g></g><g id="g4726" transform="translate(26.999997,261.42154)"><g id="g4724" transform="scale(1.5)"><path id="path4714" d="m 0.5,8.5 v -4 a 4,4 90 0 1 4,-4 h 4 v 2 h 10 v -2 h 9 20 4 a 4,4 90 0 1 4,4 v 4 h -4 v -3 h -4 v 10 h 4 v -3 h 4 v 4 a 4,4 90 0 1 -4,4 h -4 -20 -1 v 2 h -8 v -2 h -1 -4 a 5,5 90 0 0 -5,5 v 4 4 4 a 5,5 90 0 0 5,5 h 4 v 2 h 10 v -2 h 8 v 6 6 4 a 4,4 90 0 1 -4,4 h -4 -9 -1 v 2 h -8 v -2 h -1 -4 a 4,4 90 0 1 -4,-4 v -4 z" style="fill:#e9a066;fill-opacity:1;stroke:#3f0a00;stroke-width:1;stroke-linecap:round;stroke-opacity:1"/><text id="text4718" style="font-size:10px;font-family:sans-serif;text-anchor:start;fill:#000"><tspan id="tspan4716" x="5.333" y="15.25">回繰り返す</tspan></text></g></g><g id="g4736" transform="translate(98.999997,261.42154)"><g id="g4734" transform="scale(1.5)"><path id="path4728" d="m 8.5,0.5 h 60 v 20 h -60 v -8 -1 h -6 v 3 h -2 v -8 h 2 v 3 h 6 v -1 z" style="fill:#ffb2bc;fill-opacity:1;stroke:#601136;stroke-width:1;stroke-linecap:round;stroke-opacity:1"/><text id="text4732" style="font-size:10px;font-family:sans-serif;text-anchor:start;fill:#000"><tspan id="tspan4730" x="13.333" y="13.833">2</tspan></text></g></g><g id="g4750" transform="translate(26.999997,355.92154)"><g id="g4748" transform="scale(1.5)"><path id="path4738" d="m 0.5,8.5 v -4 a 4,4 90 0 1 4,-4 h 4 v 2 h 10 v -2 h 9 20 4 a 4,4 90 0 1 4,4 v 4 h -4 v -3 h -4 v 10 h 4 v -3 h 4 v 4 a 4,4 90 0 1 -4,4 h -4 -20 -1 v 2 h -8 v -2 h -1 -4 a 5,5 90 0 0 -5,5 v 4 4 4 a 5,5 90 0 0 5,5 h 4 v 2 h 10 v -2 h 8 v 6 6 4 a 4,4 90 0 1 -4,4 h -4 -9 -1 v 2 h -8 v -2 h -1 -4 a 4,4 90 0 1 -4,-4 v -4 z" style="fill:#e9a066;fill-opacity:1;stroke:#3f0a00;stroke-width:1;stroke-linecap:round;stroke-opacity:1"/><text id="text4742" style="font-size:10px;font-family:sans-serif;text-anchor:start;fill:#000"><tspan id="tspan4740" x="5.333" y="15.25">回繰り返す</tspan></text></g></g><g id="g4760" transform="translate(98.999997,355.92154)"><g id="g4758" transform="scale(1.5)"><path id="path4752" d="m 8.5,0.5 h 60 v 20 h -60 v -8 -1 h -6 v 3 h -2 v -8 h 2 v 3 h 6 v -1 z" style="fill:#ffb2bc;fill-opacity:1;stroke:#601136;stroke-width:1;stroke-linecap:round;stroke-opacity:1"/><text id="text4756" style="font-size:10px;font-family:sans-serif;text-anchor:start;fill:#000"><tspan id="tspan4754" x="13.333" y="13.833">2</tspan></text></g></g><g id="g4770" transform="translate(40.499997,103.92154)"><g id="g4768" transform="scale(1.5)"><path id="path4762" d="m 0.5,8.5 v -4 a 4,4 90 0 1 4,-4 h 4 v 2 h 10 v -2 h 40 4 a 4,4 90 0 1 4,4 v 4 4 4 a 4,4 90 0 1 -4,4 h -4 -40 -1 v 2 h -8 v -2 h -1 -4 a 4,4 90 0 1 -4,-4 v -4 z" style="fill:#ffe05c;fill-opacity:1;stroke:#644300;stroke-width:1;stroke-linecap:round;stroke-opacity:1"/><text id="text4766" style="font-size:10px;font-family:sans-serif;text-anchor:end;fill:#000"><tspan id="tspan4764" x="56.333" y="13.5">chunk</tspan></text></g></g><g id="g4780" transform="translate(40.499997,198.42154)"><g id="g4778" transform="scale(1.5)"><path id="path4772" d="m 0.5,8.5 v -4 a 4,4 90 0 1 4,-4 h 4 v 2 h 10 v -2 h 40 4 a 4,4 90 0 1 4,4 v 4 4 4 a 4,4 90 0 1 -4,4 h -4 -40 -1 v 2 h -8 v -2 h -1 -4 a 4,4 90 0 1 -4,-4 v -4 z" style="fill:#ffe05c;fill-opacity:1;stroke:#644300;stroke-width:1;stroke-linecap:round;stroke-opacity:1"/><text id="text4776" style="font-size:10px;font-family:sans-serif;text-anchor:end;fill:#000"><tspan id="tspan4774" x="56.333" y="13.5">chunk1</tspan></text></g></g><g id="g4790" transform="translate(40.499997,292.92154)"><g id="g4788" transform="scale(1.5)"><path id="path4782" d="m 0.5,8.5 v -4 a 4,4 90 0 1 4,-4 h 4 v 2 h 10 v -2 h 40 4 a 4,4 90 0 1 4,4 v 4 4 4 a 4,4 90 0 1 -4,4 h -4 -40 -1 v 2 h -8 v -2 h -1 -4 a 4,4 90 0 1 -4,-4 v -4 z" style="fill:#ffe05c;fill-opacity:1;stroke:#644300;stroke-width:1;stroke-linecap:round;stroke-opacity:1"/><text id="text4786" style="font-size:10px;font-family:sans-serif;text-anchor:end;fill:#000"><tspan id="tspan4784" x="56.333" y="13.5">chunk2</tspan></text></g></g><g id="g4800" transform="translate(40.499997,387.42154)"><g id="g4798" transform="scale(1.5)"><path id="path4792" d="m 0.5,8.5 v -4 a 4,4 90 0 1 4,-4 h 4 v 2 h 10 v -2 h 40 4 a 4,4 90 0 1 4,4 v 4 4 4 a 4,4 90 0 1 -4,4 h -4 -40 -1 v 2 h -8 v -2 h -1 -4 a 4,4 90 0 1 -4,-4 v -4 z" style="fill:#ffe05c;fill-opacity:1;stroke:#644300;stroke-width:1;stroke-linecap:round;stroke-opacity:1"/><text id="text4796" style="font-size:10px;font-family:sans-serif;text-anchor:end;fill:#000"><tspan id="tspan4794" x="56.333" y="13.5">chunk3</tspan></text></g></g></svg>