<svg xmlns="http://www.w3.org/2000/svg" xmlns:svg="http://www.w3.org/2000/svg" id="svg5587" width="859.733" height="640" version="1.1" viewBox="0 0 806 600"><metadata id="metadata5592"/><path id="path3035" d="m 421,109.00001 0,-8 c 0,-4.188795 3.81121,-8.000005 8,-8.000005 l 8,0 0,4 20,0 0,-4 18,0 40,0 8,0 c 4.18879,0 8,3.81121 8,8.000005 l 0,8 0,8 0,8 C 531,129.18879 527.18879,133 523,133 l -8,0 -40,0 -2,0 0,4 -16,0 0,-4 -2,0 -8,0 c -2.61799,0 -5.21987,1.07774 -7.07107,2.92894 -1.8512,1.8512 -2.92893,4.45307 -2.92893,7.07107 l 0,8 0,386 0,8 c 0,2.61799 1.07773,5.21987 2.92893,7.07107 1.8512,1.8512 4.53124,3.56389 7.07107,2.92893 l 8,0 0,4 20,0 0,-4 16,0 0,12 0,12 0,8 c 0,4.18879 -3.93628,9.01593 -8,8 l -8,0 -18,0 -2,0 0,4 -16,0 0,-4 -2,0 -8,0 c -4.18879,0 -8,-3.81121 -8,-8 l 0,-8 z" style="fill:#f2740b;fill-opacity:1;stroke:#a86129;stroke-width:2;stroke-linecap:round;stroke-opacity:1"/><text id="text3037" x="420.896" y="91.717" style="font-size:20px;font-family:Sans;text-anchor:start;fill:#000"><tspan id="tspan3039" x="428.896" y="122.217">タイ</tspan></text><path style="fill:#76c61c;fill-opacity:1;stroke:#538d38;stroke-width:2;stroke-linecap:round;stroke-opacity:1" id="path3194-2" d="m 457,234.99999 0,-8.00002 a 8.0000007,8.0000006 0 0 1 8,-8 l 8,0 0,4 20,0 0,-4 60,0 8.00001,0 a 8.0000007,8.0000006 0 0 1 8,8 l 0,8.00002 -8,0 0,-6.00002 -8.00001,0 0,20.00002 8.00001,0 0,-6 8,0 0,34 -8,0 0,-5.99999 -8.00001,0 0,19.99999 8.00001,0 0,-6 8,0 0,8 a 8.0000007,8.0000006 0 0 1 -8,8 l -8.00001,0 -60,0 -2,0 0,4 -16,0 0,-4 -2,0 -8,0 a 8.0000007,8.0000006 0 0 1 -8,-8 l 0,-8 0,-42 0,-8 z"/><text style="font-size:20px;font-family:Sans;text-anchor:end;fill:#000" id="text3196-91" x="456" y="218"><tspan id="tspan3198-2" x="550" y="267">ピッチ</tspan></text><text style="font-size:13.33333302px;font-family:Sans;text-anchor:end;fill:#000" id="text3200-7" x="456" y="220"><tspan id="tspan3202-0" x="550" y="242.5">名前</tspan></text><text style="font-size:13.33333302px;font-family:Sans;text-anchor:end;fill:#000" id="text3204-93" x="456" y="222"><tspan id="tspan3206-6" x="550" y="286.5">オクターヴ</tspan></text><path id="path21-0" d="m 571.00001,218.99997 120.00001,0 0,40.00003 -120.00001,0 0,-16.00001 0,-2 -12,0 0,6 -4.00001,0 0,-16.00002 4.00001,0 0,6.00002 12,0 0,-2 z" style="fill:#76c61c;fill-opacity:1;stroke:#538d38;stroke-width:2;stroke-linecap:round;stroke-opacity:1"/><text id="text23-6" x="600" y="218" style="font-size:20px;font-family:Sans;text-anchor:start;fill:#000"><tspan id="tspan25-2" x="620" y="244">レ</tspan></text><path style="fill:#ee97a8;fill-opacity:1;stroke:#a75862;stroke-width:2;stroke-linecap:round;stroke-opacity:1" id="path21-6-6" d="m 571.00001,260.99999 120.00001,0 0,40 -120.00001,0 0,-16 0,-2 -12,0 0,6 -4.00001,0 0,-16 4.00001,0 0,6 12,0 0,-2 z"/><text style="font-size:20px;font-family:Sans;text-anchor:start;fill:#000" id="text23-9-1" x="606" y="260"><tspan id="tspan25-8-8" x="626" y="286">5</tspan></text><path style="fill:#f2740b;fill-opacity:1;stroke:#a86129;stroke-width:2;stroke-linecap:round;stroke-opacity:1" id="path3035-5" d="m 439,151 0,-8.00002 c 0,-4.41828 3.58172,-8 8,-8 l 8,0 0,4 20,0 0,-4 18,0 60,0 8.00001,0 c 4.41828,0 9.07159,3.71364 8,8 l 0,8.00002 -8,0 0,-6 -8.00001,0 0,20 8.00001,0 0,-6 8,0 0,8 c 0,4.41827 -3.58172,8 -8,8 L 553,175 l -60,0 -2,0 0,4 -16,0 0,-4 -2,0 -8,0 c -5.52285,0 -10,4.47714 -10,10 l 0,7.99999 0,92.00002 0,7.99999 c 0,5.52285 4.64205,11.3395 10,10 l 8,0 0,4 20,0 0,-4 16,0 0,12 0,12 0,8 c 0,4.41828 -3.71364,9.07161 -8,8.00001 l -8,0 -18,0 -2,0 0,4 -16,0 0,-4 -2,0 -8,0 c -4.41828,0 -8,-3.58173 -8,-8.00001 l 0,-8 z"/><text style="font-size:20px;font-family:Sans;text-anchor:start;fill:#000" id="text3037-3" x="436" y="132"><tspan id="tspan3039-5" x="444" y="162.5">音価</tspan></text><path style="fill:#ee97a8;fill-opacity:1;stroke:#a75862;stroke-width:2;stroke-linecap:round;stroke-opacity:1" id="path21-6-1-7" d="m 685.00002,177 120.00001,0 0,39.99999 -120.00001,0 0,-16 0,-2 -12,0 0,6 -4.00001,0 0,-15.99999 4.00001,0 0,5.99999 12,0 0,-2 z"/><text style="font-size:20px;font-family:Sans;text-anchor:start;fill:#000" id="text23-9-82-9" x="716" y="176"><tspan id="tspan25-8-5-2" x="736" y="202">8</tspan></text><path style="fill:#ee97a8;fill-opacity:1;stroke:#a75862;stroke-width:2;stroke-linecap:round;stroke-opacity:1" id="path3798-4-4-5" d="m 571.00001,151 0,-8.00002 a 8.0000007,8.0000006 0 0 1 8,-8 l 8,0 20,0 60,0 8.00001,0 a 8.0000007,8.0000006 0 0 1 8,8 l 0,8.00002 -8,0 0,-6 -8.00001,0 0,20 8.00001,0 0,-6 8,0 0,33.99999 -8,0 0,-5.99999 -8.00001,0 0,19.99999 8.00001,0 0,-6 8,0 0,8 a 8.0000007,8.0000006 0 0 1 -8,8 l -8.00001,0 -60,0 -20,0 -8,0 a 8.0000007,8.0000006 0 0 1 -8,-8 l 0,-8 0,-41.99999 0,-2 -12,0 0,6 -4.00001,0 0,-16 4.00001,0 0,6 12,0 0,-2 z"/><text style="font-size:28px;font-family:sans-serif;text-anchor:end;fill:#000" id="text3800-3-2-0" x="546" y="134"><tspan id="tspan3802-6-2-5" x="656" y="183">/</tspan></text><path style="fill:#ee97a8;fill-opacity:1;stroke:#a75862;stroke-width:2;stroke-linecap:round;stroke-opacity:1" id="path21-8-2-1-0-6" d="m 685,134.99998 h 120 v 40 H 685 v -16 -2 h -12 v 6 h -4 v -16 h 4 v 6 h 12 v -2 z"/><text style="font-size:20px;font-family:Sans;text-anchor:start;fill:#000" id="text23-0-1-0-1-0" x="717" y="136"><tspan id="tspan25-7-0-5-2-5" x="737" y="162">1</tspan></text><path id="path3124" d="M 457,192.99999 457,185 c 0,-4.41828 3.58172,-8 8,-8 l 8,0 0,4 20,0 0,-4 60,0 8.00001,0 c 4.41828,0 8,3.58172 8,8 l 0,7.99999 0,8 0,8 c 0,4.41828 -3.71364,6.92841 -8,8 l -8.00001,0 -60,0 -2,0 0,4 -16,0 0,-4 -2,0 -8,0 c -4.41828,0 -8,-3.58172 -8,-8 l 0,-8 0,0 z" style="fill:#be6152;fill-opacity:1;stroke:#923111;stroke-width:2;stroke-linecap:round;stroke-opacity:1"/><text style="font-style:normal;font-weight:400;font-size:16px;line-height:125%;font-family:sans-serif;text-align:center;letter-spacing:0;word-spacing:0;text-anchor:middle;fill:#000;fill-opacity:1;stroke:none;stroke-width:1px;stroke-linecap:butt;stroke-linejoin:miter;stroke-opacity:1" id="text6137" x="538.823" y="203.923" xml:space="preserve"><tspan id="tspan6139" x="538.823" y="203.923" style="font-size:22.5px">↓</tspan></text><path style="fill:#76c61c;fill-opacity:1;stroke:#538d38;stroke-width:2;stroke-linecap:round;stroke-opacity:1" id="path3194-2-1" d="m 457,444.99998 0,-8.00001 a 8.0000014,8.0000012 0 0 1 8,-8 l 8,0 0,4 20.00001,0 0,-4 59.99999,0 8.00002,0 a 8.0000014,8.0000012 0 0 1 8,8 l 0,8.00001 -8,0 0,-6.00001 -8.00002,0 0,20.00001 8.00002,0 0,-6 8,0 0,34 -8,0 0,-5.99999 -8.00002,0 0,19.99999 8.00002,0 0,-6 8,0 0,8 a 8.0000014,8.0000012 0 0 1 -8,8 l -8.00002,0 -59.99999,0 -2,0 0,4 -16.00001,0 0,-4 -2,0 -8,0 a 8.0000014,8.0000012 0 0 1 -8,-8 l 0,-8 0,-42 0,-8 z"/><text style="font-size:20px;font-family:Sans;text-anchor:end;fill:#000" id="text3196-91-5" x="456" y="428"><tspan id="tspan3198-2-5" x="550" y="477">ピッチ</tspan></text><text style="font-size:13.33333302px;font-family:Sans;text-anchor:end;fill:#000" id="text3200-7-4" x="456" y="430"><tspan id="tspan3202-0-7" x="550" y="452.5">名前</tspan></text><text style="font-size:13.33333302px;font-family:Sans;text-anchor:end;fill:#000" id="text3204-93-6" x="456" y="432"><tspan id="tspan3206-6-5" x="550" y="496.5">オクターヴ</tspan></text><path id="path21-0-6" d="m 571.00002,428.99997 120.00002,0 0,40.00002 -120.00002,0 0,-16.00001 0,-2 -12,0 0,6 -4.00002,0 0,-16.00001 4.00002,0 0,6.00001 12,0 0,-2 z" style="fill:#76c61c;fill-opacity:1;stroke:#538d38;stroke-width:2;stroke-linecap:round;stroke-opacity:1"/><text id="text23-6-9" x="600" y="428" style="font-size:20px;font-family:Sans;text-anchor:start;fill:#000"><tspan id="tspan25-2-3" x="620" y="454">ミ</tspan></text><path style="fill:#ee97a8;fill-opacity:1;stroke:#a75862;stroke-width:2;stroke-linecap:round;stroke-opacity:1" id="path21-6-6-7" d="m 571.00002,470.99998 120.00002,0 0,40 -120.00002,0 0,-16 0,-2 -12,0 0,6 -4.00002,0 0,-16 4.00002,0 0,6 12,0 0,-2 z"/><text style="font-size:20px;font-family:Sans;text-anchor:start;fill:#000" id="text23-9-1-4" x="606" y="470"><tspan id="tspan25-8-8-5" x="626" y="496">5</tspan></text><path style="fill:#f2740b;fill-opacity:1;stroke:#a86129;stroke-width:2;stroke-linecap:round;stroke-opacity:1" id="path3035-5-2" d="m 439,360.99998 0,-8 c 0,-4.41828 3.58172,-8 8,-8 l 8,0 0,4 20,0 0,-4 18.00001,0 59.99999,0 8.00002,0 c 4.41828,0 9.07159,3.71364 8,8 l 0,8 -8,0 0,-6 -8.00002,0 0,20 8.00002,0 0,-6 8,0 0,8 c 0,4.41828 -3.58172,8 -8,8 l -8.00002,0 -59.99999,0 -2,0 0,4 -16.00001,0 0,-4 -2,0 -8,0 c -5.52285,0 -10,4.47715 -10,10 l 0,8 0,92.00002 0,7.99999 c 0,5.52285 4.64205,11.3395 10,10 l 8,0 0,4 20.00001,0 0,-4 16,0 0,12 0,12 0,8 c 0,4.41828 -3.71364,9.07162 -8,8.00002 l -8,0 -18.00001,0 -2,0 0,4 -16,0 0,-4 -2,0 -8,0 c -4.41828,0 -8,-3.58174 -8,-8.00002 l 0,-8 z"/><text style="font-size:20px;font-family:Sans;text-anchor:start;fill:#000" id="text3037-3-5" x="436" y="342"><tspan id="tspan3039-5-4" x="444" y="372.5">音価</tspan></text><path style="fill:#ee97a8;fill-opacity:1;stroke:#a75862;stroke-width:2;stroke-linecap:round;stroke-opacity:1" id="path21-6-1-7-7" d="m 685.00004,386.99998 120.00002,0 0,40.00001 -120.00002,0 0,-16.00001 0,-2 -12,0 0,6 -4.00002,0 0,-16 4.00002,0 0,6 12,0 0,-2 z"/><text style="font-size:20px;font-family:Sans;text-anchor:start;fill:#000" id="text23-9-82-9-4" x="716" y="386"><tspan id="tspan25-8-5-2-4" x="736" y="412">8</tspan></text><path style="fill:#ee97a8;fill-opacity:1;stroke:#a75862;stroke-width:2;stroke-linecap:round;stroke-opacity:1" id="path3798-4-4-5-3" d="m 571.00002,360.99998 0,-8 a 8.0000014,8.0000012 0 0 1 8,-8 l 8,0 20,0 60,0 8.00002,0 a 8.0000014,8.0000012 0 0 1 8,8 l 0,8 -8,0 0,-6 -8.00002,0 0,20 8.00002,0 0,-6 8,0 0,34 -8,0 0,-6 -8.00002,0 0,20 8.00002,0 0,-6 8,0 0,8 a 8.0000014,8.0000012 0 0 1 -8,8.00001 l -8.00002,0 -60,0 -20,0 -8,0 a 8.0000014,8.0000012 0 0 1 -8,-8.00001 l 0,-8 0,-42 0,-2 -12,0 0,6 -4.00002,0 0,-16 4.00002,0 0,6 12,0 0,-2 z"/><text style="font-size:28px;font-family:sans-serif;text-anchor:end;fill:#000" id="text3800-3-2-0-0" x="546" y="344"><tspan id="tspan3802-6-2-5-7" x="656" y="393">/</tspan></text><path style="fill:#ee97a8;fill-opacity:1;stroke:#a75862;stroke-width:2;stroke-linecap:round;stroke-opacity:1" id="path21-8-2-1-0-6-6" d="m 684.99999,344.99996 h 120 v 40 h -120 v -16 -2 h -12 v 6 h -4 v -16 h 4 v 6 h 12 v -2 z"/><text style="font-size:20px;font-family:Sans;text-anchor:start;fill:#000" id="text23-0-1-0-1-0-8" x="717" y="346"><tspan id="tspan25-7-0-5-2-5-8" x="737" y="372">1</tspan></text><path id="path3124-4" d="m 457,402.99998 0,-8 c 0,-4.41828 3.58172,-8 8,-8 l 8,0 0,4 20.00001,0 0,-4 59.99999,0 8.00002,0 c 4.41828,0 8,3.58172 8,8 l 0,8 0,8 0,8 c 0,4.41829 -3.71364,6.92842 -8,8.00001 l -8.00002,0 -59.99999,0 -2,0 0,4 -16.00001,0 0,-4 -2,0 -8,0 c -4.41828,0 -8,-3.58172 -8,-8.00001 l 0,-8 0,0 z" style="fill:#be6152;fill-opacity:1;stroke:#923111;stroke-width:2;stroke-linecap:round;stroke-opacity:1"/><text style="font-style:normal;font-weight:400;font-size:16px;line-height:125%;font-family:sans-serif;text-align:center;letter-spacing:0;word-spacing:0;text-anchor:middle;fill:#000;fill-opacity:1;stroke:none;stroke-width:1px;stroke-linecap:butt;stroke-linejoin:miter;stroke-opacity:1" id="text6137-3" x="538.823" y="413.923" xml:space="preserve"><tspan id="tspan6139-1" x="538.823" y="413.923" style="font-size:22.5px">↓</tspan></text><path style="fill:#ee97a8;fill-opacity:1;stroke:#a75862;stroke-width:2;stroke-linecap:round;stroke-opacity:1" id="path21-6-1-7-3" d="m 457.00006,43.00001 h 120 V 83 h -120 V 67 65 h -12 v 6 h -4.0001 V 55.00001 h 4.0001 V 61 h 12 v -2 z"/><text style="font-size:20px;font-family:Sans;text-anchor:start;fill:#000" id="text23-9-82-9-1" x="502" y="68">24</text><path style="fill:#ee97a8;fill-opacity:1;stroke:#a75862;stroke-width:2;stroke-linecap:round;stroke-opacity:1" id="path3798-4-4-5-0" d="M 343.00001,17.00001 V 9 a 8.0000007,8.0000006 0 0 1 8,-8 h 7.99995 20 60 8.0001 a 8.0000007,8.0000006 0 0 1 8,8 v 8.00001 h -8 v -6 h -8.0001 v 20 h 8.0001 v -6 h 8 V 59 h -8 v -5.99999 h -8.0001 V 73 h 8.0001 v -6 h 8 v 8 a 8.0000007,8.0000006 0 0 1 -8,8 h -8.0001 -60 -20 -7.99995 a 8.0000007,8.0000006 0 0 1 -8,-8 v -8 -41.99999 -2 h -12 v 6 H 327 v -16 h 4.00001 v 6 h 12 z"/><text style="font-size:28px;font-family:sans-serif;text-anchor:end;fill:#000" id="text3800-3-2-0-3" x="318" y="0"><tspan id="tspan3802-6-2-5-4" x="428" y="49">/</tspan></text><path style="fill:#ee97a8;fill-opacity:1;stroke:#a75862;stroke-width:2;stroke-linecap:round;stroke-opacity:1" id="path21-8-2-1-0-6-3" d="m 457,1.000003 h 120 v 40 H 457 v -16 -2 h -12 v 6 h -4 v -16 h 4 v 6 h 12 v -2 z"/><text style="font-size:20px;font-family:Sans;text-anchor:start;fill:#000" id="text23-0-1-0-1-0-9" x="489" y="2"><tspan id="tspan25-7-0-5-2-5-1" x="509" y="28">1</tspan></text><path id="path3124-9" d="m 19,101.00001 0,-7.999995 c 0,-4.41828 3.58172,-8 8,-8 l 8,0 0,4 20,0 0,-4 60,0 8.00001,0 c 4.41828,0 8,3.58172 8,8 l 0,7.999995 0,8 0,8 c 0,4.41828 -3.71364,6.92841 -8,8 l -8.00001,0 -60,0 -2,0 0,4 -16,0 0,-4 -2,0 -8,0 c -4.41828,0 -8,-3.58172 -8,-8 l 0,-8 0,0 z" style="fill:#be6152;fill-opacity:1;stroke:#923111;stroke-width:2;stroke-linecap:round;stroke-opacity:1"/><text style="font-style:normal;font-weight:400;font-size:16px;line-height:125%;font-family:sans-serif;text-align:center;letter-spacing:0;word-spacing:0;text-anchor:middle;fill:#000;fill-opacity:1;stroke:none;stroke-width:1px;stroke-linecap:butt;stroke-linejoin:miter;stroke-opacity:1" id="text6137-6" x="100.823" y="111.923" xml:space="preserve"><tspan id="tspan6139-9" x="100.823" y="111.923" style="font-size:22.5px">↓</tspan></text><path style="fill:#76c61c;fill-opacity:1;stroke:#538d38;stroke-width:2;stroke-linecap:round;stroke-opacity:1" id="path3194-2-3" d="m 37,226.99999 0,-8.00001 a 8.0000007,8.0000006 0 0 1 8,-8 l 8,0 0,4 20,0 0,-4 60,0 8,0 a 8.0000007,8.0000006 0 0 1 8,8 l 0,8.00001 -8,0 0,-6.00001 -8,0 0,20.00001 8,0 0,-6 8,0 0,34 -8,0 0,-5.99999 -8,0 0,19.99999 8,0 0,-6 8,0 0,8 a 8.0000007,8.0000006 0 0 1 -8,8 l -8,0 -60,0 -2,0 0,4 -16,0 0,-4 -2,0 -8,0 a 8.0000007,8.0000006 0 0 1 -8,-8 l 0,-8 0,-42 0,-8 z"/><text style="font-size:20px;font-family:Sans;text-anchor:end;fill:#000" id="text3196-91-3" x="36" y="210"><tspan id="tspan3198-2-8" x="130" y="259">ピッチ</tspan></text><text style="font-size:13.33333302px;font-family:Sans;text-anchor:end;fill:#000" id="text3200-7-0" x="36" y="212"><tspan id="tspan3202-0-5" x="130" y="234.5">名前</tspan></text><text style="font-size:13.33333302px;font-family:Sans;text-anchor:end;fill:#000" id="text3204-93-66" x="36" y="214"><tspan id="tspan3206-6-4" x="130" y="278.5">オクターヴ</tspan></text><path id="path21-0-0" d="m 151,210.99998 120.0001,0 0,40.00002 -120.0001,0 0,-16.00001 0,-2 -12,0 0,6 -4,0 0,-16.00001 4,0 0,6.00001 12,0 0,-2 z" style="fill:#76c61c;fill-opacity:1;stroke:#538d38;stroke-width:2;stroke-linecap:round;stroke-opacity:1"/><text id="text23-6-0" x="180" y="210" style="font-size:20px;font-family:Sans;text-anchor:start;fill:#000"><tspan id="tspan25-2-4" x="200" y="236">レ</tspan></text><path style="fill:#ee97a8;fill-opacity:1;stroke:#a75862;stroke-width:2;stroke-linecap:round;stroke-opacity:1" id="path21-6-6-6" d="m 151,252.99999 120.0001,0 0,40 -120.0001,0 0,-16 0,-2 -12,0 0,6 -4,0 0,-16 4,0 0,6 12,0 0,-2 z"/><text style="font-size:20px;font-family:Sans;text-anchor:start;fill:#000" id="text23-9-1-2" x="186" y="252"><tspan id="tspan25-8-8-6" x="206" y="278">5</tspan></text><path style="fill:#f2740b;fill-opacity:1;stroke:#a86129;stroke-width:2;stroke-linecap:round;stroke-opacity:1" id="path3035-5-7" d="M 19,143.00001 19,135 c 0,-4.41828 3.5818,-8 8,-8 l 8,0 0,4 20,0 0,-4 18,0 60,0 8,0 c 4.4183,0 9.0716,3.71363 8,8 l 0,8.00001 -8,0 0,-6 -8,0 0,20 8,0 0,-6 8,0 0,8 c 0,4.41828 -3.5817,8 -8,8 l -8,0 -60,0 -2,0 0,4 -16,0 0,-4 -2,0 -8,0 c -5.5228,0 -10,4.47715 -10,10 L 35,185 35,277.00001 35,285 c 0,5.52285 4.6421,11.3395 10,10 l 8,0 0,4 20,0 0,-4 16,0 0,12 0,12 0,8 c 0,4.41828 -3.7136,9.07161 -8,8.00001 l -8,0 -18,0 -2,0 0,4 -16,0 0,-4 -2,0 -8,0 c -4.4182,0 -8,-3.58173 -8,-8.00001 l 0,-8 z"/><text style="font-size:20px;font-family:Sans;text-anchor:start;fill:#000" id="text3037-3-56" x="16" y="124"><tspan id="tspan3039-5-9" x="24" y="154.5">音価</tspan></text><path style="fill:#ee97a8;fill-opacity:1;stroke:#a75862;stroke-width:2;stroke-linecap:round;stroke-opacity:1" id="path21-6-1-7-8" d="m 265.0001,169.00001 120,0 0,39.99999 -120,0 0,-16 0,-2 -12,0 0,6 -4.0001,0 0,-15.99999 4.0001,0 0,5.99999 12,0 0,-2 z"/><text style="font-size:20px;font-family:Sans;text-anchor:start;fill:#000" id="text23-9-82-9-7" x="296" y="168"><tspan id="tspan25-8-5-2-2" x="316" y="194">8</tspan></text><path style="fill:#ee97a8;fill-opacity:1;stroke:#a75862;stroke-width:2;stroke-linecap:round;stroke-opacity:1" id="path3798-4-4-5-8" d="M 151,143.00001 151,135 a 8.0000007,8.0000006 0 0 1 8,-8 l 8,0 20,0 60,0 8.0001,0 a 8.0000007,8.0000006 0 0 1 8,8 l 0,8.00001 -8,0 0,-6 -8.0001,0 0,20 8.0001,0 0,-6 8,0 0,33.99999 -8,0 0,-5.99999 -8.0001,0 0,19.99999 8.0001,0 0,-6 8,0 0,8 a 8.0000007,8.0000006 0 0 1 -8,8 l -8.0001,0 -60,0 -20,0 -8,0 a 8.0000007,8.0000006 0 0 1 -8,-8 l 0,-8 0,-41.99999 0,-2 -12,0 0,6 -4,0 0,-16 4,0 0,6 12,0 0,-2 z"/><text style="font-size:28px;font-family:sans-serif;text-anchor:end;fill:#000" id="text3800-3-2-0-2" x="126" y="126"><tspan id="tspan3802-6-2-5-9" x="236" y="175">/</tspan></text><path style="fill:#ee97a8;fill-opacity:1;stroke:#a75862;stroke-width:2;stroke-linecap:round;stroke-opacity:1" id="path21-8-2-1-0-6-60" d="m 265,126.99998 h 120 v 40 H 265 v -16 -2 h -12 v 6 h -4 v -16 h 4 v 6 h 12 v -2 z"/><text style="font-size:20px;font-family:Sans;text-anchor:start;fill:#000" id="text23-0-1-0-1-0-2" x="297" y="128"><tspan id="tspan25-7-0-5-2-5-7" x="317" y="154">1</tspan></text><path id="path3124-6" d="m 37,185 0,-7.99999 c 0,-4.41828 3.5818,-8 8,-8 l 8,0 0,4 20,0 0,-4 60,0 8,0 c 4.4183,0 8,3.58172 8,8 l 0,7.99999 0,8 0,8 c 0,4.41828 -3.7136,6.92841 -8,8 l -8,0 -60,0 -2,0 0,4 -16,0 0,-4 -2,0 -8,0 c -4.4182,0 -8,-3.58172 -8,-8 l 0,-8 0,0 z" style="fill:#be6152;fill-opacity:1;stroke:#923111;stroke-width:2;stroke-linecap:round;stroke-opacity:1"/><text style="font-style:normal;font-weight:400;font-size:16px;line-height:125%;font-family:sans-serif;text-align:center;letter-spacing:0;word-spacing:0;text-anchor:middle;fill:#000;fill-opacity:1;stroke:none;stroke-width:1px;stroke-linecap:butt;stroke-linejoin:miter;stroke-opacity:1" id="text6137-1" x="118.823" y="195.923" xml:space="preserve"><tspan id="tspan6139-3" x="118.823" y="195.923" style="font-size:22.5px">↓</tspan></text><path style="fill:#76c61c;fill-opacity:1;stroke:#538d38;stroke-width:2;stroke-linecap:round;stroke-opacity:1" id="path3194-2-1-2" d="m 37,436.99998 0,-8.00001 a 8.0000014,8.0000012 0 0 1 8,-8 l 8,0 0,4 20,0 0,-4 60,0 8.0001,0 a 8.0000014,8.0000012 0 0 1 8,8 l 0,8.00001 -8,0 0,-6.00001 -8.0001,0 0,20.00001 8.0001,0 0,-6 8,0 0,34 -8,0 0,-5.99999 -8.0001,0 0,19.99999 8.0001,0 0,-6 8,0 0,8 a 8.0000014,8.0000012 0 0 1 -8,8 l -8.0001,0 -60,0 -2,0 0,4 -16,0 0,-4 -2,0 -8,0 a 8.0000014,8.0000012 0 0 1 -8,-8 l 0,-8 0,-42 0,-8 z"/><text style="font-size:20px;font-family:Sans;text-anchor:end;fill:#000" id="text3196-91-5-1" x="36" y="420"><tspan id="tspan3198-2-5-5" x="130" y="469">ピッチ</tspan></text><text style="font-size:13.33333302px;font-family:Sans;text-anchor:end;fill:#000" id="text3200-7-4-9" x="36" y="422"><tspan id="tspan3202-0-7-9" x="130" y="444.5">名前</tspan></text><text style="font-size:13.33333302px;font-family:Sans;text-anchor:end;fill:#000" id="text3204-93-6-1" x="36" y="424"><tspan id="tspan3206-6-5-4" x="130" y="488.5">オクターヴ</tspan></text><path id="path21-0-6-9" d="m 151.0001,420.99997 120,0 0,40.00002 -120,0 0,-16 0,-2 -12,0 0,6 -4.0001,0 0,-16.00001 4.0001,0 0,6.00001 12,0 0,-2 z" style="fill:#76c61c;fill-opacity:1;stroke:#538d38;stroke-width:2;stroke-linecap:round;stroke-opacity:1"/><text id="text23-6-9-1" x="180" y="420" style="font-size:20px;font-family:Sans;text-anchor:start;fill:#000"><tspan id="tspan25-2-3-0" x="200" y="446">ミ</tspan></text><path style="fill:#ee97a8;fill-opacity:1;stroke:#a75862;stroke-width:2;stroke-linecap:round;stroke-opacity:1" id="path21-6-6-7-7" d="m 151.0001,462.99998 120,0 0,40 -120,0 0,-16 0,-2 -12,0 0,6 -4.0001,0 0,-16 4.0001,0 0,6 12,0 0,-2 z"/><text style="font-size:20px;font-family:Sans;text-anchor:start;fill:#000" id="text23-9-1-4-5" x="186" y="462"><tspan id="tspan25-8-8-5-8" x="206" y="488">5</tspan></text><path style="fill:#f2740b;fill-opacity:1;stroke:#a86129;stroke-width:2;stroke-linecap:round;stroke-opacity:1" id="path3035-5-2-7" d="m 19,352.99998 0,-8 c 0,-4.41828 3.5818,-8 8,-8 l 8,0 0,4 20,0 0,-4 18,0 60,0 8.0001,0 c 4.4182,0 9.0715,3.71364 8,8 l 0,8 -8,0 0,-6 -8.0001,0 0,20 8.0001,0 0,-6 8,0 0,8 c 0,4.41828 -3.5818,8 -8,8 l -8.0001,0 -60,0 -2,0 0,4 -16,0 0,-4 -2,0 -8,0 c -5.5228,0 -10,4.47715 -10,10 l 0,8 0,92.00002 0,7.99999 c 0,5.52285 4.6421,11.3395 10,10 l 8,0 0,4 20,0 0,-4 16,0 0,12 0,12 0,8 c 0,4.41828 -3.7136,9.07162 -8,8.00002 l -8,0 -18,0 -2,0 0,4 -16,0 0,-4 -2,0 -8,0 c -4.4182,0 -8,-3.58174 -8,-8.00002 l 0,-8 z"/><text style="font-size:20px;font-family:Sans;text-anchor:start;fill:#000" id="text3037-3-5-0" x="16" y="334"><tspan id="tspan3039-5-4-4" x="24" y="364.5">音価</tspan></text><path style="fill:#ee97a8;fill-opacity:1;stroke:#a75862;stroke-width:2;stroke-linecap:round;stroke-opacity:1" id="path21-6-1-7-7-8" d="m 265.0001,378.99998 120,0 0,40.00001 -120,0 0,-16.00001 0,-2 -12,0 0,6 -4,0 0,-16 4,0 0,6 12,0 0,-2 z"/><text style="font-size:20px;font-family:Sans;text-anchor:start;fill:#000" id="text23-9-82-9-4-0" x="296" y="378"><tspan id="tspan25-8-5-2-4-4" x="316" y="404">8</tspan></text><path style="fill:#ee97a8;fill-opacity:1;stroke:#a75862;stroke-width:2;stroke-linecap:round;stroke-opacity:1" id="path3798-4-4-5-3-2" d="m 151.0001,352.99998 0,-8 a 8.0000014,8.0000012 0 0 1 8,-8 l 8,0 20,0 60,0 8,0 a 8.0000014,8.0000012 0 0 1 8,8 l 0,8 -8,0 0,-6 -8,0 0,20 8,0 0,-6 8,0 0,34 -8,0 0,-6 -8,0 0,20 8,0 0,-6 8,0 0,8 a 8.0000014,8.0000012 0 0 1 -8,8.00001 l -8,0 -60,0 -20,0 -8,0 a 8.0000014,8.0000012 0 0 1 -8,-8.00001 l 0,-8 0,-42 0,-2 -12,0 0,6 -4.0001,0 0,-16 4.0001,0 0,6 12,0 0,-2 z"/><text style="font-size:28px;font-family:sans-serif;text-anchor:end;fill:#000" id="text3800-3-2-0-0-9" x="126" y="336"><tspan id="tspan3802-6-2-5-7-6" x="236" y="385">/</tspan></text><path style="fill:#ee97a8;fill-opacity:1;stroke:#a75862;stroke-width:2;stroke-linecap:round;stroke-opacity:1" id="path21-8-2-1-0-6-6-0" d="m 265,336.99996 h 120 v 40 H 265 v -16 -2 h -12 v 6 h -4 v -16 h 4 v 6 h 12 v -2 z"/><text style="font-size:20px;font-family:Sans;text-anchor:start;fill:#000" id="text23-0-1-0-1-0-8-4" x="297" y="338"><tspan id="tspan25-7-0-5-2-5-8-2" x="317" y="364">1</tspan></text><path id="path3124-4-2" d="m 37,394.99998 0,-8 c 0,-4.41828 3.5818,-8 8,-8 l 8,0 0,4 20,0 0,-4 60,0 8.0001,0 c 4.4182,0 8,3.58172 8,8 l 0,8 0,8 0,8 c 0,4.41829 -3.7137,6.92842 -8,8.00001 l -8.0001,0 -60,0 -2,0 0,4 -16,0 0,-4 -2,0 -8,0 c -4.4182,0 -8,-3.58172 -8,-8.00001 l 0,-8 0,0 z" style="fill:#be6152;fill-opacity:1;stroke:#923111;stroke-width:2;stroke-linecap:round;stroke-opacity:1"/><text style="font-style:normal;font-weight:400;font-size:16px;line-height:125%;font-family:sans-serif;text-align:center;letter-spacing:0;word-spacing:0;text-anchor:middle;fill:#000;fill-opacity:1;stroke:none;stroke-width:1px;stroke-linecap:butt;stroke-linejoin:miter;stroke-opacity:1" id="text6137-3-2" x="118.823" y="405.923" xml:space="preserve"><tspan id="tspan6139-1-0" x="118.823" y="405.923" style="font-size:22.5px">↓</tspan></text><path style="fill:#f2740b;fill-opacity:1;stroke:#a86129;stroke-width:2.03063774;stroke-linecap:round;stroke-opacity:1" id="path21-8" d="M 1.0153189,17.22365 V 9.12172 c 0,-4.47457 3.64585,-8.10193 8.14323,-8.10193 h 8.1432201 v 4.05097 h 20.35807 V 1.01979 h 18.32225 40.71613 8.143221 c 4.49738,0 8.14323,3.62736 8.14323,8.10193 v 8.10193 h -8.14323 v -6.22363 h -7.841441 v 20 h 7.841441 v -6 h 8.14323 v 34.75875 h -8.14323 v -6.75875 h -7.841441 v 20 h 7.841441 v -6 h 8.14323 v 8.96261 c 0,4.47457 -3.64585,8.10193 -8.14323,8.10193 h -8.143221 -40.71613 -2.0358 v 4.05096 H 37.017905 v -4.05096 h -2.03581 -7.501286 c -5.62173,0 -10.17904,4.53419 -10.17904,10.12741 v 8.10193 425.90087 8.10192 c 0,5.59322 4.746209,8.68235 10.17904,10.12741 H 35 v 4.05097 h 20 v -4.05097 h 17.268539 v 12.1529 12.15289 8.10193 c 0,4.47457 -3.77565,7.03463 -8.14322,8.10193 h -8.14323 -18.32225 -2.03581 v 4.05096 h -16.28645 v -4.05096 h -2.03581 -8.1432201 c -4.49738,0 -8.14323,-3.62736 -8.14323,-8.10193 v -8.10193 z"/><text style="font-size:20.3063755px;font-family:sans-serif;text-anchor:start;fill:#000;fill-opacity:1" id="text23-8" x="-.003" y=".007" transform="scale(1.0025453,0.99746116)"><tspan style="fill:#000;fill-opacity:1" id="tspan25-5" x="10.827" y="44.511">スイング</tspan></text><text style="font-size:13.5375843px;font-family:sans-serif;text-anchor:end;fill:#000;fill-opacity:1" id="text27" x="-.003" y=".007" transform="scale(1.0025453,0.99746116)"><tspan style="fill:#000;fill-opacity:1" id="tspan29" x="92.053" y="22.851">スイングの数値</tspan></text><text style="font-size:13.5375843px;font-family:sans-serif;text-anchor:end;fill:#000;fill-opacity:1" id="text31" x="-.003" y=".007" transform="scale(1.0025453,0.99746116)"><tspan style="fill:#000;fill-opacity:1" id="tspan33" x="92.053" y="65.494">音価</tspan></text><path style="fill:#ee97a8;fill-opacity:1;stroke:#a75862;stroke-width:2;stroke-linecap:round;stroke-opacity:1" id="path21-6-1-7-3-2" d="m 229,85.00002 h 120 v 40 H 229 v -16 -2 h -12 v 6 h -4 V 97.00003 h 4 v 5.99999 h 12 v -2 z"/><text style="font-size:20px;font-family:Sans;text-anchor:start;fill:#000" id="text23-9-82-9-1-9" x="278" y="108">8</text><path style="fill:#ee97a8;fill-opacity:1;stroke:#a75862;stroke-width:2;stroke-linecap:round;stroke-opacity:1" id="path3798-4-4-5-0-7" d="m 115,59.00002 v -8.00001 a 8.0000007,8.0000006 0 0 1 8,-8 h 8 20 60 8 a 8.0000007,8.0000006 0 0 1 8,8 v 8.00001 h -8 v -6 h -8 v 20 h 8 v -6 h 8 v 34 h -8 v -5.99999 h -8 v 19.99999 h 8 v -6 h 8 v 8 a 8.0000007,8.0000006 0 0 1 -8,8 h -8 -60 -20 -8 a 8.0000007,8.0000006 0 0 1 -8,-8 v -8 -42 -2 h -12 v 6 h -4 v -16 h 4 v 6 h 12 z"/><text style="font-size:28px;font-family:sans-serif;text-anchor:end;fill:#000" id="text3800-3-2-0-3-0" x="90" y="42"><tspan id="tspan3802-6-2-5-4-9" x="200" y="91">/</tspan></text><path style="fill:#ee97a8;fill-opacity:1;stroke:#a75862;stroke-width:2;stroke-linecap:round;stroke-opacity:1" id="path21-8-2-1-0-6-3-6" d="m 228.99998,43.00001 h 120 v 40 h -120 v -16 -2 h -12 v 6 h -4 v -16 h 4 v 6 h 12 v -2 z"/><text style="font-size:20px;font-family:Sans;text-anchor:start;fill:#000" id="text23-0-1-0-1-0-9-0" x="261" y="44"><tspan id="tspan25-7-0-5-2-5-1-6" x="281" y="70">1</tspan></text><path style="fill:#be6152;fill-opacity:1;stroke:#923111;stroke-width:2;stroke-linecap:round;stroke-opacity:1" id="path3106" d="m 229,17.000017 v -8 a 8,8 0 0 1 8,-8 h 8 20 59.99997 8 a 8,8 0 0 1 8,8 v 8 h -8 v -6 h -8 v 20 h 8 v -6 h 8 v 8 a 8,8 0 0 1 -8,8.000003 h -8 H 265 245 237 a 8,8 0 0 1 -8,-8.000003 v -8 -2 h -12 v 6 h -4 v -16 h 4 v 6 h 12 z"/><text style="font-style:normal;font-weight:400;font-size:16px;line-height:125%;font-family:sans-serif;text-align:center;letter-spacing:0;word-spacing:0;text-anchor:middle;fill:#000;fill-opacity:1;stroke:none;stroke-width:1px;stroke-linecap:butt;stroke-linejoin:miter;stroke-opacity:1" id="text6137-2" x="22.344" y="-301.504" transform="rotate(90)" xml:space="preserve"><tspan id="tspan6139-6" x="22.344" y="-301.504" style="font-size:22.5px">↓</tspan></text><path style="fill:#be6152;fill-opacity:1;stroke:#923111;stroke-width:2;stroke-linecap:round;stroke-opacity:1" id="path3106-8" d="m 115,17.000017 v -8 a 8,8 0 0 1 8,-8 h 8 20 59.99997 8 a 8,8 0 0 1 8,8 v 8 h -8 v -6 h -8 v 20 h 8 v -6 h 8 v 8 a 8,8 0 0 1 -8,8.000003 h -8 H 151 131 123 a 8,8 0 0 1 -8,-8.000003 v -8 -2 h -12 v 6 h -4 v -16 h 4 v 6 h 12 z"/><text style="font-style:normal;font-weight:400;font-size:16px;line-height:125%;font-family:sans-serif;text-align:center;letter-spacing:0;word-spacing:0;text-anchor:middle;fill:#000;fill-opacity:1;stroke:none;stroke-width:1px;stroke-linecap:butt;stroke-linejoin:miter;stroke-opacity:1" id="text6137-2-7" x="22.344" y="-187.504" transform="rotate(90)" xml:space="preserve"><tspan id="tspan6139-6-9" x="22.344" y="-187.504" style="font-size:22.5px">↓</tspan></text></svg>