<svg xmlns="http://www.w3.org/2000/svg" xmlns:svg="http://www.w3.org/2000/svg" id="svg8114" width="626.721" height="824.5" version="1.1"><metadata id="metadata8120"/><g id="g7154" transform="translate(0,31.5)"><g id="g7152" transform="scale(1.5)"><path id="path7142" d="m 0.5,8.5 v -4 a 4,4 90 0 1 4,-4 h 4 v 2 h 10 v -2 h 9 36.147461 4 a 4,4 90 0 1 4,4 v 4 h -4 v -3 h -4 v 10 h 4 v -3 h 4 v 4 a 4,4 90 0 1 -4,4 h -4 H 27.5 h -1 v 2 h -8 v -2 h -1 -4 a 5,5 90 0 0 -5,5 v 4 4 42 4 a 5,5 90 0 0 5,5 h 4 v 2 h 10 v -2 h 8 v 6 6 4 a 4,4 90 0 1 -4,4 h -4 -9 -1 v 2 h -8 v -2 h -1 -4 a 4,4 90 0 1 -4,-4 v -4 z" style="fill:#ff8b2d;fill-opacity:1;stroke:#520000;stroke-width:1;stroke-linecap:round;stroke-opacity:1"/><text id="text7146" style="font-size:10px;font-family:sans-serif;text-anchor:start;fill:#000"><tspan id="tspan7144" x="5.333" y="15.25">音価</tspan></text></g></g><g id="g7172" transform="translate(96.22119,31.5)"><g id="g7170" transform="scale(1.5)"><path id="path7156" d="m 8.5,8.5 v -4 a 4,4 90 0 1 4,-4 h 4 10 30 4 a 4,4 90 0 1 4,4 v 4 h -4 v -3 h -4 v 10 h 4 v -3 h 4 v 17 h -4 v -3 h -4 v 10 h 4 v -3 h 4 v 4 a 4,4 90 0 1 -4,4 h -4 -30 -10 -4 a 4,4 90 0 1 -4,-4 v -4 -21 -1 h -6 v 3 h -2 v -8 h 2 v 3 h 6 z" style="fill:#ffb2bc;fill-opacity:1;stroke:#601136;stroke-width:1;stroke-linecap:round;stroke-opacity:1"/><text id="text7160" style="font-size:14px;font-family:sans-serif;text-anchor:end;fill:#000"><tspan id="tspan7158" x="54.333" y="23.8">/</tspan></text></g></g><g id="g7182" transform="translate(181.72119,31.5)"><g id="g7180" transform="scale(1.5)"><path id="path7174" d="m 8.5,0.5 h 60 v 20 h -60 v -8 -1 h -6 v 3 h -2 v -8 h 2 v 3 h 6 v -1 z" style="fill:#ffb2bc;fill-opacity:1;stroke:#601136;stroke-width:1;stroke-linecap:round;stroke-opacity:1"/><text id="text7178" style="font-size:10px;font-family:sans-serif;text-anchor:start;fill:#000"><tspan id="tspan7176" x="13.333" y="13.833">1</tspan></text></g></g><g id="g7192" transform="translate(181.72119,63)"><g id="g7190" transform="scale(1.5)"><path id="path7184" d="m 8.5,0.5 h 60 v 20 h -60 v -8 -1 h -6 v 3 h -2 v -8 h 2 v 3 h 6 v -1 z" style="fill:#ffb2bc;fill-opacity:1;stroke:#601136;stroke-width:1;stroke-linecap:round;stroke-opacity:1"/><text id="text7188" style="font-size:10px;font-family:sans-serif;text-anchor:start;fill:#000"><tspan id="tspan7186" x="13.333" y="13.833">8</tspan></text></g></g><g id="g7202" transform="translate(13.5,63)"><g id="g7200" transform="scale(1.5)"><path id="path7194" d="m 0.5,8.5 v -4 a 4,4 90 0 1 4,-4 h 4 v 2 h 10 v -2 h 20 4 a 4,4 90 0 1 4,4 v 4 4 4 a 4,4 90 0 1 -4,4 h -4 -20 -1 v 2 h -8 v -2 h -1 -4 a 4,4 90 0 1 -4,-4 v -4 z" style="fill:#d57e6f;fill-opacity:1;stroke:#000;stroke-width:1;stroke-linecap:round;stroke-opacity:1"/><text id="text7198" style="font-size:10px;font-family:sans-serif;text-anchor:end;fill:#000"><tspan id="tspan7196" x="36.333" y="13.5">↓</tspan></text></g></g><g id="g7220" transform="translate(13.5,94.5)"><g id="g7218" transform="scale(1.5)"><path id="path7204" d="m 0.5,8.5 v -4 a 4,4 90 0 1 4,-4 h 4 v 2 h 10 v -2 h 30 4 a 4,4 90 0 1 4,4 v 4 h -4 v -3 h -4 v 10 h 4 v -3 h 4 v 17 h -4 v -3 h -4 v 10 h 4 v -3 h 4 v 4 a 4,4 90 0 1 -4,4 h -4 -30 -1 v 2 h -8 v -2 h -1 -4 a 4,4 90 0 1 -4,-4 v -4 -21 z" style="fill:#93e042;fill-opacity:1;stroke:#004000;stroke-width:1;stroke-linecap:round;stroke-opacity:1"/><text id="text7208" style="font-size:10px;font-family:sans-serif;text-anchor:end;fill:#000"><tspan id="tspan7206" x="46.333" y="24">ピッチ</tspan></text><text id="text7212" style="font-size:6.66666651px;font-family:sans-serif;text-anchor:end;fill:#000"><tspan id="tspan7210" x="46.333" y="11.25">名前</tspan></text><text id="text7216" style="font-size:6.66666651px;font-family:sans-serif;text-anchor:end;fill:#000"><tspan id="tspan7214" x="46.333" y="32.25">オクターヴ</tspan></text></g></g><g id="g7230" transform="translate(87,94.5)"><g id="g7228" transform="scale(1.5)"><path id="path7222" d="m 8.5,0.5 h 60 v 20 h -60 v -8 -1 h -6 v 3 h -2 v -8 h 2 v 3 h 6 v -1 z" style="fill:#93e042;fill-opacity:1;stroke:#004000;stroke-width:1;stroke-linecap:round;stroke-opacity:1"/><text id="text7226" style="font-size:10px;font-family:sans-serif;text-anchor:start;fill:#000"><tspan id="tspan7224" x="13.333" y="13.833">レ</tspan></text></g></g><g id="g7240" transform="translate(87,126)"><g id="g7238" transform="scale(1.5)"><path id="path7232" d="m 8.5,0.5 h 60 v 20 h -60 v -8 -1 h -6 v 3 h -2 v -8 h 2 v 3 h 6 v -1 z" style="fill:#ffb2bc;fill-opacity:1;stroke:#601136;stroke-width:1;stroke-linecap:round;stroke-opacity:1"/><text id="text7236" style="font-size:10px;font-family:sans-serif;text-anchor:start;fill:#000"><tspan id="tspan7234" x="13.333" y="13.833">5</tspan></text></g></g><g id="g7254" transform="translate(0,189)"><g id="g7252" transform="scale(1.5)"><path id="path7242" d="m 0.5,8.5 v -4 a 4,4 90 0 1 4,-4 h 4 v 2 h 10 v -2 h 9 36.147461 4 a 4,4 90 0 1 4,4 v 4 h -4 v -3 h -4 v 10 h 4 v -3 h 4 v 4 a 4,4 90 0 1 -4,4 h -4 H 27.5 h -1 v 2 h -8 v -2 h -1 -4 a 5,5 90 0 0 -5,5 v 4 4 42 4 a 5,5 90 0 0 5,5 h 4 v 2 h 10 v -2 h 8 v 6 6 4 a 4,4 90 0 1 -4,4 h -4 -9 -1 v 2 h -8 v -2 h -1 -4 a 4,4 90 0 1 -4,-4 v -4 z" style="fill:#ff8b2d;fill-opacity:1;stroke:#520000;stroke-width:1;stroke-linecap:round;stroke-opacity:1"/><text id="text7246" style="font-size:10px;font-family:sans-serif;text-anchor:start;fill:#000"><tspan id="tspan7244" x="5.333" y="15.25">音価</tspan></text></g></g><g id="g7272" transform="translate(96.22119,189)"><g id="g7270" transform="scale(1.5)"><path id="path7256" d="m 8.5,8.5 v -4 a 4,4 90 0 1 4,-4 h 4 10 30 4 a 4,4 90 0 1 4,4 v 4 h -4 v -3 h -4 v 10 h 4 v -3 h 4 v 17 h -4 v -3 h -4 v 10 h 4 v -3 h 4 v 4 a 4,4 90 0 1 -4,4 h -4 -30 -10 -4 a 4,4 90 0 1 -4,-4 v -4 -21 -1 h -6 v 3 h -2 v -8 h 2 v 3 h 6 z" style="fill:#ffb2bc;fill-opacity:1;stroke:#601136;stroke-width:1;stroke-linecap:round;stroke-opacity:1"/><text id="text7260" style="font-size:14px;font-family:sans-serif;text-anchor:end;fill:#000"><tspan id="tspan7258" x="54.333" y="23.8">/</tspan></text></g></g><g id="g7282" transform="translate(181.72119,189)"><g id="g7280" transform="scale(1.5)"><path id="path7274" d="m 8.5,0.5 h 60 v 20 h -60 v -8 -1 h -6 v 3 h -2 v -8 h 2 v 3 h 6 v -1 z" style="fill:#ffb2bc;fill-opacity:1;stroke:#601136;stroke-width:1;stroke-linecap:round;stroke-opacity:1"/><text id="text7278" style="font-size:10px;font-family:sans-serif;text-anchor:start;fill:#000"><tspan id="tspan7276" x="13.333" y="13.833">1</tspan></text></g></g><g id="g7292" transform="translate(181.72119,220.5)"><g id="g7290" transform="scale(1.5)"><path id="path7284" d="m 8.5,0.5 h 60 v 20 h -60 v -8 -1 h -6 v 3 h -2 v -8 h 2 v 3 h 6 v -1 z" style="fill:#ffb2bc;fill-opacity:1;stroke:#601136;stroke-width:1;stroke-linecap:round;stroke-opacity:1"/><text id="text7288" style="font-size:10px;font-family:sans-serif;text-anchor:start;fill:#000"><tspan id="tspan7286" x="13.333" y="13.833">4</tspan></text></g></g><g id="g7302" transform="translate(13.5,220.5)"><g id="g7300" transform="scale(1.5)"><path id="path7294" d="m 0.5,8.5 v -4 a 4,4 90 0 1 4,-4 h 4 v 2 h 10 v -2 h 20 4 a 4,4 90 0 1 4,4 v 4 4 4 a 4,4 90 0 1 -4,4 h -4 -20 -1 v 2 h -8 v -2 h -1 -4 a 4,4 90 0 1 -4,-4 v -4 z" style="fill:#d57e6f;fill-opacity:1;stroke:#000;stroke-width:1;stroke-linecap:round;stroke-opacity:1"/><text id="text7298" style="font-size:10px;font-family:sans-serif;text-anchor:end;fill:#000"><tspan id="tspan7296" x="36.333" y="13.5">↓</tspan></text></g></g><g id="g7320" transform="translate(13.5,252)"><g id="g7318" transform="scale(1.5)"><path id="path7304" d="m 0.5,8.5 v -4 a 4,4 90 0 1 4,-4 h 4 v 2 h 10 v -2 h 30 4 a 4,4 90 0 1 4,4 v 4 h -4 v -3 h -4 v 10 h 4 v -3 h 4 v 17 h -4 v -3 h -4 v 10 h 4 v -3 h 4 v 4 a 4,4 90 0 1 -4,4 h -4 -30 -1 v 2 h -8 v -2 h -1 -4 a 4,4 90 0 1 -4,-4 v -4 -21 z" style="fill:#93e042;fill-opacity:1;stroke:#004000;stroke-width:1;stroke-linecap:round;stroke-opacity:1"/><text id="text7308" style="font-size:10px;font-family:sans-serif;text-anchor:end;fill:#000"><tspan id="tspan7306" x="46.333" y="24">ピッチ</tspan></text><text id="text7312" style="font-size:6.66666651px;font-family:sans-serif;text-anchor:end;fill:#000"><tspan id="tspan7310" x="46.333" y="11.25">名前</tspan></text><text id="text7316" style="font-size:6.66666651px;font-family:sans-serif;text-anchor:end;fill:#000"><tspan id="tspan7314" x="46.333" y="32.25">オクターヴ</tspan></text></g></g><g id="g7330" transform="translate(87,252)"><g id="g7328" transform="scale(1.5)"><path id="path7322" d="m 8.5,0.5 h 60 v 20 h -60 v -8 -1 h -6 v 3 h -2 v -8 h 2 v 3 h 6 v -1 z" style="fill:#93e042;fill-opacity:1;stroke:#004000;stroke-width:1;stroke-linecap:round;stroke-opacity:1"/><text id="text7326" style="font-size:10px;font-family:sans-serif;text-anchor:start;fill:#000"><tspan id="tspan7324" x="13.333" y="13.833">ミ</tspan></text></g></g><g id="g7340" transform="translate(87,283.5)"><g id="g7338" transform="scale(1.5)"><path id="path7332" d="m 8.5,0.5 h 60 v 20 h -60 v -8 -1 h -6 v 3 h -2 v -8 h 2 v 3 h 6 v -1 z" style="fill:#ffb2bc;fill-opacity:1;stroke:#601136;stroke-width:1;stroke-linecap:round;stroke-opacity:1"/><text id="text7336" style="font-size:10px;font-family:sans-serif;text-anchor:start;fill:#000"><tspan id="tspan7334" x="13.333" y="13.833">5</tspan></text></g></g><g id="g7354" transform="translate(341.5,32.5)"><g id="g7352" transform="scale(1.5)"><path id="path7342" d="m 0.5,8.5 v -4 a 4,4 90 0 1 4,-4 h 4 v 2 h 10 v -2 h 9 36.147461 4 a 4,4 90 0 1 4,4 v 4 h -4 v -3 h -4 v 10 h 4 v -3 h 4 v 4 a 4,4 90 0 1 -4,4 h -4 H 27.5 h -1 v 2 h -8 v -2 h -1 -4 a 5,5 90 0 0 -5,5 v 4 4 42 4 a 5,5 90 0 0 5,5 h 4 v 2 h 10 v -2 h 8 v 6 6 4 a 4,4 90 0 1 -4,4 h -4 -9 -1 v 2 h -8 v -2 h -1 -4 a 4,4 90 0 1 -4,-4 v -4 z" style="fill:#ff8b2d;fill-opacity:1;stroke:#520000;stroke-width:1;stroke-linecap:round;stroke-opacity:1"/><text id="text7346" style="font-size:10px;font-family:sans-serif;text-anchor:start;fill:#000"><tspan id="tspan7344" x="5.333" y="15.25">音価</tspan></text></g></g><g id="g7372" transform="translate(437.72119,32.5)"><g id="g7370" transform="scale(1.5)"><path id="path7356" d="m 8.5,8.5 v -4 a 4,4 90 0 1 4,-4 h 4 10 30 4 a 4,4 90 0 1 4,4 v 4 h -4 v -3 h -4 v 10 h 4 v -3 h 4 v 17 h -4 v -3 h -4 v 10 h 4 v -3 h 4 v 4 a 4,4 90 0 1 -4,4 h -4 -30 -10 -4 a 4,4 90 0 1 -4,-4 v -4 -21 -1 h -6 v 3 h -2 v -8 h 2 v 3 h 6 z" style="fill:#ffb2bc;fill-opacity:1;stroke:#601136;stroke-width:1;stroke-linecap:round;stroke-opacity:1"/><text id="text7360" style="font-size:14px;font-family:sans-serif;text-anchor:end;fill:#000"><tspan id="tspan7358" x="54.333" y="23.8">/</tspan></text></g></g><g id="g7382" transform="translate(523.22119,32.5)"><g id="g7380" transform="scale(1.5)"><path id="path7374" d="m 8.5,0.5 h 60 v 20 h -60 v -8 -1 h -6 v 3 h -2 v -8 h 2 v 3 h 6 v -1 z" style="fill:#ffb2bc;fill-opacity:1;stroke:#601136;stroke-width:1;stroke-linecap:round;stroke-opacity:1"/><text id="text7378" style="font-size:10px;font-family:sans-serif;text-anchor:start;fill:#000"><tspan id="tspan7376" x="13.333" y="13.833">1</tspan></text></g></g><g id="g7392" transform="translate(523.22119,64)"><g id="g7390" transform="scale(1.5)"><path id="path7384" d="m 8.5,0.5 h 60 v 20 h -60 v -8 -1 h -6 v 3 h -2 v -8 h 2 v 3 h 6 v -1 z" style="fill:#ffb2bc;fill-opacity:1;stroke:#601136;stroke-width:1;stroke-linecap:round;stroke-opacity:1"/><text id="text7388" style="font-size:10px;font-family:sans-serif;text-anchor:start;fill:#000"><tspan id="tspan7386" x="13.333" y="13.833">8</tspan></text></g></g><g id="g7402" transform="translate(355,64)"><g id="g7400" transform="scale(1.5)"><path id="path7394" d="m 0.5,8.5 v -4 a 4,4 90 0 1 4,-4 h 4 v 2 h 10 v -2 h 20 4 a 4,4 90 0 1 4,4 v 4 4 4 a 4,4 90 0 1 -4,4 h -4 -20 -1 v 2 h -8 v -2 h -1 -4 a 4,4 90 0 1 -4,-4 v -4 z" style="fill:#d57e6f;fill-opacity:1;stroke:#000;stroke-width:1;stroke-linecap:round;stroke-opacity:1"/><text id="text7398" style="font-size:10px;font-family:sans-serif;text-anchor:end;fill:#000"><tspan id="tspan7396" x="36.333" y="13.5">↓</tspan></text></g></g><g id="g7420" transform="translate(355,95.5)"><g id="g7418" transform="scale(1.5)"><path id="path7404" d="m 0.5,8.5 v -4 a 4,4 90 0 1 4,-4 h 4 v 2 h 10 v -2 h 30 4 a 4,4 90 0 1 4,4 v 4 h -4 v -3 h -4 v 10 h 4 v -3 h 4 v 17 h -4 v -3 h -4 v 10 h 4 v -3 h 4 v 4 a 4,4 90 0 1 -4,4 h -4 -30 -1 v 2 h -8 v -2 h -1 -4 a 4,4 90 0 1 -4,-4 v -4 -21 z" style="fill:#93e042;fill-opacity:1;stroke:#004000;stroke-width:1;stroke-linecap:round;stroke-opacity:1"/><text id="text7408" style="font-size:10px;font-family:sans-serif;text-anchor:end;fill:#000"><tspan id="tspan7406" x="46.333" y="24">ピッチ</tspan></text><text id="text7412" style="font-size:6.66666651px;font-family:sans-serif;text-anchor:end;fill:#000"><tspan id="tspan7410" x="46.333" y="11.25">名前</tspan></text><text id="text7416" style="font-size:6.66666651px;font-family:sans-serif;text-anchor:end;fill:#000"><tspan id="tspan7414" x="46.333" y="32.25">オクターヴ</tspan></text></g></g><g id="g7430" transform="translate(428.5,95.5)"><g id="g7428" transform="scale(1.5)"><path id="path7422" d="m 8.5,0.5 h 60 v 20 h -60 v -8 -1 h -6 v 3 h -2 v -8 h 2 v 3 h 6 v -1 z" style="fill:#93e042;fill-opacity:1;stroke:#004000;stroke-width:1;stroke-linecap:round;stroke-opacity:1"/><text id="text7426" style="font-size:10px;font-family:sans-serif;text-anchor:start;fill:#000"><tspan id="tspan7424" x="13.333" y="13.833">レ</tspan></text></g></g><g id="g7440" transform="translate(428.5,127)"><g id="g7438" transform="scale(1.5)"><path id="path7432" d="m 8.5,0.5 h 60 v 20 h -60 v -8 -1 h -6 v 3 h -2 v -8 h 2 v 3 h 6 v -1 z" style="fill:#ffb2bc;fill-opacity:1;stroke:#601136;stroke-width:1;stroke-linecap:round;stroke-opacity:1"/><text id="text7436" style="font-size:10px;font-family:sans-serif;text-anchor:start;fill:#000"><tspan id="tspan7434" x="13.333" y="13.833">5</tspan></text></g></g><g id="g7454"><g id="g7452" transform="scale(1.5)"><path id="path7442" d="m 0.5,8.5 v -4 a 4,4 90 0 1 4,-4 h 4 v 2 h 10 v -2 h 81.69434 4 a 4,4 90 0 1 4,4 v 4 h -4 v -3 h -4 v 10 h 4 v -3 h 4 v 4 a 4,4 90 0 1 -4,4 h -4 H 18.5 h -1 v 2 h -8 v -2 h -1 -4 a 4,4 90 0 1 -4,-4 v -4 z" style="fill:#3ea4a3;fill-opacity:1;stroke:#000;stroke-width:1;stroke-linecap:round;stroke-opacity:1"/><text id="text7446" style="font-size:10px;font-family:sans-serif;text-anchor:end;fill:#000"><tspan id="tspan7444" x="98.028" y="13.5">マスターの音量を設定</tspan></text></g></g><g id="g7464" transform="translate(151.0415)"><g id="g7462" transform="scale(1.5)"><path id="path7456" d="m 8.5,0.5 h 60 v 20 h -60 v -8 -1 h -6 v 3 h -2 v -8 h 2 v 3 h 6 v -1 z" style="fill:#ffb2bc;fill-opacity:1;stroke:#601136;stroke-width:1;stroke-linecap:round;stroke-opacity:1"/><text id="text7460" style="font-size:10px;font-family:sans-serif;text-anchor:start;fill:#000"><tspan id="tspan7458" x="13.333" y="13.833">50</tspan></text></g></g><g id="g7478" transform="translate(1,412)"><g id="g7476" transform="scale(1.5)"><path id="path7466" d="m 0.5,8.5 v -4 a 4,4 90 0 1 4,-4 h 4 v 2 h 10 v -2 h 9 27.241211 4 a 4,4 90 0 1 4,4 v 4 h -4 v -3 h -4 v 10 h 4 v -3 h 4 v 4 a 4,4 90 0 1 -4,4 h -4 H 27.5 h -1 v 2 h -8 v -2 h -1 -4 a 5,5 90 0 0 -5,5 v 4 4 210 4 a 5,5 90 0 0 5,5 h 4 v 2 h 10 v -2 h 8 v 6 6 4 a 4,4 90 0 1 -4,4 h -4 -9 -1 v 2 h -8 v -2 h -1 -4 a 4,4 90 0 1 -4,-4 v -4 z" style="fill:#3ea4a3;fill-opacity:1;stroke:#000;stroke-width:1;stroke-linecap:round;stroke-opacity:1"/><text id="text7470" style="font-size:10px;font-family:sans-serif;text-anchor:start;fill:#000"><tspan id="tspan7468" x="5.333" y="15.25">スタッカート</tspan></text></g></g><g id="g7496" transform="translate(83.86182,412)"><g id="g7494" transform="scale(1.5)"><path id="path7480" d="m 8.5,8.5 v -4 a 4,4 90 0 1 4,-4 h 4 10 30 4 a 4,4 90 0 1 4,4 v 4 h -4 v -3 h -4 v 10 h 4 v -3 h 4 v 17 h -4 v -3 h -4 v 10 h 4 v -3 h 4 v 4 a 4,4 90 0 1 -4,4 h -4 -30 -10 -4 a 4,4 90 0 1 -4,-4 v -4 -21 -1 h -6 v 3 h -2 v -8 h 2 v 3 h 6 z" style="fill:#ffb2bc;fill-opacity:1;stroke:#601136;stroke-width:1;stroke-linecap:round;stroke-opacity:1"/><text id="text7484" style="font-size:14px;font-family:sans-serif;text-anchor:end;fill:#000"><tspan id="tspan7482" x="54.333" y="23.8">/</tspan></text></g></g><g id="g7506" transform="translate(169.36182,412)"><g id="g7504" transform="scale(1.5)"><path id="path7498" d="m 8.5,0.5 h 60 v 20 h -60 v -8 -1 h -6 v 3 h -2 v -8 h 2 v 3 h 6 v -1 z" style="fill:#ffb2bc;fill-opacity:1;stroke:#601136;stroke-width:1;stroke-linecap:round;stroke-opacity:1"/><text id="text7502" style="font-size:10px;font-family:sans-serif;text-anchor:start;fill:#000"><tspan id="tspan7500" x="13.333" y="13.833">1</tspan></text></g></g><g id="g7516" transform="translate(169.36182,443.5)"><g id="g7514" transform="scale(1.5)"><path id="path7508" d="m 8.5,0.5 h 60 v 20 h -60 v -8 -1 h -6 v 3 h -2 v -8 h 2 v 3 h 6 v -1 z" style="fill:#ffb2bc;fill-opacity:1;stroke:#601136;stroke-width:1;stroke-linecap:round;stroke-opacity:1"/><text id="text7512" style="font-size:10px;font-family:sans-serif;text-anchor:start;fill:#000"><tspan id="tspan7510" x="13.333" y="13.833">32</tspan></text></g></g><g id="g7526" transform="translate(14.5,443.5)"><g id="g7524" transform="scale(1.5)"><path id="path7518" d="m 0.5,8.5 v -4 a 4,4 90 0 1 4,-4 h 4 v 2 h 10 v -2 h 20 4 a 4,4 90 0 1 4,4 v 4 4 4 a 4,4 90 0 1 -4,4 h -4 -20 -1 v 2 h -8 v -2 h -1 -4 a 4,4 90 0 1 -4,-4 v -4 z" style="fill:#d57e6f;fill-opacity:1;stroke:#000;stroke-width:1;stroke-linecap:round;stroke-opacity:1"/><text id="text7522" style="font-size:10px;font-family:sans-serif;text-anchor:end;fill:#000"><tspan id="tspan7520" x="36.333" y="13.5">↓</tspan></text></g></g><g id="g7540" transform="translate(328,408)"><g id="g7538" transform="scale(1.5)"><path id="path7528" d="m 0.5,8.5 v -4 a 4,4 90 0 1 4,-4 h 4 v 2 h 10 v -2 h 9 20 4 a 4,4 90 0 1 4,4 v 4 h -4 v -3 h -4 v 10 h 4 v -3 h 4 v 4 a 4,4 90 0 1 -4,4 h -4 -20 -1 v 2 h -8 v -2 h -1 -4 a 5,5 90 0 0 -5,5 v 4 4 210 4 a 5,5 90 0 0 5,5 h 4 v 2 h 10 v -2 h 8 v 6 6 4 a 4,4 90 0 1 -4,4 h -4 -9 -1 v 2 h -8 v -2 h -1 -4 a 4,4 90 0 1 -4,-4 v -4 z" style="fill:#3ea4a3;fill-opacity:1;stroke:#000;stroke-width:1;stroke-linecap:round;stroke-opacity:1"/><text id="text7532" style="font-size:10px;font-family:sans-serif;text-anchor:start;fill:#000"><tspan id="tspan7530" x="5.333" y="15.25">スラー</tspan></text></g></g><g id="g7558" transform="translate(400,408)"><g id="g7556" transform="scale(1.5)"><path id="path7542" d="m 8.5,8.5 v -4 a 4,4 90 0 1 4,-4 h 4 10 30 4 a 4,4 90 0 1 4,4 v 4 h -4 v -3 h -4 v 10 h 4 v -3 h 4 v 17 h -4 v -3 h -4 v 10 h 4 v -3 h 4 v 4 a 4,4 90 0 1 -4,4 h -4 -30 -10 -4 a 4,4 90 0 1 -4,-4 v -4 -21 -1 h -6 v 3 h -2 v -8 h 2 v 3 h 6 z" style="fill:#ffb2bc;fill-opacity:1;stroke:#601136;stroke-width:1;stroke-linecap:round;stroke-opacity:1"/><text id="text7546" style="font-size:14px;font-family:sans-serif;text-anchor:end;fill:#000"><tspan id="tspan7544" x="54.333" y="23.8">/</tspan></text></g></g><g id="g7568" transform="translate(485.5,408)"><g id="g7566" transform="scale(1.5)"><path id="path7560" d="m 8.5,0.5 h 60 v 20 h -60 v -8 -1 h -6 v 3 h -2 v -8 h 2 v 3 h 6 v -1 z" style="fill:#ffb2bc;fill-opacity:1;stroke:#601136;stroke-width:1;stroke-linecap:round;stroke-opacity:1"/><text id="text7564" style="font-size:10px;font-family:sans-serif;text-anchor:start;fill:#000"><tspan id="tspan7562" x="13.333" y="13.833">1</tspan></text></g></g><g id="g7578" transform="translate(485.5,439.5)"><g id="g7576" transform="scale(1.5)"><path id="path7570" d="m 8.5,0.5 h 60 v 20 h -60 v -8 -1 h -6 v 3 h -2 v -8 h 2 v 3 h 6 v -1 z" style="fill:#ffb2bc;fill-opacity:1;stroke:#601136;stroke-width:1;stroke-linecap:round;stroke-opacity:1"/><text id="text7574" style="font-size:10px;font-family:sans-serif;text-anchor:start;fill:#000"><tspan id="tspan7572" x="13.333" y="13.833">16</tspan></text></g></g><g id="g7588" transform="translate(341.5,439.5)"><g id="g7586" transform="scale(1.5)"><path id="path7580" d="m 0.5,8.5 v -4 a 4,4 90 0 1 4,-4 h 4 v 2 h 10 v -2 h 20 4 a 4,4 90 0 1 4,4 v 4 4 4 a 4,4 90 0 1 -4,4 h -4 -20 -1 v 2 h -8 v -2 h -1 -4 a 4,4 90 0 1 -4,-4 v -4 z" style="fill:#d57e6f;fill-opacity:1;stroke:#000;stroke-width:1;stroke-linecap:round;stroke-opacity:1"/><text id="text7584" style="font-size:10px;font-family:sans-serif;text-anchor:end;fill:#000"><tspan id="tspan7582" x="36.333" y="13.5">↓</tspan></text></g></g><g id="g7602" transform="translate(328,1)"><g id="g7600" transform="scale(1.5)"><path id="path7590" d="m 0.5,8.5 v -4 a 4,4 90 0 1 4,-4 h 4 v 2 h 10 v -2 h 9 59.755859 4 a 4,4 90 0 1 4,4 v 4 h -4 v -3 h -4 v 10 h 4 v -3 h 4 v 4 a 4,4 90 0 1 -4,4 h -4 H 27.5 h -1 v 2 h -8 v -2 h -1 -4 a 5,5 90 0 0 -5,5 v 4 4 189 4 a 5,5 90 0 0 5,5 h 4 v 2 h 10 v -2 h 8 v 6 6 4 a 4,4 90 0 1 -4,4 h -4 -9 -1 v 2 h -8 v -2 h -1 -4 a 4,4 90 0 1 -4,-4 v -4 z" style="fill:#3ea4a3;fill-opacity:1;stroke:#000;stroke-width:1;stroke-linecap:round;stroke-opacity:1"/><text id="text7594" style="font-size:10px;font-family:sans-serif;text-anchor:start;fill:#000"><tspan id="tspan7592" x="5.333" y="15.25">crescendo (+/–)</tspan></text></g></g><g id="g7612" transform="translate(459.63379,1)"><g id="g7610" transform="scale(1.5)"><path id="path7604" d="m 8.5,0.5 h 60 v 20 h -60 v -8 -1 h -6 v 3 h -2 v -8 h 2 v 3 h 6 v -1 z" style="fill:#ffb2bc;fill-opacity:1;stroke:#601136;stroke-width:1;stroke-linecap:round;stroke-opacity:1"/><text id="text7608" style="font-size:10px;font-family:sans-serif;text-anchor:start;fill:#000"><tspan id="tspan7606" x="13.333" y="13.833">5</tspan></text></g></g><g id="g7626" transform="translate(341.5,190)"><g id="g7624" transform="scale(1.5)"><path id="path7614" d="m 0.5,8.5 v -4 a 4,4 90 0 1 4,-4 h 4 v 2 h 10 v -2 h 9 36.147461 4 a 4,4 90 0 1 4,4 v 4 h -4 v -3 h -4 v 10 h 4 v -3 h 4 v 4 a 4,4 90 0 1 -4,4 h -4 H 27.5 h -1 v 2 h -8 v -2 h -1 -4 a 5,5 90 0 0 -5,5 v 4 4 42 4 a 5,5 90 0 0 5,5 h 4 v 2 h 10 v -2 h 8 v 6 6 4 a 4,4 90 0 1 -4,4 h -4 -9 -1 v 2 h -8 v -2 h -1 -4 a 4,4 90 0 1 -4,-4 v -4 z" style="fill:#ff8b2d;fill-opacity:1;stroke:#520000;stroke-width:1;stroke-linecap:round;stroke-opacity:1"/><text id="text7618" style="font-size:10px;font-family:sans-serif;text-anchor:start;fill:#000"><tspan id="tspan7616" x="5.333" y="15.25">音価</tspan></text></g></g><g id="g7644" transform="translate(437.72119,190)"><g id="g7642" transform="scale(1.5)"><path id="path7628" d="m 8.5,8.5 v -4 a 4,4 90 0 1 4,-4 h 4 10 30 4 a 4,4 90 0 1 4,4 v 4 h -4 v -3 h -4 v 10 h 4 v -3 h 4 v 17 h -4 v -3 h -4 v 10 h 4 v -3 h 4 v 4 a 4,4 90 0 1 -4,4 h -4 -30 -10 -4 a 4,4 90 0 1 -4,-4 v -4 -21 -1 h -6 v 3 h -2 v -8 h 2 v 3 h 6 z" style="fill:#ffb2bc;fill-opacity:1;stroke:#601136;stroke-width:1;stroke-linecap:round;stroke-opacity:1"/><text id="text7632" style="font-size:14px;font-family:sans-serif;text-anchor:end;fill:#000"><tspan id="tspan7630" x="54.333" y="23.8">/</tspan></text></g></g><g id="g7654" transform="translate(523.22119,190)"><g id="g7652" transform="scale(1.5)"><path id="path7646" d="m 8.5,0.5 h 60 v 20 h -60 v -8 -1 h -6 v 3 h -2 v -8 h 2 v 3 h 6 v -1 z" style="fill:#ffb2bc;fill-opacity:1;stroke:#601136;stroke-width:1;stroke-linecap:round;stroke-opacity:1"/><text id="text7650" style="font-size:10px;font-family:sans-serif;text-anchor:start;fill:#000"><tspan id="tspan7648" x="13.333" y="13.833">1</tspan></text></g></g><g id="g7664" transform="translate(523.22119,221.5)"><g id="g7662" transform="scale(1.5)"><path id="path7656" d="m 8.5,0.5 h 60 v 20 h -60 v -8 -1 h -6 v 3 h -2 v -8 h 2 v 3 h 6 v -1 z" style="fill:#ffb2bc;fill-opacity:1;stroke:#601136;stroke-width:1;stroke-linecap:round;stroke-opacity:1"/><text id="text7660" style="font-size:10px;font-family:sans-serif;text-anchor:start;fill:#000"><tspan id="tspan7658" x="13.333" y="13.833">8</tspan></text></g></g><g id="g7674" transform="translate(355,221.5)"><g id="g7672" transform="scale(1.5)"><path id="path7666" d="m 0.5,8.5 v -4 a 4,4 90 0 1 4,-4 h 4 v 2 h 10 v -2 h 20 4 a 4,4 90 0 1 4,4 v 4 4 4 a 4,4 90 0 1 -4,4 h -4 -20 -1 v 2 h -8 v -2 h -1 -4 a 4,4 90 0 1 -4,-4 v -4 z" style="fill:#d57e6f;fill-opacity:1;stroke:#000;stroke-width:1;stroke-linecap:round;stroke-opacity:1"/><text id="text7670" style="font-size:10px;font-family:sans-serif;text-anchor:end;fill:#000"><tspan id="tspan7668" x="36.333" y="13.5">↓</tspan></text></g></g><g id="g7692" transform="translate(355,253)"><g id="g7690" transform="scale(1.5)"><path id="path7676" d="m 0.5,8.5 v -4 a 4,4 90 0 1 4,-4 h 4 v 2 h 10 v -2 h 30 4 a 4,4 90 0 1 4,4 v 4 h -4 v -3 h -4 v 10 h 4 v -3 h 4 v 17 h -4 v -3 h -4 v 10 h 4 v -3 h 4 v 4 a 4,4 90 0 1 -4,4 h -4 -30 -1 v 2 h -8 v -2 h -1 -4 a 4,4 90 0 1 -4,-4 v -4 -21 z" style="fill:#93e042;fill-opacity:1;stroke:#004000;stroke-width:1;stroke-linecap:round;stroke-opacity:1"/><text id="text7680" style="font-size:10px;font-family:sans-serif;text-anchor:end;fill:#000"><tspan id="tspan7678" x="46.333" y="24">ピッチ</tspan></text><text id="text7684" style="font-size:6.66666651px;font-family:sans-serif;text-anchor:end;fill:#000"><tspan id="tspan7682" x="46.333" y="11.25">名前</tspan></text><text id="text7688" style="font-size:6.66666651px;font-family:sans-serif;text-anchor:end;fill:#000"><tspan id="tspan7686" x="46.333" y="32.25">オクターヴ</tspan></text></g></g><g id="g7702" transform="translate(428.5,253)"><g id="g7700" transform="scale(1.5)"><path id="path7694" d="m 8.5,0.5 h 60 v 20 h -60 v -8 -1 h -6 v 3 h -2 v -8 h 2 v 3 h 6 v -1 z" style="fill:#93e042;fill-opacity:1;stroke:#004000;stroke-width:1;stroke-linecap:round;stroke-opacity:1"/><text id="text7698" style="font-size:10px;font-family:sans-serif;text-anchor:start;fill:#000"><tspan id="tspan7696" x="13.333" y="13.833">ミ</tspan></text></g></g><g id="g7712" transform="translate(428.5,284.5)"><g id="g7710" transform="scale(1.5)"><path id="path7704" d="m 8.5,0.5 h 60 v 20 h -60 v -8 -1 h -6 v 3 h -2 v -8 h 2 v 3 h 6 v -1 z" style="fill:#ffb2bc;fill-opacity:1;stroke:#601136;stroke-width:1;stroke-linecap:round;stroke-opacity:1"/><text id="text7708" style="font-size:10px;font-family:sans-serif;text-anchor:start;fill:#000"><tspan id="tspan7706" x="13.333" y="13.833">5</tspan></text></g></g><g id="g7726" transform="translate(341.5,471)"><g id="g7724" transform="scale(1.5)"><path id="path7714" d="m 0.5,8.5 v -4 a 4,4 90 0 1 4,-4 h 4 v 2 h 10 v -2 h 9 36.147461 4 a 4,4 90 0 1 4,4 v 4 h -4 v -3 h -4 v 10 h 4 v -3 h 4 v 4 a 4,4 90 0 1 -4,4 h -4 H 27.5 h -1 v 2 h -8 v -2 h -1 -4 a 5,5 90 0 0 -5,5 v 4 4 42 4 a 5,5 90 0 0 5,5 h 4 v 2 h 10 v -2 h 8 v 6 6 4 a 4,4 90 0 1 -4,4 h -4 -9 -1 v 2 h -8 v -2 h -1 -4 a 4,4 90 0 1 -4,-4 v -4 z" style="fill:#ff8b2d;fill-opacity:1;stroke:#520000;stroke-width:1;stroke-linecap:round;stroke-opacity:1"/><text id="text7718" style="font-size:10px;font-family:sans-serif;text-anchor:start;fill:#000"><tspan id="tspan7716" x="5.333" y="15.25">音価</tspan></text></g></g><g id="g7744" transform="translate(437.72119,471)"><g id="g7742" transform="scale(1.5)"><path id="path7728" d="m 8.5,8.5 v -4 a 4,4 90 0 1 4,-4 h 4 10 30 4 a 4,4 90 0 1 4,4 v 4 h -4 v -3 h -4 v 10 h 4 v -3 h 4 v 17 h -4 v -3 h -4 v 10 h 4 v -3 h 4 v 4 a 4,4 90 0 1 -4,4 h -4 -30 -10 -4 a 4,4 90 0 1 -4,-4 v -4 -21 -1 h -6 v 3 h -2 v -8 h 2 v 3 h 6 z" style="fill:#ffb2bc;fill-opacity:1;stroke:#601136;stroke-width:1;stroke-linecap:round;stroke-opacity:1"/><text id="text7732" style="font-size:14px;font-family:sans-serif;text-anchor:end;fill:#000"><tspan id="tspan7730" x="54.333" y="23.8">/</tspan></text></g></g><g id="g7754" transform="translate(523.22119,471)"><g id="g7752" transform="scale(1.5)"><path id="path7746" d="m 8.5,0.5 h 60 v 20 h -60 v -8 -1 h -6 v 3 h -2 v -8 h 2 v 3 h 6 v -1 z" style="fill:#ffb2bc;fill-opacity:1;stroke:#601136;stroke-width:1;stroke-linecap:round;stroke-opacity:1"/><text id="text7750" style="font-size:10px;font-family:sans-serif;text-anchor:start;fill:#000"><tspan id="tspan7748" x="13.333" y="13.833">1</tspan></text></g></g><g id="g7764" transform="translate(523.22119,502.5)"><g id="g7762" transform="scale(1.5)"><path id="path7756" d="m 8.5,0.5 h 60 v 20 h -60 v -8 -1 h -6 v 3 h -2 v -8 h 2 v 3 h 6 v -1 z" style="fill:#ffb2bc;fill-opacity:1;stroke:#601136;stroke-width:1;stroke-linecap:round;stroke-opacity:1"/><text id="text7760" style="font-size:10px;font-family:sans-serif;text-anchor:start;fill:#000"><tspan id="tspan7758" x="13.333" y="13.833">8</tspan></text></g></g><g id="g7774" transform="translate(355,502.5)"><g id="g7772" transform="scale(1.5)"><path id="path7766" d="m 0.5,8.5 v -4 a 4,4 90 0 1 4,-4 h 4 v 2 h 10 v -2 h 20 4 a 4,4 90 0 1 4,4 v 4 4 4 a 4,4 90 0 1 -4,4 h -4 -20 -1 v 2 h -8 v -2 h -1 -4 a 4,4 90 0 1 -4,-4 v -4 z" style="fill:#d57e6f;fill-opacity:1;stroke:#000;stroke-width:1;stroke-linecap:round;stroke-opacity:1"/><text id="text7770" style="font-size:10px;font-family:sans-serif;text-anchor:end;fill:#000"><tspan id="tspan7768" x="36.333" y="13.5">↓</tspan></text></g></g><g id="g7792" transform="translate(355,534)"><g id="g7790" transform="scale(1.5)"><path id="path7776" d="m 0.5,8.5 v -4 a 4,4 90 0 1 4,-4 h 4 v 2 h 10 v -2 h 30 4 a 4,4 90 0 1 4,4 v 4 h -4 v -3 h -4 v 10 h 4 v -3 h 4 v 17 h -4 v -3 h -4 v 10 h 4 v -3 h 4 v 4 a 4,4 90 0 1 -4,4 h -4 -30 -1 v 2 h -8 v -2 h -1 -4 a 4,4 90 0 1 -4,-4 v -4 -21 z" style="fill:#93e042;fill-opacity:1;stroke:#004000;stroke-width:1;stroke-linecap:round;stroke-opacity:1"/><text id="text7780" style="font-size:10px;font-family:sans-serif;text-anchor:end;fill:#000"><tspan id="tspan7778" x="46.333" y="24">ピッチ</tspan></text><text id="text7784" style="font-size:6.66666651px;font-family:sans-serif;text-anchor:end;fill:#000"><tspan id="tspan7782" x="46.333" y="11.25">名前</tspan></text><text id="text7788" style="font-size:6.66666651px;font-family:sans-serif;text-anchor:end;fill:#000"><tspan id="tspan7786" x="46.333" y="32.25">オクターヴ</tspan></text></g></g><g id="g7802" transform="translate(428.5,534)"><g id="g7800" transform="scale(1.5)"><path id="path7794" d="m 8.5,0.5 h 60 v 20 h -60 v -8 -1 h -6 v 3 h -2 v -8 h 2 v 3 h 6 v -1 z" style="fill:#93e042;fill-opacity:1;stroke:#004000;stroke-width:1;stroke-linecap:round;stroke-opacity:1"/><text id="text7798" style="font-size:10px;font-family:sans-serif;text-anchor:start;fill:#000"><tspan id="tspan7796" x="13.333" y="13.833">レ</tspan></text></g></g><g id="g7812" transform="translate(428.5,565.5)"><g id="g7810" transform="scale(1.5)"><path id="path7804" d="m 8.5,0.5 h 60 v 20 h -60 v -8 -1 h -6 v 3 h -2 v -8 h 2 v 3 h 6 v -1 z" style="fill:#ffb2bc;fill-opacity:1;stroke:#601136;stroke-width:1;stroke-linecap:round;stroke-opacity:1"/><text id="text7808" style="font-size:10px;font-family:sans-serif;text-anchor:start;fill:#000"><tspan id="tspan7806" x="13.333" y="13.833">5</tspan></text></g></g><g id="g7826" transform="translate(341.5,628.5)"><g id="g7824" transform="scale(1.5)"><path id="path7814" d="m 0.5,8.5 v -4 a 4,4 90 0 1 4,-4 h 4 v 2 h 10 v -2 h 9 36.147461 4 a 4,4 90 0 1 4,4 v 4 h -4 v -3 h -4 v 10 h 4 v -3 h 4 v 4 a 4,4 90 0 1 -4,4 h -4 H 27.5 h -1 v 2 h -8 v -2 h -1 -4 a 5,5 90 0 0 -5,5 v 4 4 42 4 a 5,5 90 0 0 5,5 h 4 v 2 h 10 v -2 h 8 v 6 6 4 a 4,4 90 0 1 -4,4 h -4 -9 -1 v 2 h -8 v -2 h -1 -4 a 4,4 90 0 1 -4,-4 v -4 z" style="fill:#ff8b2d;fill-opacity:1;stroke:#520000;stroke-width:1;stroke-linecap:round;stroke-opacity:1"/><text id="text7818" style="font-size:10px;font-family:sans-serif;text-anchor:start;fill:#000"><tspan id="tspan7816" x="5.333" y="15.25">音価</tspan></text></g></g><g id="g7844" transform="translate(437.72119,628.5)"><g id="g7842" transform="scale(1.5)"><path id="path7828" d="m 8.5,8.5 v -4 a 4,4 90 0 1 4,-4 h 4 10 30 4 a 4,4 90 0 1 4,4 v 4 h -4 v -3 h -4 v 10 h 4 v -3 h 4 v 17 h -4 v -3 h -4 v 10 h 4 v -3 h 4 v 4 a 4,4 90 0 1 -4,4 h -4 -30 -10 -4 a 4,4 90 0 1 -4,-4 v -4 -21 -1 h -6 v 3 h -2 v -8 h 2 v 3 h 6 z" style="fill:#ffb2bc;fill-opacity:1;stroke:#601136;stroke-width:1;stroke-linecap:round;stroke-opacity:1"/><text id="text7832" style="font-size:14px;font-family:sans-serif;text-anchor:end;fill:#000"><tspan id="tspan7830" x="54.333" y="23.8">/</tspan></text></g></g><g id="g7854" transform="translate(523.22119,628.5)"><g id="g7852" transform="scale(1.5)"><path id="path7846" d="m 8.5,0.5 h 60 v 20 h -60 v -8 -1 h -6 v 3 h -2 v -8 h 2 v 3 h 6 v -1 z" style="fill:#ffb2bc;fill-opacity:1;stroke:#601136;stroke-width:1;stroke-linecap:round;stroke-opacity:1"/><text id="text7850" style="font-size:10px;font-family:sans-serif;text-anchor:start;fill:#000"><tspan id="tspan7848" x="13.333" y="13.833">1</tspan></text></g></g><g id="g7864" transform="translate(523.22119,660)"><g id="g7862" transform="scale(1.5)"><path id="path7856" d="m 8.5,0.5 h 60 v 20 h -60 v -8 -1 h -6 v 3 h -2 v -8 h 2 v 3 h 6 v -1 z" style="fill:#ffb2bc;fill-opacity:1;stroke:#601136;stroke-width:1;stroke-linecap:round;stroke-opacity:1"/><text id="text7860" style="font-size:10px;font-family:sans-serif;text-anchor:start;fill:#000"><tspan id="tspan7858" x="13.333" y="13.833">8</tspan></text></g></g><g id="g7874" transform="translate(355,660)"><g id="g7872" transform="scale(1.5)"><path id="path7866" d="m 0.5,8.5 v -4 a 4,4 90 0 1 4,-4 h 4 v 2 h 10 v -2 h 20 4 a 4,4 90 0 1 4,4 v 4 4 4 a 4,4 90 0 1 -4,4 h -4 -20 -1 v 2 h -8 v -2 h -1 -4 a 4,4 90 0 1 -4,-4 v -4 z" style="fill:#d57e6f;fill-opacity:1;stroke:#000;stroke-width:1;stroke-linecap:round;stroke-opacity:1"/><text id="text7870" style="font-size:10px;font-family:sans-serif;text-anchor:end;fill:#000"><tspan id="tspan7868" x="36.333" y="13.5">↓</tspan></text></g></g><g id="g7892" transform="translate(355,691.5)"><g id="g7890" transform="scale(1.5)"><path id="path7876" d="m 0.5,8.5 v -4 a 4,4 90 0 1 4,-4 h 4 v 2 h 10 v -2 h 30 4 a 4,4 90 0 1 4,4 v 4 h -4 v -3 h -4 v 10 h 4 v -3 h 4 v 17 h -4 v -3 h -4 v 10 h 4 v -3 h 4 v 4 a 4,4 90 0 1 -4,4 h -4 -30 -1 v 2 h -8 v -2 h -1 -4 a 4,4 90 0 1 -4,-4 v -4 -21 z" style="fill:#93e042;fill-opacity:1;stroke:#004000;stroke-width:1;stroke-linecap:round;stroke-opacity:1"/><text id="text7880" style="font-size:10px;font-family:sans-serif;text-anchor:end;fill:#000"><tspan id="tspan7878" x="46.333" y="24">ピッチ</tspan></text><text id="text7884" style="font-size:6.66666651px;font-family:sans-serif;text-anchor:end;fill:#000"><tspan id="tspan7882" x="46.333" y="11.25">名前</tspan></text><text id="text7888" style="font-size:6.66666651px;font-family:sans-serif;text-anchor:end;fill:#000"><tspan id="tspan7886" x="46.333" y="32.25">オクターヴ</tspan></text></g></g><g id="g7902" transform="translate(428.5,691.5)"><g id="g7900" transform="scale(1.5)"><path id="path7894" d="m 8.5,0.5 h 60 v 20 h -60 v -8 -1 h -6 v 3 h -2 v -8 h 2 v 3 h 6 v -1 z" style="fill:#93e042;fill-opacity:1;stroke:#004000;stroke-width:1;stroke-linecap:round;stroke-opacity:1"/><text id="text7898" style="font-size:10px;font-family:sans-serif;text-anchor:start;fill:#000"><tspan id="tspan7896" x="13.333" y="13.833">ミ</tspan></text></g></g><g id="g7912" transform="translate(428.5,723)"><g id="g7910" transform="scale(1.5)"><path id="path7904" d="m 8.5,0.5 h 60 v 20 h -60 v -8 -1 h -6 v 3 h -2 v -8 h 2 v 3 h 6 v -1 z" style="fill:#ffb2bc;fill-opacity:1;stroke:#601136;stroke-width:1;stroke-linecap:round;stroke-opacity:1"/><text id="text7908" style="font-size:10px;font-family:sans-serif;text-anchor:start;fill:#000"><tspan id="tspan7906" x="13.333" y="13.833">5</tspan></text></g></g><g id="g7926" transform="translate(14.5,475)"><g id="g7924" transform="scale(1.5)"><path id="path7914" d="m 0.5,8.5 v -4 a 4,4 90 0 1 4,-4 h 4 v 2 h 10 v -2 h 9 36.147461 4 a 4,4 90 0 1 4,4 v 4 h -4 v -3 h -4 v 10 h 4 v -3 h 4 v 4 a 4,4 90 0 1 -4,4 h -4 H 27.5 h -1 v 2 h -8 v -2 h -1 -4 a 5,5 90 0 0 -5,5 v 4 4 42 4 a 5,5 90 0 0 5,5 h 4 v 2 h 10 v -2 h 8 v 6 6 4 a 4,4 90 0 1 -4,4 h -4 -9 -1 v 2 h -8 v -2 h -1 -4 a 4,4 90 0 1 -4,-4 v -4 z" style="fill:#ff8b2d;fill-opacity:1;stroke:#520000;stroke-width:1;stroke-linecap:round;stroke-opacity:1"/><text id="text7918" style="font-size:10px;font-family:sans-serif;text-anchor:start;fill:#000"><tspan id="tspan7916" x="5.333" y="15.25">音価</tspan></text></g></g><g id="g7944" transform="translate(110.72119,475)"><g id="g7942" transform="scale(1.5)"><path id="path7928" d="m 8.5,8.5 v -4 a 4,4 90 0 1 4,-4 h 4 10 30 4 a 4,4 90 0 1 4,4 v 4 h -4 v -3 h -4 v 10 h 4 v -3 h 4 v 17 h -4 v -3 h -4 v 10 h 4 v -3 h 4 v 4 a 4,4 90 0 1 -4,4 h -4 -30 -10 -4 a 4,4 90 0 1 -4,-4 v -4 -21 -1 h -6 v 3 h -2 v -8 h 2 v 3 h 6 z" style="fill:#ffb2bc;fill-opacity:1;stroke:#601136;stroke-width:1;stroke-linecap:round;stroke-opacity:1"/><text id="text7932" style="font-size:14px;font-family:sans-serif;text-anchor:end;fill:#000"><tspan id="tspan7930" x="54.333" y="23.8">/</tspan></text></g></g><g id="g7954" transform="translate(196.22119,475)"><g id="g7952" transform="scale(1.5)"><path id="path7946" d="m 8.5,0.5 h 60 v 20 h -60 v -8 -1 h -6 v 3 h -2 v -8 h 2 v 3 h 6 v -1 z" style="fill:#ffb2bc;fill-opacity:1;stroke:#601136;stroke-width:1;stroke-linecap:round;stroke-opacity:1"/><text id="text7950" style="font-size:10px;font-family:sans-serif;text-anchor:start;fill:#000"><tspan id="tspan7948" x="13.333" y="13.833">1</tspan></text></g></g><g id="g7964" transform="translate(196.22119,506.5)"><g id="g7962" transform="scale(1.5)"><path id="path7956" d="m 8.5,0.5 h 60 v 20 h -60 v -8 -1 h -6 v 3 h -2 v -8 h 2 v 3 h 6 v -1 z" style="fill:#ffb2bc;fill-opacity:1;stroke:#601136;stroke-width:1;stroke-linecap:round;stroke-opacity:1"/><text id="text7960" style="font-size:10px;font-family:sans-serif;text-anchor:start;fill:#000"><tspan id="tspan7958" x="13.333" y="13.833">8</tspan></text></g></g><g id="g7974" transform="translate(28,506.5)"><g id="g7972" transform="scale(1.5)"><path id="path7966" d="m 0.5,8.5 v -4 a 4,4 90 0 1 4,-4 h 4 v 2 h 10 v -2 h 20 4 a 4,4 90 0 1 4,4 v 4 4 4 a 4,4 90 0 1 -4,4 h -4 -20 -1 v 2 h -8 v -2 h -1 -4 a 4,4 90 0 1 -4,-4 v -4 z" style="fill:#d57e6f;fill-opacity:1;stroke:#000;stroke-width:1;stroke-linecap:round;stroke-opacity:1"/><text id="text7970" style="font-size:10px;font-family:sans-serif;text-anchor:end;fill:#000"><tspan id="tspan7968" x="36.333" y="13.5">↓</tspan></text></g></g><g id="g7992" transform="translate(28,538)"><g id="g7990" transform="scale(1.5)"><path id="path7976" d="m 0.5,8.5 v -4 a 4,4 90 0 1 4,-4 h 4 v 2 h 10 v -2 h 30 4 a 4,4 90 0 1 4,4 v 4 h -4 v -3 h -4 v 10 h 4 v -3 h 4 v 17 h -4 v -3 h -4 v 10 h 4 v -3 h 4 v 4 a 4,4 90 0 1 -4,4 h -4 -30 -1 v 2 h -8 v -2 h -1 -4 a 4,4 90 0 1 -4,-4 v -4 -21 z" style="fill:#93e042;fill-opacity:1;stroke:#004000;stroke-width:1;stroke-linecap:round;stroke-opacity:1"/><text id="text7980" style="font-size:10px;font-family:sans-serif;text-anchor:end;fill:#000"><tspan id="tspan7978" x="46.333" y="24">ピッチ</tspan></text><text id="text7984" style="font-size:6.66666651px;font-family:sans-serif;text-anchor:end;fill:#000"><tspan id="tspan7982" x="46.333" y="11.25">名前</tspan></text><text id="text7988" style="font-size:6.66666651px;font-family:sans-serif;text-anchor:end;fill:#000"><tspan id="tspan7986" x="46.333" y="32.25">オクターヴ</tspan></text></g></g><g id="g8002" transform="translate(101.5,538)"><g id="g8000" transform="scale(1.5)"><path id="path7994" d="m 8.5,0.5 h 60 v 20 h -60 v -8 -1 h -6 v 3 h -2 v -8 h 2 v 3 h 6 v -1 z" style="fill:#93e042;fill-opacity:1;stroke:#004000;stroke-width:1;stroke-linecap:round;stroke-opacity:1"/><text id="text7998" style="font-size:10px;font-family:sans-serif;text-anchor:start;fill:#000"><tspan id="tspan7996" x="13.333" y="13.833">レ</tspan></text></g></g><g id="g8012" transform="translate(101.5,569.5)"><g id="g8010" transform="scale(1.5)"><path id="path8004" d="m 8.5,0.5 h 60 v 20 h -60 v -8 -1 h -6 v 3 h -2 v -8 h 2 v 3 h 6 v -1 z" style="fill:#ffb2bc;fill-opacity:1;stroke:#601136;stroke-width:1;stroke-linecap:round;stroke-opacity:1"/><text id="text8008" style="font-size:10px;font-family:sans-serif;text-anchor:start;fill:#000"><tspan id="tspan8006" x="13.333" y="13.833">5</tspan></text></g></g><g id="g8026" transform="translate(14.5,632.5)"><g id="g8024" transform="scale(1.5)"><path id="path8014" d="m 0.5,8.5 v -4 a 4,4 90 0 1 4,-4 h 4 v 2 h 10 v -2 h 9 36.147461 4 a 4,4 90 0 1 4,4 v 4 h -4 v -3 h -4 v 10 h 4 v -3 h 4 v 4 a 4,4 90 0 1 -4,4 h -4 H 27.5 h -1 v 2 h -8 v -2 h -1 -4 a 5,5 90 0 0 -5,5 v 4 4 42 4 a 5,5 90 0 0 5,5 h 4 v 2 h 10 v -2 h 8 v 6 6 4 a 4,4 90 0 1 -4,4 h -4 -9 -1 v 2 h -8 v -2 h -1 -4 a 4,4 90 0 1 -4,-4 v -4 z" style="fill:#ff8b2d;fill-opacity:1;stroke:#520000;stroke-width:1;stroke-linecap:round;stroke-opacity:1"/><text id="text8018" style="font-size:10px;font-family:sans-serif;text-anchor:start;fill:#000"><tspan id="tspan8016" x="5.333" y="15.25">音価</tspan></text></g></g><g id="g8044" transform="translate(110.72119,632.5)"><g id="g8042" transform="scale(1.5)"><path id="path8028" d="m 8.5,8.5 v -4 a 4,4 90 0 1 4,-4 h 4 10 30 4 a 4,4 90 0 1 4,4 v 4 h -4 v -3 h -4 v 10 h 4 v -3 h 4 v 17 h -4 v -3 h -4 v 10 h 4 v -3 h 4 v 4 a 4,4 90 0 1 -4,4 h -4 -30 -10 -4 a 4,4 90 0 1 -4,-4 v -4 -21 -1 h -6 v 3 h -2 v -8 h 2 v 3 h 6 z" style="fill:#ffb2bc;fill-opacity:1;stroke:#601136;stroke-width:1;stroke-linecap:round;stroke-opacity:1"/><text id="text8032" style="font-size:14px;font-family:sans-serif;text-anchor:end;fill:#000"><tspan id="tspan8030" x="54.333" y="23.8">/</tspan></text></g></g><g id="g8054" transform="translate(196.22119,632.5)"><g id="g8052" transform="scale(1.5)"><path id="path8046" d="m 8.5,0.5 h 60 v 20 h -60 v -8 -1 h -6 v 3 h -2 v -8 h 2 v 3 h 6 v -1 z" style="fill:#ffb2bc;fill-opacity:1;stroke:#601136;stroke-width:1;stroke-linecap:round;stroke-opacity:1"/><text id="text8050" style="font-size:10px;font-family:sans-serif;text-anchor:start;fill:#000"><tspan id="tspan8048" x="13.333" y="13.833">1</tspan></text></g></g><g id="g8064" transform="translate(196.22119,664)"><g id="g8062" transform="scale(1.5)"><path id="path8056" d="m 8.5,0.5 h 60 v 20 h -60 v -8 -1 h -6 v 3 h -2 v -8 h 2 v 3 h 6 v -1 z" style="fill:#ffb2bc;fill-opacity:1;stroke:#601136;stroke-width:1;stroke-linecap:round;stroke-opacity:1"/><text id="text8060" style="font-size:10px;font-family:sans-serif;text-anchor:start;fill:#000"><tspan id="tspan8058" x="13.333" y="13.833">8</tspan></text></g></g><g id="g8074" transform="translate(28,664)"><g id="g8072" transform="scale(1.5)"><path id="path8066" d="m 0.5,8.5 v -4 a 4,4 90 0 1 4,-4 h 4 v 2 h 10 v -2 h 20 4 a 4,4 90 0 1 4,4 v 4 4 4 a 4,4 90 0 1 -4,4 h -4 -20 -1 v 2 h -8 v -2 h -1 -4 a 4,4 90 0 1 -4,-4 v -4 z" style="fill:#d57e6f;fill-opacity:1;stroke:#000;stroke-width:1;stroke-linecap:round;stroke-opacity:1"/><text id="text8070" style="font-size:10px;font-family:sans-serif;text-anchor:end;fill:#000"><tspan id="tspan8068" x="36.333" y="13.5">↓</tspan></text></g></g><g id="g8092" transform="translate(28,695.5)"><g id="g8090" transform="scale(1.5)"><path id="path8076" d="m 0.5,8.5 v -4 a 4,4 90 0 1 4,-4 h 4 v 2 h 10 v -2 h 30 4 a 4,4 90 0 1 4,4 v 4 h -4 v -3 h -4 v 10 h 4 v -3 h 4 v 17 h -4 v -3 h -4 v 10 h 4 v -3 h 4 v 4 a 4,4 90 0 1 -4,4 h -4 -30 -1 v 2 h -8 v -2 h -1 -4 a 4,4 90 0 1 -4,-4 v -4 -21 z" style="fill:#93e042;fill-opacity:1;stroke:#004000;stroke-width:1;stroke-linecap:round;stroke-opacity:1"/><text id="text8080" style="font-size:10px;font-family:sans-serif;text-anchor:end;fill:#000"><tspan id="tspan8078" x="46.333" y="24">ピッチ</tspan></text><text id="text8084" style="font-size:6.66666651px;font-family:sans-serif;text-anchor:end;fill:#000"><tspan id="tspan8082" x="46.333" y="11.25">名前</tspan></text><text id="text8088" style="font-size:6.66666651px;font-family:sans-serif;text-anchor:end;fill:#000"><tspan id="tspan8086" x="46.333" y="32.25">オクターヴ</tspan></text></g></g><g id="g8102" transform="translate(101.5,695.5)"><g id="g8100" transform="scale(1.5)"><path id="path8094" d="m 8.5,0.5 h 60 v 20 h -60 v -8 -1 h -6 v 3 h -2 v -8 h 2 v 3 h 6 v -1 z" style="fill:#93e042;fill-opacity:1;stroke:#004000;stroke-width:1;stroke-linecap:round;stroke-opacity:1"/><text id="text8098" style="font-size:10px;font-family:sans-serif;text-anchor:start;fill:#000"><tspan id="tspan8096" x="13.333" y="13.833">ミ</tspan></text></g></g><g id="g8112" transform="translate(101.5,727)"><g id="g8110" transform="scale(1.5)"><path id="path8104" d="m 8.5,0.5 h 60 v 20 h -60 v -8 -1 h -6 v 3 h -2 v -8 h 2 v 3 h 6 v -1 z" style="fill:#ffb2bc;fill-opacity:1;stroke:#601136;stroke-width:1;stroke-linecap:round;stroke-opacity:1"/><text id="text8108" style="font-size:10px;font-family:sans-serif;text-anchor:start;fill:#000"><tspan id="tspan8106" x="13.333" y="13.833">5</tspan></text></g></g></svg>