<svg xmlns="http://www.w3.org/2000/svg" xmlns:svg="http://www.w3.org/2000/svg" id="svg4367" width="312.221" height="617.343" version="1.1"><metadata id="metadata4373"/><g id="g4045" transform="translate(-3.3333326e-7,0.42153745)"><g id="g4043" transform="scale(1.5)"><path id="path4037" d="m 0.5,14.5 v -4 a 4,4 90 0 1 4,-4 h 4 l 5,-6 5,6 h 9 30 4 a 4,4 90 0 1 4,4 v 4 4 4 a 4,4 90 0 1 -4,4 h -4 -30 -1 v 2 h -8 v -2 h -1 -4 a 5,5 90 0 0 -5,5 v 4 4 336 4 a 5,5 90 0 0 5,5 h 4 v 2 h 10 v -2 h 8 v 6 6 4 a 4,4 90 0 1 -4,4 h -4 -9 l -5,6 -5,-6 h -4 a 4,4 90 0 1 -4,-4 v -4 z" style="fill:#ffe05c;fill-opacity:1;stroke:#644300;stroke-width:1;stroke-linecap:round;stroke-opacity:1"/><text id="text4041" style="font-size:10px;font-family:sans-serif;text-anchor:start;fill:#000"><tspan id="tspan4039" x="5.333" y="21.5">スタート</tspan></text></g></g><g id="g4059" transform="translate(13.499997,40.921537)"><g id="g4057" transform="scale(1.5)"><path id="path4047" d="m 0.5,8.5 v -4 a 4,4 90 0 1 4,-4 h 4 v 2 h 10 v -2 h 9 36.147461 4 a 4,4 90 0 1 4,4 v 4 h -4 v -3 h -4 v 10 h 4 v -3 h 4 v 4 a 4,4 90 0 1 -4,4 h -4 H 27.5 h -1 v 2 h -8 v -2 h -1 -4 a 5,5 90 0 0 -5,5 v 4 4 42 4 a 5,5 90 0 0 5,5 h 4 v 2 h 10 v -2 h 8 v 6 6 4 a 4,4 90 0 1 -4,4 h -4 -9 -1 v 2 h -8 v -2 h -1 -4 a 4,4 90 0 1 -4,-4 v -4 z" style="fill:#ff8b2d;fill-opacity:1;stroke:#520000;stroke-width:1;stroke-linecap:round;stroke-opacity:1"/><text id="text4051" style="font-size:10px;font-family:sans-serif;text-anchor:start;fill:#000"><tspan id="tspan4049" x="5.333" y="15.25">音価</tspan></text></g></g><g id="g4077" transform="translate(109.72119,40.921537)"><g id="g4075" transform="scale(1.5)"><path id="path4061" d="m 8.5,8.5 v -4 a 4,4 90 0 1 4,-4 h 4 10 30 4 a 4,4 90 0 1 4,4 v 4 h -4 v -3 h -4 v 10 h 4 v -3 h 4 v 17 h -4 v -3 h -4 v 10 h 4 v -3 h 4 v 4 a 4,4 90 0 1 -4,4 h -4 -30 -10 -4 a 4,4 90 0 1 -4,-4 v -4 -21 -1 h -6 v 3 h -2 v -8 h 2 v 3 h 6 z" style="fill:#ffb2bc;fill-opacity:1;stroke:#601136;stroke-width:1;stroke-linecap:round;stroke-opacity:1"/><text id="text4065" style="font-size:14px;font-family:sans-serif;text-anchor:end;fill:#000"><tspan id="tspan4063" x="54.333" y="23.8">/</tspan></text></g></g><g id="g4087" transform="translate(195.22119,40.921537)"><g id="g4085" transform="scale(1.5)"><path id="path4079" d="m 8.5,0.5 h 60 v 20 h -60 v -8 -1 h -6 v 3 h -2 v -8 h 2 v 3 h 6 v -1 z" style="fill:#ffb2bc;fill-opacity:1;stroke:#601136;stroke-width:1;stroke-linecap:round;stroke-opacity:1"/><text id="text4083" style="font-size:10px;font-family:sans-serif;text-anchor:start;fill:#000"><tspan id="tspan4081" x="13.333" y="13.833">1</tspan></text></g></g><g id="g4097" transform="translate(195.22119,72.421537)"><g id="g4095" transform="scale(1.5)"><path id="path4089" d="m 8.5,0.5 h 60 v 20 h -60 v -8 -1 h -6 v 3 h -2 v -8 h 2 v 3 h 6 v -1 z" style="fill:#ffb2bc;fill-opacity:1;stroke:#601136;stroke-width:1;stroke-linecap:round;stroke-opacity:1"/><text id="text4093" style="font-size:10px;font-family:sans-serif;text-anchor:start;fill:#000"><tspan id="tspan4091" x="13.333" y="13.833">8</tspan></text></g></g><g id="g4107" transform="translate(26.999997,72.421537)"><g id="g4105" transform="scale(1.5)"><path id="path4099" d="m 0.5,8.5 v -4 a 4,4 90 0 1 4,-4 h 4 v 2 h 10 v -2 h 20 4 a 4,4 90 0 1 4,4 v 4 4 4 a 4,4 90 0 1 -4,4 h -4 -20 -1 v 2 h -8 v -2 h -1 -4 a 4,4 90 0 1 -4,-4 v -4 z" style="fill:#d57e6f;fill-opacity:1;stroke:#000;stroke-width:1;stroke-linecap:round;stroke-opacity:1"/><text id="text4103" style="font-size:10px;font-family:sans-serif;text-anchor:end;fill:#000"><tspan id="tspan4101" x="36.333" y="13.5">↓</tspan></text></g></g><g id="g4125" transform="translate(26.999997,103.92154)"><g id="g4123" transform="scale(1.5)"><path id="path4109" d="m 0.5,8.5 v -4 a 4,4 90 0 1 4,-4 h 4 v 2 h 10 v -2 h 30 4 a 4,4 90 0 1 4,4 v 4 h -4 v -3 h -4 v 10 h 4 v -3 h 4 v 17 h -4 v -3 h -4 v 10 h 4 v -3 h 4 v 4 a 4,4 90 0 1 -4,4 h -4 -30 -1 v 2 h -8 v -2 h -1 -4 a 4,4 90 0 1 -4,-4 v -4 -21 z" style="fill:#93e042;fill-opacity:1;stroke:#004000;stroke-width:1;stroke-linecap:round;stroke-opacity:1"/><text id="text4113" style="font-size:10px;font-family:sans-serif;text-anchor:end;fill:#000"><tspan id="tspan4111" x="46.333" y="24">ピッチ</tspan></text><text id="text4117" style="font-size:6.66666651px;font-family:sans-serif;text-anchor:end;fill:#000"><tspan id="tspan4115" x="46.333" y="11.25">名前</tspan></text><text id="text4121" style="font-size:6.66666651px;font-family:sans-serif;text-anchor:end;fill:#000"><tspan id="tspan4119" x="46.333" y="32.25">オクターヴ</tspan></text></g></g><g id="g4135" transform="translate(100.5,103.92154)"><g id="g4133" transform="scale(1.5)"><path id="path4127" d="m 8.5,0.5 h 60 v 20 h -60 v -8 -1 h -6 v 3 h -2 v -8 h 2 v 3 h 6 v -1 z" style="fill:#93e042;fill-opacity:1;stroke:#004000;stroke-width:1;stroke-linecap:round;stroke-opacity:1"/><text id="text4131" style="font-size:10px;font-family:sans-serif;text-anchor:start;fill:#000"><tspan id="tspan4129" x="13.333" y="13.833">をするのは</tspan></text></g></g><g id="g4145" transform="translate(100.5,135.42154)"><g id="g4143" transform="scale(1.5)"><path id="path4137" d="m 8.5,0.5 h 60 v 20 h -60 v -8 -1 h -6 v 3 h -2 v -8 h 2 v 3 h 6 v -1 z" style="fill:#ffb2bc;fill-opacity:1;stroke:#601136;stroke-width:1;stroke-linecap:round;stroke-opacity:1"/><text id="text4141" style="font-size:10px;font-family:sans-serif;text-anchor:start;fill:#000"><tspan id="tspan4139" x="13.333" y="13.833">4</tspan></text></g></g><g id="g4159" transform="translate(26.999997,229.92154)"><g id="g4157" transform="scale(1.5)"><path id="path4147" d="m 0.5,8.5 v -4 a 4,4 90 0 1 4,-4 h 4 v 2 h 10 v -2 h 9 36.147461 4 a 4,4 90 0 1 4,4 v 4 h -4 v -3 h -4 v 10 h 4 v -3 h 4 v 4 a 4,4 90 0 1 -4,4 h -4 H 27.5 h -1 v 2 h -8 v -2 h -1 -4 a 5,5 90 0 0 -5,5 v 4 4 21 4 a 5,5 90 0 0 5,5 h 4 v 2 h 10 v -2 h 8 v 6 6 4 a 4,4 90 0 1 -4,4 h -4 -9 -1 v 2 h -8 v -2 h -1 -4 a 4,4 90 0 1 -4,-4 v -4 z" style="fill:#ff8b2d;fill-opacity:1;stroke:#520000;stroke-width:1;stroke-linecap:round;stroke-opacity:1"/><text id="text4151" style="font-size:10px;font-family:sans-serif;text-anchor:start;fill:#000"><tspan id="tspan4149" x="5.333" y="15.25">音価</tspan></text></g></g><g id="g4177" transform="translate(123.22119,229.92154)"><g id="g4175" transform="scale(1.5)"><path id="path4161" d="m 8.5,8.5 v -4 a 4,4 90 0 1 4,-4 h 4 10 30 4 a 4,4 90 0 1 4,4 v 4 h -4 v -3 h -4 v 10 h 4 v -3 h 4 v 17 h -4 v -3 h -4 v 10 h 4 v -3 h 4 v 4 a 4,4 90 0 1 -4,4 h -4 -30 -10 -4 a 4,4 90 0 1 -4,-4 v -4 -21 -1 h -6 v 3 h -2 v -8 h 2 v 3 h 6 z" style="fill:#ffb2bc;fill-opacity:1;stroke:#601136;stroke-width:1;stroke-linecap:round;stroke-opacity:1"/><text id="text4165" style="font-size:14px;font-family:sans-serif;text-anchor:end;fill:#000"><tspan id="tspan4163" x="54.333" y="23.8">/</tspan></text></g></g><g id="g4187" transform="translate(208.72119,229.92154)"><g id="g4185" transform="scale(1.5)"><path id="path4179" d="m 8.5,0.5 h 60 v 20 h -60 v -8 -1 h -6 v 3 h -2 v -8 h 2 v 3 h 6 v -1 z" style="fill:#ffb2bc;fill-opacity:1;stroke:#601136;stroke-width:1;stroke-linecap:round;stroke-opacity:1"/><text id="text4183" style="font-size:10px;font-family:sans-serif;text-anchor:start;fill:#000"><tspan id="tspan4181" x="13.333" y="13.833">1</tspan></text></g></g><g id="g4197" transform="translate(208.72119,261.42154)"><g id="g4195" transform="scale(1.5)"><path id="path4189" d="m 8.5,0.5 h 60 v 20 h -60 v -8 -1 h -6 v 3 h -2 v -8 h 2 v 3 h 6 v -1 z" style="fill:#ffb2bc;fill-opacity:1;stroke:#601136;stroke-width:1;stroke-linecap:round;stroke-opacity:1"/><text id="text4193" style="font-size:10px;font-family:sans-serif;text-anchor:start;fill:#000"><tspan id="tspan4191" x="13.333" y="13.833">8</tspan></text></g></g><g id="g4207" transform="translate(40.499997,261.42154)"><g id="g4205" transform="scale(1.5)"><path id="path4199" d="m 0.5,8.5 v -4 a 4,4 90 0 1 4,-4 h 4 v 2 h 10 v -2 h 20 4 a 4,4 90 0 1 4,4 v 4 4 4 a 4,4 90 0 1 -4,4 h -4 -20 -1 v 2 h -8 v -2 h -1 -4 a 4,4 90 0 1 -4,-4 v -4 z" style="fill:#d57e6f;fill-opacity:1;stroke:#000;stroke-width:1;stroke-linecap:round;stroke-opacity:1"/><text id="text4203" style="font-size:10px;font-family:sans-serif;text-anchor:end;fill:#000"><tspan id="tspan4201" x="36.333" y="13.5">↓</tspan></text></g></g><g id="g4221" transform="translate(40.499997,292.92154)"><g id="g4219" transform="scale(1.5)"><path id="path4209" d="m 0.5,8.5 v -4 a 4,4 90 0 1 4,-4 h 4 v 2 h 10 v -2 h 71.972656 4 a 4,4 90 0 1 4,4 v 4 h -4 v -3 h -4 v 10 h 4 v -3 h 4 v 4 a 4,4 90 0 1 -4,4 h -4 H 18.5 h -1 v 2 h -8 v -2 h -1 -4 a 4,4 90 0 1 -4,-4 v -4 z" style="fill:#93e042;fill-opacity:1;stroke:#004000;stroke-width:1;stroke-linecap:round;stroke-opacity:1"/><text id="text4213" style="font-size:10px;font-family:sans-serif;text-anchor:end;fill:#000"><tspan id="tspan4211" x="88.306" y="13.5">scalar step (+/–)</tspan></text></g></g><g id="g4231" transform="translate(176.95899,292.92154)"><g id="g4229" transform="scale(1.5)"><path id="path4223" d="m 8.5,0.5 h 60 v 20 h -60 v -8 -1 h -6 v 3 h -2 v -8 h 2 v 3 h 6 v -1 z" style="fill:#ffb2bc;fill-opacity:1;stroke:#601136;stroke-width:1;stroke-linecap:round;stroke-opacity:1"/><text id="text4227" style="font-size:10px;font-family:sans-serif;text-anchor:start;fill:#000"><tspan id="tspan4225" x="13.333" y="13.833">1</tspan></text></g></g><g id="g4245" transform="translate(13.499997,198.42154)"><g id="g4243" transform="scale(1.5)"><path id="path4233" d="m 0.5,8.5 v -4 a 4,4 90 0 1 4,-4 h 4 v 2 h 10 v -2 h 9 20 4 a 4,4 90 0 1 4,4 v 4 h -4 v -3 h -4 v 10 h 4 v -3 h 4 v 4 a 4,4 90 0 1 -4,4 h -4 -20 -1 v 2 h -8 v -2 h -1 -4 a 5,5 90 0 0 -5,5 v 4 4 63 4 a 5,5 90 0 0 5,5 h 4 v 2 h 10 v -2 h 8 v 6 6 4 a 4,4 90 0 1 -4,4 h -4 -9 -1 v 2 h -8 v -2 h -1 -4 a 4,4 90 0 1 -4,-4 v -4 z" style="fill:#e9a066;fill-opacity:1;stroke:#3f0a00;stroke-width:1;stroke-linecap:round;stroke-opacity:1"/><text id="text4237" style="font-size:10px;font-family:sans-serif;text-anchor:start;fill:#000"><tspan id="tspan4235" x="5.333" y="15.25">回繰り返す</tspan></text></g></g><g id="g4255" transform="translate(85.499997,198.42154)"><g id="g4253" transform="scale(1.5)"><path id="path4247" d="m 8.5,0.5 h 60 v 20 h -60 v -8 -1 h -6 v 3 h -2 v -8 h 2 v 3 h 6 v -1 z" style="fill:#ffb2bc;fill-opacity:1;stroke:#601136;stroke-width:1;stroke-linecap:round;stroke-opacity:1"/><text id="text4251" style="font-size:10px;font-family:sans-serif;text-anchor:start;fill:#000"><tspan id="tspan4249" x="13.333" y="13.833">7</tspan></text></g></g><g id="g4269" transform="translate(13.499997,387.42154)"><g id="g4267" transform="scale(1.5)"><path id="path4257" d="m 0.5,8.5 v -4 a 4,4 90 0 1 4,-4 h 4 v 2 h 10 v -2 h 9 20 4 a 4,4 90 0 1 4,4 v 4 h -4 v -3 h -4 v 10 h 4 v -3 h 4 v 4 a 4,4 90 0 1 -4,4 h -4 -20 -1 v 2 h -8 v -2 h -1 -4 a 5,5 90 0 0 -5,5 v 4 4 63 4 a 5,5 90 0 0 5,5 h 4 v 2 h 10 v -2 h 8 v 6 6 4 a 4,4 90 0 1 -4,4 h -4 -9 -1 v 2 h -8 v -2 h -1 -4 a 4,4 90 0 1 -4,-4 v -4 z" style="fill:#e9a066;fill-opacity:1;stroke:#3f0a00;stroke-width:1;stroke-linecap:round;stroke-opacity:1"/><text id="text4261" style="font-size:10px;font-family:sans-serif;text-anchor:start;fill:#000"><tspan id="tspan4259" x="5.333" y="15.25">回繰り返す</tspan></text></g></g><g id="g4279" transform="translate(85.499997,387.42154)"><g id="g4277" transform="scale(1.5)"><path id="path4271" d="m 8.5,0.5 h 60 v 20 h -60 v -8 -1 h -6 v 3 h -2 v -8 h 2 v 3 h 6 v -1 z" style="fill:#ffb2bc;fill-opacity:1;stroke:#601136;stroke-width:1;stroke-linecap:round;stroke-opacity:1"/><text id="text4275" style="font-size:10px;font-family:sans-serif;text-anchor:start;fill:#000"><tspan id="tspan4273" x="13.333" y="13.833">7</tspan></text></g></g><g id="g4293" transform="translate(26.999997,418.92154)"><g id="g4291" transform="scale(1.5)"><path id="path4281" d="m 0.5,8.5 v -4 a 4,4 90 0 1 4,-4 h 4 v 2 h 10 v -2 h 9 36.147461 4 a 4,4 90 0 1 4,4 v 4 h -4 v -3 h -4 v 10 h 4 v -3 h 4 v 4 a 4,4 90 0 1 -4,4 h -4 H 27.5 h -1 v 2 h -8 v -2 h -1 -4 a 5,5 90 0 0 -5,5 v 4 4 21 4 a 5,5 90 0 0 5,5 h 4 v 2 h 10 v -2 h 8 v 6 6 4 a 4,4 90 0 1 -4,4 h -4 -9 -1 v 2 h -8 v -2 h -1 -4 a 4,4 90 0 1 -4,-4 v -4 z" style="fill:#ff8b2d;fill-opacity:1;stroke:#520000;stroke-width:1;stroke-linecap:round;stroke-opacity:1"/><text id="text4285" style="font-size:10px;font-family:sans-serif;text-anchor:start;fill:#000"><tspan id="tspan4283" x="5.333" y="15.25">音価</tspan></text></g></g><g id="g4311" transform="translate(123.22119,418.92154)"><g id="g4309" transform="scale(1.5)"><path id="path4295" d="m 8.5,8.5 v -4 a 4,4 90 0 1 4,-4 h 4 10 30 4 a 4,4 90 0 1 4,4 v 4 h -4 v -3 h -4 v 10 h 4 v -3 h 4 v 17 h -4 v -3 h -4 v 10 h 4 v -3 h 4 v 4 a 4,4 90 0 1 -4,4 h -4 -30 -10 -4 a 4,4 90 0 1 -4,-4 v -4 -21 -1 h -6 v 3 h -2 v -8 h 2 v 3 h 6 z" style="fill:#ffb2bc;fill-opacity:1;stroke:#601136;stroke-width:1;stroke-linecap:round;stroke-opacity:1"/><text id="text4299" style="font-size:14px;font-family:sans-serif;text-anchor:end;fill:#000"><tspan id="tspan4297" x="54.333" y="23.8">/</tspan></text></g></g><g id="g4321" transform="translate(208.72119,418.92154)"><g id="g4319" transform="scale(1.5)"><path id="path4313" d="m 8.5,0.5 h 60 v 20 h -60 v -8 -1 h -6 v 3 h -2 v -8 h 2 v 3 h 6 v -1 z" style="fill:#ffb2bc;fill-opacity:1;stroke:#601136;stroke-width:1;stroke-linecap:round;stroke-opacity:1"/><text id="text4317" style="font-size:10px;font-family:sans-serif;text-anchor:start;fill:#000"><tspan id="tspan4315" x="13.333" y="13.833">1</tspan></text></g></g><g id="g4331" transform="translate(208.72119,450.42154)"><g id="g4329" transform="scale(1.5)"><path id="path4323" d="m 8.5,0.5 h 60 v 20 h -60 v -8 -1 h -6 v 3 h -2 v -8 h 2 v 3 h 6 v -1 z" style="fill:#ffb2bc;fill-opacity:1;stroke:#601136;stroke-width:1;stroke-linecap:round;stroke-opacity:1"/><text id="text4327" style="font-size:10px;font-family:sans-serif;text-anchor:start;fill:#000"><tspan id="tspan4325" x="13.333" y="13.833">8</tspan></text></g></g><g id="g4341" transform="translate(40.499997,450.42154)"><g id="g4339" transform="scale(1.5)"><path id="path4333" d="m 0.5,8.5 v -4 a 4,4 90 0 1 4,-4 h 4 v 2 h 10 v -2 h 20 4 a 4,4 90 0 1 4,4 v 4 4 4 a 4,4 90 0 1 -4,4 h -4 -20 -1 v 2 h -8 v -2 h -1 -4 a 4,4 90 0 1 -4,-4 v -4 z" style="fill:#d57e6f;fill-opacity:1;stroke:#000;stroke-width:1;stroke-linecap:round;stroke-opacity:1"/><text id="text4337" style="font-size:10px;font-family:sans-serif;text-anchor:end;fill:#000"><tspan id="tspan4335" x="36.333" y="13.5">↓</tspan></text></g></g><g id="g4355" transform="translate(40.499997,481.92154)"><g id="g4353" transform="scale(1.5)"><path id="path4343" d="m 0.5,8.5 v -4 a 4,4 90 0 1 4,-4 h 4 v 2 h 10 v -2 h 71.972656 4 a 4,4 90 0 1 4,4 v 4 h -4 v -3 h -4 v 10 h 4 v -3 h 4 v 4 a 4,4 90 0 1 -4,4 h -4 H 18.5 h -1 v 2 h -8 v -2 h -1 -4 a 4,4 90 0 1 -4,-4 v -4 z" style="fill:#93e042;fill-opacity:1;stroke:#004000;stroke-width:1;stroke-linecap:round;stroke-opacity:1"/><text id="text4347" style="font-size:10px;font-family:sans-serif;text-anchor:end;fill:#000"><tspan id="tspan4345" x="88.306" y="13.5">scalar step (+/–)</tspan></text></g></g><g id="g4365" transform="translate(176.95899,481.92154)"><g id="g4363" transform="scale(1.5)"><path id="path4357" d="m 8.5,0.5 h 60 v 20 h -60 v -8 -1 h -6 v 3 h -2 v -8 h 2 v 3 h 6 v -1 z" style="fill:#ffb2bc;fill-opacity:1;stroke:#601136;stroke-width:1;stroke-linecap:round;stroke-opacity:1"/><text id="text4361" style="font-size:10px;font-family:sans-serif;text-anchor:start;fill:#000"><tspan id="tspan4359" x="13.333" y="13.833">-1</tspan></text></g></g></svg>