<svg xmlns="http://www.w3.org/2000/svg" xmlns:svg="http://www.w3.org/2000/svg" id="svg2630" width="312.221" height="680.343" version="1.1"><metadata id="metadata2636"/><g id="g2270" transform="translate(-3.3333333e-6,0.42153745)"><g id="g2268" transform="scale(1.5)"><path id="path2262" d="m 0.5,14.5 v -4 a 4,4 90 0 1 4,-4 h 4 l 5,-6 5,6 h 9 30 4 a 4,4 90 0 1 4,4 v 4 4 4 a 4,4 90 0 1 -4,4 h -4 -30 -1 v 2 h -8 v -2 h -1 -4 a 5,5 90 0 0 -5,5 v 4 4 378 4 a 5,5 90 0 0 5,5 h 4 v 2 h 10 v -2 h 8 v 6 6 4 a 4,4 90 0 1 -4,4 h -4 -9 l -5,6 -5,-6 h -4 a 4,4 90 0 1 -4,-4 v -4 z" style="fill:#ffe05c;fill-opacity:1;stroke:#644300;stroke-width:1;stroke-linecap:round;stroke-opacity:1"/><text id="text2266" style="font-size:10px;font-family:sans-serif;text-anchor:start;fill:#000"><tspan id="tspan2264" x="5.333" y="21.5">スタート</tspan></text></g></g><g id="g2284" transform="translate(26.999997,292.92154)"><g id="g2282" transform="scale(1.5)"><path id="path2272" d="m 0.5,8.5 v -4 a 4,4 90 0 1 4,-4 h 4 v 2 h 10 v -2 h 9 36.147461 4 a 4,4 90 0 1 4,4 v 4 h -4 v -3 h -4 v 10 h 4 v -3 h 4 v 4 a 4,4 90 0 1 -4,4 h -4 H 27.5 h -1 v 2 h -8 v -2 h -1 -4 a 5,5 90 0 0 -5,5 v 4 4 21 4 a 5,5 90 0 0 5,5 h 4 v 2 h 10 v -2 h 8 v 6 6 4 a 4,4 90 0 1 -4,4 h -4 -9 -1 v 2 h -8 v -2 h -1 -4 a 4,4 90 0 1 -4,-4 v -4 z" style="fill:#ff8b2d;fill-opacity:1;stroke:#520000;stroke-width:1;stroke-linecap:round;stroke-opacity:1"/><text id="text2276" style="font-size:10px;font-family:sans-serif;text-anchor:start;fill:#000"><tspan id="tspan2274" x="5.333" y="15.25">音価</tspan></text></g></g><g id="g2302" transform="translate(123.22119,292.92154)"><g id="g2300" transform="scale(1.5)"><path id="path2286" d="m 8.5,8.5 v -4 a 4,4 90 0 1 4,-4 h 4 10 30 4 a 4,4 90 0 1 4,4 v 4 h -4 v -3 h -4 v 10 h 4 v -3 h 4 v 17 h -4 v -3 h -4 v 10 h 4 v -3 h 4 v 4 a 4,4 90 0 1 -4,4 h -4 -30 -10 -4 a 4,4 90 0 1 -4,-4 v -4 -21 -1 h -6 v 3 h -2 v -8 h 2 v 3 h 6 z" style="fill:#ffb2bc;fill-opacity:1;stroke:#601136;stroke-width:1;stroke-linecap:round;stroke-opacity:1"/><text id="text2290" style="font-size:14px;font-family:sans-serif;text-anchor:end;fill:#000"><tspan id="tspan2288" x="54.333" y="23.8">/</tspan></text></g></g><g id="g2312" transform="translate(208.72119,292.92154)"><g id="g2310" transform="scale(1.5)"><path id="path2304" d="m 8.5,0.5 h 60 v 20 h -60 v -8 -1 h -6 v 3 h -2 v -8 h 2 v 3 h 6 v -1 z" style="fill:#ffb2bc;fill-opacity:1;stroke:#601136;stroke-width:1;stroke-linecap:round;stroke-opacity:1"/><text id="text2308" style="font-size:10px;font-family:sans-serif;text-anchor:start;fill:#000"><tspan id="tspan2306" x="13.333" y="13.833">1</tspan></text></g></g><g id="g2322" transform="translate(208.72119,324.42154)"><g id="g2320" transform="scale(1.5)"><path id="path2314" d="m 8.5,0.5 h 60 v 20 h -60 v -8 -1 h -6 v 3 h -2 v -8 h 2 v 3 h 6 v -1 z" style="fill:#ffb2bc;fill-opacity:1;stroke:#601136;stroke-width:1;stroke-linecap:round;stroke-opacity:1"/><text id="text2318" style="font-size:10px;font-family:sans-serif;text-anchor:start;fill:#000"><tspan id="tspan2316" x="13.333" y="13.833">8</tspan></text></g></g><g id="g2332" transform="translate(40.499997,324.42154)"><g id="g2330" transform="scale(1.5)"><path id="path2324" d="m 0.5,8.5 v -4 a 4,4 90 0 1 4,-4 h 4 v 2 h 10 v -2 h 20 4 a 4,4 90 0 1 4,4 v 4 4 4 a 4,4 90 0 1 -4,4 h -4 -20 -1 v 2 h -8 v -2 h -1 -4 a 4,4 90 0 1 -4,-4 v -4 z" style="fill:#d57e6f;fill-opacity:1;stroke:#000;stroke-width:1;stroke-linecap:round;stroke-opacity:1"/><text id="text2328" style="font-size:10px;font-family:sans-serif;text-anchor:end;fill:#000"><tspan id="tspan2326" x="36.333" y="13.5">↓</tspan></text></g></g><g id="g2346" transform="translate(13.499997,103.92154)"><g id="g2344" transform="scale(1.5)"><path id="path2334" d="m 0.5,8.5 v -4 a 4,4 90 0 1 4,-4 h 4 v 2 h 10 v -2 h 9 36.147461 4 a 4,4 90 0 1 4,4 v 4 h -4 v -3 h -4 v 10 h 4 v -3 h 4 v 4 a 4,4 90 0 1 -4,4 h -4 H 27.5 h -1 v 2 h -8 v -2 h -1 -4 a 5,5 90 0 0 -5,5 v 4 4 42 4 a 5,5 90 0 0 5,5 h 4 v 2 h 10 v -2 h 8 v 6 6 4 a 4,4 90 0 1 -4,4 h -4 -9 -1 v 2 h -8 v -2 h -1 -4 a 4,4 90 0 1 -4,-4 v -4 z" style="fill:#ff8b2d;fill-opacity:1;stroke:#520000;stroke-width:1;stroke-linecap:round;stroke-opacity:1"/><text id="text2338" style="font-size:10px;font-family:sans-serif;text-anchor:start;fill:#000"><tspan id="tspan2336" x="5.333" y="15.25">音価</tspan></text></g></g><g id="g2364" transform="translate(109.72119,103.92154)"><g id="g2362" transform="scale(1.5)"><path id="path2348" d="m 8.5,8.5 v -4 a 4,4 90 0 1 4,-4 h 4 10 30 4 a 4,4 90 0 1 4,4 v 4 h -4 v -3 h -4 v 10 h 4 v -3 h 4 v 17 h -4 v -3 h -4 v 10 h 4 v -3 h 4 v 4 a 4,4 90 0 1 -4,4 h -4 -30 -10 -4 a 4,4 90 0 1 -4,-4 v -4 -21 -1 h -6 v 3 h -2 v -8 h 2 v 3 h 6 z" style="fill:#ffb2bc;fill-opacity:1;stroke:#601136;stroke-width:1;stroke-linecap:round;stroke-opacity:1"/><text id="text2352" style="font-size:14px;font-family:sans-serif;text-anchor:end;fill:#000"><tspan id="tspan2350" x="54.333" y="23.8">/</tspan></text></g></g><g id="g2374" transform="translate(195.22119,103.92154)"><g id="g2372" transform="scale(1.5)"><path id="path2366" d="m 8.5,0.5 h 60 v 20 h -60 v -8 -1 h -6 v 3 h -2 v -8 h 2 v 3 h 6 v -1 z" style="fill:#ffb2bc;fill-opacity:1;stroke:#601136;stroke-width:1;stroke-linecap:round;stroke-opacity:1"/><text id="text2370" style="font-size:10px;font-family:sans-serif;text-anchor:start;fill:#000"><tspan id="tspan2368" x="13.333" y="13.833">1</tspan></text></g></g><g id="g2384" transform="translate(195.22119,135.42154)"><g id="g2382" transform="scale(1.5)"><path id="path2376" d="m 8.5,0.5 h 60 v 20 h -60 v -8 -1 h -6 v 3 h -2 v -8 h 2 v 3 h 6 v -1 z" style="fill:#ffb2bc;fill-opacity:1;stroke:#601136;stroke-width:1;stroke-linecap:round;stroke-opacity:1"/><text id="text2380" style="font-size:10px;font-family:sans-serif;text-anchor:start;fill:#000"><tspan id="tspan2378" x="13.333" y="13.833">8</tspan></text></g></g><g id="g2394" transform="translate(26.999997,135.42154)"><g id="g2392" transform="scale(1.5)"><path id="path2386" d="m 0.5,8.5 v -4 a 4,4 90 0 1 4,-4 h 4 v 2 h 10 v -2 h 20 4 a 4,4 90 0 1 4,4 v 4 4 4 a 4,4 90 0 1 -4,4 h -4 -20 -1 v 2 h -8 v -2 h -1 -4 a 4,4 90 0 1 -4,-4 v -4 z" style="fill:#d57e6f;fill-opacity:1;stroke:#000;stroke-width:1;stroke-linecap:round;stroke-opacity:1"/><text id="text2390" style="font-size:10px;font-family:sans-serif;text-anchor:end;fill:#000"><tspan id="tspan2388" x="36.333" y="13.5">↓</tspan></text></g></g><g id="g2412" transform="translate(26.999997,166.92154)"><g id="g2410" transform="scale(1.5)"><path id="path2396" d="m 0.5,8.5 v -4 a 4,4 90 0 1 4,-4 h 4 v 2 h 10 v -2 h 30 4 a 4,4 90 0 1 4,4 v 4 h -4 v -3 h -4 v 10 h 4 v -3 h 4 v 17 h -4 v -3 h -4 v 10 h 4 v -3 h 4 v 4 a 4,4 90 0 1 -4,4 h -4 -30 -1 v 2 h -8 v -2 h -1 -4 a 4,4 90 0 1 -4,-4 v -4 -21 z" style="fill:#93e042;fill-opacity:1;stroke:#004000;stroke-width:1;stroke-linecap:round;stroke-opacity:1"/><text id="text2400" style="font-size:10px;font-family:sans-serif;text-anchor:end;fill:#000"><tspan id="tspan2398" x="46.333" y="24">ピッチ</tspan></text><text id="text2404" style="font-size:6.66666651px;font-family:sans-serif;text-anchor:end;fill:#000"><tspan id="tspan2402" x="46.333" y="11.25">名前</tspan></text><text id="text2408" style="font-size:6.66666651px;font-family:sans-serif;text-anchor:end;fill:#000"><tspan id="tspan2406" x="46.333" y="32.25">オクターヴ</tspan></text></g></g><g id="g2422" transform="translate(100.5,166.92154)"><g id="g2420" transform="scale(1.5)"><path id="path2414" d="m 8.5,0.5 h 60 v 20 h -60 v -8 -1 h -6 v 3 h -2 v -8 h 2 v 3 h 6 v -1 z" style="fill:#93e042;fill-opacity:1;stroke:#004000;stroke-width:1;stroke-linecap:round;stroke-opacity:1"/><text id="text2418" style="font-size:10px;font-family:sans-serif;text-anchor:start;fill:#000"><tspan id="tspan2416" x="13.333" y="13.833">をするのは</tspan></text></g></g><g id="g2432" transform="translate(100.5,198.42154)"><g id="g2430" transform="scale(1.5)"><path id="path2424" d="m 8.5,0.5 h 60 v 20 h -60 v -8 -1 h -6 v 3 h -2 v -8 h 2 v 3 h 6 v -1 z" style="fill:#ffb2bc;fill-opacity:1;stroke:#601136;stroke-width:1;stroke-linecap:round;stroke-opacity:1"/><text id="text2428" style="font-size:10px;font-family:sans-serif;text-anchor:start;fill:#000"><tspan id="tspan2426" x="13.333" y="13.833">4</tspan></text></g></g><g id="g2450" transform="translate(13.499997,40.921537)"><g id="g2448" transform="scale(1.5)"><path id="path2434" d="m 0.5,8.5 v -4 a 4,4 90 0 1 4,-4 h 4 v 2 h 10 v -2 h 31.679687 4 a 4,4 90 0 1 4,4 v 4 h -4 v -3 h -4 v 10 h 4 v -3 h 4 v 17 h -4 v -3 h -4 v 10 h 4 v -3 h 4 v 4 a 4,4 90 0 1 -4,4 h -4 H 18.5 h -1 v 2 h -8 v -2 h -1 -4 a 4,4 90 0 1 -4,-4 v -4 -21 z" style="fill:#3ea4a3;fill-opacity:1;stroke:#000;stroke-width:1;stroke-linecap:round;stroke-opacity:1"/><text id="text2438" style="font-size:10px;font-family:sans-serif;text-anchor:end;fill:#000"><tspan id="tspan2436" x="48.013" y="24">調の設定</tspan></text><text id="text2442" style="font-size:6.66666651px;font-family:sans-serif;text-anchor:end;fill:#000"><tspan id="tspan2440" x="48.013" y="11.25">調</tspan></text><text id="text2446" style="font-size:6.66666651px;font-family:sans-serif;text-anchor:end;fill:#000"><tspan id="tspan2444" x="48.013" y="32.25">モード(旋法)</tspan></text></g></g><g id="g2460" transform="translate(89.519527,40.921537)"><g id="g2458" transform="scale(1.5)"><path id="path2452" d="m 8.5,0.5 h 60 v 20 h -60 v -8 -1 h -6 v 3 h -2 v -8 h 2 v 3 h 6 v -1 z" style="fill:#93e042;fill-opacity:1;stroke:#004000;stroke-width:1;stroke-linecap:round;stroke-opacity:1"/><text id="text2456" style="font-size:10px;font-family:sans-serif;text-anchor:start;fill:#000"><tspan id="tspan2454" x="13.333" y="13.833">C</tspan></text></g></g><g id="g2470" transform="translate(89.519527,72.421537)"><g id="g2468" transform="scale(1.5)"><path id="path2462" d="m 8.5,0.5 h 60 v 20 h -60 v -8 -1 h -6 v 3 h -2 v -8 h 2 v 3 h 6 v -1 z" style="fill:#93e042;fill-opacity:1;stroke:#004000;stroke-width:1;stroke-linecap:round;stroke-opacity:1"/><text id="text2466" style="font-size:10px;font-family:sans-serif;text-anchor:start;fill:#000"><tspan id="tspan2464" x="13.333" y="13.833">メジャー</tspan></text></g></g><g id="g2484" transform="translate(13.499997,261.42154)"><g id="g2482" transform="scale(1.5)"><path id="path2472" d="m 0.5,8.5 v -4 a 4,4 90 0 1 4,-4 h 4 v 2 h 10 v -2 h 9 20 4 a 4,4 90 0 1 4,4 v 4 h -4 v -3 h -4 v 10 h 4 v -3 h 4 v 4 a 4,4 90 0 1 -4,4 h -4 -20 -1 v 2 h -8 v -2 h -1 -4 a 5,5 90 0 0 -5,5 v 4 4 63 4 a 5,5 90 0 0 5,5 h 4 v 2 h 10 v -2 h 8 v 6 6 4 a 4,4 90 0 1 -4,4 h -4 -9 -1 v 2 h -8 v -2 h -1 -4 a 4,4 90 0 1 -4,-4 v -4 z" style="fill:#e9a066;fill-opacity:1;stroke:#3f0a00;stroke-width:1;stroke-linecap:round;stroke-opacity:1"/><text id="text2476" style="font-size:10px;font-family:sans-serif;text-anchor:start;fill:#000"><tspan id="tspan2474" x="5.333" y="15.25">回繰り返す</tspan></text></g></g><g id="g2494" transform="translate(85.499997,261.42154)"><g id="g2492" transform="scale(1.5)"><path id="path2486" d="m 8.5,0.5 h 60 v 20 h -60 v -8 -1 h -6 v 3 h -2 v -8 h 2 v 3 h 6 v -1 z" style="fill:#ffb2bc;fill-opacity:1;stroke:#601136;stroke-width:1;stroke-linecap:round;stroke-opacity:1"/><text id="text2490" style="font-size:10px;font-family:sans-serif;text-anchor:start;fill:#000"><tspan id="tspan2488" x="13.333" y="13.833">7</tspan></text></g></g><g id="g2508" transform="translate(40.499997,355.92154)"><g id="g2506" transform="scale(1.5)"><path id="path2496" d="m 0.5,8.5 v -4 a 4,4 90 0 1 4,-4 h 4 v 2 h 10 v -2 h 71.972656 4 a 4,4 90 0 1 4,4 v 4 h -4 v -3 h -4 v 10 h 4 v -3 h 4 v 4 a 4,4 90 0 1 -4,4 h -4 H 18.5 h -1 v 2 h -8 v -2 h -1 -4 a 4,4 90 0 1 -4,-4 v -4 z" style="fill:#93e042;fill-opacity:1;stroke:#004000;stroke-width:1;stroke-linecap:round;stroke-opacity:1"/><text id="text2500" style="font-size:10px;font-family:sans-serif;text-anchor:end;fill:#000"><tspan id="tspan2498" x="88.306" y="13.5">scalar step (+/–)</tspan></text></g></g><g id="g2518" transform="translate(176.95899,355.92154)"><g id="g2516" transform="scale(1.5)"><path id="path2510" d="m 8.5,0.5 h 60 v 20 h -60 v -8 -1 h -6 v 3 h -2 v -8 h 2 v 3 h 6 v -1 z" style="fill:#ffb2bc;fill-opacity:1;stroke:#601136;stroke-width:1;stroke-linecap:round;stroke-opacity:1"/><text id="text2514" style="font-size:10px;font-family:sans-serif;text-anchor:start;fill:#000"><tspan id="tspan2512" x="13.333" y="13.833">1</tspan></text></g></g><g id="g2532" transform="translate(13.499997,450.42154)"><g id="g2530" transform="scale(1.5)"><path id="path2520" d="m 0.5,8.5 v -4 a 4,4 90 0 1 4,-4 h 4 v 2 h 10 v -2 h 9 20 4 a 4,4 90 0 1 4,4 v 4 h -4 v -3 h -4 v 10 h 4 v -3 h 4 v 4 a 4,4 90 0 1 -4,4 h -4 -20 -1 v 2 h -8 v -2 h -1 -4 a 5,5 90 0 0 -5,5 v 4 4 63 4 a 5,5 90 0 0 5,5 h 4 v 2 h 10 v -2 h 8 v 6 6 4 a 4,4 90 0 1 -4,4 h -4 -9 -1 v 2 h -8 v -2 h -1 -4 a 4,4 90 0 1 -4,-4 v -4 z" style="fill:#e9a066;fill-opacity:1;stroke:#3f0a00;stroke-width:1;stroke-linecap:round;stroke-opacity:1"/><text id="text2524" style="font-size:10px;font-family:sans-serif;text-anchor:start;fill:#000"><tspan id="tspan2522" x="5.333" y="15.25">回繰り返す</tspan></text></g></g><g id="g2542" transform="translate(85.499997,450.42154)"><g id="g2540" transform="scale(1.5)"><path id="path2534" d="m 8.5,0.5 h 60 v 20 h -60 v -8 -1 h -6 v 3 h -2 v -8 h 2 v 3 h 6 v -1 z" style="fill:#ffb2bc;fill-opacity:1;stroke:#601136;stroke-width:1;stroke-linecap:round;stroke-opacity:1"/><text id="text2538" style="font-size:10px;font-family:sans-serif;text-anchor:start;fill:#000"><tspan id="tspan2536" x="13.333" y="13.833">7</tspan></text></g></g><g id="g2556" transform="translate(26.999997,481.92154)"><g id="g2554" transform="scale(1.5)"><path id="path2544" d="m 0.5,8.5 v -4 a 4,4 90 0 1 4,-4 h 4 v 2 h 10 v -2 h 9 36.147461 4 a 4,4 90 0 1 4,4 v 4 h -4 v -3 h -4 v 10 h 4 v -3 h 4 v 4 a 4,4 90 0 1 -4,4 h -4 H 27.5 h -1 v 2 h -8 v -2 h -1 -4 a 5,5 90 0 0 -5,5 v 4 4 21 4 a 5,5 90 0 0 5,5 h 4 v 2 h 10 v -2 h 8 v 6 6 4 a 4,4 90 0 1 -4,4 h -4 -9 -1 v 2 h -8 v -2 h -1 -4 a 4,4 90 0 1 -4,-4 v -4 z" style="fill:#ff8b2d;fill-opacity:1;stroke:#520000;stroke-width:1;stroke-linecap:round;stroke-opacity:1"/><text id="text2548" style="font-size:10px;font-family:sans-serif;text-anchor:start;fill:#000"><tspan id="tspan2546" x="5.333" y="15.25">音価</tspan></text></g></g><g id="g2574" transform="translate(123.22119,481.92154)"><g id="g2572" transform="scale(1.5)"><path id="path2558" d="m 8.5,8.5 v -4 a 4,4 90 0 1 4,-4 h 4 10 30 4 a 4,4 90 0 1 4,4 v 4 h -4 v -3 h -4 v 10 h 4 v -3 h 4 v 17 h -4 v -3 h -4 v 10 h 4 v -3 h 4 v 4 a 4,4 90 0 1 -4,4 h -4 -30 -10 -4 a 4,4 90 0 1 -4,-4 v -4 -21 -1 h -6 v 3 h -2 v -8 h 2 v 3 h 6 z" style="fill:#ffb2bc;fill-opacity:1;stroke:#601136;stroke-width:1;stroke-linecap:round;stroke-opacity:1"/><text id="text2562" style="font-size:14px;font-family:sans-serif;text-anchor:end;fill:#000"><tspan id="tspan2560" x="54.333" y="23.8">/</tspan></text></g></g><g id="g2584" transform="translate(208.72119,481.92154)"><g id="g2582" transform="scale(1.5)"><path id="path2576" d="m 8.5,0.5 h 60 v 20 h -60 v -8 -1 h -6 v 3 h -2 v -8 h 2 v 3 h 6 v -1 z" style="fill:#ffb2bc;fill-opacity:1;stroke:#601136;stroke-width:1;stroke-linecap:round;stroke-opacity:1"/><text id="text2580" style="font-size:10px;font-family:sans-serif;text-anchor:start;fill:#000"><tspan id="tspan2578" x="13.333" y="13.833">1</tspan></text></g></g><g id="g2594" transform="translate(208.72119,513.42154)"><g id="g2592" transform="scale(1.5)"><path id="path2586" d="m 8.5,0.5 h 60 v 20 h -60 v -8 -1 h -6 v 3 h -2 v -8 h 2 v 3 h 6 v -1 z" style="fill:#ffb2bc;fill-opacity:1;stroke:#601136;stroke-width:1;stroke-linecap:round;stroke-opacity:1"/><text id="text2590" style="font-size:10px;font-family:sans-serif;text-anchor:start;fill:#000"><tspan id="tspan2588" x="13.333" y="13.833">4</tspan></text></g></g><g id="g2604" transform="translate(40.499997,513.42154)"><g id="g2602" transform="scale(1.5)"><path id="path2596" d="m 0.5,8.5 v -4 a 4,4 90 0 1 4,-4 h 4 v 2 h 10 v -2 h 20 4 a 4,4 90 0 1 4,4 v 4 4 4 a 4,4 90 0 1 -4,4 h -4 -20 -1 v 2 h -8 v -2 h -1 -4 a 4,4 90 0 1 -4,-4 v -4 z" style="fill:#d57e6f;fill-opacity:1;stroke:#000;stroke-width:1;stroke-linecap:round;stroke-opacity:1"/><text id="text2600" style="font-size:10px;font-family:sans-serif;text-anchor:end;fill:#000"><tspan id="tspan2598" x="36.333" y="13.5">↓</tspan></text></g></g><g id="g2618" transform="translate(40.499997,544.92154)"><g id="g2616" transform="scale(1.5)"><path id="path2606" d="m 0.5,8.5 v -4 a 4,4 90 0 1 4,-4 h 4 v 2 h 10 v -2 h 71.972656 4 a 4,4 90 0 1 4,4 v 4 h -4 v -3 h -4 v 10 h 4 v -3 h 4 v 4 a 4,4 90 0 1 -4,4 h -4 H 18.5 h -1 v 2 h -8 v -2 h -1 -4 a 4,4 90 0 1 -4,-4 v -4 z" style="fill:#93e042;fill-opacity:1;stroke:#004000;stroke-width:1;stroke-linecap:round;stroke-opacity:1"/><text id="text2610" style="font-size:10px;font-family:sans-serif;text-anchor:end;fill:#000"><tspan id="tspan2608" x="88.306" y="13.5">scalar step (+/–)</tspan></text></g></g><g id="g2628" transform="translate(176.95899,544.92154)"><g id="g2626" transform="scale(1.5)"><path id="path2620" d="m 8.5,0.5 h 60 v 20 h -60 v -8 -1 h -6 v 3 h -2 v -8 h 2 v 3 h 6 v -1 z" style="fill:#ffb2bc;fill-opacity:1;stroke:#601136;stroke-width:1;stroke-linecap:round;stroke-opacity:1"/><text id="text2624" style="font-size:10px;font-family:sans-serif;text-anchor:start;fill:#000"><tspan id="tspan2622" x="13.333" y="13.833">-1</tspan></text></g></g></svg>