<svg xmlns="http://www.w3.org/2000/svg" xmlns:svg="http://www.w3.org/2000/svg" id="svg6134" width="626.721" height="540.5" version="1.1"><metadata id="metadata6140"/><g id="g5498" transform="translate(328)"><g id="g5496" transform="scale(1.5)"><path id="path5486" d="m 0.5,8.5 v -4 a 4,4 90 0 1 4,-4 h 4 v 2 h 10 v -2 h 9 30.029297 4 a 4,4 90 0 1 4,4 v 4 h -4 v -3 h -4 v 10 h 4 v -3 h 4 v 4 a 4,4 90 0 1 -4,4 h -4 H 27.5 h -1 v 2 h -8 v -2 h -1 -4 a 5,5 90 0 0 -5,5 v 4 4 294 4 a 5,5 90 0 0 5,5 h 4 v 2 h 10 v -2 h 8 v 6 6 4 a 4,4 90 0 1 -4,4 h -4 -9 -1 v 2 h -8 v -2 h -1 -4 a 4,4 90 0 1 -4,-4 v -4 z" style="fill:#ff8b2d;fill-opacity:1;stroke:#520000;stroke-width:1;stroke-linecap:round;stroke-opacity:1"/><text id="text5490" style="font-size:10px;font-family:sans-serif;text-anchor:start;fill:#000"><tspan id="tspan5488" x="5.333" y="15.25">重に</tspan></text></g></g><g id="g5508" transform="translate(415.04395)"><g id="g5506" transform="scale(1.5)"><path id="path5500" d="m 8.5,0.5 h 60 v 20 h -60 v -8 -1 h -6 v 3 h -2 v -8 h 2 v 3 h 6 v -1 z" style="fill:#ffb2bc;fill-opacity:1;stroke:#601136;stroke-width:1;stroke-linecap:round;stroke-opacity:1"/><text id="text5504" style="font-size:10px;font-family:sans-serif;text-anchor:start;fill:#000"><tspan id="tspan5502" x="13.333" y="13.833">4</tspan></text></g></g><g id="g5522" transform="translate(341.5,31.5)"><g id="g5520" transform="scale(1.5)"><path id="path5510" d="m 0.5,8.5 v -4 a 4,4 90 0 1 4,-4 h 4 v 2 h 10 v -2 h 9 36.147461 4 a 4,4 90 0 1 4,4 v 4 h -4 v -3 h -4 v 10 h 4 v -3 h 4 v 4 a 4,4 90 0 1 -4,4 h -4 H 27.5 h -1 v 2 h -8 v -2 h -1 -4 a 5,5 90 0 0 -5,5 v 4 4 42 4 a 5,5 90 0 0 5,5 h 4 v 2 h 10 v -2 h 8 v 6 6 4 a 4,4 90 0 1 -4,4 h -4 -9 -1 v 2 h -8 v -2 h -1 -4 a 4,4 90 0 1 -4,-4 v -4 z" style="fill:#ff8b2d;fill-opacity:1;stroke:#520000;stroke-width:1;stroke-linecap:round;stroke-opacity:1"/><text id="text5514" style="font-size:10px;font-family:sans-serif;text-anchor:start;fill:#000"><tspan id="tspan5512" x="5.333" y="15.25">音価</tspan></text></g></g><g id="g5540" transform="translate(437.72119,31.5)"><g id="g5538" transform="scale(1.5)"><path id="path5524" d="m 8.5,8.5 v -4 a 4,4 90 0 1 4,-4 h 4 10 30 4 a 4,4 90 0 1 4,4 v 4 h -4 v -3 h -4 v 10 h 4 v -3 h 4 v 17 h -4 v -3 h -4 v 10 h 4 v -3 h 4 v 4 a 4,4 90 0 1 -4,4 h -4 -30 -10 -4 a 4,4 90 0 1 -4,-4 v -4 -21 -1 h -6 v 3 h -2 v -8 h 2 v 3 h 6 z" style="fill:#ffb2bc;fill-opacity:1;stroke:#601136;stroke-width:1;stroke-linecap:round;stroke-opacity:1"/><text id="text5528" style="font-size:14px;font-family:sans-serif;text-anchor:end;fill:#000"><tspan id="tspan5526" x="54.333" y="23.8">/</tspan></text></g></g><g id="g5550" transform="translate(523.22119,31.5)"><g id="g5548" transform="scale(1.5)"><path id="path5542" d="m 8.5,0.5 h 60 v 20 h -60 v -8 -1 h -6 v 3 h -2 v -8 h 2 v 3 h 6 v -1 z" style="fill:#ffb2bc;fill-opacity:1;stroke:#601136;stroke-width:1;stroke-linecap:round;stroke-opacity:1"/><text id="text5546" style="font-size:10px;font-family:sans-serif;text-anchor:start;fill:#000"><tspan id="tspan5544" x="13.333" y="13.833">1</tspan></text></g></g><g id="g5560" transform="translate(523.22119,63)"><g id="g5558" transform="scale(1.5)"><path id="path5552" d="m 8.5,0.5 h 60 v 20 h -60 v -8 -1 h -6 v 3 h -2 v -8 h 2 v 3 h 6 v -1 z" style="fill:#ffb2bc;fill-opacity:1;stroke:#601136;stroke-width:1;stroke-linecap:round;stroke-opacity:1"/><text id="text5556" style="font-size:10px;font-family:sans-serif;text-anchor:start;fill:#000"><tspan id="tspan5554" x="13.333" y="13.833">4</tspan></text></g></g><g id="g5570" transform="translate(355,63)"><g id="g5568" transform="scale(1.5)"><path id="path5562" d="m 0.5,8.5 v -4 a 4,4 90 0 1 4,-4 h 4 v 2 h 10 v -2 h 20 4 a 4,4 90 0 1 4,4 v 4 4 4 a 4,4 90 0 1 -4,4 h -4 -20 -1 v 2 h -8 v -2 h -1 -4 a 4,4 90 0 1 -4,-4 v -4 z" style="fill:#d57e6f;fill-opacity:1;stroke:#000;stroke-width:1;stroke-linecap:round;stroke-opacity:1"/><text id="text5566" style="font-size:10px;font-family:sans-serif;text-anchor:end;fill:#000"><tspan id="tspan5564" x="36.333" y="13.5">↓</tspan></text></g></g><g id="g5588" transform="translate(355,94.5)"><g id="g5586" transform="scale(1.5)"><path id="path5572" d="m 0.5,8.5 v -4 a 4,4 90 0 1 4,-4 h 4 v 2 h 10 v -2 h 30 4 a 4,4 90 0 1 4,4 v 4 h -4 v -3 h -4 v 10 h 4 v -3 h 4 v 17 h -4 v -3 h -4 v 10 h 4 v -3 h 4 v 4 a 4,4 90 0 1 -4,4 h -4 -30 -1 v 2 h -8 v -2 h -1 -4 a 4,4 90 0 1 -4,-4 v -4 -21 z" style="fill:#93e042;fill-opacity:1;stroke:#004000;stroke-width:1;stroke-linecap:round;stroke-opacity:1"/><text id="text5576" style="font-size:10px;font-family:sans-serif;text-anchor:end;fill:#000"><tspan id="tspan5574" x="46.333" y="24">ピッチ</tspan></text><text id="text5580" style="font-size:6.66666651px;font-family:sans-serif;text-anchor:end;fill:#000"><tspan id="tspan5578" x="46.333" y="11.25">名前</tspan></text><text id="text5584" style="font-size:6.66666651px;font-family:sans-serif;text-anchor:end;fill:#000"><tspan id="tspan5582" x="46.333" y="32.25">オクターヴ</tspan></text></g></g><g id="g5598" transform="translate(428.5,94.5)"><g id="g5596" transform="scale(1.5)"><path id="path5590" d="m 8.5,0.5 h 60 v 20 h -60 v -8 -1 h -6 v 3 h -2 v -8 h 2 v 3 h 6 v -1 z" style="fill:#93e042;fill-opacity:1;stroke:#004000;stroke-width:1;stroke-linecap:round;stroke-opacity:1"/><text id="text5594" style="font-size:10px;font-family:sans-serif;text-anchor:start;fill:#000"><tspan id="tspan5592" x="13.333" y="13.833">ソ</tspan></text></g></g><g id="g5608" transform="translate(428.5,126)"><g id="g5606" transform="scale(1.5)"><path id="path5600" d="m 8.5,0.5 h 60 v 20 h -60 v -8 -1 h -6 v 3 h -2 v -8 h 2 v 3 h 6 v -1 z" style="fill:#ffb2bc;fill-opacity:1;stroke:#601136;stroke-width:1;stroke-linecap:round;stroke-opacity:1"/><text id="text5604" style="font-size:10px;font-family:sans-serif;text-anchor:start;fill:#000"><tspan id="tspan5602" x="13.333" y="13.833">5</tspan></text></g></g><g id="g5622" transform="translate(341.5,189)"><g id="g5620" transform="scale(1.5)"><path id="path5610" d="m 0.5,8.5 v -4 a 4,4 90 0 1 4,-4 h 4 v 2 h 10 v -2 h 9 36.147461 4 a 4,4 90 0 1 4,4 v 4 h -4 v -3 h -4 v 10 h 4 v -3 h 4 v 4 a 4,4 90 0 1 -4,4 h -4 H 27.5 h -1 v 2 h -8 v -2 h -1 -4 a 5,5 90 0 0 -5,5 v 4 4 42 4 a 5,5 90 0 0 5,5 h 4 v 2 h 10 v -2 h 8 v 6 6 4 a 4,4 90 0 1 -4,4 h -4 -9 -1 v 2 h -8 v -2 h -1 -4 a 4,4 90 0 1 -4,-4 v -4 z" style="fill:#ff8b2d;fill-opacity:1;stroke:#520000;stroke-width:1;stroke-linecap:round;stroke-opacity:1"/><text id="text5614" style="font-size:10px;font-family:sans-serif;text-anchor:start;fill:#000"><tspan id="tspan5612" x="5.333" y="15.25">音価</tspan></text></g></g><g id="g5640" transform="translate(437.72119,189)"><g id="g5638" transform="scale(1.5)"><path id="path5624" d="m 8.5,8.5 v -4 a 4,4 90 0 1 4,-4 h 4 10 30 4 a 4,4 90 0 1 4,4 v 4 h -4 v -3 h -4 v 10 h 4 v -3 h 4 v 17 h -4 v -3 h -4 v 10 h 4 v -3 h 4 v 4 a 4,4 90 0 1 -4,4 h -4 -30 -10 -4 a 4,4 90 0 1 -4,-4 v -4 -21 -1 h -6 v 3 h -2 v -8 h 2 v 3 h 6 z" style="fill:#ffb2bc;fill-opacity:1;stroke:#601136;stroke-width:1;stroke-linecap:round;stroke-opacity:1"/><text id="text5628" style="font-size:14px;font-family:sans-serif;text-anchor:end;fill:#000"><tspan id="tspan5626" x="54.333" y="23.8">/</tspan></text></g></g><g id="g5650" transform="translate(523.22119,189)"><g id="g5648" transform="scale(1.5)"><path id="path5642" d="m 8.5,0.5 h 60 v 20 h -60 v -8 -1 h -6 v 3 h -2 v -8 h 2 v 3 h 6 v -1 z" style="fill:#ffb2bc;fill-opacity:1;stroke:#601136;stroke-width:1;stroke-linecap:round;stroke-opacity:1"/><text id="text5646" style="font-size:10px;font-family:sans-serif;text-anchor:start;fill:#000"><tspan id="tspan5644" x="13.333" y="13.833">1</tspan></text></g></g><g id="g5660" transform="translate(523.22119,220.5)"><g id="g5658" transform="scale(1.5)"><path id="path5652" d="m 8.5,0.5 h 60 v 20 h -60 v -8 -1 h -6 v 3 h -2 v -8 h 2 v 3 h 6 v -1 z" style="fill:#ffb2bc;fill-opacity:1;stroke:#601136;stroke-width:1;stroke-linecap:round;stroke-opacity:1"/><text id="text5656" style="font-size:10px;font-family:sans-serif;text-anchor:start;fill:#000"><tspan id="tspan5654" x="13.333" y="13.833">4</tspan></text></g></g><g id="g5670" transform="translate(355,220.5)"><g id="g5668" transform="scale(1.5)"><path id="path5662" d="m 0.5,8.5 v -4 a 4,4 90 0 1 4,-4 h 4 v 2 h 10 v -2 h 20 4 a 4,4 90 0 1 4,4 v 4 4 4 a 4,4 90 0 1 -4,4 h -4 -20 -1 v 2 h -8 v -2 h -1 -4 a 4,4 90 0 1 -4,-4 v -4 z" style="fill:#d57e6f;fill-opacity:1;stroke:#000;stroke-width:1;stroke-linecap:round;stroke-opacity:1"/><text id="text5666" style="font-size:10px;font-family:sans-serif;text-anchor:end;fill:#000"><tspan id="tspan5664" x="36.333" y="13.5">↓</tspan></text></g></g><g id="g5688" transform="translate(355,252)"><g id="g5686" transform="scale(1.5)"><path id="path5672" d="m 0.5,8.5 v -4 a 4,4 90 0 1 4,-4 h 4 v 2 h 10 v -2 h 30 4 a 4,4 90 0 1 4,4 v 4 h -4 v -3 h -4 v 10 h 4 v -3 h 4 v 17 h -4 v -3 h -4 v 10 h 4 v -3 h 4 v 4 a 4,4 90 0 1 -4,4 h -4 -30 -1 v 2 h -8 v -2 h -1 -4 a 4,4 90 0 1 -4,-4 v -4 -21 z" style="fill:#93e042;fill-opacity:1;stroke:#004000;stroke-width:1;stroke-linecap:round;stroke-opacity:1"/><text id="text5676" style="font-size:10px;font-family:sans-serif;text-anchor:end;fill:#000"><tspan id="tspan5674" x="46.333" y="24">ピッチ</tspan></text><text id="text5680" style="font-size:6.66666651px;font-family:sans-serif;text-anchor:end;fill:#000"><tspan id="tspan5678" x="46.333" y="11.25">名前</tspan></text><text id="text5684" style="font-size:6.66666651px;font-family:sans-serif;text-anchor:end;fill:#000"><tspan id="tspan5682" x="46.333" y="32.25">オクターヴ</tspan></text></g></g><g id="g5698" transform="translate(428.5,252)"><g id="g5696" transform="scale(1.5)"><path id="path5690" d="m 8.5,0.5 h 60 v 20 h -60 v -8 -1 h -6 v 3 h -2 v -8 h 2 v 3 h 6 v -1 z" style="fill:#93e042;fill-opacity:1;stroke:#004000;stroke-width:1;stroke-linecap:round;stroke-opacity:1"/><text id="text5694" style="font-size:10px;font-family:sans-serif;text-anchor:start;fill:#000"><tspan id="tspan5692" x="13.333" y="13.833">レ</tspan></text></g></g><g id="g5708" transform="translate(428.5,283.5)"><g id="g5706" transform="scale(1.5)"><path id="path5700" d="m 8.5,0.5 h 60 v 20 h -60 v -8 -1 h -6 v 3 h -2 v -8 h 2 v 3 h 6 v -1 z" style="fill:#ffb2bc;fill-opacity:1;stroke:#601136;stroke-width:1;stroke-linecap:round;stroke-opacity:1"/><text id="text5704" style="font-size:10px;font-family:sans-serif;text-anchor:start;fill:#000"><tspan id="tspan5702" x="13.333" y="13.833">5</tspan></text></g></g><g id="g5722" transform="translate(341.5,346.5)"><g id="g5720" transform="scale(1.5)"><path id="path5710" d="m 0.5,8.5 v -4 a 4,4 90 0 1 4,-4 h 4 v 2 h 10 v -2 h 9 36.147461 4 a 4,4 90 0 1 4,4 v 4 h -4 v -3 h -4 v 10 h 4 v -3 h 4 v 4 a 4,4 90 0 1 -4,4 h -4 H 27.5 h -1 v 2 h -8 v -2 h -1 -4 a 5,5 90 0 0 -5,5 v 4 4 42 4 a 5,5 90 0 0 5,5 h 4 v 2 h 10 v -2 h 8 v 6 6 4 a 4,4 90 0 1 -4,4 h -4 -9 -1 v 2 h -8 v -2 h -1 -4 a 4,4 90 0 1 -4,-4 v -4 z" style="fill:#ff8b2d;fill-opacity:1;stroke:#520000;stroke-width:1;stroke-linecap:round;stroke-opacity:1"/><text id="text5714" style="font-size:10px;font-family:sans-serif;text-anchor:start;fill:#000"><tspan id="tspan5712" x="5.333" y="15.25">音価</tspan></text></g></g><g id="g5740" transform="translate(437.72119,346.5)"><g id="g5738" transform="scale(1.5)"><path id="path5724" d="m 8.5,8.5 v -4 a 4,4 90 0 1 4,-4 h 4 10 30 4 a 4,4 90 0 1 4,4 v 4 h -4 v -3 h -4 v 10 h 4 v -3 h 4 v 17 h -4 v -3 h -4 v 10 h 4 v -3 h 4 v 4 a 4,4 90 0 1 -4,4 h -4 -30 -10 -4 a 4,4 90 0 1 -4,-4 v -4 -21 -1 h -6 v 3 h -2 v -8 h 2 v 3 h 6 z" style="fill:#ffb2bc;fill-opacity:1;stroke:#601136;stroke-width:1;stroke-linecap:round;stroke-opacity:1"/><text id="text5728" style="font-size:14px;font-family:sans-serif;text-anchor:end;fill:#000"><tspan id="tspan5726" x="54.333" y="23.8">/</tspan></text></g></g><g id="g5750" transform="translate(523.22119,346.5)"><g id="g5748" transform="scale(1.5)"><path id="path5742" d="m 8.5,0.5 h 60 v 20 h -60 v -8 -1 h -6 v 3 h -2 v -8 h 2 v 3 h 6 v -1 z" style="fill:#ffb2bc;fill-opacity:1;stroke:#601136;stroke-width:1;stroke-linecap:round;stroke-opacity:1"/><text id="text5746" style="font-size:10px;font-family:sans-serif;text-anchor:start;fill:#000"><tspan id="tspan5744" x="13.333" y="13.833">1</tspan></text></g></g><g id="g5760" transform="translate(523.22119,378)"><g id="g5758" transform="scale(1.5)"><path id="path5752" d="m 8.5,0.5 h 60 v 20 h -60 v -8 -1 h -6 v 3 h -2 v -8 h 2 v 3 h 6 v -1 z" style="fill:#ffb2bc;fill-opacity:1;stroke:#601136;stroke-width:1;stroke-linecap:round;stroke-opacity:1"/><text id="text5756" style="font-size:10px;font-family:sans-serif;text-anchor:start;fill:#000"><tspan id="tspan5754" x="13.333" y="13.833">2</tspan></text></g></g><g id="g5770" transform="translate(355,378)"><g id="g5768" transform="scale(1.5)"><path id="path5762" d="m 0.5,8.5 v -4 a 4,4 90 0 1 4,-4 h 4 v 2 h 10 v -2 h 20 4 a 4,4 90 0 1 4,4 v 4 4 4 a 4,4 90 0 1 -4,4 h -4 -20 -1 v 2 h -8 v -2 h -1 -4 a 4,4 90 0 1 -4,-4 v -4 z" style="fill:#d57e6f;fill-opacity:1;stroke:#000;stroke-width:1;stroke-linecap:round;stroke-opacity:1"/><text id="text5766" style="font-size:10px;font-family:sans-serif;text-anchor:end;fill:#000"><tspan id="tspan5764" x="36.333" y="13.5">↓</tspan></text></g></g><g id="g5788" transform="translate(355,409.5)"><g id="g5786" transform="scale(1.5)"><path id="path5772" d="m 0.5,8.5 v -4 a 4,4 90 0 1 4,-4 h 4 v 2 h 10 v -2 h 30 4 a 4,4 90 0 1 4,4 v 4 h -4 v -3 h -4 v 10 h 4 v -3 h 4 v 17 h -4 v -3 h -4 v 10 h 4 v -3 h 4 v 4 a 4,4 90 0 1 -4,4 h -4 -30 -1 v 2 h -8 v -2 h -1 -4 a 4,4 90 0 1 -4,-4 v -4 -21 z" style="fill:#93e042;fill-opacity:1;stroke:#004000;stroke-width:1;stroke-linecap:round;stroke-opacity:1"/><text id="text5776" style="font-size:10px;font-family:sans-serif;text-anchor:end;fill:#000"><tspan id="tspan5774" x="46.333" y="24">ピッチ</tspan></text><text id="text5780" style="font-size:6.66666651px;font-family:sans-serif;text-anchor:end;fill:#000"><tspan id="tspan5778" x="46.333" y="11.25">名前</tspan></text><text id="text5784" style="font-size:6.66666651px;font-family:sans-serif;text-anchor:end;fill:#000"><tspan id="tspan5782" x="46.333" y="32.25">オクターヴ</tspan></text></g></g><g id="g5798" transform="translate(428.5,409.5)"><g id="g5796" transform="scale(1.5)"><path id="path5790" d="m 8.5,0.5 h 60 v 20 h -60 v -8 -1 h -6 v 3 h -2 v -8 h 2 v 3 h 6 v -1 z" style="fill:#93e042;fill-opacity:1;stroke:#004000;stroke-width:1;stroke-linecap:round;stroke-opacity:1"/><text id="text5794" style="font-size:10px;font-family:sans-serif;text-anchor:start;fill:#000"><tspan id="tspan5792" x="13.333" y="13.833">ソ</tspan></text></g></g><g id="g5808" transform="translate(428.5,441)"><g id="g5806" transform="scale(1.5)"><path id="path5800" d="m 8.5,0.5 h 60 v 20 h -60 v -8 -1 h -6 v 3 h -2 v -8 h 2 v 3 h 6 v -1 z" style="fill:#ffb2bc;fill-opacity:1;stroke:#601136;stroke-width:1;stroke-linecap:round;stroke-opacity:1"/><text id="text5804" style="font-size:10px;font-family:sans-serif;text-anchor:start;fill:#000"><tspan id="tspan5802" x="13.333" y="13.833">5</tspan></text></g></g><g id="g5822" transform="translate(0,2)"><g id="g5820" transform="scale(1.5)"><path id="path5810" d="m 0.5,8.5 v -4 a 4,4 90 0 1 4,-4 h 4 v 2 h 10 v -2 h 9 20 4 a 4,4 90 0 1 4,4 v 4 h -4 v -3 h -4 v 10 h 4 v -3 h 4 v 4 a 4,4 90 0 1 -4,4 h -4 -20 -1 v 2 h -8 v -2 h -1 -4 a 5,5 90 0 0 -5,5 v 4 4 294 4 a 5,5 90 0 0 5,5 h 4 v 2 h 10 v -2 h 8 v 6 6 4 a 4,4 90 0 1 -4,4 h -4 -9 -1 v 2 h -8 v -2 h -1 -4 a 4,4 90 0 1 -4,-4 v -4 z" style="fill:#e9a066;fill-opacity:1;stroke:#3f0a00;stroke-width:1;stroke-linecap:round;stroke-opacity:1"/><text id="text5814" style="font-size:10px;font-family:sans-serif;text-anchor:start;fill:#000"><tspan id="tspan5812" x="5.333" y="15.25">回繰り返す</tspan></text></g></g><g id="g5832" transform="translate(72,2)"><g id="g5830" transform="scale(1.5)"><path id="path5824" d="m 8.5,0.5 h 60 v 20 h -60 v -8 -1 h -6 v 3 h -2 v -8 h 2 v 3 h 6 v -1 z" style="fill:#ffb2bc;fill-opacity:1;stroke:#601136;stroke-width:1;stroke-linecap:round;stroke-opacity:1"/><text id="text5828" style="font-size:10px;font-family:sans-serif;text-anchor:start;fill:#000"><tspan id="tspan5826" x="13.333" y="13.833">4</tspan></text></g></g><g id="g5846" transform="translate(13.5,33.5)"><g id="g5844" transform="scale(1.5)"><path id="path5834" d="m 0.5,8.5 v -4 a 4,4 90 0 1 4,-4 h 4 v 2 h 10 v -2 h 9 36.147461 4 a 4,4 90 0 1 4,4 v 4 h -4 v -3 h -4 v 10 h 4 v -3 h 4 v 4 a 4,4 90 0 1 -4,4 h -4 H 27.5 h -1 v 2 h -8 v -2 h -1 -4 a 5,5 90 0 0 -5,5 v 4 4 42 4 a 5,5 90 0 0 5,5 h 4 v 2 h 10 v -2 h 8 v 6 6 4 a 4,4 90 0 1 -4,4 h -4 -9 -1 v 2 h -8 v -2 h -1 -4 a 4,4 90 0 1 -4,-4 v -4 z" style="fill:#ff8b2d;fill-opacity:1;stroke:#520000;stroke-width:1;stroke-linecap:round;stroke-opacity:1"/><text id="text5838" style="font-size:10px;font-family:sans-serif;text-anchor:start;fill:#000"><tspan id="tspan5836" x="5.333" y="15.25">音価</tspan></text></g></g><g id="g5864" transform="translate(109.72119,33.5)"><g id="g5862" transform="scale(1.5)"><path id="path5848" d="m 8.5,8.5 v -4 a 4,4 90 0 1 4,-4 h 4 10 30 4 a 4,4 90 0 1 4,4 v 4 h -4 v -3 h -4 v 10 h 4 v -3 h 4 v 17 h -4 v -3 h -4 v 10 h 4 v -3 h 4 v 4 a 4,4 90 0 1 -4,4 h -4 -30 -10 -4 a 4,4 90 0 1 -4,-4 v -4 -21 -1 h -6 v 3 h -2 v -8 h 2 v 3 h 6 z" style="fill:#ffb2bc;fill-opacity:1;stroke:#601136;stroke-width:1;stroke-linecap:round;stroke-opacity:1"/><text id="text5852" style="font-size:14px;font-family:sans-serif;text-anchor:end;fill:#000"><tspan id="tspan5850" x="54.333" y="23.8">/</tspan></text></g></g><g id="g5874" transform="translate(195.22119,33.5)"><g id="g5872" transform="scale(1.5)"><path id="path5866" d="m 8.5,0.5 h 60 v 20 h -60 v -8 -1 h -6 v 3 h -2 v -8 h 2 v 3 h 6 v -1 z" style="fill:#ffb2bc;fill-opacity:1;stroke:#601136;stroke-width:1;stroke-linecap:round;stroke-opacity:1"/><text id="text5870" style="font-size:10px;font-family:sans-serif;text-anchor:start;fill:#000"><tspan id="tspan5868" x="13.333" y="13.833">1</tspan></text></g></g><g id="g5884" transform="translate(195.22119,65)"><g id="g5882" transform="scale(1.5)"><path id="path5876" d="m 8.5,0.5 h 60 v 20 h -60 v -8 -1 h -6 v 3 h -2 v -8 h 2 v 3 h 6 v -1 z" style="fill:#ffb2bc;fill-opacity:1;stroke:#601136;stroke-width:1;stroke-linecap:round;stroke-opacity:1"/><text id="text5880" style="font-size:10px;font-family:sans-serif;text-anchor:start;fill:#000"><tspan id="tspan5878" x="13.333" y="13.833">4</tspan></text></g></g><g id="g5894" transform="translate(27,65)"><g id="g5892" transform="scale(1.5)"><path id="path5886" d="m 0.5,8.5 v -4 a 4,4 90 0 1 4,-4 h 4 v 2 h 10 v -2 h 20 4 a 4,4 90 0 1 4,4 v 4 4 4 a 4,4 90 0 1 -4,4 h -4 -20 -1 v 2 h -8 v -2 h -1 -4 a 4,4 90 0 1 -4,-4 v -4 z" style="fill:#d57e6f;fill-opacity:1;stroke:#000;stroke-width:1;stroke-linecap:round;stroke-opacity:1"/><text id="text5890" style="font-size:10px;font-family:sans-serif;text-anchor:end;fill:#000"><tspan id="tspan5888" x="36.333" y="13.5">↓</tspan></text></g></g><g id="g5912" transform="translate(27,96.5)"><g id="g5910" transform="scale(1.5)"><path id="path5896" d="m 0.5,8.5 v -4 a 4,4 90 0 1 4,-4 h 4 v 2 h 10 v -2 h 30 4 a 4,4 90 0 1 4,4 v 4 h -4 v -3 h -4 v 10 h 4 v -3 h 4 v 17 h -4 v -3 h -4 v 10 h 4 v -3 h 4 v 4 a 4,4 90 0 1 -4,4 h -4 -30 -1 v 2 h -8 v -2 h -1 -4 a 4,4 90 0 1 -4,-4 v -4 -21 z" style="fill:#93e042;fill-opacity:1;stroke:#004000;stroke-width:1;stroke-linecap:round;stroke-opacity:1"/><text id="text5900" style="font-size:10px;font-family:sans-serif;text-anchor:end;fill:#000"><tspan id="tspan5898" x="46.333" y="24">ピッチ</tspan></text><text id="text5904" style="font-size:6.66666651px;font-family:sans-serif;text-anchor:end;fill:#000"><tspan id="tspan5902" x="46.333" y="11.25">名前</tspan></text><text id="text5908" style="font-size:6.66666651px;font-family:sans-serif;text-anchor:end;fill:#000"><tspan id="tspan5906" x="46.333" y="32.25">オクターヴ</tspan></text></g></g><g id="g5922" transform="translate(100.5,96.5)"><g id="g5920" transform="scale(1.5)"><path id="path5914" d="m 8.5,0.5 h 60 v 20 h -60 v -8 -1 h -6 v 3 h -2 v -8 h 2 v 3 h 6 v -1 z" style="fill:#93e042;fill-opacity:1;stroke:#004000;stroke-width:1;stroke-linecap:round;stroke-opacity:1"/><text id="text5918" style="font-size:10px;font-family:sans-serif;text-anchor:start;fill:#000"><tspan id="tspan5916" x="13.333" y="13.833">ソ</tspan></text></g></g><g id="g5932" transform="translate(100.5,128)"><g id="g5930" transform="scale(1.5)"><path id="path5924" d="m 8.5,0.5 h 60 v 20 h -60 v -8 -1 h -6 v 3 h -2 v -8 h 2 v 3 h 6 v -1 z" style="fill:#ffb2bc;fill-opacity:1;stroke:#601136;stroke-width:1;stroke-linecap:round;stroke-opacity:1"/><text id="text5928" style="font-size:10px;font-family:sans-serif;text-anchor:start;fill:#000"><tspan id="tspan5926" x="13.333" y="13.833">5</tspan></text></g></g><g id="g5946" transform="translate(13.5,191)"><g id="g5944" transform="scale(1.5)"><path id="path5934" d="m 0.5,8.5 v -4 a 4,4 90 0 1 4,-4 h 4 v 2 h 10 v -2 h 9 36.147461 4 a 4,4 90 0 1 4,4 v 4 h -4 v -3 h -4 v 10 h 4 v -3 h 4 v 4 a 4,4 90 0 1 -4,4 h -4 H 27.5 h -1 v 2 h -8 v -2 h -1 -4 a 5,5 90 0 0 -5,5 v 4 4 42 4 a 5,5 90 0 0 5,5 h 4 v 2 h 10 v -2 h 8 v 6 6 4 a 4,4 90 0 1 -4,4 h -4 -9 -1 v 2 h -8 v -2 h -1 -4 a 4,4 90 0 1 -4,-4 v -4 z" style="fill:#ff8b2d;fill-opacity:1;stroke:#520000;stroke-width:1;stroke-linecap:round;stroke-opacity:1"/><text id="text5938" style="font-size:10px;font-family:sans-serif;text-anchor:start;fill:#000"><tspan id="tspan5936" x="5.333" y="15.25">音価</tspan></text></g></g><g id="g5964" transform="translate(109.72119,191)"><g id="g5962" transform="scale(1.5)"><path id="path5948" d="m 8.5,8.5 v -4 a 4,4 90 0 1 4,-4 h 4 10 30 4 a 4,4 90 0 1 4,4 v 4 h -4 v -3 h -4 v 10 h 4 v -3 h 4 v 17 h -4 v -3 h -4 v 10 h 4 v -3 h 4 v 4 a 4,4 90 0 1 -4,4 h -4 -30 -10 -4 a 4,4 90 0 1 -4,-4 v -4 -21 -1 h -6 v 3 h -2 v -8 h 2 v 3 h 6 z" style="fill:#ffb2bc;fill-opacity:1;stroke:#601136;stroke-width:1;stroke-linecap:round;stroke-opacity:1"/><text id="text5952" style="font-size:14px;font-family:sans-serif;text-anchor:end;fill:#000"><tspan id="tspan5950" x="54.333" y="23.8">/</tspan></text></g></g><g id="g5974" transform="translate(195.22119,191)"><g id="g5972" transform="scale(1.5)"><path id="path5966" d="m 8.5,0.5 h 60 v 20 h -60 v -8 -1 h -6 v 3 h -2 v -8 h 2 v 3 h 6 v -1 z" style="fill:#ffb2bc;fill-opacity:1;stroke:#601136;stroke-width:1;stroke-linecap:round;stroke-opacity:1"/><text id="text5970" style="font-size:10px;font-family:sans-serif;text-anchor:start;fill:#000"><tspan id="tspan5968" x="13.333" y="13.833">1</tspan></text></g></g><g id="g5984" transform="translate(195.22119,222.5)"><g id="g5982" transform="scale(1.5)"><path id="path5976" d="m 8.5,0.5 h 60 v 20 h -60 v -8 -1 h -6 v 3 h -2 v -8 h 2 v 3 h 6 v -1 z" style="fill:#ffb2bc;fill-opacity:1;stroke:#601136;stroke-width:1;stroke-linecap:round;stroke-opacity:1"/><text id="text5980" style="font-size:10px;font-family:sans-serif;text-anchor:start;fill:#000"><tspan id="tspan5978" x="13.333" y="13.833">4</tspan></text></g></g><g id="g5994" transform="translate(27,222.5)"><g id="g5992" transform="scale(1.5)"><path id="path5986" d="m 0.5,8.5 v -4 a 4,4 90 0 1 4,-4 h 4 v 2 h 10 v -2 h 20 4 a 4,4 90 0 1 4,4 v 4 4 4 a 4,4 90 0 1 -4,4 h -4 -20 -1 v 2 h -8 v -2 h -1 -4 a 4,4 90 0 1 -4,-4 v -4 z" style="fill:#d57e6f;fill-opacity:1;stroke:#000;stroke-width:1;stroke-linecap:round;stroke-opacity:1"/><text id="text5990" style="font-size:10px;font-family:sans-serif;text-anchor:end;fill:#000"><tspan id="tspan5988" x="36.333" y="13.5">↓</tspan></text></g></g><g id="g6012" transform="translate(27,254)"><g id="g6010" transform="scale(1.5)"><path id="path5996" d="m 0.5,8.5 v -4 a 4,4 90 0 1 4,-4 h 4 v 2 h 10 v -2 h 30 4 a 4,4 90 0 1 4,4 v 4 h -4 v -3 h -4 v 10 h 4 v -3 h 4 v 17 h -4 v -3 h -4 v 10 h 4 v -3 h 4 v 4 a 4,4 90 0 1 -4,4 h -4 -30 -1 v 2 h -8 v -2 h -1 -4 a 4,4 90 0 1 -4,-4 v -4 -21 z" style="fill:#93e042;fill-opacity:1;stroke:#004000;stroke-width:1;stroke-linecap:round;stroke-opacity:1"/><text id="text6000" style="font-size:10px;font-family:sans-serif;text-anchor:end;fill:#000"><tspan id="tspan5998" x="46.333" y="24">ピッチ</tspan></text><text id="text6004" style="font-size:6.66666651px;font-family:sans-serif;text-anchor:end;fill:#000"><tspan id="tspan6002" x="46.333" y="11.25">名前</tspan></text><text id="text6008" style="font-size:6.66666651px;font-family:sans-serif;text-anchor:end;fill:#000"><tspan id="tspan6006" x="46.333" y="32.25">オクターヴ</tspan></text></g></g><g id="g6022" transform="translate(100.5,254)"><g id="g6020" transform="scale(1.5)"><path id="path6014" d="m 8.5,0.5 h 60 v 20 h -60 v -8 -1 h -6 v 3 h -2 v -8 h 2 v 3 h 6 v -1 z" style="fill:#93e042;fill-opacity:1;stroke:#004000;stroke-width:1;stroke-linecap:round;stroke-opacity:1"/><text id="text6018" style="font-size:10px;font-family:sans-serif;text-anchor:start;fill:#000"><tspan id="tspan6016" x="13.333" y="13.833">レ</tspan></text></g></g><g id="g6032" transform="translate(100.5,285.5)"><g id="g6030" transform="scale(1.5)"><path id="path6024" d="m 8.5,0.5 h 60 v 20 h -60 v -8 -1 h -6 v 3 h -2 v -8 h 2 v 3 h 6 v -1 z" style="fill:#ffb2bc;fill-opacity:1;stroke:#601136;stroke-width:1;stroke-linecap:round;stroke-opacity:1"/><text id="text6028" style="font-size:10px;font-family:sans-serif;text-anchor:start;fill:#000"><tspan id="tspan6026" x="13.333" y="13.833">5</tspan></text></g></g><g id="g6046" transform="translate(13.5,348.5)"><g id="g6044" transform="scale(1.5)"><path id="path6034" d="m 0.5,8.5 v -4 a 4,4 90 0 1 4,-4 h 4 v 2 h 10 v -2 h 9 36.147461 4 a 4,4 90 0 1 4,4 v 4 h -4 v -3 h -4 v 10 h 4 v -3 h 4 v 4 a 4,4 90 0 1 -4,4 h -4 H 27.5 h -1 v 2 h -8 v -2 h -1 -4 a 5,5 90 0 0 -5,5 v 4 4 42 4 a 5,5 90 0 0 5,5 h 4 v 2 h 10 v -2 h 8 v 6 6 4 a 4,4 90 0 1 -4,4 h -4 -9 -1 v 2 h -8 v -2 h -1 -4 a 4,4 90 0 1 -4,-4 v -4 z" style="fill:#ff8b2d;fill-opacity:1;stroke:#520000;stroke-width:1;stroke-linecap:round;stroke-opacity:1"/><text id="text6038" style="font-size:10px;font-family:sans-serif;text-anchor:start;fill:#000"><tspan id="tspan6036" x="5.333" y="15.25">音価</tspan></text></g></g><g id="g6064" transform="translate(109.72119,348.5)"><g id="g6062" transform="scale(1.5)"><path id="path6048" d="m 8.5,8.5 v -4 a 4,4 90 0 1 4,-4 h 4 10 30 4 a 4,4 90 0 1 4,4 v 4 h -4 v -3 h -4 v 10 h 4 v -3 h 4 v 17 h -4 v -3 h -4 v 10 h 4 v -3 h 4 v 4 a 4,4 90 0 1 -4,4 h -4 -30 -10 -4 a 4,4 90 0 1 -4,-4 v -4 -21 -1 h -6 v 3 h -2 v -8 h 2 v 3 h 6 z" style="fill:#ffb2bc;fill-opacity:1;stroke:#601136;stroke-width:1;stroke-linecap:round;stroke-opacity:1"/><text id="text6052" style="font-size:14px;font-family:sans-serif;text-anchor:end;fill:#000"><tspan id="tspan6050" x="54.333" y="23.8">/</tspan></text></g></g><g id="g6074" transform="translate(195.22119,348.5)"><g id="g6072" transform="scale(1.5)"><path id="path6066" d="m 8.5,0.5 h 60 v 20 h -60 v -8 -1 h -6 v 3 h -2 v -8 h 2 v 3 h 6 v -1 z" style="fill:#ffb2bc;fill-opacity:1;stroke:#601136;stroke-width:1;stroke-linecap:round;stroke-opacity:1"/><text id="text6070" style="font-size:10px;font-family:sans-serif;text-anchor:start;fill:#000"><tspan id="tspan6068" x="13.333" y="13.833">1</tspan></text></g></g><g id="g6084" transform="translate(195.22119,380)"><g id="g6082" transform="scale(1.5)"><path id="path6076" d="m 8.5,0.5 h 60 v 20 h -60 v -8 -1 h -6 v 3 h -2 v -8 h 2 v 3 h 6 v -1 z" style="fill:#ffb2bc;fill-opacity:1;stroke:#601136;stroke-width:1;stroke-linecap:round;stroke-opacity:1"/><text id="text6080" style="font-size:10px;font-family:sans-serif;text-anchor:start;fill:#000"><tspan id="tspan6078" x="13.333" y="13.833">2</tspan></text></g></g><g id="g6094" transform="translate(27,380)"><g id="g6092" transform="scale(1.5)"><path id="path6086" d="m 0.5,8.5 v -4 a 4,4 90 0 1 4,-4 h 4 v 2 h 10 v -2 h 20 4 a 4,4 90 0 1 4,4 v 4 4 4 a 4,4 90 0 1 -4,4 h -4 -20 -1 v 2 h -8 v -2 h -1 -4 a 4,4 90 0 1 -4,-4 v -4 z" style="fill:#d57e6f;fill-opacity:1;stroke:#000;stroke-width:1;stroke-linecap:round;stroke-opacity:1"/><text id="text6090" style="font-size:10px;font-family:sans-serif;text-anchor:end;fill:#000"><tspan id="tspan6088" x="36.333" y="13.5">↓</tspan></text></g></g><g id="g6112" transform="translate(27,411.5)"><g id="g6110" transform="scale(1.5)"><path id="path6096" d="m 0.5,8.5 v -4 a 4,4 90 0 1 4,-4 h 4 v 2 h 10 v -2 h 30 4 a 4,4 90 0 1 4,4 v 4 h -4 v -3 h -4 v 10 h 4 v -3 h 4 v 17 h -4 v -3 h -4 v 10 h 4 v -3 h 4 v 4 a 4,4 90 0 1 -4,4 h -4 -30 -1 v 2 h -8 v -2 h -1 -4 a 4,4 90 0 1 -4,-4 v -4 -21 z" style="fill:#93e042;fill-opacity:1;stroke:#004000;stroke-width:1;stroke-linecap:round;stroke-opacity:1"/><text id="text6100" style="font-size:10px;font-family:sans-serif;text-anchor:end;fill:#000"><tspan id="tspan6098" x="46.333" y="24">ピッチ</tspan></text><text id="text6104" style="font-size:6.66666651px;font-family:sans-serif;text-anchor:end;fill:#000"><tspan id="tspan6102" x="46.333" y="11.25">名前</tspan></text><text id="text6108" style="font-size:6.66666651px;font-family:sans-serif;text-anchor:end;fill:#000"><tspan id="tspan6106" x="46.333" y="32.25">オクターヴ</tspan></text></g></g><g id="g6122" transform="translate(100.5,411.5)"><g id="g6120" transform="scale(1.5)"><path id="path6114" d="m 8.5,0.5 h 60 v 20 h -60 v -8 -1 h -6 v 3 h -2 v -8 h 2 v 3 h 6 v -1 z" style="fill:#93e042;fill-opacity:1;stroke:#004000;stroke-width:1;stroke-linecap:round;stroke-opacity:1"/><text id="text6118" style="font-size:10px;font-family:sans-serif;text-anchor:start;fill:#000"><tspan id="tspan6116" x="13.333" y="13.833">ソ</tspan></text></g></g><g id="g6132" transform="translate(100.5,443)"><g id="g6130" transform="scale(1.5)"><path id="path6124" d="m 8.5,0.5 h 60 v 20 h -60 v -8 -1 h -6 v 3 h -2 v -8 h 2 v 3 h 6 v -1 z" style="fill:#ffb2bc;fill-opacity:1;stroke:#601136;stroke-width:1;stroke-linecap:round;stroke-opacity:1"/><text id="text6128" style="font-size:10px;font-family:sans-serif;text-anchor:start;fill:#000"><tspan id="tspan6126" x="13.333" y="13.833">5</tspan></text></g></g></svg>