<svg xmlns="http://www.w3.org/2000/svg" xmlns:svg="http://www.w3.org/2000/svg" id="svg5927" width="496.398" height="705.827" version="1.1"><metadata id="metadata5933"/><path id="path5801" d="M 248.19894,325.69459 V 511.82792 697.96126" style="fill:none;stroke:#ff0068;stroke-width:7.27083349pt;stroke-linecap:round;stroke-opacity:1"/><path id="path5803" d="M 248.19894,697.96126 V 511.82792 325.69459" style="fill:none;stroke:#ff0068;stroke-width:11.63333344pt;stroke-linecap:round;stroke-opacity:1"/><path id="path5805" d="m 248.19894,325.69459 46.53333,-80.5981 46.53334,-80.5981" style="fill:none;stroke:#ff0068;stroke-width:11.63333344pt;stroke-linecap:round;stroke-opacity:1"/><path id="path5807" d="m 341.26561,164.49839 40.29903,-23.26666 40.2991,-23.26667" style="fill:none;stroke:#ff0068;stroke-width:11.63333344pt;stroke-linecap:round;stroke-opacity:1"/><path id="path5809" d="m 421.86374,117.96506 h 23.2666 23.2667" style="fill:none;stroke:#ff0068;stroke-width:11.63333344pt;stroke-linecap:round;stroke-opacity:1"/><path id="path5811" d="m 468.39704,117.96506 10.0748,5.81667 10.0747,5.81666" style="fill:none;stroke:#ff0068;stroke-width:11.63333344pt;stroke-linecap:round;stroke-opacity:1"/><path id="path5813" d="m 488.54654,129.59839 -10.0747,-5.81666 -10.0748,-5.81667" style="fill:none;stroke:#a40044;stroke-width:2.90833336pt;stroke-linecap:round;stroke-opacity:1"/><path id="path5815" d="m 468.39704,117.96506 10.0748,-5.81667 10.0747,-5.81666" style="fill:none;stroke:#ff0068;stroke-width:11.63333344pt;stroke-linecap:round;stroke-opacity:1"/><path id="path5817" d="m 488.54654,106.33173 -10.0747,5.81666 -10.0748,5.81667" style="fill:none;stroke:#a40044;stroke-width:2.90833336pt;stroke-linecap:round;stroke-opacity:1"/><path id="path5819" d="m 468.39704,117.96506 h -23.2667 -23.2666" style="fill:none;stroke:#a40044;stroke-width:2.90833336pt;stroke-linecap:round;stroke-opacity:1"/><path id="path5821" d="m 421.86374,117.96506 11.6333,-20.149519 11.6333,-20.14953" style="fill:none;stroke:#ff0068;stroke-width:11.63333344pt;stroke-linecap:round;stroke-opacity:1"/><path id="path5823" d="m 445.13034,77.666011 10.0748,-5.81666 10.0748,-5.81667" style="fill:none;stroke:#ff0068;stroke-width:11.63333344pt;stroke-linecap:round;stroke-opacity:1"/><path id="path5825" d="m 465.27994,66.032681 -10.0748,5.81667 -10.0748,5.81666" style="fill:none;stroke:#a40044;stroke-width:2.90833336pt;stroke-linecap:round;stroke-opacity:1"/><path id="path5827" d="M 445.13034,77.666011 V 66.032681 54.399351" style="fill:none;stroke:#ff0068;stroke-width:11.63333344pt;stroke-linecap:round;stroke-opacity:1"/><path id="path5829" d="m 445.13034,54.399351 v 11.63333 11.63333" style="fill:none;stroke:#a40044;stroke-width:2.90833336pt;stroke-linecap:round;stroke-opacity:1"/><path id="path5831" d="m 445.13034,77.666011 -11.6333,20.14953 -11.6333,20.149519" style="fill:none;stroke:#a40044;stroke-width:2.90833336pt;stroke-linecap:round;stroke-opacity:1"/><path id="path5833" d="m 421.86374,117.96506 -40.2991,23.26667 -40.29903,23.26666" style="fill:none;stroke:#a40044;stroke-width:2.90833336pt;stroke-linecap:round;stroke-opacity:1"/><path id="path5835" d="M 341.26561,164.49839 V 117.96506 71.431731" style="fill:none;stroke:#ff0068;stroke-width:11.63333344pt;stroke-linecap:round;stroke-opacity:1"/><path id="path5837" d="m 341.26561,71.431731 11.63333,-20.14953 11.63333,-20.14952" style="fill:none;stroke:#ff0068;stroke-width:11.63333344pt;stroke-linecap:round;stroke-opacity:1"/><path id="path5839" d="m 364.53227,31.132681 10.07477,-5.81667 10.0748,-5.81666" style="fill:none;stroke:#ff0068;stroke-width:11.63333344pt;stroke-linecap:round;stroke-opacity:1"/><path id="path5841" d="m 384.68184,19.499351 -10.0748,5.81666 -10.07477,5.81667" style="fill:none;stroke:#a40044;stroke-width:2.90833336pt;stroke-linecap:round;stroke-opacity:1"/><path id="path5843" d="M 364.53227,31.132681 V 19.499351 7.8660113" style="fill:none;stroke:#ff0068;stroke-width:11.63333344pt;stroke-linecap:round;stroke-opacity:1"/><path id="path5845" d="M 364.53227,7.8660113 V 19.499351 31.132681" style="fill:none;stroke:#a40044;stroke-width:2.90833336pt;stroke-linecap:round;stroke-opacity:1"/><path id="path5847" d="m 364.53227,31.132681 -11.63333,20.14952 -11.63333,20.14953" style="fill:none;stroke:#a40044;stroke-width:2.90833336pt;stroke-linecap:round;stroke-opacity:1"/><path id="path5849" d="M 341.26561,71.431731 329.63227,51.282201 317.99894,31.132681" style="fill:none;stroke:#ff0068;stroke-width:11.63333344pt;stroke-linecap:round;stroke-opacity:1"/><path id="path5851" d="M 317.99894,31.132681 V 19.499351 7.8660113" style="fill:none;stroke:#ff0068;stroke-width:11.63333344pt;stroke-linecap:round;stroke-opacity:1"/><path id="path5853" d="M 317.99894,7.8660113 V 19.499351 31.132681" style="fill:none;stroke:#a40044;stroke-width:2.90833336pt;stroke-linecap:round;stroke-opacity:1"/><path id="path5855" d="m 317.99894,31.132681 -10.07476,-5.81667 -10.07476,-5.81666" style="fill:none;stroke:#ff0068;stroke-width:11.63333344pt;stroke-linecap:round;stroke-opacity:1"/><path id="path5857" d="m 297.84942,19.499351 10.07476,5.81666 10.07476,5.81667" style="fill:none;stroke:#a40044;stroke-width:2.90833336pt;stroke-linecap:round;stroke-opacity:1"/><path id="path5859" d="m 317.99894,31.132681 11.63333,20.14952 11.63334,20.14953" style="fill:none;stroke:#a40044;stroke-width:2.90833336pt;stroke-linecap:round;stroke-opacity:1"/><path id="path5861" d="m 341.26561,71.431731 v 46.533329 46.53333" style="fill:none;stroke:#a40044;stroke-width:2.90833336pt;stroke-linecap:round;stroke-opacity:1"/><path id="path5863" d="m 341.26561,164.49839 -46.53334,80.5981 -46.53333,80.5981" style="fill:none;stroke:#a40044;stroke-width:2.90833336pt;stroke-linecap:round;stroke-opacity:1"/><path id="path5865" d="m 248.19894,325.69459 -46.53333,-80.5981 -46.53334,-80.5981" style="fill:none;stroke:#ff0068;stroke-width:11.63333344pt;stroke-linecap:round;stroke-opacity:1"/><path id="path5867" d="M 155.13227,164.49839 V 117.96506 71.431731" style="fill:none;stroke:#ff0068;stroke-width:11.63333344pt;stroke-linecap:round;stroke-opacity:1"/><path id="path5869" d="m 155.13227,71.431731 11.63334,-20.14953 11.63333,-20.14952" style="fill:none;stroke:#ff0068;stroke-width:11.63333344pt;stroke-linecap:round;stroke-opacity:1"/><path id="path5871" d="m 178.39894,31.132681 10.07476,-5.81667 10.07476,-5.81666" style="fill:none;stroke:#ff0068;stroke-width:11.63333344pt;stroke-linecap:round;stroke-opacity:1"/><path id="path5873" d="m 198.54846,19.499351 -10.07476,5.81666 -10.07476,5.81667" style="fill:none;stroke:#a40044;stroke-width:2.90833336pt;stroke-linecap:round;stroke-opacity:1"/><path id="path5875" d="M 178.39894,31.132681 V 19.499351 7.8660113" style="fill:none;stroke:#ff0068;stroke-width:11.63333344pt;stroke-linecap:round;stroke-opacity:1"/><path id="path5877" d="M 178.39894,7.8660113 V 19.499351 31.132681" style="fill:none;stroke:#a40044;stroke-width:2.90833336pt;stroke-linecap:round;stroke-opacity:1"/><path id="path5879" d="m 178.39894,31.132681 -11.63333,20.14952 -11.63334,20.14953" style="fill:none;stroke:#a40044;stroke-width:2.90833336pt;stroke-linecap:round;stroke-opacity:1"/><path id="path5881" d="M 155.13227,71.431731 143.49894,51.282201 131.86561,31.132681" style="fill:none;stroke:#ff0068;stroke-width:11.63333344pt;stroke-linecap:round;stroke-opacity:1"/><path id="path5883" d="M 131.86561,31.132681 V 19.499351 7.8660113" style="fill:none;stroke:#ff0068;stroke-width:11.63333344pt;stroke-linecap:round;stroke-opacity:1"/><path id="path5885" d="M 131.86561,7.8660113 V 19.499351 31.132681" style="fill:none;stroke:#a40044;stroke-width:2.90833336pt;stroke-linecap:round;stroke-opacity:1"/><path id="path5887" d="m 131.86561,31.132681 -10.07477,-5.81667 -10.07476,-5.81666" style="fill:none;stroke:#ff0068;stroke-width:11.63333344pt;stroke-linecap:round;stroke-opacity:1"/><path id="path5889" d="m 111.71608,19.499351 10.07476,5.81666 10.07477,5.81667" style="fill:none;stroke:#a40044;stroke-width:2.90833336pt;stroke-linecap:round;stroke-opacity:1"/><path id="path5891" d="m 131.86561,31.132681 11.63333,20.14952 11.63333,20.14953" style="fill:none;stroke:#a40044;stroke-width:2.90833336pt;stroke-linecap:round;stroke-opacity:1"/><path id="path5893" d="m 155.13227,71.431731 v 46.533329 46.53333" style="fill:none;stroke:#a40044;stroke-width:2.90833336pt;stroke-linecap:round;stroke-opacity:1"/><path id="path5895" d="M 155.13227,164.49839 114.83322,141.23173 74.534181,117.96506" style="fill:none;stroke:#ff0068;stroke-width:11.63333344pt;stroke-linecap:round;stroke-opacity:1"/><path id="path5897" d="M 74.534181,117.96506 62.900841,97.815541 51.267511,77.666011" style="fill:none;stroke:#ff0068;stroke-width:11.63333344pt;stroke-linecap:round;stroke-opacity:1"/><path id="path5899" d="M 51.267511,77.666011 V 66.032681 54.399351" style="fill:none;stroke:#ff0068;stroke-width:11.63333344pt;stroke-linecap:round;stroke-opacity:1"/><path id="path5901" d="m 51.267511,54.399351 v 11.63333 11.63333" style="fill:none;stroke:#a40044;stroke-width:2.90833336pt;stroke-linecap:round;stroke-opacity:1"/><path id="path5903" d="m 51.267511,77.666011 -10.07476,-5.81666 -10.07477,-5.81667" style="fill:none;stroke:#ff0068;stroke-width:11.63333344pt;stroke-linecap:round;stroke-opacity:1"/><path id="path5905" d="m 31.117981,66.032681 10.07477,5.81667 10.07476,5.81666" style="fill:none;stroke:#a40044;stroke-width:2.90833336pt;stroke-linecap:round;stroke-opacity:1"/><path id="path5907" d="m 51.267511,77.666011 11.63333,20.14953 11.63334,20.149519" style="fill:none;stroke:#a40044;stroke-width:2.90833336pt;stroke-linecap:round;stroke-opacity:1"/><path id="path5909" d="M 74.534181,117.96506 H 51.267511 28.000841" style="fill:none;stroke:#ff0068;stroke-width:11.63333344pt;stroke-linecap:round;stroke-opacity:1"/><path id="path5911" d="M 28.000841,117.96506 17.926081,112.14839 7.8513213,106.33173" style="fill:none;stroke:#ff0068;stroke-width:11.63333344pt;stroke-linecap:round;stroke-opacity:1"/><path id="path5913" d="m 7.8513213,106.33173 10.0747597,5.81666 10.07476,5.81667" style="fill:none;stroke:#a40044;stroke-width:2.90833336pt;stroke-linecap:round;stroke-opacity:1"/><path id="path5915" d="m 28.000841,117.96506 -10.07476,5.81667 -10.0747597,5.81666" style="fill:none;stroke:#ff0068;stroke-width:11.63333344pt;stroke-linecap:round;stroke-opacity:1"/><path id="path5917" d="m 7.8513213,129.59839 10.0747597,-5.81666 10.07476,-5.81667" style="fill:none;stroke:#a40044;stroke-width:2.90833336pt;stroke-linecap:round;stroke-opacity:1"/><path id="path5919" d="m 28.000841,117.96506 h 23.26667 23.26667" style="fill:none;stroke:#a40044;stroke-width:2.90833336pt;stroke-linecap:round;stroke-opacity:1"/><path id="path5921" d="m 74.534181,117.96506 40.299039,23.26667 40.29905,23.26666" style="fill:none;stroke:#a40044;stroke-width:2.90833336pt;stroke-linecap:round;stroke-opacity:1"/><path id="path5923" d="m 155.13227,164.49839 46.53334,80.5981 46.53333,80.5981" style="fill:none;stroke:#a40044;stroke-width:2.90833336pt;stroke-linecap:round;stroke-opacity:1"/><path id="path5925" d="M 248.19894,325.69459 V 511.82792 697.96126" style="fill:none;stroke:#a40044;stroke-width:2.90833336pt;stroke-linecap:round;stroke-opacity:1"/></svg>