<svg xmlns="http://www.w3.org/2000/svg" xmlns:svg="http://www.w3.org/2000/svg" id="svg1020" width="676.523" height="1247.343" version="1.1"><metadata id="metadata1026"/><g id="g14" transform="translate(366.33333,40.921541)"><g id="g12" transform="scale(1.5)"><path style="fill:#e9a066;fill-opacity:1;stroke:#3f0a00;stroke-width:1;stroke-linecap:round;stroke-opacity:1" id="path2" d="m 0.5,8.5 v -4 a 4,4 90 0 1 4,-4 h 4 v 2 h 10 v -2 h 9 4 a 4,4 90 0 1 4,4 v 4 9 a 8,8 90 0 0 -8,8 8,8 90 0 0 8,8 v 4 a 4,4 90 0 1 -4,4 h -4 -1 v 2 h -8 v -2 h -1 -4 a 5,5 90 0 0 -5,5 v 4 4 693 4 a 5,5 90 0 0 5,5 h 4 v 2 h 10 v -2 h 8 v 6 6 4 a 4,4 90 0 1 -4,4 h -4 -9 -1 v 2 h -8 v -2 h -1 -4 a 4,4 90 0 1 -4,-4 v -4 z"/><text style="font-size:10px;font-family:sans-serif;text-anchor:start;fill:#000" id="text6"><tspan id="tspan4" x="5.333" y="18.583">もし</tspan></text><text style="font-size:6.66666651px;font-family:sans-serif;text-anchor:end;fill:#000" id="text10"><tspan id="tspan8" x="30.667" y="37.833">なら</tspan></text></g></g><g id="g26" transform="translate(408.33333,40.921541)"><g id="g24" transform="scale(1.5)"><g id="g18" transform="translate(0,-16)"><path style="fill:#f2ec4d;fill-opacity:1;stroke:#4f4c00;stroke-width:1;stroke-linecap:round;stroke-opacity:1" id="path16" d="m 0.5,41.5 a 7,7 90 0 1 7,-7 h 1 v -10 a 8,8 90 0 1 8,-8 h 34 v 8 h -4 v -3 h -4 v 10 h 4 v -3 h 4 v 17 h -4 v -3 h -4 v 10 h 4 v -3 h 4 v 8 h -30 -12 v -8 -1 h -1 a 7,7 90 0 1 -7,-7 z"/></g><text style="font-size:14px;font-family:sans-serif;text-anchor:end;fill:#000" id="text22"><tspan id="tspan20" x="37.667" y="25.667">&gt;</tspan></text></g></g><g id="g36" transform="translate(472.83333,72.421541)"><g id="g34" transform="scale(1.5)"><path style="fill:#ffb2bc;fill-opacity:1;stroke:#601136;stroke-width:1;stroke-linecap:round;stroke-opacity:1" id="path28" d="m 8.5,0.5 h 60 v 20 h -60 v -8 -1 h -6 v 3 h -2 v -8 h 2 v 3 h 6 v -1 z"/><text style="font-size:10px;font-family:sans-serif;text-anchor:start;fill:#000" id="text32"><tspan id="tspan30" x="13.333" y="13.833">8</tspan></text></g></g><g id="g50" transform="translate(393.33333,261.42154)"><g id="g48" transform="scale(1.5)"><path style="fill:#9ddd5f;fill-opacity:1;stroke:#003e00;stroke-width:1;stroke-linecap:round;stroke-opacity:1" id="path38" d="m 0.5,8.5 v -4 a 4,4 90 0 1 4,-4 h 4 v 2 h 10 v -2 h 33.344727 4 a 4,4 90 0 1 4,4 v 4 h -4 v -3 h -4 v 10 h 4 v -3 h 4 v 4 a 4,4 90 0 1 -4,4 h -4 H 18.5 h -1 v 2 h -8 v -2 h -1 -4 a 4,4 90 0 1 -4,-4 v -4 z"/><text style="font-size:10px;font-family:sans-serif;text-anchor:end;fill:#000" id="text42"><tspan id="tspan40" x="49.678" y="13.5">前</tspan></text></g></g><g id="g64" transform="translate(393.33333,481.92154)"><g id="g62" transform="scale(1.5)"><path style="fill:#9ddd5f;fill-opacity:1;stroke:#003e00;stroke-width:1;stroke-linecap:round;stroke-opacity:1" id="path52" d="m 0.5,8.5 v -4 a 4,4 90 0 1 4,-4 h 4 v 2 h 10 v -2 h 30 4 a 4,4 90 0 1 4,4 v 4 h -4 v -3 h -4 v 10 h 4 v -3 h 4 v 4 a 4,4 90 0 1 -4,4 h -4 -30 -1 v 2 h -8 v -2 h -1 -4 a 4,4 90 0 1 -4,-4 v -4 z"/><text style="font-size:10px;font-family:sans-serif;text-anchor:end;fill:#000" id="text56"><tspan id="tspan54" x="46.333" y="13.5">右</tspan></text></g></g><g id="g74" transform="translate(466.83333,481.92154)"><g id="g72" transform="scale(1.5)"><path style="fill:#ffb2bc;fill-opacity:1;stroke:#601136;stroke-width:1;stroke-linecap:round;stroke-opacity:1" id="path66" d="m 8.5,0.5 h 60 v 20 h -60 v -8 -1 h -6 v 3 h -2 v -8 h 2 v 3 h 6 v -1 z"/><text style="font-size:10px;font-family:sans-serif;text-anchor:start;fill:#000" id="text70"><tspan id="tspan68" x="13.333" y="13.833">30</tspan></text></g></g><g id="g88" transform="translate(393.33333,639.42154)"><g id="g86" transform="scale(1.5)"><path style="fill:#9ddd5f;fill-opacity:1;stroke:#003e00;stroke-width:1;stroke-linecap:round;stroke-opacity:1" id="path76" d="m 0.5,8.5 v -4 a 4,4 90 0 1 4,-4 h 4 v 2 h 10 v -2 h 30 4 a 4,4 90 0 1 4,4 v 4 h -4 v -3 h -4 v 10 h 4 v -3 h 4 v 4 a 4,4 90 0 1 -4,4 h -4 -30 -1 v 2 h -8 v -2 h -1 -4 a 4,4 90 0 1 -4,-4 v -4 z"/><text style="font-size:10px;font-family:sans-serif;text-anchor:end;fill:#000" id="text80"><tspan id="tspan78" x="46.333" y="13.5">左</tspan></text></g></g><g id="g98" transform="translate(466.83333,639.42154)"><g id="g96" transform="scale(1.5)"><path style="fill:#ffb2bc;fill-opacity:1;stroke:#601136;stroke-width:1;stroke-linecap:round;stroke-opacity:1" id="path90" d="m 8.5,0.5 h 60 v 20 h -60 v -8 -1 h -6 v 3 h -2 v -8 h 2 v 3 h 6 v -1 z"/><text style="font-size:10px;font-family:sans-serif;text-anchor:start;fill:#000" id="text94"><tspan id="tspan92" x="13.333" y="13.833">60</tspan></text></g></g><g id="g112" transform="translate(393.33333,796.92154)"><g id="g110" transform="scale(1.5)"><path style="fill:#9ddd5f;fill-opacity:1;stroke:#003e00;stroke-width:1;stroke-linecap:round;stroke-opacity:1" id="path100" d="m 0.5,8.5 v -4 a 4,4 90 0 1 4,-4 h 4 v 2 h 10 v -2 h 30 4 a 4,4 90 0 1 4,4 v 4 h -4 v -3 h -4 v 10 h 4 v -3 h 4 v 4 a 4,4 90 0 1 -4,4 h -4 -30 -1 v 2 h -8 v -2 h -1 -4 a 4,4 90 0 1 -4,-4 v -4 z"/><text style="font-size:10px;font-family:sans-serif;text-anchor:end;fill:#000" id="text104"><tspan id="tspan102" x="46.333" y="13.5">右</tspan></text></g></g><g id="g122" transform="translate(466.83333,796.92154)"><g id="g120" transform="scale(1.5)"><path style="fill:#ffb2bc;fill-opacity:1;stroke:#601136;stroke-width:1;stroke-linecap:round;stroke-opacity:1" id="path114" d="m 8.5,0.5 h 60 v 20 h -60 v -8 -1 h -6 v 3 h -2 v -8 h 2 v 3 h 6 v -1 z"/><text style="font-size:10px;font-family:sans-serif;text-anchor:start;fill:#000" id="text118"><tspan id="tspan116" x="13.333" y="13.833">30</tspan></text></g></g><g id="g136" transform="translate(393.33333,1111.9216)"><g id="g134" transform="scale(1.5)"><path style="fill:#9ddd5f;fill-opacity:1;stroke:#003e00;stroke-width:1;stroke-linecap:round;stroke-opacity:1" id="path124" d="m 0.5,8.5 v -4 a 4,4 90 0 1 4,-4 h 4 v 2 h 10 v -2 h 30 4 a 4,4 90 0 1 4,4 v 4 h -4 v -3 h -4 v 10 h 4 v -3 h 4 v 4 a 4,4 90 0 1 -4,4 h -4 -30 -1 v 2 h -8 v -2 h -1 -4 a 4,4 90 0 1 -4,-4 v -4 z"/><text style="font-size:10px;font-family:sans-serif;text-anchor:end;fill:#000" id="text128"><tspan id="tspan126" x="46.333" y="13.5">後ろ</tspan></text></g></g><g id="g146" transform="translate(40.500003,261.42154)"><g id="g144" transform="scale(1.5)"><path style="fill:#9ddd5f;fill-opacity:1;stroke:#003e00;stroke-width:1;stroke-linecap:round;stroke-opacity:1" id="path138" d="m 0.5,8.5 v -4 a 4,4 90 0 1 4,-4 h 4 v 2 h 10 v -2 h 30 4 a 4,4 90 0 1 4,4 v 4 4 4 a 4,4 90 0 1 -4,4 h -4 -30 -1 v 2 h -8 v -2 h -1 -4 a 4,4 90 0 1 -4,-4 v -4 z"/><text style="font-size:10px;font-family:sans-serif;text-anchor:end;fill:#000" id="text142"><tspan id="tspan140" x="46.333" y="13.5">消し</tspan></text></g></g><g id="g156" transform="translate(91.189453,72.421541)"><g id="g154" transform="scale(1.5)"><path style="fill:#ffb2bc;fill-opacity:1;stroke:#601136;stroke-width:1;stroke-linecap:round;stroke-opacity:1" id="path148" d="m 8.5,0.5 h 60 v 20 h -60 v -8 -1 h -6 v 3 h -2 v -8 h 2 v 3 h 6 v -1 z"/><text style="font-size:10px;font-family:sans-serif;text-anchor:start;fill:#000" id="text152"><tspan id="tspan150" x="13.333" y="13.833">256</tspan></text></g></g><g id="g166" transform="translate(3.3333334e-6,0.42154078)"><g id="g164" transform="scale(1.5)"><path style="fill:#ffe05c;fill-opacity:1;stroke:#644300;stroke-width:1;stroke-linecap:round;stroke-opacity:1" id="path158" d="m 0.5,14.5 v -4 a 4,4 90 0 1 4,-4 h 4 l 5,-6 5,6 h 9 30 4 a 4,4 90 0 1 4,4 v 4 4 4 a 4,4 90 0 1 -4,4 h -4 -30 -1 v 2 h -8 v -2 h -1 -4 a 5,5 90 0 0 -5,5 v 4 4 231 4 a 5,5 90 0 0 5,5 h 4 v 2 h 10 v -2 h 8 v 6 6 4 a 4,4 90 0 1 -4,4 h -4 -9 l -5,6 -5,-6 h -4 a 4,4 90 0 1 -4,-4 v -4 z"/><text style="font-size:10px;font-family:sans-serif;text-anchor:start;fill:#000" id="text162"><tspan id="tspan160" x="5.333" y="21.5">スタート</tspan></text></g></g><g id="g184" transform="translate(457.52278,891.42157)"><g id="g182" transform="scale(1.5)"><path style="fill:#ffb2bc;fill-opacity:1;stroke:#601136;stroke-width:1;stroke-linecap:round;stroke-opacity:1" id="path168" d="m 8.5,8.5 v -4 a 4,4 90 0 1 4,-4 h 4 10 30 4 a 4,4 90 0 1 4,4 v 4 h -4 v -3 h -4 v 10 h 4 v -3 h 4 v 17 h -4 v -3 h -4 v 10 h 4 v -3 h 4 v 4 a 4,4 90 0 1 -4,4 h -4 -30 -10 -4 a 4,4 90 0 1 -4,-4 v -4 -21 -1 h -6 v 3 h -2 v -8 h 2 v 3 h 6 z"/><text style="font-size:14px;font-family:sans-serif;text-anchor:end;fill:#000" id="text172"><tspan id="tspan170" x="54.333" y="23.8">×</tspan></text></g></g><g id="g194" transform="translate(543.02278,922.92157)"><g id="g192" transform="scale(1.5)"><path style="fill:#ffb2bc;fill-opacity:1;stroke:#601136;stroke-width:1;stroke-linecap:round;stroke-opacity:1" id="path186" d="m 8.5,0.5 h 60 v 20 h -60 v -8 -1 h -6 v 3 h -2 v -8 h 2 v 3 h 6 v -1 z"/><text style="font-size:10px;font-family:sans-serif;text-anchor:start;fill:#000" id="text190"><tspan id="tspan188" x="13.333" y="13.833">2</tspan></text></g></g><g id="g212" transform="translate(457.52278,355.92154)"><g id="g210" transform="scale(1.5)"><path style="fill:#ffb2bc;fill-opacity:1;stroke:#601136;stroke-width:1;stroke-linecap:round;stroke-opacity:1" id="path196" d="m 8.5,8.5 v -4 a 4,4 90 0 1 4,-4 h 4 10 30 4 a 4,4 90 0 1 4,4 v 4 h -4 v -3 h -4 v 10 h 4 v -3 h 4 v 17 h -4 v -3 h -4 v 10 h 4 v -3 h 4 v 4 a 4,4 90 0 1 -4,4 h -4 -30 -10 -4 a 4,4 90 0 1 -4,-4 v -4 -21 -1 h -6 v 3 h -2 v -8 h 2 v 3 h 6 z"/><text style="font-size:14px;font-family:sans-serif;text-anchor:end;fill:#000" id="text200"><tspan id="tspan198" x="54.333" y="23.8">/</tspan></text></g></g><g id="g222" transform="translate(543.02278,387.42154)"><g id="g220" transform="scale(1.5)"><path style="fill:#ffb2bc;fill-opacity:1;stroke:#601136;stroke-width:1;stroke-linecap:round;stroke-opacity:1" id="path214" d="m 8.5,0.5 h 60 v 20 h -60 v -8 -1 h -6 v 3 h -2 v -8 h 2 v 3 h 6 v -1 z"/><text style="font-size:10px;font-family:sans-serif;text-anchor:start;fill:#000" id="text218"><tspan id="tspan216" x="13.333" y="13.833">2</tspan></text></g></g><g id="g232" transform="translate(379.83333,387.42154)"><g id="g230" transform="scale(1.5)"><path style="fill:#d57e6f;fill-opacity:1;stroke:#000;stroke-width:1;stroke-linecap:round;stroke-opacity:1" id="path224" d="m 0.5,8.5 v -4 a 4,4 90 0 1 4,-4 h 4 v 2 h 10 v -2 h 20 4 a 4,4 90 0 1 4,4 v 4 4 4 a 4,4 90 0 1 -4,4 h -4 -20 -1 v 2 h -8 v -2 h -1 -4 a 4,4 90 0 1 -4,-4 v -4 z"/><text style="font-size:10px;font-family:sans-serif;text-anchor:end;fill:#000" id="text228"><tspan id="tspan226" x="36.333" y="13.5">↓</tspan></text></g></g><g id="g246" transform="translate(352.83333,0.42154078)"><g id="g244" transform="scale(1.5)"><path style="fill:#ffe05c;fill-opacity:1;stroke:#644300;stroke-width:1;stroke-linecap:round;stroke-opacity:1" id="path234" d="m 0.5,14.5 v -4 a 4,4 90 0 1 4,-4 h 4 l 5,-6 5,6 h 9 35 4 a 4,4 90 0 1 4,4 v 4 h -4 v -3 h -4 v 10 h 4 v -3 h 4 v 4 a 4,4 90 0 1 -4,4 h -4 -35 -1 v 2 h -8 v -2 h -1 -4 a 5,5 90 0 0 -5,5 v 4 4 756 4 a 5,5 90 0 0 5,5 h 4 v 2 h 10 v -2 h 8 v 6 6 4 a 4,4 90 0 1 -4,4 h -4 -9 l -5,6 -5,-6 h -4 a 4,4 90 0 1 -4,-4 v -4 z"/><text style="font-size:10px;font-family:sans-serif;text-anchor:start;fill:#000" id="text238"><tspan id="tspan236" x="5.333" y="21.5">動作</tspan></text></g></g><g id="g256" transform="translate(447.33333,9.4215408)"><g id="g254" transform="scale(1.5)"><path style="fill:#76dbd7;fill-opacity:1;stroke:#003b41;stroke-width:1;stroke-linecap:round;stroke-opacity:1" id="path248" d="m 8.5,0.5 h 60 v 20 h -60 v -8 -1 h -6 v 3 h -2 v -8 h 2 v 3 h 6 v -1 z"/><text style="font-size:10px;font-family:sans-serif;text-anchor:start;fill:#000" id="text252"><tspan id="tspan250" x="13.333" y="13.833">tree</tspan></text></g></g><g id="g274" transform="translate(379.83333,859.92157)"><g id="g272" transform="scale(1.5)"><path style="fill:#ff8b2d;fill-opacity:1;stroke:#520000;stroke-width:1;stroke-linecap:round;stroke-opacity:1" id="path258" d="m 0.5,8.5 v -4 a 4,4 90 0 1 4,-4 h 4 v 2 h 10 v -2 h 32.792969 4 a 4,4 90 0 1 4,4 v 4 h -4 v -3 h -4 v 10 h 4 v -3 h 4 v 17 h -4 v -3 h -4 v 10 h 4 v -3 h 4 v 4 a 4,4 90 0 1 -4,4 h -4 H 18.5 h -1 v 2 h -8 v -2 h -1 -4 a 4,4 90 0 1 -4,-4 v -4 -21 z"/><text style="font-size:10px;font-family:sans-serif;text-anchor:end;fill:#000" id="text262"><tspan id="tspan260" x="49.126" y="24">方存</tspan></text><text style="font-size:6.66666651px;font-family:sans-serif;text-anchor:end;fill:#000" id="text266"><tspan id="tspan264" x="49.126" y="11.25">名前</tspan></text><text style="font-size:6.66666651px;font-family:sans-serif;text-anchor:end;fill:#000" id="text270"><tspan id="tspan268" x="49.126" y="32.25">価値</tspan></text></g></g><g id="g284" transform="translate(457.52278,859.92157)"><g id="g282" transform="scale(1.5)"><path style="fill:#76dbd7;fill-opacity:1;stroke:#003b41;stroke-width:1;stroke-linecap:round;stroke-opacity:1" id="path276" d="m 8.5,0.5 h 60 v 20 h -60 v -8 -1 h -6 v 3 h -2 v -8 h 2 v 3 h 6 v -1 z"/><text style="font-size:10px;font-family:sans-serif;text-anchor:start;fill:#000" id="text280"><tspan id="tspan278" x="13.333" y="13.833">length</tspan></text></g></g><g id="g302" transform="translate(379.83333,324.42154)"><g id="g300" transform="scale(1.5)"><path style="fill:#ff8b2d;fill-opacity:1;stroke:#520000;stroke-width:1;stroke-linecap:round;stroke-opacity:1" id="path286" d="m 0.5,8.5 v -4 a 4,4 90 0 1 4,-4 h 4 v 2 h 10 v -2 h 32.792969 4 a 4,4 90 0 1 4,4 v 4 h -4 v -3 h -4 v 10 h 4 v -3 h 4 v 17 h -4 v -3 h -4 v 10 h 4 v -3 h 4 v 4 a 4,4 90 0 1 -4,4 h -4 H 18.5 h -1 v 2 h -8 v -2 h -1 -4 a 4,4 90 0 1 -4,-4 v -4 -21 z"/><text style="font-size:10px;font-family:sans-serif;text-anchor:end;fill:#000" id="text290"><tspan id="tspan288" x="49.126" y="24">方存</tspan></text><text style="font-size:6.66666651px;font-family:sans-serif;text-anchor:end;fill:#000" id="text294"><tspan id="tspan292" x="49.126" y="11.25">名前</tspan></text><text style="font-size:6.66666651px;font-family:sans-serif;text-anchor:end;fill:#000" id="text298"><tspan id="tspan296" x="49.126" y="32.25">価値</tspan></text></g></g><g id="g312" transform="translate(457.52278,324.42154)"><g id="g310" transform="scale(1.5)"><path style="fill:#76dbd7;fill-opacity:1;stroke:#003b41;stroke-width:1;stroke-linecap:round;stroke-opacity:1" id="path304" d="m 8.5,0.5 h 60 v 20 h -60 v -8 -1 h -6 v 3 h -2 v -8 h 2 v 3 h 6 v -1 z"/><text style="font-size:10px;font-family:sans-serif;text-anchor:start;fill:#000" id="text308"><tspan id="tspan306" x="13.333" y="13.833">length</tspan></text></g></g><g id="g330" transform="translate(13.500003,40.921541)"><g id="g328" transform="scale(1.5)"><path style="fill:#ff8b2d;fill-opacity:1;stroke:#520000;stroke-width:1;stroke-linecap:round;stroke-opacity:1" id="path314" d="m 0.5,8.5 v -4 a 4,4 90 0 1 4,-4 h 4 v 2 h 10 v -2 h 32.792969 4 a 4,4 90 0 1 4,4 v 4 h -4 v -3 h -4 v 10 h 4 v -3 h 4 v 17 h -4 v -3 h -4 v 10 h 4 v -3 h 4 v 4 a 4,4 90 0 1 -4,4 h -4 H 18.5 h -1 v 2 h -8 v -2 h -1 -4 a 4,4 90 0 1 -4,-4 v -4 -21 z"/><text style="font-size:10px;font-family:sans-serif;text-anchor:end;fill:#000" id="text318"><tspan id="tspan316" x="49.126" y="24">方存</tspan></text><text style="font-size:6.66666651px;font-family:sans-serif;text-anchor:end;fill:#000" id="text322"><tspan id="tspan320" x="49.126" y="11.25">名前</tspan></text><text style="font-size:6.66666651px;font-family:sans-serif;text-anchor:end;fill:#000" id="text326"><tspan id="tspan324" x="49.126" y="32.25">価値</tspan></text></g></g><g id="g340" transform="translate(91.189453,40.921541)"><g id="g338" transform="scale(1.5)"><path style="fill:#76dbd7;fill-opacity:1;stroke:#003b41;stroke-width:1;stroke-linecap:round;stroke-opacity:1" id="path332" d="m 8.5,0.5 h 60 v 20 h -60 v -8 -1 h -6 v 3 h -2 v -8 h 2 v 3 h 6 v -1 z"/><text style="font-size:10px;font-family:sans-serif;text-anchor:start;fill:#000" id="text336"><tspan id="tspan334" x="13.333" y="13.833">length</tspan></text></g></g><g id="g350" transform="translate(471.85042,261.42154)"><g id="g348" transform="scale(1.5)"><path style="fill:#ff8b2d;fill-opacity:1;stroke:#520000;stroke-width:1;stroke-linecap:round;stroke-opacity:1" id="path342" d="m 8.5,0.5 h 80 v 20 h -80 v -8 -1 h -6 v 3 h -2 v -8 h 2 v 3 h 6 v -1 z"/><text style="font-size:10px;font-family:sans-serif;text-anchor:start;fill:#000" id="text346"><tspan id="tspan344" x="13.333" y="13.833">length</tspan></text></g></g><g id="g360" transform="translate(543.02278,355.92154)"><g id="g358" transform="scale(1.5)"><path style="fill:#ff8b2d;fill-opacity:1;stroke:#520000;stroke-width:1;stroke-linecap:round;stroke-opacity:1" id="path352" d="m 8.5,0.5 h 80 v 20 h -80 v -8 -1 h -6 v 3 h -2 v -8 h 2 v 3 h 6 v -1 z"/><text style="font-size:10px;font-family:sans-serif;text-anchor:start;fill:#000" id="text356"><tspan id="tspan354" x="13.333" y="13.833">length</tspan></text></g></g><g id="g370" transform="translate(543.02278,891.42157)"><g id="g368" transform="scale(1.5)"><path style="fill:#ff8b2d;fill-opacity:1;stroke:#520000;stroke-width:1;stroke-linecap:round;stroke-opacity:1" id="path362" d="m 8.5,0.5 h 80 v 20 h -80 v -8 -1 h -6 v 3 h -2 v -8 h 2 v 3 h 6 v -1 z"/><text style="font-size:10px;font-family:sans-serif;text-anchor:start;fill:#000" id="text366"><tspan id="tspan364" x="13.333" y="13.833">length</tspan></text></g></g><g id="g380" transform="translate(466.83333,1111.9216)"><g id="g378" transform="scale(1.5)"><path style="fill:#ff8b2d;fill-opacity:1;stroke:#520000;stroke-width:1;stroke-linecap:round;stroke-opacity:1" id="path372" d="m 8.5,0.5 h 80 v 20 h -80 v -8 -1 h -6 v 3 h -2 v -8 h 2 v 3 h 6 v -1 z"/><text style="font-size:10px;font-family:sans-serif;text-anchor:start;fill:#000" id="text376"><tspan id="tspan374" x="13.333" y="13.833">length</tspan></text></g></g><g id="g390" transform="translate(472.83333,40.921541)"><g id="g388" transform="scale(1.5)"><path style="fill:#ff8b2d;fill-opacity:1;stroke:#520000;stroke-width:1;stroke-linecap:round;stroke-opacity:1" id="path382" d="m 8.5,0.5 h 80 v 20 h -80 v -8 -1 h -6 v 3 h -2 v -8 h 2 v 3 h 6 v -1 z"/><text style="font-size:10px;font-family:sans-serif;text-anchor:start;fill:#000" id="text386"><tspan id="tspan384" x="13.333" y="13.833">length</tspan></text></g></g><g id="g400" transform="translate(27.000003,355.92154)"><g id="g398" transform="scale(1.5)"><path style="fill:#ffe05c;fill-opacity:1;stroke:#644300;stroke-width:1;stroke-linecap:round;stroke-opacity:1" id="path392" d="m 0.5,8.5 v -4 a 4,4 90 0 1 4,-4 h 4 v 2 h 10 v -2 h 40 4 a 4,4 90 0 1 4,4 v 4 4 4 a 4,4 90 0 1 -4,4 h -4 -40 -1 v 2 h -8 v -2 h -1 -4 a 4,4 90 0 1 -4,-4 v -4 z"/><text style="font-size:10px;font-family:sans-serif;text-anchor:end;fill:#000" id="text396"><tspan id="tspan394" x="56.333" y="13.5">tree</tspan></text></g></g><g id="g410" transform="translate(379.83333,544.92154)"><g id="g408" transform="scale(1.5)"><path style="fill:#ffe05c;fill-opacity:1;stroke:#644300;stroke-width:1;stroke-linecap:round;stroke-opacity:1" id="path402" d="m 0.5,8.5 v -4 a 4,4 90 0 1 4,-4 h 4 v 2 h 10 v -2 h 40 4 a 4,4 90 0 1 4,4 v 4 4 4 a 4,4 90 0 1 -4,4 h -4 -40 -1 v 2 h -8 v -2 h -1 -4 a 4,4 90 0 1 -4,-4 v -4 z"/><text style="font-size:10px;font-family:sans-serif;text-anchor:end;fill:#000" id="text406"><tspan id="tspan404" x="56.333" y="13.5">tree</tspan></text></g></g><g id="g420" transform="translate(379.83333,702.42154)"><g id="g418" transform="scale(1.5)"><path style="fill:#ffe05c;fill-opacity:1;stroke:#644300;stroke-width:1;stroke-linecap:round;stroke-opacity:1" id="path412" d="m 0.5,8.5 v -4 a 4,4 90 0 1 4,-4 h 4 v 2 h 10 v -2 h 40 4 a 4,4 90 0 1 4,4 v 4 4 4 a 4,4 90 0 1 -4,4 h -4 -40 -1 v 2 h -8 v -2 h -1 -4 a 4,4 90 0 1 -4,-4 v -4 z"/><text style="font-size:10px;font-family:sans-serif;text-anchor:end;fill:#000" id="text416"><tspan id="tspan414" x="56.333" y="13.5">tree</tspan></text></g></g><g id="g434" transform="translate(27.000003,135.42154)"><g id="g432" transform="scale(1.5)"><path style="fill:#ff8b2d;fill-opacity:1;stroke:#520000;stroke-width:1;stroke-linecap:round;stroke-opacity:1" id="path422" d="m 0.5,8.5 v -4 a 4,4 90 0 1 4,-4 h 4 v 2 h 10 v -2 h 9 36.147461 4 a 4,4 90 0 1 4,4 v 4 h -4 v -3 h -4 v 10 h 4 v -3 h 4 v 4 a 4,4 90 0 1 -4,4 h -4 H 27.5 h -1 v 2 h -8 v -2 h -1 -4 a 5,5 90 0 0 -5,5 v 4 4 84 4 a 5,5 90 0 0 5,5 h 4 v 2 h 10 v -2 h 8 v 6 6 4 a 4,4 90 0 1 -4,4 h -4 -9 -1 v 2 h -8 v -2 h -1 -4 a 4,4 90 0 1 -4,-4 v -4 z"/><text style="font-size:10px;font-family:sans-serif;text-anchor:start;fill:#000" id="text426"><tspan id="tspan424" x="5.333" y="15.25">音価</tspan></text></g></g><g id="g452" transform="translate(123.22119,135.42154)"><g id="g450" transform="scale(1.5)"><path style="fill:#ffb2bc;fill-opacity:1;stroke:#601136;stroke-width:1;stroke-linecap:round;stroke-opacity:1" id="path436" d="m 8.5,8.5 v -4 a 4,4 90 0 1 4,-4 h 4 10 30 4 a 4,4 90 0 1 4,4 v 4 h -4 v -3 h -4 v 10 h 4 v -3 h 4 v 17 h -4 v -3 h -4 v 10 h 4 v -3 h 4 v 4 a 4,4 90 0 1 -4,4 h -4 -30 -10 -4 a 4,4 90 0 1 -4,-4 v -4 -21 -1 h -6 v 3 h -2 v -8 h 2 v 3 h 6 z"/><text style="font-size:14px;font-family:sans-serif;text-anchor:end;fill:#000" id="text440"><tspan id="tspan438" x="54.333" y="23.8">/</tspan></text></g></g><g id="g462" transform="translate(208.72119,135.42154)"><g id="g460" transform="scale(1.5)"><path style="fill:#ffb2bc;fill-opacity:1;stroke:#601136;stroke-width:1;stroke-linecap:round;stroke-opacity:1" id="path454" d="m 8.5,0.5 h 60 v 20 h -60 v -8 -1 h -6 v 3 h -2 v -8 h 2 v 3 h 6 v -1 z"/><text style="font-size:10px;font-family:sans-serif;text-anchor:start;fill:#000" id="text458"><tspan id="tspan456" x="13.333" y="13.833">1</tspan></text></g></g><g id="g472" transform="translate(208.72119,166.92154)"><g id="g470" transform="scale(1.5)"><path style="fill:#ffb2bc;fill-opacity:1;stroke:#601136;stroke-width:1;stroke-linecap:round;stroke-opacity:1" id="path464" d="m 8.5,0.5 h 60 v 20 h -60 v -8 -1 h -6 v 3 h -2 v -8 h 2 v 3 h 6 v -1 z"/><text style="font-size:10px;font-family:sans-serif;text-anchor:start;fill:#000" id="text468"><tspan id="tspan466" x="13.333" y="13.833">16</tspan></text></g></g><g id="g482" transform="translate(40.500003,166.92154)"><g id="g480" transform="scale(1.5)"><path style="fill:#d57e6f;fill-opacity:1;stroke:#000;stroke-width:1;stroke-linecap:round;stroke-opacity:1" id="path474" d="m 0.5,8.5 v -4 a 4,4 90 0 1 4,-4 h 4 v 2 h 10 v -2 h 20 4 a 4,4 90 0 1 4,4 v 4 4 4 a 4,4 90 0 1 -4,4 h -4 -20 -1 v 2 h -8 v -2 h -1 -4 a 4,4 90 0 1 -4,-4 v -4 z"/><text style="font-size:10px;font-family:sans-serif;text-anchor:end;fill:#000" id="text478"><tspan id="tspan476" x="36.333" y="13.5">↓</tspan></text></g></g><g id="g500" transform="translate(40.500003,198.42154)"><g id="g498" transform="scale(1.5)"><path style="fill:#93e042;fill-opacity:1;stroke:#004000;stroke-width:1;stroke-linecap:round;stroke-opacity:1" id="path484" d="m 0.5,8.5 v -4 a 4,4 90 0 1 4,-4 h 4 v 2 h 10 v -2 h 30 4 a 4,4 90 0 1 4,4 v 4 h -4 v -3 h -4 v 10 h 4 v -3 h 4 v 17 h -4 v -3 h -4 v 10 h 4 v -3 h 4 v 4 a 4,4 90 0 1 -4,4 h -4 -30 -1 v 2 h -8 v -2 h -1 -4 a 4,4 90 0 1 -4,-4 v -4 -21 z"/><text style="font-size:10px;font-family:sans-serif;text-anchor:end;fill:#000" id="text488"><tspan id="tspan486" x="46.333" y="24">ピッチ</tspan></text><text style="font-size:6.66666651px;font-family:sans-serif;text-anchor:end;fill:#000" id="text492"><tspan id="tspan490" x="46.333" y="11.25">名前</tspan></text><text style="font-size:6.66666651px;font-family:sans-serif;text-anchor:end;fill:#000" id="text496"><tspan id="tspan494" x="46.333" y="32.25">オクターヴ</tspan></text></g></g><g id="g510" transform="translate(114,198.42154)"><g id="g508" transform="scale(1.5)"><path style="fill:#93e042;fill-opacity:1;stroke:#004000;stroke-width:1;stroke-linecap:round;stroke-opacity:1" id="path502" d="m 8.5,0.5 h 60 v 20 h -60 v -8 -1 h -6 v 3 h -2 v -8 h 2 v 3 h 6 v -1 z"/><text style="font-size:10px;font-family:sans-serif;text-anchor:start;fill:#000" id="text506"><tspan id="tspan504" x="13.333" y="13.833">ソ</tspan></text></g></g><g id="g520" transform="translate(114,229.92154)"><g id="g518" transform="scale(1.5)"><path style="fill:#ffb2bc;fill-opacity:1;stroke:#601136;stroke-width:1;stroke-linecap:round;stroke-opacity:1" id="path512" d="m 8.5,0.5 h 60 v 20 h -60 v -8 -1 h -6 v 3 h -2 v -8 h 2 v 3 h 6 v -1 z"/><text style="font-size:10px;font-family:sans-serif;text-anchor:start;fill:#000" id="text516"><tspan id="tspan514" x="13.333" y="13.833">4</tspan></text></g></g><g id="g534" transform="translate(379.83333,954.42157)"><g id="g532" transform="scale(1.5)"><path style="fill:#ff8b2d;fill-opacity:1;stroke:#520000;stroke-width:1;stroke-linecap:round;stroke-opacity:1" id="path522" d="m 0.5,8.5 v -4 a 4,4 90 0 1 4,-4 h 4 v 2 h 10 v -2 h 9 36.147461 4 a 4,4 90 0 1 4,4 v 4 h -4 v -3 h -4 v 10 h 4 v -3 h 4 v 4 a 4,4 90 0 1 -4,4 h -4 H 27.5 h -1 v 2 h -8 v -2 h -1 -4 a 5,5 90 0 0 -5,5 v 4 4 84 4 a 5,5 90 0 0 5,5 h 4 v 2 h 10 v -2 h 8 v 6 6 4 a 4,4 90 0 1 -4,4 h -4 -9 -1 v 2 h -8 v -2 h -1 -4 a 4,4 90 0 1 -4,-4 v -4 z"/><text style="font-size:10px;font-family:sans-serif;text-anchor:start;fill:#000" id="text526"><tspan id="tspan524" x="5.333" y="15.25">音価</tspan></text></g></g><g id="g544" transform="translate(561.55452,985.92157)"><g id="g542" transform="scale(1.5)"><path style="fill:#ffb2bc;fill-opacity:1;stroke:#601136;stroke-width:1;stroke-linecap:round;stroke-opacity:1" id="path536" d="m 8.5,0.5 h 60 v 20 h -60 v -8 -1 h -6 v 3 h -2 v -8 h 2 v 3 h 6 v -1 z"/><text style="font-size:10px;font-family:sans-serif;text-anchor:start;fill:#000" id="text540"><tspan id="tspan538" x="13.333" y="13.833">16</tspan></text></g></g><g id="g558" transform="translate(393.33333,1017.4216)"><g id="g556" transform="scale(1.5)"><path style="fill:#93e042;fill-opacity:1;stroke:#004000;stroke-width:1;stroke-linecap:round;stroke-opacity:1" id="path546" d="m 0.5,8.5 v -4 a 4,4 90 0 1 4,-4 h 4 v 2 h 10 v -2 h 42.802734 4 a 4,4 90 0 1 4,4 v 4 h -4 v -3 h -4 v 10 h 4 v -3 h 4 v 4 a 4,4 90 0 1 -4,4 h -4 H 18.5 h -1 v 2 h -8 v -2 h -1 -4 a 4,4 90 0 1 -4,-4 v -4 z"/><text style="font-size:10px;font-family:sans-serif;text-anchor:end;fill:#000" id="text550"><tspan id="tspan548" x="59.136" y="13.5">step pitch</tspan></text></g></g><g id="g568" transform="translate(486.03743,1017.4216)"><g id="g566" transform="scale(1.5)"><path style="fill:#ffb2bc;fill-opacity:1;stroke:#601136;stroke-width:1;stroke-linecap:round;stroke-opacity:1" id="path560" d="m 8.5,0.5 h 60 v 20 h -60 v -8 -1 h -6 v 3 h -2 v -8 h 2 v 3 h 6 v -1 z"/><text style="font-size:10px;font-family:sans-serif;text-anchor:start;fill:#000" id="text564"><tspan id="tspan562" x="13.333" y="13.833">-1</tspan></text></g></g><g id="g578" transform="translate(393.33333,985.92157)"><g id="g576" transform="scale(1.5)"><path style="fill:#d57e6f;fill-opacity:1;stroke:#000;stroke-width:1;stroke-linecap:round;stroke-opacity:1" id="path570" d="m 0.5,8.5 v -4 a 4,4 90 0 1 4,-4 h 4 v 2 h 10 v -2 h 20 4 a 4,4 90 0 1 4,4 v 4 4 4 a 4,4 90 0 1 -4,4 h -4 -20 -1 v 2 h -8 v -2 h -1 -4 a 4,4 90 0 1 -4,-4 v -4 z"/><text style="font-size:10px;font-family:sans-serif;text-anchor:end;fill:#000" id="text574"><tspan id="tspan572" x="36.333" y="13.5">↓</tspan></text></g></g><g id="g596" transform="translate(476.05452,954.42157)"><g id="g594" transform="scale(1.5)"><path style="fill:#ffb2bc;fill-opacity:1;stroke:#601136;stroke-width:1;stroke-linecap:round;stroke-opacity:1" id="path580" d="m 8.5,8.5 v -4 a 4,4 90 0 1 4,-4 h 4 10 30 4 a 4,4 90 0 1 4,4 v 4 h -4 v -3 h -4 v 10 h 4 v -3 h 4 v 17 h -4 v -3 h -4 v 10 h 4 v -3 h 4 v 4 a 4,4 90 0 1 -4,4 h -4 -30 -10 -4 a 4,4 90 0 1 -4,-4 v -4 -21 -1 h -6 v 3 h -2 v -8 h 2 v 3 h 6 z"/><text style="font-size:14px;font-family:sans-serif;text-anchor:end;fill:#000" id="text584"><tspan id="tspan582" x="54.333" y="23.8">/</tspan></text></g></g><g id="g606" transform="translate(561.55452,954.42157)"><g id="g604" transform="scale(1.5)"><path style="fill:#ffb2bc;fill-opacity:1;stroke:#601136;stroke-width:1;stroke-linecap:round;stroke-opacity:1" id="path598" d="m 8.5,0.5 h 60 v 20 h -60 v -8 -1 h -6 v 3 h -2 v -8 h 2 v 3 h 6 v -1 z"/><text style="font-size:10px;font-family:sans-serif;text-anchor:start;fill:#000" id="text602"><tspan id="tspan600" x="13.333" y="13.833">1</tspan></text></g></g><g id="g620" transform="translate(379.83333,103.92154)"><g id="g618" transform="scale(1.5)"><path style="fill:#ff8b2d;fill-opacity:1;stroke:#520000;stroke-width:1;stroke-linecap:round;stroke-opacity:1" id="path608" d="m 0.5,8.5 v -4 a 4,4 90 0 1 4,-4 h 4 v 2 h 10 v -2 h 9 36.147461 4 a 4,4 90 0 1 4,4 v 4 h -4 v -3 h -4 v 10 h 4 v -3 h 4 v 4 a 4,4 90 0 1 -4,4 h -4 H 27.5 h -1 v 2 h -8 v -2 h -1 -4 a 5,5 90 0 0 -5,5 v 4 4 84 4 a 5,5 90 0 0 5,5 h 4 v 2 h 10 v -2 h 8 v 6 6 4 a 4,4 90 0 1 -4,4 h -4 -9 -1 v 2 h -8 v -2 h -1 -4 a 4,4 90 0 1 -4,-4 v -4 z"/><text style="font-size:10px;font-family:sans-serif;text-anchor:start;fill:#000" id="text612"><tspan id="tspan610" x="5.333" y="15.25">音価</tspan></text></g></g><g id="g630" transform="translate(561.55452,135.42154)"><g id="g628" transform="scale(1.5)"><path style="fill:#ffb2bc;fill-opacity:1;stroke:#601136;stroke-width:1;stroke-linecap:round;stroke-opacity:1" id="path622" d="m 8.5,0.5 h 60 v 20 h -60 v -8 -1 h -6 v 3 h -2 v -8 h 2 v 3 h 6 v -1 z"/><text style="font-size:10px;font-family:sans-serif;text-anchor:start;fill:#000" id="text626"><tspan id="tspan624" x="13.333" y="13.833">16</tspan></text></g></g><g id="g644" transform="translate(393.33333,166.92154)"><g id="g642" transform="scale(1.5)"><path style="fill:#93e042;fill-opacity:1;stroke:#004000;stroke-width:1;stroke-linecap:round;stroke-opacity:1" id="path632" d="m 0.5,8.5 v -4 a 4,4 90 0 1 4,-4 h 4 v 2 h 10 v -2 h 42.802734 4 a 4,4 90 0 1 4,4 v 4 h -4 v -3 h -4 v 10 h 4 v -3 h 4 v 4 a 4,4 90 0 1 -4,4 h -4 H 18.5 h -1 v 2 h -8 v -2 h -1 -4 a 4,4 90 0 1 -4,-4 v -4 z"/><text style="font-size:10px;font-family:sans-serif;text-anchor:end;fill:#000" id="text636"><tspan id="tspan634" x="59.136" y="13.5">step pitch</tspan></text></g></g><g id="g654" transform="translate(486.03743,166.92154)"><g id="g652" transform="scale(1.5)"><path style="fill:#ffb2bc;fill-opacity:1;stroke:#601136;stroke-width:1;stroke-linecap:round;stroke-opacity:1" id="path646" d="m 8.5,0.5 h 60 v 20 h -60 v -8 -1 h -6 v 3 h -2 v -8 h 2 v 3 h 6 v -1 z"/><text style="font-size:10px;font-family:sans-serif;text-anchor:start;fill:#000" id="text650"><tspan id="tspan648" x="13.333" y="13.833">1</tspan></text></g></g><g id="g664" transform="translate(393.33333,135.42154)"><g id="g662" transform="scale(1.5)"><path style="fill:#d57e6f;fill-opacity:1;stroke:#000;stroke-width:1;stroke-linecap:round;stroke-opacity:1" id="path656" d="m 0.5,8.5 v -4 a 4,4 90 0 1 4,-4 h 4 v 2 h 10 v -2 h 20 4 a 4,4 90 0 1 4,4 v 4 4 4 a 4,4 90 0 1 -4,4 h -4 -20 -1 v 2 h -8 v -2 h -1 -4 a 4,4 90 0 1 -4,-4 v -4 z"/><text style="font-size:10px;font-family:sans-serif;text-anchor:end;fill:#000" id="text660"><tspan id="tspan658" x="36.333" y="13.5">↓</tspan></text></g></g><g id="g682" transform="translate(476.05452,103.92154)"><g id="g680" transform="scale(1.5)"><path style="fill:#ffb2bc;fill-opacity:1;stroke:#601136;stroke-width:1;stroke-linecap:round;stroke-opacity:1" id="path666" d="m 8.5,8.5 v -4 a 4,4 90 0 1 4,-4 h 4 10 30 4 a 4,4 90 0 1 4,4 v 4 h -4 v -3 h -4 v 10 h 4 v -3 h 4 v 17 h -4 v -3 h -4 v 10 h 4 v -3 h 4 v 4 a 4,4 90 0 1 -4,4 h -4 -30 -10 -4 a 4,4 90 0 1 -4,-4 v -4 -21 -1 h -6 v 3 h -2 v -8 h 2 v 3 h 6 z"/><text style="font-size:14px;font-family:sans-serif;text-anchor:end;fill:#000" id="text670"><tspan id="tspan668" x="54.333" y="23.8">/</tspan></text></g></g><g id="g692" transform="translate(561.55452,103.92154)"><g id="g690" transform="scale(1.5)"><path style="fill:#ffb2bc;fill-opacity:1;stroke:#601136;stroke-width:1;stroke-linecap:round;stroke-opacity:1" id="path684" d="m 8.5,0.5 h 60 v 20 h -60 v -8 -1 h -6 v 3 h -2 v -8 h 2 v 3 h 6 v -1 z"/><text style="font-size:10px;font-family:sans-serif;text-anchor:start;fill:#000" id="text688"><tspan id="tspan686" x="13.333" y="13.833">1</tspan></text></g></g><g id="g702" transform="translate(13.500003,103.92154)"><g id="g700" transform="scale(1.5)"><path style="fill:#ff8b2d;fill-opacity:1;stroke:#520000;stroke-width:1;stroke-linecap:round;stroke-opacity:1" id="path694" d="m 0.5,8.5 v -4 a 4,4 90 0 1 4,-4 h 4 v 2 h 10 v -2 h 9 16.68457 4 a 4,4 90 0 1 4,4 v 4 4 4 a 4,4 90 0 1 -4,4 h -4 H 27.5 h -1 v 2 h -8 v -2 h -1 -4 a 5,5 90 0 0 -5,5 v 4 4 147 4 a 5,5 90 0 0 5,5 h 4 v 2 h 10 v -2 h 8 v 6 6 4 a 4,4 90 0 1 -4,4 h -4 -9 -1 v 2 h -8 v -2 h -1 -4 a 4,4 90 0 1 -4,-4 v -4 z"/><text style="font-size:10px;font-family:sans-serif;text-anchor:start;fill:#000" id="text698"><tspan id="tspan696" x="5.333" y="15.25">クロックなし</tspan></text></g></g><g id="g712" transform="translate(379.83333,922.92157)"><g id="g710" transform="scale(1.5)"><path style="fill:#d57e6f;fill-opacity:1;stroke:#000;stroke-width:1;stroke-linecap:round;stroke-opacity:1" id="path704" d="m 0.5,8.5 v -4 a 4,4 90 0 1 4,-4 h 4 v 2 h 10 v -2 h 20 4 a 4,4 90 0 1 4,4 v 4 4 4 a 4,4 90 0 1 -4,4 h -4 -20 -1 v 2 h -8 v -2 h -1 -4 a 4,4 90 0 1 -4,-4 v -4 z"/><text style="font-size:10px;font-family:sans-serif;text-anchor:end;fill:#000" id="text708"><tspan id="tspan706" x="36.333" y="13.5">↓</tspan></text></g></g><g id="g726" transform="translate(40.500003,292.92154)"><g id="g724" transform="scale(1.5)"><path style="fill:#9ddd5f;fill-opacity:1;stroke:#003e00;stroke-width:1;stroke-linecap:round;stroke-opacity:1" id="path714" d="m 0.5,8.5 v -4 a 4,4 90 0 1 4,-4 h 4 v 2 h 10 v -2 h 30 4 a 4,4 90 0 1 4,4 v 4 h -4 v -3 h -4 v 10 h 4 v -3 h 4 v 4 a 4,4 90 0 1 -4,4 h -4 -30 -1 v 2 h -8 v -2 h -1 -4 a 4,4 90 0 1 -4,-4 v -4 z"/><text style="font-size:10px;font-family:sans-serif;text-anchor:end;fill:#000" id="text718"><tspan id="tspan716" x="46.333" y="13.5">後ろ</tspan></text></g></g><g id="g736" transform="translate(114,292.92154)"><g id="g734" transform="scale(1.5)"><path style="fill:#ffb2bc;fill-opacity:1;stroke:#601136;stroke-width:1;stroke-linecap:round;stroke-opacity:1" id="path728" d="m 8.5,0.5 h 60 v 20 h -60 v -8 -1 h -6 v 3 h -2 v -8 h 2 v 3 h 6 v -1 z"/><text style="font-size:10px;font-family:sans-serif;text-anchor:start;fill:#000" id="text732"><tspan id="tspan730" x="13.333" y="13.833">256</tspan></text></g></g><g id="g750" transform="translate(393.33333,229.92154)"><g id="g748" transform="scale(1.5)"><path style="fill:#3ea4a3;fill-opacity:1;stroke:#000;stroke-width:1;stroke-linecap:round;stroke-opacity:1" id="path738" d="m 0.5,8.5 v -4 a 4,4 90 0 1 4,-4 h 4 v 2 h 10 v -2 h 53.364258 4 a 4,4 90 0 1 4,4 v 4 h -4 v -3 h -4 v 10 h 4 v -3 h 4 v 4 a 4,4 90 0 1 -4,4 h -4 H 18.5 h -1 v 2 h -8 v -2 h -1 -4 a 4,4 90 0 1 -4,-4 v -4 z"/><text style="font-size:10px;font-family:sans-serif;text-anchor:end;fill:#000" id="text742"><tspan id="tspan740" x="69.698" y="13.5">ペンの大きさの設定</tspan></text></g></g><g id="g760" transform="translate(501.87972,229.92154)"><g id="g758" transform="scale(1.5)"><path style="fill:#ffb2bc;fill-opacity:1;stroke:#601136;stroke-width:1;stroke-linecap:round;stroke-opacity:1" id="path752" d="m 8.5,0.5 h 60 v 20 h -60 v -8 -1 h -6 v 3 h -2 v -8 h 2 v 3 h 6 v -1 z"/><text style="font-size:10px;font-family:sans-serif;text-anchor:start;fill:#000" id="text756"><tspan id="tspan754" x="13.333" y="13.833">8</tspan></text></g></g><g id="g774" transform="translate(393.33333,198.42154)"><g id="g772" transform="scale(1.5)"><path style="fill:#3ea4a3;fill-opacity:1;stroke:#000;stroke-width:1;stroke-linecap:round;stroke-opacity:1" id="path762" d="m 0.5,8.5 v -4 a 4,4 90 0 1 4,-4 h 4 v 2 h 10 v -2 h 43.364258 4 a 4,4 90 0 1 4,4 v 4 h -4 v -3 h -4 v 10 h 4 v -3 h 4 v 4 a 4,4 90 0 1 -4,4 h -4 H 18.5 h -1 v 2 h -8 v -2 h -1 -4 a 4,4 90 0 1 -4,-4 v -4 z"/><text style="font-size:10px;font-family:sans-serif;text-anchor:end;fill:#000" id="text766"><tspan id="tspan764" x="59.698" y="13.5">濃淡を設定</tspan></text></g></g><g id="g784" transform="translate(486.87972,198.42154)"><g id="g782" transform="scale(1.5)"><path style="fill:#ffb2bc;fill-opacity:1;stroke:#601136;stroke-width:1;stroke-linecap:round;stroke-opacity:1" id="path776" d="m 8.5,0.5 h 60 v 20 h -60 v -8 -1 h -6 v 3 h -2 v -8 h 2 v 3 h 6 v -1 z"/><text style="font-size:10px;font-family:sans-serif;text-anchor:start;fill:#000" id="text780"><tspan id="tspan778" x="13.333" y="13.833">50</tspan></text></g></g><g id="g798" transform="translate(393.33333,1048.9216)"><g id="g796" transform="scale(1.5)"><path style="fill:#3ea4a3;fill-opacity:1;stroke:#000;stroke-width:1;stroke-linecap:round;stroke-opacity:1" id="path786" d="m 0.5,8.5 v -4 a 4,4 90 0 1 4,-4 h 4 v 2 h 10 v -2 h 43.364258 4 a 4,4 90 0 1 4,4 v 4 h -4 v -3 h -4 v 10 h 4 v -3 h 4 v 4 a 4,4 90 0 1 -4,4 h -4 H 18.5 h -1 v 2 h -8 v -2 h -1 -4 a 4,4 90 0 1 -4,-4 v -4 z"/><text style="font-size:10px;font-family:sans-serif;text-anchor:end;fill:#000" id="text790"><tspan id="tspan788" x="59.698" y="13.5">濃淡を設定</tspan></text></g></g><g id="g808" transform="translate(486.87972,1048.9216)"><g id="g806" transform="scale(1.5)"><path style="fill:#ffb2bc;fill-opacity:1;stroke:#601136;stroke-width:1;stroke-linecap:round;stroke-opacity:1" id="path800" d="m 8.5,0.5 h 60 v 20 h -60 v -8 -1 h -6 v 3 h -2 v -8 h 2 v 3 h 6 v -1 z"/><text style="font-size:10px;font-family:sans-serif;text-anchor:start;fill:#000" id="text804"><tspan id="tspan802" x="13.333" y="13.833">25</tspan></text></g></g><g id="g822" transform="translate(393.33333,1080.4216)"><g id="g820" transform="scale(1.5)"><path style="fill:#3ea4a3;fill-opacity:1;stroke:#000;stroke-width:1;stroke-linecap:round;stroke-opacity:1" id="path810" d="m 0.5,8.5 v -4 a 4,4 90 0 1 4,-4 h 4 v 2 h 10 v -2 h 53.364258 4 a 4,4 90 0 1 4,4 v 4 h -4 v -3 h -4 v 10 h 4 v -3 h 4 v 4 a 4,4 90 0 1 -4,4 h -4 H 18.5 h -1 v 2 h -8 v -2 h -1 -4 a 4,4 90 0 1 -4,-4 v -4 z"/><text style="font-size:10px;font-family:sans-serif;text-anchor:end;fill:#000" id="text814"><tspan id="tspan812" x="69.698" y="13.5">ペンの大きさの設定</tspan></text></g></g><g id="g832" transform="translate(501.87972,1080.4216)"><g id="g830" transform="scale(1.5)"><path style="fill:#ffb2bc;fill-opacity:1;stroke:#601136;stroke-width:1;stroke-linecap:round;stroke-opacity:1" id="path824" d="m 8.5,0.5 h 60 v 20 h -60 v -8 -1 h -6 v 3 h -2 v -8 h 2 v 3 h 6 v -1 z"/><text style="font-size:10px;font-family:sans-serif;text-anchor:start;fill:#000" id="text828"><tspan id="tspan826" x="13.333" y="13.833">2</tspan></text></g></g><g id="g846" transform="translate(379.83333,418.92154)"><g id="g844" transform="scale(1.5)"><path style="fill:#ff8b2d;fill-opacity:1;stroke:#520000;stroke-width:1;stroke-linecap:round;stroke-opacity:1" id="path834" d="m 0.5,8.5 v -4 a 4,4 90 0 1 4,-4 h 4 v 2 h 10 v -2 h 9 36.147461 4 a 4,4 90 0 1 4,4 v 4 h -4 v -3 h -4 v 10 h 4 v -3 h 4 v 4 a 4,4 90 0 1 -4,4 h -4 H 27.5 h -1 v 2 h -8 v -2 h -1 -4 a 5,5 90 0 0 -5,5 v 4 4 21 4 a 5,5 90 0 0 5,5 h 4 v 2 h 10 v -2 h 8 v 6 6 4 a 4,4 90 0 1 -4,4 h -4 -9 -1 v 2 h -8 v -2 h -1 -4 a 4,4 90 0 1 -4,-4 v -4 z"/><text style="font-size:10px;font-family:sans-serif;text-anchor:start;fill:#000" id="text838"><tspan id="tspan836" x="5.333" y="15.25">音価</tspan></text></g></g><g id="g864" transform="translate(476.05452,418.92154)"><g id="g862" transform="scale(1.5)"><path style="fill:#ffb2bc;fill-opacity:1;stroke:#601136;stroke-width:1;stroke-linecap:round;stroke-opacity:1" id="path848" d="m 8.5,8.5 v -4 a 4,4 90 0 1 4,-4 h 4 10 30 4 a 4,4 90 0 1 4,4 v 4 h -4 v -3 h -4 v 10 h 4 v -3 h 4 v 17 h -4 v -3 h -4 v 10 h 4 v -3 h 4 v 4 a 4,4 90 0 1 -4,4 h -4 -30 -10 -4 a 4,4 90 0 1 -4,-4 v -4 -21 -1 h -6 v 3 h -2 v -8 h 2 v 3 h 6 z"/><text style="font-size:14px;font-family:sans-serif;text-anchor:end;fill:#000" id="text852"><tspan id="tspan850" x="54.333" y="23.8">/</tspan></text></g></g><g id="g874" transform="translate(561.55452,418.92154)"><g id="g872" transform="scale(1.5)"><path style="fill:#ffb2bc;fill-opacity:1;stroke:#601136;stroke-width:1;stroke-linecap:round;stroke-opacity:1" id="path866" d="m 8.5,0.5 h 60 v 20 h -60 v -8 -1 h -6 v 3 h -2 v -8 h 2 v 3 h 6 v -1 z"/><text style="font-size:10px;font-family:sans-serif;text-anchor:start;fill:#000" id="text870"><tspan id="tspan868" x="13.333" y="13.833">1</tspan></text></g></g><g id="g884" transform="translate(561.55452,450.42154)"><g id="g882" transform="scale(1.5)"><path style="fill:#ffb2bc;fill-opacity:1;stroke:#601136;stroke-width:1;stroke-linecap:round;stroke-opacity:1" id="path876" d="m 8.5,0.5 h 60 v 20 h -60 v -8 -1 h -6 v 3 h -2 v -8 h 2 v 3 h 6 v -1 z"/><text style="font-size:10px;font-family:sans-serif;text-anchor:start;fill:#000" id="text880"><tspan id="tspan878" x="13.333" y="13.833">64</tspan></text></g></g><g id="g894" transform="translate(393.33333,450.42154)"><g id="g892" transform="scale(1.5)"><path style="fill:#d57e6f;fill-opacity:1;stroke:#000;stroke-width:1;stroke-linecap:round;stroke-opacity:1" id="path886" d="m 0.5,8.5 v -4 a 4,4 90 0 1 4,-4 h 4 v 2 h 10 v -2 h 20 4 a 4,4 90 0 1 4,4 v 4 4 4 a 4,4 90 0 1 -4,4 h -4 -20 -1 v 2 h -8 v -2 h -1 -4 a 4,4 90 0 1 -4,-4 v -4 z"/><text style="font-size:10px;font-family:sans-serif;text-anchor:end;fill:#000" id="text890"><tspan id="tspan888" x="36.333" y="13.5">↓</tspan></text></g></g><g id="g908" transform="translate(379.83333,576.42154)"><g id="g906" transform="scale(1.5)"><path style="fill:#ff8b2d;fill-opacity:1;stroke:#520000;stroke-width:1;stroke-linecap:round;stroke-opacity:1" id="path896" d="m 0.5,8.5 v -4 a 4,4 90 0 1 4,-4 h 4 v 2 h 10 v -2 h 9 36.147461 4 a 4,4 90 0 1 4,4 v 4 h -4 v -3 h -4 v 10 h 4 v -3 h 4 v 4 a 4,4 90 0 1 -4,4 h -4 H 27.5 h -1 v 2 h -8 v -2 h -1 -4 a 5,5 90 0 0 -5,5 v 4 4 21 4 a 5,5 90 0 0 5,5 h 4 v 2 h 10 v -2 h 8 v 6 6 4 a 4,4 90 0 1 -4,4 h -4 -9 -1 v 2 h -8 v -2 h -1 -4 a 4,4 90 0 1 -4,-4 v -4 z"/><text style="font-size:10px;font-family:sans-serif;text-anchor:start;fill:#000" id="text900"><tspan id="tspan898" x="5.333" y="15.25">音価</tspan></text></g></g><g id="g926" transform="translate(476.05452,576.42154)"><g id="g924" transform="scale(1.5)"><path style="fill:#ffb2bc;fill-opacity:1;stroke:#601136;stroke-width:1;stroke-linecap:round;stroke-opacity:1" id="path910" d="m 8.5,8.5 v -4 a 4,4 90 0 1 4,-4 h 4 10 30 4 a 4,4 90 0 1 4,4 v 4 h -4 v -3 h -4 v 10 h 4 v -3 h 4 v 17 h -4 v -3 h -4 v 10 h 4 v -3 h 4 v 4 a 4,4 90 0 1 -4,4 h -4 -30 -10 -4 a 4,4 90 0 1 -4,-4 v -4 -21 -1 h -6 v 3 h -2 v -8 h 2 v 3 h 6 z"/><text style="font-size:14px;font-family:sans-serif;text-anchor:end;fill:#000" id="text914"><tspan id="tspan912" x="54.333" y="23.8">/</tspan></text></g></g><g id="g936" transform="translate(561.55452,576.42154)"><g id="g934" transform="scale(1.5)"><path style="fill:#ffb2bc;fill-opacity:1;stroke:#601136;stroke-width:1;stroke-linecap:round;stroke-opacity:1" id="path928" d="m 8.5,0.5 h 60 v 20 h -60 v -8 -1 h -6 v 3 h -2 v -8 h 2 v 3 h 6 v -1 z"/><text style="font-size:10px;font-family:sans-serif;text-anchor:start;fill:#000" id="text932"><tspan id="tspan930" x="13.333" y="13.833">1</tspan></text></g></g><g id="g946" transform="translate(561.55452,607.92154)"><g id="g944" transform="scale(1.5)"><path style="fill:#ffb2bc;fill-opacity:1;stroke:#601136;stroke-width:1;stroke-linecap:round;stroke-opacity:1" id="path938" d="m 8.5,0.5 h 60 v 20 h -60 v -8 -1 h -6 v 3 h -2 v -8 h 2 v 3 h 6 v -1 z"/><text style="font-size:10px;font-family:sans-serif;text-anchor:start;fill:#000" id="text942"><tspan id="tspan940" x="13.333" y="13.833">32</tspan></text></g></g><g id="g956" transform="translate(393.33333,607.92154)"><g id="g954" transform="scale(1.5)"><path style="fill:#d57e6f;fill-opacity:1;stroke:#000;stroke-width:1;stroke-linecap:round;stroke-opacity:1" id="path948" d="m 0.5,8.5 v -4 a 4,4 90 0 1 4,-4 h 4 v 2 h 10 v -2 h 20 4 a 4,4 90 0 1 4,4 v 4 4 4 a 4,4 90 0 1 -4,4 h -4 -20 -1 v 2 h -8 v -2 h -1 -4 a 4,4 90 0 1 -4,-4 v -4 z"/><text style="font-size:10px;font-family:sans-serif;text-anchor:end;fill:#000" id="text952"><tspan id="tspan950" x="36.333" y="13.5">↓</tspan></text></g></g><g id="g970" transform="translate(379.83333,733.92154)"><g id="g968" transform="scale(1.5)"><path style="fill:#ff8b2d;fill-opacity:1;stroke:#520000;stroke-width:1;stroke-linecap:round;stroke-opacity:1" id="path958" d="m 0.5,8.5 v -4 a 4,4 90 0 1 4,-4 h 4 v 2 h 10 v -2 h 9 36.147461 4 a 4,4 90 0 1 4,4 v 4 h -4 v -3 h -4 v 10 h 4 v -3 h 4 v 4 a 4,4 90 0 1 -4,4 h -4 H 27.5 h -1 v 2 h -8 v -2 h -1 -4 a 5,5 90 0 0 -5,5 v 4 4 21 4 a 5,5 90 0 0 5,5 h 4 v 2 h 10 v -2 h 8 v 6 6 4 a 4,4 90 0 1 -4,4 h -4 -9 -1 v 2 h -8 v -2 h -1 -4 a 4,4 90 0 1 -4,-4 v -4 z"/><text style="font-size:10px;font-family:sans-serif;text-anchor:start;fill:#000" id="text962"><tspan id="tspan960" x="5.333" y="15.25">音価</tspan></text></g></g><g id="g988" transform="translate(476.05452,733.92154)"><g id="g986" transform="scale(1.5)"><path style="fill:#ffb2bc;fill-opacity:1;stroke:#601136;stroke-width:1;stroke-linecap:round;stroke-opacity:1" id="path972" d="m 8.5,8.5 v -4 a 4,4 90 0 1 4,-4 h 4 10 30 4 a 4,4 90 0 1 4,4 v 4 h -4 v -3 h -4 v 10 h 4 v -3 h 4 v 17 h -4 v -3 h -4 v 10 h 4 v -3 h 4 v 4 a 4,4 90 0 1 -4,4 h -4 -30 -10 -4 a 4,4 90 0 1 -4,-4 v -4 -21 -1 h -6 v 3 h -2 v -8 h 2 v 3 h 6 z"/><text style="font-size:14px;font-family:sans-serif;text-anchor:end;fill:#000" id="text976"><tspan id="tspan974" x="54.333" y="23.8">/</tspan></text></g></g><g id="g998" transform="translate(561.55452,733.92154)"><g id="g996" transform="scale(1.5)"><path style="fill:#ffb2bc;fill-opacity:1;stroke:#601136;stroke-width:1;stroke-linecap:round;stroke-opacity:1" id="path990" d="m 8.5,0.5 h 60 v 20 h -60 v -8 -1 h -6 v 3 h -2 v -8 h 2 v 3 h 6 v -1 z"/><text style="font-size:10px;font-family:sans-serif;text-anchor:start;fill:#000" id="text994"><tspan id="tspan992" x="13.333" y="13.833">1</tspan></text></g></g><g id="g1008" transform="translate(561.55452,765.42154)"><g id="g1006" transform="scale(1.5)"><path style="fill:#ffb2bc;fill-opacity:1;stroke:#601136;stroke-width:1;stroke-linecap:round;stroke-opacity:1" id="path1000" d="m 8.5,0.5 h 60 v 20 h -60 v -8 -1 h -6 v 3 h -2 v -8 h 2 v 3 h 6 v -1 z"/><text style="font-size:10px;font-family:sans-serif;text-anchor:start;fill:#000" id="text1004"><tspan id="tspan1002" x="13.333" y="13.833">64</tspan></text></g></g><g id="g1018" transform="translate(393.33333,765.42154)"><g id="g1016" transform="scale(1.5)"><path style="fill:#d57e6f;fill-opacity:1;stroke:#000;stroke-width:1;stroke-linecap:round;stroke-opacity:1" id="path1010" d="m 0.5,8.5 v -4 a 4,4 90 0 1 4,-4 h 4 v 2 h 10 v -2 h 20 4 a 4,4 90 0 1 4,4 v 4 4 4 a 4,4 90 0 1 -4,4 h -4 -20 -1 v 2 h -8 v -2 h -1 -4 a 4,4 90 0 1 -4,-4 v -4 z"/><text style="font-size:10px;font-family:sans-serif;text-anchor:end;fill:#000" id="text1014"><tspan id="tspan1012" x="36.333" y="13.5">↓</tspan></text></g></g></svg>