<svg xmlns="http://www.w3.org/2000/svg" xmlns:svg="http://www.w3.org/2000/svg" id="svg6154" width="970.568" height="654.843" version="1.1"><metadata id="metadata6160"/><g id="g5266" transform="translate(-3.3333333e-6,2.4215375)"><g id="g5264" transform="scale(1.5)"><path id="path5258" d="m 0.5,14.5 v -4 a 4,4 90 0 1 4,-4 h 4 l 5,-6 5,6 h 9 30 4 a 4,4 90 0 1 4,4 v 4 4 4 a 4,4 90 0 1 -4,4 h -4 -30 -1 v 2 h -8 v -2 h -1 -4 a 5,5 90 0 0 -5,5 v 4 4 315 4 a 5,5 90 0 0 5,5 h 4 v 2 h 10 v -2 h 8 v 6 6 4 a 4,4 90 0 1 -4,4 h -4 -9 l -5,6 -5,-6 h -4 a 4,4 90 0 1 -4,-4 v -4 z" style="fill:#ffe05c;fill-opacity:1;stroke:#644300;stroke-width:1;stroke-linecap:round;stroke-opacity:1"/><text id="text5262" style="font-size:10px;font-family:sans-serif;text-anchor:start;fill:#000"><tspan id="tspan5260" x="5.333" y="21.5">スタート</tspan></text></g></g><g id="g5276" transform="translate(284.66667,3.4215375)"><g id="g5274" transform="scale(1.5)"><path id="path5268" d="m 0.5,14.5 v -4 a 4,4 90 0 1 4,-4 h 4 l 5,-6 5,6 h 9 30 4 a 4,4 90 0 1 4,4 v 4 4 4 a 4,4 90 0 1 -4,4 h -4 -30 -1 v 2 h -8 v -2 h -1 -4 a 5,5 90 0 0 -5,5 v 4 4 21 4 a 5,5 90 0 0 5,5 h 4 v 2 h 10 v -2 h 8 v 6 6 4 a 4,4 90 0 1 -4,4 h -4 -9 l -5,6 -5,-6 h -4 a 4,4 90 0 1 -4,-4 v -4 z" style="fill:#ffe05c;fill-opacity:1;stroke:#644300;stroke-width:1;stroke-linecap:round;stroke-opacity:1"/><text id="text5272" style="font-size:10px;font-family:sans-serif;text-anchor:start;fill:#000"><tspan id="tspan5270" x="5.333" y="21.5">スタート</tspan></text></g></g><g id="g5286" transform="translate(289.66667,315.42154)"><g id="g5284" transform="scale(1.5)"><path id="path5278" d="m 0.5,14.5 v -4 a 4,4 90 0 1 4,-4 h 4 l 5,-6 5,6 h 9 30 4 a 4,4 90 0 1 4,4 v 4 4 4 a 4,4 90 0 1 -4,4 h -4 -30 -1 v 2 h -8 v -2 h -1 -4 a 5,5 90 0 0 -5,5 v 4 4 21 4 a 5,5 90 0 0 5,5 h 4 v 2 h 10 v -2 h 8 v 6 6 4 a 4,4 90 0 1 -4,4 h -4 -9 l -5,6 -5,-6 h -4 a 4,4 90 0 1 -4,-4 v -4 z" style="fill:#ffe05c;fill-opacity:1;stroke:#644300;stroke-width:1;stroke-linecap:round;stroke-opacity:1"/><text id="text5282" style="font-size:10px;font-family:sans-serif;text-anchor:start;fill:#000"><tspan id="tspan5280" x="5.333" y="21.5">スタート</tspan></text></g></g><g id="g5296" transform="translate(288.66667,156.42154)"><g id="g5294" transform="scale(1.5)"><path id="path5288" d="m 0.5,14.5 v -4 a 4,4 90 0 1 4,-4 h 4 l 5,-6 5,6 h 9 30 4 a 4,4 90 0 1 4,4 v 4 4 4 a 4,4 90 0 1 -4,4 h -4 -30 -1 v 2 h -8 v -2 h -1 -4 a 5,5 90 0 0 -5,5 v 4 4 21 4 a 5,5 90 0 0 5,5 h 4 v 2 h 10 v -2 h 8 v 6 6 4 a 4,4 90 0 1 -4,4 h -4 -9 l -5,6 -5,-6 h -4 a 4,4 90 0 1 -4,-4 v -4 z" style="fill:#ffe05c;fill-opacity:1;stroke:#644300;stroke-width:1;stroke-linecap:round;stroke-opacity:1"/><text id="text5292" style="font-size:10px;font-family:sans-serif;text-anchor:start;fill:#000"><tspan id="tspan5290" x="5.333" y="21.5">スタート</tspan></text></g></g><g id="g5310" transform="translate(13.499997,74.421537)"><g id="g5308" transform="scale(1.5)"><path id="path5298" d="m 0.5,8.5 v -4 a 4,4 90 0 1 4,-4 h 4 v 2 h 10 v -2 h 9 20 4 a 4,4 90 0 1 4,4 v 4 h -4 v -3 h -4 v 10 h 4 v -3 h 4 v 4 a 4,4 90 0 1 -4,4 h -4 -20 -1 v 2 h -8 v -2 h -1 -4 a 5,5 90 0 0 -5,5 v 4 4 4 a 5,5 90 0 0 5,5 h 4 v 2 h 10 v -2 h 8 v 6 6 4 a 4,4 90 0 1 -4,4 h -4 -9 -1 v 2 h -8 v -2 h -1 -4 a 4,4 90 0 1 -4,-4 v -4 z" style="fill:#e9a066;fill-opacity:1;stroke:#3f0a00;stroke-width:1;stroke-linecap:round;stroke-opacity:1"/><text id="text5302" style="font-size:10px;font-family:sans-serif;text-anchor:start;fill:#000"><tspan id="tspan5300" x="5.333" y="15.25">回繰り返す</tspan></text></g></g><g id="g5320" transform="translate(85.499997,74.421537)"><g id="g5318" transform="scale(1.5)"><path id="path5312" d="m 8.5,0.5 h 60 v 20 h -60 v -8 -1 h -6 v 3 h -2 v -8 h 2 v 3 h 6 v -1 z" style="fill:#ffb2bc;fill-opacity:1;stroke:#601136;stroke-width:1;stroke-linecap:round;stroke-opacity:1"/><text id="text5316" style="font-size:10px;font-family:sans-serif;text-anchor:start;fill:#000"><tspan id="tspan5314" x="13.333" y="13.833">2</tspan></text></g></g><g id="g5334" transform="translate(533.16667,296.42154)"><g id="g5332" transform="scale(1.5)"><path id="path5322" d="m 0.5,8.5 v -4 a 4,4 90 0 1 4,-4 h 4 v 2 h 10 v -2 h 9 80.60059 4 a 4,4 90 0 1 4,4 v 4 h -4 v -3 h -4 v 10 h 4 v -3 h 4 v 4 a 4,4 90 0 1 -4,4 h -4 H 27.5 h -1 v 2 h -8 v -2 h -1 -4 a 5,5 90 0 0 -5,5 v 4 4 4 a 5,5 90 0 0 5,5 h 4 v 2 h 10 v -2 h 8 v 6 6 4 a 4,4 90 0 1 -4,4 h -4 -9 -1 v 2 h -8 v -2 h -1 -4 a 4,4 90 0 1 -4,-4 v -4 z" style="fill:#93e042;fill-opacity:1;stroke:#004000;stroke-width:1;stroke-linecap:round;stroke-opacity:1"/><text id="text5326" style="font-size:10px;font-family:sans-serif;text-anchor:start;fill:#000"><tspan id="tspan5324" x="5.333" y="15.25">半音で移調</tspan></text></g></g><g id="g5352" transform="translate(696.06755,296.42154)"><g id="g5350" transform="scale(1.5)"><path id="path5336" d="m 8.5,8.5 v -4 a 4,4 90 0 1 4,-4 h 4 10 30 4 a 4,4 90 0 1 4,4 v 4 h -4 v -3 h -4 v 10 h 4 v -3 h 4 v 17 h -4 v -3 h -4 v 10 h 4 v -3 h 4 v 4 a 4,4 90 0 1 -4,4 h -4 -30 -10 -4 a 4,4 90 0 1 -4,-4 v -4 -21 -1 h -6 v 3 h -2 v -8 h 2 v 3 h 6 z" style="fill:#ffb2bc;fill-opacity:1;stroke:#601136;stroke-width:1;stroke-linecap:round;stroke-opacity:1"/><text id="text5340" style="font-size:14px;font-family:sans-serif;text-anchor:end;fill:#000"><tspan id="tspan5338" x="54.333" y="23.8">+</tspan></text></g></g><g id="g5362" transform="translate(781.56755,296.42154)"><g id="g5360" transform="scale(1.5)"><path id="path5354" d="m 8.5,0.5 h 60 v 20 h -60 v -8 -1 h -6 v 3 h -2 v -8 h 2 v 3 h 6 v -1 z" style="fill:#ffb2bc;fill-opacity:1;stroke:#601136;stroke-width:1;stroke-linecap:round;stroke-opacity:1"/><text id="text5358" style="font-size:10px;font-family:sans-serif;text-anchor:start;fill:#000"><tspan id="tspan5356" x="13.333" y="13.833">0</tspan></text></g></g><g id="g5380" transform="translate(781.56755,327.92154)"><g id="g5378" transform="scale(1.5)"><path id="path5364" d="m 8.5,8.5 v -4 a 4,4 90 0 1 4,-4 h 4 10 30 4 a 4,4 90 0 1 4,4 v 4 h -4 v -3 h -4 v 10 h 4 v -3 h 4 v 17 h -4 v -3 h -4 v 10 h 4 v -3 h 4 v 4 a 4,4 90 0 1 -4,4 h -4 -30 -10 -4 a 4,4 90 0 1 -4,-4 v -4 -21 -1 h -6 v 3 h -2 v -8 h 2 v 3 h 6 z" style="fill:#ffb2bc;fill-opacity:1;stroke:#601136;stroke-width:1;stroke-linecap:round;stroke-opacity:1"/><text id="text5368" style="font-size:14px;font-family:sans-serif;text-anchor:end;fill:#000"><tspan id="tspan5366" x="54.333" y="23.8">×</tspan></text></g></g><g id="g5390" transform="translate(867.06755,327.92154)"><g id="g5388" transform="scale(1.5)"><path id="path5382" d="m 8.5,0.5 h 60 v 20 h -60 v -8 -1 h -6 v 3 h -2 v -8 h 2 v 3 h 6 v -1 z" style="fill:#ffb2bc;fill-opacity:1;stroke:#601136;stroke-width:1;stroke-linecap:round;stroke-opacity:1"/><text id="text5386" style="font-size:10px;font-family:sans-serif;text-anchor:start;fill:#000"><tspan id="tspan5384" x="13.333" y="13.833">-2</tspan></text></g></g><g id="g5400" transform="translate(867.06755,359.42154)"><g id="g5398" transform="scale(1.5)"><path id="path5392" d="m 8.5,0.5 h 60 v 20 h -60 v -8 -1 h -6 v 3 h -2 v -8 h 2 v 3 h 6 v -1 z" style="fill:#ffb2bc;fill-opacity:1;stroke:#601136;stroke-width:1;stroke-linecap:round;stroke-opacity:1"/><text id="text5396" style="font-size:10px;font-family:sans-serif;text-anchor:start;fill:#000"><tspan id="tspan5394" x="13.333" y="13.833">12</tspan></text></g></g><g id="g5414" transform="translate(532.16667,519.42154)"><g id="g5412" transform="scale(1.5)"><path id="path5402" d="m 0.5,8.5 v -4 a 4,4 90 0 1 4,-4 h 4 v 2 h 10 v -2 h 9 80.60059 4 a 4,4 90 0 1 4,4 v 4 h -4 v -3 h -4 v 10 h 4 v -3 h 4 v 4 a 4,4 90 0 1 -4,4 h -4 H 27.5 h -1 v 2 h -8 v -2 h -1 -4 a 5,5 90 0 0 -5,5 v 4 4 4 a 5,5 90 0 0 5,5 h 4 v 2 h 10 v -2 h 8 v 6 6 4 a 4,4 90 0 1 -4,4 h -4 -9 -1 v 2 h -8 v -2 h -1 -4 a 4,4 90 0 1 -4,-4 v -4 z" style="fill:#93e042;fill-opacity:1;stroke:#004000;stroke-width:1;stroke-linecap:round;stroke-opacity:1"/><text id="text5406" style="font-size:10px;font-family:sans-serif;text-anchor:start;fill:#000"><tspan id="tspan5404" x="5.333" y="15.25">半音で移調</tspan></text></g></g><g id="g5432" transform="translate(695.06755,519.42154)"><g id="g5430" transform="scale(1.5)"><path id="path5416" d="m 8.5,8.5 v -4 a 4,4 90 0 1 4,-4 h 4 10 30 4 a 4,4 90 0 1 4,4 v 4 h -4 v -3 h -4 v 10 h 4 v -3 h 4 v 17 h -4 v -3 h -4 v 10 h 4 v -3 h 4 v 4 a 4,4 90 0 1 -4,4 h -4 -30 -10 -4 a 4,4 90 0 1 -4,-4 v -4 -21 -1 h -6 v 3 h -2 v -8 h 2 v 3 h 6 z" style="fill:#ffb2bc;fill-opacity:1;stroke:#601136;stroke-width:1;stroke-linecap:round;stroke-opacity:1"/><text id="text5420" style="font-size:14px;font-family:sans-serif;text-anchor:end;fill:#000"><tspan id="tspan5418" x="54.333" y="23.8">+</tspan></text></g></g><g id="g5442" transform="translate(780.56755,519.42154)"><g id="g5440" transform="scale(1.5)"><path id="path5434" d="m 8.5,0.5 h 60 v 20 h -60 v -8 -1 h -6 v 3 h -2 v -8 h 2 v 3 h 6 v -1 z" style="fill:#ffb2bc;fill-opacity:1;stroke:#601136;stroke-width:1;stroke-linecap:round;stroke-opacity:1"/><text id="text5438" style="font-size:10px;font-family:sans-serif;text-anchor:start;fill:#000"><tspan id="tspan5436" x="13.333" y="13.833">0</tspan></text></g></g><g id="g5460" transform="translate(780.56755,550.92154)"><g id="g5458" transform="scale(1.5)"><path id="path5444" d="m 8.5,8.5 v -4 a 4,4 90 0 1 4,-4 h 4 10 30 4 a 4,4 90 0 1 4,4 v 4 h -4 v -3 h -4 v 10 h 4 v -3 h 4 v 17 h -4 v -3 h -4 v 10 h 4 v -3 h 4 v 4 a 4,4 90 0 1 -4,4 h -4 -30 -10 -4 a 4,4 90 0 1 -4,-4 v -4 -21 -1 h -6 v 3 h -2 v -8 h 2 v 3 h 6 z" style="fill:#ffb2bc;fill-opacity:1;stroke:#601136;stroke-width:1;stroke-linecap:round;stroke-opacity:1"/><text id="text5448" style="font-size:14px;font-family:sans-serif;text-anchor:end;fill:#000"><tspan id="tspan5446" x="54.333" y="23.8">×</tspan></text></g></g><g id="g5470" transform="translate(866.06755,550.92154)"><g id="g5468" transform="scale(1.5)"><path id="path5462" d="m 8.5,0.5 h 60 v 20 h -60 v -8 -1 h -6 v 3 h -2 v -8 h 2 v 3 h 6 v -1 z" style="fill:#ffb2bc;fill-opacity:1;stroke:#601136;stroke-width:1;stroke-linecap:round;stroke-opacity:1"/><text id="text5466" style="font-size:10px;font-family:sans-serif;text-anchor:start;fill:#000"><tspan id="tspan5464" x="13.333" y="13.833">1</tspan></text></g></g><g id="g5480" transform="translate(866.06755,582.42154)"><g id="g5478" transform="scale(1.5)"><path id="path5472" d="m 8.5,0.5 h 60 v 20 h -60 v -8 -1 h -6 v 3 h -2 v -8 h 2 v 3 h 6 v -1 z" style="fill:#ffb2bc;fill-opacity:1;stroke:#601136;stroke-width:1;stroke-linecap:round;stroke-opacity:1"/><text id="text5476" style="font-size:10px;font-family:sans-serif;text-anchor:start;fill:#000"><tspan id="tspan5474" x="13.333" y="13.833">12</tspan></text></g></g><g id="g5494" transform="translate(533.16667,72.421537)"><g id="g5492" transform="scale(1.5)"><path id="path5482" d="m 0.5,8.5 v -4 a 4,4 90 0 1 4,-4 h 4 v 2 h 10 v -2 h 9 80.60059 4 a 4,4 90 0 1 4,4 v 4 h -4 v -3 h -4 v 10 h 4 v -3 h 4 v 4 a 4,4 90 0 1 -4,4 h -4 H 27.5 h -1 v 2 h -8 v -2 h -1 -4 a 5,5 90 0 0 -5,5 v 4 4 4 a 5,5 90 0 0 5,5 h 4 v 2 h 10 v -2 h 8 v 6 6 4 a 4,4 90 0 1 -4,4 h -4 -9 -1 v 2 h -8 v -2 h -1 -4 a 4,4 90 0 1 -4,-4 v -4 z" style="fill:#93e042;fill-opacity:1;stroke:#004000;stroke-width:1;stroke-linecap:round;stroke-opacity:1"/><text id="text5486" style="font-size:10px;font-family:sans-serif;text-anchor:start;fill:#000"><tspan id="tspan5484" x="5.333" y="15.25">半音で移調</tspan></text></g></g><g id="g5512" transform="translate(696.06755,72.421537)"><g id="g5510" transform="scale(1.5)"><path id="path5496" d="m 8.5,8.5 v -4 a 4,4 90 0 1 4,-4 h 4 10 30 4 a 4,4 90 0 1 4,4 v 4 h -4 v -3 h -4 v 10 h 4 v -3 h 4 v 17 h -4 v -3 h -4 v 10 h 4 v -3 h 4 v 4 a 4,4 90 0 1 -4,4 h -4 -30 -10 -4 a 4,4 90 0 1 -4,-4 v -4 -21 -1 h -6 v 3 h -2 v -8 h 2 v 3 h 6 z" style="fill:#ffb2bc;fill-opacity:1;stroke:#601136;stroke-width:1;stroke-linecap:round;stroke-opacity:1"/><text id="text5500" style="font-size:14px;font-family:sans-serif;text-anchor:end;fill:#000"><tspan id="tspan5498" x="54.333" y="23.8">+</tspan></text></g></g><g id="g5522" transform="translate(781.56755,72.421537)"><g id="g5520" transform="scale(1.5)"><path id="path5514" d="m 8.5,0.5 h 60 v 20 h -60 v -8 -1 h -6 v 3 h -2 v -8 h 2 v 3 h 6 v -1 z" style="fill:#ffb2bc;fill-opacity:1;stroke:#601136;stroke-width:1;stroke-linecap:round;stroke-opacity:1"/><text id="text5518" style="font-size:10px;font-family:sans-serif;text-anchor:start;fill:#000"><tspan id="tspan5516" x="13.333" y="13.833">0</tspan></text></g></g><g id="g5540" transform="translate(781.56755,103.92154)"><g id="g5538" transform="scale(1.5)"><path id="path5524" d="m 8.5,8.5 v -4 a 4,4 90 0 1 4,-4 h 4 10 30 4 a 4,4 90 0 1 4,4 v 4 h -4 v -3 h -4 v 10 h 4 v -3 h 4 v 17 h -4 v -3 h -4 v 10 h 4 v -3 h 4 v 4 a 4,4 90 0 1 -4,4 h -4 -30 -10 -4 a 4,4 90 0 1 -4,-4 v -4 -21 -1 h -6 v 3 h -2 v -8 h 2 v 3 h 6 z" style="fill:#ffb2bc;fill-opacity:1;stroke:#601136;stroke-width:1;stroke-linecap:round;stroke-opacity:1"/><text id="text5528" style="font-size:14px;font-family:sans-serif;text-anchor:end;fill:#000"><tspan id="tspan5526" x="54.333" y="23.8">×</tspan></text></g></g><g id="g5550" transform="translate(867.06755,103.92154)"><g id="g5548" transform="scale(1.5)"><path id="path5542" d="m 8.5,0.5 h 60 v 20 h -60 v -8 -1 h -6 v 3 h -2 v -8 h 2 v 3 h 6 v -1 z" style="fill:#ffb2bc;fill-opacity:1;stroke:#601136;stroke-width:1;stroke-linecap:round;stroke-opacity:1"/><text id="text5546" style="font-size:10px;font-family:sans-serif;text-anchor:start;fill:#000"><tspan id="tspan5544" x="13.333" y="13.833">-1</tspan></text></g></g><g id="g5560" transform="translate(867.06755,135.42154)"><g id="g5558" transform="scale(1.5)"><path id="path5552" d="m 8.5,0.5 h 60 v 20 h -60 v -8 -1 h -6 v 3 h -2 v -8 h 2 v 3 h 6 v -1 z" style="fill:#ffb2bc;fill-opacity:1;stroke:#601136;stroke-width:1;stroke-linecap:round;stroke-opacity:1"/><text id="text5556" style="font-size:10px;font-family:sans-serif;text-anchor:start;fill:#000"><tspan id="tspan5554" x="13.333" y="13.833">12</tspan></text></g></g><g id="g5574" transform="translate(13.499997,42.921537)"><g id="g5572" transform="scale(1.5)"><path id="path5562" d="m 0.5,8.5 v -4 a 4,4 90 0 1 4,-4 h 4 v 2 h 10 v -2 h 57.807617 4 a 4,4 90 0 1 4,4 v 4 h -4 v -3 h -4 v 10 h 4 v -3 h 4 v 4 a 4,4 90 0 1 -4,4 h -4 H 18.5 h -1 v 2 h -8 v -2 h -1 -4 a 4,4 90 0 1 -4,-4 v -4 z" style="fill:#949494;fill-opacity:1;stroke:#000;stroke-width:1;stroke-linecap:round;stroke-opacity:1"/><text id="text5566" style="font-size:10px;font-family:sans-serif;text-anchor:end;fill:#000"><tspan id="tspan5564" x="74.141" y="13.5">ネズミの名前</tspan></text></g></g><g id="g5584" transform="translate(128.71143,42.921537)"><g id="g5582" transform="scale(1.5)"><path id="path5576" d="m 8.5,0.5 h 60 v 20 h -60 v -8 -1 h -6 v 3 h -2 v -8 h 2 v 3 h 6 v -1 z" style="fill:#76dbd7;fill-opacity:1;stroke:#003b41;stroke-width:1;stroke-linecap:round;stroke-opacity:1"/><text id="text5580" style="font-size:10px;font-family:sans-serif;text-anchor:start;fill:#000"><tspan id="tspan5578" x="13.333" y="13.833">ネズミさん</tspan></text></g></g><g id="g5598" transform="translate(533.16667,40.921537)"><g id="g5596" transform="scale(1.5)"><path id="path5586" d="m 0.5,8.5 v -4 a 4,4 90 0 1 4,-4 h 4 v 2 h 10 v -2 h 53.354492 4 a 4,4 90 0 1 4,4 v 4 h -4 v -3 h -4 v 10 h 4 v -3 h 4 v 4 a 4,4 90 0 1 -4,4 h -4 H 18.5 h -1 v 2 h -8 v -2 h -1 -4 a 4,4 90 0 1 -4,-4 v -4 z" style="fill:#949494;fill-opacity:1;stroke:#000;stroke-width:1;stroke-linecap:round;stroke-opacity:1"/><text id="text5590" style="font-size:10px;font-family:sans-serif;text-anchor:end;fill:#000"><tspan id="tspan5588" x="69.688" y="13.5">ネズミを動機</tspan></text></g></g><g id="g5608" transform="translate(641.69841,40.921537)"><g id="g5606" transform="scale(1.5)"><path id="path5600" d="m 8.5,0.5 h 60 v 20 h -60 v -8 -1 h -6 v 3 h -2 v -8 h 2 v 3 h 6 v -1 z" style="fill:#76dbd7;fill-opacity:1;stroke:#003b41;stroke-width:1;stroke-linecap:round;stroke-opacity:1"/><text id="text5604" style="font-size:10px;font-family:sans-serif;text-anchor:start;fill:#000"><tspan id="tspan5602" x="13.333" y="13.833">ネズミさん</tspan></text></g></g><g id="g5622" transform="translate(533.16667,264.92154)"><g id="g5620" transform="scale(1.5)"><path id="path5610" d="m 0.5,8.5 v -4 a 4,4 90 0 1 4,-4 h 4 v 2 h 10 v -2 h 53.354492 4 a 4,4 90 0 1 4,4 v 4 h -4 v -3 h -4 v 10 h 4 v -3 h 4 v 4 a 4,4 90 0 1 -4,4 h -4 H 18.5 h -1 v 2 h -8 v -2 h -1 -4 a 4,4 90 0 1 -4,-4 v -4 z" style="fill:#949494;fill-opacity:1;stroke:#000;stroke-width:1;stroke-linecap:round;stroke-opacity:1"/><text id="text5614" style="font-size:10px;font-family:sans-serif;text-anchor:end;fill:#000"><tspan id="tspan5612" x="69.688" y="13.5">ネズミを動機</tspan></text></g></g><g id="g5632" transform="translate(641.69841,264.92154)"><g id="g5630" transform="scale(1.5)"><path id="path5624" d="m 8.5,0.5 h 60 v 20 h -60 v -8 -1 h -6 v 3 h -2 v -8 h 2 v 3 h 6 v -1 z" style="fill:#76dbd7;fill-opacity:1;stroke:#003b41;stroke-width:1;stroke-linecap:round;stroke-opacity:1"/><text id="text5628" style="font-size:10px;font-family:sans-serif;text-anchor:start;fill:#000"><tspan id="tspan5626" x="13.333" y="13.833">ネズミさん</tspan></text></g></g><g id="g5646" transform="translate(532.16667,487.92154)"><g id="g5644" transform="scale(1.5)"><path id="path5634" d="m 0.5,8.5 v -4 a 4,4 90 0 1 4,-4 h 4 v 2 h 10 v -2 h 53.354492 4 a 4,4 90 0 1 4,4 v 4 h -4 v -3 h -4 v 10 h 4 v -3 h 4 v 4 a 4,4 90 0 1 -4,4 h -4 H 18.5 h -1 v 2 h -8 v -2 h -1 -4 a 4,4 90 0 1 -4,-4 v -4 z" style="fill:#949494;fill-opacity:1;stroke:#000;stroke-width:1;stroke-linecap:round;stroke-opacity:1"/><text id="text5638" style="font-size:10px;font-family:sans-serif;text-anchor:end;fill:#000"><tspan id="tspan5636" x="69.688" y="13.5">ネズミを動機</tspan></text></g></g><g id="g5656" transform="translate(640.69841,487.92154)"><g id="g5654" transform="scale(1.5)"><path id="path5648" d="m 8.5,0.5 h 60 v 20 h -60 v -8 -1 h -6 v 3 h -2 v -8 h 2 v 3 h 6 v -1 z" style="fill:#76dbd7;fill-opacity:1;stroke:#003b41;stroke-width:1;stroke-linecap:round;stroke-opacity:1"/><text id="text5652" style="font-size:10px;font-family:sans-serif;text-anchor:start;fill:#000"><tspan id="tspan5650" x="13.333" y="13.833">ネズミさん</tspan></text></g></g><g id="g5670" transform="translate(13.499997,420.92154)"><g id="g5668" transform="scale(1.5)"><path id="path5658" d="m 0.5,8.5 v -4 a 4,4 90 0 1 4,-4 h 4 v 2 h 10 v -2 h 43.916016 4 a 4,4 90 0 1 4,4 v 4 h -4 v -3 h -4 v 10 h 4 v -3 h 4 v 4 a 4,4 90 0 1 -4,4 h -4 H 18.5 h -1 v 2 h -8 v -2 h -1 -4 a 4,4 90 0 1 -4,-4 v -4 z" style="fill:#ffe05c;fill-opacity:1;stroke:#644300;stroke-width:1;stroke-linecap:round;stroke-opacity:1"/><text id="text5662" style="font-size:10px;font-family:sans-serif;text-anchor:end;fill:#000"><tspan id="tspan5660" x="60.249" y="13.5">送る</tspan></text></g></g><g id="g5680" transform="translate(107.87403,420.92154)"><g id="g5678" transform="scale(1.5)"><path id="path5672" d="m 8.5,0.5 h 60 v 20 h -60 v -8 -1 h -6 v 3 h -2 v -8 h 2 v 3 h 6 v -1 z" style="fill:#76dbd7;fill-opacity:1;stroke:#003b41;stroke-width:1;stroke-linecap:round;stroke-opacity:1"/><text id="text5676" style="font-size:10px;font-family:sans-serif;text-anchor:start;fill:#000"><tspan id="tspan5674" x="13.333" y="13.833">d</tspan></text></g></g><g id="g5694" transform="translate(13.499997,168.92154)"><g id="g5692" transform="scale(1.5)"><path id="path5682" d="m 0.5,8.5 v -4 a 4,4 90 0 1 4,-4 h 4 v 2 h 10 v -2 h 43.916016 4 a 4,4 90 0 1 4,4 v 4 h -4 v -3 h -4 v 10 h 4 v -3 h 4 v 4 a 4,4 90 0 1 -4,4 h -4 H 18.5 h -1 v 2 h -8 v -2 h -1 -4 a 4,4 90 0 1 -4,-4 v -4 z" style="fill:#ffe05c;fill-opacity:1;stroke:#644300;stroke-width:1;stroke-linecap:round;stroke-opacity:1"/><text id="text5686" style="font-size:10px;font-family:sans-serif;text-anchor:end;fill:#000"><tspan id="tspan5684" x="60.249" y="13.5">送る</tspan></text></g></g><g id="g5704" transform="translate(107.87403,168.92154)"><g id="g5702" transform="scale(1.5)"><path id="path5696" d="m 8.5,0.5 h 60 v 20 h -60 v -8 -1 h -6 v 3 h -2 v -8 h 2 v 3 h 6 v -1 z" style="fill:#76dbd7;fill-opacity:1;stroke:#003b41;stroke-width:1;stroke-linecap:round;stroke-opacity:1"/><text id="text5700" style="font-size:10px;font-family:sans-serif;text-anchor:start;fill:#000"><tspan id="tspan5698" x="13.333" y="13.833">b</tspan></text></g></g><g id="g5718" transform="translate(13.499997,294.92154)"><g id="g5716" transform="scale(1.5)"><path id="path5706" d="m 0.5,8.5 v -4 a 4,4 90 0 1 4,-4 h 4 v 2 h 10 v -2 h 43.916016 4 a 4,4 90 0 1 4,4 v 4 h -4 v -3 h -4 v 10 h 4 v -3 h 4 v 4 a 4,4 90 0 1 -4,4 h -4 H 18.5 h -1 v 2 h -8 v -2 h -1 -4 a 4,4 90 0 1 -4,-4 v -4 z" style="fill:#ffe05c;fill-opacity:1;stroke:#644300;stroke-width:1;stroke-linecap:round;stroke-opacity:1"/><text id="text5710" style="font-size:10px;font-family:sans-serif;text-anchor:end;fill:#000"><tspan id="tspan5708" x="60.249" y="13.5">送る</tspan></text></g></g><g id="g5728" transform="translate(107.87403,294.92154)"><g id="g5726" transform="scale(1.5)"><path id="path5720" d="m 8.5,0.5 h 60 v 20 h -60 v -8 -1 h -6 v 3 h -2 v -8 h 2 v 3 h 6 v -1 z" style="fill:#76dbd7;fill-opacity:1;stroke:#003b41;stroke-width:1;stroke-linecap:round;stroke-opacity:1"/><text id="text5724" style="font-size:10px;font-family:sans-serif;text-anchor:start;fill:#000"><tspan id="tspan5722" x="13.333" y="13.833">c</tspan></text></g></g><g id="g5742" transform="translate(13.499997,200.42154)"><g id="g5740" transform="scale(1.5)"><path id="path5730" d="m 0.5,8.5 v -4 a 4,4 90 0 1 4,-4 h 4 v 2 h 10 v -2 h 9 20 4 a 4,4 90 0 1 4,4 v 4 h -4 v -3 h -4 v 10 h 4 v -3 h 4 v 4 a 4,4 90 0 1 -4,4 h -4 -20 -1 v 2 h -8 v -2 h -1 -4 a 5,5 90 0 0 -5,5 v 4 4 4 a 5,5 90 0 0 5,5 h 4 v 2 h 10 v -2 h 8 v 6 6 4 a 4,4 90 0 1 -4,4 h -4 -9 -1 v 2 h -8 v -2 h -1 -4 a 4,4 90 0 1 -4,-4 v -4 z" style="fill:#e9a066;fill-opacity:1;stroke:#3f0a00;stroke-width:1;stroke-linecap:round;stroke-opacity:1"/><text id="text5734" style="font-size:10px;font-family:sans-serif;text-anchor:start;fill:#000"><tspan id="tspan5732" x="5.333" y="15.25">回繰り返す</tspan></text></g></g><g id="g5752" transform="translate(85.499997,200.42154)"><g id="g5750" transform="scale(1.5)"><path id="path5744" d="m 8.5,0.5 h 60 v 20 h -60 v -8 -1 h -6 v 3 h -2 v -8 h 2 v 3 h 6 v -1 z" style="fill:#ffb2bc;fill-opacity:1;stroke:#601136;stroke-width:1;stroke-linecap:round;stroke-opacity:1"/><text id="text5748" style="font-size:10px;font-family:sans-serif;text-anchor:start;fill:#000"><tspan id="tspan5746" x="13.333" y="13.833">2</tspan></text></g></g><g id="g5766" transform="translate(13.499997,326.42154)"><g id="g5764" transform="scale(1.5)"><path id="path5754" d="m 0.5,8.5 v -4 a 4,4 90 0 1 4,-4 h 4 v 2 h 10 v -2 h 9 20 4 a 4,4 90 0 1 4,4 v 4 h -4 v -3 h -4 v 10 h 4 v -3 h 4 v 4 a 4,4 90 0 1 -4,4 h -4 -20 -1 v 2 h -8 v -2 h -1 -4 a 5,5 90 0 0 -5,5 v 4 4 4 a 5,5 90 0 0 5,5 h 4 v 2 h 10 v -2 h 8 v 6 6 4 a 4,4 90 0 1 -4,4 h -4 -9 -1 v 2 h -8 v -2 h -1 -4 a 4,4 90 0 1 -4,-4 v -4 z" style="fill:#e9a066;fill-opacity:1;stroke:#3f0a00;stroke-width:1;stroke-linecap:round;stroke-opacity:1"/><text id="text5758" style="font-size:10px;font-family:sans-serif;text-anchor:start;fill:#000"><tspan id="tspan5756" x="5.333" y="15.25">回繰り返す</tspan></text></g></g><g id="g5776" transform="translate(85.499997,326.42154)"><g id="g5774" transform="scale(1.5)"><path id="path5768" d="m 8.5,0.5 h 60 v 20 h -60 v -8 -1 h -6 v 3 h -2 v -8 h 2 v 3 h 6 v -1 z" style="fill:#ffb2bc;fill-opacity:1;stroke:#601136;stroke-width:1;stroke-linecap:round;stroke-opacity:1"/><text id="text5772" style="font-size:10px;font-family:sans-serif;text-anchor:start;fill:#000"><tspan id="tspan5770" x="13.333" y="13.833">2</tspan></text></g></g><g id="g5790" transform="translate(13.499997,452.42154)"><g id="g5788" transform="scale(1.5)"><path id="path5778" d="m 0.5,8.5 v -4 a 4,4 90 0 1 4,-4 h 4 v 2 h 10 v -2 h 9 20 4 a 4,4 90 0 1 4,4 v 4 h -4 v -3 h -4 v 10 h 4 v -3 h 4 v 4 a 4,4 90 0 1 -4,4 h -4 -20 -1 v 2 h -8 v -2 h -1 -4 a 5,5 90 0 0 -5,5 v 4 4 4 a 5,5 90 0 0 5,5 h 4 v 2 h 10 v -2 h 8 v 6 6 4 a 4,4 90 0 1 -4,4 h -4 -9 -1 v 2 h -8 v -2 h -1 -4 a 4,4 90 0 1 -4,-4 v -4 z" style="fill:#e9a066;fill-opacity:1;stroke:#3f0a00;stroke-width:1;stroke-linecap:round;stroke-opacity:1"/><text id="text5782" style="font-size:10px;font-family:sans-serif;text-anchor:start;fill:#000"><tspan id="tspan5780" x="5.333" y="15.25">回繰り返す</tspan></text></g></g><g id="g5800" transform="translate(85.499997,452.42154)"><g id="g5798" transform="scale(1.5)"><path id="path5792" d="m 8.5,0.5 h 60 v 20 h -60 v -8 -1 h -6 v 3 h -2 v -8 h 2 v 3 h 6 v -1 z" style="fill:#ffb2bc;fill-opacity:1;stroke:#601136;stroke-width:1;stroke-linecap:round;stroke-opacity:1"/><text id="text5796" style="font-size:10px;font-family:sans-serif;text-anchor:start;fill:#000"><tspan id="tspan5794" x="13.333" y="13.833">2</tspan></text></g></g><g id="g5818" transform="translate(298.16667,43.921537)"><g id="g5816" transform="scale(1.5)"><path id="path5802" d="m 0.5,8.5 v -4 a 4,4 90 0 1 4,-4 h 4 v 2 h 10 v -2 h 30 4 a 4,4 90 0 1 4,4 v 4 h -4 v -3 h -4 v 10 h 4 v -3 h 4 v 17 h -4 v -3 h -4 v 10 h 4 v -3 h 4 v 4 a 4,4 90 0 1 -4,4 h -4 -30 -1 v 2 h -8 v -2 h -1 -4 a 4,4 90 0 1 -4,-4 v -4 -21 z" style="fill:#ffe05c;fill-opacity:1;stroke:#644300;stroke-width:1;stroke-linecap:round;stroke-opacity:1"/><text id="text5806" style="font-size:10px;font-family:sans-serif;text-anchor:end;fill:#000"><tspan id="tspan5804" x="46.333" y="24">の時に</tspan></text><text id="text5810" style="font-size:6.66666651px;font-family:sans-serif;text-anchor:end;fill:#000"><tspan id="tspan5808" x="46.333" y="11.25">イベント</tspan></text><text id="text5814" style="font-size:6.66666651px;font-family:sans-serif;text-anchor:end;fill:#000"><tspan id="tspan5812" x="46.333" y="32.25">をするのは</tspan></text></g></g><g id="g5828" transform="translate(371.66667,43.921537)"><g id="g5826" transform="scale(1.5)"><path id="path5820" d="m 8.5,0.5 h 60 v 20 h -60 v -8 -1 h -6 v 3 h -2 v -8 h 2 v 3 h 6 v -1 z" style="fill:#76dbd7;fill-opacity:1;stroke:#003b41;stroke-width:1;stroke-linecap:round;stroke-opacity:1"/><text id="text5824" style="font-size:10px;font-family:sans-serif;text-anchor:start;fill:#000"><tspan id="tspan5822" x="13.333" y="13.833">b</tspan></text></g></g><g id="g5838" transform="translate(371.66667,75.421537)"><g id="g5836" transform="scale(1.5)"><path id="path5830" d="m 8.5,0.5 h 60 v 20 h -60 v -8 -1 h -6 v 3 h -2 v -8 h 2 v 3 h 6 v -1 z" style="fill:#76dbd7;fill-opacity:1;stroke:#003b41;stroke-width:1;stroke-linecap:round;stroke-opacity:1"/><text id="text5834" style="font-size:10px;font-family:sans-serif;text-anchor:start;fill:#000"><tspan id="tspan5832" x="13.333" y="13.833">b</tspan></text></g></g><g id="g5856" transform="translate(302.16667,196.92154)"><g id="g5854" transform="scale(1.5)"><path id="path5840" d="m 0.5,8.5 v -4 a 4,4 90 0 1 4,-4 h 4 v 2 h 10 v -2 h 30 4 a 4,4 90 0 1 4,4 v 4 h -4 v -3 h -4 v 10 h 4 v -3 h 4 v 17 h -4 v -3 h -4 v 10 h 4 v -3 h 4 v 4 a 4,4 90 0 1 -4,4 h -4 -30 -1 v 2 h -8 v -2 h -1 -4 a 4,4 90 0 1 -4,-4 v -4 -21 z" style="fill:#ffe05c;fill-opacity:1;stroke:#644300;stroke-width:1;stroke-linecap:round;stroke-opacity:1"/><text id="text5844" style="font-size:10px;font-family:sans-serif;text-anchor:end;fill:#000"><tspan id="tspan5842" x="46.333" y="24">の時に</tspan></text><text id="text5848" style="font-size:6.66666651px;font-family:sans-serif;text-anchor:end;fill:#000"><tspan id="tspan5846" x="46.333" y="11.25">イベント</tspan></text><text id="text5852" style="font-size:6.66666651px;font-family:sans-serif;text-anchor:end;fill:#000"><tspan id="tspan5850" x="46.333" y="32.25">をするのは</tspan></text></g></g><g id="g5866" transform="translate(375.66667,196.92154)"><g id="g5864" transform="scale(1.5)"><path id="path5858" d="m 8.5,0.5 h 60 v 20 h -60 v -8 -1 h -6 v 3 h -2 v -8 h 2 v 3 h 6 v -1 z" style="fill:#76dbd7;fill-opacity:1;stroke:#003b41;stroke-width:1;stroke-linecap:round;stroke-opacity:1"/><text id="text5862" style="font-size:10px;font-family:sans-serif;text-anchor:start;fill:#000"><tspan id="tspan5860" x="13.333" y="13.833">c</tspan></text></g></g><g id="g5876" transform="translate(375.66667,228.42154)"><g id="g5874" transform="scale(1.5)"><path id="path5868" d="m 8.5,0.5 h 60 v 20 h -60 v -8 -1 h -6 v 3 h -2 v -8 h 2 v 3 h 6 v -1 z" style="fill:#76dbd7;fill-opacity:1;stroke:#003b41;stroke-width:1;stroke-linecap:round;stroke-opacity:1"/><text id="text5872" style="font-size:10px;font-family:sans-serif;text-anchor:start;fill:#000"><tspan id="tspan5870" x="13.333" y="13.833">c</tspan></text></g></g><g id="g5894" transform="translate(303.16667,355.92154)"><g id="g5892" transform="scale(1.5)"><path id="path5878" d="m 0.5,8.5 v -4 a 4,4 90 0 1 4,-4 h 4 v 2 h 10 v -2 h 30 4 a 4,4 90 0 1 4,4 v 4 h -4 v -3 h -4 v 10 h 4 v -3 h 4 v 17 h -4 v -3 h -4 v 10 h 4 v -3 h 4 v 4 a 4,4 90 0 1 -4,4 h -4 -30 -1 v 2 h -8 v -2 h -1 -4 a 4,4 90 0 1 -4,-4 v -4 -21 z" style="fill:#ffe05c;fill-opacity:1;stroke:#644300;stroke-width:1;stroke-linecap:round;stroke-opacity:1"/><text id="text5882" style="font-size:10px;font-family:sans-serif;text-anchor:end;fill:#000"><tspan id="tspan5880" x="46.333" y="24">の時に</tspan></text><text id="text5886" style="font-size:6.66666651px;font-family:sans-serif;text-anchor:end;fill:#000"><tspan id="tspan5884" x="46.333" y="11.25">イベント</tspan></text><text id="text5890" style="font-size:6.66666651px;font-family:sans-serif;text-anchor:end;fill:#000"><tspan id="tspan5888" x="46.333" y="32.25">をするのは</tspan></text></g></g><g id="g5904" transform="translate(376.66667,355.92154)"><g id="g5902" transform="scale(1.5)"><path id="path5896" d="m 8.5,0.5 h 60 v 20 h -60 v -8 -1 h -6 v 3 h -2 v -8 h 2 v 3 h 6 v -1 z" style="fill:#76dbd7;fill-opacity:1;stroke:#003b41;stroke-width:1;stroke-linecap:round;stroke-opacity:1"/><text id="text5900" style="font-size:10px;font-family:sans-serif;text-anchor:start;fill:#000"><tspan id="tspan5898" x="13.333" y="13.833">d</tspan></text></g></g><g id="g5914" transform="translate(376.66667,387.42154)"><g id="g5912" transform="scale(1.5)"><path id="path5906" d="m 8.5,0.5 h 60 v 20 h -60 v -8 -1 h -6 v 3 h -2 v -8 h 2 v 3 h 6 v -1 z" style="fill:#76dbd7;fill-opacity:1;stroke:#003b41;stroke-width:1;stroke-linecap:round;stroke-opacity:1"/><text id="text5910" style="font-size:10px;font-family:sans-serif;text-anchor:start;fill:#000"><tspan id="tspan5908" x="13.333" y="13.833">d</tspan></text></g></g><g id="g5928" transform="translate(519.66667,0.42153745)"><g id="g5926" transform="scale(1.5)"><path id="path5916" d="m 0.5,14.5 v -4 a 4,4 90 0 1 4,-4 h 4 l 5,-6 5,6 h 9 35 4 a 4,4 90 0 1 4,4 v 4 h -4 v -3 h -4 v 10 h 4 v -3 h 4 v 4 a 4,4 90 0 1 -4,4 h -4 -35 -1 v 2 h -8 v -2 h -1 -4 a 5,5 90 0 0 -5,5 v 4 4 63 4 a 5,5 90 0 0 5,5 h 4 v 2 h 10 v -2 h 8 v 6 6 4 a 4,4 90 0 1 -4,4 h -4 -9 l -5,6 -5,-6 h -4 a 4,4 90 0 1 -4,-4 v -4 z" style="fill:#ffe05c;fill-opacity:1;stroke:#644300;stroke-width:1;stroke-linecap:round;stroke-opacity:1"/><text id="text5920" style="font-size:10px;font-family:sans-serif;text-anchor:start;fill:#000"><tspan id="tspan5918" x="5.333" y="21.5">動作</tspan></text></g></g><g id="g5938" transform="translate(614.16667,9.4215375)"><g id="g5936" transform="scale(1.5)"><path id="path5930" d="m 8.5,0.5 h 60 v 20 h -60 v -8 -1 h -6 v 3 h -2 v -8 h 2 v 3 h 6 v -1 z" style="fill:#76dbd7;fill-opacity:1;stroke:#003b41;stroke-width:1;stroke-linecap:round;stroke-opacity:1"/><text id="text5934" style="font-size:10px;font-family:sans-serif;text-anchor:start;fill:#000"><tspan id="tspan5932" x="13.333" y="13.833">b</tspan></text></g></g><g id="g5952" transform="translate(519.66667,224.42154)"><g id="g5950" transform="scale(1.5)"><path id="path5940" d="m 0.5,14.5 v -4 a 4,4 90 0 1 4,-4 h 4 l 5,-6 5,6 h 9 35 4 a 4,4 90 0 1 4,4 v 4 h -4 v -3 h -4 v 10 h 4 v -3 h 4 v 4 a 4,4 90 0 1 -4,4 h -4 -35 -1 v 2 h -8 v -2 h -1 -4 a 5,5 90 0 0 -5,5 v 4 4 63 4 a 5,5 90 0 0 5,5 h 4 v 2 h 10 v -2 h 8 v 6 6 4 a 4,4 90 0 1 -4,4 h -4 -9 l -5,6 -5,-6 h -4 a 4,4 90 0 1 -4,-4 v -4 z" style="fill:#ffe05c;fill-opacity:1;stroke:#644300;stroke-width:1;stroke-linecap:round;stroke-opacity:1"/><text id="text5944" style="font-size:10px;font-family:sans-serif;text-anchor:start;fill:#000"><tspan id="tspan5942" x="5.333" y="21.5">動作</tspan></text></g></g><g id="g5962" transform="translate(614.16667,233.42154)"><g id="g5960" transform="scale(1.5)"><path id="path5954" d="m 8.5,0.5 h 60 v 20 h -60 v -8 -1 h -6 v 3 h -2 v -8 h 2 v 3 h 6 v -1 z" style="fill:#76dbd7;fill-opacity:1;stroke:#003b41;stroke-width:1;stroke-linecap:round;stroke-opacity:1"/><text id="text5958" style="font-size:10px;font-family:sans-serif;text-anchor:start;fill:#000"><tspan id="tspan5956" x="13.333" y="13.833">c</tspan></text></g></g><g id="g5976" transform="translate(518.66667,447.42154)"><g id="g5974" transform="scale(1.5)"><path id="path5964" d="m 0.5,14.5 v -4 a 4,4 90 0 1 4,-4 h 4 l 5,-6 5,6 h 9 35 4 a 4,4 90 0 1 4,4 v 4 h -4 v -3 h -4 v 10 h 4 v -3 h 4 v 4 a 4,4 90 0 1 -4,4 h -4 -35 -1 v 2 h -8 v -2 h -1 -4 a 5,5 90 0 0 -5,5 v 4 4 63 4 a 5,5 90 0 0 5,5 h 4 v 2 h 10 v -2 h 8 v 6 6 4 a 4,4 90 0 1 -4,4 h -4 -9 l -5,6 -5,-6 h -4 a 4,4 90 0 1 -4,-4 v -4 z" style="fill:#ffe05c;fill-opacity:1;stroke:#644300;stroke-width:1;stroke-linecap:round;stroke-opacity:1"/><text id="text5968" style="font-size:10px;font-family:sans-serif;text-anchor:start;fill:#000"><tspan id="tspan5966" x="5.333" y="21.5">動作</tspan></text></g></g><g id="g5986" transform="translate(613.16667,456.42154)"><g id="g5984" transform="scale(1.5)"><path id="path5978" d="m 8.5,0.5 h 60 v 20 h -60 v -8 -1 h -6 v 3 h -2 v -8 h 2 v 3 h 6 v -1 z" style="fill:#76dbd7;fill-opacity:1;stroke:#003b41;stroke-width:1;stroke-linecap:round;stroke-opacity:1"/><text id="text5982" style="font-size:10px;font-family:sans-serif;text-anchor:start;fill:#000"><tspan id="tspan5980" x="13.333" y="13.833">d</tspan></text></g></g><g id="g5996" transform="translate(546.66667,103.92154)"><g id="g5994" transform="scale(1.5)"><path id="path5988" d="m 0.5,8.5 v -4 a 4,4 90 0 1 4,-4 h 4 v 2 h 10 v -2 h 40 4 a 4,4 90 0 1 4,4 v 4 4 4 a 4,4 90 0 1 -4,4 h -4 -40 -1 v 2 h -8 v -2 h -1 -4 a 4,4 90 0 1 -4,-4 v -4 z" style="fill:#ffe05c;fill-opacity:1;stroke:#644300;stroke-width:1;stroke-linecap:round;stroke-opacity:1"/><text id="text5992" style="font-size:10px;font-family:sans-serif;text-anchor:end;fill:#000"><tspan id="tspan5990" x="56.333" y="13.5">chunk0</tspan></text></g></g><g id="g6006" transform="translate(546.66667,327.92154)"><g id="g6004" transform="scale(1.5)"><path id="path5998" d="m 0.5,8.5 v -4 a 4,4 90 0 1 4,-4 h 4 v 2 h 10 v -2 h 40 4 a 4,4 90 0 1 4,4 v 4 4 4 a 4,4 90 0 1 -4,4 h -4 -40 -1 v 2 h -8 v -2 h -1 -4 a 4,4 90 0 1 -4,-4 v -4 z" style="fill:#ffe05c;fill-opacity:1;stroke:#644300;stroke-width:1;stroke-linecap:round;stroke-opacity:1"/><text id="text6002" style="font-size:10px;font-family:sans-serif;text-anchor:end;fill:#000"><tspan id="tspan6000" x="56.333" y="13.5">chunk0</tspan></text></g></g><g id="g6016" transform="translate(545.66667,550.92154)"><g id="g6014" transform="scale(1.5)"><path id="path6008" d="m 0.5,8.5 v -4 a 4,4 90 0 1 4,-4 h 4 v 2 h 10 v -2 h 40 4 a 4,4 90 0 1 4,4 v 4 4 4 a 4,4 90 0 1 -4,4 h -4 -40 -1 v 2 h -8 v -2 h -1 -4 a 4,4 90 0 1 -4,-4 v -4 z" style="fill:#ffe05c;fill-opacity:1;stroke:#644300;stroke-width:1;stroke-linecap:round;stroke-opacity:1"/><text id="text6012" style="font-size:10px;font-family:sans-serif;text-anchor:end;fill:#000"><tspan id="tspan6010" x="56.333" y="13.5">chunk0</tspan></text></g></g><g id="g6050" transform="translate(26.999997,105.92154)"><g id="g6048" transform="scale(1.5)"><path id="path6042" d="m 0.5,8.5 v -4 a 4,4 90 0 1 4,-4 h 4 v 2 h 10 v -2 h 40 4 a 4,4 90 0 1 4,4 v 4 4 4 a 4,4 90 0 1 -4,4 h -4 -40 -1 v 2 h -8 v -2 h -1 -4 a 4,4 90 0 1 -4,-4 v -4 z" style="fill:#ffe05c;fill-opacity:1;stroke:#644300;stroke-width:1;stroke-linecap:round;stroke-opacity:1"/><text id="text6046" style="font-size:10px;font-family:sans-serif;text-anchor:end;fill:#000"><tspan id="tspan6044" x="56.333" y="13.5">chunk0</tspan></text></g></g><g id="g6084" transform="translate(26.999997,231.92154)"><g id="g6082" transform="scale(1.5)"><path id="path6076" d="m 0.5,8.5 v -4 a 4,4 90 0 1 4,-4 h 4 v 2 h 10 v -2 h 40 4 a 4,4 90 0 1 4,4 v 4 4 4 a 4,4 90 0 1 -4,4 h -4 -40 -1 v 2 h -8 v -2 h -1 -4 a 4,4 90 0 1 -4,-4 v -4 z" style="fill:#ffe05c;fill-opacity:1;stroke:#644300;stroke-width:1;stroke-linecap:round;stroke-opacity:1"/><text id="text6080" style="font-size:10px;font-family:sans-serif;text-anchor:end;fill:#000"><tspan id="tspan6078" x="56.333" y="13.5">chunk1</tspan></text></g></g><g id="g6118" transform="translate(26.999997,357.92154)"><g id="g6116" transform="scale(1.5)"><path id="path6110" d="m 0.5,8.5 v -4 a 4,4 90 0 1 4,-4 h 4 v 2 h 10 v -2 h 40 4 a 4,4 90 0 1 4,4 v 4 4 4 a 4,4 90 0 1 -4,4 h -4 -40 -1 v 2 h -8 v -2 h -1 -4 a 4,4 90 0 1 -4,-4 v -4 z" style="fill:#ffe05c;fill-opacity:1;stroke:#644300;stroke-width:1;stroke-linecap:round;stroke-opacity:1"/><text id="text6114" style="font-size:10px;font-family:sans-serif;text-anchor:end;fill:#000"><tspan id="tspan6112" x="56.333" y="13.5">chunk2</tspan></text></g></g><g id="g6152" transform="translate(26.999997,483.92154)"><g id="g6150" transform="scale(1.5)"><path id="path6144" d="m 0.5,8.5 v -4 a 4,4 90 0 1 4,-4 h 4 v 2 h 10 v -2 h 40 4 a 4,4 90 0 1 4,4 v 4 4 4 a 4,4 90 0 1 -4,4 h -4 -40 -1 v 2 h -8 v -2 h -1 -4 a 4,4 90 0 1 -4,-4 v -4 z" style="fill:#ffe05c;fill-opacity:1;stroke:#644300;stroke-width:1;stroke-linecap:round;stroke-opacity:1"/><text id="text6148" style="font-size:10px;font-family:sans-serif;text-anchor:end;fill:#000"><tspan id="tspan6146" x="56.333" y="13.5">chunk3</tspan></text></g></g></svg>