<svg xmlns="http://www.w3.org/2000/svg" xmlns:svg="http://www.w3.org/2000/svg" id="svg5587" width="242.594" height="120.938" version="1.1" viewBox="0 0 242.594 120.938"><metadata id="metadata5592"/><g id="g1113" transform="scale(0.93750003)"><g id="g1111" transform="scale(1.5)"><path id="path1101" d="m 0.5,8.5 v -4 c 0,-2.209139 1.790861,-4 4,-4 h 4 v 2 h 10 v -2 h 9 54.501366 4 c 2.209139,0 3.259917,1.9185168 4,4 v 4 h -4 v -3 h -4 v 10 h 4 v -3 h 4 v 4 c 0,2.209139 -1.790861,4 -4,4 h -4 H 27.5 h -1 v 2 h -8 v -2 h -1 -4 c -2.761424,0 -5,2.238576 -5,5 v 4 4 21 4 c 0,2.761424 2.238576,5 5,5 h 4 v 2 h 10 v -2 h 8 v 6 6 4 c 0,2.209139 -1.790861,4 -4,4 h -4 -9 -1 v 2 h -8 v -2 h -1 -4 c -2.209139,0 -4,-1.790861 -4,-4 v -4 z" style="fill:#3edcdd;fill-opacity:1;stroke:#000;stroke-width:1;stroke-linecap:round;stroke-opacity:1"/><text id="text1105" style="font-size:10px;font-family:sans-serif;text-anchor:start;fill:#000"><tspan id="tspan1103" x="5.333" y="15.25">definir bateria</tspan></text></g></g><g id="g1123" transform="matrix(0.93750003,0,0,0.93750003,116.01755,0)"><g id="g1121" transform="scale(1.5)"><path id="path1115" d="m 8.5,0.5 h 60 v 20 h -60 v -8 -1 h -6 v 3 h -2 v -8 h 2 v 3 h 6 v -1 z" style="fill:#3edcdd;fill-opacity:1;stroke:#000;stroke-width:1;stroke-linecap:round;stroke-opacity:1"/><text id="text1119" style="font-size:10px;font-family:sans-serif;text-anchor:start;fill:#000"><tspan id="tspan1117" x="13.333" y="13.833">bumbo</tspan></text></g></g><g id="g1141" transform="matrix(0.93750003,0,0,0.93750003,76.65625,29.53125)"><g id="g1139" transform="scale(1.5)"><path id="path1125" d="m -45.01111,8.5 v -4 c 0,-2.209139 1.790861,-4 4,-4 h 4 v 2 h 10 v -2 H 48.5 h 4 c 2.209139,0 4,1.790861 4,4 v 4 h -4 v -3 h -4 v 10 h 4 v -3 h 4 v 17 h -4 v -3 h -4 v 10 h 4 v -3 h 4 v 4 c 0,2.209139 -1.790861,4 -4,4 h -4 -75.51111 -1 v 2 h -8 v -2 h -1 -4 c -2.209139,0 -4,-1.790861 -4,-4 v -4 -21 z" style="fill:#7cd622;fill-opacity:1;stroke:#57ad02;stroke-width:1;stroke-linecap:round;stroke-opacity:1"/><text id="text1129" style="font-size:10px;font-family:sans-serif;text-anchor:end;fill:#000"><tspan id="tspan1127" x="46.333" y="24">determinar o tom</tspan></text><text id="text1133" style="font-size:6.66666651px;font-family:sans-serif;text-anchor:end;fill:#000"><tspan id="tspan1131" x="46.333" y="11.25">nome</tspan></text><text id="text1137" style="font-size:6.66666651px;font-family:sans-serif;text-anchor:end;fill:#000"><tspan id="tspan1135" x="46.333" y="32.25">oitava</tspan></text></g></g><g id="g1151" transform="matrix(0.93750003,0,0,0.93750003,145.5625,29.53125)"><g id="g1149" transform="scale(1.5)"><path id="path1143" d="m 8.5,0.5 h 60 v 20 h -60 v -8 -1 h -6 v 3 h -2 v -8 h 2 v 3 h 6 v -1 z" style="fill:#7cd622;fill-opacity:1;stroke:#57ad02;stroke-width:1;stroke-linecap:round;stroke-opacity:1"/><text id="text1147" style="font-size:10px;font-family:sans-serif;text-anchor:start;fill:#000"><tspan id="tspan1145" x="13.333" y="13.833">sol</tspan></text></g></g><g id="g1161" transform="matrix(0.93750003,0,0,0.93750003,145.5625,59.0625)"><g id="g1159" transform="scale(1.5)"><path id="path1153" d="m 8.5,0.5 h 60 v 20 h -60 v -8 -1 h -6 v 3 h -2 v -8 h 2 v 3 h 6 v -1 z" style="fill:#ff6ea1;fill-opacity:1;stroke:#ff2c76;stroke-width:1;stroke-linecap:round;stroke-opacity:1"/><text id="text1157" style="font-size:10px;font-family:sans-serif;text-anchor:start;fill:#000"><tspan id="tspan1155" x="13.333" y="13.833">4</tspan></text></g></g></svg>