<svg xmlns="http://www.w3.org/2000/svg" xmlns:svg="http://www.w3.org/2000/svg" id="svg5587" width="299.221" height="129" version="1.1" viewBox="0 0 280.52 120.937"><metadata id="metadata5592"/><flowRoot style="font-style:normal;font-weight:400;font-size:16px;line-height:125%;font-family:sans-serif;text-align:center;letter-spacing:0;word-spacing:0;text-anchor:middle;fill:#000;fill-opacity:1;stroke:none;stroke-width:1px;stroke-linecap:butt;stroke-linejoin:miter;stroke-opacity:1" id="flowRoot13151" transform="translate(-401.23843,156.46875)" xml:space="preserve"><flowRegion id="flowRegion13153"><rect id="rect13155" width="341.506" height="75.89" x="-46.463" y="28.555"/></flowRegion><flowPara id="flowPara13157"/></flowRoot><g id="g1539" transform="scale(0.93750001)"><g id="g1537" transform="scale(1.5)"><path id="path1527" d="m 0.5,8.5 v -4 c 0,-2.209139 1.790861,-4 4,-4 h 4 v 2 h 10 v -2 h 9 45.480794 4 c 2.209139,0 4,1.790861 4,4 v 4 h -4 v -3 h -4 v 10 h 4 v -3 h 4 v 4 c 0,2.209139 -1.790861,4 -4,4 h -4 H 27.5 h -1 v 2 h -8 v -2 h -1 -4 c -2.761424,0 -5,2.238576 -5,5 v 4 4 21 4 c 0,2.761424 2.238576,5 5,5 h 4 v 2 h 10 v -2 h 8 v 6 6 4 c 0,2.209139 -1.790861,4 -4,4 h -4 -9 -1 v 2 h -8 v -2 h -1 -4 c -2.209139,0 -4,-1.790861 -4,-4 v -4 z" style="fill:#fe994f;fill-opacity:1;stroke:#e8680e;stroke-width:1;stroke-linecap:round;stroke-opacity:1"/><text id="text1531" style="font-size:10px;font-family:sans-serif;text-anchor:start;fill:#000"><tspan id="tspan1529" x="5.333" y="15.25">valor de nota</tspan></text></g></g><g id="g1557" transform="matrix(0.93750001,0,0,0.93750001,103.33237,0)"><g id="g1555" transform="scale(1.5)"><path id="path1541" d="m 8.5,8.5 v -4 a 4,4 90 0 1 4,-4 h 4 10 30 4 a 4,4 90 0 1 4,4 v 4 h -4 v -3 h -4 v 10 h 4 v -3 h 4 v 17 h -4 v -3 h -4 v 10 h 4 v -3 h 4 v 4 a 4,4 90 0 1 -4,4 h -4 -30 -10 -4 a 4,4 90 0 1 -4,-4 v -4 -21 -1 h -6 v 3 h -2 v -8 h 2 v 3 h 6 z" style="fill:#ff6ea1;fill-opacity:1;stroke:#ff2c76;stroke-width:1;stroke-linecap:round;stroke-opacity:1"/><text id="text1545" style="font-size:14px;font-family:sans-serif;text-anchor:end;fill:#000"><tspan id="tspan1543" x="54.333" y="23.8">/</tspan></text></g></g><g id="g1567" transform="matrix(0.93750001,0,0,0.93750001,183.48862,0)"><g id="g1565" transform="scale(1.5)"><path id="path1559" d="m 8.5,0.5 h 60 v 20 h -60 v -8 -1 h -6 v 3 h -2 v -8 h 2 v 3 h 6 v -1 z" style="fill:#ff6ea1;fill-opacity:1;stroke:#ff2c76;stroke-width:1;stroke-linecap:round;stroke-opacity:1"/><text id="text1563" style="font-size:10px;font-family:sans-serif;text-anchor:start;fill:#000"><tspan id="tspan1561" x="13.333" y="13.833">1</tspan></text></g></g><g id="g1577" transform="matrix(0.93750001,0,0,0.93750001,183.48862,29.53125)"><g id="g1575" transform="scale(1.5)"><path id="path1569" d="m 8.5,0.5 h 60 v 20 h -60 v -8 -1 h -6 v 3 h -2 v -8 h 2 v 3 h 6 v -1 z" style="fill:#ff6ea1;fill-opacity:1;stroke:#ff2c76;stroke-width:1;stroke-linecap:round;stroke-opacity:1"/><text id="text1573" style="font-size:10px;font-family:sans-serif;text-anchor:start;fill:#000"><tspan id="tspan1571" x="13.333" y="13.833">4</tspan></text></g></g><g id="g1587" transform="matrix(0.93750001,0,0,0.93750001,12.65625,29.53125)"><g id="g1585" transform="scale(1.5)"><path id="path1579" d="m 0.5,8.5 v -4 a 4,4 90 0 1 4,-4 h 4 v 2 h 10 v -2 h 20 4 a 4,4 90 0 1 4,4 v 4 4 4 a 4,4 90 0 1 -4,4 h -4 -20 -1 v 2 h -8 v -2 h -1 -4 a 4,4 90 0 1 -4,-4 v -4 z" style="fill:#c4c4c4;fill-opacity:1;stroke:#000;stroke-width:1;stroke-linecap:round;stroke-opacity:1"/><text id="text1583" style="font-size:10px;font-family:sans-serif;text-anchor:end;fill:#000"><tspan id="tspan1581" x="36.333" y="13.5">↓</tspan></text></g></g><g id="g1601" transform="matrix(0.93750001,0,0,0.93750001,12.65625,59.062501)"><g id="g1599" transform="scale(1.5)"><path id="path1589" d="m 0.5,8.5 v -4 a 4,4 90 0 1 4,-4 h 4 v 2 h 10 v -2 h 30 4 a 4,4 90 0 1 4,4 v 4 h -4 v -3 h -4 v 10 h 4 v -3 h 4 v 4 a 4,4 90 0 1 -4,4 h -4 -30 -1 v 2 h -8 v -2 h -1 -4 a 4,4 90 0 1 -4,-4 v -4 z" style="fill:#3edcdd;fill-opacity:1;stroke:#000;stroke-width:1;stroke-linecap:round;stroke-opacity:1"/><text id="text1593" style="font-size:10px;font-family:sans-serif;text-anchor:end;fill:#000"><tspan id="tspan1591" x="46.333" y="13.5">bateria</tspan></text></g></g><g id="g1611" transform="matrix(0.93750001,0,0,0.93750001,81.5625,59.062501)"><g id="g1609" transform="scale(1.5)"><path id="path1603" d="m 8.5,0.5 h 60 v 20 h -60 v -8 -1 h -6 v 3 h -2 v -8 h 2 v 3 h 6 v -1 z" style="fill:#3edcdd;fill-opacity:1;stroke:#000;stroke-width:1;stroke-linecap:round;stroke-opacity:1"/><text id="text1607" style="font-size:10px;font-family:sans-serif;text-anchor:start;fill:#000"><tspan id="tspan1605" x="13.333" y="13.833">bumbo</tspan></text></g></g></svg>