<svg xmlns="http://www.w3.org/2000/svg" xmlns:svg="http://www.w3.org/2000/svg" id="svg10429" width="798.5" height="585.843" version="1.1"><metadata id="metadata10435"/><rect style="fill:none;stroke:none" id="backgroundrect" width="100%" height="100%" x="0" y="1.172"/><g id="g10427" class="currentLayer" transform="translate(0,1.1715375)"><title id="title10069">Layer 1</title><g id="svg_1"><g id="svg_2"><g id="svg_3" transform="matrix(1.5,0,0,1.5,335,-72)"><path id="svg_4" d="m -222.83333,62 v -4 a 4,4 90 0 1 4,-4 h 4 l 5,-6 5,6 h 9 60 4 a 4,4 90 0 1 4,4 v 4 4 4 a 4,4 90 0 1 -4,4 h -4 -60 -1 v 2 h -8 v -2 h -1 -4 a 5,5 90 0 0 -5,5 v 4 4 189 4 a 5,5 90 0 0 5,5 h 4 v 2 h 10 v -2 h 8 v 6 6 4 a 4,4 90 0 1 -4,4 h -4 -9 l -5,6 -5,-6 h -4 a 4,4 90 0 1 -4,-4 v -4 z" style="fill:#daa926;fill-opacity:1;stroke:#daaf30;stroke-width:1;stroke-linecap:round;stroke-opacity:1"/><text id="svg_5" x="-223.333" y="47.5" style="font-size:10px;font-family:sans-serif;text-anchor:start;fill:#282828"><tspan id="svg_6" x="-203.333" y="69.5">iniciar</tspan></text></g></g></g><g id="svg_15" transform="translate(30)"><g id="svg_16"><g id="svg_17" transform="matrix(1.5,0,0,1.5,782,-31)"><path id="svg_18" d="m -222.83333,56 v -4 a 4,4 90 0 1 4,-4 h 4 v 2 h 10 v -2 h 9 60 4 a 4,4 90 0 1 4,4 v 4 h -4 v -3 h -4 v 10 h 4 v -3 h 4 v 4 a 4,4 90 0 1 -4,4 h -4 -60 -1 v 2 h -8 v -2 h -1 -4 a 5,5 90 0 0 -5,5 v 4 4 21 4 a 5,5 90 0 0 5,5 h 4 v 2 h 10 v -2 h 8 v 6 6 4 a 4,4 90 0 1 -4,4 h -4 -9 -1 v 2 h -8 v -2 h -1 -4 a 4,4 90 0 1 -4,-4 v -4 z" style="fill:#fe994f;fill-opacity:1;stroke:#e86b0e;stroke-width:1;stroke-linecap:round;stroke-opacity:1"/><text id="svg_19" x="-223.333" y="47.5" style="font-size:10px;font-family:sans-serif;text-anchor:start;fill:#282828"><tspan id="svg_20" x="-203.333" y="62.5">nota</tspan></text><text id="svg_21" x="-223.333" y="47.5" style="font-size:6.66666651px;font-family:sans-serif;text-anchor:end;fill:#282828"><tspan id="svg_22" x="-138.333" y="59.5">valor</tspan></text></g></g></g><g id="svg_30" transform="translate(30)"><g id="svg_31" transform="matrix(1.5,0,0,1.5,914,-31)"><path id="svg_32" d="m -214.83333,56 v -4 a 4,4 90 0 1 4,-4 h 4 10 30 4 a 4,4 90 0 1 4,4 v 4 h -4 v -3 h -4 v 10 h 4 v -3 h 4 v 17 h -4 v -3 h -4 v 10 h 4 v -3 h 4 v 4 a 4,4 90 0 1 -4,4 h -4 -30 -10 -4 a 4,4 90 0 1 -4,-4 V 81 60 59 h -6 v 3 h -2 v -8 h 2 v 3 h 6 z" style="fill:#ff5293;fill-opacity:1;stroke:#ff2c76;stroke-width:1;stroke-linecap:round;stroke-opacity:1"/><text id="svg_33" x="-223.333" y="47.5" style="font-size:9px;font-family:sans-serif;text-anchor:end;fill:#282828"><tspan id="svg_34" x="-169.333" y="70.5">➗</tspan></text></g></g><g id="svg_39" transform="translate(30)"><g id="svg_40" transform="matrix(1.5,0,0,1.5,1000,-31)"><path id="svg_41" d="m -214.83333,48 h 60 v 20 h -60 v -8 -1 h -6 v 3 h -2 v -8 h 2 v 3 h 6 v -1 z" style="fill:#ff5293;fill-opacity:1;stroke:#ff2c76;stroke-width:1;stroke-linecap:round;stroke-opacity:1"/><text id="svg_42" x="-223.333" y="47.5" style="font-size:10px;font-family:sans-serif;text-anchor:start;fill:#282828"><tspan id="svg_43" x="-210.333" y="61.5">1</tspan></text></g></g><g id="svg_44" transform="translate(30)"><g id="svg_45" transform="matrix(1.5,0,0,1.5,1000,1)"><path id="svg_46" d="m -214.83333,48 h 60 v 20 h -60 v -8 -1 h -6 v 3 h -2 v -8 h 2 v 3 h 6 v -1 z" style="fill:#ff5293;fill-opacity:1;stroke:#ff2c76;stroke-width:1;stroke-linecap:round;stroke-opacity:1"/><text id="svg_47" x="-223.333" y="47.5" style="font-size:10px;font-family:sans-serif;text-anchor:start;fill:#282828"><tspan id="svg_48" x="-210.333" y="61.5">4</tspan></text></g></g><g id="svg_49" transform="translate(30)"><g id="svg_50" transform="matrix(1.5,0,0,1.5,796,1)"><path id="svg_51" d="m -222.83333,56 v -4 a 4,4 90 0 1 4,-4 h 4 v 2 h 10 v -2 h 20 4 a 4,4 90 0 1 4,4 v 4 4 4 a 4,4 90 0 1 -4,4 h -4 -20 -1 v 2 h -8 v -2 h -1 -4 a 4,4 90 0 1 -4,-4 v -4 z" style="fill:#b0b0b0;fill-opacity:1;stroke:#a0a0a0;stroke-width:1;stroke-linecap:round;stroke-opacity:1"/><text id="svg_52" x="-223.333" y="47.5" style="font-size:10px;font-family:sans-serif;text-anchor:end;fill:#282828"><tspan id="svg_53" x="-187.333" y="61.5">↓</tspan></text></g></g><g id="svg_54" transform="translate(30)"><g id="svg_55"><g id="svg_56" transform="matrix(1.5,0,0,1.5,782,221)"><path id="svg_57" d="m -222.83333,56 v -4 a 4,4 90 0 1 4,-4 h 4 v 2 h 10 v -2 h 9 60 4 a 4,4 90 0 1 4,4 v 4 h -4 v -3 h -4 v 10 h 4 v -3 h 4 v 4 a 4,4 90 0 1 -4,4 h -4 -60 -1 v 2 h -8 v -2 h -1 -4 a 5,5 90 0 0 -5,5 v 4 4 21 4 a 5,5 90 0 0 5,5 h 4 v 2 h 10 v -2 h 8 v 6 6 4 a 4,4 90 0 1 -4,4 h -4 -9 -1 v 2 h -8 v -2 h -1 -4 a 4,4 90 0 1 -4,-4 v -4 z" style="fill:#fe994f;fill-opacity:1;stroke:#e86b0e;stroke-width:1;stroke-linecap:round;stroke-opacity:1"/><text id="svg_58" x="-223.333" y="47.5" style="font-size:10px;font-family:sans-serif;text-anchor:start;fill:#282828"><tspan id="svg_59" x="-203.333" y="62.5">nota</tspan></text><text id="svg_60" x="-223.333" y="47.5" style="font-size:6.66666651px;font-family:sans-serif;text-anchor:end;fill:#282828"><tspan id="svg_61" x="-138.333" y="59.5">valor</tspan></text></g></g></g><g id="svg_69" transform="translate(30)"><g id="svg_70" transform="matrix(1.5,0,0,1.5,914,221)"><path id="svg_71" d="m -214.83333,56 v -4 a 4,4 90 0 1 4,-4 h 4 10 30 4 a 4,4 90 0 1 4,4 v 4 h -4 v -3 h -4 v 10 h 4 v -3 h 4 v 17 h -4 v -3 h -4 v 10 h 4 v -3 h 4 v 4 a 4,4 90 0 1 -4,4 h -4 -30 -10 -4 a 4,4 90 0 1 -4,-4 V 81 60 59 h -6 v 3 h -2 v -8 h 2 v 3 h 6 z" style="fill:#ff5293;fill-opacity:1;stroke:#ff2c76;stroke-width:1;stroke-linecap:round;stroke-opacity:1"/><text id="svg_72" x="-223.333" y="47.5" style="font-size:9px;font-family:sans-serif;text-anchor:end;fill:#282828"><tspan id="svg_73" x="-169.333" y="70.5">➗</tspan></text></g></g><g id="svg_78" transform="translate(30)"><g id="svg_79" transform="matrix(1.5,0,0,1.5,1000,221)"><path id="svg_80" d="m -214.83333,48 h 60 v 20 h -60 v -8 -1 h -6 v 3 h -2 v -8 h 2 v 3 h 6 v -1 z" style="fill:#ff5293;fill-opacity:1;stroke:#ff2c76;stroke-width:1;stroke-linecap:round;stroke-opacity:1"/><text id="svg_81" x="-223.333" y="47.5" style="font-size:10px;font-family:sans-serif;text-anchor:start;fill:#282828"><tspan id="svg_82" x="-210.333" y="61.5">1</tspan></text></g></g><g id="svg_83" transform="translate(30)"><g id="svg_84" transform="matrix(1.5,0,0,1.5,1000,253)"><path id="svg_85" d="m -214.83333,48 h 60 v 20 h -60 v -8 -1 h -6 v 3 h -2 v -8 h 2 v 3 h 6 v -1 z" style="fill:#ff5293;fill-opacity:1;stroke:#ff2c76;stroke-width:1;stroke-linecap:round;stroke-opacity:1"/><text id="svg_86" x="-223.333" y="47.5" style="font-size:10px;font-family:sans-serif;text-anchor:start;fill:#282828"><tspan id="svg_87" x="-210.333" y="61.5">4</tspan></text></g></g><g id="svg_88" transform="translate(30)"><g id="svg_89" transform="matrix(1.5,0,0,1.5,796,253)"><path id="svg_90" d="m -222.83333,56 v -4 a 4,4 90 0 1 4,-4 h 4 v 2 h 10 v -2 h 20 4 a 4,4 90 0 1 4,4 v 4 4 4 a 4,4 90 0 1 -4,4 h -4 -20 -1 v 2 h -8 v -2 h -1 -4 a 4,4 90 0 1 -4,-4 v -4 z" style="fill:#b0b0b0;fill-opacity:1;stroke:#a0a0a0;stroke-width:1;stroke-linecap:round;stroke-opacity:1"/><text id="svg_91" x="-223.333" y="47.5" style="font-size:10px;font-family:sans-serif;text-anchor:end;fill:#282828"><tspan id="svg_92" x="-187.333" y="61.5">↓</tspan></text></g></g><g id="svg_93" transform="translate(30)"><g id="svg_94"><g id="svg_95" transform="matrix(1.5,0,0,1.5,782,95)"><path id="svg_96" d="m -222.83333,56 v -4 a 4,4 90 0 1 4,-4 h 4 v 2 h 10 v -2 h 9 60 4 a 4,4 90 0 1 4,4 v 4 h -4 v -3 h -4 v 10 h 4 v -3 h 4 v 4 a 4,4 90 0 1 -4,4 h -4 -60 -1 v 2 h -8 v -2 h -1 -4 a 5,5 90 0 0 -5,5 v 4 4 21 4 a 5,5 90 0 0 5,5 h 4 v 2 h 10 v -2 h 8 v 6 6 4 a 4,4 90 0 1 -4,4 h -4 -9 -1 v 2 h -8 v -2 h -1 -4 a 4,4 90 0 1 -4,-4 v -4 z" style="fill:#fe994f;fill-opacity:1;stroke:#e86b0e;stroke-width:1;stroke-linecap:round;stroke-opacity:1"/><text id="svg_97" x="-223.333" y="47.5" style="font-size:10px;font-family:sans-serif;text-anchor:start;fill:#282828"><tspan id="svg_98" x="-203.333" y="62.5">nota</tspan></text><text id="svg_99" x="-223.333" y="47.5" style="font-size:6.66666651px;font-family:sans-serif;text-anchor:end;fill:#282828"><tspan id="svg_100" x="-138.333" y="59.5">valor</tspan></text></g></g></g><g id="svg_108" transform="translate(30)"><g id="svg_109" transform="matrix(1.5,0,0,1.5,914,95)"><path id="svg_110" d="m -214.83333,56 v -4 a 4,4 90 0 1 4,-4 h 4 10 30 4 a 4,4 90 0 1 4,4 v 4 h -4 v -3 h -4 v 10 h 4 v -3 h 4 v 17 h -4 v -3 h -4 v 10 h 4 v -3 h 4 v 4 a 4,4 90 0 1 -4,4 h -4 -30 -10 -4 a 4,4 90 0 1 -4,-4 V 81 60 59 h -6 v 3 h -2 v -8 h 2 v 3 h 6 z" style="fill:#ff5293;fill-opacity:1;stroke:#ff2c76;stroke-width:1;stroke-linecap:round;stroke-opacity:1"/><text id="svg_111" x="-223.333" y="47.5" style="font-size:9px;font-family:sans-serif;text-anchor:end;fill:#282828"><tspan id="svg_112" x="-169.333" y="70.5">➗</tspan></text></g></g><g id="svg_117" transform="translate(30)"><g id="svg_118" transform="matrix(1.5,0,0,1.5,1000,95)"><path id="svg_119" d="m -214.83333,48 h 60 v 20 h -60 v -8 -1 h -6 v 3 h -2 v -8 h 2 v 3 h 6 v -1 z" style="fill:#ff5293;fill-opacity:1;stroke:#ff2c76;stroke-width:1;stroke-linecap:round;stroke-opacity:1"/><text id="svg_120" x="-223.333" y="47.5" style="font-size:10px;font-family:sans-serif;text-anchor:start;fill:#282828"><tspan id="svg_121" x="-210.333" y="61.5">1</tspan></text></g></g><g id="svg_122" transform="translate(30)"><g id="svg_123" transform="matrix(1.5,0,0,1.5,1000,127)"><path id="svg_124" d="m -214.83333,48 h 60 v 20 h -60 v -8 -1 h -6 v 3 h -2 v -8 h 2 v 3 h 6 v -1 z" style="fill:#ff5293;fill-opacity:1;stroke:#ff2c76;stroke-width:1;stroke-linecap:round;stroke-opacity:1"/><text id="svg_125" x="-223.333" y="47.5" style="font-size:10px;font-family:sans-serif;text-anchor:start;fill:#282828"><tspan id="svg_126" x="-210.333" y="61.5">4</tspan></text></g></g><g id="svg_127" transform="translate(30)"><g id="svg_128" transform="matrix(1.5,0,0,1.5,796,127)"><path id="svg_129" d="m -222.83333,56 v -4 a 4,4 90 0 1 4,-4 h 4 v 2 h 10 v -2 h 20 4 a 4,4 90 0 1 4,4 v 4 4 4 a 4,4 90 0 1 -4,4 h -4 -20 -1 v 2 h -8 v -2 h -1 -4 a 4,4 90 0 1 -4,-4 v -4 z" style="fill:#b0b0b0;fill-opacity:1;stroke:#a0a0a0;stroke-width:1;stroke-linecap:round;stroke-opacity:1"/><text id="svg_130" x="-223.333" y="47.5" style="font-size:10px;font-family:sans-serif;text-anchor:end;fill:#282828"><tspan id="svg_131" x="-187.333" y="61.5">↓</tspan></text></g></g><g id="svg_132"><g id="svg_133" transform="matrix(1.5,0,0,1.5,363,64)"><path id="svg_134" d="m -222.83333,56 v -4 c 0,-2.209139 1.79086,-4 4,-4 h 4 v 2 h 10 v -2 h 9 103.488934 4 c 2.209139,0 4.698591,1.904227 4,4 v 4 h -4 v -3 h -4 v 10 h 4 v -3 h 4 v 4 c 0,2.209139 -1.790861,4 -4,4 h -4 -103.488934 -1 v 2 h -8 v -2 h -1 -4 c -2.76142,0 -5,2.238576 -5,5 v 4 4 21 4 c 0,2.76142 2.23858,5 5,5 h 4 v 2 h 10 v -2 h 8 v 6 6 4 c 0,2.20914 -1.79086,4 -4,4 h -4 -9 -1 v 2 h -8 v -2 h -1 -4 c -2.20914,0 -4,-1.79086 -4,-4 v -4 z" style="fill:#fe994f;fill-opacity:1;stroke:#e86b0e;stroke-width:1;stroke-linecap:round;stroke-opacity:1"/><text id="svg_135" x="-223.333" y="47.5" style="font-size:10px;font-family:sans-serif;text-anchor:start;fill:#282828"><tspan id="svg_136" x="-218.333" y="62.5">multiplicar valor da nota</tspan></text></g></g><g id="svg_139" transform="translate(46)"><g id="svg_140" transform="matrix(1.5,0,0,1.5,514,64)"><path id="svg_141" d="m -214.83333,56 v -4 a 4,4 90 0 1 4,-4 h 4 10 30 4 a 4,4 90 0 1 4,4 v 4 h -4 v -3 h -4 v 10 h 4 v -3 h 4 v 17 h -4 v -3 h -4 v 10 h 4 v -3 h 4 v 4 a 4,4 90 0 1 -4,4 h -4 -30 -10 -4 a 4,4 90 0 1 -4,-4 V 81 60 59 h -6 v 3 h -2 v -8 h 2 v 3 h 6 z" style="fill:#ff5293;fill-opacity:1;stroke:#ff2c76;stroke-width:1;stroke-linecap:round;stroke-opacity:1"/><text id="svg_142" x="-223.333" y="47.5" style="font-size:9px;font-family:sans-serif;text-anchor:end;fill:#282828"><tspan id="svg_143" x="-169.333" y="70.5">➗</tspan></text></g></g><g id="svg_148" transform="translate(46)"><g id="svg_149" transform="matrix(1.5,0,0,1.5,600,64)"><path id="svg_150" d="m -214.83333,48 h 60 v 20 h -60 v -8 -1 h -6 v 3 h -2 v -8 h 2 v 3 h 6 v -1 z" style="fill:#ff5293;fill-opacity:1;stroke:#ff2c76;stroke-width:1;stroke-linecap:round;stroke-opacity:1"/><text id="svg_151" x="-223.333" y="47.5" style="font-size:10px;font-family:sans-serif;text-anchor:start;fill:#282828"><tspan id="svg_152" x="-210.333" y="61.5">1</tspan></text></g></g><g id="svg_153"><g id="svg_154" transform="matrix(1.5,0,0,1.5,377,96)"><path id="svg_155" d="m -222.83333,56 v -4 a 4,4 90 0 1 4,-4 h 4 v 2 h 10 v -2 h 20 4 a 4,4 90 0 1 4,4 v 4 4 4 a 4,4 90 0 1 -4,4 h -4 -20 -1 v 2 h -8 v -2 h -1 -4 a 4,4 90 0 1 -4,-4 v -4 z" style="fill:#b0b0b0;fill-opacity:1;stroke:#a0a0a0;stroke-width:1;stroke-linecap:round;stroke-opacity:1"/><text id="svg_156" x="-223.333" y="47.5" style="font-size:10px;font-family:sans-serif;text-anchor:end;fill:#282828"><tspan id="svg_157" x="-187.333" y="61.5">↓</tspan></text></g></g><g id="svg_158" transform="translate(20)"><g id="svg_159" transform="matrix(1.5,0,0,1.5,349,-31)"><path id="svg_160" d="m -236.16666,56 v -4 c 0,-2.209139 1.79086,-4 4,-4 h 4 v 2 h 10 v -2 h 46.1263 4 c 2.20914,0 4,1.790861 4,4 v 4 h -4 v -3 h -4 v 10 h 4 v -3 h 4 v 17 h -4 v -3 h -4 v 10 h 4 v -3 h 4 v 4 c 0,2.209139 -1.79086,4 -4,4 h -4 -46.1263 -1 v 2 h -8 v -2 h -1 -4 c -2.20914,0 -4,-1.790861 -4,-4 V 81 60 Z" style="fill:#daa926;fill-opacity:1;stroke:#daaf30;stroke-width:1;stroke-linecap:round;stroke-opacity:1"/><text id="svg_161" x="-223.333" y="47.5" style="font-size:10px;font-family:sans-serif;text-anchor:end;fill:#282828"><tspan id="svg_162" x="-174.333" y="71.5">guardar em</tspan></text><text id="svg_163" x="-223.333" y="47.5" style="font-size:6.66666651px;font-family:sans-serif;text-anchor:end;fill:#282828"><tspan id="svg_164" x="-174.333" y="59.5">nome</tspan></text><text id="svg_165" x="-223.333" y="47.5" style="font-size:6.66666651px;font-family:sans-serif;text-anchor:end;fill:#282828"><tspan id="svg_166" x="-174.333" y="80.5">valor</tspan></text></g></g><g id="svg_167" transform="translate(20)"><g id="svg_168" transform="matrix(1.5,0,0,1.5,427,-31)"><path id="svg_169" d="m -214.83333,48 h 90 v 20 h -90 v -8 -1 h -6 v 3 h -2 v -8 h 2 v 3 h 6 v -1 z" style="fill:#ff5942;fill-opacity:1;stroke:#ea4326;stroke-width:1;stroke-linecap:round;stroke-opacity:1"/><text id="svg_170" x="-223.333" y="47.5" style="font-size:10px;font-family:sans-serif;text-anchor:start;fill:#282828"><tspan id="svg_171" x="-210.333" y="61.5">caixa</tspan></text></g></g><g id="svg_172" transform="translate(20)"><g id="svg_173" transform="matrix(1.5,0,0,1.5,427,1)"><path id="svg_174" d="m -214.83333,48 h 60 v 20 h -60 v -8 -1 h -6 v 3 h -2 v -8 h 2 v 3 h 6 v -1 z" style="fill:#ff5293;fill-opacity:1;stroke:#ff2c76;stroke-width:1;stroke-linecap:round;stroke-opacity:1"/><text id="svg_175" x="-223.333" y="47.5" style="font-size:10px;font-family:sans-serif;text-anchor:start;fill:#282828"><tspan id="svg_176" x="-210.333" y="61.5">1</tspan></text></g></g><g id="svg_177"><g id="svg_178" transform="matrix(1.5,0,0,1.5,349,32)"><path id="svg_179" d="m -222.83333,56 v -4 a 4,4 90 0 1 4,-4 h 4 v 2 h 10 v -2 h 9 20 4 a 4,4 90 0 1 4,4 v 4 h -4 v -3 h -4 v 10 h 4 v -3 h 4 v 4 a 4,4 90 0 1 -4,4 h -4 -20 -1 v 2 h -8 v -2 h -1 -4 a 5,5 90 0 0 -5,5 v 4 4 105 4 a 5,5 90 0 0 5,5 h 4 v 2 h 10 v -2 h 8 v 6 6 4 a 4,4 90 0 1 -4,4 h -4 -9 -1 v 2 h -8 v -2 h -1 -4 a 4,4 90 0 1 -4,-4 v -4 z" style="fill:#d68136;fill-opacity:1;stroke:#b7651a;stroke-width:1;stroke-linecap:round;stroke-opacity:1"/><text id="svg_180" x="-223.333" y="47.5" style="font-size:10px;font-family:sans-serif;text-anchor:start;fill:#282828"><tspan id="svg_181" x="-218.333" y="62.5">repetir</tspan></text></g></g><g id="svg_184"><g id="svg_185" transform="matrix(1.5,0,0,1.5,421,32)"><path id="svg_186" d="m -214.83333,48 h 60 v 20 h -60 v -8 -1 h -6 v 3 h -2 v -8 h 2 v 3 h 6 v -1 z" style="fill:#ff5293;fill-opacity:1;stroke:#ff2c76;stroke-width:1;stroke-linecap:round;stroke-opacity:1"/><text id="svg_187" x="-223.333" y="47.5" style="font-size:10px;font-family:sans-serif;text-anchor:start;fill:#282828"><tspan id="svg_188" x="-210.333" y="61.5">4</tspan></text></g></g><g id="svg_189" transform="translate(46)"><g id="svg_190" transform="matrix(1.5,0,0,1.5,600,96)"><path id="svg_191" d="m -214.83333,48 h 90 v 20 h -90 v -8 -1 h -6 v 3 h -2 v -8 h 2 v 3 h 6 v -1 z" style="fill:#daa926;fill-opacity:1;stroke:#daaf30;stroke-width:1;stroke-linecap:round;stroke-opacity:1"/><text id="svg_192" x="-223.333" y="47.5" style="font-size:10px;font-family:sans-serif;text-anchor:start;fill:#282828"><tspan id="svg_193" x="-210.333" y="61.5">caixa</tspan></text></g></g><g id="svg_194" transform="translate(30)"><g id="svg_195"><g id="svg_196" transform="matrix(1.5,0,0,1.5,768,-72)"><path id="svg_197" d="m -222.83333,62 v -4 a 4,4 90 0 1 4,-4 h 4 l 5,-6 5,6 h 9 52 4 a 4,4 90 0 1 4,4 v 4 h -4 v -3 h -4 v 10 h 4 v -3 h 4 v 4 a 4,4 90 0 1 -4,4 h -4 -52 -1 v 2 h -8 v -2 h -1 -4 a 5,5 90 0 0 -5,5 v 4 4 315 4 a 5,5 90 0 0 5,5 h 4 v 2 h 10 v -2 h 8 v 6 6 4 a 4,4 90 0 1 -4,4 h -4 -9 l -5,6 -5,-6 h -4 a 4,4 90 0 1 -4,-4 v -4 z" style="fill:#daa926;fill-opacity:1;stroke:#daaf30;stroke-width:1;stroke-linecap:round;stroke-opacity:1"/><text id="svg_198" x="-223.333" y="47.5" style="font-size:10px;font-family:sans-serif;text-anchor:start;fill:#282828"><tspan id="svg_199" x="-203.333" y="69.5">ação</tspan></text></g></g></g><g id="svg_209" transform="translate(30)"><g id="svg_210" transform="matrix(1.5,0,0,1.5,888,-63)"><path id="svg_211" d="m -214.83333,48 h 90 v 20 h -90 v -8 -1 h -6 v 3 h -2 v -8 h 2 v 3 h 6 v -1 z" style="fill:#ff5942;fill-opacity:1;stroke:#ea4326;stroke-width:1;stroke-linecap:round;stroke-opacity:1"/><text id="svg_212" x="-223.333" y="47.5" style="font-size:10px;font-family:sans-serif;text-anchor:start;fill:#282828"><tspan id="svg_213" x="-210.333" y="61.5">ação</tspan></text></g></g><g id="svg_214"><g id="svg_215" transform="matrix(1.5,0,0,1.5,377,128)"><path id="svg_216" d="m -222.83333,56 v -4 a 4,4 90 0 1 4,-4 h 4 v 2 h 10 v -2 h 70 4 a 4,4 90 0 1 4,4 v 4 4 4 a 4,4 90 0 1 -4,4 h -4 -70 -1 v 2 h -8 v -2 h -1 -4 a 4,4 90 0 1 -4,-4 v -4 z" style="fill:#daa926;fill-opacity:1;stroke:#daaf30;stroke-width:1;stroke-linecap:round;stroke-opacity:1"/><text id="svg_217" x="-223.333" y="47.5" style="font-size:10px;font-family:sans-serif;text-anchor:end;fill:#282828"><tspan id="svg_218" x="-137.333" y="61.5">ação</tspan></text></g></g><g id="svg_219" transform="translate(28)"><g id="svg_220" transform="matrix(1.5,0,0,1.5,555,190)"><path id="svg_221" d="m -214.83333,48 h 90 v 20 h -90 v -8 -1 h -6 v 3 h -2 v -8 h 2 v 3 h 6 v -1 z" style="fill:#ff5942;fill-opacity:1;stroke:#ea4326;stroke-width:1;stroke-linecap:round;stroke-opacity:1"/><text id="svg_222" x="-223.333" y="47.5" style="font-size:10px;font-family:sans-serif;text-anchor:start;fill:#282828"><tspan id="svg_223" x="-210.333" y="61.5">caixa</tspan></text></g></g><g id="svg_224" transform="translate(28)"><g id="svg_225" transform="matrix(1.5,0,0,1.5,363,190)"><path id="svg_226" d="m -241.5,56 v -4 c 0,-2.209139 1.79086,-4 4,-4 h 4 v 2 h 10 v -2 h 70.36101 4 c 2.20914,0 4,1.790861 4,4 v 4 h -4 v -3 h -4 v 10 h 4 v -3 h 4 v 4 c 0,2.209139 -1.79086,4 -4,4 h -4 -70.36101 -1 v 2 h -8 v -2 h -1 -4 c -2.20914,0 -4.69859,-1.904227 -4,-4 v -4 z" style="fill:#daa926;fill-opacity:1;stroke:#daaf30;stroke-width:1;stroke-linecap:round;stroke-opacity:1"/><text id="svg_227" x="-223.333" y="47.5" style="font-size:10px;font-family:sans-serif;text-anchor:end;fill:#282828"><tspan id="svg_228" x="-155.333" y="61.5">guardar na caixa</tspan></text></g></g><g id="svg_231" transform="translate(28)"><g id="svg_232" transform="matrix(1.5,0,0,1.5,469,190)"><path id="svg_233" d="m -214.83333,56 v -4 a 4,4 90 0 1 4,-4 h 4 10 30 4 a 4,4 90 0 1 4,4 v 4 h -4 v -3 h -4 v 10 h 4 v -3 h 4 v 17 h -4 v -3 h -4 v 10 h 4 v -3 h 4 v 4 a 4,4 90 0 1 -4,4 h -4 -30 -10 -4 a 4,4 90 0 1 -4,-4 V 81 60 59 h -6 v 3 h -2 v -8 h 2 v 3 h 6 z" style="fill:#ff5293;fill-opacity:1;stroke:#ff2c76;stroke-width:1;stroke-linecap:round;stroke-opacity:1"/><text id="svg_234" x="-223.333" y="47.5" style="font-size:14px;font-family:sans-serif;text-anchor:end;fill:#282828"><tspan id="svg_235" x="-169.333" y="71.5">×</tspan></text></g></g><g id="svg_240" transform="translate(28)"><g id="svg_241" transform="matrix(1.5,0,0,1.5,555,222)"><path id="svg_242" d="m -214.83333,48 h 60 v 20 h -60 v -8 -1 h -6 v 3 h -2 v -8 h 2 v 3 h 6 v -1 z" style="fill:#ff5293;fill-opacity:1;stroke:#ff2c76;stroke-width:1;stroke-linecap:round;stroke-opacity:1"/><text id="svg_243" x="-223.333" y="47.5" style="font-size:10px;font-family:sans-serif;text-anchor:start;fill:#282828"><tspan id="svg_244" x="-210.333" y="61.5">2</tspan></text></g></g><g id="svg_245"><g id="svg_246" transform="matrix(1.5,0,0,1.5,363,222)"><path id="svg_247" d="m -222.83333,56 v -4 a 4,4 90 0 1 4,-4 h 4 v 2 h 10 v -2 h 20 4 a 4,4 90 0 1 4,4 v 4 4 4 a 4,4 90 0 1 -4,4 h -4 -20 -1 v 2 h -8 v -2 h -1 -4 a 4,4 90 0 1 -4,-4 v -4 z" style="fill:#b0b0b0;fill-opacity:1;stroke:#a0a0a0;stroke-width:1;stroke-linecap:round;stroke-opacity:1"/><text id="svg_248" x="-223.333" y="47.5" style="font-size:10px;font-family:sans-serif;text-anchor:end;fill:#282828"><tspan id="svg_249" x="-187.333" y="61.5">↓</tspan></text></g></g><g id="svg_250" transform="translate(30)"><g id="svg_251"><g id="svg_252" transform="matrix(1.5,0,0,1.5,782,347)"><path id="svg_253" d="m -222.83333,56 v -4 a 4,4 90 0 1 4,-4 h 4 v 2 h 10 v -2 h 9 60 4 a 4,4 90 0 1 4,4 v 4 h -4 v -3 h -4 v 10 h 4 v -3 h 4 v 4 a 4,4 90 0 1 -4,4 h -4 -60 -1 v 2 h -8 v -2 h -1 -4 a 5,5 90 0 0 -5,5 v 4 4 21 4 a 5,5 90 0 0 5,5 h 4 v 2 h 10 v -2 h 8 v 6 6 4 a 4,4 90 0 1 -4,4 h -4 -9 -1 v 2 h -8 v -2 h -1 -4 a 4,4 90 0 1 -4,-4 v -4 z" style="fill:#fe994f;fill-opacity:1;stroke:#e86b0e;stroke-width:1;stroke-linecap:round;stroke-opacity:1"/><text id="svg_254" x="-223.333" y="47.5" style="font-size:10px;font-family:sans-serif;text-anchor:start;fill:#282828"><tspan id="svg_255" x="-203.333" y="62.5">nota</tspan></text><text id="svg_256" x="-223.333" y="47.5" style="font-size:6.66666651px;font-family:sans-serif;text-anchor:end;fill:#282828"><tspan id="svg_257" x="-138.333" y="59.5">valor</tspan></text></g></g></g><g id="svg_265" transform="translate(30)"><g id="svg_266" transform="matrix(1.5,0,0,1.5,914,347)"><path id="svg_267" d="m -214.83333,56 v -4 a 4,4 90 0 1 4,-4 h 4 10 30 4 a 4,4 90 0 1 4,4 v 4 h -4 v -3 h -4 v 10 h 4 v -3 h 4 v 17 h -4 v -3 h -4 v 10 h 4 v -3 h 4 v 4 a 4,4 90 0 1 -4,4 h -4 -30 -10 -4 a 4,4 90 0 1 -4,-4 V 81 60 59 h -6 v 3 h -2 v -8 h 2 v 3 h 6 z" style="fill:#ff5293;fill-opacity:1;stroke:#ff2c76;stroke-width:1;stroke-linecap:round;stroke-opacity:1"/><text id="svg_268" x="-223.333" y="47.5" style="font-size:9px;font-family:sans-serif;text-anchor:end;fill:#282828"><tspan id="svg_269" x="-169.333" y="70.5">➗</tspan></text></g></g><g id="svg_274" transform="translate(30)"><g id="svg_275" transform="matrix(1.5,0,0,1.5,1000,347)"><path id="svg_276" d="m -214.83333,48 h 60 v 20 h -60 v -8 -1 h -6 v 3 h -2 v -8 h 2 v 3 h 6 v -1 z" style="fill:#ff5293;fill-opacity:1;stroke:#ff2c76;stroke-width:1;stroke-linecap:round;stroke-opacity:1"/><text id="svg_277" x="-223.333" y="47.5" style="font-size:10px;font-family:sans-serif;text-anchor:start;fill:#282828"><tspan id="svg_278" x="-210.333" y="61.5">1</tspan></text></g></g><g id="svg_279" transform="translate(30)"><g id="svg_280" transform="matrix(1.5,0,0,1.5,1000,379)"><path id="svg_281" d="m -214.83333,48 h 60 v 20 h -60 v -8 -1 h -6 v 3 h -2 v -8 h 2 v 3 h 6 v -1 z" style="fill:#ff5293;fill-opacity:1;stroke:#ff2c76;stroke-width:1;stroke-linecap:round;stroke-opacity:1"/><text id="svg_282" x="-223.333" y="47.5" style="font-size:10px;font-family:sans-serif;text-anchor:start;fill:#282828"><tspan id="svg_283" x="-210.333" y="61.5">4</tspan></text></g></g><g id="svg_284" transform="translate(30)"><g id="svg_285" transform="matrix(1.5,0,0,1.5,796,379)"><path id="svg_286" d="m -222.83333,56 v -4 a 4,4 90 0 1 4,-4 h 4 v 2 h 10 v -2 h 20 4 a 4,4 90 0 1 4,4 v 4 4 4 a 4,4 90 0 1 -4,4 h -4 -20 -1 v 2 h -8 v -2 h -1 -4 a 4,4 90 0 1 -4,-4 v -4 z" style="fill:#b0b0b0;fill-opacity:1;stroke:#a0a0a0;stroke-width:1;stroke-linecap:round;stroke-opacity:1"/><text id="svg_287" x="-223.333" y="47.5" style="font-size:10px;font-family:sans-serif;text-anchor:end;fill:#282828"><tspan id="svg_288" x="-187.333" y="61.5">↓</tspan></text></g></g><g id="svg_289" transform="translate(30)"><g id="svg_290" transform="matrix(1.5,0,0,1.5,796,33)"><path id="svg_291" d="m -222.83333,56 v -4 a 4,4 90 0 1 4,-4 h 4 v 2 h 10 v -2 h 30 4 a 4,4 90 0 1 4,4 v 4 h -4 v -3 h -4 v 10 h 4 v -3 h 4 v 4 a 4,4 90 0 1 -4,4 h -4 -30 -1 v 2 h -8 v -2 h -1 -4 a 4,4 90 0 1 -4,-4 v -4 z" style="fill:#25c3c0;fill-opacity:1;stroke:#1dbcbd;stroke-width:1;stroke-linecap:round;stroke-opacity:1"/><text id="svg_292" x="-223.333" y="47.5" style="font-size:10px;font-family:sans-serif;text-anchor:end;fill:#282828"><tspan id="svg_293" x="-177.333" y="61.5">bateria</tspan></text></g></g><g id="svg_296" transform="translate(30)"><g id="svg_297" transform="matrix(1.5,0,0,1.5,870,33)"><path id="svg_298" d="m -214.83333,48 h 110 v 20 h -110 v -8 -1 h -6 v 3 h -2 v -8 h 2 v 3 h 6 v -1 z" style="fill:#25c3c0;fill-opacity:1;stroke:#1dbcbd;stroke-width:1;stroke-linecap:round;stroke-opacity:1"/><text id="svg_299" x="-223.333" y="47.5" style="font-size:10px;font-family:sans-serif;text-anchor:start;fill:#282828"><tspan id="svg_300" x="-210.333" y="61.5">tarola</tspan></text></g></g><g id="svg_301" transform="translate(30)"><g id="svg_302" transform="matrix(1.5,0,0,1.5,796,159)"><path id="svg_303" d="m -222.83333,56 v -4 a 4,4 90 0 1 4,-4 h 4 v 2 h 10 v -2 h 30 4 a 4,4 90 0 1 4,4 v 4 h -4 v -3 h -4 v 10 h 4 v -3 h 4 v 4 a 4,4 90 0 1 -4,4 h -4 -30 -1 v 2 h -8 v -2 h -1 -4 a 4,4 90 0 1 -4,-4 v -4 z" style="fill:#25c3c0;fill-opacity:1;stroke:#1dbcbd;stroke-width:1;stroke-linecap:round;stroke-opacity:1"/><text id="svg_304" x="-223.333" y="47.5" style="font-size:10px;font-family:sans-serif;text-anchor:end;fill:#282828"><tspan id="svg_305" x="-177.333" y="61.5">bateria</tspan></text></g></g><g id="svg_308" transform="translate(30)"><g id="svg_309" transform="matrix(1.5,0,0,1.5,870,159)"><path id="svg_310" d="m -214.83333,48 h 110 v 20 h -110 v -8 -1 h -6 v 3 h -2 v -8 h 2 v 3 h 6 v -1 z" style="fill:#25c3c0;fill-opacity:1;stroke:#1dbcbd;stroke-width:1;stroke-linecap:round;stroke-opacity:1"/><text id="svg_311" x="-223.333" y="47.5" style="font-size:10px;font-family:sans-serif;text-anchor:start;fill:#282828"><tspan id="svg_312" x="-210.333" y="61.5">bumbo</tspan></text></g></g><g id="svg_313" transform="translate(30)"><g id="svg_314" transform="matrix(1.5,0,0,1.5,796,285)"><path id="svg_315" d="m -222.83333,56 v -4 a 4,4 90 0 1 4,-4 h 4 v 2 h 10 v -2 h 30 4 a 4,4 90 0 1 4,4 v 4 h -4 v -3 h -4 v 10 h 4 v -3 h 4 v 4 a 4,4 90 0 1 -4,4 h -4 -30 -1 v 2 h -8 v -2 h -1 -4 a 4,4 90 0 1 -4,-4 v -4 z" style="fill:#25c3c0;fill-opacity:1;stroke:#1dbcbd;stroke-width:1;stroke-linecap:round;stroke-opacity:1"/><text id="svg_316" x="-223.333" y="47.5" style="font-size:10px;font-family:sans-serif;text-anchor:end;fill:#282828"><tspan id="svg_317" x="-177.333" y="61.5">bateria</tspan></text></g></g><g id="svg_320" transform="translate(30)"><g id="svg_321" transform="matrix(1.5,0,0,1.5,870,285)"><path id="svg_322" d="m -214.83333,48 h 110 v 20 h -110 v -8 -1 h -6 v 3 h -2 v -8 h 2 v 3 h 6 v -1 z" style="fill:#25c3c0;fill-opacity:1;stroke:#1dbcbd;stroke-width:1;stroke-linecap:round;stroke-opacity:1"/><text id="svg_323" x="-223.333" y="47.5" style="font-size:10px;font-family:sans-serif;text-anchor:start;fill:#282828"><tspan id="svg_324" x="-210.333" y="61.5">bumbo</tspan></text></g></g><g id="svg_325" transform="translate(30)"><g id="svg_326" transform="matrix(1.5,0,0,1.5,796,411)"><path id="svg_327" d="m -222.83333,56 v -4 a 4,4 90 0 1 4,-4 h 4 v 2 h 10 v -2 h 30 4 a 4,4 90 0 1 4,4 v 4 h -4 v -3 h -4 v 10 h 4 v -3 h 4 v 4 a 4,4 90 0 1 -4,4 h -4 -30 -1 v 2 h -8 v -2 h -1 -4 a 4,4 90 0 1 -4,-4 v -4 z" style="fill:#25c3c0;fill-opacity:1;stroke:#1dbcbd;stroke-width:1;stroke-linecap:round;stroke-opacity:1"/><text id="svg_328" x="-223.333" y="47.5" style="font-size:10px;font-family:sans-serif;text-anchor:end;fill:#282828"><tspan id="svg_329" x="-177.333" y="61.5">bateria</tspan></text></g></g><g id="svg_332" transform="translate(30)"><g id="svg_333" transform="matrix(1.5,0,0,1.5,870,411)"><path id="svg_334" d="m -214.83333,48 h 110 v 20 h -110 v -8 -1 h -6 v 3 h -2 v -8 h 2 v 3 h 6 v -1 z" style="fill:#25c3c0;fill-opacity:1;stroke:#1dbcbd;stroke-width:1;stroke-linecap:round;stroke-opacity:1"/><text id="svg_335" x="-223.333" y="47.5" style="font-size:10px;font-family:sans-serif;text-anchor:start;fill:#282828"><tspan id="svg_336" x="-210.333" y="61.5">sino triângular</tspan></text></g></g></g></svg>