<svg xmlns="http://www.w3.org/2000/svg" xmlns:svg="http://www.w3.org/2000/svg" id="svg4075" width="234.352" height="176.343" version="1.1" viewBox="0 0 234.352 176.343"><metadata id="metadata4080"/><g id="g951" transform="translate(0,0.42153745)"><g id="g949" transform="scale(1.5)"><path id="path943" d="m 0.5,14.5 v -4 a 4,4 90 0 1 4,-4 h 4 l 5,-6 5,6 h 9 30 4 a 4,4 90 0 1 4,4 v 4 4 4 a 4,4 90 0 1 -4,4 h -4 -30 -1 v 2 h -8 v -2 h -1 -4 a 5,5 90 0 0 -5,5 v 4 4 42 4 a 5,5 90 0 0 5,5 h 4 v 2 h 10 v -2 h 8 v 6 6 4 a 4,4 90 0 1 -4,4 h -4 -9 l -5,6 -5,-6 h -4 a 4,4 90 0 1 -4,-4 v -4 z" style="fill:#ffbf00;fill-opacity:1;stroke:#daaf30;stroke-width:1;stroke-linecap:round;stroke-opacity:1"/><text id="text947" style="font-size:10px;font-family:sans-serif;text-anchor:start;fill:#000"><tspan id="tspan945" x="5.333" y="21.5">iniciar</tspan></text></g></g><g id="g965" transform="translate(13.5,40.921537)"><g id="g963" transform="scale(1.5)"><path id="path953" d="m 0.5,8.5 v -4 c 0,-2.209139 1.790861,-4 4,-4 h 4 v 2 h 10 v -2 h 9 50.2347 4 c 2.209139,0 4,1.790861 4,4 v 4 h -4 v -3 h -4 v 10 h 4 v -3 h 4 v 4 c 0,2.209139 -1.790861,4 -4,4 h -4 -50.2347 -1 v 2 h -8 v -2 h -1 -4 c -2.761424,0 -5,2.238576 -5,5 v 4 4 4 c 0,2.761424 2.238576,5 5,5 h 4 v 2 h 10 v -2 h 8 v 6 6 4 c 0,2.209139 -1.790861,4 -4,4 h -4 -9 -1 v 2 h -8 v -2 h -1 -4 c -2.209139,0 -4,-1.790861 -4,-4 v -4 z" style="fill:#3edcdd;fill-opacity:1;stroke:#000;stroke-width:1;stroke-linecap:round;stroke-opacity:1"/><text id="text957" style="font-size:10px;font-family:sans-serif;text-anchor:start;fill:#000"><tspan id="tspan955" x="5.333" y="15.25">definir bateria</tspan></text></g></g><g id="g975" transform="translate(130.85205,40.921537)"><g id="g973" transform="scale(1.5)"><path id="path967" d="m 8.5,0.5 h 60 v 20 h -60 v -8 -1 h -6 v 3 h -2 v -8 h 2 v 3 h 6 v -1 z" style="fill:#3edcdd;fill-opacity:1;stroke:#000;stroke-width:1;stroke-linecap:round;stroke-opacity:1"/><text id="text971" style="font-size:10px;font-family:sans-serif;text-anchor:start;fill:#000"><tspan id="tspan969" x="13.333" y="13.833">bumbo</tspan></text></g></g><g id="g1009" transform="translate(27,72.421537)"><g id="g1007" transform="scale(1.5)"><path id="path1001" d="m 0.5,8.5 v -4 a 4,4 90 0 1 4,-4 h 4 v 2 h 10 v -2 h 40 4 a 4,4 90 0 1 4,4 v 4 4 4 a 4,4 90 0 1 -4,4 h -4 -40 -1 v 2 h -8 v -2 h -1 -4 a 4,4 90 0 1 -4,-4 v -4 z" style="fill:#ffbf00;fill-opacity:1;stroke:#daaf30;stroke-width:1;stroke-linecap:round;stroke-opacity:1"/><text id="text1005" style="font-size:10px;font-family:sans-serif;text-anchor:end;fill:#000"><tspan id="tspan1003" x="56.333" y="13.5">chunk</tspan></text></g></g></svg>