<svg xmlns="http://www.w3.org/2000/svg" xmlns:svg="http://www.w3.org/2000/svg" id="svg10338" width="882.401" height="857.843" version="1.1"><metadata id="metadata10344"/><g id="g9462" transform="translate(1,0.42153745)"><g id="g9460" transform="scale(1.5)"><path id="path9450" d="m 0.5,14.5 v -4 a 4,4 90 0 1 4,-4 h 4 l 5,-6 5,6 h 9 35 4 a 4,4 90 0 1 4,4 v 4 h -4 v -3 h -4 v 10 h 4 v -3 h 4 v 4 a 4,4 90 0 1 -4,4 h -4 -35 -1 v 2 h -8 v -2 h -1 -4 a 5,5 90 0 0 -5,5 v 4 4 126 4 a 5,5 90 0 0 5,5 h 4 v 2 h 10 v -2 h 8 v 6 6 4 a 4,4 90 0 1 -4,4 h -4 -9 l -5,6 -5,-6 h -4 a 4,4 90 0 1 -4,-4 v -4 z" style="fill:#ffbf00;fill-opacity:1;stroke:#daaf30;stroke-width:1;stroke-linecap:round;stroke-opacity:1"/><text id="text9454" style="font-size:10px;font-family:sans-serif;text-anchor:start;fill:#000"><tspan id="tspan9452" x="5.333" y="21.5">ação</tspan></text></g></g><g id="g9472" transform="translate(95.5,9.4215375)"><g id="g9470" transform="scale(1.5)"><path id="path9464" d="m 8.5,0.5 h 60 v 20 h -60 v -8 -1 h -6 v 3 h -2 v -8 h 2 v 3 h 6 v -1 z" style="fill:#ff6648;fill-opacity:1;stroke:#ea4326;stroke-width:1;stroke-linecap:round;stroke-opacity:1"/><text id="text9468" style="font-size:10px;font-family:sans-serif;text-anchor:start;fill:#000"><tspan id="tspan9466" x="13.333" y="13.833">fib</tspan></text></g></g><g id="g9482" transform="translate(0,398.42154)"><g id="g9480" transform="scale(1.5)"><path id="path9474" d="m 0.5,14.5 v -4 a 4,4 90 0 1 4,-4 h 4 l 5,-6 5,6 h 9 30 4 a 4,4 90 0 1 4,4 v 4 4 4 a 4,4 90 0 1 -4,4 h -4 -30 -1 v 2 h -8 v -2 h -1 -4 a 5,5 90 0 0 -5,5 v 4 4 231 4 a 5,5 90 0 0 5,5 h 4 v 2 h 10 v -2 h 8 v 6 6 4 a 4,4 90 0 1 -4,4 h -4 -9 l -5,6 -5,-6 h -4 a 4,4 90 0 1 -4,-4 v -4 z" style="fill:#ffbf00;fill-opacity:1;stroke:#daaf30;stroke-width:1;stroke-linecap:round;stroke-opacity:1"/><text id="text9478" style="font-size:10px;font-family:sans-serif;text-anchor:start;fill:#000"><tspan id="tspan9476" x="5.333" y="21.5">iniciar</tspan></text></g></g><g id="g9496" transform="translate(13.5,501.92154)"><g id="g9494" transform="scale(1.5)"><path id="path9484" d="m 0.5,8.5 v -4 a 4,4 90 0 1 4,-4 h 4 v 2 h 10 v -2 h 9 20 4 a 4,4 90 0 1 4,4 v 4 h -4 v -3 h -4 v 10 h 4 v -3 h 4 v 4 a 4,4 90 0 1 -4,4 h -4 -20 -1 v 2 h -8 v -2 h -1 -4 a 5,5 90 0 0 -5,5 v 4 4 147 4 a 5,5 90 0 0 5,5 h 4 v 2 h 10 v -2 h 8 v 6 6 4 a 4,4 90 0 1 -4,4 h -4 -9 -1 v 2 h -8 v -2 h -1 -4 a 4,4 90 0 1 -4,-4 v -4 z" style="fill:#e9a066;fill-opacity:1;stroke:#b7651a;stroke-width:1;stroke-linecap:round;stroke-opacity:1"/><text id="text9488" style="font-size:10px;font-family:sans-serif;text-anchor:start;fill:#000"><tspan id="tspan9486" x="5.333" y="15.25">repetir</tspan></text></g></g><g id="g9506" transform="translate(85.5,501.92154)"><g id="g9504" transform="scale(1.5)"><path id="path9498" d="m 8.5,0.5 h 60 v 20 h -60 v -8 -1 h -6 v 3 h -2 v -8 h 2 v 3 h 6 v -1 z" style="fill:#ff6ea1;fill-opacity:1;stroke:#ff2c76;stroke-width:1;stroke-linecap:round;stroke-opacity:1"/><text id="text9502" style="font-size:10px;font-family:sans-serif;text-anchor:start;fill:#000"><tspan id="tspan9500" x="13.333" y="13.833">6</tspan></text></g></g><g id="g9520" transform="translate(473.5,231.72154)"><g id="g9518" transform="scale(1.5)"><path id="path9508" d="m 0.5,8.5 v -4 c 0,-2.209139 1.790861,-4 4,-4 h 4 v 2 h 10 v -2 h 9 108.60059 4 c 2.20914,0 4,1.790861 4,4 v 4 h -4 v -3 h -4 v 10 h 4 v -3 h 4 v 4 c 0,2.209139 -1.79086,4 -4,4 h -4 H 27.5 h -1 v 2 h -8 v -2 h -1 -4 c -2.761424,0 -5,2.238576 -5,5 v 4 4 126 4 c 0,2.76142 2.238576,5 5,5 h 4 v 2 h 10 v -2 h 8 v 6 6 4 c 0,2.20914 -1.790861,4 -4,4 h -4 -9 -1 v 2 h -8 v -2 h -1 -4 c -2.209139,0 -4,-1.79086 -4,-4 v -4 z" style="fill:#7cd622;fill-opacity:1;stroke:#57ad02;stroke-width:1;stroke-linecap:round;stroke-opacity:1"/><text id="text9512" style="font-size:10px;font-family:sans-serif;text-anchor:start;fill:#000"><tspan id="tspan9510" x="5.333" y="15.25">transposição de semi-tom</tspan></text></g></g><g id="g9686" transform="translate(33.5,438.92154)"><g id="g9684" transform="scale(1.5)"><path id="path9670" d="m -12.833333,8.5 v -4 c 0,-2.209139 1.790861,-4 3.9999997,-4 h 4 v 2 h 10 v -2 h 46.1263023 4 c 2.209139,0 4,1.790861 4,4 v 4 h -4 v -3 h -4 v 10 h 4 v -3 h 4 v 17 h -4 v -3 h -4 v 10 h 4 v -3 h 4 v 4 c 0,2.209139 -1.790861,4 -4,4 h -4 -46.1263023 -1 v 2 h -8 v -2 h -1 -4 c -2.2091387,0 -4.6985907,-1.904227 -3.9999997,-4 v -4 -21 z" style="fill:#fe994f;fill-opacity:1;stroke:#e8680e;stroke-width:1;stroke-linecap:round;stroke-opacity:1"/><text id="text9674" style="font-size:10px;font-family:sans-serif;text-anchor:end;fill:#000"><tspan id="tspan9672" x="49.126" y="24">guardar em</tspan></text><text id="text9678" style="font-size:6.66666651px;font-family:sans-serif;text-anchor:end;fill:#000"><tspan id="tspan9676" x="49.126" y="11.25">nome</tspan></text><text id="text9682" style="font-size:6.66666651px;font-family:sans-serif;text-anchor:end;fill:#000"><tspan id="tspan9680" x="49.126" y="32.25">valor</tspan></text></g></g><g id="g9696" transform="translate(111.18945,438.92154)"><g id="g9694" transform="scale(1.5)"><path id="path9688" d="m 8.5,0.5 h 60 v 20 h -60 v -8 -1 h -6 v 3 h -2 v -8 h 2 v 3 h 6 v -1 z" style="fill:#ff6648;fill-opacity:1;stroke:#ea4326;stroke-width:1;stroke-linecap:round;stroke-opacity:1"/><text id="text9692" style="font-size:10px;font-family:sans-serif;text-anchor:start;fill:#000"><tspan id="tspan9690" x="13.333" y="13.833">caixa</tspan></text></g></g><g id="g9706" transform="translate(111.18945,470.42154)"><g id="g9704" transform="scale(1.5)"><path id="path9698" d="m 8.5,0.5 h 60 v 20 h -60 v -8 -1 h -6 v 3 h -2 v -8 h 2 v 3 h 6 v -1 z" style="fill:#ff6ea1;fill-opacity:1;stroke:#ff2c76;stroke-width:1;stroke-linecap:round;stroke-opacity:1"/><text id="text9702" style="font-size:10px;font-family:sans-serif;text-anchor:start;fill:#000"><tspan id="tspan9700" x="13.333" y="13.833">0</tspan></text></g></g><g id="g9716" transform="translate(121,72.421537)"><g id="g9714" transform="scale(1.5)"><path id="path9708" d="m 8.5,0.5 h 60 v 20 h -60 v -8 -1 h -6 v 3 h -2 v -8 h 2 v 3 h 6 v -1 z" style="fill:#ff6ea1;fill-opacity:1;stroke:#ff2c76;stroke-width:1;stroke-linecap:round;stroke-opacity:1"/><text id="text9712" style="font-size:10px;font-family:sans-serif;text-anchor:start;fill:#000"><tspan id="tspan9710" x="13.333" y="13.833">2</tspan></text></g></g><g id="g9730" transform="translate(460,2.2215375)"><g id="g9728" transform="scale(1.5)"><path id="path9718" d="m 0.5,14.5 v -4 a 4,4 90 0 1 4,-4 h 4 l 5,-6 5,6 h 9 35 4 a 4,4 90 0 1 4,4 v 4 h -4 v -3 h -4 v 10 h 4 v -3 h 4 v 4 a 4,4 90 0 1 -4,4 h -4 -35 -1 v 2 h -8 v -2 h -1 -4 a 5,5 90 0 0 -5,5 v 4 4 294 4 a 5,5 90 0 0 5,5 h 4 v 2 h 10 v -2 h 8 v 6 6 4 a 4,4 90 0 1 -4,4 h -4 -9 l -5,6 -5,-6 h -4 a 4,4 90 0 1 -4,-4 v -4 z" style="fill:#ffbf00;fill-opacity:1;stroke:#daaf30;stroke-width:1;stroke-linecap:round;stroke-opacity:1"/><text id="text9722" style="font-size:10px;font-family:sans-serif;text-anchor:start;fill:#000"><tspan id="tspan9720" x="5.333" y="21.5">ação</tspan></text></g></g><g id="g9740" transform="translate(554.5,11.221537)"><g id="g9738" transform="scale(1.5)"><path id="path9732" d="m 8.5,0.5 h 60 v 20 h -60 v -8 -1 h -6 v 3 h -2 v -8 h 2 v 3 h 6 v -1 z" style="fill:#ff6648;fill-opacity:1;stroke:#ea4326;stroke-width:1;stroke-linecap:round;stroke-opacity:1"/><text id="text9736" style="font-size:10px;font-family:sans-serif;text-anchor:start;fill:#000"><tspan id="tspan9734" x="13.333" y="13.833">quadrado</tspan></text></g></g><g id="g9754" transform="translate(473.5,42.721537)"><g id="g9752" transform="scale(1.5)"><path id="path9742" d="m 0.5,8.5 v -4 a 4,4 90 0 1 4,-4 h 4 v 2 h 10 v -2 h 9 20 4 a 4,4 90 0 1 4,4 v 4 h -4 v -3 h -4 v 10 h 4 v -3 h 4 v 4 a 4,4 90 0 1 -4,4 h -4 -20 -1 v 2 h -8 v -2 h -1 -4 a 5,5 90 0 0 -5,5 v 4 4 21 4 a 5,5 90 0 0 5,5 h 4 v 2 h 10 v -2 h 8 v 6 6 4 a 4,4 90 0 1 -4,4 h -4 -9 -1 v 2 h -8 v -2 h -1 -4 a 4,4 90 0 1 -4,-4 v -4 z" style="fill:#e9a066;fill-opacity:1;stroke:#b7651a;stroke-width:1;stroke-linecap:round;stroke-opacity:1"/><text id="text9746" style="font-size:10px;font-family:sans-serif;text-anchor:start;fill:#000"><tspan id="tspan9744" x="5.333" y="15.25">repetir</tspan></text></g></g><g id="g9764" transform="translate(545.5,42.721537)"><g id="g9762" transform="scale(1.5)"><path id="path9756" d="m 8.5,0.5 h 60 v 20 h -60 v -8 -1 h -6 v 3 h -2 v -8 h 2 v 3 h 6 v -1 z" style="fill:#ff6ea1;fill-opacity:1;stroke:#ff2c76;stroke-width:1;stroke-linecap:round;stroke-opacity:1"/><text id="text9760" style="font-size:10px;font-family:sans-serif;text-anchor:start;fill:#000"><tspan id="tspan9758" x="13.333" y="13.833">4</tspan></text></g></g><g id="g9778" transform="translate(505,74.221537)"><g id="g9776" transform="scale(1.5)"><path id="path9766" d="m -11.5,8.5 v -4 c 0,-2.209139 1.790861,-4 4,-4 h 4 v 2 h 10 v -2 h 45.344727 4 c 2.209139,0 4,1.790861 4,4 v 4 h -4 v -3 h -4 v 10 h 4 v -3 h 4 v 4 c 0,2.209139 -1.790861,4 -4,4 h -4 H 6.5 5.5 v 2 h -8 v -2 h -1 -4 c -2.209139,0 -3.301409,-1.904227 -4,-4 v -4 z" style="fill:#92a9ff;fill-opacity:1;stroke:#5370dc;stroke-width:1;stroke-linecap:round;stroke-opacity:1"/><text id="text9770" style="font-size:10px;font-family:sans-serif;text-anchor:end;fill:#000"><tspan id="tspan9768" x="49.678" y="13.5">para frente</tspan></text></g></g><g id="g9788" transform="translate(583.51709,74.221537)"><g id="g9786" transform="scale(1.5)"><path id="path9780" d="m 8.5,0.5 h 70 v 20 h -70 v -8 -1 h -6 v 3 h -2 v -8 h 2 v 3 h 6 v -1 z" style="fill:#ffbf00;fill-opacity:1;stroke:#daaf30;stroke-width:1;stroke-linecap:round;stroke-opacity:1"/><text id="text9784" style="font-size:10px;font-family:sans-serif;text-anchor:start;fill:#000"><tspan id="tspan9782" x="13.333" y="13.833">arg 1</tspan></text></g></g><g id="g9802" transform="translate(487,105.72154)"><g id="g9800" transform="scale(1.5)"><path id="path9790" d="m 0.5,8.5 v -4 a 4,4 90 0 1 4,-4 h 4 v 2 h 10 v -2 h 30 4 a 4,4 90 0 1 4,4 v 4 h -4 v -3 h -4 v 10 h 4 v -3 h 4 v 4 a 4,4 90 0 1 -4,4 h -4 -30 -1 v 2 h -8 v -2 h -1 -4 a 4,4 90 0 1 -4,-4 v -4 z" style="fill:#92a9ff;fill-opacity:1;stroke:#5370dc;stroke-width:1;stroke-linecap:round;stroke-opacity:1"/><text id="text9794" style="font-size:10px;font-family:sans-serif;text-anchor:end;fill:#000"><tspan id="tspan9792" x="46.333" y="13.5">direita</tspan></text></g></g><g id="g9812" transform="translate(560.5,105.72154)"><g id="g9810" transform="scale(1.5)"><path id="path9804" d="m 8.5,0.5 h 60 v 20 h -60 v -8 -1 h -6 v 3 h -2 v -8 h 2 v 3 h 6 v -1 z" style="fill:#ff6ea1;fill-opacity:1;stroke:#ff2c76;stroke-width:1;stroke-linecap:round;stroke-opacity:1"/><text id="text9808" style="font-size:10px;font-family:sans-serif;text-anchor:start;fill:#000"><tspan id="tspan9806" x="13.333" y="13.833">90</tspan></text></g></g><g id="g9830" transform="translate(473.5,168.72154)"><g id="g9828" transform="scale(1.5)"><path id="path9814" d="m 0.5,8.5 v -4 a 4,4 90 0 1 4,-4 h 4 v 2 h 10 v -2 h 30 4 a 4,4 90 0 1 4,4 v 4 h -4 v -3 h -4 v 10 h 4 v -3 h 4 v 17 h -4 v -3 h -4 v 10 h 4 v -3 h 4 v 4 a 4,4 90 0 1 -4,4 h -4 -30 -1 v 2 h -8 v -2 h -1 -4 a 4,4 90 0 1 -4,-4 v -4 -21 z" style="fill:#92a9ff;fill-opacity:1;stroke:#5370dc;stroke-width:1;stroke-linecap:round;stroke-opacity:1"/><text id="text9818" style="font-size:10px;font-family:sans-serif;text-anchor:end;fill:#000"><tspan id="tspan9816" x="46.333" y="24">arc</tspan></text><text id="text9822" style="font-size:6.66666651px;font-family:sans-serif;text-anchor:end;fill:#000"><tspan id="tspan9820" x="46.333" y="11.25">ângulo</tspan></text><text id="text9826" style="font-size:6.66666651px;font-family:sans-serif;text-anchor:end;fill:#000"><tspan id="tspan9824" x="46.333" y="32.25">raio</tspan></text></g></g><g id="g9840" transform="translate(547,168.72154)"><g id="g9838" transform="scale(1.5)"><path id="path9832" d="m 8.5,0.5 h 60 v 20 h -60 v -8 -1 h -6 v 3 h -2 v -8 h 2 v 3 h 6 v -1 z" style="fill:#ff6ea1;fill-opacity:1;stroke:#ff2c76;stroke-width:1;stroke-linecap:round;stroke-opacity:1"/><text id="text9836" style="font-size:10px;font-family:sans-serif;text-anchor:start;fill:#000"><tspan id="tspan9834" x="13.333" y="13.833">90</tspan></text></g></g><g id="g9850" transform="translate(547,200.22154)"><g id="g9848" transform="scale(1.5)"><path id="path9842" d="m 8.5,0.5 h 70 v 20 h -70 v -8 -1 h -6 v 3 h -2 v -8 h 2 v 3 h 6 v -1 z" style="fill:#ffbf00;fill-opacity:1;stroke:#daaf30;stroke-width:1;stroke-linecap:round;stroke-opacity:1"/><text id="text9846" style="font-size:10px;font-family:sans-serif;text-anchor:start;fill:#000"><tspan id="tspan9844" x="13.333" y="13.833">arg 1</tspan></text></g></g><g id="g9860" transform="translate(763.90088,231.72154)"><g id="g9858" transform="scale(1.5)"><path id="path9852" d="m 8.5,0.5 h 70 v 20 h -70 v -8 -1 h -6 v 3 h -2 v -8 h 2 v 3 h 6 v -1 z" style="fill:#ffbf00;fill-opacity:1;stroke:#daaf30;stroke-width:1;stroke-linecap:round;stroke-opacity:1"/><text id="text9856" style="font-size:10px;font-family:sans-serif;text-anchor:start;fill:#000"><tspan id="tspan9854" x="13.333" y="13.833">arg 1</tspan></text></g></g><g id="g9878" transform="translate(678.40088,231.72154)"><g id="g9876" transform="scale(1.5)"><path id="path9862" d="m 8.5,8.5 v -4 a 4,4 90 0 1 4,-4 h 4 10 30 4 a 4,4 90 0 1 4,4 v 4 h -4 v -3 h -4 v 10 h 4 v -3 h 4 v 17 h -4 v -3 h -4 v 10 h 4 v -3 h 4 v 4 a 4,4 90 0 1 -4,4 h -4 -30 -10 -4 a 4,4 90 0 1 -4,-4 v -4 -21 -1 h -6 v 3 h -2 v -8 h 2 v 3 h 6 z" style="fill:#ff6ea1;fill-opacity:1;stroke:#ff2c76;stroke-width:1;stroke-linecap:round;stroke-opacity:1"/><text id="text9866" style="font-size:14px;font-family:sans-serif;text-anchor:end;fill:#000"><tspan id="tspan9864" x="54.333" y="23.8">/</tspan></text></g></g><g id="g9888" transform="translate(763.90088,263.22154)"><g id="g9886" transform="scale(1.5)"><path id="path9880" d="m 8.5,0.5 h 60 v 20 h -60 v -8 -1 h -6 v 3 h -2 v -8 h 2 v 3 h 6 v -1 z" style="fill:#ff6ea1;fill-opacity:1;stroke:#ff2c76;stroke-width:1;stroke-linecap:round;stroke-opacity:1"/><text id="text9884" style="font-size:10px;font-family:sans-serif;text-anchor:start;fill:#000"><tspan id="tspan9882" x="13.333" y="13.833">20</tspan></text></g></g><g id="g9898" transform="translate(487,263.22154)"><g id="g9896" transform="scale(1.5)"><path id="path9890" d="m 0.5,8.5 v -4 c 0,-2.209139 1.790861,-4 4,-4 h 4 v 2 h 10 v -2 h 9 31.351237 4 c 2.209139,0 4.698591,1.9042267 4,4 v 4 4 4 c 0,2.209139 -1.790861,4 -4,4 h -4 H 27.5 h -1 v 2 h -8 v -2 h -1 -4 c -2.761424,0 -5,2.238576 -5,5 v 4 4 84 4 c 0,2.76142 2.238576,5 5,5 h 4 v 2 h 10 v -2 h 8 v 6 6 4 c 0,2.20914 -1.790861,4 -4,4 h -4 -9 -1 v 2 h -8 v -2 h -1 -4 c -2.209139,0 -4,-1.79086 -4,-4 v -4 z" style="fill:#fe994f;fill-opacity:1;stroke:#e8680e;stroke-width:1;stroke-linecap:round;stroke-opacity:1"/><text id="text9894" style="font-size:10px;font-family:sans-serif;text-anchor:start;fill:#000"><tspan id="tspan9892" x="5.333" y="15.25">sem relógio</tspan></text></g></g><g id="g9912" transform="translate(500.5,294.72154)"><g id="g9910" transform="scale(1.5)"><path id="path9900" d="m 0.5,8.5 v -4 c 0,-2.209139 1.790861,-4 4,-4 h 4 v 2 h 10 v -2 h 9 45.480794 4 c 2.209139,0 4.698591,1.9042267 4,4 v 4 h -4 v -3 h -4 v 10 h 4 v -3 h 4 v 4 c 0,2.209139 -1.790861,4 -4,4 h -4 H 27.5 h -1 v 2 h -8 v -2 h -1 -4 c -2.761424,0 -5,2.238576 -5,5 v 4 4 42 4 c 0,2.761424 2.238576,5 5,5 h 4 v 2 h 10 v -2 h 8 v 6 6 4 c 0,2.20914 -1.790861,4 -4,4 h -4 -9 -1 v 2 h -8 v -2 h -1 -4 c -2.209139,0 -4,-1.79086 -4,-4 v -4 z" style="fill:#fe994f;fill-opacity:1;stroke:#e8680e;stroke-width:1;stroke-linecap:round;stroke-opacity:1"/><text id="text9904" style="font-size:10px;font-family:sans-serif;text-anchor:start;fill:#000"><tspan id="tspan9902" x="5.333" y="15.25">valor de nota</tspan></text></g></g><g id="g9930" transform="translate(610.72119,294.72154)"><g id="g9928" transform="scale(1.5)"><path id="path9914" d="m 8.5,8.5 v -4 a 4,4 90 0 1 4,-4 h 4 10 30 4 a 4,4 90 0 1 4,4 v 4 h -4 v -3 h -4 v 10 h 4 v -3 h 4 v 17 h -4 v -3 h -4 v 10 h 4 v -3 h 4 v 4 a 4,4 90 0 1 -4,4 h -4 -30 -10 -4 a 4,4 90 0 1 -4,-4 v -4 -21 -1 h -6 v 3 h -2 v -8 h 2 v 3 h 6 z" style="fill:#ff6ea1;fill-opacity:1;stroke:#ff2c76;stroke-width:1;stroke-linecap:round;stroke-opacity:1"/><text id="text9918" style="font-size:14px;font-family:sans-serif;text-anchor:end;fill:#000"><tspan id="tspan9916" x="54.333" y="23.8">/</tspan></text></g></g><g id="g9940" transform="translate(696.22119,294.72154)"><g id="g9938" transform="scale(1.5)"><path id="path9932" d="m 8.5,0.5 h 60 v 20 h -60 v -8 -1 h -6 v 3 h -2 v -8 h 2 v 3 h 6 v -1 z" style="fill:#ff6ea1;fill-opacity:1;stroke:#ff2c76;stroke-width:1;stroke-linecap:round;stroke-opacity:1"/><text id="text9936" style="font-size:10px;font-family:sans-serif;text-anchor:start;fill:#000"><tspan id="tspan9934" x="13.333" y="13.833">1</tspan></text></g></g><g id="g9950" transform="translate(696.22119,326.22154)"><g id="g9948" transform="scale(1.5)"><path id="path9942" d="m 8.5,0.5 h 60 v 20 h -60 v -8 -1 h -6 v 3 h -2 v -8 h 2 v 3 h 6 v -1 z" style="fill:#ff6ea1;fill-opacity:1;stroke:#ff2c76;stroke-width:1;stroke-linecap:round;stroke-opacity:1"/><text id="text9946" style="font-size:10px;font-family:sans-serif;text-anchor:start;fill:#000"><tspan id="tspan9944" x="13.333" y="13.833">16</tspan></text></g></g><g id="g9960" transform="translate(514,326.22154)"><g id="g9958" transform="scale(1.5)"><path id="path9952" d="m 0.5,8.5 v -4 a 4,4 90 0 1 4,-4 h 4 v 2 h 10 v -2 h 20 4 a 4,4 90 0 1 4,4 v 4 4 4 a 4,4 90 0 1 -4,4 h -4 -20 -1 v 2 h -8 v -2 h -1 -4 a 4,4 90 0 1 -4,-4 v -4 z" style="fill:#c4c4c4;fill-opacity:1;stroke:#000;stroke-width:1;stroke-linecap:round;stroke-opacity:1"/><text id="text9956" style="font-size:10px;font-family:sans-serif;text-anchor:end;fill:#000"><tspan id="tspan9954" x="36.333" y="13.5">↓</tspan></text></g></g><g id="g9978" transform="translate(580,357.72154)"><g id="g9976" transform="scale(1.5)"><path id="path9962" d="m -43.5,8.5 v -4 c 0,-2.209139 1.790861,-4 4,-4 h 4 v 2 h 10 v -2 h 74 4 c 2.209139,0 4,1.790861 4,4 v 4 h -4 v -3 h -4 v 10 h 4 v -3 h 4 v 17 h -4 v -3 h -4 v 10 h 4 v -3 h 4 v 4 c 0,2.209139 -1.790861,4 -4,4 h -4 -74 -1 v 2 h -8 v -2 h -1 -4 c -2.209139,0 -4.698591,-1.904227 -4,-4 v -4 -21 z" style="fill:#7cd622;fill-opacity:1;stroke:#57ad02;stroke-width:1;stroke-linecap:round;stroke-opacity:1"/><text id="text9966" style="font-size:10px;font-family:sans-serif;text-anchor:end;fill:#000"><tspan id="tspan9964" x="46.333" y="24">determinar o tom</tspan></text><text id="text9970" style="font-size:6.66666651px;font-family:sans-serif;text-anchor:end;fill:#000"><tspan id="tspan9968" x="46.333" y="11.25">nome</tspan></text><text id="text9974" style="font-size:6.66666651px;font-family:sans-serif;text-anchor:end;fill:#000"><tspan id="tspan9972" x="46.333" y="32.25">oitava</tspan></text></g></g><g id="g9988" transform="translate(653.5,357.72154)"><g id="g9986" transform="scale(1.5)"><path id="path9980" d="m 8.5,0.5 h 60 v 20 h -60 v -8 -1 h -6 v 3 h -2 v -8 h 2 v 3 h 6 v -1 z" style="fill:#7cd622;fill-opacity:1;stroke:#57ad02;stroke-width:1;stroke-linecap:round;stroke-opacity:1"/><text id="text9984" style="font-size:10px;font-family:sans-serif;text-anchor:start;fill:#000"><tspan id="tspan9982" x="13.333" y="13.833">re</tspan></text></g></g><g id="g9998" transform="translate(653.5,389.22154)"><g id="g9996" transform="scale(1.5)"><path id="path9990" d="m 8.5,0.5 h 60 v 20 h -60 v -8 -1 h -6 v 3 h -2 v -8 h 2 v 3 h 6 v -1 z" style="fill:#ff6ea1;fill-opacity:1;stroke:#ff2c76;stroke-width:1;stroke-linecap:round;stroke-opacity:1"/><text id="text9994" style="font-size:10px;font-family:sans-serif;text-anchor:start;fill:#000"><tspan id="tspan9992" x="13.333" y="13.833">4</tspan></text></g></g><g id="g10016" transform="translate(14.5,40.921537)"><g id="g10014" transform="scale(1.5)"><path id="path10000" d="m 0.5,8.5 v -4 a 4,4 90 0 1 4,-4 h 4 v 2 h 10 v -2 h 9 4 a 4,4 90 0 1 4,4 v 4 9 a 8,8 90 0 0 -8,8 8,8 90 0 0 8,8 v 4 a 4,4 90 0 1 -4,4 h -4 -1 v 2 h -8 v -2 h -1 -4 a 5,5 90 0 0 -5,5 v 4 4 4 a 5,5 90 0 0 5,5 h 4 v 2 h 10 v -2 h 8 v 12 4 a 4,4 90 0 1 -4,4 h -4 -1 v 2 h -8 v -2 h -1 -4 a 5,5 90 0 0 -5,5 v 4 4 21 4 a 5,5 90 0 0 5,5 h 4 v 2 h 10 v -2 h 8 v 6 6 4 a 4,4 90 0 1 -4,4 h -4 -9 -1 v 2 h -8 v -2 h -1 -4 a 4,4 90 0 1 -4,-4 v -4 z" style="fill:#e9a066;fill-opacity:1;stroke:#b7651a;stroke-width:1;stroke-linecap:round;stroke-opacity:1"/><text id="text10004" style="font-size:10px;font-family:sans-serif;text-anchor:start;fill:#000"><tspan id="tspan10002" x="5.333" y="18.583">se</tspan></text><text id="text10008" style="font-size:6.66666651px;font-family:sans-serif;text-anchor:end;fill:#000"><tspan id="tspan10006" x="30.667" y="37.833">então</tspan></text><text id="text10012" style="font-size:6.66666651px;font-family:sans-serif;text-anchor:end;fill:#000"><tspan id="tspan10010" x="30.667" y="79.833">ou</tspan></text></g></g><g id="g10028" transform="translate(56.5,40.921537)"><g id="g10026" transform="scale(1.5)"><g id="g10020" transform="translate(0,-16)"><path id="path10018" d="m 0.5,41.5 a 7,7 90 0 1 7,-7 h 1 v -10 a 8,8 90 0 1 8,-8 h 34 v 8 h -4 v -3 h -4 v 10 h 4 v -3 h 4 v 17 h -4 v -3 h -4 v 10 h 4 v -3 h 4 v 8 h -30 -12 v -8 -1 h -1 a 7,7 90 0 1 -7,-7 z" style="fill:#d97df5;fill-opacity:1;stroke:#b653d3;stroke-width:1;stroke-linecap:round;stroke-opacity:1"/></g><text id="text10024" style="font-size:14px;font-family:sans-serif;text-anchor:end;fill:#000"><tspan id="tspan10022" x="37.667" y="25.667">&lt;</tspan></text></g></g><g id="g10038" transform="translate(121,40.921537)"><g id="g10036" transform="scale(1.5)"><path id="path10030" d="m 8.5,0.5 h 70 v 20 h -70 v -8 -1 h -6 v 3 h -2 v -8 h 2 v 3 h 6 v -1 z" style="fill:#ffbf00;fill-opacity:1;stroke:#daaf30;stroke-width:1;stroke-linecap:round;stroke-opacity:1"/><text id="text10034" style="font-size:10px;font-family:sans-serif;text-anchor:start;fill:#000"><tspan id="tspan10032" x="13.333" y="13.833">arg 1</tspan></text></g></g><g id="g10052" transform="translate(28,103.92154)"><g id="g10050" transform="scale(1.5)"><path id="path10040" d="m 0.5,8.5 v -4 a 4,4 90 0 1 4,-4 h 4 v 2 h 10 v -2 h 40 4 a 4,4 90 0 1 4,4 v 4 h -4 v -3 h -4 v 10 h 4 v -3 h 4 v 4 a 4,4 90 0 1 -4,4 h -4 -40 -1 v 2 h -8 v -2 h -1 -4 a 4,4 90 0 1 -4,-4 v -4 z" style="fill:#ffbf00;fill-opacity:1;stroke:#daaf30;stroke-width:1;stroke-linecap:round;stroke-opacity:1"/><text id="text10044" style="font-size:10px;font-family:sans-serif;text-anchor:end;fill:#000"><tspan id="tspan10042" x="56.333" y="13.5">retornar</tspan></text></g></g><g id="g10062" transform="translate(116.5,103.92154)"><g id="g10060" transform="scale(1.5)"><path id="path10054" d="m 8.5,0.5 h 60 v 20 h -60 v -8 -1 h -6 v 3 h -2 v -8 h 2 v 3 h 6 v -1 z" style="fill:#ff6ea1;fill-opacity:1;stroke:#ff2c76;stroke-width:1;stroke-linecap:round;stroke-opacity:1"/><text id="text10058" style="font-size:10px;font-family:sans-serif;text-anchor:start;fill:#000"><tspan id="tspan10056" x="13.333" y="13.833">1</tspan></text></g></g><g id="g10076" transform="translate(28,166.92154)"><g id="g10074" transform="scale(1.5)"><path id="path10064" d="m 0.5,8.5 v -4 a 4,4 90 0 1 4,-4 h 4 v 2 h 10 v -2 h 40 4 a 4,4 90 0 1 4,4 v 4 h -4 v -3 h -4 v 10 h 4 v -3 h 4 v 4 a 4,4 90 0 1 -4,4 h -4 -40 -1 v 2 h -8 v -2 h -1 -4 a 4,4 90 0 1 -4,-4 v -4 z" style="fill:#ffbf00;fill-opacity:1;stroke:#daaf30;stroke-width:1;stroke-linecap:round;stroke-opacity:1"/><text id="text10068" style="font-size:10px;font-family:sans-serif;text-anchor:end;fill:#000"><tspan id="tspan10066" x="56.333" y="13.5">retornar</tspan></text></g></g><g id="g10094" transform="translate(116.5,166.92154)"><g id="g10092" transform="scale(1.5)"><path id="path10078" d="m 8.5,8.5 v -4 c 0,-2.209139 1.790861,-4 4,-4 h 4 10 30 4 c 2.209139,0 4,1.790861 4,4 v 4 h -4 v -3 h -4 v 10 h 4 v -3 h 4 v 63.333333 17 h -4 v -3 h -4 v 10 h 4 v -3 h 4 v 3.999997 c 0,2.20914 -1.904227,3.30141 -4,4 h -4 -30 -10 -4 c -2.209139,0 -4,-1.79086 -4,-4 V 96.833333 33.5 v -21 -1 h -6 v 3 h -2 v -8 h 2 v 3 h 6 z" style="fill:#ff6ea1;fill-opacity:1;stroke:#ff2c76;stroke-width:1;stroke-linecap:round;stroke-opacity:1"/><text id="text10082" style="font-size:14px;font-family:sans-serif;text-anchor:end;fill:#000"><tspan id="tspan10080" x="54.333" y="44.8">+</tspan></text></g></g><g id="g10104" transform="translate(28,198.42154)"><g id="g10102" transform="scale(1.5)"><path id="path10096" d="m 0.5,8.5 v -4 a 4,4 90 0 1 4,-4 h 4 v 2 h 10 v -2 h 20 4 a 4,4 90 0 1 4,4 v 4 4 4 a 4,4 90 0 1 -4,4 h -4 -20 -1 v 2 h -8 v -2 h -1 -4 a 4,4 90 0 1 -4,-4 v -4 z" style="fill:#c4c4c4;fill-opacity:1;stroke:#000;stroke-width:1;stroke-linecap:round;stroke-opacity:1"/><text id="text10100" style="font-size:10px;font-family:sans-serif;text-anchor:end;fill:#000"><tspan id="tspan10098" x="36.333" y="13.5">↓</tspan></text></g></g><g id="g10114" transform="translate(202,166.92154)"><g id="g10112" transform="scale(1.5)"><path id="path10106" d="m 8.5,8.5 v -4 a 4,4 90 0 1 4,-4 h 4 10 9 29.467773 4 a 4,4 90 0 1 4,4 v 4 h -4 v -3 h -4 v 10 h 4 v -3 h 4 v 4 a 4,4 90 0 1 -4,4 h -4 H 35.5 h -4 a 5,5 90 0 0 -5,5 v 4 h -4 v -3 h -4 v 10 h 4 v -3 h 4 v 21 4 a 5,5 90 0 0 5,5 h 4 8 v 6 6 4 a 4,4 90 0 1 -4,4 h -4 -9 -10 -4 a 4,4 90 0 1 -4,-4 v -4 -63 -1 h -6 v 3 h -2 v -8 h 2 v 3 h 6 z" style="fill:#ffbf00;fill-opacity:1;stroke:#daaf30;stroke-width:1;stroke-linecap:round;stroke-opacity:1"/><text id="text10110" style="font-size:10px;font-family:sans-serif;text-anchor:start;fill:#000"><tspan id="tspan10108" x="12" y="15.25">calcular</tspan></text></g></g><g id="g10124" transform="translate(300.20166,166.92154)"><g id="g10122" transform="scale(1.5)"><path id="path10116" d="m 8.5,0.5 h 60 v 20 h -60 v -8 -1 h -6 v 3 h -2 v -8 h 2 v 3 h 6 v -1 z" style="fill:#ff6648;fill-opacity:1;stroke:#ea4326;stroke-width:1;stroke-linecap:round;stroke-opacity:1"/><text id="text10120" style="font-size:10px;font-family:sans-serif;text-anchor:start;fill:#000"><tspan id="tspan10118" x="13.333" y="13.833">fib</tspan></text></g></g><g id="g10134" transform="translate(316,198.42154)"><g id="g10132" transform="scale(1.5)"><path id="path10126" d="m 8.5,0.5 h 70 v 20 h -70 v -8 -1 h -6 v 3 h -2 v -8 h 2 v 3 h 6 v -1 z" style="fill:#ffbf00;fill-opacity:1;stroke:#daaf30;stroke-width:1;stroke-linecap:round;stroke-opacity:1"/><text id="text10130" style="font-size:10px;font-family:sans-serif;text-anchor:start;fill:#000"><tspan id="tspan10128" x="13.333" y="13.833">arg 1</tspan></text></g></g><g id="g10152" transform="translate(230.5,198.42154)"><g id="g10150" transform="scale(1.5)"><path id="path10136" d="m 8.5,8.5 v -4 a 4,4 90 0 1 4,-4 h 4 10 30 4 a 4,4 90 0 1 4,4 v 4 h -4 v -3 h -4 v 10 h 4 v -3 h 4 v 17 h -4 v -3 h -4 v 10 h 4 v -3 h 4 v 4 a 4,4 90 0 1 -4,4 h -4 -30 -10 -4 a 4,4 90 0 1 -4,-4 v -4 -21 -1 h -6 v 3 h -2 v -8 h 2 v 3 h 6 z" style="fill:#ff6ea1;fill-opacity:1;stroke:#ff2c76;stroke-width:1;stroke-linecap:round;stroke-opacity:1"/><text id="text10140" style="font-size:14px;font-family:sans-serif;text-anchor:end;fill:#000"><tspan id="tspan10138" x="54.333" y="23.8">–</tspan></text></g></g><g id="g10162" transform="translate(316,229.92154)"><g id="g10160" transform="scale(1.5)"><path id="path10154" d="m 8.5,0.5 h 60 v 20 h -60 v -8 -1 h -6 v 3 h -2 v -8 h 2 v 3 h 6 v -1 z" style="fill:#ff6ea1;fill-opacity:1;stroke:#ff2c76;stroke-width:1;stroke-linecap:round;stroke-opacity:1"/><text id="text10158" style="font-size:10px;font-family:sans-serif;text-anchor:start;fill:#000"><tspan id="tspan10156" x="13.333" y="13.833">-1</tspan></text></g></g><g id="g10172" transform="translate(202,293.42154)"><g id="g10170" transform="scale(1.5)"><path id="path10164" d="m 8.5,8.5 v -4 a 4,4 90 0 1 4,-4 h 4 10 9 29.467773 4 a 4,4 90 0 1 4,4 v 4 h -4 v -3 h -4 v 10 h 4 v -3 h 4 v 4 a 4,4 90 0 1 -4,4 h -4 H 35.5 h -4 a 5,5 90 0 0 -5,5 v 4 h -4 v -3 h -4 v 10 h 4 v -3 h 4 v 21 4 a 5,5 90 0 0 5,5 h 4 8 v 6 6 4 a 4,4 90 0 1 -4,4 h -4 -9 -10 -4 a 4,4 90 0 1 -4,-4 v -4 -63 -1 h -6 v 3 h -2 v -8 h 2 v 3 h 6 z" style="fill:#ffbf00;fill-opacity:1;stroke:#daaf30;stroke-width:1;stroke-linecap:round;stroke-opacity:1"/><text id="text10168" style="font-size:10px;font-family:sans-serif;text-anchor:start;fill:#000"><tspan id="tspan10166" x="12" y="15.25">calcular</tspan></text></g></g><g id="g10182" transform="translate(300.20166,293.42154)"><g id="g10180" transform="scale(1.5)"><path id="path10174" d="m 8.5,0.5 h 60 v 20 h -60 v -8 -1 h -6 v 3 h -2 v -8 h 2 v 3 h 6 v -1 z" style="fill:#ff6648;fill-opacity:1;stroke:#ea4326;stroke-width:1;stroke-linecap:round;stroke-opacity:1"/><text id="text10178" style="font-size:10px;font-family:sans-serif;text-anchor:start;fill:#000"><tspan id="tspan10176" x="13.333" y="13.833">fib</tspan></text></g></g><g id="g10200" transform="translate(230.5,324.92154)"><g id="g10198" transform="scale(1.5)"><path id="path10184" d="m 8.5,8.5 v -4 a 4,4 90 0 1 4,-4 h 4 10 30 4 a 4,4 90 0 1 4,4 v 4 h -4 v -3 h -4 v 10 h 4 v -3 h 4 v 17 h -4 v -3 h -4 v 10 h 4 v -3 h 4 v 4 a 4,4 90 0 1 -4,4 h -4 -30 -10 -4 a 4,4 90 0 1 -4,-4 v -4 -21 -1 h -6 v 3 h -2 v -8 h 2 v 3 h 6 z" style="fill:#ff6ea1;fill-opacity:1;stroke:#ff2c76;stroke-width:1;stroke-linecap:round;stroke-opacity:1"/><text id="text10188" style="font-size:14px;font-family:sans-serif;text-anchor:end;fill:#000"><tspan id="tspan10186" x="54.333" y="23.8">–</tspan></text></g></g><g id="g10210" transform="translate(316,356.42154)"><g id="g10208" transform="scale(1.5)"><path id="path10202" d="m 8.5,0.5 h 60 v 20 h -60 v -8 -1 h -6 v 3 h -2 v -8 h 2 v 3 h 6 v -1 z" style="fill:#ff6ea1;fill-opacity:1;stroke:#ff2c76;stroke-width:1;stroke-linecap:round;stroke-opacity:1"/><text id="text10206" style="font-size:10px;font-family:sans-serif;text-anchor:start;fill:#000"><tspan id="tspan10204" x="13.333" y="13.833">-2</tspan></text></g></g><g id="g10220" transform="translate(316,324.92154)"><g id="g10218" transform="scale(1.5)"><path id="path10212" d="m 8.5,0.5 h 70 v 20 h -70 v -8 -1 h -6 v 3 h -2 v -8 h 2 v 3 h 6 v -1 z" style="fill:#ffbf00;fill-opacity:1;stroke:#daaf30;stroke-width:1;stroke-linecap:round;stroke-opacity:1"/><text id="text10216" style="font-size:10px;font-family:sans-serif;text-anchor:start;fill:#000"><tspan id="tspan10214" x="13.333" y="13.833">arg 1</tspan></text></g></g><g id="g10230" transform="translate(27,533.42154)"><g id="g10228" transform="scale(1.5)"><path id="path10222" d="m 0.5,8.5 v -4 a 4,4 90 0 1 4,-4 h 4 v 2 h 10 v -2 h 9 20 4 a 4,4 90 0 1 4,4 v 4 h -4 v -3 h -4 v 10 h 4 v -3 h 4 v 4 a 4,4 90 0 1 -4,4 h -4 -20 -4 a 5,5 90 0 0 -5,5 v 4 h -4 v -3 h -4 v 10 h 4 v -3 h 4 v 63 4 a 5,5 90 0 0 5,5 h 4 8 v 6 6 4 a 4,4 90 0 1 -4,4 h -4 -9 -1 v 2 h -8 v -2 h -1 -4 a 4,4 90 0 1 -4,-4 v -4 z" style="fill:#ffbf00;fill-opacity:1;stroke:#daaf30;stroke-width:1;stroke-linecap:round;stroke-opacity:1"/><text id="text10226" style="font-size:10px;font-family:sans-serif;text-anchor:start;fill:#000"><tspan id="tspan10224" x="5.333" y="15.25">fazer</tspan></text></g></g><g id="g10240" transform="translate(99,533.42154)"><g id="g10238" transform="scale(1.5)"><path id="path10232" d="m 8.5,0.5 h 60 v 20 h -60 v -8 -1 h -6 v 3 h -2 v -8 h 2 v 3 h 6 v -1 z" style="fill:#ff6648;fill-opacity:1;stroke:#ea4326;stroke-width:1;stroke-linecap:round;stroke-opacity:1"/><text id="text10236" style="font-size:10px;font-family:sans-serif;text-anchor:start;fill:#000"><tspan id="tspan10234" x="13.333" y="13.833">quadrado</tspan></text></g></g><g id="g10258" transform="translate(43.5,564.92154)"><g id="g10256" transform="scale(1.5)"><path id="path10242" d="m 8.5,8.5 v -4 a 4,4 90 0 1 4,-4 h 4 10 30 4 a 4,4 90 0 1 4,4 v 4 h -4 v -3 h -4 v 10 h 4 v -3 h 4 v 42 17 h -4 v -3 h -4 v 10 h 4 v -3 h 4 v 4 a 4,4 90 0 1 -4,4 h -4 -30 -10 -4 a 4,4 90 0 1 -4,-4 v -4 -42 -21 -1 h -6 v 3 h -2 v -8 h 2 v 3 h 6 z" style="fill:#ff6ea1;fill-opacity:1;stroke:#ff2c76;stroke-width:1;stroke-linecap:round;stroke-opacity:1"/><text id="text10246" style="font-size:14px;font-family:sans-serif;text-anchor:end;fill:#000"><tspan id="tspan10244" x="54.333" y="44.8">×</tspan></text></g></g><g id="g10268" transform="translate(129,659.42154)"><g id="g10266" transform="scale(1.5)"><path id="path10260" d="m 8.5,0.5 h 60 v 20 h -60 v -8 -1 h -6 v 3 h -2 v -8 h 2 v 3 h 6 v -1 z" style="fill:#ff6ea1;fill-opacity:1;stroke:#ff2c76;stroke-width:1;stroke-linecap:round;stroke-opacity:1"/><text id="text10264" style="font-size:10px;font-family:sans-serif;text-anchor:start;fill:#000"><tspan id="tspan10262" x="13.333" y="13.833">20</tspan></text></g></g><g id="g10278" transform="translate(129,564.92154)"><g id="g10276" transform="scale(1.5)"><path id="path10270" d="m 8.5,8.5 v -4 a 4,4 90 0 1 4,-4 h 4 10 9 29.467773 4 a 4,4 90 0 1 4,4 v 4 h -4 v -3 h -4 v 10 h 4 v -3 h 4 v 4 a 4,4 90 0 1 -4,4 h -4 H 35.5 h -4 a 5,5 90 0 0 -5,5 v 4 h -4 v -3 h -4 v 10 h 4 v -3 h 4 v 4 a 5,5 90 0 0 5,5 h 4 8 v 6 6 4 a 4,4 90 0 1 -4,4 h -4 -9 -10 -4 a 4,4 90 0 1 -4,-4 v -4 -42 -1 h -6 v 3 h -2 v -8 h 2 v 3 h 6 z" style="fill:#ffbf00;fill-opacity:1;stroke:#daaf30;stroke-width:1;stroke-linecap:round;stroke-opacity:1"/><text id="text10274" style="font-size:10px;font-family:sans-serif;text-anchor:start;fill:#000"><tspan id="tspan10272" x="12" y="15.25">calcular</tspan></text></g></g><g id="g10288" transform="translate(227.20166,564.92154)"><g id="g10286" transform="scale(1.5)"><path id="path10280" d="m 8.5,0.5 h 60 v 20 h -60 v -8 -1 h -6 v 3 h -2 v -8 h 2 v 3 h 6 v -1 z" style="fill:#ff6648;fill-opacity:1;stroke:#ea4326;stroke-width:1;stroke-linecap:round;stroke-opacity:1"/><text id="text10284" style="font-size:10px;font-family:sans-serif;text-anchor:start;fill:#000"><tspan id="tspan10282" x="13.333" y="13.833">fib</tspan></text></g></g><g id="g10298" transform="translate(157.5,596.42154)"><g id="g10296" transform="scale(1.5)"><path id="path10290" d="m 8.5,0.5 h 80 v 20 h -80 v -8 -1 h -6 v 3 h -2 v -8 h 2 v 3 h 6 v -1 z" style="fill:#fe994f;fill-opacity:1;stroke:#e8680e;stroke-width:1;stroke-linecap:round;stroke-opacity:1"/><text id="text10294" style="font-size:10px;font-family:sans-serif;text-anchor:start;fill:#000"><tspan id="tspan10292" x="13.333" y="13.833">caixa</tspan></text></g></g><g id="g10316" transform="translate(33,722.42154)"><g id="g10314" transform="scale(1.5)"><path id="path10300" d="m -3.5,8.5 v -4 c 0,-2.209139 1.790861,-4 4,-4 h 4 v 2 h 10 v -2 h 34 4 c 2.209139,0 4,1.790861 4,4 v 4 h -4 v -3 h -4 v 10 h 4 v -3 h 4 v 17 h -4 v -3 h -4 v 10 h 4 v -3 h 4 v 4 c 0,2.209139 -1.790861,4 -4,4 h -4 -34 -1 v 2 h -8 v -2 h -1 -4 c -2.209139,0 -4,-1.790861 -4,-4 v -4 -21 z" style="fill:#fe994f;fill-opacity:1;stroke:#e8680e;stroke-width:1;stroke-linecap:round;stroke-opacity:1"/><text id="text10304" style="font-size:10px;font-family:sans-serif;text-anchor:end;fill:#000"><tspan id="tspan10302" x="46.333" y="24">adicionar</tspan></text><text id="text10308" style="font-size:6.66666651px;font-family:sans-serif;text-anchor:end;fill:#000"><tspan id="tspan10306" x="46.333" y="11.25">à</tspan></text><text id="text10312" style="font-size:6.66666651px;font-family:sans-serif;text-anchor:end;fill:#000"><tspan id="tspan10310" x="46.333" y="32.25">valor</tspan></text></g></g><g id="g10326" transform="translate(106.5,722.42154)"><g id="g10324" transform="scale(1.5)"><path id="path10318" d="m 8.5,0.5 h 80 v 20 h -80 v -8 -1 h -6 v 3 h -2 v -8 h 2 v 3 h 6 v -1 z" style="fill:#fe994f;fill-opacity:1;stroke:#e8680e;stroke-width:1;stroke-linecap:round;stroke-opacity:1"/><text id="text10322" style="font-size:10px;font-family:sans-serif;text-anchor:start;fill:#000"><tspan id="tspan10320" x="13.333" y="13.833">caixa</tspan></text></g></g><g id="g10336" transform="translate(106.5,753.92154)"><g id="g10334" transform="scale(1.5)"><path id="path10328" d="m 8.5,0.5 h 60 v 20 h -60 v -8 -1 h -6 v 3 h -2 v -8 h 2 v 3 h 6 v -1 z" style="fill:#ff6ea1;fill-opacity:1;stroke:#ff2c76;stroke-width:1;stroke-linecap:round;stroke-opacity:1"/><text id="text10332" style="font-size:10px;font-family:sans-serif;text-anchor:start;fill:#000"><tspan id="tspan10330" x="13.333" y="13.833">1</tspan></text></g></g></svg>