<svg xmlns="http://www.w3.org/2000/svg" xmlns:svg="http://www.w3.org/2000/svg" id="svg4075" width="505.313" height="815.009" version="1.1" viewBox="0 0 505.313 815.009"><metadata id="metadata4080"/><g id="g3282" transform="translate(2149.5236,-334.10172)"><g id="g1201" transform="matrix(0.93750003,0,0,0.93750003,-1821.3986,334.49691)"><g id="g1199" transform="scale(1.5)"><path id="path1193" d="m 0.5,14.5 v -4 a 4,4 90 0 1 4,-4 h 4 l 5,-6 5,6 h 9 30 4 a 4,4 90 0 1 4,4 v 4 4 4 a 4,4 90 0 1 -4,4 h -4 -30 -1 v 2 h -8 v -2 h -1 -4 a 5,5 90 0 0 -5,5 v 4 4 42 4 a 5,5 90 0 0 5,5 h 4 v 2 h 10 v -2 h 8 v 6 6 4 a 4,4 90 0 1 -4,4 h -4 -9 l -5,6 -5,-6 h -4 a 4,4 90 0 1 -4,-4 v -4 z" style="fill:#ffbf00;fill-opacity:1;stroke:#daaf30;stroke-width:1;stroke-linecap:round;stroke-opacity:1"/><text id="text1197" style="font-size:10px;font-family:sans-serif;text-anchor:start;fill:#000"><tspan id="tspan1195" x="5.333" y="21.5">iniciar</tspan></text></g></g><g id="g1211" transform="matrix(0.93750003,0,0,0.93750003,-1796.0861,401.99691)"><g id="g1209" transform="scale(1.5)"><path id="path1203" d="m 0.5,8.5 v -4 a 4,4 90 0 1 4,-4 h 4 v 2 h 10 v -2 h 40 4 a 4,4 90 0 1 4,4 v 4 4 4 a 4,4 90 0 1 -4,4 h -4 -40 -1 v 2 h -8 v -2 h -1 -4 a 4,4 90 0 1 -4,-4 v -4 z" style="fill:#ffbf00;fill-opacity:1;stroke:#daaf30;stroke-width:1;stroke-linecap:round;stroke-opacity:1"/><text id="text1207" style="font-size:10px;font-family:sans-serif;text-anchor:end;fill:#000"><tspan id="tspan1205" x="56.333" y="13.5">chunk</tspan></text></g></g><g id="g1225" transform="matrix(0.93750003,0,0,0.93750003,-1808.7423,372.46566)"><g id="g1223" transform="scale(1.5)"><path id="path1213" d="m 0.5,8.5 v -4 a 4,4 90 0 1 4,-4 h 4 v 2 h 10 v -2 h 9 20 4 a 4,4 90 0 1 4,4 v 4 h -4 v -3 h -4 v 10 h 4 v -3 h 4 v 4 a 4,4 90 0 1 -4,4 h -4 -20 -1 v 2 h -8 v -2 h -1 -4 a 5,5 90 0 0 -5,5 v 4 4 4 a 5,5 90 0 0 5,5 h 4 v 2 h 10 v -2 h 8 v 6 6 4 a 4,4 90 0 1 -4,4 h -4 -9 -1 v 2 h -8 v -2 h -1 -4 a 4,4 90 0 1 -4,-4 v -4 z" style="fill:#e9a066;fill-opacity:1;stroke:#b7651a;stroke-width:1;stroke-linecap:round;stroke-opacity:1"/><text id="text1217" style="font-size:10px;font-family:sans-serif;text-anchor:start;fill:#000"><tspan id="tspan1215" x="5.333" y="15.25">repetir</tspan></text></g></g><g id="g1235" transform="matrix(0.93750003,0,0,0.93750003,-1741.2423,372.46566)"><g id="g1233" transform="scale(1.5)"><path id="path1227" d="m 8.5,0.5 h 60 v 20 h -60 v -8 -1 h -6 v 3 h -2 v -8 h 2 v 3 h 6 v -1 z" style="fill:#ff6ea1;fill-opacity:1;stroke:#ff2c76;stroke-width:1;stroke-linecap:round;stroke-opacity:1"/><text id="text1231" style="font-size:10px;font-family:sans-serif;text-anchor:start;fill:#000"><tspan id="tspan1229" x="13.333" y="13.833">4</tspan></text></g></g></g><g id="g995" transform="matrix(0.93750003,0,0,0.93750003,0,0.39519)"><g id="g993" transform="scale(1.5)"><path style="fill:#ffbf00;fill-opacity:1;stroke:#daaf30;stroke-width:1;stroke-linecap:round;stroke-opacity:1" id="path983" d="m 0.5,14.5 v -4 a 4,4 90 0 1 4,-4 h 4 l 5,-6 5,6 h 9 35 4 a 4,4 90 0 1 4,4 v 4 h -4 v -3 h -4 v 10 h 4 v -3 h 4 v 4 a 4,4 90 0 1 -4,4 h -4 -35 -1 v 2 h -8 v -2 h -1 -4 a 5,5 90 0 0 -5,5 v 4 4 504 4 a 5,5 90 0 0 5,5 h 4 v 2 h 10 v -2 h 8 v 6 6 4 a 4,4 90 0 1 -4,4 h -4 -9 l -5,6 -5,-6 h -4 a 4,4 90 0 1 -4,-4 v -4 z"/><text style="font-size:10px;font-family:sans-serif;text-anchor:start;fill:#000" id="text987"><tspan id="tspan985" x="5.333" y="21.5">ação</tspan></text></g></g><g id="g1005" transform="matrix(0.93750003,0,0,0.93750003,88.5937,8.83269)"><g id="g1003" transform="scale(1.5)"><path style="fill:#ff6648;fill-opacity:1;stroke:#ea4326;stroke-width:1;stroke-linecap:round;stroke-opacity:1" id="path997" d="m 8.5,0.5 h 60 v 20 h -60 v -8 -1 h -6 v 3 h -2 v -8 h 2 v 3 h 6 v -1 z"/><text style="font-size:10px;font-family:sans-serif;text-anchor:start;fill:#000" id="text1001"><tspan id="tspan999" x="13.333" y="13.833">chunk</tspan></text></g></g><g id="g1019" transform="matrix(0.93750003,0,0,0.93750003,12.6562,38.36394)"><g id="g1017" transform="scale(1.5)"><path style="fill:#fe994f;fill-opacity:1;stroke:#e8680e;stroke-width:1;stroke-linecap:round;stroke-opacity:1" id="path1007" d="m 0.5,8.5 v -4 c 0,-2.209139 1.790861,-4 4,-4 h 4 v 2 h 10 v -2 h 9 46.103016 4 c 2.209139,0 4,1.790861 4,4 v 4 h -4 v -3 h -4 v 10 h 4 v -3 h 4 v 4 c 0,2.209139 -1.790861,4 -4,4 h -4 H 27.5 h -1 v 2 h -8 v -2 h -1 -4 c -2.761424,0 -5,2.238576 -5,5 v 4 4 63 4 c 0,2.76142 2.238576,5 5,5 h 4 v 2 h 10 v -2 h 8 v 6 6 4 c 0,2.20914 -1.790861,4 -4,4 h -4 -9 -1 v 2 h -8 v -2 h -1 -4 c -2.209139,0 -4,-1.79086 -4,-4 v -4 z"/><text style="font-size:10px;font-family:sans-serif;text-anchor:start;fill:#000" id="text1011"><tspan id="tspan1009" x="5.333" y="15.25">valor de nota</tspan></text></g></g><g id="g1029" transform="matrix(0.93750003,0,0,0.93750003,197.0198,67.89519)"><g id="g1027" transform="scale(1.5)"><path style="fill:#ff6ea1;fill-opacity:1;stroke:#ff2c76;stroke-width:1;stroke-linecap:round;stroke-opacity:1" id="path1021" d="m 8.5,0.5 h 60 v 20 h -60 v -8 -1 h -6 v 3 h -2 v -8 h 2 v 3 h 6 v -1 z"/><text style="font-size:10px;font-family:sans-serif;text-anchor:start;fill:#000" id="text1025"><tspan id="tspan1023" x="13.333" y="13.833">4</tspan></text></g></g><g id="g1047" transform="matrix(0.93750003,0,0,0.93750003,89.3125,97.42644)"><g id="g1045" transform="scale(1.5)"><path style="fill:#7cd622;fill-opacity:1;stroke:#57ad02;stroke-width:1;stroke-linecap:round;stroke-opacity:1" id="path1031" d="m -45.01111,8.5 v -4 c 0,-2.209139 1.790861,-4 4,-4 h 4 v 2 h 10 v -2 H 48.5 h 4 c 2.209139,0 4,1.790861 4,4 v 4 h -4 v -3 h -4 v 10 h 4 v -3 h 4 v 17 h -4 v -3 h -4 v 10 h 4 v -3 h 4 v 4 c 0,2.209139 -1.790861,4 -4,4 h -4 -75.51111 -1 v 2 h -8 v -2 h -1 -4 c -2.209139,0 -4.740083,-1.918517 -4,-4 v -4 -21 z"/><text style="font-size:10px;font-family:sans-serif;text-anchor:end;fill:#000" id="text1035"><tspan id="tspan1033" x="46.333" y="24">determinar o tom</tspan></text><text style="font-size:6.66666651px;font-family:sans-serif;text-anchor:end;fill:#000" id="text1039"><tspan id="tspan1037" x="46.333" y="11.25">nome</tspan></text><text style="font-size:6.66666651px;font-family:sans-serif;text-anchor:end;fill:#000" id="text1043"><tspan id="tspan1041" x="46.333" y="32.25">oitava</tspan></text></g></g><g id="g1057" transform="matrix(0.93750003,0,0,0.93750003,158.2187,97.42644)"><g id="g1055" transform="scale(1.5)"><path style="fill:#7cd622;fill-opacity:1;stroke:#57ad02;stroke-width:1;stroke-linecap:round;stroke-opacity:1" id="path1049" d="m 8.5,0.5 h 60 v 20 h -60 v -8 -1 h -6 v 3 h -2 v -8 h 2 v 3 h 6 v -1 z"/><text style="font-size:10px;font-family:sans-serif;text-anchor:start;fill:#000" id="text1053"><tspan id="tspan1051" x="13.333" y="13.833">re</tspan></text></g></g><g id="g1067" transform="matrix(0.93750003,0,0,0.93750003,158.2187,126.95769)"><g id="g1065" transform="scale(1.5)"><path style="fill:#ff6ea1;fill-opacity:1;stroke:#ff2c76;stroke-width:1;stroke-linecap:round;stroke-opacity:1" id="path1059" d="m 8.5,0.5 h 60 v 20 h -60 v -8 -1 h -6 v 3 h -2 v -8 h 2 v 3 h 6 v -1 z"/><text style="font-size:10px;font-family:sans-serif;text-anchor:start;fill:#000" id="text1063"><tspan id="tspan1061" x="13.333" y="13.833">4</tspan></text></g></g><g id="g1081" transform="matrix(0.93750003,0,0,0.93750003,12.6562,274.61394)"><g id="g1079" transform="scale(1.5)"><path style="fill:#fe994f;fill-opacity:1;stroke:#e8680e;stroke-width:1;stroke-linecap:round;stroke-opacity:1" id="path1069" d="m 0.5,8.5 v -4 c 0,-2.209139 1.790861,-4 4,-4 h 4 v 2 h 10 v -2 h 9 46.103016 4 c 2.209139,0 4.740083,1.9185168 4,4 v 4 h -4 v -3 h -4 v 10 h 4 v -3 h 4 v 4 c 0,2.209139 -1.790861,4 -4,4 h -4 H 27.5 h -1 v 2 h -8 v -2 h -1 -4 c -2.761424,0 -5,2.238576 -5,5 v 4 4 63 4 c 0,2.76142 2.238576,5 5,5 h 4 v 2 h 10 v -2 h 8 v 6 6 4 c 0,2.20914 -1.790861,4 -4,4 h -4 -9 -1 v 2 h -8 v -2 h -1 -4 c -2.209139,0 -4,-1.79086 -4,-4 v -4 z"/><text style="font-size:10px;font-family:sans-serif;text-anchor:start;fill:#000" id="text1073"><tspan id="tspan1071" x="5.333" y="15.25">valor de nota</tspan></text></g></g><g id="g1091" transform="matrix(0.93750003,0,0,0.93750003,197.0198,304.14519)"><g id="g1089" transform="scale(1.5)"><path style="fill:#ff6ea1;fill-opacity:1;stroke:#ff2c76;stroke-width:1;stroke-linecap:round;stroke-opacity:1" id="path1083" d="m 8.5,0.5 h 60 v 20 h -60 v -8 -1 h -6 v 3 h -2 v -8 h 2 v 3 h 6 v -1 z"/><text style="font-size:10px;font-family:sans-serif;text-anchor:start;fill:#000" id="text1087"><tspan id="tspan1085" x="13.333" y="13.833">4</tspan></text></g></g><g id="g1109" transform="matrix(0.93750003,0,0,0.93750003,89.3125,333.67645)"><g id="g1107" transform="scale(1.5)"><path style="fill:#7cd622;fill-opacity:1;stroke:#57ad02;stroke-width:1;stroke-linecap:round;stroke-opacity:1" id="path1093" d="m -45.01111,8.5 v -4 c 0,-2.209139 1.790861,-4 4,-4 h 4 v 2 h 10 v -2 H 48.5 h 4 c 2.209139,0 4,1.790861 4,4 v 4 h -4 v -3 h -4 v 10 h 4 v -3 h 4 v 17 h -4 v -3 h -4 v 10 h 4 v -3 h 4 v 4 c 0,2.209139 -1.790861,4 -4,4 h -4 -75.51111 -1 v 2 h -8 v -2 h -1 -4 c -2.209139,0 -4,-1.790861 -4,-4 v -4 -21 z"/><text style="font-size:10px;font-family:sans-serif;text-anchor:end;fill:#000" id="text1097"><tspan id="tspan1095" x="46.333" y="24">determinar o tom</tspan></text><text style="font-size:6.66666651px;font-family:sans-serif;text-anchor:end;fill:#000" id="text1101"><tspan id="tspan1099" x="46.333" y="11.25">nome</tspan></text><text style="font-size:6.66666651px;font-family:sans-serif;text-anchor:end;fill:#000" id="text1105"><tspan id="tspan1103" x="46.333" y="32.25">oitava</tspan></text></g></g><g id="g1119" transform="matrix(0.93750003,0,0,0.93750003,158.2187,333.67645)"><g id="g1117" transform="scale(1.5)"><path style="fill:#7cd622;fill-opacity:1;stroke:#57ad02;stroke-width:1;stroke-linecap:round;stroke-opacity:1" id="path1111" d="m 8.5,0.5 h 60 v 20 h -60 v -8 -1 h -6 v 3 h -2 v -8 h 2 v 3 h 6 v -1 z"/><text style="font-size:10px;font-family:sans-serif;text-anchor:start;fill:#000" id="text1115"><tspan id="tspan1113" x="13.333" y="13.833">mi</tspan></text></g></g><g id="g1129" transform="matrix(0.93750003,0,0,0.93750003,158.2187,363.2077)"><g id="g1127" transform="scale(1.5)"><path style="fill:#ff6ea1;fill-opacity:1;stroke:#ff2c76;stroke-width:1;stroke-linecap:round;stroke-opacity:1" id="path1121" d="m 8.5,0.5 h 60 v 20 h -60 v -8 -1 h -6 v 3 h -2 v -8 h 2 v 3 h 6 v -1 z"/><text style="font-size:10px;font-family:sans-serif;text-anchor:start;fill:#000" id="text1125"><tspan id="tspan1123" x="13.333" y="13.833">4</tspan></text></g></g><g id="g1143" transform="matrix(0.93750003,0,0,0.93750003,12.6562,510.86395)"><g id="g1141" transform="scale(1.5)"><path style="fill:#fe994f;fill-opacity:1;stroke:#e8680e;stroke-width:1;stroke-linecap:round;stroke-opacity:1" id="path1131" d="m 0.5,8.5 v -4 c 0,-2.209139 1.790861,-4 4,-4 h 4 v 2 h 10 v -2 h 9 46.103016 4 c 2.209139,0 4.740083,1.9185168 4,4 v 4 h -4 v -3 h -4 v 10 h 4 v -3 h 4 v 4 c 0,2.209139 -1.790861,4 -4,4 h -4 H 27.5 h -1 v 2 h -8 v -2 h -1 -4 c -2.761424,0 -5,2.238576 -5,5 v 4 4 84 4 c 0,2.76142 2.238576,5 5,5 h 4 v 2 h 10 v -2 h 8 v 6 6 4 c 0,2.20914 -1.790861,4 -4,4 h -4 -9 -1 v 2 h -8 v -2 h -1 -4 c -2.209139,0 -4,-1.79086 -4,-4 v -4 z"/><text style="font-size:10px;font-family:sans-serif;text-anchor:start;fill:#000" id="text1135"><tspan id="tspan1133" x="5.333" y="15.25">valor de nota</tspan></text></g></g><g id="g1153" transform="matrix(0.93750003,0,0,0.93750003,197.0198,540.3952)"><g id="g1151" transform="scale(1.5)"><path style="fill:#ff6ea1;fill-opacity:1;stroke:#ff2c76;stroke-width:1;stroke-linecap:round;stroke-opacity:1" id="path1145" d="m 8.5,0.5 h 60 v 20 h -60 v -8 -1 h -6 v 3 h -2 v -8 h 2 v 3 h 6 v -1 z"/><text style="font-size:10px;font-family:sans-serif;text-anchor:start;fill:#000" id="text1149"><tspan id="tspan1147" x="13.333" y="13.833">2</tspan></text></g></g><g id="g1171" transform="matrix(0.93750003,0,0,0.93750003,89.3125,569.92645)"><g id="g1169" transform="scale(1.5)"><path style="fill:#7cd622;fill-opacity:1;stroke:#57ad02;stroke-width:1;stroke-linecap:round;stroke-opacity:1" id="path1155" d="m -45.01111,8.5 v -4 c 0,-2.209139 1.790861,-4 4,-4 h 4 v 2 h 10 v -2 H 48.5 h 4 c 2.209139,0 4,1.790861 4,4 v 4 h -4 v -3 h -4 v 10 h 4 v -3 h 4 v 17 h -4 v -3 h -4 v 10 h 4 v -3 h 4 v 4 c 0,2.209139 -1.790861,4 -4,4 h -4 -75.51111 -1 v 2 h -8 v -2 h -1 -4 c -2.209139,0 -4.740083,-1.918517 -4,-4 v -4 -21 z"/><text style="font-size:10px;font-family:sans-serif;text-anchor:end;fill:#000" id="text1159"><tspan id="tspan1157" x="46.333" y="24">determinar o tom</tspan></text><text style="font-size:6.66666651px;font-family:sans-serif;text-anchor:end;fill:#000" id="text1163"><tspan id="tspan1161" x="46.333" y="11.25">nome</tspan></text><text style="font-size:6.66666651px;font-family:sans-serif;text-anchor:end;fill:#000" id="text1167"><tspan id="tspan1165" x="46.333" y="32.25">oitava</tspan></text></g></g><g id="g1181" transform="matrix(0.93750003,0,0,0.93750003,158.2187,569.92645)"><g id="g1179" transform="scale(1.5)"><path style="fill:#7cd622;fill-opacity:1;stroke:#57ad02;stroke-width:1;stroke-linecap:round;stroke-opacity:1" id="path1173" d="m 8.5,0.5 h 60 v 20 h -60 v -8 -1 h -6 v 3 h -2 v -8 h 2 v 3 h 6 v -1 z"/><text style="font-size:10px;font-family:sans-serif;text-anchor:start;fill:#000" id="text1177"><tspan id="tspan1175" x="13.333" y="13.833">fazer</tspan></text></g></g><g id="g1191" transform="matrix(0.93750003,0,0,0.93750003,158.2187,599.4577)"><g id="g1189" transform="scale(1.5)"><path style="fill:#ff6ea1;fill-opacity:1;stroke:#ff2c76;stroke-width:1;stroke-linecap:round;stroke-opacity:1" id="path1183" d="m 8.5,0.5 h 60 v 20 h -60 v -8 -1 h -6 v 3 h -2 v -8 h 2 v 3 h 6 v -1 z"/><text style="font-size:10px;font-family:sans-serif;text-anchor:start;fill:#000" id="text1187"><tspan id="tspan1185" x="13.333" y="13.833">4</tspan></text></g></g><g id="g1249" transform="matrix(0.93750003,0,0,0.93750003,37.3125,392.73895)"><g id="g1247" transform="scale(1.5)"><path style="fill:#92a9ff;fill-opacity:1;stroke:#5370dc;stroke-width:1;stroke-linecap:round;stroke-opacity:1" id="path1237" d="m -8.0333331,8.5 v -4 c 0,-2.209139 1.790861,-4 4,-4 h 4.00000004 v 2 H 9.9666669 v -2 h 41.8780601 4 c 2.209139,0 4,1.790861 4,4 v 4 h -4 v -3 h -4 v 10 h 4 v -3 h 4 v 4 c 0,2.209139 -1.790861,4 -4,4 h -4 -41.8780601 -1 v 2 H 0.96666694 v -2 h -1 -4.00000004 c -2.209139,0 -3.2599171,-1.918517 -4,-4 v -4 z"/><text style="font-size:10px;font-family:sans-serif;text-anchor:end;fill:#000" id="text1241"><tspan id="tspan1239" x="49.678" y="13.5">para frente</tspan></text></g></g><g id="g1259" transform="matrix(0.93750003,0,0,0.93750003,110.9222,392.73895)"><g id="g1257" transform="scale(1.5)"><path style="fill:#ff6ea1;fill-opacity:1;stroke:#ff2c76;stroke-width:1;stroke-linecap:round;stroke-opacity:1" id="path1251" d="m 8.5,0.5 h 60 v 20 h -60 v -8 -1 h -6 v 3 h -2 v -8 h 2 v 3 h 6 v -1 z"/><text style="font-size:10px;font-family:sans-serif;text-anchor:start;fill:#000" id="text1255"><tspan id="tspan1253" x="13.333" y="13.833">100</tspan></text></g></g><g id="g1273" transform="matrix(0.93750003,0,0,0.93750003,37.3125,156.48894)"><g id="g1271" transform="scale(1.5)"><path style="fill:#92a9ff;fill-opacity:1;stroke:#5370dc;stroke-width:1;stroke-linecap:round;stroke-opacity:1" id="path1261" d="m -8.0333331,8.5 v -4 c 0,-2.209139 1.790861,-4 4,-4 h 4.00000004 v 2 H 9.9666669 v -2 h 41.8780601 4 c 2.209139,0 4,1.790861 4,4 v 4 h -4 v -3 h -4 v 10 h 4 v -3 h 4 v 4 c 0,2.209139 -1.790861,4 -4,4 h -4 -41.8780601 -1 v 2 H 0.96666694 v -2 h -1 -4.00000004 c -2.209139,0 -4.7400829,-1.918517 -4,-4 v -4 z"/><text style="font-size:10px;font-family:sans-serif;text-anchor:end;fill:#000" id="text1265"><tspan id="tspan1263" x="49.678" y="13.5">para frente</tspan></text></g></g><g id="g1283" transform="matrix(0.93750003,0,0,0.93750003,110.9222,156.48894)"><g id="g1281" transform="scale(1.5)"><path style="fill:#ff6ea1;fill-opacity:1;stroke:#ff2c76;stroke-width:1;stroke-linecap:round;stroke-opacity:1" id="path1275" d="m 8.5,0.5 h 60 v 20 h -60 v -8 -1 h -6 v 3 h -2 v -8 h 2 v 3 h 6 v -1 z"/><text style="font-size:10px;font-family:sans-serif;text-anchor:start;fill:#000" id="text1279"><tspan id="tspan1277" x="13.333" y="13.833">100</tspan></text></g></g><g id="g1297" transform="matrix(0.93750003,0,0,0.93750003,25.3125,628.98896)"><g id="g1295" transform="scale(1.5)"><path style="fill:#92a9ff;fill-opacity:1;stroke:#5370dc;stroke-width:1;stroke-linecap:round;stroke-opacity:1" id="path1285" d="m 0.5,8.5 v -4 a 4,4 90 0 1 4,-4 h 4 v 2 h 10 v -2 h 30 4 a 4,4 90 0 1 4,4 v 4 h -4 v -3 h -4 v 10 h 4 v -3 h 4 v 4 a 4,4 90 0 1 -4,4 h -4 -30 -1 v 2 h -8 v -2 h -1 -4 a 4,4 90 0 1 -4,-4 v -4 z"/><text style="font-size:10px;font-family:sans-serif;text-anchor:end;fill:#000" id="text1289"><tspan id="tspan1287" x="46.333" y="13.5">voltar</tspan></text></g></g><g id="g1307" transform="matrix(0.93750003,0,0,0.93750003,94.2187,628.98896)"><g id="g1305" transform="scale(1.5)"><path style="fill:#ff6ea1;fill-opacity:1;stroke:#ff2c76;stroke-width:1;stroke-linecap:round;stroke-opacity:1" id="path1299" d="m 8.5,0.5 h 60 v 20 h -60 v -8 -1 h -6 v 3 h -2 v -8 h 2 v 3 h 6 v -1 z"/><text style="font-size:10px;font-family:sans-serif;text-anchor:start;fill:#000" id="text1303"><tspan id="tspan1301" x="13.333" y="13.833">200</tspan></text></g></g><g id="g1321" transform="matrix(0.93750003,0,0,0.93750003,25.3125,658.52021)"><g id="g1319" transform="scale(1.5)"><path style="fill:#92a9ff;fill-opacity:1;stroke:#5370dc;stroke-width:1;stroke-linecap:round;stroke-opacity:1" id="path1309" d="m 0.5,8.5 v -4 a 4,4 90 0 1 4,-4 h 4 v 2 h 10 v -2 h 30 4 a 4,4 90 0 1 4,4 v 4 h -4 v -3 h -4 v 10 h 4 v -3 h 4 v 4 a 4,4 90 0 1 -4,4 h -4 -30 -1 v 2 h -8 v -2 h -1 -4 a 4,4 90 0 1 -4,-4 v -4 z"/><text style="font-size:10px;font-family:sans-serif;text-anchor:end;fill:#000" id="text1313"><tspan id="tspan1311" x="46.333" y="13.5">direita</tspan></text></g></g><g id="g1331" transform="matrix(0.93750003,0,0,0.93750003,94.2187,658.52021)"><g id="g1329" transform="scale(1.5)"><path style="fill:#ff6ea1;fill-opacity:1;stroke:#ff2c76;stroke-width:1;stroke-linecap:round;stroke-opacity:1" id="path1323" d="m 8.5,0.5 h 60 v 20 h -60 v -8 -1 h -6 v 3 h -2 v -8 h 2 v 3 h 6 v -1 z"/><text style="font-size:10px;font-family:sans-serif;text-anchor:start;fill:#000" id="text1327"><tspan id="tspan1325" x="13.333" y="13.833">90</tspan></text></g></g><g id="g1341" transform="matrix(0.93750003,0,0,0.93750003,87.5625,215.55144)"><g id="g1339" transform="scale(1.5)"><path style="fill:#3edcdd;fill-opacity:1;stroke:#000;stroke-width:1;stroke-linecap:round;stroke-opacity:1" id="path1333" d="m 8.5,0.5 h 70 v 20 h -70 v -8 -1 h -6 v 3 h -2 v -8 h 2 v 3 h 6 v -1 z"/><text style="font-size:10px;font-family:sans-serif;text-anchor:start;fill:#000" id="text1337"><tspan id="tspan1335" x="13.333" y="13.833">cor</tspan></text></g></g><g id="g1351" transform="matrix(0.93750003,0,0,0.93750003,87.5625,245.08269)"><g id="g1349" transform="scale(1.5)"><path style="fill:#ff6ea1;fill-opacity:1;stroke:#ff2c76;stroke-width:1;stroke-linecap:round;stroke-opacity:1" id="path1343" d="m 8.5,0.5 h 60 v 20 h -60 v -8 -1 h -6 v 3 h -2 v -8 h 2 v 3 h 6 v -1 z"/><text style="font-size:10px;font-family:sans-serif;text-anchor:start;fill:#000" id="text1347"><tspan id="tspan1345" x="13.333" y="13.833">8</tspan></text></g></g><g id="g1361" transform="matrix(0.93750003,0,0,0.93750003,87.5625,451.80145)"><g id="g1359" transform="scale(1.5)"><path style="fill:#3edcdd;fill-opacity:1;stroke:#000;stroke-width:1;stroke-linecap:round;stroke-opacity:1" id="path1353" d="m 8.5,0.5 h 70 v 20 h -70 v -8 -1 h -6 v 3 h -2 v -8 h 2 v 3 h 6 v -1 z"/><text style="font-size:10px;font-family:sans-serif;text-anchor:start;fill:#000" id="text1357"><tspan id="tspan1355" x="13.333" y="13.833">cor</tspan></text></g></g><g id="g1371" transform="matrix(0.93750003,0,0,0.93750003,87.5625,481.3327)"><g id="g1369" transform="scale(1.5)"><path style="fill:#ff6ea1;fill-opacity:1;stroke:#ff2c76;stroke-width:1;stroke-linecap:round;stroke-opacity:1" id="path1363" d="m 8.5,0.5 h 60 v 20 h -60 v -8 -1 h -6 v 3 h -2 v -8 h 2 v 3 h 6 v -1 z"/><text style="font-size:10px;font-family:sans-serif;text-anchor:start;fill:#000" id="text1367"><tspan id="tspan1365" x="13.333" y="13.833">8</tspan></text></g></g><g id="g1381" transform="matrix(0.93750003,0,0,0.93750003,81.5625,717.58268)"><g id="g1379" transform="scale(1.5)"><path style="fill:#3edcdd;fill-opacity:1;stroke:#000;stroke-width:1;stroke-linecap:round;stroke-opacity:1" id="path1373" d="m 8.5,0.5 h 70 v 20 h -70 v -8 -1 h -6 v 3 h -2 v -8 h 2 v 3 h 6 v -1 z"/><text style="font-size:10px;font-family:sans-serif;text-anchor:start;fill:#000" id="text1377"><tspan id="tspan1375" x="13.333" y="13.833">cor</tspan></text></g></g><g id="g1391" transform="matrix(0.93750003,0,0,0.93750003,81.5625,747.11398)"><g id="g1389" transform="scale(1.5)"><path style="fill:#ff6ea1;fill-opacity:1;stroke:#ff2c76;stroke-width:1;stroke-linecap:round;stroke-opacity:1" id="path1383" d="m 8.5,0.5 h 60 v 20 h -60 v -8 -1 h -6 v 3 h -2 v -8 h 2 v 3 h 6 v -1 z"/><text style="font-size:10px;font-family:sans-serif;text-anchor:start;fill:#000" id="text1387"><tspan id="tspan1385" x="13.333" y="13.833">8</tspan></text></g></g><g id="g1409" transform="matrix(0.93750003,0,0,0.93750003,18.6562,215.55144)"><g id="g1407" transform="scale(1.5)"><path style="fill:#fe994f;fill-opacity:1;stroke:#e8680e;stroke-width:1;stroke-linecap:round;stroke-opacity:1" id="path1393" d="m -3.7666665,8.5 v -4 c 0,-2.209139 1.790861,-4 3.99999997,-4 H 4.2333335 v 2 h 9.9999995 v -2 H 48.5 h 4 c 2.209139,0 4,1.790861 4,4 v 4 h -4 v -3 h -4 v 10 h 4 v -3 h 4 v 17 h -4 v -3 h -4 v 10 h 4 v -3 h 4 v 4 c 0,2.209139 -1.790861,4 -4,4 h -4 -34.266667 -1 v 2 H 5.2333335 v -2 h -1 -4.00000003 c -2.20913897,0 -4.74008287,-1.918517 -3.99999997,-4 v -4 -21 z"/><text style="font-size:10px;font-family:sans-serif;text-anchor:end;fill:#000" id="text1397"><tspan id="tspan1395" x="46.333" y="24">adicionar</tspan></text><text style="font-size:6.66666651px;font-family:sans-serif;text-anchor:end;fill:#000" id="text1401"><tspan id="tspan1399" x="46.333" y="11.25">à</tspan></text><text style="font-size:6.66666651px;font-family:sans-serif;text-anchor:end;fill:#000" id="text1405"><tspan id="tspan1403" x="46.333" y="32.25">valor</tspan></text></g></g><g id="g1427" transform="matrix(0.93750003,0,0,0.93750003,12.6562,717.58268)"><g id="g1425" transform="scale(1.5)"><path style="fill:#fe994f;fill-opacity:1;stroke:#e8680e;stroke-width:1;stroke-linecap:round;stroke-opacity:1" id="path1411" d="m 0.5,8.5 v -4 a 4,4 90 0 1 4,-4 h 4 v 2 h 10 v -2 h 30 4 a 4,4 90 0 1 4,4 v 4 h -4 v -3 h -4 v 10 h 4 v -3 h 4 v 17 h -4 v -3 h -4 v 10 h 4 v -3 h 4 v 4 a 4,4 90 0 1 -4,4 h -4 -30 -1 v 2 h -8 v -2 h -1 -4 a 4,4 90 0 1 -4,-4 v -4 -21 z"/><text style="font-size:10px;font-family:sans-serif;text-anchor:end;fill:#000" id="text1415"><tspan id="tspan1413" x="46.333" y="24">adicionar</tspan></text><text style="font-size:6.66666651px;font-family:sans-serif;text-anchor:end;fill:#000" id="text1419"><tspan id="tspan1417" x="46.333" y="11.25">à</tspan></text><text style="font-size:6.66666651px;font-family:sans-serif;text-anchor:end;fill:#000" id="text1423"><tspan id="tspan1421" x="46.333" y="32.25">valor</tspan></text></g></g><g id="g1445" transform="matrix(0.93750003,0,0,0.93750003,18.6562,451.80145)"><g id="g1443" transform="scale(1.5)"><path style="fill:#fe994f;fill-opacity:1;stroke:#e8680e;stroke-width:1;stroke-linecap:round;stroke-opacity:1" id="path1429" d="m -3.7666665,8.5 v -4 c 0,-2.209139 1.790861,-4 3.99999997,-4 H 4.2333335 v 2 h 9.9999995 v -2 H 48.5 h 4 c 2.209139,0 4,1.790861 4,4 v 4 h -4 v -3 h -4 v 10 h 4 v -3 h 4 v 17 h -4 v -3 h -4 v 10 h 4 v -3 h 4 v 4 c 0,2.209139 -1.790861,4 -4,4 h -4 -34.266667 -1 v 2 H 5.2333335 v -2 h -1 -4.00000003 c -2.20913897,0 -3.99999997,-1.790861 -3.99999997,-4 v -4 -21 z"/><text style="font-size:10px;font-family:sans-serif;text-anchor:end;fill:#000" id="text1433"><tspan id="tspan1431" x="46.333" y="24">adicionar</tspan></text><text style="font-size:6.66666651px;font-family:sans-serif;text-anchor:end;fill:#000" id="text1437"><tspan id="tspan1435" x="46.333" y="11.25">à</tspan></text><text style="font-size:6.66666651px;font-family:sans-serif;text-anchor:end;fill:#000" id="text1441"><tspan id="tspan1439" x="46.333" y="32.25">valor</tspan></text></g></g><g id="g1455" transform="matrix(0.93750003,0,0,0.93750003,25.3125,67.89519)"><g id="g1453" transform="scale(1.5)"><path style="fill:#c4c4c4;fill-opacity:1;stroke:#000;stroke-width:1;stroke-linecap:round;stroke-opacity:1" id="path1447" d="m 0.5,8.5 v -4 a 4,4 90 0 1 4,-4 h 4 v 2 h 10 v -2 h 20 4 a 4,4 90 0 1 4,4 v 4 4 4 a 4,4 90 0 1 -4,4 h -4 -20 -1 v 2 h -8 v -2 h -1 -4 a 4,4 90 0 1 -4,-4 v -4 z"/><text style="font-size:10px;font-family:sans-serif;text-anchor:end;fill:#000" id="text1451"><tspan id="tspan1449" x="36.333" y="13.5">↓</tspan></text></g></g><g id="g1473" transform="matrix(0.93750003,0,0,0.93750003,116.8636,38.36394)"><g id="g1471" transform="scale(1.5)"><path style="fill:#ff6ea1;fill-opacity:1;stroke:#ff2c76;stroke-width:1;stroke-linecap:round;stroke-opacity:1" id="path1457" d="m 8.5,8.5 v -4 a 4,4 90 0 1 4,-4 h 4 10 30 4 a 4,4 90 0 1 4,4 v 4 h -4 v -3 h -4 v 10 h 4 v -3 h 4 v 17 h -4 v -3 h -4 v 10 h 4 v -3 h 4 v 4 a 4,4 90 0 1 -4,4 h -4 -30 -10 -4 a 4,4 90 0 1 -4,-4 v -4 -21 -1 h -6 v 3 h -2 v -8 h 2 v 3 h 6 z"/><text style="font-size:14px;font-family:sans-serif;text-anchor:end;fill:#000" id="text1461"><tspan id="tspan1459" x="54.333" y="23.8">/</tspan></text></g></g><g id="g1483" transform="matrix(0.93750003,0,0,0.93750003,197.0198,38.36394)"><g id="g1481" transform="scale(1.5)"><path style="fill:#ff6ea1;fill-opacity:1;stroke:#ff2c76;stroke-width:1;stroke-linecap:round;stroke-opacity:1" id="path1475" d="m 8.5,0.5 h 60 v 20 h -60 v -8 -1 h -6 v 3 h -2 v -8 h 2 v 3 h 6 v -1 z"/><text style="font-size:10px;font-family:sans-serif;text-anchor:start;fill:#000" id="text1479"><tspan id="tspan1477" x="13.333" y="13.833">1</tspan></text></g></g><g id="g1493" transform="matrix(0.93750003,0,0,0.93750003,25.3125,304.14519)"><g id="g1491" transform="scale(1.5)"><path style="fill:#c4c4c4;fill-opacity:1;stroke:#000;stroke-width:1;stroke-linecap:round;stroke-opacity:1" id="path1485" d="m 0.5,8.5 v -4 a 4,4 90 0 1 4,-4 h 4 v 2 h 10 v -2 h 20 4 a 4,4 90 0 1 4,4 v 4 4 4 a 4,4 90 0 1 -4,4 h -4 -20 -1 v 2 h -8 v -2 h -1 -4 a 4,4 90 0 1 -4,-4 v -4 z"/><text style="font-size:10px;font-family:sans-serif;text-anchor:end;fill:#000" id="text1489"><tspan id="tspan1487" x="36.333" y="13.5">↓</tspan></text></g></g><g id="g1511" transform="matrix(0.93750003,0,0,0.93750003,116.8636,274.61394)"><g id="g1509" transform="scale(1.5)"><path style="fill:#ff6ea1;fill-opacity:1;stroke:#ff2c76;stroke-width:1;stroke-linecap:round;stroke-opacity:1" id="path1495" d="m 8.5,8.5 v -4 a 4,4 90 0 1 4,-4 h 4 10 30 4 a 4,4 90 0 1 4,4 v 4 h -4 v -3 h -4 v 10 h 4 v -3 h 4 v 17 h -4 v -3 h -4 v 10 h 4 v -3 h 4 v 4 a 4,4 90 0 1 -4,4 h -4 -30 -10 -4 a 4,4 90 0 1 -4,-4 v -4 -21 -1 h -6 v 3 h -2 v -8 h 2 v 3 h 6 z"/><text style="font-size:14px;font-family:sans-serif;text-anchor:end;fill:#000" id="text1499"><tspan id="tspan1497" x="54.333" y="23.8">/</tspan></text></g></g><g id="g1521" transform="matrix(0.93750003,0,0,0.93750003,197.0198,274.61394)"><g id="g1519" transform="scale(1.5)"><path style="fill:#ff6ea1;fill-opacity:1;stroke:#ff2c76;stroke-width:1;stroke-linecap:round;stroke-opacity:1" id="path1513" d="m 8.5,0.5 h 60 v 20 h -60 v -8 -1 h -6 v 3 h -2 v -8 h 2 v 3 h 6 v -1 z"/><text style="font-size:10px;font-family:sans-serif;text-anchor:start;fill:#000" id="text1517"><tspan id="tspan1515" x="13.333" y="13.833">1</tspan></text></g></g><g id="g1531" transform="matrix(0.93750003,0,0,0.93750003,25.3125,540.3952)"><g id="g1529" transform="scale(1.5)"><path style="fill:#c4c4c4;fill-opacity:1;stroke:#000;stroke-width:1;stroke-linecap:round;stroke-opacity:1" id="path1523" d="m 0.5,8.5 v -4 a 4,4 90 0 1 4,-4 h 4 v 2 h 10 v -2 h 20 4 a 4,4 90 0 1 4,4 v 4 4 4 a 4,4 90 0 1 -4,4 h -4 -20 -1 v 2 h -8 v -2 h -1 -4 a 4,4 90 0 1 -4,-4 v -4 z"/><text style="font-size:10px;font-family:sans-serif;text-anchor:end;fill:#000" id="text1527"><tspan id="tspan1525" x="36.333" y="13.5">↓</tspan></text></g></g><g id="g1549" transform="matrix(0.93750003,0,0,0.93750003,116.8636,510.86395)"><g id="g1547" transform="scale(1.5)"><path style="fill:#ff6ea1;fill-opacity:1;stroke:#ff2c76;stroke-width:1;stroke-linecap:round;stroke-opacity:1" id="path1533" d="m 8.5,8.5 v -4 a 4,4 90 0 1 4,-4 h 4 10 30 4 a 4,4 90 0 1 4,4 v 4 h -4 v -3 h -4 v 10 h 4 v -3 h 4 v 17 h -4 v -3 h -4 v 10 h 4 v -3 h 4 v 4 a 4,4 90 0 1 -4,4 h -4 -30 -10 -4 a 4,4 90 0 1 -4,-4 v -4 -21 -1 h -6 v 3 h -2 v -8 h 2 v 3 h 6 z"/><text style="font-size:14px;font-family:sans-serif;text-anchor:end;fill:#000" id="text1537"><tspan id="tspan1535" x="54.333" y="23.8">/</tspan></text></g></g><g id="g1559" transform="matrix(0.93750003,0,0,0.93750003,197.0198,510.86395)"><g id="g1557" transform="scale(1.5)"><path style="fill:#ff6ea1;fill-opacity:1;stroke:#ff2c76;stroke-width:1;stroke-linecap:round;stroke-opacity:1" id="path1551" d="m 8.5,0.5 h 60 v 20 h -60 v -8 -1 h -6 v 3 h -2 v -8 h 2 v 3 h 6 v -1 z"/><text style="font-size:10px;font-family:sans-serif;text-anchor:start;fill:#000" id="text1555"><tspan id="tspan1553" x="13.333" y="13.833">1</tspan></text></g></g></svg>