<svg xmlns="http://www.w3.org/2000/svg" xmlns:svg="http://www.w3.org/2000/svg" id="svg3641" width="275.602" height="312.978" version="1.1" viewBox="0 0 275.602 312.978"><metadata id="metadata3670"/><g id="g1181" transform="matrix(0.93750001,0,0,0.93750001,0,0.39519136)"><g id="g1179" transform="scale(1.5)"><path id="path1173" d="m 0.5,14.5 v -4 a 4,4 90 0 1 4,-4 h 4 l 5,-6 5,6 h 9 63.344727 4 a 4,4 90 0 1 4,4 v 4 4 4 a 4,4 90 0 1 -4,4 h -4 H 27.5 h -1 v 2 h -8 v -2 h -1 -4 a 5,5 90 0 0 -5,5 v 4 4 147 4 a 5,5 90 0 0 5,5 h 4 v 2 h 10 v -2 h 8 v 6 6 4 a 4,4 90 0 1 -4,4 h -4 -9 l -5,6 -5,-6 h -4 a 4,4 90 0 1 -4,-4 v -4 z" style="fill:#92a9ff;fill-opacity:1;stroke:#5370dc;stroke-width:1;stroke-linecap:round;stroke-opacity:1"/><text id="text1177" style="font-size:10px;font-family:sans-serif;text-anchor:start;fill:#000"><tspan id="tspan1175" x="5.333" y="21.5">criador de frase</tspan></text></g></g><g id="g1199" transform="matrix(0.93750001,0,0,0.93750001,72.65625,38.363941)"><g id="g1197" transform="scale(1.5)"><path id="path1183" d="m -42.166666,8.5 v -4 c 0,-2.209139 1.790861,-4 4,-4 h 4 v 2 h 10 v -2 H 48.5 h 4 c 2.209139,0 4,1.790861 4,4 v 4 h -4 v -3 h -4 v 10 h 4 v -3 h 4 v 17 h -4 v -3 h -4 v 10 h 4 v -3 h 4 v 4 c 0,2.209139 -1.790861,4 -4,4 h -4 -72.666666 -1 v 2 h -8 v -2 h -1 -4 c -2.209139,0 -4,-1.790861 -4,-4 v -4 -21 z" style="fill:#7cd622;fill-opacity:1;stroke:#57ad02;stroke-width:1;stroke-linecap:round;stroke-opacity:1"/><text id="text1187" style="font-size:10px;font-family:sans-serif;text-anchor:end;fill:#000"><tspan id="tspan1185" x="46.333" y="24">determinar o tom</tspan></text><text id="text1191" style="font-size:6.66666651px;font-family:sans-serif;text-anchor:end;fill:#000"><tspan id="tspan1189" x="46.333" y="11.25">nome</tspan></text><text id="text1195" style="font-size:6.66666651px;font-family:sans-serif;text-anchor:end;fill:#000"><tspan id="tspan1193" x="46.333" y="32.25">oitava</tspan></text></g></g><g id="g1209" transform="matrix(0.93750001,0,0,0.93750001,141.5625,38.363941)"><g id="g1207" transform="scale(1.5)"><path id="path1201" d="m 8.5,0.5 h 60 v 20 h -60 v -8 -1 h -6 v 3 h -2 v -8 h 2 v 3 h 6 v -1 z" style="fill:#7cd622;fill-opacity:1;stroke:#57ad02;stroke-width:1;stroke-linecap:round;stroke-opacity:1"/><text id="text1205" style="font-size:10px;font-family:sans-serif;text-anchor:start;fill:#000"><tspan id="tspan1203" x="13.333" y="13.833">sol</tspan></text></g></g><g id="g1219" transform="matrix(0.93750001,0,0,0.93750001,141.5625,67.895192)"><g id="g1217" transform="scale(1.5)"><path id="path1211" d="m 8.5,0.5 h 60 v 20 h -60 v -8 -1 h -6 v 3 h -2 v -8 h 2 v 3 h 6 v -1 z" style="fill:#ff6ea1;fill-opacity:1;stroke:#ff2c76;stroke-width:1;stroke-linecap:round;stroke-opacity:1"/><text id="text1215" style="font-size:10px;font-family:sans-serif;text-anchor:start;fill:#000"><tspan id="tspan1213" x="13.333" y="13.833">4</tspan></text></g></g><g id="g1237" transform="matrix(0.93750001,0,0,0.93750001,72.65625,97.426442)"><g id="g1235" transform="scale(1.5)"><path id="path1221" d="m -42.166666,8.5 v -4 c 0,-2.209139 1.790861,-4 4,-4 h 4 v 2 h 10 v -2 H 48.5 h 4 c 2.209139,0 4,1.790861 4,4 v 4 h -4 v -3 h -4 v 10 h 4 v -3 h 4 v 17 h -4 v -3 h -4 v 10 h 4 v -3 h 4 v 4 c 0,2.209139 -1.790861,4 -4,4 h -4 -72.666666 -1 v 2 h -8 v -2 h -1 -4 c -2.209139,0 -4.740083,-1.918517 -4,-4 v -4 -21 z" style="fill:#7cd622;fill-opacity:1;stroke:#57ad02;stroke-width:1;stroke-linecap:round;stroke-opacity:1"/><text id="text1225" style="font-size:10px;font-family:sans-serif;text-anchor:end;fill:#000"><tspan id="tspan1223" x="46.333" y="24">determinar o tom</tspan></text><text id="text1229" style="font-size:6.66666651px;font-family:sans-serif;text-anchor:end;fill:#000"><tspan id="tspan1227" x="46.333" y="11.25">nome</tspan></text><text id="text1233" style="font-size:6.66666651px;font-family:sans-serif;text-anchor:end;fill:#000"><tspan id="tspan1231" x="46.333" y="32.25">oitava</tspan></text></g></g><g id="g1247" transform="matrix(0.93750001,0,0,0.93750001,141.5625,97.426442)"><g id="g1245" transform="scale(1.5)"><path id="path1239" d="m 8.5,0.5 h 60 v 20 h -60 v -8 -1 h -6 v 3 h -2 v -8 h 2 v 3 h 6 v -1 z" style="fill:#7cd622;fill-opacity:1;stroke:#57ad02;stroke-width:1;stroke-linecap:round;stroke-opacity:1"/><text id="text1243" style="font-size:10px;font-family:sans-serif;text-anchor:start;fill:#000"><tspan id="tspan1241" x="13.333" y="13.833">mi</tspan></text></g></g><g id="g1257" transform="matrix(0.93750001,0,0,0.93750001,141.5625,126.95769)"><g id="g1255" transform="scale(1.5)"><path id="path1249" d="m 8.5,0.5 h 60 v 20 h -60 v -8 -1 h -6 v 3 h -2 v -8 h 2 v 3 h 6 v -1 z" style="fill:#ff6ea1;fill-opacity:1;stroke:#ff2c76;stroke-width:1;stroke-linecap:round;stroke-opacity:1"/><text id="text1253" style="font-size:10px;font-family:sans-serif;text-anchor:start;fill:#000"><tspan id="tspan1251" x="13.333" y="13.833">4</tspan></text></g></g><g id="g1275" transform="matrix(0.93750001,0,0,0.93750001,72.65625,156.48894)"><g id="g1273" transform="scale(1.5)"><path id="path1259" d="m -42.166666,8.5 v -4 c 0,-2.209139 1.790861,-4 4,-4 h 4 v 2 h 10 v -2 H 48.5 h 4 c 2.209139,0 4,1.790861 4,4 v 4 h -4 v -3 h -4 v 10 h 4 v -3 h 4 v 17 h -4 v -3 h -4 v 10 h 4 v -3 h 4 v 4 c 0,2.209139 -1.790861,4 -4,4 h -4 -72.666666 -1 v 2 h -8 v -2 h -1 -4 c -2.209139,0 -4,-1.790861 -4,-4 v -4 -21 z" style="fill:#7cd622;fill-opacity:1;stroke:#57ad02;stroke-width:1;stroke-linecap:round;stroke-opacity:1"/><text id="text1263" style="font-size:10px;font-family:sans-serif;text-anchor:end;fill:#000"><tspan id="tspan1261" x="46.333" y="24">determinar o tom</tspan></text><text id="text1267" style="font-size:6.66666651px;font-family:sans-serif;text-anchor:end;fill:#000"><tspan id="tspan1265" x="46.333" y="11.25">nome</tspan></text><text id="text1271" style="font-size:6.66666651px;font-family:sans-serif;text-anchor:end;fill:#000"><tspan id="tspan1269" x="46.333" y="32.25">oitava</tspan></text></g></g><g id="g1285" transform="matrix(0.93750001,0,0,0.93750001,141.5625,156.48894)"><g id="g1283" transform="scale(1.5)"><path id="path1277" d="m 8.5,0.5 h 60 v 20 h -60 v -8 -1 h -6 v 3 h -2 v -8 h 2 v 3 h 6 v -1 z" style="fill:#7cd622;fill-opacity:1;stroke:#57ad02;stroke-width:1;stroke-linecap:round;stroke-opacity:1"/><text id="text1281" style="font-size:10px;font-family:sans-serif;text-anchor:start;fill:#000"><tspan id="tspan1279" x="13.333" y="13.833">re</tspan></text></g></g><g id="g1295" transform="matrix(0.93750001,0,0,0.93750001,141.5625,186.02019)"><g id="g1293" transform="scale(1.5)"><path id="path1287" d="m 8.5,0.5 h 60 v 20 h -60 v -8 -1 h -6 v 3 h -2 v -8 h 2 v 3 h 6 v -1 z" style="fill:#ff6ea1;fill-opacity:1;stroke:#ff2c76;stroke-width:1;stroke-linecap:round;stroke-opacity:1"/><text id="text1291" style="font-size:10px;font-family:sans-serif;text-anchor:start;fill:#000"><tspan id="tspan1289" x="13.333" y="13.833">4</tspan></text></g></g><g id="g1313" transform="matrix(0.93750001,0,0,0.93750001,14.65625,215.55145)"><g id="g1311" transform="scale(1.5)"><path id="path1297" d="m -0.92222221,8.5 v -4 c 0,-2.209139 1.790861,-4 4.00000001,-4 h 4 v 2 H 17.077778 v -2 h 41.983745 4 c 2.209139,0 4,1.790861 4,4 v 4 h -4 v -3 h -4 v 10 h 4 v -3 h 4 v 17 h -4 v -3 h -4 v 10 h 4 v -3 h 4 v 4 c 0,2.209139 -1.790861,4 -4,4 h -4 -41.983745 -1 v 2 H 8.0777778 v -2 h -1 -4 c -2.20913901,0 -4.00000001,-1.790861 -4.00000001,-4 v -4 -21 z" style="fill:#92a9ff;fill-opacity:1;stroke:#5370dc;stroke-width:1;stroke-linecap:round;stroke-opacity:1"/><text id="text1301" style="font-size:10px;font-family:sans-serif;text-anchor:end;fill:#000"><tspan id="tspan1299" x="56.895" y="24">Ritmo</tspan></text><text id="text1305" style="font-size:6.66666651px;font-family:sans-serif;text-anchor:end;fill:#000"><tspan id="tspan1303" x="56.895" y="11.25">número de notas</tspan></text><text id="text1309" style="font-size:6.66666651px;font-family:sans-serif;text-anchor:end;fill:#000"><tspan id="tspan1307" x="56.895" y="32.25">valor de nota</tspan></text></g></g><g id="g1323" transform="matrix(0.93750001,0,0,0.93750001,98.414647,215.55145)"><g id="g1321" transform="scale(1.5)"><path id="path1315" d="m 8.5,0.5 h 60 v 20 h -60 v -8 -1 h -6 v 3 h -2 v -8 h 2 v 3 h 6 v -1 z" style="fill:#ff6ea1;fill-opacity:1;stroke:#ff2c76;stroke-width:1;stroke-linecap:round;stroke-opacity:1"/><text id="text1319" style="font-size:10px;font-family:sans-serif;text-anchor:start;fill:#000"><tspan id="tspan1317" x="13.333" y="13.833">3</tspan></text></g></g><g id="g1341" transform="matrix(0.93750001,0,0,0.93750001,98.414647,245.0827)"><g id="g1339" transform="scale(1.5)"><path id="path1325" d="m 8.5,8.5 v -4 a 4,4 90 0 1 4,-4 h 4 10 30 4 a 4,4 90 0 1 4,4 v 4 h -4 v -3 h -4 v 10 h 4 v -3 h 4 v 17 h -4 v -3 h -4 v 10 h 4 v -3 h 4 v 4 a 4,4 90 0 1 -4,4 h -4 -30 -10 -4 a 4,4 90 0 1 -4,-4 v -4 -21 -1 h -6 v 3 h -2 v -8 h 2 v 3 h 6 z" style="fill:#ff6ea1;fill-opacity:1;stroke:#ff2c76;stroke-width:1;stroke-linecap:round;stroke-opacity:1"/><text id="text1329" style="font-size:14px;font-family:sans-serif;text-anchor:end;fill:#000"><tspan id="tspan1327" x="54.333" y="23.8">/</tspan></text></g></g><g id="g1351" transform="matrix(0.93750001,0,0,0.93750001,178.5709,245.0827)"><g id="g1349" transform="scale(1.5)"><path id="path1343" d="m 8.5,0.5 h 60 v 20 h -60 v -8 -1 h -6 v 3 h -2 v -8 h 2 v 3 h 6 v -1 z" style="fill:#ff6ea1;fill-opacity:1;stroke:#ff2c76;stroke-width:1;stroke-linecap:round;stroke-opacity:1"/><text id="text1347" style="font-size:10px;font-family:sans-serif;text-anchor:start;fill:#000"><tspan id="tspan1345" x="13.333" y="13.833">1</tspan></text></g></g><g id="g1361" transform="matrix(0.93750001,0,0,0.93750001,178.5709,274.61395)"><g id="g1359" transform="scale(1.5)"><path id="path1353" d="m 8.5,0.5 h 60 v 20 h -60 v -8 -1 h -6 v 3 h -2 v -8 h 2 v 3 h 6 v -1 z" style="fill:#ff6ea1;fill-opacity:1;stroke:#ff2c76;stroke-width:1;stroke-linecap:round;stroke-opacity:1"/><text id="text1357" style="font-size:10px;font-family:sans-serif;text-anchor:start;fill:#000"><tspan id="tspan1355" x="13.333" y="13.833">4</tspan></text></g></g></svg>