<svg xmlns="http://www.w3.org/2000/svg" xmlns:svg="http://www.w3.org/2000/svg" id="svg3641" width="293.842" height="459.843" version="1.1"><metadata id="metadata3670"/><g id="g1329" transform="translate(0,0.42153745)"><g id="g1327" transform="scale(1.5)"><path style="fill:#92a9ff;fill-opacity:1;stroke:#5370dc;stroke-width:1;stroke-linecap:round;stroke-opacity:1" id="path1321" d="m 0.5,14.5 v -4 a 4,4 90 0 1 4,-4 h 4 l 5,-6 5,6 h 9 63.344727 4 a 4,4 90 0 1 4,4 v 4 4 4 a 4,4 90 0 1 -4,4 h -4 H 27.5 h -1 v 2 h -8 v -2 h -1 -4 a 5,5 90 0 0 -5,5 v 4 4 231 4 a 5,5 90 0 0 5,5 h 4 v 2 h 10 v -2 h 8 v 6 6 4 a 4,4 90 0 1 -4,4 h -4 -9 l -5,6 -5,-6 h -4 a 4,4 90 0 1 -4,-4 v -4 z"/><text style="font-size:10px;font-family:sans-serif;text-anchor:start;fill:#000" id="text1325"><tspan id="tspan1323" x="5.333" y="21.5">criador de frase</tspan></text></g></g><g id="g1339" transform="translate(153,103.92154)"><g id="g1337" transform="scale(1.5)"><path style="fill:#7cd622;fill-opacity:1;stroke:#57ad02;stroke-width:1;stroke-linecap:round;stroke-opacity:1" id="path1331" d="m 8.5,0.5 h 60 v 20 h -60 v -8 -1 h -6 v 3 h -2 v -8 h 2 v 3 h 6 v -1 z"/><text style="font-size:10px;font-family:sans-serif;text-anchor:start;fill:#000" id="text1335"><tspan id="tspan1333" x="13.333" y="13.833">sol</tspan></text></g></g><g id="g1349" transform="translate(153,135.42154)"><g id="g1347" transform="scale(1.5)"><path style="fill:#ff6ea1;fill-opacity:1;stroke:#ff2c76;stroke-width:1;stroke-linecap:round;stroke-opacity:1" id="path1341" d="m 8.5,0.5 h 60 v 20 h -60 v -8 -1 h -6 v 3 h -2 v -8 h 2 v 3 h 6 v -1 z"/><text style="font-size:10px;font-family:sans-serif;text-anchor:start;fill:#000" id="text1345"><tspan id="tspan1343" x="13.333" y="13.833">5</tspan></text></g></g><g id="g1363" transform="translate(41,198.42154)"><g id="g1361" transform="scale(1.5)"><path style="fill:#7cd622;fill-opacity:1;stroke:#57ad02;stroke-width:1;stroke-linecap:round;stroke-opacity:1" id="path1351" d="m -8.8333333,8.5 v -4 c 0,-2.209139 1.790861,-4 4,-4 h 3.99999997 v 2 H 9.1666667 v -2 h 81.3059893 4 c 2.209139,0 4,1.790861 4,4 v 4 h -4 v -3 h -4 v 10 h 4 v -3 h 4 v 4 c 0,2.209139 -1.790861,4 -4,4 h -4 -81.3059893 -1 v 2 H 0.16666667 v -2 h -1 -3.99999997 c -2.209139,0 -4.6985911,-1.904227 -4,-4 v -4 z"/><text style="font-size:10px;font-family:sans-serif;text-anchor:end;fill:#000" id="text1355"><tspan id="tspan1353" x="88.306" y="13.5">passo escalar (+/–)</tspan></text></g></g><g id="g1373" transform="translate(177.45898,198.42154)"><g id="g1371" transform="scale(1.5)"><path style="fill:#ff6ea1;fill-opacity:1;stroke:#ff2c76;stroke-width:1;stroke-linecap:round;stroke-opacity:1" id="path1365" d="m 8.5,0.5 h 60 v 20 h -60 v -8 -1 h -6 v 3 h -2 v -8 h 2 v 3 h 6 v -1 z"/><text style="font-size:10px;font-family:sans-serif;text-anchor:start;fill:#000" id="text1369"><tspan id="tspan1367" x="13.333" y="13.833">-1</tspan></text></g></g><g id="g1391" transform="translate(43.5,40.921537)"><g id="g1389" transform="scale(1.5)"><path style="fill:#3edcdd;fill-opacity:1;stroke:#000;stroke-width:1;stroke-linecap:round;stroke-opacity:1" id="path1375" d="m -19.5,8.5 v -4 c 0,-2.209139 1.790861,-4 4,-4 h 4 v 2 h 10 v -2 h 51.679687 4 c 2.209139,0 4,1.790861 4,4 v 4 h -4 v -3 h -4 v 10 h 4 v -3 h 4 v 17 h -4 v -3 h -4 v 10 h 4 v -3 h 4 v 4 c 0,2.209139 -1.790861,4 -4,4 h -4 H -1.5 h -1 v 2 h -8 v -2 h -1 -4 c -2.209139,0 -4,-1.790861 -4,-4 v -4 -21 z"/><text style="font-size:10px;font-family:sans-serif;text-anchor:end;fill:#000" id="text1379"><tspan id="tspan1377" x="48.013" y="24">definir chave</tspan></text><text style="font-size:6.66666651px;font-family:sans-serif;text-anchor:end;fill:#000" id="text1383"><tspan id="tspan1381" x="48.013" y="11.25">chave</tspan></text><text style="font-size:6.66666651px;font-family:sans-serif;text-anchor:end;fill:#000" id="text1387"><tspan id="tspan1385" x="48.013" y="32.25">modo</tspan></text></g></g><g id="g1401" transform="translate(119.51953,40.921537)"><g id="g1399" transform="scale(1.5)"><path style="fill:#7cd622;fill-opacity:1;stroke:#57ad02;stroke-width:1;stroke-linecap:round;stroke-opacity:1" id="path1393" d="m 8.5,0.5 h 60 v 20 h -60 v -8 -1 h -6 v 3 h -2 v -8 h 2 v 3 h 6 v -1 z"/><text style="font-size:10px;font-family:sans-serif;text-anchor:start;fill:#000" id="text1397"><tspan id="tspan1395" x="13.333" y="13.833">G</tspan></text></g></g><g id="g1411" transform="translate(119.51953,72.421541)"><g id="g1409" transform="scale(1.5)"><path style="fill:#7cd622;fill-opacity:1;stroke:#57ad02;stroke-width:1;stroke-linecap:round;stroke-opacity:1" id="path1403" d="m 8.5,0.5 h 60 v 20 h -60 v -8 -1 h -6 v 3 h -2 v -8 h 2 v 3 h 6 v -1 z"/><text style="font-size:10px;font-family:sans-serif;text-anchor:start;fill:#000" id="text1407"><tspan id="tspan1405" x="13.333" y="13.833">maior</tspan></text></g></g><g id="g1425" transform="translate(13.5,166.92154)"><g id="g1423" transform="scale(1.5)"><path style="fill:#e9a066;fill-opacity:1;stroke:#b7651a;stroke-width:1;stroke-linecap:round;stroke-opacity:1" id="path1413" d="m 0.5,8.5 v -4 a 4,4 90 0 1 4,-4 h 4 v 2 h 10 v -2 h 9 20 4 a 4,4 90 0 1 4,4 v 4 h -4 v -3 h -4 v 10 h 4 v -3 h 4 v 4 a 4,4 90 0 1 -4,4 h -4 -20 -1 v 2 h -8 v -2 h -1 -4 a 5,5 90 0 0 -5,5 v 4 4 4 a 5,5 90 0 0 5,5 h 4 v 2 h 10 v -2 h 8 v 6 6 4 a 4,4 90 0 1 -4,4 h -4 -9 -1 v 2 h -8 v -2 h -1 -4 a 4,4 90 0 1 -4,-4 v -4 z"/><text style="font-size:10px;font-family:sans-serif;text-anchor:start;fill:#000" id="text1417"><tspan id="tspan1415" x="5.333" y="15.25">repetir</tspan></text></g></g><path style="fill:#7cd622;fill-opacity:1;stroke:#57ad02;stroke-width:1.5;stroke-linecap:round;stroke-opacity:1" id="path1427" d="m 98.25,167.67154 h 190.55859 v 30 H 98.25 v -12 -1.5 h -9 v 4.5 h -3 v -12 h 3 v 4.5 h 9 v -1.5 z"/><text style="font-size:15px;font-family:sans-serif;text-anchor:start;fill:#000;stroke-width:1.5" id="text1431" x="85.5" y="166.922"><tspan id="tspan1429" x="105.5" y="187.672" style="stroke-width:1.5">modo número de notas</tspan></text><g id="g1453" transform="translate(79.5,103.92154)"><g id="g1451" transform="scale(1.5)"><path style="fill:#7cd622;fill-opacity:1;stroke:#57ad02;stroke-width:1;stroke-linecap:round;stroke-opacity:1" id="path1437" d="m -43.5,8.5 v -4 c 0,-2.209139 1.790861,-4 4,-4 h 4 v 2 h 10 v -2 h 74 4 c 2.209139,0 4,1.790861 4,4 v 4 h -4 v -3 h -4 v 10 h 4 v -3 h 4 v 17 h -4 v -3 h -4 v 10 h 4 v -3 h 4 v 4 c 0,2.209139 -1.790861,4 -4,4 h -4 -74 -1 v 2 h -8 v -2 h -1 -4 c -2.209139,0 -4.698591,-1.904227 -4,-4 v -4 -21 z"/><text style="font-size:10px;font-family:sans-serif;text-anchor:end;fill:#000" id="text1441"><tspan id="tspan1439" x="46.333" y="24">determinar o tom</tspan></text><text style="font-size:6.66666651px;font-family:sans-serif;text-anchor:end;fill:#000" id="text1445"><tspan id="tspan1443" x="46.333" y="11.25">nome</tspan></text><text style="font-size:6.66666651px;font-family:sans-serif;text-anchor:end;fill:#000" id="text1449"><tspan id="tspan1447" x="46.333" y="32.25">oitava</tspan></text></g></g><g id="g1471" transform="translate(15.5,261.42154)"><g id="g1469" transform="scale(1.5)"><path style="fill:#92a9ff;fill-opacity:1;stroke:#5370dc;stroke-width:1;stroke-linecap:round;stroke-opacity:1" id="path1455" d="m -0.83333333,8.5 v -4 c 0,-2.209139 1.790861,-4 4.00000003,-4 h 4 v 2 H 17.166667 v -2 h 41.894856 4 c 2.209139,0 4,1.790861 4,4 v 4 h -4 v -3 h -4 v 10 h 4 v -3 h 4 v 17 h -4 v -3 h -4 v 10 h 4 v -3 h 4 v 4 c 0,2.209139 -1.790861,4 -4,4 h -4 -41.894856 -1 v 2 H 8.1666667 v -2 h -1 -4 c -2.20913903,0 -4.00000003,-1.790861 -4.00000003,-4 v -4 -21 z"/><text style="font-size:10px;font-family:sans-serif;text-anchor:end;fill:#000" id="text1459"><tspan id="tspan1457" x="56.895" y="24">Ritmo</tspan></text><text style="font-size:6.66666651px;font-family:sans-serif;text-anchor:end;fill:#000" id="text1463"><tspan id="tspan1461" x="56.895" y="11.25">número de notas</tspan></text><text style="font-size:6.66666651px;font-family:sans-serif;text-anchor:end;fill:#000" id="text1467"><tspan id="tspan1465" x="56.895" y="32.25">valor de nota</tspan></text></g></g><g id="g1481" transform="translate(104.84229,261.42154)"><g id="g1479" transform="scale(1.5)"><path style="fill:#ff6ea1;fill-opacity:1;stroke:#ff2c76;stroke-width:1;stroke-linecap:round;stroke-opacity:1" id="path1473" d="m 8.5,0.5 h 60 v 20 h -60 v -8 -1 h -6 v 3 h -2 v -8 h 2 v 3 h 6 v -1 z"/><text style="font-size:10px;font-family:sans-serif;text-anchor:start;fill:#000" id="text1477"><tspan id="tspan1475" x="13.333" y="13.833">6</tspan></text></g></g><g id="g1491" transform="translate(190.3423,292.92154)"><g id="g1489" transform="scale(1.5)"><path style="fill:#ff6ea1;fill-opacity:1;stroke:#ff2c76;stroke-width:1;stroke-linecap:round;stroke-opacity:1" id="path1483" d="m 8.5,0.5 h 60 v 20 h -60 v -8 -1 h -6 v 3 h -2 v -8 h 2 v 3 h 6 v -1 z"/><text style="font-size:10px;font-family:sans-serif;text-anchor:start;fill:#000" id="text1487"><tspan id="tspan1485" x="13.333" y="13.833">1</tspan></text></g></g><g id="g1509" transform="translate(104.84229,292.92154)"><g id="g1507" transform="scale(1.5)"><path style="fill:#ff6ea1;fill-opacity:1;stroke:#ff2c76;stroke-width:1;stroke-linecap:round;stroke-opacity:1" id="path1493" d="m 8.5,8.5 v -4 a 4,4 90 0 1 4,-4 h 4 10 30 4 a 4,4 90 0 1 4,4 v 4 h -4 v -3 h -4 v 10 h 4 v -3 h 4 v 17 h -4 v -3 h -4 v 10 h 4 v -3 h 4 v 4 a 4,4 90 0 1 -4,4 h -4 -30 -10 -4 a 4,4 90 0 1 -4,-4 v -4 -21 -1 h -6 v 3 h -2 v -8 h 2 v 3 h 6 z"/><text style="font-size:14px;font-family:sans-serif;text-anchor:end;fill:#000" id="text1497"><tspan id="tspan1495" x="54.333" y="23.8">/</tspan></text></g></g><g id="g1519" transform="translate(190.3423,324.42154)"><g id="g1517" transform="scale(1.5)"><path style="fill:#ff6ea1;fill-opacity:1;stroke:#ff2c76;stroke-width:1;stroke-linecap:round;stroke-opacity:1" id="path1511" d="m 8.5,0.5 h 60 v 20 h -60 v -8 -1 h -6 v 3 h -2 v -8 h 2 v 3 h 6 v -1 z"/><text style="font-size:10px;font-family:sans-serif;text-anchor:start;fill:#000" id="text1515"><tspan id="tspan1513" x="13.333" y="13.833">4</tspan></text></g></g><g id="g1537" transform="translate(15.5,355.92154)"><g id="g1535" transform="scale(1.5)"><path style="fill:#92a9ff;fill-opacity:1;stroke:#5370dc;stroke-width:1;stroke-linecap:round;stroke-opacity:1" id="path1521" d="m -0.83333333,8.5 v -4 c 0,-2.209139 1.790861,-4 4.00000003,-4 h 4 v 2 H 17.166667 v -2 h 41.894856 4 c 2.209139,0 4,1.790861 4,4 v 4 h -4 v -3 h -4 v 10 h 4 v -3 h 4 v 17 h -4 v -3 h -4 v 10 h 4 v -3 h 4 v 4 c 0,2.209139 -1.790861,4 -4,4 h -4 -41.894856 -1 v 2 H 8.1666667 v -2 h -1 -4 c -2.20913903,0 -4.00000003,-1.790861 -4.00000003,-4 v -4 -21 z"/><text style="font-size:10px;font-family:sans-serif;text-anchor:end;fill:#000" id="text1525"><tspan id="tspan1523" x="56.895" y="24">Ritmo</tspan></text><text style="font-size:6.66666651px;font-family:sans-serif;text-anchor:end;fill:#000" id="text1529"><tspan id="tspan1527" x="56.895" y="11.25">número de notas</tspan></text><text style="font-size:6.66666651px;font-family:sans-serif;text-anchor:end;fill:#000" id="text1533"><tspan id="tspan1531" x="56.895" y="32.25">valor de nota</tspan></text></g></g><g id="g1547" transform="translate(104.84229,355.92154)"><g id="g1545" transform="scale(1.5)"><path style="fill:#ff6ea1;fill-opacity:1;stroke:#ff2c76;stroke-width:1;stroke-linecap:round;stroke-opacity:1" id="path1539" d="m 8.5,0.5 h 60 v 20 h -60 v -8 -1 h -6 v 3 h -2 v -8 h 2 v 3 h 6 v -1 z"/><text style="font-size:10px;font-family:sans-serif;text-anchor:start;fill:#000" id="text1543"><tspan id="tspan1541" x="13.333" y="13.833">1</tspan></text></g></g><g id="g1557" transform="translate(190.3423,387.42154)"><g id="g1555" transform="scale(1.5)"><path style="fill:#ff6ea1;fill-opacity:1;stroke:#ff2c76;stroke-width:1;stroke-linecap:round;stroke-opacity:1" id="path1549" d="m 8.5,0.5 h 60 v 20 h -60 v -8 -1 h -6 v 3 h -2 v -8 h 2 v 3 h 6 v -1 z"/><text style="font-size:10px;font-family:sans-serif;text-anchor:start;fill:#000" id="text1553"><tspan id="tspan1551" x="13.333" y="13.833">1</tspan></text></g></g><g id="g1575" transform="translate(104.84229,387.42154)"><g id="g1573" transform="scale(1.5)"><path style="fill:#ff6ea1;fill-opacity:1;stroke:#ff2c76;stroke-width:1;stroke-linecap:round;stroke-opacity:1" id="path1559" d="m 8.5,8.5 v -4 a 4,4 90 0 1 4,-4 h 4 10 30 4 a 4,4 90 0 1 4,4 v 4 h -4 v -3 h -4 v 10 h 4 v -3 h 4 v 17 h -4 v -3 h -4 v 10 h 4 v -3 h 4 v 4 a 4,4 90 0 1 -4,4 h -4 -30 -10 -4 a 4,4 90 0 1 -4,-4 v -4 -21 -1 h -6 v 3 h -2 v -8 h 2 v 3 h 6 z"/><text style="font-size:14px;font-family:sans-serif;text-anchor:end;fill:#000" id="text1563"><tspan id="tspan1561" x="54.333" y="23.8">/</tspan></text></g></g><g id="g1585" transform="translate(190.3423,418.92154)"><g id="g1583" transform="scale(1.5)"><path style="fill:#ff6ea1;fill-opacity:1;stroke:#ff2c76;stroke-width:1;stroke-linecap:round;stroke-opacity:1" id="path1577" d="m 8.5,0.5 h 60 v 20 h -60 v -8 -1 h -6 v 3 h -2 v -8 h 2 v 3 h 6 v -1 z"/><text style="font-size:10px;font-family:sans-serif;text-anchor:start;fill:#000" id="text1581"><tspan id="tspan1579" x="13.333" y="13.833">2</tspan></text></g></g><path style="fill:#c4c4c4;fill-opacity:1;stroke:#a0a0a0;stroke-width:1.5;stroke-linecap:round;stroke-opacity:1" id="path1587" d="m 14.25,337.17154 v -6 a 6,6 0 0 1 6,-6 h 6 v 3 h 15 v -3 h 30 6 a 6,6 0 0 1 6,6 v 6 6 6 a 6,6 0 0 1 -6,6 h -6 -30 -1.5 v 3 h -12 v -3 h -1.5 -6 a 6,6 0 0 1 -6,-6 v -6 z"/><text style="font-size:15px;font-family:sans-serif;text-anchor:end;fill:#000;stroke-width:1.5" id="text1591" x="13.5" y="324.422"><tspan id="tspan1589" x="68" y="344.672" style="stroke-width:1.5">↓</tspan></text></svg>