<svg xmlns="http://www.w3.org/2000/svg" xmlns:svg="http://www.w3.org/2000/svg" id="svg3641" width="293.842" height="428.343" version="1.1" viewBox="0 0 293.842 428.343"><metadata id="metadata3670"/><g id="g1607" transform="translate(15.5,324.42154)"><g id="g1605" transform="scale(1.5)"><path id="path1591" d="m -0.83333333,8.5 v -4 c 0,-2.209139 1.790861,-4 4.00000003,-4 h 4 v 2 H 17.166667 v -2 h 41.894856 4 c 2.209139,0 4,1.790861 4,4 v 4 h -4 v -3 h -4 v 10 h 4 v -3 h 4 v 17 h -4 v -3 h -4 v 10 h 4 v -3 h 4 v 4 c 0,2.209139 -1.790861,4 -4,4 h -4 -41.894856 -1 v 2 H 8.1666667 v -2 h -1 -4 c -2.20913903,0 -4.6985911,-1.904227 -4.00000003,-4 v -4 -21 z" style="fill:#92a9ff;fill-opacity:1;stroke:#5370dc;stroke-width:1;stroke-linecap:round;stroke-opacity:1"/><text id="text1595" style="font-size:10px;font-family:sans-serif;text-anchor:end;fill:#000"><tspan id="tspan1593" x="56.895" y="24">Ritmo</tspan></text><text id="text1599" style="font-size:6.66666651px;font-family:sans-serif;text-anchor:end;fill:#000"><tspan id="tspan1597" x="56.895" y="11.25">número de notas</tspan></text><text id="text1603" style="font-size:6.66666651px;font-family:sans-serif;text-anchor:end;fill:#000"><tspan id="tspan1601" x="56.895" y="32.25">valor de nota</tspan></text></g></g><g id="g1617" transform="translate(104.8423,324.42154)"><g id="g1615" transform="scale(1.5)"><path id="path1609" d="m 8.5,0.5 h 60 v 20 h -60 v -8 -1 h -6 v 3 h -2 v -8 h 2 v 3 h 6 v -1 z" style="fill:#ff6ea1;fill-opacity:1;stroke:#ff2c76;stroke-width:1;stroke-linecap:round;stroke-opacity:1"/><text id="text1613" style="font-size:10px;font-family:sans-serif;text-anchor:start;fill:#000"><tspan id="tspan1611" x="13.333" y="13.833">6</tspan></text></g></g><g id="g1635" transform="translate(104.8423,355.92154)"><g id="g1633" transform="scale(1.5)"><path id="path1619" d="m 8.5,8.5 v -4 a 4,4 90 0 1 4,-4 h 4 10 30 4 a 4,4 90 0 1 4,4 v 4 h -4 v -3 h -4 v 10 h 4 v -3 h 4 v 17 h -4 v -3 h -4 v 10 h 4 v -3 h 4 v 4 a 4,4 90 0 1 -4,4 h -4 -30 -10 -4 a 4,4 90 0 1 -4,-4 v -4 -21 -1 h -6 v 3 h -2 v -8 h 2 v 3 h 6 z" style="fill:#ff6ea1;fill-opacity:1;stroke:#ff2c76;stroke-width:1;stroke-linecap:round;stroke-opacity:1"/><text id="text1623" style="font-size:14px;font-family:sans-serif;text-anchor:end;fill:#000"><tspan id="tspan1621" x="54.333" y="23.8">/</tspan></text></g></g><g id="g1645" transform="translate(190.3423,355.92154)"><g id="g1643" transform="scale(1.5)"><path id="path1637" d="m 8.5,0.5 h 60 v 20 h -60 v -8 -1 h -6 v 3 h -2 v -8 h 2 v 3 h 6 v -1 z" style="fill:#ff6ea1;fill-opacity:1;stroke:#ff2c76;stroke-width:1;stroke-linecap:round;stroke-opacity:1"/><text id="text1641" style="font-size:10px;font-family:sans-serif;text-anchor:start;fill:#000"><tspan id="tspan1639" x="13.333" y="13.833">1</tspan></text></g></g><g id="g1655" transform="translate(190.3423,387.42154)"><g id="g1653" transform="scale(1.5)"><path id="path1647" d="m 8.5,0.5 h 60 v 20 h -60 v -8 -1 h -6 v 3 h -2 v -8 h 2 v 3 h 6 v -1 z" style="fill:#ff6ea1;fill-opacity:1;stroke:#ff2c76;stroke-width:1;stroke-linecap:round;stroke-opacity:1"/><text id="text1651" style="font-size:10px;font-family:sans-serif;text-anchor:start;fill:#000"><tspan id="tspan1649" x="13.333" y="13.833">8</tspan></text></g></g><g id="g1665" transform="translate(13.5,292.92154)"><g id="g1663" transform="scale(1.5)"><path id="path1657" d="m 0.5,8.5 v -4 a 4,4 90 0 1 4,-4 h 4 v 2 h 10 v -2 h 20 4 a 4,4 90 0 1 4,4 v 4 4 4 a 4,4 90 0 1 -4,4 h -4 -20 -1 v 2 h -8 v -2 h -1 -4 a 4,4 90 0 1 -4,-4 v -4 z" style="fill:#c4c4c4;fill-opacity:1;stroke:#000;stroke-width:1;stroke-linecap:round;stroke-opacity:1"/><text id="text1661" style="font-size:10px;font-family:sans-serif;text-anchor:end;fill:#000"><tspan id="tspan1659" x="36.333" y="13.5">↓</tspan></text></g></g><g id="g1675" transform="translate(0,0.42153745)"><g id="g1673" transform="scale(1.5)"><path id="path1667" d="m 0.5,14.5 v -4 a 4,4 90 0 1 4,-4 h 4 l 5,-6 5,6 h 9 63.344727 4 a 4,4 90 0 1 4,4 v 4 4 4 a 4,4 90 0 1 -4,4 h -4 H 27.5 h -1 v 2 h -8 v -2 h -1 -4 a 5,5 90 0 0 -5,5 v 4 4 210 4 a 5,5 90 0 0 5,5 h 4 v 2 h 10 v -2 h 8 v 6 6 4 a 4,4 90 0 1 -4,4 h -4 -9 l -5,6 -5,-6 h -4 a 4,4 90 0 1 -4,-4 v -4 z" style="fill:#92a9ff;fill-opacity:1;stroke:#5370dc;stroke-width:1;stroke-linecap:round;stroke-opacity:1"/><text id="text1671" style="font-size:10px;font-family:sans-serif;text-anchor:start;fill:#000"><tspan id="tspan1669" x="5.333" y="21.5">criador de frase</tspan></text></g></g><g id="g1693" transform="translate(79.5,40.921537)"><g id="g1691" transform="scale(1.5)"><path id="path1677" d="m -43.5,8.5 v -4 c 0,-2.209139 1.790861,-4 4,-4 h 4 v 2 h 10 v -2 h 74 4 c 2.209139,0 4,1.790861 4,4 v 4 h -4 v -3 h -4 v 10 h 4 v -3 h 4 v 17 h -4 v -3 h -4 v 10 h 4 v -3 h 4 v 4 c 0,2.209139 -1.790861,4 -4,4 h -4 -74 -1 v 2 h -8 v -2 h -1 -4 c -2.209139,0 -4.698591,-1.904227 -4,-4 v -4 -21 z" style="fill:#7cd622;fill-opacity:1;stroke:#57ad02;stroke-width:1;stroke-linecap:round;stroke-opacity:1"/><text id="text1681" style="font-size:10px;font-family:sans-serif;text-anchor:end;fill:#000"><tspan id="tspan1679" x="46.333" y="24">determinar o tom</tspan></text><text id="text1685" style="font-size:6.66666651px;font-family:sans-serif;text-anchor:end;fill:#000"><tspan id="tspan1683" x="46.333" y="11.25">nome</tspan></text><text id="text1689" style="font-size:6.66666651px;font-family:sans-serif;text-anchor:end;fill:#000"><tspan id="tspan1687" x="46.333" y="32.25">oitava</tspan></text></g></g><g id="g1703" transform="translate(153,40.921537)"><g id="g1701" transform="scale(1.5)"><path id="path1695" d="m 8.5,0.5 h 60 v 20 h -60 v -8 -1 h -6 v 3 h -2 v -8 h 2 v 3 h 6 v -1 z" style="fill:#7cd622;fill-opacity:1;stroke:#57ad02;stroke-width:1;stroke-linecap:round;stroke-opacity:1"/><text id="text1699" style="font-size:10px;font-family:sans-serif;text-anchor:start;fill:#000"><tspan id="tspan1697" x="13.333" y="13.833">sol</tspan></text></g></g><g id="g1713" transform="translate(153,72.421537)"><g id="g1711" transform="scale(1.5)"><path id="path1705" d="m 8.5,0.5 h 60 v 20 h -60 v -8 -1 h -6 v 3 h -2 v -8 h 2 v 3 h 6 v -1 z" style="fill:#ff6ea1;fill-opacity:1;stroke:#ff2c76;stroke-width:1;stroke-linecap:round;stroke-opacity:1"/><text id="text1709" style="font-size:10px;font-family:sans-serif;text-anchor:start;fill:#000"><tspan id="tspan1707" x="13.333" y="13.833">4</tspan></text></g></g><g id="g1731" transform="translate(79.5,103.92154)"><g id="g1729" transform="scale(1.5)"><path id="path1715" d="m -43.5,8.5 v -4 c 0,-2.209139 1.790861,-4 4,-4 h 4 v 2 h 10 v -2 h 74 4 c 2.209139,0 4,1.790861 4,4 v 4 h -4 v -3 h -4 v 10 h 4 v -3 h 4 v 17 h -4 v -3 h -4 v 10 h 4 v -3 h 4 v 4 c 0,2.209139 -1.790861,4 -4,4 h -4 -74 -1 v 2 h -8 v -2 h -1 -4 c -2.209139,0 -4.698591,-1.904227 -4,-4 v -4 -21 z" style="fill:#7cd622;fill-opacity:1;stroke:#57ad02;stroke-width:1;stroke-linecap:round;stroke-opacity:1"/><text id="text1719" style="font-size:10px;font-family:sans-serif;text-anchor:end;fill:#000"><tspan id="tspan1717" x="46.333" y="24">determinar o tom</tspan></text><text id="text1723" style="font-size:6.66666651px;font-family:sans-serif;text-anchor:end;fill:#000"><tspan id="tspan1721" x="46.333" y="11.25">nome</tspan></text><text id="text1727" style="font-size:6.66666651px;font-family:sans-serif;text-anchor:end;fill:#000"><tspan id="tspan1725" x="46.333" y="32.25">oitava</tspan></text></g></g><g id="g1741" transform="translate(153,103.92154)"><g id="g1739" transform="scale(1.5)"><path id="path1733" d="m 8.5,0.5 h 60 v 20 h -60 v -8 -1 h -6 v 3 h -2 v -8 h 2 v 3 h 6 v -1 z" style="fill:#7cd622;fill-opacity:1;stroke:#57ad02;stroke-width:1;stroke-linecap:round;stroke-opacity:1"/><text id="text1737" style="font-size:10px;font-family:sans-serif;text-anchor:start;fill:#000"><tspan id="tspan1735" x="13.333" y="13.833">mi</tspan></text></g></g><g id="g1751" transform="translate(153,135.42154)"><g id="g1749" transform="scale(1.5)"><path id="path1743" d="m 8.5,0.5 h 60 v 20 h -60 v -8 -1 h -6 v 3 h -2 v -8 h 2 v 3 h 6 v -1 z" style="fill:#ff6ea1;fill-opacity:1;stroke:#ff2c76;stroke-width:1;stroke-linecap:round;stroke-opacity:1"/><text id="text1747" style="font-size:10px;font-family:sans-serif;text-anchor:start;fill:#000"><tspan id="tspan1745" x="13.333" y="13.833">4</tspan></text></g></g><g id="g1769" transform="translate(79.5,166.92154)"><g id="g1767" transform="scale(1.5)"><path id="path1753" d="m -43.5,8.5 v -4 c 0,-2.209139 1.790861,-4 4,-4 h 4 v 2 h 10 v -2 h 74 4 c 2.209139,0 4,1.790861 4,4 v 4 h -4 v -3 h -4 v 10 h 4 v -3 h 4 v 17 h -4 v -3 h -4 v 10 h 4 v -3 h 4 v 4 c 0,2.209139 -1.790861,4 -4,4 h -4 -74 -1 v 2 h -8 v -2 h -1 -4 c -2.209139,0 -4.698591,-1.904227 -4,-4 v -4 -21 z" style="fill:#7cd622;fill-opacity:1;stroke:#57ad02;stroke-width:1;stroke-linecap:round;stroke-opacity:1"/><text id="text1757" style="font-size:10px;font-family:sans-serif;text-anchor:end;fill:#000"><tspan id="tspan1755" x="46.333" y="24">determinar o tom</tspan></text><text id="text1761" style="font-size:6.66666651px;font-family:sans-serif;text-anchor:end;fill:#000"><tspan id="tspan1759" x="46.333" y="11.25">nome</tspan></text><text id="text1765" style="font-size:6.66666651px;font-family:sans-serif;text-anchor:end;fill:#000"><tspan id="tspan1763" x="46.333" y="32.25">oitava</tspan></text></g></g><g id="g1779" transform="translate(153,166.92154)"><g id="g1777" transform="scale(1.5)"><path id="path1771" d="m 8.5,0.5 h 60 v 20 h -60 v -8 -1 h -6 v 3 h -2 v -8 h 2 v 3 h 6 v -1 z" style="fill:#7cd622;fill-opacity:1;stroke:#57ad02;stroke-width:1;stroke-linecap:round;stroke-opacity:1"/><text id="text1775" style="font-size:10px;font-family:sans-serif;text-anchor:start;fill:#000"><tspan id="tspan1773" x="13.333" y="13.833">re</tspan></text></g></g><g id="g1789" transform="translate(153,198.42154)"><g id="g1787" transform="scale(1.5)"><path id="path1781" d="m 8.5,0.5 h 60 v 20 h -60 v -8 -1 h -6 v 3 h -2 v -8 h 2 v 3 h 6 v -1 z" style="fill:#ff6ea1;fill-opacity:1;stroke:#ff2c76;stroke-width:1;stroke-linecap:round;stroke-opacity:1"/><text id="text1785" style="font-size:10px;font-family:sans-serif;text-anchor:start;fill:#000"><tspan id="tspan1783" x="13.333" y="13.833">4</tspan></text></g></g><g id="g1807" transform="translate(15.5,229.92154)"><g id="g1805" transform="scale(1.5)"><path id="path1791" d="m -0.83333333,8.5 v -4 c 0,-2.209139 1.790861,-4 4.00000003,-4 h 4 v 2 H 17.166667 v -2 h 41.894856 4 c 2.209139,0 4,1.790861 4,4 v 4 h -4 v -3 h -4 v 10 h 4 v -3 h 4 v 17 h -4 v -3 h -4 v 10 h 4 v -3 h 4 v 4 c 0,2.209139 -1.790861,4 -4,4 h -4 -41.894856 -1 v 2 H 8.1666667 v -2 h -1 -4 c -2.20913903,0 -4.6985911,-1.904227 -4.00000003,-4 v -4 -21 z" style="fill:#92a9ff;fill-opacity:1;stroke:#5370dc;stroke-width:1;stroke-linecap:round;stroke-opacity:1"/><text id="text1795" style="font-size:10px;font-family:sans-serif;text-anchor:end;fill:#000"><tspan id="tspan1793" x="56.895" y="24">Ritmo</tspan></text><text id="text1799" style="font-size:6.66666651px;font-family:sans-serif;text-anchor:end;fill:#000"><tspan id="tspan1797" x="56.895" y="11.25">número de notas</tspan></text><text id="text1803" style="font-size:6.66666651px;font-family:sans-serif;text-anchor:end;fill:#000"><tspan id="tspan1801" x="56.895" y="32.25">valor de nota</tspan></text></g></g><g id="g1817" transform="translate(104.8423,229.92154)"><g id="g1815" transform="scale(1.5)"><path id="path1809" d="m 8.5,0.5 h 60 v 20 h -60 v -8 -1 h -6 v 3 h -2 v -8 h 2 v 3 h 6 v -1 z" style="fill:#ff6ea1;fill-opacity:1;stroke:#ff2c76;stroke-width:1;stroke-linecap:round;stroke-opacity:1"/><text id="text1813" style="font-size:10px;font-family:sans-serif;text-anchor:start;fill:#000"><tspan id="tspan1811" x="13.333" y="13.833">3</tspan></text></g></g><g id="g1835" transform="translate(104.8423,261.42154)"><g id="g1833" transform="scale(1.5)"><path id="path1819" d="m 8.5,8.5 v -4 a 4,4 90 0 1 4,-4 h 4 10 30 4 a 4,4 90 0 1 4,4 v 4 h -4 v -3 h -4 v 10 h 4 v -3 h 4 v 17 h -4 v -3 h -4 v 10 h 4 v -3 h 4 v 4 a 4,4 90 0 1 -4,4 h -4 -30 -10 -4 a 4,4 90 0 1 -4,-4 v -4 -21 -1 h -6 v 3 h -2 v -8 h 2 v 3 h 6 z" style="fill:#ff6ea1;fill-opacity:1;stroke:#ff2c76;stroke-width:1;stroke-linecap:round;stroke-opacity:1"/><text id="text1823" style="font-size:14px;font-family:sans-serif;text-anchor:end;fill:#000"><tspan id="tspan1821" x="54.333" y="23.8">/</tspan></text></g></g><g id="g1845" transform="translate(190.3423,261.42154)"><g id="g1843" transform="scale(1.5)"><path id="path1837" d="m 8.5,0.5 h 60 v 20 h -60 v -8 -1 h -6 v 3 h -2 v -8 h 2 v 3 h 6 v -1 z" style="fill:#ff6ea1;fill-opacity:1;stroke:#ff2c76;stroke-width:1;stroke-linecap:round;stroke-opacity:1"/><text id="text1841" style="font-size:10px;font-family:sans-serif;text-anchor:start;fill:#000"><tspan id="tspan1839" x="13.333" y="13.833">1</tspan></text></g></g><g id="g1855" transform="translate(190.3423,292.92154)"><g id="g1853" transform="scale(1.5)"><path id="path1847" d="m 8.5,0.5 h 60 v 20 h -60 v -8 -1 h -6 v 3 h -2 v -8 h 2 v 3 h 6 v -1 z" style="fill:#ff6ea1;fill-opacity:1;stroke:#ff2c76;stroke-width:1;stroke-linecap:round;stroke-opacity:1"/><text id="text1851" style="font-size:10px;font-family:sans-serif;text-anchor:start;fill:#000"><tspan id="tspan1849" x="13.333" y="13.833">4</tspan></text></g></g></svg>