<svg xmlns="http://www.w3.org/2000/svg" xmlns:svg="http://www.w3.org/2000/svg" id="svg3641" width="330.5" height="522.843" version="1.1"><metadata id="metadata3670"/><g id="g1246" transform="translate(29,387.42149)"><g id="g1244" transform="scale(1.5)"><path id="path1230" d="m -0.83333333,8.5 v -4 c 0,-2.209139 1.790861,-4 4.00000003,-4 h 4 v 2 H 17.166667 v -2 h 41.894856 4 c 2.209139,0 4,1.790861 4,4 v 4 h -4 v -3 h -4 v 10 h 4 v -3 h 4 v 17 h -4 v -3 h -4 v 10 h 4 v -3 h 4 v 4 c 0,2.209139 -1.790861,4 -4,4 h -4 -41.894856 -1 v 2 H 8.1666667 v -2 h -1 -4 c -2.20913903,0 -4.6985911,-1.904227 -4.00000003,-4 v -4 -21 z" style="fill:#92a9ff;fill-opacity:1;stroke:#5370dc;stroke-width:1;stroke-linecap:round;stroke-opacity:1"/><text id="text1234" style="font-size:10px;font-family:sans-serif;text-anchor:end;fill:#000"><tspan id="tspan1232" x="56.895" y="24">Ritmo</tspan></text><text id="text1238" style="font-size:6.66666651px;font-family:sans-serif;text-anchor:end;fill:#000"><tspan id="tspan1236" x="56.895" y="11.25">número de notas</tspan></text><text id="text1242" style="font-size:6.66666651px;font-family:sans-serif;text-anchor:end;fill:#000"><tspan id="tspan1240" x="56.895" y="32.25">valor de nota</tspan></text></g></g><g id="g1256" transform="translate(118.3423,387.42149)"><g id="g1254" transform="scale(1.5)"><path id="path1248" d="m 8.5,0.5 h 60 v 20 h -60 v -8 -1 h -6 v 3 h -2 v -8 h 2 v 3 h 6 v -1 z" style="fill:#ff6ea1;fill-opacity:1;stroke:#ff2c76;stroke-width:1;stroke-linecap:round;stroke-opacity:1"/><text id="text1252" style="font-size:10px;font-family:sans-serif;text-anchor:start;fill:#000"><tspan id="tspan1250" x="13.333" y="13.833">1</tspan></text></g></g><g id="g1274" transform="translate(118.3423,418.92149)"><g id="g1272" transform="scale(1.5)"><path id="path1258" d="m 8.5,8.5 v -4 a 4,4 90 0 1 4,-4 h 4 10 30 4 a 4,4 90 0 1 4,4 v 4 h -4 v -3 h -4 v 10 h 4 v -3 h 4 v 17 h -4 v -3 h -4 v 10 h 4 v -3 h 4 v 4 a 4,4 90 0 1 -4,4 h -4 -30 -10 -4 a 4,4 90 0 1 -4,-4 v -4 -21 -1 h -6 v 3 h -2 v -8 h 2 v 3 h 6 z" style="fill:#ff6ea1;fill-opacity:1;stroke:#ff2c76;stroke-width:1;stroke-linecap:round;stroke-opacity:1"/><text id="text1262" style="font-size:14px;font-family:sans-serif;text-anchor:end;fill:#000"><tspan id="tspan1260" x="54.333" y="23.8">/</tspan></text></g></g><g id="g1284" transform="translate(203.8423,418.92149)"><g id="g1282" transform="scale(1.5)"><path id="path1276" d="m 8.5,0.5 h 60 v 20 h -60 v -8 -1 h -6 v 3 h -2 v -8 h 2 v 3 h 6 v -1 z" style="fill:#ff6ea1;fill-opacity:1;stroke:#ff2c76;stroke-width:1;stroke-linecap:round;stroke-opacity:1"/><text id="text1280" style="font-size:10px;font-family:sans-serif;text-anchor:start;fill:#000"><tspan id="tspan1278" x="13.333" y="13.833">1</tspan></text></g></g><g id="g1294" transform="translate(203.8423,450.42149)"><g id="g1292" transform="scale(1.5)"><path id="path1286" d="m 8.5,0.5 h 60 v 20 h -60 v -8 -1 h -6 v 3 h -2 v -8 h 2 v 3 h 6 v -1 z" style="fill:#ff6ea1;fill-opacity:1;stroke:#ff2c76;stroke-width:1;stroke-linecap:round;stroke-opacity:1"/><text id="text1290" style="font-size:10px;font-family:sans-serif;text-anchor:start;fill:#000"><tspan id="tspan1288" x="13.333" y="13.833">4</tspan></text></g></g><g id="g1304" transform="translate(27,355.92149)"><g id="g1302" transform="scale(1.5)"><path id="path1296" d="m 0.5,8.5 v -4 a 4,4 90 0 1 4,-4 h 4 v 2 h 10 v -2 h 20 4 a 4,4 90 0 1 4,4 v 4 4 4 a 4,4 90 0 1 -4,4 h -4 -20 -1 v 2 h -8 v -2 h -1 -4 a 4,4 90 0 1 -4,-4 v -4 z" style="fill:#c4c4c4;fill-opacity:1;stroke:#000;stroke-width:1;stroke-linecap:round;stroke-opacity:1"/><text id="text1300" style="font-size:10px;font-family:sans-serif;text-anchor:end;fill:#000"><tspan id="tspan1298" x="36.333" y="13.5">↓</tspan></text></g></g><path id="path1306" d="m 14.25,242.67149 v -6 c 0,-3.31371 2.686291,-6 6,-6 h 6 v 3 h 15 v -3 h 13.5 86 6 c 3.31371,0 6,2.68629 6,6 v 6 h -6 v -4.5 h -6 v 15 h 6 v -4.5 h 6 v 6 c 0,3.31371 -2.68629,6 -6,6 h -6 -86 -1.5 v 3 h -12 v -3 h -1.5 -6 c -4.142136,0 -7.5,3.35786 -7.5,7.5 v 6 6 157.5 6 c 0,4.14213 3.357864,7.5 7.5,7.5 h 6 v 3 h 15 v -3 h 12 v 9 9 6 c 0,3.31371 -2.686291,6 -6,6 h -6 -13.5 -1.5 v 3 h -12 v -3 h -1.5 -6 c -3.313709,0 -6,-2.68629 -6,-6 v -6 z" style="fill:#92a9ff;fill-opacity:1;stroke:#5370dc;stroke-width:1.5;stroke-linecap:round;stroke-opacity:1"/><text id="text1310" x="13.5" y="229.921" style="font-size:15px;font-family:sans-serif;text-anchor:start;fill:#000;stroke-width:1.5"><tspan id="tspan1308" x="21.5" y="252.796" style="stroke-width:1.5">tuplet</tspan></text><text id="text1314" x="37.5" y="229.921" style="font-size:10px;font-family:sans-serif;text-anchor:end;fill:#000;stroke-width:1.5"><tspan id="tspan1312" x="135.5" y="246.796" style="stroke-width:1.5">valor de nota</tspan></text><g id="g1336" transform="translate(141.5,229.92149)"><g id="g1334" transform="scale(1.5)"><path id="path1320" d="m 8.5,8.5 v -4 a 4,4 90 0 1 4,-4 h 4 10 30 4 a 4,4 90 0 1 4,4 v 4 h -4 v -3 h -4 v 10 h 4 v -3 h 4 v 17 h -4 v -3 h -4 v 10 h 4 v -3 h 4 v 4 a 4,4 90 0 1 -4,4 h -4 -30 -10 -4 a 4,4 90 0 1 -4,-4 v -4 -21 -1 h -6 v 3 h -2 v -8 h 2 v 3 h 6 z" style="fill:#ff6ea1;fill-opacity:1;stroke:#ff2c76;stroke-width:1;stroke-linecap:round;stroke-opacity:1"/><text id="text1324" style="font-size:14px;font-family:sans-serif;text-anchor:end;fill:#000"><tspan id="tspan1322" x="54.333" y="23.8">/</tspan></text></g></g><g id="g1346" transform="translate(227,229.92149)"><g id="g1344" transform="scale(1.5)"><path id="path1338" d="m 8.5,0.5 h 60 v 20 h -60 v -8 -1 h -6 v 3 h -2 v -8 h 2 v 3 h 6 v -1 z" style="fill:#ff6ea1;fill-opacity:1;stroke:#ff2c76;stroke-width:1;stroke-linecap:round;stroke-opacity:1"/><text id="text1342" style="font-size:10px;font-family:sans-serif;text-anchor:start;fill:#000"><tspan id="tspan1340" x="13.333" y="13.833">1</tspan></text></g></g><g id="g1356" transform="translate(227,261.42149)"><g id="g1354" transform="scale(1.5)"><path id="path1348" d="m 8.5,0.5 h 60 v 20 h -60 v -8 -1 h -6 v 3 h -2 v -8 h 2 v 3 h 6 v -1 z" style="fill:#ff6ea1;fill-opacity:1;stroke:#ff2c76;stroke-width:1;stroke-linecap:round;stroke-opacity:1"/><text id="text1352" style="font-size:10px;font-family:sans-serif;text-anchor:start;fill:#000"><tspan id="tspan1350" x="13.333" y="13.833">2</tspan></text></g></g><g id="g1366" transform="translate(27,261.42149)"><g id="g1364" transform="scale(1.5)"><path id="path1358" d="m 0.5,8.5 v -4 a 4,4 90 0 1 4,-4 h 4 v 2 h 10 v -2 h 20 4 a 4,4 90 0 1 4,4 v 4 4 4 a 4,4 90 0 1 -4,4 h -4 -20 -1 v 2 h -8 v -2 h -1 -4 a 4,4 90 0 1 -4,-4 v -4 z" style="fill:#c4c4c4;fill-opacity:1;stroke:#000;stroke-width:1;stroke-linecap:round;stroke-opacity:1"/><text id="text1362" style="font-size:10px;font-family:sans-serif;text-anchor:end;fill:#000"><tspan id="tspan1360" x="36.333" y="13.5">↓</tspan></text></g></g><g id="g1384" transform="translate(29,292.92149)"><g id="g1382" transform="scale(1.5)"><path id="path1368" d="m -0.83333333,8.5 v -4 c 0,-2.209139 1.790861,-4 4.00000003,-4 h 4 v 2 H 17.166667 v -2 h 41.894856 4 c 2.209139,0 4,1.790861 4,4 v 4 h -4 v -3 h -4 v 10 h 4 v -3 h 4 v 17 h -4 v -3 h -4 v 10 h 4 v -3 h 4 v 4 c 0,2.209139 -1.790861,4 -4,4 h -4 -41.894856 -1 v 2 H 8.1666667 v -2 h -1 -4 c -2.20913903,0 -4.6985911,-1.904227 -4.00000003,-4 v -4 -21 z" style="fill:#92a9ff;fill-opacity:1;stroke:#5370dc;stroke-width:1;stroke-linecap:round;stroke-opacity:1"/><text id="text1372" style="font-size:10px;font-family:sans-serif;text-anchor:end;fill:#000"><tspan id="tspan1370" x="56.895" y="24">Ritmo</tspan></text><text id="text1376" style="font-size:6.66666651px;font-family:sans-serif;text-anchor:end;fill:#000"><tspan id="tspan1374" x="56.895" y="11.25">número de notas</tspan></text><text id="text1380" style="font-size:6.66666651px;font-family:sans-serif;text-anchor:end;fill:#000"><tspan id="tspan1378" x="56.895" y="32.25">valor de nota</tspan></text></g></g><g id="g1394" transform="translate(118.3423,292.92149)"><g id="g1392" transform="scale(1.5)"><path id="path1386" d="m 8.5,0.5 h 60 v 20 h -60 v -8 -1 h -6 v 3 h -2 v -8 h 2 v 3 h 6 v -1 z" style="fill:#ff6ea1;fill-opacity:1;stroke:#ff2c76;stroke-width:1;stroke-linecap:round;stroke-opacity:1"/><text id="text1390" style="font-size:10px;font-family:sans-serif;text-anchor:start;fill:#000"><tspan id="tspan1388" x="13.333" y="13.833">3</tspan></text></g></g><g id="g1412" transform="translate(118.3423,324.42149)"><g id="g1410" transform="scale(1.5)"><path id="path1396" d="m 8.5,8.5 v -4 a 4,4 90 0 1 4,-4 h 4 10 30 4 a 4,4 90 0 1 4,4 v 4 h -4 v -3 h -4 v 10 h 4 v -3 h 4 v 17 h -4 v -3 h -4 v 10 h 4 v -3 h 4 v 4 a 4,4 90 0 1 -4,4 h -4 -30 -10 -4 a 4,4 90 0 1 -4,-4 v -4 -21 -1 h -6 v 3 h -2 v -8 h 2 v 3 h 6 z" style="fill:#ff6ea1;fill-opacity:1;stroke:#ff2c76;stroke-width:1;stroke-linecap:round;stroke-opacity:1"/><text id="text1400" style="font-size:14px;font-family:sans-serif;text-anchor:end;fill:#000"><tspan id="tspan1398" x="54.333" y="23.8">/</tspan></text></g></g><g id="g1422" transform="translate(203.8423,324.42149)"><g id="g1420" transform="scale(1.5)"><path id="path1414" d="m 8.5,0.5 h 60 v 20 h -60 v -8 -1 h -6 v 3 h -2 v -8 h 2 v 3 h 6 v -1 z" style="fill:#ff6ea1;fill-opacity:1;stroke:#ff2c76;stroke-width:1;stroke-linecap:round;stroke-opacity:1"/><text id="text1418" style="font-size:10px;font-family:sans-serif;text-anchor:start;fill:#000"><tspan id="tspan1416" x="13.333" y="13.833">1</tspan></text></g></g><g id="g1432" transform="translate(203.8423,355.92149)"><g id="g1430" transform="scale(1.5)"><path id="path1424" d="m 8.5,0.5 h 60 v 20 h -60 v -8 -1 h -6 v 3 h -2 v -8 h 2 v 3 h 6 v -1 z" style="fill:#ff6ea1;fill-opacity:1;stroke:#ff2c76;stroke-width:1;stroke-linecap:round;stroke-opacity:1"/><text id="text1428" style="font-size:10px;font-family:sans-serif;text-anchor:start;fill:#000"><tspan id="tspan1426" x="13.333" y="13.833">16</tspan></text></g></g><g id="g1442" transform="translate(0,0.42153745)"><g id="g1440" transform="scale(1.5)"><path id="path1434" d="m 0.5,14.5 v -4 a 4,4 90 0 1 4,-4 h 4 l 5,-6 5,6 h 9 63.344727 4 a 4,4 90 0 1 4,4 v 4 4 4 a 4,4 90 0 1 -4,4 h -4 H 27.5 h -1 v 2 h -8 v -2 h -1 -4 a 5,5 90 0 0 -5,5 v 4 4 273 4 a 5,5 90 0 0 5,5 h 4 v 2 h 10 v -2 h 8 v 6 6 4 a 4,4 90 0 1 -4,4 h -4 -9 l -5,6 -5,-6 h -4 a 4,4 90 0 1 -4,-4 v -4 z" style="fill:#92a9ff;fill-opacity:1;stroke:#5370dc;stroke-width:1;stroke-linecap:round;stroke-opacity:1"/><text id="text1438" style="font-size:10px;font-family:sans-serif;text-anchor:start;fill:#000"><tspan id="tspan1436" x="5.333" y="21.5">criador de frase</tspan></text></g></g><g id="g1460" transform="translate(79.5,40.921494)"><g id="g1458" transform="scale(1.5)"><path id="path1444" d="m -43.5,8.5 v -4 c 0,-2.209139 1.790861,-4 4,-4 h 4 v 2 h 10 v -2 h 74 4 c 2.209139,0 4,1.790861 4,4 v 4 h -4 v -3 h -4 v 10 h 4 v -3 h 4 v 17 h -4 v -3 h -4 v 10 h 4 v -3 h 4 v 4 c 0,2.209139 -1.790861,4 -4,4 h -4 -74 -1 v 2 h -8 v -2 h -1 -4 c -2.209139,0 -4.698591,-1.904227 -4,-4 v -4 -21 z" style="fill:#7cd622;fill-opacity:1;stroke:#57ad02;stroke-width:1;stroke-linecap:round;stroke-opacity:1"/><text id="text1448" style="font-size:10px;font-family:sans-serif;text-anchor:end;fill:#000"><tspan id="tspan1446" x="46.333" y="24">determinar o tom</tspan></text><text id="text1452" style="font-size:6.66666651px;font-family:sans-serif;text-anchor:end;fill:#000"><tspan id="tspan1450" x="46.333" y="11.25">nome</tspan></text><text id="text1456" style="font-size:6.66666651px;font-family:sans-serif;text-anchor:end;fill:#000"><tspan id="tspan1454" x="46.333" y="32.25">oitava</tspan></text></g></g><g id="g1470" transform="translate(153,40.921494)"><g id="g1468" transform="scale(1.5)"><path id="path1462" d="m 8.5,0.5 h 60 v 20 h -60 v -8 -1 h -6 v 3 h -2 v -8 h 2 v 3 h 6 v -1 z" style="fill:#7cd622;fill-opacity:1;stroke:#57ad02;stroke-width:1;stroke-linecap:round;stroke-opacity:1"/><text id="text1466" style="font-size:10px;font-family:sans-serif;text-anchor:start;fill:#000"><tspan id="tspan1464" x="13.333" y="13.833">sol</tspan></text></g></g><g id="g1480" transform="translate(153,72.421494)"><g id="g1478" transform="scale(1.5)"><path id="path1472" d="m 8.5,0.5 h 60 v 20 h -60 v -8 -1 h -6 v 3 h -2 v -8 h 2 v 3 h 6 v -1 z" style="fill:#ff6ea1;fill-opacity:1;stroke:#ff2c76;stroke-width:1;stroke-linecap:round;stroke-opacity:1"/><text id="text1476" style="font-size:10px;font-family:sans-serif;text-anchor:start;fill:#000"><tspan id="tspan1474" x="13.333" y="13.833">4</tspan></text></g></g><g id="g1498" transform="translate(79.5,103.92149)"><g id="g1496" transform="scale(1.5)"><path id="path1482" d="m -43.5,8.5 v -4 c 0,-2.209139 1.790861,-4 4,-4 h 4 v 2 h 10 v -2 h 74 4 c 2.209139,0 4,1.790861 4,4 v 4 h -4 v -3 h -4 v 10 h 4 v -3 h 4 v 17 h -4 v -3 h -4 v 10 h 4 v -3 h 4 v 4 c 0,2.209139 -1.790861,4 -4,4 h -4 -74 -1 v 2 h -8 v -2 h -1 -4 c -2.209139,0 -4.698591,-1.904227 -4,-4 v -4 -21 z" style="fill:#7cd622;fill-opacity:1;stroke:#57ad02;stroke-width:1;stroke-linecap:round;stroke-opacity:1"/><text id="text1486" style="font-size:10px;font-family:sans-serif;text-anchor:end;fill:#000"><tspan id="tspan1484" x="46.333" y="24">determinar o tom</tspan></text><text id="text1490" style="font-size:6.66666651px;font-family:sans-serif;text-anchor:end;fill:#000"><tspan id="tspan1488" x="46.333" y="11.25">nome</tspan></text><text id="text1494" style="font-size:6.66666651px;font-family:sans-serif;text-anchor:end;fill:#000"><tspan id="tspan1492" x="46.333" y="32.25">oitava</tspan></text></g></g><g id="g1508" transform="translate(153,103.92149)"><g id="g1506" transform="scale(1.5)"><path id="path1500" d="m 8.5,0.5 h 60 v 20 h -60 v -8 -1 h -6 v 3 h -2 v -8 h 2 v 3 h 6 v -1 z" style="fill:#7cd622;fill-opacity:1;stroke:#57ad02;stroke-width:1;stroke-linecap:round;stroke-opacity:1"/><text id="text1504" style="font-size:10px;font-family:sans-serif;text-anchor:start;fill:#000"><tspan id="tspan1502" x="13.333" y="13.833">mi</tspan></text></g></g><g id="g1518" transform="translate(153,135.42149)"><g id="g1516" transform="scale(1.5)"><path id="path1510" d="m 8.5,0.5 h 60 v 20 h -60 v -8 -1 h -6 v 3 h -2 v -8 h 2 v 3 h 6 v -1 z" style="fill:#ff6ea1;fill-opacity:1;stroke:#ff2c76;stroke-width:1;stroke-linecap:round;stroke-opacity:1"/><text id="text1514" style="font-size:10px;font-family:sans-serif;text-anchor:start;fill:#000"><tspan id="tspan1512" x="13.333" y="13.833">4</tspan></text></g></g><g id="g1536" transform="translate(79.5,166.92149)"><g id="g1534" transform="scale(1.5)"><path id="path1520" d="m -43.5,8.5 v -4 c 0,-2.209139 1.790861,-4 4,-4 h 4 v 2 h 10 v -2 h 74 4 c 2.209139,0 4,1.790861 4,4 v 4 h -4 v -3 h -4 v 10 h 4 v -3 h 4 v 17 h -4 v -3 h -4 v 10 h 4 v -3 h 4 v 4 c 0,2.209139 -1.790861,4 -4,4 h -4 -74 -1 v 2 h -8 v -2 h -1 -4 c -2.209139,0 -4.698591,-1.904227 -4,-4 v -4 -21 z" style="fill:#7cd622;fill-opacity:1;stroke:#57ad02;stroke-width:1;stroke-linecap:round;stroke-opacity:1"/><text id="text1524" style="font-size:10px;font-family:sans-serif;text-anchor:end;fill:#000"><tspan id="tspan1522" x="46.333" y="24">determinar o tom</tspan></text><text id="text1528" style="font-size:6.66666651px;font-family:sans-serif;text-anchor:end;fill:#000"><tspan id="tspan1526" x="46.333" y="11.25">nome</tspan></text><text id="text1532" style="font-size:6.66666651px;font-family:sans-serif;text-anchor:end;fill:#000"><tspan id="tspan1530" x="46.333" y="32.25">oitava</tspan></text></g></g><g id="g1546" transform="translate(153,166.92149)"><g id="g1544" transform="scale(1.5)"><path id="path1538" d="m 8.5,0.5 h 60 v 20 h -60 v -8 -1 h -6 v 3 h -2 v -8 h 2 v 3 h 6 v -1 z" style="fill:#7cd622;fill-opacity:1;stroke:#57ad02;stroke-width:1;stroke-linecap:round;stroke-opacity:1"/><text id="text1542" style="font-size:10px;font-family:sans-serif;text-anchor:start;fill:#000"><tspan id="tspan1540" x="13.333" y="13.833">re</tspan></text></g></g><g id="g1556" transform="translate(153,198.42149)"><g id="g1554" transform="scale(1.5)"><path id="path1548" d="m 8.5,0.5 h 60 v 20 h -60 v -8 -1 h -6 v 3 h -2 v -8 h 2 v 3 h 6 v -1 z" style="fill:#ff6ea1;fill-opacity:1;stroke:#ff2c76;stroke-width:1;stroke-linecap:round;stroke-opacity:1"/><text id="text1552" style="font-size:10px;font-family:sans-serif;text-anchor:start;fill:#000"><tspan id="tspan1550" x="13.333" y="13.833">4</tspan></text></g></g></svg>