<svg xmlns="http://www.w3.org/2000/svg" xmlns:svg="http://www.w3.org/2000/svg" id="svg5587" width="208.956" height="135.79" version="1.1" viewBox="0 0 208.956 135.79"><metadata id="metadata5592"/><g id="g857" transform="matrix(0.93750006,0,0,0.93750006,0,0.39519139)"><g id="g855" transform="scale(1.5)"><path id="path849" d="m 0.5,14.5 v -4 c 0,-2.209139 1.790861,-4 4,-4 h 4 l 5,-6 5,6 h 9 77.04663 4 c 2.20914,0 4.74009,1.9185168 4,4 v 4 4 4 c 0,2.209139 -1.79086,4 -4,4 h -4 H 27.5 h -1 v 2 h -8 v -2 h -1 -4 c -2.761424,0 -5,2.238576 -5,5 v 4 4 21 4 c 0,2.761424 2.238576,5 5,5 h 4 v 2 h 10 v -2 h 8 v 6 6 4 c 0,2.209139 -1.790861,4 -4,4 h -4 -9 l -5,6 -5,-6 h -4 c -2.209139,0 -4,-1.790861 -4,-4 v -4 z" style="fill:#92a9ff;fill-opacity:1;stroke:#5370dc;stroke-width:1;stroke-linecap:round;stroke-opacity:1"/><text id="text853" style="font-size:10px;font-family:sans-serif;text-anchor:start;fill:#000"><tspan id="tspan851" x="5.333" y="21.5">modo personalizado</tspan></text></g></g><g id="g875" transform="matrix(0.93750006,0,0,0.93750006,40.65626,38.363941)"><g id="g873" transform="scale(1.5)"><path id="path859" d="m -19.41111,8.5 v -4 c 0,-2.209139 1.790861,-4 4,-4 h 4 v 2 h 10.0000002 v -2 h 51.5907968 4 c 2.209139,0 4,1.790861 4,4 v 4 h -4 v -3 h -4 v 10 h 4 v -3 h 4 v 17 h -4 v -3 h -4 v 10 h 4 v -3 h 4 v 4 c 0,2.209139 -1.790861,4 -4,4 h -4 -51.5907968 -1 v 2 H -10.41111 v -2 h -1 -4 c -2.209139,0 -4,-1.790861 -4,-4 v -4 -21 z" style="fill:#3edcdd;fill-opacity:1;stroke:#000;stroke-width:1;stroke-linecap:round;stroke-opacity:1"/><text id="text863" style="font-size:10px;font-family:sans-serif;text-anchor:end;fill:#000"><tspan id="tspan861" x="48.013" y="24">definir chave</tspan></text><text id="text867" style="font-size:6.66666651px;font-family:sans-serif;text-anchor:end;fill:#000"><tspan id="tspan865" x="48.013" y="11.25">chave</tspan></text><text id="text871" style="font-size:6.66666651px;font-family:sans-serif;text-anchor:end;fill:#000"><tspan id="tspan869" x="48.013" y="32.25">modo</tspan></text></g></g><g id="g885" transform="matrix(0.93750006,0,0,0.93750006,111.92457,38.363941)"><g id="g883" transform="scale(1.5)"><path id="path877" d="m 8.5,0.5 h 60 v 20 h -60 v -8 -1 h -6 v 3 h -2 v -8 h 2 v 3 h 6 v -1 z" style="fill:#7cd622;fill-opacity:1;stroke:#57ad02;stroke-width:1;stroke-linecap:round;stroke-opacity:1"/><text id="text881" style="font-size:10px;font-family:sans-serif;text-anchor:start;fill:#000"><tspan id="tspan879" x="13.333" y="13.833">C</tspan></text></g></g><g id="g895" transform="matrix(0.93750006,0,0,0.93750006,111.92457,67.895191)"><g id="g893" transform="scale(1.5)"><path id="path887" d="m 8.5,0.5 h 60 v 20 h -60 v -8 -1 h -6 v 3 h -2 v -8 h 2 v 3 h 6 v -1 z" style="fill:#7cd622;fill-opacity:1;stroke:#57ad02;stroke-width:1;stroke-linecap:round;stroke-opacity:1"/><text id="text891" style="font-size:10px;font-family:sans-serif;text-anchor:start;fill:#000"><tspan id="tspan889" x="13.333" y="13.833">maior</tspan></text></g></g></svg>