<svg xmlns="http://www.w3.org/2000/svg" xmlns:svg="http://www.w3.org/2000/svg" id="svg4455" width="299.221" height="223.5" version="1.1"><metadata id="metadata4461"/><g id="g4319"><g id="g4317" transform="scale(1.5)"><path style="fill:#fe994f;fill-opacity:1;stroke:#e8680e;stroke-width:1;stroke-linecap:round;stroke-opacity:1" id="path4307" d="m 0.5,8.5 v -4 c 0,-2.209139 1.790861,-4 4,-4 h 4 v 2 h 10 v -2 h 9 45.480794 4 c 2.209139,0 4.698591,1.9042267 4,4 v 4 h -4 v -3 h -4 v 10 h 4 v -3 h 4 v 4 c 0,2.209139 -1.790861,4 -4,4 h -4 H 27.5 h -1 v 2 h -8 v -2 h -1 -4 c -2.761424,0 -5,2.238576 -5,5 v 4 4 84 4 c 0,2.76142 2.238576,5 5,5 h 4 v 2 h 10 v -2 h 8 v 6 6 4 c 0,2.20914 -1.790861,4 -4,4 h -4 -9 -1 v 2 h -8 v -2 h -1 -4 c -2.209139,0 -4,-1.79086 -4,-4 v -4 z"/><text style="font-size:10px;font-family:sans-serif;text-anchor:start;fill:#000" id="text4311"><tspan id="tspan4309" x="5.333" y="15.25">valor de nota</tspan></text></g></g><g id="g4337" transform="translate(110.22119)"><g id="g4335" transform="scale(1.5)"><path style="fill:#ff6ea1;fill-opacity:1;stroke:#ff2c76;stroke-width:1;stroke-linecap:round;stroke-opacity:1" id="path4321" d="m 8.5,8.5 v -4 a 4,4 90 0 1 4,-4 h 4 10 30 4 a 4,4 90 0 1 4,4 v 4 h -4 v -3 h -4 v 10 h 4 v -3 h 4 v 17 h -4 v -3 h -4 v 10 h 4 v -3 h 4 v 4 a 4,4 90 0 1 -4,4 h -4 -30 -10 -4 a 4,4 90 0 1 -4,-4 v -4 -21 -1 h -6 v 3 h -2 v -8 h 2 v 3 h 6 z"/><text style="font-size:14px;font-family:sans-serif;text-anchor:end;fill:#000" id="text4325"><tspan id="tspan4323" x="54.333" y="23.8">/</tspan></text></g></g><g id="g4347" transform="translate(195.72119)"><g id="g4345" transform="scale(1.5)"><path style="fill:#ff6ea1;fill-opacity:1;stroke:#ff2c76;stroke-width:1;stroke-linecap:round;stroke-opacity:1" id="path4339" d="m 8.5,0.5 h 60 v 20 h -60 v -8 -1 h -6 v 3 h -2 v -8 h 2 v 3 h 6 v -1 z"/><text style="font-size:10px;font-family:sans-serif;text-anchor:start;fill:#000" id="text4343"><tspan id="tspan4341" x="13.333" y="13.833">1</tspan></text></g></g><g id="g4357" transform="translate(195.72119,31.5)"><g id="g4355" transform="scale(1.5)"><path style="fill:#ff6ea1;fill-opacity:1;stroke:#ff2c76;stroke-width:1;stroke-linecap:round;stroke-opacity:1" id="path4349" d="m 8.5,0.5 h 60 v 20 h -60 v -8 -1 h -6 v 3 h -2 v -8 h 2 v 3 h 6 v -1 z"/><text style="font-size:10px;font-family:sans-serif;text-anchor:start;fill:#000" id="text4353"><tspan id="tspan4351" x="13.333" y="13.833">4</tspan></text></g></g><g id="g4367" transform="translate(13.5,31.5)"><g id="g4365" transform="scale(1.5)"><path style="fill:#c4c4c4;fill-opacity:1;stroke:#000;stroke-width:1;stroke-linecap:round;stroke-opacity:1" id="path4359" d="m 0.5,8.5 v -4 a 4,4 90 0 1 4,-4 h 4 v 2 h 10 v -2 h 20 4 a 4,4 90 0 1 4,4 v 4 4 4 a 4,4 90 0 1 -4,4 h -4 -20 -1 v 2 h -8 v -2 h -1 -4 a 4,4 90 0 1 -4,-4 v -4 z"/><text style="font-size:10px;font-family:sans-serif;text-anchor:end;fill:#000" id="text4363"><tspan id="tspan4361" x="36.333" y="13.5">↓</tspan></text></g></g><g id="g4385" transform="translate(79.5,63)"><g id="g4383" transform="scale(1.5)"><path style="fill:#7cd622;fill-opacity:1;stroke:#57ad02;stroke-width:1;stroke-linecap:round;stroke-opacity:1" id="path4369" d="m -43.5,8.5 v -4 c 0,-2.209139 1.790861,-4 4,-4 h 4 v 2 h 10 v -2 h 74 4 c 2.209139,0 4,1.790861 4,4 v 4 h -4 v -3 h -4 v 10 h 4 v -3 h 4 v 17 h -4 v -3 h -4 v 10 h 4 v -3 h 4 v 4 c 0,2.209139 -1.790861,4 -4,4 h -4 -74 -1 v 2 h -8 v -2 h -1 -4 c -2.209139,0 -4.698591,-1.904227 -4,-4 v -4 -21 z"/><text style="font-size:10px;font-family:sans-serif;text-anchor:end;fill:#000" id="text4373"><tspan id="tspan4371" x="46.333" y="24">determinar o tom</tspan></text><text style="font-size:6.66666651px;font-family:sans-serif;text-anchor:end;fill:#000" id="text4377"><tspan id="tspan4375" x="46.333" y="11.25">nome</tspan></text><text style="font-size:6.66666651px;font-family:sans-serif;text-anchor:end;fill:#000" id="text4381"><tspan id="tspan4379" x="46.333" y="32.25">oitava</tspan></text></g></g><g id="g4395" transform="translate(153,63)"><g id="g4393" transform="scale(1.5)"><path style="fill:#7cd622;fill-opacity:1;stroke:#57ad02;stroke-width:1;stroke-linecap:round;stroke-opacity:1" id="path4387" d="m 8.5,0.5 h 60 v 20 h -60 v -8 -1 h -6 v 3 h -2 v -8 h 2 v 3 h 6 v -1 z"/><text style="font-size:10px;font-family:sans-serif;text-anchor:start;fill:#000" id="text4391"><tspan id="tspan4389" x="13.333" y="13.833">re</tspan></text></g></g><g id="g4405" transform="translate(153,94.5)"><g id="g4403" transform="scale(1.5)"><path style="fill:#ff6ea1;fill-opacity:1;stroke:#ff2c76;stroke-width:1;stroke-linecap:round;stroke-opacity:1" id="path4397" d="m 8.5,0.5 h 60 v 20 h -60 v -8 -1 h -6 v 3 h -2 v -8 h 2 v 3 h 6 v -1 z"/><text style="font-size:10px;font-family:sans-serif;text-anchor:start;fill:#000" id="text4401"><tspan id="tspan4399" x="13.333" y="13.833">5</tspan></text></g></g><g id="g4419" transform="translate(13.5,126)"><g id="g4417" transform="scale(1.5)"><path style="fill:#3edcdd;fill-opacity:1;stroke:#000;stroke-width:1;stroke-linecap:round;stroke-opacity:1" id="path4407" d="m 0.5,8.5 v -4 a 4,4 90 0 1 4,-4 h 4 v 2 h 10 v -2 h 30 4 a 4,4 90 0 1 4,4 v 4 h -4 v -3 h -4 v 10 h 4 v -3 h 4 v 4 a 4,4 90 0 1 -4,4 h -4 -30 -1 v 2 h -8 v -2 h -1 -4 a 4,4 90 0 1 -4,-4 v -4 z"/><text style="font-size:10px;font-family:sans-serif;text-anchor:end;fill:#000" id="text4411"><tspan id="tspan4409" x="46.333" y="13.5">bateria</tspan></text></g></g><g id="g4429" transform="translate(87,126)"><g id="g4427" transform="scale(1.5)"><path style="fill:#3edcdd;fill-opacity:1;stroke:#000;stroke-width:1;stroke-linecap:round;stroke-opacity:1" id="path4421" d="m 8.5,0.5 h 60 v 20 h -60 v -8 -1 h -6 v 3 h -2 v -8 h 2 v 3 h 6 v -1 z"/><text style="font-size:10px;font-family:sans-serif;text-anchor:start;fill:#000" id="text4425"><tspan id="tspan4423" x="13.333" y="13.833">tarola</tspan></text></g></g><g id="g4443" transform="translate(13.5,157.5)"><g id="g4441" transform="scale(1.5)"><path style="fill:#3edcdd;fill-opacity:1;stroke:#000;stroke-width:1;stroke-linecap:round;stroke-opacity:1" id="path4431" d="m 0.5,8.5 v -4 a 4,4 90 0 1 4,-4 h 4 v 2 h 10 v -2 h 30 4 a 4,4 90 0 1 4,4 v 4 h -4 v -3 h -4 v 10 h 4 v -3 h 4 v 4 a 4,4 90 0 1 -4,4 h -4 -30 -1 v 2 h -8 v -2 h -1 -4 a 4,4 90 0 1 -4,-4 v -4 z"/><text style="font-size:10px;font-family:sans-serif;text-anchor:end;fill:#000" id="text4435"><tspan id="tspan4433" x="46.333" y="13.5">bateria</tspan></text></g></g><g id="g4453" transform="translate(87,157.5)"><g id="g4451" transform="scale(1.5)"><path style="fill:#3edcdd;fill-opacity:1;stroke:#000;stroke-width:1;stroke-linecap:round;stroke-opacity:1" id="path4445" d="m 8.5,0.5 h 80 v 20 h -80 v -8 -1 h -6 v 3 h -2 v -8 h 2 v 3 h 6 v -1 z"/><text style="font-size:10px;font-family:sans-serif;text-anchor:start;fill:#000" id="text4449"><tspan id="tspan4447" x="13.333" y="13.833">sino triângular</tspan></text></g></g></svg>