<svg xmlns="http://www.w3.org/2000/svg" xmlns:svg="http://www.w3.org/2000/svg" id="svg2" width="508.646" height="428.414" version="1.1" xml:space="preserve"><metadata id="metadata8"/><defs id="defs6"><marker id="marker6340" orient="auto" refX="0" refY="0" style="overflow:visible"><path id="path6338" d="M 8.7185878,4.0337352 L -2.2072895,0.016013256 L 8.7185884,-4.0017078 C 6.9730900,-1.6296469 6.9831476,1.6157441 8.7185878,4.0337352 z" transform="scale(0.6) translate(0,0)" style="fill-rule:evenodd;stroke-width:.625;stroke-linejoin:round;stroke:#000;stroke-opacity:1;fill:#000;fill-opacity:1"/></marker><marker id="marker6234" orient="auto" refX="0" refY="0" style="overflow:visible"><path id="path6232" d="M 8.7185878,4.0337352 L -2.2072895,0.016013256 L 8.7185884,-4.0017078 C 6.9730900,-1.6296469 6.9831476,1.6157441 8.7185878,4.0337352 z" transform="scale(0.6) translate(0,0)" style="fill-rule:evenodd;stroke-width:.625;stroke-linejoin:round;stroke:#000;stroke-opacity:1;fill:#000;fill-opacity:1"/></marker><marker id="marker6140" orient="auto" refX="0" refY="0" style="overflow:visible"><path id="path6138" d="M -2.5,-1.0 C -2.5,1.7600000 -4.7400000,4.0 -7.5,4.0 C -10.260000,4.0 -12.5,1.7600000 -12.5,-1.0 C -12.5,-3.7600000 -10.260000,-6.0 -7.5,-6.0 C -4.7400000,-6.0 -2.5,-3.7600000 -2.5,-1.0 z" transform="scale(0.4) translate(7.4, 1)" style="fill-rule:evenodd;stroke:#000;stroke-width:1pt;stroke-opacity:1;fill:#000;fill-opacity:1"/></marker><marker id="marker5200" orient="auto" refX="0" refY="0" style="overflow:visible"><path id="path5198" d="M 8.7185878,4.0337352 L -2.2072895,0.016013256 L 8.7185884,-4.0017078 C 6.9730900,-1.6296469 6.9831476,1.6157441 8.7185878,4.0337352 z" transform="scale(0.6) translate(0,0)" style="fill-rule:evenodd;stroke-width:.625;stroke-linejoin:round;stroke:#000;stroke-opacity:1;fill:#000;fill-opacity:1"/></marker><marker id="Arrow2Mstart" orient="auto" refX="0" refY="0" style="overflow:visible"><path id="path1672" d="M 8.7185878,4.0337352 L -2.2072895,0.016013256 L 8.7185884,-4.0017078 C 6.9730900,-1.6296469 6.9831476,1.6157441 8.7185878,4.0337352 z" transform="scale(0.6) translate(0,0)" style="fill-rule:evenodd;stroke-width:.625;stroke-linejoin:round;stroke:#000;stroke-opacity:1;fill:#000;fill-opacity:1"/></marker><marker id="DotM" orient="auto" refX="0" refY="0" style="overflow:visible"><path id="path1712" d="M -2.5,-1.0 C -2.5,1.7600000 -4.7400000,4.0 -7.5,4.0 C -10.260000,4.0 -12.5,1.7600000 -12.5,-1.0 C -12.5,-3.7600000 -10.260000,-6.0 -7.5,-6.0 C -4.7400000,-6.0 -2.5,-3.7600000 -2.5,-1.0 z" transform="scale(0.4) translate(7.4, 1)" style="fill-rule:evenodd;stroke:#000;stroke-width:1pt;stroke-opacity:1;fill:#000;fill-opacity:1"/></marker><marker style="overflow:visible" id="DotL" orient="auto" refX="0" refY="0"><path style="fill-rule:evenodd;stroke:#000;stroke-width:1pt;stroke-opacity:1;fill:#000;fill-opacity:1" id="path1374" d="M -2.5,-1.0 C -2.5,1.7600000 -4.7400000,4.0 -7.5,4.0 C -10.260000,4.0 -12.5,1.7600000 -12.5,-1.0 C -12.5,-3.7600000 -10.260000,-6.0 -7.5,-6.0 C -4.7400000,-6.0 -2.5,-3.7600000 -2.5,-1.0 z" transform="scale(0.8) translate(7.4, 1)"/></marker><marker style="overflow:visible" id="Arrow2Lstart" orient="auto" refX="0" refY="0"><path style="fill-rule:evenodd;stroke-width:.625;stroke-linejoin:round;stroke:#000;stroke-opacity:1;fill:#000;fill-opacity:1" id="path1331" d="M 8.7185878,4.0337352 L -2.2072895,0.016013256 L 8.7185884,-4.0017078 C 6.9730900,-1.6296469 6.9831476,1.6157441 8.7185878,4.0337352 z" transform="scale(1.1) translate(1,0)"/></marker><marker style="overflow:visible" id="Arrow2Lend" orient="auto" refX="0" refY="0"><path style="fill-rule:evenodd;stroke-width:.625;stroke-linejoin:round;stroke:#000;stroke-opacity:1;fill:#000;fill-opacity:1" id="path1334" d="M 8.7185878,4.0337352 L -2.2072895,0.016013256 L 8.7185884,-4.0017078 C 6.9730900,-1.6296469 6.9831476,1.6157441 8.7185878,4.0337352 z" transform="scale(1.1) rotate(180) translate(1,0)"/></marker><marker style="overflow:visible" id="Arrow1Lend" orient="auto" refX="0" refY="0"><path style="fill-rule:evenodd;stroke:#000;stroke-width:1pt;stroke-opacity:1;fill:#000;fill-opacity:1" id="path1316" d="M 0.0,0.0 L 5.0,-5.0 L -12.5,0.0 L 5.0,5.0 L 0.0,0.0 z" transform="scale(0.8) rotate(180) translate(12.5,0)"/></marker><clipPath id="clipPath16" clipPathUnits="userSpaceOnUse"><path id="path18" d="M 0,792 H 612 V 0 H 0 Z"/></clipPath><clipPath id="clipPath100" clipPathUnits="userSpaceOnUse"><path id="path102" d="M 0,792 H 612 V 0 H 0 Z"/></clipPath><filter id="dropshadow-1" height="1.3"><feGaussianBlur id="feGaussianBlur3970-8" in="SourceAlpha" stdDeviation="3"/><feOffset id="feOffset3972-2" dx="2" dy="2" result="offsetblur"/><feComponentTransfer id="feComponentTransfer3974-0"><feFuncA id="feFuncA3976-2" slope=".2" type="linear"/></feComponentTransfer><feMerge id="feMerge3978-4"><feMergeNode id="feMergeNode3980-6"/><feMergeNode id="feMergeNode3982-3" in="SourceGraphic"/></feMerge></filter><filter id="dropshadow" height="1.3"><feGaussianBlur id="feGaussianBlur3970" in="SourceAlpha" stdDeviation="3"/><feOffset id="feOffset3972" dx="2" dy="2" result="offsetblur"/><feComponentTransfer id="feComponentTransfer3974"><feFuncA id="feFuncA3976" slope=".2" type="linear"/></feComponentTransfer><feMerge id="feMerge3978"><feMergeNode id="feMergeNode3980"/><feMergeNode id="feMergeNode3982" in="SourceGraphic"/></feMerge></filter><marker style="overflow:visible" id="Arrow2Lend-6" orient="auto" refX="0" refY="0"><path style="fill:#000;fill-opacity:1;fill-rule:evenodd;stroke:#000;stroke-width:.625;stroke-linejoin:round;stroke-opacity:1" id="path1334-4" d="M 8.7185878,4.0337352 -2.2072895,0.01601326 8.7185884,-4.0017078 c -1.7454984,2.3720609 -1.7354408,5.6174519 -6e-7,8.035443 z" transform="matrix(-1.1,0,0,-1.1,-1.1,0)"/></marker><marker style="overflow:visible" id="Arrow2Lstart-0" orient="auto" refX="0" refY="0"><path style="fill:#000;fill-opacity:1;fill-rule:evenodd;stroke:#000;stroke-width:.625;stroke-linejoin:round;stroke-opacity:1" id="path1331-4" d="M 8.7185878,4.0337352 -2.2072895,0.01601326 8.7185884,-4.0017078 c -1.7454984,2.3720609 -1.7354408,5.6174519 -6e-7,8.035443 z" transform="matrix(1.1,0,0,1.1,1.1,0)"/></marker><marker style="overflow:visible" id="DotL-6" orient="auto" refX="0" refY="0"><path style="fill:#000;fill-opacity:1;fill-rule:evenodd;stroke:#000;stroke-width:1.00000003pt;stroke-opacity:1" id="path1374-2" d="m -2.5,-1 c 0,2.76 -2.24,5 -5,5 -2.76,0 -5,-2.24 -5,-5 0,-2.76 2.24,-5 5,-5 2.76,0 5,2.24 5,5 z" transform="matrix(0.8,0,0,0.8,5.92,0.8)"/></marker><marker style="overflow:visible" id="Arrow2Lstart-0-7" orient="auto" refX="0" refY="0"><path style="fill:#000;fill-opacity:1;fill-rule:evenodd;stroke:#000;stroke-width:.625;stroke-linejoin:round;stroke-opacity:1" id="path1331-4-5" d="M 8.7185878,4.0337352 -2.2072895,0.01601326 8.7185884,-4.0017078 c -1.7454984,2.3720609 -1.7354408,5.6174519 -6e-7,8.035443 z" transform="matrix(1.1,0,0,1.1,1.1,0)"/></marker><marker style="overflow:visible" id="DotL-6-6" orient="auto" refX="0" refY="0"><path style="fill:#000;fill-opacity:1;fill-rule:evenodd;stroke:#000;stroke-width:1.00000003pt;stroke-opacity:1" id="path1374-2-9" d="m -2.5,-1 c 0,2.76 -2.24,5 -5,5 -2.76,0 -5,-2.24 -5,-5 0,-2.76 2.24,-5 5,-5 2.76,0 5,2.24 5,5 z" transform="matrix(0.8,0,0,0.8,5.92,0.8)"/></marker></defs><path id="path26" d="m 432.83591,214.95253 c 0,99.5075 -80.66751,180.17625 -180.17625,180.17625 -99.50751,0 -180.175005,-80.66875 -180.175005,-180.17625 0,-99.5075 80.667495,-180.176245 180.175005,-180.176245 99.50874,0 180.17624,80.668745 180.17625,180.176245 z" style="fill:none;stroke:#373535;stroke-width:1.25;stroke-linecap:butt;stroke-linejoin:miter;stroke-miterlimit:4;stroke-dasharray:none;stroke-opacity:1"/><path id="path34" d="M 72.484405,214.95253 H 432.83566" style="fill:none;stroke:#373535;stroke-width:1.25;stroke-linecap:butt;stroke-linejoin:miter;stroke-miterlimit:4;stroke-dasharray:none;stroke-opacity:1"/><path id="path38" d="M 252.66015,214.95253 96.623905,124.86629" style="fill:none;stroke:#373535;stroke-width:1.25;stroke-linecap:butt;stroke-linejoin:miter;stroke-miterlimit:4;stroke-dasharray:none;stroke-opacity:1"/><path id="path42" d="M 252.66015,214.95253 162.57266,370.99128" style="fill:none;stroke:#373535;stroke-width:1.25;stroke-linecap:butt;stroke-linejoin:miter;stroke-miterlimit:4;stroke-dasharray:none;stroke-opacity:1"/><path id="path46" d="M 252.66015,214.95253 96.622655,305.04004" style="fill:none;stroke:#373535;stroke-width:1.25;stroke-linecap:butt;stroke-linejoin:miter;stroke-miterlimit:4;stroke-dasharray:none;stroke-opacity:1"/><path id="path50" d="m 252.66015,214.95253 90.0875,156.0375" style="fill:none;stroke:#373535;stroke-width:1.25;stroke-linecap:butt;stroke-linejoin:miter;stroke-miterlimit:4;stroke-dasharray:none;stroke-opacity:1"/><path id="path54" d="m 252.66015,214.95253 156.035,90.08751" style="fill:none;stroke:#373535;stroke-width:1.25;stroke-linecap:butt;stroke-linejoin:miter;stroke-miterlimit:4;stroke-dasharray:none;stroke-opacity:1"/><path id="path58" d="m 252.65891,214.95191 156.03625,-90.0875" style="fill:none;stroke:#373535;stroke-width:1.25;stroke-linecap:butt;stroke-linejoin:miter;stroke-miterlimit:4;stroke-dasharray:none;stroke-opacity:1"/><path id="path62" d="M 252.66015,214.95253 342.74765,58.916285" style="fill:none;stroke:#373535;stroke-width:1.25;stroke-linecap:butt;stroke-linejoin:miter;stroke-miterlimit:4;stroke-dasharray:none;stroke-opacity:1"/><path id="path66" d="M 252.66015,214.95253 162.5714,58.916285" style="fill:none;stroke:#373535;stroke-width:1.25;stroke-linecap:butt;stroke-linejoin:miter;stroke-miterlimit:4;stroke-dasharray:none;stroke-opacity:1"/><text id="text128" x="41.787" y="224.48" transform="matrix(0.99871402,-0.05063329,0.05063361,0.99872058,0,0)" style="font-size:15px;line-height:0%;stroke-width:1.25"><tspan style="font-style:normal;font-variant:normal;font-weight:400;font-stretch:normal;font-size:18.68162537px;font-family:sans-serif;-inkscape-font-specification:sans-serif;writing-mode:lr-tb;fill:#373535;fill-opacity:1;fill-rule:nonzero;stroke:none;stroke-width:1.25" id="tspan130" x="41.787" y="224.48">A</tspan></text><text id="text136" x="117.872" y="402.87" transform="rotate(-4.6880616)" style="font-size:14.99999905px;line-height:0%;stroke-width:1.25"><tspan style="font-style:normal;font-variant:normal;font-weight:400;font-stretch:normal;font-size:18.68175316px;font-family:sans-serif;-inkscape-font-specification:sans-serif;writing-mode:lr-tb;fill:#373535;fill-opacity:1;fill-rule:nonzero;stroke:none;stroke-width:1.25" id="tspan138" x="117.872" y="402.87">G</tspan></text><text id="text144" x="150.66" y="49.366" transform="rotate(0.66178098)" style="font-size:15px;line-height:0%;stroke-width:1.25"><tspan style="font-style:normal;font-variant:normal;font-weight:400;font-stretch:normal;font-size:18.68175316px;font-family:sans-serif;-inkscape-font-specification:sans-serif;writing-mode:lr-tb;fill:#373535;fill-opacity:1;fill-rule:nonzero;stroke:none;stroke-width:1.25" id="tspan146" x="150.66" y="49.366">B</tspan></text><text id="text148" x="245.944" y="30.977" transform="rotate(-0.43346459)" style="font-size:15px;line-height:0%;stroke-width:1.25"><tspan style="font-style:normal;font-variant:normal;font-weight:400;font-stretch:normal;font-size:18.68162537px;font-family:sans-serif;-inkscape-font-specification:sans-serif;writing-mode:lr-tb;fill:#373535;fill-opacity:1;fill-rule:nonzero;stroke:none;stroke-width:1.25" id="tspan150" x="245.944" y="30.977">C</tspan></text><text id="text156" x="415.861" y="113.121" transform="rotate(2.0614162)" style="font-size:14.99999905px;line-height:0%;stroke-width:1.25"><tspan style="font-style:normal;font-variant:normal;font-weight:400;font-stretch:normal;font-size:18.68175316px;font-family:sans-serif;-inkscape-font-specification:sans-serif;writing-mode:lr-tb;fill:#373535;fill-opacity:1;fill-rule:nonzero;stroke:none;stroke-width:1.25" id="tspan158" x="415.861" y="113.121">D</tspan></text><text id="text164" x="396.625" y="341.317" transform="rotate(-2.912159)" style="font-size:14.99999905px;line-height:0%;stroke-width:1.25"><tspan style="font-style:normal;font-variant:normal;font-weight:400;font-stretch:normal;font-size:18.68175316px;font-family:sans-serif;-inkscape-font-specification:sans-serif;writing-mode:lr-tb;fill:#373535;fill-opacity:1;fill-rule:nonzero;stroke:none;stroke-width:1.25" id="tspan166" x="396.625" y="341.317">E</tspan></text><text id="text168" x="312.017" y="417.322" transform="rotate(-4.5339016)" style="font-size:15px;line-height:0%;stroke-width:1.25"><tspan style="font-style:normal;font-variant:normal;font-weight:400;font-stretch:normal;font-size:18.68175316px;font-family:sans-serif;-inkscape-font-specification:sans-serif;writing-mode:lr-tb;fill:#373535;fill-opacity:1;fill-rule:nonzero;stroke:none;stroke-width:1.25" id="tspan170" x="312.017" y="417.322">F</tspan></text><flowRoot id="flowRoot3739" transform="translate(-138.66797,-8.74609)" xml:space="preserve" style="font-style:normal;font-weight:400;line-height:.01%;font-family:sans-serif;letter-spacing:0;word-spacing:0;fill:#000;fill-opacity:1;stroke:none;stroke-width:1px;stroke-linecap:butt;stroke-linejoin:miter;stroke-opacity:1"><flowRegion id="flowRegion3741"><rect id="rect3743" width="73.369" height="41.511" x="148.668" y="-3.373"/></flowRegion><flowPara id="flowPara3745" style="font-size:25px;line-height:1.25"/></flowRoot><text style="font-size:15px;line-height:0%;stroke-width:1.25" id="text144-5" x="32.04" y="127.725" transform="rotate(0.66178098)"><tspan style="font-style:normal;font-variant:normal;font-weight:400;font-stretch:normal;font-size:18.68175316px;font-family:sans-serif;-inkscape-font-specification:sans-serif;writing-mode:lr-tb;fill:#373535;fill-opacity:1;fill-rule:nonzero;stroke:none;stroke-width:1.25" id="tspan146-1" x="32.04" y="127.725">A#/Bb</tspan></text><text style="font-size:15px;line-height:0%;stroke-width:1.25" id="text144-1" x="34.972" y="320.055" transform="rotate(0.66178098)"><tspan style="font-style:normal;font-variant:normal;font-weight:400;font-stretch:normal;font-size:18.68175316px;font-family:sans-serif;-inkscape-font-specification:sans-serif;writing-mode:lr-tb;fill:#373535;fill-opacity:1;fill-rule:nonzero;stroke:none;stroke-width:1.25" id="tspan146-8" x="34.972" y="320.055">G#/Ab</tspan></text><text style="font-size:15px;line-height:0%;stroke-width:1.25" id="text144-2" x="227.431" y="413.704" transform="rotate(0.66178098)"><tspan style="font-style:normal;font-variant:normal;font-weight:400;font-stretch:normal;font-size:18.68175316px;font-family:sans-serif;-inkscape-font-specification:sans-serif;writing-mode:lr-tb;fill:#373535;fill-opacity:1;fill-rule:nonzero;stroke:none;stroke-width:1.25" id="tspan146-9" x="227.431" y="413.704">F#/Gb</tspan></text><text style="font-size:15px;line-height:0%;stroke-width:1.25" id="text144-4" x="442.005" y="215.594" transform="rotate(0.66178098)"><tspan style="font-style:normal;font-variant:normal;font-weight:400;font-stretch:normal;font-size:18.68175316px;font-family:sans-serif;-inkscape-font-specification:sans-serif;writing-mode:lr-tb;fill:#373535;fill-opacity:1;fill-rule:nonzero;stroke:none;stroke-width:1.25" id="tspan146-98" x="442.005" y="215.594">D#/Eb</tspan></text><text style="font-size:15px;line-height:0%;stroke-width:1.25" id="text144-7" x="339.287" y="47.442" transform="rotate(0.66178098)"><tspan style="font-style:normal;font-variant:normal;font-weight:400;font-stretch:normal;font-size:18.68175316px;font-family:sans-serif;-inkscape-font-specification:sans-serif;writing-mode:lr-tb;fill:#373535;fill-opacity:1;fill-rule:nonzero;stroke:none;stroke-width:1.25" id="tspan146-7" x="339.287" y="47.442">C#/Db</tspan></text><flowRoot id="flowRoot4049" transform="translate(-138.66797,-8.74609)" xml:space="preserve" style="font-style:normal;font-weight:400;line-height:.01%;font-family:sans-serif;letter-spacing:0;word-spacing:0;fill:#000;fill-opacity:1;stroke:none;stroke-width:1px;stroke-linecap:butt;stroke-linejoin:miter;stroke-opacity:1"><flowRegion id="flowRegion4051"><rect id="rect4053" width="76.471" height="67.059" x="583.529" y="74.706"/></flowRegion><flowPara id="flowPara4055" style="font-size:16.25px;line-height:1.25"/></flowRoot><flowRoot id="flowRoot5094" transform="matrix(1.25,0,0,-1.25,-138.66797,981.25391)" xml:space="preserve" style="font-style:normal;font-weight:400;line-height:.01%;font-family:sans-serif;letter-spacing:0;word-spacing:0;fill:#000;fill-opacity:1;stroke:none;stroke-width:1px;stroke-linecap:butt;stroke-linejoin:miter;stroke-opacity:1"><flowRegion id="flowRegion5096"><rect id="rect5098" width="154.098" height="29.508" x="490.164" y="611.729"/></flowRegion><flowPara id="flowPara5100" style="font-size:22.5px;line-height:1.25"/></flowRoot><path id="path30" d="M 252.66015,395.12828 V 34.777035" style="fill:none;stroke:#000;stroke-width:1.25;stroke-linecap:round;stroke-linejoin:miter;stroke-miterlimit:4;stroke-dasharray:none;stroke-opacity:1"/><path id="path30-7" d="M 206.02727,388.98895 299.29304,40.916373" style="fill:none;stroke:red;stroke-width:3;stroke-linecap:round;stroke-linejoin:miter;stroke-miterlimit:4;stroke-dasharray:none;stroke-opacity:1"/><g id="g1290" transform="matrix(1.25,0,0,-1.25,-93.425559,1184.2394)"><rect id="rect1285" width="99.61" height="11.818" x="208.168" y="-695.84" ry="5.909" transform="scale(1,-1)" style="fill:#fff;fill-opacity:1;stroke:none;stroke-width:2.4000001;stroke-linecap:round;stroke-miterlimit:4;stroke-dasharray:none;stroke-opacity:1"/><text id="text1283" x="209.964" y="-685.159" transform="scale(1,-1)" xml:space="preserve" style="font-style:normal;font-weight:400;font-size:32px;line-height:20px;font-family:sans-serif;letter-spacing:0;word-spacing:0;fill:#000;fill-opacity:1;stroke:none;stroke-width:.80000001px;stroke-linecap:butt;stroke-linejoin:miter;stroke-opacity:1"><tspan style="font-size:12.80000019px;fill:red;fill-opacity:1;stroke-width:.80000001px" id="tspan1281" x="209.964" y="-685.159">axis of rotation</tspan></text></g><path style="fill:none;stroke:#000;stroke-width:3.99923623pt;stroke-linecap:round;stroke-opacity:1;marker-start:url(#marker5200)" id="path8" d="m 191.98367,103.01058 a 119.97709,119.97709 0 0 1 91.0409,-11.985745"/><path style="fill:none;stroke:#000;stroke-width:3.99923623pt;stroke-linecap:round;stroke-opacity:1;marker-end:url(#DotM);marker-start:url(#Arrow2Mstart)" id="path8-7" d="m 289.09667,92.25922 a 119.97709,119.97709 0 0 1 72.85085,55.90044"/><path style="fill:none;stroke:#000;stroke-width:5.31;stroke-linecap:round;stroke-opacity:1;stroke-miterlimit:4;stroke-dasharray:none;marker-start:url(#marker6340)" id="path5552" d="m 181.21531,254.25401 a 79.652048,79.652048 0 0 1 29.15468,-108.80672 79.652048,79.652048 0 0 1 60.4415,-7.95727"/><path style="fill:none;stroke:#000;stroke-width:5.31;stroke-linecap:round;stroke-opacity:1;stroke-miterlimit:4;stroke-dasharray:none;marker-end:url(#marker6140);marker-start:url(#marker6234)" id="path5552-5" d="m 270.81149,137.49002 a 79.652048,79.652048 0 0 1 56.32249,97.55342 79.652048,79.652048 0 0 1 -37.11194,48.36525"/></svg>