<svg xmlns="http://www.w3.org/2000/svg" xmlns:svg="http://www.w3.org/2000/svg" id="svg2" width="400" height="400" version="1.1"><metadata id="metadata7"/><g id="g962" transform="matrix(0.5,0,0,0.4999998,-0.2499998,-0.24997749)"><g id="layer1" transform="translate(58.882629,-125.68095)"><circle id="path1289" cx="341.617" cy="526.181" r="400" style="fill:silver;fill-opacity:1;stroke:none;stroke-width:1;stroke-linecap:round;stroke-miterlimit:4;stroke-dasharray:none;stroke-opacity:1"/><path id="path1006-06" d="m -195.8374,190.68855 a 400,400 0 0 1 -53.58984,200 l -346.41016,-200 z" transform="rotate(-105)" style="fill:#ffb2b3;fill-opacity:1;stroke:none;stroke-width:1;stroke-linecap:round;stroke-miterlimit:4;stroke-dasharray:none;stroke-opacity:1"/><path id="path1006-0-2" d="m -20.666168,463.05984 a 400,400 0 0 1 -53.58984,200.00001 L -420.66617,463.05984 Z" transform="rotate(-75)" style="fill:#ffccd6;fill-opacity:1;stroke:none;stroke-width:1;stroke-linecap:round;stroke-miterlimit:4;stroke-dasharray:none;stroke-opacity:1"/><path id="path1006-9-6" d="m 267.22235,611.35468 a 400,400 0 0 1 -53.58984,200 l -346.41016,-200 z" transform="rotate(-45)" style="fill:#ffb2b3;fill-opacity:1;stroke:none;stroke-width:1;stroke-linecap:round;stroke-miterlimit:4;stroke-dasharray:none;stroke-opacity:1"/><path id="path1006-3-1" d="M 590.68854,595.83752 A 400,400 0 0 1 537.0987,795.83753 L 190.68854,595.83752 Z" transform="rotate(-15)" style="fill:#ffccd6;fill-opacity:1;stroke:none;stroke-width:1;stroke-linecap:round;stroke-miterlimit:4;stroke-dasharray:none;stroke-opacity:1"/><path id="path1006-7" d="m 863.06,420.66638 a 400,400 0 0 1 -53.58984,200 l -346.41016,-200 z" transform="rotate(15)" style="fill:silver;fill-opacity:.50196078;stroke:none;stroke-width:1;stroke-linecap:round;stroke-miterlimit:4;stroke-dasharray:none;stroke-opacity:1"/><path id="path1006-0-9" d="m 1011.3549,132.77779 a 400,400 0 0 1 -53.58988,200 l -346.41016,-200 z" transform="rotate(45)" style="fill:silver;fill-opacity:.50196078;stroke:none;stroke-width:1;stroke-linecap:round;stroke-miterlimit:4;stroke-dasharray:none;stroke-opacity:1"/><path id="path1006-3" d="m 820.66623,-463.05984 a 400,400 0 0 1 -53.58984,200 l -346.41016,-200 z" transform="rotate(105)" style="fill:#ffccd6;fill-opacity:1;stroke:none;stroke-width:1;stroke-linecap:round;stroke-miterlimit:4;stroke-dasharray:none;stroke-opacity:1"/><path id="path1006-9-2" d="M 995.83771,-190.68848 A 400,400 0 0 1 942.24787,9.311525 L 595.83771,-190.68848 Z" transform="rotate(75)" style="fill:silver;fill-opacity:.50196078;stroke:none;stroke-width:1;stroke-linecap:round;stroke-miterlimit:4;stroke-dasharray:none;stroke-opacity:1"/><path id="path962" d="M 521.61087,585.04114 A 300,300 0 0 1 495.67451,707.06213 L 221.61087,585.04114 Z" transform="rotate(-12)" style="fill:#77c428;fill-opacity:1;stroke:none;stroke-width:1;stroke-linecap:round;stroke-miterlimit:4;stroke-dasharray:none;stroke-opacity:1"/><path id="path962-7" d="M 13.516327,556.1579 A 300,300 0 0 1 -12.420036,678.17889 L -286.48367,556.1579 Z" transform="rotate(-60)" style="fill:#77c428;fill-opacity:1;stroke:none;stroke-width:1;stroke-linecap:round;stroke-miterlimit:4;stroke-dasharray:none;stroke-opacity:1"/><path id="path1006" d="m 863.05994,420.66623 a 400,400 0 0 1 -53.58984,200 l -346.41016,-200 z" transform="rotate(15)" style="fill:#ffb2b3;fill-opacity:1;stroke:none;stroke-width:1;stroke-linecap:round;stroke-miterlimit:4;stroke-dasharray:none;stroke-opacity:1"/><path id="path1006-0" d="m 1011.3547,132.77768 a 400,400 0 0 1 -53.58986,200 l -346.41016,-200 z" transform="rotate(45)" style="fill:#ffccd6;fill-opacity:1;stroke:none;stroke-width:1;stroke-linecap:round;stroke-miterlimit:4;stroke-dasharray:none;stroke-opacity:1"/><path id="path962-1-1" d="m 695.85489,-484.44122 a 300,300 0 0 1 -25.93636,122.02099 L 395.85489,-484.44122 Z" transform="rotate(108)" style="fill:silver;fill-opacity:1;stroke:none;stroke-width:1;stroke-linecap:round;stroke-miterlimit:4;stroke-dasharray:none;stroke-opacity:1"/><path id="path833-3-6-5" d="m -140.69775,-524.69958 a 200,200 0 0 1 -74.13593,155.42919 l -125.86407,-155.42919 z" transform="rotate(-179.75)" style="fill:#77c428;fill-opacity:1;stroke:none;stroke-width:1;stroke-linecap:round;stroke-miterlimit:4;stroke-dasharray:none;stroke-opacity:1"/><path id="path962-9" d="M 740.4093,444.3244 A 300,300 0 0 1 714.47294,566.34539 L 440.4093,444.3244 Z" transform="rotate(12)" style="fill:#7cd622;fill-opacity:1;stroke:none;stroke-width:1;stroke-linecap:round;stroke-miterlimit:4;stroke-dasharray:none;stroke-opacity:1"/><path id="path962-1" d="m 883.05688,226.77992 a 300,300 0 0 1 -25.93636,122.021 l -274.06364,-122.021 z" transform="rotate(36)" style="fill:#77c428;fill-opacity:1;stroke:none;stroke-width:1;stroke-linecap:round;stroke-miterlimit:4;stroke-dasharray:none;stroke-opacity:1"/><path id="path962-2" d="M 264.49397,624.59894 A 300,300 0 0 1 238.55761,746.61993 L -35.506027,624.59894 Z" transform="rotate(-36)" style="fill:#7cd622;fill-opacity:1;stroke:none;stroke-width:1;stroke-linecap:round;stroke-miterlimit:4;stroke-dasharray:none;stroke-opacity:1"/><path id="path833" d="m 276.20398,620.94885 a 200,200 0 0 1 -74.13592,155.4292 L 76.203979,620.94885 Z" transform="rotate(-25.75)" style="fill:#7cd622;fill-opacity:1;stroke:none;stroke-width:1;stroke-linecap:round;stroke-miterlimit:4;stroke-dasharray:none;stroke-opacity:1"/><path id="path1006-9" d="M 995.83752,-190.68846 A 400,400 0 0 1 942.24769,9.3115402 L 595.83752,-190.68846 Z" transform="rotate(75)" style="fill:#ffb2b3;fill-opacity:1;stroke:none;stroke-width:1;stroke-linecap:round;stroke-miterlimit:4;stroke-dasharray:none;stroke-opacity:1"/><path id="path962-7-9" d="m -187.92581,391.55219 a 300,300 0 0 1 -25.93636,122.02099 L -487.92581,391.55219 Z" transform="rotate(-84)" style="fill:silver;fill-opacity:1;stroke:none;stroke-width:1;stroke-linecap:round;stroke-miterlimit:4;stroke-dasharray:none;stroke-opacity:1"/><path id="path962-7-7" d="m -305.00104,159.24342 a 300,300 0 0 1 -25.93636,122.021 l -274.06364,-122.021 z" transform="rotate(-108)" style="fill:silver;fill-opacity:1;stroke:none;stroke-width:1;stroke-linecap:round;stroke-miterlimit:4;stroke-dasharray:none;stroke-opacity:1"/><path id="path833-3-6-56" d="M -234.61124,449.99741 A 200,200 0 0 1 -308.74716,605.4266 L -434.61124,449.99741 Z" transform="rotate(-76.75)" style="fill:#5ba900;fill-opacity:1;stroke:none;stroke-width:1;stroke-linecap:round;stroke-miterlimit:4;stroke-dasharray:none;stroke-opacity:1"/><path id="path833-3-6-3" d="M -422.72351,-60.000294 A 200,200 0 0 1 -496.85943,95.428899 L -622.72351,-60.000294 Z" transform="rotate(-128.25)" style="fill:#7cd622;fill-opacity:1;stroke:none;stroke-width:1;stroke-linecap:round;stroke-miterlimit:4;stroke-dasharray:none;stroke-opacity:1"/><path id="path962-1-3" d="M 924.88892,-29.976822 A 300,300 0 0 1 898.95255,92.044171 L 624.88892,-29.976822 Z" transform="rotate(60)" style="fill:silver;fill-opacity:1;stroke:none;stroke-width:1;stroke-linecap:round;stroke-miterlimit:4;stroke-dasharray:none;stroke-opacity:1"/><path id="path833-3" d="M 733.39777,326.91193 A 200,200 0 0 1 659.26184,482.34112 L 533.39777,326.91193 Z" transform="rotate(25.75)" style="fill:#77c428;fill-opacity:1;stroke:none;stroke-width:1;stroke-linecap:round;stroke-miterlimit:4;stroke-dasharray:none;stroke-opacity:1"/><path id="path962-1-6" d="m 858.67175,-281.55035 a 300,300 0 0 1 -25.93636,122.02099 L 558.67175,-281.55035 Z" transform="rotate(84)" style="fill:silver;fill-opacity:1;stroke:none;stroke-width:1;stroke-linecap:round;stroke-miterlimit:4;stroke-dasharray:none;stroke-opacity:1"/><path id="path833-3-6" d="M 787.89185,-213.93398 A 200,200 0 0 1 713.75592,-58.504783 L 587.89185,-213.93398 Z" transform="rotate(77.25)" style="fill:#5ba900;fill-opacity:1;stroke:none;stroke-width:1;stroke-linecap:round;stroke-miterlimit:4;stroke-dasharray:none;stroke-opacity:1"/><path id="path962-1-2" d="m 464.59157,-603.56781 a 300,300 0 0 1 -25.93636,122.02099 L 164.59157,-603.56781 Z" transform="rotate(132)" style="fill:silver;fill-opacity:1;stroke:none;stroke-width:1;stroke-linecap:round;stroke-miterlimit:4;stroke-dasharray:none;stroke-opacity:1"/><path id="path833-3-6-7" d="M 398.5448,-593.26599 A 200,200 0 0 1 324.40888,-437.8368 L 198.5448,-593.26599 Z" transform="rotate(128.75)" style="fill:#7cd622;fill-opacity:1;stroke:none;stroke-width:1;stroke-linecap:round;stroke-miterlimit:4;stroke-dasharray:none;stroke-opacity:1"/><path id="path926" d="m -426.18109,338.40509 a 100,100 0 0 1 -50,86.60254 100,100 0 0 1 -100,0 100,100 0 0 1 -50,-86.60254 h 100 z" transform="rotate(-90)" style="fill:gray;fill-opacity:1;stroke:none;stroke-width:1;stroke-linecap:round;stroke-miterlimit:4;stroke-dasharray:none;stroke-opacity:1"/><path id="path926-2" d="m -426.18109,-338.40506 a 100,100 0 0 1 -50,86.60254 100,100 0 0 1 -100,0 100,100 0 0 1 -50,-86.60254 h 100 z" transform="matrix(0,-1,-1,0,0,0)" style="fill:silver;fill-opacity:1;stroke:none;stroke-width:1;stroke-linecap:round;stroke-miterlimit:4;stroke-dasharray:none;stroke-opacity:1"/></g><text style="font-style:normal;font-weight:400;font-size:40px;line-height:25px;font-family:sans-serif;letter-spacing:0;word-spacing:0;fill:#000;fill-opacity:1;stroke:none;stroke-width:1px;stroke-linecap:butt;stroke-linejoin:miter;stroke-opacity:1" id="text847" x="390.318" y="67.881" xml:space="preserve"><tspan id="tspan845" x="390.318" y="67.881">8</tspan></text><text style="font-style:normal;font-weight:400;font-size:40px;line-height:25px;font-family:sans-serif;letter-spacing:0;word-spacing:0;fill:#000;fill-opacity:1;stroke:none;stroke-width:1px;stroke-linecap:butt;stroke-linejoin:miter;stroke-opacity:1" id="text851" x="560.532" y="112.482" xml:space="preserve"><tspan id="tspan849" x="560.532" y="112.482">7</tspan></text><text style="font-style:normal;font-weight:400;font-size:40px;line-height:25px;font-family:sans-serif;letter-spacing:0;word-spacing:0;fill:#000;fill-opacity:1;stroke:none;stroke-width:1px;stroke-linecap:butt;stroke-linejoin:miter;stroke-opacity:1" id="text855" x="685.602" y="237.585" xml:space="preserve"><tspan id="tspan853" x="685.602" y="237.585">6</tspan></text><text style="font-style:normal;font-weight:400;font-size:40px;line-height:25px;font-family:sans-serif;letter-spacing:0;word-spacing:0;fill:#fff;fill-opacity:1;stroke:none;stroke-width:1px;stroke-linecap:butt;stroke-linejoin:miter;stroke-opacity:1" id="text859" x="732.163" y="418.937" xml:space="preserve"><tspan id="tspan857" x="732.163" y="418.937">5</tspan></text><text style="font-style:normal;font-weight:400;font-size:40px;line-height:25px;font-family:sans-serif;letter-spacing:0;word-spacing:0;fill:#000;fill-opacity:1;stroke:none;stroke-width:1px;stroke-linecap:butt;stroke-linejoin:miter;stroke-opacity:1" id="text863" x="684.168" y="590.568" xml:space="preserve"><tspan id="tspan861" x="684.168" y="590.568">4</tspan></text><text style="font-style:normal;font-weight:400;font-size:40px;line-height:25px;font-family:sans-serif;letter-spacing:0;word-spacing:0;fill:#000;fill-opacity:1;stroke:none;stroke-width:1px;stroke-linecap:butt;stroke-linejoin:miter;stroke-opacity:1" id="text867" x="556.627" y="712.755" xml:space="preserve"><tspan id="tspan865" x="556.627" y="712.755">3</tspan></text><text style="font-style:normal;font-weight:400;font-size:40px;line-height:25px;font-family:sans-serif;letter-spacing:0;word-spacing:0;fill:#000;fill-opacity:1;stroke:none;stroke-width:1px;stroke-linecap:butt;stroke-linejoin:miter;stroke-opacity:1" id="text871" x="385.968" y="759.794" xml:space="preserve"><tspan id="tspan869" x="385.968" y="759.794">2</tspan></text><text style="font-style:normal;font-weight:400;font-size:40px;line-height:25px;font-family:sans-serif;letter-spacing:0;word-spacing:0;fill:#000;fill-opacity:1;stroke:none;stroke-width:1px;stroke-linecap:butt;stroke-linejoin:miter;stroke-opacity:1" id="text875" x="208.999" y="714.715" xml:space="preserve"><tspan id="tspan873" x="208.999" y="714.715">1</tspan></text><text style="font-style:normal;font-weight:400;font-size:40px;line-height:25px;font-family:sans-serif;letter-spacing:0;word-spacing:0;fill:#000;fill-opacity:1;stroke:none;stroke-width:1px;stroke-linecap:butt;stroke-linejoin:miter;stroke-opacity:1" id="text936" x="240.097" y="478.278" xml:space="preserve"><tspan id="tspan934" x="240.097" y="478.278">fazer</tspan></text><text style="font-style:normal;font-weight:400;font-size:40px;line-height:25px;font-family:sans-serif;letter-spacing:0;word-spacing:0;fill:#000;fill-opacity:1;stroke:none;stroke-width:1px;stroke-linecap:butt;stroke-linejoin:miter;stroke-opacity:1" id="text940" x="249.818" y="350.939" xml:space="preserve"><tspan id="tspan938" x="249.818" y="350.939">re</tspan></text><text style="font-style:normal;font-weight:400;font-size:40px;line-height:25px;font-family:sans-serif;letter-spacing:0;word-spacing:0;fill:#000;fill-opacity:1;stroke:none;stroke-width:1px;stroke-linecap:butt;stroke-linejoin:miter;stroke-opacity:1" id="text944" x="344.107" y="272.203" xml:space="preserve"><tspan id="tspan942" x="344.107" y="272.203">mi</tspan></text><text style="font-style:normal;font-weight:400;font-size:40px;line-height:25px;font-family:sans-serif;letter-spacing:0;word-spacing:0;fill:#fff;fill-opacity:1;stroke:none;stroke-width:1px;stroke-linecap:butt;stroke-linejoin:miter;stroke-opacity:1" id="text948" x="519.077" y="415.095" xml:space="preserve"><tspan id="tspan946" x="519.077" y="415.095">sol</tspan></text><text style="font-style:normal;font-weight:400;font-size:40px;line-height:25px;font-family:sans-serif;letter-spacing:0;word-spacing:0;fill:#000;fill-opacity:1;stroke:none;stroke-width:1px;stroke-linecap:butt;stroke-linejoin:miter;stroke-opacity:1" id="text952" x="462.698" y="530.769" xml:space="preserve"><tspan id="tspan950" x="462.698" y="530.769">la</tspan></text><text style="font-style:normal;font-weight:400;font-size:40px;line-height:25px;font-family:sans-serif;letter-spacing:0;word-spacing:0;fill:#000;fill-opacity:1;stroke:none;stroke-width:1px;stroke-linecap:butt;stroke-linejoin:miter;stroke-opacity:1" id="text956" x="351.883" y="559.931" xml:space="preserve"><tspan id="tspan954" x="351.883" y="559.931">si</tspan></text><text style="font-style:normal;font-weight:400;font-size:40px;line-height:25px;font-family:sans-serif;letter-spacing:0;word-spacing:0;fill:#000;fill-opacity:1;stroke:none;stroke-width:1px;stroke-linecap:butt;stroke-linejoin:miter;stroke-opacity:1" id="text960" x="471.446" y="302.337" xml:space="preserve"><tspan id="tspan958" x="471.446" y="302.337">fa</tspan></text><text style="font-style:normal;font-weight:400;font-size:40px;line-height:25px;font-family:sans-serif;letter-spacing:0;word-spacing:0;fill:#000;fill-opacity:1;stroke:none;stroke-width:1px;stroke-linecap:butt;stroke-linejoin:miter;stroke-opacity:1" id="text983" x="432.564" y="413.151" xml:space="preserve"><tspan style="fill:#000" id="tspan981" x="432.564" y="413.151">x</tspan></text><text id="text882" x="560" y="227" xml:space="preserve" style="font-style:normal;font-weight:400;font-size:40px;line-height:25px;font-family:sans-serif;letter-spacing:0;word-spacing:0;fill:#000;fill-opacity:1;stroke:none;stroke-width:1px;stroke-linecap:butt;stroke-linejoin:miter;stroke-opacity:1"><tspan id="tspan880" x="560" y="227">ğ„ª</tspan></text><text id="text886" x="614" y="311" xml:space="preserve" style="font-style:normal;font-weight:400;font-size:40px;line-height:25px;font-family:sans-serif;letter-spacing:0;word-spacing:0;fill:#000;fill-opacity:1;stroke:none;stroke-width:1px;stroke-linecap:butt;stroke-linejoin:miter;stroke-opacity:1"><tspan id="tspan884" x="614" y="311">â™¯</tspan></text><text id="text890" x="639" y="417" xml:space="preserve" style="font-style:normal;font-weight:400;font-size:40px;line-height:25px;font-family:sans-serif;letter-spacing:0;word-spacing:0;fill:#fff;fill-opacity:1;stroke:none;stroke-width:1px;stroke-linecap:butt;stroke-linejoin:miter;stroke-opacity:1"><tspan id="tspan888" x="639" y="417">â™®</tspan></text><text id="text894" x="616" y="515" xml:space="preserve" style="font-style:normal;font-weight:400;font-size:40px;line-height:25px;font-family:sans-serif;letter-spacing:0;word-spacing:0;fill:#000;fill-opacity:1;stroke:none;stroke-width:1px;stroke-linecap:butt;stroke-linejoin:miter;stroke-opacity:1"><tspan id="tspan892" x="616" y="515">â™­</tspan></text><text id="text898" x="555" y="594" xml:space="preserve" style="font-style:normal;font-weight:400;font-size:40px;line-height:25px;font-family:sans-serif;letter-spacing:0;word-spacing:0;fill:#000;fill-opacity:1;stroke:none;stroke-width:1px;stroke-linecap:butt;stroke-linejoin:miter;stroke-opacity:1"><tspan id="tspan896" x="555" y="594">ğ„«</tspan></text></g></svg>