<svg xmlns="http://www.w3.org/2000/svg" xmlns:svg="http://www.w3.org/2000/svg" id="svg4167" width="178.594" height="135.79" version="1.1" viewBox="0 0 178.594 135.79"><metadata id="metadata4172"/><g id="g1276" transform="matrix(0.93749999,0,0,0.93749999,12.65625,67.895191)"><g id="g1274" transform="scale(1.5)"><path id="path1264" d="m 0.5,8.5 v -4 a 4,4 90 0 1 4,-4 h 4 v 2 h 10 v -2 h 30 4 a 4,4 90 0 1 4,4 v 4 h -4 v -3 h -4 v 10 h 4 v -3 h 4 v 4 a 4,4 90 0 1 -4,4 h -4 -30 -1 v 2 h -8 v -2 h -1 -4 a 4,4 90 0 1 -4,-4 v -4 z" style="fill:#7cd622;fill-opacity:1;stroke:#57ad02;stroke-width:1;stroke-linecap:round;stroke-opacity:1"/><text id="text1268" style="font-size:10px;font-family:sans-serif;text-anchor:end;fill:#000"><tspan id="tspan1266" x="46.333" y="13.5">hertz</tspan></text></g></g><g id="g1286" transform="matrix(0.93749999,0,0,0.93749999,81.5625,67.895191)"><g id="g1284" transform="scale(1.5)"><path id="path1278" d="m 8.5,0.5 h 60 v 20 h -60 v -8 -1 h -6 v 3 h -2 v -8 h 2 v 3 h 6 v -1 z" style="fill:#ff6ea1;fill-opacity:1;stroke:#ff2c76;stroke-width:1;stroke-linecap:round;stroke-opacity:1"/><text id="text1282" style="font-size:10px;font-family:sans-serif;text-anchor:start;fill:#000"><tspan id="tspan1280" x="13.333" y="13.833">440</tspan></text></g></g><g id="g1296" transform="matrix(0.93749999,0,0,0.93749999,0,0.39519136)"><g id="g1294" transform="scale(1.5)"><path id="path1288" d="m 0.5,14.5 v -4 c 0,-2.209139 1.790861,-4 4,-4 h 4 l 5,-6 5,6 h 9 77.62007 4 c 2.20914,0 4,1.790861 4,4 v 4 4 4 c 0,2.209139 -1.79086,4 -4,4 h -4 H 27.5 h -1 v 2 h -8 v -2 h -1 -4 c -2.761424,0 -5,2.238576 -5,5 v 4 4 21 4 c 0,2.761424 2.238576,5 5,5 h 4 v 2 h 10 v -2 h 8 v 6 6 4 c 0,2.209139 -1.790861,4 -4,4 h -4 -9 l -5,6 -5,-6 h -4 c -2.209139,0 -4,-1.790861 -4,-4 v -4 z" style="fill:#92a9ff;fill-opacity:1;stroke:#5370dc;stroke-width:1;stroke-linecap:round;stroke-opacity:1"/><text id="text1292" style="font-size:10px;font-family:sans-serif;text-anchor:start;fill:#000"><tspan id="tspan1290" x="5.333" y="21.5">medir tom do slider</tspan></text></g></g><g id="g1310" transform="matrix(0.93749999,0,0,0.93749999,12.65625,38.363941)"><g id="g1308" transform="scale(1.5)"><path id="path1298" d="m 0.5,8.5 v -4 a 4,4 90 0 1 4,-4 h 4 v 2 h 10 v -2 h 30 4 a 4,4 90 0 1 4,4 v 4 h -4 v -3 h -4 v 10 h 4 v -3 h 4 v 4 a 4,4 90 0 1 -4,4 h -4 -30 -1 v 2 h -8 v -2 h -1 -4 a 4,4 90 0 1 -4,-4 v -4 z" style="fill:#7cd622;fill-opacity:1;stroke:#57ad02;stroke-width:1;stroke-linecap:round;stroke-opacity:1"/><text id="text1302" style="font-size:10px;font-family:sans-serif;text-anchor:end;fill:#000"><tspan id="tspan1300" x="46.333" y="13.5">hertz</tspan></text></g></g><g id="g1320" transform="matrix(0.93749999,0,0,0.93749999,81.5625,38.363941)"><g id="g1318" transform="scale(1.5)"><path id="path1312" d="m 8.5,0.5 h 60 v 20 h -60 v -8 -1 h -6 v 3 h -2 v -8 h 2 v 3 h 6 v -1 z" style="fill:#ff6ea1;fill-opacity:1;stroke:#ff2c76;stroke-width:1;stroke-linecap:round;stroke-opacity:1"/><text id="text1316" style="font-size:10px;font-family:sans-serif;text-anchor:start;fill:#000"><tspan id="tspan1314" x="13.333" y="13.833">220</tspan></text></g></g></svg>