<svg xmlns="http://www.w3.org/2000/svg" xmlns:svg="http://www.w3.org/2000/svg" id="svg4075" width="291.842" height="176.343" version="1.1" viewBox="0 0 291.842 176.343"><metadata id="metadata3718"/><g id="g1186" transform="translate(0,0.42153745)"><g id="g1184" transform="scale(1.5)"><path id="path1178" d="m 0.5,14.5 v -4 a 4,4 90 0 1 4,-4 h 4 l 5,-6 5,6 h 9 63.344727 4 a 4,4 90 0 1 4,4 v 4 4 4 a 4,4 90 0 1 -4,4 h -4 H 27.5 h -1 v 2 h -8 v -2 h -1 -4 a 5,5 90 0 0 -5,5 v 4 4 42 4 a 5,5 90 0 0 5,5 h 4 v 2 h 10 v -2 h 8 v 6 6 4 a 4,4 90 0 1 -4,4 h -4 -9 l -5,6 -5,-6 h -4 a 4,4 90 0 1 -4,-4 v -4 z" style="fill:#92a9ff;fill-opacity:1;stroke:#5370dc;stroke-width:1;stroke-linecap:round;stroke-opacity:1"/><text id="text1182" style="font-size:10px;font-family:sans-serif;text-anchor:start;fill:#000"><tspan id="tspan1180" x="5.333" y="21.5">criador de frase</tspan></text></g></g><g id="g1204" transform="translate(17.5,72.421537)"><g id="g1202" transform="scale(1.5)"><path id="path1188" d="m -2.1666667,8.5 v -4 c 0,-2.209139 1.79086103,-4 4,-4 h 4 v 2 h 9.9999997 v -2 h 43.22819 4 c 2.209139,0 4,1.790861 4,4 v 4 h -4 v -3 h -4 v 10 h 4 v -3 h 4 v 17 h -4 v -3 h -4 v 10 h 4 v -3 h 4 v 4 c 0,2.209139 -1.790861,4 -4,4 h -4 -43.22819 -1 v 2 H 6.8333333 v -2 h -1 -4 c -2.20913897,0 -4.6985911,-1.904227 -4,-4 v -4 -21 z" style="fill:#92a9ff;fill-opacity:1;stroke:#5370dc;stroke-width:1;stroke-linecap:round;stroke-opacity:1"/><text id="text1192" style="font-size:10px;font-family:sans-serif;text-anchor:end;fill:#000"><tspan id="tspan1190" x="56.895" y="24">Ritmo</tspan></text><text id="text1196" style="font-size:6.66666651px;font-family:sans-serif;text-anchor:end;fill:#000"><tspan id="tspan1194" x="56.895" y="11.25">número de notas</tspan></text><text id="text1200" style="font-size:6.66666651px;font-family:sans-serif;text-anchor:end;fill:#000"><tspan id="tspan1198" x="56.895" y="32.25">valor de nota</tspan></text></g></g><g id="g1214" transform="translate(106.84229,72.421537)"><g id="g1212" transform="scale(1.5)"><path id="path1206" d="m 8.5,0.5 h 60 v 20 h -60 v -8 -1 h -6 v 3 h -2 v -8 h 2 v 3 h 6 v -1 z" style="fill:#ff6ea1;fill-opacity:1;stroke:#ff2c76;stroke-width:1;stroke-linecap:round;stroke-opacity:1"/><text id="text1210" style="font-size:10px;font-family:sans-serif;text-anchor:start;fill:#000"><tspan id="tspan1208" x="13.333" y="13.833">3</tspan></text></g></g><g id="g1232" transform="translate(106.84229,103.92155)"><g id="g1230" transform="scale(1.5)"><path id="path1216" d="m 8.5,8.5 v -4 a 4,4 90 0 1 4,-4 h 4 10 30 4 a 4,4 90 0 1 4,4 v 4 h -4 v -3 h -4 v 10 h 4 v -3 h 4 v 17 h -4 v -3 h -4 v 10 h 4 v -3 h 4 v 4 a 4,4 90 0 1 -4,4 h -4 -30 -10 -4 a 4,4 90 0 1 -4,-4 v -4 -21 -1 h -6 v 3 h -2 v -8 h 2 v 3 h 6 z" style="fill:#ff6ea1;fill-opacity:1;stroke:#ff2c76;stroke-width:1;stroke-linecap:round;stroke-opacity:1"/><text id="text1220" style="font-size:14px;font-family:sans-serif;text-anchor:end;fill:#000"><tspan id="tspan1218" x="54.333" y="23.8">/</tspan></text></g></g><g id="g1242" transform="translate(188.34229,103.92155)"><g id="g1240" transform="scale(1.5)"><path id="path1234" d="m 8.5,0.5 h 60 v 20 h -60 v -8 -1 h -6 v 3 h -2 v -8 h 2 v 3 h 6 v -1 z" style="fill:#ff6ea1;fill-opacity:1;stroke:#ff2c76;stroke-width:1;stroke-linecap:round;stroke-opacity:1"/><text id="text1238" style="font-size:10px;font-family:sans-serif;text-anchor:start;fill:#000"><tspan id="tspan1236" x="13.333" y="13.833">1</tspan></text></g></g><g id="g1252" transform="translate(188.34229,135.42155)"><g id="g1250" transform="scale(1.5)"><path id="path1244" d="m 8.5,0.5 h 60 v 20 h -60 v -8 -1 h -6 v 3 h -2 v -8 h 2 v 3 h 6 v -1 z" style="fill:#ff6ea1;fill-opacity:1;stroke:#ff2c76;stroke-width:1;stroke-linecap:round;stroke-opacity:1"/><text id="text1248" style="font-size:10px;font-family:sans-serif;text-anchor:start;fill:#000"><tspan id="tspan1246" x="13.333" y="13.833">4</tspan></text></g></g><g id="g1262" transform="translate(13.5,40.921537)"><g id="g1260" transform="scale(1.5)"><path id="path1254" d="m 0.5,8.5 v -4 a 4,4 90 0 1 4,-4 h 4 v 2 h 10 v -2 h 40 4 a 4,4 90 0 1 4,4 v 4 4 4 a 4,4 90 0 1 -4,4 h -4 -40 -1 v 2 h -8 v -2 h -1 -4 a 4,4 90 0 1 -4,-4 v -4 z" style="fill:#ffbf00;fill-opacity:1;stroke:#daaf30;stroke-width:1;stroke-linecap:round;stroke-opacity:1"/><text id="text1258" style="font-size:10px;font-family:sans-serif;text-anchor:end;fill:#000"><tspan id="tspan1256" x="56.333" y="13.5">escada</tspan></text></g></g></svg>