<svg xmlns="http://www.w3.org/2000/svg" xmlns:svg="http://www.w3.org/2000/svg" id="svg4075" width="281.395" height="120.937" version="1.1" viewBox="0 0 281.395 120.937"><metadata id="metadata4080"/><g id="g943" transform="scale(0.93749997)"><g id="g941" transform="scale(1.5)"><path id="path931" d="m 0.5,8.5 v -4 c 0,-2.209139 1.790861,-4 4,-4 h 4 v 2 h 10 v -2 h 9 46.103017 4 c 2.209139,0 4.740083,1.9185168 4,4 v 4 h -4 v -3 h -4 v 10 h 4 v -3 h 4 v 4 c 0,2.209139 -1.790861,4 -4,4 h -4 H 27.5 h -1 v 2 h -8 v -2 h -1 -4 c -2.761424,0 -5,2.238576 -5,5 v 4 4 21 4 c 0,2.761424 2.238576,5 5,5 h 4 v 2 h 10 v -2 h 8 v 6 6 4 c 0,2.209139 -1.790861,4 -4,4 h -4 -9 -1 v 2 h -8 v -2 h -1 -4 c -2.209139,0 -4,-1.790861 -4,-4 v -4 z" style="fill:#fe994f;fill-opacity:1;stroke:#e8680e;stroke-width:1;stroke-linecap:round;stroke-opacity:1"/><text id="text935" style="font-size:10px;font-family:sans-serif;text-anchor:start;fill:#000"><tspan id="tspan933" x="5.333" y="15.25">valor de nota</tspan></text></g></g><g id="g961" transform="matrix(0.93749997,0,0,0.93749997,104.20736,0)"><g id="g959" transform="scale(1.5)"><path id="path945" d="m 8.5,8.5 v -4 a 4,4 90 0 1 4,-4 h 4 10 30 4 a 4,4 90 0 1 4,4 v 4 h -4 v -3 h -4 v 10 h 4 v -3 h 4 v 17 h -4 v -3 h -4 v 10 h 4 v -3 h 4 v 4 a 4,4 90 0 1 -4,4 h -4 -30 -10 -4 a 4,4 90 0 1 -4,-4 v -4 -21 -1 h -6 v 3 h -2 v -8 h 2 v 3 h 6 z" style="fill:#ff6ea1;fill-opacity:1;stroke:#ff2c76;stroke-width:1;stroke-linecap:round;stroke-opacity:1"/><text id="text949" style="font-size:14px;font-family:sans-serif;text-anchor:end;fill:#000"><tspan id="tspan947" x="54.333" y="23.8">/</tspan></text></g></g><g id="g971" transform="matrix(0.93749997,0,0,0.93749997,184.36361,0)"><g id="g969" transform="scale(1.5)"><path id="path963" d="m 8.5,0.5 h 60 v 20 h -60 v -8 -1 h -6 v 3 h -2 v -8 h 2 v 3 h 6 v -1 z" style="fill:#ff6ea1;fill-opacity:1;stroke:#ff2c76;stroke-width:1;stroke-linecap:round;stroke-opacity:1"/><text id="text967" style="font-size:10px;font-family:sans-serif;text-anchor:start;fill:#000"><tspan id="tspan965" x="13.333" y="13.833">1</tspan></text></g></g><g id="g981" transform="matrix(0.93749997,0,0,0.93749997,184.36361,29.531249)"><g id="g979" transform="scale(1.5)"><path id="path973" d="m 8.5,0.5 h 60 v 20 h -60 v -8 -1 h -6 v 3 h -2 v -8 h 2 v 3 h 6 v -1 z" style="fill:#ff6ea1;fill-opacity:1;stroke:#ff2c76;stroke-width:1;stroke-linecap:round;stroke-opacity:1"/><text id="text977" style="font-size:10px;font-family:sans-serif;text-anchor:start;fill:#000"><tspan id="tspan975" x="13.333" y="13.833">8</tspan></text></g></g><g id="g991" transform="matrix(0.93749997,0,0,0.93749997,12.65625,29.531249)"><g id="g989" transform="scale(1.5)"><path id="path983" d="m 0.5,8.5 v -4 a 4,4 90 0 1 4,-4 h 4 v 2 h 10 v -2 h 20 4 a 4,4 90 0 1 4,4 v 4 4 4 a 4,4 90 0 1 -4,4 h -4 -20 -1 v 2 h -8 v -2 h -1 -4 a 4,4 90 0 1 -4,-4 v -4 z" style="fill:#c4c4c4;fill-opacity:1;stroke:#000;stroke-width:1;stroke-linecap:round;stroke-opacity:1"/><text id="text987" style="font-size:10px;font-family:sans-serif;text-anchor:end;fill:#000"><tspan id="tspan985" x="36.333" y="13.5">↓</tspan></text></g></g><g id="g1005" transform="matrix(0.93749997,0,0,0.93749997,12.65625,59.062493)"><g id="g1003" transform="scale(1.5)"><path id="path993" d="m 0.5,8.5 v -4 a 4,4 90 0 1 4,-4 h 4 v 2 h 10 v -2 h 30 4 a 4,4 90 0 1 4,4 v 4 h -4 v -3 h -4 v 10 h 4 v -3 h 4 v 4 a 4,4 90 0 1 -4,4 h -4 -30 -1 v 2 h -8 v -2 h -1 -4 a 4,4 90 0 1 -4,-4 v -4 z" style="fill:#7cd622;fill-opacity:1;stroke:#57ad02;stroke-width:1;stroke-linecap:round;stroke-opacity:1"/><text id="text997" style="font-size:10px;font-family:sans-serif;text-anchor:end;fill:#000"><tspan id="tspan995" x="46.333" y="13.5">hertz</tspan></text></g></g><g id="g1015" transform="matrix(0.93749997,0,0,0.93749997,81.5625,59.062493)"><g id="g1013" transform="scale(1.5)"><path id="path1007" d="m 8.5,0.5 h 60 v 20 h -60 v -8 -1 h -6 v 3 h -2 v -8 h 2 v 3 h 6 v -1 z" style="fill:#ff6ea1;fill-opacity:1;stroke:#ff2c76;stroke-width:1;stroke-linecap:round;stroke-opacity:1"/><text id="text1011" style="font-size:10px;font-family:sans-serif;text-anchor:start;fill:#000"><tspan id="tspan1009" x="13.333" y="13.833">880</tspan></text></g></g></svg>