<svg xmlns="http://www.w3.org/2000/svg" xmlns:svg="http://www.w3.org/2000/svg" id="svg4075" width="643.989" height="431.103" version="1.1" viewBox="0 0 643.989 431.103"><metadata id="metadata4080"/><g id="g1438" transform="matrix(0.9375,0,0,0.9375,324.625,0.39519136)"><g id="g1436" transform="scale(1.5)"><path id="path1430" d="m 0.5,14.5 v -4 a 4,4 90 0 1 4,-4 h 4 l 5,-6 5,6 h 9 30 4 a 4,4 90 0 1 4,4 v 4 4 4 a 4,4 90 0 1 -4,4 h -4 -30 -1 v 2 h -8 v -2 h -1 -4 a 5,5 90 0 0 -5,5 v 4 4 231 4 a 5,5 90 0 0 5,5 h 4 v 2 h 10 v -2 h 8 v 6 6 4 a 4,4 90 0 1 -4,4 h -4 -9 l -5,6 -5,-6 h -4 a 4,4 90 0 1 -4,-4 v -4 z" style="fill:#ffbf00;fill-opacity:1;stroke:#daaf30;stroke-width:1;stroke-linecap:round;stroke-opacity:1"/><text id="text1434" style="font-size:10px;font-family:sans-serif;text-anchor:start;fill:#000"><tspan id="tspan1432" x="5.333" y="21.5">iniciar</tspan></text></g></g><g id="g1448" transform="matrix(0.9375,0,0,0.9375,337.28125,38.363941)"><g id="g1446" transform="scale(1.5)"><path id="path1440" d="m 0.5,8.5 v -4 c 0,-2.209139 1.790861,-4 4,-4 h 4 v 2 h 10 v -2 h 9 38.145269 4 c 2.209139,0 4.740083,1.9185168 4,4 v 4 4 4 c 0,2.209139 -1.790861,4 -4,4 h -4 H 27.5 h -1 v 2 h -8 v -2 h -1 -4 c -2.761424,0 -5,2.238576 -5,5 v 4 4 189 4 c 0,2.76142 2.238576,5 5,5 h 4 v 2 h 10 v -2 h 8 v 6 6 4 c 0,2.20914 -1.790861,4 -4,4 h -4 -9 -1 v 2 h -8 v -2 h -1 -4 c -2.209139,0 -4,-1.79086 -4,-4 v -4 z" style="fill:#e9a066;fill-opacity:1;stroke:#b7651a;stroke-width:1;stroke-linecap:round;stroke-opacity:1"/><text id="text1444" style="font-size:10px;font-family:sans-serif;text-anchor:start;fill:#000"><tspan id="tspan1442" x="5.333" y="15.25">para sempre</tspan></text></g></g><g id="g1462" transform="matrix(0.9375,0,0,0.9375,349.9375,67.895191)"><g id="g1460" transform="scale(1.5)"><path id="path1450" d="m 0.5,8.5 v -4 c 0,-2.209139 1.790861,-4 4,-4 h 4 v 2 h 10 v -2 h 9 46.103017 4 c 2.209139,0 4,1.790861 4,4 v 4 h -4 v -3 h -4 v 10 h 4 v -3 h 4 v 4 c 0,2.209139 -1.790861,4 -4,4 h -4 H 27.5 h -1 v 2 h -8 v -2 h -1 -4 c -2.761424,0 -5,2.238576 -5,5 v 4 4 21 4 c 0,2.761424 2.238576,5 5,5 h 4 v 2 h 10 v -2 h 8 v 6 6 4 c 0,2.209139 -1.790861,4 -4,4 h -4 -9 -1 v 2 h -8 v -2 h -1 -4 c -2.209139,0 -4,-1.790861 -4,-4 v -4 z" style="fill:#fe994f;fill-opacity:1;stroke:#e8680e;stroke-width:1;stroke-linecap:round;stroke-opacity:1"/><text id="text1454" style="font-size:10px;font-family:sans-serif;text-anchor:start;fill:#000"><tspan id="tspan1452" x="5.333" y="15.25">valor de nota</tspan></text></g></g><g id="g1480" transform="matrix(0.9375,0,0,0.9375,454.14487,67.895191)"><g id="g1478" transform="scale(1.5)"><path id="path1464" d="m 8.5,8.5 v -4 a 4,4 90 0 1 4,-4 h 4 10 30 4 a 4,4 90 0 1 4,4 v 4 h -4 v -3 h -4 v 10 h 4 v -3 h 4 v 17 h -4 v -3 h -4 v 10 h 4 v -3 h 4 v 4 a 4,4 90 0 1 -4,4 h -4 -30 -10 -4 a 4,4 90 0 1 -4,-4 v -4 -21 -1 h -6 v 3 h -2 v -8 h 2 v 3 h 6 z" style="fill:#ff6ea1;fill-opacity:1;stroke:#ff2c76;stroke-width:1;stroke-linecap:round;stroke-opacity:1"/><text id="text1468" style="font-size:14px;font-family:sans-serif;text-anchor:end;fill:#000"><tspan id="tspan1466" x="54.333" y="23.8">/</tspan></text></g></g><g id="g1490" transform="matrix(0.9375,0,0,0.9375,534.30112,67.895191)"><g id="g1488" transform="scale(1.5)"><path id="path1482" d="m 8.5,0.5 h 60 v 20 h -60 v -8 -1 h -6 v 3 h -2 v -8 h 2 v 3 h 6 v -1 z" style="fill:#ff6ea1;fill-opacity:1;stroke:#ff2c76;stroke-width:1;stroke-linecap:round;stroke-opacity:1"/><text id="text1486" style="font-size:10px;font-family:sans-serif;text-anchor:start;fill:#000"><tspan id="tspan1484" x="13.333" y="13.833">1</tspan></text></g></g><g id="g1500" transform="matrix(0.9375,0,0,0.9375,534.30112,97.426441)"><g id="g1498" transform="scale(1.5)"><path id="path1492" d="m 8.5,0.5 h 60 v 20 h -60 v -8 -1 h -6 v 3 h -2 v -8 h 2 v 3 h 6 v -1 z" style="fill:#ff6ea1;fill-opacity:1;stroke:#ff2c76;stroke-width:1;stroke-linecap:round;stroke-opacity:1"/><text id="text1496" style="font-size:10px;font-family:sans-serif;text-anchor:start;fill:#000"><tspan id="tspan1494" x="13.333" y="13.833">2</tspan></text></g></g><g id="g1510" transform="matrix(0.9375,0,0,0.9375,362.59375,97.426441)"><g id="g1508" transform="scale(1.5)"><path id="path1502" d="m 0.5,8.5 v -4 a 4,4 90 0 1 4,-4 h 4 v 2 h 10 v -2 h 20 4 a 4,4 90 0 1 4,4 v 4 4 4 a 4,4 90 0 1 -4,4 h -4 -20 -1 v 2 h -8 v -2 h -1 -4 a 4,4 90 0 1 -4,-4 v -4 z" style="fill:#c4c4c4;fill-opacity:1;stroke:#000;stroke-width:1;stroke-linecap:round;stroke-opacity:1"/><text id="text1506" style="font-size:10px;font-family:sans-serif;text-anchor:end;fill:#000"><tspan id="tspan1504" x="36.333" y="13.5">↓</tspan></text></g></g><g id="g1524" transform="matrix(0.9375,0,0,0.9375,362.59375,126.95769)"><g id="g1522" transform="scale(1.5)"><path id="path1512" d="m 0.5,8.5 v -4 a 4,4 90 0 1 4,-4 h 4 v 2 h 10 v -2 h 30 4 a 4,4 90 0 1 4,4 v 4 h -4 v -3 h -4 v 10 h 4 v -3 h 4 v 4 a 4,4 90 0 1 -4,4 h -4 -30 -1 v 2 h -8 v -2 h -1 -4 a 4,4 90 0 1 -4,-4 v -4 z" style="fill:#3edcdd;fill-opacity:1;stroke:#000;stroke-width:1;stroke-linecap:round;stroke-opacity:1"/><text id="text1516" style="font-size:10px;font-family:sans-serif;text-anchor:end;fill:#000"><tspan id="tspan1514" x="46.333" y="13.5">bateria</tspan></text></g></g><g id="g1534" transform="matrix(0.9375,0,0,0.9375,431.5,126.95769)"><g id="g1532" transform="scale(1.5)"><path id="path1526" d="m 8.5,0.5 h 60 v 20 h -60 v -8 -1 h -6 v 3 h -2 v -8 h 2 v 3 h 6 v -1 z" style="fill:#3edcdd;fill-opacity:1;stroke:#000;stroke-width:1;stroke-linecap:round;stroke-opacity:1"/><text id="text1530" style="font-size:10px;font-family:sans-serif;text-anchor:start;fill:#000"><tspan id="tspan1528" x="13.333" y="13.833">tarola</tspan></text></g></g><g id="g1548" transform="matrix(0.9375,0,0,0.9375,349.9375,186.02019)"><g id="g1546" transform="scale(1.5)"><path id="path1536" d="m 0.5,8.5 v -4 a 4,4 90 0 1 4,-4 h 4 v 2 h 10 v -2 h 9 20 4 a 4,4 90 0 1 4,4 v 4 h -4 v -3 h -4 v 10 h 4 v -3 h 4 v 4 a 4,4 90 0 1 -4,4 h -4 -20 -1 v 2 h -8 v -2 h -1 -4 a 5,5 90 0 0 -5,5 v 4 4 63 4 a 5,5 90 0 0 5,5 h 4 v 2 h 10 v -2 h 8 v 6 6 4 a 4,4 90 0 1 -4,4 h -4 -9 -1 v 2 h -8 v -2 h -1 -4 a 4,4 90 0 1 -4,-4 v -4 z" style="fill:#e9a066;fill-opacity:1;stroke:#b7651a;stroke-width:1;stroke-linecap:round;stroke-opacity:1"/><text id="text1540" style="font-size:10px;font-family:sans-serif;text-anchor:start;fill:#000"><tspan id="tspan1538" x="5.333" y="15.25">repetir</tspan></text></g></g><g id="g1558" transform="matrix(0.9375,0,0,0.9375,417.4375,186.02019)"><g id="g1556" transform="scale(1.5)"><path id="path1550" d="m 8.5,0.5 h 60 v 20 h -60 v -8 -1 h -6 v 3 h -2 v -8 h 2 v 3 h 6 v -1 z" style="fill:#ff6ea1;fill-opacity:1;stroke:#ff2c76;stroke-width:1;stroke-linecap:round;stroke-opacity:1"/><text id="text1554" style="font-size:10px;font-family:sans-serif;text-anchor:start;fill:#000"><tspan id="tspan1552" x="13.333" y="13.833">2</tspan></text></g></g><g id="g1572" transform="matrix(0.9375,0,0,0.9375,362.59375,215.55144)"><g id="g1570" transform="scale(1.5)"><path id="path1560" d="m 0.5,8.5 v -4 c 0,-2.209139 1.790861,-4 4,-4 h 4 v 2 h 10 v -2 h 9 46.103017 4 c 2.209139,0 4.740082,1.9185168 4,4 v 4 h -4 v -3 h -4 v 10 h 4 v -3 h 4 v 4 c 0,2.209139 -1.790861,4 -4,4 h -4 H 27.5 h -1 v 2 h -8 v -2 h -1 -4 c -2.761424,0 -5,2.238576 -5,5 v 4 4 21 4 c 0,2.761424 2.238576,5 5,5 h 4 v 2 h 10 v -2 h 8 v 6 6 4 c 0,2.209139 -1.790861,4 -4,4 h -4 -9 -1 v 2 h -8 v -2 h -1 -4 c -2.209139,0 -4,-1.790861 -4,-4 v -4 z" style="fill:#fe994f;fill-opacity:1;stroke:#e8680e;stroke-width:1;stroke-linecap:round;stroke-opacity:1"/><text id="text1564" style="font-size:10px;font-family:sans-serif;text-anchor:start;fill:#000"><tspan id="tspan1562" x="5.333" y="15.25">valor de nota</tspan></text></g></g><g id="g1590" transform="matrix(0.9375,0,0,0.9375,466.80112,215.55144)"><g id="g1588" transform="scale(1.5)"><path id="path1574" d="m 8.5,8.5 v -4 a 4,4 90 0 1 4,-4 h 4 10 30 4 a 4,4 90 0 1 4,4 v 4 h -4 v -3 h -4 v 10 h 4 v -3 h 4 v 17 h -4 v -3 h -4 v 10 h 4 v -3 h 4 v 4 a 4,4 90 0 1 -4,4 h -4 -30 -10 -4 a 4,4 90 0 1 -4,-4 v -4 -21 -1 h -6 v 3 h -2 v -8 h 2 v 3 h 6 z" style="fill:#ff6ea1;fill-opacity:1;stroke:#ff2c76;stroke-width:1;stroke-linecap:round;stroke-opacity:1"/><text id="text1578" style="font-size:14px;font-family:sans-serif;text-anchor:end;fill:#000"><tspan id="tspan1576" x="54.333" y="23.8">/</tspan></text></g></g><g id="g1600" transform="matrix(0.9375,0,0,0.9375,546.95737,215.55144)"><g id="g1598" transform="scale(1.5)"><path id="path1592" d="m 8.5,0.5 h 60 v 20 h -60 v -8 -1 h -6 v 3 h -2 v -8 h 2 v 3 h 6 v -1 z" style="fill:#ff6ea1;fill-opacity:1;stroke:#ff2c76;stroke-width:1;stroke-linecap:round;stroke-opacity:1"/><text id="text1596" style="font-size:10px;font-family:sans-serif;text-anchor:start;fill:#000"><tspan id="tspan1594" x="13.333" y="13.833">1</tspan></text></g></g><g id="g1610" transform="matrix(0.9375,0,0,0.9375,546.95737,245.08269)"><g id="g1608" transform="scale(1.5)"><path id="path1602" d="m 8.5,0.5 h 60 v 20 h -60 v -8 -1 h -6 v 3 h -2 v -8 h 2 v 3 h 6 v -1 z" style="fill:#ff6ea1;fill-opacity:1;stroke:#ff2c76;stroke-width:1;stroke-linecap:round;stroke-opacity:1"/><text id="text1606" style="font-size:10px;font-family:sans-serif;text-anchor:start;fill:#000"><tspan id="tspan1604" x="13.333" y="13.833">4</tspan></text></g></g><g id="g1620" transform="matrix(0.9375,0,0,0.9375,375.25,245.08269)"><g id="g1618" transform="scale(1.5)"><path id="path1612" d="m 0.5,8.5 v -4 a 4,4 90 0 1 4,-4 h 4 v 2 h 10 v -2 h 20 4 a 4,4 90 0 1 4,4 v 4 4 4 a 4,4 90 0 1 -4,4 h -4 -20 -1 v 2 h -8 v -2 h -1 -4 a 4,4 90 0 1 -4,-4 v -4 z" style="fill:#c4c4c4;fill-opacity:1;stroke:#000;stroke-width:1;stroke-linecap:round;stroke-opacity:1"/><text id="text1616" style="font-size:10px;font-family:sans-serif;text-anchor:end;fill:#000"><tspan id="tspan1614" x="36.333" y="13.5">↓</tspan></text></g></g><g id="g1634" transform="matrix(0.9375,0,0,0.9375,375.25,274.61394)"><g id="g1632" transform="scale(1.5)"><path id="path1622" d="m 0.5,8.5 v -4 a 4,4 90 0 1 4,-4 h 4 v 2 h 10 v -2 h 30 4 a 4,4 90 0 1 4,4 v 4 h -4 v -3 h -4 v 10 h 4 v -3 h 4 v 4 a 4,4 90 0 1 -4,4 h -4 -30 -1 v 2 h -8 v -2 h -1 -4 a 4,4 90 0 1 -4,-4 v -4 z" style="fill:#3edcdd;fill-opacity:1;stroke:#000;stroke-width:1;stroke-linecap:round;stroke-opacity:1"/><text id="text1626" style="font-size:10px;font-family:sans-serif;text-anchor:end;fill:#000"><tspan id="tspan1624" x="46.333" y="13.5">bateria</tspan></text></g></g><g id="g1644" transform="matrix(0.9375,0,0,0.9375,444.15625,274.61394)"><g id="g1642" transform="scale(1.5)"><path id="path1636" d="m 8.5,0.5 h 60 v 20 h -60 v -8 -1 h -6 v 3 h -2 v -8 h 2 v 3 h 6 v -1 z" style="fill:#3edcdd;fill-opacity:1;stroke:#000;stroke-width:1;stroke-linecap:round;stroke-opacity:1"/><text id="text1640" style="font-size:10px;font-family:sans-serif;text-anchor:start;fill:#000"><tspan id="tspan1638" x="13.333" y="13.833">tarola</tspan></text></g></g><g id="g1654" transform="matrix(0.9375,0,0,0.9375,0,0.39519136)"><g id="g1652" transform="scale(1.5)"><path id="path1646" d="m 0.5,14.5 v -4 a 4,4 90 0 1 4,-4 h 4 l 5,-6 5,6 h 9 30 4 a 4,4 90 0 1 4,4 v 4 4 4 a 4,4 90 0 1 -4,4 h -4 -30 -1 v 2 h -8 v -2 h -1 -4 a 5,5 90 0 0 -5,5 v 4 4 147 4 a 5,5 90 0 0 5,5 h 4 v 2 h 10 v -2 h 8 v 6 6 4 a 4,4 90 0 1 -4,4 h -4 -9 l -5,6 -5,-6 h -4 a 4,4 90 0 1 -4,-4 v -4 z" style="fill:#ffbf00;fill-opacity:1;stroke:#daaf30;stroke-width:1;stroke-linecap:round;stroke-opacity:1"/><text id="text1650" style="font-size:10px;font-family:sans-serif;text-anchor:start;fill:#000"><tspan id="tspan1648" x="5.333" y="21.5">iniciar</tspan></text></g></g><g id="g1664" transform="matrix(0.9375,0,0,0.9375,12.65625,38.363941)"><g id="g1662" transform="scale(1.5)"><path id="path1656" d="m 0.5,8.5 v -4 c 0,-2.209139 1.790861,-4 4,-4 h 4 v 2 h 10 v -2 h 9 36.723047 4 c 2.209139,0 4.740083,1.9185168 4,4 v 4 4 4 c 0,2.209139 -1.790861,4 -4,4 h -4 H 27.5 h -1 v 2 h -8 v -2 h -1 -4 c -2.761424,0 -5,2.238576 -5,5 v 4 4 105 4 c 0,2.76142 2.238576,5 5,5 h 4 v 2 h 10 v -2 h 8 v 6 6 4 c 0,2.20914 -1.790861,4 -4,4 h -4 -9 -1 v 2 h -8 v -2 h -1 -4 c -2.209139,0 -4,-1.79086 -4,-4 v -4 z" style="fill:#e9a066;fill-opacity:1;stroke:#b7651a;stroke-width:1;stroke-linecap:round;stroke-opacity:1"/><text id="text1660" style="font-size:10px;font-family:sans-serif;text-anchor:start;fill:#000"><tspan id="tspan1658" x="5.333" y="15.25">para sempre</tspan></text></g></g><g id="g1678" transform="matrix(0.9375,0,0,0.9375,25.3125,67.895191)"><g id="g1676" transform="scale(1.5)"><path id="path1666" d="m 0.5,8.5 v -4 a 4,4 90 0 1 4,-4 h 4 v 2 h 10 v -2 h 9 20 4 a 4,4 90 0 1 4,4 v 4 h -4 v -3 h -4 v 10 h 4 v -3 h 4 v 4 a 4,4 90 0 1 -4,4 h -4 -20 -1 v 2 h -8 v -2 h -1 -4 a 5,5 90 0 0 -5,5 v 4 4 63 4 a 5,5 90 0 0 5,5 h 4 v 2 h 10 v -2 h 8 v 6 6 4 a 4,4 90 0 1 -4,4 h -4 -9 -1 v 2 h -8 v -2 h -1 -4 a 4,4 90 0 1 -4,-4 v -4 z" style="fill:#e9a066;fill-opacity:1;stroke:#b7651a;stroke-width:1;stroke-linecap:round;stroke-opacity:1"/><text id="text1670" style="font-size:10px;font-family:sans-serif;text-anchor:start;fill:#000"><tspan id="tspan1668" x="5.333" y="15.25">repetir</tspan></text></g></g><g id="g1688" transform="matrix(0.9375,0,0,0.9375,92.8125,67.895191)"><g id="g1686" transform="scale(1.5)"><path id="path1680" d="m 8.5,0.5 h 60 v 20 h -60 v -8 -1 h -6 v 3 h -2 v -8 h 2 v 3 h 6 v -1 z" style="fill:#ff6ea1;fill-opacity:1;stroke:#ff2c76;stroke-width:1;stroke-linecap:round;stroke-opacity:1"/><text id="text1684" style="font-size:10px;font-family:sans-serif;text-anchor:start;fill:#000"><tspan id="tspan1682" x="13.333" y="13.833">3</tspan></text></g></g><g id="g1702" transform="matrix(0.9375,0,0,0.9375,37.96875,97.426441)"><g id="g1700" transform="scale(1.5)"><path id="path1690" d="m 0.5,8.5 v -4 c 0,-2.209139 1.790861,-4 4,-4 h 4 v 2 h 10 v -2 h 9 46.103017 4 c 2.209139,0 4,1.790861 4,4 v 4 h -4 v -3 h -4 v 10 h 4 v -3 h 4 v 4 c 0,2.209139 -1.790861,4 -4,4 h -4 H 27.5 h -1 v 2 h -8 v -2 h -1 -4 c -2.761424,0 -5,2.238576 -5,5 v 4 4 21 4 c 0,2.761424 2.238576,5 5,5 h 4 v 2 h 10 v -2 h 8 v 6 6 4 c 0,2.209139 -1.790861,4 -4,4 h -4 -9 -1 v 2 h -8 v -2 h -1 -4 c -2.209139,0 -4,-1.790861 -4,-4 v -4 z" style="fill:#fe994f;fill-opacity:1;stroke:#e8680e;stroke-width:1;stroke-linecap:round;stroke-opacity:1"/><text id="text1694" style="font-size:10px;font-family:sans-serif;text-anchor:start;fill:#000"><tspan id="tspan1692" x="5.333" y="15.25">valor de nota</tspan></text></g></g><g id="g1720" transform="matrix(0.9375,0,0,0.9375,142.17612,97.426441)"><g id="g1718" transform="scale(1.5)"><path id="path1704" d="m 8.5,8.5 v -4 a 4,4 90 0 1 4,-4 h 4 10 30 4 a 4,4 90 0 1 4,4 v 4 h -4 v -3 h -4 v 10 h 4 v -3 h 4 v 17 h -4 v -3 h -4 v 10 h 4 v -3 h 4 v 4 a 4,4 90 0 1 -4,4 h -4 -30 -10 -4 a 4,4 90 0 1 -4,-4 v -4 -21 -1 h -6 v 3 h -2 v -8 h 2 v 3 h 6 z" style="fill:#ff6ea1;fill-opacity:1;stroke:#ff2c76;stroke-width:1;stroke-linecap:round;stroke-opacity:1"/><text id="text1708" style="font-size:14px;font-family:sans-serif;text-anchor:end;fill:#000"><tspan id="tspan1706" x="54.333" y="23.8">/</tspan></text></g></g><g id="g1730" transform="matrix(0.9375,0,0,0.9375,222.33237,97.426441)"><g id="g1728" transform="scale(1.5)"><path id="path1722" d="m 8.5,0.5 h 60 v 20 h -60 v -8 -1 h -6 v 3 h -2 v -8 h 2 v 3 h 6 v -1 z" style="fill:#ff6ea1;fill-opacity:1;stroke:#ff2c76;stroke-width:1;stroke-linecap:round;stroke-opacity:1"/><text id="text1726" style="font-size:10px;font-family:sans-serif;text-anchor:start;fill:#000"><tspan id="tspan1724" x="13.333" y="13.833">1</tspan></text></g></g><g id="g1740" transform="matrix(0.9375,0,0,0.9375,222.33237,126.95769)"><g id="g1738" transform="scale(1.5)"><path id="path1732" d="m 8.5,0.5 h 60 v 20 h -60 v -8 -1 h -6 v 3 h -2 v -8 h 2 v 3 h 6 v -1 z" style="fill:#ff6ea1;fill-opacity:1;stroke:#ff2c76;stroke-width:1;stroke-linecap:round;stroke-opacity:1"/><text id="text1736" style="font-size:10px;font-family:sans-serif;text-anchor:start;fill:#000"><tspan id="tspan1734" x="13.333" y="13.833">3</tspan></text></g></g><g id="g1750" transform="matrix(0.9375,0,0,0.9375,50.625,126.95769)"><g id="g1748" transform="scale(1.5)"><path id="path1742" d="m 0.5,8.5 v -4 a 4,4 90 0 1 4,-4 h 4 v 2 h 10 v -2 h 20 4 a 4,4 90 0 1 4,4 v 4 4 4 a 4,4 90 0 1 -4,4 h -4 -20 -1 v 2 h -8 v -2 h -1 -4 a 4,4 90 0 1 -4,-4 v -4 z" style="fill:#c4c4c4;fill-opacity:1;stroke:#000;stroke-width:1;stroke-linecap:round;stroke-opacity:1"/><text id="text1746" style="font-size:10px;font-family:sans-serif;text-anchor:end;fill:#000"><tspan id="tspan1744" x="36.333" y="13.5">↓</tspan></text></g></g><g id="g1764" transform="matrix(0.9375,0,0,0.9375,50.625,156.48894)"><g id="g1762" transform="scale(1.5)"><path id="path1752" d="m 0.5,8.5 v -4 a 4,4 90 0 1 4,-4 h 4 v 2 h 10 v -2 h 30 4 a 4,4 90 0 1 4,4 v 4 h -4 v -3 h -4 v 10 h 4 v -3 h 4 v 4 a 4,4 90 0 1 -4,4 h -4 -30 -1 v 2 h -8 v -2 h -1 -4 a 4,4 90 0 1 -4,-4 v -4 z" style="fill:#3edcdd;fill-opacity:1;stroke:#000;stroke-width:1;stroke-linecap:round;stroke-opacity:1"/><text id="text1756" style="font-size:10px;font-family:sans-serif;text-anchor:end;fill:#000"><tspan id="tspan1754" x="46.333" y="13.5">bateria</tspan></text></g></g><g id="g1774" transform="matrix(0.9375,0,0,0.9375,119.53125,156.48894)"><g id="g1772" transform="scale(1.5)"><path id="path1766" d="m 8.5,0.5 h 60 v 20 h -60 v -8 -1 h -6 v 3 h -2 v -8 h 2 v 3 h 6 v -1 z" style="fill:#3edcdd;fill-opacity:1;stroke:#000;stroke-width:1;stroke-linecap:round;stroke-opacity:1"/><text id="text1770" style="font-size:10px;font-family:sans-serif;text-anchor:start;fill:#000"><tspan id="tspan1768" x="13.333" y="13.833">bumbo</tspan></text></g></g></svg>