<svg xmlns="http://www.w3.org/2000/svg" xmlns:svg="http://www.w3.org/2000/svg" id="svg4075" width="277.602" height="440.947" version="1.1" viewBox="0 0 277.602 440.947"><metadata id="metadata4080"/><g id="g1166" transform="matrix(0.93749999,0,0,0.93749999,4.0000004e-8,0.39519136)"><g id="g1164" transform="scale(1.5)"><path style="fill:#ffbf00;fill-opacity:1;stroke:#daaf30;stroke-width:1;stroke-linecap:round;stroke-opacity:1" id="path1154" d="m 0.5,14.5 v -4 a 4,4 90 0 1 4,-4 h 4 l 5,-6 5,6 h 9 35 4 a 4,4 90 0 1 4,4 v 4 h -4 v -3 h -4 v 10 h 4 v -3 h 4 v 4 a 4,4 90 0 1 -4,4 h -4 -35 -1 v 2 h -8 v -2 h -1 -4 a 5,5 90 0 0 -5,5 v 4 4 105 4 a 5,5 90 0 0 5,5 h 4 v 2 h 10 v -2 h 8 v 6 6 4 a 4,4 90 0 1 -4,4 h -4 -9 l -5,6 -5,-6 h -4 a 4,4 90 0 1 -4,-4 v -4 z"/><text style="font-size:10px;font-family:sans-serif;text-anchor:start;fill:#000" id="text1158"><tspan id="tspan1156" x="5.333" y="21.5">ação</tspan></text></g></g><g id="g1176" transform="matrix(0.93749999,0,0,0.93749999,88.593749,8.8326913)"><g id="g1174" transform="scale(1.5)"><path style="fill:#ff6648;fill-opacity:1;stroke:#ea4326;stroke-width:1;stroke-linecap:round;stroke-opacity:1" id="path1168" d="m 8.5,0.5 h 68.533333 v 20 H 8.5 v -8 -1 h -6 v 3 h -2 v -8 h 2 v 3 h 6 v -1 z"/><text style="font-size:10px;font-family:sans-serif;text-anchor:start;fill:#000" id="text1172"><tspan id="tspan1170" x="13.333" y="13.833">tarola_ritmo</tspan></text></g></g><g id="g1194" transform="matrix(0.93749999,0,0,0.93749999,16.65625,38.363941)"><g id="g1192" transform="scale(1.5)"><path style="fill:#92a9ff;fill-opacity:1;stroke:#5370dc;stroke-width:1;stroke-linecap:round;stroke-opacity:1" id="path1178" d="m -2.3444445,8.5 v -4 c 0,-2.209139 1.79086103,-4 4,-4 h 4 v 2 H 15.655556 v -2 h 43.405967 4 c 2.209139,0 4,1.790861 4,4 v 4 h -4 v -3 h -4 v 10 h 4 v -3 h 4 v 17 h -4 v -3 h -4 v 10 h 4 v -3 h 4 v 4 c 0,2.209139 -1.790861,4 -4,4 h -4 -43.405967 -1 v 2 H 6.6555555 v -2 h -1 -4 c -2.20913897,0 -4,-1.790861 -4,-4 v -4 -21 z"/><text style="font-size:10px;font-family:sans-serif;text-anchor:end;fill:#000" id="text1182"><tspan id="tspan1180" x="56.895" y="24">Ritmo</tspan></text><text style="font-size:6.66666651px;font-family:sans-serif;text-anchor:end;fill:#000" id="text1186"><tspan id="tspan1184" x="56.895" y="11.25">número de notas</tspan></text><text style="font-size:6.66666651px;font-family:sans-serif;text-anchor:end;fill:#000" id="text1190"><tspan id="tspan1188" x="56.895" y="32.25">valor de nota</tspan></text></g></g><g id="g1204" transform="matrix(0.93749999,0,0,0.93749999,100.41465,38.363941)"><g id="g1202" transform="scale(1.5)"><path style="fill:#ff6ea1;fill-opacity:1;stroke:#ff2c76;stroke-width:1;stroke-linecap:round;stroke-opacity:1" id="path1196" d="m 8.5,0.5 h 60 v 20 h -60 v -8 -1 h -6 v 3 h -2 v -8 h 2 v 3 h 6 v -1 z"/><text style="font-size:10px;font-family:sans-serif;text-anchor:start;fill:#000" id="text1200"><tspan id="tspan1198" x="13.333" y="13.833">1</tspan></text></g></g><g id="g1222" transform="matrix(0.93749999,0,0,0.93749999,100.41465,67.89519)"><g id="g1220" transform="scale(1.5)"><path style="fill:#ff6ea1;fill-opacity:1;stroke:#ff2c76;stroke-width:1;stroke-linecap:round;stroke-opacity:1" id="path1206" d="m 8.5,8.5 v -4 a 4,4 90 0 1 4,-4 h 4 10 30 4 a 4,4 90 0 1 4,4 v 4 h -4 v -3 h -4 v 10 h 4 v -3 h 4 v 17 h -4 v -3 h -4 v 10 h 4 v -3 h 4 v 4 a 4,4 90 0 1 -4,4 h -4 -30 -10 -4 a 4,4 90 0 1 -4,-4 v -4 -21 -1 h -6 v 3 h -2 v -8 h 2 v 3 h 6 z"/><text style="font-size:14px;font-family:sans-serif;text-anchor:end;fill:#000" id="text1210"><tspan id="tspan1208" x="54.333" y="23.8">/</tspan></text></g></g><g id="g1232" transform="matrix(0.93749999,0,0,0.93749999,180.57089,67.89519)"><g id="g1230" transform="scale(1.5)"><path style="fill:#ff6ea1;fill-opacity:1;stroke:#ff2c76;stroke-width:1;stroke-linecap:round;stroke-opacity:1" id="path1224" d="m 8.5,0.5 h 60 v 20 h -60 v -8 -1 h -6 v 3 h -2 v -8 h 2 v 3 h 6 v -1 z"/><text style="font-size:10px;font-family:sans-serif;text-anchor:start;fill:#000" id="text1228"><tspan id="tspan1226" x="13.333" y="13.833">1</tspan></text></g></g><g id="g1242" transform="matrix(0.93749999,0,0,0.93749999,180.57089,97.42644)"><g id="g1240" transform="scale(1.5)"><path style="fill:#ff6ea1;fill-opacity:1;stroke:#ff2c76;stroke-width:1;stroke-linecap:round;stroke-opacity:1" id="path1234" d="m 8.5,0.5 h 60 v 20 h -60 v -8 -1 h -6 v 3 h -2 v -8 h 2 v 3 h 6 v -1 z"/><text style="font-size:10px;font-family:sans-serif;text-anchor:start;fill:#000" id="text1238"><tspan id="tspan1236" x="13.333" y="13.833">2</tspan></text></g></g><g id="g1252" transform="matrix(0.93749999,0,0,0.93749999,12.65625,97.42644)"><g id="g1250" transform="scale(1.5)"><path style="fill:#c4c4c4;fill-opacity:1;stroke:#000;stroke-width:1;stroke-linecap:round;stroke-opacity:1" id="path1244" d="m 0.5,8.5 v -4 a 4,4 90 0 1 4,-4 h 4 v 2 h 10 v -2 h 20 4 a 4,4 90 0 1 4,4 v 4 4 4 a 4,4 90 0 1 -4,4 h -4 -20 -1 v 2 h -8 v -2 h -1 -4 a 4,4 90 0 1 -4,-4 v -4 z"/><text style="font-size:10px;font-family:sans-serif;text-anchor:end;fill:#000" id="text1248"><tspan id="tspan1246" x="36.333" y="13.5">↓</tspan></text></g></g><g id="g1270" transform="matrix(0.93749999,0,0,0.93749999,16.65625,126.95769)"><g id="g1268" transform="scale(1.5)"><path style="fill:#92a9ff;fill-opacity:1;stroke:#5370dc;stroke-width:1;stroke-linecap:round;stroke-opacity:1" id="path1254" d="m -2.3444445,8.5 v -4 c 0,-2.209139 1.79086103,-4 4,-4 h 4 v 2 H 15.655556 v -2 h 43.405967 4 c 2.209139,0 4,1.790861 4,4 v 4 h -4 v -3 h -4 v 10 h 4 v -3 h 4 v 17 h -4 v -3 h -4 v 10 h 4 v -3 h 4 v 4 c 0,2.209139 -1.790861,4 -4,4 h -4 -43.405967 -1 v 2 H 6.6555555 v -2 h -1 -4 c -2.20913897,0 -4.7400829,-1.918517 -4,-4 v -4 -21 z"/><text style="font-size:10px;font-family:sans-serif;text-anchor:end;fill:#000" id="text1258"><tspan id="tspan1256" x="56.895" y="24">Ritmo</tspan></text><text style="font-size:6.66666651px;font-family:sans-serif;text-anchor:end;fill:#000" id="text1262"><tspan id="tspan1260" x="56.895" y="11.25">número de notas</tspan></text><text style="font-size:6.66666651px;font-family:sans-serif;text-anchor:end;fill:#000" id="text1266"><tspan id="tspan1264" x="56.895" y="32.25">valor de nota</tspan></text></g></g><g id="g1280" transform="matrix(0.93749999,0,0,0.93749999,100.41465,126.95769)"><g id="g1278" transform="scale(1.5)"><path style="fill:#ff6ea1;fill-opacity:1;stroke:#ff2c76;stroke-width:1;stroke-linecap:round;stroke-opacity:1" id="path1272" d="m 8.5,0.5 h 60 v 20 h -60 v -8 -1 h -6 v 3 h -2 v -8 h 2 v 3 h 6 v -1 z"/><text style="font-size:10px;font-family:sans-serif;text-anchor:start;fill:#000" id="text1276"><tspan id="tspan1274" x="13.333" y="13.833">2</tspan></text></g></g><g id="g1298" transform="matrix(0.93749999,0,0,0.93749999,100.41465,156.48894)"><g id="g1296" transform="scale(1.5)"><path style="fill:#ff6ea1;fill-opacity:1;stroke:#ff2c76;stroke-width:1;stroke-linecap:round;stroke-opacity:1" id="path1282" d="m 8.5,8.5 v -4 a 4,4 90 0 1 4,-4 h 4 10 30 4 a 4,4 90 0 1 4,4 v 4 h -4 v -3 h -4 v 10 h 4 v -3 h 4 v 17 h -4 v -3 h -4 v 10 h 4 v -3 h 4 v 4 a 4,4 90 0 1 -4,4 h -4 -30 -10 -4 a 4,4 90 0 1 -4,-4 v -4 -21 -1 h -6 v 3 h -2 v -8 h 2 v 3 h 6 z"/><text style="font-size:14px;font-family:sans-serif;text-anchor:end;fill:#000" id="text1286"><tspan id="tspan1284" x="54.333" y="23.8">/</tspan></text></g></g><g id="g1308" transform="matrix(0.93749999,0,0,0.93749999,180.57089,156.48894)"><g id="g1306" transform="scale(1.5)"><path style="fill:#ff6ea1;fill-opacity:1;stroke:#ff2c76;stroke-width:1;stroke-linecap:round;stroke-opacity:1" id="path1300" d="m 8.5,0.5 h 60 v 20 h -60 v -8 -1 h -6 v 3 h -2 v -8 h 2 v 3 h 6 v -1 z"/><text style="font-size:10px;font-family:sans-serif;text-anchor:start;fill:#000" id="text1304"><tspan id="tspan1302" x="13.333" y="13.833">1</tspan></text></g></g><g id="g1318" transform="matrix(0.93749999,0,0,0.93749999,180.57089,186.02019)"><g id="g1316" transform="scale(1.5)"><path style="fill:#ff6ea1;fill-opacity:1;stroke:#ff2c76;stroke-width:1;stroke-linecap:round;stroke-opacity:1" id="path1310" d="m 8.5,0.5 h 60 v 20 h -60 v -8 -1 h -6 v 3 h -2 v -8 h 2 v 3 h 6 v -1 z"/><text style="font-size:10px;font-family:sans-serif;text-anchor:start;fill:#000" id="text1314"><tspan id="tspan1312" x="13.333" y="13.833">4</tspan></text></g></g><g id="g1328" transform="matrix(0.93749999,0,0,0.93749999,12.65625,186.02019)"><g id="g1326" transform="scale(1.5)"><path style="fill:#c4c4c4;fill-opacity:1;stroke:#000;stroke-width:1;stroke-linecap:round;stroke-opacity:1" id="path1320" d="m 0.5,8.5 v -4 a 4,4 90 0 1 4,-4 h 4 v 2 h 10 v -2 h 20 4 a 4,4 90 0 1 4,4 v 4 4 4 a 4,4 90 0 1 -4,4 h -4 -20 -1 v 2 h -8 v -2 h -1 -4 a 4,4 90 0 1 -4,-4 v -4 z"/><text style="font-size:10px;font-family:sans-serif;text-anchor:end;fill:#000" id="text1324"><tspan id="tspan1322" x="36.333" y="13.5">↓</tspan></text></g></g><g id="g1342" transform="matrix(0.93749999,0,0,0.93749999,0,276.02019)"><g id="g1340" transform="scale(1.5)"><path style="fill:#ffbf00;fill-opacity:1;stroke:#daaf30;stroke-width:1;stroke-linecap:round;stroke-opacity:1" id="path1330" d="m 0.5,14.5 v -4 a 4,4 90 0 1 4,-4 h 4 l 5,-6 5,6 h 9 35 4 a 4,4 90 0 1 4,4 v 4 h -4 v -3 h -4 v 10 h 4 v -3 h 4 v 4 a 4,4 90 0 1 -4,4 h -4 -35 -1 v 2 h -8 v -2 h -1 -4 a 5,5 90 0 0 -5,5 v 4 4 42 4 a 5,5 90 0 0 5,5 h 4 v 2 h 10 v -2 h 8 v 6 6 4 a 4,4 90 0 1 -4,4 h -4 -9 l -5,6 -5,-6 h -4 a 4,4 90 0 1 -4,-4 v -4 z"/><text style="font-size:10px;font-family:sans-serif;text-anchor:start;fill:#000" id="text1334"><tspan id="tspan1332" x="5.333" y="21.5">ação</tspan></text></g></g><g id="g1352" transform="matrix(0.93749999,0,0,0.93749999,88.593749,284.45769)"><g id="g1350" transform="scale(1.5)"><path style="fill:#ff6648;fill-opacity:1;stroke:#ea4326;stroke-width:1;stroke-linecap:round;stroke-opacity:1" id="path1344" d="m 8.5,0.5 h 75.644445 v 20 H 8.5 v -8 -1 h -6 v 3 h -2 v -8 h 2 v 3 h 6 v -1 z"/><text style="font-size:10px;font-family:sans-serif;text-anchor:start;fill:#000" id="text1348"><tspan id="tspan1346" x="13.333" y="13.833">bumbo_ritmo</tspan></text></g></g><g id="g1370" transform="matrix(0.93749999,0,0,0.93749999,16.65625,313.98894)"><g id="g1368" transform="scale(1.5)"><path style="fill:#92a9ff;fill-opacity:1;stroke:#5370dc;stroke-width:1;stroke-linecap:round;stroke-opacity:1" id="path1354" d="m -2.3444445,8.5 v -4 c 0,-2.209139 1.79086103,-4 4,-4 h 4 v 2 H 15.655556 v -2 h 43.405967 4 c 2.209139,0 4,1.790861 4,4 v 4 h -4 v -3 h -4 v 10 h 4 v -3 h 4 v 17 h -4 v -3 h -4 v 10 h 4 v -3 h 4 v 4 c 0,2.209139 -1.790861,4 -4,4 h -4 -43.405967 -1 v 2 H 6.6555555 v -2 h -1 -4 c -2.20913897,0 -4.7400829,-1.918517 -4,-4 v -4 -21 z"/><text style="font-size:10px;font-family:sans-serif;text-anchor:end;fill:#000" id="text1358"><tspan id="tspan1356" x="56.895" y="24">Ritmo</tspan></text><text style="font-size:6.66666651px;font-family:sans-serif;text-anchor:end;fill:#000" id="text1362"><tspan id="tspan1360" x="56.895" y="11.25">número de notas</tspan></text><text style="font-size:6.66666651px;font-family:sans-serif;text-anchor:end;fill:#000" id="text1366"><tspan id="tspan1364" x="56.895" y="32.25">valor de nota</tspan></text></g></g><g id="g1380" transform="matrix(0.93749999,0,0,0.93749999,100.41465,313.98894)"><g id="g1378" transform="scale(1.5)"><path style="fill:#ff6ea1;fill-opacity:1;stroke:#ff2c76;stroke-width:1;stroke-linecap:round;stroke-opacity:1" id="path1372" d="m 8.5,0.5 h 60 v 20 h -60 v -8 -1 h -6 v 3 h -2 v -8 h 2 v 3 h 6 v -1 z"/><text style="font-size:10px;font-family:sans-serif;text-anchor:start;fill:#000" id="text1376"><tspan id="tspan1374" x="13.333" y="13.833">3</tspan></text></g></g><g id="g1398" transform="matrix(0.93749999,0,0,0.93749999,100.41465,343.52019)"><g id="g1396" transform="scale(1.5)"><path style="fill:#ff6ea1;fill-opacity:1;stroke:#ff2c76;stroke-width:1;stroke-linecap:round;stroke-opacity:1" id="path1382" d="m 8.5,8.5 v -4 a 4,4 90 0 1 4,-4 h 4 10 30 4 a 4,4 90 0 1 4,4 v 4 h -4 v -3 h -4 v 10 h 4 v -3 h 4 v 17 h -4 v -3 h -4 v 10 h 4 v -3 h 4 v 4 a 4,4 90 0 1 -4,4 h -4 -30 -10 -4 a 4,4 90 0 1 -4,-4 v -4 -21 -1 h -6 v 3 h -2 v -8 h 2 v 3 h 6 z"/><text style="font-size:14px;font-family:sans-serif;text-anchor:end;fill:#000" id="text1386"><tspan id="tspan1384" x="54.333" y="23.8">/</tspan></text></g></g><g id="g1408" transform="matrix(0.93749999,0,0,0.93749999,180.57089,343.52019)"><g id="g1406" transform="scale(1.5)"><path style="fill:#ff6ea1;fill-opacity:1;stroke:#ff2c76;stroke-width:1;stroke-linecap:round;stroke-opacity:1" id="path1400" d="m 8.5,0.5 h 60 v 20 h -60 v -8 -1 h -6 v 3 h -2 v -8 h 2 v 3 h 6 v -1 z"/><text style="font-size:10px;font-family:sans-serif;text-anchor:start;fill:#000" id="text1404"><tspan id="tspan1402" x="13.333" y="13.833">1</tspan></text></g></g><g id="g1418" transform="matrix(0.93749999,0,0,0.93749999,180.57089,373.05144)"><g id="g1416" transform="scale(1.5)"><path style="fill:#ff6ea1;fill-opacity:1;stroke:#ff2c76;stroke-width:1;stroke-linecap:round;stroke-opacity:1" id="path1410" d="m 8.5,0.5 h 60 v 20 h -60 v -8 -1 h -6 v 3 h -2 v -8 h 2 v 3 h 6 v -1 z"/><text style="font-size:10px;font-family:sans-serif;text-anchor:start;fill:#000" id="text1414"><tspan id="tspan1412" x="13.333" y="13.833">3</tspan></text></g></g><g id="g1428" transform="matrix(0.93749999,0,0,0.93749999,12.65625,373.05144)"><g id="g1426" transform="scale(1.5)"><path style="fill:#c4c4c4;fill-opacity:1;stroke:#000;stroke-width:1;stroke-linecap:round;stroke-opacity:1" id="path1420" d="m 0.5,8.5 v -4 a 4,4 90 0 1 4,-4 h 4 v 2 h 10 v -2 h 20 4 a 4,4 90 0 1 4,4 v 4 4 4 a 4,4 90 0 1 -4,4 h -4 -20 -1 v 2 h -8 v -2 h -1 -4 a 4,4 90 0 1 -4,-4 v -4 z"/><text style="font-size:10px;font-family:sans-serif;text-anchor:end;fill:#000" id="text1424"><tspan id="tspan1422" x="36.333" y="13.5">↓</tspan></text></g></g></svg>