<svg xmlns="http://www.w3.org/2000/svg" xmlns:svg="http://www.w3.org/2000/svg" id="svg5587" width="290.258" height="312.978" version="1.1" viewBox="0 0 290.258 312.978"><metadata id="metadata5592"/><flowRoot style="font-style:normal;font-weight:400;font-size:16px;line-height:125%;font-family:sans-serif;text-align:center;letter-spacing:0;word-spacing:0;text-anchor:middle;fill:#000;fill-opacity:1;stroke:none;stroke-width:1px;stroke-linecap:butt;stroke-linejoin:miter;stroke-opacity:1" id="flowRoot4622" transform="translate(4.5278938,-871.63404)" xml:space="preserve"><flowRegion id="flowRegion4624"><rect id="rect4626" width="320.467" height="182.714" x="673.46" y="575.885"/></flowRegion><flowPara id="flowPara4628"/></flowRoot><g id="g972" transform="matrix(0.93749999,0,0,0.93749999,0,0.39519136)"><g id="g970" transform="scale(1.5)"><path id="path964" d="m 0.5,14.5 v -4 c 0,-2.209139 1.790861,-4 4,-4 h 4 l 5,-6 5,6 h 9 54.722505 4 c 2.209139,0 4,1.790861 4,4 v 4 4 4 c 0,2.209139 -1.790861,4 -4,4 h -4 H 27.5 h -1 v 2 h -8 v -2 h -1 -4 c -2.761424,0 -5,2.238576 -5,5 v 4 4 147 4 c 0,2.76142 2.238576,5 5,5 h 4 v 2 h 10 v -2 h 8 v 6 6 4 c 0,2.20914 -1.790861,4 -4,4 h -4 -9 l -5,6 -5,-6 h -4 c -2.209139,0 -4,-1.79086 -4,-4 v -4 z" style="fill:#92a9ff;fill-opacity:1;stroke:#5370dc;stroke-width:1;stroke-linecap:round;stroke-opacity:1"/><text id="text968" style="font-size:10px;font-family:sans-serif;text-anchor:start;fill:#000"><tspan id="tspan966" x="5.333" y="21.5">criador de ritmo</tspan></text></g></g><g id="g986" transform="matrix(0.93749999,0,0,0.93749999,12.65625,38.363941)"><g id="g984" transform="scale(1.5)"><path id="path974" d="m 0.5,8.5 v -4 c 0,-2.209139 1.790861,-4 4,-4 h 4 v 2 h 10 v -2 h 9 51.656923 4 c 2.209139,0 4.740083,1.9185168 4,4 v 4 h -4 v -3 h -4 v 10 h 4 v -3 h 4 v 4 c 0,2.209139 -1.790861,4 -4,4 h -4 H 27.5 h -1 v 2 h -8 v -2 h -1 -4 c -2.761424,0 -5,2.238576 -5,5 v 4 4 21 4 c 0,2.761424 2.238576,5 5,5 h 4 v 2 h 10 v -2 h 8 v 6 6 4 c 0,2.209139 -1.790861,4 -4,4 h -4 -9 -1 v 2 h -8 v -2 h -1 -4 c -2.209139,0 -4,-1.790861 -4,-4 v -4 z" style="fill:#3edcdd;fill-opacity:1;stroke:#000;stroke-width:1;stroke-linecap:round;stroke-opacity:1"/><text id="text978" style="font-size:10px;font-family:sans-serif;text-anchor:start;fill:#000"><tspan id="tspan976" x="5.333" y="15.25">definir bateria</tspan></text></g></g><g id="g996" transform="matrix(0.93749999,0,0,0.93749999,124.6738,38.363941)"><g id="g994" transform="scale(1.5)"><path id="path988" d="m 8.5,0.5 h 60 v 20 h -60 v -8 -1 h -6 v 3 h -2 v -8 h 2 v 3 h 6 v -1 z" style="fill:#3edcdd;fill-opacity:1;stroke:#000;stroke-width:1;stroke-linecap:round;stroke-opacity:1"/><text id="text992" style="font-size:10px;font-family:sans-serif;text-anchor:start;fill:#000"><tspan id="tspan990" x="13.333" y="13.833">tarola</tspan></text></g></g><g id="g1014" transform="matrix(0.93749999,0,0,0.93749999,29.3125,67.89519)"><g id="g1012" transform="scale(1.5)"><path id="path998" d="m -2.3444445,8.5 v -4 c 0,-2.209139 1.79086103,-4 4,-4 h 4 v 2 H 15.655556 v -2 h 43.405967 4 c 2.209139,0 4,1.790861 4,4 v 4 h -4 v -3 h -4 v 10 h 4 v -3 h 4 v 17 h -4 v -3 h -4 v 10 h 4 v -3 h 4 v 4 c 0,2.209139 -1.790861,4 -4,4 h -4 -43.405967 -1 v 2 H 6.6555555 v -2 h -1 -4 c -2.20913897,0 -4,-1.790861 -4,-4 v -4 -21 z" style="fill:#92a9ff;fill-opacity:1;stroke:#5370dc;stroke-width:1;stroke-linecap:round;stroke-opacity:1"/><text id="text1002" style="font-size:10px;font-family:sans-serif;text-anchor:end;fill:#000"><tspan id="tspan1000" x="56.895" y="24">Ritmo</tspan></text><text id="text1006" style="font-size:6.66666651px;font-family:sans-serif;text-anchor:end;fill:#000"><tspan id="tspan1004" x="56.895" y="11.25">número de notas</tspan></text><text id="text1010" style="font-size:6.66666651px;font-family:sans-serif;text-anchor:end;fill:#000"><tspan id="tspan1008" x="56.895" y="32.25">valor de nota</tspan></text></g></g><g id="g1024" transform="matrix(0.93749999,0,0,0.93749999,113.0709,67.89519)"><g id="g1022" transform="scale(1.5)"><path id="path1016" d="m 8.5,0.5 h 60 v 20 h -60 v -8 -1 h -6 v 3 h -2 v -8 h 2 v 3 h 6 v -1 z" style="fill:#ff6ea1;fill-opacity:1;stroke:#ff2c76;stroke-width:1;stroke-linecap:round;stroke-opacity:1"/><text id="text1020" style="font-size:10px;font-family:sans-serif;text-anchor:start;fill:#000"><tspan id="tspan1018" x="13.333" y="13.833">1</tspan></text></g></g><g id="g1042" transform="matrix(0.93749999,0,0,0.93749999,113.0709,97.42644)"><g id="g1040" transform="scale(1.5)"><path id="path1026" d="m 8.5,8.5 v -4 a 4,4 90 0 1 4,-4 h 4 10 30 4 a 4,4 90 0 1 4,4 v 4 h -4 v -3 h -4 v 10 h 4 v -3 h 4 v 17 h -4 v -3 h -4 v 10 h 4 v -3 h 4 v 4 a 4,4 90 0 1 -4,4 h -4 -30 -10 -4 a 4,4 90 0 1 -4,-4 v -4 -21 -1 h -6 v 3 h -2 v -8 h 2 v 3 h 6 z" style="fill:#ff6ea1;fill-opacity:1;stroke:#ff2c76;stroke-width:1;stroke-linecap:round;stroke-opacity:1"/><text id="text1030" style="font-size:14px;font-family:sans-serif;text-anchor:end;fill:#000"><tspan id="tspan1028" x="54.333" y="23.8">/</tspan></text></g></g><g id="g1052" transform="matrix(0.93749999,0,0,0.93749999,193.22715,97.42644)"><g id="g1050" transform="scale(1.5)"><path id="path1044" d="m 8.5,0.5 h 60 v 20 h -60 v -8 -1 h -6 v 3 h -2 v -8 h 2 v 3 h 6 v -1 z" style="fill:#ff6ea1;fill-opacity:1;stroke:#ff2c76;stroke-width:1;stroke-linecap:round;stroke-opacity:1"/><text id="text1048" style="font-size:10px;font-family:sans-serif;text-anchor:start;fill:#000"><tspan id="tspan1046" x="13.333" y="13.833">1</tspan></text></g></g><g id="g1062" transform="matrix(0.93749999,0,0,0.93749999,193.22715,126.95769)"><g id="g1060" transform="scale(1.5)"><path id="path1054" d="m 8.5,0.5 h 60 v 20 h -60 v -8 -1 h -6 v 3 h -2 v -8 h 2 v 3 h 6 v -1 z" style="fill:#ff6ea1;fill-opacity:1;stroke:#ff2c76;stroke-width:1;stroke-linecap:round;stroke-opacity:1"/><text id="text1058" style="font-size:10px;font-family:sans-serif;text-anchor:start;fill:#000"><tspan id="tspan1056" x="13.333" y="13.833">1</tspan></text></g></g><g id="g1076" transform="matrix(0.93749999,0,0,0.93749999,12.65625,156.48894)"><g id="g1074" transform="scale(1.5)"><path id="path1064" d="m 0.5,8.5 v -4 c 0,-2.209139 1.790861,-4 4,-4 h 4 v 2 h 10 v -2 h 9 51.656923 4 c 2.209139,0 4.740083,1.9185168 4,4 v 4 h -4 v -3 h -4 v 10 h 4 v -3 h 4 v 4 c 0,2.209139 -1.790861,4 -4,4 h -4 H 27.5 h -1 v 2 h -8 v -2 h -1 -4 c -2.761424,0 -5,2.238576 -5,5 v 4 4 21 4 c 0,2.761424 2.238576,5 5,5 h 4 v 2 h 10 v -2 h 8 v 6 6 4 c 0,2.209139 -1.790861,4 -4,4 h -4 -9 -1 v 2 h -8 v -2 h -1 -4 c -2.209139,0 -4,-1.790861 -4,-4 v -4 z" style="fill:#3edcdd;fill-opacity:1;stroke:#000;stroke-width:1;stroke-linecap:round;stroke-opacity:1"/><text id="text1068" style="font-size:10px;font-family:sans-serif;text-anchor:start;fill:#000"><tspan id="tspan1066" x="5.333" y="15.25">definir bateria</tspan></text></g></g><g id="g1086" transform="matrix(0.93749999,0,0,0.93749999,124.6738,156.48894)"><g id="g1084" transform="scale(1.5)"><path id="path1078" d="m 8.5,0.5 h 60 v 20 h -60 v -8 -1 h -6 v 3 h -2 v -8 h 2 v 3 h 6 v -1 z" style="fill:#3edcdd;fill-opacity:1;stroke:#000;stroke-width:1;stroke-linecap:round;stroke-opacity:1"/><text id="text1082" style="font-size:10px;font-family:sans-serif;text-anchor:start;fill:#000"><tspan id="tspan1080" x="13.333" y="13.833">bumbo</tspan></text></g></g><g id="g1104" transform="matrix(0.93749999,0,0,0.93749999,29.3125,186.02019)"><g id="g1102" transform="scale(1.5)"><path id="path1088" d="m -2.3444445,8.5 v -4 c 0,-2.209139 1.79086103,-4 4,-4 h 4 v 2 H 15.655556 v -2 h 43.405967 4 c 2.209139,0 4,1.790861 4,4 v 4 h -4 v -3 h -4 v 10 h 4 v -3 h 4 v 17 h -4 v -3 h -4 v 10 h 4 v -3 h 4 v 4 c 0,2.209139 -1.790861,4 -4,4 h -4 -43.405967 -1 v 2 H 6.6555555 v -2 h -1 -4 c -2.20913897,0 -4.7400829,-1.918517 -4,-4 v -4 -21 z" style="fill:#92a9ff;fill-opacity:1;stroke:#5370dc;stroke-width:1;stroke-linecap:round;stroke-opacity:1"/><text id="text1092" style="font-size:10px;font-family:sans-serif;text-anchor:end;fill:#000"><tspan id="tspan1090" x="56.895" y="24">Ritmo</tspan></text><text id="text1096" style="font-size:6.66666651px;font-family:sans-serif;text-anchor:end;fill:#000"><tspan id="tspan1094" x="56.895" y="11.25">número de notas</tspan></text><text id="text1100" style="font-size:6.66666651px;font-family:sans-serif;text-anchor:end;fill:#000"><tspan id="tspan1098" x="56.895" y="32.25">valor de nota</tspan></text></g></g><g id="g1114" transform="matrix(0.93749999,0,0,0.93749999,113.0709,186.02019)"><g id="g1112" transform="scale(1.5)"><path id="path1106" d="m 8.5,0.5 h 60 v 20 h -60 v -8 -1 h -6 v 3 h -2 v -8 h 2 v 3 h 6 v -1 z" style="fill:#ff6ea1;fill-opacity:1;stroke:#ff2c76;stroke-width:1;stroke-linecap:round;stroke-opacity:1"/><text id="text1110" style="font-size:10px;font-family:sans-serif;text-anchor:start;fill:#000"><tspan id="tspan1108" x="13.333" y="13.833">1</tspan></text></g></g><g id="g1132" transform="matrix(0.93749999,0,0,0.93749999,113.0709,215.55144)"><g id="g1130" transform="scale(1.5)"><path id="path1116" d="m 8.5,8.5 v -4 a 4,4 90 0 1 4,-4 h 4 10 30 4 a 4,4 90 0 1 4,4 v 4 h -4 v -3 h -4 v 10 h 4 v -3 h 4 v 17 h -4 v -3 h -4 v 10 h 4 v -3 h 4 v 4 a 4,4 90 0 1 -4,4 h -4 -30 -10 -4 a 4,4 90 0 1 -4,-4 v -4 -21 -1 h -6 v 3 h -2 v -8 h 2 v 3 h 6 z" style="fill:#ff6ea1;fill-opacity:1;stroke:#ff2c76;stroke-width:1;stroke-linecap:round;stroke-opacity:1"/><text id="text1120" style="font-size:14px;font-family:sans-serif;text-anchor:end;fill:#000"><tspan id="tspan1118" x="54.333" y="23.8">/</tspan></text></g></g><g id="g1142" transform="matrix(0.93749999,0,0,0.93749999,193.22715,215.55144)"><g id="g1140" transform="scale(1.5)"><path id="path1134" d="m 8.5,0.5 h 60 v 20 h -60 v -8 -1 h -6 v 3 h -2 v -8 h 2 v 3 h 6 v -1 z" style="fill:#ff6ea1;fill-opacity:1;stroke:#ff2c76;stroke-width:1;stroke-linecap:round;stroke-opacity:1"/><text id="text1138" style="font-size:10px;font-family:sans-serif;text-anchor:start;fill:#000"><tspan id="tspan1136" x="13.333" y="13.833">1</tspan></text></g></g><g id="g1152" transform="matrix(0.93749999,0,0,0.93749999,193.22715,245.08269)"><g id="g1150" transform="scale(1.5)"><path id="path1144" d="m 8.5,0.5 h 60 v 20 h -60 v -8 -1 h -6 v 3 h -2 v -8 h 2 v 3 h 6 v -1 z" style="fill:#ff6ea1;fill-opacity:1;stroke:#ff2c76;stroke-width:1;stroke-linecap:round;stroke-opacity:1"/><text id="text1148" style="font-size:10px;font-family:sans-serif;text-anchor:start;fill:#000"><tspan id="tspan1146" x="13.333" y="13.833">1</tspan></text></g></g></svg>