<svg xmlns="http://www.w3.org/2000/svg" xmlns:svg="http://www.w3.org/2000/svg" id="svg3641" width="374.423" height="239.343" version="1.1"><metadata id="metadata3670"/><g id="g4627" transform="translate(410.60324,-37.08999)"><g id="g1094" transform="translate(-410.60324,37.511527)"><g id="g1092" transform="scale(1.5)"><path style="fill:#92a9ff;fill-opacity:1;stroke:#5370dc;stroke-width:1;stroke-linecap:round;stroke-opacity:1" id="path1086" d="m 0.5,14.5 v -4 a 4,4 90 0 1 4,-4 h 4 l 5,-6 5,6 h 9 30 4 a 4,4 90 0 1 4,4 v 4 4 4 a 4,4 90 0 1 -4,4 h -4 -30 -1 v 2 h -8 v -2 h -1 -4 a 5,5 90 0 0 -5,5 v 4 4 84 4 a 5,5 90 0 0 5,5 h 4 v 2 h 10 v -2 h 8 v 6 6 4 a 4,4 90 0 1 -4,4 h -4 -9 l -5,6 -5,-6 h -4 a 4,4 90 0 1 -4,-4 v -4 z"/><text style="font-size:10px;font-family:sans-serif;text-anchor:start;fill:#000" id="text1090"><tspan id="tspan1088" x="5.333" y="21.5">condição</tspan></text></g></g><g id="g1108" transform="translate(-397.10324,109.51153)"><g id="g1106" transform="scale(1.5)"><path style="fill:#c4c4c4;fill-opacity:1;stroke:#000;stroke-width:1;stroke-linecap:round;stroke-opacity:1" id="path1096" d="m 0.5,8.5 v -4 a 4,4 90 0 1 4,-4 h 4 v 2 h 10 v -2 h 30 4 a 4,4 90 0 1 4,4 v 4 h -4 v -3 h -4 v 10 h 4 v -3 h 4 v 4 a 4,4 90 0 1 -4,4 h -4 -30 -1 v 2 h -8 v -2 h -1 -4 a 4,4 90 0 1 -4,-4 v -4 z"/><text style="font-size:10px;font-family:sans-serif;text-anchor:end;fill:#000" id="text1100"><tspan id="tspan1098" x="46.333" y="13.5">imprimir</tspan></text></g></g><g id="g1118" transform="translate(-323.60324,109.51153)"><g id="g1116" transform="scale(1.5)"><path style="fill:#fe994f;fill-opacity:1;stroke:#e8680e;stroke-width:1;stroke-linecap:round;stroke-opacity:1" id="path1110" d="m 8.5,0.5 h 114.7041 v 20 H 8.5 v -8 -1 h -6 v 3 h -2 v -8 h 2 v 3 h 6 v -1 z"/><text style="font-size:10px;font-family:sans-serif;text-anchor:start;fill:#000" id="text1114"><tspan id="tspan1112" x="13.333" y="13.833">contador de batidas</tspan></text></g></g><g id="g1132" transform="translate(-397.10324,141.01153)"><g id="g1130" transform="scale(1.5)"><path style="fill:#c4c4c4;fill-opacity:1;stroke:#000;stroke-width:1;stroke-linecap:round;stroke-opacity:1" id="path1120" d="m 0.5,8.5 v -4 a 4,4 90 0 1 4,-4 h 4 v 2 h 10 v -2 h 30 4 a 4,4 90 0 1 4,4 v 4 h -4 v -3 h -4 v 10 h 4 v -3 h 4 v 4 a 4,4 90 0 1 -4,4 h -4 -30 -1 v 2 h -8 v -2 h -1 -4 a 4,4 90 0 1 -4,-4 v -4 z"/><text style="font-size:10px;font-family:sans-serif;text-anchor:end;fill:#000" id="text1124"><tspan id="tspan1122" x="46.333" y="13.5">imprimir</tspan></text></g></g><g id="g1142" transform="translate(-323.60324,141.01153)"><g id="g1140" transform="scale(1.5)"><path style="fill:#fe994f;fill-opacity:1;stroke:#e8680e;stroke-width:1;stroke-linecap:round;stroke-opacity:1" id="path1134" d="m 8.5,0.5 h 106.14746 v 20 H 8.5 v -8 -1 h -6 v 3 h -2 v -8 h 2 v 3 h 6 v -1 z"/><text style="font-size:10px;font-family:sans-serif;text-anchor:start;fill:#000" id="text1138"><tspan id="tspan1136" x="13.333" y="13.833">contador de medida</tspan></text></g></g><g id="g1156" transform="translate(-397.10324,172.51153)"><g id="g1154" transform="scale(1.5)"><path style="fill:#c4c4c4;fill-opacity:1;stroke:#000;stroke-width:1;stroke-linecap:round;stroke-opacity:1" id="path1144" d="m 0.5,8.5 v -4 a 4,4 90 0 1 4,-4 h 4 v 2 h 10 v -2 h 30 4 a 4,4 90 0 1 4,4 v 4 h -4 v -3 h -4 v 10 h 4 v -3 h 4 v 4 a 4,4 90 0 1 -4,4 h -4 -30 -1 v 2 h -8 v -2 h -1 -4 a 4,4 90 0 1 -4,-4 v -4 z"/><text style="font-size:10px;font-family:sans-serif;text-anchor:end;fill:#000" id="text1148"><tspan id="tspan1146" x="46.333" y="13.5">imprimir</tspan></text></g></g><g id="g1166" transform="translate(-238.10324,172.51153)"><g id="g1164" transform="scale(1.5)"><path style="fill:#fe994f;fill-opacity:1;stroke:#e8680e;stroke-width:1;stroke-linecap:round;stroke-opacity:1" id="path1158" d="m 8.5,0.5 h 125.61523 v 20 H 8.5 v -8 -1 h -6 v 3 h -2 v -8 h 2 v 3 h 6 v -1 z"/><text style="font-size:10px;font-family:sans-serif;text-anchor:start;fill:#000" id="text1162"><tspan id="tspan1160" x="13.333" y="13.833">todas as notas tocadas</tspan></text></g></g><g id="g1180" transform="translate(-397.10324,78.011526)"><g id="g1178" transform="scale(1.5)"><path style="fill:#c4c4c4;fill-opacity:1;stroke:#000;stroke-width:1;stroke-linecap:round;stroke-opacity:1" id="path1168" d="m 0.5,8.5 v -4 a 4,4 90 0 1 4,-4 h 4 v 2 h 10 v -2 h 30 4 a 4,4 90 0 1 4,4 v 4 h -4 v -3 h -4 v 10 h 4 v -3 h 4 v 4 a 4,4 90 0 1 -4,4 h -4 -30 -1 v 2 h -8 v -2 h -1 -4 a 4,4 90 0 1 -4,-4 v -4 z"/><text style="font-size:10px;font-family:sans-serif;text-anchor:end;fill:#000" id="text1172"><tspan id="tspan1170" x="46.333" y="13.5">imprimir</tspan></text></g></g><g id="g1190" transform="translate(-323.60324,78.011526)"><g id="g1188" transform="scale(1.5)"><path style="fill:#fe994f;fill-opacity:1;stroke:#e8680e;stroke-width:1;stroke-linecap:round;stroke-opacity:1" id="path1182" d="m 8.5,0.5 h 114.4873 v 20 H 8.5 v -8 -1 h -6 v 3 h -2 v -8 h 2 v 3 h 6 v -1 z"/><text style="font-size:10px;font-family:sans-serif;text-anchor:start;fill:#000" id="text1186"><tspan id="tspan1184" x="13.333" y="13.833">batidas por minuto</tspan></text></g></g><g id="g1208" transform="translate(-323.60324,172.51153)"><g id="g1206" transform="scale(1.5)"><path style="fill:#ff6ea1;fill-opacity:1;stroke:#ff2c76;stroke-width:1;stroke-linecap:round;stroke-opacity:1" id="path1192" d="m 8.5,8.5 v -4 a 4,4 90 0 1 4,-4 h 4 10 30 4 a 4,4 90 0 1 4,4 v 4 h -4 v -3 h -4 v 10 h 4 v -3 h 4 v 17 h -4 v -3 h -4 v 10 h 4 v -3 h 4 v 4 a 4,4 90 0 1 -4,4 h -4 -30 -10 -4 a 4,4 90 0 1 -4,-4 v -4 -21 -1 h -6 v 3 h -2 v -8 h 2 v 3 h 6 z"/><text style="font-size:14px;font-family:sans-serif;text-anchor:end;fill:#000" id="text1196"><tspan id="tspan1194" x="54.333" y="23.8">×</tspan></text></g></g><g id="g1218" transform="translate(-238.10324,204.01153)"><g id="g1216" transform="scale(1.5)"><path style="fill:#ff6ea1;fill-opacity:1;stroke:#ff2c76;stroke-width:1;stroke-linecap:round;stroke-opacity:1" id="path1210" d="m 8.5,0.5 h 60 v 20 h -60 v -8 -1 h -6 v 3 h -2 v -8 h 2 v 3 h 6 v -1 z"/><text style="font-size:10px;font-family:sans-serif;text-anchor:start;fill:#000" id="text1214"><tspan id="tspan1212" x="13.333" y="13.833">4</tspan></text></g></g><g id="g1228" transform="translate(-397.10324,204.01153)"><g id="g1226" transform="scale(1.5)"><path style="fill:#c4c4c4;fill-opacity:1;stroke:#000;stroke-width:1;stroke-linecap:round;stroke-opacity:1" id="path1220" d="m 0.5,8.5 v -4 a 4,4 90 0 1 4,-4 h 4 v 2 h 10 v -2 h 20 4 a 4,4 90 0 1 4,4 v 4 4 4 a 4,4 90 0 1 -4,4 h -4 -20 -1 v 2 h -8 v -2 h -1 -4 a 4,4 90 0 1 -4,-4 v -4 z"/><text style="font-size:10px;font-family:sans-serif;text-anchor:end;fill:#000" id="text1224"><tspan id="tspan1222" x="36.333" y="13.5">↓</tspan></text></g></g></g></svg>