<svg xmlns="http://www.w3.org/2000/svg" xmlns:svg="http://www.w3.org/2000/svg" id="svg246" width="326.221" height="428.343" version="1.1"><metadata id="metadata252"/><g id="g24" transform="translate(0,0.42153745)"><g id="g22" transform="scale(1.5)"><path id="path12" d="m 0.5,14.5 v -4 a 4,4 90 0 1 4,-4 h 4 l 5,-6 5,6 h 9 30 4 a 4,4 90 0 1 4,4 v 4 h -4 v -3 h -4 v 10 h 4 v -3 h 4 v 4 a 4,4 90 0 1 -4,4 h -4 -30 -1 v 2 h -8 v -2 h -1 -4 a 5,5 90 0 0 -5,5 v 4 4 210 4 a 5,5 90 0 0 5,5 h 4 v 2 h 10 v -2 h 8 v 6 6 4 a 4,4 90 0 1 -4,4 h -4 -9 l -5,6 -5,-6 h -4 a 4,4 90 0 1 -4,-4 v -4 z" style="fill:#92a9ff;fill-opacity:1;stroke:#5370dc;stroke-width:1;stroke-linecap:round;stroke-opacity:1"/><text id="text16" style="font-size:10px;font-family:sans-serif;text-anchor:start;fill:#000"><tspan id="tspan14" x="5.333" y="21.5">timbre</tspan></text></g></g><g id="g34" transform="translate(87,9.4215375)"><g id="g32" transform="scale(1.5)"><path id="path26" d="m 8.5,0.5 h 73.333333 v 20 H 8.5 v -8 -1 h -6 v 3 h -2 v -8 h 2 v 3 h 6 v -1 z" style="fill:#ff6648;fill-opacity:1;stroke:#ea4326;stroke-width:1;stroke-linecap:round;stroke-opacity:1"/><text id="text30" style="font-size:10px;font-family:sans-serif;text-anchor:start;fill:#000"><tspan id="tspan28" x="13.333" y="13.833">personalizar</tspan></text></g></g><g id="g48" transform="translate(54.5,292.92154)"><g id="g46" transform="scale(1.5)"><path id="path36" d="m -8.8333333,8.5 v -4 c 0,-2.209139 1.790861,-4 4,-4 h 3.99999997 v 2 H 9.1666667 v -2 h 81.3059893 4 c 2.209139,0 4,1.790861 4,4 v 4 h -4 v -3 h -4 v 10 h 4 v -3 h 4 v 4 c 0,2.209139 -1.790861,4 -4,4 h -4 -81.3059893 -1 v 2 H 0.16666667 v -2 h -1 -3.99999997 c -2.209139,0 -4.6985911,-1.904227 -4,-4 v -4 z" style="fill:#7cd622;fill-opacity:1;stroke:#57ad02;stroke-width:1;stroke-linecap:round;stroke-opacity:1"/><text id="text40" style="font-size:10px;font-family:sans-serif;text-anchor:end;fill:#000"><tspan id="tspan38" x="88.306" y="13.5">passo escalar (+/–)</tspan></text></g></g><g id="g58" transform="translate(190.95898,292.92154)"><g id="g56" transform="scale(1.5)"><path id="path50" d="m 8.5,0.5 h 60 v 20 h -60 v -8 -1 h -6 v 3 h -2 v -8 h 2 v 3 h 6 v -1 z" style="fill:#ff6ea1;fill-opacity:1;stroke:#ff2c76;stroke-width:1;stroke-linecap:round;stroke-opacity:1"/><text id="text54" style="font-size:10px;font-family:sans-serif;text-anchor:start;fill:#000"><tspan id="tspan52" x="13.333" y="13.833">1</tspan></text></g></g><g id="g72" transform="translate(13.5,198.42154)"><g id="g70" transform="scale(1.5)"><path id="path60" d="m 0.5,8.5 v -4 a 4,4 90 0 1 4,-4 h 4 v 2 h 10 v -2 h 9 20 4 a 4,4 90 0 1 4,4 v 4 h -4 v -3 h -4 v 10 h 4 v -3 h 4 v 4 a 4,4 90 0 1 -4,4 h -4 -20 -1 v 2 h -8 v -2 h -1 -4 a 5,5 90 0 0 -5,5 v 4 4 63 4 a 5,5 90 0 0 5,5 h 4 v 2 h 10 v -2 h 8 v 6 6 4 a 4,4 90 0 1 -4,4 h -4 -9 -1 v 2 h -8 v -2 h -1 -4 a 4,4 90 0 1 -4,-4 v -4 z" style="fill:#e9a066;fill-opacity:1;stroke:#b7651a;stroke-width:1;stroke-linecap:round;stroke-opacity:1"/><text id="text64" style="font-size:10px;font-family:sans-serif;text-anchor:start;fill:#000"><tspan id="tspan62" x="5.333" y="15.25">repetir</tspan></text></g></g><path id="path74" d="m 98.25,199.17154 h 190.55859 v 30 H 98.25 v -12 -1.5 h -9 v 4.5 h -3 v -12 h 3 v 4.5 h 9 v -1.5 z" style="fill:#7cd622;fill-opacity:1;stroke:#57ad02;stroke-width:1.5;stroke-linecap:round;stroke-opacity:1"/><text id="text78" x="85.5" y="198.422" style="font-size:15px;font-family:sans-serif;text-anchor:start;fill:#000;stroke-width:1.5"><tspan id="tspan76" x="105.5" y="219.172" style="stroke-width:1.5">modo número de notas</tspan></text><g id="g96" transform="translate(13.5,40.921537)"><g id="g94" transform="scale(1.5)"><path id="path84" d="m 0.5,8.5 v -4 c 0,-2.209139 1.790861,-4 4,-4 h 4 v 2 h 10 v -2 h 9 45.480794 4 c 2.209139,0 4,1.790861 4,4 v 4 h -4 v -3 h -4 v 10 h 4 v -3 h 4 v 4 c 0,2.209139 -1.790861,4 -4,4 h -4 H 27.5 h -1 v 2 h -8 v -2 h -1 -4 c -2.761424,0 -5,2.238576 -5,5 v 4 4 42 4 c 0,2.761424 2.238576,5 5,5 h 4 v 2 h 10 v -2 h 8 v 6 6 4 c 0,2.20914 -1.790861,4 -4,4 h -4 -9 -1 v 2 h -8 v -2 h -1 -4 c -2.209139,0 -4,-1.79086 -4,-4 v -4 z" style="fill:#fe994f;fill-opacity:1;stroke:#e8680e;stroke-width:1;stroke-linecap:round;stroke-opacity:1"/><text id="text88" style="font-size:10px;font-family:sans-serif;text-anchor:start;fill:#000"><tspan id="tspan86" x="5.333" y="15.25">valor de nota</tspan></text></g></g><g id="g114" transform="translate(123.72119,40.921537)"><g id="g112" transform="scale(1.5)"><path id="path98" d="m 8.5,8.5 v -4 a 4,4 90 0 1 4,-4 h 4 10 30 4 a 4,4 90 0 1 4,4 v 4 h -4 v -3 h -4 v 10 h 4 v -3 h 4 v 17 h -4 v -3 h -4 v 10 h 4 v -3 h 4 v 4 a 4,4 90 0 1 -4,4 h -4 -30 -10 -4 a 4,4 90 0 1 -4,-4 v -4 -21 -1 h -6 v 3 h -2 v -8 h 2 v 3 h 6 z" style="fill:#ff6ea1;fill-opacity:1;stroke:#ff2c76;stroke-width:1;stroke-linecap:round;stroke-opacity:1"/><text id="text102" style="font-size:14px;font-family:sans-serif;text-anchor:end;fill:#000"><tspan id="tspan100" x="54.333" y="23.8">/</tspan></text></g></g><g id="g124" transform="translate(209.22119,40.921537)"><g id="g122" transform="scale(1.5)"><path id="path116" d="m 8.5,0.5 h 60 v 20 h -60 v -8 -1 h -6 v 3 h -2 v -8 h 2 v 3 h 6 v -1 z" style="fill:#ff6ea1;fill-opacity:1;stroke:#ff2c76;stroke-width:1;stroke-linecap:round;stroke-opacity:1"/><text id="text120" style="font-size:10px;font-family:sans-serif;text-anchor:start;fill:#000"><tspan id="tspan118" x="13.333" y="13.833">1</tspan></text></g></g><g id="g134" transform="translate(209.22119,72.421537)"><g id="g132" transform="scale(1.5)"><path id="path126" d="m 8.5,0.5 h 60 v 20 h -60 v -8 -1 h -6 v 3 h -2 v -8 h 2 v 3 h 6 v -1 z" style="fill:#ff6ea1;fill-opacity:1;stroke:#ff2c76;stroke-width:1;stroke-linecap:round;stroke-opacity:1"/><text id="text130" style="font-size:10px;font-family:sans-serif;text-anchor:start;fill:#000"><tspan id="tspan128" x="13.333" y="13.833">4</tspan></text></g></g><path id="path136" d="m 27.75,85.171537 v -6 a 6,6 0 0 1 6,-6 h 6 v 3 h 15 v -3 h 30 6 a 6,6 0 0 1 6,6 v 6 6 6 a 6,6 0 0 1 -6,6.000003 h -6 -30 -1.5 v 3 h -12 v -3 h -1.5 -6 a 6,6 0 0 1 -6,-6.000003 v -6 z" style="fill:#c4c4c4;fill-opacity:1;stroke:#a0a0a0;stroke-width:1.5;stroke-linecap:round;stroke-opacity:1"/><text id="text140" x="27" y="72.422" style="font-size:15px;font-family:sans-serif;text-anchor:end;fill:#000;stroke-width:1.5"><tspan id="tspan138" x="81.5" y="92.672" style="stroke-width:1.5">↓</tspan></text><g id="g162" transform="translate(93,103.92154)"><g id="g160" transform="scale(1.5)"><path id="path146" d="m -43.5,8.5 v -4 c 0,-2.209139 1.790861,-4 4,-4 h 4 v 2 h 10 v -2 h 74 4 c 2.209139,0 4,1.790861 4,4 v 4 h -4 v -3 h -4 v 10 h 4 v -3 h 4 v 17 h -4 v -3 h -4 v 10 h 4 v -3 h 4 v 4 c 0,2.209139 -1.790861,4 -4,4 h -4 -74 -1 v 2 h -8 v -2 h -1 -4 c -2.209139,0 -4,-1.790861 -4,-4 v -4 -21 z" style="fill:#7cd622;fill-opacity:1;stroke:#57ad02;stroke-width:1;stroke-linecap:round;stroke-opacity:1"/><text id="text150" style="font-size:10px;font-family:sans-serif;text-anchor:end;fill:#000"><tspan id="tspan148" x="46.333" y="24">determinar o tom</tspan></text><text id="text154" style="font-size:6.66666651px;font-family:sans-serif;text-anchor:end;fill:#000"><tspan id="tspan152" x="46.333" y="11.25">nome</tspan></text><text id="text158" style="font-size:6.66666651px;font-family:sans-serif;text-anchor:end;fill:#000"><tspan id="tspan156" x="46.333" y="32.25">oitava</tspan></text></g></g><path id="path164" d="m 179.25,104.67154 h 90 v 30 h -90 v -12 -1.5 h -9 v 4.5 h -3 v -12 h 3 v 4.5 h 9 v -1.5 z" style="fill:#7cd622;fill-opacity:1;stroke:#57ad02;stroke-width:1.5;stroke-linecap:round;stroke-opacity:1"/><text id="text168" x="166.5" y="103.922" style="font-size:15px;font-family:sans-serif;text-anchor:start;fill:#000;stroke-width:1.5"><tspan id="tspan166" x="186.5" y="124.672" style="stroke-width:1.5">fazer</tspan></text><g id="g182" transform="translate(166.5,135.42154)"><g id="g180" transform="scale(1.5)"><path id="path174" d="m 8.5,0.5 h 60 v 20 h -60 v -8 -1 h -6 v 3 h -2 v -8 h 2 v 3 h 6 v -1 z" style="fill:#ff6ea1;fill-opacity:1;stroke:#ff2c76;stroke-width:1;stroke-linecap:round;stroke-opacity:1"/><text id="text178" style="font-size:10px;font-family:sans-serif;text-anchor:start;fill:#000"><tspan id="tspan176" x="13.333" y="13.833">4</tspan></text></g></g><g id="g196" transform="translate(27,229.92154)"><g id="g194" transform="scale(1.5)"><path id="path184" d="m 0.5,8.5 v -4 c 0,-2.209139 1.790861,-4 4,-4 h 4 v 2 h 10 v -2 h 9 45.480794 4 c 2.209139,0 4.698591,1.9042267 4,4 v 4 h -4 v -3 h -4 v 10 h 4 v -3 h 4 v 4 c 0,2.209139 -1.790861,4 -4,4 h -4 H 27.5 h -1 v 2 h -8 v -2 h -1 -4 c -2.761424,0 -5,2.238576 -5,5 v 4 4 21 4 c 0,2.761424 2.238576,5 5,5 h 4 v 2 h 10 v -2 h 8 v 6 6 4 c 0,2.209139 -1.790861,4 -4,4 h -4 -9 -1 v 2 h -8 v -2 h -1 -4 c -2.209139,0 -4,-1.790861 -4,-4 v -4 z" style="fill:#fe994f;fill-opacity:1;stroke:#e8680e;stroke-width:1;stroke-linecap:round;stroke-opacity:1"/><text id="text188" style="font-size:10px;font-family:sans-serif;text-anchor:start;fill:#000"><tspan id="tspan186" x="5.333" y="15.25">valor de nota</tspan></text></g></g><g id="g214" transform="translate(137.22119,229.92154)"><g id="g212" transform="scale(1.5)"><path id="path198" d="m 8.5,8.5 v -4 a 4,4 90 0 1 4,-4 h 4 10 30 4 a 4,4 90 0 1 4,4 v 4 h -4 v -3 h -4 v 10 h 4 v -3 h 4 v 17 h -4 v -3 h -4 v 10 h 4 v -3 h 4 v 4 a 4,4 90 0 1 -4,4 h -4 -30 -10 -4 a 4,4 90 0 1 -4,-4 v -4 -21 -1 h -6 v 3 h -2 v -8 h 2 v 3 h 6 z" style="fill:#ff6ea1;fill-opacity:1;stroke:#ff2c76;stroke-width:1;stroke-linecap:round;stroke-opacity:1"/><text id="text202" style="font-size:14px;font-family:sans-serif;text-anchor:end;fill:#000"><tspan id="tspan200" x="54.333" y="23.8">/</tspan></text></g></g><g id="g224" transform="translate(222.72119,229.92154)"><g id="g222" transform="scale(1.5)"><path id="path216" d="m 8.5,0.5 h 60 v 20 h -60 v -8 -1 h -6 v 3 h -2 v -8 h 2 v 3 h 6 v -1 z" style="fill:#ff6ea1;fill-opacity:1;stroke:#ff2c76;stroke-width:1;stroke-linecap:round;stroke-opacity:1"/><text id="text220" style="font-size:10px;font-family:sans-serif;text-anchor:start;fill:#000"><tspan id="tspan218" x="13.333" y="13.833">1</tspan></text></g></g><g id="g234" transform="translate(222.72119,261.42154)"><g id="g232" transform="scale(1.5)"><path id="path226" d="m 8.5,0.5 h 60 v 20 h -60 v -8 -1 h -6 v 3 h -2 v -8 h 2 v 3 h 6 v -1 z" style="fill:#ff6ea1;fill-opacity:1;stroke:#ff2c76;stroke-width:1;stroke-linecap:round;stroke-opacity:1"/><text id="text230" style="font-size:10px;font-family:sans-serif;text-anchor:start;fill:#000"><tspan id="tspan228" x="13.333" y="13.833">4</tspan></text></g></g><path id="path236" d="m 41.25,274.17154 v -6 a 6,6 0 0 1 6,-6 h 6 v 3 h 15 v -3 h 30 6 a 6,6 0 0 1 6,6 v 6 6 6 a 6,6 0 0 1 -6,6 h -6 -30 -1.5 v 3 h -12 v -3 h -1.5 -6 a 6,6 0 0 1 -6,-6 v -6 z" style="fill:#c4c4c4;fill-opacity:1;stroke:#a0a0a0;stroke-width:1.5;stroke-linecap:round;stroke-opacity:1"/><text id="text240" x="40.5" y="261.422" style="font-size:15px;font-family:sans-serif;text-anchor:end;fill:#000;stroke-width:1.5"><tspan id="tspan238" x="95" y="281.672" style="stroke-width:1.5">↓</tspan></text></svg>