<svg xmlns="http://www.w3.org/2000/svg" xmlns:svg="http://www.w3.org/2000/svg" id="svg7237" width="496.5" height="522.843" version="1.1"><metadata id="metadata7243"/><rect style="fill:none;stroke:none" id="backgroundrect" width="100%" height="100%" x="0" y="1.172"/><g id="g7235" class="currentLayer" transform="translate(7.6293945e-6,1.1715365)"><title id="title7100">Layer 1</title><g id="svg_1"><g id="svg_2"><g id="svg_3" transform="matrix(1.5,0,0,1.5,277,25)"><path id="svg_4" d="m -184.16667,-2.666666 v -4 a 4,4 90 0 1 4,-4 h 4 l 5,-6 5,6 h 9 59.999998 4 a 4,4 90 0 1 4,4 v 4 4 4 a 4,4 90 0 1 -4,4 h -4 -59.999998 -1 v 2 h -8 v -2 h -1 -4 a 5,5 90 0 0 -5,5 v 4 4 272.999996 4 a 5,5 90 0 0 5,5 h 4 v 2 h 10 v -2 h 8 v 6 6 4 a 4,4 90 0 1 -4,4 h -4 -9 l -5,6 -5,-6 h -4 a 4,4 90 0 1 -4,-4 v -4 z" style="fill:#daa926;fill-opacity:1;stroke:#daaf30;stroke-width:1;stroke-linecap:round;stroke-opacity:1"/><text id="svg_5" x="-184.667" y="-17.167" style="font-size:10px;font-family:sans-serif;text-anchor:start;fill:#282828"><tspan id="svg_6" x="-164.667" y="4.833">iniciar</tspan></text></g></g></g><g id="svg_15"><g id="svg_16" transform="matrix(1.5,0,0,1.5,291,66)"><path id="svg_17" d="m -184.16667,-8.666666 v -4 c 0,-2.209139 1.79086,-4 4,-4 h 4 v 2 h 10 v -2 h 9 109.933918 4 c 2.209139,0 4,1.790861 4,4 v 4 h -4 v -3 h -4 v 10 h 4 v -3 h 4 v 3.99999997 c 0,2.20913903 -1.790861,4.00000003 -4,4.00000003 h -4 -109.933918 -1 v 2 h -8 v -2 h -1 -4 c -2.76143,0 -5,2.2385762 -5,5 v 4 4 230.999996 4 c 0,2.76143 2.23857,5 5,5 h 4 v 2 h 10 v -2 h 8 v 6 6 4 c 0,2.20914 -1.79086,4 -4,4 h -4 -9 -1 v 2 h -8 v -2 h -1 -4 c -2.20914,0 -4,-1.79086 -4,-4 v -4 z" style="fill:#77c428;fill-opacity:1;stroke:#57ad02;stroke-width:1;stroke-linecap:round;stroke-opacity:1"/><text id="svg_18" x="-184.667" y="-17.167" style="font-size:10px;font-family:sans-serif;text-anchor:start;fill:#282828"><tspan id="svg_19" x="-179.667" y="-2.167">transposição de semi-tom</tspan></text></g></g><g id="svg_22" transform="translate(44)"><g id="svg_23" transform="matrix(1.5,0,0,1.5,454,66)"><path id="svg_24" d="m -176.16667,-8.666666 v -4 a 4,4 90 0 1 4,-4 h 4 10 30 4 a 4,4 90 0 1 4,4 v 4 h -4 v -3 h -4 v 10 h 4 v -3 h 4 v 17 h -4 v -3 h -4 v 10 h 4 v -3 h 4 v 4 a 4,4 90 0 1 -4,4 h -4 -30 -10 -4 a 4,4 90 0 1 -4,-4 v -4 -21 -1 h -6 v 3 h -2 v -8 h 2 v 3 h 6 z" style="fill:#ff5293;fill-opacity:1;stroke:#ff2c76;stroke-width:1;stroke-linecap:round;stroke-opacity:1"/><text id="svg_25" x="-184.667" y="-17.167" style="font-size:14px;font-family:sans-serif;text-anchor:end;fill:#282828"><tspan id="svg_26" x="-130.667" y="6.833">+</tspan></text></g></g><g id="svg_31" transform="translate(44)"><g id="svg_32" transform="matrix(1.5,0,0,1.5,540,66)"><path id="svg_33" d="m -176.16667,-16.666666 h 60 v 20 h -60 v -8 -1 h -6 v 3 h -2 v -8 h 2 v 3 h 6 v -1 z" style="fill:#ff5293;fill-opacity:1;stroke:#ff2c76;stroke-width:1;stroke-linecap:round;stroke-opacity:1"/><text id="svg_34" x="-184.667" y="-17.167" style="font-size:10px;font-family:sans-serif;text-anchor:start;fill:#282828"><tspan id="svg_35" x="-171.667" y="-3.167">0</tspan></text></g></g><g id="svg_36" transform="translate(44)"><g id="svg_37" transform="matrix(1.5,0,0,1.5,540,98)"><path id="svg_38" d="m -176.16667,-8.666666 v -4 a 4,4 90 0 1 4,-4 h 4 10 30 4 a 4,4 90 0 1 4,4 v 4 h -4 v -3 h -4 v 10 h 4 v -3 h 4 v 17 h -4 v -3 h -4 v 10 h 4 v -3 h 4 v 4 a 4,4 90 0 1 -4,4 h -4 -30 -10 -4 a 4,4 90 0 1 -4,-4 v -4 -21 -1 h -6 v 3 h -2 v -8 h 2 v 3 h 6 z" style="fill:#ff5293;fill-opacity:1;stroke:#ff2c76;stroke-width:1;stroke-linecap:round;stroke-opacity:1"/><text id="svg_39" x="-184.667" y="-17.167" style="font-size:14px;font-family:sans-serif;text-anchor:end;fill:#282828"><tspan id="svg_40" x="-130.667" y="6.833">×</tspan></text></g></g><g id="svg_45" transform="translate(44)"><g id="svg_46" transform="matrix(1.5,0,0,1.5,626,98)"><path id="svg_47" d="m -176.16667,-16.666666 h 60 v 20 h -60 v -8 -1 h -6 v 3 h -2 v -8 h 2 v 3 h 6 v -1 z" style="fill:#ff5293;fill-opacity:1;stroke:#ff2c76;stroke-width:1;stroke-linecap:round;stroke-opacity:1"/><text id="svg_48" x="-184.667" y="-17.167" style="font-size:10px;font-family:sans-serif;text-anchor:start;fill:#282828"><tspan id="svg_49" x="-171.667" y="-3.167">1</tspan></text></g></g><g id="svg_50" transform="translate(44)"><g id="svg_51" transform="matrix(1.5,0,0,1.5,626,130)"><path id="svg_52" d="m -176.16667,-16.666666 h 60 v 20 h -60 v -8 -1 h -6 v 3 h -2 v -8 h 2 v 3 h 6 v -1 z" style="fill:#ff5293;fill-opacity:1;stroke:#ff2c76;stroke-width:1;stroke-linecap:round;stroke-opacity:1"/><text id="svg_53" x="-184.667" y="-17.167" style="font-size:10px;font-family:sans-serif;text-anchor:start;fill:#282828"><tspan id="svg_54" x="-171.667" y="-3.167">12</tspan></text></g></g><g id="svg_55"><g id="svg_56" transform="matrix(1.5,0,0,1.5,305,288)"><path id="svg_57" d="m -184.16667,-8.666666 v -4 a 4,4 90 0 1 4,-4 h 4 v 2 h 10 v -2 h 9 20 4 a 4,4 90 0 1 4,4 v 4 h -4 v -3 h -4 v 10 h 4 v -3 h 4 v 3.99999997 a 4,4 90 0 1 -4,4.00000003 h -4 -20 -1 v 2 h -8 v -2 h -1 -4 a 5,5 90 0 0 -5,5 v 4 4 4 a 5,5 90 0 0 5,5 h 4 v 2 h 10 v -2 h 8 v 6 6 4 a 4,4 90 0 1 -4,4 h -4 -9 -1 v 2 h -8 v -2 h -1 -4 a 4,4 90 0 1 -4,-4 v -4 z" style="fill:#d68136;fill-opacity:1;stroke:#b7651a;stroke-width:1;stroke-linecap:round;stroke-opacity:1"/><text id="svg_58" x="-184.667" y="-17.167" style="font-size:10px;font-family:sans-serif;text-anchor:start;fill:#282828"><tspan id="svg_59" x="-179.667" y="-2.167">repetir</tspan></text></g></g><g id="svg_62"><g id="svg_63" transform="matrix(1.5,0,0,1.5,377,288)"><path id="svg_64" d="m -176.16667,-16.666666 h 60 v 20 h -60 v -8 -1 h -6 v 3 h -2 v -8 h 2 v 3 h 6 v -1 z" style="fill:#ff5293;fill-opacity:1;stroke:#ff2c76;stroke-width:1;stroke-linecap:round;stroke-opacity:1"/><text id="svg_65" x="-184.667" y="-17.167" style="font-size:10px;font-family:sans-serif;text-anchor:start;fill:#282828"><tspan id="svg_66" x="-171.667" y="-3.167">2</tspan></text></g></g><g id="svg_67"><g id="svg_68" transform="matrix(1.5,0,0,1.5,305,193)"><path id="svg_69" d="m -184.16667,-8.666666 v -4 a 4,4 90 0 1 4,-4 h 4 v 2 h 10 v -2 h 9 20 4 a 4,4 90 0 1 4,4 v 4 h -4 v -3 h -4 v 10 h 4 v -3 h 4 v 3.99999997 a 4,4 90 0 1 -4,4.00000003 h -4 -20 -1 v 2 h -8 v -2 h -1 -4 a 5,5 90 0 0 -5,5 v 4 4 4 a 5,5 90 0 0 5,5 h 4 v 2 h 10 v -2 h 8 v 6 6 4 a 4,4 90 0 1 -4,4 h -4 -9 -1 v 2 h -8 v -2 h -1 -4 a 4,4 90 0 1 -4,-4 v -4 z" style="fill:#d68136;fill-opacity:1;stroke:#b7651a;stroke-width:1;stroke-linecap:round;stroke-opacity:1"/><text id="svg_70" x="-184.667" y="-17.167" style="font-size:10px;font-family:sans-serif;text-anchor:start;fill:#282828"><tspan id="svg_71" x="-179.667" y="-2.167">repetir</tspan></text></g></g><g id="svg_74"><g id="svg_75" transform="matrix(1.5,0,0,1.5,377,193)"><path id="svg_76" d="m -176.16667,-16.666666 h 60 v 20 h -60 v -8 -1 h -6 v 3 h -2 v -8 h 2 v 3 h 6 v -1 z" style="fill:#ff5293;fill-opacity:1;stroke:#ff2c76;stroke-width:1;stroke-linecap:round;stroke-opacity:1"/><text id="svg_77" x="-184.667" y="-17.167" style="font-size:10px;font-family:sans-serif;text-anchor:start;fill:#282828"><tspan id="svg_78" x="-171.667" y="-3.167">2</tspan></text></g></g><g id="svg_79"><g id="svg_80" transform="matrix(1.5,0,0,1.5,305,98)"><path id="svg_81" d="m -184.16667,-8.666666 v -4 a 4,4 90 0 1 4,-4 h 4 v 2 h 10 v -2 h 9 20 4 a 4,4 90 0 1 4,4 v 4 h -4 v -3 h -4 v 10 h 4 v -3 h 4 v 3.99999997 a 4,4 90 0 1 -4,4.00000003 h -4 -20 -1 v 2 h -8 v -2 h -1 -4 a 5,5 90 0 0 -5,5 v 4 4 4 a 5,5 90 0 0 5,5 h 4 v 2 h 10 v -2 h 8 v 6 6 4 a 4,4 90 0 1 -4,4 h -4 -9 -1 v 2 h -8 v -2 h -1 -4 a 4,4 90 0 1 -4,-4 v -4 z" style="fill:#d68136;fill-opacity:1;stroke:#b7651a;stroke-width:1;stroke-linecap:round;stroke-opacity:1"/><text id="svg_82" x="-184.667" y="-17.167" style="font-size:10px;font-family:sans-serif;text-anchor:start;fill:#282828"><tspan id="svg_83" x="-179.667" y="-2.167">repetir</tspan></text></g></g><g id="svg_86"><g id="svg_87" transform="matrix(1.5,0,0,1.5,377,98)"><path id="svg_88" d="m -176.16667,-16.666666 h 60 v 20 h -60 v -8 -1 h -6 v 3 h -2 v -8 h 2 v 3 h 6 v -1 z" style="fill:#ff5293;fill-opacity:1;stroke:#ff2c76;stroke-width:1;stroke-linecap:round;stroke-opacity:1"/><text id="svg_89" x="-184.667" y="-17.167" style="font-size:10px;font-family:sans-serif;text-anchor:start;fill:#282828"><tspan id="svg_90" x="-171.667" y="-3.167">2</tspan></text></g></g><g id="svg_111"><g id="svg_112" transform="matrix(1.5,0,0,1.5,319,130)"><path id="svg_113" d="m -184.16667,-8.666666 v -4 a 4,4 90 0 1 4,-4 h 4 v 2 h 10 v -2 h 69.999998 4 a 4,4 90 0 1 4,4 v 4 4 3.99999997 a 4,4 90 0 1 -4,4.00000003 h -4 -69.999998 -1 v 2 h -8 v -2 h -1 -4 a 4,4 90 0 1 -4,-4.00000003 V -4.666666 Z" style="fill:#daa926;fill-opacity:1;stroke:#daaf30;stroke-width:1;stroke-linecap:round;stroke-opacity:1"/><text id="svg_114" x="-184.667" y="-17.167" style="font-size:10px;font-family:sans-serif;text-anchor:end;fill:#282828"><tspan id="svg_115" x="-98.667" y="-3.167">chunk0</tspan></text></g></g><g id="svg_176"><g id="svg_177" transform="matrix(1.5,0,0,1.5,305,383)"><path id="svg_178" d="m -184.16667,-8.666666 v -4 a 4,4 90 0 1 4,-4 h 4 v 2 h 10 v -2 h 9 20 4 a 4,4 90 0 1 4,4 v 4 h -4 v -3 h -4 v 10 h 4 v -3 h 4 v 3.99999997 a 4,4 90 0 1 -4,4.00000003 h -4 -20 -1 v 2 h -8 v -2 h -1 -4 a 5,5 90 0 0 -5,5 v 4 4 4 a 5,5 90 0 0 5,5 h 4 v 2 h 10 v -2 h 8 v 6 6 4 a 4,4 90 0 1 -4,4 h -4 -9 -1 v 2 h -8 v -2 h -1 -4 a 4,4 90 0 1 -4,-4 v -4 z" style="fill:#d68136;fill-opacity:1;stroke:#b7651a;stroke-width:1;stroke-linecap:round;stroke-opacity:1"/><text id="svg_179" x="-184.667" y="-17.167" style="font-size:10px;font-family:sans-serif;text-anchor:start;fill:#282828"><tspan id="svg_180" x="-179.667" y="-2.167">repetir</tspan></text></g></g><g id="svg_183"><g id="svg_184" transform="matrix(1.5,0,0,1.5,377,383)"><path id="svg_185" d="m -176.16667,-16.666666 h 60 v 20 h -60 v -8 -1 h -6 v 3 h -2 v -8 h 2 v 3 h 6 v -1 z" style="fill:#ff5293;fill-opacity:1;stroke:#ff2c76;stroke-width:1;stroke-linecap:round;stroke-opacity:1"/><text id="svg_186" x="-184.667" y="-17.167" style="font-size:10px;font-family:sans-serif;text-anchor:start;fill:#282828"><tspan id="svg_187" x="-171.667" y="-3.167">2</tspan></text></g></g><g id="svg_188"><g id="svg_189" transform="matrix(1.5,0,0,1.5,319,225)"><path id="svg_190" d="m -184.16667,-8.666666 v -4 a 4,4 90 0 1 4,-4 h 4 v 2 h 10 v -2 h 69.999998 4 a 4,4 90 0 1 4,4 v 4 4 3.99999997 a 4,4 90 0 1 -4,4.00000003 h -4 -69.999998 -1 v 2 h -8 v -2 h -1 -4 a 4,4 90 0 1 -4,-4.00000003 V -4.666666 Z" style="fill:#daa926;fill-opacity:1;stroke:#daaf30;stroke-width:1;stroke-linecap:round;stroke-opacity:1"/><text id="svg_191" x="-184.667" y="-17.167" style="font-size:10px;font-family:sans-serif;text-anchor:end;fill:#282828"><tspan id="svg_192" x="-98.667" y="-3.167">chunk1</tspan></text></g></g><g id="svg_193"><g id="svg_194" transform="matrix(1.5,0,0,1.5,319,320)"><path id="svg_195" d="m -184.16667,-8.666666 v -4 a 4,4 90 0 1 4,-4 h 4 v 2 h 10 v -2 h 69.999998 4 a 4,4 90 0 1 4,4 v 4 4 3.99999997 a 4,4 90 0 1 -4,4.00000003 h -4 -69.999998 -1 v 2 h -8 v -2 h -1 -4 a 4,4 90 0 1 -4,-4.00000003 V -4.666666 Z" style="fill:#daa926;fill-opacity:1;stroke:#daaf30;stroke-width:1;stroke-linecap:round;stroke-opacity:1"/><text id="svg_196" x="-184.667" y="-17.167" style="font-size:10px;font-family:sans-serif;text-anchor:end;fill:#282828"><tspan id="svg_197" x="-98.667" y="-3.167">chunk2</tspan></text></g></g><g id="svg_198"><g id="svg_199" transform="matrix(1.5,0,0,1.5,319,415)"><path id="svg_200" d="m -184.16667,-8.666666 v -4 a 4,4 90 0 1 4,-4 h 4 v 2 h 10 v -2 h 69.999998 4 a 4,4 90 0 1 4,4 v 4 4 3.99999997 a 4,4 90 0 1 -4,4.00000003 h -4 -69.999998 -1 v 2 h -8 v -2 h -1 -4 a 4,4 90 0 1 -4,-4.00000003 V -4.666666 Z" style="fill:#daa926;fill-opacity:1;stroke:#daaf30;stroke-width:1;stroke-linecap:round;stroke-opacity:1"/><text id="svg_201" x="-184.667" y="-17.167" style="font-size:10px;font-family:sans-serif;text-anchor:end;fill:#282828"><tspan id="svg_202" x="-98.667" y="-3.167">chunk3</tspan></text></g></g></g></svg>