<svg xmlns="http://www.w3.org/2000/svg" xmlns:svg="http://www.w3.org/2000/svg" id="svg5366" width="735" height="696" version="1.1"><metadata id="metadata5372"/><rect id="backgroundrect" width="100%" height="100%" x="0" y="0" fill="none" stroke="none"/><g id="svg_15"><g id="svg_16"><g id="svg_17" transform="matrix(1.5,0,0,1.5,249,57)"><path style="fill:#fe994f;fill-opacity:1;stroke:#e86b0e;stroke-width:1;stroke-linecap:round;stroke-opacity:1" id="svg_18" d="m -165.5,-4 v -4 a 4,4 90 0 1 4,-4 h 4 v 2 h 10 v -2 h 9 60 4 a 4,4 90 0 1 4,4 v 4 h -4 v -3 h -4 V 3 h 4 V 0 h 4 v 4 a 4,4 90 0 1 -4,4 h -4 -60 -1 v 2 h -8 V 8 h -1 -4 a 5,5 90 0 0 -5,5 v 4 4 42 4 a 5,5 90 0 0 5,5 h 4 v 2 h 10 v -2 h 8 v 6 6 4 a 4,4 90 0 1 -4,4 h -4 -9 -1 v 2 h -8 v -2 h -1 -4 a 4,4 90 0 1 -4,-4 v -4 z"/><text style="font-size:10px;font-family:sans-serif;text-anchor:start;fill:#282828" id="svg_19" x="-166" y="-12.5"><tspan id="svg_20" x="-146" y="2.5">nota</tspan></text><text style="font-size:6.66666651px;font-family:sans-serif;text-anchor:end;fill:#282828" id="svg_21" x="-166" y="-12.5"><tspan id="svg_22" x="-81" y="-.5">valor</tspan></text></g></g><g id="svg_23" transform="matrix(0.5,0,0,0.5,249,61)"><g style="isolation:isolate" id="svg_24"><g id="レイヤー_2" data-name="レイヤー 2"><g id="Icon"><rect style="opacity:.4;mix-blend-mode:multiply;fill:#292929" id="svg_25" width="42" height="42" x="-498" y="-37.5" rx="5" ry="5"/><path style="fill:#fff" id="svg_26" d="m -467.44,-7.7000008 -4.17,-4.1600002 h 2.26 a 1.035,1.035 0 1 0 0,-2.07 h -4.71 a 1.08,1.08 0 0 0 -1.11,1 v 0 c 0,0 0,0 0,0.06 v 4.6400003 0 a 1.04,1.04 0 1 0 2.08,0 V -10.42 l 4.19,4.19 a 1,1 0 0 0 1.46,0 1,1 0 0 0 0,-1.4700008 z"/><path style="fill:#fff" id="svg_27" d="m -478.83,-12.9 a 1.08,1.08 0 0 0 -1.11,-1 h -4.71 a 1.035,1.035 0 1 0 0,2.07 h 2.25 l -4.16,4.1299992 a 1.039447,1.039447 0 0 0 1.47,1.4700001 l 4.18,-4.1900003 v 2.2600002 a 1.04,1.04 0 1 0 2.08,0 v -4.6399982 c 0,0 0,0 0,-0.06 a 0.08,0.08 0 0 1 0,-0.04 z"/><path style="fill:#fff" id="svg_28" d="m -474.06,-17 h 4.7 a 1.04,1.04 0 1 0 0,-2.08 h -2.25 l 4.17,-4.16 a 1,1 0 0 0 0,-1.47 1,1 0 0 0 -1.46,0 l -4.19,4.21 v -2.28 a 1.04,1.04 0 1 0 -2.08,0 v 4.64 a 0.43000001,0.43000001 0 0 0 0,0.05 v 0.05 a 1.09,1.09 0 0 0 1.11,1.04 z"/><path style="fill:#fff" id="svg_29" d="m -479.87,-23.88 a 1.08,1.08 0 0 0 -1,1.09 v 2.29 l -4.18,-4.19 a 1,1 0 0 0 -1.47,0 1,1 0 0 0 0,1.46 l 4.16,4.17 h -2.29 a 1.04,1.04 0 1 0 0,2.08 h 4.71 a 1.09,1.09 0 0 0 1.11,-1 c 0,0 0,0 0,-0.06 v -4.75 a 1.0700001,1.0700001 0 0 0 -1.04,-1.09 z"/></g></g></g></g></g><g id="svg_30"><g id="svg_31" transform="matrix(1.5,0,0,1.5,381,57)"><path style="fill:#ff5293;fill-opacity:1;stroke:#ff2c76;stroke-width:1;stroke-linecap:round;stroke-opacity:1" id="svg_32" d="m -157.5,-4 v -4 a 4,4 90 0 1 4,-4 h 4 10 30 4 a 4,4 90 0 1 4,4 v 4 h -4 v -3 h -4 V 3 h 4 V 0 h 4 v 17 h -4 v -3 h -4 v 10 h 4 v -3 h 4 v 4 a 4,4 90 0 1 -4,4 h -4 -30 -10 -4 a 4,4 90 0 1 -4,-4 V 21 0 -1 h -6 v 3 h -2 v -8 h 2 v 3 h 6 z"/><text style="font-size:9px;font-family:sans-serif;text-anchor:end;fill:#282828" id="svg_33" x="-166" y="-12.5"><tspan id="svg_34" x="-112" y="10.5">➗</tspan></text></g></g><g id="svg_39"><g id="svg_40" transform="matrix(1.5,0,0,1.5,467,57)"><path style="fill:#ff5293;fill-opacity:1;stroke:#ff2c76;stroke-width:1;stroke-linecap:round;stroke-opacity:1" id="svg_41" d="m -157.5,-12 h 60 V 8 h -60 V 0 -1 h -6 v 3 h -2 v -8 h 2 v 3 h 6 v -1 z"/><text style="font-size:10px;font-family:sans-serif;text-anchor:start;fill:#282828" id="svg_42" x="-166" y="-12.5"><tspan id="svg_43" x="-153" y="1.5">1</tspan></text></g></g><g id="svg_44"><g id="svg_45" transform="matrix(1.5,0,0,1.5,467,89)"><path style="fill:#ff5293;fill-opacity:1;stroke:#ff2c76;stroke-width:1;stroke-linecap:round;stroke-opacity:1" id="svg_46" d="m -157.5,-12 h 60 V 8 h -60 V 0 -1 h -6 v 3 h -2 v -8 h 2 v 3 h 6 v -1 z"/><text style="font-size:10px;font-family:sans-serif;text-anchor:start;fill:#282828" id="svg_47" x="-166" y="-12.5"><tspan id="svg_48" x="-153" y="1.5">4</tspan></text></g></g><g id="svg_49"><g id="svg_50" transform="matrix(1.5,0,0,1.5,263,89)"><path style="fill:#b0b0b0;fill-opacity:1;stroke:#a0a0a0;stroke-width:1;stroke-linecap:round;stroke-opacity:1" id="svg_51" d="m -165.5,-4 v -4 a 4,4 90 0 1 4,-4 h 4 v 2 h 10 v -2 h 20 4 a 4,4 90 0 1 4,4 v 4 4 4 a 4,4 90 0 1 -4,4 h -4 -20 -1 v 2 h -8 V 8 h -1 -4 a 4,4 90 0 1 -4,-4 V 0 Z"/><text style="font-size:10px;font-family:sans-serif;text-anchor:end;fill:#282828" id="svg_52" x="-166" y="-12.5"><tspan id="svg_53" x="-130" y="1.5">↓</tspan></text></g></g><g id="svg_54" transform="translate(66)"><g id="svg_55" transform="matrix(1.5,0,0,1.5,263,121)"><path style="fill:#77c428;fill-opacity:1;stroke:#57ad02;stroke-width:1;stroke-linecap:round;stroke-opacity:1" id="svg_56" d="m -209.5,-4 v -4 c 0,-2.209139 1.79086,-4 4,-4 h 4 v 2 h 10 v -2 h 74 4 c 2.20914,0 4,1.790861 4,4 v 4 h -4 v -3 h -4 V 3 h 4 V 0 h 4 v 17 h -4 v -3 h -4 v 10 h 4 v -3 h 4 v 4 c 0,2.209139 -1.79086,4 -4,4 h -4 -74 -1 v 2 h -8 v -2 h -1 -4 c -2.20914,0 -4,-1.790861 -4,-4 V 21 0 Z"/><text style="font-size:10px;font-family:sans-serif;text-anchor:end;fill:#282828" id="svg_57" x="-166" y="-12.5"><tspan id="svg_58" x="-120" y="11.5">determinar o tom</tspan></text><text style="font-size:6.66666651px;font-family:sans-serif;text-anchor:end;fill:#282828" id="svg_59" x="-166" y="-12.5"><tspan id="svg_60" x="-120" y="-.5">nome</tspan></text><text style="font-size:6.66666651px;font-family:sans-serif;text-anchor:end;fill:#282828" id="svg_61" x="-166" y="-12.5"><tspan id="svg_62" x="-120" y="20.5">oitava</tspan></text></g></g><g id="svg_63" transform="translate(66)"><g id="svg_64" transform="matrix(1.5,0,0,1.5,337,121)"><path style="fill:#77c428;fill-opacity:1;stroke:#57ad02;stroke-width:1;stroke-linecap:round;stroke-opacity:1" id="svg_65" d="m -157.5,-12 h 60 V 8 h -60 V 0 -1 h -6 v 3 h -2 v -8 h 2 v 3 h 6 v -1 z"/><text style="font-size:10px;font-family:sans-serif;text-anchor:start;fill:#282828" id="svg_66" x="-166" y="-12.5"><tspan id="svg_67" x="-153" y="1.5">sol</tspan></text></g></g><g id="svg_68" transform="translate(66)"><g id="svg_69" transform="matrix(1.5,0,0,1.5,337,153)"><path style="fill:#ff5293;fill-opacity:1;stroke:#ff2c76;stroke-width:1;stroke-linecap:round;stroke-opacity:1" id="svg_70" d="m -157.5,-12 h 60 V 8 h -60 V 0 -1 h -6 v 3 h -2 v -8 h 2 v 3 h 6 v -1 z"/><text style="font-size:10px;font-family:sans-serif;text-anchor:start;fill:#282828" id="svg_71" x="-166" y="-12.5"><tspan id="svg_72" x="-153" y="1.5">4</tspan></text></g></g><g id="svg_73"><g id="svg_74"><g id="svg_75" transform="matrix(1.5,0,0,1.5,252,305)"><path style="fill:#fe994f;fill-opacity:1;stroke:#e86b0e;stroke-width:1;stroke-linecap:round;stroke-opacity:1" id="svg_76" d="m -165.5,-4 v -4 a 4,4 90 0 1 4,-4 h 4 v 2 h 10 v -2 h 9 60 4 a 4,4 90 0 1 4,4 v 4 h -4 v -3 h -4 V 3 h 4 V 0 h 4 v 4 a 4,4 90 0 1 -4,4 h -4 -60 -1 v 2 h -8 V 8 h -1 -4 a 5,5 90 0 0 -5,5 v 4 4 42 4 a 5,5 90 0 0 5,5 h 4 v 2 h 10 v -2 h 8 v 6 6 4 a 4,4 90 0 1 -4,4 h -4 -9 -1 v 2 h -8 v -2 h -1 -4 a 4,4 90 0 1 -4,-4 v -4 z"/><text style="font-size:10px;font-family:sans-serif;text-anchor:start;fill:#282828" id="svg_77" x="-166" y="-12.5"><tspan id="svg_78" x="-146" y="2.5">nota</tspan></text><text style="font-size:6.66666651px;font-family:sans-serif;text-anchor:end;fill:#282828" id="svg_79" x="-166" y="-12.5"><tspan id="svg_80" x="-81" y="-.5">valor</tspan></text></g></g><g id="svg_81" transform="matrix(0.5,0,0,0.5,252,309)"><g style="isolation:isolate" id="svg_82"><g id="g5026" data-name="レイヤー 2"><g id="g5024"><rect style="opacity:.4;mix-blend-mode:multiply;fill:#292929" id="svg_83" width="42" height="42" x="-498" y="-37.5" rx="5" ry="5"/><path style="fill:#fff" id="svg_84" d="m -467.44,-7.7000008 -4.17,-4.1600002 h 2.26 a 1.035,1.035 0 1 0 0,-2.07 h -4.71 a 1.08,1.08 0 0 0 -1.11,1 v 0 c 0,0 0,0 0,0.06 v 4.6400003 0 a 1.04,1.04 0 1 0 2.08,0 V -10.42 l 4.19,4.19 a 1,1 0 0 0 1.46,0 1,1 0 0 0 0,-1.4700008 z"/><path style="fill:#fff" id="svg_85" d="m -478.83,-12.9 a 1.08,1.08 0 0 0 -1.11,-1 h -4.71 a 1.035,1.035 0 1 0 0,2.07 h 2.25 l -4.16,4.1299992 a 1.039447,1.039447 0 0 0 1.47,1.4700001 l 4.18,-4.1900003 v 2.2600002 a 1.04,1.04 0 1 0 2.08,0 v -4.6399982 c 0,0 0,0 0,-0.06 a 0.08,0.08 0 0 1 0,-0.04 z"/><path style="fill:#fff" id="svg_86" d="m -474.06,-17 h 4.7 a 1.04,1.04 0 1 0 0,-2.08 h -2.25 l 4.17,-4.16 a 1,1 0 0 0 0,-1.47 1,1 0 0 0 -1.46,0 l -4.19,4.21 v -2.28 a 1.04,1.04 0 1 0 -2.08,0 v 4.64 a 0.43000001,0.43000001 0 0 0 0,0.05 v 0.05 a 1.09,1.09 0 0 0 1.11,1.04 z"/><path style="fill:#fff" id="svg_87" d="m -479.87,-23.88 a 1.08,1.08 0 0 0 -1,1.09 v 2.29 l -4.18,-4.19 a 1,1 0 0 0 -1.47,0 1,1 0 0 0 0,1.46 l 4.16,4.17 h -2.29 a 1.04,1.04 0 1 0 0,2.08 h 4.71 a 1.09,1.09 0 0 0 1.11,-1 c 0,0 0,0 0,-0.06 v -4.75 a 1.0700001,1.0700001 0 0 0 -1.04,-1.09 z"/></g></g></g></g></g><g id="svg_88"><g id="svg_89" transform="matrix(1.5,0,0,1.5,384,305)"><path style="fill:#ff5293;fill-opacity:1;stroke:#ff2c76;stroke-width:1;stroke-linecap:round;stroke-opacity:1" id="svg_90" d="m -157.5,-4 v -4 a 4,4 90 0 1 4,-4 h 4 10 30 4 a 4,4 90 0 1 4,4 v 4 h -4 v -3 h -4 V 3 h 4 V 0 h 4 v 17 h -4 v -3 h -4 v 10 h 4 v -3 h 4 v 4 a 4,4 90 0 1 -4,4 h -4 -30 -10 -4 a 4,4 90 0 1 -4,-4 V 21 0 -1 h -6 v 3 h -2 v -8 h 2 v 3 h 6 z"/><text style="font-size:9px;font-family:sans-serif;text-anchor:end;fill:#282828" id="svg_91" x="-166" y="-12.5"><tspan id="svg_92" x="-112" y="10.5">➗</tspan></text></g></g><g id="svg_97"><g id="svg_98" transform="matrix(1.5,0,0,1.5,470,305)"><path style="fill:#ff5293;fill-opacity:1;stroke:#ff2c76;stroke-width:1;stroke-linecap:round;stroke-opacity:1" id="svg_99" d="m -157.5,-12 h 60 V 8 h -60 V 0 -1 h -6 v 3 h -2 v -8 h 2 v 3 h 6 v -1 z"/><text style="font-size:10px;font-family:sans-serif;text-anchor:start;fill:#282828" id="svg_100" x="-166" y="-12.5"><tspan id="svg_101" x="-153" y="1.5">1</tspan></text></g></g><g id="svg_102"><g id="svg_103" transform="matrix(1.5,0,0,1.5,470,337)"><path style="fill:#ff5293;fill-opacity:1;stroke:#ff2c76;stroke-width:1;stroke-linecap:round;stroke-opacity:1" id="svg_104" d="m -157.5,-12 h 60 V 8 h -60 V 0 -1 h -6 v 3 h -2 v -8 h 2 v 3 h 6 v -1 z"/><text style="font-size:10px;font-family:sans-serif;text-anchor:start;fill:#282828" id="svg_105" x="-166" y="-12.5"><tspan id="svg_106" x="-153" y="1.5">4</tspan></text></g></g><g id="svg_107"><g id="svg_108" transform="matrix(1.5,0,0,1.5,266,337)"><path style="fill:#b0b0b0;fill-opacity:1;stroke:#a0a0a0;stroke-width:1;stroke-linecap:round;stroke-opacity:1" id="svg_109" d="m -165.5,-4 v -4 a 4,4 90 0 1 4,-4 h 4 v 2 h 10 v -2 h 20 4 a 4,4 90 0 1 4,4 v 4 4 4 a 4,4 90 0 1 -4,4 h -4 -20 -1 v 2 h -8 V 8 h -1 -4 a 4,4 90 0 1 -4,-4 V 0 Z"/><text style="font-size:10px;font-family:sans-serif;text-anchor:end;fill:#282828" id="svg_110" x="-166" y="-12.5"><tspan id="svg_111" x="-130" y="1.5">↓</tspan></text></g></g><g id="svg_112" transform="translate(64)"><g id="svg_113" transform="matrix(1.5,0,0,1.5,266,369)"><path style="fill:#77c428;fill-opacity:1;stroke:#57ad02;stroke-width:1;stroke-linecap:round;stroke-opacity:1" id="svg_114" d="m -208.16667,-4 v -4 c 0,-2.209139 1.79086,-4 4,-4 h 4 v 2 h 10 v -2 h 72.66667 4 c 2.20914,0 4,1.790861 4,4 v 4 h -4 v -3 h -4 V 3 h 4 V 0 h 4 v 17 h -4 v -3 h -4 v 10 h 4 v -3 h 4 v 4 c 0,2.209139 -1.79086,4 -4,4 h -4 -72.66667 -1 v 2 h -8 v -2 h -1 -4 c -2.20914,0 -4,-1.790861 -4,-4 V 21 0 Z"/><text style="font-size:10px;font-family:sans-serif;text-anchor:end;fill:#282828" id="svg_115" x="-166" y="-12.5"><tspan id="svg_116" x="-120" y="11.5">determinar o tom</tspan></text><text style="font-size:6.66666651px;font-family:sans-serif;text-anchor:end;fill:#282828" id="svg_117" x="-166" y="-12.5"><tspan id="svg_118" x="-120" y="-.5">nome</tspan></text><text style="font-size:6.66666651px;font-family:sans-serif;text-anchor:end;fill:#282828" id="svg_119" x="-166" y="-12.5"><tspan id="svg_120" x="-120" y="20.5">oitava</tspan></text></g></g><g id="svg_121" transform="translate(64)"><g id="svg_122" transform="matrix(1.5,0,0,1.5,340,369)"><path style="fill:#77c428;fill-opacity:1;stroke:#57ad02;stroke-width:1;stroke-linecap:round;stroke-opacity:1" id="svg_123" d="m -157.5,-12 h 60 V 8 h -60 V 0 -1 h -6 v 3 h -2 v -8 h 2 v 3 h 6 v -1 z"/><text style="font-size:10px;font-family:sans-serif;text-anchor:start;fill:#282828" id="svg_124" x="-166" y="-12.5"><tspan id="svg_125" x="-153" y="1.5">sol</tspan></text></g></g><g id="svg_126" transform="translate(64)"><g id="svg_127" transform="matrix(1.5,0,0,1.5,340,401)"><path style="fill:#ff5293;fill-opacity:1;stroke:#ff2c76;stroke-width:1;stroke-linecap:round;stroke-opacity:1" id="svg_128" d="m -157.5,-12 h 60 V 8 h -60 V 0 -1 h -6 v 3 h -2 v -8 h 2 v 3 h 6 v -1 z"/><text style="font-size:10px;font-family:sans-serif;text-anchor:start;fill:#282828" id="svg_129" x="-166" y="-12.5"><tspan id="svg_130" x="-153" y="1.5">4</tspan></text></g></g><g id="svg_131" transform="translate(20)"><g id="svg_132" transform="matrix(1.5,0,0,1.5,249,25)"><path style="fill:#25c3c0;fill-opacity:1;stroke:#1dbcbd;stroke-width:1;stroke-linecap:round;stroke-opacity:1" id="svg_133" d="m -178.83333,-4 v -4 c 0,-2.209139 1.79086,-4 4,-4 h 4 v 2 h 10 v -2 H -62.5 h 4 c 2.209139,0 4,1.790861 4,4 v 4 h -4 v -3 h -4 V 3 h 4 V 0 h 4 v 4 c 0,2.209139 -1.790861,4 -4,4 h -4 -98.33333 -1 v 2 h -8 V 8 h -1 -4 c -2.20914,0 -4.69859,-1.9042267 -4,-4 V 0 Z"/><text style="font-size:10px;font-family:sans-serif;text-anchor:end;fill:#282828" id="svg_134" x="-166" y="-12.5"><tspan id="svg_135" x="-65" y="1.5">definir volume mestre</tspan></text></g></g><g id="svg_138" transform="translate(20)"><g id="svg_139" transform="matrix(1.5,0,0,1.5,405,25)"><path style="fill:#ff5293;fill-opacity:1;stroke:#ff2c76;stroke-width:1;stroke-linecap:round;stroke-opacity:1" id="svg_140" d="m -157.5,-12 h 60 V 8 h -60 V 0 -1 h -6 v 3 h -2 v -8 h 2 v 3 h 6 v -1 z"/><text style="font-size:10px;font-family:sans-serif;text-anchor:start;fill:#282828" id="svg_141" x="-166" y="-12.5"><tspan id="svg_142" x="-153" y="1.5">50</tspan></text></g></g><g id="svg_143" transform="translate(88)"><g id="svg_144" transform="matrix(1.5,0,0,1.5,252,242)"><path style="fill:#25c3c0;fill-opacity:1;stroke:#1dbcbd;stroke-width:1;stroke-linecap:round;stroke-opacity:1" id="svg_145" d="m -225.5,-4 v -4 c 0,-2.209139 1.79086,-4 4,-4 h 4 v 2 h 10 v -2 h 138 4 c 2.209139,0 4,1.790861 4,4 v 4 h -4 v -3 h -4 V 3 h 4 V 0 h 4 v 17 h -4 v -3 h -4 v 10 h 4 v -3 h 4 v 4 c 0,2.209139 -1.790861,4 -4,4 h -4 -138 -1 v 2 h -8 v -2 h -1 -4 c -2.20914,0 -4.69859,-1.904227 -4,-4 V 21 0 Z"/><text style="font-size:10px;font-family:sans-serif;text-anchor:end;fill:#282828" id="svg_146" x="-166" y="-12.5"><tspan id="svg_147" x="-72" y="11.5">definir volume do sintetizador</tspan></text><text style="font-size:6.66666651px;font-family:sans-serif;text-anchor:end;fill:#282828" id="svg_148" x="-166" y="-12.5"><tspan id="svg_149" x="-72" y="-.5">sintetizador</tspan></text><text style="font-size:6.66666651px;font-family:sans-serif;text-anchor:end;fill:#282828" id="svg_150" x="-166" y="-12.5"><tspan id="svg_151" x="-72" y="20.5">volume</tspan></text></g></g><g id="svg_152" transform="translate(88)"><g id="svg_153" transform="matrix(1.5,0,0,1.5,398,242)"><path style="fill:#25c3c0;fill-opacity:1;stroke:#1dbcbd;stroke-width:1;stroke-linecap:round;stroke-opacity:1" id="svg_154" d="m -157.5,-12 h 95.333333 V 8 H -157.5 V 0 -1 h -6 v 3 h -2 v -8 h 2 v 3 h 6 v -1 z"/><text style="font-size:10px;font-family:sans-serif;text-anchor:start;fill:#282828" id="svg_155" x="-166" y="-12.5"><tspan id="svg_156" x="-153" y="1.5">padrão</tspan></text></g></g><g id="svg_157" transform="translate(88)"><g id="svg_158" transform="matrix(1.5,0,0,1.5,398,274)"><path style="fill:#ff5293;fill-opacity:1;stroke:#ff2c76;stroke-width:1;stroke-linecap:round;stroke-opacity:1" id="svg_159" d="m -157.5,-12 h 60 V 8 h -60 V 0 -1 h -6 v 3 h -2 v -8 h 2 v 3 h 6 v -1 z"/><text style="font-size:10px;font-family:sans-serif;text-anchor:start;fill:#282828" id="svg_160" x="-166" y="-12.5"><tspan id="svg_161" x="-153" y="1.5">50</tspan></text></g></g><g id="svg_162"><g id="svg_163"><g id="svg_164" transform="matrix(1.5,0,0,1.5,663,50)"><path style="fill:#fe994f;fill-opacity:1;stroke:#e86b0e;stroke-width:1;stroke-linecap:round;stroke-opacity:1" id="svg_165" d="m -165.5,-4 v -4 a 4,4 90 0 1 4,-4 h 4 v 2 h 10 v -2 h 9 60 4 a 4,4 90 0 1 4,4 v 4 h -4 v -3 h -4 V 3 h 4 V 0 h 4 v 4 a 4,4 90 0 1 -4,4 h -4 -60 -1 v 2 h -8 V 8 h -1 -4 a 5,5 90 0 0 -5,5 v 4 4 42 4 a 5,5 90 0 0 5,5 h 4 v 2 h 10 v -2 h 8 v 6 6 4 a 4,4 90 0 1 -4,4 h -4 -9 -1 v 2 h -8 v -2 h -1 -4 a 4,4 90 0 1 -4,-4 v -4 z"/><text style="font-size:10px;font-family:sans-serif;text-anchor:start;fill:#282828" id="svg_166" x="-166" y="-12.5"><tspan id="svg_167" x="-146" y="2.5">nota</tspan></text><text style="font-size:6.66666651px;font-family:sans-serif;text-anchor:end;fill:#282828" id="svg_168" x="-166" y="-12.5"><tspan id="svg_169" x="-81" y="-.5">valor</tspan></text></g></g><g id="svg_170" transform="matrix(0.5,0,0,0.5,663,54)"><g style="isolation:isolate" id="svg_171"><g id="g5116" data-name="レイヤー 2"><g id="g5114"><rect style="opacity:.4;mix-blend-mode:multiply;fill:#292929" id="svg_172" width="42" height="42" x="-498" y="-37.5" rx="5" ry="5"/><path style="fill:#fff" id="svg_173" d="m -467.44,-7.7000008 -4.17,-4.1600002 h 2.26 a 1.035,1.035 0 1 0 0,-2.07 h -4.71 a 1.08,1.08 0 0 0 -1.11,1 v 0 c 0,0 0,0 0,0.06 v 4.6400003 0 a 1.04,1.04 0 1 0 2.08,0 V -10.42 l 4.19,4.19 a 1,1 0 0 0 1.46,0 1,1 0 0 0 0,-1.4700008 z"/><path style="fill:#fff" id="svg_174" d="m -478.83,-12.9 a 1.08,1.08 0 0 0 -1.11,-1 h -4.71 a 1.035,1.035 0 1 0 0,2.07 h 2.25 l -4.16,4.1299992 a 1.039447,1.039447 0 0 0 1.47,1.4700001 l 4.18,-4.1900003 v 2.2600002 a 1.04,1.04 0 1 0 2.08,0 v -4.6399982 c 0,0 0,0 0,-0.06 a 0.08,0.08 0 0 1 0,-0.04 z"/><path style="fill:#fff" id="svg_175" d="m -474.06,-17 h 4.7 a 1.04,1.04 0 1 0 0,-2.08 h -2.25 l 4.17,-4.16 a 1,1 0 0 0 0,-1.47 1,1 0 0 0 -1.46,0 l -4.19,4.21 v -2.28 a 1.04,1.04 0 1 0 -2.08,0 v 4.64 a 0.43000001,0.43000001 0 0 0 0,0.05 v 0.05 a 1.09,1.09 0 0 0 1.11,1.04 z"/><path style="fill:#fff" id="svg_176" d="m -479.87,-23.88 a 1.08,1.08 0 0 0 -1,1.09 v 2.29 l -4.18,-4.19 a 1,1 0 0 0 -1.47,0 1,1 0 0 0 0,1.46 l 4.16,4.17 h -2.29 a 1.04,1.04 0 1 0 0,2.08 h 4.71 a 1.09,1.09 0 0 0 1.11,-1 c 0,0 0,0 0,-0.06 v -4.75 a 1.0700001,1.0700001 0 0 0 -1.04,-1.09 z"/></g></g></g></g></g><g id="svg_177"><g id="svg_178" transform="matrix(1.5,0,0,1.5,795,50)"><path style="fill:#ff5293;fill-opacity:1;stroke:#ff2c76;stroke-width:1;stroke-linecap:round;stroke-opacity:1" id="svg_179" d="m -157.5,-4 v -4 a 4,4 90 0 1 4,-4 h 4 10 30 4 a 4,4 90 0 1 4,4 v 4 h -4 v -3 h -4 V 3 h 4 V 0 h 4 v 17 h -4 v -3 h -4 v 10 h 4 v -3 h 4 v 4 a 4,4 90 0 1 -4,4 h -4 -30 -10 -4 a 4,4 90 0 1 -4,-4 V 21 0 -1 h -6 v 3 h -2 v -8 h 2 v 3 h 6 z"/><text style="font-size:9px;font-family:sans-serif;text-anchor:end;fill:#282828" id="svg_180" x="-166" y="-12.5"><tspan id="svg_181" x="-112" y="10.5">➗</tspan></text></g></g><g id="svg_186"><g id="svg_187" transform="matrix(1.5,0,0,1.5,881,50)"><path style="fill:#ff5293;fill-opacity:1;stroke:#ff2c76;stroke-width:1;stroke-linecap:round;stroke-opacity:1" id="svg_188" d="m -157.5,-12 h 60 V 8 h -60 V 0 -1 h -6 v 3 h -2 v -8 h 2 v 3 h 6 v -1 z"/><text style="font-size:10px;font-family:sans-serif;text-anchor:start;fill:#282828" id="svg_189" x="-166" y="-12.5"><tspan id="svg_190" x="-153" y="1.5">1</tspan></text></g></g><g id="svg_191"><g id="svg_192" transform="matrix(1.5,0,0,1.5,881,82)"><path style="fill:#ff5293;fill-opacity:1;stroke:#ff2c76;stroke-width:1;stroke-linecap:round;stroke-opacity:1" id="svg_193" d="m -157.5,-12 h 60 V 8 h -60 V 0 -1 h -6 v 3 h -2 v -8 h 2 v 3 h 6 v -1 z"/><text style="font-size:10px;font-family:sans-serif;text-anchor:start;fill:#282828" id="svg_194" x="-166" y="-12.5"><tspan id="svg_195" x="-153" y="1.5">4</tspan></text></g></g><g id="svg_196"><g id="svg_197" transform="matrix(1.5,0,0,1.5,677,82)"><path style="fill:#b0b0b0;fill-opacity:1;stroke:#a0a0a0;stroke-width:1;stroke-linecap:round;stroke-opacity:1" id="svg_198" d="m -165.5,-4 v -4 a 4,4 90 0 1 4,-4 h 4 v 2 h 10 v -2 h 20 4 a 4,4 90 0 1 4,4 v 4 4 4 a 4,4 90 0 1 -4,4 h -4 -20 -1 v 2 h -8 V 8 h -1 -4 a 4,4 90 0 1 -4,-4 V 0 Z"/><text style="font-size:10px;font-family:sans-serif;text-anchor:end;fill:#282828" id="svg_199" x="-166" y="-12.5"><tspan id="svg_200" x="-130" y="1.5">↓</tspan></text></g></g><g id="svg_201" transform="translate(66)"><g id="svg_202" transform="matrix(1.5,0,0,1.5,677,114)"><path style="fill:#77c428;fill-opacity:1;stroke:#57ad02;stroke-width:1;stroke-linecap:round;stroke-opacity:1" id="svg_203" d="m -209.5,-4 v -4 c 0,-2.209139 1.79086,-4 4,-4 h 4 v 2 h 10 v -2 h 74 4 c 2.20914,0 4,1.790861 4,4 v 4 h -4 v -3 h -4 V 3 h 4 V 0 h 4 v 17 h -4 v -3 h -4 v 10 h 4 v -3 h 4 v 4 c 0,2.209139 -1.79086,4 -4,4 h -4 -74 -1 v 2 h -8 v -2 h -1 -4 c -2.20914,0 -4.69859,-1.904227 -4,-4 V 21 0 Z"/><text style="font-size:10px;font-family:sans-serif;text-anchor:end;fill:#282828" id="svg_204" x="-166" y="-12.5"><tspan id="svg_205" x="-120" y="11.5">determinar o tom</tspan></text><text style="font-size:6.66666651px;font-family:sans-serif;text-anchor:end;fill:#282828" id="svg_206" x="-166" y="-12.5"><tspan id="svg_207" x="-120" y="-.5">nome</tspan></text><text style="font-size:6.66666651px;font-family:sans-serif;text-anchor:end;fill:#282828" id="svg_208" x="-166" y="-12.5"><tspan id="svg_209" x="-120" y="20.5">oitava</tspan></text></g></g><g id="svg_210" transform="translate(66)"><g id="svg_211" transform="matrix(1.5,0,0,1.5,751,114)"><path style="fill:#77c428;fill-opacity:1;stroke:#57ad02;stroke-width:1;stroke-linecap:round;stroke-opacity:1" id="svg_212" d="m -157.5,-12 h 60 V 8 h -60 V 0 -1 h -6 v 3 h -2 v -8 h 2 v 3 h 6 v -1 z"/><text style="font-size:10px;font-family:sans-serif;text-anchor:start;fill:#282828" id="svg_213" x="-166" y="-12.5"><tspan id="svg_214" x="-153" y="1.5">sol</tspan></text></g></g><g id="svg_215" transform="translate(66)"><g id="svg_216" transform="matrix(1.5,0,0,1.5,751,146)"><path style="fill:#ff5293;fill-opacity:1;stroke:#ff2c76;stroke-width:1;stroke-linecap:round;stroke-opacity:1" id="svg_217" d="m -157.5,-12 h 60 V 8 h -60 V 0 -1 h -6 v 3 h -2 v -8 h 2 v 3 h 6 v -1 z"/><text style="font-size:10px;font-family:sans-serif;text-anchor:start;fill:#282828" id="svg_218" x="-166" y="-12.5"><tspan id="svg_219" x="-153" y="1.5">4</tspan></text></g></g><g id="svg_220"><g id="svg_221"><g id="svg_222" transform="matrix(1.5,0,0,1.5,663,208)"><path style="fill:#fe994f;fill-opacity:1;stroke:#e86b0e;stroke-width:1;stroke-linecap:round;stroke-opacity:1" id="svg_223" d="m -165.5,-4 v -4 a 4,4 90 0 1 4,-4 h 4 v 2 h 10 v -2 h 9 60 4 a 4,4 90 0 1 4,4 v 4 h -4 v -3 h -4 V 3 h 4 V 0 h 4 v 4 a 4,4 90 0 1 -4,4 h -4 -60 -1 v 2 h -8 V 8 h -1 -4 a 5,5 90 0 0 -5,5 v 4 4 42 4 a 5,5 90 0 0 5,5 h 4 v 2 h 10 v -2 h 8 v 6 6 4 a 4,4 90 0 1 -4,4 h -4 -9 -1 v 2 h -8 v -2 h -1 -4 a 4,4 90 0 1 -4,-4 v -4 z"/><text style="font-size:10px;font-family:sans-serif;text-anchor:start;fill:#282828" id="svg_224" x="-166" y="-12.5"><tspan id="svg_225" x="-146" y="2.5">nota</tspan></text><text style="font-size:6.66666651px;font-family:sans-serif;text-anchor:end;fill:#282828" id="svg_226" x="-166" y="-12.5"><tspan id="svg_227" x="-81" y="-.5">valor</tspan></text></g></g><g id="svg_228" transform="matrix(0.5,0,0,0.5,663,212)"><g style="isolation:isolate" id="svg_229"><g id="g5176" data-name="レイヤー 2"><g id="g5174"><rect style="opacity:.4;mix-blend-mode:multiply;fill:#292929" id="svg_230" width="42" height="42" x="-498" y="-37.5" rx="5" ry="5"/><path style="fill:#fff" id="svg_231" d="m -467.44,-7.7000008 -4.17,-4.1600002 h 2.26 a 1.035,1.035 0 1 0 0,-2.07 h -4.71 a 1.08,1.08 0 0 0 -1.11,1 v 0 c 0,0 0,0 0,0.06 v 4.6400003 0 a 1.04,1.04 0 1 0 2.08,0 V -10.42 l 4.19,4.19 a 1,1 0 0 0 1.46,0 1,1 0 0 0 0,-1.4700008 z"/><path style="fill:#fff" id="svg_232" d="m -478.83,-12.9 a 1.08,1.08 0 0 0 -1.11,-1 h -4.71 a 1.035,1.035 0 1 0 0,2.07 h 2.25 l -4.16,4.1299992 a 1.039447,1.039447 0 0 0 1.47,1.4700001 l 4.18,-4.1900003 v 2.2600002 a 1.04,1.04 0 1 0 2.08,0 v -4.6399982 c 0,0 0,0 0,-0.06 a 0.08,0.08 0 0 1 0,-0.04 z"/><path style="fill:#fff" id="svg_233" d="m -474.06,-17 h 4.7 a 1.04,1.04 0 1 0 0,-2.08 h -2.25 l 4.17,-4.16 a 1,1 0 0 0 0,-1.47 1,1 0 0 0 -1.46,0 l -4.19,4.21 v -2.28 a 1.04,1.04 0 1 0 -2.08,0 v 4.64 a 0.43000001,0.43000001 0 0 0 0,0.05 v 0.05 a 1.09,1.09 0 0 0 1.11,1.04 z"/><path style="fill:#fff" id="svg_234" d="m -479.87,-23.88 a 1.08,1.08 0 0 0 -1,1.09 v 2.29 l -4.18,-4.19 a 1,1 0 0 0 -1.47,0 1,1 0 0 0 0,1.46 l 4.16,4.17 h -2.29 a 1.04,1.04 0 1 0 0,2.08 h 4.71 a 1.09,1.09 0 0 0 1.11,-1 c 0,0 0,0 0,-0.06 v -4.75 a 1.0700001,1.0700001 0 0 0 -1.04,-1.09 z"/></g></g></g></g></g><g id="svg_235"><g id="svg_236" transform="matrix(1.5,0,0,1.5,795,208)"><path style="fill:#ff5293;fill-opacity:1;stroke:#ff2c76;stroke-width:1;stroke-linecap:round;stroke-opacity:1" id="svg_237" d="m -157.5,-4 v -4 a 4,4 90 0 1 4,-4 h 4 10 30 4 a 4,4 90 0 1 4,4 v 4 h -4 v -3 h -4 V 3 h 4 V 0 h 4 v 17 h -4 v -3 h -4 v 10 h 4 v -3 h 4 v 4 a 4,4 90 0 1 -4,4 h -4 -30 -10 -4 a 4,4 90 0 1 -4,-4 V 21 0 -1 h -6 v 3 h -2 v -8 h 2 v 3 h 6 z"/><text style="font-size:9px;font-family:sans-serif;text-anchor:end;fill:#282828" id="svg_238" x="-166" y="-12.5"><tspan id="svg_239" x="-112" y="10.5">➗</tspan></text></g></g><g id="svg_244"><g id="svg_245" transform="matrix(1.5,0,0,1.5,881,208)"><path style="fill:#ff5293;fill-opacity:1;stroke:#ff2c76;stroke-width:1;stroke-linecap:round;stroke-opacity:1" id="svg_246" d="m -157.5,-12 h 60 V 8 h -60 V 0 -1 h -6 v 3 h -2 v -8 h 2 v 3 h 6 v -1 z"/><text style="font-size:10px;font-family:sans-serif;text-anchor:start;fill:#282828" id="svg_247" x="-166" y="-12.5"><tspan id="svg_248" x="-153" y="1.5">1</tspan></text></g></g><g id="svg_249"><g id="svg_250" transform="matrix(1.5,0,0,1.5,881,240)"><path style="fill:#ff5293;fill-opacity:1;stroke:#ff2c76;stroke-width:1;stroke-linecap:round;stroke-opacity:1" id="svg_251" d="m -157.5,-12 h 60 V 8 h -60 V 0 -1 h -6 v 3 h -2 v -8 h 2 v 3 h 6 v -1 z"/><text style="font-size:10px;font-family:sans-serif;text-anchor:start;fill:#282828" id="svg_252" x="-166" y="-12.5"><tspan id="svg_253" x="-153" y="1.5">4</tspan></text></g></g><g id="svg_254"><g id="svg_255" transform="matrix(1.5,0,0,1.5,677,240)"><path style="fill:#b0b0b0;fill-opacity:1;stroke:#a0a0a0;stroke-width:1;stroke-linecap:round;stroke-opacity:1" id="svg_256" d="m -165.5,-4 v -4 a 4,4 90 0 1 4,-4 h 4 v 2 h 10 v -2 h 20 4 a 4,4 90 0 1 4,4 v 4 4 4 a 4,4 90 0 1 -4,4 h -4 -20 -1 v 2 h -8 V 8 h -1 -4 a 4,4 90 0 1 -4,-4 V 0 Z"/><text style="font-size:10px;font-family:sans-serif;text-anchor:end;fill:#282828" id="svg_257" x="-166" y="-12.5"><tspan id="svg_258" x="-130" y="1.5">↓</tspan></text></g></g><g id="svg_259" transform="translate(66)"><g id="svg_260" transform="matrix(1.5,0,0,1.5,677,272)"><path style="fill:#77c428;fill-opacity:1;stroke:#57ad02;stroke-width:1;stroke-linecap:round;stroke-opacity:1" id="svg_261" d="m -209.5,-4 v -4 c 0,-2.209139 1.79086,-4 4,-4 h 4 v 2 h 10 v -2 h 74 4 c 2.20914,0 4,1.790861 4,4 v 4 h -4 v -3 h -4 V 3 h 4 V 0 h 4 v 17 h -4 v -3 h -4 v 10 h 4 v -3 h 4 v 4 c 0,2.209139 -1.79086,4 -4,4 h -4 -74 -1 v 2 h -8 v -2 h -1 -4 c -2.20914,0 -4.69859,-1.904227 -4,-4 V 21 0 Z"/><text style="font-size:10px;font-family:sans-serif;text-anchor:end;fill:#282828" id="svg_262" x="-166" y="-12.5"><tspan id="svg_263" x="-120" y="11.5">determinar o tom</tspan></text><text style="font-size:6.66666651px;font-family:sans-serif;text-anchor:end;fill:#282828" id="svg_264" x="-166" y="-12.5"><tspan id="svg_265" x="-120" y="-.5">nome</tspan></text><text style="font-size:6.66666651px;font-family:sans-serif;text-anchor:end;fill:#282828" id="svg_266" x="-166" y="-12.5"><tspan id="svg_267" x="-120" y="20.5">oitava</tspan></text></g></g><g id="svg_268" transform="translate(66)"><g id="svg_269" transform="matrix(1.5,0,0,1.5,751,272)"><path style="fill:#77c428;fill-opacity:1;stroke:#57ad02;stroke-width:1;stroke-linecap:round;stroke-opacity:1" id="svg_270" d="m -157.5,-12 h 60 V 8 h -60 V 0 -1 h -6 v 3 h -2 v -8 h 2 v 3 h 6 v -1 z"/><text style="font-size:10px;font-family:sans-serif;text-anchor:start;fill:#282828" id="svg_271" x="-166" y="-12.5"><tspan id="svg_272" x="-153" y="1.5">la</tspan></text></g></g><g id="svg_273" transform="translate(66)"><g id="svg_274" transform="matrix(1.5,0,0,1.5,751,304)"><path style="fill:#ff5293;fill-opacity:1;stroke:#ff2c76;stroke-width:1;stroke-linecap:round;stroke-opacity:1" id="svg_275" d="m -157.5,-12 h 60 V 8 h -60 V 0 -1 h -6 v 3 h -2 v -8 h 2 v 3 h 6 v -1 z"/><text style="font-size:10px;font-family:sans-serif;text-anchor:start;fill:#282828" id="svg_276" x="-166" y="-12.5"><tspan id="svg_277" x="-153" y="1.5">4</tspan></text></g></g><g id="svg_278"><g id="svg_279"><g id="svg_280" transform="matrix(1.5,0,0,1.5,663,366)"><path style="fill:#fe994f;fill-opacity:1;stroke:#e86b0e;stroke-width:1;stroke-linecap:round;stroke-opacity:1" id="svg_281" d="m -165.5,-4 v -4 a 4,4 90 0 1 4,-4 h 4 v 2 h 10 v -2 h 9 60 4 a 4,4 90 0 1 4,4 v 4 h -4 v -3 h -4 V 3 h 4 V 0 h 4 v 4 a 4,4 90 0 1 -4,4 h -4 -60 -1 v 2 h -8 V 8 h -1 -4 a 5,5 90 0 0 -5,5 v 4 4 42 4 a 5,5 90 0 0 5,5 h 4 v 2 h 10 v -2 h 8 v 6 6 4 a 4,4 90 0 1 -4,4 h -4 -9 -1 v 2 h -8 v -2 h -1 -4 a 4,4 90 0 1 -4,-4 v -4 z"/><text style="font-size:10px;font-family:sans-serif;text-anchor:start;fill:#282828" id="svg_282" x="-166" y="-12.5"><tspan id="svg_283" x="-146" y="2.5">nota</tspan></text><text style="font-size:6.66666651px;font-family:sans-serif;text-anchor:end;fill:#282828" id="svg_284" x="-166" y="-12.5"><tspan id="svg_285" x="-81" y="-.5">valor</tspan></text></g></g><g id="svg_286" transform="matrix(0.5,0,0,0.5,663,370)"><g style="isolation:isolate" id="svg_287"><g id="g5236" data-name="レイヤー 2"><g id="g5234"><rect style="opacity:.4;mix-blend-mode:multiply;fill:#292929" id="svg_288" width="42" height="42" x="-498" y="-37.5" rx="5" ry="5"/><path style="fill:#fff" id="svg_289" d="m -467.44,-7.7000008 -4.17,-4.1600002 h 2.26 a 1.035,1.035 0 1 0 0,-2.07 h -4.71 a 1.08,1.08 0 0 0 -1.11,1 v 0 c 0,0 0,0 0,0.06 v 4.6400003 0 a 1.04,1.04 0 1 0 2.08,0 V -10.42 l 4.19,4.19 a 1,1 0 0 0 1.46,0 1,1 0 0 0 0,-1.4700008 z"/><path style="fill:#fff" id="svg_290" d="m -478.83,-12.9 a 1.08,1.08 0 0 0 -1.11,-1 h -4.71 a 1.035,1.035 0 1 0 0,2.07 h 2.25 l -4.16,4.1299992 a 1.039447,1.039447 0 0 0 1.47,1.4700001 l 4.18,-4.1900003 v 2.2600002 a 1.04,1.04 0 1 0 2.08,0 v -4.6399982 c 0,0 0,0 0,-0.06 a 0.08,0.08 0 0 1 0,-0.04 z"/><path style="fill:#fff" id="svg_291" d="m -474.06,-17 h 4.7 a 1.04,1.04 0 1 0 0,-2.08 h -2.25 l 4.17,-4.16 a 1,1 0 0 0 0,-1.47 1,1 0 0 0 -1.46,0 l -4.19,4.21 v -2.28 a 1.04,1.04 0 1 0 -2.08,0 v 4.64 a 0.43000001,0.43000001 0 0 0 0,0.05 v 0.05 a 1.09,1.09 0 0 0 1.11,1.04 z"/><path style="fill:#fff" id="svg_292" d="m -479.87,-23.88 a 1.08,1.08 0 0 0 -1,1.09 v 2.29 l -4.18,-4.19 a 1,1 0 0 0 -1.47,0 1,1 0 0 0 0,1.46 l 4.16,4.17 h -2.29 a 1.04,1.04 0 1 0 0,2.08 h 4.71 a 1.09,1.09 0 0 0 1.11,-1 c 0,0 0,0 0,-0.06 v -4.75 a 1.0700001,1.0700001 0 0 0 -1.04,-1.09 z"/></g></g></g></g></g><g id="svg_293"><g id="svg_294" transform="matrix(1.5,0,0,1.5,795,366)"><path style="fill:#ff5293;fill-opacity:1;stroke:#ff2c76;stroke-width:1;stroke-linecap:round;stroke-opacity:1" id="svg_295" d="m -157.5,-4 v -4 a 4,4 90 0 1 4,-4 h 4 10 30 4 a 4,4 90 0 1 4,4 v 4 h -4 v -3 h -4 V 3 h 4 V 0 h 4 v 17 h -4 v -3 h -4 v 10 h 4 v -3 h 4 v 4 a 4,4 90 0 1 -4,4 h -4 -30 -10 -4 a 4,4 90 0 1 -4,-4 V 21 0 -1 h -6 v 3 h -2 v -8 h 2 v 3 h 6 z"/><text style="font-size:9px;font-family:sans-serif;text-anchor:end;fill:#282828" id="svg_296" x="-166" y="-12.5"><tspan id="svg_297" x="-112" y="10.5">➗</tspan></text></g></g><g id="svg_302"><g id="svg_303" transform="matrix(1.5,0,0,1.5,881,366)"><path style="fill:#ff5293;fill-opacity:1;stroke:#ff2c76;stroke-width:1;stroke-linecap:round;stroke-opacity:1" id="svg_304" d="m -157.5,-12 h 60 V 8 h -60 V 0 -1 h -6 v 3 h -2 v -8 h 2 v 3 h 6 v -1 z"/><text style="font-size:10px;font-family:sans-serif;text-anchor:start;fill:#282828" id="svg_305" x="-166" y="-12.5"><tspan id="svg_306" x="-153" y="1.5">1</tspan></text></g></g><g id="svg_307"><g id="svg_308" transform="matrix(1.5,0,0,1.5,881,398)"><path style="fill:#ff5293;fill-opacity:1;stroke:#ff2c76;stroke-width:1;stroke-linecap:round;stroke-opacity:1" id="svg_309" d="m -157.5,-12 h 60 V 8 h -60 V 0 -1 h -6 v 3 h -2 v -8 h 2 v 3 h 6 v -1 z"/><text style="font-size:10px;font-family:sans-serif;text-anchor:start;fill:#282828" id="svg_310" x="-166" y="-12.5"><tspan id="svg_311" x="-153" y="1.5">4</tspan></text></g></g><g id="svg_312"><g id="svg_313" transform="matrix(1.5,0,0,1.5,677,398)"><path style="fill:#b0b0b0;fill-opacity:1;stroke:#a0a0a0;stroke-width:1;stroke-linecap:round;stroke-opacity:1" id="svg_314" d="m -165.5,-4 v -4 a 4,4 90 0 1 4,-4 h 4 v 2 h 10 v -2 h 20 4 a 4,4 90 0 1 4,4 v 4 4 4 a 4,4 90 0 1 -4,4 h -4 -20 -1 v 2 h -8 V 8 h -1 -4 a 4,4 90 0 1 -4,-4 V 0 Z"/><text style="font-size:10px;font-family:sans-serif;text-anchor:end;fill:#282828" id="svg_315" x="-166" y="-12.5"><tspan id="svg_316" x="-130" y="1.5">↓</tspan></text></g></g><g id="svg_317" transform="translate(66)"><g id="svg_318" transform="matrix(1.5,0,0,1.5,677,430)"><path style="fill:#77c428;fill-opacity:1;stroke:#57ad02;stroke-width:1;stroke-linecap:round;stroke-opacity:1" id="svg_319" d="m -209.5,-4 v -4 c 0,-2.209139 1.79086,-4 4,-4 h 4 v 2 h 10 v -2 h 74 4 c 2.20914,0 4,1.790861 4,4 v 4 h -4 v -3 h -4 V 3 h 4 V 0 h 4 v 17 h -4 v -3 h -4 v 10 h 4 v -3 h 4 v 4 c 0,2.209139 -1.79086,4 -4,4 h -4 -74 -1 v 2 h -8 v -2 h -1 -4 c -2.20914,0 -4,-1.790861 -4,-4 V 21 0 Z"/><text style="font-size:10px;font-family:sans-serif;text-anchor:end;fill:#282828" id="svg_320" x="-166" y="-12.5"><tspan id="svg_321" x="-120" y="11.5">determinar o tom</tspan></text><text style="font-size:6.66666651px;font-family:sans-serif;text-anchor:end;fill:#282828" id="svg_322" x="-166" y="-12.5"><tspan id="svg_323" x="-120" y="-.5">nome</tspan></text><text style="font-size:6.66666651px;font-family:sans-serif;text-anchor:end;fill:#282828" id="svg_324" x="-166" y="-12.5"><tspan id="svg_325" x="-120" y="20.5">oitava</tspan></text></g></g><g id="svg_326" transform="translate(66)"><g id="svg_327" transform="matrix(1.5,0,0,1.5,751,430)"><path style="fill:#77c428;fill-opacity:1;stroke:#57ad02;stroke-width:1;stroke-linecap:round;stroke-opacity:1" id="svg_328" d="m -157.5,-12 h 60 V 8 h -60 V 0 -1 h -6 v 3 h -2 v -8 h 2 v 3 h 6 v -1 z"/><text style="font-size:10px;font-family:sans-serif;text-anchor:start;fill:#282828" id="svg_329" x="-166" y="-12.5"><tspan id="svg_330" x="-153" y="1.5">ti</tspan></text></g></g><g id="svg_331" transform="translate(66)"><g id="svg_332" transform="matrix(1.5,0,0,1.5,751,462)"><path style="fill:#ff5293;fill-opacity:1;stroke:#ff2c76;stroke-width:1;stroke-linecap:round;stroke-opacity:1" id="svg_333" d="m -157.5,-12 h 60 V 8 h -60 V 0 -1 h -6 v 3 h -2 v -8 h 2 v 3 h 6 v -1 z"/><text style="font-size:10px;font-family:sans-serif;text-anchor:start;fill:#282828" id="svg_334" x="-166" y="-12.5"><tspan id="svg_335" x="-153" y="1.5">4</tspan></text></g></g><g id="svg_336"><g id="svg_337" transform="matrix(1.5,0,0,1.5,649,18)"><path style="fill:#25c3c0;fill-opacity:1;stroke:#1dbcbd;stroke-width:1;stroke-linecap:round;stroke-opacity:1" id="svg_338" d="m -165.5,-4 v -4 a 4,4 90 0 1 4,-4 h 4 v 2 h 10 v -2 h 9 37 4 a 4,4 90 0 1 4,4 v 4 h -4 v -3 h -4 V 3 h 4 V 0 h 4 v 4 a 4,4 90 0 1 -4,4 h -4 -37 -1 v 2 h -8 V 8 h -1 -4 a 5,5 90 0 0 -5,5 v 4 4 294 4 a 5,5 90 0 0 5,5 h 4 v 2 h 10 v -2 h 8 v 6 6 4 a 4,4 90 0 1 -4,4 h -4 -9 -1 v 2 h -8 v -2 h -1 -4 a 4,4 90 0 1 -4,-4 v -4 z"/><text style="font-size:10px;font-family:sans-serif;text-anchor:start;fill:#282828" id="svg_339" x="-166" y="-12.5"><tspan id="svg_340" x="-161" y="2.5">crescendo</tspan></text></g></g><g id="svg_343"><g id="svg_344" transform="matrix(1.5,0,0,1.5,747,18)"><path style="fill:#ff5293;fill-opacity:1;stroke:#ff2c76;stroke-width:1;stroke-linecap:round;stroke-opacity:1" id="svg_345" d="m -157.5,-12 h 60 V 8 h -60 V 0 -1 h -6 v 3 h -2 v -8 h 2 v 3 h 6 v -1 z"/><text style="font-size:10px;font-family:sans-serif;text-anchor:start;fill:#282828" id="svg_346" x="-166" y="-12.5"><tspan id="svg_347" x="-153" y="1.5">5</tspan></text></g></g><g id="svg_348" transform="translate(-3)"><g id="svg_349"><g id="svg_350" transform="matrix(1.5,0,0,1.5,266,524)"><path style="fill:#fe994f;fill-opacity:1;stroke:#e86b0e;stroke-width:1;stroke-linecap:round;stroke-opacity:1" id="svg_351" d="m -165.5,-4 v -4 a 4,4 90 0 1 4,-4 h 4 v 2 h 10 v -2 h 9 60 4 a 4,4 90 0 1 4,4 v 4 h -4 v -3 h -4 V 3 h 4 V 0 h 4 v 4 a 4,4 90 0 1 -4,4 h -4 -60 -1 v 2 h -8 V 8 h -1 -4 a 5,5 90 0 0 -5,5 v 4 4 42 4 a 5,5 90 0 0 5,5 h 4 v 2 h 10 v -2 h 8 v 6 6 4 a 4,4 90 0 1 -4,4 h -4 -9 -1 v 2 h -8 v -2 h -1 -4 a 4,4 90 0 1 -4,-4 v -4 z"/><text style="font-size:10px;font-family:sans-serif;text-anchor:start;fill:#282828" id="svg_352" x="-166" y="-12.5"><tspan id="svg_353" x="-146" y="2.5">nota</tspan></text><text style="font-size:6.66666651px;font-family:sans-serif;text-anchor:end;fill:#282828" id="svg_354" x="-166" y="-12.5"><tspan id="svg_355" x="-81" y="-.5">valor</tspan></text></g></g><g id="svg_356" transform="matrix(0.5,0,0,0.5,266,528)"><g style="isolation:isolate" id="svg_357"><g id="g5307" data-name="レイヤー 2"><g id="g5305"><rect style="opacity:.4;mix-blend-mode:multiply;fill:#292929" id="svg_358" width="42" height="42" x="-498" y="-37.5" rx="5" ry="5"/><path style="fill:#fff" id="svg_359" d="m -467.44,-7.7000008 -4.17,-4.1600002 h 2.26 a 1.035,1.035 0 1 0 0,-2.07 h -4.71 a 1.08,1.08 0 0 0 -1.11,1 v 0 c 0,0 0,0 0,0.06 v 4.6400003 0 a 1.04,1.04 0 1 0 2.08,0 V -10.42 l 4.19,4.19 a 1,1 0 0 0 1.46,0 1,1 0 0 0 0,-1.4700008 z"/><path style="fill:#fff" id="svg_360" d="m -478.83,-12.9 a 1.08,1.08 0 0 0 -1.11,-1 h -4.71 a 1.035,1.035 0 1 0 0,2.07 h 2.25 l -4.16,4.1299992 a 1.039447,1.039447 0 0 0 1.47,1.4700001 l 4.18,-4.1900003 v 2.2600002 a 1.04,1.04 0 1 0 2.08,0 v -4.6399982 c 0,0 0,0 0,-0.06 a 0.08,0.08 0 0 1 0,-0.04 z"/><path style="fill:#fff" id="svg_361" d="m -474.06,-17 h 4.7 a 1.04,1.04 0 1 0 0,-2.08 h -2.25 l 4.17,-4.16 a 1,1 0 0 0 0,-1.47 1,1 0 0 0 -1.46,0 l -4.19,4.21 v -2.28 a 1.04,1.04 0 1 0 -2.08,0 v 4.64 a 0.43000001,0.43000001 0 0 0 0,0.05 v 0.05 a 1.09,1.09 0 0 0 1.11,1.04 z"/><path style="fill:#fff" id="svg_362" d="m -479.87,-23.88 a 1.08,1.08 0 0 0 -1,1.09 v 2.29 l -4.18,-4.19 a 1,1 0 0 0 -1.47,0 1,1 0 0 0 0,1.46 l 4.16,4.17 h -2.29 a 1.04,1.04 0 1 0 0,2.08 h 4.71 a 1.09,1.09 0 0 0 1.11,-1 c 0,0 0,0 0,-0.06 v -4.75 a 1.0700001,1.0700001 0 0 0 -1.04,-1.09 z"/></g></g></g></g></g><g id="svg_363" transform="translate(-3)"><g id="svg_364" transform="matrix(1.5,0,0,1.5,398,524)"><path style="fill:#ff5293;fill-opacity:1;stroke:#ff2c76;stroke-width:1;stroke-linecap:round;stroke-opacity:1" id="svg_365" d="m -157.5,-4 v -4 a 4,4 90 0 1 4,-4 h 4 10 30 4 a 4,4 90 0 1 4,4 v 4 h -4 v -3 h -4 V 3 h 4 V 0 h 4 v 17 h -4 v -3 h -4 v 10 h 4 v -3 h 4 v 4 a 4,4 90 0 1 -4,4 h -4 -30 -10 -4 a 4,4 90 0 1 -4,-4 V 21 0 -1 h -6 v 3 h -2 v -8 h 2 v 3 h 6 z"/><text style="font-size:9px;font-family:sans-serif;text-anchor:end;fill:#282828" id="svg_366" x="-166" y="-12.5"><tspan id="svg_367" x="-112" y="10.5">➗</tspan></text></g></g><g id="svg_372" transform="translate(-3)"><g id="svg_373" transform="matrix(1.5,0,0,1.5,484,524)"><path style="fill:#ff5293;fill-opacity:1;stroke:#ff2c76;stroke-width:1;stroke-linecap:round;stroke-opacity:1" id="svg_374" d="m -157.5,-12 h 60 V 8 h -60 V 0 -1 h -6 v 3 h -2 v -8 h 2 v 3 h 6 v -1 z"/><text style="font-size:10px;font-family:sans-serif;text-anchor:start;fill:#282828" id="svg_375" x="-166" y="-12.5"><tspan id="svg_376" x="-153" y="1.5">1</tspan></text></g></g><g id="svg_377" transform="translate(-3)"><g id="svg_378" transform="matrix(1.5,0,0,1.5,484,556)"><path style="fill:#ff5293;fill-opacity:1;stroke:#ff2c76;stroke-width:1;stroke-linecap:round;stroke-opacity:1" id="svg_379" d="m -157.5,-12 h 60 V 8 h -60 V 0 -1 h -6 v 3 h -2 v -8 h 2 v 3 h 6 v -1 z"/><text style="font-size:10px;font-family:sans-serif;text-anchor:start;fill:#282828" id="svg_380" x="-166" y="-12.5"><tspan id="svg_381" x="-153" y="1.5">4</tspan></text></g></g><g id="svg_382" transform="translate(-3)"><g id="svg_383" transform="matrix(1.5,0,0,1.5,280,556)"><path style="fill:#b0b0b0;fill-opacity:1;stroke:#a0a0a0;stroke-width:1;stroke-linecap:round;stroke-opacity:1" id="svg_384" d="m -165.5,-4 v -4 a 4,4 90 0 1 4,-4 h 4 v 2 h 10 v -2 h 20 4 a 4,4 90 0 1 4,4 v 4 4 4 a 4,4 90 0 1 -4,4 h -4 -20 -1 v 2 h -8 V 8 h -1 -4 a 4,4 90 0 1 -4,-4 V 0 Z"/><text style="font-size:10px;font-family:sans-serif;text-anchor:end;fill:#282828" id="svg_385" x="-166" y="-12.5"><tspan id="svg_386" x="-130" y="1.5">↓</tspan></text></g></g><g id="svg_387" transform="translate(61)"><g id="svg_388" transform="matrix(1.5,0,0,1.5,280,588)"><path style="fill:#77c428;fill-opacity:1;stroke:#57ad02;stroke-width:1;stroke-linecap:round;stroke-opacity:1" id="svg_389" d="m -208.16667,-4 v -4 c 0,-2.209139 1.79086,-4 4,-4 h 4 v 2 h 10 v -2 h 72.66667 4 c 2.20914,0 4,1.790861 4,4 v 4 h -4 v -3 h -4 V 3 h 4 V 0 h 4 v 17 h -4 v -3 h -4 v 10 h 4 v -3 h 4 v 4 c 0,2.209139 -1.79086,4 -4,4 h -4 -72.66667 -1 v 2 h -8 v -2 h -1 -4 c -2.20914,0 -4,-1.790861 -4,-4 V 21 0 Z"/><text style="font-size:10px;font-family:sans-serif;text-anchor:end;fill:#282828" id="svg_390" x="-166" y="-12.5"><tspan id="svg_391" x="-120" y="11.5">determinar o tom</tspan></text><text style="font-size:6.66666651px;font-family:sans-serif;text-anchor:end;fill:#282828" id="svg_392" x="-166" y="-12.5"><tspan id="svg_393" x="-120" y="-.5">nome</tspan></text><text style="font-size:6.66666651px;font-family:sans-serif;text-anchor:end;fill:#282828" id="svg_394" x="-166" y="-12.5"><tspan id="svg_395" x="-120" y="20.5">oitava</tspan></text></g></g><g id="svg_396" transform="translate(61)"><g id="svg_397" transform="matrix(1.5,0,0,1.5,354,588)"><path style="fill:#77c428;fill-opacity:1;stroke:#57ad02;stroke-width:1;stroke-linecap:round;stroke-opacity:1" id="svg_398" d="m -157.5,-12 h 60 V 8 h -60 V 0 -1 h -6 v 3 h -2 v -8 h 2 v 3 h 6 v -1 z"/><text style="font-size:10px;font-family:sans-serif;text-anchor:start;fill:#282828" id="svg_399" x="-166" y="-12.5"><tspan id="svg_400" x="-153" y="1.5">sol</tspan></text></g></g><g id="svg_401" transform="translate(61)"><g id="svg_402" transform="matrix(1.5,0,0,1.5,354,620)"><path style="fill:#ff5293;fill-opacity:1;stroke:#ff2c76;stroke-width:1;stroke-linecap:round;stroke-opacity:1" id="svg_403" d="m -157.5,-12 h 60 V 8 h -60 V 0 -1 h -6 v 3 h -2 v -8 h 2 v 3 h 6 v -1 z"/><text style="font-size:10px;font-family:sans-serif;text-anchor:start;fill:#282828" id="svg_404" x="-166" y="-12.5"><tspan id="svg_405" x="-153" y="1.5">4</tspan></text></g></g><g id="svg_406" transform="translate(-3)"><g id="svg_407" transform="matrix(1.5,0,0,1.5,252,492)"><path style="fill:#25c3c0;fill-opacity:1;stroke:#1dbcbd;stroke-width:1;stroke-linecap:round;stroke-opacity:1" id="svg_408" d="m -165.5,-4 v -4 c 0,-2.209139 1.79086,-4 4,-4 h 4 v 2 h 10 v -2 h 9 95 4 c 2.209139,0 4,1.790861 4,4 v 4 h -4 v -3 h -4 V 3 h 4 V 0 h 4 v 4 c 0,2.209139 -1.790861,4 -4,4 h -4 -95 -1 v 2 h -8 V 8 h -1 -4 c -2.76142,0 -5,2.238576 -5,5 v 4 4 84 4 c 0,2.76142 2.23858,5 5,5 h 4 v 2 h 10 v -2 h 8 v 6 6 4 c 0,2.20914 -1.79086,4 -4,4 h -4 -9 -1 v 2 h -8 v -2 h -1 -4 c -2.20914,0 -4,-1.79086 -4,-4 v -4 z"/><text style="font-size:10px;font-family:sans-serif;text-anchor:start;fill:#282828" id="svg_409" x="-166" y="-12.5"><tspan id="svg_410" x="-161" y="2.5">definir volume relativo</tspan></text></g></g><g id="svg_413" transform="translate(21)"><g id="svg_414" transform="matrix(1.5,0,0,1.5,413,492)"><path style="fill:#ff5293;fill-opacity:1;stroke:#ff2c76;stroke-width:1;stroke-linecap:round;stroke-opacity:1" id="svg_415" d="m -157.5,-12 h 60 V 8 h -60 V 0 -1 h -6 v 3 h -2 v -8 h 2 v 3 h 6 v -1 z"/><text style="font-size:10px;font-family:sans-serif;text-anchor:start;fill:#282828" id="svg_416" x="-166" y="-12.5"><tspan id="svg_417" x="-153" y="1.5">25</tspan></text></g></g></svg>