<svg xmlns="http://www.w3.org/2000/svg" xmlns:svg="http://www.w3.org/2000/svg" id="svg9193" width="457.884" height="680.343" version="1.1"><metadata id="metadata9199"/><rect id="backgroundrect" width="100%" height="100%" x="0" y="1.172" style="fill:none;stroke:none"/><g id="g9191" class="currentLayer" transform="translate(0,1.1715374)"><title id="title8935">Layer 1</title><g id="svg_1"><g id="svg_2"><g id="svg_3" transform="matrix(1.5,0,0,1.5,218,1)"><path style="fill:#daa926;fill-opacity:1;stroke:#daaf30;stroke-width:1;stroke-linecap:round;stroke-opacity:1" id="svg_4" d="M -144.83333,13.333333 V 9.3333334 a 4,4 90 0 1 4,-4 h 4 l 5,-6.00000003 5,6.00000003 h 9 60.000002 4 a 4,4 90 0 1 4,4 v 3.9999996 4 4 a 4,4 90 0 1 -4,4 h -4 -60.000002 -1 v 2 h -8 v -2 h -1 -4 a 5,5 90 0 0 -5,5 v 4 4 377.999997 4 a 5,5 90 0 0 5,5 h 4 v 2 h 10 v -2 h 8 v 6 6 4 a 4,4 90 0 1 -4,4 h -4 -9 l -5,6 -5,-6 h -4 a 4,4 90 0 1 -4,-4 v -4 z"/><text style="font-size:10px;font-family:sans-serif;text-anchor:start;fill:#282828" id="svg_5" x="-145.333" y="-1.167"><tspan id="svg_6" x="-125.333" y="20.833">iniciar</tspan></text></g></g></g><g id="svg_15"><g id="svg_16"><g id="svg_17" transform="matrix(1.5,0,0,1.5,232,42)"><path style="fill:#fe994f;fill-opacity:1;stroke:#e86b0e;stroke-width:1;stroke-linecap:round;stroke-opacity:1" id="svg_18" d="m -144.83333,7.3333334 v -4 a 4,4 90 0 1 4,-4.00000003 h 4 V 1.3333334 h 10 v -2.00000003 h 9 60.000002 4 a 4,4 90 0 1 4,4.00000003 v 4 h -4 v -3 h -4 v 9.9999996 h 4 v -3 h 4 v 4 a 4,4 90 0 1 -4,4 h -4 -60.000002 -1 v 2 h -8 v -2 h -1 -4 a 5,5 90 0 0 -5,5 v 4 4 42 4 a 5,5 90 0 0 5,5 h 4 v 2 h 10 v -2 h 8 v 6 6 4 a 4,4 90 0 1 -4,3.999997 h -4 -9 -1 v 2 h -8 v -2 h -1 -4 a 4,4 90 0 1 -4,-3.999997 v -4 z"/><text style="font-size:10px;font-family:sans-serif;text-anchor:start;fill:#282828" id="svg_19" x="-145.333" y="-1.167"><tspan id="svg_20" x="-125.333" y="13.833">nota</tspan></text><text style="font-size:6.66666651px;font-family:sans-serif;text-anchor:end;fill:#282828" id="svg_21" x="-145.333" y="-1.167"><tspan id="svg_22" x="-60.333" y="10.833">valor</tspan></text></g></g></g><g id="svg_30"><g id="svg_31" transform="matrix(1.5,0,0,1.5,364,42)"><path style="fill:#ff5293;fill-opacity:1;stroke:#ff2c76;stroke-width:1;stroke-linecap:round;stroke-opacity:1" id="svg_32" d="m -136.83333,7.3333334 v -4 a 4,4 90 0 1 4,-4.00000003 h 4 10 30.000002 4 a 4,4 90 0 1 4,4.00000003 v 4 h -4 v -3 h -4 v 9.9999996 h 4 v -3 h 4 v 17 h -4 v -3 h -4 v 10 h 4 v -3 h 4 v 4 a 4,4 90 0 1 -4,4 h -4 -30.000002 -10 -4 a 4,4 90 0 1 -4,-4 v -4 -21 -1 h -6 v 3 h -2 V 5.3333334 h 2 v 3 h 6 z"/><text style="font-size:9px;font-family:sans-serif;text-anchor:end;fill:#282828" id="svg_33" x="-145.333" y="-1.167"><tspan id="svg_34" x="-91.333" y="21.833">➗</tspan></text></g></g><g id="svg_39"><g id="svg_40" transform="matrix(1.5,0,0,1.5,450,42)"><path style="fill:#ff5293;fill-opacity:1;stroke:#ff2c76;stroke-width:1;stroke-linecap:round;stroke-opacity:1" id="svg_41" d="m -136.83333,-0.66666663 h 60.000002 V 19.333333 h -60.000002 v -8 -1 h -6 v 3 h -2 V 5.3333334 h 2 v 3 h 6 v -1 z"/><text style="font-size:10px;font-family:sans-serif;text-anchor:start;fill:#282828" id="svg_42" x="-145.333" y="-1.167"><tspan id="svg_43" x="-132.333" y="12.833">1</tspan></text></g></g><g id="svg_44"><g id="svg_45" transform="matrix(1.5,0,0,1.5,450,74)"><path style="fill:#ff5293;fill-opacity:1;stroke:#ff2c76;stroke-width:1;stroke-linecap:round;stroke-opacity:1" id="svg_46" d="m -136.83333,-0.66666663 h 60.000002 V 19.333333 h -60.000002 v -8 -1 h -6 v 3 h -2 V 5.3333334 h 2 v 3 h 6 v -1 z"/><text style="font-size:10px;font-family:sans-serif;text-anchor:start;fill:#282828" id="svg_47" x="-145.333" y="-1.167"><tspan id="svg_48" x="-132.333" y="12.833">8</tspan></text></g></g><g id="svg_49"><g id="svg_50" transform="matrix(1.5,0,0,1.5,246,74)"><path style="fill:#b0b0b0;fill-opacity:1;stroke:#a0a0a0;stroke-width:1;stroke-linecap:round;stroke-opacity:1" id="svg_51" d="m -144.83333,7.3333334 v -4 a 4,4 90 0 1 4,-4.00000003 h 4 V 1.3333334 h 10 v -2.00000003 h 20 4 a 4,4 90 0 1 4.000002,4.00000003 v 4 3.9999996 4 a 4,4 90 0 1 -4.000002,4 h -4 -20 -1 v 2 h -8 v -2 h -1 -4 a 4,4 90 0 1 -4,-4 v -4 z"/><text style="font-size:10px;font-family:sans-serif;text-anchor:end;fill:#282828" id="svg_52" x="-145.333" y="-1.167"><tspan id="svg_53" x="-109.333" y="12.833">↓</tspan></text></g></g><g id="svg_54" transform="translate(66)"><g id="svg_55" transform="matrix(1.5,0,0,1.5,246,106)"><path style="fill:#77c428;fill-opacity:1;stroke:#57ad02;stroke-width:1;stroke-linecap:round;stroke-opacity:1" id="svg_56" d="m -188.83333,7.3333334 v -4 c 0,-2.209139 1.79086,-4.00000003 4,-4.00000003 h 4 V 1.3333334 h 10 v -2.00000003 h 74.000002 4 c 2.209139,0 4,1.79086103 4,4.00000003 v 4 h -4 v -3 h -4 v 9.9999996 h 4 v -3 h 4 v 17 h -4 v -3 h -4 v 10 h 4 v -3 h 4 v 4 c 0,2.209139 -1.790861,4 -4,4 h -4 -74.000002 -1 v 2 h -8 v -2 h -1 -4 c -2.20914,0 -4,-1.790861 -4,-4 v -4 -21 z"/><text style="font-size:10px;font-family:sans-serif;text-anchor:end;fill:#282828" id="svg_57" x="-145.333" y="-1.167"><tspan id="svg_58" x="-99.333" y="22.833">determinar o tom</tspan></text><text style="font-size:6.66666651px;font-family:sans-serif;text-anchor:end;fill:#282828" id="svg_59" x="-145.333" y="-1.167"><tspan id="svg_60" x="-99.333" y="10.833">nome</tspan></text><text style="font-size:6.66666651px;font-family:sans-serif;text-anchor:end;fill:#282828" id="svg_61" x="-145.333" y="-1.167"><tspan id="svg_62" x="-99.333" y="31.833">oitava</tspan></text></g></g><g id="svg_63" transform="translate(66)"><g id="svg_64" transform="matrix(1.5,0,0,1.5,320,106)"><path style="fill:#77c428;fill-opacity:1;stroke:#57ad02;stroke-width:1;stroke-linecap:round;stroke-opacity:1" id="svg_65" d="m -136.83333,-0.66666663 h 60.000002 V 19.333333 h -60.000002 v -8 -1 h -6 v 3 h -2 V 5.3333334 h 2 v 3 h 6 v -1 z"/><text style="font-size:10px;font-family:sans-serif;text-anchor:start;fill:#282828" id="svg_66" x="-145.333" y="-1.167"><tspan id="svg_67" x="-132.333" y="12.833">fazer</tspan></text></g></g><g id="svg_68" transform="translate(66)"><g id="svg_69" transform="matrix(1.5,0,0,1.5,320,138)"><path style="fill:#ff5293;fill-opacity:1;stroke:#ff2c76;stroke-width:1;stroke-linecap:round;stroke-opacity:1" id="svg_70" d="m -136.83333,-0.66666663 h 60.000002 V 19.333333 h -60.000002 v -8 -1 h -6 v 3 h -2 V 5.3333334 h 2 v 3 h 6 v -1 z"/><text style="font-size:10px;font-family:sans-serif;text-anchor:start;fill:#282828" id="svg_71" x="-145.333" y="-1.167"><tspan id="svg_72" x="-132.333" y="12.833">4</tspan></text></g></g><g id="svg_73"><g id="svg_74" transform="matrix(1.5,0,0,1.5,232,200)"><path style="fill:#d68136;fill-opacity:1;stroke:#b7651a;stroke-width:1;stroke-linecap:round;stroke-opacity:1" id="svg_75" d="m -144.83333,7.3333334 v -4 a 4,4 90 0 1 4,-4.00000003 h 4 V 1.3333334 h 10 v -2.00000003 h 9 20.000002 4 a 4,4 90 0 1 4,4.00000003 v 4 h -4 v -3 h -4 v 9.9999996 h 4 v -3 h 4 v 4 a 4,4 90 0 1 -4,4 h -4 -20.000002 -1 v 2 h -8 v -2 h -1 -4 a 5,5 90 0 0 -5,5 v 4 4 83.999997 4 a 5,5 90 0 0 5,5 h 4 v 2 h 10 v -2 h 8 v 6 6 4 a 4,4 90 0 1 -4,4 h -4 -9 -1 v 2 h -8 v -2 h -1 -4 a 4,4 90 0 1 -4,-4 v -4 z"/><text style="font-size:10px;font-family:sans-serif;text-anchor:start;fill:#282828" id="svg_76" x="-145.333" y="-1.167"><tspan id="svg_77" x="-140.333" y="13.833">repetir</tspan></text></g></g><g id="svg_80"><g id="svg_81"><g id="svg_82" transform="matrix(1.5,0,0,1.5,246,232)"><path style="fill:#fe994f;fill-opacity:1;stroke:#e86b0e;stroke-width:1;stroke-linecap:round;stroke-opacity:1" id="svg_83" d="m -144.83333,7.3333334 v -4 a 4,4 90 0 1 4,-4.00000003 h 4 V 1.3333334 h 10 v -2.00000003 h 9 60.000002 4 a 4,4 90 0 1 4,4.00000003 v 4 h -4 v -3 h -4 v 9.9999996 h 4 v -3 h 4 v 4 a 4,4 90 0 1 -4,4 h -4 -60.000002 -1 v 2 h -8 v -2 h -1 -4 a 5,5 90 0 0 -5,5 v 4 4 42 4 a 5,5 90 0 0 5,5 h 4 v 2 h 10 v -2 h 8 v 6 6 4 a 4,4 90 0 1 -4,3.999997 h -4 -9 -1 v 2 h -8 v -2 h -1 -4 a 4,4 90 0 1 -4,-3.999997 v -4 z"/><text style="font-size:10px;font-family:sans-serif;text-anchor:start;fill:#282828" id="svg_84" x="-145.333" y="-1.167"><tspan id="svg_85" x="-125.333" y="13.833">nota</tspan></text><text style="font-size:6.66666651px;font-family:sans-serif;text-anchor:end;fill:#282828" id="svg_86" x="-145.333" y="-1.167"><tspan id="svg_87" x="-60.333" y="10.833">valor</tspan></text></g></g></g><g id="svg_95"><g id="svg_96" transform="matrix(1.5,0,0,1.5,378,232)"><path style="fill:#ff5293;fill-opacity:1;stroke:#ff2c76;stroke-width:1;stroke-linecap:round;stroke-opacity:1" id="svg_97" d="m -136.83333,7.3333334 v -4 a 4,4 90 0 1 4,-4.00000003 h 4 10 30.000002 4 a 4,4 90 0 1 4,4.00000003 v 4 h -4 v -3 h -4 v 9.9999996 h 4 v -3 h 4 v 17 h -4 v -3 h -4 v 10 h 4 v -3 h 4 v 4 a 4,4 90 0 1 -4,4 h -4 -30.000002 -10 -4 a 4,4 90 0 1 -4,-4 v -4 -21 -1 h -6 v 3 h -2 V 5.3333334 h 2 v 3 h 6 z"/><text style="font-size:9px;font-family:sans-serif;text-anchor:end;fill:#282828" id="svg_98" x="-145.333" y="-1.167"><tspan id="svg_99" x="-91.333" y="21.833">➗</tspan></text></g></g><g id="svg_104"><g id="svg_105" transform="matrix(1.5,0,0,1.5,464,232)"><path style="fill:#ff5293;fill-opacity:1;stroke:#ff2c76;stroke-width:1;stroke-linecap:round;stroke-opacity:1" id="svg_106" d="m -136.83333,-0.66666663 h 60.000002 V 19.333333 h -60.000002 v -8 -1 h -6 v 3 h -2 V 5.3333334 h 2 v 3 h 6 v -1 z"/><text style="font-size:10px;font-family:sans-serif;text-anchor:start;fill:#282828" id="svg_107" x="-145.333" y="-1.167"><tspan id="svg_108" x="-132.333" y="12.833">1</tspan></text></g></g><g id="svg_109"><g id="svg_110" transform="matrix(1.5,0,0,1.5,464,264)"><path style="fill:#ff5293;fill-opacity:1;stroke:#ff2c76;stroke-width:1;stroke-linecap:round;stroke-opacity:1" id="svg_111" d="m -136.83333,-0.66666663 h 60.000002 V 19.333333 h -60.000002 v -8 -1 h -6 v 3 h -2 V 5.3333334 h 2 v 3 h 6 v -1 z"/><text style="font-size:10px;font-family:sans-serif;text-anchor:start;fill:#282828" id="svg_112" x="-145.333" y="-1.167"><tspan id="svg_113" x="-132.333" y="12.833">8</tspan></text></g></g><g id="svg_114"><g id="svg_115" transform="matrix(1.5,0,0,1.5,260,264)"><path style="fill:#b0b0b0;fill-opacity:1;stroke:#a0a0a0;stroke-width:1;stroke-linecap:round;stroke-opacity:1" id="svg_116" d="m -144.83333,7.3333334 v -4 a 4,4 90 0 1 4,-4.00000003 h 4 V 1.3333334 h 10 v -2.00000003 h 20 4 a 4,4 90 0 1 4.000002,4.00000003 v 4 3.9999996 4 a 4,4 90 0 1 -4.000002,4 h -4 -20 -1 v 2 h -8 v -2 h -1 -4 a 4,4 90 0 1 -4,-4 v -4 z"/><text style="font-size:10px;font-family:sans-serif;text-anchor:end;fill:#282828" id="svg_117" x="-145.333" y="-1.167"><tspan id="svg_118" x="-109.333" y="12.833">↓</tspan></text></g></g><g id="svg_119"><g id="svg_120" transform="matrix(1.5,0,0,1.5,304,200)"><path style="fill:#77c428;fill-opacity:1;stroke:#57ad02;stroke-width:1;stroke-linecap:round;stroke-opacity:1" id="svg_121" d="M -136.83333,-0.66666663 H -9.794266 V 19.333333 H -136.83333 v -8 -1 h -6 v 3 h -2 V 5.3333334 h 2 v 3 h 6 v -1 z"/><text style="font-size:10px;font-family:sans-serif;text-anchor:start;fill:#282828" id="svg_122" x="-145.333" y="-1.167"><tspan id="svg_123" x="-132.333" y="12.833">modo número de notas</tspan></text></g></g><g id="svg_124" transform="translate(8)"><g id="svg_125" transform="matrix(1.5,0,0,1.5,260,296)"><path style="fill:#77c428;fill-opacity:1;stroke:#57ad02;stroke-width:1;stroke-linecap:round;stroke-opacity:1" id="svg_126" d="m -150.16666,7.3333334 v -4 c 0,-2.209139 1.79086,-4.00000003 4,-4.00000003 h 4 V 1.3333334 h 10 v -2.00000003 h 63.140949 4 c 2.209139,0 4,1.79086103 4,4.00000003 v 4 h -4 v -3 h -4 v 9.9999996 h 4 v -3 h 4 v 4 c 0,2.209139 -1.790861,4 -4,4 h -4 -63.140949 -1 v 2 h -8 v -2 h -1 -4 c -2.20914,0 -4.69859,-1.904227 -4,-4 v -4 z"/><text style="font-size:10px;font-family:sans-serif;text-anchor:end;fill:#282828" id="svg_127" x="-145.333" y="-1.167"><tspan id="svg_128" x="-71.333" y="12.833">número do tom</tspan></text></g></g><g id="svg_131" transform="translate(8)"><g id="svg_132" transform="matrix(1.5,0,0,1.5,461,296)"><path style="fill:#77c428;fill-opacity:1;stroke:#57ad02;stroke-width:1;stroke-linecap:round;stroke-opacity:1" id="svg_133" d="m -136.83333,-0.66666663 h 97.807619 V 19.333333 h -97.807619 v -8 -1 h -6 v 3 h -2 V 5.3333334 h 2 v 3 h 6 v -1 z"/><text style="font-size:10px;font-family:sans-serif;text-anchor:start;fill:#282828" id="svg_134" x="-145.333" y="-1.167"><tspan id="svg_135" x="-132.333" y="12.833">número do tom</tspan></text></g></g><g id="svg_136" transform="translate(8)"><g id="svg_137" transform="matrix(1.5,0,0,1.5,461,328)"><path style="fill:#77c428;fill-opacity:1;stroke:#57ad02;stroke-width:1;stroke-linecap:round;stroke-opacity:1" id="svg_138" d="M -136.83333,-0.66666663 H -7.9108023 V 19.333333 H -136.83333 v -8 -1 h -6 v 3 h -2 V 5.3333334 h 2 v 3 h 6 v -1 z"/><text style="font-size:10px;font-family:sans-serif;text-anchor:start;fill:#282828" id="svg_139" x="-145.333" y="-1.167"><tspan id="svg_140" x="-132.333" y="12.833">degrau escalar de cima</tspan></text></g></g><g id="svg_141" transform="translate(8)"><g id="svg_142" transform="matrix(1.5,0,0,1.5,375,296)"><path style="fill:#ff5293;fill-opacity:1;stroke:#ff2c76;stroke-width:1;stroke-linecap:round;stroke-opacity:1" id="svg_143" d="m -136.83333,7.3333334 v -4 a 4,4 90 0 1 4,-4.00000003 h 4 10 30.000002 4 a 4,4 90 0 1 4,4.00000003 v 4 h -4 v -3 h -4 v 9.9999996 h 4 v -3 h 4 v 17 h -4 v -3 h -4 v 10 h 4 v -3 h 4 v 4 a 4,4 90 0 1 -4,4 h -4 -30.000002 -10 -4 a 4,4 90 0 1 -4,-4 v -4 -21 -1 h -6 v 3 h -2 V 5.3333334 h 2 v 3 h 6 z"/><text style="font-size:14px;font-family:sans-serif;text-anchor:end;fill:#282828" id="svg_144" x="-145.333" y="-1.167"><tspan id="svg_145" x="-91.333" y="22.833">+</tspan></text></g></g><g id="svg_150"><g id="svg_151" transform="matrix(1.5,0,0,1.5,260,328)"><path style="fill:#b0b0b0;fill-opacity:1;stroke:#a0a0a0;stroke-width:1;stroke-linecap:round;stroke-opacity:1" id="svg_152" d="m -144.83333,7.3333334 v -4 a 4,4 90 0 1 4,-4.00000003 h 4 V 1.3333334 h 10 v -2.00000003 h 20 4 a 4,4 90 0 1 4.000002,4.00000003 v 4 3.9999996 4 a 4,4 90 0 1 -4.000002,4 h -4 -20 -1 v 2 h -8 v -2 h -1 -4 a 4,4 90 0 1 -4,-4 v -4 z"/><text style="font-size:10px;font-family:sans-serif;text-anchor:end;fill:#282828" id="svg_153" x="-145.333" y="-1.167"><tspan id="svg_154" x="-109.333" y="12.833">↓</tspan></text></g></g><g id="svg_155"><g id="svg_156" transform="matrix(1.5,0,0,1.5,232,421)"><path style="fill:#d68136;fill-opacity:1;stroke:#b7651a;stroke-width:1;stroke-linecap:round;stroke-opacity:1" id="svg_157" d="m -144.83333,7.3333334 v -4 a 4,4 90 0 1 4,-4.00000003 h 4 V 1.3333334 h 10 v -2.00000003 h 9 20.000002 4 a 4,4 90 0 1 4,4.00000003 v 4 h -4 v -3 h -4 v 9.9999996 h 4 v -3 h 4 v 4 a 4,4 90 0 1 -4,4 h -4 -20.000002 -1 v 2 h -8 v -2 h -1 -4 a 5,5 90 0 0 -5,5 v 4 4 83.999997 4 a 5,5 90 0 0 5,5 h 4 v 2 h 10 v -2 h 8 v 6 6 4 a 4,4 90 0 1 -4,4 h -4 -9 -1 v 2 h -8 v -2 h -1 -4 a 4,4 90 0 1 -4,-4 v -4 z"/><text style="font-size:10px;font-family:sans-serif;text-anchor:start;fill:#282828" id="svg_158" x="-145.333" y="-1.167"><tspan id="svg_159" x="-140.333" y="13.833">repetir</tspan></text></g></g><g id="svg_162"><g id="svg_163" transform="matrix(1.5,0,0,1.5,304,421)"><path style="fill:#77c428;fill-opacity:1;stroke:#57ad02;stroke-width:1;stroke-linecap:round;stroke-opacity:1" id="svg_164" d="M -136.83333,-0.66666663 H -8.4609327 V 19.333333 H -136.83333 v -8 -1 h -6 v 3 h -2 V 5.3333334 h 2 v 3 h 6 v -1 z"/><text style="font-size:10px;font-family:sans-serif;text-anchor:start;fill:#282828" id="svg_165" x="-145.333" y="-1.167"><tspan id="svg_166" x="-132.333" y="12.833">modo número de notas</tspan></text></g></g><g id="svg_167"><g id="svg_168"><g id="svg_169" transform="matrix(1.5,0,0,1.5,246,453)"><path style="fill:#fe994f;fill-opacity:1;stroke:#e86b0e;stroke-width:1;stroke-linecap:round;stroke-opacity:1" id="svg_170" d="m -144.83333,7.3333334 v -4 a 4,4 90 0 1 4,-4.00000003 h 4 V 1.3333334 h 10 v -2.00000003 h 9 60.000002 4 a 4,4 90 0 1 4,4.00000003 v 4 h -4 v -3 h -4 v 9.9999996 h 4 v -3 h 4 v 4 a 4,4 90 0 1 -4,4 h -4 -60.000002 -1 v 2 h -8 v -2 h -1 -4 a 5,5 90 0 0 -5,5 v 4 4 42 4 a 5,5 90 0 0 5,5 h 4 v 2 h 10 v -2 h 8 v 6 6 4 a 4,4 90 0 1 -4,3.999997 h -4 -9 -1 v 2 h -8 v -2 h -1 -4 a 4,4 90 0 1 -4,-3.999997 v -4 z"/><text style="font-size:10px;font-family:sans-serif;text-anchor:start;fill:#282828" id="svg_171" x="-145.333" y="-1.167"><tspan id="svg_172" x="-125.333" y="13.833">nota</tspan></text><text style="font-size:6.66666651px;font-family:sans-serif;text-anchor:end;fill:#282828" id="svg_173" x="-145.333" y="-1.167"><tspan id="svg_174" x="-60.333" y="10.833">valor</tspan></text></g></g></g><g id="svg_182"><g id="svg_183" transform="matrix(1.5,0,0,1.5,378,453)"><path style="fill:#ff5293;fill-opacity:1;stroke:#ff2c76;stroke-width:1;stroke-linecap:round;stroke-opacity:1" id="svg_184" d="m -136.83333,7.3333334 v -4 a 4,4 90 0 1 4,-4.00000003 h 4 10 30.000002 4 a 4,4 90 0 1 4,4.00000003 v 4 h -4 v -3 h -4 v 9.9999996 h 4 v -3 h 4 v 17 h -4 v -3 h -4 v 10 h 4 v -3 h 4 v 4 a 4,4 90 0 1 -4,4 h -4 -30.000002 -10 -4 a 4,4 90 0 1 -4,-4 v -4 -21 -1 h -6 v 3 h -2 V 5.3333334 h 2 v 3 h 6 z"/><text style="font-size:9px;font-family:sans-serif;text-anchor:end;fill:#282828" id="svg_185" x="-145.333" y="-1.167"><tspan id="svg_186" x="-91.333" y="21.833">➗</tspan></text></g></g><g id="svg_191"><g id="svg_192" transform="matrix(1.5,0,0,1.5,464,453)"><path style="fill:#ff5293;fill-opacity:1;stroke:#ff2c76;stroke-width:1;stroke-linecap:round;stroke-opacity:1" id="svg_193" d="m -136.83333,-0.66666663 h 60.000002 V 19.333333 h -60.000002 v -8 -1 h -6 v 3 h -2 V 5.3333334 h 2 v 3 h 6 v -1 z"/><text style="font-size:10px;font-family:sans-serif;text-anchor:start;fill:#282828" id="svg_194" x="-145.333" y="-1.167"><tspan id="svg_195" x="-132.333" y="12.833">1</tspan></text></g></g><g id="svg_196"><g id="svg_197" transform="matrix(1.5,0,0,1.5,464,485)"><path style="fill:#ff5293;fill-opacity:1;stroke:#ff2c76;stroke-width:1;stroke-linecap:round;stroke-opacity:1" id="svg_198" d="m -136.83333,-0.66666663 h 60.000002 V 19.333333 h -60.000002 v -8 -1 h -6 v 3 h -2 V 5.3333334 h 2 v 3 h 6 v -1 z"/><text style="font-size:10px;font-family:sans-serif;text-anchor:start;fill:#282828" id="svg_199" x="-145.333" y="-1.167"><tspan id="svg_200" x="-132.333" y="12.833">8</tspan></text></g></g><g id="svg_201"><g id="svg_202" transform="matrix(1.5,0,0,1.5,260,485)"><path style="fill:#b0b0b0;fill-opacity:1;stroke:#a0a0a0;stroke-width:1;stroke-linecap:round;stroke-opacity:1" id="svg_203" d="m -144.83333,7.3333334 v -4 a 4,4 90 0 1 4,-4.00000003 h 4 V 1.3333334 h 10 v -2.00000003 h 20 4 a 4,4 90 0 1 4.000002,4.00000003 v 4 3.9999996 4 a 4,4 90 0 1 -4.000002,4 h -4 -20 -1 v 2 h -8 v -2 h -1 -4 a 4,4 90 0 1 -4,-4 v -4 z"/><text style="font-size:10px;font-family:sans-serif;text-anchor:end;fill:#282828" id="svg_204" x="-145.333" y="-1.167"><tspan id="svg_205" x="-109.333" y="12.833">↓</tspan></text></g></g><g id="svg_206" transform="translate(8)"><g id="svg_207" transform="matrix(1.5,0,0,1.5,260,517)"><path style="fill:#77c428;fill-opacity:1;stroke:#57ad02;stroke-width:1;stroke-linecap:round;stroke-opacity:1" id="svg_208" d="m -150.16666,7.3333334 v -4 c 0,-2.209139 1.79086,-4.00000003 4,-4.00000003 h 4 V 1.3333334 h 10 v -2.00000003 h 63.140949 4 c 2.209139,0 4,1.79086103 4,4.00000003 v 4 h -4 v -3 h -4 v 9.9999996 h 4 v -3 h 4 v 4 c 0,2.209139 -1.790861,4 -4,4 h -4 -63.140949 -1 v 2 h -8 v -2 h -1 -4 c -2.20914,0 -4.69859,-1.904227 -4,-4 v -4 z"/><text style="font-size:10px;font-family:sans-serif;text-anchor:end;fill:#282828" id="svg_209" x="-145.333" y="-1.167"><tspan id="svg_210" x="-71.333" y="12.833">número do tom</tspan></text></g></g><g id="svg_213" transform="translate(8)"><g id="svg_214" transform="matrix(1.5,0,0,1.5,375,517)"><path style="fill:#ff5293;fill-opacity:1;stroke:#ff2c76;stroke-width:1;stroke-linecap:round;stroke-opacity:1" id="svg_215" d="m -136.83333,7.3333334 v -4 a 4,4 90 0 1 4,-4.00000003 h 4 10 30.000002 4 a 4,4 90 0 1 4,4.00000003 v 4 h -4 v -3 h -4 v 9.9999996 h 4 v -3 h 4 v 17 h -4 v -3 h -4 v 10 h 4 v -3 h 4 v 4 a 4,4 90 0 1 -4,4 h -4 -30.000002 -10 -4 a 4,4 90 0 1 -4,-4 v -4 -21 -1 h -6 v 3 h -2 V 5.3333334 h 2 v 3 h 6 z"/><text style="font-size:14px;font-family:sans-serif;text-anchor:end;fill:#282828" id="svg_216" x="-145.333" y="-1.167"><tspan id="svg_217" x="-91.333" y="22.833">+</tspan></text></g></g><g id="svg_222" transform="translate(8)"><g id="svg_223" transform="matrix(1.5,0,0,1.5,461,517)"><path style="fill:#77c428;fill-opacity:1;stroke:#57ad02;stroke-width:1;stroke-linecap:round;stroke-opacity:1" id="svg_224" d="m -136.83333,-0.66666663 h 97.807619 V 19.333333 h -97.807619 v -8 -1 h -6 v 3 h -2 V 5.3333334 h 2 v 3 h 6 v -1 z"/><text style="font-size:10px;font-family:sans-serif;text-anchor:start;fill:#282828" id="svg_225" x="-145.333" y="-1.167"><tspan id="svg_226" x="-132.333" y="12.833">número do tom</tspan></text></g></g><g id="svg_227" transform="translate(8)"><g id="svg_228" transform="matrix(1.5,0,0,1.5,461,549)"><path style="fill:#77c428;fill-opacity:1;stroke:#57ad02;stroke-width:1;stroke-linecap:round;stroke-opacity:1" id="svg_229" d="M -136.83333,-0.66666663 H -9.2441357 V 19.333333 H -136.83333 v -8 -1 h -6 v 3 h -2 V 5.3333334 h 2 v 3 h 6 v -1 z"/><text style="font-size:10px;font-family:sans-serif;text-anchor:start;fill:#282828" id="svg_230" x="-145.333" y="-1.167"><tspan id="svg_231" x="-132.333" y="12.833">degrau escalar de cima</tspan></text></g></g><g id="svg_232"><g id="svg_233" transform="matrix(1.5,0,0,1.5,260,549)"><path style="fill:#b0b0b0;fill-opacity:1;stroke:#a0a0a0;stroke-width:1;stroke-linecap:round;stroke-opacity:1" id="svg_234" d="m -144.83333,7.3333334 v -4 a 4,4 90 0 1 4,-4.00000003 h 4 V 1.3333334 h 10 v -2.00000003 h 20 4 a 4,4 90 0 1 4.000002,4.00000003 v 4 3.9999996 4 a 4,4 90 0 1 -4.000002,4 h -4 -20 -1 v 2 h -8 v -2 h -1 -4 a 4,4 90 0 1 -4,-4 v -4 z"/><text style="font-size:10px;font-family:sans-serif;text-anchor:end;fill:#282828" id="svg_235" x="-145.333" y="-1.167"><tspan id="svg_236" x="-109.333" y="12.833">↓</tspan></text></g></g></g></svg>