<svg xmlns="http://www.w3.org/2000/svg" xmlns:svg="http://www.w3.org/2000/svg" id="svg5931" width="349" height="615" version="1.1"><metadata id="metadata5937"/><rect id="backgroundrect" width="100%" height="100%" x="0" y="0" fill="none" stroke="none"/><g id="svg_54" transform="translate(66)"><g id="svg_55" transform="matrix(1.5,0,0,1.5,327,185)"><path id="svg_56" d="m -242.83334,-45.333335 v -4 c 0,-2.209139 1.79086,-4 4,-4 h 4 v 2 h 10 v -2 h 74 4 c 2.20914,0 4,1.790861 4,4 v 4 h -4 v -3 h -4 v 10 h 4 v -3 h 4 v 17 h -4 v -3 h -4 v 10 h 4 v -3 h 4 v 4 c 0,2.209139 -1.79086,4 -4,4 h -4 -74 -1 v 2 h -8 v -2 h -1 -4 c -2.20914,0 -4.69859,-1.904227 -4,-4 v -4 -21 z" style="fill:#77c428;fill-opacity:1;stroke:#57ad02;stroke-width:1;stroke-linecap:round;stroke-opacity:1"/><text id="svg_57" x="-199.333" y="-53.833" style="font-size:10px;font-family:sans-serif;text-anchor:end;fill:#282828"><tspan id="svg_58" x="-153.333" y="-29.833">determinar o tom</tspan></text><text id="svg_59" x="-199.333" y="-53.833" style="font-size:6.66666651px;font-family:sans-serif;text-anchor:end;fill:#282828"><tspan id="svg_60" x="-153.333" y="-41.833">nome</tspan></text><text id="svg_61" x="-199.333" y="-53.833" style="font-size:6.66666651px;font-family:sans-serif;text-anchor:end;fill:#282828"><tspan id="svg_62" x="-153.333" y="-20.833">oitava</tspan></text></g></g><g id="svg_63" transform="translate(66)"><g id="svg_64" transform="matrix(1.5,0,0,1.5,401,185)"><path id="svg_65" d="m -190.83334,-53.333335 h 60 v 20 h -60 v -8 -1 h -6 v 3 h -2 v -8 h 2 v 3 h 6 v -1 z" style="fill:#77c428;fill-opacity:1;stroke:#57ad02;stroke-width:1;stroke-linecap:round;stroke-opacity:1"/><text id="svg_66" x="-199.333" y="-53.833" style="font-size:10px;font-family:sans-serif;text-anchor:start;fill:#282828"><tspan id="svg_67" x="-186.333" y="-39.833">la</tspan></text></g></g><g id="svg_1"><g id="svg_2"><g id="svg_3" transform="matrix(1.5,0,0,1.5,299,80)"><path id="svg_4" d="m -198.83334,-39.333335 v -4 a 4,4 90 0 1 4,-4 h 4 l 5,-6 5,6 h 9 60 4 a 4,4 90 0 1 4,4 v 4 4 4 a 4,4 90 0 1 -4,4 h -4 -60 -1 v 2 h -8 v -2 h -1 -4 a 5,5 90 0 0 -5,5 v 4 4 335.999995 4 a 5,5 90 0 0 5,5 h 4 v 2 h 10 v -2 h 8 v 6 6 4 a 4,4 90 0 1 -4,4 h -4 -9 l -5,6 -5,-6 h -4 a 4,4 90 0 1 -4,-4 v -4 z" style="fill:#daa926;fill-opacity:1;stroke:#daaf30;stroke-width:1;stroke-linecap:round;stroke-opacity:1"/><text id="svg_5" x="-199.333" y="-53.833" style="font-size:10px;font-family:sans-serif;text-anchor:start;fill:#282828"><tspan id="svg_6" x="-177.333" y="-31.833">iniciar</tspan></text></g></g></g><g id="svg_68" transform="translate(66)"><g id="svg_69" transform="matrix(1.5,0,0,1.5,401,217)"><path id="svg_70" d="m -190.83334,-53.333335 h 60 v 20 h -60 v -8 -1 h -6 v 3 h -2 v -8 h 2 v 3 h 6 v -1 z" style="fill:#ff5293;fill-opacity:1;stroke:#ff2c76;stroke-width:1;stroke-linecap:round;stroke-opacity:1"/><text id="svg_71" x="-199.333" y="-53.833" style="font-size:10px;font-family:sans-serif;text-anchor:start;fill:#282828"><tspan id="svg_72" x="-186.333" y="-39.833">4</tspan></text></g></g><g id="svg_15"><g id="svg_16"><g id="svg_17" transform="matrix(1.5,0,0,1.5,313,121)"><path id="svg_18" d="m -198.83334,-45.333335 v -4 a 4,4 90 0 1 4,-4 h 4 v 2 h 10 v -2 h 9 60 4 a 4,4 90 0 1 4,4 v 4 h -4 v -3 h -4 v 10 h 4 v -3 h 4 v 4 a 4,4 90 0 1 -4,4 h -4 -60 -1 v 2 h -8 v -2 h -1 -4 a 5,5 90 0 0 -5,5 v 4 4 42 4 a 5,5 90 0 0 5,5 h 4 v 2 h 10 v -2 h 8 v 6 6 4 a 4,4 90 0 1 -4,4 h -4 -9 -1 v 2 h -8 v -2 h -1 -4 a 4,4 90 0 1 -4,-4 v -4 z" style="fill:#fe994f;fill-opacity:1;stroke:#e86b0e;stroke-width:1;stroke-linecap:round;stroke-opacity:1"/><text id="svg_19" x="-199.333" y="-53.833" style="font-size:10px;font-family:sans-serif;text-anchor:start;fill:#282828"><tspan id="svg_20" x="-179.333" y="-38.833">nota</tspan></text><text id="svg_21" x="-199.333" y="-53.833" style="font-size:6.66666651px;font-family:sans-serif;text-anchor:end;fill:#282828"><tspan id="svg_22" x="-114.333" y="-41.833">valor</tspan></text></g></g></g><g id="svg_30"><g id="svg_31" transform="matrix(1.5,0,0,1.5,445,121)"><path id="svg_32" d="m -190.83334,-45.333335 v -4 a 4,4 90 0 1 4,-4 h 4 10 30 4 a 4,4 90 0 1 4,4 v 4 h -4 v -3 h -4 v 10 h 4 v -3 h 4 v 17 h -4 v -3 h -4 v 10 h 4 v -3 h 4 v 4 a 4,4 90 0 1 -4,4 h -4 -30 -10 -4 a 4,4 90 0 1 -4,-4 v -4 -21 -1 h -6 v 3 h -2 v -8 h 2 v 3 h 6 z" style="fill:#ff5293;fill-opacity:1;stroke:#ff2c76;stroke-width:1;stroke-linecap:round;stroke-opacity:1"/><text id="svg_33" x="-199.333" y="-53.833" style="font-size:9px;font-family:sans-serif;text-anchor:end;fill:#282828"><tspan id="svg_34" x="-145.333" y="-30.833">➗</tspan></text></g></g><g id="svg_39"><g id="svg_40" transform="matrix(1.5,0,0,1.5,531,121)"><path id="svg_41" d="m -190.83334,-53.333335 h 60 v 20 h -60 v -8 -1 h -6 v 3 h -2 v -8 h 2 v 3 h 6 v -1 z" style="fill:#ff5293;fill-opacity:1;stroke:#ff2c76;stroke-width:1;stroke-linecap:round;stroke-opacity:1"/><text id="svg_42" x="-199.333" y="-53.833" style="font-size:10px;font-family:sans-serif;text-anchor:start;fill:#282828"><tspan id="svg_43" x="-186.333" y="-39.833">1</tspan></text></g></g><g id="svg_44"><g id="svg_45" transform="matrix(1.5,0,0,1.5,531,153)"><path id="svg_46" d="m -190.83334,-53.333335 h 60 v 20 h -60 v -8 -1 h -6 v 3 h -2 v -8 h 2 v 3 h 6 v -1 z" style="fill:#ff5293;fill-opacity:1;stroke:#ff2c76;stroke-width:1;stroke-linecap:round;stroke-opacity:1"/><text id="svg_47" x="-199.333" y="-53.833" style="font-size:10px;font-family:sans-serif;text-anchor:start;fill:#282828"><tspan id="svg_48" x="-186.333" y="-39.833">8</tspan></text></g></g><g id="svg_49"><g id="svg_50" transform="matrix(1.5,0,0,1.5,327,153)"><path id="svg_51" d="m -198.83334,-45.333335 v -4 a 4,4 90 0 1 4,-4 h 4 v 2 h 10 v -2 h 20 4 a 4,4 90 0 1 4,4 v 4 4 4 a 4,4 90 0 1 -4,4 h -4 -20 -1 v 2 h -8 v -2 h -1 -4 a 4,4 90 0 1 -4,-4 v -4 z" style="fill:#b0b0b0;fill-opacity:1;stroke:#a0a0a0;stroke-width:1;stroke-linecap:round;stroke-opacity:1"/><text id="svg_52" x="-199.333" y="-53.833" style="font-size:10px;font-family:sans-serif;text-anchor:end;fill:#282828"><tspan id="svg_53" x="-163.333" y="-39.833">↓</tspan></text></g></g><g id="svg_73"><g id="svg_74" transform="matrix(1.5,0,0,1.5,313,279)"><path id="svg_75" d="m -198.83334,-45.333335 v -4 a 4,4 90 0 1 4,-4 h 4 v 2 h 10 v -2 h 9 20 4 a 4,4 90 0 1 4,4 v 4 h -4 v -3 h -4 v 10 h 4 v -3 h 4 v 4 a 4,4 90 0 1 -4,4 h -4 -20 -1 v 2 h -8 v -2 h -1 -4 a 5,5 90 0 0 -5,5 v 4 4 63 4 a 5,5 90 0 0 5,5 h 4 v 2 h 10 v -2 h 8 v 6 6 4 a 4,4 90 0 1 -4,4 h -4 -9 -1 v 2 h -8 v -2 h -1 -4 a 4,4 90 0 1 -4,-4 v -4 z" style="fill:#d68136;fill-opacity:1;stroke:#b7651a;stroke-width:1;stroke-linecap:round;stroke-opacity:1"/><text id="svg_76" x="-199.333" y="-53.833" style="font-size:10px;font-family:sans-serif;text-anchor:start;fill:#282828"><tspan id="svg_77" x="-194.333" y="-38.833">repetir</tspan></text></g></g><g id="svg_80"><g id="svg_81" transform="matrix(1.5,0,0,1.5,385,279)"><path id="svg_82" d="m -190.83334,-53.333335 h 60 v 20 h -60 v -8 -1 h -6 v 3 h -2 v -8 h 2 v 3 h 6 v -1 z" style="fill:#ff5293;fill-opacity:1;stroke:#ff2c76;stroke-width:1;stroke-linecap:round;stroke-opacity:1"/><text id="svg_83" x="-199.333" y="-53.833" style="font-size:10px;font-family:sans-serif;text-anchor:start;fill:#282828"><tspan id="svg_84" x="-186.333" y="-39.833">7</tspan></text></g></g><g id="svg_85"><g id="svg_86"><g id="svg_87" transform="matrix(1.5,0,0,1.5,327,311)"><path id="svg_88" d="m -198.83334,-45.333335 v -4 a 4,4 90 0 1 4,-4 h 4 v 2 h 10 v -2 h 9 60 4 a 4,4 90 0 1 4,4 v 4 h -4 v -3 h -4 v 10 h 4 v -3 h 4 v 4 a 4,4 90 0 1 -4,4 h -4 -60 -1 v 2 h -8 v -2 h -1 -4 a 5,5 90 0 0 -5,5 v 4 4 20.99999993 3.99999997 a 5,5 90 0 0 5,5 h 4 v 2.0000001 h 10 V 9.6666649 h 8 v 6.0000001 6 4 a 4,4 90 0 1 -4,4 h -4 -9 -1 v 2 h -8 v -2 h -1 -4 a 4,4 90 0 1 -4,-4 v -4 z" style="fill:#fe994f;fill-opacity:1;stroke:#e86b0e;stroke-width:1;stroke-linecap:round;stroke-opacity:1"/><text id="svg_89" x="-199.333" y="-53.833" style="font-size:10px;font-family:sans-serif;text-anchor:start;fill:#282828"><tspan id="svg_90" x="-179.333" y="-38.833">nota</tspan></text><text id="svg_91" x="-199.333" y="-53.833" style="font-size:6.66666651px;font-family:sans-serif;text-anchor:end;fill:#282828"><tspan id="svg_92" x="-114.333" y="-41.833">valor</tspan></text></g></g></g><g id="svg_100"><g id="svg_101" transform="matrix(1.5,0,0,1.5,459,311)"><path id="svg_102" d="m -190.83334,-45.333335 v -4 a 4,4 90 0 1 4,-4 h 4 10 30 4 a 4,4 90 0 1 4,4 v 4 h -4 v -3 h -4 v 10 h 4 v -3 h 4 v 17 h -4 v -3 h -4 v 10 h 4 v -3 h 4 v 4 a 4,4 90 0 1 -4,4 h -4 -30 -10 -4 a 4,4 90 0 1 -4,-4 v -4 -21 -1 h -6 v 3 h -2 v -8 h 2 v 3 h 6 z" style="fill:#ff5293;fill-opacity:1;stroke:#ff2c76;stroke-width:1;stroke-linecap:round;stroke-opacity:1"/><text id="svg_103" x="-199.333" y="-53.833" style="font-size:9px;font-family:sans-serif;text-anchor:end;fill:#282828"><tspan id="svg_104" x="-145.333" y="-30.833">➗</tspan></text></g></g><g id="svg_109"><g id="svg_110" transform="matrix(1.5,0,0,1.5,545,311)"><path id="svg_111" d="m -190.83334,-53.333335 h 60 v 20 h -60 v -8 -1 h -6 v 3 h -2 v -8 h 2 v 3 h 6 v -1 z" style="fill:#ff5293;fill-opacity:1;stroke:#ff2c76;stroke-width:1;stroke-linecap:round;stroke-opacity:1"/><text id="svg_112" x="-199.333" y="-53.833" style="font-size:10px;font-family:sans-serif;text-anchor:start;fill:#282828"><tspan id="svg_113" x="-186.333" y="-39.833">1</tspan></text></g></g><g id="svg_114"><g id="svg_115" transform="matrix(1.5,0,0,1.5,545,343)"><path id="svg_116" d="m -190.83334,-53.333335 h 60 v 20 h -60 v -8 -1 h -6 v 3 h -2 v -8 h 2 v 3 h 6 v -1 z" style="fill:#ff5293;fill-opacity:1;stroke:#ff2c76;stroke-width:1;stroke-linecap:round;stroke-opacity:1"/><text id="svg_117" x="-199.333" y="-53.833" style="font-size:10px;font-family:sans-serif;text-anchor:start;fill:#282828"><tspan id="svg_118" x="-186.333" y="-39.833">8</tspan></text></g></g><g id="svg_119"><g id="svg_120" transform="matrix(1.5,0,0,1.5,341,343)"><path id="svg_121" d="m -198.83334,-45.333335 v -4 a 4,4 90 0 1 4,-4 h 4 v 2 h 10 v -2 h 20 4 a 4,4 90 0 1 4,4 v 4 4 4 a 4,4 90 0 1 -4,4 h -4 -20 -1 v 2 h -8 v -2 h -1 -4 a 4,4 90 0 1 -4,-4 v -4 z" style="fill:#b0b0b0;fill-opacity:1;stroke:#a0a0a0;stroke-width:1;stroke-linecap:round;stroke-opacity:1"/><text id="svg_122" x="-199.333" y="-53.833" style="font-size:10px;font-family:sans-serif;text-anchor:end;fill:#282828"><tspan id="svg_123" x="-163.333" y="-39.833">↓</tspan></text></g></g><g id="svg_124" transform="translate(14)"><g id="svg_125" transform="matrix(1.5,0,0,1.5,341,375)"><path id="svg_126" d="m -208.16667,-45.333335 v -4 c 0,-2.209139 1.79086,-4 4,-4 h 4 v 2 h 10 v -2 h 81.30599 4 c 2.20914,0 4,1.790861 4,4 v 4 h -4 v -3 h -4 v 10 h 4 v -3 h 4 v 4 c 0,2.209139 -1.79086,4 -4,4 h -4 -81.30599 -1 v 2 h -8 v -2 h -1 -4 c -2.20914,0 -4,-1.790861 -4,-4 v -4 z" style="fill:#77c428;fill-opacity:1;stroke:#57ad02;stroke-width:1;stroke-linecap:round;stroke-opacity:1"/><text id="svg_127" x="-199.333" y="-53.833" style="font-size:10px;font-family:sans-serif;text-anchor:end;fill:#282828"><tspan id="svg_128" x="-111.333" y="-39.833">passo escalar (+/–)</tspan></text></g></g><g id="svg_131" transform="translate(14)"><g id="svg_132" transform="matrix(1.5,0,0,1.5,477,375)"><path id="svg_133" d="m -190.83334,-53.333335 h 60 v 20 h -60 v -8 -1 h -6 v 3 h -2 v -8 h 2 v 3 h 6 v -1 z" style="fill:#ff5293;fill-opacity:1;stroke:#ff2c76;stroke-width:1;stroke-linecap:round;stroke-opacity:1"/><text id="svg_134" x="-199.333" y="-53.833" style="font-size:10px;font-family:sans-serif;text-anchor:start;fill:#282828"><tspan id="svg_135" x="-186.333" y="-39.833">1</tspan></text></g></g><g id="svg_136"><g id="svg_137" transform="matrix(1.5,0,0,1.5,313,468)"><path id="svg_138" d="m -198.83334,-45.333335 v -4 a 4,4 90 0 1 4,-4 h 4 v 2 h 10 v -2 h 9 20 4 a 4,4 90 0 1 4,4 v 4 h -4 v -3 h -4 v 10 h 4 v -3 h 4 v 4 a 4,4 90 0 1 -4,4 h -4 -20 -1 v 2 h -8 v -2 h -1 -4 a 5,5 90 0 0 -5,5 v 4 4 63 4 a 5,5 90 0 0 5,5 h 4 v 2 h 10 v -2 h 8 v 6 6 4 a 4,4 90 0 1 -4,4 h -4 -9 -1 v 2 h -8 v -2 h -1 -4 a 4,4 90 0 1 -4,-4 v -4 z" style="fill:#d68136;fill-opacity:1;stroke:#b7651a;stroke-width:1;stroke-linecap:round;stroke-opacity:1"/><text id="svg_139" x="-199.333" y="-53.833" style="font-size:10px;font-family:sans-serif;text-anchor:start;fill:#282828"><tspan id="svg_140" x="-194.333" y="-38.833">repetir</tspan></text></g></g><g id="svg_143"><g id="svg_144" transform="matrix(1.5,0,0,1.5,385,468)"><path id="svg_145" d="m -190.83334,-53.333335 h 60 v 20 h -60 v -8 -1 h -6 v 3 h -2 v -8 h 2 v 3 h 6 v -1 z" style="fill:#ff5293;fill-opacity:1;stroke:#ff2c76;stroke-width:1;stroke-linecap:round;stroke-opacity:1"/><text id="svg_146" x="-199.333" y="-53.833" style="font-size:10px;font-family:sans-serif;text-anchor:start;fill:#282828"><tspan id="svg_147" x="-186.333" y="-39.833">7</tspan></text></g></g><g id="svg_148"><g id="svg_149"><g id="svg_150" transform="matrix(1.5,0,0,1.5,327,500)"><path id="svg_151" d="m -198.83334,-45.333335 v -4 a 4,4 90 0 1 4,-4 h 4 v 2 h 10 v -2 h 9 60 4 a 4,4 90 0 1 4,4 v 4 h -4 v -3 h -4 v 10 h 4 v -3 h 4 v 4 a 4,4 90 0 1 -4,4 h -4 -60 -1 v 2 h -8 v -2 h -1 -4 a 5,5 90 0 0 -5,5 v 4 4 20.99999993 3.99999997 a 5,5 90 0 0 5,5 h 4 v 2.0000001 h 10 V 9.6666649 h 8 v 6.0000001 6 4 a 4,4 90 0 1 -4,4 h -4 -9 -1 v 2 h -8 v -2 h -1 -4 a 4,4 90 0 1 -4,-4 v -4 z" style="fill:#fe994f;fill-opacity:1;stroke:#e86b0e;stroke-width:1;stroke-linecap:round;stroke-opacity:1"/><text id="svg_152" x="-199.333" y="-53.833" style="font-size:10px;font-family:sans-serif;text-anchor:start;fill:#282828"><tspan id="svg_153" x="-179.333" y="-38.833">nota</tspan></text><text id="svg_154" x="-199.333" y="-53.833" style="font-size:6.66666651px;font-family:sans-serif;text-anchor:end;fill:#282828"><tspan id="svg_155" x="-114.333" y="-41.833">valor</tspan></text></g></g></g><g id="svg_163"><g id="svg_164" transform="matrix(1.5,0,0,1.5,459,500)"><path id="svg_165" d="m -190.83334,-45.333335 v -4 a 4,4 90 0 1 4,-4 h 4 10 30 4 a 4,4 90 0 1 4,4 v 4 h -4 v -3 h -4 v 10 h 4 v -3 h 4 v 17 h -4 v -3 h -4 v 10 h 4 v -3 h 4 v 4 a 4,4 90 0 1 -4,4 h -4 -30 -10 -4 a 4,4 90 0 1 -4,-4 v -4 -21 -1 h -6 v 3 h -2 v -8 h 2 v 3 h 6 z" style="fill:#ff5293;fill-opacity:1;stroke:#ff2c76;stroke-width:1;stroke-linecap:round;stroke-opacity:1"/><text id="svg_166" x="-199.333" y="-53.833" style="font-size:9px;font-family:sans-serif;text-anchor:end;fill:#282828"><tspan id="svg_167" x="-145.333" y="-30.833">➗</tspan></text></g></g><g id="svg_172"><g id="svg_173" transform="matrix(1.5,0,0,1.5,545,500)"><path id="svg_174" d="m -190.83334,-53.333335 h 60 v 20 h -60 v -8 -1 h -6 v 3 h -2 v -8 h 2 v 3 h 6 v -1 z" style="fill:#ff5293;fill-opacity:1;stroke:#ff2c76;stroke-width:1;stroke-linecap:round;stroke-opacity:1"/><text id="svg_175" x="-199.333" y="-53.833" style="font-size:10px;font-family:sans-serif;text-anchor:start;fill:#282828"><tspan id="svg_176" x="-186.333" y="-39.833">1</tspan></text></g></g><g id="svg_177"><g id="svg_178" transform="matrix(1.5,0,0,1.5,545,532)"><path id="svg_179" d="m -190.83334,-53.333335 h 60 v 20 h -60 v -8 -1 h -6 v 3 h -2 v -8 h 2 v 3 h 6 v -1 z" style="fill:#ff5293;fill-opacity:1;stroke:#ff2c76;stroke-width:1;stroke-linecap:round;stroke-opacity:1"/><text id="svg_180" x="-199.333" y="-53.833" style="font-size:10px;font-family:sans-serif;text-anchor:start;fill:#282828"><tspan id="svg_181" x="-186.333" y="-39.833">8</tspan></text></g></g><g id="svg_182"><g id="svg_183" transform="matrix(1.5,0,0,1.5,341,532)"><path id="svg_184" d="m -198.83334,-45.333335 v -4 a 4,4 90 0 1 4,-4 h 4 v 2 h 10 v -2 h 20 4 a 4,4 90 0 1 4,4 v 4 4 4 a 4,4 90 0 1 -4,4 h -4 -20 -1 v 2 h -8 v -2 h -1 -4 a 4,4 90 0 1 -4,-4 v -4 z" style="fill:#b0b0b0;fill-opacity:1;stroke:#a0a0a0;stroke-width:1;stroke-linecap:round;stroke-opacity:1"/><text id="svg_185" x="-199.333" y="-53.833" style="font-size:10px;font-family:sans-serif;text-anchor:end;fill:#282828"><tspan id="svg_186" x="-163.333" y="-39.833">↓</tspan></text></g></g><g id="svg_187" transform="translate(14)"><g id="svg_188" transform="matrix(1.5,0,0,1.5,341,564)"><path id="svg_189" d="m -208.16667,-45.333335 v -4 c 0,-2.209139 1.79086,-4 4,-4 h 4 v 2 h 10 v -2 h 81.30599 4 c 2.20914,0 4,1.790861 4,4 v 4 h -4 v -3 h -4 v 10 h 4 v -3 h 4 v 4 c 0,2.209139 -1.79086,4 -4,4 h -4 -81.30599 -1 v 2 h -8 v -2 h -1 -4 c -2.20914,0 -4.69859,-1.904227 -4,-4 v -4 z" style="fill:#77c428;fill-opacity:1;stroke:#57ad02;stroke-width:1;stroke-linecap:round;stroke-opacity:1"/><text id="svg_190" x="-199.333" y="-53.833" style="font-size:10px;font-family:sans-serif;text-anchor:end;fill:#282828"><tspan id="svg_191" x="-111.333" y="-39.833">passo escalar (+/–)</tspan></text></g></g><g id="svg_194" transform="translate(14)"><g id="svg_195" transform="matrix(1.5,0,0,1.5,477,564)"><path id="svg_196" d="m -190.83334,-53.333335 h 60 v 20 h -60 v -8 -1 h -6 v 3 h -2 v -8 h 2 v 3 h 6 v -1 z" style="fill:#ff5293;fill-opacity:1;stroke:#ff2c76;stroke-width:1;stroke-linecap:round;stroke-opacity:1"/><text id="svg_197" x="-199.333" y="-53.833" style="font-size:10px;font-family:sans-serif;text-anchor:start;fill:#282828"><tspan id="svg_198" x="-186.333" y="-39.833">1</tspan></text></g></g></svg>