<svg xmlns="http://www.w3.org/2000/svg" xmlns:svg="http://www.w3.org/2000/svg" id="svg8659" width="720" height="554" version="1.1"><metadata id="metadata8665"/><rect id="backgroundrect" width="100%" height="100%" x="0" y="0" fill="none" stroke="none"/><g id="g8657" class="currentLayer"><title id="title8361">Layer 1</title><g id="svg_15"><g id="svg_16"><g id="svg_17" transform="translate(867,15) scale(1.5)"><path id="svg_18" d="m-312,-2 L-312,-6 A4,4 90 0 1 -308,-10 L-304,-10 L-304,-8 L-294,-8 L-294,-10 L-285,-10 L-225,-10 L-221,-10 A4,4 90 0 1 -217,-6 L-217,-2 L-221,-2 L-221,-5 L-225,-5 L-225,5 L-221,5 L-221,2 L-217,2 L-217,6 A4,4 90 0 1 -221,10 L-225,10 L-285,10 L-286,10 L-286,12 L-294,12 L-294,10 L-295,10 L-299,10 A5,5 90 0 0 -304,15 L-304,19 L-304,23 L-304,65 L-304,69 A5,5 90 0 0 -299,74 L-295,74 L-295,76 L-285,76 L-285,74 L-277,74 L-277,80 L-277,86 L-277,90 A4,4 90 0 1 -281,94 L-285,94 L-294,94 L-295,94 L-295,96 L-303,96 L-303,94 L-304,94 L-308,94 A4,4 90 0 1 -312,90 L-312,86 z" style="fill:#ff8b2d;fill-opacity:1;stroke:#e86b0e;stroke-width:1;stroke-linecap:round;stroke-opacity:1"/><text id="svg_19" x="-312.5" y="-10.5" style="font-size:10px;fill:#282828;font-family:sans-serif;text-anchor:start"><tspan id="svg_20" x="-292.5" y="4.5">nota</tspan></text><text id="svg_21" x="-312.5" y="-10.5" style="font-size:6.666666666666667px;fill:#282828;font-family:sans-serif;text-anchor:end"><tspan id="svg_22" x="-227.5" y="1.5">valor</tspan></text></g></g></g><g id="svg_30"><g id="svg_31" transform="translate(999,15) scale(1.5)"><path id="svg_32" d="m-304,-2 L-304,-6 A4,4 90 0 1 -300,-10 L-296,-10 L-286,-10 L-256,-10 L-252,-10 A4,4 90 0 1 -248,-6 L-248,-2 L-252,-2 L-252,-5 L-256,-5 L-256,5 L-252,5 L-252,2 L-248,2 L-248,19 L-252,19 L-252,16 L-256,16 L-256,26 L-252,26 L-252,23 L-248,23 L-248,27 A4,4 90 0 1 -252,31 L-256,31 L-286,31 L-296,31 L-300,31 A4,4 90 0 1 -304,27 L-304,23 L-304,2 L-304,1 L-310,1 L-310,4 L-312,4 L-312,-4 L-310,-4 L-310,-1 L-304,-1 L-304,-2 z" style="fill:#ff5293;fill-opacity:1;stroke:#ff2c76;stroke-width:1;stroke-linecap:round;stroke-opacity:1"/><text id="svg_33" x="-312.5" y="-10.5" style="font-size:9px;fill:#282828;font-family:sans-serif;text-anchor:end"><tspan id="svg_34" x="-258.5" y="12.5">➗</tspan></text></g></g><g id="svg_39"><g id="svg_40" transform="translate(1085,15) scale(1.5)"><path id="svg_41" d="m-304,-10 L-244,-10 L-244,10 L-304,10 L-304,2 L-304,1 L-310,1 L-310,4 L-312,4 L-312,-4 L-310,-4 L-310,-1 L-304,-1 L-304,-2 z" style="fill:#ff5293;fill-opacity:1;stroke:#ff2c76;stroke-width:1;stroke-linecap:round;stroke-opacity:1"/><text id="svg_42" x="-312.5" y="-10.5" style="font-size:10px;fill:#282828;font-family:sans-serif;text-anchor:start"><tspan id="svg_43" x="-299.5" y="3.5">1</tspan></text></g></g><g id="svg_44"><g id="svg_45" transform="translate(1085,47) scale(1.5)"><path id="svg_46" d="m-304,-10 L-244,-10 L-244,10 L-304,10 L-304,2 L-304,1 L-310,1 L-310,4 L-312,4 L-312,-4 L-310,-4 L-310,-1 L-304,-1 L-304,-2 z" style="fill:#ff5293;fill-opacity:1;stroke:#ff2c76;stroke-width:1;stroke-linecap:round;stroke-opacity:1"/><text id="svg_47" x="-312.5" y="-10.5" style="font-size:10px;fill:#282828;font-family:sans-serif;text-anchor:start"><tspan id="svg_48" x="-299.5" y="3.5">16</tspan></text></g></g><g id="svg_49"><g id="svg_50" transform="translate(881,47) scale(1.5)"><path id="svg_51" d="m-312,-2 L-312,-6 A4,4 90 0 1 -308,-10 L-304,-10 L-304,-8 L-294,-8 L-294,-10 L-274,-10 L-270,-10 A4,4 90 0 1 -266,-6 L-266,-2 L-266,2 L-266,6 A4,4 90 0 1 -270,10 L-274,10 L-294,10 L-295,10 L-295,12 L-303,12 L-303,10 L-304,10 L-308,10 A4,4 90 0 1 -312,6 L-312,2 z" style="fill:#b0b0b0;fill-opacity:1;stroke:#a0a0a0;stroke-width:1;stroke-linecap:round;stroke-opacity:1"/><text id="svg_52" x="-312.5" y="-10.5" style="font-size:10px;fill:#282828;font-family:sans-serif;text-anchor:end"><tspan id="svg_53" x="-276.5" y="3.5">↓</tspan></text></g></g><g id="svg_54" transform="translate(68)"><g id="svg_55" transform="matrix(1.5,0,0,1.5,881,79)"><path id="svg_56" d="m -357.33333,-2 v -4 c 0,-2.209139 1.79086,-4 4,-4 h 4 v 2 h 10 v -2 H -264 h 4 c 2.20914,0 4,1.790861 4,4 v 4 h -4 v -3 h -4 V 5 h 4 V 2 h 4 v 17 h -4 v -3 h -4 v 10 h 4 v -3 h 4 v 4 c 0,2.209139 -1.79086,4 -4,4 h -4 -75.33333 -1 v 2 h -8 v -2 h -1 -4 c -2.20914,0 -4,-1.790861 -4,-4 V 23 2 Z" style="fill:#77c428;fill-opacity:1;stroke:#57ad02;stroke-width:1;stroke-linecap:round;stroke-opacity:1"/><text id="svg_57" x="-312.5" y="-10.5" style="font-size:10px;font-family:sans-serif;text-anchor:end;fill:#282828"><tspan id="svg_58" x="-266.5" y="13.5">determinar o tom</tspan></text><text id="svg_59" x="-312.5" y="-10.5" style="font-size:6.66666651px;font-family:sans-serif;text-anchor:end;fill:#282828"><tspan id="svg_60" x="-266.5" y="1.5">nome</tspan></text><text id="svg_61" x="-312.5" y="-10.5" style="font-size:6.66666651px;font-family:sans-serif;text-anchor:end;fill:#282828"><tspan id="svg_62" x="-266.5" y="22.5">oitava</tspan></text></g></g><g id="svg_63" transform="translate(68)"><g id="svg_64" transform="matrix(1.5,0,0,1.5,955,79)"><path id="svg_65" d="m -304,-10 h 60 v 20 h -60 V 2 1 h -6 v 3 h -2 v -8 h 2 v 3 h 6 v -1 z" style="fill:#77c428;fill-opacity:1;stroke:#57ad02;stroke-width:1;stroke-linecap:round;stroke-opacity:1"/><text id="svg_66" x="-312.5" y="-10.5" style="font-size:10px;font-family:sans-serif;text-anchor:start;fill:#282828"><tspan id="svg_67" x="-299.5" y="3.5">sol</tspan></text></g></g><g id="svg_68" transform="translate(68)"><g id="svg_69" transform="matrix(1.5,0,0,1.5,955,111)"><path id="svg_70" d="m -304,-10 h 60 v 20 h -60 V 2 1 h -6 v 3 h -2 v -8 h 2 v 3 h 6 v -1 z" style="fill:#ff5293;fill-opacity:1;stroke:#ff2c76;stroke-width:1;stroke-linecap:round;stroke-opacity:1"/><text id="svg_71" x="-312.5" y="-10.5" style="font-size:10px;font-family:sans-serif;text-anchor:start;fill:#282828"><tspan id="svg_72" x="-299.5" y="3.5">4</tspan></text></g></g><g id="svg_73"><g id="svg_74"><g id="svg_75" transform="translate(482,379) scale(1.5)"><path id="svg_76" d="m-312,-2 L-312,-6 A4,4 90 0 1 -308,-10 L-304,-10 L-304,-8 L-294,-8 L-294,-10 L-285,-10 L-225,-10 L-221,-10 A4,4 90 0 1 -217,-6 L-217,-2 L-221,-2 L-221,-5 L-225,-5 L-225,5 L-221,5 L-221,2 L-217,2 L-217,6 A4,4 90 0 1 -221,10 L-225,10 L-285,10 L-286,10 L-286,12 L-294,12 L-294,10 L-295,10 L-299,10 A5,5 90 0 0 -304,15 L-304,19 L-304,23 L-304,65 L-304,69 A5,5 90 0 0 -299,74 L-295,74 L-295,76 L-285,76 L-285,74 L-277,74 L-277,80 L-277,86 L-277,90 A4,4 90 0 1 -281,94 L-285,94 L-294,94 L-295,94 L-295,96 L-303,96 L-303,94 L-304,94 L-308,94 A4,4 90 0 1 -312,90 L-312,86 z" style="fill:#ff8b2d;fill-opacity:1;stroke:#e86b0e;stroke-width:1;stroke-linecap:round;stroke-opacity:1"/><text id="svg_77" x="-312.5" y="-10.5" style="font-size:10px;fill:#282828;font-family:sans-serif;text-anchor:start"><tspan id="svg_78" x="-292.5" y="4.5">nota</tspan></text><text id="svg_79" x="-312.5" y="-10.5" style="font-size:6.666666666666667px;fill:#282828;font-family:sans-serif;text-anchor:end"><tspan id="svg_80" x="-227.5" y="1.5">valor</tspan></text></g></g></g><g id="svg_88"><g id="svg_89" transform="translate(614,379) scale(1.5)"><path id="svg_90" d="m-304,-2 L-304,-6 A4,4 90 0 1 -300,-10 L-296,-10 L-286,-10 L-256,-10 L-252,-10 A4,4 90 0 1 -248,-6 L-248,-2 L-252,-2 L-252,-5 L-256,-5 L-256,5 L-252,5 L-252,2 L-248,2 L-248,19 L-252,19 L-252,16 L-256,16 L-256,26 L-252,26 L-252,23 L-248,23 L-248,27 A4,4 90 0 1 -252,31 L-256,31 L-286,31 L-296,31 L-300,31 A4,4 90 0 1 -304,27 L-304,23 L-304,2 L-304,1 L-310,1 L-310,4 L-312,4 L-312,-4 L-310,-4 L-310,-1 L-304,-1 L-304,-2 z" style="fill:#ff5293;fill-opacity:1;stroke:#ff2c76;stroke-width:1;stroke-linecap:round;stroke-opacity:1"/><text id="svg_91" x="-312.5" y="-10.5" style="font-size:9px;fill:#282828;font-family:sans-serif;text-anchor:end"><tspan id="svg_92" x="-258.5" y="12.5">➗</tspan></text></g></g><g id="svg_97"><g id="svg_98" transform="translate(700,379) scale(1.5)"><path id="svg_99" d="m-304,-10 L-244,-10 L-244,10 L-304,10 L-304,2 L-304,1 L-310,1 L-310,4 L-312,4 L-312,-4 L-310,-4 L-310,-1 L-304,-1 L-304,-2 z" style="fill:#ff5293;fill-opacity:1;stroke:#ff2c76;stroke-width:1;stroke-linecap:round;stroke-opacity:1"/><text id="svg_100" x="-312.5" y="-10.5" style="font-size:10px;fill:#282828;font-family:sans-serif;text-anchor:start"><tspan id="svg_101" x="-299.5" y="3.5">1</tspan></text></g></g><g id="svg_102"><g id="svg_103" transform="translate(700,411) scale(1.5)"><path id="svg_104" d="m-304,-10 L-244,-10 L-244,10 L-304,10 L-304,2 L-304,1 L-310,1 L-310,4 L-312,4 L-312,-4 L-310,-4 L-310,-1 L-304,-1 L-304,-2 z" style="fill:#ff5293;fill-opacity:1;stroke:#ff2c76;stroke-width:1;stroke-linecap:round;stroke-opacity:1"/><text id="svg_105" x="-312.5" y="-10.5" style="font-size:10px;fill:#282828;font-family:sans-serif;text-anchor:start"><tspan id="svg_106" x="-299.5" y="3.5">8</tspan></text></g></g><g id="svg_107"><g id="svg_108" transform="translate(496,411) scale(1.5)"><path id="svg_109" d="m-312,-2 L-312,-6 A4,4 90 0 1 -308,-10 L-304,-10 L-304,-8 L-294,-8 L-294,-10 L-274,-10 L-270,-10 A4,4 90 0 1 -266,-6 L-266,-2 L-266,2 L-266,6 A4,4 90 0 1 -270,10 L-274,10 L-294,10 L-295,10 L-295,12 L-303,12 L-303,10 L-304,10 L-308,10 A4,4 90 0 1 -312,6 L-312,2 z" style="fill:#b0b0b0;fill-opacity:1;stroke:#a0a0a0;stroke-width:1;stroke-linecap:round;stroke-opacity:1"/><text id="svg_110" x="-312.5" y="-10.5" style="font-size:10px;fill:#282828;font-family:sans-serif;text-anchor:end"><tspan id="svg_111" x="-276.5" y="3.5">↓</tspan></text></g></g><g id="svg_112" transform="translate(68)"><g id="svg_113" transform="matrix(1.5,0,0,1.5,496,443)"><path id="svg_114" d="m -357.33333,-2 v -4 c 0,-2.209139 1.79086,-4 4,-4 h 4 v 2 h 10 v -2 H -264 h 4 c 2.20914,0 4,1.790861 4,4 v 4 h -4 v -3 h -4 V 5 h 4 V 2 h 4 v 17 h -4 v -3 h -4 v 10 h 4 v -3 h 4 v 4 c 0,2.209139 -1.79086,4 -4,4 h -4 -75.33333 -1 v 2 h -8 v -2 h -1 -4 c -2.20914,0 -4,-1.790861 -4,-4 V 23 2 Z" style="fill:#77c428;fill-opacity:1;stroke:#57ad02;stroke-width:1;stroke-linecap:round;stroke-opacity:1"/><text id="svg_115" x="-312.5" y="-10.5" style="font-size:10px;font-family:sans-serif;text-anchor:end;fill:#282828"><tspan id="svg_116" x="-266.5" y="13.5">determinar o tom</tspan></text><text id="svg_117" x="-312.5" y="-10.5" style="font-size:6.66666651px;font-family:sans-serif;text-anchor:end;fill:#282828"><tspan id="svg_118" x="-266.5" y="1.5">nome</tspan></text><text id="svg_119" x="-312.5" y="-10.5" style="font-size:6.66666651px;font-family:sans-serif;text-anchor:end;fill:#282828"><tspan id="svg_120" x="-266.5" y="22.5">oitava</tspan></text></g></g><g id="svg_121" transform="translate(68)"><g id="svg_122" transform="matrix(1.5,0,0,1.5,570,443)"><path id="svg_123" d="m -304,-10 h 60 v 20 h -60 V 2 1 h -6 v 3 h -2 v -8 h 2 v 3 h 6 v -1 z" style="fill:#77c428;fill-opacity:1;stroke:#57ad02;stroke-width:1;stroke-linecap:round;stroke-opacity:1"/><text id="svg_124" x="-312.5" y="-10.5" style="font-size:10px;font-family:sans-serif;text-anchor:start;fill:#282828"><tspan id="svg_125" x="-299.5" y="3.5">sol</tspan></text></g></g><g id="svg_126" transform="translate(68)"><g id="svg_127" transform="matrix(1.5,0,0,1.5,570,475)"><path id="svg_128" d="m -304,-10 h 60 v 20 h -60 V 2 1 h -6 v 3 h -2 v -8 h 2 v 3 h 6 v -1 z" style="fill:#ff5293;fill-opacity:1;stroke:#ff2c76;stroke-width:1;stroke-linecap:round;stroke-opacity:1"/><text id="svg_129" x="-312.5" y="-10.5" style="font-size:10px;font-family:sans-serif;text-anchor:start;fill:#282828"><tspan id="svg_130" x="-299.5" y="3.5">4</tspan></text></g></g><g id="svg_131"><g id="svg_132"><g id="svg_133" transform="translate(482,79) scale(1.5)"><path id="svg_134" d="m-312,-2 L-312,-6 A4,4 90 0 1 -308,-10 L-304,-10 L-304,-8 L-294,-8 L-294,-10 L-285,-10 L-225,-10 L-221,-10 A4,4 90 0 1 -217,-6 L-217,-2 L-221,-2 L-221,-5 L-225,-5 L-225,5 L-221,5 L-221,2 L-217,2 L-217,6 A4,4 90 0 1 -221,10 L-225,10 L-285,10 L-286,10 L-286,12 L-294,12 L-294,10 L-295,10 L-299,10 A5,5 90 0 0 -304,15 L-304,19 L-304,23 L-304,65 L-304,69 A5,5 90 0 0 -299,74 L-295,74 L-295,76 L-285,76 L-285,74 L-277,74 L-277,80 L-277,86 L-277,90 A4,4 90 0 1 -281,94 L-285,94 L-294,94 L-295,94 L-295,96 L-303,96 L-303,94 L-304,94 L-308,94 A4,4 90 0 1 -312,90 L-312,86 z" style="fill:#ff8b2d;fill-opacity:1;stroke:#e86b0e;stroke-width:1;stroke-linecap:round;stroke-opacity:1"/><text id="svg_135" x="-312.5" y="-10.5" style="font-size:10px;fill:#282828;font-family:sans-serif;text-anchor:start"><tspan id="svg_136" x="-292.5" y="4.5">nota</tspan></text><text id="svg_137" x="-312.5" y="-10.5" style="font-size:6.666666666666667px;fill:#282828;font-family:sans-serif;text-anchor:end"><tspan id="svg_138" x="-227.5" y="1.5">valor</tspan></text></g></g></g><g id="svg_146"><g id="svg_147" transform="translate(614,79) scale(1.5)"><path id="svg_148" d="m-304,-2 L-304,-6 A4,4 90 0 1 -300,-10 L-296,-10 L-286,-10 L-256,-10 L-252,-10 A4,4 90 0 1 -248,-6 L-248,-2 L-252,-2 L-252,-5 L-256,-5 L-256,5 L-252,5 L-252,2 L-248,2 L-248,19 L-252,19 L-252,16 L-256,16 L-256,26 L-252,26 L-252,23 L-248,23 L-248,27 A4,4 90 0 1 -252,31 L-256,31 L-286,31 L-296,31 L-300,31 A4,4 90 0 1 -304,27 L-304,23 L-304,2 L-304,1 L-310,1 L-310,4 L-312,4 L-312,-4 L-310,-4 L-310,-1 L-304,-1 L-304,-2 z" style="fill:#ff5293;fill-opacity:1;stroke:#ff2c76;stroke-width:1;stroke-linecap:round;stroke-opacity:1"/><text id="svg_149" x="-312.5" y="-10.5" style="font-size:9px;fill:#282828;font-family:sans-serif;text-anchor:end"><tspan id="svg_150" x="-258.5" y="12.5">➗</tspan></text></g></g><g id="svg_155"><g id="svg_156" transform="translate(700,79) scale(1.5)"><path id="svg_157" d="m-304,-10 L-244,-10 L-244,10 L-304,10 L-304,2 L-304,1 L-310,1 L-310,4 L-312,4 L-312,-4 L-310,-4 L-310,-1 L-304,-1 L-304,-2 z" style="fill:#ff5293;fill-opacity:1;stroke:#ff2c76;stroke-width:1;stroke-linecap:round;stroke-opacity:1"/><text id="svg_158" x="-312.5" y="-10.5" style="font-size:10px;fill:#282828;font-family:sans-serif;text-anchor:start"><tspan id="svg_159" x="-299.5" y="3.5">1</tspan></text></g></g><g id="svg_160"><g id="svg_161" transform="translate(496,111) scale(1.5)"><path id="svg_162" d="m-312,-2 L-312,-6 A4,4 90 0 1 -308,-10 L-304,-10 L-304,-8 L-294,-8 L-294,-10 L-274,-10 L-270,-10 A4,4 90 0 1 -266,-6 L-266,-2 L-266,2 L-266,6 A4,4 90 0 1 -270,10 L-274,10 L-294,10 L-295,10 L-295,12 L-303,12 L-303,10 L-304,10 L-308,10 A4,4 90 0 1 -312,6 L-312,2 z" style="fill:#b0b0b0;fill-opacity:1;stroke:#a0a0a0;stroke-width:1;stroke-linecap:round;stroke-opacity:1"/><text id="svg_163" x="-312.5" y="-10.5" style="font-size:10px;fill:#282828;font-family:sans-serif;text-anchor:end"><tspan id="svg_164" x="-276.5" y="3.5">↓</tspan></text></g></g><g id="svg_165" transform="translate(68)"><g id="svg_166" transform="matrix(1.5,0,0,1.5,496,143)"><path id="svg_167" d="m -357.33333,-2 v -4 c 0,-2.209139 1.79086,-4 4,-4 h 4 v 2 h 10 v -2 H -264 h 4 c 2.20914,0 4,1.790861 4,4 v 4 h -4 v -3 h -4 V 5 h 4 V 2 h 4 v 17 h -4 v -3 h -4 v 10 h 4 v -3 h 4 v 4 c 0,2.209139 -1.79086,4 -4,4 h -4 -75.33333 -1 v 2 h -8 v -2 h -1 -4 c -2.20914,0 -4,-1.790861 -4,-4 V 23 2 Z" style="fill:#77c428;fill-opacity:1;stroke:#57ad02;stroke-width:1;stroke-linecap:round;stroke-opacity:1"/><text id="svg_168" x="-312.5" y="-10.5" style="font-size:10px;font-family:sans-serif;text-anchor:end;fill:#282828"><tspan id="svg_169" x="-266.5" y="13.5">determinar o tom</tspan></text><text id="svg_170" x="-312.5" y="-10.5" style="font-size:6.66666651px;font-family:sans-serif;text-anchor:end;fill:#282828"><tspan id="svg_171" x="-266.5" y="1.5">nome</tspan></text><text id="svg_172" x="-312.5" y="-10.5" style="font-size:6.66666651px;font-family:sans-serif;text-anchor:end;fill:#282828"><tspan id="svg_173" x="-266.5" y="22.5">oitava</tspan></text></g></g><g id="svg_174" transform="translate(68)"><g id="svg_175" transform="matrix(1.5,0,0,1.5,570,143)"><path id="svg_176" d="m -304,-10 h 60 v 20 h -60 V 2 1 h -6 v 3 h -2 v -8 h 2 v 3 h 6 v -1 z" style="fill:#77c428;fill-opacity:1;stroke:#57ad02;stroke-width:1;stroke-linecap:round;stroke-opacity:1"/><text id="svg_177" x="-312.5" y="-10.5" style="font-size:10px;font-family:sans-serif;text-anchor:start;fill:#282828"><tspan id="svg_178" x="-299.5" y="3.5">sol</tspan></text></g></g><g id="svg_179" transform="translate(68)"><g id="svg_180" transform="matrix(1.5,0,0,1.5,570,175)"><path id="svg_181" d="m -304,-10 h 60 v 20 h -60 V 2 1 h -6 v 3 h -2 v -8 h 2 v 3 h 6 v -1 z" style="fill:#ff5293;fill-opacity:1;stroke:#ff2c76;stroke-width:1;stroke-linecap:round;stroke-opacity:1"/><text id="svg_182" x="-312.5" y="-10.5" style="font-size:10px;font-family:sans-serif;text-anchor:start;fill:#282828"><tspan id="svg_183" x="-299.5" y="3.5">4</tspan></text></g></g><g id="svg_184"><g id="svg_185" transform="translate(700,111) scale(1.5)"><path id="svg_186" d="m-304,-10 L-244,-10 L-244,10 L-304,10 L-304,2 L-304,1 L-310,1 L-310,4 L-312,4 L-312,-4 L-310,-4 L-310,-1 L-304,-1 L-304,-2 z" style="fill:#ff5293;fill-opacity:1;stroke:#ff2c76;stroke-width:1;stroke-linecap:round;stroke-opacity:1"/><text id="svg_187" x="-312.5" y="-10.5" style="font-size:10px;fill:#282828;font-family:sans-serif;text-anchor:start"><tspan id="svg_188" x="-299.5" y="3.5">8</tspan></text></g></g><g id="svg_189"><g id="svg_190"><g id="svg_191" transform="translate(868,315) scale(1.5)"><path id="svg_192" d="m-312,-2 L-312,-6 A4,4 90 0 1 -308,-10 L-304,-10 L-304,-8 L-294,-8 L-294,-10 L-285,-10 L-225,-10 L-221,-10 A4,4 90 0 1 -217,-6 L-217,-2 L-221,-2 L-221,-5 L-225,-5 L-225,5 L-221,5 L-221,2 L-217,2 L-217,6 A4,4 90 0 1 -221,10 L-225,10 L-285,10 L-286,10 L-286,12 L-294,12 L-294,10 L-295,10 L-299,10 A5,5 90 0 0 -304,15 L-304,19 L-304,23 L-304,65 L-304,69 A5,5 90 0 0 -299,74 L-295,74 L-295,76 L-285,76 L-285,74 L-277,74 L-277,80 L-277,86 L-277,90 A4,4 90 0 1 -281,94 L-285,94 L-294,94 L-295,94 L-295,96 L-303,96 L-303,94 L-304,94 L-308,94 A4,4 90 0 1 -312,90 L-312,86 z" style="fill:#ff8b2d;fill-opacity:1;stroke:#e86b0e;stroke-width:1;stroke-linecap:round;stroke-opacity:1"/><text id="svg_193" x="-312.5" y="-10.5" style="font-size:10px;fill:#282828;font-family:sans-serif;text-anchor:start"><tspan id="svg_194" x="-292.5" y="4.5">nota</tspan></text><text id="svg_195" x="-312.5" y="-10.5" style="font-size:6.666666666666667px;fill:#282828;font-family:sans-serif;text-anchor:end"><tspan id="svg_196" x="-227.5" y="1.5">valor</tspan></text></g></g></g><g id="svg_204"><g id="svg_205" transform="translate(1000,315) scale(1.5)"><path id="svg_206" d="m-304,-2 L-304,-6 A4,4 90 0 1 -300,-10 L-296,-10 L-286,-10 L-256,-10 L-252,-10 A4,4 90 0 1 -248,-6 L-248,-2 L-252,-2 L-252,-5 L-256,-5 L-256,5 L-252,5 L-252,2 L-248,2 L-248,19 L-252,19 L-252,16 L-256,16 L-256,26 L-252,26 L-252,23 L-248,23 L-248,27 A4,4 90 0 1 -252,31 L-256,31 L-286,31 L-296,31 L-300,31 A4,4 90 0 1 -304,27 L-304,23 L-304,2 L-304,1 L-310,1 L-310,4 L-312,4 L-312,-4 L-310,-4 L-310,-1 L-304,-1 L-304,-2 z" style="fill:#ff5293;fill-opacity:1;stroke:#ff2c76;stroke-width:1;stroke-linecap:round;stroke-opacity:1"/><text id="svg_207" x="-312.5" y="-10.5" style="font-size:9px;fill:#282828;font-family:sans-serif;text-anchor:end"><tspan id="svg_208" x="-258.5" y="12.5">➗</tspan></text></g></g><g id="svg_213"><g id="svg_214" transform="translate(1086,315) scale(1.5)"><path id="svg_215" d="m-304,-10 L-244,-10 L-244,10 L-304,10 L-304,2 L-304,1 L-310,1 L-310,4 L-312,4 L-312,-4 L-310,-4 L-310,-1 L-304,-1 L-304,-2 z" style="fill:#ff5293;fill-opacity:1;stroke:#ff2c76;stroke-width:1;stroke-linecap:round;stroke-opacity:1"/><text id="svg_216" x="-312.5" y="-10.5" style="font-size:10px;fill:#282828;font-family:sans-serif;text-anchor:start"><tspan id="svg_217" x="-299.5" y="3.5">1</tspan></text></g></g><g id="svg_218"><g id="svg_219" transform="translate(1086,347) scale(1.5)"><path id="svg_220" d="m-304,-10 L-244,-10 L-244,10 L-304,10 L-304,2 L-304,1 L-310,1 L-310,4 L-312,4 L-312,-4 L-310,-4 L-310,-1 L-304,-1 L-304,-2 z" style="fill:#ff5293;fill-opacity:1;stroke:#ff2c76;stroke-width:1;stroke-linecap:round;stroke-opacity:1"/><text id="svg_221" x="-312.5" y="-10.5" style="font-size:10px;fill:#282828;font-family:sans-serif;text-anchor:start"><tspan id="svg_222" x="-299.5" y="3.5">4</tspan></text></g></g><g id="svg_223"><g id="svg_224" transform="translate(882,347) scale(1.5)"><path id="svg_225" d="m-312,-2 L-312,-6 A4,4 90 0 1 -308,-10 L-304,-10 L-304,-8 L-294,-8 L-294,-10 L-274,-10 L-270,-10 A4,4 90 0 1 -266,-6 L-266,-2 L-266,2 L-266,6 A4,4 90 0 1 -270,10 L-274,10 L-294,10 L-295,10 L-295,12 L-303,12 L-303,10 L-304,10 L-308,10 A4,4 90 0 1 -312,6 L-312,2 z" style="fill:#b0b0b0;fill-opacity:1;stroke:#a0a0a0;stroke-width:1;stroke-linecap:round;stroke-opacity:1"/><text id="svg_226" x="-312.5" y="-10.5" style="font-size:10px;fill:#282828;font-family:sans-serif;text-anchor:end"><tspan id="svg_227" x="-276.5" y="3.5">↓</tspan></text></g></g><g id="svg_228" transform="translate(68)"><g id="svg_229" transform="matrix(1.5,0,0,1.5,882,379)"><path id="svg_230" d="m -357.33333,-2 v -4 c 0,-2.209139 1.79086,-4 4,-4 h 4 v 2 h 10 v -2 H -264 h 4 c 2.20914,0 4,1.790861 4,4 v 4 h -4 v -3 h -4 V 5 h 4 V 2 h 4 v 17 h -4 v -3 h -4 v 10 h 4 v -3 h 4 v 4 c 0,2.209139 -1.79086,4 -4,4 h -4 -75.33333 -1 v 2 h -8 v -2 h -1 -4 c -2.20914,0 -4.69859,-1.904227 -4,-4 V 23 2 Z" style="fill:#77c428;fill-opacity:1;stroke:#57ad02;stroke-width:1;stroke-linecap:round;stroke-opacity:1"/><text id="svg_231" x="-312.5" y="-10.5" style="font-size:10px;font-family:sans-serif;text-anchor:end;fill:#282828"><tspan id="svg_232" x="-266.5" y="13.5">determinar o tom</tspan></text><text id="svg_233" x="-312.5" y="-10.5" style="font-size:6.66666651px;font-family:sans-serif;text-anchor:end;fill:#282828"><tspan id="svg_234" x="-266.5" y="1.5">nome</tspan></text><text id="svg_235" x="-312.5" y="-10.5" style="font-size:6.66666651px;font-family:sans-serif;text-anchor:end;fill:#282828"><tspan id="svg_236" x="-266.5" y="22.5">oitava</tspan></text></g></g><g id="svg_237" transform="translate(68)"><g id="svg_238" transform="matrix(1.5,0,0,1.5,956,379)"><path id="svg_239" d="m -304,-10 h 60 v 20 h -60 V 2 1 h -6 v 3 h -2 v -8 h 2 v 3 h 6 v -1 z" style="fill:#77c428;fill-opacity:1;stroke:#57ad02;stroke-width:1;stroke-linecap:round;stroke-opacity:1"/><text id="svg_240" x="-312.5" y="-10.5" style="font-size:10px;font-family:sans-serif;text-anchor:start;fill:#282828"><tspan id="svg_241" x="-299.5" y="3.5">sol</tspan></text></g></g><g id="svg_242" transform="translate(68)"><g id="svg_243" transform="matrix(1.5,0,0,1.5,956,411)"><path id="svg_244" d="m -304,-10 h 60 v 20 h -60 V 2 1 h -6 v 3 h -2 v -8 h 2 v 3 h 6 v -1 z" style="fill:#ff5293;fill-opacity:1;stroke:#ff2c76;stroke-width:1;stroke-linecap:round;stroke-opacity:1"/><text id="svg_245" x="-312.5" y="-10.5" style="font-size:10px;font-family:sans-serif;text-anchor:start;fill:#282828"><tspan id="svg_246" x="-299.5" y="3.5">4</tspan></text></g></g><g id="svg_247"><g id="svg_248" transform="translate(468,15) scale(1.5)"><path id="svg_249" d="m -312,-2 v -4 c 0,-2.209139 1.79086,-4 4,-4 h 4 v 2 h 10 v -2 h 9 103.48893 4 c 2.20914,0 4.69859,1.9042267 4,4 v 4 h -4 v -3 h -4 V 5 h 4 V 2 h 4 v 4 c 0,2.209139 -1.79086,4 -4,4 h -4 H -285 h -1 v 2 h -8 v -2 h -1 -4 c -2.76142,0 -5,2.238576 -5,5 v 4 4 105 4 c 0,2.76142 2.23858,5 5,5 h 4 v 2 h 10 v -2 h 8 v 6 6 4 c 0,2.20914 -1.79086,4 -4,4 h -4 -9 -1 v 2 h -8 v -2 h -1 -4 c -2.20914,0 -4,-1.79086 -4,-4 v -4 z" style="fill:#fe994f;fill-opacity:1;stroke:#e86b0e;stroke-width:1;stroke-linecap:round;stroke-opacity:1"/><text id="svg_250" x="-312.5" y="-10.5" style="font-size:10px;fill:#282828;font-family:sans-serif;text-anchor:start"><tspan id="svg_251" x="-307.5" y="4.5">multiplicar valor da nota</tspan></text></g></g><g id="svg_254" transform="translate(46)"><g id="svg_255" transform="matrix(1.5,0,0,1.5,619,15)"><path id="svg_256" d="m -304,-2 v -4 a 4,4 90 0 1 4,-4 h 4 10 30 4 a 4,4 90 0 1 4,4 v 4 h -4 v -3 h -4 V 5 h 4 V 2 h 4 v 17 h -4 v -3 h -4 v 10 h 4 v -3 h 4 v 4 a 4,4 90 0 1 -4,4 h -4 -30 -10 -4 a 4,4 90 0 1 -4,-4 V 23 2 1 h -6 v 3 h -2 v -8 h 2 v 3 h 6 z" style="fill:#ff5293;fill-opacity:1;stroke:#ff2c76;stroke-width:1;stroke-linecap:round;stroke-opacity:1"/><text id="svg_257" x="-312.5" y="-10.5" style="font-size:9px;font-family:sans-serif;text-anchor:end;fill:#282828"><tspan id="svg_258" x="-258.5" y="12.5">➗</tspan></text></g></g><g id="svg_263" transform="translate(46)"><g id="svg_264" transform="matrix(1.5,0,0,1.5,705,15)"><path id="svg_265" d="m -304,-10 h 60 v 20 h -60 V 2 1 h -6 v 3 h -2 v -8 h 2 v 3 h 6 v -1 z" style="fill:#ff5293;fill-opacity:1;stroke:#ff2c76;stroke-width:1;stroke-linecap:round;stroke-opacity:1"/><text id="svg_266" x="-312.5" y="-10.5" style="font-size:10px;font-family:sans-serif;text-anchor:start;fill:#282828"><tspan id="svg_267" x="-299.5" y="3.5">1</tspan></text></g></g><g id="svg_268" transform="translate(46)"><g id="svg_269" transform="matrix(1.5,0,0,1.5,705,47)"><path id="svg_270" d="m -304,-10 h 60 v 20 h -60 V 2 1 h -6 v 3 h -2 v -8 h 2 v 3 h 6 v -1 z" style="fill:#ff5293;fill-opacity:1;stroke:#ff2c76;stroke-width:1;stroke-linecap:round;stroke-opacity:1"/><text id="svg_271" x="-312.5" y="-10.5" style="font-size:10px;font-family:sans-serif;text-anchor:start;fill:#282828"><tspan id="svg_272" x="-299.5" y="3.5">2</tspan></text></g></g><g id="svg_273"><g id="svg_274" transform="translate(482,47) scale(1.5)"><path id="svg_275" d="m-312,-2 L-312,-6 A4,4 90 0 1 -308,-10 L-304,-10 L-304,-8 L-294,-8 L-294,-10 L-274,-10 L-270,-10 A4,4 90 0 1 -266,-6 L-266,-2 L-266,2 L-266,6 A4,4 90 0 1 -270,10 L-274,10 L-294,10 L-295,10 L-295,12 L-303,12 L-303,10 L-304,10 L-308,10 A4,4 90 0 1 -312,6 L-312,2 z" style="fill:#b0b0b0;fill-opacity:1;stroke:#a0a0a0;stroke-width:1;stroke-linecap:round;stroke-opacity:1"/><text id="svg_276" x="-312.5" y="-10.5" style="font-size:10px;fill:#282828;font-family:sans-serif;text-anchor:end"><tspan id="svg_277" x="-276.5" y="3.5">↓</tspan></text></g></g><g id="svg_278"><g id="svg_279" transform="translate(468,315) scale(1.5)"><path id="svg_280" d="m -312,-2 v -4 c 0,-2.209139 1.79086,-4 4,-4 h 4 v 2 h 10 v -2 h 9 103.48893 4 c 2.20914,0 4,1.790861 4,4 v 4 h -4 v -3 h -4 V 5 h 4 V 2 h 4 v 4 c 0,2.209139 -1.79086,4 -4,4 h -4 H -285 h -1 v 2 h -8 v -2 h -1 -4 c -2.76142,0 -5,2.238576 -5,5 v 4 4 105 4 c 0,2.76142 2.23858,5 5,5 h 4 v 2 h 10 v -2 h 8 v 6 6 4 c 0,2.20914 -1.79086,4 -4,4 h -4 -9 -1 v 2 h -8 v -2 h -1 -4 c -2.20914,0 -4,-1.79086 -4,-4 v -4 z" style="fill:#fe994f;fill-opacity:1;stroke:#e86b0e;stroke-width:1;stroke-linecap:round;stroke-opacity:1"/><text id="svg_281" x="-312.5" y="-10.5" style="font-size:10px;fill:#282828;font-family:sans-serif;text-anchor:start"><tspan id="svg_282" x="-307.5" y="4.5">multiplicar valor da nota</tspan></text></g></g><g id="svg_285" transform="translate(46)"><g id="svg_286" transform="matrix(1.5,0,0,1.5,619,315)"><path id="svg_287" d="m -304,-2 v -4 a 4,4 90 0 1 4,-4 h 4 10 30 4 a 4,4 90 0 1 4,4 v 4 h -4 v -3 h -4 V 5 h 4 V 2 h 4 v 17 h -4 v -3 h -4 v 10 h 4 v -3 h 4 v 4 a 4,4 90 0 1 -4,4 h -4 -30 -10 -4 a 4,4 90 0 1 -4,-4 V 23 2 1 h -6 v 3 h -2 v -8 h 2 v 3 h 6 z" style="fill:#ff5293;fill-opacity:1;stroke:#ff2c76;stroke-width:1;stroke-linecap:round;stroke-opacity:1"/><text id="svg_288" x="-312.5" y="-10.5" style="font-size:9px;font-family:sans-serif;text-anchor:end;fill:#282828"><tspan id="svg_289" x="-258.5" y="12.5">➗</tspan></text></g></g><g id="svg_294" transform="translate(46)"><g id="svg_295" transform="matrix(1.5,0,0,1.5,705,315)"><path id="svg_296" d="m -304,-10 h 60 v 20 h -60 V 2 1 h -6 v 3 h -2 v -8 h 2 v 3 h 6 v -1 z" style="fill:#ff5293;fill-opacity:1;stroke:#ff2c76;stroke-width:1;stroke-linecap:round;stroke-opacity:1"/><text id="svg_297" x="-312.5" y="-10.5" style="font-size:10px;font-family:sans-serif;text-anchor:start;fill:#282828"><tspan id="svg_298" x="-299.5" y="3.5">2</tspan></text></g></g><g id="svg_299" transform="translate(46)"><g id="svg_300" transform="matrix(1.5,0,0,1.5,705,347)"><path id="svg_301" d="m -304,-10 h 60 v 20 h -60 V 2 1 h -6 v 3 h -2 v -8 h 2 v 3 h 6 v -1 z" style="fill:#ff5293;fill-opacity:1;stroke:#ff2c76;stroke-width:1;stroke-linecap:round;stroke-opacity:1"/><text id="svg_302" x="-312.5" y="-10.5" style="font-size:10px;font-family:sans-serif;text-anchor:start;fill:#282828"><tspan id="svg_303" x="-299.5" y="3.5">1</tspan></text></g></g><g id="svg_304"><g id="svg_305" transform="translate(482,347) scale(1.5)"><path id="svg_306" d="m-312,-2 L-312,-6 A4,4 90 0 1 -308,-10 L-304,-10 L-304,-8 L-294,-8 L-294,-10 L-274,-10 L-270,-10 A4,4 90 0 1 -266,-6 L-266,-2 L-266,2 L-266,6 A4,4 90 0 1 -270,10 L-274,10 L-294,10 L-295,10 L-295,12 L-303,12 L-303,10 L-304,10 L-308,10 A4,4 90 0 1 -312,6 L-312,2 z" style="fill:#b0b0b0;fill-opacity:1;stroke:#a0a0a0;stroke-width:1;stroke-linecap:round;stroke-opacity:1"/><text id="svg_307" x="-312.5" y="-10.5" style="font-size:10px;fill:#282828;font-family:sans-serif;text-anchor:end"><tspan id="svg_308" x="-276.5" y="3.5">↓</tspan></text></g></g></g></svg>