<svg xmlns="http://www.w3.org/2000/svg" xmlns:svg="http://www.w3.org/2000/svg" id="svg387" width="722" height="542" version="1.1"><metadata id="metadata393"/><rect id="backgroundrect" width="100%" height="100%" x="0" y="0" fill="none" stroke="none"/><g id="svg_22"><g id="svg_23"><g id="svg_24" transform="matrix(1.5,0,0,1.5,702,104)"><path style="fill:#fe994f;fill-opacity:1;stroke:#e86b0e;stroke-width:1;stroke-linecap:round;stroke-opacity:1" id="svg_25" d="m -200,-40 v -4 a 4,4 90 0 1 4,-4 h 4 v 2 h 10 v -2 h 9 60 4 a 4,4 90 0 1 4,4 v 4 h -4 v -3 h -4 v 10 h 4 v -3 h 4 v 4 a 4,4 90 0 1 -4,4 h -4 -60 -1 v 2 h -8 v -2 h -1 -4 a 5,5 90 0 0 -5,5 v 4 4 42 4 a 5,5 90 0 0 5,5 h 4 v 2 h 10 v -2 h 8 v 6 6 4 a 4,4 90 0 1 -4,4 h -4 -9 -1 v 2 h -8 v -2 h -1 -4 a 4,4 90 0 1 -4,-4 v -4 z"/><text style="font-size:10px;font-family:sans-serif;text-anchor:start;fill:#282828" id="svg_26" x="-200.5" y="-48.5"><tspan id="svg_27" x="-180.5" y="-33.5">nota</tspan></text><text style="font-size:6.66666651px;font-family:sans-serif;text-anchor:end;fill:#282828" id="svg_28" x="-200.5" y="-48.5"><tspan id="svg_29" x="-115.5" y="-36.5">valor</tspan></text></g></g><g id="svg_30" transform="matrix(0.5,0,0,0.5,702,108)"><g style="isolation:isolate" id="svg_31"><g id="レイヤー_2" data-name="レイヤー 2"><g id="Icon"><rect style="opacity:.4;mix-blend-mode:multiply;fill:#292929" id="svg_32" width="42" height="42" x="-601.5" y="-145.5" rx="5" ry="5"/><path style="fill:#fff" id="svg_33" d="m -570.94,-115.7 -4.17,-4.16 h 2.26 a 1.035,1.035 0 1 0 0,-2.07 h -4.71 a 1.08,1.08 0 0 0 -1.11,1 v 0 c 0,0 0,0 0,0.06 v 4.64 0 a 1.04,1.04 0 1 0 2.08,0 v -2.19 l 4.19,4.19 a 1,1 0 0 0 1.46,0 1,1 0 0 0 0,-1.47 z"/><path style="fill:#fff" id="svg_34" d="m -582.33,-120.9 a 1.08,1.08 0 0 0 -1.11,-1 h -4.71 a 1.035,1.035 0 1 0 0,2.07 h 2.25 l -4.16,4.13 a 1.039447,1.039447 0 0 0 1.47,1.47 l 4.18,-4.19 v 2.26 a 1.04,1.04 0 1 0 2.08,0 v -4.64 c 0,0 0,0 0,-0.06 a 0.08,0.08 0 0 1 0,-0.04 z"/><path style="fill:#fff" id="svg_35" d="m -577.56,-125 h 4.7 a 1.04,1.04 0 1 0 0,-2.08 h -2.25 l 4.17,-4.16 a 1,1 0 0 0 0,-1.47 1,1 0 0 0 -1.46,0 l -4.19,4.21 v -2.28 a 1.04,1.04 0 1 0 -2.08,0 v 4.64 a 0.43000001,0.43000001 0 0 0 0,0.05 v 0.05 a 1.09,1.09 0 0 0 1.11,1.04 z"/><path style="fill:#fff" id="svg_36" d="m -583.37,-131.88 a 1.08,1.08 0 0 0 -1,1.09 v 2.29 l -4.18,-4.19 a 1,1 0 0 0 -1.47,0 1,1 0 0 0 0,1.46 l 4.16,4.17 h -2.29 a 1.04,1.04 0 1 0 0,2.08 h 4.71 a 1.09,1.09 0 0 0 1.11,-1 c 0,0 0,0 0,-0.06 v -4.75 a 1.0700001,1.0700001 0 0 0 -1.04,-1.09 z"/></g></g></g></g></g><g id="svg_37"><g id="svg_38" transform="matrix(1.5,0,0,1.5,834,104)"><path style="fill:#ff5293;fill-opacity:1;stroke:#ff2c76;stroke-width:1;stroke-linecap:round;stroke-opacity:1" id="svg_39" d="m -192,-40 v -4 a 4,4 90 0 1 4,-4 h 4 10 30 4 a 4,4 90 0 1 4,4 v 4 h -4 v -3 h -4 v 10 h 4 v -3 h 4 v 17 h -4 v -3 h -4 v 10 h 4 v -3 h 4 v 4 a 4,4 90 0 1 -4,4 h -4 -30 -10 -4 a 4,4 90 0 1 -4,-4 v -4 -21 -1 h -6 v 3 h -2 v -8 h 2 v 3 h 6 z"/><text style="font-size:9px;font-family:sans-serif;text-anchor:end;fill:#282828" id="svg_40" x="-200.5" y="-48.5"><tspan id="svg_41" x="-146.5" y="-25.5">➗</tspan></text></g></g><g id="svg_46"><g id="svg_47" transform="matrix(1.5,0,0,1.5,920,104)"><path style="fill:#ff5293;fill-opacity:1;stroke:#ff2c76;stroke-width:1;stroke-linecap:round;stroke-opacity:1" id="svg_48" d="m -192,-48 h 60 v 20 h -60 v -8 -1 h -6 v 3 h -2 v -8 h 2 v 3 h 6 v -1 z"/><text style="font-size:10px;font-family:sans-serif;text-anchor:start;fill:#282828" id="svg_49" x="-200.5" y="-48.5"><tspan id="svg_50" x="-187.5" y="-34.5">1</tspan></text></g></g><g id="svg_51"><g id="svg_52" transform="matrix(1.5,0,0,1.5,920,136)"><path style="fill:#ff5293;fill-opacity:1;stroke:#ff2c76;stroke-width:1;stroke-linecap:round;stroke-opacity:1" id="svg_53" d="m -192,-48 h 60 v 20 h -60 v -8 -1 h -6 v 3 h -2 v -8 h 2 v 3 h 6 v -1 z"/><text style="font-size:10px;font-family:sans-serif;text-anchor:start;fill:#282828" id="svg_54" x="-200.5" y="-48.5"><tspan id="svg_55" x="-187.5" y="-34.5">4</tspan></text></g></g><g id="svg_56"><g id="svg_57" transform="matrix(1.5,0,0,1.5,716,136)"><path style="fill:#b0b0b0;fill-opacity:1;stroke:#a0a0a0;stroke-width:1;stroke-linecap:round;stroke-opacity:1" id="svg_58" d="m -200,-40 v -4 a 4,4 90 0 1 4,-4 h 4 v 2 h 10 v -2 h 20 4 a 4,4 90 0 1 4,4 v 4 4 4 a 4,4 90 0 1 -4,4 h -4 -20 -1 v 2 h -8 v -2 h -1 -4 a 4,4 90 0 1 -4,-4 v -4 z"/><text style="font-size:10px;font-family:sans-serif;text-anchor:end;fill:#282828" id="svg_59" x="-200.5" y="-48.5"><tspan id="svg_60" x="-164.5" y="-34.5">↓</tspan></text></g></g><g id="svg_61" transform="translate(66)"><g id="svg_62" transform="matrix(1.5,0,0,1.5,716,168)"><path style="fill:#77c428;fill-opacity:1;stroke:#57ad02;stroke-width:1;stroke-linecap:round;stroke-opacity:1" id="svg_63" d="m -244,-40 v -4 c 0,-2.209139 1.79086,-4 4,-4 h 4 v 2 h 10 v -2 h 74 4 c 2.20914,0 4,1.790861 4,4 v 4 h -4 v -3 h -4 v 10 h 4 v -3 h 4 v 17 h -4 v -3 h -4 v 10 h 4 v -3 h 4 v 4 c 0,2.209139 -1.79086,4 -4,4 h -4 -74 -1 v 2 h -8 v -2 h -1 -4 c -2.20914,0 -4.69859,-1.9042267 -4,-4 v -4 -21 z"/><text style="font-size:10px;font-family:sans-serif;text-anchor:end;fill:#282828" id="svg_64" x="-200.5" y="-48.5"><tspan id="svg_65" x="-154.5" y="-24.5">determinar o tom</tspan></text><text style="font-size:6.66666651px;font-family:sans-serif;text-anchor:end;fill:#282828" id="svg_66" x="-200.5" y="-48.5"><tspan id="svg_67" x="-154.5" y="-36.5">nome</tspan></text><text style="font-size:6.66666651px;font-family:sans-serif;text-anchor:end;fill:#282828" id="svg_68" x="-200.5" y="-48.5"><tspan id="svg_69" x="-154.5" y="-15.5">oitava</tspan></text></g></g><g id="svg_70" transform="translate(66)"><g id="svg_71" transform="matrix(1.5,0,0,1.5,790,168)"><path style="fill:#77c428;fill-opacity:1;stroke:#57ad02;stroke-width:1;stroke-linecap:round;stroke-opacity:1" id="svg_72" d="m -192,-48 h 60 v 20 h -60 v -8 -1 h -6 v 3 h -2 v -8 h 2 v 3 h 6 v -1 z"/><text style="font-size:10px;font-family:sans-serif;text-anchor:start;fill:#282828" id="svg_73" x="-200.5" y="-48.5"><tspan id="svg_74" x="-187.5" y="-34.5">sol</tspan></text></g></g><g id="svg_75" transform="translate(66)"><g id="svg_76" transform="matrix(1.5,0,0,1.5,790,200)"><path style="fill:#ff5293;fill-opacity:1;stroke:#ff2c76;stroke-width:1;stroke-linecap:round;stroke-opacity:1" id="svg_77" d="m -192,-48 h 60 v 20 h -60 v -8 -1 h -6 v 3 h -2 v -8 h 2 v 3 h 6 v -1 z"/><text style="font-size:10px;font-family:sans-serif;text-anchor:start;fill:#282828" id="svg_78" x="-200.5" y="-48.5"><tspan id="svg_79" x="-187.5" y="-34.5">5</tspan></text></g></g><g id="svg_80"><g id="svg_81"><g id="svg_82" transform="matrix(1.5,0,0,1.5,702,262)"><path style="fill:#fe994f;fill-opacity:1;stroke:#e86b0e;stroke-width:1;stroke-linecap:round;stroke-opacity:1" id="svg_83" d="m -200,-40 v -4 a 4,4 90 0 1 4,-4 h 4 v 2 h 10 v -2 h 9 60 4 a 4,4 90 0 1 4,4 v 4 h -4 v -3 h -4 v 10 h 4 v -3 h 4 v 4 a 4,4 90 0 1 -4,4 h -4 -60 -1 v 2 h -8 v -2 h -1 -4 a 5,5 90 0 0 -5,5 v 4 4 42 4 a 5,5 90 0 0 5,5 h 4 v 2 h 10 v -2 h 8 v 6 6 4 a 4,4 90 0 1 -4,4 h -4 -9 -1 v 2 h -8 v -2 h -1 -4 a 4,4 90 0 1 -4,-4 v -4 z"/><text style="font-size:10px;font-family:sans-serif;text-anchor:start;fill:#282828" id="svg_84" x="-200.5" y="-48.5"><tspan id="svg_85" x="-180.5" y="-33.5">nota</tspan></text><text style="font-size:6.66666651px;font-family:sans-serif;text-anchor:end;fill:#282828" id="svg_86" x="-200.5" y="-48.5"><tspan id="svg_87" x="-115.5" y="-36.5">valor</tspan></text></g></g><g id="svg_88" transform="matrix(0.5,0,0,0.5,702,266)"><g style="isolation:isolate" id="svg_89"><g id="g77" data-name="レイヤー 2"><g id="g75"><rect style="opacity:.4;mix-blend-mode:multiply;fill:#292929" id="svg_90" width="42" height="42" x="-601.5" y="-145.5" rx="5" ry="5"/><path style="fill:#fff" id="svg_91" d="m -570.94,-115.7 -4.17,-4.16 h 2.26 a 1.035,1.035 0 1 0 0,-2.07 h -4.71 a 1.08,1.08 0 0 0 -1.11,1 v 0 c 0,0 0,0 0,0.06 v 4.64 0 a 1.04,1.04 0 1 0 2.08,0 v -2.19 l 4.19,4.19 a 1,1 0 0 0 1.46,0 1,1 0 0 0 0,-1.47 z"/><path style="fill:#fff" id="svg_92" d="m -582.33,-120.9 a 1.08,1.08 0 0 0 -1.11,-1 h -4.71 a 1.035,1.035 0 1 0 0,2.07 h 2.25 l -4.16,4.13 a 1.039447,1.039447 0 0 0 1.47,1.47 l 4.18,-4.19 v 2.26 a 1.04,1.04 0 1 0 2.08,0 v -4.64 c 0,0 0,0 0,-0.06 a 0.08,0.08 0 0 1 0,-0.04 z"/><path style="fill:#fff" id="svg_93" d="m -577.56,-125 h 4.7 a 1.04,1.04 0 1 0 0,-2.08 h -2.25 l 4.17,-4.16 a 1,1 0 0 0 0,-1.47 1,1 0 0 0 -1.46,0 l -4.19,4.21 v -2.28 a 1.04,1.04 0 1 0 -2.08,0 v 4.64 a 0.43000001,0.43000001 0 0 0 0,0.05 v 0.05 a 1.09,1.09 0 0 0 1.11,1.04 z"/><path style="fill:#fff" id="svg_94" d="m -583.37,-131.88 a 1.08,1.08 0 0 0 -1,1.09 v 2.29 l -4.18,-4.19 a 1,1 0 0 0 -1.47,0 1,1 0 0 0 0,1.46 l 4.16,4.17 h -2.29 a 1.04,1.04 0 1 0 0,2.08 h 4.71 a 1.09,1.09 0 0 0 1.11,-1 c 0,0 0,0 0,-0.06 v -4.75 a 1.0700001,1.0700001 0 0 0 -1.04,-1.09 z"/></g></g></g></g></g><g id="svg_95"><g id="svg_96" transform="matrix(1.5,0,0,1.5,834,262)"><path style="fill:#ff5293;fill-opacity:1;stroke:#ff2c76;stroke-width:1;stroke-linecap:round;stroke-opacity:1" id="svg_97" d="m -192,-40 v -4 a 4,4 90 0 1 4,-4 h 4 10 30 4 a 4,4 90 0 1 4,4 v 4 h -4 v -3 h -4 v 10 h 4 v -3 h 4 v 17 h -4 v -3 h -4 v 10 h 4 v -3 h 4 v 4 a 4,4 90 0 1 -4,4 h -4 -30 -10 -4 a 4,4 90 0 1 -4,-4 v -4 -21 -1 h -6 v 3 h -2 v -8 h 2 v 3 h 6 z"/><text style="font-size:9px;font-family:sans-serif;text-anchor:end;fill:#282828" id="svg_98" x="-200.5" y="-48.5"><tspan id="svg_99" x="-146.5" y="-25.5">➗</tspan></text></g></g><g id="svg_104"><g id="svg_105" transform="matrix(1.5,0,0,1.5,920,262)"><path style="fill:#ff5293;fill-opacity:1;stroke:#ff2c76;stroke-width:1;stroke-linecap:round;stroke-opacity:1" id="svg_106" d="m -192,-48 h 60 v 20 h -60 v -8 -1 h -6 v 3 h -2 v -8 h 2 v 3 h 6 v -1 z"/><text style="font-size:10px;font-family:sans-serif;text-anchor:start;fill:#282828" id="svg_107" x="-200.5" y="-48.5"><tspan id="svg_108" x="-187.5" y="-34.5">1</tspan></text></g></g><g id="svg_109"><g id="svg_110" transform="matrix(1.5,0,0,1.5,920,294)"><path style="fill:#ff5293;fill-opacity:1;stroke:#ff2c76;stroke-width:1;stroke-linecap:round;stroke-opacity:1" id="svg_111" d="m -192,-48 h 60 v 20 h -60 v -8 -1 h -6 v 3 h -2 v -8 h 2 v 3 h 6 v -1 z"/><text style="font-size:10px;font-family:sans-serif;text-anchor:start;fill:#282828" id="svg_112" x="-200.5" y="-48.5"><tspan id="svg_113" x="-187.5" y="-34.5">4</tspan></text></g></g><g id="svg_114"><g id="svg_115" transform="matrix(1.5,0,0,1.5,716,294)"><path style="fill:#b0b0b0;fill-opacity:1;stroke:#a0a0a0;stroke-width:1;stroke-linecap:round;stroke-opacity:1" id="svg_116" d="m -200,-40 v -4 a 4,4 90 0 1 4,-4 h 4 v 2 h 10 v -2 h 20 4 a 4,4 90 0 1 4,4 v 4 4 4 a 4,4 90 0 1 -4,4 h -4 -20 -1 v 2 h -8 v -2 h -1 -4 a 4,4 90 0 1 -4,-4 v -4 z"/><text style="font-size:10px;font-family:sans-serif;text-anchor:end;fill:#282828" id="svg_117" x="-200.5" y="-48.5"><tspan id="svg_118" x="-164.5" y="-34.5">↓</tspan></text></g></g><g id="svg_119" transform="translate(66)"><g id="svg_120" transform="matrix(1.5,0,0,1.5,716,326)"><path style="fill:#77c428;fill-opacity:1;stroke:#57ad02;stroke-width:1;stroke-linecap:round;stroke-opacity:1" id="svg_121" d="m -244,-40 v -4 c 0,-2.209139 1.79086,-4 4,-4 h 4 v 2 h 10 v -2 h 74 4 c 2.20914,0 4,1.790861 4,4 v 4 h -4 v -3 h -4 v 10 h 4 v -3 h 4 v 17 h -4 v -3 h -4 v 10 h 4 v -3 h 4 v 4 c 0,2.209139 -1.79086,4 -4,4 h -4 -74 -1 v 2 h -8 v -2 h -1 -4 c -2.20914,0 -4.69859,-1.9042267 -4,-4 v -4 -21 z"/><text style="font-size:10px;font-family:sans-serif;text-anchor:end;fill:#282828" id="svg_122" x="-200.5" y="-48.5"><tspan id="svg_123" x="-154.5" y="-24.5">determinar o tom</tspan></text><text style="font-size:6.66666651px;font-family:sans-serif;text-anchor:end;fill:#282828" id="svg_124" x="-200.5" y="-48.5"><tspan id="svg_125" x="-154.5" y="-36.5">nome</tspan></text><text style="font-size:6.66666651px;font-family:sans-serif;text-anchor:end;fill:#282828" id="svg_126" x="-200.5" y="-48.5"><tspan id="svg_127" x="-154.5" y="-15.5">oitava</tspan></text></g></g><g id="svg_128" transform="translate(66)"><g id="svg_129" transform="matrix(1.5,0,0,1.5,790,326)"><path style="fill:#77c428;fill-opacity:1;stroke:#57ad02;stroke-width:1;stroke-linecap:round;stroke-opacity:1" id="svg_130" d="m -192,-48 h 60 v 20 h -60 v -8 -1 h -6 v 3 h -2 v -8 h 2 v 3 h 6 v -1 z"/><text style="font-size:10px;font-family:sans-serif;text-anchor:start;fill:#282828" id="svg_131" x="-200.5" y="-48.5"><tspan id="svg_132" x="-187.5" y="-34.5">re</tspan></text></g></g><g id="svg_133" transform="translate(66)"><g id="svg_134" transform="matrix(1.5,0,0,1.5,790,358)"><path style="fill:#ff5293;fill-opacity:1;stroke:#ff2c76;stroke-width:1;stroke-linecap:round;stroke-opacity:1" id="svg_135" d="m -192,-48 h 60 v 20 h -60 v -8 -1 h -6 v 3 h -2 v -8 h 2 v 3 h 6 v -1 z"/><text style="font-size:10px;font-family:sans-serif;text-anchor:start;fill:#282828" id="svg_136" x="-200.5" y="-48.5"><tspan id="svg_137" x="-187.5" y="-34.5">5</tspan></text></g></g><g id="svg_138"><g id="svg_139"><g id="svg_140" transform="matrix(1.5,0,0,1.5,702,420)"><path style="fill:#fe994f;fill-opacity:1;stroke:#e86b0e;stroke-width:1;stroke-linecap:round;stroke-opacity:1" id="svg_141" d="m -200,-40 v -4 a 4,4 90 0 1 4,-4 h 4 v 2 h 10 v -2 h 9 60 4 a 4,4 90 0 1 4,4 v 4 h -4 v -3 h -4 v 10 h 4 v -3 h 4 v 4 a 4,4 90 0 1 -4,4 h -4 -60 -1 v 2 h -8 v -2 h -1 -4 a 5,5 90 0 0 -5,5 v 4 4 42 4 a 5,5 90 0 0 5,5 h 4 v 2 h 10 v -2 h 8 v 6 6 4 a 4,4 90 0 1 -4,4 h -4 -9 -1 v 2 h -8 v -2 h -1 -4 a 4,4 90 0 1 -4,-4 v -4 z"/><text style="font-size:10px;font-family:sans-serif;text-anchor:start;fill:#282828" id="svg_142" x="-200.5" y="-48.5"><tspan id="svg_143" x="-180.5" y="-33.5">nota</tspan></text><text style="font-size:6.66666651px;font-family:sans-serif;text-anchor:end;fill:#282828" id="svg_144" x="-200.5" y="-48.5"><tspan id="svg_145" x="-115.5" y="-36.5">valor</tspan></text></g></g><g id="svg_146" transform="matrix(0.5,0,0,0.5,702,424)"><g style="isolation:isolate" id="svg_147"><g id="g137" data-name="レイヤー 2"><g id="g135"><rect style="opacity:.4;mix-blend-mode:multiply;fill:#292929" id="svg_148" width="42" height="42" x="-601.5" y="-145.5" rx="5" ry="5"/><path style="fill:#fff" id="svg_149" d="m -570.94,-115.7 -4.17,-4.16 h 2.26 a 1.035,1.035 0 1 0 0,-2.07 h -4.71 a 1.08,1.08 0 0 0 -1.11,1 v 0 c 0,0 0,0 0,0.06 v 4.64 0 a 1.04,1.04 0 1 0 2.08,0 v -2.19 l 4.19,4.19 a 1,1 0 0 0 1.46,0 1,1 0 0 0 0,-1.47 z"/><path style="fill:#fff" id="svg_150" d="m -582.33,-120.9 a 1.08,1.08 0 0 0 -1.11,-1 h -4.71 a 1.035,1.035 0 1 0 0,2.07 h 2.25 l -4.16,4.13 a 1.039447,1.039447 0 0 0 1.47,1.47 l 4.18,-4.19 v 2.26 a 1.04,1.04 0 1 0 2.08,0 v -4.64 c 0,0 0,0 0,-0.06 a 0.08,0.08 0 0 1 0,-0.04 z"/><path style="fill:#fff" id="svg_151" d="m -577.56,-125 h 4.7 a 1.04,1.04 0 1 0 0,-2.08 h -2.25 l 4.17,-4.16 a 1,1 0 0 0 0,-1.47 1,1 0 0 0 -1.46,0 l -4.19,4.21 v -2.28 a 1.04,1.04 0 1 0 -2.08,0 v 4.64 a 0.43000001,0.43000001 0 0 0 0,0.05 v 0.05 a 1.09,1.09 0 0 0 1.11,1.04 z"/><path style="fill:#fff" id="svg_152" d="m -583.37,-131.88 a 1.08,1.08 0 0 0 -1,1.09 v 2.29 l -4.18,-4.19 a 1,1 0 0 0 -1.47,0 1,1 0 0 0 0,1.46 l 4.16,4.17 h -2.29 a 1.04,1.04 0 1 0 0,2.08 h 4.71 a 1.09,1.09 0 0 0 1.11,-1 c 0,0 0,0 0,-0.06 v -4.75 a 1.0700001,1.0700001 0 0 0 -1.04,-1.09 z"/></g></g></g></g></g><g id="svg_153"><g id="svg_154" transform="matrix(1.5,0,0,1.5,834,420)"><path style="fill:#ff5293;fill-opacity:1;stroke:#ff2c76;stroke-width:1;stroke-linecap:round;stroke-opacity:1" id="svg_155" d="m -192,-40 v -4 a 4,4 90 0 1 4,-4 h 4 10 30 4 a 4,4 90 0 1 4,4 v 4 h -4 v -3 h -4 v 10 h 4 v -3 h 4 v 17 h -4 v -3 h -4 v 10 h 4 v -3 h 4 v 4 a 4,4 90 0 1 -4,4 h -4 -30 -10 -4 a 4,4 90 0 1 -4,-4 v -4 -21 -1 h -6 v 3 h -2 v -8 h 2 v 3 h 6 z"/><text style="font-size:9px;font-family:sans-serif;text-anchor:end;fill:#282828" id="svg_156" x="-200.5" y="-48.5"><tspan id="svg_157" x="-146.5" y="-25.5">➗</tspan></text></g></g><g id="svg_162"><g id="svg_163" transform="matrix(1.5,0,0,1.5,920,420)"><path style="fill:#ff5293;fill-opacity:1;stroke:#ff2c76;stroke-width:1;stroke-linecap:round;stroke-opacity:1" id="svg_164" d="m -192,-48 h 60 v 20 h -60 v -8 -1 h -6 v 3 h -2 v -8 h 2 v 3 h 6 v -1 z"/><text style="font-size:10px;font-family:sans-serif;text-anchor:start;fill:#282828" id="svg_165" x="-200.5" y="-48.5"><tspan id="svg_166" x="-187.5" y="-34.5">1</tspan></text></g></g><g id="svg_167"><g id="svg_168" transform="matrix(1.5,0,0,1.5,920,452)"><path style="fill:#ff5293;fill-opacity:1;stroke:#ff2c76;stroke-width:1;stroke-linecap:round;stroke-opacity:1" id="svg_169" d="m -192,-48 h 60 v 20 h -60 v -8 -1 h -6 v 3 h -2 v -8 h 2 v 3 h 6 v -1 z"/><text style="font-size:10px;font-family:sans-serif;text-anchor:start;fill:#282828" id="svg_170" x="-200.5" y="-48.5"><tspan id="svg_171" x="-187.5" y="-34.5">2</tspan></text></g></g><g id="svg_172"><g id="svg_173" transform="matrix(1.5,0,0,1.5,716,452)"><path style="fill:#b0b0b0;fill-opacity:1;stroke:#a0a0a0;stroke-width:1;stroke-linecap:round;stroke-opacity:1" id="svg_174" d="m -200,-40 v -4 a 4,4 90 0 1 4,-4 h 4 v 2 h 10 v -2 h 20 4 a 4,4 90 0 1 4,4 v 4 4 4 a 4,4 90 0 1 -4,4 h -4 -20 -1 v 2 h -8 v -2 h -1 -4 a 4,4 90 0 1 -4,-4 v -4 z"/><text style="font-size:10px;font-family:sans-serif;text-anchor:end;fill:#282828" id="svg_175" x="-200.5" y="-48.5"><tspan id="svg_176" x="-164.5" y="-34.5">↓</tspan></text></g></g><g id="svg_177" transform="translate(66)"><g id="svg_178" transform="matrix(1.5,0,0,1.5,716,484)"><path style="fill:#77c428;fill-opacity:1;stroke:#57ad02;stroke-width:1;stroke-linecap:round;stroke-opacity:1" id="svg_179" d="m -244,-40 v -4 c 0,-2.209139 1.79086,-4 4,-4 h 4 v 2 h 10 v -2 h 74 4 c 2.20914,0 4,1.790861 4,4 v 4 h -4 v -3 h -4 v 10 h 4 v -3 h 4 v 17 h -4 v -3 h -4 v 10 h 4 v -3 h 4 v 4 c 0,2.209139 -1.79086,4 -4,4 h -4 -74 -1 v 2 h -8 v -2 h -1 -4 c -2.20914,0 -4.69859,-1.9042267 -4,-4 v -4 -21 z"/><text style="font-size:10px;font-family:sans-serif;text-anchor:end;fill:#282828" id="svg_180" x="-200.5" y="-48.5"><tspan id="svg_181" x="-154.5" y="-24.5">determinar o tom</tspan></text><text style="font-size:6.66666651px;font-family:sans-serif;text-anchor:end;fill:#282828" id="svg_182" x="-200.5" y="-48.5"><tspan id="svg_183" x="-154.5" y="-36.5">nome</tspan></text><text style="font-size:6.66666651px;font-family:sans-serif;text-anchor:end;fill:#282828" id="svg_184" x="-200.5" y="-48.5"><tspan id="svg_185" x="-154.5" y="-15.5">oitava</tspan></text></g></g><g id="svg_186" transform="translate(66)"><g id="svg_187" transform="matrix(1.5,0,0,1.5,790,484)"><path style="fill:#77c428;fill-opacity:1;stroke:#57ad02;stroke-width:1;stroke-linecap:round;stroke-opacity:1" id="svg_188" d="m -192,-48 h 60 v 20 h -60 v -8 -1 h -6 v 3 h -2 v -8 h 2 v 3 h 6 v -1 z"/><text style="font-size:10px;font-family:sans-serif;text-anchor:start;fill:#282828" id="svg_189" x="-200.5" y="-48.5"><tspan id="svg_190" x="-187.5" y="-34.5">sol</tspan></text></g></g><g id="svg_191" transform="translate(66)"><g id="svg_192" transform="matrix(1.5,0,0,1.5,790,516)"><path style="fill:#ff5293;fill-opacity:1;stroke:#ff2c76;stroke-width:1;stroke-linecap:round;stroke-opacity:1" id="svg_193" d="m -192,-48 h 60 v 20 h -60 v -8 -1 h -6 v 3 h -2 v -8 h 2 v 3 h 6 v -1 z"/><text style="font-size:10px;font-family:sans-serif;text-anchor:start;fill:#282828" id="svg_194" x="-200.5" y="-48.5"><tspan id="svg_195" x="-187.5" y="-34.5">5</tspan></text></g></g><g id="svg_196"><g id="svg_197" transform="matrix(1.5,0,0,1.5,300,77)"><path style="fill:#d68136;fill-opacity:1;stroke:#b7651a;stroke-width:1;stroke-linecap:round;stroke-opacity:1" id="svg_198" d="m -200,-40 v -4 a 4,4 90 0 1 4,-4 h 4 v 2 h 10 v -2 h 9 20 4 a 4,4 90 0 1 4,4 v 4 h -4 v -3 h -4 v 10 h 4 v -3 h 4 v 4 a 4,4 90 0 1 -4,4 h -4 -20 -1 v 2 h -8 v -2 h -1 -4 a 5,5 90 0 0 -5,5 v 4 4 294 4 a 5,5 90 0 0 5,5 h 4 v 2 h 10 v -2 h 8 v 6 6 4 a 4,4 90 0 1 -4,4 h -4 -9 -1 v 2 h -8 v -2 h -1 -4 a 4,4 90 0 1 -4,-4 v -4 z"/><text style="font-size:10px;font-family:sans-serif;text-anchor:start;fill:#282828" id="svg_199" x="-200.5" y="-48.5"><tspan id="svg_200" x="-195.5" y="-33.5">repetir</tspan></text></g></g><g id="svg_203"><g id="svg_204" transform="matrix(1.5,0,0,1.5,372,77)"><path style="fill:#ff5293;fill-opacity:1;stroke:#ff2c76;stroke-width:1;stroke-linecap:round;stroke-opacity:1" id="svg_205" d="m -192,-48 h 60 v 20 h -60 v -8 -1 h -6 v 3 h -2 v -8 h 2 v 3 h 6 v -1 z"/><text style="font-size:10px;font-family:sans-serif;text-anchor:start;fill:#282828" id="svg_206" x="-200.5" y="-48.5"><tspan id="svg_207" x="-187.5" y="-34.5">4</tspan></text></g></g><g id="svg_208"><g id="svg_209"><g id="svg_210" transform="matrix(1.5,0,0,1.5,314,109)"><path style="fill:#fe994f;fill-opacity:1;stroke:#e86b0e;stroke-width:1;stroke-linecap:round;stroke-opacity:1" id="svg_211" d="m -200,-40 v -4 a 4,4 90 0 1 4,-4 h 4 v 2 h 10 v -2 h 9 60 4 a 4,4 90 0 1 4,4 v 4 h -4 v -3 h -4 v 10 h 4 v -3 h 4 v 4 a 4,4 90 0 1 -4,4 h -4 -60 -1 v 2 h -8 v -2 h -1 -4 a 5,5 90 0 0 -5,5 v 4 4 42 4 a 5,5 90 0 0 5,5 h 4 v 2 h 10 v -2 h 8 v 6 6 4 a 4,4 90 0 1 -4,4 h -4 -9 -1 v 2 h -8 v -2 h -1 -4 a 4,4 90 0 1 -4,-4 v -4 z"/><text style="font-size:10px;font-family:sans-serif;text-anchor:start;fill:#282828" id="svg_212" x="-200.5" y="-48.5"><tspan id="svg_213" x="-180.5" y="-33.5">nota</tspan></text><text style="font-size:6.66666651px;font-family:sans-serif;text-anchor:end;fill:#282828" id="svg_214" x="-200.5" y="-48.5"><tspan id="svg_215" x="-115.5" y="-36.5">valor</tspan></text></g></g><g id="svg_216" transform="matrix(0.5,0,0,0.5,314,113)"><g style="isolation:isolate" id="svg_217"><g id="g208" data-name="レイヤー 2"><g id="g206"><rect style="opacity:.4;mix-blend-mode:multiply;fill:#292929" id="svg_218" width="42" height="42" x="-601.5" y="-145.5" rx="5" ry="5"/><path style="fill:#fff" id="svg_219" d="m -570.94,-115.7 -4.17,-4.16 h 2.26 a 1.035,1.035 0 1 0 0,-2.07 h -4.71 a 1.08,1.08 0 0 0 -1.11,1 v 0 c 0,0 0,0 0,0.06 v 4.64 0 a 1.04,1.04 0 1 0 2.08,0 v -2.19 l 4.19,4.19 a 1,1 0 0 0 1.46,0 1,1 0 0 0 0,-1.47 z"/><path style="fill:#fff" id="svg_220" d="m -582.33,-120.9 a 1.08,1.08 0 0 0 -1.11,-1 h -4.71 a 1.035,1.035 0 1 0 0,2.07 h 2.25 l -4.16,4.13 a 1.039447,1.039447 0 0 0 1.47,1.47 l 4.18,-4.19 v 2.26 a 1.04,1.04 0 1 0 2.08,0 v -4.64 c 0,0 0,0 0,-0.06 a 0.08,0.08 0 0 1 0,-0.04 z"/><path style="fill:#fff" id="svg_221" d="m -577.56,-125 h 4.7 a 1.04,1.04 0 1 0 0,-2.08 h -2.25 l 4.17,-4.16 a 1,1 0 0 0 0,-1.47 1,1 0 0 0 -1.46,0 l -4.19,4.21 v -2.28 a 1.04,1.04 0 1 0 -2.08,0 v 4.64 a 0.43000001,0.43000001 0 0 0 0,0.05 v 0.05 a 1.09,1.09 0 0 0 1.11,1.04 z"/><path style="fill:#fff" id="svg_222" d="m -583.37,-131.88 a 1.08,1.08 0 0 0 -1,1.09 v 2.29 l -4.18,-4.19 a 1,1 0 0 0 -1.47,0 1,1 0 0 0 0,1.46 l 4.16,4.17 h -2.29 a 1.04,1.04 0 1 0 0,2.08 h 4.71 a 1.09,1.09 0 0 0 1.11,-1 c 0,0 0,0 0,-0.06 v -4.75 a 1.0700001,1.0700001 0 0 0 -1.04,-1.09 z"/></g></g></g></g></g><g id="svg_223"><g id="svg_224" transform="matrix(1.5,0,0,1.5,446,109)"><path style="fill:#ff5293;fill-opacity:1;stroke:#ff2c76;stroke-width:1;stroke-linecap:round;stroke-opacity:1" id="svg_225" d="m -192,-40 v -4 a 4,4 90 0 1 4,-4 h 4 10 30 4 a 4,4 90 0 1 4,4 v 4 h -4 v -3 h -4 v 10 h 4 v -3 h 4 v 17 h -4 v -3 h -4 v 10 h 4 v -3 h 4 v 4 a 4,4 90 0 1 -4,4 h -4 -30 -10 -4 a 4,4 90 0 1 -4,-4 v -4 -21 -1 h -6 v 3 h -2 v -8 h 2 v 3 h 6 z"/><text style="font-size:9px;font-family:sans-serif;text-anchor:end;fill:#282828" id="svg_226" x="-200.5" y="-48.5"><tspan id="svg_227" x="-146.5" y="-25.5">➗</tspan></text></g></g><g id="svg_232"><g id="svg_233" transform="matrix(1.5,0,0,1.5,532,109)"><path style="fill:#ff5293;fill-opacity:1;stroke:#ff2c76;stroke-width:1;stroke-linecap:round;stroke-opacity:1" id="svg_234" d="m -192,-48 h 60 v 20 h -60 v -8 -1 h -6 v 3 h -2 v -8 h 2 v 3 h 6 v -1 z"/><text style="font-size:10px;font-family:sans-serif;text-anchor:start;fill:#282828" id="svg_235" x="-200.5" y="-48.5"><tspan id="svg_236" x="-187.5" y="-34.5">1</tspan></text></g></g><g id="svg_237"><g id="svg_238" transform="matrix(1.5,0,0,1.5,532,141)"><path style="fill:#ff5293;fill-opacity:1;stroke:#ff2c76;stroke-width:1;stroke-linecap:round;stroke-opacity:1" id="svg_239" d="m -192,-48 h 60 v 20 h -60 v -8 -1 h -6 v 3 h -2 v -8 h 2 v 3 h 6 v -1 z"/><text style="font-size:10px;font-family:sans-serif;text-anchor:start;fill:#282828" id="svg_240" x="-200.5" y="-48.5"><tspan id="svg_241" x="-187.5" y="-34.5">4</tspan></text></g></g><g id="svg_242"><g id="svg_243" transform="matrix(1.5,0,0,1.5,328,141)"><path style="fill:#b0b0b0;fill-opacity:1;stroke:#a0a0a0;stroke-width:1;stroke-linecap:round;stroke-opacity:1" id="svg_244" d="m -200,-40 v -4 a 4,4 90 0 1 4,-4 h 4 v 2 h 10 v -2 h 20 4 a 4,4 90 0 1 4,4 v 4 4 4 a 4,4 90 0 1 -4,4 h -4 -20 -1 v 2 h -8 v -2 h -1 -4 a 4,4 90 0 1 -4,-4 v -4 z"/><text style="font-size:10px;font-family:sans-serif;text-anchor:end;fill:#282828" id="svg_245" x="-200.5" y="-48.5"><tspan id="svg_246" x="-164.5" y="-34.5">↓</tspan></text></g></g><g id="svg_247" transform="translate(66)"><g id="svg_248" transform="matrix(1.5,0,0,1.5,328,173)"><path style="fill:#77c428;fill-opacity:1;stroke:#57ad02;stroke-width:1;stroke-linecap:round;stroke-opacity:1" id="svg_249" d="m -244,-40 v -4 c 0,-2.209139 1.79086,-4 4,-4 h 4 v 2 h 10 v -2 h 74 4 c 2.20914,0 4,1.790861 4,4 v 4 h -4 v -3 h -4 v 10 h 4 v -3 h 4 v 17 h -4 v -3 h -4 v 10 h 4 v -3 h 4 v 4 c 0,2.209139 -1.79086,4 -4,4 h -4 -74 -1 v 2 h -8 v -2 h -1 -4 c -2.20914,0 -4,-1.790861 -4,-4 v -4 -21 z"/><text style="font-size:10px;font-family:sans-serif;text-anchor:end;fill:#282828" id="svg_250" x="-200.5" y="-48.5"><tspan id="svg_251" x="-154.5" y="-24.5">determinar o tom</tspan></text><text style="font-size:6.66666651px;font-family:sans-serif;text-anchor:end;fill:#282828" id="svg_252" x="-200.5" y="-48.5"><tspan id="svg_253" x="-154.5" y="-36.5">nome</tspan></text><text style="font-size:6.66666651px;font-family:sans-serif;text-anchor:end;fill:#282828" id="svg_254" x="-200.5" y="-48.5"><tspan id="svg_255" x="-154.5" y="-15.5">oitava</tspan></text></g></g><g id="svg_256" transform="translate(66)"><g id="svg_257" transform="matrix(1.5,0,0,1.5,402,173)"><path style="fill:#77c428;fill-opacity:1;stroke:#57ad02;stroke-width:1;stroke-linecap:round;stroke-opacity:1" id="svg_258" d="m -192,-48 h 60 v 20 h -60 v -8 -1 h -6 v 3 h -2 v -8 h 2 v 3 h 6 v -1 z"/><text style="font-size:10px;font-family:sans-serif;text-anchor:start;fill:#282828" id="svg_259" x="-200.5" y="-48.5"><tspan id="svg_260" x="-187.5" y="-34.5">sol</tspan></text></g></g><g id="svg_261" transform="translate(66)"><g id="svg_262" transform="matrix(1.5,0,0,1.5,402,205)"><path style="fill:#ff5293;fill-opacity:1;stroke:#ff2c76;stroke-width:1;stroke-linecap:round;stroke-opacity:1" id="svg_263" d="m -192,-48 h 60 v 20 h -60 v -8 -1 h -6 v 3 h -2 v -8 h 2 v 3 h 6 v -1 z"/><text style="font-size:10px;font-family:sans-serif;text-anchor:start;fill:#282828" id="svg_264" x="-200.5" y="-48.5"><tspan id="svg_265" x="-187.5" y="-34.5">5</tspan></text></g></g><g id="svg_266"><g id="svg_267"><g id="svg_268" transform="matrix(1.5,0,0,1.5,314,267)"><path style="fill:#fe994f;fill-opacity:1;stroke:#e86b0e;stroke-width:1;stroke-linecap:round;stroke-opacity:1" id="svg_269" d="m -200,-40 v -4 a 4,4 90 0 1 4,-4 h 4 v 2 h 10 v -2 h 9 60 4 a 4,4 90 0 1 4,4 v 4 h -4 v -3 h -4 v 10 h 4 v -3 h 4 v 4 a 4,4 90 0 1 -4,4 h -4 -60 -1 v 2 h -8 v -2 h -1 -4 a 5,5 90 0 0 -5,5 v 4 4 42 4 a 5,5 90 0 0 5,5 h 4 v 2 h 10 v -2 h 8 v 6 6 4 a 4,4 90 0 1 -4,4 h -4 -9 -1 v 2 h -8 v -2 h -1 -4 a 4,4 90 0 1 -4,-4 v -4 z"/><text style="font-size:10px;font-family:sans-serif;text-anchor:start;fill:#282828" id="svg_270" x="-200.5" y="-48.5"><tspan id="svg_271" x="-180.5" y="-33.5">nota</tspan></text><text style="font-size:6.66666651px;font-family:sans-serif;text-anchor:end;fill:#282828" id="svg_272" x="-200.5" y="-48.5"><tspan id="svg_273" x="-115.5" y="-36.5">valor</tspan></text></g></g><g id="svg_274" transform="matrix(0.5,0,0,0.5,314,271)"><g style="isolation:isolate" id="svg_275"><g id="g268" data-name="レイヤー 2"><g id="g266"><rect style="opacity:.4;mix-blend-mode:multiply;fill:#292929" id="svg_276" width="42" height="42" x="-601.5" y="-145.5" rx="5" ry="5"/><path style="fill:#fff" id="svg_277" d="m -570.94,-115.7 -4.17,-4.16 h 2.26 a 1.035,1.035 0 1 0 0,-2.07 h -4.71 a 1.08,1.08 0 0 0 -1.11,1 v 0 c 0,0 0,0 0,0.06 v 4.64 0 a 1.04,1.04 0 1 0 2.08,0 v -2.19 l 4.19,4.19 a 1,1 0 0 0 1.46,0 1,1 0 0 0 0,-1.47 z"/><path style="fill:#fff" id="svg_278" d="m -582.33,-120.9 a 1.08,1.08 0 0 0 -1.11,-1 h -4.71 a 1.035,1.035 0 1 0 0,2.07 h 2.25 l -4.16,4.13 a 1.039447,1.039447 0 0 0 1.47,1.47 l 4.18,-4.19 v 2.26 a 1.04,1.04 0 1 0 2.08,0 v -4.64 c 0,0 0,0 0,-0.06 a 0.08,0.08 0 0 1 0,-0.04 z"/><path style="fill:#fff" id="svg_279" d="m -577.56,-125 h 4.7 a 1.04,1.04 0 1 0 0,-2.08 h -2.25 l 4.17,-4.16 a 1,1 0 0 0 0,-1.47 1,1 0 0 0 -1.46,0 l -4.19,4.21 v -2.28 a 1.04,1.04 0 1 0 -2.08,0 v 4.64 a 0.43000001,0.43000001 0 0 0 0,0.05 v 0.05 a 1.09,1.09 0 0 0 1.11,1.04 z"/><path style="fill:#fff" id="svg_280" d="m -583.37,-131.88 a 1.08,1.08 0 0 0 -1,1.09 v 2.29 l -4.18,-4.19 a 1,1 0 0 0 -1.47,0 1,1 0 0 0 0,1.46 l 4.16,4.17 h -2.29 a 1.04,1.04 0 1 0 0,2.08 h 4.71 a 1.09,1.09 0 0 0 1.11,-1 c 0,0 0,0 0,-0.06 v -4.75 a 1.0700001,1.0700001 0 0 0 -1.04,-1.09 z"/></g></g></g></g></g><g id="svg_281"><g id="svg_282" transform="matrix(1.5,0,0,1.5,446,267)"><path style="fill:#ff5293;fill-opacity:1;stroke:#ff2c76;stroke-width:1;stroke-linecap:round;stroke-opacity:1" id="svg_283" d="m -192,-40 v -4 a 4,4 90 0 1 4,-4 h 4 10 30 4 a 4,4 90 0 1 4,4 v 4 h -4 v -3 h -4 v 10 h 4 v -3 h 4 v 17 h -4 v -3 h -4 v 10 h 4 v -3 h 4 v 4 a 4,4 90 0 1 -4,4 h -4 -30 -10 -4 a 4,4 90 0 1 -4,-4 v -4 -21 -1 h -6 v 3 h -2 v -8 h 2 v 3 h 6 z"/><text style="font-size:9px;font-family:sans-serif;text-anchor:end;fill:#282828" id="svg_284" x="-200.5" y="-48.5"><tspan id="svg_285" x="-146.5" y="-25.5">➗</tspan></text></g></g><g id="svg_290"><g id="svg_291" transform="matrix(1.5,0,0,1.5,532,267)"><path style="fill:#ff5293;fill-opacity:1;stroke:#ff2c76;stroke-width:1;stroke-linecap:round;stroke-opacity:1" id="svg_292" d="m -192,-48 h 60 v 20 h -60 v -8 -1 h -6 v 3 h -2 v -8 h 2 v 3 h 6 v -1 z"/><text style="font-size:10px;font-family:sans-serif;text-anchor:start;fill:#282828" id="svg_293" x="-200.5" y="-48.5"><tspan id="svg_294" x="-187.5" y="-34.5">1</tspan></text></g></g><g id="svg_295"><g id="svg_296" transform="matrix(1.5,0,0,1.5,532,299)"><path style="fill:#ff5293;fill-opacity:1;stroke:#ff2c76;stroke-width:1;stroke-linecap:round;stroke-opacity:1" id="svg_297" d="m -192,-48 h 60 v 20 h -60 v -8 -1 h -6 v 3 h -2 v -8 h 2 v 3 h 6 v -1 z"/><text style="font-size:10px;font-family:sans-serif;text-anchor:start;fill:#282828" id="svg_298" x="-200.5" y="-48.5"><tspan id="svg_299" x="-187.5" y="-34.5">4</tspan></text></g></g><g id="svg_300"><g id="svg_301" transform="matrix(1.5,0,0,1.5,328,299)"><path style="fill:#b0b0b0;fill-opacity:1;stroke:#a0a0a0;stroke-width:1;stroke-linecap:round;stroke-opacity:1" id="svg_302" d="m -200,-40 v -4 a 4,4 90 0 1 4,-4 h 4 v 2 h 10 v -2 h 20 4 a 4,4 90 0 1 4,4 v 4 4 4 a 4,4 90 0 1 -4,4 h -4 -20 -1 v 2 h -8 v -2 h -1 -4 a 4,4 90 0 1 -4,-4 v -4 z"/><text style="font-size:10px;font-family:sans-serif;text-anchor:end;fill:#282828" id="svg_303" x="-200.5" y="-48.5"><tspan id="svg_304" x="-164.5" y="-34.5">↓</tspan></text></g></g><g id="svg_305" transform="translate(66)"><g id="svg_306" transform="matrix(1.5,0,0,1.5,328,331)"><path style="fill:#77c428;fill-opacity:1;stroke:#57ad02;stroke-width:1;stroke-linecap:round;stroke-opacity:1" id="svg_307" d="m -244,-40 v -4 c 0,-2.209139 1.79086,-4 4,-4 h 4 v 2 h 10 v -2 h 74 4 c 2.20914,0 4,1.790861 4,4 v 4 h -4 v -3 h -4 v 10 h 4 v -3 h 4 v 17 h -4 v -3 h -4 v 10 h 4 v -3 h 4 v 4 c 0,2.209139 -1.79086,4 -4,4 h -4 -74 -1 v 2 h -8 v -2 h -1 -4 c -2.20914,0 -4,-1.790861 -4,-4 v -4 -21 z"/><text style="font-size:10px;font-family:sans-serif;text-anchor:end;fill:#282828" id="svg_308" x="-200.5" y="-48.5"><tspan id="svg_309" x="-154.5" y="-24.5">determinar o tom</tspan></text><text style="font-size:6.66666651px;font-family:sans-serif;text-anchor:end;fill:#282828" id="svg_310" x="-200.5" y="-48.5"><tspan id="svg_311" x="-154.5" y="-36.5">nome</tspan></text><text style="font-size:6.66666651px;font-family:sans-serif;text-anchor:end;fill:#282828" id="svg_312" x="-200.5" y="-48.5"><tspan id="svg_313" x="-154.5" y="-15.5">oitava</tspan></text></g></g><g id="svg_314" transform="translate(66)"><g id="svg_315" transform="matrix(1.5,0,0,1.5,402,331)"><path style="fill:#77c428;fill-opacity:1;stroke:#57ad02;stroke-width:1;stroke-linecap:round;stroke-opacity:1" id="svg_316" d="m -192,-48 h 60 v 20 h -60 v -8 -1 h -6 v 3 h -2 v -8 h 2 v 3 h 6 v -1 z"/><text style="font-size:10px;font-family:sans-serif;text-anchor:start;fill:#282828" id="svg_317" x="-200.5" y="-48.5"><tspan id="svg_318" x="-187.5" y="-34.5">re</tspan></text></g></g><g id="svg_319" transform="translate(66)"><g id="svg_320" transform="matrix(1.5,0,0,1.5,402,363)"><path style="fill:#ff5293;fill-opacity:1;stroke:#ff2c76;stroke-width:1;stroke-linecap:round;stroke-opacity:1" id="svg_321" d="m -192,-48 h 60 v 20 h -60 v -8 -1 h -6 v 3 h -2 v -8 h 2 v 3 h 6 v -1 z"/><text style="font-size:10px;font-family:sans-serif;text-anchor:start;fill:#282828" id="svg_322" x="-200.5" y="-48.5"><tspan id="svg_323" x="-187.5" y="-34.5">5</tspan></text></g></g><g id="svg_324"><g id="svg_325"><g id="svg_326" transform="matrix(1.5,0,0,1.5,314,425)"><path style="fill:#fe994f;fill-opacity:1;stroke:#e86b0e;stroke-width:1;stroke-linecap:round;stroke-opacity:1" id="svg_327" d="m -200,-40 v -4 a 4,4 90 0 1 4,-4 h 4 v 2 h 10 v -2 h 9 60 4 a 4,4 90 0 1 4,4 v 4 h -4 v -3 h -4 v 10 h 4 v -3 h 4 v 4 a 4,4 90 0 1 -4,4 h -4 -60 -1 v 2 h -8 v -2 h -1 -4 a 5,5 90 0 0 -5,5 v 4 4 42 4 a 5,5 90 0 0 5,5 h 4 v 2 h 10 v -2 h 8 v 6 6 4 a 4,4 90 0 1 -4,4 h -4 -9 -1 v 2 h -8 v -2 h -1 -4 a 4,4 90 0 1 -4,-4 v -4 z"/><text style="font-size:10px;font-family:sans-serif;text-anchor:start;fill:#282828" id="svg_328" x="-200.5" y="-48.5"><tspan id="svg_329" x="-180.5" y="-33.5">nota</tspan></text><text style="font-size:6.66666651px;font-family:sans-serif;text-anchor:end;fill:#282828" id="svg_330" x="-200.5" y="-48.5"><tspan id="svg_331" x="-115.5" y="-36.5">valor</tspan></text></g></g><g id="svg_332" transform="matrix(0.5,0,0,0.5,314,429)"><g style="isolation:isolate" id="svg_333"><g id="g328" data-name="レイヤー 2"><g id="g326"><rect style="opacity:.4;mix-blend-mode:multiply;fill:#292929" id="svg_334" width="42" height="42" x="-601.5" y="-145.5" rx="5" ry="5"/><path style="fill:#fff" id="svg_335" d="m -570.94,-115.7 -4.17,-4.16 h 2.26 a 1.035,1.035 0 1 0 0,-2.07 h -4.71 a 1.08,1.08 0 0 0 -1.11,1 v 0 c 0,0 0,0 0,0.06 v 4.64 0 a 1.04,1.04 0 1 0 2.08,0 v -2.19 l 4.19,4.19 a 1,1 0 0 0 1.46,0 1,1 0 0 0 0,-1.47 z"/><path style="fill:#fff" id="svg_336" d="m -582.33,-120.9 a 1.08,1.08 0 0 0 -1.11,-1 h -4.71 a 1.035,1.035 0 1 0 0,2.07 h 2.25 l -4.16,4.13 a 1.039447,1.039447 0 0 0 1.47,1.47 l 4.18,-4.19 v 2.26 a 1.04,1.04 0 1 0 2.08,0 v -4.64 c 0,0 0,0 0,-0.06 a 0.08,0.08 0 0 1 0,-0.04 z"/><path style="fill:#fff" id="svg_337" d="m -577.56,-125 h 4.7 a 1.04,1.04 0 1 0 0,-2.08 h -2.25 l 4.17,-4.16 a 1,1 0 0 0 0,-1.47 1,1 0 0 0 -1.46,0 l -4.19,4.21 v -2.28 a 1.04,1.04 0 1 0 -2.08,0 v 4.64 a 0.43000001,0.43000001 0 0 0 0,0.05 v 0.05 a 1.09,1.09 0 0 0 1.11,1.04 z"/><path style="fill:#fff" id="svg_338" d="m -583.37,-131.88 a 1.08,1.08 0 0 0 -1,1.09 v 2.29 l -4.18,-4.19 a 1,1 0 0 0 -1.47,0 1,1 0 0 0 0,1.46 l 4.16,4.17 h -2.29 a 1.04,1.04 0 1 0 0,2.08 h 4.71 a 1.09,1.09 0 0 0 1.11,-1 c 0,0 0,0 0,-0.06 v -4.75 a 1.0700001,1.0700001 0 0 0 -1.04,-1.09 z"/></g></g></g></g></g><g id="svg_339"><g id="svg_340" transform="matrix(1.5,0,0,1.5,446,425)"><path style="fill:#ff5293;fill-opacity:1;stroke:#ff2c76;stroke-width:1;stroke-linecap:round;stroke-opacity:1" id="svg_341" d="m -192,-40 v -4 a 4,4 90 0 1 4,-4 h 4 10 30 4 a 4,4 90 0 1 4,4 v 4 h -4 v -3 h -4 v 10 h 4 v -3 h 4 v 17 h -4 v -3 h -4 v 10 h 4 v -3 h 4 v 4 a 4,4 90 0 1 -4,4 h -4 -30 -10 -4 a 4,4 90 0 1 -4,-4 v -4 -21 -1 h -6 v 3 h -2 v -8 h 2 v 3 h 6 z"/><text style="font-size:9px;font-family:sans-serif;text-anchor:end;fill:#282828" id="svg_342" x="-200.5" y="-48.5"><tspan id="svg_343" x="-146.5" y="-25.5">➗</tspan></text></g></g><g id="svg_348"><g id="svg_349" transform="matrix(1.5,0,0,1.5,532,425)"><path style="fill:#ff5293;fill-opacity:1;stroke:#ff2c76;stroke-width:1;stroke-linecap:round;stroke-opacity:1" id="svg_350" d="m -192,-48 h 60 v 20 h -60 v -8 -1 h -6 v 3 h -2 v -8 h 2 v 3 h 6 v -1 z"/><text style="font-size:10px;font-family:sans-serif;text-anchor:start;fill:#282828" id="svg_351" x="-200.5" y="-48.5"><tspan id="svg_352" x="-187.5" y="-34.5">1</tspan></text></g></g><g id="svg_353"><g id="svg_354" transform="matrix(1.5,0,0,1.5,532,457)"><path style="fill:#ff5293;fill-opacity:1;stroke:#ff2c76;stroke-width:1;stroke-linecap:round;stroke-opacity:1" id="svg_355" d="m -192,-48 h 60 v 20 h -60 v -8 -1 h -6 v 3 h -2 v -8 h 2 v 3 h 6 v -1 z"/><text style="font-size:10px;font-family:sans-serif;text-anchor:start;fill:#282828" id="svg_356" x="-200.5" y="-48.5"><tspan id="svg_357" x="-187.5" y="-34.5">2</tspan></text></g></g><g id="svg_358"><g id="svg_359" transform="matrix(1.5,0,0,1.5,328,457)"><path style="fill:#b0b0b0;fill-opacity:1;stroke:#a0a0a0;stroke-width:1;stroke-linecap:round;stroke-opacity:1" id="svg_360" d="m -200,-40 v -4 a 4,4 90 0 1 4,-4 h 4 v 2 h 10 v -2 h 20 4 a 4,4 90 0 1 4,4 v 4 4 4 a 4,4 90 0 1 -4,4 h -4 -20 -1 v 2 h -8 v -2 h -1 -4 a 4,4 90 0 1 -4,-4 v -4 z"/><text style="font-size:10px;font-family:sans-serif;text-anchor:end;fill:#282828" id="svg_361" x="-200.5" y="-48.5"><tspan id="svg_362" x="-164.5" y="-34.5">↓</tspan></text></g></g><g id="svg_363" transform="translate(66)"><g id="svg_364" transform="matrix(1.5,0,0,1.5,328,489)"><path style="fill:#77c428;fill-opacity:1;stroke:#57ad02;stroke-width:1;stroke-linecap:round;stroke-opacity:1" id="svg_365" d="m -244,-40 v -4 c 0,-2.209139 1.79086,-4 4,-4 h 4 v 2 h 10 v -2 h 74 4 c 2.20914,0 4,1.790861 4,4 v 4 h -4 v -3 h -4 v 10 h 4 v -3 h 4 v 17 h -4 v -3 h -4 v 10 h 4 v -3 h 4 v 4 c 0,2.209139 -1.79086,4 -4,4 h -4 -74 -1 v 2 h -8 v -2 h -1 -4 c -2.20914,0 -4.69859,-1.9042267 -4,-4 v -4 -21 z"/><text style="font-size:10px;font-family:sans-serif;text-anchor:end;fill:#282828" id="svg_366" x="-200.5" y="-48.5"><tspan id="svg_367" x="-154.5" y="-24.5">determinar o tom</tspan></text><text style="font-size:6.66666651px;font-family:sans-serif;text-anchor:end;fill:#282828" id="svg_368" x="-200.5" y="-48.5"><tspan id="svg_369" x="-154.5" y="-36.5">nome</tspan></text><text style="font-size:6.66666651px;font-family:sans-serif;text-anchor:end;fill:#282828" id="svg_370" x="-200.5" y="-48.5"><tspan id="svg_371" x="-154.5" y="-15.5">oitava</tspan></text></g></g><g id="svg_372" transform="translate(66)"><g id="svg_373" transform="matrix(1.5,0,0,1.5,402,489)"><path style="fill:#77c428;fill-opacity:1;stroke:#57ad02;stroke-width:1;stroke-linecap:round;stroke-opacity:1" id="svg_374" d="m -192,-48 h 60 v 20 h -60 v -8 -1 h -6 v 3 h -2 v -8 h 2 v 3 h 6 v -1 z"/><text style="font-size:10px;font-family:sans-serif;text-anchor:start;fill:#282828" id="svg_375" x="-200.5" y="-48.5"><tspan id="svg_376" x="-187.5" y="-34.5">sol</tspan></text></g></g><g id="svg_377" transform="translate(66)"><g id="svg_378" transform="matrix(1.5,0,0,1.5,402,521)"><path style="fill:#ff5293;fill-opacity:1;stroke:#ff2c76;stroke-width:1;stroke-linecap:round;stroke-opacity:1" id="svg_379" d="m -192,-48 h 60 v 20 h -60 v -8 -1 h -6 v 3 h -2 v -8 h 2 v 3 h 6 v -1 z"/><text style="font-size:10px;font-family:sans-serif;text-anchor:start;fill:#282828" id="svg_380" x="-200.5" y="-48.5"><tspan id="svg_381" x="-187.5" y="-34.5">5</tspan></text></g></g><g id="svg_382"><g id="svg_383" transform="matrix(1.5,0,0,1.5,688,72)"><path style="fill:#d68136;fill-opacity:1;stroke:#b7651a;stroke-width:1;stroke-linecap:round;stroke-opacity:1" id="svg_384" d="m -200,-40 v -4 a 4,4 90 0 1 4,-4 h 4 v 2 h 10 v -2 h 9 34 4 a 4,4 90 0 1 4,4 v 4 h -4 v -3 h -4 v 10 h 4 v -3 h 4 v 4 a 4,4 90 0 1 -4,4 h -4 -34 -1 v 2 h -8 v -2 h -1 -4 a 5,5 90 0 0 -5,5 v 4 4 294 4 a 5,5 90 0 0 5,5 h 4 v 2 h 10 v -2 h 8 v 6 6 4 a 4,4 90 0 1 -4,4 h -4 -9 -1 v 2 h -8 v -2 h -1 -4 a 4,4 90 0 1 -4,-4 v -4 z"/><text style="font-size:10px;font-family:sans-serif;text-anchor:start;fill:#282828" id="svg_385" x="-200.5" y="-48.5"><tspan id="svg_386" x="-195.5" y="-33.5">duplicar</tspan></text></g></g><g id="svg_389"><g id="svg_390" transform="matrix(1.5,0,0,1.5,781,72)"><path style="fill:#ff5293;fill-opacity:1;stroke:#ff2c76;stroke-width:1;stroke-linecap:round;stroke-opacity:1" id="svg_391" d="m -192,-48 h 60 v 20 h -60 v -8 -1 h -6 v 3 h -2 v -8 h 2 v 3 h 6 v -1 z"/><text style="font-size:10px;font-family:sans-serif;text-anchor:start;fill:#282828" id="svg_392" x="-200.5" y="-48.5"><tspan id="svg_393" x="-187.5" y="-34.5">4</tspan></text></g></g></svg>