<svg xmlns="http://www.w3.org/2000/svg" xmlns:svg="http://www.w3.org/2000/svg" id="svg7569" width="592.5" height="444" version="1.1"><metadata id="metadata7575"/><rect id="backgroundrect" width="100%" height="100%" x="0" y=".75" style="fill:none;stroke:none"/><g id="svg_15" transform="translate(5e-6,0.750004)"><g id="svg_16"><g id="svg_17" transform="matrix(1.5,0,0,1.5,357,200)"><path id="svg_18" d="m -228.16667,-61.333336 v -4 a 4,4 90 0 1 4,-4 h 4 v 2 h 10 v -2 h 9 60 4 a 4,4 90 0 1 4,4 v 4 h -4 v -3 h -4 v 10 h 4 v -3 h 4 v 4 a 4,4 90 0 1 -4,4 h -4 -60 -1 v 2 h -8 v -2 h -1 -4 a 5,5 90 0 0 -5,5 v 4 4 42.0000001 4 a 5,5 90 0 0 5,4.9999999 h 4 v 2 h 10 v -2 h 8 v 6 6 4 a 4,4 90 0 1 -4,4 h -4 -9 -1 v 2 h -8 v -2 h -1 -4 a 4,4 90 0 1 -4,-4 v -4 z" style="fill:#fe994f;fill-opacity:1;stroke:#e86b0e;stroke-width:1;stroke-linecap:round;stroke-opacity:1"/><text id="svg_19" x="-228.667" y="-69.833" style="font-size:10px;font-family:sans-serif;text-anchor:start;fill:#282828"><tspan id="svg_20" x="-208.667" y="-54.833">nota</tspan></text><text id="svg_21" x="-228.667" y="-69.833" style="font-size:6.66666651px;font-family:sans-serif;text-anchor:end;fill:#282828"><tspan id="svg_22" x="-143.667" y="-57.833">valor</tspan></text></g></g><g id="svg_23" transform="matrix(0.5,0,0,0.5,357,204)"><g id="svg_24" style="isolation:isolate"><g id="レイヤー_2" data-name="レイヤー 2"><g id="Icon"><rect id="svg_25" width="42" height="42" x="-686" y="-209.5" rx="5" ry="5" style="opacity:.4;mix-blend-mode:multiply;fill:#292929"/><path id="svg_26" d="m -655.44,-179.7 -4.17,-4.16 h 2.26 a 1.035,1.035 0 1 0 0,-2.07 h -4.71 a 1.08,1.08 0 0 0 -1.11,1 v 0 c 0,0 0,0 0,0.06 v 4.64 0 a 1.04,1.04 0 1 0 2.08,0 v -2.19 l 4.19,4.19 a 1,1 0 0 0 1.46,0 1,1 0 0 0 0,-1.47 z" style="fill:#fff"/><path id="svg_27" d="m -666.83,-184.9 a 1.08,1.08 0 0 0 -1.11,-1 h -4.71 a 1.035,1.035 0 1 0 0,2.07 h 2.25 l -4.16,4.13 a 1.039447,1.039447 0 0 0 1.47,1.47 l 4.18,-4.19 v 2.26 a 1.04,1.04 0 1 0 2.08,0 v -4.64 c 0,0 0,0 0,-0.06 a 0.08,0.08 0 0 1 0,-0.04 z" style="fill:#fff"/><path id="svg_28" d="m -662.06,-189 h 4.7 a 1.04,1.04 0 1 0 0,-2.08 h -2.25 l 4.17,-4.16 a 1,1 0 0 0 0,-1.47 1,1 0 0 0 -1.46,0 l -4.19,4.21 v -2.28 a 1.04,1.04 0 1 0 -2.08,0 v 4.64 a 0.43000001,0.43000001 0 0 0 0,0.05 v 0.05 a 1.09,1.09 0 0 0 1.11,1.04 z" style="fill:#fff"/><path id="svg_29" d="m -667.87,-195.88 a 1.08,1.08 0 0 0 -1,1.09 v 2.29 l -4.18,-4.19 a 1,1 0 0 0 -1.47,0 1,1 0 0 0 0,1.46 l 4.16,4.17 h -2.29 a 1.04,1.04 0 1 0 0,2.08 h 4.71 a 1.09,1.09 0 0 0 1.11,-1 c 0,0 0,0 0,-0.06 v -4.75 a 1.0700001,1.0700001 0 0 0 -1.04,-1.09 z" style="fill:#fff"/></g></g></g></g></g><g id="svg_30" transform="translate(5e-6,0.750004)"><g id="svg_31" transform="matrix(1.5,0,0,1.5,489,200)"><path id="svg_32" d="m -220.16667,-61.333336 v -4 a 4,4 90 0 1 4,-4 h 4 10 30 4 a 4,4 90 0 1 4,4 v 4 h -4 v -3 h -4 v 10 h 4 v -3 h 4 v 17 h -4 v -3 h -4 v 10 h 4 v -3 h 4 v 4 a 4,4 90 0 1 -4,4 h -4 -30 -10 -4 a 4,4 90 0 1 -4,-4 v -4 -21 -1 h -6 v 3 h -2 v -8 h 2 v 3 h 6 z" style="fill:#ff5293;fill-opacity:1;stroke:#ff2c76;stroke-width:1;stroke-linecap:round;stroke-opacity:1"/><text id="svg_33" x="-228.667" y="-69.833" style="font-size:9px;font-family:sans-serif;text-anchor:end;fill:#282828"><tspan id="svg_34" x="-174.667" y="-46.833">➗</tspan></text></g></g><g id="svg_39" transform="translate(5e-6,0.750004)"><g id="svg_40" transform="matrix(1.5,0,0,1.5,575,200)"><path id="svg_41" d="m -220.16667,-69.333336 h 60 v 20 h -60 v -8 -1 h -6 v 3 h -2 v -8 h 2 v 3 h 6 v -1 z" style="fill:#ff5293;fill-opacity:1;stroke:#ff2c76;stroke-width:1;stroke-linecap:round;stroke-opacity:1"/><text id="svg_42" x="-228.667" y="-69.833" style="font-size:10px;font-family:sans-serif;text-anchor:start;fill:#282828"><tspan id="svg_43" x="-215.667" y="-55.833">1</tspan></text></g></g><g id="svg_44" transform="translate(5e-6,0.750004)"><g id="svg_45" transform="matrix(1.5,0,0,1.5,575,232)"><path id="svg_46" d="m -220.16667,-69.333336 h 60 v 20 h -60 v -8 -1 h -6 v 3 h -2 v -8 h 2 v 3 h 6 v -1 z" style="fill:#ff5293;fill-opacity:1;stroke:#ff2c76;stroke-width:1;stroke-linecap:round;stroke-opacity:1"/><text id="svg_47" x="-228.667" y="-69.833" style="font-size:10px;font-family:sans-serif;text-anchor:start;fill:#282828"><tspan id="svg_48" x="-215.667" y="-55.833">4</tspan></text></g></g><g id="svg_49" transform="translate(5e-6,0.750004)"><g id="svg_50" transform="matrix(1.5,0,0,1.5,371,232)"><path id="svg_51" d="m -228.16667,-61.333336 v -4 a 4,4 90 0 1 4,-4 h 4 v 2 h 10 v -2 h 20 4 a 4,4 90 0 1 4,4 v 4 4 4 a 4,4 90 0 1 -4,4 h -4 -20 -1 v 2 h -8 v -2 h -1 -4 a 4,4 90 0 1 -4,-4 v -4 z" style="fill:#b0b0b0;fill-opacity:1;stroke:#a0a0a0;stroke-width:1;stroke-linecap:round;stroke-opacity:1"/><text id="svg_52" x="-228.667" y="-69.833" style="font-size:10px;font-family:sans-serif;text-anchor:end;fill:#282828"><tspan id="svg_53" x="-192.667" y="-55.833">↓</tspan></text></g></g><g id="svg_54" transform="translate(64.000005,0.750004)"><g id="svg_55" transform="matrix(1.5,0,0,1.5,371,264)"><path id="svg_56" d="m -270.83334,-61.333336 v -4 c 0,-2.209139 1.79086,-4 4,-4 h 4 v 2 h 10 v -2 h 72.66667 4 c 2.20914,0 4,1.790861 4,4 v 4 h -4 v -3 h -4 v 10 h 4 v -3 h 4 v 17 h -4 v -3 h -4 v 10 h 4 v -3 h 4 v 4 c 0,2.209139 -1.79086,4 -4,4 h -4 -72.66667 -1 v 2 h -8 v -2 h -1 -4 c -2.20914,0 -4.69859,-1.904227 -4,-4 v -4 -21 z" style="fill:#77c428;fill-opacity:1;stroke:#57ad02;stroke-width:1;stroke-linecap:round;stroke-opacity:1"/><text id="svg_57" x="-228.667" y="-69.833" style="font-size:10px;font-family:sans-serif;text-anchor:end;fill:#282828"><tspan id="svg_58" x="-182.667" y="-45.833">determinar o tom</tspan></text><text id="svg_59" x="-228.667" y="-69.833" style="font-size:6.66666651px;font-family:sans-serif;text-anchor:end;fill:#282828"><tspan id="svg_60" x="-182.667" y="-57.833">nome</tspan></text><text id="svg_61" x="-228.667" y="-69.833" style="font-size:6.66666651px;font-family:sans-serif;text-anchor:end;fill:#282828"><tspan id="svg_62" x="-182.667" y="-36.833">oitava</tspan></text></g></g><g id="svg_63" transform="translate(64.000005,0.750004)"><g id="svg_64" transform="matrix(1.5,0,0,1.5,445,264)"><path id="svg_65" d="m -220.16667,-69.333336 h 60 v 20 h -60 v -8 -1 h -6 v 3 h -2 v -8 h 2 v 3 h 6 v -1 z" style="fill:#77c428;fill-opacity:1;stroke:#57ad02;stroke-width:1;stroke-linecap:round;stroke-opacity:1"/><text id="svg_66" x="-228.667" y="-69.833" style="font-size:10px;font-family:sans-serif;text-anchor:start;fill:#282828"><tspan id="svg_67" x="-215.667" y="-55.833">re</tspan></text></g></g><g id="svg_68" transform="translate(64.000005,0.750004)"><g id="svg_69" transform="matrix(1.5,0,0,1.5,445,296)"><path id="svg_70" d="m -220.16667,-69.333336 h 60 v 20 h -60 v -8 -1 h -6 v 3 h -2 v -8 h 2 v 3 h 6 v -1 z" style="fill:#ff5293;fill-opacity:1;stroke:#ff2c76;stroke-width:1;stroke-linecap:round;stroke-opacity:1"/><text id="svg_71" x="-228.667" y="-69.833" style="font-size:10px;font-family:sans-serif;text-anchor:start;fill:#282828"><tspan id="svg_72" x="-215.667" y="-55.833">5</tspan></text></g></g><g id="svg_73" transform="translate(5e-6,0.750004)"><g id="svg_74"><g id="svg_75" transform="matrix(1.5,0,0,1.5,357,358)"><path id="svg_76" d="m -228.16667,-61.333336 v -4 a 4,4 90 0 1 4,-4 h 4 v 2 h 10 v -2 h 9 60 4 a 4,4 90 0 1 4,4 v 4 h -4 v -3 h -4 v 10 h 4 v -3 h 4 v 4 a 4,4 90 0 1 -4,4 h -4 -60 -1 v 2 h -8 v -2 h -1 -4 a 5,5 90 0 0 -5,5 v 4 4 42.0000001 4 a 5,5 90 0 0 5,4.9999999 h 4 v 2 h 10 v -2 h 8 v 6 6 4 a 4,4 90 0 1 -4,4 h -4 -9 -1 v 2 h -8 v -2 h -1 -4 a 4,4 90 0 1 -4,-4 v -4 z" style="fill:#fe994f;fill-opacity:1;stroke:#e86b0e;stroke-width:1;stroke-linecap:round;stroke-opacity:1"/><text id="svg_77" x="-228.667" y="-69.833" style="font-size:10px;font-family:sans-serif;text-anchor:start;fill:#282828"><tspan id="svg_78" x="-208.667" y="-54.833">nota</tspan></text><text id="svg_79" x="-228.667" y="-69.833" style="font-size:6.66666651px;font-family:sans-serif;text-anchor:end;fill:#282828"><tspan id="svg_80" x="-143.667" y="-57.833">valor</tspan></text></g></g><g id="svg_81" transform="matrix(0.5,0,0,0.5,357,362)"><g id="svg_82" style="isolation:isolate"><g id="g7464" data-name="レイヤー 2"><g id="g7462"><rect id="svg_83" width="42" height="42" x="-686" y="-209.5" rx="5" ry="5" style="opacity:.4;mix-blend-mode:multiply;fill:#292929"/><path id="svg_84" d="m -655.44,-179.7 -4.17,-4.16 h 2.26 a 1.035,1.035 0 1 0 0,-2.07 h -4.71 a 1.08,1.08 0 0 0 -1.11,1 v 0 c 0,0 0,0 0,0.06 v 4.64 0 a 1.04,1.04 0 1 0 2.08,0 v -2.19 l 4.19,4.19 a 1,1 0 0 0 1.46,0 1,1 0 0 0 0,-1.47 z" style="fill:#fff"/><path id="svg_85" d="m -666.83,-184.9 a 1.08,1.08 0 0 0 -1.11,-1 h -4.71 a 1.035,1.035 0 1 0 0,2.07 h 2.25 l -4.16,4.13 a 1.039447,1.039447 0 0 0 1.47,1.47 l 4.18,-4.19 v 2.26 a 1.04,1.04 0 1 0 2.08,0 v -4.64 c 0,0 0,0 0,-0.06 a 0.08,0.08 0 0 1 0,-0.04 z" style="fill:#fff"/><path id="svg_86" d="m -662.06,-189 h 4.7 a 1.04,1.04 0 1 0 0,-2.08 h -2.25 l 4.17,-4.16 a 1,1 0 0 0 0,-1.47 1,1 0 0 0 -1.46,0 l -4.19,4.21 v -2.28 a 1.04,1.04 0 1 0 -2.08,0 v 4.64 a 0.43000001,0.43000001 0 0 0 0,0.05 v 0.05 a 1.09,1.09 0 0 0 1.11,1.04 z" style="fill:#fff"/><path id="svg_87" d="m -667.87,-195.88 a 1.08,1.08 0 0 0 -1,1.09 v 2.29 l -4.18,-4.19 a 1,1 0 0 0 -1.47,0 1,1 0 0 0 0,1.46 l 4.16,4.17 h -2.29 a 1.04,1.04 0 1 0 0,2.08 h 4.71 a 1.09,1.09 0 0 0 1.11,-1 c 0,0 0,0 0,-0.06 v -4.75 a 1.0700001,1.0700001 0 0 0 -1.04,-1.09 z" style="fill:#fff"/></g></g></g></g></g><g id="svg_88" transform="translate(5e-6,0.750004)"><g id="svg_89" transform="matrix(1.5,0,0,1.5,489,358)"><path id="svg_90" d="m -220.16667,-61.333336 v -4 a 4,4 90 0 1 4,-4 h 4 10 30 4 a 4,4 90 0 1 4,4 v 4 h -4 v -3 h -4 v 10 h 4 v -3 h 4 v 17 h -4 v -3 h -4 v 10 h 4 v -3 h 4 v 4 a 4,4 90 0 1 -4,4 h -4 -30 -10 -4 a 4,4 90 0 1 -4,-4 v -4 -21 -1 h -6 v 3 h -2 v -8 h 2 v 3 h 6 z" style="fill:#ff5293;fill-opacity:1;stroke:#ff2c76;stroke-width:1;stroke-linecap:round;stroke-opacity:1"/><text id="svg_91" x="-228.667" y="-69.833" style="font-size:9px;font-family:sans-serif;text-anchor:end;fill:#282828"><tspan id="svg_92" x="-174.667" y="-46.833">➗</tspan></text></g></g><g id="svg_97" transform="translate(5e-6,0.750004)"><g id="svg_98" transform="matrix(1.5,0,0,1.5,575,358)"><path id="svg_99" d="m -220.16667,-69.333336 h 60 v 20 h -60 v -8 -1 h -6 v 3 h -2 v -8 h 2 v 3 h 6 v -1 z" style="fill:#ff5293;fill-opacity:1;stroke:#ff2c76;stroke-width:1;stroke-linecap:round;stroke-opacity:1"/><text id="svg_100" x="-228.667" y="-69.833" style="font-size:10px;font-family:sans-serif;text-anchor:start;fill:#282828"><tspan id="svg_101" x="-215.667" y="-55.833">1</tspan></text></g></g><g id="svg_102" transform="translate(5e-6,0.750004)"><g id="svg_103" transform="matrix(1.5,0,0,1.5,575,390)"><path id="svg_104" d="m -220.16667,-69.333336 h 60 v 20 h -60 v -8 -1 h -6 v 3 h -2 v -8 h 2 v 3 h 6 v -1 z" style="fill:#ff5293;fill-opacity:1;stroke:#ff2c76;stroke-width:1;stroke-linecap:round;stroke-opacity:1"/><text id="svg_105" x="-228.667" y="-69.833" style="font-size:10px;font-family:sans-serif;text-anchor:start;fill:#282828"><tspan id="svg_106" x="-215.667" y="-55.833">4</tspan></text></g></g><g id="svg_107" transform="translate(5e-6,0.750004)"><g id="svg_108" transform="matrix(1.5,0,0,1.5,371,390)"><path id="svg_109" d="m -228.16667,-61.333336 v -4 a 4,4 90 0 1 4,-4 h 4 v 2 h 10 v -2 h 20 4 a 4,4 90 0 1 4,4 v 4 4 4 a 4,4 90 0 1 -4,4 h -4 -20 -1 v 2 h -8 v -2 h -1 -4 a 4,4 90 0 1 -4,-4 v -4 z" style="fill:#b0b0b0;fill-opacity:1;stroke:#a0a0a0;stroke-width:1;stroke-linecap:round;stroke-opacity:1"/><text id="svg_110" x="-228.667" y="-69.833" style="font-size:10px;font-family:sans-serif;text-anchor:end;fill:#282828"><tspan id="svg_111" x="-192.667" y="-55.833">↓</tspan></text></g></g><g id="svg_112" transform="translate(64.000005,0.750004)"><g id="svg_113" transform="matrix(1.5,0,0,1.5,371,422)"><path id="svg_114" d="m -270.83334,-61.333336 v -4 c 0,-2.209139 1.79086,-4 4,-4 h 4 v 2 h 10 v -2 h 72.66667 4 c 2.20914,0 4,1.790861 4,4 v 4 h -4 v -3 h -4 v 10 h 4 v -3 h 4 v 17 h -4 v -3 h -4 v 10 h 4 v -3 h 4 v 4 c 0,2.209139 -1.79086,4 -4,4 h -4 -72.66667 -1 v 2 h -8 v -2 h -1 -4 c -2.20914,0 -4.69859,-1.904227 -4,-4 v -4 -21 z" style="fill:#77c428;fill-opacity:1;stroke:#57ad02;stroke-width:1;stroke-linecap:round;stroke-opacity:1"/><text id="svg_115" x="-228.667" y="-69.833" style="font-size:10px;font-family:sans-serif;text-anchor:end;fill:#282828"><tspan id="svg_116" x="-182.667" y="-45.833">determinar o tom</tspan></text><text id="svg_117" x="-228.667" y="-69.833" style="font-size:6.66666651px;font-family:sans-serif;text-anchor:end;fill:#282828"><tspan id="svg_118" x="-182.667" y="-57.833">nome</tspan></text><text id="svg_119" x="-228.667" y="-69.833" style="font-size:6.66666651px;font-family:sans-serif;text-anchor:end;fill:#282828"><tspan id="svg_120" x="-182.667" y="-36.833">oitava</tspan></text></g></g><g id="svg_121" transform="translate(64.000005,0.750004)"><g id="svg_122" transform="matrix(1.5,0,0,1.5,445,422)"><path id="svg_123" d="m -220.16667,-69.333336 h 60 v 20 h -60 v -8 -1 h -6 v 3 h -2 v -8 h 2 v 3 h 6 v -1 z" style="fill:#77c428;fill-opacity:1;stroke:#57ad02;stroke-width:1;stroke-linecap:round;stroke-opacity:1"/><text id="svg_124" x="-228.667" y="-69.833" style="font-size:10px;font-family:sans-serif;text-anchor:start;fill:#282828"><tspan id="svg_125" x="-215.667" y="-55.833">mi</tspan></text></g></g><g id="svg_126" transform="translate(64.000005,0.750004)"><g id="svg_127" transform="matrix(1.5,0,0,1.5,445,454)"><path id="svg_128" d="m -220.16667,-69.333336 h 60 v 20 h -60 v -8 -1 h -6 v 3 h -2 v -8 h 2 v 3 h 6 v -1 z" style="fill:#ff5293;fill-opacity:1;stroke:#ff2c76;stroke-width:1;stroke-linecap:round;stroke-opacity:1"/><text id="svg_129" x="-228.667" y="-69.833" style="font-size:10px;font-family:sans-serif;text-anchor:start;fill:#282828"><tspan id="svg_130" x="-215.667" y="-55.833">5</tspan></text></g></g><g id="svg_131" transform="translate(5e-6,0.750004)"><g id="svg_132"><g id="svg_133" transform="matrix(1.5,0,0,1.5,343,104)"><path id="svg_134" d="m -228.16667,-61.333336 v -4 a 4,4 90 0 1 4,-4 h 4 v 2 h 10 v -2 h 9 118.999998 4 a 4,4 90 0 1 4,4 v 4 h -4 v -3 h -4 v 10 h 4 v -3 h 4 v 4 a 4,4 90 0 1 -4,4 h -4 -118.999998 -1 v 2 h -8 v -2 h -1 -4 a 5,5 90 0 0 -5,5 v 4 4 230.999996 4 a 5,5 90 0 0 5,5 h 4 v 2 h 10 v -2 h 8 v 6 6 4 a 4,4 90 0 1 -4,4 h -4 -9 -1 v 2 h -8 v -2 h -1 -4 a 4,4 90 0 1 -4,-4 v -4 z" style="fill:#77c428;fill-opacity:1;stroke:#57ad02;stroke-width:1;stroke-linecap:round;stroke-opacity:1"/><text id="svg_135" x="-228.667" y="-69.833" style="font-size:10px;font-family:sans-serif;text-anchor:start;fill:#282828"><tspan id="svg_136" x="-208.667" y="-54.833">intervalo escalar (+/–)</tspan></text></g></g><g id="svg_139" transform="matrix(0.5,0,0,0.5,343,108)"><g id="svg_140" style="isolation:isolate"><g id="g7523" data-name="レイヤー 2"><g id="g7521"><rect id="svg_141" width="42" height="42" x="-686" y="-209.5" rx="5" ry="5" style="opacity:.4;mix-blend-mode:multiply;fill:#292929"/><path id="svg_142" d="m -655.44,-179.7 -4.17,-4.16 h 2.26 a 1.035,1.035 0 1 0 0,-2.07 h -4.71 a 1.08,1.08 0 0 0 -1.11,1 v 0 c 0,0 0,0 0,0.06 v 4.64 0 a 1.04,1.04 0 1 0 2.08,0 v -2.19 l 4.19,4.19 a 1,1 0 0 0 1.46,0 1,1 0 0 0 0,-1.47 z" style="fill:#fff"/><path id="svg_143" d="m -666.83,-184.9 a 1.08,1.08 0 0 0 -1.11,-1 h -4.71 a 1.035,1.035 0 1 0 0,2.07 h 2.25 l -4.16,4.13 a 1.039447,1.039447 0 0 0 1.47,1.47 l 4.18,-4.19 v 2.26 a 1.04,1.04 0 1 0 2.08,0 v -4.64 c 0,0 0,0 0,-0.06 a 0.08,0.08 0 0 1 0,-0.04 z" style="fill:#fff"/><path id="svg_144" d="m -662.06,-189 h 4.7 a 1.04,1.04 0 1 0 0,-2.08 h -2.25 l 4.17,-4.16 a 1,1 0 0 0 0,-1.47 1,1 0 0 0 -1.46,0 l -4.19,4.21 v -2.28 a 1.04,1.04 0 1 0 -2.08,0 v 4.64 a 0.43000001,0.43000001 0 0 0 0,0.05 v 0.05 a 1.09,1.09 0 0 0 1.11,1.04 z" style="fill:#fff"/><path id="svg_145" d="m -667.87,-195.88 a 1.08,1.08 0 0 0 -1,1.09 v 2.29 l -4.18,-4.19 a 1,1 0 0 0 -1.47,0 1,1 0 0 0 0,1.46 l 4.16,4.17 h -2.29 a 1.04,1.04 0 1 0 0,2.08 h 4.71 a 1.09,1.09 0 0 0 1.11,-1 c 0,0 0,0 0,-0.06 v -4.75 a 1.0700001,1.0700001 0 0 0 -1.04,-1.09 z" style="fill:#fff"/></g></g></g></g></g><g id="svg_146" transform="translate(5e-6,0.750004)"><g id="svg_147" transform="matrix(1.5,0,0,1.5,564,104)"><path id="svg_148" d="m -220.16667,-61.333336 v -4 a 4,4 90 0 1 4,-4 h 4 10 30 4 a 4,4 90 0 1 4,4 v 4 h -4 v -3 h -4 v 10 h 4 v -3 h 4 v 17 h -4 v -3 h -4 v 10 h 4 v -3 h 4 v 4 a 4,4 90 0 1 -4,4 h -4 -30 -10 -4 a 4,4 90 0 1 -4,-4 v -4 -21 -1 h -6 v 3 h -2 v -8 h 2 v 3 h 6 z" style="fill:#ff5293;fill-opacity:1;stroke:#ff2c76;stroke-width:1;stroke-linecap:round;stroke-opacity:1"/><text id="svg_149" x="-228.667" y="-69.833" style="font-size:14px;font-family:sans-serif;text-anchor:end;fill:#282828"><tspan id="svg_150" x="-174.667" y="-45.833">+</tspan></text></g></g><g id="svg_155" transform="translate(5e-6,0.750004)"><g id="svg_156" transform="matrix(1.5,0,0,1.5,650,136)"><path id="svg_157" d="m -220.16667,-61.333336 v -4 a 4,4 90 0 1 4,-4 h 4 10 30 4 a 4,4 90 0 1 4,4 v 4 h -4 v -3 h -4 v 10 h 4 v -3 h 4 v 17 h -4 v -3 h -4 v 10 h 4 v -3 h 4 v 4 a 4,4 90 0 1 -4,4 h -4 -30 -10 -4 a 4,4 90 0 1 -4,-4 v -4 -21 -1 h -6 v 3 h -2 v -8 h 2 v 3 h 6 z" style="fill:#ff5293;fill-opacity:1;stroke:#ff2c76;stroke-width:1;stroke-linecap:round;stroke-opacity:1"/><text id="svg_158" x="-228.667" y="-69.833" style="font-size:14px;font-family:sans-serif;text-anchor:end;fill:#282828"><tspan id="svg_159" x="-174.667" y="-45.833">×</tspan></text></g></g><g id="svg_164" transform="translate(5e-6,0.750004)"><g id="svg_165" transform="matrix(1.5,0,0,1.5,736,136)"><path id="svg_166" d="m -220.16667,-69.333336 h 60 v 20 h -60 v -8 -1 h -6 v 3 h -2 v -8 h 2 v 3 h 6 v -1 z" style="fill:#ff5293;fill-opacity:1;stroke:#ff2c76;stroke-width:1;stroke-linecap:round;stroke-opacity:1"/><text id="svg_167" x="-228.667" y="-69.833" style="font-size:10px;font-family:sans-serif;text-anchor:start;fill:#282828"><tspan id="svg_168" x="-215.667" y="-55.833">0</tspan></text></g></g><g id="svg_169" transform="translate(5e-6,0.750004)"><g id="svg_170" transform="matrix(1.5,0,0,1.5,650,104)"><path id="svg_171" d="m -220.16667,-69.333336 h 60 v 20 h -60 v -8 -1 h -6 v 3 h -2 v -8 h 2 v 3 h 6 v -1 z" style="fill:#ff5293;fill-opacity:1;stroke:#ff2c76;stroke-width:1;stroke-linecap:round;stroke-opacity:1"/><text id="svg_172" x="-228.667" y="-69.833" style="font-size:10px;font-family:sans-serif;text-anchor:start;fill:#282828"><tspan id="svg_173" x="-215.667" y="-55.833">4</tspan></text></g></g><g id="svg_174" transform="translate(5e-6,0.750004)"><g id="svg_175" transform="matrix(1.5,0,0,1.5,736,168)"><path id="svg_176" d="m -220.16667,-69.333336 h 124 v 20 h -124 v -8 -1 h -6 v 3 h -2 v -8 h 2 v 3 h 6 v -1 z" style="fill:#77c428;fill-opacity:1;stroke:#57ad02;stroke-width:1;stroke-linecap:round;stroke-opacity:1"/><text id="svg_177" x="-228.667" y="-69.833" style="font-size:10px;font-family:sans-serif;text-anchor:start;fill:#282828"><tspan id="svg_178" x="-215.667" y="-55.833">modo número de notas</tspan></text></g></g><g id="svg_179" transform="translate(5e-6,0.750004)"><g id="svg_180" transform="matrix(1.5,0,0,1.5,357,136)"><path id="svg_181" d="m -228.16667,-61.333336 v -4 a 4,4 90 0 1 4,-4 h 4 v 2 h 10 v -2 h 20 4 a 4,4 90 0 1 4,4 v 4 4 4 a 4,4 90 0 1 -4,4 h -4 -20 -1 v 2 h -8 v -2 h -1 -4 a 4,4 90 0 1 -4,-4 v -4 z" style="fill:#b0b0b0;fill-opacity:1;stroke:#a0a0a0;stroke-width:1;stroke-linecap:round;stroke-opacity:1"/><text id="svg_182" x="-228.667" y="-69.833" style="font-size:10px;font-family:sans-serif;text-anchor:end;fill:#282828"><tspan id="svg_183" x="-192.667" y="-55.833">↓</tspan></text></g></g><g id="svg_184" transform="translate(5e-6,0.750004)"><g id="svg_185" transform="matrix(1.5,0,0,1.5,357,168)"><path id="svg_186" d="m -228.16667,-61.333336 v -4 a 4,4 90 0 1 4,-4 h 4 v 2 h 10 v -2 h 20 4 a 4,4 90 0 1 4,4 v 4 4 4 a 4,4 90 0 1 -4,4 h -4 -20 -1 v 2 h -8 v -2 h -1 -4 a 4,4 90 0 1 -4,-4 v -4 z" style="fill:#b0b0b0;fill-opacity:1;stroke:#a0a0a0;stroke-width:1;stroke-linecap:round;stroke-opacity:1"/><text id="svg_187" x="-228.667" y="-69.833" style="font-size:10px;font-family:sans-serif;text-anchor:end;fill:#282828"><tspan id="svg_188" x="-192.667" y="-55.833">↓</tspan></text></g></g></svg>