<svg xmlns="http://www.w3.org/2000/svg" xmlns:svg="http://www.w3.org/2000/svg" id="svg6945" width="1069.059" height="413.25" version="1.1"><metadata id="metadata6951"/><rect id="backgroundrect" width="100%" height="100%" x=".75" y=".75" style="fill:none;stroke:none"/><g id="g6943" class="currentLayer" transform="translate(0.75001,0.750001)"><title id="title6623">Layer 1</title><g id="svg_15" transform="translate(16)"><g id="svg_16"><g id="svg_17" transform="matrix(1.5,0,0,1.5,883,105)"><path style="fill:#fe994f;fill-opacity:1;stroke:#e86b0e;stroke-width:1;stroke-linecap:round;stroke-opacity:1" id="svg_18" d="m -265.33334,-19.333334 v -4 a 4,4 90 0 1 4,-4 h 4 v 2 h 10 v -2 h 9 60 4 a 4,4 90 0 1 4,4 v 4 h -4 v -3 h -4 v 10 h 4 v -3 h 4 v 4 a 4,4 90 0 1 -4,4 h -4 -60 -1 v 2 h -8 v -2 h -1 -4 a 5,5 90 0 0 -5,5 v 4 4 42 4 a 5,5 90 0 0 5,5 h 4 v 2 h 10 v -2 h 8 v 6 6 4 a 4,4 90 0 1 -4,4 h -4 -9 -1 v 2 h -8 v -2 h -1 -4 a 4,4 90 0 1 -4,-4 v -4 z"/><text style="font-size:10px;font-family:sans-serif;text-anchor:start;fill:#282828" id="svg_19" x="-265.833" y="-27.833"><tspan id="svg_20" x="-245.833" y="-12.833">nota</tspan></text><text style="font-size:6.66666651px;font-family:sans-serif;text-anchor:end;fill:#282828" id="svg_21" x="-265.833" y="-27.833"><tspan id="svg_22" x="-180.833" y="-15.833">valor</tspan></text></g></g></g><g id="svg_30" transform="translate(16)"><g id="svg_31" transform="matrix(1.5,0,0,1.5,1015,105)"><path style="fill:#ff5293;fill-opacity:1;stroke:#ff2c76;stroke-width:1;stroke-linecap:round;stroke-opacity:1" id="svg_32" d="m -257.33334,-19.333334 v -4 a 4,4 90 0 1 4,-4 h 4 10 30 4 a 4,4 90 0 1 4,4 v 4 h -4 v -3 h -4 v 10 h 4 v -3 h 4 v 17 h -4 v -3 h -4 v 10 h 4 v -3 h 4 v 4 a 4,4 90 0 1 -4,4 h -4 -30 -10 -4 a 4,4 90 0 1 -4,-4 v -4 -21 -1 h -6 v 3 h -2 v -8 h 2 v 3 h 6 z"/><text style="font-size:9px;font-family:sans-serif;text-anchor:end;fill:#282828" id="svg_33" x="-265.833" y="-27.833"><tspan id="svg_34" x="-211.833" y="-4.833">➗</tspan></text></g></g><g id="svg_39" transform="translate(16)"><g id="svg_40" transform="matrix(1.5,0,0,1.5,1101,105)"><path style="fill:#ff5293;fill-opacity:1;stroke:#ff2c76;stroke-width:1;stroke-linecap:round;stroke-opacity:1" id="svg_41" d="m -257.33334,-27.333334 h 60 v 20 h -60 v -8 -1 h -6 v 3 h -2 v -8 h 2 v 3 h 6 v -1 z"/><text style="font-size:10px;font-family:sans-serif;text-anchor:start;fill:#282828" id="svg_42" x="-265.833" y="-27.833"><tspan id="svg_43" x="-252.833" y="-13.833">1</tspan></text></g></g><g id="svg_44" transform="translate(16)"><g id="svg_45" transform="matrix(1.5,0,0,1.5,1101,137)"><path style="fill:#ff5293;fill-opacity:1;stroke:#ff2c76;stroke-width:1;stroke-linecap:round;stroke-opacity:1" id="svg_46" d="m -257.33334,-27.333334 h 60 v 20 h -60 v -8 -1 h -6 v 3 h -2 v -8 h 2 v 3 h 6 v -1 z"/><text style="font-size:10px;font-family:sans-serif;text-anchor:start;fill:#282828" id="svg_47" x="-265.833" y="-27.833"><tspan id="svg_48" x="-252.833" y="-13.833">4</tspan></text></g></g><g id="svg_49" transform="translate(16)"><g id="svg_50" transform="matrix(1.5,0,0,1.5,897,137)"><path style="fill:#b0b0b0;fill-opacity:1;stroke:#a0a0a0;stroke-width:1;stroke-linecap:round;stroke-opacity:1" id="svg_51" d="m -265.33334,-19.333334 v -4 a 4,4 90 0 1 4,-4 h 4 v 2 h 10 v -2 h 20 4 a 4,4 90 0 1 4,4 v 4 4 4 a 4,4 90 0 1 -4,4 h -4 -20 -1 v 2 h -8 v -2 h -1 -4 a 4,4 90 0 1 -4,-4 v -4 z"/><text style="font-size:10px;font-family:sans-serif;text-anchor:end;fill:#282828" id="svg_52" x="-265.833" y="-27.833"><tspan id="svg_53" x="-229.833" y="-13.833">↓</tspan></text></g></g><g id="svg_54" transform="translate(82)"><g id="svg_55" transform="matrix(1.5,0,0,1.5,897,169)"><path style="fill:#77c428;fill-opacity:1;stroke:#57ad02;stroke-width:1;stroke-linecap:round;stroke-opacity:1" id="svg_56" d="m -309.33334,-19.333334 v -4 c 0,-2.209139 1.79086,-4 4,-4 h 4 v 2 h 10 v -2 h 74 4 c 2.20914,0 4,1.790861 4,4 v 4 h -4 v -3 h -4 v 10 h 4 v -3 h 4 v 17 h -4 v -3 h -4 v 10 h 4 v -3 h 4 v 4 c 0,2.209139 -1.79086,4 -4,4 h -4 -74 -1 v 2 h -8 v -2 h -1 -4 c -2.20914,0 -4,-1.790861 -4,-4 v -4 -21 z"/><text style="font-size:10px;font-family:sans-serif;text-anchor:end;fill:#282828" id="svg_57" x="-265.833" y="-27.833"><tspan id="svg_58" x="-219.833" y="-3.833">determinar o tom</tspan></text><text style="font-size:6.66666651px;font-family:sans-serif;text-anchor:end;fill:#282828" id="svg_59" x="-265.833" y="-27.833"><tspan id="svg_60" x="-219.833" y="-15.833">nome</tspan></text><text style="font-size:6.66666651px;font-family:sans-serif;text-anchor:end;fill:#282828" id="svg_61" x="-265.833" y="-27.833"><tspan id="svg_62" x="-219.833" y="5.167">oitava</tspan></text></g></g><g id="svg_63" transform="translate(82)"><g id="svg_64" transform="matrix(1.5,0,0,1.5,971,169)"><path style="fill:#77c428;fill-opacity:1;stroke:#57ad02;stroke-width:1;stroke-linecap:round;stroke-opacity:1" id="svg_65" d="m -257.33334,-27.333334 h 60 v 20 h -60 v -8 -1 h -6 v 3 h -2 v -8 h 2 v 3 h 6 v -1 z"/><text style="font-size:10px;font-family:sans-serif;text-anchor:start;fill:#282828" id="svg_66" x="-265.833" y="-27.833"><tspan id="svg_67" x="-252.833" y="-13.833">re</tspan></text></g></g><g id="svg_68" transform="translate(82)"><g id="svg_69" transform="matrix(1.5,0,0,1.5,971,201)"><path style="fill:#ff5293;fill-opacity:1;stroke:#ff2c76;stroke-width:1;stroke-linecap:round;stroke-opacity:1" id="svg_70" d="m -257.33334,-27.333334 h 60 v 20 h -60 v -8 -1 h -6 v 3 h -2 v -8 h 2 v 3 h 6 v -1 z"/><text style="font-size:10px;font-family:sans-serif;text-anchor:start;fill:#282828" id="svg_71" x="-265.833" y="-27.833"><tspan id="svg_72" x="-252.833" y="-13.833">5</tspan></text></g></g><g id="svg_73"><g id="svg_74"><g id="svg_75" transform="matrix(1.5,0,0,1.5,412,263)"><path style="fill:#fe994f;fill-opacity:1;stroke:#e86b0e;stroke-width:1;stroke-linecap:round;stroke-opacity:1" id="svg_76" d="m -265.33334,-19.333334 v -4 a 4,4 90 0 1 4,-4 h 4 v 2 h 10 v -2 h 9 60 4 a 4,4 90 0 1 4,4 v 4 h -4 v -3 h -4 v 10 h 4 v -3 h 4 v 4 a 4,4 90 0 1 -4,4 h -4 -60 -1 v 2 h -8 v -2 h -1 -4 a 5,5 90 0 0 -5,5 v 4 4 42 4 a 5,5 90 0 0 5,5 h 4 v 2 h 10 v -2 h 8 v 6 6 4 a 4,4 90 0 1 -4,4 h -4 -9 -1 v 2 h -8 v -2 h -1 -4 a 4,4 90 0 1 -4,-4 v -4 z"/><text style="font-size:10px;font-family:sans-serif;text-anchor:start;fill:#282828" id="svg_77" x="-265.833" y="-27.833"><tspan id="svg_78" x="-245.833" y="-12.833">nota</tspan></text><text style="font-size:6.66666651px;font-family:sans-serif;text-anchor:end;fill:#282828" id="svg_79" x="-265.833" y="-27.833"><tspan id="svg_80" x="-180.833" y="-15.833">valor</tspan></text></g></g></g><g id="svg_88"><g id="svg_89" transform="matrix(1.5,0,0,1.5,544,263)"><path style="fill:#ff5293;fill-opacity:1;stroke:#ff2c76;stroke-width:1;stroke-linecap:round;stroke-opacity:1" id="svg_90" d="m -257.33334,-19.333334 v -4 a 4,4 90 0 1 4,-4 h 4 10 30 4 a 4,4 90 0 1 4,4 v 4 h -4 v -3 h -4 v 10 h 4 v -3 h 4 v 17 h -4 v -3 h -4 v 10 h 4 v -3 h 4 v 4 a 4,4 90 0 1 -4,4 h -4 -30 -10 -4 a 4,4 90 0 1 -4,-4 v -4 -21 -1 h -6 v 3 h -2 v -8 h 2 v 3 h 6 z"/><text style="font-size:9px;font-family:sans-serif;text-anchor:end;fill:#282828" id="svg_91" x="-265.833" y="-27.833"><tspan id="svg_92" x="-211.833" y="-4.833">➗</tspan></text></g></g><g id="svg_97"><g id="svg_98" transform="matrix(1.5,0,0,1.5,630,263)"><path style="fill:#ff5293;fill-opacity:1;stroke:#ff2c76;stroke-width:1;stroke-linecap:round;stroke-opacity:1" id="svg_99" d="m -257.33334,-27.333334 h 60 v 20 h -60 v -8 -1 h -6 v 3 h -2 v -8 h 2 v 3 h 6 v -1 z"/><text style="font-size:10px;font-family:sans-serif;text-anchor:start;fill:#282828" id="svg_100" x="-265.833" y="-27.833"><tspan id="svg_101" x="-252.833" y="-13.833">1</tspan></text></g></g><g id="svg_102"><g id="svg_103" transform="matrix(1.5,0,0,1.5,630,295)"><path style="fill:#ff5293;fill-opacity:1;stroke:#ff2c76;stroke-width:1;stroke-linecap:round;stroke-opacity:1" id="svg_104" d="m -257.33334,-27.333334 h 60 v 20 h -60 v -8 -1 h -6 v 3 h -2 v -8 h 2 v 3 h 6 v -1 z"/><text style="font-size:10px;font-family:sans-serif;text-anchor:start;fill:#282828" id="svg_105" x="-265.833" y="-27.833"><tspan id="svg_106" x="-252.833" y="-13.833">8</tspan></text></g></g><g id="svg_107"><g id="svg_108" transform="matrix(1.5,0,0,1.5,426,295)"><path style="fill:#b0b0b0;fill-opacity:1;stroke:#a0a0a0;stroke-width:1;stroke-linecap:round;stroke-opacity:1" id="svg_109" d="m -265.33334,-19.333334 v -4 a 4,4 90 0 1 4,-4 h 4 v 2 h 10 v -2 h 20 4 a 4,4 90 0 1 4,4 v 4 4 4 a 4,4 90 0 1 -4,4 h -4 -20 -1 v 2 h -8 v -2 h -1 -4 a 4,4 90 0 1 -4,-4 v -4 z"/><text style="font-size:10px;font-family:sans-serif;text-anchor:end;fill:#282828" id="svg_110" x="-265.833" y="-27.833"><tspan id="svg_111" x="-229.833" y="-13.833">↓</tspan></text></g></g><g id="svg_112" transform="translate(66)"><g id="svg_113" transform="matrix(1.5,0,0,1.5,426,327)"><path style="fill:#77c428;fill-opacity:1;stroke:#57ad02;stroke-width:1;stroke-linecap:round;stroke-opacity:1" id="svg_114" d="m -309.33334,-19.333334 v -4 c 0,-2.209139 1.79086,-4 4,-4 h 4 v 2 h 10 v -2 h 74 4 c 2.20914,0 4,1.790861 4,4 v 4 h -4 v -3 h -4 v 10 h 4 v -3 h 4 v 17 h -4 v -3 h -4 v 10 h 4 v -3 h 4 v 4 c 0,2.209139 -1.79086,4 -4,4 h -4 -74 -1 v 2 h -8 v -2 h -1 -4 c -2.20914,0 -4.69859,-1.904227 -4,-4 v -4 -21 z"/><text style="font-size:10px;font-family:sans-serif;text-anchor:end;fill:#282828" id="svg_115" x="-265.833" y="-27.833"><tspan id="svg_116" x="-219.833" y="-3.833">determinar o tom</tspan></text><text style="font-size:6.66666651px;font-family:sans-serif;text-anchor:end;fill:#282828" id="svg_117" x="-265.833" y="-27.833"><tspan id="svg_118" x="-219.833" y="-15.833">nome</tspan></text><text style="font-size:6.66666651px;font-family:sans-serif;text-anchor:end;fill:#282828" id="svg_119" x="-265.833" y="-27.833"><tspan id="svg_120" x="-219.833" y="5.167">oitava</tspan></text></g></g><g id="svg_121" transform="translate(66)"><g id="svg_122" transform="matrix(1.5,0,0,1.5,500,327)"><path style="fill:#77c428;fill-opacity:1;stroke:#57ad02;stroke-width:1;stroke-linecap:round;stroke-opacity:1" id="svg_123" d="m -257.33334,-27.333334 h 60 v 20 h -60 v -8 -1 h -6 v 3 h -2 v -8 h 2 v 3 h 6 v -1 z"/><text style="font-size:10px;font-family:sans-serif;text-anchor:start;fill:#282828" id="svg_124" x="-265.833" y="-27.833"><tspan id="svg_125" x="-252.833" y="-13.833">mi</tspan></text></g></g><g id="svg_126" transform="translate(66)"><g id="svg_127" transform="matrix(1.5,0,0,1.5,500,359)"><path style="fill:#ff5293;fill-opacity:1;stroke:#ff2c76;stroke-width:1;stroke-linecap:round;stroke-opacity:1" id="svg_128" d="m -257.33334,-27.333334 h 60 v 20 h -60 v -8 -1 h -6 v 3 h -2 v -8 h 2 v 3 h 6 v -1 z"/><text style="font-size:10px;font-family:sans-serif;text-anchor:start;fill:#282828" id="svg_129" x="-265.833" y="-27.833"><tspan id="svg_130" x="-252.833" y="-13.833">5</tspan></text></g></g><g id="svg_131"><g id="svg_132"><g id="svg_133" transform="matrix(1.5,0,0,1.5,412,105)"><path style="fill:#fe994f;fill-opacity:1;stroke:#e86b0e;stroke-width:1;stroke-linecap:round;stroke-opacity:1" id="svg_134" d="m -265.33334,-19.333334 v -4 a 4,4 90 0 1 4,-4 h 4 v 2 h 10 v -2 h 9 60 4 a 4,4 90 0 1 4,4 v 4 h -4 v -3 h -4 v 10 h 4 v -3 h 4 v 4 a 4,4 90 0 1 -4,4 h -4 -60 -1 v 2 h -8 v -2 h -1 -4 a 5,5 90 0 0 -5,5 v 4 4 42 4 a 5,5 90 0 0 5,5 h 4 v 2 h 10 v -2 h 8 v 6 6 4 a 4,4 90 0 1 -4,4 h -4 -9 -1 v 2 h -8 v -2 h -1 -4 a 4,4 90 0 1 -4,-4 v -4 z"/><text style="font-size:10px;font-family:sans-serif;text-anchor:start;fill:#282828" id="svg_135" x="-265.833" y="-27.833"><tspan id="svg_136" x="-245.833" y="-12.833">nota</tspan></text><text style="font-size:6.66666651px;font-family:sans-serif;text-anchor:end;fill:#282828" id="svg_137" x="-265.833" y="-27.833"><tspan id="svg_138" x="-180.833" y="-15.833">valor</tspan></text></g></g></g><g id="svg_146"><g id="svg_147" transform="matrix(1.5,0,0,1.5,544,105)"><path style="fill:#ff5293;fill-opacity:1;stroke:#ff2c76;stroke-width:1;stroke-linecap:round;stroke-opacity:1" id="svg_148" d="m -257.33334,-19.333334 v -4 a 4,4 90 0 1 4,-4 h 4 10 30 4 a 4,4 90 0 1 4,4 v 4 h -4 v -3 h -4 v 10 h 4 v -3 h 4 v 17 h -4 v -3 h -4 v 10 h 4 v -3 h 4 v 4 a 4,4 90 0 1 -4,4 h -4 -30 -10 -4 a 4,4 90 0 1 -4,-4 v -4 -21 -1 h -6 v 3 h -2 v -8 h 2 v 3 h 6 z"/><text style="font-size:9px;font-family:sans-serif;text-anchor:end;fill:#282828" id="svg_149" x="-265.833" y="-27.833"><tspan id="svg_150" x="-211.833" y="-4.833">➗</tspan></text></g></g><g id="svg_155"><g id="svg_156" transform="matrix(1.5,0,0,1.5,630,105)"><path style="fill:#ff5293;fill-opacity:1;stroke:#ff2c76;stroke-width:1;stroke-linecap:round;stroke-opacity:1" id="svg_157" d="m -257.33334,-27.333334 h 60 v 20 h -60 v -8 -1 h -6 v 3 h -2 v -8 h 2 v 3 h 6 v -1 z"/><text style="font-size:10px;font-family:sans-serif;text-anchor:start;fill:#282828" id="svg_158" x="-265.833" y="-27.833"><tspan id="svg_159" x="-252.833" y="-13.833">1</tspan></text></g></g><g id="svg_160"><g id="svg_161" transform="matrix(1.5,0,0,1.5,426,137)"><path style="fill:#b0b0b0;fill-opacity:1;stroke:#a0a0a0;stroke-width:1;stroke-linecap:round;stroke-opacity:1" id="svg_162" d="m -265.33334,-19.333334 v -4 a 4,4 90 0 1 4,-4 h 4 v 2 h 10 v -2 h 20 4 a 4,4 90 0 1 4,4 v 4 4 4 a 4,4 90 0 1 -4,4 h -4 -20 -1 v 2 h -8 v -2 h -1 -4 a 4,4 90 0 1 -4,-4 v -4 z"/><text style="font-size:10px;font-family:sans-serif;text-anchor:end;fill:#282828" id="svg_163" x="-265.833" y="-27.833"><tspan id="svg_164" x="-229.833" y="-13.833">↓</tspan></text></g></g><g id="svg_165" transform="translate(66)"><g id="svg_166" transform="matrix(1.5,0,0,1.5,426,169)"><path style="fill:#77c428;fill-opacity:1;stroke:#57ad02;stroke-width:1;stroke-linecap:round;stroke-opacity:1" id="svg_167" d="m -309.33334,-19.333334 v -4 c 0,-2.209139 1.79086,-4 4,-4 h 4 v 2 h 10 v -2 h 74 4 c 2.20914,0 4,1.790861 4,4 v 4 h -4 v -3 h -4 v 10 h 4 v -3 h 4 v 17 h -4 v -3 h -4 v 10 h 4 v -3 h 4 v 4 c 0,2.209139 -1.79086,4 -4,4 h -4 -74 -1 v 2 h -8 v -2 h -1 -4 c -2.20914,0 -4.69859,-1.904227 -4,-4 v -4 -21 z"/><text style="font-size:10px;font-family:sans-serif;text-anchor:end;fill:#282828" id="svg_168" x="-265.833" y="-27.833"><tspan id="svg_169" x="-219.833" y="-3.833">determinar o tom</tspan></text><text style="font-size:6.66666651px;font-family:sans-serif;text-anchor:end;fill:#282828" id="svg_170" x="-265.833" y="-27.833"><tspan id="svg_171" x="-219.833" y="-15.833">nome</tspan></text><text style="font-size:6.66666651px;font-family:sans-serif;text-anchor:end;fill:#282828" id="svg_172" x="-265.833" y="-27.833"><tspan id="svg_173" x="-219.833" y="5.167">oitava</tspan></text></g></g><g id="svg_174" transform="translate(66)"><g id="svg_175" transform="matrix(1.5,0,0,1.5,500,169)"><path style="fill:#77c428;fill-opacity:1;stroke:#57ad02;stroke-width:1;stroke-linecap:round;stroke-opacity:1" id="svg_176" d="m -257.33334,-27.333334 h 60 v 20 h -60 v -8 -1 h -6 v 3 h -2 v -8 h 2 v 3 h 6 v -1 z"/><text style="font-size:10px;font-family:sans-serif;text-anchor:start;fill:#282828" id="svg_177" x="-265.833" y="-27.833"><tspan id="svg_178" x="-252.833" y="-13.833">re</tspan></text></g></g><g id="svg_179" transform="translate(66)"><g id="svg_180" transform="matrix(1.5,0,0,1.5,500,201)"><path style="fill:#ff5293;fill-opacity:1;stroke:#ff2c76;stroke-width:1;stroke-linecap:round;stroke-opacity:1" id="svg_181" d="m -257.33334,-27.333334 h 60 v 20 h -60 v -8 -1 h -6 v 3 h -2 v -8 h 2 v 3 h 6 v -1 z"/><text style="font-size:10px;font-family:sans-serif;text-anchor:start;fill:#282828" id="svg_182" x="-265.833" y="-27.833"><tspan id="svg_183" x="-252.833" y="-13.833">5</tspan></text></g></g><g id="svg_184"><g id="svg_185" transform="matrix(1.5,0,0,1.5,398,41)"><path style="fill:#77c428;fill-opacity:1;stroke:#57ad02;stroke-width:1;stroke-linecap:round;stroke-opacity:1" id="svg_186" d="m -265.33334,-19.333334 v -4 c 0,-2.209139 1.79086,-4 4,-4 h 4 v 2 h 10 v -2 h 9 109.93392 4 c 2.20913,0 4.69859,1.904227 4,4 v 4 h -4 v -3 h -4 v 10 h 4 v -3 h 4 v 4 c 0,2.209139 -1.79087,4 -4,4 h -4 -109.93392 -1 v 2 h -8 v -2 h -1 -4 c -2.76143,0 -5,2.2385763 -5,5 v 4 4 210.000004 4 c 0,2.76142 2.23857,5 5,5 h 4 v 2 h 10 v -2 h 8 v 6 6 4 c 0,2.20914 -1.79086,4 -4,4 h -4 -9 -1 v 2 h -8 v -2 h -1 -4 c -2.20914,0 -4,-1.79086 -4,-4 v -4 z"/><text style="font-size:10px;font-family:sans-serif;text-anchor:start;fill:#282828" id="svg_187" x="-265.833" y="-27.833"><tspan id="svg_188" x="-260.833" y="-12.833">transposição de semi-tom</tspan></text></g></g><g id="svg_191" transform="translate(44)"><g id="svg_192" transform="matrix(1.5,0,0,1.5,561,41)"><path style="fill:#ff5293;fill-opacity:1;stroke:#ff2c76;stroke-width:1;stroke-linecap:round;stroke-opacity:1" id="svg_193" d="m -257.33334,-19.333334 v -4 a 4,4 90 0 1 4,-4 h 4 10 30 4 a 4,4 90 0 1 4,4 v 4 h -4 v -3 h -4 v 10 h 4 v -3 h 4 v 17 h -4 v -3 h -4 v 10 h 4 v -3 h 4 v 4 a 4,4 90 0 1 -4,4 h -4 -30 -10 -4 a 4,4 90 0 1 -4,-4 v -4 -21 -1 h -6 v 3 h -2 v -8 h 2 v 3 h 6 z"/><text style="font-size:14px;font-family:sans-serif;text-anchor:end;fill:#282828" id="svg_194" x="-265.833" y="-27.833"><tspan id="svg_195" x="-211.833" y="-3.833">+</tspan></text></g></g><g id="svg_200" transform="translate(44)"><g id="svg_201" transform="matrix(1.5,0,0,1.5,647,41)"><path style="fill:#ff5293;fill-opacity:1;stroke:#ff2c76;stroke-width:1;stroke-linecap:round;stroke-opacity:1" id="svg_202" d="m -257.33334,-27.333334 h 60 v 20 h -60 v -8 -1 h -6 v 3 h -2 v -8 h 2 v 3 h 6 v -1 z"/><text style="font-size:10px;font-family:sans-serif;text-anchor:start;fill:#282828" id="svg_203" x="-265.833" y="-27.833"><tspan id="svg_204" x="-252.833" y="-13.833">1</tspan></text></g></g><g id="svg_205" transform="translate(44)"><g id="svg_206" transform="matrix(1.5,0,0,1.5,647,73)"><path style="fill:#ff5293;fill-opacity:1;stroke:#ff2c76;stroke-width:1;stroke-linecap:round;stroke-opacity:1" id="svg_207" d="m -257.33334,-19.333334 v -4 a 4,4 90 0 1 4,-4 h 4 10 30 4 a 4,4 90 0 1 4,4 v 4 h -4 v -3 h -4 v 10 h 4 v -3 h 4 v 17 h -4 v -3 h -4 v 10 h 4 v -3 h 4 v 4 a 4,4 90 0 1 -4,4 h -4 -30 -10 -4 a 4,4 90 0 1 -4,-4 v -4 -21 -1 h -6 v 3 h -2 v -8 h 2 v 3 h 6 z"/><text style="font-size:14px;font-family:sans-serif;text-anchor:end;fill:#282828" id="svg_208" x="-265.833" y="-27.833"><tspan id="svg_209" x="-211.833" y="-3.833">×</tspan></text></g></g><g id="svg_214" transform="translate(44)"><g id="svg_215" transform="matrix(1.5,0,0,1.5,733,73)"><path style="fill:#ff5293;fill-opacity:1;stroke:#ff2c76;stroke-width:1;stroke-linecap:round;stroke-opacity:1" id="svg_216" d="m -257.33334,-27.333334 h 60 v 20 h -60 v -8 -1 h -6 v 3 h -2 v -8 h 2 v 3 h 6 v -1 z"/><text style="font-size:10px;font-family:sans-serif;text-anchor:start;fill:#282828" id="svg_217" x="-265.833" y="-27.833"><tspan id="svg_218" x="-252.833" y="-13.833">1</tspan></text></g></g><g id="svg_219" transform="translate(44)"><g id="svg_220" transform="matrix(1.5,0,0,1.5,733,105)"><path style="fill:#ff5293;fill-opacity:1;stroke:#ff2c76;stroke-width:1;stroke-linecap:round;stroke-opacity:1" id="svg_221" d="m -257.33334,-27.333334 h 60 v 20 h -60 v -8 -1 h -6 v 3 h -2 v -8 h 2 v 3 h 6 v -1 z"/><text style="font-size:10px;font-family:sans-serif;text-anchor:start;fill:#282828" id="svg_222" x="-265.833" y="-27.833"><tspan id="svg_223" x="-252.833" y="-13.833">12</tspan></text></g></g><g id="svg_224"><g id="svg_225" transform="matrix(1.5,0,0,1.5,412,73)"><path style="fill:#b0b0b0;fill-opacity:1;stroke:#a0a0a0;stroke-width:1;stroke-linecap:round;stroke-opacity:1" id="svg_226" d="m -265.33334,-19.333334 v -4 a 4,4 90 0 1 4,-4 h 4 v 2 h 10 v -2 h 20 4 a 4,4 90 0 1 4,4 v 4 4 4 a 4,4 90 0 1 -4,4 h -4 -20 -1 v 2 h -8 v -2 h -1 -4 a 4,4 90 0 1 -4,-4 v -4 z"/><text style="font-size:10px;font-family:sans-serif;text-anchor:end;fill:#282828" id="svg_227" x="-265.833" y="-27.833"><tspan id="svg_228" x="-229.833" y="-13.833">↓</tspan></text></g></g><g id="svg_229"><g id="svg_230" transform="matrix(1.5,0,0,1.5,630,137)"><path style="fill:#ff5293;fill-opacity:1;stroke:#ff2c76;stroke-width:1;stroke-linecap:round;stroke-opacity:1" id="svg_231" d="m -257.33334,-27.333334 h 60 v 20 h -60 v -8 -1 h -6 v 3 h -2 v -8 h 2 v 3 h 6 v -1 z"/><text style="font-size:10px;font-family:sans-serif;text-anchor:start;fill:#282828" id="svg_232" x="-265.833" y="-27.833"><tspan id="svg_233" x="-252.833" y="-13.833">8</tspan></text></g></g><g id="svg_234" transform="translate(16)"><g id="svg_235" transform="matrix(1.5,0,0,1.5,869,41)"><path style="fill:#77c428;fill-opacity:1;stroke:#57ad02;stroke-width:1;stroke-linecap:round;stroke-opacity:1" id="svg_236" d="m -265.33334,-19.333334 v -4 c 0,-2.209139 1.79086,-4 4,-4 h 4 v 2 h 10 v -2 h 9 110.9873 4 c 2.20914,0 4.69859,1.904227 4,4 v 4 h -4 v -3 h -4 v 10 h 4 v -3 h 4 v 4 c 0,2.209139 -1.79086,4 -4,4 h -4 -110.9873 -1 v 2 h -8 v -2 h -1 -4 c -2.76142,0 -5,2.2385763 -5,5 v 4 4 210.000004 4 c 0,2.76142 2.23858,5 5,5 h 4 v 2 h 10 v -2 h 8 v 6 6 4 c 0,2.20914 -1.79086,4 -4,4 h -4 -9 -1 v 2 h -8 v -2 h -1 -4 c -2.20914,0 -4,-1.79086 -4,-4 v -4 z"/><text style="font-size:10px;font-family:sans-serif;text-anchor:start;fill:#282828" id="svg_237" x="-265.833" y="-27.833"><tspan id="svg_238" x="-260.833" y="-12.833">transposição escalar (+/–)</tspan></text></g></g><g id="svg_241" transform="translate(52)"><g id="svg_242" transform="matrix(1.5,0,0,1.5,1041,41)"><path style="fill:#ff5293;fill-opacity:1;stroke:#ff2c76;stroke-width:1;stroke-linecap:round;stroke-opacity:1" id="svg_243" d="m -257.33334,-19.333334 v -4 a 4,4 90 0 1 4,-4 h 4 10 30 4 a 4,4 90 0 1 4,4 v 4 h -4 v -3 h -4 v 10 h 4 v -3 h 4 v 17 h -4 v -3 h -4 v 10 h 4 v -3 h 4 v 4 a 4,4 90 0 1 -4,4 h -4 -30 -10 -4 a 4,4 90 0 1 -4,-4 v -4 -21 -1 h -6 v 3 h -2 v -8 h 2 v 3 h 6 z"/><text style="font-size:14px;font-family:sans-serif;text-anchor:end;fill:#282828" id="svg_244" x="-265.833" y="-27.833"><tspan id="svg_245" x="-211.833" y="-3.833">+</tspan></text></g></g><g id="svg_250" transform="translate(52)"><g id="svg_251" transform="matrix(1.5,0,0,1.5,1127,41)"><path style="fill:#ff5293;fill-opacity:1;stroke:#ff2c76;stroke-width:1;stroke-linecap:round;stroke-opacity:1" id="svg_252" d="m -257.33334,-27.333334 h 60 v 20 h -60 v -8 -1 h -6 v 3 h -2 v -8 h 2 v 3 h 6 v -1 z"/><text style="font-size:10px;font-family:sans-serif;text-anchor:start;fill:#282828" id="svg_253" x="-265.833" y="-27.833"><tspan id="svg_254" x="-252.833" y="-13.833">4</tspan></text></g></g><g id="svg_255" transform="translate(52)"><g id="svg_256" transform="matrix(1.5,0,0,1.5,1127,73)"><path style="fill:#ff5293;fill-opacity:1;stroke:#ff2c76;stroke-width:1;stroke-linecap:round;stroke-opacity:1" id="svg_257" d="m -257.33334,-19.333334 v -4 a 4,4 90 0 1 4,-4 h 4 10 30 4 a 4,4 90 0 1 4,4 v 4 h -4 v -3 h -4 v 10 h 4 v -3 h 4 v 17 h -4 v -3 h -4 v 10 h 4 v -3 h 4 v 4 a 4,4 90 0 1 -4,4 h -4 -30 -10 -4 a 4,4 90 0 1 -4,-4 v -4 -21 -1 h -6 v 3 h -2 v -8 h 2 v 3 h 6 z"/><text style="font-size:14px;font-family:sans-serif;text-anchor:end;fill:#282828" id="svg_258" x="-265.833" y="-27.833"><tspan id="svg_259" x="-211.833" y="-3.833">×</tspan></text></g></g><g id="svg_264" transform="translate(52)"><g id="svg_265" transform="matrix(1.5,0,0,1.5,1213,73)"><path style="fill:#ff5293;fill-opacity:1;stroke:#ff2c76;stroke-width:1;stroke-linecap:round;stroke-opacity:1" id="svg_266" d="m -257.33334,-27.333334 h 60 v 20 h -60 v -8 -1 h -6 v 3 h -2 v -8 h 2 v 3 h 6 v -1 z"/><text style="font-size:10px;font-family:sans-serif;text-anchor:start;fill:#282828" id="svg_267" x="-265.833" y="-27.833"><tspan id="svg_268" x="-252.833" y="-13.833">0</tspan></text></g></g><g id="svg_269" transform="translate(52)"><g id="svg_270" transform="matrix(1.5,0,0,1.5,1213,105)"><path style="fill:#77c428;fill-opacity:1;stroke:#57ad02;stroke-width:1;stroke-linecap:round;stroke-opacity:1" id="svg_271" d="m -257.33334,-27.333334 h 125.70573 v 20 h -125.70573 v -8 -1 h -6 v 3 h -2 v -8 h 2 v 3 h 6 v -1 z"/><text style="font-size:10px;font-family:sans-serif;text-anchor:start;fill:#282828" id="svg_272" x="-265.833" y="-27.833"><tspan id="svg_273" x="-252.833" y="-13.833">modo número de notas</tspan></text></g></g><g id="svg_274" transform="translate(16)"><g id="svg_275" transform="matrix(1.5,0,0,1.5,883,73)"><path style="fill:#b0b0b0;fill-opacity:1;stroke:#a0a0a0;stroke-width:1;stroke-linecap:round;stroke-opacity:1" id="svg_276" d="m -265.33334,-19.333334 v -4 a 4,4 90 0 1 4,-4 h 4 v 2 h 10 v -2 h 20 4 a 4,4 90 0 1 4,4 v 4 4 4 a 4,4 90 0 1 -4,4 h -4 -20 -1 v 2 h -8 v -2 h -1 -4 a 4,4 90 0 1 -4,-4 v -4 z"/><text style="font-size:10px;font-family:sans-serif;text-anchor:end;fill:#282828" id="svg_277" x="-265.833" y="-27.833"><tspan id="svg_278" x="-229.833" y="-13.833">↓</tspan></text></g></g><g id="svg_279" transform="translate(16)"><g id="svg_280"><g id="svg_281" transform="matrix(1.5,0,0,1.5,883,263)"><path style="fill:#fe994f;fill-opacity:1;stroke:#e86b0e;stroke-width:1;stroke-linecap:round;stroke-opacity:1" id="svg_282" d="m -265.33334,-19.333334 v -4 a 4,4 90 0 1 4,-4 h 4 v 2 h 10 v -2 h 9 60 4 a 4,4 90 0 1 4,4 v 4 h -4 v -3 h -4 v 10 h 4 v -3 h 4 v 4 a 4,4 90 0 1 -4,4 h -4 -60 -1 v 2 h -8 v -2 h -1 -4 a 5,5 90 0 0 -5,5 v 4 4 42 4 a 5,5 90 0 0 5,5 h 4 v 2 h 10 v -2 h 8 v 6 6 4 a 4,4 90 0 1 -4,4 h -4 -9 -1 v 2 h -8 v -2 h -1 -4 a 4,4 90 0 1 -4,-4 v -4 z"/><text style="font-size:10px;font-family:sans-serif;text-anchor:start;fill:#282828" id="svg_283" x="-265.833" y="-27.833"><tspan id="svg_284" x="-245.833" y="-12.833">nota</tspan></text><text style="font-size:6.66666651px;font-family:sans-serif;text-anchor:end;fill:#282828" id="svg_285" x="-265.833" y="-27.833"><tspan id="svg_286" x="-180.833" y="-15.833">valor</tspan></text></g></g></g><g id="svg_294" transform="translate(16)"><g id="svg_295" transform="matrix(1.5,0,0,1.5,1015,263)"><path style="fill:#ff5293;fill-opacity:1;stroke:#ff2c76;stroke-width:1;stroke-linecap:round;stroke-opacity:1" id="svg_296" d="m -257.33334,-19.333334 v -4 a 4,4 90 0 1 4,-4 h 4 10 30 4 a 4,4 90 0 1 4,4 v 4 h -4 v -3 h -4 v 10 h 4 v -3 h 4 v 17 h -4 v -3 h -4 v 10 h 4 v -3 h 4 v 4 a 4,4 90 0 1 -4,4 h -4 -30 -10 -4 a 4,4 90 0 1 -4,-4 v -4 -21 -1 h -6 v 3 h -2 v -8 h 2 v 3 h 6 z"/><text style="font-size:9px;font-family:sans-serif;text-anchor:end;fill:#282828" id="svg_297" x="-265.833" y="-27.833"><tspan id="svg_298" x="-211.833" y="-4.833">➗</tspan></text></g></g><g id="svg_303" transform="translate(16)"><g id="svg_304" transform="matrix(1.5,0,0,1.5,1101,263)"><path style="fill:#ff5293;fill-opacity:1;stroke:#ff2c76;stroke-width:1;stroke-linecap:round;stroke-opacity:1" id="svg_305" d="m -257.33334,-27.333334 h 60 v 20 h -60 v -8 -1 h -6 v 3 h -2 v -8 h 2 v 3 h 6 v -1 z"/><text style="font-size:10px;font-family:sans-serif;text-anchor:start;fill:#282828" id="svg_306" x="-265.833" y="-27.833"><tspan id="svg_307" x="-252.833" y="-13.833">1</tspan></text></g></g><g id="svg_308" transform="translate(16)"><g id="svg_309" transform="matrix(1.5,0,0,1.5,1101,295)"><path style="fill:#ff5293;fill-opacity:1;stroke:#ff2c76;stroke-width:1;stroke-linecap:round;stroke-opacity:1" id="svg_310" d="m -257.33334,-27.333334 h 60 v 20 h -60 v -8 -1 h -6 v 3 h -2 v -8 h 2 v 3 h 6 v -1 z"/><text style="font-size:10px;font-family:sans-serif;text-anchor:start;fill:#282828" id="svg_311" x="-265.833" y="-27.833"><tspan id="svg_312" x="-252.833" y="-13.833">4</tspan></text></g></g><g id="svg_313" transform="translate(16)"><g id="svg_314" transform="matrix(1.5,0,0,1.5,897,295)"><path style="fill:#b0b0b0;fill-opacity:1;stroke:#a0a0a0;stroke-width:1;stroke-linecap:round;stroke-opacity:1" id="svg_315" d="m -265.33334,-19.333334 v -4 a 4,4 90 0 1 4,-4 h 4 v 2 h 10 v -2 h 20 4 a 4,4 90 0 1 4,4 v 4 4 4 a 4,4 90 0 1 -4,4 h -4 -20 -1 v 2 h -8 v -2 h -1 -4 a 4,4 90 0 1 -4,-4 v -4 z"/><text style="font-size:10px;font-family:sans-serif;text-anchor:end;fill:#282828" id="svg_316" x="-265.833" y="-27.833"><tspan id="svg_317" x="-229.833" y="-13.833">↓</tspan></text></g></g><g id="svg_318" transform="translate(82)"><g id="svg_319" transform="matrix(1.5,0,0,1.5,897,327)"><path style="fill:#77c428;fill-opacity:1;stroke:#57ad02;stroke-width:1;stroke-linecap:round;stroke-opacity:1" id="svg_320" d="m -309.33334,-19.333334 v -4 c 0,-2.209139 1.79086,-4 4,-4 h 4 v 2 h 10 v -2 h 74 4 c 2.20914,0 4,1.790861 4,4 v 4 h -4 v -3 h -4 v 10 h 4 v -3 h 4 v 17 h -4 v -3 h -4 v 10 h 4 v -3 h 4 v 4 c 0,2.209139 -1.79086,4 -4,4 h -4 -74 -1 v 2 h -8 v -2 h -1 -4 c -2.20914,0 -4,-1.790861 -4,-4 v -4 -21 z"/><text style="font-size:10px;font-family:sans-serif;text-anchor:end;fill:#282828" id="svg_321" x="-265.833" y="-27.833"><tspan id="svg_322" x="-219.833" y="-3.833">determinar o tom</tspan></text><text style="font-size:6.66666651px;font-family:sans-serif;text-anchor:end;fill:#282828" id="svg_323" x="-265.833" y="-27.833"><tspan id="svg_324" x="-219.833" y="-15.833">nome</tspan></text><text style="font-size:6.66666651px;font-family:sans-serif;text-anchor:end;fill:#282828" id="svg_325" x="-265.833" y="-27.833"><tspan id="svg_326" x="-219.833" y="5.167">oitava</tspan></text></g></g><g id="svg_327" transform="translate(82)"><g id="svg_328" transform="matrix(1.5,0,0,1.5,971,327)"><path style="fill:#77c428;fill-opacity:1;stroke:#57ad02;stroke-width:1;stroke-linecap:round;stroke-opacity:1" id="svg_329" d="m -257.33334,-27.333334 h 60 v 20 h -60 v -8 -1 h -6 v 3 h -2 v -8 h 2 v 3 h 6 v -1 z"/><text style="font-size:10px;font-family:sans-serif;text-anchor:start;fill:#282828" id="svg_330" x="-265.833" y="-27.833"><tspan id="svg_331" x="-252.833" y="-13.833">mi</tspan></text></g></g><g id="svg_332" transform="translate(82)"><g id="svg_333" transform="matrix(1.5,0,0,1.5,971,359)"><path style="fill:#ff5293;fill-opacity:1;stroke:#ff2c76;stroke-width:1;stroke-linecap:round;stroke-opacity:1" id="svg_334" d="m -257.33334,-27.333334 h 60 v 20 h -60 v -8 -1 h -6 v 3 h -2 v -8 h 2 v 3 h 6 v -1 z"/><text style="font-size:10px;font-family:sans-serif;text-anchor:start;fill:#282828" id="svg_335" x="-265.833" y="-27.833"><tspan id="svg_336" x="-252.833" y="-13.833">5</tspan></text></g></g></g></svg>