<svg xmlns="http://www.w3.org/2000/svg" xmlns:svg="http://www.w3.org/2000/svg" id="svg2335" width="949" height="913" version="1.1"><metadata id="metadata2341"/><rect id="backgroundrect" width="100%" height="100%" x="0" y="0" fill="none" stroke="none"/><g id="svg_15"><g id="svg_16"><g id="svg_17" transform="matrix(1.5,0,0,1.5,249,222)"><path style="fill:#fe994f;fill-opacity:1;stroke:#e86b0e;stroke-width:1;stroke-linecap:round;stroke-opacity:1" id="svg_18" d="m -156.66667,-73.333336 v -4 a 4,4 90 0 1 4,-4 h 4 v 2 h 10 v -2 h 9 59.999998 4 a 4,4 90 0 1 4,4 v 4 h -4 v -3 h -4 v 10 h 4 v -3 h 4 v 4 a 4,4 90 0 1 -4,4 h -4 -59.999998 -1 v 2 h -8 v -2 h -1 -4 a 5,5 90 0 0 -5,5 v 4 4 42.0000001 4 a 5,5 90 0 0 5,5 h 4 v 2 h 10 v -2 h 8 v 6 5.9999999 4 a 4,4 90 0 1 -4,4 h -4 -9 -1 v 2 h -8 v -2 h -1 -4 a 4,4 90 0 1 -4,-4 v -4 z"/><text style="font-size:10px;font-family:sans-serif;text-anchor:start;fill:#282828" id="svg_19" x="-157.167" y="-81.833"><tspan id="svg_20" x="-137.167" y="-66.833">nota</tspan></text><text style="font-size:6.66666651px;font-family:sans-serif;text-anchor:end;fill:#282828" id="svg_21" x="-157.167" y="-81.833"><tspan id="svg_22" x="-72.167" y="-69.833">valor</tspan></text></g></g><g id="svg_23" transform="matrix(0.5,0,0,0.5,249,226)"><g style="isolation:isolate" id="svg_24"><g id="レイヤー_2" data-name="レイヤー 2"><g id="Icon"><rect style="opacity:.4;mix-blend-mode:multiply;fill:#292929" id="svg_25" width="42" height="42" x="-471.5" y="-245.5" rx="5" ry="5"/><path style="fill:#fff" id="svg_26" d="m -440.94,-215.7 -4.17,-4.16 h 2.26 a 1.035,1.035 0 1 0 0,-2.07 h -4.71 a 1.08,1.08 0 0 0 -1.11,1 v 0 c 0,0 0,0 0,0.06 v 4.64 0 a 1.04,1.04 0 1 0 2.08,0 v -2.19 l 4.19,4.19 a 1,1 0 0 0 1.46,0 1,1 0 0 0 0,-1.47 z"/><path style="fill:#fff" id="svg_27" d="m -452.33,-220.9 a 1.08,1.08 0 0 0 -1.11,-1 h -4.71 a 1.035,1.035 0 1 0 0,2.07 h 2.25 l -4.16,4.13 a 1.039447,1.039447 0 0 0 1.47,1.47 l 4.18,-4.19 v 2.26 a 1.04,1.04 0 1 0 2.08,0 v -4.64 c 0,0 0,0 0,-0.06 a 0.08,0.08 0 0 1 0,-0.04 z"/><path style="fill:#fff" id="svg_28" d="m -447.56,-225 h 4.7 a 1.04,1.04 0 1 0 0,-2.08 h -2.25 l 4.17,-4.16 a 1,1 0 0 0 0,-1.47 1,1 0 0 0 -1.46,0 l -4.19,4.21 v -2.28 a 1.04,1.04 0 1 0 -2.08,0 v 4.64 a 0.43000001,0.43000001 0 0 0 0,0.05 v 0.05 a 1.09,1.09 0 0 0 1.11,1.04 z"/><path style="fill:#fff" id="svg_29" d="m -453.37,-231.88 a 1.08,1.08 0 0 0 -1,1.09 v 2.29 l -4.18,-4.19 a 1,1 0 0 0 -1.47,0 1,1 0 0 0 0,1.46 l 4.16,4.17 h -2.29 a 1.04,1.04 0 1 0 0,2.08 h 4.71 a 1.09,1.09 0 0 0 1.11,-1 c 0,0 0,0 0,-0.06 v -4.75 a 1.0700001,1.0700001 0 0 0 -1.04,-1.09 z"/></g></g></g></g></g><g id="svg_30"><g id="svg_31" transform="matrix(1.5,0,0,1.5,381,222)"><path style="fill:#ff5293;fill-opacity:1;stroke:#ff2c76;stroke-width:1;stroke-linecap:round;stroke-opacity:1" id="svg_32" d="m -148.66667,-73.333336 v -4 a 4,4 90 0 1 4,-4 h 4 10 30 3.999998 a 4,4 90 0 1 4,4 v 4 h -4 v -3 h -3.999998 v 10 h 3.999998 v -3 h 4 v 17 h -4 v -3 h -3.999998 v 10 h 3.999998 v -3 h 4 v 4 a 4,4 90 0 1 -4,4 h -3.999998 -30 -10 -4 a 4,4 90 0 1 -4,-4 v -4 -21 -1 h -6 v 3 h -2 v -8 h 2 v 3 h 6 z"/><text style="font-size:9px;font-family:sans-serif;text-anchor:end;fill:#282828" id="svg_33" x="-157.167" y="-81.833"><tspan id="svg_34" x="-103.167" y="-58.833">➗</tspan></text></g></g><g id="svg_39"><g id="svg_40" transform="matrix(1.5,0,0,1.5,467,222)"><path style="fill:#ff5293;fill-opacity:1;stroke:#ff2c76;stroke-width:1;stroke-linecap:round;stroke-opacity:1" id="svg_41" d="m -148.66667,-81.333336 h 59.999998 v 20 h -59.999998 v -8 -1 h -6 v 3 h -2 v -8 h 2 v 3 h 6 v -1 z"/><text style="font-size:10px;font-family:sans-serif;text-anchor:start;fill:#282828" id="svg_42" x="-157.167" y="-81.833"><tspan id="svg_43" x="-144.167" y="-67.833">1</tspan></text></g></g><g id="svg_44"><g id="svg_45" transform="matrix(1.5,0,0,1.5,467,254)"><path style="fill:#ff5293;fill-opacity:1;stroke:#ff2c76;stroke-width:1;stroke-linecap:round;stroke-opacity:1" id="svg_46" d="m -148.66667,-81.333336 h 59.999998 v 20 h -59.999998 v -8 -1 h -6 v 3 h -2 v -8 h 2 v 3 h 6 v -1 z"/><text style="font-size:10px;font-family:sans-serif;text-anchor:start;fill:#282828" id="svg_47" x="-157.167" y="-81.833"><tspan id="svg_48" x="-144.167" y="-67.833">8</tspan></text></g></g><g id="svg_49"><g id="svg_50" transform="matrix(1.5,0,0,1.5,249,190)"><path style="fill:#b0b0b0;fill-opacity:1;stroke:#a0a0a0;stroke-width:1;stroke-linecap:round;stroke-opacity:1" id="svg_51" d="m -156.66667,-73.333336 v -4 a 4,4 90 0 1 4,-4 h 4 v 2 h 10 v -2 h 20 4 a 4,4 90 0 1 4,4 v 4 4 4 a 4,4 90 0 1 -4,4 h -4 -20 -1 v 2 h -8 v -2 h -1 -4 a 4,4 90 0 1 -4,-4 v -4 z"/><text style="font-size:10px;font-family:sans-serif;text-anchor:end;fill:#282828" id="svg_52" x="-157.167" y="-81.833"><tspan id="svg_53" x="-121.167" y="-67.833">↓</tspan></text></g></g><g id="svg_54" transform="translate(66)"><g id="svg_55" transform="matrix(1.5,0,0,1.5,263,286)"><path style="fill:#77c428;fill-opacity:1;stroke:#57ad02;stroke-width:1;stroke-linecap:round;stroke-opacity:1" id="svg_56" d="m -200.66667,-73.333336 v -4 c 0,-2.209139 1.79086,-4 4,-4 h 4 v 2 h 10 v -2 h 74 4 c 2.20914,0 4,1.790861 4,4 v 4 h -4 v -3 h -4 v 10 h 4 v -3 h 4 v 17 h -4 v -3 h -4 v 10 h 4 v -3 h 4 v 4 c 0,2.209139 -1.79086,4 -4,4 h -4 -74 -1 v 2 h -8 v -2 h -1 -4 c -2.20914,0 -4.69859,-1.904227 -4,-4 v -4 -21 z"/><text style="font-size:10px;font-family:sans-serif;text-anchor:end;fill:#282828" id="svg_57" x="-157.167" y="-81.833"><tspan id="svg_58" x="-111.167" y="-57.833">determinar o tom</tspan></text><text style="font-size:6.66666651px;font-family:sans-serif;text-anchor:end;fill:#282828" id="svg_59" x="-157.167" y="-81.833"><tspan id="svg_60" x="-111.167" y="-69.833">nome</tspan></text><text style="font-size:6.66666651px;font-family:sans-serif;text-anchor:end;fill:#282828" id="svg_61" x="-157.167" y="-81.833"><tspan id="svg_62" x="-111.167" y="-48.833">oitava</tspan></text></g></g><g id="svg_63" transform="translate(66)"><g id="svg_64" transform="matrix(1.5,0,0,1.5,337,286)"><path style="fill:#77c428;fill-opacity:1;stroke:#57ad02;stroke-width:1;stroke-linecap:round;stroke-opacity:1" id="svg_65" d="m -148.66667,-81.333336 h 59.999998 v 20 h -59.999998 v -8 -1 h -6 v 3 h -2 v -8 h 2 v 3 h 6 v -1 z"/><text style="font-size:10px;font-family:sans-serif;text-anchor:start;fill:#282828" id="svg_66" x="-157.167" y="-81.833"><tspan id="svg_67" x="-144.167" y="-67.833">re</tspan></text></g></g><g id="svg_68" transform="translate(66)"><g id="svg_69" transform="matrix(1.5,0,0,1.5,337,318)"><path style="fill:#ff5293;fill-opacity:1;stroke:#ff2c76;stroke-width:1;stroke-linecap:round;stroke-opacity:1" id="svg_70" d="m -148.66667,-81.333336 h 59.999998 v 20 h -59.999998 v -8 -1 h -6 v 3 h -2 v -8 h 2 v 3 h 6 v -1 z"/><text style="font-size:10px;font-family:sans-serif;text-anchor:start;fill:#282828" id="svg_71" x="-157.167" y="-81.833"><tspan id="svg_72" x="-144.167" y="-67.833">5</tspan></text></g></g><g id="svg_73"><g id="svg_74"><g id="svg_75" transform="matrix(1.5,0,0,1.5,249,380)"><path style="fill:#fe994f;fill-opacity:1;stroke:#e86b0e;stroke-width:1;stroke-linecap:round;stroke-opacity:1" id="svg_76" d="m -156.66667,-73.333336 v -4 a 4,4 90 0 1 4,-4 h 4 v 2 h 10 v -2 h 9 59.999998 4 a 4,4 90 0 1 4,4 v 4 h -4 v -3 h -4 v 10 h 4 v -3 h 4 v 4 a 4,4 90 0 1 -4,4 h -4 -59.999998 -1 v 2 h -8 v -2 h -1 -4 a 5,5 90 0 0 -5,5 v 4 4 42.0000001 4 a 5,5 90 0 0 5,5 h 4 v 2 h 10 v -2 h 8 v 6 5.9999999 4 a 4,4 90 0 1 -4,4 h -4 -9 -1 v 2 h -8 v -2 h -1 -4 a 4,4 90 0 1 -4,-4 v -4 z"/><text style="font-size:10px;font-family:sans-serif;text-anchor:start;fill:#282828" id="svg_77" x="-157.167" y="-81.833"><tspan id="svg_78" x="-137.167" y="-66.833">nota</tspan></text><text style="font-size:6.66666651px;font-family:sans-serif;text-anchor:end;fill:#282828" id="svg_79" x="-157.167" y="-81.833"><tspan id="svg_80" x="-72.167" y="-69.833">valor</tspan></text></g></g><g id="svg_81" transform="matrix(0.5,0,0,0.5,249,384)"><g style="isolation:isolate" id="svg_82"><g id="g1906" data-name="レイヤー 2"><g id="g1904"><rect style="opacity:.4;mix-blend-mode:multiply;fill:#292929" id="svg_83" width="42" height="42" x="-471.5" y="-245.5" rx="5" ry="5"/><path style="fill:#fff" id="svg_84" d="m -440.94,-215.7 -4.17,-4.16 h 2.26 a 1.035,1.035 0 1 0 0,-2.07 h -4.71 a 1.08,1.08 0 0 0 -1.11,1 v 0 c 0,0 0,0 0,0.06 v 4.64 0 a 1.04,1.04 0 1 0 2.08,0 v -2.19 l 4.19,4.19 a 1,1 0 0 0 1.46,0 1,1 0 0 0 0,-1.47 z"/><path style="fill:#fff" id="svg_85" d="m -452.33,-220.9 a 1.08,1.08 0 0 0 -1.11,-1 h -4.71 a 1.035,1.035 0 1 0 0,2.07 h 2.25 l -4.16,4.13 a 1.039447,1.039447 0 0 0 1.47,1.47 l 4.18,-4.19 v 2.26 a 1.04,1.04 0 1 0 2.08,0 v -4.64 c 0,0 0,0 0,-0.06 a 0.08,0.08 0 0 1 0,-0.04 z"/><path style="fill:#fff" id="svg_86" d="m -447.56,-225 h 4.7 a 1.04,1.04 0 1 0 0,-2.08 h -2.25 l 4.17,-4.16 a 1,1 0 0 0 0,-1.47 1,1 0 0 0 -1.46,0 l -4.19,4.21 v -2.28 a 1.04,1.04 0 1 0 -2.08,0 v 4.64 a 0.43000001,0.43000001 0 0 0 0,0.05 v 0.05 a 1.09,1.09 0 0 0 1.11,1.04 z"/><path style="fill:#fff" id="svg_87" d="m -453.37,-231.88 a 1.08,1.08 0 0 0 -1,1.09 v 2.29 l -4.18,-4.19 a 1,1 0 0 0 -1.47,0 1,1 0 0 0 0,1.46 l 4.16,4.17 h -2.29 a 1.04,1.04 0 1 0 0,2.08 h 4.71 a 1.09,1.09 0 0 0 1.11,-1 c 0,0 0,0 0,-0.06 v -4.75 a 1.0700001,1.0700001 0 0 0 -1.04,-1.09 z"/></g></g></g></g></g><g id="svg_88"><g id="svg_89" transform="matrix(1.5,0,0,1.5,381,380)"><path style="fill:#ff5293;fill-opacity:1;stroke:#ff2c76;stroke-width:1;stroke-linecap:round;stroke-opacity:1" id="svg_90" d="m -148.66667,-73.333336 v -4 a 4,4 90 0 1 4,-4 h 4 10 30 3.999998 a 4,4 90 0 1 4,4 v 4 h -4 v -3 h -3.999998 v 10 h 3.999998 v -3 h 4 v 17 h -4 v -3 h -3.999998 v 10 h 3.999998 v -3 h 4 v 4 a 4,4 90 0 1 -4,4 h -3.999998 -30 -10 -4 a 4,4 90 0 1 -4,-4 v -4 -21 -1 h -6 v 3 h -2 v -8 h 2 v 3 h 6 z"/><text style="font-size:9px;font-family:sans-serif;text-anchor:end;fill:#282828" id="svg_91" x="-157.167" y="-81.833"><tspan id="svg_92" x="-103.167" y="-58.833">➗</tspan></text></g></g><g id="svg_97"><g id="svg_98" transform="matrix(1.5,0,0,1.5,467,380)"><path style="fill:#ff5293;fill-opacity:1;stroke:#ff2c76;stroke-width:1;stroke-linecap:round;stroke-opacity:1" id="svg_99" d="m -148.66667,-81.333336 h 59.999998 v 20 h -59.999998 v -8 -1 h -6 v 3 h -2 v -8 h 2 v 3 h 6 v -1 z"/><text style="font-size:10px;font-family:sans-serif;text-anchor:start;fill:#282828" id="svg_100" x="-157.167" y="-81.833"><tspan id="svg_101" x="-144.167" y="-67.833">1</tspan></text></g></g><g id="svg_102"><g id="svg_103" transform="matrix(1.5,0,0,1.5,467,412)"><path style="fill:#ff5293;fill-opacity:1;stroke:#ff2c76;stroke-width:1;stroke-linecap:round;stroke-opacity:1" id="svg_104" d="m -148.66667,-81.333336 h 59.999998 v 20 h -59.999998 v -8 -1 h -6 v 3 h -2 v -8 h 2 v 3 h 6 v -1 z"/><text style="font-size:10px;font-family:sans-serif;text-anchor:start;fill:#282828" id="svg_105" x="-157.167" y="-81.833"><tspan id="svg_106" x="-144.167" y="-67.833">8</tspan></text></g></g><g id="svg_107"><g id="svg_108" transform="matrix(1.5,0,0,1.5,263,412)"><path style="fill:#b0b0b0;fill-opacity:1;stroke:#a0a0a0;stroke-width:1;stroke-linecap:round;stroke-opacity:1" id="svg_109" d="m -156.66667,-73.333336 v -4 a 4,4 90 0 1 4,-4 h 4 v 2 h 10 v -2 h 20 4 a 4,4 90 0 1 4,4 v 4 4 4 a 4,4 90 0 1 -4,4 h -4 -20 -1 v 2 h -8 v -2 h -1 -4 a 4,4 90 0 1 -4,-4 v -4 z"/><text style="font-size:10px;font-family:sans-serif;text-anchor:end;fill:#282828" id="svg_110" x="-157.167" y="-81.833"><tspan id="svg_111" x="-121.167" y="-67.833">↓</tspan></text></g></g><g id="svg_112" transform="translate(66)"><g id="svg_113" transform="matrix(1.5,0,0,1.5,263,444)"><path style="fill:#77c428;fill-opacity:1;stroke:#57ad02;stroke-width:1;stroke-linecap:round;stroke-opacity:1" id="svg_114" d="m -200.66667,-73.333336 v -4 c 0,-2.209139 1.79086,-4 4,-4 h 4 v 2 h 10 v -2 h 74 4 c 2.20914,0 4,1.790861 4,4 v 4 h -4 v -3 h -4 v 10 h 4 v -3 h 4 v 17 h -4 v -3 h -4 v 10 h 4 v -3 h 4 v 4 c 0,2.209139 -1.79086,4 -4,4 h -4 -74 -1 v 2 h -8 v -2 h -1 -4 c -2.20914,0 -4,-1.790861 -4,-4 v -4 -21 z"/><text style="font-size:10px;font-family:sans-serif;text-anchor:end;fill:#282828" id="svg_115" x="-157.167" y="-81.833"><tspan id="svg_116" x="-111.167" y="-57.833">determinar o tom</tspan></text><text style="font-size:6.66666651px;font-family:sans-serif;text-anchor:end;fill:#282828" id="svg_117" x="-157.167" y="-81.833"><tspan id="svg_118" x="-111.167" y="-69.833">nome</tspan></text><text style="font-size:6.66666651px;font-family:sans-serif;text-anchor:end;fill:#282828" id="svg_119" x="-157.167" y="-81.833"><tspan id="svg_120" x="-111.167" y="-48.833">oitava</tspan></text></g></g><g id="svg_121" transform="translate(66)"><g id="svg_122" transform="matrix(1.5,0,0,1.5,337,444)"><path style="fill:#77c428;fill-opacity:1;stroke:#57ad02;stroke-width:1;stroke-linecap:round;stroke-opacity:1" id="svg_123" d="m -148.66667,-81.333336 h 59.999998 v 20 h -59.999998 v -8 -1 h -6 v 3 h -2 v -8 h 2 v 3 h 6 v -1 z"/><text style="font-size:10px;font-family:sans-serif;text-anchor:start;fill:#282828" id="svg_124" x="-157.167" y="-81.833"><tspan id="svg_125" x="-144.167" y="-67.833">mi</tspan></text></g></g><g id="svg_126" transform="translate(66)"><g id="svg_127" transform="matrix(1.5,0,0,1.5,337,476)"><path style="fill:#ff5293;fill-opacity:1;stroke:#ff2c76;stroke-width:1;stroke-linecap:round;stroke-opacity:1" id="svg_128" d="m -148.66667,-81.333336 h 59.999998 v 20 h -59.999998 v -8 -1 h -6 v 3 h -2 v -8 h 2 v 3 h 6 v -1 z"/><text style="font-size:10px;font-family:sans-serif;text-anchor:start;fill:#282828" id="svg_129" x="-157.167" y="-81.833"><tspan id="svg_130" x="-144.167" y="-67.833">5</tspan></text></g></g><g id="svg_131"><g id="svg_132" transform="matrix(1.5,0,0,1.5,235,126)"><path style="fill:#77c428;fill-opacity:1;stroke:#57ad02;stroke-width:1;stroke-linecap:round;stroke-opacity:1" id="svg_133" d="m -156.66667,-73.333336 v -4 c 0,-2.209139 1.79086,-4 4,-4 h 4 v 2 h 10 v -2 h 9 103.333331 4 c 2.209139,0 4,1.790861 4,4 v 4 h -4 v -3 h -4 v 10 h 4 v -3 h 4 v 4 c 0,2.209139 -1.790861,4 -4,4 h -4 -103.333331 -1 v 2 h -8 v -2 h -1 -4 c -2.76142,0 -5,2.238576 -5,5 v 4 4 230.999996 4 c 0,2.76142 2.23858,5 5,5 h 4 v 2 h 10 v -2 h 8 v 6 6 4 c 0,2.20914 -1.79086,4 -4,4 h -4 -9 -1 v 2 h -8 v -2 h -1 -4 c -2.20914,0 -4,-1.79086 -4,-4 v -4 z"/><text style="font-size:10px;font-family:sans-serif;text-anchor:start;fill:#282828" id="svg_134" x="-157.167" y="-81.833"><tspan id="svg_135" x="-152.167" y="-66.833">intervalo semi-tom (+/–)</tspan></text></g></g><g id="svg_138" transform="translate(8)"><g id="svg_139" transform="matrix(1.5,0,0,1.5,424,126)"><path style="fill:#ff5293;fill-opacity:1;stroke:#ff2c76;stroke-width:1;stroke-linecap:round;stroke-opacity:1" id="svg_140" d="m -148.66667,-73.333336 v -4 a 4,4 90 0 1 4,-4 h 4 10 30 3.999998 a 4,4 90 0 1 4,4 v 4 h -4 v -3 h -3.999998 v 10 h 3.999998 v -3 h 4 v 17 h -4 v -3 h -3.999998 v 10 h 3.999998 v -3 h 4 v 4 a 4,4 90 0 1 -4,4 h -3.999998 -30 -10 -4 a 4,4 90 0 1 -4,-4 v -4 -21 -1 h -6 v 3 h -2 v -8 h 2 v 3 h 6 z"/><text style="font-size:14px;font-family:sans-serif;text-anchor:end;fill:#282828" id="svg_141" x="-157.167" y="-81.833"><tspan id="svg_142" x="-103.167" y="-57.833">+</tspan></text></g></g><g id="svg_147" transform="translate(8)"><g id="svg_148" transform="matrix(1.5,0,0,1.5,510,158)"><path style="fill:#ff5293;fill-opacity:1;stroke:#ff2c76;stroke-width:1;stroke-linecap:round;stroke-opacity:1" id="svg_149" d="m -148.66667,-73.333336 v -4 a 4,4 90 0 1 4,-4 h 4 10 30 3.999998 a 4,4 90 0 1 4,4 v 4 h -4 v -3 h -3.999998 v 10 h 3.999998 v -3 h 4 v 17 h -4 v -3 h -3.999998 v 10 h 3.999998 v -3 h 4 v 4 a 4,4 90 0 1 -4,4 h -3.999998 -30 -10 -4 a 4,4 90 0 1 -4,-4 v -4 -21 -1 h -6 v 3 h -2 v -8 h 2 v 3 h 6 z"/><text style="font-size:14px;font-family:sans-serif;text-anchor:end;fill:#282828" id="svg_150" x="-157.167" y="-81.833"><tspan id="svg_151" x="-103.167" y="-57.833">×</tspan></text></g></g><g id="svg_156" transform="translate(8)"><g id="svg_157" transform="matrix(1.5,0,0,1.5,596,190)"><path style="fill:#ff5293;fill-opacity:1;stroke:#ff2c76;stroke-width:1;stroke-linecap:round;stroke-opacity:1" id="svg_158" d="m -148.66667,-81.333336 h 59.999998 v 20 h -59.999998 v -8 -1 h -6 v 3 h -2 v -8 h 2 v 3 h 6 v -1 z"/><text style="font-size:10px;font-family:sans-serif;text-anchor:start;fill:#282828" id="svg_159" x="-157.167" y="-81.833"><tspan id="svg_160" x="-144.167" y="-67.833">12</tspan></text></g></g><g id="svg_161"><g id="svg_162" transform="matrix(1.5,0,0,1.5,249,158)"><path style="fill:#b0b0b0;fill-opacity:1;stroke:#a0a0a0;stroke-width:1;stroke-linecap:round;stroke-opacity:1" id="svg_163" d="m -156.66667,-73.333336 v -4 a 4,4 90 0 1 4,-4 h 4 v 2 h 10 v -2 h 20 4 a 4,4 90 0 1 4,4 v 4 4 4 a 4,4 90 0 1 -4,4 h -4 -20 -1 v 2 h -8 v -2 h -1 -4 a 4,4 90 0 1 -4,-4 v -4 z"/><text style="font-size:10px;font-family:sans-serif;text-anchor:end;fill:#282828" id="svg_164" x="-157.167" y="-81.833"><tspan id="svg_165" x="-121.167" y="-67.833">↓</tspan></text></g></g><g id="svg_166"><g id="svg_167" transform="matrix(1.5,0,0,1.5,263,254)"><path style="fill:#b0b0b0;fill-opacity:1;stroke:#a0a0a0;stroke-width:1;stroke-linecap:round;stroke-opacity:1" id="svg_168" d="m -156.66667,-73.333336 v -4 a 4,4 90 0 1 4,-4 h 4 v 2 h 10 v -2 h 20 4 a 4,4 90 0 1 4,4 v 4 4 4 a 4,4 90 0 1 -4,4 h -4 -20 -1 v 2 h -8 v -2 h -1 -4 a 4,4 90 0 1 -4,-4 v -4 z"/><text style="font-size:10px;font-family:sans-serif;text-anchor:end;fill:#282828" id="svg_169" x="-157.167" y="-81.833"><tspan id="svg_170" x="-121.167" y="-67.833">↓</tspan></text></g></g><g id="svg_171" transform="translate(8)"><g id="svg_172" transform="matrix(1.5,0,0,1.5,510,126)"><path style="fill:#77c428;fill-opacity:1;stroke:#57ad02;stroke-width:1;stroke-linecap:round;stroke-opacity:1" id="svg_173" d="m -148.66667,-81.333336 h 109.999998 v 20 H -148.66667 v -8 -1 h -6 v 3 h -2 v -8 h 2 v 3 h 6 v -1 z"/><text style="font-size:10px;font-family:sans-serif;text-anchor:start;fill:#282828" id="svg_174" x="-157.167" y="-81.833"><tspan id="svg_175" x="-144.167" y="-67.833">aumentado 5</tspan></text></g></g><g id="svg_176" transform="translate(8)"><g id="svg_177" transform="matrix(1.5,0,0,1.5,596,158)"><path style="fill:#ff5293;fill-opacity:1;stroke:#ff2c76;stroke-width:1;stroke-linecap:round;stroke-opacity:1" id="svg_178" d="m -148.66667,-81.333336 h 59.999998 v 20 h -59.999998 v -8 -1 h -6 v 3 h -2 v -8 h 2 v 3 h 6 v -1 z"/><text style="font-size:10px;font-family:sans-serif;text-anchor:start;fill:#282828" id="svg_179" x="-157.167" y="-81.833"><tspan id="svg_180" x="-144.167" y="-67.833">0</tspan></text></g></g><g id="svg_181"><g id="svg_182" transform="matrix(1.5,0,0,1.5,721,122)"><path style="fill:#77c428;fill-opacity:1;stroke:#57ad02;stroke-width:1;stroke-linecap:round;stroke-opacity:1" id="svg_183" d="m -156.66667,-73.333336 v -4 c 0,-2.209139 1.79086,-4 4,-4 h 4 v 2 h 10 v -2 h 9 103.333331 4 c 2.209139,0 4.698591,1.904227 4,4 v 4 h -4 v -3 h -4 v 10 h 4 v -3 h 4 v 4 c 0,2.209139 -1.790861,4 -4,4 h -4 -103.333331 -1 v 2 h -8 v -2 h -1 -4 c -2.76142,0 -5,2.238576 -5,5 v 4 4 230.999996 4 c 0,2.76142 2.23858,5 5,5 h 4 v 2 h 10 v -2 h 8 v 6 6 4 c 0,2.20914 -1.79086,4 -4,4 h -4 -9 -1 v 2 h -8 v -2 h -1 -4 c -2.20914,0 -4,-1.79086 -4,-4 v -4 z"/><text style="font-size:10px;font-family:sans-serif;text-anchor:start;fill:#282828" id="svg_184" x="-157.167" y="-81.833"><tspan id="svg_185" x="-152.167" y="-66.833">intervalo semi-tom (+/–)</tspan></text></g></g><g id="svg_188" transform="translate(8)"><g id="svg_189" transform="matrix(1.5,0,0,1.5,910,122)"><path style="fill:#ff5293;fill-opacity:1;stroke:#ff2c76;stroke-width:1;stroke-linecap:round;stroke-opacity:1" id="svg_190" d="m -148.66667,-73.333336 v -4 a 4,4 90 0 1 4,-4 h 4 10 30 3.999998 a 4,4 90 0 1 4,4 v 4 h -4 v -3 h -3.999998 v 10 h 3.999998 v -3 h 4 v 17 h -4 v -3 h -3.999998 v 10 h 3.999998 v -3 h 4 v 4 a 4,4 90 0 1 -4,4 h -3.999998 -30 -10 -4 a 4,4 90 0 1 -4,-4 v -4 -21 -1 h -6 v 3 h -2 v -8 h 2 v 3 h 6 z"/><text style="font-size:14px;font-family:sans-serif;text-anchor:end;fill:#282828" id="svg_191" x="-157.167" y="-81.833"><tspan id="svg_192" x="-103.167" y="-57.833">+</tspan></text></g></g><g id="svg_197" transform="translate(8)"><g id="svg_198" transform="matrix(1.5,0,0,1.5,996,154)"><path style="fill:#ff5293;fill-opacity:1;stroke:#ff2c76;stroke-width:1;stroke-linecap:round;stroke-opacity:1" id="svg_199" d="m -148.66667,-73.333336 v -4 a 4,4 90 0 1 4,-4 h 4 10 30 3.999998 a 4,4 90 0 1 4,4 v 4 h -4 v -3 h -3.999998 v 10 h 3.999998 v -3 h 4 v 17 h -4 v -3 h -3.999998 v 10 h 3.999998 v -3 h 4 v 4 a 4,4 90 0 1 -4,4 h -3.999998 -30 -10 -4 a 4,4 90 0 1 -4,-4 v -4 -21 -1 h -6 v 3 h -2 v -8 h 2 v 3 h 6 z"/><text style="font-size:14px;font-family:sans-serif;text-anchor:end;fill:#282828" id="svg_200" x="-157.167" y="-81.833"><tspan id="svg_201" x="-103.167" y="-57.833">×</tspan></text></g></g><g id="svg_206" transform="translate(8)"><g id="svg_207" transform="matrix(1.5,0,0,1.5,1082,154)"><path style="fill:#ff5293;fill-opacity:1;stroke:#ff2c76;stroke-width:1;stroke-linecap:round;stroke-opacity:1" id="svg_208" d="m -148.66667,-81.333336 h 59.999998 v 20 h -59.999998 v -8 -1 h -6 v 3 h -2 v -8 h 2 v 3 h 6 v -1 z"/><text style="font-size:10px;font-family:sans-serif;text-anchor:start;fill:#282828" id="svg_209" x="-157.167" y="-81.833"><tspan id="svg_210" x="-144.167" y="-67.833">1</tspan></text></g></g><g id="svg_211" transform="translate(8)"><g id="svg_212" transform="matrix(1.5,0,0,1.5,1082,186)"><path style="fill:#ff5293;fill-opacity:1;stroke:#ff2c76;stroke-width:1;stroke-linecap:round;stroke-opacity:1" id="svg_213" d="m -148.66667,-81.333336 h 59.999998 v 20 h -59.999998 v -8 -1 h -6 v 3 h -2 v -8 h 2 v 3 h 6 v -1 z"/><text style="font-size:10px;font-family:sans-serif;text-anchor:start;fill:#282828" id="svg_214" x="-157.167" y="-81.833"><tspan id="svg_215" x="-144.167" y="-67.833">12</tspan></text></g></g><g id="svg_216"><g id="svg_217" transform="matrix(1.5,0,0,1.5,735,154)"><path style="fill:#b0b0b0;fill-opacity:1;stroke:#a0a0a0;stroke-width:1;stroke-linecap:round;stroke-opacity:1" id="svg_218" d="m -156.66667,-73.333336 v -4 a 4,4 90 0 1 4,-4 h 4 v 2 h 10 v -2 h 20 4 a 4,4 90 0 1 4,4 v 4 4 4 a 4,4 90 0 1 -4,4 h -4 -20 -1 v 2 h -8 v -2 h -1 -4 a 4,4 90 0 1 -4,-4 v -4 z"/><text style="font-size:10px;font-family:sans-serif;text-anchor:end;fill:#282828" id="svg_219" x="-157.167" y="-81.833"><tspan id="svg_220" x="-121.167" y="-67.833">↓</tspan></text></g></g><g id="svg_221"><g id="svg_222" transform="matrix(1.5,0,0,1.5,735,186)"><path style="fill:#b0b0b0;fill-opacity:1;stroke:#a0a0a0;stroke-width:1;stroke-linecap:round;stroke-opacity:1" id="svg_223" d="m -156.66667,-73.333336 v -4 a 4,4 90 0 1 4,-4 h 4 v 2 h 10 v -2 h 20 4 a 4,4 90 0 1 4,4 v 4 4 4 a 4,4 90 0 1 -4,4 h -4 -20 -1 v 2 h -8 v -2 h -1 -4 a 4,4 90 0 1 -4,-4 v -4 z"/><text style="font-size:10px;font-family:sans-serif;text-anchor:end;fill:#282828" id="svg_224" x="-157.167" y="-81.833"><tspan id="svg_225" x="-121.167" y="-67.833">↓</tspan></text></g></g><g id="svg_226"><g id="svg_227"><g id="svg_228" transform="matrix(1.5,0,0,1.5,735,218)"><path style="fill:#fe994f;fill-opacity:1;stroke:#e86b0e;stroke-width:1;stroke-linecap:round;stroke-opacity:1" id="svg_229" d="m -156.66667,-73.333336 v -4 a 4,4 90 0 1 4,-4 h 4 v 2 h 10 v -2 h 9 59.999998 4 a 4,4 90 0 1 4,4 v 4 h -4 v -3 h -4 v 10 h 4 v -3 h 4 v 4 a 4,4 90 0 1 -4,4 h -4 -59.999998 -1 v 2 h -8 v -2 h -1 -4 a 5,5 90 0 0 -5,5 v 4 4 42.0000001 4 a 5,5 90 0 0 5,5 h 4 v 2 h 10 v -2 h 8 v 6 5.9999999 4 a 4,4 90 0 1 -4,4 h -4 -9 -1 v 2 h -8 v -2 h -1 -4 a 4,4 90 0 1 -4,-4 v -4 z"/><text style="font-size:10px;font-family:sans-serif;text-anchor:start;fill:#282828" id="svg_230" x="-157.167" y="-81.833"><tspan id="svg_231" x="-137.167" y="-66.833">nota</tspan></text><text style="font-size:6.66666651px;font-family:sans-serif;text-anchor:end;fill:#282828" id="svg_232" x="-157.167" y="-81.833"><tspan id="svg_233" x="-72.167" y="-69.833">valor</tspan></text></g></g><g id="svg_234" transform="matrix(0.5,0,0,0.5,735,222)"><g style="isolation:isolate" id="svg_235"><g id="g2051" data-name="レイヤー 2"><g id="g2049"><rect style="opacity:.4;mix-blend-mode:multiply;fill:#292929" id="svg_236" width="42" height="42" x="-471.5" y="-245.5" rx="5" ry="5"/><path style="fill:#fff" id="svg_237" d="m -440.94,-215.7 -4.17,-4.16 h 2.26 a 1.035,1.035 0 1 0 0,-2.07 h -4.71 a 1.08,1.08 0 0 0 -1.11,1 v 0 c 0,0 0,0 0,0.06 v 4.64 0 a 1.04,1.04 0 1 0 2.08,0 v -2.19 l 4.19,4.19 a 1,1 0 0 0 1.46,0 1,1 0 0 0 0,-1.47 z"/><path style="fill:#fff" id="svg_238" d="m -452.33,-220.9 a 1.08,1.08 0 0 0 -1.11,-1 h -4.71 a 1.035,1.035 0 1 0 0,2.07 h 2.25 l -4.16,4.13 a 1.039447,1.039447 0 0 0 1.47,1.47 l 4.18,-4.19 v 2.26 a 1.04,1.04 0 1 0 2.08,0 v -4.64 c 0,0 0,0 0,-0.06 a 0.08,0.08 0 0 1 0,-0.04 z"/><path style="fill:#fff" id="svg_239" d="m -447.56,-225 h 4.7 a 1.04,1.04 0 1 0 0,-2.08 h -2.25 l 4.17,-4.16 a 1,1 0 0 0 0,-1.47 1,1 0 0 0 -1.46,0 l -4.19,4.21 v -2.28 a 1.04,1.04 0 1 0 -2.08,0 v 4.64 a 0.43000001,0.43000001 0 0 0 0,0.05 v 0.05 a 1.09,1.09 0 0 0 1.11,1.04 z"/><path style="fill:#fff" id="svg_240" d="m -453.37,-231.88 a 1.08,1.08 0 0 0 -1,1.09 v 2.29 l -4.18,-4.19 a 1,1 0 0 0 -1.47,0 1,1 0 0 0 0,1.46 l 4.16,4.17 h -2.29 a 1.04,1.04 0 1 0 0,2.08 h 4.71 a 1.09,1.09 0 0 0 1.11,-1 c 0,0 0,0 0,-0.06 v -4.75 a 1.0700001,1.0700001 0 0 0 -1.04,-1.09 z"/></g></g></g></g></g><g id="svg_241"><g id="svg_242" transform="matrix(1.5,0,0,1.5,867,218)"><path style="fill:#ff5293;fill-opacity:1;stroke:#ff2c76;stroke-width:1;stroke-linecap:round;stroke-opacity:1" id="svg_243" d="m -148.66667,-73.333336 v -4 a 4,4 90 0 1 4,-4 h 4 10 30 3.999998 a 4,4 90 0 1 4,4 v 4 h -4 v -3 h -3.999998 v 10 h 3.999998 v -3 h 4 v 17 h -4 v -3 h -3.999998 v 10 h 3.999998 v -3 h 4 v 4 a 4,4 90 0 1 -4,4 h -3.999998 -30 -10 -4 a 4,4 90 0 1 -4,-4 v -4 -21 -1 h -6 v 3 h -2 v -8 h 2 v 3 h 6 z"/><text style="font-size:9px;font-family:sans-serif;text-anchor:end;fill:#282828" id="svg_244" x="-157.167" y="-81.833"><tspan id="svg_245" x="-103.167" y="-58.833">➗</tspan></text></g></g><g id="svg_250"><g id="svg_251" transform="matrix(1.5,0,0,1.5,953,218)"><path style="fill:#ff5293;fill-opacity:1;stroke:#ff2c76;stroke-width:1;stroke-linecap:round;stroke-opacity:1" id="svg_252" d="m -148.66667,-81.333336 h 59.999998 v 20 h -59.999998 v -8 -1 h -6 v 3 h -2 v -8 h 2 v 3 h 6 v -1 z"/><text style="font-size:10px;font-family:sans-serif;text-anchor:start;fill:#282828" id="svg_253" x="-157.167" y="-81.833"><tspan id="svg_254" x="-144.167" y="-67.833">1</tspan></text></g></g><g id="svg_255"><g id="svg_256" transform="matrix(1.5,0,0,1.5,953,250)"><path style="fill:#ff5293;fill-opacity:1;stroke:#ff2c76;stroke-width:1;stroke-linecap:round;stroke-opacity:1" id="svg_257" d="m -148.66667,-81.333336 h 59.999998 v 20 h -59.999998 v -8 -1 h -6 v 3 h -2 v -8 h 2 v 3 h 6 v -1 z"/><text style="font-size:10px;font-family:sans-serif;text-anchor:start;fill:#282828" id="svg_258" x="-157.167" y="-81.833"><tspan id="svg_259" x="-144.167" y="-67.833">8</tspan></text></g></g><g id="svg_260"><g id="svg_261" transform="matrix(1.5,0,0,1.5,749,250)"><path style="fill:#b0b0b0;fill-opacity:1;stroke:#a0a0a0;stroke-width:1;stroke-linecap:round;stroke-opacity:1" id="svg_262" d="m -156.66667,-73.333336 v -4 a 4,4 90 0 1 4,-4 h 4 v 2 h 10 v -2 h 20 4 a 4,4 90 0 1 4,4 v 4 4 4 a 4,4 90 0 1 -4,4 h -4 -20 -1 v 2 h -8 v -2 h -1 -4 a 4,4 90 0 1 -4,-4 v -4 z"/><text style="font-size:10px;font-family:sans-serif;text-anchor:end;fill:#282828" id="svg_263" x="-157.167" y="-81.833"><tspan id="svg_264" x="-121.167" y="-67.833">↓</tspan></text></g></g><g id="svg_265" transform="translate(66)"><g id="svg_266" transform="matrix(1.5,0,0,1.5,749,282)"><path style="fill:#77c428;fill-opacity:1;stroke:#57ad02;stroke-width:1;stroke-linecap:round;stroke-opacity:1" id="svg_267" d="m -200.66667,-73.333336 v -4 c 0,-2.209139 1.79086,-4 4,-4 h 4 v 2 h 10 v -2 h 74 4 c 2.20914,0 4,1.790861 4,4 v 4 h -4 v -3 h -4 v 10 h 4 v -3 h 4 v 17 h -4 v -3 h -4 v 10 h 4 v -3 h 4 v 4 c 0,2.209139 -1.79086,4 -4,4 h -4 -74 -1 v 2 h -8 v -2 h -1 -4 c -2.20914,0 -4.69859,-1.904227 -4,-4 v -4 -21 z"/><text style="font-size:10px;font-family:sans-serif;text-anchor:end;fill:#282828" id="svg_268" x="-157.167" y="-81.833"><tspan id="svg_269" x="-111.167" y="-57.833">determinar o tom</tspan></text><text style="font-size:6.66666651px;font-family:sans-serif;text-anchor:end;fill:#282828" id="svg_270" x="-157.167" y="-81.833"><tspan id="svg_271" x="-111.167" y="-69.833">nome</tspan></text><text style="font-size:6.66666651px;font-family:sans-serif;text-anchor:end;fill:#282828" id="svg_272" x="-157.167" y="-81.833"><tspan id="svg_273" x="-111.167" y="-48.833">oitava</tspan></text></g></g><g id="svg_274" transform="translate(66)"><g id="svg_275" transform="matrix(1.5,0,0,1.5,823,282)"><path style="fill:#77c428;fill-opacity:1;stroke:#57ad02;stroke-width:1;stroke-linecap:round;stroke-opacity:1" id="svg_276" d="m -148.66667,-81.333336 h 59.999998 v 20 h -59.999998 v -8 -1 h -6 v 3 h -2 v -8 h 2 v 3 h 6 v -1 z"/><text style="font-size:10px;font-family:sans-serif;text-anchor:start;fill:#282828" id="svg_277" x="-157.167" y="-81.833"><tspan id="svg_278" x="-144.167" y="-67.833">re</tspan></text></g></g><g id="svg_279" transform="translate(66)"><g id="svg_280" transform="matrix(1.5,0,0,1.5,823,314)"><path style="fill:#ff5293;fill-opacity:1;stroke:#ff2c76;stroke-width:1;stroke-linecap:round;stroke-opacity:1" id="svg_281" d="m -148.66667,-81.333336 h 59.999998 v 20 h -59.999998 v -8 -1 h -6 v 3 h -2 v -8 h 2 v 3 h 6 v -1 z"/><text style="font-size:10px;font-family:sans-serif;text-anchor:start;fill:#282828" id="svg_282" x="-157.167" y="-81.833"><tspan id="svg_283" x="-144.167" y="-67.833">5</tspan></text></g></g><g id="svg_284"><g id="svg_285"><g id="svg_286" transform="matrix(1.5,0,0,1.5,735,376)"><path style="fill:#fe994f;fill-opacity:1;stroke:#e86b0e;stroke-width:1;stroke-linecap:round;stroke-opacity:1" id="svg_287" d="m -156.66667,-73.333336 v -4 a 4,4 90 0 1 4,-4 h 4 v 2 h 10 v -2 h 9 59.999998 4 a 4,4 90 0 1 4,4 v 4 h -4 v -3 h -4 v 10 h 4 v -3 h 4 v 4 a 4,4 90 0 1 -4,4 h -4 -59.999998 -1 v 2 h -8 v -2 h -1 -4 a 5,5 90 0 0 -5,5 v 4 4 42.0000001 4 a 5,5 90 0 0 5,5 h 4 v 2 h 10 v -2 h 8 v 6 5.9999999 4 a 4,4 90 0 1 -4,4 h -4 -9 -1 v 2 h -8 v -2 h -1 -4 a 4,4 90 0 1 -4,-4 v -4 z"/><text style="font-size:10px;font-family:sans-serif;text-anchor:start;fill:#282828" id="svg_288" x="-157.167" y="-81.833"><tspan id="svg_289" x="-137.167" y="-66.833">nota</tspan></text><text style="font-size:6.66666651px;font-family:sans-serif;text-anchor:end;fill:#282828" id="svg_290" x="-157.167" y="-81.833"><tspan id="svg_291" x="-72.167" y="-69.833">valor</tspan></text></g></g><g id="svg_292" transform="matrix(0.5,0,0,0.5,735,380)"><g style="isolation:isolate" id="svg_293"><g id="g2111" data-name="レイヤー 2"><g id="g2109"><rect style="opacity:.4;mix-blend-mode:multiply;fill:#292929" id="svg_294" width="42" height="42" x="-471.5" y="-245.5" rx="5" ry="5"/><path style="fill:#fff" id="svg_295" d="m -440.94,-215.7 -4.17,-4.16 h 2.26 a 1.035,1.035 0 1 0 0,-2.07 h -4.71 a 1.08,1.08 0 0 0 -1.11,1 v 0 c 0,0 0,0 0,0.06 v 4.64 0 a 1.04,1.04 0 1 0 2.08,0 v -2.19 l 4.19,4.19 a 1,1 0 0 0 1.46,0 1,1 0 0 0 0,-1.47 z"/><path style="fill:#fff" id="svg_296" d="m -452.33,-220.9 a 1.08,1.08 0 0 0 -1.11,-1 h -4.71 a 1.035,1.035 0 1 0 0,2.07 h 2.25 l -4.16,4.13 a 1.039447,1.039447 0 0 0 1.47,1.47 l 4.18,-4.19 v 2.26 a 1.04,1.04 0 1 0 2.08,0 v -4.64 c 0,0 0,0 0,-0.06 a 0.08,0.08 0 0 1 0,-0.04 z"/><path style="fill:#fff" id="svg_297" d="m -447.56,-225 h 4.7 a 1.04,1.04 0 1 0 0,-2.08 h -2.25 l 4.17,-4.16 a 1,1 0 0 0 0,-1.47 1,1 0 0 0 -1.46,0 l -4.19,4.21 v -2.28 a 1.04,1.04 0 1 0 -2.08,0 v 4.64 a 0.43000001,0.43000001 0 0 0 0,0.05 v 0.05 a 1.09,1.09 0 0 0 1.11,1.04 z"/><path style="fill:#fff" id="svg_298" d="m -453.37,-231.88 a 1.08,1.08 0 0 0 -1,1.09 v 2.29 l -4.18,-4.19 a 1,1 0 0 0 -1.47,0 1,1 0 0 0 0,1.46 l 4.16,4.17 h -2.29 a 1.04,1.04 0 1 0 0,2.08 h 4.71 a 1.09,1.09 0 0 0 1.11,-1 c 0,0 0,0 0,-0.06 v -4.75 a 1.0700001,1.0700001 0 0 0 -1.04,-1.09 z"/></g></g></g></g></g><g id="svg_299"><g id="svg_300" transform="matrix(1.5,0,0,1.5,867,376)"><path style="fill:#ff5293;fill-opacity:1;stroke:#ff2c76;stroke-width:1;stroke-linecap:round;stroke-opacity:1" id="svg_301" d="m -148.66667,-73.333336 v -4 a 4,4 90 0 1 4,-4 h 4 10 30 3.999998 a 4,4 90 0 1 4,4 v 4 h -4 v -3 h -3.999998 v 10 h 3.999998 v -3 h 4 v 17 h -4 v -3 h -3.999998 v 10 h 3.999998 v -3 h 4 v 4 a 4,4 90 0 1 -4,4 h -3.999998 -30 -10 -4 a 4,4 90 0 1 -4,-4 v -4 -21 -1 h -6 v 3 h -2 v -8 h 2 v 3 h 6 z"/><text style="font-size:9px;font-family:sans-serif;text-anchor:end;fill:#282828" id="svg_302" x="-157.167" y="-81.833"><tspan id="svg_303" x="-103.167" y="-58.833">➗</tspan></text></g></g><g id="svg_308"><g id="svg_309" transform="matrix(1.5,0,0,1.5,953,376)"><path style="fill:#ff5293;fill-opacity:1;stroke:#ff2c76;stroke-width:1;stroke-linecap:round;stroke-opacity:1" id="svg_310" d="m -148.66667,-81.333336 h 59.999998 v 20 h -59.999998 v -8 -1 h -6 v 3 h -2 v -8 h 2 v 3 h 6 v -1 z"/><text style="font-size:10px;font-family:sans-serif;text-anchor:start;fill:#282828" id="svg_311" x="-157.167" y="-81.833"><tspan id="svg_312" x="-144.167" y="-67.833">1</tspan></text></g></g><g id="svg_313"><g id="svg_314" transform="matrix(1.5,0,0,1.5,953,408)"><path style="fill:#ff5293;fill-opacity:1;stroke:#ff2c76;stroke-width:1;stroke-linecap:round;stroke-opacity:1" id="svg_315" d="m -148.66667,-81.333336 h 59.999998 v 20 h -59.999998 v -8 -1 h -6 v 3 h -2 v -8 h 2 v 3 h 6 v -1 z"/><text style="font-size:10px;font-family:sans-serif;text-anchor:start;fill:#282828" id="svg_316" x="-157.167" y="-81.833"><tspan id="svg_317" x="-144.167" y="-67.833">8</tspan></text></g></g><g id="svg_318"><g id="svg_319" transform="matrix(1.5,0,0,1.5,749,408)"><path style="fill:#b0b0b0;fill-opacity:1;stroke:#a0a0a0;stroke-width:1;stroke-linecap:round;stroke-opacity:1" id="svg_320" d="m -156.66667,-73.333336 v -4 a 4,4 90 0 1 4,-4 h 4 v 2 h 10 v -2 h 20 4 a 4,4 90 0 1 4,4 v 4 4 4 a 4,4 90 0 1 -4,4 h -4 -20 -1 v 2 h -8 v -2 h -1 -4 a 4,4 90 0 1 -4,-4 v -4 z"/><text style="font-size:10px;font-family:sans-serif;text-anchor:end;fill:#282828" id="svg_321" x="-157.167" y="-81.833"><tspan id="svg_322" x="-121.167" y="-67.833">↓</tspan></text></g></g><g id="svg_323" transform="translate(66)"><g id="svg_324" transform="matrix(1.5,0,0,1.5,749,440)"><path style="fill:#77c428;fill-opacity:1;stroke:#57ad02;stroke-width:1;stroke-linecap:round;stroke-opacity:1" id="svg_325" d="m -200.66667,-73.333336 v -4 c 0,-2.209139 1.79086,-4 4,-4 h 4 v 2 h 10 v -2 h 74 4 c 2.20914,0 4,1.790861 4,4 v 4 h -4 v -3 h -4 v 10 h 4 v -3 h 4 v 17 h -4 v -3 h -4 v 10 h 4 v -3 h 4 v 4 c 0,2.209139 -1.79086,4 -4,4 h -4 -74 -1 v 2 h -8 v -2 h -1 -4 c -2.20914,0 -4,-1.790861 -4,-4 v -4 -21 z"/><text style="font-size:10px;font-family:sans-serif;text-anchor:end;fill:#282828" id="svg_326" x="-157.167" y="-81.833"><tspan id="svg_327" x="-111.167" y="-57.833">determinar o tom</tspan></text><text style="font-size:6.66666651px;font-family:sans-serif;text-anchor:end;fill:#282828" id="svg_328" x="-157.167" y="-81.833"><tspan id="svg_329" x="-111.167" y="-69.833">nome</tspan></text><text style="font-size:6.66666651px;font-family:sans-serif;text-anchor:end;fill:#282828" id="svg_330" x="-157.167" y="-81.833"><tspan id="svg_331" x="-111.167" y="-48.833">oitava</tspan></text></g></g><g id="svg_332" transform="translate(66)"><g id="svg_333" transform="matrix(1.5,0,0,1.5,823,440)"><path style="fill:#77c428;fill-opacity:1;stroke:#57ad02;stroke-width:1;stroke-linecap:round;stroke-opacity:1" id="svg_334" d="m -148.66667,-81.333336 h 59.999998 v 20 h -59.999998 v -8 -1 h -6 v 3 h -2 v -8 h 2 v 3 h 6 v -1 z"/><text style="font-size:10px;font-family:sans-serif;text-anchor:start;fill:#282828" id="svg_335" x="-157.167" y="-81.833"><tspan id="svg_336" x="-144.167" y="-67.833">mi</tspan></text></g></g><g id="svg_337" transform="translate(66)"><g id="svg_338" transform="matrix(1.5,0,0,1.5,823,472)"><path style="fill:#ff5293;fill-opacity:1;stroke:#ff2c76;stroke-width:1;stroke-linecap:round;stroke-opacity:1" id="svg_339" d="m -148.66667,-81.333336 h 59.999998 v 20 h -59.999998 v -8 -1 h -6 v 3 h -2 v -8 h 2 v 3 h 6 v -1 z"/><text style="font-size:10px;font-family:sans-serif;text-anchor:start;fill:#282828" id="svg_340" x="-157.167" y="-81.833"><tspan id="svg_341" x="-144.167" y="-67.833">5</tspan></text></g></g><g id="svg_342" transform="translate(8)"><g id="svg_343" transform="matrix(1.5,0,0,1.5,996,122)"><path style="fill:#77c428;fill-opacity:1;stroke:#57ad02;stroke-width:1;stroke-linecap:round;stroke-opacity:1" id="svg_344" d="m -148.66667,-81.333336 h 109.999998 v 20 H -148.66667 v -8 -1 h -6 v 3 h -2 v -8 h 2 v 3 h 6 v -1 z"/><text style="font-size:10px;font-family:sans-serif;text-anchor:start;fill:#282828" id="svg_345" x="-157.167" y="-81.833"><tspan id="svg_346" x="-144.167" y="-67.833">menor 3</tspan></text></g></g><g id="svg_347"><g id="svg_348" transform="matrix(1.5,0,0,1.5,236,592)"><path style="fill:#77c428;fill-opacity:1;stroke:#57ad02;stroke-width:1;stroke-linecap:round;stroke-opacity:1" id="svg_349" d="m -156.66667,-73.333336 v -4 c 0,-2.209139 1.79086,-4 4,-4 h 4 v 2 h 10 v -2 h 9 103.333331 4 c 2.209139,0 4.698591,1.904227 4,4 v 4 h -4 v -3 h -4 v 10 h 4 v -3 h 4 v 4 c 0,2.209139 -1.790861,4 -4,4 h -4 -103.333331 -1 v 2 h -8 v -2 h -1 -4 c -2.76142,0 -5,2.238576 -5,5 v 4 4 230.999996 4 c 0,2.76142 2.23858,5 5,5 h 4 v 2 h 10 v -2 h 8 v 6 6 4 c 0,2.20914 -1.79086,4 -4,4 h -4 -9 -1 v 2 h -8 v -2 h -1 -4 c -2.20914,0 -4,-1.79086 -4,-4 v -4 z"/><text style="font-size:10px;font-family:sans-serif;text-anchor:start;fill:#282828" id="svg_350" x="-157.167" y="-81.833"><tspan id="svg_351" x="-152.167" y="-66.833">intervalo semi-tom (+/–)</tspan></text></g></g><g id="svg_354" transform="translate(8)"><g id="svg_355" transform="matrix(1.5,0,0,1.5,425,592)"><path style="fill:#ff5293;fill-opacity:1;stroke:#ff2c76;stroke-width:1;stroke-linecap:round;stroke-opacity:1" id="svg_356" d="m -148.66667,-73.333336 v -4 a 4,4 90 0 1 4,-4 h 4 10 30 3.999998 a 4,4 90 0 1 4,4 v 4 h -4 v -3 h -3.999998 v 10 h 3.999998 v -3 h 4 v 17 h -4 v -3 h -3.999998 v 10 h 3.999998 v -3 h 4 v 4 a 4,4 90 0 1 -4,4 h -3.999998 -30 -10 -4 a 4,4 90 0 1 -4,-4 v -4 -21 -1 h -6 v 3 h -2 v -8 h 2 v 3 h 6 z"/><text style="font-size:14px;font-family:sans-serif;text-anchor:end;fill:#282828" id="svg_357" x="-157.167" y="-81.833"><tspan id="svg_358" x="-103.167" y="-57.833">+</tspan></text></g></g><g id="svg_363" transform="translate(8)"><g id="svg_364" transform="matrix(1.5,0,0,1.5,511,624)"><path style="fill:#ff5293;fill-opacity:1;stroke:#ff2c76;stroke-width:1;stroke-linecap:round;stroke-opacity:1" id="svg_365" d="m -148.66667,-73.333336 v -4 a 4,4 90 0 1 4,-4 h 4 10 30 3.999998 a 4,4 90 0 1 4,4 v 4 h -4 v -3 h -3.999998 v 10 h 3.999998 v -3 h 4 v 17 h -4 v -3 h -3.999998 v 10 h 3.999998 v -3 h 4 v 4 a 4,4 90 0 1 -4,4 h -3.999998 -30 -10 -4 a 4,4 90 0 1 -4,-4 v -4 -21 -1 h -6 v 3 h -2 v -8 h 2 v 3 h 6 z"/><text style="font-size:14px;font-family:sans-serif;text-anchor:end;fill:#282828" id="svg_366" x="-157.167" y="-81.833"><tspan id="svg_367" x="-103.167" y="-57.833">×</tspan></text></g></g><g id="svg_372" transform="translate(8)"><g id="svg_373" transform="matrix(1.5,0,0,1.5,597,624)"><path style="fill:#ff5293;fill-opacity:1;stroke:#ff2c76;stroke-width:1;stroke-linecap:round;stroke-opacity:1" id="svg_374" d="m -148.66667,-81.333336 h 59.999998 v 20 h -59.999998 v -8 -1 h -6 v 3 h -2 v -8 h 2 v 3 h 6 v -1 z"/><text style="font-size:10px;font-family:sans-serif;text-anchor:start;fill:#282828" id="svg_375" x="-157.167" y="-81.833"><tspan id="svg_376" x="-144.167" y="-67.833">0</tspan></text></g></g><g id="svg_377" transform="translate(8)"><g id="svg_378" transform="matrix(1.5,0,0,1.5,597,656)"><path style="fill:#ff5293;fill-opacity:1;stroke:#ff2c76;stroke-width:1;stroke-linecap:round;stroke-opacity:1" id="svg_379" d="m -148.66667,-81.333336 h 59.999998 v 20 h -59.999998 v -8 -1 h -6 v 3 h -2 v -8 h 2 v 3 h 6 v -1 z"/><text style="font-size:10px;font-family:sans-serif;text-anchor:start;fill:#282828" id="svg_380" x="-157.167" y="-81.833"><tspan id="svg_381" x="-144.167" y="-67.833">12</tspan></text></g></g><g id="svg_382"><g id="svg_383" transform="matrix(1.5,0,0,1.5,250,624)"><path style="fill:#b0b0b0;fill-opacity:1;stroke:#a0a0a0;stroke-width:1;stroke-linecap:round;stroke-opacity:1" id="svg_384" d="m -156.66667,-73.333336 v -4 a 4,4 90 0 1 4,-4 h 4 v 2 h 10 v -2 h 20 4 a 4,4 90 0 1 4,4 v 4 4 4 a 4,4 90 0 1 -4,4 h -4 -20 -1 v 2 h -8 v -2 h -1 -4 a 4,4 90 0 1 -4,-4 v -4 z"/><text style="font-size:10px;font-family:sans-serif;text-anchor:end;fill:#282828" id="svg_385" x="-157.167" y="-81.833"><tspan id="svg_386" x="-121.167" y="-67.833">↓</tspan></text></g></g><g id="svg_387"><g id="svg_388" transform="matrix(1.5,0,0,1.5,250,656)"><path style="fill:#b0b0b0;fill-opacity:1;stroke:#a0a0a0;stroke-width:1;stroke-linecap:round;stroke-opacity:1" id="svg_389" d="m -156.66667,-73.333336 v -4 a 4,4 90 0 1 4,-4 h 4 v 2 h 10 v -2 h 20 4 a 4,4 90 0 1 4,4 v 4 4 4 a 4,4 90 0 1 -4,4 h -4 -20 -1 v 2 h -8 v -2 h -1 -4 a 4,4 90 0 1 -4,-4 v -4 z"/><text style="font-size:10px;font-family:sans-serif;text-anchor:end;fill:#282828" id="svg_390" x="-157.167" y="-81.833"><tspan id="svg_391" x="-121.167" y="-67.833">↓</tspan></text></g></g><g id="svg_392"><g id="svg_393"><g id="svg_394" transform="matrix(1.5,0,0,1.5,250,688)"><path style="fill:#fe994f;fill-opacity:1;stroke:#e86b0e;stroke-width:1;stroke-linecap:round;stroke-opacity:1" id="svg_395" d="m -156.66667,-73.333336 v -4 a 4,4 90 0 1 4,-4 h 4 v 2 h 10 v -2 h 9 59.999998 4 a 4,4 90 0 1 4,4 v 4 h -4 v -3 h -4 v 10 h 4 v -3 h 4 v 4 a 4,4 90 0 1 -4,4 h -4 -59.999998 -1 v 2 h -8 v -2 h -1 -4 a 5,5 90 0 0 -5,5 v 4 4 42.0000001 4 a 5,5 90 0 0 5,5 h 4 v 2 h 10 v -2 h 8 v 6 5.9999999 4 a 4,4 90 0 1 -4,4 h -4 -9 -1 v 2 h -8 v -2 h -1 -4 a 4,4 90 0 1 -4,-4 v -4 z"/><text style="font-size:10px;font-family:sans-serif;text-anchor:start;fill:#282828" id="svg_396" x="-157.167" y="-81.833"><tspan id="svg_397" x="-137.167" y="-66.833">nota</tspan></text><text style="font-size:6.66666651px;font-family:sans-serif;text-anchor:end;fill:#282828" id="svg_398" x="-157.167" y="-81.833"><tspan id="svg_399" x="-72.167" y="-69.833">valor</tspan></text></g></g><g id="svg_400" transform="matrix(0.5,0,0,0.5,250,692)"><g style="isolation:isolate" id="svg_401"><g id="g2216" data-name="レイヤー 2"><g id="g2214"><rect style="opacity:.4;mix-blend-mode:multiply;fill:#292929" id="svg_402" width="42" height="42" x="-471.5" y="-245.5" rx="5" ry="5"/><path style="fill:#fff" id="svg_403" d="m -440.94,-215.7 -4.17,-4.16 h 2.26 a 1.035,1.035 0 1 0 0,-2.07 h -4.71 a 1.08,1.08 0 0 0 -1.11,1 v 0 c 0,0 0,0 0,0.06 v 4.64 0 a 1.04,1.04 0 1 0 2.08,0 v -2.19 l 4.19,4.19 a 1,1 0 0 0 1.46,0 1,1 0 0 0 0,-1.47 z"/><path style="fill:#fff" id="svg_404" d="m -452.33,-220.9 a 1.08,1.08 0 0 0 -1.11,-1 h -4.71 a 1.035,1.035 0 1 0 0,2.07 h 2.25 l -4.16,4.13 a 1.039447,1.039447 0 0 0 1.47,1.47 l 4.18,-4.19 v 2.26 a 1.04,1.04 0 1 0 2.08,0 v -4.64 c 0,0 0,0 0,-0.06 a 0.08,0.08 0 0 1 0,-0.04 z"/><path style="fill:#fff" id="svg_405" d="m -447.56,-225 h 4.7 a 1.04,1.04 0 1 0 0,-2.08 h -2.25 l 4.17,-4.16 a 1,1 0 0 0 0,-1.47 1,1 0 0 0 -1.46,0 l -4.19,4.21 v -2.28 a 1.04,1.04 0 1 0 -2.08,0 v 4.64 a 0.43000001,0.43000001 0 0 0 0,0.05 v 0.05 a 1.09,1.09 0 0 0 1.11,1.04 z"/><path style="fill:#fff" id="svg_406" d="m -453.37,-231.88 a 1.08,1.08 0 0 0 -1,1.09 v 2.29 l -4.18,-4.19 a 1,1 0 0 0 -1.47,0 1,1 0 0 0 0,1.46 l 4.16,4.17 h -2.29 a 1.04,1.04 0 1 0 0,2.08 h 4.71 a 1.09,1.09 0 0 0 1.11,-1 c 0,0 0,0 0,-0.06 v -4.75 a 1.0700001,1.0700001 0 0 0 -1.04,-1.09 z"/></g></g></g></g></g><g id="svg_407"><g id="svg_408" transform="matrix(1.5,0,0,1.5,382,688)"><path style="fill:#ff5293;fill-opacity:1;stroke:#ff2c76;stroke-width:1;stroke-linecap:round;stroke-opacity:1" id="svg_409" d="m -148.66667,-73.333336 v -4 a 4,4 90 0 1 4,-4 h 4 10 30 3.999998 a 4,4 90 0 1 4,4 v 4 h -4 v -3 h -3.999998 v 10 h 3.999998 v -3 h 4 v 17 h -4 v -3 h -3.999998 v 10 h 3.999998 v -3 h 4 v 4 a 4,4 90 0 1 -4,4 h -3.999998 -30 -10 -4 a 4,4 90 0 1 -4,-4 v -4 -21 -1 h -6 v 3 h -2 v -8 h 2 v 3 h 6 z"/><text style="font-size:9px;font-family:sans-serif;text-anchor:end;fill:#282828" id="svg_410" x="-157.167" y="-81.833"><tspan id="svg_411" x="-103.167" y="-58.833">➗</tspan></text></g></g><g id="svg_416"><g id="svg_417" transform="matrix(1.5,0,0,1.5,468,688)"><path style="fill:#ff5293;fill-opacity:1;stroke:#ff2c76;stroke-width:1;stroke-linecap:round;stroke-opacity:1" id="svg_418" d="m -148.66667,-81.333336 h 59.999998 v 20 h -59.999998 v -8 -1 h -6 v 3 h -2 v -8 h 2 v 3 h 6 v -1 z"/><text style="font-size:10px;font-family:sans-serif;text-anchor:start;fill:#282828" id="svg_419" x="-157.167" y="-81.833"><tspan id="svg_420" x="-144.167" y="-67.833">1</tspan></text></g></g><g id="svg_421"><g id="svg_422" transform="matrix(1.5,0,0,1.5,468,720)"><path style="fill:#ff5293;fill-opacity:1;stroke:#ff2c76;stroke-width:1;stroke-linecap:round;stroke-opacity:1" id="svg_423" d="m -148.66667,-81.333336 h 59.999998 v 20 h -59.999998 v -8 -1 h -6 v 3 h -2 v -8 h 2 v 3 h 6 v -1 z"/><text style="font-size:10px;font-family:sans-serif;text-anchor:start;fill:#282828" id="svg_424" x="-157.167" y="-81.833"><tspan id="svg_425" x="-144.167" y="-67.833">4</tspan></text></g></g><g id="svg_426"><g id="svg_427" transform="matrix(1.5,0,0,1.5,264,720)"><path style="fill:#b0b0b0;fill-opacity:1;stroke:#a0a0a0;stroke-width:1;stroke-linecap:round;stroke-opacity:1" id="svg_428" d="m -156.66667,-73.333336 v -4 a 4,4 90 0 1 4,-4 h 4 v 2 h 10 v -2 h 20 4 a 4,4 90 0 1 4,4 v 4 4 4 a 4,4 90 0 1 -4,4 h -4 -20 -1 v 2 h -8 v -2 h -1 -4 a 4,4 90 0 1 -4,-4 v -4 z"/><text style="font-size:10px;font-family:sans-serif;text-anchor:end;fill:#282828" id="svg_429" x="-157.167" y="-81.833"><tspan id="svg_430" x="-121.167" y="-67.833">↓</tspan></text></g></g><g id="svg_431" transform="translate(66)"><g id="svg_432" transform="matrix(1.5,0,0,1.5,264,752)"><path style="fill:#77c428;fill-opacity:1;stroke:#57ad02;stroke-width:1;stroke-linecap:round;stroke-opacity:1" id="svg_433" d="m -200.66667,-73.333336 v -4 c 0,-2.209139 1.79086,-4 4,-4 h 4 v 2 h 10 v -2 h 74 4 c 2.20914,0 4,1.790861 4,4 v 4 h -4 v -3 h -4 v 10 h 4 v -3 h 4 v 17 h -4 v -3 h -4 v 10 h 4 v -3 h 4 v 4 c 0,2.209139 -1.79086,4 -4,4 h -4 -74 -1 v 2 h -8 v -2 h -1 -4 c -2.20914,0 -4.69859,-1.904227 -4,-4 v -4 -21 z"/><text style="font-size:10px;font-family:sans-serif;text-anchor:end;fill:#282828" id="svg_434" x="-157.167" y="-81.833"><tspan id="svg_435" x="-111.167" y="-57.833">determinar o tom</tspan></text><text style="font-size:6.66666651px;font-family:sans-serif;text-anchor:end;fill:#282828" id="svg_436" x="-157.167" y="-81.833"><tspan id="svg_437" x="-111.167" y="-69.833">nome</tspan></text><text style="font-size:6.66666651px;font-family:sans-serif;text-anchor:end;fill:#282828" id="svg_438" x="-157.167" y="-81.833"><tspan id="svg_439" x="-111.167" y="-48.833">oitava</tspan></text></g></g><g id="svg_440" transform="translate(66)"><g id="svg_441" transform="matrix(1.5,0,0,1.5,338,910)"><path style="fill:#77c428;fill-opacity:1;stroke:#57ad02;stroke-width:1;stroke-linecap:round;stroke-opacity:1" id="svg_442" d="m -148.66667,-81.333336 h 59.999998 v 20 h -59.999998 v -8 -1 h -6 v 3 h -2 v -8 h 2 v 3 h 6 v -1 z"/><text style="font-size:10px;font-family:sans-serif;text-anchor:start;fill:#282828" id="svg_443" x="-157.167" y="-81.833"><tspan id="svg_444" x="-144.167" y="-67.833">re</tspan></text></g></g><g id="svg_445" transform="translate(66)"><g id="svg_446" transform="matrix(1.5,0,0,1.5,338,784)"><path style="fill:#ff5293;fill-opacity:1;stroke:#ff2c76;stroke-width:1;stroke-linecap:round;stroke-opacity:1" id="svg_447" d="m -148.66667,-81.333336 h 59.999998 v 20 h -59.999998 v -8 -1 h -6 v 3 h -2 v -8 h 2 v 3 h 6 v -1 z"/><text style="font-size:10px;font-family:sans-serif;text-anchor:start;fill:#282828" id="svg_448" x="-157.167" y="-81.833"><tspan id="svg_449" x="-144.167" y="-67.833">5</tspan></text></g></g><g id="svg_450"><g id="svg_451"><g id="svg_452" transform="matrix(1.5,0,0,1.5,250,846)"><path style="fill:#fe994f;fill-opacity:1;stroke:#e86b0e;stroke-width:1;stroke-linecap:round;stroke-opacity:1" id="svg_453" d="m -156.66667,-73.333336 v -4 a 4,4 90 0 1 4,-4 h 4 v 2 h 10 v -2 h 9 59.999998 4 a 4,4 90 0 1 4,4 v 4 h -4 v -3 h -4 v 10 h 4 v -3 h 4 v 4 a 4,4 90 0 1 -4,4 h -4 -59.999998 -1 v 2 h -8 v -2 h -1 -4 a 5,5 90 0 0 -5,5 v 4 4 42.0000001 4 a 5,5 90 0 0 5,5 h 4 v 2 h 10 v -2 h 8 v 6 5.9999999 4 a 4,4 90 0 1 -4,4 h -4 -9 -1 v 2 h -8 v -2 h -1 -4 a 4,4 90 0 1 -4,-4 v -4 z"/><text style="font-size:10px;font-family:sans-serif;text-anchor:start;fill:#282828" id="svg_454" x="-157.167" y="-81.833"><tspan id="svg_455" x="-137.167" y="-66.833">nota</tspan></text><text style="font-size:6.66666651px;font-family:sans-serif;text-anchor:end;fill:#282828" id="svg_456" x="-157.167" y="-81.833"><tspan id="svg_457" x="-72.167" y="-69.833">valor</tspan></text></g></g><g id="svg_458" transform="matrix(0.5,0,0,0.5,250,850)"><g style="isolation:isolate" id="svg_459"><g id="g2276" data-name="レイヤー 2"><g id="g2274"><rect style="opacity:.4;mix-blend-mode:multiply;fill:#292929" id="svg_460" width="42" height="42" x="-471.5" y="-245.5" rx="5" ry="5"/><path style="fill:#fff" id="svg_461" d="m -440.94,-215.7 -4.17,-4.16 h 2.26 a 1.035,1.035 0 1 0 0,-2.07 h -4.71 a 1.08,1.08 0 0 0 -1.11,1 v 0 c 0,0 0,0 0,0.06 v 4.64 0 a 1.04,1.04 0 1 0 2.08,0 v -2.19 l 4.19,4.19 a 1,1 0 0 0 1.46,0 1,1 0 0 0 0,-1.47 z"/><path style="fill:#fff" id="svg_462" d="m -452.33,-220.9 a 1.08,1.08 0 0 0 -1.11,-1 h -4.71 a 1.035,1.035 0 1 0 0,2.07 h 2.25 l -4.16,4.13 a 1.039447,1.039447 0 0 0 1.47,1.47 l 4.18,-4.19 v 2.26 a 1.04,1.04 0 1 0 2.08,0 v -4.64 c 0,0 0,0 0,-0.06 a 0.08,0.08 0 0 1 0,-0.04 z"/><path style="fill:#fff" id="svg_463" d="m -447.56,-225 h 4.7 a 1.04,1.04 0 1 0 0,-2.08 h -2.25 l 4.17,-4.16 a 1,1 0 0 0 0,-1.47 1,1 0 0 0 -1.46,0 l -4.19,4.21 v -2.28 a 1.04,1.04 0 1 0 -2.08,0 v 4.64 a 0.43000001,0.43000001 0 0 0 0,0.05 v 0.05 a 1.09,1.09 0 0 0 1.11,1.04 z"/><path style="fill:#fff" id="svg_464" d="m -453.37,-231.88 a 1.08,1.08 0 0 0 -1,1.09 v 2.29 l -4.18,-4.19 a 1,1 0 0 0 -1.47,0 1,1 0 0 0 0,1.46 l 4.16,4.17 h -2.29 a 1.04,1.04 0 1 0 0,2.08 h 4.71 a 1.09,1.09 0 0 0 1.11,-1 c 0,0 0,0 0,-0.06 v -4.75 a 1.0700001,1.0700001 0 0 0 -1.04,-1.09 z"/></g></g></g></g></g><g id="svg_465"><g id="svg_466" transform="matrix(1.5,0,0,1.5,382,846)"><path style="fill:#ff5293;fill-opacity:1;stroke:#ff2c76;stroke-width:1;stroke-linecap:round;stroke-opacity:1" id="svg_467" d="m -148.66667,-73.333336 v -4 a 4,4 90 0 1 4,-4 h 4 10 30 3.999998 a 4,4 90 0 1 4,4 v 4 h -4 v -3 h -3.999998 v 10 h 3.999998 v -3 h 4 v 17 h -4 v -3 h -3.999998 v 10 h 3.999998 v -3 h 4 v 4 a 4,4 90 0 1 -4,4 h -3.999998 -30 -10 -4 a 4,4 90 0 1 -4,-4 v -4 -21 -1 h -6 v 3 h -2 v -8 h 2 v 3 h 6 z"/><text style="font-size:9px;font-family:sans-serif;text-anchor:end;fill:#282828" id="svg_468" x="-157.167" y="-81.833"><tspan id="svg_469" x="-103.167" y="-58.833">➗</tspan></text></g></g><g id="svg_474"><g id="svg_475" transform="matrix(1.5,0,0,1.5,468,846)"><path style="fill:#ff5293;fill-opacity:1;stroke:#ff2c76;stroke-width:1;stroke-linecap:round;stroke-opacity:1" id="svg_476" d="m -148.66667,-81.333336 h 59.999998 v 20 h -59.999998 v -8 -1 h -6 v 3 h -2 v -8 h 2 v 3 h 6 v -1 z"/><text style="font-size:10px;font-family:sans-serif;text-anchor:start;fill:#282828" id="svg_477" x="-157.167" y="-81.833"><tspan id="svg_478" x="-144.167" y="-67.833">1</tspan></text></g></g><g id="svg_479"><g id="svg_480" transform="matrix(1.5,0,0,1.5,468,878)"><path style="fill:#ff5293;fill-opacity:1;stroke:#ff2c76;stroke-width:1;stroke-linecap:round;stroke-opacity:1" id="svg_481" d="m -148.66667,-81.333336 h 59.999998 v 20 h -59.999998 v -8 -1 h -6 v 3 h -2 v -8 h 2 v 3 h 6 v -1 z"/><text style="font-size:10px;font-family:sans-serif;text-anchor:start;fill:#282828" id="svg_482" x="-157.167" y="-81.833"><tspan id="svg_483" x="-144.167" y="-67.833">4</tspan></text></g></g><g id="svg_484"><g id="svg_485" transform="matrix(1.5,0,0,1.5,264,878)"><path style="fill:#b0b0b0;fill-opacity:1;stroke:#a0a0a0;stroke-width:1;stroke-linecap:round;stroke-opacity:1" id="svg_486" d="m -156.66667,-73.333336 v -4 a 4,4 90 0 1 4,-4 h 4 v 2 h 10 v -2 h 20 4 a 4,4 90 0 1 4,4 v 4 4 4 a 4,4 90 0 1 -4,4 h -4 -20 -1 v 2 h -8 v -2 h -1 -4 a 4,4 90 0 1 -4,-4 v -4 z"/><text style="font-size:10px;font-family:sans-serif;text-anchor:end;fill:#282828" id="svg_487" x="-157.167" y="-81.833"><tspan id="svg_488" x="-121.167" y="-67.833">↓</tspan></text></g></g><g id="svg_489" transform="translate(66)"><g id="svg_490" transform="matrix(1.5,0,0,1.5,264,910)"><path style="fill:#77c428;fill-opacity:1;stroke:#57ad02;stroke-width:1;stroke-linecap:round;stroke-opacity:1" id="svg_491" d="m -200.66667,-73.333336 v -4 c 0,-2.209139 1.79086,-4 4,-4 h 4 v 2 h 10 v -2 h 74 4 c 2.20914,0 4,1.790861 4,4 v 4 h -4 v -3 h -4 v 10 h 4 v -3 h 4 v 17 h -4 v -3 h -4 v 10 h 4 v -3 h 4 v 4 c 0,2.209139 -1.79086,4 -4,4 h -4 -74 -1 v 2 h -8 v -2 h -1 -4 c -2.20914,0 -4.69859,-1.904227 -4,-4 v -4 -21 z"/><text style="font-size:10px;font-family:sans-serif;text-anchor:end;fill:#282828" id="svg_492" x="-157.167" y="-81.833"><tspan id="svg_493" x="-111.167" y="-57.833">determinar o tom</tspan></text><text style="font-size:6.66666651px;font-family:sans-serif;text-anchor:end;fill:#282828" id="svg_494" x="-157.167" y="-81.833"><tspan id="svg_495" x="-111.167" y="-69.833">nome</tspan></text><text style="font-size:6.66666651px;font-family:sans-serif;text-anchor:end;fill:#282828" id="svg_496" x="-157.167" y="-81.833"><tspan id="svg_497" x="-111.167" y="-48.833">oitava</tspan></text></g></g><g id="svg_498" transform="translate(66)"><g id="svg_499" transform="matrix(1.5,0,0,1.5,338,752)"><path style="fill:#77c428;fill-opacity:1;stroke:#57ad02;stroke-width:1;stroke-linecap:round;stroke-opacity:1" id="svg_500" d="m -148.66667,-81.333336 h 59.999998 v 20 h -59.999998 v -8 -1 h -6 v 3 h -2 v -8 h 2 v 3 h 6 v -1 z"/><text style="font-size:10px;font-family:sans-serif;text-anchor:start;fill:#282828" id="svg_501" x="-157.167" y="-81.833"><tspan id="svg_502" x="-144.167" y="-67.833">mi</tspan></text></g></g><g id="svg_503" transform="translate(66)"><g id="svg_504" transform="matrix(1.5,0,0,1.5,338,942)"><path style="fill:#ff5293;fill-opacity:1;stroke:#ff2c76;stroke-width:1;stroke-linecap:round;stroke-opacity:1" id="svg_505" d="m -148.66667,-81.333336 h 59.999998 v 20 h -59.999998 v -8 -1 h -6 v 3 h -2 v -8 h 2 v 3 h 6 v -1 z"/><text style="font-size:10px;font-family:sans-serif;text-anchor:start;fill:#282828" id="svg_506" x="-157.167" y="-81.833"><tspan id="svg_507" x="-144.167" y="-67.833">5</tspan></text></g></g><g id="svg_508" transform="translate(8)"><g id="svg_509" transform="matrix(1.5,0,0,1.5,511,592)"><path style="fill:#77c428;fill-opacity:1;stroke:#57ad02;stroke-width:1;stroke-linecap:round;stroke-opacity:1" id="svg_510" d="m -148.66667,-73.333336 v -4 a 4,4 90 0 1 4,-4 h 4 10 30 3.999998 a 4,4 90 0 1 4,4 v 4 h -4 v -3 h -3.999998 v 10 h 3.999998 v -3 h 4 v 4 a 4,4 90 0 1 -4,4 h -3.999998 -30 -10 -4 a 4,4 90 0 1 -4,-4 v -4 -1 h -6 v 3 h -2 v -8 h 2 v 3 h 6 z"/><text style="font-size:10px;font-family:sans-serif;text-anchor:end;fill:#282828" id="svg_511" x="-157.167" y="-81.833"><tspan id="svg_512" x="-103.167" y="-68.833">duplicar</tspan></text></g></g><g id="svg_515" transform="translate(8)"><g id="svg_516" transform="matrix(1.5,0,0,1.5,597,592)"><path style="fill:#77c428;fill-opacity:1;stroke:#57ad02;stroke-width:1;stroke-linecap:round;stroke-opacity:1" id="svg_517" d="m -148.66667,-81.333336 h 109.999998 v 20 H -148.66667 v -8 -1 h -6 v 3 h -2 v -8 h 2 v 3 h 6 v -1 z"/><text style="font-size:10px;font-family:sans-serif;text-anchor:start;fill:#282828" id="svg_518" x="-157.167" y="-81.833"><tspan id="svg_519" x="-144.167" y="-67.833">diminuído 5</tspan></text></g></g></svg>