<svg xmlns="http://www.w3.org/2000/svg" xmlns:svg="http://www.w3.org/2000/svg" id="svg4750" width="715" height="573" version="1.1"><metadata id="metadata4756"/><rect id="backgroundrect" width="100%" height="100%" x="0" y="0" fill="none" stroke="none"/><g id="svg_15"><g id="svg_16"><g id="svg_17" transform="matrix(1.5,0,0,1.5,662,272)"><path style="fill:#fe994f;fill-opacity:1;stroke:#e86b0e;stroke-width:1;stroke-linecap:round;stroke-opacity:1" id="svg_18" d="m -178,-25.333332 v -4 a 4,4 90 0 1 4,-4 h 4 v 2 h 10 v -2 h 9 60 4 a 4,4 90 0 1 4,4 v 4 h -4 v -3 h -4 v 10 h 4 v -3 h 4 v 4 a 4,4 90 0 1 -4,4 h -4 -60 -1 v 2 h -8 v -2 h -1 -4 a 5,5 90 0 0 -5,4.9999999 v 4 4.00000004 42.00000006 4 a 5,5 90 0 0 5,5 h 4 v 2 h 10 v -2 h 8 v 6 6 4 a 4,4 90 0 1 -4,4 h -4 -9 -1 v 2 h -8 v -2 h -1 -4 a 4,4 90 0 1 -4,-4 v -4 z"/><text style="font-size:10px;font-family:sans-serif;text-anchor:start;fill:#282828" id="svg_19" x="-178.5" y="-33.833"><tspan id="svg_20" x="-158.5" y="-18.833">nota</tspan></text><text style="font-size:6.66666651px;font-family:sans-serif;text-anchor:end;fill:#282828" id="svg_21" x="-178.5" y="-33.833"><tspan id="svg_22" x="-93.5" y="-21.833">valor</tspan></text></g></g><g id="svg_23" transform="matrix(0.5,0,0,0.5,662,276)"><g style="isolation:isolate" id="svg_24"><g id="レイヤー_2" data-name="レイヤー 2"><g id="Icon"><rect style="opacity:.4;mix-blend-mode:multiply;fill:#292929" id="svg_25" width="42" height="42" x="-535.5" y="-101.5" rx="5" ry="5"/><path style="fill:#fff" id="svg_26" d="m -504.94,-71.700001 -4.17,-4.16 h 2.26 a 1.035,1.035 0 1 0 0,-2.07 h -4.71 a 1.08,1.08 0 0 0 -1.11,1 v 0 c 0,0 0,0 0,0.06 v 4.64 0 a 1.04,1.04 0 1 0 2.08,0 V -74.42 l 4.19,4.19 a 1,1 0 0 0 1.46,0 1,1 0 0 0 0,-1.470001 z"/><path style="fill:#fff" id="svg_27" d="m -516.33,-76.9 a 1.08,1.08 0 0 0 -1.11,-1 h -4.71 a 1.035,1.035 0 1 0 0,2.07 h 2.25 l -4.16,4.129999 a 1.039447,1.039447 0 0 0 1.47,1.47 l 4.18,-4.19 v 2.26 a 1.04,1.04 0 1 0 2.08,0 v -4.639998 c 0,0 0,0 0,-0.06 a 0.08,0.08 0 0 1 0,-0.04 z"/><path style="fill:#fff" id="svg_28" d="m -511.56,-81 h 4.7 a 1.04,1.04 0 1 0 0,-2.08 h -2.25 l 4.17,-4.16 a 1,1 0 0 0 0,-1.47 1,1 0 0 0 -1.46,0 l -4.19,4.21 v -2.28 a 1.04,1.04 0 1 0 -2.08,0 v 4.64 a 0.43000001,0.43000001 0 0 0 0,0.05 v 0.05 a 1.09,1.09 0 0 0 1.11,1.04 z"/><path style="fill:#fff" id="svg_29" d="m -517.37,-87.88 a 1.08,1.08 0 0 0 -1,1.09 v 2.29 l -4.18,-4.19 a 1,1 0 0 0 -1.47,0 1,1 0 0 0 0,1.46 l 4.16,4.17 h -2.29 a 1.04,1.04 0 1 0 0,2.08 h 4.71 a 1.09,1.09 0 0 0 1.11,-1 c 0,0 0,0 0,-0.06 v -4.75 a 1.0700001,1.0700001 0 0 0 -1.04,-1.09 z"/></g></g></g></g></g><g id="svg_30"><g id="svg_31" transform="matrix(1.5,0,0,1.5,794,272)"><path style="fill:#ff5293;fill-opacity:1;stroke:#ff2c76;stroke-width:1;stroke-linecap:round;stroke-opacity:1" id="svg_32" d="m -170,-25.333332 v -4 a 4,4 90 0 1 4,-4 h 4 10 30 4 a 4,4 90 0 1 4,4 v 4 h -4 v -3 h -4 v 10 h 4 v -3 h 4 v 16.9999999 h -4 v -3 h -4 v 10 h 4 v -2.99999996 h 4 V 3.6666679 a 4,4 90 0 1 -4,4 h -4 -30 -10 -4 a 4,4 90 0 1 -4,-4 v -3.99999996 -20.99999994 -1 h -6 v 3 h -2 v -8 h 2 v 3 h 6 z"/><text style="font-size:9px;font-family:sans-serif;text-anchor:end;fill:#282828" id="svg_33" x="-178.5" y="-33.833"><tspan id="svg_34" x="-124.5" y="-10.833">➗</tspan></text></g></g><g id="svg_39"><g id="svg_40" transform="matrix(1.5,0,0,1.5,880,272)"><path style="fill:#ff5293;fill-opacity:1;stroke:#ff2c76;stroke-width:1;stroke-linecap:round;stroke-opacity:1" id="svg_41" d="m -170,-33.333332 h 60 v 20 h -60 v -8 -1 h -6 v 3 h -2 v -8 h 2 v 3 h 6 v -1 z"/><text style="font-size:10px;font-family:sans-serif;text-anchor:start;fill:#282828" id="svg_42" x="-178.5" y="-33.833"><tspan id="svg_43" x="-165.5" y="-19.833">1</tspan></text></g></g><g id="svg_44"><g id="svg_45" transform="matrix(1.5,0,0,1.5,880,304)"><path style="fill:#ff5293;fill-opacity:1;stroke:#ff2c76;stroke-width:1;stroke-linecap:round;stroke-opacity:1" id="svg_46" d="m -170,-33.333332 h 60 v 20 h -60 v -8 -1 h -6 v 3 h -2 v -8 h 2 v 3 h 6 v -1 z"/><text style="font-size:10px;font-family:sans-serif;text-anchor:start;fill:#282828" id="svg_47" x="-178.5" y="-33.833"><tspan id="svg_48" x="-165.5" y="-19.833">4</tspan></text></g></g><g id="svg_49"><g id="svg_50" transform="matrix(1.5,0,0,1.5,676,304)"><path style="fill:#b0b0b0;fill-opacity:1;stroke:#a0a0a0;stroke-width:1;stroke-linecap:round;stroke-opacity:1" id="svg_51" d="m -178,-25.333332 v -4 a 4,4 90 0 1 4,-4 h 4 v 2 h 10 v -2 h 20 4 a 4,4 90 0 1 4,4 v 4 4 4 a 4,4 90 0 1 -4,4 h -4 -20 -1 v 2 h -8 v -2 h -1 -4 a 4,4 90 0 1 -4,-4 v -4 z"/><text style="font-size:10px;font-family:sans-serif;text-anchor:end;fill:#282828" id="svg_52" x="-178.5" y="-33.833"><tspan id="svg_53" x="-142.5" y="-19.833">↓</tspan></text></g></g><g id="svg_54" transform="translate(66)"><g id="svg_55" transform="matrix(1.5,0,0,1.5,676,336)"><path style="fill:#77c428;fill-opacity:1;stroke:#57ad02;stroke-width:1;stroke-linecap:round;stroke-opacity:1" id="svg_56" d="m -223.33333,-25.333332 v -4 c 0,-2.209139 1.79086,-4 4,-4 h 4 v 2 h 10 v -2 H -130 h 4 c 2.20914,0 4,1.790861 4,4 v 4 h -4 v -3 h -4 v 10 h 4 v -3 h 4 v 16.9999999 h -4 v -3 h -4 v 10 h 4 v -2.99999996 h 4 V 3.6666679 c 0,2.209139 -1.79086,4 -4,4 h -4 -75.33333 -1 v 2 h -8 v -2 h -1 -4 c -2.20914,0 -4.69859,-1.9042267 -4,-4 V -0.33333206 -21.333332 Z"/><text style="font-size:10px;font-family:sans-serif;text-anchor:end;fill:#282828" id="svg_57" x="-178.5" y="-33.833"><tspan id="svg_58" x="-132.5" y="-9.833">determinar o tom</tspan></text><text style="font-size:6.66666651px;font-family:sans-serif;text-anchor:end;fill:#282828" id="svg_59" x="-178.5" y="-33.833"><tspan id="svg_60" x="-132.5" y="-21.833">name</tspan></text><text style="font-size:6.66666651px;font-family:sans-serif;text-anchor:end;fill:#282828" id="svg_61" x="-178.5" y="-33.833"><tspan id="svg_62" x="-132.5" y="-.833">oitava</tspan></text></g></g><g id="svg_63" transform="translate(66)"><g id="svg_64" transform="matrix(1.5,0,0,1.5,750,336)"><path style="fill:#77c428;fill-opacity:1;stroke:#57ad02;stroke-width:1;stroke-linecap:round;stroke-opacity:1" id="svg_65" d="m -170,-33.333332 h 60 v 20 h -60 v -8 -1 h -6 v 3 h -2 v -8 h 2 v 3 h 6 v -1 z"/><text style="font-size:10px;font-family:sans-serif;text-anchor:start;fill:#282828" id="svg_66" x="-178.5" y="-33.833"><tspan id="svg_67" x="-165.5" y="-19.833">mi</tspan></text></g></g><g id="svg_68" transform="translate(66)"><g id="svg_69" transform="matrix(1.5,0,0,1.5,750,368)"><path style="fill:#ff5293;fill-opacity:1;stroke:#ff2c76;stroke-width:1;stroke-linecap:round;stroke-opacity:1" id="svg_70" d="m -170,-33.333332 h 60 v 20 h -60 v -8 -1 h -6 v 3 h -2 v -8 h 2 v 3 h 6 v -1 z"/><text style="font-size:10px;font-family:sans-serif;text-anchor:start;fill:#282828" id="svg_71" x="-178.5" y="-33.833"><tspan id="svg_72" x="-165.5" y="-19.833">4</tspan></text></g></g><g id="svg_73"><g id="svg_74"><g id="svg_75" transform="matrix(1.5,0,0,1.5,662,114)"><path style="fill:#fe994f;fill-opacity:1;stroke:#e86b0e;stroke-width:1;stroke-linecap:round;stroke-opacity:1" id="svg_76" d="m -178,-25.333332 v -4 a 4,4 90 0 1 4,-4 h 4 v 2 h 10 v -2 h 9 60 4 a 4,4 90 0 1 4,4 v 4 h -4 v -3 h -4 v 10 h 4 v -3 h 4 v 4 a 4,4 90 0 1 -4,4 h -4 -60 -1 v 2 h -8 v -2 h -1 -4 a 5,5 90 0 0 -5,4.9999999 v 4 4.00000004 42.00000006 4 a 5,5 90 0 0 5,5 h 4 v 2 h 10 v -2 h 8 v 6 6 4 a 4,4 90 0 1 -4,4 h -4 -9 -1 v 2 h -8 v -2 h -1 -4 a 4,4 90 0 1 -4,-4 v -4 z"/><text style="font-size:10px;font-family:sans-serif;text-anchor:start;fill:#282828" id="svg_77" x="-178.5" y="-33.833"><tspan id="svg_78" x="-158.5" y="-18.833">nota</tspan></text><text style="font-size:6.66666651px;font-family:sans-serif;text-anchor:end;fill:#282828" id="svg_79" x="-178.5" y="-33.833"><tspan id="svg_80" x="-93.5" y="-21.833">valor</tspan></text></g></g><g id="svg_81" transform="matrix(0.5,0,0,0.5,662,118)"><g style="isolation:isolate" id="svg_82"><g id="g4406" data-name="レイヤー 2"><g id="g4404"><rect style="opacity:.4;mix-blend-mode:multiply;fill:#292929" id="svg_83" width="42" height="42" x="-535.5" y="-101.5" rx="5" ry="5"/><path style="fill:#fff" id="svg_84" d="m -504.94,-71.700001 -4.17,-4.16 h 2.26 a 1.035,1.035 0 1 0 0,-2.07 h -4.71 a 1.08,1.08 0 0 0 -1.11,1 v 0 c 0,0 0,0 0,0.06 v 4.64 0 a 1.04,1.04 0 1 0 2.08,0 V -74.42 l 4.19,4.19 a 1,1 0 0 0 1.46,0 1,1 0 0 0 0,-1.470001 z"/><path style="fill:#fff" id="svg_85" d="m -516.33,-76.9 a 1.08,1.08 0 0 0 -1.11,-1 h -4.71 a 1.035,1.035 0 1 0 0,2.07 h 2.25 l -4.16,4.129999 a 1.039447,1.039447 0 0 0 1.47,1.47 l 4.18,-4.19 v 2.26 a 1.04,1.04 0 1 0 2.08,0 v -4.639998 c 0,0 0,0 0,-0.06 a 0.08,0.08 0 0 1 0,-0.04 z"/><path style="fill:#fff" id="svg_86" d="m -511.56,-81 h 4.7 a 1.04,1.04 0 1 0 0,-2.08 h -2.25 l 4.17,-4.16 a 1,1 0 0 0 0,-1.47 1,1 0 0 0 -1.46,0 l -4.19,4.21 v -2.28 a 1.04,1.04 0 1 0 -2.08,0 v 4.64 a 0.43000001,0.43000001 0 0 0 0,0.05 v 0.05 a 1.09,1.09 0 0 0 1.11,1.04 z"/><path style="fill:#fff" id="svg_87" d="m -517.37,-87.88 a 1.08,1.08 0 0 0 -1,1.09 v 2.29 l -4.18,-4.19 a 1,1 0 0 0 -1.47,0 1,1 0 0 0 0,1.46 l 4.16,4.17 h -2.29 a 1.04,1.04 0 1 0 0,2.08 h 4.71 a 1.09,1.09 0 0 0 1.11,-1 c 0,0 0,0 0,-0.06 v -4.75 a 1.0700001,1.0700001 0 0 0 -1.04,-1.09 z"/></g></g></g></g></g><g id="svg_88"><g id="svg_89" transform="matrix(1.5,0,0,1.5,794,114)"><path style="fill:#ff5293;fill-opacity:1;stroke:#ff2c76;stroke-width:1;stroke-linecap:round;stroke-opacity:1" id="svg_90" d="m -170,-25.333332 v -4 a 4,4 90 0 1 4,-4 h 4 10 30 4 a 4,4 90 0 1 4,4 v 4 h -4 v -3 h -4 v 10 h 4 v -3 h 4 v 16.9999999 h -4 v -3 h -4 v 10 h 4 v -2.99999996 h 4 V 3.6666679 a 4,4 90 0 1 -4,4 h -4 -30 -10 -4 a 4,4 90 0 1 -4,-4 v -3.99999996 -20.99999994 -1 h -6 v 3 h -2 v -8 h 2 v 3 h 6 z"/><text style="font-size:9px;font-family:sans-serif;text-anchor:end;fill:#282828" id="svg_91" x="-178.5" y="-33.833"><tspan id="svg_92" x="-124.5" y="-10.833">➗</tspan></text></g></g><g id="svg_97"><g id="svg_98" transform="matrix(1.5,0,0,1.5,880,114)"><path style="fill:#ff5293;fill-opacity:1;stroke:#ff2c76;stroke-width:1;stroke-linecap:round;stroke-opacity:1" id="svg_99" d="m -170,-33.333332 h 60 v 20 h -60 v -8 -1 h -6 v 3 h -2 v -8 h 2 v 3 h 6 v -1 z"/><text style="font-size:10px;font-family:sans-serif;text-anchor:start;fill:#282828" id="svg_100" x="-178.5" y="-33.833"><tspan id="svg_101" x="-165.5" y="-19.833">1</tspan></text></g></g><g id="svg_102"><g id="svg_103" transform="matrix(1.5,0,0,1.5,880,146)"><path style="fill:#ff5293;fill-opacity:1;stroke:#ff2c76;stroke-width:1;stroke-linecap:round;stroke-opacity:1" id="svg_104" d="m -170,-33.333332 h 60 v 20 h -60 v -8 -1 h -6 v 3 h -2 v -8 h 2 v 3 h 6 v -1 z"/><text style="font-size:10px;font-family:sans-serif;text-anchor:start;fill:#282828" id="svg_105" x="-178.5" y="-33.833"><tspan id="svg_106" x="-165.5" y="-19.833">4</tspan></text></g></g><g id="svg_107"><g id="svg_108" transform="matrix(1.5,0,0,1.5,676,146)"><path style="fill:#b0b0b0;fill-opacity:1;stroke:#a0a0a0;stroke-width:1;stroke-linecap:round;stroke-opacity:1" id="svg_109" d="m -178,-25.333332 v -4 a 4,4 90 0 1 4,-4 h 4 v 2 h 10 v -2 h 20 4 a 4,4 90 0 1 4,4 v 4 4 4 a 4,4 90 0 1 -4,4 h -4 -20 -1 v 2 h -8 v -2 h -1 -4 a 4,4 90 0 1 -4,-4 v -4 z"/><text style="font-size:10px;font-family:sans-serif;text-anchor:end;fill:#282828" id="svg_110" x="-178.5" y="-33.833"><tspan id="svg_111" x="-142.5" y="-19.833">↓</tspan></text></g></g><g id="svg_112" transform="translate(66)"><g id="svg_113" transform="matrix(1.5,0,0,1.5,676,178)"><path style="fill:#77c428;fill-opacity:1;stroke:#57ad02;stroke-width:1;stroke-linecap:round;stroke-opacity:1" id="svg_114" d="m -222,-25.333332 v -4 c 0,-2.209139 1.79086,-4 4,-4 h 4 v 2 h 10 v -2 h 74 4 c 2.20914,0 4,1.790861 4,4 v 4 h -4 v -3 h -4 v 10 h 4 v -3 h 4 v 16.9999999 h -4 v -3 h -4 v 10 h 4 v -2.99999996 h 4 V 3.6666679 c 0,2.209139 -1.79086,4 -4,4 h -4 -74 -1 v 2 h -8 v -2 h -1 -4 c -2.20914,0 -4.69859,-1.9042267 -4,-4 V -0.33333206 -21.333332 Z"/><text style="font-size:10px;font-family:sans-serif;text-anchor:end;fill:#282828" id="svg_115" x="-178.5" y="-33.833"><tspan id="svg_116" x="-132.5" y="-9.833">determinar o tom</tspan></text><text style="font-size:6.66666651px;font-family:sans-serif;text-anchor:end;fill:#282828" id="svg_117" x="-178.5" y="-33.833"><tspan id="svg_118" x="-132.5" y="-21.833">name</tspan></text><text style="font-size:6.66666651px;font-family:sans-serif;text-anchor:end;fill:#282828" id="svg_119" x="-178.5" y="-33.833"><tspan id="svg_120" x="-132.5" y="-.833">oitava</tspan></text></g></g><g id="svg_121" transform="translate(66)"><g id="svg_122" transform="matrix(1.5,0,0,1.5,750,178)"><path style="fill:#77c428;fill-opacity:1;stroke:#57ad02;stroke-width:1;stroke-linecap:round;stroke-opacity:1" id="svg_123" d="m -170,-33.333332 h 60 v 20 h -60 v -8 -1 h -6 v 3 h -2 v -8 h 2 v 3 h 6 v -1 z"/><text style="font-size:10px;font-family:sans-serif;text-anchor:start;fill:#282828" id="svg_124" x="-178.5" y="-33.833"><tspan id="svg_125" x="-165.5" y="-19.833">sol</tspan></text></g></g><g id="svg_126" transform="translate(66)"><g id="svg_127" transform="matrix(1.5,0,0,1.5,750,210)"><path style="fill:#ff5293;fill-opacity:1;stroke:#ff2c76;stroke-width:1;stroke-linecap:round;stroke-opacity:1" id="svg_128" d="m -170,-33.333332 h 60 v 20 h -60 v -8 -1 h -6 v 3 h -2 v -8 h 2 v 3 h 6 v -1 z"/><text style="font-size:10px;font-family:sans-serif;text-anchor:start;fill:#282828" id="svg_129" x="-178.5" y="-33.833"><tspan id="svg_130" x="-165.5" y="-19.833">4</tspan></text></g></g><g id="svg_131"><g id="svg_132"><g id="svg_133" transform="matrix(1.5,0,0,1.5,662,430)"><path style="fill:#fe994f;fill-opacity:1;stroke:#e86b0e;stroke-width:1;stroke-linecap:round;stroke-opacity:1" id="svg_134" d="m -178,-25.333332 v -4 a 4,4 90 0 1 4,-4 h 4 v 2 h 10 v -2 h 9 60 4 a 4,4 90 0 1 4,4 v 4 h -4 v -3 h -4 v 10 h 4 v -3 h 4 v 4 a 4,4 90 0 1 -4,4 h -4 -60 -1 v 2 h -8 v -2 h -1 -4 a 5,5 90 0 0 -5,4.9999999 v 4 4.00000004 42.00000006 4 a 5,5 90 0 0 5,5 h 4 v 2 h 10 v -2 h 8 v 6 6 4 a 4,4 90 0 1 -4,4 h -4 -9 -1 v 2 h -8 v -2 h -1 -4 a 4,4 90 0 1 -4,-4 v -4 z"/><text style="font-size:10px;font-family:sans-serif;text-anchor:start;fill:#282828" id="svg_135" x="-178.5" y="-33.833"><tspan id="svg_136" x="-158.5" y="-18.833">nota</tspan></text><text style="font-size:6.66666651px;font-family:sans-serif;text-anchor:end;fill:#282828" id="svg_137" x="-178.5" y="-33.833"><tspan id="svg_138" x="-93.5" y="-21.833">valor</tspan></text></g></g><g id="svg_139" transform="matrix(0.5,0,0,0.5,662,434)"><g style="isolation:isolate" id="svg_140"><g id="g4466" data-name="レイヤー 2"><g id="g4464"><rect style="opacity:.4;mix-blend-mode:multiply;fill:#292929" id="svg_141" width="42" height="42" x="-535.5" y="-101.5" rx="5" ry="5"/><path style="fill:#fff" id="svg_142" d="m -504.94,-71.700001 -4.17,-4.16 h 2.26 a 1.035,1.035 0 1 0 0,-2.07 h -4.71 a 1.08,1.08 0 0 0 -1.11,1 v 0 c 0,0 0,0 0,0.06 v 4.64 0 a 1.04,1.04 0 1 0 2.08,0 V -74.42 l 4.19,4.19 a 1,1 0 0 0 1.46,0 1,1 0 0 0 0,-1.470001 z"/><path style="fill:#fff" id="svg_143" d="m -516.33,-76.9 a 1.08,1.08 0 0 0 -1.11,-1 h -4.71 a 1.035,1.035 0 1 0 0,2.07 h 2.25 l -4.16,4.129999 a 1.039447,1.039447 0 0 0 1.47,1.47 l 4.18,-4.19 v 2.26 a 1.04,1.04 0 1 0 2.08,0 v -4.639998 c 0,0 0,0 0,-0.06 a 0.08,0.08 0 0 1 0,-0.04 z"/><path style="fill:#fff" id="svg_144" d="m -511.56,-81 h 4.7 a 1.04,1.04 0 1 0 0,-2.08 h -2.25 l 4.17,-4.16 a 1,1 0 0 0 0,-1.47 1,1 0 0 0 -1.46,0 l -4.19,4.21 v -2.28 a 1.04,1.04 0 1 0 -2.08,0 v 4.64 a 0.43000001,0.43000001 0 0 0 0,0.05 v 0.05 a 1.09,1.09 0 0 0 1.11,1.04 z"/><path style="fill:#fff" id="svg_145" d="m -517.37,-87.88 a 1.08,1.08 0 0 0 -1,1.09 v 2.29 l -4.18,-4.19 a 1,1 0 0 0 -1.47,0 1,1 0 0 0 0,1.46 l 4.16,4.17 h -2.29 a 1.04,1.04 0 1 0 0,2.08 h 4.71 a 1.09,1.09 0 0 0 1.11,-1 c 0,0 0,0 0,-0.06 v -4.75 a 1.0700001,1.0700001 0 0 0 -1.04,-1.09 z"/></g></g></g></g></g><g id="svg_146"><g id="svg_147" transform="matrix(1.5,0,0,1.5,794,430)"><path style="fill:#ff5293;fill-opacity:1;stroke:#ff2c76;stroke-width:1;stroke-linecap:round;stroke-opacity:1" id="svg_148" d="m -170,-25.333332 v -4 a 4,4 90 0 1 4,-4 h 4 10 30 4 a 4,4 90 0 1 4,4 v 4 h -4 v -3 h -4 v 10 h 4 v -3 h 4 v 16.9999999 h -4 v -3 h -4 v 10 h 4 v -2.99999996 h 4 V 3.6666679 a 4,4 90 0 1 -4,4 h -4 -30 -10 -4 a 4,4 90 0 1 -4,-4 v -3.99999996 -20.99999994 -1 h -6 v 3 h -2 v -8 h 2 v 3 h 6 z"/><text style="font-size:9px;font-family:sans-serif;text-anchor:end;fill:#282828" id="svg_149" x="-178.5" y="-33.833"><tspan id="svg_150" x="-124.5" y="-10.833">➗</tspan></text></g></g><g id="svg_155"><g id="svg_156" transform="matrix(1.5,0,0,1.5,880,430)"><path style="fill:#ff5293;fill-opacity:1;stroke:#ff2c76;stroke-width:1;stroke-linecap:round;stroke-opacity:1" id="svg_157" d="m -170,-33.333332 h 60 v 20 h -60 v -8 -1 h -6 v 3 h -2 v -8 h 2 v 3 h 6 v -1 z"/><text style="font-size:10px;font-family:sans-serif;text-anchor:start;fill:#282828" id="svg_158" x="-178.5" y="-33.833"><tspan id="svg_159" x="-165.5" y="-19.833">1</tspan></text></g></g><g id="svg_160"><g id="svg_161" transform="matrix(1.5,0,0,1.5,880,462)"><path style="fill:#ff5293;fill-opacity:1;stroke:#ff2c76;stroke-width:1;stroke-linecap:round;stroke-opacity:1" id="svg_162" d="m -170,-33.333332 h 60 v 20 h -60 v -8 -1 h -6 v 3 h -2 v -8 h 2 v 3 h 6 v -1 z"/><text style="font-size:10px;font-family:sans-serif;text-anchor:start;fill:#282828" id="svg_163" x="-178.5" y="-33.833"><tspan id="svg_164" x="-165.5" y="-19.833">4</tspan></text></g></g><g id="svg_165"><g id="svg_166" transform="matrix(1.5,0,0,1.5,676,462)"><path style="fill:#b0b0b0;fill-opacity:1;stroke:#a0a0a0;stroke-width:1;stroke-linecap:round;stroke-opacity:1" id="svg_167" d="m -178,-25.333332 v -4 a 4,4 90 0 1 4,-4 h 4 v 2 h 10 v -2 h 20 4 a 4,4 90 0 1 4,4 v 4 4 4 a 4,4 90 0 1 -4,4 h -4 -20 -1 v 2 h -8 v -2 h -1 -4 a 4,4 90 0 1 -4,-4 v -4 z"/><text style="font-size:10px;font-family:sans-serif;text-anchor:end;fill:#282828" id="svg_168" x="-178.5" y="-33.833"><tspan id="svg_169" x="-142.5" y="-19.833">↓</tspan></text></g></g><g id="svg_170" transform="translate(66)"><g id="svg_171" transform="matrix(1.5,0,0,1.5,676,494)"><path style="fill:#77c428;fill-opacity:1;stroke:#57ad02;stroke-width:1;stroke-linecap:round;stroke-opacity:1" id="svg_172" d="m -222,-25.333332 v -4 c 0,-2.209139 1.79086,-4 4,-4 h 4 v 2 h 10 v -2 h 74 4 c 2.20914,0 4,1.790861 4,4 v 4 h -4 v -3 h -4 v 10 h 4 v -3 h 4 v 16.9999999 h -4 v -3 h -4 v 10 h 4 v -2.99999996 h 4 V 3.6666679 c 0,2.209139 -1.79086,4 -4,4 h -4 -74 -1 v 2 h -8 v -2 h -1 -4 c -2.20914,0 -4,-1.790861 -4,-4 V -0.33333206 -21.333332 Z"/><text style="font-size:10px;font-family:sans-serif;text-anchor:end;fill:#282828" id="svg_173" x="-178.5" y="-33.833"><tspan id="svg_174" x="-132.5" y="-9.833">determinar o tom</tspan></text><text style="font-size:6.66666651px;font-family:sans-serif;text-anchor:end;fill:#282828" id="svg_175" x="-178.5" y="-33.833"><tspan id="svg_176" x="-132.5" y="-21.833">name</tspan></text><text style="font-size:6.66666651px;font-family:sans-serif;text-anchor:end;fill:#282828" id="svg_177" x="-178.5" y="-33.833"><tspan id="svg_178" x="-132.5" y="-.833">oitava</tspan></text></g></g><g id="svg_179" transform="translate(66)"><g id="svg_180" transform="matrix(1.5,0,0,1.5,750,494)"><path style="fill:#77c428;fill-opacity:1;stroke:#57ad02;stroke-width:1;stroke-linecap:round;stroke-opacity:1" id="svg_181" d="m -170,-33.333332 h 60 v 20 h -60 v -8 -1 h -6 v 3 h -2 v -8 h 2 v 3 h 6 v -1 z"/><text style="font-size:10px;font-family:sans-serif;text-anchor:start;fill:#282828" id="svg_182" x="-178.5" y="-33.833"><tspan id="svg_183" x="-165.5" y="-19.833">sol</tspan></text></g></g><g id="svg_184" transform="translate(66)"><g id="svg_185" transform="matrix(1.5,0,0,1.5,750,526)"><path style="fill:#ff5293;fill-opacity:1;stroke:#ff2c76;stroke-width:1;stroke-linecap:round;stroke-opacity:1" id="svg_186" d="m -170,-33.333332 h 60 v 20 h -60 v -8 -1 h -6 v 3 h -2 v -8 h 2 v 3 h 6 v -1 z"/><text style="font-size:10px;font-family:sans-serif;text-anchor:start;fill:#282828" id="svg_187" x="-178.5" y="-33.833"><tspan id="svg_188" x="-165.5" y="-19.833">4</tspan></text></g></g><g id="svg_189"><g id="svg_190" transform="matrix(1.5,0,0,1.5,267,54)"><path style="fill:#25c3c0;fill-opacity:1;stroke:#1dbcbd;stroke-width:1;stroke-linecap:round;stroke-opacity:1" id="svg_191" d="m -178,-25.333332 v -4 a 4,4 90 0 1 4,-4 h 4 v 2 h 10 v -2 h 9 28 4 a 4,4 90 0 1 4,4 v 4 h -4 v -3 h -4 v 10 h 4 v -3 h 4 v 4 a 4,4 90 0 1 -4,4 h -4 -28 -1 v 2 h -8 v -2 h -1 -4 a 5,5 90 0 0 -5,4.9999999 v 4 4.00000004 315.00000206 4 a 5,5 90 0 0 5,5 h 4 v 2 h 10 v -2 h 8 v 6 6 4 a 4,4 90 0 1 -4,4 h -4 -9 -1 v 2 h -8 v -2 h -1 -4 a 4,4 90 0 1 -4,-4 v -4 z"/><text style="font-size:10px;font-family:sans-serif;text-anchor:start;fill:#282828" id="svg_192" x="-178.5" y="-33.833"><tspan id="svg_193" x="-173.5" y="-18.833">staccato</tspan></text></g></g><g id="svg_196"><g id="svg_197" transform="matrix(1.5,0,0,1.5,351,54)"><path style="fill:#ff5293;fill-opacity:1;stroke:#ff2c76;stroke-width:1;stroke-linecap:round;stroke-opacity:1" id="svg_198" d="m -170,-25.333332 v -4 a 4,4 90 0 1 4,-4 h 4 10 30 4 a 4,4 90 0 1 4,4 v 4 h -4 v -3 h -4 v 10 h 4 v -3 h 4 v 16.9999999 h -4 v -3 h -4 v 10 h 4 v -2.99999996 h 4 V 3.6666679 a 4,4 90 0 1 -4,4 h -4 -30 -10 -4 a 4,4 90 0 1 -4,-4 v -3.99999996 -20.99999994 -1 h -6 v 3 h -2 v -8 h 2 v 3 h 6 z"/><text style="font-size:9px;font-family:sans-serif;text-anchor:end;fill:#282828" id="svg_199" x="-178.5" y="-33.833"><tspan id="svg_200" x="-124.5" y="-10.833">➗</tspan></text></g></g><g id="svg_205"><g id="svg_206" transform="matrix(1.5,0,0,1.5,437,54)"><path style="fill:#ff5293;fill-opacity:1;stroke:#ff2c76;stroke-width:1;stroke-linecap:round;stroke-opacity:1" id="svg_207" d="m -170,-33.333332 h 60 v 20 h -60 v -8 -1 h -6 v 3 h -2 v -8 h 2 v 3 h 6 v -1 z"/><text style="font-size:10px;font-family:sans-serif;text-anchor:start;fill:#282828" id="svg_208" x="-178.5" y="-33.833"><tspan id="svg_209" x="-165.5" y="-19.833">1</tspan></text></g></g><g id="svg_210"><g id="svg_211" transform="matrix(1.5,0,0,1.5,437,86)"><path style="fill:#ff5293;fill-opacity:1;stroke:#ff2c76;stroke-width:1;stroke-linecap:round;stroke-opacity:1" id="svg_212" d="m -170,-33.333332 h 60 v 20 h -60 v -8 -1 h -6 v 3 h -2 v -8 h 2 v 3 h 6 v -1 z"/><text style="font-size:10px;font-family:sans-serif;text-anchor:start;fill:#282828" id="svg_213" x="-178.5" y="-33.833"><tspan id="svg_214" x="-165.5" y="-19.833">32</tspan></text></g></g><g id="svg_215"><g id="svg_216" transform="matrix(1.5,0,0,1.5,281,86)"><path style="fill:#b0b0b0;fill-opacity:1;stroke:#a0a0a0;stroke-width:1;stroke-linecap:round;stroke-opacity:1" id="svg_217" d="m -178,-25.333332 v -4 a 4,4 90 0 1 4,-4 h 4 v 2 h 10 v -2 h 20 4 a 4,4 90 0 1 4,4 v 4 4 4 a 4,4 90 0 1 -4,4 h -4 -20 -1 v 2 h -8 v -2 h -1 -4 a 4,4 90 0 1 -4,-4 v -4 z"/><text style="font-size:10px;font-family:sans-serif;text-anchor:end;fill:#282828" id="svg_218" x="-178.5" y="-33.833"><tspan id="svg_219" x="-142.5" y="-19.833">↓</tspan></text></g></g><g id="svg_220"><g id="svg_221"><g id="svg_222" transform="matrix(1.5,0,0,1.5,281,118)"><path style="fill:#fe994f;fill-opacity:1;stroke:#e86b0e;stroke-width:1;stroke-linecap:round;stroke-opacity:1" id="svg_223" d="m -178,-25.333332 v -4 a 4,4 90 0 1 4,-4 h 4 v 2 h 10 v -2 h 9 60 4 a 4,4 90 0 1 4,4 v 4 h -4 v -3 h -4 v 10 h 4 v -3 h 4 v 4 a 4,4 90 0 1 -4,4 h -4 -60 -1 v 2 h -8 v -2 h -1 -4 a 5,5 90 0 0 -5,4.9999999 v 4 4.00000004 42.00000006 4 a 5,5 90 0 0 5,5 h 4 v 2 h 10 v -2 h 8 v 6 6 4 a 4,4 90 0 1 -4,4 h -4 -9 -1 v 2 h -8 v -2 h -1 -4 a 4,4 90 0 1 -4,-4 v -4 z"/><text style="font-size:10px;font-family:sans-serif;text-anchor:start;fill:#282828" id="svg_224" x="-178.5" y="-33.833"><tspan id="svg_225" x="-158.5" y="-18.833">nota</tspan></text><text style="font-size:6.66666651px;font-family:sans-serif;text-anchor:end;fill:#282828" id="svg_226" x="-178.5" y="-33.833"><tspan id="svg_227" x="-93.5" y="-21.833">valor</tspan></text></g></g><g id="svg_228" transform="matrix(0.5,0,0,0.5,281,122)"><g style="isolation:isolate" id="svg_229"><g id="g4554" data-name="レイヤー 2"><g id="g4552"><rect style="opacity:.4;mix-blend-mode:multiply;fill:#292929" id="svg_230" width="42" height="42" x="-535.5" y="-101.5" rx="5" ry="5"/><path style="fill:#fff" id="svg_231" d="m -504.94,-71.700001 -4.17,-4.16 h 2.26 a 1.035,1.035 0 1 0 0,-2.07 h -4.71 a 1.08,1.08 0 0 0 -1.11,1 v 0 c 0,0 0,0 0,0.06 v 4.64 0 a 1.04,1.04 0 1 0 2.08,0 V -74.42 l 4.19,4.19 a 1,1 0 0 0 1.46,0 1,1 0 0 0 0,-1.470001 z"/><path style="fill:#fff" id="svg_232" d="m -516.33,-76.9 a 1.08,1.08 0 0 0 -1.11,-1 h -4.71 a 1.035,1.035 0 1 0 0,2.07 h 2.25 l -4.16,4.129999 a 1.039447,1.039447 0 0 0 1.47,1.47 l 4.18,-4.19 v 2.26 a 1.04,1.04 0 1 0 2.08,0 v -4.639998 c 0,0 0,0 0,-0.06 a 0.08,0.08 0 0 1 0,-0.04 z"/><path style="fill:#fff" id="svg_233" d="m -511.56,-81 h 4.7 a 1.04,1.04 0 1 0 0,-2.08 h -2.25 l 4.17,-4.16 a 1,1 0 0 0 0,-1.47 1,1 0 0 0 -1.46,0 l -4.19,4.21 v -2.28 a 1.04,1.04 0 1 0 -2.08,0 v 4.64 a 0.43000001,0.43000001 0 0 0 0,0.05 v 0.05 a 1.09,1.09 0 0 0 1.11,1.04 z"/><path style="fill:#fff" id="svg_234" d="m -517.37,-87.88 a 1.08,1.08 0 0 0 -1,1.09 v 2.29 l -4.18,-4.19 a 1,1 0 0 0 -1.47,0 1,1 0 0 0 0,1.46 l 4.16,4.17 h -2.29 a 1.04,1.04 0 1 0 0,2.08 h 4.71 a 1.09,1.09 0 0 0 1.11,-1 c 0,0 0,0 0,-0.06 v -4.75 a 1.0700001,1.0700001 0 0 0 -1.04,-1.09 z"/></g></g></g></g></g><g id="svg_235"><g id="svg_236" transform="matrix(1.5,0,0,1.5,413,118)"><path style="fill:#ff5293;fill-opacity:1;stroke:#ff2c76;stroke-width:1;stroke-linecap:round;stroke-opacity:1" id="svg_237" d="m -170,-25.333332 v -4 a 4,4 90 0 1 4,-4 h 4 10 30 4 a 4,4 90 0 1 4,4 v 4 h -4 v -3 h -4 v 10 h 4 v -3 h 4 v 16.9999999 h -4 v -3 h -4 v 10 h 4 v -2.99999996 h 4 V 3.6666679 a 4,4 90 0 1 -4,4 h -4 -30 -10 -4 a 4,4 90 0 1 -4,-4 v -3.99999996 -20.99999994 -1 h -6 v 3 h -2 v -8 h 2 v 3 h 6 z"/><text style="font-size:9px;font-family:sans-serif;text-anchor:end;fill:#282828" id="svg_238" x="-178.5" y="-33.833"><tspan id="svg_239" x="-124.5" y="-10.833">➗</tspan></text></g></g><g id="svg_244"><g id="svg_245" transform="matrix(1.5,0,0,1.5,499,118)"><path style="fill:#ff5293;fill-opacity:1;stroke:#ff2c76;stroke-width:1;stroke-linecap:round;stroke-opacity:1" id="svg_246" d="m -170,-33.333332 h 60 v 20 h -60 v -8 -1 h -6 v 3 h -2 v -8 h 2 v 3 h 6 v -1 z"/><text style="font-size:10px;font-family:sans-serif;text-anchor:start;fill:#282828" id="svg_247" x="-178.5" y="-33.833"><tspan id="svg_248" x="-165.5" y="-19.833">1</tspan></text></g></g><g id="svg_249"><g id="svg_250" transform="matrix(1.5,0,0,1.5,499,150)"><path style="fill:#ff5293;fill-opacity:1;stroke:#ff2c76;stroke-width:1;stroke-linecap:round;stroke-opacity:1" id="svg_251" d="m -170,-33.333332 h 60 v 20 h -60 v -8 -1 h -6 v 3 h -2 v -8 h 2 v 3 h 6 v -1 z"/><text style="font-size:10px;font-family:sans-serif;text-anchor:start;fill:#282828" id="svg_252" x="-178.5" y="-33.833"><tspan id="svg_253" x="-165.5" y="-19.833">4</tspan></text></g></g><g id="svg_254"><g id="svg_255" transform="matrix(1.5,0,0,1.5,295,150)"><path style="fill:#b0b0b0;fill-opacity:1;stroke:#a0a0a0;stroke-width:1;stroke-linecap:round;stroke-opacity:1" id="svg_256" d="m -178,-25.333332 v -4 a 4,4 90 0 1 4,-4 h 4 v 2 h 10 v -2 h 20 4 a 4,4 90 0 1 4,4 v 4 4 4 a 4,4 90 0 1 -4,4 h -4 -20 -1 v 2 h -8 v -2 h -1 -4 a 4,4 90 0 1 -4,-4 v -4 z"/><text style="font-size:10px;font-family:sans-serif;text-anchor:end;fill:#282828" id="svg_257" x="-178.5" y="-33.833"><tspan id="svg_258" x="-142.5" y="-19.833">↓</tspan></text></g></g><g id="svg_259" transform="translate(66)"><g id="svg_260" transform="matrix(1.5,0,0,1.5,295,182)"><path style="fill:#77c428;fill-opacity:1;stroke:#57ad02;stroke-width:1;stroke-linecap:round;stroke-opacity:1" id="svg_261" d="m -222,-25.333332 v -4 c 0,-2.209139 1.79086,-4 4,-4 h 4 v 2 h 10 v -2 h 74 4 c 2.20914,0 4,1.790861 4,4 v 4 h -4 v -3 h -4 v 10 h 4 v -3 h 4 v 16.9999999 h -4 v -3 h -4 v 10 h 4 v -2.99999996 h 4 V 3.6666679 c 0,2.209139 -1.79086,4 -4,4 h -4 -74 -1 v 2 h -8 v -2 h -1 -4 c -2.20914,0 -4.69859,-1.9042267 -4,-4 V -0.33333206 -21.333332 Z"/><text style="font-size:10px;font-family:sans-serif;text-anchor:end;fill:#282828" id="svg_262" x="-178.5" y="-33.833"><tspan id="svg_263" x="-132.5" y="-9.833">determinar o tom</tspan></text><text style="font-size:6.66666651px;font-family:sans-serif;text-anchor:end;fill:#282828" id="svg_264" x="-178.5" y="-33.833"><tspan id="svg_265" x="-132.5" y="-21.833">name</tspan></text><text style="font-size:6.66666651px;font-family:sans-serif;text-anchor:end;fill:#282828" id="svg_266" x="-178.5" y="-33.833"><tspan id="svg_267" x="-132.5" y="-.833">oitava</tspan></text></g></g><g id="svg_268" transform="translate(66)"><g id="svg_269" transform="matrix(1.5,0,0,1.5,369,182)"><path style="fill:#77c428;fill-opacity:1;stroke:#57ad02;stroke-width:1;stroke-linecap:round;stroke-opacity:1" id="svg_270" d="m -170,-33.333332 h 60 v 20 h -60 v -8 -1 h -6 v 3 h -2 v -8 h 2 v 3 h 6 v -1 z"/><text style="font-size:10px;font-family:sans-serif;text-anchor:start;fill:#282828" id="svg_271" x="-178.5" y="-33.833"><tspan id="svg_272" x="-165.5" y="-19.833">sol</tspan></text></g></g><g id="svg_273" transform="translate(66)"><g id="svg_274" transform="matrix(1.5,0,0,1.5,369,214)"><path style="fill:#ff5293;fill-opacity:1;stroke:#ff2c76;stroke-width:1;stroke-linecap:round;stroke-opacity:1" id="svg_275" d="m -170,-33.333332 h 60 v 20 h -60 v -8 -1 h -6 v 3 h -2 v -8 h 2 v 3 h 6 v -1 z"/><text style="font-size:10px;font-family:sans-serif;text-anchor:start;fill:#282828" id="svg_276" x="-178.5" y="-33.833"><tspan id="svg_277" x="-165.5" y="-19.833">4</tspan></text></g></g><g id="svg_278"><g id="svg_279"><g id="svg_280" transform="matrix(1.5,0,0,1.5,281,276)"><path style="fill:#fe994f;fill-opacity:1;stroke:#e86b0e;stroke-width:1;stroke-linecap:round;stroke-opacity:1" id="svg_281" d="m -178,-25.333332 v -4 a 4,4 90 0 1 4,-4 h 4 v 2 h 10 v -2 h 9 60 4 a 4,4 90 0 1 4,4 v 4 h -4 v -3 h -4 v 10 h 4 v -3 h 4 v 4 a 4,4 90 0 1 -4,4 h -4 -60 -1 v 2 h -8 v -2 h -1 -4 a 5,5 90 0 0 -5,4.9999999 v 4 4.00000004 42.00000006 4 a 5,5 90 0 0 5,5 h 4 v 2 h 10 v -2 h 8 v 6 6 4 a 4,4 90 0 1 -4,4 h -4 -9 -1 v 2 h -8 v -2 h -1 -4 a 4,4 90 0 1 -4,-4 v -4 z"/><text style="font-size:10px;font-family:sans-serif;text-anchor:start;fill:#282828" id="svg_282" x="-178.5" y="-33.833"><tspan id="svg_283" x="-158.5" y="-18.833">nota</tspan></text><text style="font-size:6.66666651px;font-family:sans-serif;text-anchor:end;fill:#282828" id="svg_284" x="-178.5" y="-33.833"><tspan id="svg_285" x="-93.5" y="-21.833">valor</tspan></text></g></g><g id="svg_286" transform="matrix(0.5,0,0,0.5,281,280)"><g style="isolation:isolate" id="svg_287"><g id="g4614" data-name="レイヤー 2"><g id="g4612"><rect style="opacity:.4;mix-blend-mode:multiply;fill:#292929" id="svg_288" width="42" height="42" x="-535.5" y="-101.5" rx="5" ry="5"/><path style="fill:#fff" id="svg_289" d="m -504.94,-71.700001 -4.17,-4.16 h 2.26 a 1.035,1.035 0 1 0 0,-2.07 h -4.71 a 1.08,1.08 0 0 0 -1.11,1 v 0 c 0,0 0,0 0,0.06 v 4.64 0 a 1.04,1.04 0 1 0 2.08,0 V -74.42 l 4.19,4.19 a 1,1 0 0 0 1.46,0 1,1 0 0 0 0,-1.470001 z"/><path style="fill:#fff" id="svg_290" d="m -516.33,-76.9 a 1.08,1.08 0 0 0 -1.11,-1 h -4.71 a 1.035,1.035 0 1 0 0,2.07 h 2.25 l -4.16,4.129999 a 1.039447,1.039447 0 0 0 1.47,1.47 l 4.18,-4.19 v 2.26 a 1.04,1.04 0 1 0 2.08,0 v -4.639998 c 0,0 0,0 0,-0.06 a 0.08,0.08 0 0 1 0,-0.04 z"/><path style="fill:#fff" id="svg_291" d="m -511.56,-81 h 4.7 a 1.04,1.04 0 1 0 0,-2.08 h -2.25 l 4.17,-4.16 a 1,1 0 0 0 0,-1.47 1,1 0 0 0 -1.46,0 l -4.19,4.21 v -2.28 a 1.04,1.04 0 1 0 -2.08,0 v 4.64 a 0.43000001,0.43000001 0 0 0 0,0.05 v 0.05 a 1.09,1.09 0 0 0 1.11,1.04 z"/><path style="fill:#fff" id="svg_292" d="m -517.37,-87.88 a 1.08,1.08 0 0 0 -1,1.09 v 2.29 l -4.18,-4.19 a 1,1 0 0 0 -1.47,0 1,1 0 0 0 0,1.46 l 4.16,4.17 h -2.29 a 1.04,1.04 0 1 0 0,2.08 h 4.71 a 1.09,1.09 0 0 0 1.11,-1 c 0,0 0,0 0,-0.06 v -4.75 a 1.0700001,1.0700001 0 0 0 -1.04,-1.09 z"/></g></g></g></g></g><g id="svg_293"><g id="svg_294" transform="matrix(1.5,0,0,1.5,413,276)"><path style="fill:#ff5293;fill-opacity:1;stroke:#ff2c76;stroke-width:1;stroke-linecap:round;stroke-opacity:1" id="svg_295" d="m -170,-25.333332 v -4 a 4,4 90 0 1 4,-4 h 4 10 30 4 a 4,4 90 0 1 4,4 v 4 h -4 v -3 h -4 v 10 h 4 v -3 h 4 v 16.9999999 h -4 v -3 h -4 v 10 h 4 v -2.99999996 h 4 V 3.6666679 a 4,4 90 0 1 -4,4 h -4 -30 -10 -4 a 4,4 90 0 1 -4,-4 v -3.99999996 -20.99999994 -1 h -6 v 3 h -2 v -8 h 2 v 3 h 6 z"/><text style="font-size:9px;font-family:sans-serif;text-anchor:end;fill:#282828" id="svg_296" x="-178.5" y="-33.833"><tspan id="svg_297" x="-124.5" y="-10.833">➗</tspan></text></g></g><g id="svg_302"><g id="svg_303" transform="matrix(1.5,0,0,1.5,499,276)"><path style="fill:#ff5293;fill-opacity:1;stroke:#ff2c76;stroke-width:1;stroke-linecap:round;stroke-opacity:1" id="svg_304" d="m -170,-33.333332 h 60 v 20 h -60 v -8 -1 h -6 v 3 h -2 v -8 h 2 v 3 h 6 v -1 z"/><text style="font-size:10px;font-family:sans-serif;text-anchor:start;fill:#282828" id="svg_305" x="-178.5" y="-33.833"><tspan id="svg_306" x="-165.5" y="-19.833">1</tspan></text></g></g><g id="svg_307"><g id="svg_308" transform="matrix(1.5,0,0,1.5,499,308)"><path style="fill:#ff5293;fill-opacity:1;stroke:#ff2c76;stroke-width:1;stroke-linecap:round;stroke-opacity:1" id="svg_309" d="m -170,-33.333332 h 60 v 20 h -60 v -8 -1 h -6 v 3 h -2 v -8 h 2 v 3 h 6 v -1 z"/><text style="font-size:10px;font-family:sans-serif;text-anchor:start;fill:#282828" id="svg_310" x="-178.5" y="-33.833"><tspan id="svg_311" x="-165.5" y="-19.833">4</tspan></text></g></g><g id="svg_312"><g id="svg_313" transform="matrix(1.5,0,0,1.5,295,308)"><path style="fill:#b0b0b0;fill-opacity:1;stroke:#a0a0a0;stroke-width:1;stroke-linecap:round;stroke-opacity:1" id="svg_314" d="m -178,-25.333332 v -4 a 4,4 90 0 1 4,-4 h 4 v 2 h 10 v -2 h 20 4 a 4,4 90 0 1 4,4 v 4 4 4 a 4,4 90 0 1 -4,4 h -4 -20 -1 v 2 h -8 v -2 h -1 -4 a 4,4 90 0 1 -4,-4 v -4 z"/><text style="font-size:10px;font-family:sans-serif;text-anchor:end;fill:#282828" id="svg_315" x="-178.5" y="-33.833"><tspan id="svg_316" x="-142.5" y="-19.833">↓</tspan></text></g></g><g id="svg_317" transform="translate(66)"><g id="svg_318" transform="matrix(1.5,0,0,1.5,295,340)"><path style="fill:#77c428;fill-opacity:1;stroke:#57ad02;stroke-width:1;stroke-linecap:round;stroke-opacity:1" id="svg_319" d="m -222,-25.333332 v -4 c 0,-2.209139 1.79086,-4 4,-4 h 4 v 2 h 10 v -2 h 74 4 c 2.20914,0 4,1.790861 4,4 v 4 h -4 v -3 h -4 v 10 h 4 v -3 h 4 v 16.9999999 h -4 v -3 h -4 v 10 h 4 v -2.99999996 h 4 V 3.6666679 c 0,2.209139 -1.79086,4 -4,4 h -4 -74 -1 v 2 h -8 v -2 h -1 -4 c -2.20914,0 -4.69859,-1.9042267 -4,-4 V -0.33333206 -21.333332 Z"/><text style="font-size:10px;font-family:sans-serif;text-anchor:end;fill:#282828" id="svg_320" x="-178.5" y="-33.833"><tspan id="svg_321" x="-132.5" y="-9.833">determinar o tom</tspan></text><text style="font-size:6.66666651px;font-family:sans-serif;text-anchor:end;fill:#282828" id="svg_322" x="-178.5" y="-33.833"><tspan id="svg_323" x="-132.5" y="-21.833">name</tspan></text><text style="font-size:6.66666651px;font-family:sans-serif;text-anchor:end;fill:#282828" id="svg_324" x="-178.5" y="-33.833"><tspan id="svg_325" x="-132.5" y="-.833">oitava</tspan></text></g></g><g id="svg_326" transform="translate(66)"><g id="svg_327" transform="matrix(1.5,0,0,1.5,369,340)"><path style="fill:#77c428;fill-opacity:1;stroke:#57ad02;stroke-width:1;stroke-linecap:round;stroke-opacity:1" id="svg_328" d="m -170,-33.333332 h 60 v 20 h -60 v -8 -1 h -6 v 3 h -2 v -8 h 2 v 3 h 6 v -1 z"/><text style="font-size:10px;font-family:sans-serif;text-anchor:start;fill:#282828" id="svg_329" x="-178.5" y="-33.833"><tspan id="svg_330" x="-165.5" y="-19.833">mi</tspan></text></g></g><g id="svg_331" transform="translate(66)"><g id="svg_332" transform="matrix(1.5,0,0,1.5,369,372)"><path style="fill:#ff5293;fill-opacity:1;stroke:#ff2c76;stroke-width:1;stroke-linecap:round;stroke-opacity:1" id="svg_333" d="m -170,-33.333332 h 60 v 20 h -60 v -8 -1 h -6 v 3 h -2 v -8 h 2 v 3 h 6 v -1 z"/><text style="font-size:10px;font-family:sans-serif;text-anchor:start;fill:#282828" id="svg_334" x="-178.5" y="-33.833"><tspan id="svg_335" x="-165.5" y="-19.833">4</tspan></text></g></g><g id="svg_336"><g id="svg_337"><g id="svg_338" transform="matrix(1.5,0,0,1.5,281,434)"><path style="fill:#fe994f;fill-opacity:1;stroke:#e86b0e;stroke-width:1;stroke-linecap:round;stroke-opacity:1" id="svg_339" d="m -178,-25.333332 v -4 a 4,4 90 0 1 4,-4 h 4 v 2 h 10 v -2 h 9 60 4 a 4,4 90 0 1 4,4 v 4 h -4 v -3 h -4 v 10 h 4 v -3 h 4 v 4 a 4,4 90 0 1 -4,4 h -4 -60 -1 v 2 h -8 v -2 h -1 -4 a 5,5 90 0 0 -5,4.9999999 v 4 4.00000004 42.00000006 4 a 5,5 90 0 0 5,5 h 4 v 2 h 10 v -2 h 8 v 6 6 4 a 4,4 90 0 1 -4,4 h -4 -9 -1 v 2 h -8 v -2 h -1 -4 a 4,4 90 0 1 -4,-4 v -4 z"/><text style="font-size:10px;font-family:sans-serif;text-anchor:start;fill:#282828" id="svg_340" x="-178.5" y="-33.833"><tspan id="svg_341" x="-158.5" y="-18.833">nota</tspan></text><text style="font-size:6.66666651px;font-family:sans-serif;text-anchor:end;fill:#282828" id="svg_342" x="-178.5" y="-33.833"><tspan id="svg_343" x="-93.5" y="-21.833">valor</tspan></text></g></g><g id="svg_344" transform="matrix(0.5,0,0,0.5,281,438)"><g style="isolation:isolate" id="svg_345"><g id="g4674" data-name="レイヤー 2"><g id="g4672"><rect style="opacity:.4;mix-blend-mode:multiply;fill:#292929" id="svg_346" width="42" height="42" x="-535.5" y="-101.5" rx="5" ry="5"/><path style="fill:#fff" id="svg_347" d="m -504.94,-71.700001 -4.17,-4.16 h 2.26 a 1.035,1.035 0 1 0 0,-2.07 h -4.71 a 1.08,1.08 0 0 0 -1.11,1 v 0 c 0,0 0,0 0,0.06 v 4.64 0 a 1.04,1.04 0 1 0 2.08,0 V -74.42 l 4.19,4.19 a 1,1 0 0 0 1.46,0 1,1 0 0 0 0,-1.470001 z"/><path style="fill:#fff" id="svg_348" d="m -516.33,-76.9 a 1.08,1.08 0 0 0 -1.11,-1 h -4.71 a 1.035,1.035 0 1 0 0,2.07 h 2.25 l -4.16,4.129999 a 1.039447,1.039447 0 0 0 1.47,1.47 l 4.18,-4.19 v 2.26 a 1.04,1.04 0 1 0 2.08,0 v -4.639998 c 0,0 0,0 0,-0.06 a 0.08,0.08 0 0 1 0,-0.04 z"/><path style="fill:#fff" id="svg_349" d="m -511.56,-81 h 4.7 a 1.04,1.04 0 1 0 0,-2.08 h -2.25 l 4.17,-4.16 a 1,1 0 0 0 0,-1.47 1,1 0 0 0 -1.46,0 l -4.19,4.21 v -2.28 a 1.04,1.04 0 1 0 -2.08,0 v 4.64 a 0.43000001,0.43000001 0 0 0 0,0.05 v 0.05 a 1.09,1.09 0 0 0 1.11,1.04 z"/><path style="fill:#fff" id="svg_350" d="m -517.37,-87.88 a 1.08,1.08 0 0 0 -1,1.09 v 2.29 l -4.18,-4.19 a 1,1 0 0 0 -1.47,0 1,1 0 0 0 0,1.46 l 4.16,4.17 h -2.29 a 1.04,1.04 0 1 0 0,2.08 h 4.71 a 1.09,1.09 0 0 0 1.11,-1 c 0,0 0,0 0,-0.06 v -4.75 a 1.0700001,1.0700001 0 0 0 -1.04,-1.09 z"/></g></g></g></g></g><g id="svg_351"><g id="svg_352" transform="matrix(1.5,0,0,1.5,413,434)"><path style="fill:#ff5293;fill-opacity:1;stroke:#ff2c76;stroke-width:1;stroke-linecap:round;stroke-opacity:1" id="svg_353" d="m -170,-25.333332 v -4 a 4,4 90 0 1 4,-4 h 4 10 30 4 a 4,4 90 0 1 4,4 v 4 h -4 v -3 h -4 v 10 h 4 v -3 h 4 v 16.9999999 h -4 v -3 h -4 v 10 h 4 v -2.99999996 h 4 V 3.6666679 a 4,4 90 0 1 -4,4 h -4 -30 -10 -4 a 4,4 90 0 1 -4,-4 v -3.99999996 -20.99999994 -1 h -6 v 3 h -2 v -8 h 2 v 3 h 6 z"/><text style="font-size:9px;font-family:sans-serif;text-anchor:end;fill:#282828" id="svg_354" x="-178.5" y="-33.833"><tspan id="svg_355" x="-124.5" y="-10.833">➗</tspan></text></g></g><g id="svg_360"><g id="svg_361" transform="matrix(1.5,0,0,1.5,499,434)"><path style="fill:#ff5293;fill-opacity:1;stroke:#ff2c76;stroke-width:1;stroke-linecap:round;stroke-opacity:1" id="svg_362" d="m -170,-33.333332 h 60 v 20 h -60 v -8 -1 h -6 v 3 h -2 v -8 h 2 v 3 h 6 v -1 z"/><text style="font-size:10px;font-family:sans-serif;text-anchor:start;fill:#282828" id="svg_363" x="-178.5" y="-33.833"><tspan id="svg_364" x="-165.5" y="-19.833">1</tspan></text></g></g><g id="svg_365"><g id="svg_366" transform="matrix(1.5,0,0,1.5,499,466)"><path style="fill:#ff5293;fill-opacity:1;stroke:#ff2c76;stroke-width:1;stroke-linecap:round;stroke-opacity:1" id="svg_367" d="m -170,-33.333332 h 60 v 20 h -60 v -8 -1 h -6 v 3 h -2 v -8 h 2 v 3 h 6 v -1 z"/><text style="font-size:10px;font-family:sans-serif;text-anchor:start;fill:#282828" id="svg_368" x="-178.5" y="-33.833"><tspan id="svg_369" x="-165.5" y="-19.833">4</tspan></text></g></g><g id="svg_370"><g id="svg_371" transform="matrix(1.5,0,0,1.5,295,466)"><path style="fill:#b0b0b0;fill-opacity:1;stroke:#a0a0a0;stroke-width:1;stroke-linecap:round;stroke-opacity:1" id="svg_372" d="m -178,-25.333332 v -4 a 4,4 90 0 1 4,-4 h 4 v 2 h 10 v -2 h 20 4 a 4,4 90 0 1 4,4 v 4 4 4 a 4,4 90 0 1 -4,4 h -4 -20 -1 v 2 h -8 v -2 h -1 -4 a 4,4 90 0 1 -4,-4 v -4 z"/><text style="font-size:10px;font-family:sans-serif;text-anchor:end;fill:#282828" id="svg_373" x="-178.5" y="-33.833"><tspan id="svg_374" x="-142.5" y="-19.833">↓</tspan></text></g></g><g id="svg_375" transform="translate(66)"><g id="svg_376" transform="matrix(1.5,0,0,1.5,295,498)"><path style="fill:#77c428;fill-opacity:1;stroke:#57ad02;stroke-width:1;stroke-linecap:round;stroke-opacity:1" id="svg_377" d="m -222,-25.333332 v -4 c 0,-2.209139 1.79086,-4 4,-4 h 4 v 2 h 10 v -2 h 74 4 c 2.20914,0 4,1.790861 4,4 v 4 h -4 v -3 h -4 v 10 h 4 v -3 h 4 v 16.9999999 h -4 v -3 h -4 v 10 h 4 v -2.99999996 h 4 V 3.6666679 c 0,2.209139 -1.79086,4 -4,4 h -4 -74 -1 v 2 h -8 v -2 h -1 -4 c -2.20914,0 -4.69859,-1.9042267 -4,-4 V -0.33333206 -21.333332 Z"/><text style="font-size:10px;font-family:sans-serif;text-anchor:end;fill:#282828" id="svg_378" x="-178.5" y="-33.833"><tspan id="svg_379" x="-132.5" y="-9.833">determinar o tom</tspan></text><text style="font-size:6.66666651px;font-family:sans-serif;text-anchor:end;fill:#282828" id="svg_380" x="-178.5" y="-33.833"><tspan id="svg_381" x="-132.5" y="-21.833">name</tspan></text><text style="font-size:6.66666651px;font-family:sans-serif;text-anchor:end;fill:#282828" id="svg_382" x="-178.5" y="-33.833"><tspan id="svg_383" x="-132.5" y="-.833">oitava</tspan></text></g></g><g id="svg_384" transform="translate(66)"><g id="svg_385" transform="matrix(1.5,0,0,1.5,369,498)"><path style="fill:#77c428;fill-opacity:1;stroke:#57ad02;stroke-width:1;stroke-linecap:round;stroke-opacity:1" id="svg_386" d="m -170,-33.333332 h 60 v 20 h -60 v -8 -1 h -6 v 3 h -2 v -8 h 2 v 3 h 6 v -1 z"/><text style="font-size:10px;font-family:sans-serif;text-anchor:start;fill:#282828" id="svg_387" x="-178.5" y="-33.833"><tspan id="svg_388" x="-165.5" y="-19.833">sol</tspan></text></g></g><g id="svg_389" transform="translate(66)"><g id="svg_390" transform="matrix(1.5,0,0,1.5,369,530)"><path style="fill:#ff5293;fill-opacity:1;stroke:#ff2c76;stroke-width:1;stroke-linecap:round;stroke-opacity:1" id="svg_391" d="m -170,-33.333332 h 60 v 20 h -60 v -8 -1 h -6 v 3 h -2 v -8 h 2 v 3 h 6 v -1 z"/><text style="font-size:10px;font-family:sans-serif;text-anchor:start;fill:#282828" id="svg_392" x="-178.5" y="-33.833"><tspan id="svg_393" x="-165.5" y="-19.833">4</tspan></text></g></g><g id="svg_394"><g id="svg_395" transform="matrix(1.5,0,0,1.5,648,50)"><path style="fill:#25c3c0;fill-opacity:1;stroke:#1dbcbd;stroke-width:1;stroke-linecap:round;stroke-opacity:1" id="svg_396" d="m -178,-25.333332 v -4 a 4,4 90 0 1 4,-4 h 4 v 2 h 10 v -2 h 9 20 4 a 4,4 90 0 1 4,4 v 4 h -4 v -3 h -4 v 10 h 4 v -3 h 4 v 4 a 4,4 90 0 1 -4,4 h -4 -20 -1 v 2 h -8 v -2 h -1 -4 a 5,5 90 0 0 -5,4.9999999 v 4 4.00000004 315.00000206 4 a 5,5 90 0 0 5,5 h 4 v 2 h 10 v -2 h 8 v 6 6 4 a 4,4 90 0 1 -4,4 h -4 -9 -1 v 2 h -8 v -2 h -1 -4 a 4,4 90 0 1 -4,-4 v -4 z"/><text style="font-size:10px;font-family:sans-serif;text-anchor:start;fill:#282828" id="svg_397" x="-178.5" y="-33.833"><tspan id="svg_398" x="-173.5" y="-18.833">legato</tspan></text></g></g><g id="svg_401"><g id="svg_402" transform="matrix(1.5,0,0,1.5,720,50)"><path style="fill:#ff5293;fill-opacity:1;stroke:#ff2c76;stroke-width:1;stroke-linecap:round;stroke-opacity:1" id="svg_403" d="m -170,-25.333332 v -4 a 4,4 90 0 1 4,-4 h 4 10 30 4 a 4,4 90 0 1 4,4 v 4 h -4 v -3 h -4 v 10 h 4 v -3 h 4 v 16.9999999 h -4 v -3 h -4 v 10 h 4 v -2.99999996 h 4 V 3.6666679 a 4,4 90 0 1 -4,4 h -4 -30 -10 -4 a 4,4 90 0 1 -4,-4 v -3.99999996 -20.99999994 -1 h -6 v 3 h -2 v -8 h 2 v 3 h 6 z"/><text style="font-size:9px;font-family:sans-serif;text-anchor:end;fill:#282828" id="svg_404" x="-178.5" y="-33.833"><tspan id="svg_405" x="-124.5" y="-10.833">➗</tspan></text></g></g><g id="svg_410"><g id="svg_411" transform="matrix(1.5,0,0,1.5,806,50)"><path style="fill:#ff5293;fill-opacity:1;stroke:#ff2c76;stroke-width:1;stroke-linecap:round;stroke-opacity:1" id="svg_412" d="m -170,-33.333332 h 60 v 20 h -60 v -8 -1 h -6 v 3 h -2 v -8 h 2 v 3 h 6 v -1 z"/><text style="font-size:10px;font-family:sans-serif;text-anchor:start;fill:#282828" id="svg_413" x="-178.5" y="-33.833"><tspan id="svg_414" x="-165.5" y="-19.833">1</tspan></text></g></g><g id="svg_415"><g id="svg_416" transform="matrix(1.5,0,0,1.5,806,82)"><path style="fill:#ff5293;fill-opacity:1;stroke:#ff2c76;stroke-width:1;stroke-linecap:round;stroke-opacity:1" id="svg_417" d="m -170,-33.333332 h 60 v 20 h -60 v -8 -1 h -6 v 3 h -2 v -8 h 2 v 3 h 6 v -1 z"/><text style="font-size:10px;font-family:sans-serif;text-anchor:start;fill:#282828" id="svg_418" x="-178.5" y="-33.833"><tspan id="svg_419" x="-165.5" y="-19.833">16</tspan></text></g></g><g id="svg_420"><g id="svg_421" transform="matrix(1.5,0,0,1.5,662,82)"><path style="fill:#b0b0b0;fill-opacity:1;stroke:#a0a0a0;stroke-width:1;stroke-linecap:round;stroke-opacity:1" id="svg_422" d="m -178,-25.333332 v -4 a 4,4 90 0 1 4,-4 h 4 v 2 h 10 v -2 h 20 4 a 4,4 90 0 1 4,4 v 4 4 4 a 4,4 90 0 1 -4,4 h -4 -20 -1 v 2 h -8 v -2 h -1 -4 a 4,4 90 0 1 -4,-4 v -4 z"/><text style="font-size:10px;font-family:sans-serif;text-anchor:end;fill:#282828" id="svg_423" x="-178.5" y="-33.833"><tspan id="svg_424" x="-142.5" y="-19.833">↓</tspan></text></g></g></svg>