<svg xmlns="http://www.w3.org/2000/svg" xmlns:svg="http://www.w3.org/2000/svg" id="svg8045" width="493" height="493" version="1.1"><metadata id="metadata8051"/><rect id="backgroundrect" width="100%" height="100%" x="0" y="0" fill="none" stroke="none"/><g id="g8043" class="currentLayer"><title id="title7650">Layer 1</title><g id="svg_15"><g id="svg_16"><g id="svg_17" transform="translate(221,169) scale(1)"><path id="svg_18" d="m-211,-139.2857141494751 L-211,-143.2857141494751 A4,4 90 0 1 -207,-147.2857141494751 L-203,-147.2857141494751 L-203,-145.2857141494751 L-193,-145.2857141494751 L-193,-147.2857141494751 L-184,-147.2857141494751 L-124,-147.2857141494751 L-120,-147.2857141494751 A4,4 90 0 1 -116,-143.2857141494751 L-116,-139.2857141494751 L-120,-139.2857141494751 L-120,-142.2857141494751 L-124,-142.2857141494751 L-124,-132.2857141494751 L-120,-132.2857141494751 L-120,-135.2857141494751 L-116,-135.2857141494751 L-116,-131.2857141494751 A4,4 90 0 1 -120,-127.2857141494751 L-124,-127.2857141494751 L-184,-127.2857141494751 L-185,-127.2857141494751 L-185,-125.2857141494751 L-193,-125.2857141494751 L-193,-127.2857141494751 L-194,-127.2857141494751 L-198,-127.2857141494751 A5,5 90 0 0 -203,-122.2857141494751 L-203,-118.2857141494751 L-203,-114.2857141494751 L-203,-72.2857141494751 L-203,-68.2857141494751 A5,5 90 0 0 -198,-63.2857141494751 L-194,-63.2857141494751 L-194,-61.2857141494751 L-184,-61.2857141494751 L-184,-63.2857141494751 L-176,-63.2857141494751 L-176,-57.2857141494751 L-176,-51.2857141494751 L-176,-47.2857141494751 A4,4 90 0 1 -180,-43.2857141494751 L-184,-43.2857141494751 L-193,-43.2857141494751 L-194,-43.2857141494751 L-194,-41.2857141494751 L-202,-41.2857141494751 L-202,-43.2857141494751 L-203,-43.2857141494751 L-207,-43.2857141494751 A4,4 90 0 1 -211,-47.2857141494751 L-211,-51.2857141494751 z" style="fill:#ff8b2d;fill-opacity:1;stroke:#e86b0e;stroke-width:1;stroke-linecap:round;stroke-opacity:1"/><text id="svg_19" x="-211.5" y="-147.786" style="font-size:10px;fill:#282828;font-family:sans-serif;text-anchor:start"><tspan id="svg_20" x="-188.5" y="-132.786">nota</tspan></text><text id="svg_21" x="-211.5" y="-147.786" style="font-size:6.666666666666667px;fill:#282828;font-family:sans-serif;text-anchor:end"><tspan id="svg_22" x="-127.5" y="-135.786">valor</tspan></text></g></g></g><g id="svg_30"><g id="svg_31" transform="translate(309,169) scale(1)"><path id="svg_32" d="m-203,-139.2857141494751 L-203,-143.2857141494751 A4,4 90 0 1 -199,-147.2857141494751 L-195,-147.2857141494751 L-185,-147.2857141494751 L-155,-147.2857141494751 L-151,-147.2857141494751 A4,4 90 0 1 -147,-143.2857141494751 L-147,-139.2857141494751 L-151,-139.2857141494751 L-151,-142.2857141494751 L-155,-142.2857141494751 L-155,-132.2857141494751 L-151,-132.2857141494751 L-151,-135.2857141494751 L-147,-135.2857141494751 L-147,-118.2857141494751 L-151,-118.2857141494751 L-151,-121.2857141494751 L-155,-121.2857141494751 L-155,-111.2857141494751 L-151,-111.2857141494751 L-151,-114.2857141494751 L-147,-114.2857141494751 L-147,-110.2857141494751 A4,4 90 0 1 -151,-106.2857141494751 L-155,-106.2857141494751 L-185,-106.2857141494751 L-195,-106.2857141494751 L-199,-106.2857141494751 A4,4 90 0 1 -203,-110.2857141494751 L-203,-114.2857141494751 L-203,-135.2857141494751 L-203,-136.2857141494751 L-209,-136.2857141494751 L-209,-133.2857141494751 L-211,-133.2857141494751 L-211,-141.2857141494751 L-209,-141.2857141494751 L-209,-138.2857141494751 L-203,-138.2857141494751 L-203,-139.2857141494751 z" style="fill:#ff5293;fill-opacity:1;stroke:#ff2c76;stroke-width:1;stroke-linecap:round;stroke-opacity:1"/><text id="svg_33" x="-211.5" y="-147.786" style="font-size:9px;fill:#282828;font-family:sans-serif;text-anchor:end"><tspan id="svg_34" x="-158.5" y="-124.786">➗</tspan></text></g></g><g id="svg_39"><g id="svg_40" transform="translate(366,169) scale(1)"><path id="svg_41" d="m-203,-147.2857141494751 L-143,-147.2857141494751 L-143,-127.2857141494751 L-203,-127.2857141494751 L-203,-135.2857141494751 L-203,-136.2857141494751 L-209,-136.2857141494751 L-209,-133.2857141494751 L-211,-133.2857141494751 L-211,-141.2857141494751 L-209,-141.2857141494751 L-209,-138.2857141494751 L-203,-138.2857141494751 L-203,-139.2857141494751 z" style="fill:#ff5293;fill-opacity:1;stroke:#ff2c76;stroke-width:1;stroke-linecap:round;stroke-opacity:1"/><text id="svg_42" x="-211.5" y="-147.786" style="font-size:10px;fill:#282828;font-family:sans-serif;text-anchor:start"><tspan id="svg_43" x="-191.5" y="-131.786">1</tspan></text></g></g><g id="svg_44"><g id="svg_45" transform="translate(366,190) scale(1)"><path id="svg_46" d="m-203,-147.2857141494751 L-143,-147.2857141494751 L-143,-127.2857141494751 L-203,-127.2857141494751 L-203,-135.2857141494751 L-203,-136.2857141494751 L-209,-136.2857141494751 L-209,-133.2857141494751 L-211,-133.2857141494751 L-211,-141.2857141494751 L-209,-141.2857141494751 L-209,-138.2857141494751 L-203,-138.2857141494751 L-203,-139.2857141494751 z" style="fill:#ff5293;fill-opacity:1;stroke:#ff2c76;stroke-width:1;stroke-linecap:round;stroke-opacity:1"/><text id="svg_47" x="-211.5" y="-147.786" style="font-size:10px;fill:#282828;font-family:sans-serif;text-anchor:start"><tspan id="svg_48" x="-191.5" y="-131.786">4</tspan></text></g></g><g id="svg_49"><g id="svg_50" transform="translate(230,190) scale(1)"><path id="svg_51" d="m-211,-139.2857141494751 L-211,-143.2857141494751 A4,4 90 0 1 -207,-147.2857141494751 L-203,-147.2857141494751 L-203,-145.2857141494751 L-193,-145.2857141494751 L-193,-147.2857141494751 L-173,-147.2857141494751 L-169,-147.2857141494751 A4,4 90 0 1 -165,-143.2857141494751 L-165,-139.2857141494751 L-165,-135.2857141494751 L-165,-131.2857141494751 A4,4 90 0 1 -169,-127.2857141494751 L-173,-127.2857141494751 L-193,-127.2857141494751 L-194,-127.2857141494751 L-194,-125.2857141494751 L-202,-125.2857141494751 L-202,-127.2857141494751 L-203,-127.2857141494751 L-207,-127.2857141494751 A4,4 90 0 1 -211,-131.2857141494751 L-211,-135.2857141494751 z" style="fill:#b0b0b0;fill-opacity:1;stroke:#a0a0a0;stroke-width:1;stroke-linecap:round;stroke-opacity:1"/><text id="svg_52" x="-211.5" y="-147.786" style="font-size:10px;fill:#282828;font-family:sans-serif;text-anchor:end"><tspan id="svg_53" x="-176.5" y="-133.786">↓</tspan></text></g></g><g id="svg_54" transform="translate(46)"><g id="svg_55" transform="translate(230,211)"><path id="svg_56" d="m -257,-139.28571 v -4 c 0,-2.20914 1.79086,-4 4,-4 h 4 v 2 h 10 v -2 h 76 4 c 2.20914,0 4,1.79086 4,4 v 4 h -4 v -3 h -4 v 10 h 4 v -3 h 4 v 17 h -4 v -3 h -4 v 10 h 4 v -3 h 4 v 4 c 0,2.20914 -1.79086,4 -4,4 h -4 -76 -1 v 2 h -8 v -2 h -1 -4 c -2.20914,0 -4.98796,-2.02409 -4,-4 v -4 -21 z" style="fill:#77c428;fill-opacity:1;stroke:#57ad02;stroke-width:1;stroke-linecap:round;stroke-opacity:1"/><text id="svg_57" x="-211.5" y="-147.786" style="font-size:10px;font-family:sans-serif;text-anchor:end;fill:#282828"><tspan id="svg_58" x="-166.5" y="-123.786">determinar o tom</tspan></text><text id="svg_59" x="-211.5" y="-147.786" style="font-size:6.66666651px;font-family:sans-serif;text-anchor:end;fill:#282828"><tspan id="svg_60" x="-166.5" y="-135.786">nome</tspan></text><text id="svg_61" x="-211.5" y="-147.786" style="font-size:6.66666651px;font-family:sans-serif;text-anchor:end;fill:#282828"><tspan id="svg_62" x="-166.5" y="-114.786">oitava</tspan></text></g></g><g id="svg_63" transform="translate(46)"><g id="svg_64" transform="translate(279,211)"><path id="svg_65" d="m -203,-147.28571 h 60 v 20 h -60 v -8 -1 h -6 v 3 h -2 v -8 h 2 v 3 h 6 v -1 z" style="fill:#77c428;fill-opacity:1;stroke:#57ad02;stroke-width:1;stroke-linecap:round;stroke-opacity:1"/><text id="svg_66" x="-211.5" y="-147.786" style="font-size:10px;font-family:sans-serif;text-anchor:start;fill:#282828"><tspan id="svg_67" x="-191.5" y="-131.786">sol</tspan></text></g></g><g id="svg_68" transform="translate(46)"><g id="svg_69" transform="translate(279,232)"><path id="svg_70" d="m -203,-147.28571 h 60 v 20 h -60 v -8 -1 h -6 v 3 h -2 v -8 h 2 v 3 h 6 v -1 z" style="fill:#ff5293;fill-opacity:1;stroke:#ff2c76;stroke-width:1;stroke-linecap:round;stroke-opacity:1"/><text id="svg_71" x="-211.5" y="-147.786" style="font-size:10px;font-family:sans-serif;text-anchor:start;fill:#282828"><tspan id="svg_72" x="-191.5" y="-131.786">4</tspan></text></g></g><g id="svg_73"><g id="svg_74"><g id="svg_75" transform="translate(485,143) scale(1)"><path id="svg_76" d="m-206,-134.2857142686844 L-206,-138.2857142686844 A4,4 90 0 1 -202,-142.2857142686844 L-198,-142.2857142686844 L-198,-140.2857142686844 L-188,-140.2857142686844 L-188,-142.2857142686844 L-179,-142.2857142686844 L-119,-142.2857142686844 L-115,-142.2857142686844 A4,4 90 0 1 -111,-138.2857142686844 L-111,-134.2857142686844 L-115,-134.2857142686844 L-115,-137.2857142686844 L-119,-137.2857142686844 L-119,-127.28571426868439 L-115,-127.28571426868439 L-115,-130.2857142686844 L-111,-130.2857142686844 L-111,-126.28571426868439 A4,4 90 0 1 -115,-122.28571426868439 L-119,-122.28571426868439 L-179,-122.28571426868439 L-180,-122.28571426868439 L-180,-120.28571426868439 L-188,-120.28571426868439 L-188,-122.28571426868439 L-189,-122.28571426868439 L-193,-122.28571426868439 A5,5 90 0 0 -198,-117.28571426868439 L-198,-113.28571426868439 L-198,-109.28571426868439 L-198,-67.28571426868439 L-198,-63.28571426868439 A5,5 90 0 0 -193,-58.28571426868439 L-189,-58.28571426868439 L-189,-56.28571426868439 L-179,-56.28571426868439 L-179,-58.28571426868439 L-171,-58.28571426868439 L-171,-52.28571426868439 L-171,-46.28571426868439 L-171,-42.28571426868439 A4,4 90 0 1 -175,-38.28571426868439 L-179,-38.28571426868439 L-188,-38.28571426868439 L-189,-38.28571426868439 L-189,-36.28571426868439 L-197,-36.28571426868439 L-197,-38.28571426868439 L-198,-38.28571426868439 L-202,-38.28571426868439 A4,4 90 0 1 -206,-42.28571426868439 L-206,-46.28571426868439 z" style="fill:#ff8b2d;fill-opacity:1;stroke:#e86b0e;stroke-width:1;stroke-linecap:round;stroke-opacity:1"/><text id="svg_77" x="-206.5" y="-142.786" style="font-size:10px;fill:#282828;font-family:sans-serif;text-anchor:start"><tspan id="svg_78" x="-183.5" y="-127.786">nota</tspan></text><text id="svg_79" x="-206.5" y="-142.786" style="font-size:6.666666666666667px;fill:#282828;font-family:sans-serif;text-anchor:end"><tspan id="svg_80" x="-122.5" y="-130.786">valor</tspan></text></g></g></g><g id="svg_88"><g id="svg_89" transform="translate(573,143) scale(1)"><path id="svg_90" d="m-198,-134.2857142686844 L-198,-138.2857142686844 A4,4 90 0 1 -194,-142.2857142686844 L-190,-142.2857142686844 L-180,-142.2857142686844 L-150,-142.2857142686844 L-146,-142.2857142686844 A4,4 90 0 1 -142,-138.2857142686844 L-142,-134.2857142686844 L-146,-134.2857142686844 L-146,-137.2857142686844 L-150,-137.2857142686844 L-150,-127.28571426868439 L-146,-127.28571426868439 L-146,-130.2857142686844 L-142,-130.2857142686844 L-142,-113.28571426868439 L-146,-113.28571426868439 L-146,-116.28571426868439 L-150,-116.28571426868439 L-150,-106.28571426868439 L-146,-106.28571426868439 L-146,-109.28571426868439 L-142,-109.28571426868439 L-142,-105.28571426868439 A4,4 90 0 1 -146,-101.28571426868439 L-150,-101.28571426868439 L-180,-101.28571426868439 L-190,-101.28571426868439 L-194,-101.28571426868439 A4,4 90 0 1 -198,-105.28571426868439 L-198,-109.28571426868439 L-198,-130.2857142686844 L-198,-131.2857142686844 L-204,-131.2857142686844 L-204,-128.2857142686844 L-206,-128.2857142686844 L-206,-136.2857142686844 L-204,-136.2857142686844 L-204,-133.2857142686844 L-198,-133.2857142686844 L-198,-134.2857142686844 z" style="fill:#ff5293;fill-opacity:1;stroke:#ff2c76;stroke-width:1;stroke-linecap:round;stroke-opacity:1"/><text id="svg_91" x="-206.5" y="-142.786" style="font-size:9px;fill:#282828;font-family:sans-serif;text-anchor:end"><tspan id="svg_92" x="-153.5" y="-119.786">➗</tspan></text></g></g><g id="svg_97"><g id="svg_98" transform="translate(494,164) scale(1)"><path id="svg_99" d="m-206,-134.2857142686844 L-206,-138.2857142686844 A4,4 90 0 1 -202,-142.2857142686844 L-198,-142.2857142686844 L-198,-140.2857142686844 L-188,-140.2857142686844 L-188,-142.2857142686844 L-168,-142.2857142686844 L-164,-142.2857142686844 A4,4 90 0 1 -160,-138.2857142686844 L-160,-134.2857142686844 L-160,-130.2857142686844 L-160,-126.28571426868439 A4,4 90 0 1 -164,-122.28571426868439 L-168,-122.28571426868439 L-188,-122.28571426868439 L-189,-122.28571426868439 L-189,-120.28571426868439 L-197,-120.28571426868439 L-197,-122.28571426868439 L-198,-122.28571426868439 L-202,-122.28571426868439 A4,4 90 0 1 -206,-126.28571426868439 L-206,-130.2857142686844 z" style="fill:#b0b0b0;fill-opacity:1;stroke:#a0a0a0;stroke-width:1;stroke-linecap:round;stroke-opacity:1"/><text id="svg_100" x="-206.5" y="-142.786" style="font-size:10px;fill:#282828;font-family:sans-serif;text-anchor:end"><tspan id="svg_101" x="-171.5" y="-128.786">↓</tspan></text></g></g><g id="svg_102" transform="translate(46)"><g id="svg_103" transform="translate(494,185)"><path id="svg_104" d="m -252,-134.28571 v -4 c 0,-2.20914 1.79086,-4 4,-4 h 4 v 2 h 10 v -2 h 76 4 c 2.20914,0 4,1.79086 4,4 v 4 h -4 v -3 h -4 v 10 h 4 v -3 h 4 v 17 h -4 v -3 h -4 v 10 h 4 v -3 h 4 v 4 c 0,2.20914 -1.79086,4 -4,4 h -4 -76 -1 v 1.999996 h -8 v -1.999996 h -1 -4 c -2.20914,0 -4,-1.79086 -4,-4 v -4 -21 z" style="fill:#77c428;fill-opacity:1;stroke:#57ad02;stroke-width:1;stroke-linecap:round;stroke-opacity:1"/><text id="svg_105" x="-206.5" y="-142.786" style="font-size:10px;font-family:sans-serif;text-anchor:end;fill:#282828"><tspan id="svg_106" x="-161.5" y="-118.786">determinar o tom</tspan></text><text id="svg_107" x="-206.5" y="-142.786" style="font-size:6.66666651px;font-family:sans-serif;text-anchor:end;fill:#282828"><tspan id="svg_108" x="-161.5" y="-130.786">nome</tspan></text><text id="svg_109" x="-206.5" y="-142.786" style="font-size:6.66666651px;font-family:sans-serif;text-anchor:end;fill:#282828"><tspan id="svg_110" x="-161.5" y="-109.786">oitava</tspan></text></g></g><g id="svg_111" transform="translate(46)"><g id="svg_112" transform="translate(543,206)"><path id="svg_113" d="m -198,-142.28571 h 60 v 20 h -60 v -8 -1 h -6 v 3 h -2 v -8 h 2 v 3 h 6 v -1 z" style="fill:#ff5293;fill-opacity:1;stroke:#ff2c76;stroke-width:1;stroke-linecap:round;stroke-opacity:1"/><text id="svg_114" x="-206.5" y="-142.786" style="font-size:10px;font-family:sans-serif;text-anchor:start;fill:#282828"><tspan id="svg_115" x="-186.5" y="-126.786">4</tspan></text></g></g><g id="svg_116"><g id="svg_117"><g id="svg_118" transform="translate(220,333) scale(1)"><path id="svg_119" d="m-211,-135 L-211,-139 A4,4 90 0 1 -207,-143 L-203,-143 L-203,-141 L-193,-141 L-193,-143 L-184,-143 L-124,-143 L-120,-143 A4,4 90 0 1 -116,-139 L-116,-135 L-120,-135 L-120,-138 L-124,-138 L-124,-128 L-120,-128 L-120,-131 L-116,-131 L-116,-127 A4,4 90 0 1 -120,-123 L-124,-123 L-184,-123 L-185,-123 L-185,-121 L-193,-121 L-193,-123 L-194,-123 L-198,-123 A5,5 90 0 0 -203,-118 L-203,-114 L-203,-110 L-203,-68 L-203,-64 A5,5 90 0 0 -198,-59 L-194,-59 L-194,-57 L-184,-57 L-184,-59 L-176,-59 L-176,-53 L-176,-47 L-176,-43 A4,4 90 0 1 -180,-39 L-184,-39 L-193,-39 L-194,-39 L-194,-37 L-202,-37 L-202,-39 L-203,-39 L-207,-39 A4,4 90 0 1 -211,-43 L-211,-47 z" style="fill:#ff8b2d;fill-opacity:1;stroke:#e86b0e;stroke-width:1;stroke-linecap:round;stroke-opacity:1"/><text id="svg_120" x="-211.5" y="-143.5" style="font-size:10px;fill:#282828;font-family:sans-serif;text-anchor:start"><tspan id="svg_121" x="-188.5" y="-128.5">nota</tspan></text><text id="svg_122" x="-211.5" y="-143.5" style="font-size:6.666666666666667px;fill:#282828;font-family:sans-serif;text-anchor:end"><tspan id="svg_123" x="-127.5" y="-131.5">valor</tspan></text></g></g></g><g id="svg_131"><g id="svg_132" transform="translate(308,333) scale(1)"><path id="svg_133" d="m-203,-135 L-203,-139 A4,4 90 0 1 -199,-143 L-195,-143 L-185,-143 L-155,-143 L-151,-143 A4,4 90 0 1 -147,-139 L-147,-135 L-151,-135 L-151,-138 L-155,-138 L-155,-128 L-151,-128 L-151,-131 L-147,-131 L-147,-114 L-151,-114 L-151,-117 L-155,-117 L-155,-107 L-151,-107 L-151,-110 L-147,-110 L-147,-106 A4,4 90 0 1 -151,-102 L-155,-102 L-185,-102 L-195,-102 L-199,-102 A4,4 90 0 1 -203,-106 L-203,-110 L-203,-131 L-203,-132 L-209,-132 L-209,-129 L-211,-129 L-211,-137 L-209,-137 L-209,-134 L-203,-134 L-203,-135 z" style="fill:#ff5293;fill-opacity:1;stroke:#ff2c76;stroke-width:1;stroke-linecap:round;stroke-opacity:1"/><text id="svg_134" x="-211.5" y="-143.5" style="font-size:9px;fill:#282828;font-family:sans-serif;text-anchor:end"><tspan id="svg_135" x="-158.5" y="-120.5">➗</tspan></text></g></g><g id="svg_140"><g id="svg_141" transform="translate(229,354) scale(1)"><path id="svg_142" d="m-211,-135 L-211,-139 A4,4 90 0 1 -207,-143 L-203,-143 L-203,-141 L-193,-141 L-193,-143 L-173,-143 L-169,-143 A4,4 90 0 1 -165,-139 L-165,-135 L-165,-131 L-165,-127 A4,4 90 0 1 -169,-123 L-173,-123 L-193,-123 L-194,-123 L-194,-121 L-202,-121 L-202,-123 L-203,-123 L-207,-123 A4,4 90 0 1 -211,-127 L-211,-131 z" style="fill:#b0b0b0;fill-opacity:1;stroke:#a0a0a0;stroke-width:1;stroke-linecap:round;stroke-opacity:1"/><text id="svg_143" x="-211.5" y="-143.5" style="font-size:10px;fill:#282828;font-family:sans-serif;text-anchor:end"><tspan id="svg_144" x="-176.5" y="-129.5">↓</tspan></text></g></g><g id="svg_145" transform="translate(46)"><g id="svg_146" transform="translate(229,375)"><path id="svg_147" d="m -257,-135 v -4 c 0,-2.20914 1.79086,-4 4,-4 h 4 v 2 h 10 v -2 h 76 4 c 2.20914,0 4,1.79086 4,4 v 4 h -4 v -3 h -4 v 10 h 4 v -3 h 4 v 17 h -4 v -3 h -4 v 10 h 4 v -3 h 4 v 4 c 0,2.20914 -1.79086,4 -4,4 h -4 -76 -1 v 2 h -8 v -2 h -1 -4 c -2.20914,0 -4.98796,-2.02409 -4,-4 v -4 -21 z" style="fill:#77c428;fill-opacity:1;stroke:#57ad02;stroke-width:1;stroke-linecap:round;stroke-opacity:1"/><text id="svg_148" x="-211.5" y="-143.5" style="font-size:10px;font-family:sans-serif;text-anchor:end;fill:#282828"><tspan id="svg_149" x="-166.5" y="-119.5">determinar o tom</tspan></text><text id="svg_150" x="-211.5" y="-143.5" style="font-size:6.66666651px;font-family:sans-serif;text-anchor:end;fill:#282828"><tspan id="svg_151" x="-166.5" y="-131.5">nome</tspan></text><text id="svg_152" x="-211.5" y="-143.5" style="font-size:6.66666651px;font-family:sans-serif;text-anchor:end;fill:#282828"><tspan id="svg_153" x="-166.5" y="-110.5">oitava</tspan></text></g></g><g id="svg_154" transform="translate(46)"><g id="svg_155" transform="translate(278,375)"><path id="svg_156" d="m -203,-143 h 60 v 20 h -60 v -8 -1 h -6 v 3 h -2 v -8 h 2 v 3 h 6 v -1 z" style="fill:#77c428;fill-opacity:1;stroke:#57ad02;stroke-width:1;stroke-linecap:round;stroke-opacity:1"/><text id="svg_157" x="-211.5" y="-143.5" style="font-size:10px;font-family:sans-serif;text-anchor:start;fill:#282828"><tspan id="svg_158" x="-191.5" y="-127.5">sol</tspan></text></g></g><g id="svg_159" transform="translate(46)"><g id="svg_160" transform="translate(278,396)"><path id="svg_161" d="m -203,-143 h 60 v 20 h -60 v -8 -1 h -6 v 3 h -2 v -8 h 2 v 3 h 6 v -1 z" style="fill:#ff5293;fill-opacity:1;stroke:#ff2c76;stroke-width:1;stroke-linecap:round;stroke-opacity:1"/><text id="svg_162" x="-211.5" y="-143.5" style="font-size:10px;font-family:sans-serif;text-anchor:start;fill:#282828"><tspan id="svg_163" x="-191.5" y="-127.5">4</tspan></text></g></g><g id="svg_164"><g id="svg_165" transform="translate(212,148) scale(1)"><path id="svg_166" d="m-211,-139.2857141494751 L-211,-143.2857141494751 A4,4 90 0 1 -207,-147.2857141494751 L-203,-147.2857141494751 L-203,-145.2857141494751 L-193,-145.2857141494751 L-193,-147.2857141494751 L-184,-147.2857141494751 L-164,-147.2857141494751 L-160,-147.2857141494751 A4,4 90 0 1 -156,-143.2857141494751 L-156,-139.2857141494751 L-160,-139.2857141494751 L-160,-142.2857141494751 L-164,-142.2857141494751 L-164,-132.2857141494751 L-160,-132.2857141494751 L-160,-135.2857141494751 L-156,-135.2857141494751 L-156,-131.2857141494751 A4,4 90 0 1 -160,-127.2857141494751 L-164,-127.2857141494751 L-184,-127.2857141494751 L-185,-127.2857141494751 L-185,-125.2857141494751 L-193,-125.2857141494751 L-193,-127.2857141494751 L-194,-127.2857141494751 L-198,-127.2857141494751 A5,5 90 0 0 -203,-122.2857141494751 L-203,-118.2857141494751 L-203,-114.2857141494751 L-203,-30.285714149475098 L-203,-26.285714149475098 A5,5 90 0 0 -198,-21.285714149475098 L-194,-21.285714149475098 L-194,-19.285714149475098 L-184,-19.285714149475098 L-184,-21.285714149475098 L-176,-21.285714149475098 L-176,-15.285714149475098 L-176,-9.285714149475098 L-176,-5.285714149475098 A4,4 90 0 1 -180,-1.2857141494750977 L-184,-1.2857141494750977 L-193,-1.2857141494750977 L-194,-1.2857141494750977 L-194,0.7142858505249023 L-202,0.7142858505249023 L-202,-1.2857141494750977 L-203,-1.2857141494750977 L-207,-1.2857141494750977 A4,4 90 0 1 -211,-5.285714149475098 L-211,-9.285714149475098 z" style="fill:#ff8b2d;fill-opacity:1;stroke:#e86b0e;stroke-width:1;stroke-linecap:round;stroke-opacity:1"/><text id="svg_167" x="-211.5" y="-147.786" style="font-size:10px;fill:#282828;font-family:sans-serif;text-anchor:start"><tspan id="svg_168" x="-203.5" y="-132.786">ponto</tspan></text></g></g><g id="svg_171"><g id="svg_172" transform="translate(260,148) scale(1)"><path id="svg_173" d="m-203,-147.2857141494751 L-143,-147.2857141494751 L-143,-127.2857141494751 L-203,-127.2857141494751 L-203,-135.2857141494751 L-203,-136.2857141494751 L-209,-136.2857141494751 L-209,-133.2857141494751 L-211,-133.2857141494751 L-211,-141.2857141494751 L-209,-141.2857141494751 L-209,-138.2857141494751 L-203,-138.2857141494751 L-203,-139.2857141494751 z" style="fill:#ff5293;fill-opacity:1;stroke:#ff2c76;stroke-width:1;stroke-linecap:round;stroke-opacity:1"/><text id="svg_174" x="-211.5" y="-147.786" style="font-size:10px;fill:#282828;font-family:sans-serif;text-anchor:start"><tspan id="svg_175" x="-191.5" y="-131.786">1</tspan></text></g></g><g id="svg_176"><g id="svg_177" transform="translate(211,312) scale(1)"><path id="svg_178" d="m-211,-135 L-211,-139 A4,4 90 0 1 -207,-143 L-203,-143 L-203,-141 L-193,-141 L-193,-143 L-184,-143 L-164,-143 L-160,-143 A4,4 90 0 1 -156,-139 L-156,-135 L-160,-135 L-160,-138 L-164,-138 L-164,-128 L-160,-128 L-160,-131 L-156,-131 L-156,-127 A4,4 90 0 1 -160,-123 L-164,-123 L-184,-123 L-185,-123 L-185,-121 L-193,-121 L-193,-123 L-194,-123 L-198,-123 A5,5 90 0 0 -203,-118 L-203,-114 L-203,-110 L-203,-26 L-203,-22 A5,5 90 0 0 -198,-17 L-194,-17 L-194,-15 L-184,-15 L-184,-17 L-176,-17 L-176,-11 L-176,-5 L-176,-1 A4,4 90 0 1 -180,3 L-184,3 L-193,3 L-194,3 L-194,5 L-202,5 L-202,3 L-203,3 L-207,3 A4,4 90 0 1 -211,-1 L-211,-5 z" style="fill:#ff8b2d;fill-opacity:1;stroke:#e86b0e;stroke-width:1;stroke-linecap:round;stroke-opacity:1"/><text id="svg_179" x="-211.5" y="-143.5" style="font-size:10px;fill:#282828;font-family:sans-serif;text-anchor:start"><tspan id="svg_180" x="-203.5" y="-128.5">ponto</tspan></text></g></g><g id="svg_183"><g id="svg_184" transform="translate(259,312) scale(1)"><path id="svg_185" d="m-203,-143 L-143,-143 L-143,-123 L-203,-123 L-203,-131 L-203,-132 L-209,-132 L-209,-129 L-211,-129 L-211,-137 L-209,-137 L-209,-134 L-203,-134 L-203,-135 z" style="fill:#ff5293;fill-opacity:1;stroke:#ff2c76;stroke-width:1;stroke-linecap:round;stroke-opacity:1"/><text id="svg_186" x="-211.5" y="-143.5" style="font-size:10px;fill:#282828;font-family:sans-serif;text-anchor:start"><tspan id="svg_187" x="-191.5" y="-127.5">1</tspan></text></g></g><g id="svg_188"><g id="svg_189" transform="translate(365,354) scale(1)"><path id="svg_190" d="m-203,-143 L-143,-143 L-143,-123 L-203,-123 L-203,-131 L-203,-132 L-209,-132 L-209,-129 L-211,-129 L-211,-137 L-209,-137 L-209,-134 L-203,-134 L-203,-135 z" style="fill:#ff5293;fill-opacity:1;stroke:#ff2c76;stroke-width:1;stroke-linecap:round;stroke-opacity:1"/><text id="svg_191" x="-211.5" y="-143.5" style="font-size:10px;fill:#282828;font-family:sans-serif;text-anchor:start"><tspan id="svg_192" x="-191.5" y="-127.5">8</tspan></text></g></g><g id="svg_193"><g id="svg_194" transform="translate(630,143) scale(1)"><path id="svg_195" d="m-198,-142.2857142686844 L-138,-142.2857142686844 L-138,-122.28571426868439 L-198,-122.28571426868439 L-198,-130.2857142686844 L-198,-131.2857142686844 L-204,-131.2857142686844 L-204,-128.2857142686844 L-206,-128.2857142686844 L-206,-136.2857142686844 L-204,-136.2857142686844 L-204,-133.2857142686844 L-198,-133.2857142686844 L-198,-134.2857142686844 z" style="fill:#ff5293;fill-opacity:1;stroke:#ff2c76;stroke-width:1;stroke-linecap:round;stroke-opacity:1"/><text id="svg_196" x="-206.5" y="-142.786" style="font-size:10px;fill:#282828;font-family:sans-serif;text-anchor:start"><tspan id="svg_197" x="-186.5" y="-126.786">3</tspan></text></g></g><g id="svg_198"><g id="svg_199" transform="translate(630,164) scale(1)"><path id="svg_200" d="m-198,-142.2857142686844 L-138,-142.2857142686844 L-138,-122.28571426868439 L-198,-122.28571426868439 L-198,-130.2857142686844 L-198,-131.2857142686844 L-204,-131.2857142686844 L-204,-128.2857142686844 L-206,-128.2857142686844 L-206,-136.2857142686844 L-204,-136.2857142686844 L-204,-133.2857142686844 L-198,-133.2857142686844 L-198,-134.2857142686844 z" style="fill:#ff5293;fill-opacity:1;stroke:#ff2c76;stroke-width:1;stroke-linecap:round;stroke-opacity:1"/><text id="svg_201" x="-206.5" y="-142.786" style="font-size:10px;fill:#282828;font-family:sans-serif;text-anchor:start"><tspan id="svg_202" x="-186.5" y="-126.786">8</tspan></text></g></g><g id="svg_203"><g id="svg_204" transform="translate(260,488) scale(1)"><path id="svg_205" d="m-203,-143 L-143,-143 L-143,-123 L-203,-123 L-203,-131 L-203,-132 L-209,-132 L-209,-129 L-211,-129 L-211,-137 L-209,-137 L-209,-134 L-203,-134 L-203,-135 z" style="fill:#ff5293;fill-opacity:1;stroke:#ff2c76;stroke-width:1;stroke-linecap:round;stroke-opacity:1"/><text id="svg_206" x="-211.5" y="-143.5" style="font-size:10px;fill:#282828;font-family:sans-serif;text-anchor:start"><tspan id="svg_207" x="-191.5" y="-127.5">2</tspan></text></g></g><g id="svg_208" transform="translate(46)"><g id="svg_209" transform="translate(543,185)"><path id="svg_210" d="m -198,-142.28571 h 60 v 20 h -60 v -8 -1 h -6 v 3 h -2 v -8 h 2 v 3 h 6 v -1 z" style="fill:#77c428;fill-opacity:1;stroke:#57ad02;stroke-width:1;stroke-linecap:round;stroke-opacity:1"/><text id="svg_211" x="-206.5" y="-142.786" style="font-size:10px;font-family:sans-serif;text-anchor:start;fill:#282828"><tspan id="svg_212" x="-186.5" y="-126.786">sol</tspan></text></g></g><g id="svg_213"><g id="svg_214" transform="translate(212,488) scale(1)"><path id="svg_215" d="m-211,-135 L-211,-139 A4,4 90 0 1 -207,-143 L-203,-143 L-203,-141 L-193,-141 L-193,-143 L-184,-143 L-164,-143 L-160,-143 A4,4 90 0 1 -156,-139 L-156,-135 L-160,-135 L-160,-138 L-164,-138 L-164,-128 L-160,-128 L-160,-131 L-156,-131 L-156,-127 A4,4 90 0 1 -160,-123 L-164,-123 L-184,-123 L-185,-123 L-185,-121 L-193,-121 L-193,-123 L-194,-123 L-198,-123 A5,5 90 0 0 -203,-118 L-203,-114 L-203,-110 L-203,-26 L-203,-22 A5,5 90 0 0 -198,-17 L-194,-17 L-194,-15 L-184,-15 L-184,-17 L-176,-17 L-176,-11 L-176,-5 L-176,-1 A4,4 90 0 1 -180,3 L-184,3 L-193,3 L-194,3 L-194,5 L-202,5 L-202,3 L-203,3 L-207,3 A4,4 90 0 1 -211,-1 L-211,-5 z" style="fill:#ff8b2d;fill-opacity:1;stroke:#e86b0e;stroke-width:1;stroke-linecap:round;stroke-opacity:1"/><text id="svg_216" x="-211.5" y="-143.5" style="font-size:10px;fill:#282828;font-family:sans-serif;text-anchor:start"><tspan id="svg_217" x="-203.5" y="-128.5">ponto</tspan></text></g></g><g id="svg_220"><g id="svg_221"><g id="svg_222" transform="translate(221,509) scale(1)"><path id="svg_223" d="m-211,-135 L-211,-139 A4,4 90 0 1 -207,-143 L-203,-143 L-203,-141 L-193,-141 L-193,-143 L-184,-143 L-124,-143 L-120,-143 A4,4 90 0 1 -116,-139 L-116,-135 L-120,-135 L-120,-138 L-124,-138 L-124,-128 L-120,-128 L-120,-131 L-116,-131 L-116,-127 A4,4 90 0 1 -120,-123 L-124,-123 L-184,-123 L-185,-123 L-185,-121 L-193,-121 L-193,-123 L-194,-123 L-198,-123 A5,5 90 0 0 -203,-118 L-203,-114 L-203,-110 L-203,-68 L-203,-64 A5,5 90 0 0 -198,-59 L-194,-59 L-194,-57 L-184,-57 L-184,-59 L-176,-59 L-176,-53 L-176,-47 L-176,-43 A4,4 90 0 1 -180,-39 L-184,-39 L-193,-39 L-194,-39 L-194,-37 L-202,-37 L-202,-39 L-203,-39 L-207,-39 A4,4 90 0 1 -211,-43 L-211,-47 z" style="fill:#ff8b2d;fill-opacity:1;stroke:#e86b0e;stroke-width:1;stroke-linecap:round;stroke-opacity:1"/><text id="svg_224" x="-211.5" y="-143.5" style="font-size:10px;fill:#282828;font-family:sans-serif;text-anchor:start"><tspan id="svg_225" x="-188.5" y="-128.5">nota</tspan></text><text id="svg_226" x="-211.5" y="-143.5" style="font-size:6.666666666666667px;fill:#282828;font-family:sans-serif;text-anchor:end"><tspan id="svg_227" x="-127.5" y="-131.5">valor</tspan></text></g></g></g><g id="svg_235"><g id="svg_236" transform="translate(309,509) scale(1)"><path id="svg_237" d="m-203,-135 L-203,-139 A4,4 90 0 1 -199,-143 L-195,-143 L-185,-143 L-155,-143 L-151,-143 A4,4 90 0 1 -147,-139 L-147,-135 L-151,-135 L-151,-138 L-155,-138 L-155,-128 L-151,-128 L-151,-131 L-147,-131 L-147,-114 L-151,-114 L-151,-117 L-155,-117 L-155,-107 L-151,-107 L-151,-110 L-147,-110 L-147,-106 A4,4 90 0 1 -151,-102 L-155,-102 L-185,-102 L-195,-102 L-199,-102 A4,4 90 0 1 -203,-106 L-203,-110 L-203,-131 L-203,-132 L-209,-132 L-209,-129 L-211,-129 L-211,-137 L-209,-137 L-209,-134 L-203,-134 L-203,-135 z" style="fill:#ff5293;fill-opacity:1;stroke:#ff2c76;stroke-width:1;stroke-linecap:round;stroke-opacity:1"/><text id="svg_238" x="-211.5" y="-143.5" style="font-size:9px;fill:#282828;font-family:sans-serif;text-anchor:end"><tspan id="svg_239" x="-158.5" y="-120.5">➗</tspan></text></g></g><g id="svg_244"><g id="svg_245" transform="translate(366,509) scale(1)"><path id="svg_246" d="m-203,-143 L-143,-143 L-143,-123 L-203,-123 L-203,-131 L-203,-132 L-209,-132 L-209,-129 L-211,-129 L-211,-137 L-209,-137 L-209,-134 L-203,-134 L-203,-135 z" style="fill:#ff5293;fill-opacity:1;stroke:#ff2c76;stroke-width:1;stroke-linecap:round;stroke-opacity:1"/><text id="svg_247" x="-211.5" y="-143.5" style="font-size:10px;fill:#282828;font-family:sans-serif;text-anchor:start"><tspan id="svg_248" x="-191.5" y="-127.5">1</tspan></text></g></g><g id="svg_249"><g id="svg_250" transform="translate(366,530) scale(1)"><path id="svg_251" d="m-203,-143 L-143,-143 L-143,-123 L-203,-123 L-203,-131 L-203,-132 L-209,-132 L-209,-129 L-211,-129 L-211,-137 L-209,-137 L-209,-134 L-203,-134 L-203,-135 z" style="fill:#ff5293;fill-opacity:1;stroke:#ff2c76;stroke-width:1;stroke-linecap:round;stroke-opacity:1"/><text id="svg_252" x="-211.5" y="-143.5" style="font-size:10px;fill:#282828;font-family:sans-serif;text-anchor:start"><tspan id="svg_253" x="-191.5" y="-127.5">4</tspan></text></g></g><g id="svg_254"><g id="svg_255" transform="translate(230,530) scale(1)"><path id="svg_256" d="m-211,-135 L-211,-139 A4,4 90 0 1 -207,-143 L-203,-143 L-203,-141 L-193,-141 L-193,-143 L-173,-143 L-169,-143 A4,4 90 0 1 -165,-139 L-165,-135 L-165,-131 L-165,-127 A4,4 90 0 1 -169,-123 L-173,-123 L-193,-123 L-194,-123 L-194,-121 L-202,-121 L-202,-123 L-203,-123 L-207,-123 A4,4 90 0 1 -211,-127 L-211,-131 z" style="fill:#b0b0b0;fill-opacity:1;stroke:#a0a0a0;stroke-width:1;stroke-linecap:round;stroke-opacity:1"/><text id="svg_257" x="-211.5" y="-143.5" style="font-size:10px;fill:#282828;font-family:sans-serif;text-anchor:end"><tspan id="svg_258" x="-176.5" y="-129.5">↓</tspan></text></g></g><g id="svg_259" transform="translate(46)"><g id="svg_260" transform="translate(230,551)"><path id="svg_261" d="m -257,-135 v -4 c 0,-2.20914 1.79086,-4 4,-4 h 4 v 2 h 10 v -2 h 76 4 c 2.20914,0 4,1.79086 4,4 v 4 h -4 v -3 h -4 v 10 h 4 v -3 h 4 v 17 h -4 v -3 h -4 v 10 h 4 v -3 h 4 v 4 c 0,2.20914 -1.79086,4 -4,4 h -4 -76 -1 v 2 h -8 v -2 h -1 -4 c -2.20914,0 -4.98796,-2.02409 -4,-4 v -4 -21 z" style="fill:#77c428;fill-opacity:1;stroke:#57ad02;stroke-width:1;stroke-linecap:round;stroke-opacity:1"/><text id="svg_262" x="-211.5" y="-143.5" style="font-size:10px;font-family:sans-serif;text-anchor:end;fill:#282828"><tspan id="svg_263" x="-166.5" y="-119.5">determinar o tom</tspan></text><text id="svg_264" x="-211.5" y="-143.5" style="font-size:6.66666651px;font-family:sans-serif;text-anchor:end;fill:#282828"><tspan id="svg_265" x="-166.5" y="-131.5">nome</tspan></text><text id="svg_266" x="-211.5" y="-143.5" style="font-size:6.66666651px;font-family:sans-serif;text-anchor:end;fill:#282828"><tspan id="svg_267" x="-166.5" y="-110.5">oitava</tspan></text></g></g><g id="svg_268" transform="translate(46)"><g id="svg_269" transform="translate(279,551)"><path id="svg_270" d="m -203,-143 h 60 v 20 h -60 v -8 -1 h -6 v 3 h -2 v -8 h 2 v 3 h 6 v -1 z" style="fill:#77c428;fill-opacity:1;stroke:#57ad02;stroke-width:1;stroke-linecap:round;stroke-opacity:1"/><text id="svg_271" x="-211.5" y="-143.5" style="font-size:10px;font-family:sans-serif;text-anchor:start;fill:#282828"><tspan id="svg_272" x="-191.5" y="-127.5">sol</tspan></text></g></g><g id="svg_273" transform="translate(46)"><g id="svg_274" transform="translate(279,572)"><path id="svg_275" d="m -203,-143 h 60 v 20 h -60 v -8 -1 h -6 v 3 h -2 v -8 h 2 v 3 h 6 v -1 z" style="fill:#ff5293;fill-opacity:1;stroke:#ff2c76;stroke-width:1;stroke-linecap:round;stroke-opacity:1"/><text id="svg_276" x="-211.5" y="-143.5" style="font-size:10px;font-family:sans-serif;text-anchor:start;fill:#282828"><tspan id="svg_277" x="-191.5" y="-127.5">4</tspan></text></g></g><g id="svg_278"><g id="svg_279"><g id="svg_280" transform="translate(489,307) scale(1)"><path id="svg_281" d="m-209.57142865657806,-129.2857141494751 L-209.57142865657806,-133.2857141494751 A4,4 90 0 1 -205.57142865657806,-137.2857141494751 L-201.57142865657806,-137.2857141494751 L-201.57142865657806,-135.2857141494751 L-191.57142865657806,-135.2857141494751 L-191.57142865657806,-137.2857141494751 L-182.57142865657806,-137.2857141494751 L-122.57142865657806,-137.2857141494751 L-118.57142865657806,-137.2857141494751 A4,4 90 0 1 -114.57142865657806,-133.2857141494751 L-114.57142865657806,-129.2857141494751 L-118.57142865657806,-129.2857141494751 L-118.57142865657806,-132.2857141494751 L-122.57142865657806,-132.2857141494751 L-122.57142865657806,-122.2857141494751 L-118.57142865657806,-122.2857141494751 L-118.57142865657806,-125.2857141494751 L-114.57142865657806,-125.2857141494751 L-114.57142865657806,-121.2857141494751 A4,4 90 0 1 -118.57142865657806,-117.2857141494751 L-122.57142865657806,-117.2857141494751 L-182.57142865657806,-117.2857141494751 L-183.57142865657806,-117.2857141494751 L-183.57142865657806,-115.2857141494751 L-191.57142865657806,-115.2857141494751 L-191.57142865657806,-117.2857141494751 L-192.57142865657806,-117.2857141494751 L-196.57142865657806,-117.2857141494751 A5,5 90 0 0 -201.57142865657806,-112.2857141494751 L-201.57142865657806,-108.2857141494751 L-201.57142865657806,-104.2857141494751 L-201.57142865657806,-62.2857141494751 L-201.57142865657806,-58.2857141494751 A5,5 90 0 0 -196.57142865657806,-53.2857141494751 L-192.57142865657806,-53.2857141494751 L-192.57142865657806,-51.2857141494751 L-182.57142865657806,-51.2857141494751 L-182.57142865657806,-53.2857141494751 L-174.57142865657806,-53.2857141494751 L-174.57142865657806,-47.2857141494751 L-174.57142865657806,-41.2857141494751 L-174.57142865657806,-37.2857141494751 A4,4 90 0 1 -178.57142865657806,-33.2857141494751 L-182.57142865657806,-33.2857141494751 L-191.57142865657806,-33.2857141494751 L-192.57142865657806,-33.2857141494751 L-192.57142865657806,-31.285714149475098 L-200.57142865657806,-31.285714149475098 L-200.57142865657806,-33.2857141494751 L-201.57142865657806,-33.2857141494751 L-205.57142865657806,-33.2857141494751 A4,4 90 0 1 -209.57142865657806,-37.2857141494751 L-209.57142865657806,-41.2857141494751 z" style="fill:#ff8b2d;fill-opacity:1;stroke:#e86b0e;stroke-width:1;stroke-linecap:round;stroke-opacity:1"/><text id="svg_282" x="-210.071" y="-137.786" style="font-size:10px;fill:#282828;font-family:sans-serif;text-anchor:start"><tspan id="svg_283" x="-187.071" y="-122.786">nota</tspan></text><text id="svg_284" x="-210.071" y="-137.786" style="font-size:6.666666666666667px;fill:#282828;font-family:sans-serif;text-anchor:end"><tspan id="svg_285" x="-126.071" y="-125.786">valor</tspan></text></g></g></g><g id="svg_293"><g id="svg_294" transform="translate(577,307) scale(1)"><path id="svg_295" d="m-201.57142865657806,-129.2857141494751 L-201.57142865657806,-133.2857141494751 A4,4 90 0 1 -197.57142865657806,-137.2857141494751 L-193.57142865657806,-137.2857141494751 L-183.57142865657806,-137.2857141494751 L-153.57142865657806,-137.2857141494751 L-149.57142865657806,-137.2857141494751 A4,4 90 0 1 -145.57142865657806,-133.2857141494751 L-145.57142865657806,-129.2857141494751 L-149.57142865657806,-129.2857141494751 L-149.57142865657806,-132.2857141494751 L-153.57142865657806,-132.2857141494751 L-153.57142865657806,-122.2857141494751 L-149.57142865657806,-122.2857141494751 L-149.57142865657806,-125.2857141494751 L-145.57142865657806,-125.2857141494751 L-145.57142865657806,-108.2857141494751 L-149.57142865657806,-108.2857141494751 L-149.57142865657806,-111.2857141494751 L-153.57142865657806,-111.2857141494751 L-153.57142865657806,-101.2857141494751 L-149.57142865657806,-101.2857141494751 L-149.57142865657806,-104.2857141494751 L-145.57142865657806,-104.2857141494751 L-145.57142865657806,-100.2857141494751 A4,4 90 0 1 -149.57142865657806,-96.2857141494751 L-153.57142865657806,-96.2857141494751 L-183.57142865657806,-96.2857141494751 L-193.57142865657806,-96.2857141494751 L-197.57142865657806,-96.2857141494751 A4,4 90 0 1 -201.57142865657806,-100.2857141494751 L-201.57142865657806,-104.2857141494751 L-201.57142865657806,-125.2857141494751 L-201.57142865657806,-126.2857141494751 L-207.57142865657806,-126.2857141494751 L-207.57142865657806,-123.2857141494751 L-209.57142865657806,-123.2857141494751 L-209.57142865657806,-131.2857141494751 L-207.57142865657806,-131.2857141494751 L-207.57142865657806,-128.2857141494751 L-201.57142865657806,-128.2857141494751 L-201.57142865657806,-129.2857141494751 z" style="fill:#ff5293;fill-opacity:1;stroke:#ff2c76;stroke-width:1;stroke-linecap:round;stroke-opacity:1"/><text id="svg_296" x="-210.071" y="-137.786" style="font-size:9px;fill:#282828;font-family:sans-serif;text-anchor:end"><tspan id="svg_297" x="-157.071" y="-114.786">➗</tspan></text></g></g><g id="svg_302"><g id="svg_303" transform="translate(498,328) scale(1)"><path id="svg_304" d="m-209.57142865657806,-129.2857141494751 L-209.57142865657806,-133.2857141494751 A4,4 90 0 1 -205.57142865657806,-137.2857141494751 L-201.57142865657806,-137.2857141494751 L-201.57142865657806,-135.2857141494751 L-191.57142865657806,-135.2857141494751 L-191.57142865657806,-137.2857141494751 L-171.57142865657806,-137.2857141494751 L-167.57142865657806,-137.2857141494751 A4,4 90 0 1 -163.57142865657806,-133.2857141494751 L-163.57142865657806,-129.2857141494751 L-163.57142865657806,-125.2857141494751 L-163.57142865657806,-121.2857141494751 A4,4 90 0 1 -167.57142865657806,-117.2857141494751 L-171.57142865657806,-117.2857141494751 L-191.57142865657806,-117.2857141494751 L-192.57142865657806,-117.2857141494751 L-192.57142865657806,-115.2857141494751 L-200.57142865657806,-115.2857141494751 L-200.57142865657806,-117.2857141494751 L-201.57142865657806,-117.2857141494751 L-205.57142865657806,-117.2857141494751 A4,4 90 0 1 -209.57142865657806,-121.2857141494751 L-209.57142865657806,-125.2857141494751 z" style="fill:#b0b0b0;fill-opacity:1;stroke:#a0a0a0;stroke-width:1;stroke-linecap:round;stroke-opacity:1"/><text id="svg_305" x="-210.071" y="-137.786" style="font-size:10px;fill:#282828;font-family:sans-serif;text-anchor:end"><tspan id="svg_306" x="-175.071" y="-123.786">↓</tspan></text></g></g><g id="svg_307" transform="translate(46)"><g id="svg_308" transform="translate(498,349)"><path id="svg_309" d="m -255.57143,-129.28571 v -4 c 0,-2.20914 1.79086,-4 4,-4 h 4 v 2 h 10 v -2 h 76 4 c 2.20914,0 4,1.79086 4,4 v 4 h -4 v -3 h -4 v 10 h 4 v -3 h 4 v 17 h -4 v -3 h -4 v 10 h 4 v -3 h 4 v 4 c 0,2.209137 -1.79086,3.999996 -4,3.999996 h -4 -76 -1 v 2 h -8 v -2 h -1 -4 c -2.20914,0 -4.98796,-2.024083 -4,-3.999996 v -4 -21 z" style="fill:#77c428;fill-opacity:1;stroke:#57ad02;stroke-width:1;stroke-linecap:round;stroke-opacity:1"/><text id="svg_310" x="-210.071" y="-137.786" style="font-size:10px;font-family:sans-serif;text-anchor:end;fill:#282828"><tspan id="svg_311" x="-165.071" y="-113.786">determinar o tom</tspan></text><text id="svg_312" x="-210.071" y="-137.786" style="font-size:6.66666651px;font-family:sans-serif;text-anchor:end;fill:#282828"><tspan id="svg_313" x="-165.071" y="-125.786">nome</tspan></text><text id="svg_314" x="-210.071" y="-137.786" style="font-size:6.66666651px;font-family:sans-serif;text-anchor:end;fill:#282828"><tspan id="svg_315" x="-165.071" y="-104.786">oitava</tspan></text></g></g><g id="svg_316" transform="translate(46)"><g id="svg_317" transform="translate(547,349)"><path id="svg_318" d="m -201.57143,-137.28571 h 60 v 20 h -60 v -8 -1 h -6 v 3 h -2 v -8 h 2 v 3 h 6 v -1 z" style="fill:#77c428;fill-opacity:1;stroke:#57ad02;stroke-width:1;stroke-linecap:round;stroke-opacity:1"/><text id="svg_319" x="-210.071" y="-137.786" style="font-size:10px;font-family:sans-serif;text-anchor:start;fill:#282828"><tspan id="svg_320" x="-190.071" y="-121.786">sol</tspan></text></g></g><g id="svg_321" transform="translate(46)"><g id="svg_322" transform="translate(547,370)"><path id="svg_323" d="m -201.57143,-137.28571 h 60 v 20 h -60 v -8 -1 h -6 v 3 h -2 v -8 h 2 v 3 h 6 v -1 z" style="fill:#ff5293;fill-opacity:1;stroke:#ff2c76;stroke-width:1;stroke-linecap:round;stroke-opacity:1"/><text id="svg_324" x="-210.071" y="-137.786" style="font-size:10px;font-family:sans-serif;text-anchor:start;fill:#282828"><tspan id="svg_325" x="-190.071" y="-121.786">4</tspan></text></g></g><g id="svg_326"><g id="svg_327"><g id="svg_328" transform="translate(491,485) scale(1)"><path id="svg_329" d="m-212.42857146263123,-130.7142858505249 L-212.42857146263123,-134.7142858505249 A4,4 90 0 1 -208.42857146263123,-138.7142858505249 L-204.42857146263123,-138.7142858505249 L-204.42857146263123,-136.7142858505249 L-194.42857146263123,-136.7142858505249 L-194.42857146263123,-138.7142858505249 L-185.42857146263123,-138.7142858505249 L-125.42857146263123,-138.7142858505249 L-121.42857146263123,-138.7142858505249 A4,4 90 0 1 -117.42857146263123,-134.7142858505249 L-117.42857146263123,-130.7142858505249 L-121.42857146263123,-130.7142858505249 L-121.42857146263123,-133.7142858505249 L-125.42857146263123,-133.7142858505249 L-125.42857146263123,-123.7142858505249 L-121.42857146263123,-123.7142858505249 L-121.42857146263123,-126.7142858505249 L-117.42857146263123,-126.7142858505249 L-117.42857146263123,-122.7142858505249 A4,4 90 0 1 -121.42857146263123,-118.7142858505249 L-125.42857146263123,-118.7142858505249 L-185.42857146263123,-118.7142858505249 L-186.42857146263123,-118.7142858505249 L-186.42857146263123,-116.7142858505249 L-194.42857146263123,-116.7142858505249 L-194.42857146263123,-118.7142858505249 L-195.42857146263123,-118.7142858505249 L-199.42857146263123,-118.7142858505249 A5,5 90 0 0 -204.42857146263123,-113.7142858505249 L-204.42857146263123,-109.7142858505249 L-204.42857146263123,-105.7142858505249 L-204.42857146263123,-63.7142858505249 L-204.42857146263123,-59.7142858505249 A5,5 90 0 0 -199.42857146263123,-54.7142858505249 L-195.42857146263123,-54.7142858505249 L-195.42857146263123,-52.7142858505249 L-185.42857146263123,-52.7142858505249 L-185.42857146263123,-54.7142858505249 L-177.42857146263123,-54.7142858505249 L-177.42857146263123,-48.7142858505249 L-177.42857146263123,-42.7142858505249 L-177.42857146263123,-38.7142858505249 A4,4 90 0 1 -181.42857146263123,-34.7142858505249 L-185.42857146263123,-34.7142858505249 L-194.42857146263123,-34.7142858505249 L-195.42857146263123,-34.7142858505249 L-195.42857146263123,-32.7142858505249 L-203.42857146263123,-32.7142858505249 L-203.42857146263123,-34.7142858505249 L-204.42857146263123,-34.7142858505249 L-208.42857146263123,-34.7142858505249 A4,4 90 0 1 -212.42857146263123,-38.7142858505249 L-212.42857146263123,-42.7142858505249 z" style="fill:#ff8b2d;fill-opacity:1;stroke:#e86b0e;stroke-width:1;stroke-linecap:round;stroke-opacity:1"/><text id="svg_330" x="-212.929" y="-139.214" style="font-size:10px;fill:#282828;font-family:sans-serif;text-anchor:start"><tspan id="svg_331" x="-189.929" y="-124.214">nota</tspan></text><text id="svg_332" x="-212.929" y="-139.214" style="font-size:6.666666666666667px;fill:#282828;font-family:sans-serif;text-anchor:end"><tspan id="svg_333" x="-128.929" y="-127.214">valor</tspan></text></g></g></g><g id="svg_341"><g id="svg_342" transform="translate(579,485) scale(1)"><path id="svg_343" d="m-204.42857146263123,-130.7142858505249 L-204.42857146263123,-134.7142858505249 A4,4 90 0 1 -200.42857146263123,-138.7142858505249 L-196.42857146263123,-138.7142858505249 L-186.42857146263123,-138.7142858505249 L-156.42857146263123,-138.7142858505249 L-152.42857146263123,-138.7142858505249 A4,4 90 0 1 -148.42857146263123,-134.7142858505249 L-148.42857146263123,-130.7142858505249 L-152.42857146263123,-130.7142858505249 L-152.42857146263123,-133.7142858505249 L-156.42857146263123,-133.7142858505249 L-156.42857146263123,-123.7142858505249 L-152.42857146263123,-123.7142858505249 L-152.42857146263123,-126.7142858505249 L-148.42857146263123,-126.7142858505249 L-148.42857146263123,-109.7142858505249 L-152.42857146263123,-109.7142858505249 L-152.42857146263123,-112.7142858505249 L-156.42857146263123,-112.7142858505249 L-156.42857146263123,-102.7142858505249 L-152.42857146263123,-102.7142858505249 L-152.42857146263123,-105.7142858505249 L-148.42857146263123,-105.7142858505249 L-148.42857146263123,-101.7142858505249 A4,4 90 0 1 -152.42857146263123,-97.7142858505249 L-156.42857146263123,-97.7142858505249 L-186.42857146263123,-97.7142858505249 L-196.42857146263123,-97.7142858505249 L-200.42857146263123,-97.7142858505249 A4,4 90 0 1 -204.42857146263123,-101.7142858505249 L-204.42857146263123,-105.7142858505249 L-204.42857146263123,-126.7142858505249 L-204.42857146263123,-127.7142858505249 L-210.42857146263123,-127.7142858505249 L-210.42857146263123,-124.7142858505249 L-212.42857146263123,-124.7142858505249 L-212.42857146263123,-132.7142858505249 L-210.42857146263123,-132.7142858505249 L-210.42857146263123,-129.7142858505249 L-204.42857146263123,-129.7142858505249 L-204.42857146263123,-130.7142858505249 z" style="fill:#ff5293;fill-opacity:1;stroke:#ff2c76;stroke-width:1;stroke-linecap:round;stroke-opacity:1"/><text id="svg_344" x="-212.929" y="-139.214" style="font-size:9px;fill:#282828;font-family:sans-serif;text-anchor:end"><tspan id="svg_345" x="-159.929" y="-116.214">➗</tspan></text></g></g><g id="svg_350"><g id="svg_351" transform="translate(500,506) scale(1)"><path id="svg_352" d="m-212.42857146263123,-130.7142858505249 L-212.42857146263123,-134.7142858505249 A4,4 90 0 1 -208.42857146263123,-138.7142858505249 L-204.42857146263123,-138.7142858505249 L-204.42857146263123,-136.7142858505249 L-194.42857146263123,-136.7142858505249 L-194.42857146263123,-138.7142858505249 L-174.42857146263123,-138.7142858505249 L-170.42857146263123,-138.7142858505249 A4,4 90 0 1 -166.42857146263123,-134.7142858505249 L-166.42857146263123,-130.7142858505249 L-166.42857146263123,-126.7142858505249 L-166.42857146263123,-122.7142858505249 A4,4 90 0 1 -170.42857146263123,-118.7142858505249 L-174.42857146263123,-118.7142858505249 L-194.42857146263123,-118.7142858505249 L-195.42857146263123,-118.7142858505249 L-195.42857146263123,-116.7142858505249 L-203.42857146263123,-116.7142858505249 L-203.42857146263123,-118.7142858505249 L-204.42857146263123,-118.7142858505249 L-208.42857146263123,-118.7142858505249 A4,4 90 0 1 -212.42857146263123,-122.7142858505249 L-212.42857146263123,-126.7142858505249 z" style="fill:#b0b0b0;fill-opacity:1;stroke:#a0a0a0;stroke-width:1;stroke-linecap:round;stroke-opacity:1"/><text id="svg_353" x="-212.929" y="-139.214" style="font-size:10px;fill:#282828;font-family:sans-serif;text-anchor:end"><tspan id="svg_354" x="-177.929" y="-125.214">↓</tspan></text></g></g><g id="svg_355" transform="translate(46)"><g id="svg_356" transform="translate(500,527)"><path id="svg_357" d="m -258.42857,-130.71429 v -4 c 0,-2.20914 1.79086,-4 4,-4 h 4 v 2 h 10 v -2 h 76 4 c 2.20914,0 4,1.79086 4,4 v 4 h -4 v -3 h -4 v 10 h 4 v -3 h 4 v 17 h -4 v -3 h -4 v 10 h 4 v -3 h 4 v 4 c 0,2.209141 -1.79086,4.000004 -4,4.000004 h -4 -76 -1 v 2 h -8 v -2 h -1 -4 c -2.20914,0 -4,-1.790863 -4,-4.000004 v -4 -21 z" style="fill:#77c428;fill-opacity:1;stroke:#57ad02;stroke-width:1;stroke-linecap:round;stroke-opacity:1"/><text id="svg_358" x="-212.929" y="-139.214" style="font-size:10px;font-family:sans-serif;text-anchor:end;fill:#282828"><tspan id="svg_359" x="-167.929" y="-115.214">determinar o tom</tspan></text><text id="svg_360" x="-212.929" y="-139.214" style="font-size:6.66666651px;font-family:sans-serif;text-anchor:end;fill:#282828"><tspan id="svg_361" x="-167.929" y="-127.214">nome</tspan></text><text id="svg_362" x="-212.929" y="-139.214" style="font-size:6.66666651px;font-family:sans-serif;text-anchor:end;fill:#282828"><tspan id="svg_363" x="-167.929" y="-106.214">oitava</tspan></text></g></g><g id="svg_364" transform="translate(46)"><g id="svg_365" transform="translate(549,527)"><path id="svg_366" d="m -204.42857,-138.71429 h 60 v 20 h -60 v -8 -1 h -6 v 3 h -2 v -8 h 2 v 3 h 6 v -1 z" style="fill:#77c428;fill-opacity:1;stroke:#57ad02;stroke-width:1;stroke-linecap:round;stroke-opacity:1"/><text id="svg_367" x="-212.929" y="-139.214" style="font-size:10px;font-family:sans-serif;text-anchor:start;fill:#282828"><tspan id="svg_368" x="-192.929" y="-123.214">sol</tspan></text></g></g><g id="svg_369" transform="translate(46)"><g id="svg_370" transform="translate(549,548)"><path id="svg_371" d="m -204.42857,-138.71429 h 60 v 20 h -60 v -8 -1 h -6 v 3 h -2 v -8 h 2 v 3 h 6 v -1 z" style="fill:#ff5293;fill-opacity:1;stroke:#ff2c76;stroke-width:1;stroke-linecap:round;stroke-opacity:1"/><text id="svg_372" x="-212.929" y="-139.214" style="font-size:10px;font-family:sans-serif;text-anchor:start;fill:#282828"><tspan id="svg_373" x="-192.929" y="-123.214">4</tspan></text></g></g><g id="svg_374"><g id="svg_375" transform="translate(634,307) scale(1)"><path id="svg_376" d="m-201.57142865657806,-137.2857141494751 L-141.57142865657806,-137.2857141494751 L-141.57142865657806,-117.2857141494751 L-201.57142865657806,-117.2857141494751 L-201.57142865657806,-125.2857141494751 L-201.57142865657806,-126.2857141494751 L-207.57142865657806,-126.2857141494751 L-207.57142865657806,-123.2857141494751 L-209.57142865657806,-123.2857141494751 L-209.57142865657806,-131.2857141494751 L-207.57142865657806,-131.2857141494751 L-207.57142865657806,-128.2857141494751 L-201.57142865657806,-128.2857141494751 L-201.57142865657806,-129.2857141494751 z" style="fill:#ff5293;fill-opacity:1;stroke:#ff2c76;stroke-width:1;stroke-linecap:round;stroke-opacity:1"/><text id="svg_377" x="-210.071" y="-137.786" style="font-size:10px;fill:#282828;font-family:sans-serif;text-anchor:start"><tspan id="svg_378" x="-190.071" y="-121.786">3</tspan></text></g></g><g id="svg_379"><g id="svg_380" transform="translate(634,328) scale(1)"><path id="svg_381" d="m-201.57142865657806,-137.2857141494751 L-141.57142865657806,-137.2857141494751 L-141.57142865657806,-117.2857141494751 L-201.57142865657806,-117.2857141494751 L-201.57142865657806,-125.2857141494751 L-201.57142865657806,-126.2857141494751 L-207.57142865657806,-126.2857141494751 L-207.57142865657806,-123.2857141494751 L-209.57142865657806,-123.2857141494751 L-209.57142865657806,-131.2857141494751 L-207.57142865657806,-131.2857141494751 L-207.57142865657806,-128.2857141494751 L-201.57142865657806,-128.2857141494751 L-201.57142865657806,-129.2857141494751 z" style="fill:#ff5293;fill-opacity:1;stroke:#ff2c76;stroke-width:1;stroke-linecap:round;stroke-opacity:1"/><text id="svg_382" x="-210.071" y="-137.786" style="font-size:10px;fill:#282828;font-family:sans-serif;text-anchor:start"><tspan id="svg_383" x="-190.071" y="-121.786">16</tspan></text></g></g><g id="svg_384"><g id="svg_385" transform="translate(636,485) scale(1)"><path id="svg_386" d="m-204.42857146263123,-138.7142858505249 L-144.42857146263123,-138.7142858505249 L-144.42857146263123,-118.7142858505249 L-204.42857146263123,-118.7142858505249 L-204.42857146263123,-126.7142858505249 L-204.42857146263123,-127.7142858505249 L-210.42857146263123,-127.7142858505249 L-210.42857146263123,-124.7142858505249 L-212.42857146263123,-124.7142858505249 L-212.42857146263123,-132.7142858505249 L-210.42857146263123,-132.7142858505249 L-210.42857146263123,-129.7142858505249 L-204.42857146263123,-129.7142858505249 L-204.42857146263123,-130.7142858505249 z" style="fill:#ff5293;fill-opacity:1;stroke:#ff2c76;stroke-width:1;stroke-linecap:round;stroke-opacity:1"/><text id="svg_387" x="-212.929" y="-139.214" style="font-size:10px;fill:#282828;font-family:sans-serif;text-anchor:start"><tspan id="svg_388" x="-192.929" y="-123.214">7</tspan></text></g></g><g id="svg_389"><g id="svg_390" transform="translate(636,506) scale(1)"><path id="svg_391" d="m-204.42857146263123,-138.7142858505249 L-144.42857146263123,-138.7142858505249 L-144.42857146263123,-118.7142858505249 L-204.42857146263123,-118.7142858505249 L-204.42857146263123,-126.7142858505249 L-204.42857146263123,-127.7142858505249 L-210.42857146263123,-127.7142858505249 L-210.42857146263123,-124.7142858505249 L-212.42857146263123,-124.7142858505249 L-212.42857146263123,-132.7142858505249 L-210.42857146263123,-132.7142858505249 L-210.42857146263123,-129.7142858505249 L-204.42857146263123,-129.7142858505249 L-204.42857146263123,-130.7142858505249 z" style="fill:#ff5293;fill-opacity:1;stroke:#ff2c76;stroke-width:1;stroke-linecap:round;stroke-opacity:1"/><text id="svg_392" x="-212.929" y="-139.214" style="font-size:10px;fill:#282828;font-family:sans-serif;text-anchor:start"><tspan id="svg_393" x="-192.929" y="-123.214">16</tspan></text></g></g><g id="svg_394"><g id="svg_395" transform="translate(365,333) scale(1)"><path id="svg_396" d="m-203,-143 L-143,-143 L-143,-123 L-203,-123 L-203,-131 L-203,-132 L-209,-132 L-209,-129 L-211,-129 L-211,-137 L-209,-137 L-209,-134 L-203,-134 L-203,-135 z" style="fill:#ff5293;fill-opacity:1;stroke:#ff2c76;stroke-width:1;stroke-linecap:round;stroke-opacity:1"/><text id="svg_397" x="-211.5" y="-143.5" style="font-size:10px;fill:#282828;font-family:sans-serif;text-anchor:start"><tspan id="svg_398" x="-191.5" y="-127.5">1</tspan></text></g></g></g></svg>