<svg xmlns="http://www.w3.org/2000/svg" xmlns:svg="http://www.w3.org/2000/svg" id="svg3155" width="700" height="463" version="1.1"><metadata id="metadata3161"/><rect id="backgroundrect" width="100%" height="100%" x="0" y="0" fill="none" stroke="none"/><g id="svg_15"><g id="svg_16" transform="matrix(1.5,0,0,1.5,180,137)"><path style="fill:#fe994f;fill-opacity:1;stroke:#e86b0e;stroke-width:1;stroke-linecap:round;stroke-opacity:1" id="svg_17" d="m -120,-83.333336 v -4 a 4,4 90 0 1 4,-4 h 4 v 2 h 10 v -2 h 9 40 4 a 4,4 90 0 1 4,4 v 4 h -4 v -3 h -4 v 10 h 4 v -3 h 4 v 17 h -4 v -3 h -4 v 10 h 4 v -3 h 4 v 4 a 4,4 90 0 1 -4,4 h -4 -40 -1 v 2 h -8 v -2 h -1 -4 a 5,5 90 0 0 -5,5 v 4 4 209.999996 4 a 5,5 90 0 0 5,5 h 4 v 2 h 10 v -2 h 8 v 6 6 4 a 4,4 90 0 1 -4,4 h -4 -9 -1 v 2 h -8 v -2 h -1 -4 a 4,4 90 0 1 -4,-4 v -4 z"/><text style="font-size:10px;font-family:sans-serif;text-anchor:start;fill:#282828" id="svg_18" x="-120.5" y="-91.833"><tspan id="svg_19" x="-115.5" y="-69.833">swing</tspan></text><text style="font-size:6.66666651px;font-family:sans-serif;text-anchor:end;fill:#282828" id="svg_20" x="-120.5" y="-91.833"><tspan id="svg_21" x="-55.5" y="-79.833">valor de swing</tspan></text><text style="font-size:6.66666651px;font-family:sans-serif;text-anchor:end;fill:#282828" id="svg_22" x="-120.5" y="-91.833"><tspan id="svg_23" x="-55.5" y="-58.833">valor de nota</tspan></text></g></g><g id="svg_24"><g id="svg_25" transform="matrix(1.5,0,0,1.5,282,137)"><path style="fill:#b0b0b0;fill-opacity:1;stroke:#a0a0a0;stroke-width:1;stroke-linecap:round;stroke-opacity:1" id="svg_26" d="m -112,-83.333336 v -4 a 4,4 90 0 1 4,-4 h 4 10 30 4 a 4,4 90 0 1 4,4 v 4 h -4 v -3 h -4 v 10 h 4 v -3 h 4 v 4 a 4,4 90 0 1 -4,4 h -4 -30 -10 -4 a 4,4 90 0 1 -4,-4 v -4 -1 h -6 v 3 h -2 v -8 h 2 v 3 h 6 z"/><text style="font-size:10px;font-family:sans-serif;text-anchor:end;fill:#282828" id="svg_27" x="-120.5" y="-91.833"><tspan id="svg_28" x="-66.5" y="-78.833">←</tspan></text></g></g><g id="svg_31"><g id="svg_32" transform="matrix(1.5,0,0,1.5,368,137)"><path style="fill:#b0b0b0;fill-opacity:1;stroke:#a0a0a0;stroke-width:1;stroke-linecap:round;stroke-opacity:1" id="svg_33" d="m -112,-83.333336 v -4 a 4,4 90 0 1 4,-4 h 4 10 30 4 a 4,4 90 0 1 4,4 v 4 h -4 v -3 h -4 v 10 h 4 v -3 h 4 v 4 a 4,4 90 0 1 -4,4 h -4 -30 -10 -4 a 4,4 90 0 1 -4,-4 v -4 -1 h -6 v 3 h -2 v -8 h 2 v 3 h 6 z"/><text style="font-size:10px;font-family:sans-serif;text-anchor:end;fill:#282828" id="svg_34" x="-120.5" y="-91.833"><tspan id="svg_35" x="-66.5" y="-78.833">←</tspan></text></g></g><g id="svg_38"><g id="svg_39" transform="matrix(1.5,0,0,1.5,454,137)"><path style="fill:#ff5293;fill-opacity:1;stroke:#ff2c76;stroke-width:1;stroke-linecap:round;stroke-opacity:1" id="svg_40" d="m -112,-83.333336 v -4 a 4,4 90 0 1 4,-4 h 4 10 30 4 a 4,4 90 0 1 4,4 v 4 h -4 v -3 h -4 v 10 h 4 v -3 h 4 v 17 h -4 v -3 h -4 v 10 h 4 v -3 h 4 v 4 a 4,4 90 0 1 -4,4 h -4 -30 -10 -4 a 4,4 90 0 1 -4,-4 v -4 -21 -1 h -6 v 3 h -2 v -8 h 2 v 3 h 6 z"/><text style="font-size:9px;font-family:sans-serif;text-anchor:end;fill:#282828" id="svg_41" x="-120.5" y="-91.833"><tspan id="svg_42" x="-66.5" y="-68.833">➗</tspan></text></g></g><g id="svg_47"><g id="svg_48" transform="matrix(1.5,0,0,1.5,540,137)"><path style="fill:#ff5293;fill-opacity:1;stroke:#ff2c76;stroke-width:1;stroke-linecap:round;stroke-opacity:1" id="svg_49" d="m -112,-91.333336 h 60 v 20 h -60 v -8 -1 h -6 v 3 h -2 v -8 h 2 v 3 h 6 v -1 z"/><text style="font-size:10px;font-family:sans-serif;text-anchor:start;fill:#282828" id="svg_50" x="-120.5" y="-91.833"><tspan id="svg_51" x="-107.5" y="-77.833">1</tspan></text></g></g><g id="svg_52"><g id="svg_53" transform="matrix(1.5,0,0,1.5,540,169)"><path style="fill:#ff5293;fill-opacity:1;stroke:#ff2c76;stroke-width:1;stroke-linecap:round;stroke-opacity:1" id="svg_54" d="m -112,-91.333336 h 60 v 20 h -60 v -8 -1 h -6 v 3 h -2 v -8 h 2 v 3 h 6 v -1 z"/><text style="font-size:10px;font-family:sans-serif;text-anchor:start;fill:#282828" id="svg_55" x="-120.5" y="-91.833"><tspan id="svg_56" x="-107.5" y="-77.833">24</tspan></text></g></g><g id="svg_57"><g id="svg_58" transform="matrix(1.5,0,0,1.5,282,169)"><path style="fill:#ff5293;fill-opacity:1;stroke:#ff2c76;stroke-width:1;stroke-linecap:round;stroke-opacity:1" id="svg_59" d="m -112,-83.333336 v -4 a 4,4 90 0 1 4,-4 h 4 10 30 4 a 4,4 90 0 1 4,4 v 4 h -4 v -3 h -4 v 10 h 4 v -3 h 4 v 17 h -4 v -3 h -4 v 10 h 4 v -3 h 4 v 4 a 4,4 90 0 1 -4,4 h -4 -30 -10 -4 a 4,4 90 0 1 -4,-4 v -4 -21 -1 h -6 v 3 h -2 v -8 h 2 v 3 h 6 z"/><text style="font-size:9px;font-family:sans-serif;text-anchor:end;fill:#282828" id="svg_60" x="-120.5" y="-91.833"><tspan id="svg_61" x="-66.5" y="-68.833">➗</tspan></text></g></g><g id="svg_66"><g id="svg_67" transform="matrix(1.5,0,0,1.5,368,169)"><path style="fill:#ff5293;fill-opacity:1;stroke:#ff2c76;stroke-width:1;stroke-linecap:round;stroke-opacity:1" id="svg_68" d="m -112,-91.333336 h 60 v 20 h -60 v -8 -1 h -6 v 3 h -2 v -8 h 2 v 3 h 6 v -1 z"/><text style="font-size:10px;font-family:sans-serif;text-anchor:start;fill:#282828" id="svg_69" x="-120.5" y="-91.833"><tspan id="svg_70" x="-107.5" y="-77.833">1</tspan></text></g></g><g id="svg_71"><g id="svg_72" transform="matrix(1.5,0,0,1.5,368,201)"><path style="fill:#ff5293;fill-opacity:1;stroke:#ff2c76;stroke-width:1;stroke-linecap:round;stroke-opacity:1" id="svg_73" d="m -112,-91.333336 h 60 v 20 h -60 v -8 -1 h -6 v 3 h -2 v -8 h 2 v 3 h 6 v -1 z"/><text style="font-size:10px;font-family:sans-serif;text-anchor:start;fill:#282828" id="svg_74" x="-120.5" y="-91.833"><tspan id="svg_75" x="-107.5" y="-77.833">8</tspan></text></g></g><g id="svg_76"><g id="svg_77" transform="matrix(1.5,0,0,1.5,194,200)"><path style="fill:#b0b0b0;fill-opacity:1;stroke:#a0a0a0;stroke-width:1;stroke-linecap:round;stroke-opacity:1" id="svg_78" d="m -120,-83.333336 v -4 a 4,4 90 0 1 4,-4 h 4 v 2 h 10 v -2 h 20 4 a 4,4 90 0 1 4,4 v 4 4 4 a 4,4 90 0 1 -4,4 h -4 -20 -1 v 2 h -8 v -2 h -1 -4 a 4,4 90 0 1 -4,-4 v -4 z"/><text style="font-size:10px;font-family:sans-serif;text-anchor:end;fill:#282828" id="svg_79" x="-120.5" y="-91.833"><tspan id="svg_80" x="-84.5" y="-77.833">↓</tspan></text></g></g><g id="svg_81"><g id="svg_82"><g id="svg_83" transform="matrix(1.5,0,0,1.5,194,232)"><path style="fill:#fe994f;fill-opacity:1;stroke:#e86b0e;stroke-width:1;stroke-linecap:round;stroke-opacity:1" id="svg_84" d="m -120,-83.333336 v -4 a 4,4 90 0 1 4,-4 h 4 v 2 h 10 v -2 h 9 60 4 a 4,4 90 0 1 4,4 v 4 h -4 v -3 h -4 v 10 h 4 v -3 h 4 v 4 a 4,4 90 0 1 -4,4 h -4 -60 -1 v 2 h -8 v -2 h -1 -4 a 5,5 90 0 0 -5,5 v 4 4 42 4 a 5,5 90 0 0 5,5.0000001 h 4 v 2 h 10 v -2 h 8 v 6 6 4 a 4,4 90 0 1 -4,3.9999999 h -4 -9 -1 v 2 h -8 v -2 h -1 -4 a 4,4 90 0 1 -4,-3.9999999 v -4 z"/><text style="font-size:10px;font-family:sans-serif;text-anchor:start;fill:#282828" id="svg_85" x="-120.5" y="-91.833"><tspan id="svg_86" x="-100.5" y="-76.833">nota</tspan></text><text style="font-size:6.66666651px;font-family:sans-serif;text-anchor:end;fill:#282828" id="svg_87" x="-120.5" y="-91.833"><tspan id="svg_88" x="-35.5" y="-79.833">valor</tspan></text></g></g><g id="svg_89" transform="matrix(0.5,0,0,0.5,194,236)"><g style="isolation:isolate" id="svg_90"><g id="レイヤー_2" data-name="レイヤー 2"><g id="Icon"><rect style="opacity:.4;mix-blend-mode:multiply;fill:#292929" id="svg_91" width="42" height="42" x="-361.5" y="-275.5" rx="5" ry="5"/><path style="fill:#fff" id="svg_92" d="m -330.94,-245.7 -4.17,-4.16 h 2.26 a 1.035,1.035 0 1 0 0,-2.07 h -4.71 a 1.08,1.08 0 0 0 -1.11,1 v 0 c 0,0 0,0 0,0.06 v 4.64 0 a 1.04,1.04 0 1 0 2.08,0 v -2.19 l 4.19,4.19 a 1,1 0 0 0 1.46,0 1,1 0 0 0 0,-1.47 z"/><path style="fill:#fff" id="svg_93" d="m -342.33,-250.9 a 1.08,1.08 0 0 0 -1.11,-1 h -4.71 a 1.035,1.035 0 1 0 0,2.07 h 2.25 l -4.16,4.13 a 1.039447,1.039447 0 0 0 1.47,1.47 l 4.18,-4.19 v 2.26 a 1.04,1.04 0 1 0 2.08,0 v -4.64 c 0,0 0,0 0,-0.06 a 0.08,0.08 0 0 1 0,-0.04 z"/><path style="fill:#fff" id="svg_94" d="m -337.56,-255 h 4.7 a 1.04,1.04 0 1 0 0,-2.08 h -2.25 l 4.17,-4.16 a 1,1 0 0 0 0,-1.47 1,1 0 0 0 -1.46,0 l -4.19,4.21 v -2.28 a 1.04,1.04 0 1 0 -2.08,0 v 4.64 a 0.43000001,0.43000001 0 0 0 0,0.05 v 0.05 a 1.09,1.09 0 0 0 1.11,1.04 z"/><path style="fill:#fff" id="svg_95" d="m -343.37,-261.88 a 1.08,1.08 0 0 0 -1,1.09 v 2.29 l -4.18,-4.19 a 1,1 0 0 0 -1.47,0 1,1 0 0 0 0,1.46 l 4.16,4.17 h -2.29 a 1.04,1.04 0 1 0 0,2.08 h 4.71 a 1.09,1.09 0 0 0 1.11,-1 c 0,0 0,0 0,-0.06 v -4.75 a 1.0700001,1.0700001 0 0 0 -1.04,-1.09 z"/></g></g></g></g></g><g id="svg_96"><g id="svg_97" transform="matrix(1.5,0,0,1.5,326,232)"><path style="fill:#ff5293;fill-opacity:1;stroke:#ff2c76;stroke-width:1;stroke-linecap:round;stroke-opacity:1" id="svg_98" d="m -112,-83.333336 v -4 a 4,4 90 0 1 4,-4 h 4 10 30 4 a 4,4 90 0 1 4,4 v 4 h -4 v -3 h -4 v 10 h 4 v -3 h 4 v 17 h -4 v -3 h -4 v 10 h 4 v -3 h 4 v 4 a 4,4 90 0 1 -4,4 h -4 -30 -10 -4 a 4,4 90 0 1 -4,-4 v -4 -21 -1 h -6 v 3 h -2 v -8 h 2 v 3 h 6 z"/><text style="font-size:9px;font-family:sans-serif;text-anchor:end;fill:#282828" id="svg_99" x="-120.5" y="-91.833"><tspan id="svg_100" x="-66.5" y="-68.833">➗</tspan></text></g></g><g id="svg_105"><g id="svg_106" transform="matrix(1.5,0,0,1.5,412,232)"><path style="fill:#ff5293;fill-opacity:1;stroke:#ff2c76;stroke-width:1;stroke-linecap:round;stroke-opacity:1" id="svg_107" d="m -112,-91.333336 h 60 v 20 h -60 v -8 -1 h -6 v 3 h -2 v -8 h 2 v 3 h 6 v -1 z"/><text style="font-size:10px;font-family:sans-serif;text-anchor:start;fill:#282828" id="svg_108" x="-120.5" y="-91.833"><tspan id="svg_109" x="-107.5" y="-77.833">1</tspan></text></g></g><g id="svg_110"><g id="svg_111" transform="matrix(1.5,0,0,1.5,412,264)"><path style="fill:#ff5293;fill-opacity:1;stroke:#ff2c76;stroke-width:1;stroke-linecap:round;stroke-opacity:1" id="svg_112" d="m -112,-91.333336 h 60 v 20 h -60 v -8 -1 h -6 v 3 h -2 v -8 h 2 v 3 h 6 v -1 z"/><text style="font-size:10px;font-family:sans-serif;text-anchor:start;fill:#282828" id="svg_113" x="-120.5" y="-91.833"><tspan id="svg_114" x="-107.5" y="-77.833">8</tspan></text></g></g><g id="svg_115"><g id="svg_116" transform="matrix(1.5,0,0,1.5,208,264)"><path style="fill:#b0b0b0;fill-opacity:1;stroke:#a0a0a0;stroke-width:1;stroke-linecap:round;stroke-opacity:1" id="svg_117" d="m -120,-83.333336 v -4 a 4,4 90 0 1 4,-4 h 4 v 2 h 10 v -2 h 20 4 a 4,4 90 0 1 4,4 v 4 4 4 a 4,4 90 0 1 -4,4 h -4 -20 -1 v 2 h -8 v -2 h -1 -4 a 4,4 90 0 1 -4,-4 v -4 z"/><text style="font-size:10px;font-family:sans-serif;text-anchor:end;fill:#282828" id="svg_118" x="-120.5" y="-91.833"><tspan id="svg_119" x="-84.5" y="-77.833">↓</tspan></text></g></g><g id="svg_120" transform="translate(66)"><g id="svg_121" transform="matrix(1.5,0,0,1.5,208,296)"><path style="fill:#77c428;fill-opacity:1;stroke:#57ad02;stroke-width:1;stroke-linecap:round;stroke-opacity:1" id="svg_122" d="m -164,-83.333336 v -4 c 0,-2.209139 1.79086,-4 4,-4 h 4 v 2 h 10 v -2 h 74 4 c 2.209139,0 4,1.790861 4,4 v 4 h -4 v -3 h -4 v 10 h 4 v -3 h 4 v 17 h -4 v -3 h -4 v 10 h 4 v -3 h 4 v 4 c 0,2.209139 -1.790861,4 -4,4 h -4 -74 -1 v 2 h -8 v -2 h -1 -4 c -2.20914,0 -4.69859,-1.904227 -4,-4 v -4 -21 z"/><text style="font-size:10px;font-family:sans-serif;text-anchor:end;fill:#282828" id="svg_123" x="-120.5" y="-91.833"><tspan id="svg_124" x="-74.5" y="-67.833">determinar o tom</tspan></text><text style="font-size:6.66666651px;font-family:sans-serif;text-anchor:end;fill:#282828" id="svg_125" x="-120.5" y="-91.833"><tspan id="svg_126" x="-74.5" y="-79.833">nome</tspan></text><text style="font-size:6.66666651px;font-family:sans-serif;text-anchor:end;fill:#282828" id="svg_127" x="-120.5" y="-91.833"><tspan id="svg_128" x="-74.5" y="-58.833">octave</tspan></text></g></g><g id="svg_129" transform="translate(66)"><g id="svg_130" transform="matrix(1.5,0,0,1.5,282,296)"><path style="fill:#77c428;fill-opacity:1;stroke:#57ad02;stroke-width:1;stroke-linecap:round;stroke-opacity:1" id="svg_131" d="m -112,-91.333336 h 60 v 20 h -60 v -8 -1 h -6 v 3 h -2 v -8 h 2 v 3 h 6 v -1 z"/><text style="font-size:10px;font-family:sans-serif;text-anchor:start;fill:#282828" id="svg_132" x="-120.5" y="-91.833"><tspan id="svg_133" x="-107.5" y="-77.833">fa</tspan></text></g></g><g id="svg_134" transform="translate(66)"><g id="svg_135" transform="matrix(1.5,0,0,1.5,282,328)"><path style="fill:#ff5293;fill-opacity:1;stroke:#ff2c76;stroke-width:1;stroke-linecap:round;stroke-opacity:1" id="svg_136" d="m -112,-91.333336 h 60 v 20 h -60 v -8 -1 h -6 v 3 h -2 v -8 h 2 v 3 h 6 v -1 z"/><text style="font-size:10px;font-family:sans-serif;text-anchor:start;fill:#282828" id="svg_137" x="-120.5" y="-91.833"><tspan id="svg_138" x="-107.5" y="-77.833">4</tspan></text></g></g><g id="svg_139"><g id="svg_140"><g id="svg_141" transform="matrix(1.5,0,0,1.5,194,390)"><path style="fill:#fe994f;fill-opacity:1;stroke:#e86b0e;stroke-width:1;stroke-linecap:round;stroke-opacity:1" id="svg_142" d="m -120,-83.333336 v -4 a 4,4 90 0 1 4,-4 h 4 v 2 h 10 v -2 h 9 60 4 a 4,4 90 0 1 4,4 v 4 h -4 v -3 h -4 v 10 h 4 v -3 h 4 v 4 a 4,4 90 0 1 -4,4 h -4 -60 -1 v 2 h -8 v -2 h -1 -4 a 5,5 90 0 0 -5,5 v 4 4 42 4 a 5,5 90 0 0 5,5.0000001 h 4 v 2 h 10 v -2 h 8 v 6 6 4 a 4,4 90 0 1 -4,3.9999999 h -4 -9 -1 v 2 h -8 v -2 h -1 -4 a 4,4 90 0 1 -4,-3.9999999 v -4 z"/><text style="font-size:10px;font-family:sans-serif;text-anchor:start;fill:#282828" id="svg_143" x="-120.5" y="-91.833"><tspan id="svg_144" x="-100.5" y="-76.833">nota</tspan></text><text style="font-size:6.66666651px;font-family:sans-serif;text-anchor:end;fill:#282828" id="svg_145" x="-120.5" y="-91.833"><tspan id="svg_146" x="-35.5" y="-79.833">valor</tspan></text></g></g><g id="svg_147" transform="matrix(0.5,0,0,0.5,194,394)"><g style="isolation:isolate" id="svg_148"><g id="g2982" data-name="レイヤー 2"><g id="g2980"><rect style="opacity:.4;mix-blend-mode:multiply;fill:#292929" id="svg_149" width="42" height="42" x="-361.5" y="-275.5" rx="5" ry="5"/><path style="fill:#fff" id="svg_150" d="m -330.94,-245.7 -4.17,-4.16 h 2.26 a 1.035,1.035 0 1 0 0,-2.07 h -4.71 a 1.08,1.08 0 0 0 -1.11,1 v 0 c 0,0 0,0 0,0.06 v 4.64 0 a 1.04,1.04 0 1 0 2.08,0 v -2.19 l 4.19,4.19 a 1,1 0 0 0 1.46,0 1,1 0 0 0 0,-1.47 z"/><path style="fill:#fff" id="svg_151" d="m -342.33,-250.9 a 1.08,1.08 0 0 0 -1.11,-1 h -4.71 a 1.035,1.035 0 1 0 0,2.07 h 2.25 l -4.16,4.13 a 1.039447,1.039447 0 0 0 1.47,1.47 l 4.18,-4.19 v 2.26 a 1.04,1.04 0 1 0 2.08,0 v -4.64 c 0,0 0,0 0,-0.06 a 0.08,0.08 0 0 1 0,-0.04 z"/><path style="fill:#fff" id="svg_152" d="m -337.56,-255 h 4.7 a 1.04,1.04 0 1 0 0,-2.08 h -2.25 l 4.17,-4.16 a 1,1 0 0 0 0,-1.47 1,1 0 0 0 -1.46,0 l -4.19,4.21 v -2.28 a 1.04,1.04 0 1 0 -2.08,0 v 4.64 a 0.43000001,0.43000001 0 0 0 0,0.05 v 0.05 a 1.09,1.09 0 0 0 1.11,1.04 z"/><path style="fill:#fff" id="svg_153" d="m -343.37,-261.88 a 1.08,1.08 0 0 0 -1,1.09 v 2.29 l -4.18,-4.19 a 1,1 0 0 0 -1.47,0 1,1 0 0 0 0,1.46 l 4.16,4.17 h -2.29 a 1.04,1.04 0 1 0 0,2.08 h 4.71 a 1.09,1.09 0 0 0 1.11,-1 c 0,0 0,0 0,-0.06 v -4.75 a 1.0700001,1.0700001 0 0 0 -1.04,-1.09 z"/></g></g></g></g></g><g id="svg_154"><g id="svg_155" transform="matrix(1.5,0,0,1.5,326,390)"><path style="fill:#ff5293;fill-opacity:1;stroke:#ff2c76;stroke-width:1;stroke-linecap:round;stroke-opacity:1" id="svg_156" d="m -112,-83.333336 v -4 a 4,4 90 0 1 4,-4 h 4 10 30 4 a 4,4 90 0 1 4,4 v 4 h -4 v -3 h -4 v 10 h 4 v -3 h 4 v 17 h -4 v -3 h -4 v 10 h 4 v -3 h 4 v 4 a 4,4 90 0 1 -4,4 h -4 -30 -10 -4 a 4,4 90 0 1 -4,-4 v -4 -21 -1 h -6 v 3 h -2 v -8 h 2 v 3 h 6 z"/><text style="font-size:9px;font-family:sans-serif;text-anchor:end;fill:#282828" id="svg_157" x="-120.5" y="-91.833"><tspan id="svg_158" x="-66.5" y="-68.833">➗</tspan></text></g></g><g id="svg_163"><g id="svg_164" transform="matrix(1.5,0,0,1.5,412,390)"><path style="fill:#ff5293;fill-opacity:1;stroke:#ff2c76;stroke-width:1;stroke-linecap:round;stroke-opacity:1" id="svg_165" d="m -112,-91.333336 h 60 v 20 h -60 v -8 -1 h -6 v 3 h -2 v -8 h 2 v 3 h 6 v -1 z"/><text style="font-size:10px;font-family:sans-serif;text-anchor:start;fill:#282828" id="svg_166" x="-120.5" y="-91.833"><tspan id="svg_167" x="-107.5" y="-77.833">1</tspan></text></g></g><g id="svg_168"><g id="svg_169" transform="matrix(1.5,0,0,1.5,412,422)"><path style="fill:#ff5293;fill-opacity:1;stroke:#ff2c76;stroke-width:1;stroke-linecap:round;stroke-opacity:1" id="svg_170" d="m -112,-91.333336 h 60 v 20 h -60 v -8 -1 h -6 v 3 h -2 v -8 h 2 v 3 h 6 v -1 z"/><text style="font-size:10px;font-family:sans-serif;text-anchor:start;fill:#282828" id="svg_171" x="-120.5" y="-91.833"><tspan id="svg_172" x="-107.5" y="-77.833">8</tspan></text></g></g><g id="svg_173"><g id="svg_174" transform="matrix(1.5,0,0,1.5,208,422)"><path style="fill:#b0b0b0;fill-opacity:1;stroke:#a0a0a0;stroke-width:1;stroke-linecap:round;stroke-opacity:1" id="svg_175" d="m -120,-83.333336 v -4 a 4,4 90 0 1 4,-4 h 4 v 2 h 10 v -2 h 20 4 a 4,4 90 0 1 4,4 v 4 4 4 a 4,4 90 0 1 -4,4 h -4 -20 -1 v 2 h -8 v -2 h -1 -4 a 4,4 90 0 1 -4,-4 v -4 z"/><text style="font-size:10px;font-family:sans-serif;text-anchor:end;fill:#282828" id="svg_176" x="-120.5" y="-91.833"><tspan id="svg_177" x="-84.5" y="-77.833">↓</tspan></text></g></g><g id="svg_178" transform="translate(66)"><g id="svg_179" transform="matrix(1.5,0,0,1.5,208,454)"><path style="fill:#77c428;fill-opacity:1;stroke:#57ad02;stroke-width:1;stroke-linecap:round;stroke-opacity:1" id="svg_180" d="m -164,-83.333336 v -4 c 0,-2.209139 1.79086,-4 4,-4 h 4 v 2 h 10 v -2 h 74 4 c 2.209139,0 4,1.790861 4,4 v 4 h -4 v -3 h -4 v 10 h 4 v -3 h 4 v 17 h -4 v -3 h -4 v 10 h 4 v -3 h 4 v 4 c 0,2.209139 -1.790861,4 -4,4 h -4 -74 -1 v 2 h -8 v -2 h -1 -4 c -2.20914,0 -4.69859,-1.904227 -4,-4 v -4 -21 z"/><text style="font-size:10px;font-family:sans-serif;text-anchor:end;fill:#282828" id="svg_181" x="-120.5" y="-91.833"><tspan id="svg_182" x="-74.5" y="-67.833">determinar o tom</tspan></text><text style="font-size:6.66666651px;font-family:sans-serif;text-anchor:end;fill:#282828" id="svg_183" x="-120.5" y="-91.833"><tspan id="svg_184" x="-74.5" y="-79.833">nome</tspan></text><text style="font-size:6.66666651px;font-family:sans-serif;text-anchor:end;fill:#282828" id="svg_185" x="-120.5" y="-91.833"><tspan id="svg_186" x="-74.5" y="-58.833">octave</tspan></text></g></g><g id="svg_187" transform="translate(66)"><g id="svg_188" transform="matrix(1.5,0,0,1.5,282,454)"><path style="fill:#77c428;fill-opacity:1;stroke:#57ad02;stroke-width:1;stroke-linecap:round;stroke-opacity:1" id="svg_189" d="m -112,-91.333336 h 60 v 20 h -60 v -8 -1 h -6 v 3 h -2 v -8 h 2 v 3 h 6 v -1 z"/><text style="font-size:10px;font-family:sans-serif;text-anchor:start;fill:#282828" id="svg_190" x="-120.5" y="-91.833"><tspan id="svg_191" x="-107.5" y="-77.833">sol</tspan></text></g></g><g id="svg_192" transform="translate(66)"><g id="svg_193" transform="matrix(1.5,0,0,1.5,282,486)"><path style="fill:#ff5293;fill-opacity:1;stroke:#ff2c76;stroke-width:1;stroke-linecap:round;stroke-opacity:1" id="svg_194" d="m -112,-91.333336 h 60 v 20 h -60 v -8 -1 h -6 v 3 h -2 v -8 h 2 v 3 h 6 v -1 z"/><text style="font-size:10px;font-family:sans-serif;text-anchor:start;fill:#282828" id="svg_195" x="-120.5" y="-91.833"><tspan id="svg_196" x="-107.5" y="-77.833">4</tspan></text></g></g><g id="svg_197"><g id="svg_198" transform="matrix(1.5,0,0,1.5,546,220)"><path style="fill:#fe994f;fill-opacity:1;stroke:#e86b0e;stroke-width:1;stroke-linecap:round;stroke-opacity:1" id="svg_199" d="m -120,-83.333336 v -4 a 4,4 90 0 1 4,-4 h 4 v 2 h 10 v -2 h 9 10 4 a 4,4 90 0 1 4,4 v 4 4 4 a 4,4 90 0 1 -4,4 h -4 -10 -1 v 2 h -8 v -2 h -1 -4 a 5,5 90 0 0 -5,5 v 4 4 188.999996 4 a 5,5 90 0 0 5,5 h 4 v 2 h 10 v -2 h 8 v 6 6 4 a 4,4 90 0 1 -4,4 h -4 -9 -1 v 2 h -8 v -2 h -1 -4 a 4,4 90 0 1 -4,-4 v -4 z"/><text style="font-size:10px;font-family:sans-serif;text-anchor:start;fill:#282828" id="svg_200" x="-120.5" y="-91.833"><tspan id="svg_201" x="-115.5" y="-76.833">juntar</tspan></text></g></g><g id="svg_202"><g id="svg_203"><g id="svg_204" transform="matrix(1.5,0,0,1.5,560,252)"><path style="fill:#fe994f;fill-opacity:1;stroke:#e86b0e;stroke-width:1;stroke-linecap:round;stroke-opacity:1" id="svg_205" d="m -120,-83.333336 v -4 a 4,4 90 0 1 4,-4 h 4 v 2 h 10 v -2 h 9 60 4 a 4,4 90 0 1 4,4 v 4 h -4 v -3 h -4 v 10 h 4 v -3 h 4 v 4 a 4,4 90 0 1 -4,4 h -4 -60 -1 v 2 h -8 v -2 h -1 -4 a 5,5 90 0 0 -5,5 v 4 4 42 4 a 5,5 90 0 0 5,5.0000001 h 4 v 2 h 10 v -2 h 8 v 6 6 4 a 4,4 90 0 1 -4,3.9999999 h -4 -9 -1 v 2 h -8 v -2 h -1 -4 a 4,4 90 0 1 -4,-3.9999999 v -4 z"/><text style="font-size:10px;font-family:sans-serif;text-anchor:start;fill:#282828" id="svg_206" x="-120.5" y="-91.833"><tspan id="svg_207" x="-100.5" y="-76.833">nota</tspan></text><text style="font-size:6.66666651px;font-family:sans-serif;text-anchor:end;fill:#282828" id="svg_208" x="-120.5" y="-91.833"><tspan id="svg_209" x="-35.5" y="-79.833">valor</tspan></text></g></g><g id="svg_210" transform="matrix(0.5,0,0,0.5,560,256)"><g style="isolation:isolate" id="svg_211"><g id="g3047" data-name="レイヤー 2"><g id="g3045"><rect style="opacity:.4;mix-blend-mode:multiply;fill:#292929" id="svg_212" width="42" height="42" x="-361.5" y="-275.5" rx="5" ry="5"/><path style="fill:#fff" id="svg_213" d="m -330.94,-245.7 -4.17,-4.16 h 2.26 a 1.035,1.035 0 1 0 0,-2.07 h -4.71 a 1.08,1.08 0 0 0 -1.11,1 v 0 c 0,0 0,0 0,0.06 v 4.64 0 a 1.04,1.04 0 1 0 2.08,0 v -2.19 l 4.19,4.19 a 1,1 0 0 0 1.46,0 1,1 0 0 0 0,-1.47 z"/><path style="fill:#fff" id="svg_214" d="m -342.33,-250.9 a 1.08,1.08 0 0 0 -1.11,-1 h -4.71 a 1.035,1.035 0 1 0 0,2.07 h 2.25 l -4.16,4.13 a 1.039447,1.039447 0 0 0 1.47,1.47 l 4.18,-4.19 v 2.26 a 1.04,1.04 0 1 0 2.08,0 v -4.64 c 0,0 0,0 0,-0.06 a 0.08,0.08 0 0 1 0,-0.04 z"/><path style="fill:#fff" id="svg_215" d="m -337.56,-255 h 4.7 a 1.04,1.04 0 1 0 0,-2.08 h -2.25 l 4.17,-4.16 a 1,1 0 0 0 0,-1.47 1,1 0 0 0 -1.46,0 l -4.19,4.21 v -2.28 a 1.04,1.04 0 1 0 -2.08,0 v 4.64 a 0.43000001,0.43000001 0 0 0 0,0.05 v 0.05 a 1.09,1.09 0 0 0 1.11,1.04 z"/><path style="fill:#fff" id="svg_216" d="m -343.37,-261.88 a 1.08,1.08 0 0 0 -1,1.09 v 2.29 l -4.18,-4.19 a 1,1 0 0 0 -1.47,0 1,1 0 0 0 0,1.46 l 4.16,4.17 h -2.29 a 1.04,1.04 0 1 0 0,2.08 h 4.71 a 1.09,1.09 0 0 0 1.11,-1 c 0,0 0,0 0,-0.06 v -4.75 a 1.0700001,1.0700001 0 0 0 -1.04,-1.09 z"/></g></g></g></g></g><g id="svg_217"><g id="svg_218" transform="matrix(1.5,0,0,1.5,692,252)"><path style="fill:#ff5293;fill-opacity:1;stroke:#ff2c76;stroke-width:1;stroke-linecap:round;stroke-opacity:1" id="svg_219" d="m -112,-83.333336 v -4 a 4,4 90 0 1 4,-4 h 4 10 30 4 a 4,4 90 0 1 4,4 v 4 h -4 v -3 h -4 v 10 h 4 v -3 h 4 v 17 h -4 v -3 h -4 v 10 h 4 v -3 h 4 v 4 a 4,4 90 0 1 -4,4 h -4 -30 -10 -4 a 4,4 90 0 1 -4,-4 v -4 -21 -1 h -6 v 3 h -2 v -8 h 2 v 3 h 6 z"/><text style="font-size:9px;font-family:sans-serif;text-anchor:end;fill:#282828" id="svg_220" x="-120.5" y="-91.833"><tspan id="svg_221" x="-66.5" y="-68.833">➗</tspan></text></g></g><g id="svg_226"><g id="svg_227" transform="matrix(1.5,0,0,1.5,778,252)"><path style="fill:#ff5293;fill-opacity:1;stroke:#ff2c76;stroke-width:1;stroke-linecap:round;stroke-opacity:1" id="svg_228" d="m -112,-91.333336 h 60 v 20 h -60 v -8 -1 h -6 v 3 h -2 v -8 h 2 v 3 h 6 v -1 z"/><text style="font-size:10px;font-family:sans-serif;text-anchor:start;fill:#282828" id="svg_229" x="-120.5" y="-91.833"><tspan id="svg_230" x="-107.5" y="-77.833">1</tspan></text></g></g><g id="svg_231"><g id="svg_232" transform="matrix(1.5,0,0,1.5,778,284)"><path style="fill:#ff5293;fill-opacity:1;stroke:#ff2c76;stroke-width:1;stroke-linecap:round;stroke-opacity:1" id="svg_233" d="m -112,-91.333336 h 60 v 20 h -60 v -8 -1 h -6 v 3 h -2 v -8 h 2 v 3 h 6 v -1 z"/><text style="font-size:10px;font-family:sans-serif;text-anchor:start;fill:#282828" id="svg_234" x="-120.5" y="-91.833"><tspan id="svg_235" x="-107.5" y="-77.833">8</tspan></text></g></g><g id="svg_236"><g id="svg_237" transform="matrix(1.5,0,0,1.5,574,284)"><path style="fill:#b0b0b0;fill-opacity:1;stroke:#a0a0a0;stroke-width:1;stroke-linecap:round;stroke-opacity:1" id="svg_238" d="m -120,-83.333336 v -4 a 4,4 90 0 1 4,-4 h 4 v 2 h 10 v -2 h 20 4 a 4,4 90 0 1 4,4 v 4 4 4 a 4,4 90 0 1 -4,4 h -4 -20 -1 v 2 h -8 v -2 h -1 -4 a 4,4 90 0 1 -4,-4 v -4 z"/><text style="font-size:10px;font-family:sans-serif;text-anchor:end;fill:#282828" id="svg_239" x="-120.5" y="-91.833"><tspan id="svg_240" x="-84.5" y="-77.833">↓</tspan></text></g></g><g id="svg_241" transform="translate(66)"><g id="svg_242" transform="matrix(1.5,0,0,1.5,574,316)"><path style="fill:#77c428;fill-opacity:1;stroke:#57ad02;stroke-width:1;stroke-linecap:round;stroke-opacity:1" id="svg_243" d="m -164,-83.333336 v -4 c 0,-2.209139 1.79086,-4 4,-4 h 4 v 2 h 10 v -2 h 74 4 c 2.209139,0 4,1.790861 4,4 v 4 h -4 v -3 h -4 v 10 h 4 v -3 h 4 v 17 h -4 v -3 h -4 v 10 h 4 v -3 h 4 v 4 c 0,2.209139 -1.790861,4 -4,4 h -4 -74 -1 v 2 h -8 v -2 h -1 -4 c -2.20914,0 -4.69859,-1.904227 -4,-4 v -4 -21 z"/><text style="font-size:10px;font-family:sans-serif;text-anchor:end;fill:#282828" id="svg_244" x="-120.5" y="-91.833"><tspan id="svg_245" x="-74.5" y="-67.833">determinar o tom</tspan></text><text style="font-size:6.66666651px;font-family:sans-serif;text-anchor:end;fill:#282828" id="svg_246" x="-120.5" y="-91.833"><tspan id="svg_247" x="-74.5" y="-79.833">nome</tspan></text><text style="font-size:6.66666651px;font-family:sans-serif;text-anchor:end;fill:#282828" id="svg_248" x="-120.5" y="-91.833"><tspan id="svg_249" x="-74.5" y="-58.833">octave</tspan></text></g></g><g id="svg_250" transform="translate(66)"><g id="svg_251" transform="matrix(1.5,0,0,1.5,648,316)"><path style="fill:#77c428;fill-opacity:1;stroke:#57ad02;stroke-width:1;stroke-linecap:round;stroke-opacity:1" id="svg_252" d="m -112,-91.333336 h 60 v 20 h -60 v -8 -1 h -6 v 3 h -2 v -8 h 2 v 3 h 6 v -1 z"/><text style="font-size:10px;font-family:sans-serif;text-anchor:start;fill:#282828" id="svg_253" x="-120.5" y="-91.833"><tspan id="svg_254" x="-107.5" y="-77.833">sol</tspan></text></g></g><g id="svg_255" transform="translate(66)"><g id="svg_256" transform="matrix(1.5,0,0,1.5,648,348)"><path style="fill:#ff5293;fill-opacity:1;stroke:#ff2c76;stroke-width:1;stroke-linecap:round;stroke-opacity:1" id="svg_257" d="m -112,-91.333336 h 60 v 20 h -60 v -8 -1 h -6 v 3 h -2 v -8 h 2 v 3 h 6 v -1 z"/><text style="font-size:10px;font-family:sans-serif;text-anchor:start;fill:#282828" id="svg_258" x="-120.5" y="-91.833"><tspan id="svg_259" x="-107.5" y="-77.833">4</tspan></text></g></g><g id="svg_260"><g id="svg_261"><g id="svg_262" transform="matrix(1.5,0,0,1.5,560,410)"><path style="fill:#fe994f;fill-opacity:1;stroke:#e86b0e;stroke-width:1;stroke-linecap:round;stroke-opacity:1" id="svg_263" d="m -120,-83.333336 v -4 a 4,4 90 0 1 4,-4 h 4 v 2 h 10 v -2 h 9 60 4 a 4,4 90 0 1 4,4 v 4 h -4 v -3 h -4 v 10 h 4 v -3 h 4 v 4 a 4,4 90 0 1 -4,4 h -4 -60 -1 v 2 h -8 v -2 h -1 -4 a 5,5 90 0 0 -5,5 v 4 4 42 4 a 5,5 90 0 0 5,5.0000001 h 4 v 2 h 10 v -2 h 8 v 6 6 4 a 4,4 90 0 1 -4,3.9999999 h -4 -9 -1 v 2 h -8 v -2 h -1 -4 a 4,4 90 0 1 -4,-3.9999999 v -4 z"/><text style="font-size:10px;font-family:sans-serif;text-anchor:start;fill:#282828" id="svg_264" x="-120.5" y="-91.833"><tspan id="svg_265" x="-100.5" y="-76.833">nota</tspan></text><text style="font-size:6.66666651px;font-family:sans-serif;text-anchor:end;fill:#282828" id="svg_266" x="-120.5" y="-91.833"><tspan id="svg_267" x="-35.5" y="-79.833">valor</tspan></text></g></g><g id="svg_268" transform="matrix(0.5,0,0,0.5,560,414)"><g style="isolation:isolate" id="svg_269"><g id="g3107" data-name="レイヤー 2"><g id="g3105"><rect style="opacity:.4;mix-blend-mode:multiply;fill:#292929" id="svg_270" width="42" height="42" x="-361.5" y="-275.5" rx="5" ry="5"/><path style="fill:#fff" id="svg_271" d="m -330.94,-245.7 -4.17,-4.16 h 2.26 a 1.035,1.035 0 1 0 0,-2.07 h -4.71 a 1.08,1.08 0 0 0 -1.11,1 v 0 c 0,0 0,0 0,0.06 v 4.64 0 a 1.04,1.04 0 1 0 2.08,0 v -2.19 l 4.19,4.19 a 1,1 0 0 0 1.46,0 1,1 0 0 0 0,-1.47 z"/><path style="fill:#fff" id="svg_272" d="m -342.33,-250.9 a 1.08,1.08 0 0 0 -1.11,-1 h -4.71 a 1.035,1.035 0 1 0 0,2.07 h 2.25 l -4.16,4.13 a 1.039447,1.039447 0 0 0 1.47,1.47 l 4.18,-4.19 v 2.26 a 1.04,1.04 0 1 0 2.08,0 v -4.64 c 0,0 0,0 0,-0.06 a 0.08,0.08 0 0 1 0,-0.04 z"/><path style="fill:#fff" id="svg_273" d="m -337.56,-255 h 4.7 a 1.04,1.04 0 1 0 0,-2.08 h -2.25 l 4.17,-4.16 a 1,1 0 0 0 0,-1.47 1,1 0 0 0 -1.46,0 l -4.19,4.21 v -2.28 a 1.04,1.04 0 1 0 -2.08,0 v 4.64 a 0.43000001,0.43000001 0 0 0 0,0.05 v 0.05 a 1.09,1.09 0 0 0 1.11,1.04 z"/><path style="fill:#fff" id="svg_274" d="m -343.37,-261.88 a 1.08,1.08 0 0 0 -1,1.09 v 2.29 l -4.18,-4.19 a 1,1 0 0 0 -1.47,0 1,1 0 0 0 0,1.46 l 4.16,4.17 h -2.29 a 1.04,1.04 0 1 0 0,2.08 h 4.71 a 1.09,1.09 0 0 0 1.11,-1 c 0,0 0,0 0,-0.06 v -4.75 a 1.0700001,1.0700001 0 0 0 -1.04,-1.09 z"/></g></g></g></g></g><g id="svg_275"><g id="svg_276" transform="matrix(1.5,0,0,1.5,692,410)"><path style="fill:#ff5293;fill-opacity:1;stroke:#ff2c76;stroke-width:1;stroke-linecap:round;stroke-opacity:1" id="svg_277" d="m -112,-83.333336 v -4 a 4,4 90 0 1 4,-4 h 4 10 30 4 a 4,4 90 0 1 4,4 v 4 h -4 v -3 h -4 v 10 h 4 v -3 h 4 v 17 h -4 v -3 h -4 v 10 h 4 v -3 h 4 v 4 a 4,4 90 0 1 -4,4 h -4 -30 -10 -4 a 4,4 90 0 1 -4,-4 v -4 -21 -1 h -6 v 3 h -2 v -8 h 2 v 3 h 6 z"/><text style="font-size:9px;font-family:sans-serif;text-anchor:end;fill:#282828" id="svg_278" x="-120.5" y="-91.833"><tspan id="svg_279" x="-66.5" y="-68.833">➗</tspan></text></g></g><g id="svg_284"><g id="svg_285" transform="matrix(1.5,0,0,1.5,778,410)"><path style="fill:#ff5293;fill-opacity:1;stroke:#ff2c76;stroke-width:1;stroke-linecap:round;stroke-opacity:1" id="svg_286" d="m -112,-91.333336 h 60 v 20 h -60 v -8 -1 h -6 v 3 h -2 v -8 h 2 v 3 h 6 v -1 z"/><text style="font-size:10px;font-family:sans-serif;text-anchor:start;fill:#282828" id="svg_287" x="-120.5" y="-91.833"><tspan id="svg_288" x="-107.5" y="-77.833">1</tspan></text></g></g><g id="svg_289"><g id="svg_290" transform="matrix(1.5,0,0,1.5,778,442)"><path style="fill:#ff5293;fill-opacity:1;stroke:#ff2c76;stroke-width:1;stroke-linecap:round;stroke-opacity:1" id="svg_291" d="m -112,-91.333336 h 60 v 20 h -60 v -8 -1 h -6 v 3 h -2 v -8 h 2 v 3 h 6 v -1 z"/><text style="font-size:10px;font-family:sans-serif;text-anchor:start;fill:#282828" id="svg_292" x="-120.5" y="-91.833"><tspan id="svg_293" x="-107.5" y="-77.833">4</tspan></text></g></g><g id="svg_294"><g id="svg_295" transform="matrix(1.5,0,0,1.5,574,442)"><path style="fill:#b0b0b0;fill-opacity:1;stroke:#a0a0a0;stroke-width:1;stroke-linecap:round;stroke-opacity:1" id="svg_296" d="m -120,-83.333336 v -4 a 4,4 90 0 1 4,-4 h 4 v 2 h 10 v -2 h 20 4 a 4,4 90 0 1 4,4 v 4 4 4 a 4,4 90 0 1 -4,4 h -4 -20 -1 v 2 h -8 v -2 h -1 -4 a 4,4 90 0 1 -4,-4 v -4 z"/><text style="font-size:10px;font-family:sans-serif;text-anchor:end;fill:#282828" id="svg_297" x="-120.5" y="-91.833"><tspan id="svg_298" x="-84.5" y="-77.833">↓</tspan></text></g></g><g id="svg_299" transform="translate(66)"><g id="svg_300" transform="matrix(1.5,0,0,1.5,574,474)"><path style="fill:#77c428;fill-opacity:1;stroke:#57ad02;stroke-width:1;stroke-linecap:round;stroke-opacity:1" id="svg_301" d="m -164,-83.333336 v -4 c 0,-2.209139 1.79086,-4 4,-4 h 4 v 2 h 10 v -2 h 74 4 c 2.209139,0 4,1.790861 4,4 v 4 h -4 v -3 h -4 v 10 h 4 v -3 h 4 v 17 h -4 v -3 h -4 v 10 h 4 v -3 h 4 v 4 c 0,2.209139 -1.790861,4 -4,4 h -4 -74 -1 v 2 h -8 v -2 h -1 -4 c -2.20914,0 -4,-1.790861 -4,-4 v -4 -21 z"/><text style="font-size:10px;font-family:sans-serif;text-anchor:end;fill:#282828" id="svg_302" x="-120.5" y="-91.833"><tspan id="svg_303" x="-74.5" y="-67.833">determinar o tom</tspan></text><text style="font-size:6.66666651px;font-family:sans-serif;text-anchor:end;fill:#282828" id="svg_304" x="-120.5" y="-91.833"><tspan id="svg_305" x="-74.5" y="-79.833">nome</tspan></text><text style="font-size:6.66666651px;font-family:sans-serif;text-anchor:end;fill:#282828" id="svg_306" x="-120.5" y="-91.833"><tspan id="svg_307" x="-74.5" y="-58.833">octave</tspan></text></g></g><g id="svg_308" transform="translate(66)"><g id="svg_309" transform="matrix(1.5,0,0,1.5,648,474)"><path style="fill:#77c428;fill-opacity:1;stroke:#57ad02;stroke-width:1;stroke-linecap:round;stroke-opacity:1" id="svg_310" d="m -112,-91.333336 h 60 v 20 h -60 v -8 -1 h -6 v 3 h -2 v -8 h 2 v 3 h 6 v -1 z"/><text style="font-size:10px;font-family:sans-serif;text-anchor:start;fill:#282828" id="svg_311" x="-120.5" y="-91.833"><tspan id="svg_312" x="-107.5" y="-77.833">sol</tspan></text></g></g><g id="svg_313" transform="translate(66)"><g id="svg_314" transform="matrix(1.5,0,0,1.5,648,506)"><path style="fill:#ff5293;fill-opacity:1;stroke:#ff2c76;stroke-width:1;stroke-linecap:round;stroke-opacity:1" id="svg_315" d="m -112,-91.333336 h 60 v 20 h -60 v -8 -1 h -6 v 3 h -2 v -8 h 2 v 3 h 6 v -1 z"/><text style="font-size:10px;font-family:sans-serif;text-anchor:start;fill:#282828" id="svg_316" x="-120.5" y="-91.833"><tspan id="svg_317" x="-107.5" y="-77.833">4</tspan></text></g></g></svg>