<svg xmlns="http://www.w3.org/2000/svg" xmlns:svg="http://www.w3.org/2000/svg" id="svg7458" width="996.802" height="775.343" version="1.1"><metadata id="metadata7464"/><g id="g6822" transform="translate(0.33333,223.42154)"><g id="g6820" transform="scale(1.5)"><path id="path6814" d="m 0.5,14.5 v -4 a 4,4 90 0 1 4,-4 h 4 l 5,-6 5,6 h 9 30 4 a 4,4 90 0 1 4,4 v 4 4 4 a 4,4 90 0 1 -4,4 h -4 -30 -1 v 2 h -8 v -2 h -1 -4 a 5,5 90 0 0 -5,5 v 4 4 42 4 a 5,5 90 0 0 5,5 h 4 v 2 h 10 v -2 h 8 v 6 6 4 a 4,4 90 0 1 -4,4 h -4 -9 l -5,6 -5,-6 h -4 a 4,4 90 0 1 -4,-4 v -4 z" style="fill:#ffbf00;fill-opacity:1;stroke:#daaf30;stroke-width:1;stroke-linecap:round;stroke-opacity:1"/><text id="text6818" style="font-size:10px;font-family:sans-serif;text-anchor:start;fill:#000"><tspan id="tspan6816" x="5.333" y="21.5">iniciar</tspan></text></g></g><g id="g6836" transform="translate(17.5,42.921537)"><g id="g6834" transform="scale(1.5)"><path id="path6824" d="m 0.5,8.5 v -4 c 0,-2.209139 1.790861,-4 4,-4 h 4 v 2 h 10 v -2 h 9 45.480794 4 c 2.209139,0 4.698591,1.9042267 4,4 v 4 h -4 v -3 h -4 v 10 h 4 v -3 h 4 v 4 c 0,2.209139 -1.790861,4 -4,4 h -4 H 27.5 h -1 v 2 h -8 v -2 h -1 -4 c -2.761424,0 -5,2.238576 -5,5 v 4 4 21 4 c 0,2.761424 2.238576,5 5,5 h 4 v 2 h 10 v -2 h 8 v 6 6 4 c 0,2.209139 -1.790861,4 -4,4 h -4 -9 -1 v 2 h -8 v -2 h -1 -4 c -2.209139,0 -4,-1.790861 -4,-4 v -4 z" style="fill:#fe994f;fill-opacity:1;stroke:#e8680e;stroke-width:1;stroke-linecap:round;stroke-opacity:1"/><text id="text6828" style="font-size:10px;font-family:sans-serif;text-anchor:start;fill:#000"><tspan id="tspan6826" x="5.333" y="15.25">valor de nota</tspan></text></g></g><g id="g6854" transform="translate(127.72119,42.921537)"><g id="g6852" transform="scale(1.5)"><path id="path6838" d="m 8.5,8.5 v -4 a 4,4 90 0 1 4,-4 h 4 10 30 4 a 4,4 90 0 1 4,4 v 4 h -4 v -3 h -4 v 10 h 4 v -3 h 4 v 17 h -4 v -3 h -4 v 10 h 4 v -3 h 4 v 4 a 4,4 90 0 1 -4,4 h -4 -30 -10 -4 a 4,4 90 0 1 -4,-4 v -4 -21 -1 h -6 v 3 h -2 v -8 h 2 v 3 h 6 z" style="fill:#ff6ea1;fill-opacity:1;stroke:#ff2c76;stroke-width:1;stroke-linecap:round;stroke-opacity:1"/><text id="text6842" style="font-size:14px;font-family:sans-serif;text-anchor:end;fill:#000"><tspan id="tspan6840" x="54.333" y="23.8">/</tspan></text></g></g><g id="g6864" transform="translate(213.22119,42.921537)"><g id="g6862" transform="scale(1.5)"><path id="path6856" d="m 8.5,0.5 h 60 v 20 h -60 v -8 -1 h -6 v 3 h -2 v -8 h 2 v 3 h 6 v -1 z" style="fill:#ff6ea1;fill-opacity:1;stroke:#ff2c76;stroke-width:1;stroke-linecap:round;stroke-opacity:1"/><text id="text6860" style="font-size:10px;font-family:sans-serif;text-anchor:start;fill:#000"><tspan id="tspan6858" x="13.333" y="13.833">1</tspan></text></g></g><g id="g6874" transform="translate(213.22119,74.421537)"><g id="g6872" transform="scale(1.5)"><path id="path6866" d="m 8.5,0.5 h 60 v 20 h -60 v -8 -1 h -6 v 3 h -2 v -8 h 2 v 3 h 6 v -1 z" style="fill:#ff6ea1;fill-opacity:1;stroke:#ff2c76;stroke-width:1;stroke-linecap:round;stroke-opacity:1"/><text id="text6870" style="font-size:10px;font-family:sans-serif;text-anchor:start;fill:#000"><tspan id="tspan6868" x="13.333" y="13.833">1</tspan></text></g></g><g id="g6884" transform="translate(31,74.421537)"><g id="g6882" transform="scale(1.5)"><path id="path6876" d="m 0.5,8.5 v -4 a 4,4 90 0 1 4,-4 h 4 v 2 h 10 v -2 h 20 4 a 4,4 90 0 1 4,4 v 4 4 4 a 4,4 90 0 1 -4,4 h -4 -20 -1 v 2 h -8 v -2 h -1 -4 a 4,4 90 0 1 -4,-4 v -4 z" style="fill:#c4c4c4;fill-opacity:1;stroke:#000;stroke-width:1;stroke-linecap:round;stroke-opacity:1"/><text id="text6880" style="font-size:10px;font-family:sans-serif;text-anchor:end;fill:#000"><tspan id="tspan6878" x="36.333" y="13.5">↓</tspan></text></g></g><g id="g6894" transform="translate(31,105.92154)"><g id="g6892" transform="scale(1.5)"><path id="path6886" d="m 0.5,8.5 v -4 a 4,4 90 0 1 4,-4 h 4 v 2 h 10 v -2 h 31.12793 4 a 4,4 90 0 1 4,4 v 4 4 4 a 4,4 90 0 1 -4,4 h -4 H 18.5 h -1 v 2 h -8 v -2 h -1 -4 a 4,4 90 0 1 -4,-4 v -4 z" style="fill:#fe994f;fill-opacity:1;stroke:#e8680e;stroke-width:1;stroke-linecap:round;stroke-opacity:1"/><text id="text6890" style="font-size:10px;font-family:sans-serif;text-anchor:end;fill:#000"><tspan id="tspan6888" x="47.461" y="13.5">silêncio</tspan></text></g></g><g id="g6908" transform="translate(4,2.4215375)"><g id="g6906" transform="scale(1.5)"><path id="path6896" d="m 0.5,14.5 v -4 a 4,4 90 0 1 4,-4 h 4 l 5,-6 5,6 h 9 35 4 a 4,4 90 0 1 4,4 v 4 h -4 v -3 h -4 v 10 h 4 v -3 h 4 v 4 a 4,4 90 0 1 -4,4 h -4 -35 -1 v 2 h -8 v -2 h -1 -4 a 5,5 90 0 0 -5,5 v 4 4 63 4 a 5,5 90 0 0 5,5 h 4 v 2 h 10 v -2 h 8 v 6 6 4 a 4,4 90 0 1 -4,4 h -4 -9 l -5,6 -5,-6 h -4 a 4,4 90 0 1 -4,-4 v -4 z" style="fill:#ffbf00;fill-opacity:1;stroke:#daaf30;stroke-width:1;stroke-linecap:round;stroke-opacity:1"/><text id="text6900" style="font-size:10px;font-family:sans-serif;text-anchor:start;fill:#000"><tspan id="tspan6898" x="5.333" y="21.5">ação</tspan></text></g></g><g id="g6918" transform="translate(98.5,11.421537)"><g id="g6916" transform="scale(1.5)"><path id="path6910" d="m 8.5,0.5 h 60 v 20 h -60 v -8 -1 h -6 v 3 h -2 v -8 h 2 v 3 h 6 v -1 z" style="fill:#ff6648;fill-opacity:1;stroke:#ea4326;stroke-width:1;stroke-linecap:round;stroke-opacity:1"/><text id="text6914" style="font-size:10px;font-family:sans-serif;text-anchor:start;fill:#000"><tspan id="tspan6912" x="13.333" y="13.833">atraso</tspan></text></g></g><g id="g6932" transform="translate(13.83333,263.92154)"><g id="g6930" transform="scale(1.5)"><path id="path6920" d="m 0.5,8.5 v -4 a 4,4 90 0 1 4,-4 h 4 v 2 h 10 v -2 h 9 20 4 a 4,4 90 0 1 4,4 v 4 h -4 v -3 h -4 v 10 h 4 v -3 h 4 v 4 a 4,4 90 0 1 -4,4 h -4 -20 -1 v 2 h -8 v -2 h -1 -4 a 5,5 90 0 0 -5,5 v 4 4 4 a 5,5 90 0 0 5,5 h 4 v 2 h 10 v -2 h 8 v 6 6 4 a 4,4 90 0 1 -4,4 h -4 -9 -1 v 2 h -8 v -2 h -1 -4 a 4,4 90 0 1 -4,-4 v -4 z" style="fill:#e9a066;fill-opacity:1;stroke:#b7651a;stroke-width:1;stroke-linecap:round;stroke-opacity:1"/><text id="text6924" style="font-size:10px;font-family:sans-serif;text-anchor:start;fill:#000"><tspan id="tspan6922" x="5.333" y="15.25">repetir</tspan></text></g></g><g id="g6942" transform="translate(85.83333,263.92154)"><g id="g6940" transform="scale(1.5)"><path id="path6934" d="m 8.5,0.5 h 60 v 20 h -60 v -8 -1 h -6 v 3 h -2 v -8 h 2 v 3 h 6 v -1 z" style="fill:#ff6ea1;fill-opacity:1;stroke:#ff2c76;stroke-width:1;stroke-linecap:round;stroke-opacity:1"/><text id="text6938" style="font-size:10px;font-family:sans-serif;text-anchor:start;fill:#000"><tspan id="tspan6936" x="13.333" y="13.833">4</tspan></text></g></g><g id="g6952" transform="translate(27.33333,295.42154)"><g id="g6950" transform="scale(1.5)"><path id="path6944" d="m 0.5,8.5 v -4 a 4,4 90 0 1 4,-4 h 4 v 2 h 10 v -2 h 40 4 a 4,4 90 0 1 4,4 v 4 4 4 a 4,4 90 0 1 -4,4 h -4 -40 -1 v 2 h -8 v -2 h -1 -4 a 4,4 90 0 1 -4,-4 v -4 z" style="fill:#ffbf00;fill-opacity:1;stroke:#daaf30;stroke-width:1;stroke-linecap:round;stroke-opacity:1"/><text id="text6948" style="font-size:10px;font-family:sans-serif;text-anchor:end;fill:#000"><tspan id="tspan6946" x="56.333" y="13.5">ação</tspan></text></g></g><g id="g6962" transform="translate(365,0.42153745)"><g id="g6960" transform="scale(1.5)"><path id="path6954" d="m 0.5,14.5 v -4 a 4,4 90 0 1 4,-4 h 4 l 5,-6 5,6 h 9 30 4 a 4,4 90 0 1 4,4 v 4 4 4 a 4,4 90 0 1 -4,4 h -4 -30 -1 v 2 h -8 v -2 h -1 -4 a 5,5 90 0 0 -5,5 v 4 4 168 4 a 5,5 90 0 0 5,5 h 4 v 2 h 10 v -2 h 8 v 6 6 4 a 4,4 90 0 1 -4,4 h -4 -9 l -5,6 -5,-6 h -4 a 4,4 90 0 1 -4,-4 v -4 z" style="fill:#ffbf00;fill-opacity:1;stroke:#daaf30;stroke-width:1;stroke-linecap:round;stroke-opacity:1"/><text id="text6958" style="font-size:10px;font-family:sans-serif;text-anchor:start;fill:#000"><tspan id="tspan6956" x="5.333" y="21.5">iniciar</tspan></text></g></g><g id="g6976" transform="translate(378.5,40.921537)"><g id="g6974" transform="scale(1.5)"><path id="path6964" d="m 0.5,8.5 v -4 a 4,4 90 0 1 4,-4 h 4 v 2 h 10 v -2 h 9 20 4 a 4,4 90 0 1 4,4 v 4 h -4 v -3 h -4 v 10 h 4 v -3 h 4 v 4 a 4,4 90 0 1 -4,4 h -4 -20 -1 v 2 h -8 v -2 h -1 -4 a 5,5 90 0 0 -5,5 v 4 4 4 a 5,5 90 0 0 5,5 h 4 v 2 h 10 v -2 h 8 v 6 6 4 a 4,4 90 0 1 -4,4 h -4 -9 -1 v 2 h -8 v -2 h -1 -4 a 4,4 90 0 1 -4,-4 v -4 z" style="fill:#e9a066;fill-opacity:1;stroke:#b7651a;stroke-width:1;stroke-linecap:round;stroke-opacity:1"/><text id="text6968" style="font-size:10px;font-family:sans-serif;text-anchor:start;fill:#000"><tspan id="tspan6966" x="5.333" y="15.25">repetir</tspan></text></g></g><g id="g6986" transform="translate(450.5,40.921537)"><g id="g6984" transform="scale(1.5)"><path id="path6978" d="m 8.5,0.5 h 60 v 20 h -60 v -8 -1 h -6 v 3 h -2 v -8 h 2 v 3 h 6 v -1 z" style="fill:#ff6ea1;fill-opacity:1;stroke:#ff2c76;stroke-width:1;stroke-linecap:round;stroke-opacity:1"/><text id="text6982" style="font-size:10px;font-family:sans-serif;text-anchor:start;fill:#000"><tspan id="tspan6980" x="13.333" y="13.833">2</tspan></text></g></g><g id="g6996" transform="translate(392,72.421537)"><g id="g6994" transform="scale(1.5)"><path id="path6988" d="m 0.5,8.5 v -4 a 4,4 90 0 1 4,-4 h 4 v 2 h 10 v -2 h 40 4 a 4,4 90 0 1 4,4 v 4 4 4 a 4,4 90 0 1 -4,4 h -4 -40 -1 v 2 h -8 v -2 h -1 -4 a 4,4 90 0 1 -4,-4 v -4 z" style="fill:#ffbf00;fill-opacity:1;stroke:#daaf30;stroke-width:1;stroke-linecap:round;stroke-opacity:1"/><text id="text6992" style="font-size:10px;font-family:sans-serif;text-anchor:end;fill:#000"><tspan id="tspan6990" x="56.333" y="13.5">atraso</tspan></text></g></g><g id="g7010" transform="translate(378.5,135.42154)"><g id="g7008" transform="scale(1.5)"><path id="path6998" d="m 0.5,8.5 v -4 c 0,-2.209139 1.790861,-4 4,-4 h 4 v 2 h 10 v -2 h 9 109.93392 4 c 2.20914,0 4.69859,1.9042267 4,4 v 4 h -4 v -3 h -4 v 10 h 4 v -3 h 4 v 4 c 0,2.209139 -1.79086,4 -4,4 h -4 H 27.5 h -1 v 2 h -8 v -2 h -1 -4 c -2.761424,0 -5,2.238576 -5,5 v 4 4 63 4 c 0,2.76142 2.238576,5 5,5 h 4 v 2 h 10 v -2 h 8 v 6 6 4 c 0,2.20914 -1.790861,4 -4,4 h -4 -9 -1 v 2 h -8 v -2 h -1 -4 c -2.209139,0 -4,-1.79086 -4,-4 v -4 z" style="fill:#7cd622;fill-opacity:1;stroke:#57ad02;stroke-width:1;stroke-linecap:round;stroke-opacity:1"/><text id="text7002" style="font-size:10px;font-family:sans-serif;text-anchor:start;fill:#000"><tspan id="tspan7000" x="5.333" y="15.25">transposição de semi-tom</tspan></text></g></g><g id="g7028" transform="translate(585.40088,135.42154)"><g id="g7026" transform="scale(1.5)"><path id="path7012" d="m 8.5,8.5 v -4 a 4,4 90 0 1 4,-4 h 4 10 30 4 a 4,4 90 0 1 4,4 v 4 h -4 v -3 h -4 v 10 h 4 v -3 h 4 v 17 h -4 v -3 h -4 v 10 h 4 v -3 h 4 v 4 a 4,4 90 0 1 -4,4 h -4 -30 -10 -4 a 4,4 90 0 1 -4,-4 v -4 -21 -1 h -6 v 3 h -2 v -8 h 2 v 3 h 6 z" style="fill:#ff6ea1;fill-opacity:1;stroke:#ff2c76;stroke-width:1;stroke-linecap:round;stroke-opacity:1"/><text id="text7016" style="font-size:14px;font-family:sans-serif;text-anchor:end;fill:#000"><tspan id="tspan7014" x="54.333" y="23.8">+</tspan></text></g></g><g id="g7038" transform="translate(670.90088,135.42154)"><g id="g7036" transform="scale(1.5)"><path id="path7030" d="m 8.5,0.5 h 60 v 20 h -60 v -8 -1 h -6 v 3 h -2 v -8 h 2 v 3 h 6 v -1 z" style="fill:#ff6ea1;fill-opacity:1;stroke:#ff2c76;stroke-width:1;stroke-linecap:round;stroke-opacity:1"/><text id="text7034" style="font-size:10px;font-family:sans-serif;text-anchor:start;fill:#000"><tspan id="tspan7032" x="13.333" y="13.833">0</tspan></text></g></g><g id="g7056" transform="translate(670.90088,166.92154)"><g id="g7054" transform="scale(1.5)"><path id="path7040" d="m 8.5,8.5 v -4 a 4,4 90 0 1 4,-4 h 4 10 30 4 a 4,4 90 0 1 4,4 v 4 h -4 v -3 h -4 v 10 h 4 v -3 h 4 v 17 h -4 v -3 h -4 v 10 h 4 v -3 h 4 v 4 a 4,4 90 0 1 -4,4 h -4 -30 -10 -4 a 4,4 90 0 1 -4,-4 v -4 -21 -1 h -6 v 3 h -2 v -8 h 2 v 3 h 6 z" style="fill:#ff6ea1;fill-opacity:1;stroke:#ff2c76;stroke-width:1;stroke-linecap:round;stroke-opacity:1"/><text id="text7044" style="font-size:14px;font-family:sans-serif;text-anchor:end;fill:#000"><tspan id="tspan7042" x="54.333" y="23.8">×</tspan></text></g></g><g id="g7066" transform="translate(756.40088,166.92154)"><g id="g7064" transform="scale(1.5)"><path id="path7058" d="m 8.5,0.5 h 60 v 20 h -60 v -8 -1 h -6 v 3 h -2 v -8 h 2 v 3 h 6 v -1 z" style="fill:#ff6ea1;fill-opacity:1;stroke:#ff2c76;stroke-width:1;stroke-linecap:round;stroke-opacity:1"/><text id="text7062" style="font-size:10px;font-family:sans-serif;text-anchor:start;fill:#000"><tspan id="tspan7060" x="13.333" y="13.833">-1</tspan></text></g></g><g id="g7076" transform="translate(756.40088,198.42154)"><g id="g7074" transform="scale(1.5)"><path id="path7068" d="m 8.5,0.5 h 60 v 20 h -60 v -8 -1 h -6 v 3 h -2 v -8 h 2 v 3 h 6 v -1 z" style="fill:#ff6ea1;fill-opacity:1;stroke:#ff2c76;stroke-width:1;stroke-linecap:round;stroke-opacity:1"/><text id="text7072" style="font-size:10px;font-family:sans-serif;text-anchor:start;fill:#000"><tspan id="tspan7070" x="13.333" y="13.833">12</tspan></text></g></g><g id="g7086" transform="translate(392,166.92154)"><g id="g7084" transform="scale(1.5)"><path id="path7078" d="m 0.5,8.5 v -4 a 4,4 90 0 1 4,-4 h 4 v 2 h 10 v -2 h 20 4 a 4,4 90 0 1 4,4 v 4 4 4 a 4,4 90 0 1 -4,4 h -4 -20 -1 v 2 h -8 v -2 h -1 -4 a 4,4 90 0 1 -4,-4 v -4 z" style="fill:#c4c4c4;fill-opacity:1;stroke:#000;stroke-width:1;stroke-linecap:round;stroke-opacity:1"/><text id="text7082" style="font-size:10px;font-family:sans-serif;text-anchor:end;fill:#000"><tspan id="tspan7080" x="36.333" y="13.5">↓</tspan></text></g></g><g id="g7100" transform="translate(392,198.42154)"><g id="g7098" transform="scale(1.5)"><path id="path7088" d="m 0.5,8.5 v -4 a 4,4 90 0 1 4,-4 h 4 v 2 h 10 v -2 h 9 20 4 a 4,4 90 0 1 4,4 v 4 h -4 v -3 h -4 v 10 h 4 v -3 h 4 v 4 a 4,4 90 0 1 -4,4 h -4 -20 -1 v 2 h -8 v -2 h -1 -4 a 5,5 90 0 0 -5,5 v 4 4 4 a 5,5 90 0 0 5,5 h 4 v 2 h 10 v -2 h 8 v 6 6 4 a 4,4 90 0 1 -4,4 h -4 -9 -1 v 2 h -8 v -2 h -1 -4 a 4,4 90 0 1 -4,-4 v -4 z" style="fill:#e9a066;fill-opacity:1;stroke:#b7651a;stroke-width:1;stroke-linecap:round;stroke-opacity:1"/><text id="text7092" style="font-size:10px;font-family:sans-serif;text-anchor:start;fill:#000"><tspan id="tspan7090" x="5.333" y="15.25">repetir</tspan></text></g></g><g id="g7110" transform="translate(464,198.42154)"><g id="g7108" transform="scale(1.5)"><path id="path7102" d="m 8.5,0.5 h 60 v 20 h -60 v -8 -1 h -6 v 3 h -2 v -8 h 2 v 3 h 6 v -1 z" style="fill:#ff6ea1;fill-opacity:1;stroke:#ff2c76;stroke-width:1;stroke-linecap:round;stroke-opacity:1"/><text id="text7106" style="font-size:10px;font-family:sans-serif;text-anchor:start;fill:#000"><tspan id="tspan7104" x="13.333" y="13.833">4</tspan></text></g></g><g id="g7120" transform="translate(405.5,229.92154)"><g id="g7118" transform="scale(1.5)"><path id="path7112" d="m 0.5,8.5 v -4 a 4,4 90 0 1 4,-4 h 4 v 2 h 10 v -2 h 40 4 a 4,4 90 0 1 4,4 v 4 4 4 a 4,4 90 0 1 -4,4 h -4 -40 -1 v 2 h -8 v -2 h -1 -4 a 4,4 90 0 1 -4,-4 v -4 z" style="fill:#ffbf00;fill-opacity:1;stroke:#daaf30;stroke-width:1;stroke-linecap:round;stroke-opacity:1"/><text id="text7116" style="font-size:10px;font-family:sans-serif;text-anchor:end;fill:#000"><tspan id="tspan7114" x="56.333" y="13.5">ação</tspan></text></g></g><g id="g7130" transform="translate(0,410.42154)"><g id="g7128" transform="scale(1.5)"><path id="path7122" d="m 0.5,14.5 v -4 a 4,4 90 0 1 4,-4 h 4 l 5,-6 5,6 h 9 30 4 a 4,4 90 0 1 4,4 v 4 4 4 a 4,4 90 0 1 -4,4 h -4 -30 -1 v 2 h -8 v -2 h -1 -4 a 5,5 90 0 0 -5,5 v 4 4 168 4 a 5,5 90 0 0 5,5 h 4 v 2 h 10 v -2 h 8 v 6 6 4 a 4,4 90 0 1 -4,4 h -4 -9 l -5,6 -5,-6 h -4 a 4,4 90 0 1 -4,-4 v -4 z" style="fill:#ffbf00;fill-opacity:1;stroke:#daaf30;stroke-width:1;stroke-linecap:round;stroke-opacity:1"/><text id="text7126" style="font-size:10px;font-family:sans-serif;text-anchor:start;fill:#000"><tspan id="tspan7124" x="5.333" y="21.5">iniciar</tspan></text></g></g><g id="g7140" transform="translate(502,392.42154)"><g id="g7138" transform="scale(1.5)"><path id="path7132" d="m 0.5,14.5 v -4 a 4,4 90 0 1 4,-4 h 4 l 5,-6 5,6 h 9 30 4 a 4,4 90 0 1 4,4 v 4 4 4 a 4,4 90 0 1 -4,4 h -4 -30 -1 v 2 h -8 v -2 h -1 -4 a 5,5 90 0 0 -5,5 v 4 4 168 4 a 5,5 90 0 0 5,5 h 4 v 2 h 10 v -2 h 8 v 6 6 4 a 4,4 90 0 1 -4,4 h -4 -9 l -5,6 -5,-6 h -4 a 4,4 90 0 1 -4,-4 v -4 z" style="fill:#ffbf00;fill-opacity:1;stroke:#daaf30;stroke-width:1;stroke-linecap:round;stroke-opacity:1"/><text id="text7136" style="font-size:10px;font-family:sans-serif;text-anchor:start;fill:#000"><tspan id="tspan7134" x="5.333" y="21.5">iniciar</tspan></text></g></g><g id="g7154" transform="translate(13.5,450.92154)"><g id="g7152" transform="scale(1.5)"><path id="path7142" d="m 0.5,8.5 v -4 a 4,4 90 0 1 4,-4 h 4 v 2 h 10 v -2 h 9 20 4 a 4,4 90 0 1 4,4 v 4 h -4 v -3 h -4 v 10 h 4 v -3 h 4 v 4 a 4,4 90 0 1 -4,4 h -4 -20 -1 v 2 h -8 v -2 h -1 -4 a 5,5 90 0 0 -5,5 v 4 4 4 a 5,5 90 0 0 5,5 h 4 v 2 h 10 v -2 h 8 v 6 6 4 a 4,4 90 0 1 -4,4 h -4 -9 -1 v 2 h -8 v -2 h -1 -4 a 4,4 90 0 1 -4,-4 v -4 z" style="fill:#e9a066;fill-opacity:1;stroke:#b7651a;stroke-width:1;stroke-linecap:round;stroke-opacity:1"/><text id="text7146" style="font-size:10px;font-family:sans-serif;text-anchor:start;fill:#000"><tspan id="tspan7144" x="5.333" y="15.25">repetir</tspan></text></g></g><g id="g7164" transform="translate(85.5,450.92154)"><g id="g7162" transform="scale(1.5)"><path id="path7156" d="m 8.5,0.5 h 60 v 20 h -60 v -8 -1 h -6 v 3 h -2 v -8 h 2 v 3 h 6 v -1 z" style="fill:#ff6ea1;fill-opacity:1;stroke:#ff2c76;stroke-width:1;stroke-linecap:round;stroke-opacity:1"/><text id="text7160" style="font-size:10px;font-family:sans-serif;text-anchor:start;fill:#000"><tspan id="tspan7158" x="13.333" y="13.833">4</tspan></text></g></g><g id="g7174" transform="translate(27,482.42154)"><g id="g7172" transform="scale(1.5)"><path id="path7166" d="m 0.5,8.5 v -4 a 4,4 90 0 1 4,-4 h 4 v 2 h 10 v -2 h 40 4 a 4,4 90 0 1 4,4 v 4 4 4 a 4,4 90 0 1 -4,4 h -4 -40 -1 v 2 h -8 v -2 h -1 -4 a 4,4 90 0 1 -4,-4 v -4 z" style="fill:#ffbf00;fill-opacity:1;stroke:#daaf30;stroke-width:1;stroke-linecap:round;stroke-opacity:1"/><text id="text7170" style="font-size:10px;font-family:sans-serif;text-anchor:end;fill:#000"><tspan id="tspan7168" x="56.333" y="13.5">atraso</tspan></text></g></g><g id="g7188" transform="translate(13.5,545.42154)"><g id="g7186" transform="scale(1.5)"><path id="path7176" d="m 0.5,8.5 v -4 c 0,-2.209139 1.790861,-4 4,-4 h 4 v 2 h 10 v -2 h 9 109.93392 4 c 2.20914,0 4.69859,1.9042267 4,4 v 4 h -4 v -3 h -4 v 10 h 4 v -3 h 4 v 4 c 0,2.209139 -1.79086,4 -4,4 h -4 H 27.5 h -1 v 2 h -8 v -2 h -1 -4 c -2.761424,0 -5,2.238576 -5,5 v 4 4 63 4 c 0,2.76142 2.238576,5 5,5 h 4 v 2 h 10 v -2 h 8 v 6 6 4 c 0,2.20914 -1.790861,4 -4,4 h -4 -9 -1 v 2 h -8 v -2 h -1 -4 c -2.209139,0 -4,-1.79086 -4,-4 v -4 z" style="fill:#7cd622;fill-opacity:1;stroke:#57ad02;stroke-width:1;stroke-linecap:round;stroke-opacity:1"/><text id="text7180" style="font-size:10px;font-family:sans-serif;text-anchor:start;fill:#000"><tspan id="tspan7178" x="5.333" y="15.25">transposição de semi-tom</tspan></text></g></g><g id="g7206" transform="translate(220.40088,545.42154)"><g id="g7204" transform="scale(1.5)"><path id="path7190" d="m 8.5,8.5 v -4 a 4,4 90 0 1 4,-4 h 4 10 30 4 a 4,4 90 0 1 4,4 v 4 h -4 v -3 h -4 v 10 h 4 v -3 h 4 v 17 h -4 v -3 h -4 v 10 h 4 v -3 h 4 v 4 a 4,4 90 0 1 -4,4 h -4 -30 -10 -4 a 4,4 90 0 1 -4,-4 v -4 -21 -1 h -6 v 3 h -2 v -8 h 2 v 3 h 6 z" style="fill:#ff6ea1;fill-opacity:1;stroke:#ff2c76;stroke-width:1;stroke-linecap:round;stroke-opacity:1"/><text id="text7194" style="font-size:14px;font-family:sans-serif;text-anchor:end;fill:#000"><tspan id="tspan7192" x="54.333" y="23.8">+</tspan></text></g></g><g id="g7216" transform="translate(305.90088,545.42154)"><g id="g7214" transform="scale(1.5)"><path id="path7208" d="m 8.5,0.5 h 60 v 20 h -60 v -8 -1 h -6 v 3 h -2 v -8 h 2 v 3 h 6 v -1 z" style="fill:#ff6ea1;fill-opacity:1;stroke:#ff2c76;stroke-width:1;stroke-linecap:round;stroke-opacity:1"/><text id="text7212" style="font-size:10px;font-family:sans-serif;text-anchor:start;fill:#000"><tspan id="tspan7210" x="13.333" y="13.833">0</tspan></text></g></g><g id="g7234" transform="translate(305.90088,576.92154)"><g id="g7232" transform="scale(1.5)"><path id="path7218" d="m 8.5,8.5 v -4 a 4,4 90 0 1 4,-4 h 4 10 30 4 a 4,4 90 0 1 4,4 v 4 h -4 v -3 h -4 v 10 h 4 v -3 h 4 v 17 h -4 v -3 h -4 v 10 h 4 v -3 h 4 v 4 a 4,4 90 0 1 -4,4 h -4 -30 -10 -4 a 4,4 90 0 1 -4,-4 v -4 -21 -1 h -6 v 3 h -2 v -8 h 2 v 3 h 6 z" style="fill:#ff6ea1;fill-opacity:1;stroke:#ff2c76;stroke-width:1;stroke-linecap:round;stroke-opacity:1"/><text id="text7222" style="font-size:14px;font-family:sans-serif;text-anchor:end;fill:#000"><tspan id="tspan7220" x="54.333" y="23.8">×</tspan></text></g></g><g id="g7244" transform="translate(391.40088,576.92154)"><g id="g7242" transform="scale(1.5)"><path id="path7236" d="m 8.5,0.5 h 60 v 20 h -60 v -8 -1 h -6 v 3 h -2 v -8 h 2 v 3 h 6 v -1 z" style="fill:#ff6ea1;fill-opacity:1;stroke:#ff2c76;stroke-width:1;stroke-linecap:round;stroke-opacity:1"/><text id="text7240" style="font-size:10px;font-family:sans-serif;text-anchor:start;fill:#000"><tspan id="tspan7238" x="13.333" y="13.833">1</tspan></text></g></g><g id="g7254" transform="translate(391.40088,608.42154)"><g id="g7252" transform="scale(1.5)"><path id="path7246" d="m 8.5,0.5 h 60 v 20 h -60 v -8 -1 h -6 v 3 h -2 v -8 h 2 v 3 h 6 v -1 z" style="fill:#ff6ea1;fill-opacity:1;stroke:#ff2c76;stroke-width:1;stroke-linecap:round;stroke-opacity:1"/><text id="text7250" style="font-size:10px;font-family:sans-serif;text-anchor:start;fill:#000"><tspan id="tspan7248" x="13.333" y="13.833">12</tspan></text></g></g><g id="g7264" transform="translate(27,576.92154)"><g id="g7262" transform="scale(1.5)"><path id="path7256" d="m 0.5,8.5 v -4 a 4,4 90 0 1 4,-4 h 4 v 2 h 10 v -2 h 20 4 a 4,4 90 0 1 4,4 v 4 4 4 a 4,4 90 0 1 -4,4 h -4 -20 -1 v 2 h -8 v -2 h -1 -4 a 4,4 90 0 1 -4,-4 v -4 z" style="fill:#c4c4c4;fill-opacity:1;stroke:#000;stroke-width:1;stroke-linecap:round;stroke-opacity:1"/><text id="text7260" style="font-size:10px;font-family:sans-serif;text-anchor:end;fill:#000"><tspan id="tspan7258" x="36.333" y="13.5">↓</tspan></text></g></g><g id="g7278" transform="translate(27,608.42154)"><g id="g7276" transform="scale(1.5)"><path id="path7266" d="m 0.5,8.5 v -4 a 4,4 90 0 1 4,-4 h 4 v 2 h 10 v -2 h 9 20 4 a 4,4 90 0 1 4,4 v 4 h -4 v -3 h -4 v 10 h 4 v -3 h 4 v 4 a 4,4 90 0 1 -4,4 h -4 -20 -1 v 2 h -8 v -2 h -1 -4 a 5,5 90 0 0 -5,5 v 4 4 4 a 5,5 90 0 0 5,5 h 4 v 2 h 10 v -2 h 8 v 6 6 4 a 4,4 90 0 1 -4,4 h -4 -9 -1 v 2 h -8 v -2 h -1 -4 a 4,4 90 0 1 -4,-4 v -4 z" style="fill:#e9a066;fill-opacity:1;stroke:#b7651a;stroke-width:1;stroke-linecap:round;stroke-opacity:1"/><text id="text7270" style="font-size:10px;font-family:sans-serif;text-anchor:start;fill:#000"><tspan id="tspan7268" x="5.333" y="15.25">repetir</tspan></text></g></g><g id="g7288" transform="translate(99,608.42154)"><g id="g7286" transform="scale(1.5)"><path id="path7280" d="m 8.5,0.5 h 60 v 20 h -60 v -8 -1 h -6 v 3 h -2 v -8 h 2 v 3 h 6 v -1 z" style="fill:#ff6ea1;fill-opacity:1;stroke:#ff2c76;stroke-width:1;stroke-linecap:round;stroke-opacity:1"/><text id="text7284" style="font-size:10px;font-family:sans-serif;text-anchor:start;fill:#000"><tspan id="tspan7282" x="13.333" y="13.833">4</tspan></text></g></g><g id="g7298" transform="translate(40.5,639.92154)"><g id="g7296" transform="scale(1.5)"><path id="path7290" d="m 0.5,8.5 v -4 a 4,4 90 0 1 4,-4 h 4 v 2 h 10 v -2 h 40 4 a 4,4 90 0 1 4,4 v 4 4 4 a 4,4 90 0 1 -4,4 h -4 -40 -1 v 2 h -8 v -2 h -1 -4 a 4,4 90 0 1 -4,-4 v -4 z" style="fill:#ffbf00;fill-opacity:1;stroke:#daaf30;stroke-width:1;stroke-linecap:round;stroke-opacity:1"/><text id="text7294" style="font-size:10px;font-family:sans-serif;text-anchor:end;fill:#000"><tspan id="tspan7292" x="56.333" y="13.5">ação</tspan></text></g></g><g id="g7312" transform="translate(515.5,432.84308)"><g id="g7310" transform="scale(1.5)"><path id="path7300" d="m 0.5,8.5 v -4 a 4,4 90 0 1 4,-4 h 4 v 2 h 10 v -2 h 9 20 4 a 4,4 90 0 1 4,4 v 4 h -4 v -3 h -4 v 10 h 4 v -3 h 4 v 4 a 4,4 90 0 1 -4,4 h -4 -20 -1 v 2 h -8 v -2 h -1 -4 a 5,5 90 0 0 -5,5 v 4 4 4 a 5,5 90 0 0 5,5 h 4 v 2 h 10 v -2 h 8 v 6 6 4 a 4,4 90 0 1 -4,4 h -4 -9 -1 v 2 h -8 v -2 h -1 -4 a 4,4 90 0 1 -4,-4 v -4 z" style="fill:#e9a066;fill-opacity:1;stroke:#b7651a;stroke-width:1;stroke-linecap:round;stroke-opacity:1"/><text id="text7304" style="font-size:10px;font-family:sans-serif;text-anchor:start;fill:#000"><tspan id="tspan7302" x="5.333" y="15.25">repetir</tspan></text></g></g><g id="g7322" transform="translate(587.5,432.84308)"><g id="g7320" transform="scale(1.5)"><path id="path7314" d="m 8.5,0.5 h 60 v 20 h -60 v -8 -1 h -6 v 3 h -2 v -8 h 2 v 3 h 6 v -1 z" style="fill:#ff6ea1;fill-opacity:1;stroke:#ff2c76;stroke-width:1;stroke-linecap:round;stroke-opacity:1"/><text id="text7318" style="font-size:10px;font-family:sans-serif;text-anchor:start;fill:#000"><tspan id="tspan7316" x="13.333" y="13.833">6</tspan></text></g></g><g id="g7332" transform="translate(529,464.34308)"><g id="g7330" transform="scale(1.5)"><path id="path7324" d="m 0.5,8.5 v -4 a 4,4 90 0 1 4,-4 h 4 v 2 h 10 v -2 h 40 4 a 4,4 90 0 1 4,4 v 4 4 4 a 4,4 90 0 1 -4,4 h -4 -40 -1 v 2 h -8 v -2 h -1 -4 a 4,4 90 0 1 -4,-4 v -4 z" style="fill:#ffbf00;fill-opacity:1;stroke:#daaf30;stroke-width:1;stroke-linecap:round;stroke-opacity:1"/><text id="text7328" style="font-size:10px;font-family:sans-serif;text-anchor:end;fill:#000"><tspan id="tspan7326" x="56.333" y="13.5">atraso</tspan></text></g></g><g id="g7346" transform="translate(515.5,527.34308)"><g id="g7344" transform="scale(1.5)"><path id="path7334" d="m 0.5,8.5 v -4 c 0,-2.209139 1.790861,-4 4,-4 h 4 v 2 h 10 v -2 h 9 109.93392 4 c 2.20914,0 4.69859,1.9042267 4,4 v 4 h -4 v -3 h -4 v 10 h 4 v -3 h 4 v 4 c 0,2.209139 -1.79086,4 -4,4 h -4 H 27.5 h -1 v 2 h -8 v -2 h -1 -4 c -2.761424,0 -5,2.238576 -5,5 v 4 4 63 4 c 0,2.76142 2.238576,5 5,5 h 4 v 2 h 10 v -2 h 8 v 6 6 4 c 0,2.20914 -1.790861,4 -4,4 h -4 -9 -1 v 2 h -8 v -2 h -1 -4 c -2.209139,0 -4,-1.79086 -4,-4 v -4 z" style="fill:#7cd622;fill-opacity:1;stroke:#57ad02;stroke-width:1;stroke-linecap:round;stroke-opacity:1"/><text id="text7338" style="font-size:10px;font-family:sans-serif;text-anchor:start;fill:#000"><tspan id="tspan7336" x="5.333" y="15.25">transposição de semi-tom</tspan></text></g></g><g id="g7364" transform="translate(722.5,527.34308)"><g id="g7362" transform="scale(1.5)"><path id="path7348" d="m 8.5,8.5 v -4 a 4,4 90 0 1 4,-4 h 4 10 30 4 a 4,4 90 0 1 4,4 v 4 h -4 v -3 h -4 v 10 h 4 v -3 h 4 v 17 h -4 v -3 h -4 v 10 h 4 v -3 h 4 v 4 a 4,4 90 0 1 -4,4 h -4 -30 -10 -4 a 4,4 90 0 1 -4,-4 v -4 -21 -1 h -6 v 3 h -2 v -8 h 2 v 3 h 6 z" style="fill:#ff6ea1;fill-opacity:1;stroke:#ff2c76;stroke-width:1;stroke-linecap:round;stroke-opacity:1"/><text id="text7352" style="font-size:14px;font-family:sans-serif;text-anchor:end;fill:#000"><tspan id="tspan7350" x="54.333" y="23.8">+</tspan></text></g></g><g id="g7374" transform="translate(808,527.34308)"><g id="g7372" transform="scale(1.5)"><path id="path7366" d="m 8.5,0.5 h 60 v 20 h -60 v -8 -1 h -6 v 3 h -2 v -8 h 2 v 3 h 6 v -1 z" style="fill:#ff6ea1;fill-opacity:1;stroke:#ff2c76;stroke-width:1;stroke-linecap:round;stroke-opacity:1"/><text id="text7370" style="font-size:10px;font-family:sans-serif;text-anchor:start;fill:#000"><tspan id="tspan7368" x="13.333" y="13.833">0</tspan></text></g></g><g id="g7392" transform="translate(808,558.84308)"><g id="g7390" transform="scale(1.5)"><path id="path7376" d="m 8.5,8.5 v -4 a 4,4 90 0 1 4,-4 h 4 10 30 4 a 4,4 90 0 1 4,4 v 4 h -4 v -3 h -4 v 10 h 4 v -3 h 4 v 17 h -4 v -3 h -4 v 10 h 4 v -3 h 4 v 4 a 4,4 90 0 1 -4,4 h -4 -30 -10 -4 a 4,4 90 0 1 -4,-4 v -4 -21 -1 h -6 v 3 h -2 v -8 h 2 v 3 h 6 z" style="fill:#ff6ea1;fill-opacity:1;stroke:#ff2c76;stroke-width:1;stroke-linecap:round;stroke-opacity:1"/><text id="text7380" style="font-size:14px;font-family:sans-serif;text-anchor:end;fill:#000"><tspan id="tspan7378" x="54.333" y="23.8">×</tspan></text></g></g><g id="g7402" transform="translate(893.30176,560.42154)"><g id="g7400" transform="scale(1.5)"><path id="path7394" d="m 8.5,0.5 h 60 v 20 h -60 v -8 -1 h -6 v 3 h -2 v -8 h 2 v 3 h 6 v -1 z" style="fill:#ff6ea1;fill-opacity:1;stroke:#ff2c76;stroke-width:1;stroke-linecap:round;stroke-opacity:1"/><text id="text7398" style="font-size:10px;font-family:sans-serif;text-anchor:start;fill:#000"><tspan id="tspan7396" x="13.333" y="13.833">-2</tspan></text></g></g><g id="g7412" transform="translate(893.30176,590.42154)"><g id="g7410" transform="scale(1.5)"><path id="path7404" d="m 8.5,0.5 h 60 v 20 h -60 v -8 -1 h -6 v 3 h -2 v -8 h 2 v 3 h 6 v -1 z" style="fill:#ff6ea1;fill-opacity:1;stroke:#ff2c76;stroke-width:1;stroke-linecap:round;stroke-opacity:1"/><text id="text7408" style="font-size:10px;font-family:sans-serif;text-anchor:start;fill:#000"><tspan id="tspan7406" x="13.333" y="13.833">12</tspan></text></g></g><g id="g7422" transform="translate(529,558.84308)"><g id="g7420" transform="scale(1.5)"><path id="path7414" d="m 0.5,8.5 v -4 a 4,4 90 0 1 4,-4 h 4 v 2 h 10 v -2 h 20 4 a 4,4 90 0 1 4,4 v 4 4 4 a 4,4 90 0 1 -4,4 h -4 -20 -1 v 2 h -8 v -2 h -1 -4 a 4,4 90 0 1 -4,-4 v -4 z" style="fill:#c4c4c4;fill-opacity:1;stroke:#000;stroke-width:1;stroke-linecap:round;stroke-opacity:1"/><text id="text7418" style="font-size:10px;font-family:sans-serif;text-anchor:end;fill:#000"><tspan id="tspan7416" x="36.333" y="13.5">↓</tspan></text></g></g><g id="g7436" transform="translate(529,590.34308)"><g id="g7434" transform="scale(1.5)"><path id="path7424" d="m 0.5,8.5 v -4 a 4,4 90 0 1 4,-4 h 4 v 2 h 10 v -2 h 9 20 4 a 4,4 90 0 1 4,4 v 4 h -4 v -3 h -4 v 10 h 4 v -3 h 4 v 4 a 4,4 90 0 1 -4,4 h -4 -20 -1 v 2 h -8 v -2 h -1 -4 a 5,5 90 0 0 -5,5 v 4 4 4 a 5,5 90 0 0 5,5 h 4 v 2 h 10 v -2 h 8 v 6 6 4 a 4,4 90 0 1 -4,4 h -4 -9 -1 v 2 h -8 v -2 h -1 -4 a 4,4 90 0 1 -4,-4 v -4 z" style="fill:#e9a066;fill-opacity:1;stroke:#b7651a;stroke-width:1;stroke-linecap:round;stroke-opacity:1"/><text id="text7428" style="font-size:10px;font-family:sans-serif;text-anchor:start;fill:#000"><tspan id="tspan7426" x="5.333" y="15.25">repetir</tspan></text></g></g><g id="g7446" transform="translate(601,590.34308)"><g id="g7444" transform="scale(1.5)"><path id="path7438" d="m 8.5,0.5 h 60 v 20 h -60 v -8 -1 h -6 v 3 h -2 v -8 h 2 v 3 h 6 v -1 z" style="fill:#ff6ea1;fill-opacity:1;stroke:#ff2c76;stroke-width:1;stroke-linecap:round;stroke-opacity:1"/><text id="text7442" style="font-size:10px;font-family:sans-serif;text-anchor:start;fill:#000"><tspan id="tspan7440" x="13.333" y="13.833">4</tspan></text></g></g><g id="g7456" transform="translate(542,621.84308)"><g id="g7454" transform="scale(1.5)"><path id="path7448" d="m 0.5,8.5 v -4 a 4,4 90 0 1 4,-4 h 4 v 2 h 10 v -2 h 40 4 a 4,4 90 0 1 4,4 v 4 4 4 a 4,4 90 0 1 -4,4 h -4 -40 -1 v 2 h -8 v -2 h -1 -4 a 4,4 90 0 1 -4,-4 v -4 z" style="fill:#ffbf00;fill-opacity:1;stroke:#daaf30;stroke-width:1;stroke-linecap:round;stroke-opacity:1"/><text id="text7452" style="font-size:10px;font-family:sans-serif;text-anchor:end;fill:#000"><tspan id="tspan7450" x="56.333" y="13.5">ação</tspan></text></g></g></svg>