<svg xmlns="http://www.w3.org/2000/svg" xmlns:svg="http://www.w3.org/2000/svg" id="svg2" width="55" height="55" version="1.0"><metadata id="metadata9"/><path style="fill:#fff;fill-opacity:1;stroke:none;stroke-width:2.29357791;stroke-linecap:square;stroke-miterlimit:4;stroke-dasharray:none;stroke-opacity:1" id="path2882" d="m 3.646789,25.665138 0,-7.339449 c -2e-7,-4.053467 3.2859835,-7.339451 7.33945,-7.339451 l 2.895004,0 0,3.669726 18.348625,0 0,-3.669726 11.783893,0 c 4.053467,0 7.33945,3.285984 7.33945,7.339451 l 0,7.339449 0,7.33945 c 0,4.053466 -3.285983,7.33945 -7.33945,7.33945 l -11.783893,0 -1.834863,0 0,3.669724 -14.678899,0 0,-3.669724 -1.834863,0 -2.895004,0 c -4.0534665,0 -7.3394502,-3.285984 -7.33945,-7.33945 z"/><g id="g1065" transform="matrix(0.83333334,0,0,0.83333334,-56.385745,-9.6794511)"><rect id="rect932" width="24" height="24" x="101.263" y="32.615" rx="2.857" ry="2.857" style="opacity:.4;isolation:isolate;mix-blend-mode:multiply;fill:#292929;stroke-width:.5714286"/><g id="g1048"><path style="isolation:isolate;fill:#fff" id="path934" d="m 123.12271,48.380509 v 0 a 1.06,1.06 0 0 0 -1,-1.1 1.08,1.08 0 0 0 -1,1.1 v 2.26 l -4.26,-4.19 a 1,1 0 0 0 -1.46,0 1,1 0 0 0 0,1.47 l 4.16,4.16 h -2.25 a 1.04,1.04 0 1 0 0,2.08 h 4.71 a 1.07,1.07 0 0 0 1.1,-1 z"/><path style="isolation:isolate;fill:#fff" id="path936" d="m 109.66271,46.450509 -4.19,4.19 v -2.26 a 1.08,1.08 0 0 0 -1,-1.1 1.06,1.06 0 0 0 -1,1.1 v 4.74 a 1.07,1.07 0 0 0 1.1,1 h 4.69 a 1.04,1.04 0 1 0 0,-2.08 h -2.3 l 4.16,-4.16 a 1,1 0 0 0 0,-1.47 1,1 0 0 0 -1.46,0.04 z"/><path style="isolation:isolate;fill:#fff" id="path938" d="m 116.86271,42.770509 4.19,-4.19 v 2.27 a 1.08,1.08 0 0 0 1,1.09 1.06,1.06 0 0 0 1,-1.09 v -4.75 a 1.06,1.06 0 0 0 -1.1,-1 h -4.64 a 1.035,1.035 0 1 0 0,2.07 h 2.25 l -4.16,4.17 a 1.0323759,1.0323759 0 0 0 1.46,1.46 z"/><path style="isolation:isolate;fill:#fff" id="path940" d="m 106.96271,37.140509 h 2.3 a 1.035,1.035 0 1 0 0,-2.07 h -4.76 a 1.06,1.06 0 0 0 -1.1,1 v 4.75 a 1.06,1.06 0 0 0 1,1.09 1.08,1.08 0 0 0 1,-1.09 v -2.24 l 4.19,4.18 a 1.0323759,1.0323759 0 0 0 1.46,-1.46 z"/></g></g><g id="g1057" transform="matrix(0.83333334,0,0,0.83333334,-39.977403,35.730931)"><g id="g1042"><rect style="opacity:.4;isolation:isolate;mix-blend-mode:multiply;fill:#292929;stroke-width:.5714286" id="rect964" width="24" height="24" x="56.373" y="-21.877" rx="2.857" ry="2.857"/><g id="g1034" transform="translate(-9.0088318,7.9700008)"><path id="path966" d="m 86.932881,-10.077118 -4.17,-4.16 h 2.26 a 1.035,1.035 0 1 0 0,-2.07 h -4.71 a 1.08,1.08 0 0 0 -1.11,1 v 0 c 0,0 0,0 0,0.06 v 4.64 0 a 1.04,1.04 0 1 0 2.08,0 v -2.19 l 4.19,4.19 a 1,1 0 0 0 1.46,0 1,1 0 0 0 0,-1.47 z" style="isolation:isolate;fill:#fff"/><path id="path968" d="m 75.542881,-15.277118 a 1.08,1.08 0 0 0 -1.11,-1 h -4.71 a 1.035,1.035 0 1 0 0,2.07 h 2.25 l -4.16,4.13 a 1.039447,1.039447 0 0 0 1.47,1.47 l 4.18,-4.19 v 2.26 a 1.04,1.04 0 1 0 2.08,0 v -4.64 c 0,0 0,0 0,-0.06 a 0.08,0.08 0 0 1 0,-0.04 z" style="isolation:isolate;fill:#fff"/><path id="path970" d="m 80.312881,-19.377118 h 4.7 a 1.04,1.04 0 1 0 0,-2.08 h -2.25 l 4.17,-4.16 a 1,1 0 0 0 0,-1.47 1,1 0 0 0 -1.46,0 l -4.19,4.21 v -2.28 a 1.04,1.04 0 1 0 -2.08,0 v 4.64 a 0.43,0.43 0 0 0 0,0.05 v 0.05 a 1.09,1.09 0 0 0 1.11,1.04 z" style="isolation:isolate;fill:#fff"/><path id="path972" d="m 74.502881,-26.257118 a 1.08,1.08 0 0 0 -1,1.09 v 2.29 l -4.18,-4.19 a 1,1 0 0 0 -1.47,0 1,1 0 0 0 0,1.46 l 4.16,4.17 h -2.29 a 1.04,1.04 0 1 0 0,2.08 h 4.71 a 1.09,1.09 0 0 0 1.11,-1 c 0,0 0,0 0,-0.06 v -4.75 a 1.07,1.07 0 0 0 -1.04,-1.09 z" style="isolation:isolate;fill:#fff"/></g></g></g></svg>