<svg xmlns="http://www.w3.org/2000/svg" xmlns:xlink="http://www.w3.org/1999/xlink" id="Layer_1" width="55.125" height="55" x="0" y="0" enable-background="new 0 0 55.125 55" version="1.1" viewBox="0 0 55.125 55" xml:space="preserve"><g><polygon fill="#FFF" points="26.891 12.363 17.238 16.369 14.659 4.975 20.555 2.531"/><polygon fill="#FFF" points="42.646 26.88 38.649 17.228 50.04 14.654 52.477 20.55"/><polygon fill="#FFF" points="28.117 42.645 37.775 38.645 40.349 50.029 34.453 52.471"/><polygon fill="#FFF" points="37.824 16.315 28.171 12.309 34.394 2.439 40.295 4.882"/><polygon fill="#FFF" points="38.628 37.791 42.623 28.139 52.493 34.365 50.055 40.258"/><polygon fill="#FFF" points="16.385 37.76 12.391 28.105 2.515 34.34 4.953 40.234"/><polygon fill="#FFF" points="12.319 26.875 16.32 17.216 4.936 14.643 2.493 20.539"/><polygon fill="#FFF" points="26.939 42.623 17.287 38.629 14.719 50.018 20.609 52.461"/><path fill="none" stroke="#FFF" stroke-width="11.694" d="M39.925,22.352c2.845,6.863-0.412,14.728-7.274,17.574 c-6.867,2.85-14.734-0.418-17.578-7.281c-2.84-6.862,0.418-14.733,7.279-17.572C29.214,12.228,37.086,15.49,39.925,22.352z"/></g></svg>