<svg xmlns="http://www.w3.org/2000/svg" xmlns:svg="http://www.w3.org/2000/svg" id="svg10" width="55" height="55" version="1.1" viewBox="0 0 55 55"><metadata id="metadata16"/><title id="title2">アセット 52</title><g id="レイヤー_2" data-name="レイヤー 2" transform="matrix(2.119632,0,0,2.119632,5.0000003,9.2711648)"><g id="Icon"><path id="path4" d="m 3,13.15 h 1 v -7 a 3,3 0 0 1 3,-3 h 2 v 2 h 4.07 v -2 h 3 V 2 a 2,2 0 0 0 -2,-2 H 9.11 V 2 H 3 V 0 H 2 A 2,2 0 0 0 0,2 v 7.11 a 2,2 0 0 0 2,2 h 1 v 2 z" style="fill:#fff"/><path id="path6" d="m 19.23,4.1 h -5.06 v 2 H 8.1 v -2 h -1 a 2,2 0 0 0 -2,2 v 7.1 a 2,2 0 0 0 2,2 h 1 v 2 h 6.07 v -2 h 5.06 a 2,2 0 0 0 2,-2 V 6.12 a 2,2 0 0 0 -2,-2.02 z" style="fill:#fff"/></g></g></svg>