<svg xmlns="http://www.w3.org/2000/svg" xmlns:svg="http://www.w3.org/2000/svg" id="svg12" width="55" height="55" version="1.1" viewBox="0 0 55 55"><metadata id="metadata18"/><title id="title2">アセット 50</title><g id="レイヤー_2" data-name="レイヤー 2" transform="matrix(2.2499981,0,0,2.2499981,9.0725156,5.0000382)"><g id="Icon"><path id="path4" d="M 12.6,0.9 H 10.8 L 10.16,0.26 A 0.88,0.88 0 0 0 9.53,0 H 4 A 0.88,0.88 0 0 0 3.37,0.26 L 2.7,0.9 H 0.9 A 0.9,0.9 0 0 0 0,1.8 V 2.7 H 13.5 V 1.8 A 0.9,0.9 0 0 0 12.6,0.9 Z" style="fill:#fff"/><path id="path6" d="M 4.38,14.5 A 6.47,6.47 0 0 1 12.6,8.24 V 3.6 H 0.9 V 17.1 A 0.9,0.9 0 0 0 1.8,18 H 5.41 A 6.44,6.44 0 0 1 4.38,14.5 Z" style="fill:#fff"/><path id="path8" d="m 10.88,9 a 5.5,5.5 0 1 0 5.5,5.5 5.5,5.5 0 0 0 -5.5,-5.5 z m 2.43,7 a 0.70710678,0.70710678 0 0 1 -1,1 l -1.45,-1.46 -1.44,1.39 a 0.70710678,0.70710678 0 0 1 -1,-1 L 9.9,14.5 8.44,13 a 0.70710678,0.70710678 0 0 1 1,-1 L 10.9,13.46 12.35,12 a 0.70710678,0.70710678 0 0 1 1,1 l -1.5,1.5 z" style="fill:#fff"/></g></g></svg>