<svg xmlns="http://www.w3.org/2000/svg" width="55" height="55"><metadata id="metadata25">image/svg+xml</metadata><g><title>background</title><rect id="canvas_background" width="57" height="57" x="-1" y="-1" fill="none"/></g><g><title>Layer 1</title><g id="g5334"><g transform="matrix(2,0,0,2,3.5,3.5) translate(-15.5,-15.5)"><line id="svg_11" x1="31.403" x2="31.403" y1="34.704" y2="24.142" fill="none" stroke="#000" stroke-linecap="round" stroke-linejoin="round" stroke-width="1.5"/><polyline id="svg_10" fill="none" stroke="#000" stroke-linecap="round" stroke-linejoin="round" stroke-width="1.5" points="30.994 28.12 28.845 30.669 26.696 28.12" transform="rotate(-90, 28.8452, 29.3945)"/><line id="svg_18" x1="23.841" x2="23.841" y1="29.392" y2="24.454" fill="none" stroke="#000" stroke-linecap="round" stroke-linejoin="round" stroke-width="1.5"/><line id="svg_19" x1="26.435" x2="26.435" y1="31.923" y2="26.986" fill="none" stroke="#000" stroke-linecap="round" stroke-linejoin="round" stroke-width="1.5" transform="rotate(90, 26.4347, 29.4543)"/><ellipse id="svg_21" cx="31.312" cy="22.438" fill="none" fill-opacity="null" stroke="#000" stroke-opacity="null" rx="1.312" ry="1.312"/><ellipse id="svg_22" cx="23.813" cy="22.438" fill="none" fill-opacity="null" stroke="#000" stroke-opacity="null" rx="1.312" ry="1.312"/><ellipse id="svg_23" cx="31.437" cy="36.625" fill="none" fill-opacity="null" stroke="#000" stroke-opacity="null" rx="1.312" ry="1.312"/><line id="svg_31" x1="31.403" x2="31.403" y1="34.579" y2="24.017" fill="none" stroke="#000" stroke-linecap="round" stroke-linejoin="round" stroke-width="1.5"/><polyline id="svg_32" fill="none" stroke="#000" stroke-linecap="round" stroke-linejoin="round" stroke-width="1.5" points="30.994 28.12 28.845 30.669 26.696 28.12" transform="rotate(-90, 28.8452, 29.3945)"/><line id="svg_33" x1="23.841" x2="23.841" y1="29.392" y2="24.454" fill="none" stroke="#000" stroke-linecap="round" stroke-linejoin="round" stroke-width="1.5"/><line id="svg_34" x1="26.435" x2="26.435" y1="31.923" y2="26.986" fill="none" stroke="#000" stroke-linecap="round" stroke-linejoin="round" stroke-width="1.5" transform="rotate(90, 26.4347, 29.4543)"/><ellipse id="svg_35" cx="31.312" cy="22.438" fill="none" fill-opacity="null" stroke="#000" stroke-opacity="null" rx="1.312" ry="1.312"/><ellipse id="svg_36" cx="23.813" cy="22.438" fill="none" fill-opacity="null" stroke="#000" stroke-opacity="null" rx="1.312" ry="1.312"/><ellipse id="svg_37" cx="31.437" cy="36.625" fill="none" fill-opacity="null" stroke="#000" stroke-opacity="null" rx="1.312" ry="1.312"/></g></g></g></svg>