<svg xmlns="http://www.w3.org/2000/svg" xmlns:svg="http://www.w3.org/2000/svg" id="svg3377" width="48" height="48" version="1.1" viewBox="0 0 48 48"><metadata id="metadata3382"/><g id="layer1"><g id="layer1-4" transform="matrix(0.36686188,0,0,0.32513419,-125.00806,-135.30944)"><circle id="path4187" cx="-489.102" cy="408.116" r="61.709" transform="matrix(0,-1,1,0,0,0)" style="color:#000;clip-rule:nonzero;display:inline;overflow:visible;visibility:visible;opacity:1;isolation:auto;mix-blend-mode:normal;color-interpolation:sRGB;color-interpolation-filters:linearRGB;solid-color:#000;solid-opacity:1;fill:#31c419;fill-opacity:1;fill-rule:nonzero;stroke:#000;stroke-width:4.58274555;stroke-linecap:round;stroke-linejoin:round;stroke-miterlimit:4;stroke-dasharray:none;stroke-dashoffset:0;stroke-opacity:1;color-rendering:auto;image-rendering:auto;shape-rendering:auto;text-rendering:auto;enable-background:accumulate"/><path id="path8643" d="m 424.04775,448.29531 -32.07922,0 0,45.82745 -18.33098,0 34.37059,39.70003 34.37059,-39.70003 -18.33098,0 z" style="color:#000;fill:#fff;fill-opacity:1;fill-rule:evenodd;stroke:#000;stroke-width:4.58274555;stroke-linecap:round;stroke-linejoin:round;stroke-miterlimit:10;stroke-dasharray:none;stroke-opacity:1"/><path id="path4199" d="m 383.44749,477.73207 c -0.75107,-0.0138 -1.51955,-0.007 -2.31376,0.0268 -18.65093,0.81128 -34.72413,11.345 -34.72413,11.345 a 61.708628,61.708628 0 0 0 61.70596,61.70593 61.708628,61.708628 0 0 0 61.71043,-61.70593 c 0,-2e-5 -20.96698,12.16428 -40.833,12.15053 -19.12634,-0.0138 -22.2625,-23.08533 -45.5455,-23.52238 z" style="color:#000;clip-rule:nonzero;display:inline;overflow:visible;visibility:visible;opacity:1;isolation:auto;mix-blend-mode:normal;color-interpolation:sRGB;color-interpolation-filters:linearRGB;solid-color:#000;solid-opacity:1;fill:#fff;fill-opacity:.19148937;fill-rule:nonzero;stroke:none;stroke-width:2;stroke-linecap:round;stroke-linejoin:round;stroke-miterlimit:4;stroke-dasharray:none;stroke-dashoffset:0;stroke-opacity:1;color-rendering:auto;image-rendering:auto;shape-rendering:auto;text-rendering:auto;enable-background:accumulate"/><circle style="color:#000;clip-rule:nonzero;display:inline;overflow:visible;visibility:visible;opacity:1;isolation:auto;mix-blend-mode:normal;color-interpolation:sRGB;color-interpolation-filters:linearRGB;solid-color:#000;solid-opacity:1;fill:none;fill-opacity:1;fill-rule:nonzero;stroke:#000;stroke-width:4.58274555;stroke-linecap:round;stroke-linejoin:round;stroke-miterlimit:4;stroke-dasharray:none;stroke-dashoffset:0;stroke-opacity:1;color-rendering:auto;image-rendering:auto;shape-rendering:auto;text-rendering:auto;enable-background:accumulate" id="circle4206" cx="-489.102" cy="408.116" r="61.709" transform="matrix(0,-1,1,0,0,0)"/></g></g></svg>