<svg xmlns="http://www.w3.org/2000/svg" xmlns:svg="http://www.w3.org/2000/svg" id="svg2" width="50" height="55" version="1.0"><metadata id="metadata11"/>`<g id="g4153" transform="matrix(0.89999999,0,0,0.89999999,0,-4.222249)"><g style="stroke:#fff;stroke-width:2;stroke-miterlimit:4;stroke-dasharray:none;stroke-opacity:1" id="g4949" transform="matrix(0.90909091,0,0,1.1978241,0,0.49900345)"><path style="fill:none;fill-rule:evenodd;stroke:#fff;stroke-width:2;stroke-linecap:butt;stroke-linejoin:miter;stroke-miterlimit:4;stroke-dasharray:none;stroke-opacity:1" id="path4951" d="m 0,44.5 55,0"/><path style="fill:none;fill-rule:evenodd;stroke:#fff;stroke-width:2;stroke-linecap:butt;stroke-linejoin:miter;stroke-miterlimit:4;stroke-dasharray:none;stroke-opacity:1" id="path4953" d="m 0,34.5 55,0"/><path style="fill:none;fill-rule:evenodd;stroke:#fff;stroke-width:2;stroke-linecap:butt;stroke-linejoin:miter;stroke-miterlimit:4;stroke-dasharray:none;stroke-opacity:1" id="path4955" d="m 0,24.5 55,0"/><path style="fill:none;fill-rule:evenodd;stroke:#fff;stroke-width:2;stroke-linecap:butt;stroke-linejoin:miter;stroke-miterlimit:4;stroke-dasharray:none;stroke-opacity:1" id="path4957" d="m 0,14.5 55,0"/><path style="fill:none;fill-rule:evenodd;stroke:#fff;stroke-width:2;stroke-linecap:butt;stroke-linejoin:miter;stroke-miterlimit:4;stroke-dasharray:none;stroke-opacity:1" id="path4959" d="m 0,4.5 55,0"/></g><g style="stroke:#fff;stroke-width:2;stroke-miterlimit:4;stroke-dasharray:none;stroke-opacity:1" id="g4961" transform="matrix(0,-0.90351423,1.1904762,0,-4.1666667,55)"><path style="fill:none;fill-rule:evenodd;stroke:#fff;stroke-width:2;stroke-linecap:butt;stroke-linejoin:miter;stroke-miterlimit:4;stroke-dasharray:none;stroke-opacity:1" id="path4963" d="m 0,44.5 55,0"/><path style="fill:none;fill-rule:evenodd;stroke:#fff;stroke-width:2;stroke-linecap:butt;stroke-linejoin:miter;stroke-miterlimit:4;stroke-dasharray:none;stroke-opacity:1" id="path4965" d="m 0,34.5 55,0"/><path style="fill:none;fill-rule:evenodd;stroke:#fff;stroke-width:2;stroke-linecap:butt;stroke-linejoin:miter;stroke-miterlimit:4;stroke-dasharray:none;stroke-opacity:1" id="path4967" d="m 0,24.5 55,0"/><path style="fill:none;fill-rule:evenodd;stroke:#fff;stroke-width:2;stroke-linecap:butt;stroke-linejoin:miter;stroke-miterlimit:4;stroke-dasharray:none;stroke-opacity:1" id="path4969" d="m 0,14.5 55,0"/><path style="fill:none;fill-rule:evenodd;stroke:#fff;stroke-width:2;stroke-linecap:butt;stroke-linejoin:miter;stroke-miterlimit:4;stroke-dasharray:none;stroke-opacity:1" id="path4971" d="m 0,4.5 55,0"/></g></g><g id="g4354" transform="matrix(0.88889004,0,0,0.88889004,7.7777496,16.077526)"><path style="fill:#626262;fill-opacity:1;stroke:#000;stroke-width:1.35731041;stroke-linecap:butt;stroke-linejoin:round;stroke-dasharray:none;stroke-opacity:1" id="path2394" d="m 35.510424,31.68504 0,-7.578317 11.310921,-12.215794 -1.357311,9.501173 -9.95361,10.292938 z"/><path style="fill:#626262;fill-opacity:1;stroke:#000;stroke-width:1.35731041;stroke-linejoin:round;stroke-miterlimit:4;stroke-dasharray:none;stroke-opacity:1" id="path2390" d="m 16.508077,24.106723 12.215795,-12.215794 18.097473,0 -11.310921,12.215794 -19.002347,0 z"/><path style="fill:#bcbcbc;fill-opacity:1;stroke:#000;stroke-width:1.35731041;stroke-linejoin:round;stroke-dasharray:none;stroke-opacity:1" id="path2392" d="m 23.566742,43.109071 2.436823,-9.048738 9.506859,-9.95361 0,7.578317 -11.943682,11.424031 z"/><path style="fill:#bcbcbc;fill-opacity:1;stroke:#000;stroke-width:1.35731041;stroke-linejoin:round;stroke-dasharray:none;stroke-opacity:1" id="path2388" d="m 6.50898,34.060333 9.999097,-9.95361 19.002347,0 -9.831769,9.95361 -19.169675,0 z"/><path style="fill:#bcbcbc;fill-opacity:1;stroke:#000;stroke-width:1.35731041;stroke-linejoin:round;stroke-dasharray:none;stroke-opacity:1" id="path2384" d="m 3.1786551,43.109071 3.2490974,-9.048738 19.1696745,0 -2.355595,9.048738 -20.063177,0 z"/></g></svg>