<svg xmlns="http://www.w3.org/2000/svg" xmlns:svg="http://www.w3.org/2000/svg" id="svg4264" width="24" height="24" version="1.1" viewBox="0 0 24 24"><metadata id="metadata4274"/><g id="g4987" transform="matrix(0.47326936,0,0,0.47326936,-1.0149072,-3.0149075)"><g style="stroke:#fff;stroke-width:2;stroke-miterlimit:4;stroke-dasharray:none;stroke-opacity:1" id="g4949" transform="matrix(0.76363636,0,0,1.0061722,6.5000001,2.8487811)"><path style="fill:none;fill-rule:evenodd;stroke:#fff;stroke-width:2;stroke-linecap:butt;stroke-linejoin:miter;stroke-miterlimit:4;stroke-dasharray:none;stroke-opacity:1" id="path4951" d="m 0,44.5 55,0"/><path style="fill:none;fill-rule:evenodd;stroke:#fff;stroke-width:2;stroke-linecap:butt;stroke-linejoin:miter;stroke-miterlimit:4;stroke-dasharray:none;stroke-opacity:1" id="path4953" d="m 0,34.5 55,0"/><path style="fill:none;fill-rule:evenodd;stroke:#fff;stroke-width:2;stroke-linecap:butt;stroke-linejoin:miter;stroke-miterlimit:4;stroke-dasharray:none;stroke-opacity:1" id="path4955" d="m 0,24.5 55,0"/><path style="fill:none;fill-rule:evenodd;stroke:#fff;stroke-width:2;stroke-linecap:butt;stroke-linejoin:miter;stroke-miterlimit:4;stroke-dasharray:none;stroke-opacity:1" id="path4957" d="m 0,14.5 55,0"/><path style="fill:none;fill-rule:evenodd;stroke:#fff;stroke-width:2;stroke-linecap:butt;stroke-linejoin:miter;stroke-miterlimit:4;stroke-dasharray:none;stroke-opacity:1" id="path4959" d="m 0,4.5 55,0"/></g><g style="stroke:#fff;stroke-width:2;stroke-miterlimit:4;stroke-dasharray:none;stroke-opacity:1" id="g4961" transform="matrix(0,-0.76363636,1.0061722,0,2.8487806,48.5)"><path style="fill:none;fill-rule:evenodd;stroke:#fff;stroke-width:2;stroke-linecap:butt;stroke-linejoin:miter;stroke-miterlimit:4;stroke-dasharray:none;stroke-opacity:1" id="path4963" d="m 0,44.5 55,0"/><path style="fill:none;fill-rule:evenodd;stroke:#fff;stroke-width:2;stroke-linecap:butt;stroke-linejoin:miter;stroke-miterlimit:4;stroke-dasharray:none;stroke-opacity:1" id="path4965" d="m 0,34.5 55,0"/><path style="fill:none;fill-rule:evenodd;stroke:#fff;stroke-width:2;stroke-linecap:butt;stroke-linejoin:miter;stroke-miterlimit:4;stroke-dasharray:none;stroke-opacity:1" id="path4967" d="m 0,24.5 55,0"/><path style="fill:none;fill-rule:evenodd;stroke:#fff;stroke-width:2;stroke-linecap:butt;stroke-linejoin:miter;stroke-miterlimit:4;stroke-dasharray:none;stroke-opacity:1" id="path4969" d="m 0,14.5 55,0"/><path style="fill:none;fill-rule:evenodd;stroke:#fff;stroke-width:2;stroke-linecap:butt;stroke-linejoin:miter;stroke-miterlimit:4;stroke-dasharray:none;stroke-opacity:1" id="path4971" d="m 0,4.5 55,0"/></g><rect style="fill:#fff;fill-opacity:1;stroke:#fff;stroke-width:1.89689255;stroke-miterlimit:4;stroke-dasharray:none;stroke-opacity:1" id="rect4973" width="9.103" height="9.103" x="7.348" y="38.348"/><rect style="fill:#fff;fill-opacity:1;stroke:#fff;stroke-width:1.89689255;stroke-miterlimit:4;stroke-dasharray:none;stroke-opacity:1" id="rect4975" width="9.103" height="9.103" x="18.448" y="28.048"/><rect style="fill:#fff;fill-opacity:1;stroke:#fff;stroke-width:1.89689255;stroke-miterlimit:4;stroke-dasharray:none;stroke-opacity:1" id="rect4977" width="9.103" height="9.103" x="28.248" y="18.248"/><rect style="fill:#fff;fill-opacity:1;stroke:#fff;stroke-width:1.89689255;stroke-miterlimit:4;stroke-dasharray:none;stroke-opacity:1" id="rect4979" width="9.103" height="9.103" x="38.048" y="37.848"/></g><path id="path4266" d="m 24,18.5 -2,0 0,-3 -3,0 0,3 -2,0 3.5,3.5 3.5,-3.5 z m -7,4.5 0,1 7,0 0,-1 -7,0 z"/><path id="path4268" fill="none" d="M0 0h24v24h-24z"/></svg>