<svg xmlns="http://www.w3.org/2000/svg" xmlns:svg="http://www.w3.org/2000/svg" id="svg4267" width="55" height="55" x="0" y="0" enable-background="new 0 0 55 55" version="1.1" viewBox="0 0 55 55" xml:space="preserve"><metadata id="metadata4284"/><g id="g4907"><polyline id="polyline4272" points="31.046 28.818 23.233 22.229 31.046 15.639" transform="matrix(-1.0705874,0,0,1.0705874,50.940618,-1.9326118)" style="fill:none;stroke:#000;stroke-width:3.5;stroke-linecap:round;stroke-linejoin:round"/><path id="path4274" d="m 24.067661,21.865476 -8.058811,0 c -5.024267,0 -9.1353223,4.112126 -9.1353223,9.136392 0,5.025338 4.1110553,9.136393 9.1353223,9.136393 l 12.058812,0" style="fill:none;stroke:#000;stroke-width:3.74705601;stroke-linecap:round"/><g id="g4276" transform="matrix(-1.0705874,0,0,1.0705874,56.940618,-1.9326118)"><path id="path4278" d="m 26.969267,39.361 -10.203267,0 c -4.693,0 -8.533,-3.84 -8.533,-8.534 0,-4.693 3.84,-8.533 8.533,-8.533 l 6.1534,0" style="fill:none;stroke:#000;stroke-width:3.5;stroke-linecap:round"/></g><polyline style="display:inline;fill:none;stroke:#000;stroke-width:3.5;stroke-linecap:round;stroke-linejoin:round" id="polyline4272-3" points="31.046 28.818 23.233 22.229 31.046 15.639" transform="matrix(1.0705874,0,0,1.0705874,4.9700045,-1.9326118)"/></g></svg>