<svg xmlns="http://www.w3.org/2000/svg" xmlns:xlink="http://www.w3.org/1999/xlink" width="55" height="55" x="0" y="0" enable-background="new 0 0 55 55" version="1.1" viewBox="0 0 55 55" xml:space="preserve"><g id="media-playback-start-insensitive" display="block"><g display="inline"><g><path fill="#808284" d="M27.497,5.051c12.464,0.02,22.548,10.104,22.568,22.567c-0.02,12.462-10.104,22.546-22.568,22.566 C15.036,50.164,4.952,40.08,4.93,27.618C4.952,15.155,15.036,5.07,27.497,5.051 M27.5,7.301c-0.001,0-0.002,0-0.003,0 s-0.002,0-0.003,0c0,0,0.001,0,0.002,0C16.312,7.32,7.199,16.436,7.18,27.622c0.019,11.179,9.135,20.294,20.32,20.312 c11.18-0.019,20.296-9.134,20.314-20.32C47.797,16.436,38.684,7.32,27.498,7.301C27.499,7.301,27.5,7.301,27.5,7.301L27.5,7.301z"/></g><polygon fill="#808284" points="39.512 27.822 21.55 37.977 21.55 17.667"/><path fill="#808284" d="M27.499,0C12.312,0,0,12.313,0,27.5C0,42.688,12.312,55,27.499,55S55,42.688,55,27.5 C55,12.313,42.686,0,27.499,0z M27.497,52.646c-13.826,0-25.033-11.209-25.036-25.033C2.463,13.787,13.67,2.577,27.497,2.574 c13.826,0.003,25.035,11.213,25.039,25.038C52.531,41.437,41.322,52.646,27.497,52.646z"/></g></g></svg>