<svg xmlns="http://www.w3.org/2000/svg" xmlns:xlink="http://www.w3.org/1999/xlink" width="55" height="55" x="0" y="0" enable-background="new 0 0 55 55" version="1.1" viewBox="0 0 55 55" xml:space="preserve"><g id="media-playback-pause-insensitive" display="block"><g display="inline"><path fill="#808284" d="M27.499,0C12.312,0,0,12.313,0,27.5C0,42.688,12.312,55,27.499,55S55,42.688,55,27.5 C55,12.313,42.686,0,27.499,0z M27.497,52.646c-13.826,0-25.033-11.209-25.036-25.033C2.463,13.787,13.67,2.577,27.497,2.574 c13.826,0.003,25.035,11.213,25.039,25.038C52.531,41.437,41.322,52.646,27.497,52.646z"/><g><g><path fill="#808284" d="M27.496,5c12.428,0,22.5,10.076,22.5,22.5c0,12.427-10.072,22.5-22.5,22.5 C15.068,50,4.997,39.927,4.997,27.5C4.997,15.076,15.068,5,27.496,5 M27.496,7.25C16.33,7.25,7.247,16.334,7.247,27.5 s9.083,20.25,20.249,20.25c11.167,0,20.25-9.084,20.25-20.25S38.662,7.25,27.496,7.25L27.496,7.25z"/></g><g><g><rect width="5.801" height="15.702" x="20.137" y="19.741" fill="#808284"/></g><g><rect width="5.803" height="15.702" x="29.053" y="19.741" fill="#808284"/></g></g></g></g></g></svg>