<svg xmlns="http://www.w3.org/2000/svg" xmlns:osb="http://www.openswatchbook.org/uri/2009/osb" xmlns:svg="http://www.w3.org/2000/svg" id="svg2" width="55" height="55" version="1.1" viewBox="0 0 51.563 51.562"><defs id="defs4"><linearGradient id="linearGradient4530" osb:paint="solid"><stop id="stop4532" offset="0" style="stop-color:#fff;stop-opacity:1"/></linearGradient><style id="style4474" type="text/css"/></defs><metadata id="metadata7"/><path style="display:none;fill:#000" id="path4138" d="m -33.97733,-443.92252 -0.85,0.85 c -3.2,-3.25 -16.85,-17.15 -18.45,-18.7 -1.8,-1.8 -1.55,-5.5 -3.7,-7.7 -0.5,-0.5 -1.3,-0.5 -1.8,0 l -2,2 -2,2 c -0.5,0.5 -0.5,1.3 0,1.8 2.2,2.2 5.9,1.9 7.7,3.7 1.6,1.6 15.45,15.25 18.7,18.45 l -0.85,0.85 c -1.45,1.45 -0.85,3.2 0.6,4.65 l 8.2,8.2 0.45,-0.45 -6.95,-8.3 c -0.8,-1.05 -0.95,-1.7 -0.65,-2.15 l 9.4,8.65 0.5,-0.5 -8.5,-9.55 0.35,-0.35 0.35,-0.35 9.6,8.5 0.5,-0.5 -8.65,-9.45 c 0.45,-0.3 1.1,-0.15 2.15,0.65 l 8.3,6.95 0.45,-0.45 -8.2,-8.2 c -1.45,-1.45 -3.2,-2.05 -4.65,-0.6 z m -26.95,-19.8 1.95,-1.95 1.95,-1.95 c 2.2,2.2 0.2,4.1 0.2,4.1 0,0 -1.95,1.95 -4.1,-0.2 z" display="none"/><path style="display:none;fill:#000" id="path4138-5" d="m -2.04455,-280.2543 -0.61485,0.54063 c -2.31474,-2.06713 -12.18854,-10.90811 -13.34591,-11.89397 -1.30204,-1.14488 -1.1212,-3.49823 -2.67641,-4.89753 -0.36168,-0.31802 -0.94037,-0.31802 -1.30204,0 l -1.44671,1.27209 -1.44671,1.27208 c -0.36168,0.31802 -0.36168,0.82686 0,1.14488 1.59138,1.39929 4.26779,1.20848 5.56983,2.35335 1.15737,1.01767 11.17584,9.69964 13.52674,11.73497 l -0.61485,0.54064 c -1.04886,0.92226 -0.61485,2.03533 0.43402,2.95759 l 5.93151,5.21554 0.32551,-0.28621 -5.02732,-5.27915 c -0.57868,-0.66784 -0.68719,-1.08127 -0.47018,-1.36749 l 6.79954,5.50176 0.36168,-0.31802 -6.14852,-6.0742 0.25317,-0.22261 0.25317,-0.22262 6.94421,5.40636 0.36168,-0.31802 -6.25702,-6.0106 c 0.32551,-0.19082 0.79569,-0.0954 1.55521,0.41342 l 6.00385,4.4205 0.32551,-0.28622 -5.93151,-5.21555 c -1.04887,-0.92226 -2.31474,-1.30388 -3.3636,-0.38162 z m -19.49443,-12.59363 1.41055,-1.24028 1.41054,-1.24028 c 1.59138,1.39929 0.14467,2.60777 0.14467,2.60777 0,0 -1.41054,1.24028 -2.96576,-0.12721 z" display="none"/><path style="fill:none;stroke:#000;stroke-width:4.05797482;stroke-linecap:butt;stroke-linejoin:miter;stroke-miterlimit:4;stroke-dasharray:none;stroke-opacity:1" id="path5082" d="m 3.2027263,31.800281 c 0,0 -3.05171867,-16.452223 4.4798517,-16.366472 7.53157,0.08575 1.2938733,20.595639 8.7877,20.694978 7.581831,0.100505 1.911218,-20.809238 9.442788,-20.694978 7.531571,0.114259 1.213043,20.567533 8.694334,20.694978 7.594367,0.129371 2.004585,-20.837748 9.536154,-20.694978 7.531571,0.142769 4.00193,16.366472 4.00193,16.366472"/><ellipse style="fill:none;stroke:#000;stroke-width:4.05797434;stroke-linecap:round;stroke-miterlimit:4;stroke-dasharray:none" id="path5084" cx="25.781" cy="25.781" rx="23.227" ry="23.753"/></svg>