<svg xmlns="http://www.w3.org/2000/svg" xmlns:svg="http://www.w3.org/2000/svg" id="svg10" width="55" height="55" version="1.1" viewBox="0 0 55 55"><metadata id="metadata16"/><title id="title2">アセット 79</title><g id="レイヤー_2" data-name="レイヤー 2" transform="translate(2.2289291,14.370309)"><g id="Icon"><path id="path4" d="M 28.33,0 H 18.21 V 4.05 H 6.07 V 0 h -2 A 4,4 0 0 0 0,4.05 v 14.16 a 4,4 0 0 0 4.05,4.05 h 2 v 4 h 12.16 v -4 h 10.12 a 4,4 0 0 0 4.05,-4.05 V 4.05 A 4,4 0 0 0 28.33,0 Z" style="fill:#fff"/><path id="path6" d="m 37,18.65 5.43,5.42 a 1.56,1.56 0 0 0 1.11,0.46 v 0 a 1.56,1.56 0 0 0 1.13,-0.5 L 50,18.64 a 1.56,1.56 0 1 0 -2.2,-2.2 L 45.08,19.2 V 9.74 a 1.56,1.56 0 1 0 -3.12,0 v 9.5 l -2.8,-2.79 a 1.56,1.56 0 0 0 -2.2,2.2 z" style="fill:#fff"/></g></g></svg>