<svg xmlns="http://www.w3.org/2000/svg" id="svg2998" width="55.125" height="55" version="1.1" viewBox="0 0 55.125 55" xml:space="preserve"><path id="path2988" d="m 24.041111,6.6111917 c -9.547345,0 -17.367419,7.8249603 -17.367419,17.3674193 0,9.545361 7.81901,17.367419 17.367419,17.367419 3.592743,0 6.946526,-1.113321 9.724565,-3.003612 l 9.992214,9.992214 4.639242,-4.639242 -9.962475,-10.021953 c 1.876778,-2.771091 2.973873,-6.114717 2.973873,-9.694826 0,-9.544057 -7.827328,-17.3674193 -17.367419,-17.3674193 z m 0,6.6019983 c 5.97663,0 10.765421,4.785226 10.765421,10.765421 0,5.984823 -4.789857,10.76542 -10.765421,10.76542 -5.987137,0 -10.765421,-4.778999 -10.765421,-10.76542 0,-5.981792 4.777219,-10.765421 10.765421,-10.765421 z" style="fill:#fff;stroke:#010101;stroke-width:3.5;stroke-linejoin:round;stroke-miterlimit:4"/></svg>