<svg xmlns="http://www.w3.org/2000/svg" xmlns:svg="http://www.w3.org/2000/svg" id="svg4" width="55" height="55" version="1.1"><metadata id="metadata10"/><ellipse style="fill:#ff0068;stroke:#484848;stroke-width:3;stroke-linecap:round;stroke-miterlimit:4;stroke-dasharray:none" id="path4282-3" cx="18.937" cy="10.94" rx="12.862" ry="13.125"/><ellipse style="fill:none;stroke:#484848;stroke-width:3;stroke-linecap:round;stroke-miterlimit:4;stroke-dasharray:none" id="path4282" cx="18.937" cy="10.94" rx="6.712" ry="6.849"/><path style="fill:#fff;stroke:none;stroke-width:1.41025639;stroke-opacity:1" id="path2" d="m 7.7977894,25.628205 c 1.0772553,-1.625594 4.1033956,-1.586752 5.6410266,0 v 9.628205 c 0.940172,1.880341 1.880341,1.880341 2.820513,0 V 9.4102571 c 1.880341,-1.8803419 3.760684,-1.8803419 5.641025,0 V 26.794872 c 0.940172,1.880341 1.880341,1.880341 2.820513,0 v -1.384615 c 1.880341,-1.880342 3.760684,-1.880342 5.641026,0 v 1.384615 c 0.940171,1.880341 1.880341,1.880341 2.820512,0 v -1.384615 c 1.880341,-1.880342 3.760685,-1.880342 5.641026,0 v 1.384615 c 0.940171,1.880341 1.880341,1.880341 2.820513,0 v -0.333333 c 1.880341,-1.880341 3.760684,-1.880341 5.641025,0 v 17.256409 c 0,6.581198 -2.820513,10.34188 -8.461538,11.282051 H 16.259329 c -5.641026,0 -8.4615396,-3.760684 -8.4615396,-11.282051 0,0 -0.1862064,-16.327064 0,-18.089743 z"/></svg>