<svg xmlns="http://www.w3.org/2000/svg" width="55" height="55"><metadata id="metadata7">image/svg+xml</metadata><g><title>background</title><rect id="canvas_background" width="582" height="402" x="-1" y="-1" fill="none"/></g><g><title>Layer 1</title><g id="layer1"><path id="path4214" fill="#000" d="m23.766615,3.567021c-11.002951,0 -19.93288,8.930108 -19.93288,19.932983c0,11.002991 8.92993,19.932861 19.93288,19.932861c11.002951,0 19.932882,-8.929871 19.932882,-19.932861c0,-11.002875 -8.929932,-19.932983 -19.932882,-19.932983zm-1.99329,35.739723c-7.873482,-0.976681 -13.953011,-7.674141 -13.953011,-15.80674c0,-1.23579 0.15946,-2.411934 0.418591,-3.567963l9.54785,9.547913l0,1.99324c0,2.192646 1.793961,3.986477 3.98657,3.986477l0,3.847073zm13.753691,-5.06292c-0.51825,-1.614544 -1.99329,-2.77063 -3.787251,-2.77063l-1.993279,0l0,-5.979836c0,-1.096439 -0.896982,-1.993355 -1.99329,-1.993355l-11.959732,0l0,-3.986599l3.98658,0c1.09631,0 1.99328,-0.896915 1.99328,-1.993298l0,-3.986478l3.98658,0c2.192621,0 3.986582,-1.794008 3.986582,-3.986714l0,-0.817154c5.840328,2.372054 9.966438,8.092779 9.966438,14.770243c0,4.146004 -1.594627,7.913311 -4.185909,10.74382z"/></g><polyline id="polyline3009" fill="none" points="11.386 18.559 20.773 18.559 20.773 9.173"/><line id="line3011" x1="44.995" x2="44.995" y1="50.75" y2="38.834" fill="none" stroke="#000" stroke-linecap="round" stroke-linejoin="round" stroke-width="2.987"/><polyline id="polyline3013" fill="none" stroke="#000" stroke-linecap="round" stroke-linejoin="round" stroke-width="2.987" points="50.125 36.243 44.995 42.327 39.865 36.243" transform="rotate(180, 44.995, 39.2853)"/></g></svg>