<svg xmlns="http://www.w3.org/2000/svg" xmlns:svg="http://www.w3.org/2000/svg" id="svg2" width="194" height="46" version="1.1"><metadata id="metadata35"/><path id="path21" d="M 1,17 1,9 C 1,4.581722 4.581722,1 9,1 l 8,0 0,4 20,0 0,-4 140,0 8,0 c 4.41828,0 8,3.581722 8,8 l 0,8 -8,0 0,-6 -8,0 0,20 8,0 0,-6 8,0 0,8 c 0,4.418278 -3.58172,8 -8,8 l -8,0 -140,0 -2,0 0,4 -16,0 0,-4 -2,0 -8,0 C 4.581722,41 1,37.418278 1,33 l 0,-8 z" style="fill:#1d8989;fill-opacity:1;stroke:#005459;stroke-width:2;stroke-linecap:round;stroke-opacity:1"/><text id="text23" x="76" style="font-size:20px;font-family:Sans;text-anchor:end;fill:#000"><tspan id="tspan25" x="170" y="28">save as lilypond</tspan></text></svg>