<svg xmlns="http://www.w3.org/2000/svg" xmlns:svg="http://www.w3.org/2000/svg" id="svg4238" width="500" height="500" version="1.1" viewBox="0 0 500 500"><metadata id="metadata4244"/><path style="fill:#000" id="path7091" d="m 173.67968,445.71854 -3.82971,-3.82972 0.0185,-101.09711 c 0.0199,-109.21625 -0.0175,-108.66334 8.54127,-126.15668 4.73173,-9.67133 15.77461,-22.4804 23.49325,-27.2508 l 5.39292,-3.33305 0,-63.13378 0,-63.133808 3.82973,-3.829686 3.82968,-3.829722 35.74627,0 c 33.801,0 35.96996,0.17598 39.85729,3.233741 l 4.11104,3.23374 0,63.469635 0,63.46964 7.13839,3.7869 c 12.71297,6.74422 22.90121,21.84894 27.91975,41.39273 2.02442,7.88383 2.38786,24.81539 2.38786,111.23873 l 0,101.93952 -3.82971,3.8297 -3.82969,3.82971 -73.4736,0 -73.47361,0 -3.82969,-3.82969 z m 96.0263,-339.42535 0,-31.205002 -18.72301,0 -18.72299,0 0,31.205002 0,31.205 18.72299,0 18.72301,0 0,-31.205 z"/></svg>