<svg xmlns="http://www.w3.org/2000/svg" xmlns:svg="http://www.w3.org/2000/svg" id="svg4258" width="500" height="500" version="1.1" viewBox="0 0 500 500"><metadata id="metadata4264"/><path style="fill:#000" id="path7021" d="M 122.23218,416.21144 C 111.32841,403.11071 97.570482,384.23782 91.659004,374.27169 58.436326,318.2618 42.766036,244.66015 50.969393,183.15673 l 1.763837,-13.2242 31.954099,-10.12439 c 55.232661,-17.49996 89.911111,-23.64302 142.462031,-25.23619 60.41327,-1.83156 58.61035,-0.93203 104.84654,-52.311734 15.67243,-17.415901 22.39663,-23.095565 26.62842,-22.49184 5.22559,0.745478 5.77467,2.857496 7.13322,27.436086 2.02329,36.605198 10.14448,51.809988 44.58177,83.467418 13.78849,12.67543 27.34602,27.50207 30.12786,32.94808 16.00448,31.33186 16.73957,85.59397 1.52401,112.49832 -11.41581,20.18555 -25.19131,22.87741 -96.58091,18.8728 -37.60344,-2.10939 -41.43557,-1.87189 -59.79926,3.7059 -48.8343,14.83298 -110.90446,58.32047 -134.18319,94.01118 -2.62693,4.02755 -5.80997,7.32282 -7.07343,7.32282 -1.26346,0 -11.21846,-10.7188 -22.12221,-23.81954 z"/></svg>