<svg xmlns="http://www.w3.org/2000/svg" xmlns:svg="http://www.w3.org/2000/svg" id="svg7392" width="450" height="450" version="1.1" viewBox="0 0 450 450"><metadata id="metadata7398"/><path style="fill:#000" id="path10270" d="m 206.51004,404.07116 c -9.01327,-0.43539 -19.33757,-1.23496 -22.94288,-1.77681 -3.60531,-0.54185 -6.84105,-0.99354 -7.19054,-1.00373 -0.34951,-0.0104 -1.2225,-0.6056 -1.94,-1.3231 -1.11511,-1.11511 -0.99641,-4.02626 0.81735,-20.04665 6.36754,-56.2424 11.55889,-121.41986 11.58503,-145.45026 l 0.005,-5.26487 -3.83171,-0.61271 c -16.80269,-2.68695 -27.1959,-19.79931 -40.51516,-66.70889 -8.54289,-30.0875 -13.0123,-56.45102 -13.15528,-77.598372 -0.15147,-22.404722 2.62092,-26.724942 19.72771,-30.741624 30.31697,-7.118433 70.56419,-10.135696 109.88115,-8.237594 30.49567,1.472237 44.73963,4.268231 53.28693,10.459865 5.16632,3.742467 7.32075,8.455267 8.60461,18.822559 2.34219,18.913549 -1.98329,67.747286 -8.07521,91.167426 -3.90886,15.02743 -18.87672,46.92509 -25.82916,55.04389 -4.15799,4.85557 -8.61959,7.22963 -13.58665,7.22963 l -3.1632,0 0,6.37964 c 0,15.03502 6.25789,71.18425 11.70873,105.0572 6.10106,37.91354 7.15328,45.92441 6.83732,52.05433 l -0.28539,5.53698 -5.15044,1.71198 c -14.10252,4.68763 -45.13668,6.83009 -76.78841,5.30111 z"/></svg>