<svg xmlns="http://www.w3.org/2000/svg" xmlns:svg="http://www.w3.org/2000/svg" id="svg7412" width="450" height="450" version="1.1" viewBox="0 0 450 450"><metadata id="metadata7418"/><path style="fill:#000" id="path10208" d="M 141.81558,403.82129 C 119.43338,400.786 86.92135,391.16054 70.67652,382.76004 l -4.49993,-2.32704 9.73923,-6.66489 c 13.12265,-8.98025 22.95245,-23.51843 28.61841,-42.32632 3.9773,-13.20251 4.2683,-16.28169 4.94872,-52.36602 0.89473,-47.44833 0.0912,-51.3321 -18.94179,-91.55736 -19.70288,-41.64096 -22.81162,-52.95604 -19.76931,-71.95561 4.64949,-29.036564 29.91672,-56.853165 62.92987,-69.279272 33.62984,-12.658244 66.04725,-7.139435 91.06878,15.503738 5.32265,4.816726 18.058,19.823547 28.30079,33.34844 33.06385,43.658724 39.1658,47.224124 91.05417,53.203234 33.63853,3.87621 43.35882,7.22262 47.11886,16.22168 2.90366,6.94942 2.89458,12.33395 -0.0303,17.99002 -5.54544,10.72371 -19.23549,15.34934 -50.67781,17.12314 -25.93689,1.46321 -32.07371,0.46282 -70.67238,-11.52076 -30.35926,-9.42553 -39.83214,-10.88535 -62.37016,-9.61162 -10.24366,0.57891 -19.16362,1.38555 -19.82212,1.79254 -0.65851,0.40698 -0.91942,24.92791 -0.57981,54.49093 0.86051,74.90355 2.76207,84.60153 27.14888,138.45753 6.15052,13.58283 10.88292,24.99589 10.51648,25.36234 -4.3495,4.34949 -62.34798,7.9693 -82.94156,5.17655 z"/></svg>