<svg xmlns="http://www.w3.org/2000/svg" xmlns:svg="http://www.w3.org/2000/svg" id="svg7422" width="450" height="450" version="1.1" viewBox="0 0 450 450"><metadata id="metadata7428"/><path style="fill:#000" id="path10175" d="m 237.54396,404.49043 c -20.95112,-2.37113 -43.84627,-10.20192 -61.20726,-20.93459 -20.43279,-12.63167 -39.39193,-31.68944 -50.61259,-50.8759 -2.63853,-4.5117 -4.0892,-5.94633 -8.90687,-8.80845 C 68.90274,295.406 40.558163,240.93359 44.526086,184.94283 48.827228,124.25 89.097617,72.18884 146.5528,53.043682 c 66.53025,-22.169138 140.55534,5.147937 176.10514,64.987118 2.86213,4.81767 4.29675,6.26833 8.80844,8.90685 8.96847,5.24497 20.00218,13.93057 28.57658,22.49515 55.22075,55.15752 58.99314,142.33712 8.76544,202.56847 -31.48398,37.75455 -82.21461,58.04038 -131.26444,52.48916 z m 37.84212,-31.00224 c 48.49883,-8.38548 88.15356,-48.15765 97.02638,-97.31375 1.96078,-10.8629 1.97181,-30.83955 0.0231,-41.66885 -2.53112,-14.06518 -9.29298,-31.60477 -16.52626,-42.86742 -2.16151,-3.36553 -12.10004,-16.6595 -12.45463,-16.6595 -0.0962,0 -0.002,6.98378 0.20918,15.51952 0.54805,22.14453 -1.95901,38.08655 -8.92666,56.76317 -15.44463,41.39894 -47.29039,73.24469 -88.68933,88.68932 -18.67661,6.96765 -34.61862,9.47471 -56.76317,8.92666 -8.53574,-0.21126 -15.51952,-0.30539 -15.51952,-0.20917 0,0.35459 13.29397,10.29312 16.65951,12.45458 13.81287,8.87112 32.75066,15.49279 50.52088,17.66481 8.23283,1.00627 24.69834,0.38507 34.44057,-1.29937 z m -63.77885,-59.48258 c 12.83816,-1.92708 22.64331,-5.01708 34.89253,-10.99605 24.87793,-12.14318 43.16167,-30.42795 55.29312,-55.29626 9.36337,-19.19401 12.87738,-36.01167 11.99939,-57.42771 -1.30259,-31.77296 -14.07189,-59.98044 -37.05264,-81.8496 -13.26229,-12.620808 -27.62766,-21.232823 -45.04523,-27.004554 -14.86774,-4.926782 -24.58524,-6.25609 -41.6365,-5.69567 -19.31455,0.634805 -33.37105,4.030171 -49.0326,11.84388 -16.34729,8.155837 -33.85986,22.909924 -44.139104,37.186544 -9.389721,13.04117 -16.894337,29.89763 -20.490415,46.02443 -2.202184,9.87581 -2.671351,32.62378 -0.895946,43.44122 1.674331,10.20164 6.695711,25.98283 10.964736,34.45998 15.818449,31.41125 45.767749,55.30126 79.316019,63.26896 14.73013,3.4984 31.23641,4.23492 45.82664,2.04483 z m -26.30374,-74.53842 c -7.20107,-1.37517 -15.8221,-5.95484 -21.88342,-11.62491 -18.61148,-17.41012 -18.90904,-47.00882 -0.65072,-64.72791 17.98247,-17.45141 46.75358,-16.76692 63.85938,1.51925 16.85509,18.01815 16.4172,45.1009 -1.00762,62.31878 -10.83435,10.7057 -25.67251,15.31154 -40.31762,12.51479 z m 15.67393,-30.93898 c 4.85348,-2.45037 7.84971,-7.45835 7.84971,-13.12023 0,-13.36982 -15.84275,-20.03303 -25.25425,-10.62155 -5.46299,5.46299 -5.94797,14.11129 -1.10093,19.63178 5.16289,5.88019 11.99408,7.39738 18.50547,4.11 z"/></svg>