<svg xmlns="http://www.w3.org/2000/svg" xmlns:svg="http://www.w3.org/2000/svg" id="svg4248" width="55" height="55" version="1.1" viewBox="0 0 55 55"><metadata id="metadata4254"/><g id="g834" transform="matrix(0.1526805,0,0,0.1526805,-5.7152106,-17.101833)"><path style="fill:#000" id="path7062" d="m 176.27244,401.88976 c -55.00343,-6.97151 -99.087059,-42.22837 -115.861219,-92.66258 -5.399378,-16.23407 -6.656444,-24.49049 -6.603068,-43.36913 0.04203,-14.86243 0.401955,-18.65672 2.702614,-28.48984 12.525902,-53.5361 52.145233,-92.38552 106.434573,-104.3663 14.03386,-3.09704 40.8607,-3.09704 54.89456,0 27.97994,6.17471 49.77389,17.96075 69.41614,37.53981 20.04427,19.97976 31.82212,41.92814 37.95609,70.73234 2.50391,11.75797 2.50391,38.4186 0,50.17657 -6.12735,28.77307 -17.88528,50.69515 -37.95609,70.76722 -19.62198,19.62323 -43.7912,32.5311 -70.75726,37.78876 -8.25311,1.60914 -33.18111,2.77612 -40.22634,1.88315 z"/><ellipse style="opacity:1;fill:none;fill-opacity:1;stroke:#fff;stroke-width:60;stroke-linecap:round;stroke-miterlimit:4;stroke-dasharray:none;stroke-dashoffset:0;stroke-opacity:1" id="path819" cx="190.448" cy="266.439" rx="89.816" ry="86.634"/><g id="g827" transform="translate(-40.311174,-6.3649222)"><circle id="path821" cx="304.455" cy="434.936" r="25" style="opacity:1;fill:#000;fill-opacity:1;stroke:#fff;stroke-width:0;stroke-linecap:round;stroke-miterlimit:4;stroke-dasharray:none;stroke-dashoffset:0;stroke-opacity:1"/><path id="path823" d="M 311.17397,432.1075 416.5488,325.31825" style="fill:#000;stroke:#000;stroke-width:10;stroke-linecap:round;stroke-linejoin:miter;stroke-miterlimit:4;stroke-dasharray:none;stroke-opacity:1"/></g></g></svg>