<svg xmlns="http://www.w3.org/2000/svg" xmlns:svg="http://www.w3.org/2000/svg" id="svg10680" width="450" height="450" version="1.1" viewBox="0 0 450 450"><metadata id="metadata10686"/><path style="fill:#000" id="path13402" d="m 215.08359,352.38668 0.3221,-56.84232 c 0.37184,-65.62023 -0.16749,-44.74897 -6.76018,-43.02485 -5.54252,1.44941 -6.76018,0.10362 -6.76018,-7.47083 0,-7.77117 1.14701,-8.93873 7.22123,-7.35027 6.93857,1.81447 7.13905,1.10232 5.12196,-18.19632 -1.29077,-12.34915 -0.81741,-20.08464 1.229,-20.08464 4.68045,0 4.15139,-19.05425 -0.74681,-26.89753 -3.35357,-5.36995 -2.97079,-7.74547 2.16229,-13.41742 l 6.23738,-6.89223 -89.19966,-0.90207 -89.199621,-0.90208 71.141311,-10.71304 c 65.82333,-9.91216 90.94596,-16.56868 102.05815,-27.04137 3.33988,-3.14761 3.33988,-4.3009 0,-5.65782 -3.13239,-1.27268 -2.91073,-2.61251 0.87523,-5.29 6.28914,-4.44774 7.23122,-4.44774 13.52036,0 3.78596,2.67749 4.00762,4.01732 0.87523,5.29 -3.33988,1.35692 -3.33988,2.51021 0,5.65782 11.11219,10.47269 36.23482,17.12921 102.05815,27.04137 l 71.14131,10.71304 -89.19962,0.90208 -89.19966,0.90207 6.23738,6.89223 c 5.13308,5.67195 5.51586,8.04747 2.16229,13.41742 -2.24127,3.58891 -4.07508,11.27388 -4.07508,17.07783 0,9.56821 0.78824,10.35473 8.45023,8.43168 7.64644,-1.91914 8.45023,-1.12853 8.45023,8.3116 0,8.70468 -1.06169,10.09544 -6.41076,8.39773 -6.16423,-1.95644 -6.42773,1.07671 -6.85258,78.87637 -0.24299,44.50112 0.54413,51.23981 1.74918,58.77565"/></svg>