<svg xmlns="http://www.w3.org/2000/svg" xmlns:svg="http://www.w3.org/2000/svg" id="Layer_1" width="512" height="512" x="0" style="enable-background:new 0 0 512 512" y="0" version="1.1" viewBox="0 0 512 512" xml:space="preserve"><metadata id="metadata13612"/><g id="g13602" transform="matrix(1.0377181,0,0,1.0377181,-14.074973,-2.0841298)"><path id="path13604" d="m 381.7,225.9 c 0,-97.6 -52.5,-130.8 -101.6,-138.2 0,-0.5 0.1,-1 0.1,-1.6 C 280.2,73.8 269.3,64 256,64 c -13.3,0 -23.8,9.8 -23.8,22.1 0,0.6 0,1.1 0.1,1.6 -49.2,7.5 -102,40.8 -102,138.4 0,113.8 -28.3,126 -66.3,158 l 384,0 C 410.2,352 381.7,339.7 381.7,225.9 Z"/><path id="path13606" d="m 256.2,448 c 26.8,0 48.8,-19.9 51.7,-43 l -103.4,0 c 2.8,23.1 24.9,43 51.7,43 z"/></g></svg>