<svg xmlns="http://www.w3.org/2000/svg" xmlns:svg="http://www.w3.org/2000/svg" id="svg14871" width="450" height="450" version="1.1" viewBox="0 0 450 450"><metadata id="metadata14877"/><path style="fill:#000" id="path16588" d="m 90.998589,256.14597 0,-149.4 22.500001,0 22.5,0 0,149.4 0,149.4 -22.5,0 -22.500001,0 0,-149.4 z m 112.500001,116.1 0,-33.3 22.5,0 22.5,0 0,33.3 0,33.3 -22.5,0 -22.5,0 0,-33.3 z m 112.5,-75.6 0,-108.9 22.5,0 22.5,0 0,108.9 0,108.9 -22.5,0 -22.5,0 0,-108.9 z m -121.5,19.35 0,-16.65 31.5,0 31.5,0 0,16.65 0,16.65 -31.5,0 -31.5,0 0,-16.65 z m 9,-146.7 0,-123.750001 22.5,0 22.5,0 0,123.750001 0,123.75 -22.5,0 -22.5,0 0,-123.75 z m 102.6,-4.5 0,-16.65 31.5,0 31.5,0 0,16.65 0,16.65 -31.5,0 -31.5,0 0,-16.65 z m 9.9,-71.100001 0,-48.15 22.5,0 22.5,0 0,48.15 0,48.150001 -22.5,0 -22.5,0 0,-48.150001 z m -233.100001,-9.9 0,-16.65 31.500001,0 31.5,0 0,16.65 0,16.650001 -31.5,0 -31.500001,0 0,-16.650001 z m 8.1,-30.6 0,-7.65 22.500001,0 22.5,0 0,7.65 0,7.65 -22.5,0 -22.500001,0 0,-7.65 z"/></svg>