<svg xmlns="http://www.w3.org/2000/svg" xmlns:svg="http://www.w3.org/2000/svg" id="svg4428" width="500" height="500" version="1.1" viewBox="0 0 500 500"><metadata id="metadata4434"/><path style="fill:#000" id="path16858" d="m 234.3083,60.496598 c -7.99475,-0.02046 -9.65788,0.300436 -15.43186,2.982895 -7.91164,3.675569 -13.55225,8.024581 -18.68761,14.405765 -2.14372,2.663791 -35.63354,59.110762 -74.42206,125.439252 C 86.978236,269.653 54.419015,325.28033 53.41438,326.94124 l -1.825553,3.02073 17.039214,9.44479 c 14.23342,7.88857 17.249669,9.22486 18.309545,8.11835 0.697893,-0.72861 32.970754,-55.59184 71.717214,-121.92033 38.74646,-66.32849 71.56458,-122.06003 72.92922,-123.84585 l 2.48232,-3.245658 2.73509,2.762178 c 3.15998,3.19203 171.73004,291.12451 172.747,295.06698 0.57605,2.23325 0.28364,2.7673 -1.98111,3.60512 -1.75577,0.64952 -53.9923,0.98168 -153.91247,0.98168 l -151.253,0 0,19.37306 0,19.37305 152.56221,-0.0168 c 130.74287,-0.0144 153.55667,-0.22175 159.50796,-1.44836 30.81236,-6.35068 43.84021,-34.73979 28.99496,-63.18525 C 434.91656,358.64117 272.34562,82.135239 268.50123,77.437508 263.11293,70.853147 255.87978,65.441919 248.74206,62.655465 244.53688,61.013834 241.18951,60.514206 234.3083,60.496598 Z"/></svg>