<svg xmlns="http://www.w3.org/2000/svg" xmlns:svg="http://www.w3.org/2000/svg" id="svg5587" width="288" height="541.867" version="1.1" viewBox="0 0 270 508"><metadata id="metadata5592"/><path id="path21-2-3-0" d="m 133,43 120,0 0,40 -120,0 0,-16 0,-2 -12,0 0,6 -4,0 0,-16 4,0 0,6 12,0 0,-2 z" style="fill:#00b700;fill-opacity:1;stroke:#007b00;stroke-width:2;stroke-linecap:round;stroke-opacity:1"/><text id="text23-0-6-8" x="160" y="42" style="font-size:20px;font-family:Sans;text-anchor:start;fill:#000"><tspan id="tspan25-7-2-20" x="180" y="68">sol</tspan></text><path style="fill:#f0f;fill-opacity:1;stroke:#c700d3;stroke-width:2;stroke-linecap:round;stroke-opacity:1" id="path21-6-7-2-79" d="m 132.99997,85 120,0 0,40 -120,0 0,-16 0,-2 -12,0 0,6 -4,0 0,-16 4,0 0,6 12,0 0,-2 z"/><text style="font-size:20px;font-family:Sans;text-anchor:start;fill:#000" id="text23-9-8-9-32" x="168" y="84"><tspan id="tspan25-8-2-4-4" x="188" y="110">4</tspan></text><path style="fill:#00b700;fill-opacity:1;stroke:#007b00;stroke-width:2;stroke-linecap:round;stroke-opacity:1" id="path3194-3-8-8" d="m 18.999991,59 0,-8 a 8,8 0 0 1 8,-8 l 8,0 0,4 20,0 0,-4 L 115,43 l 8,0 a 8,8 0 0 1 8,8 l 0,8 -8,0 0,-6 -8,0 0,20 8,0 0,-6 8,0 0,34 -8,0 0,-6 -8,0 0,20 8,0 0,-6 8,0 0,8 a 8,8 0 0 1 -8,8 l -8,0 -60.000009,0 -2,0 0,4 -16,0 0,-4 -2,0 -8,0 a 8,8 0 0 1 -8,-8 l 0,-8 0,-42 0,-8 z"/><text style="font-size:20px;font-family:Sans;text-anchor:end;fill:#000" id="text3196-7-6-0" x="18" y="42"><tspan id="tspan3198-0-1-1" x="112" y="91">tono</tspan></text><text style="font-size:13.33333302px;font-family:Sans;text-anchor:end;fill:#000" id="text3200-6-0-5" x="18" y="44"><tspan id="tspan3202-5-0-5" x="112" y="66.5">nota</tspan></text><text style="font-size:13.33333302px;font-family:Sans;text-anchor:end;fill:#000" id="text3204-9-5-3" x="18" y="46"><tspan id="tspan3206-0-8-3" x="112" y="110.5">octava</tspan></text><path style="fill:#1d8989;fill-opacity:1;stroke:#005459;stroke-width:2;stroke-linecap:round;stroke-opacity:1" id="path3035-8-1-5-4-4" d="m 0.99999237,17 0,-8 c 0,-4.41828 3.58172013,-8 8.00000013,-8 l 7.9999995,0 0,4 20,0 0,-4 18,0 L 131,1 l 8,0 c 4.41828,0 9.07159,3.71364 8,8 l 0,8 -8,0 0,-6 -8,0 0,20 8,0 0,-6 8,0 0,8 c 0,4.41827 -3.58172,8 -8,8 l -8,0 -76.000008,0 -2,0 0,4 -16,0 0,-4 -2,0 -8,0 c -5.52284,0 -10,4.47715 -10,10 l 0,8 0,49.99998 0,7.99999 c 0,5.52285 4.64205,11.3395 10,10 l 8,0 0,4 20,0 0,-4 16,0 0,12 0,12 0,8 c 0,4.41828 -3.71364,9.0716 -8,8 l -8,0 -18,0 -2,0 0,4 -16,0 0,-4 -2,0 -7.9999995,0 c -4.41828,0 -8.00000013,-3.58172 -8.00000013,-8 l 0,-8 z"/><text style="font-size:20px;font-family:Sans;text-anchor:start;fill:#000" id="text3037-0-1-8-8-8" x="0" y="0"><tspan id="tspan3039-6-1-0-8-9" x="8" y="30.5">fijar tambor</tspan></text><path style="fill:#1d8989;fill-opacity:1;stroke:#005459;stroke-width:2;stroke-linecap:round;stroke-opacity:1" id="path21-6-1-0-1-8-3-2" d="m 149,1 120,0 0,40 -120,0 0,-16 0,-2 -12,0 0,6 -4,0 0,-16 4,0 0,6 12,0 0,-2 z"/><text style="font-size:20px;font-family:Sans;text-anchor:start;fill:#000" id="text23-9-82-5-8-1-1-2" x="140.523" y="2.953"><tspan id="tspan25-8-5-1-3-7-2-3" x="160.523" y="28.953">tom tom</tspan></text><path id="path21-2-3-0-0" d="m 133.00001,378.99999 120,0 0,40 -120,0 0,-16 0,-2 -12,0 0,6 -4,0 0,-16 4,0 0,6 12,0 0,-2 z" style="fill:#00b700;fill-opacity:1;stroke:#007b00;stroke-width:2;stroke-linecap:round;stroke-opacity:1"/><text id="text23-0-6-8-5" x="164" y="378" style="font-size:20px;font-family:Sans;text-anchor:start;fill:#000"><tspan id="tspan25-7-2-20-0" x="184" y="404">re</tspan></text><path style="fill:#f0f;fill-opacity:1;stroke:#c700d3;stroke-width:2;stroke-linecap:round;stroke-opacity:1" id="path21-6-7-2-79-0" d="m 132.99998,420.99999 120,0 0,40 -120,0 0,-16 0,-2 -12,0 0,6 -4,0 0,-16 4,0 0,6 12,0 0,-2 z"/><text style="font-size:20px;font-family:Sans;text-anchor:start;fill:#000" id="text23-9-8-9-32-6" x="168" y="420"><tspan id="tspan25-8-2-4-4-6" x="188" y="446">4</tspan></text><path style="fill:#00b700;fill-opacity:1;stroke:#007b00;stroke-width:2;stroke-linecap:round;stroke-opacity:1" id="path3194-3-8-8-8" d="m 19.000007,394.99999 0,-8 a 8,8 0 0 1 8,-8 l 8,0 0,4 20,0 0,-4 60.000003,0 8,0 a 8,8 0 0 1 8,8 l 0,8 -8,0 0,-6 -8,0 0,20 8,0 0,-6 8,0 0,34 -8,0 0,-6 -8,0 0,20 8,0 0,-6 8,0 0,8 a 8,8 0 0 1 -8,8 l -8,0 -60.000003,0 -2,0 0,4 -16,0 0,-4 -2,0 -8,0 a 8,8 0 0 1 -8,-8 l 0,-8 0,-42 0,-8 z"/><text style="font-size:20px;font-family:Sans;text-anchor:end;fill:#000" id="text3196-7-6-0-1" x="18" y="378"><tspan id="tspan3198-0-1-1-9" x="112" y="427">tono</tspan></text><text style="font-size:13.33333302px;font-family:Sans;text-anchor:end;fill:#000" id="text3200-6-0-5-6" x="18" y="380"><tspan id="tspan3202-5-0-5-7" x="112" y="402.5">nota</tspan></text><text style="font-size:13.33333302px;font-family:Sans;text-anchor:end;fill:#000" id="text3204-9-5-3-8" x="18" y="382"><tspan id="tspan3206-0-8-3-7" x="112" y="446.5">octava</tspan></text><path style="fill:#1d8989;fill-opacity:1;stroke:#005459;stroke-width:2;stroke-linecap:round;stroke-opacity:1" id="path3035-8-1-5-4-4-2" d="m 1.0000077,352.99999 0,-8 c 0,-4.41828 3.58172,-8 8,-8 l 8.0000003,0 0,4 20,0 0,-4 18,0 76.000002,0 8,0 c 4.41828,0 9.07159,3.71364 8,8 l 0,8 -8,0 0,-6 -8,0 0,20 8,0 0,-6 8,0 0,8 c 0,4.41827 -3.58172,8 -8,8 l -8,0 -76.000002,0 -2,0 0,4 -16,0 0,-4 -2,0 -8,0 c -5.52284,0 -10,4.47715 -10,10 l 0,8 0,49.99998 0,7.99999 c 0,5.52285 4.64205,11.3395 10,10 l 8,0 0,4 20,0 0,-4 16,0 0,12 0,12 0,8 c 0,4.41828 -3.71364,9.0716 -8,8 l -8,0 -18,0 -2,0 0,4 -16,0 0,-4 -2,0 -8.0000003,0 c -4.41828,0 -8,-3.58172 -8,-8 l 0,-8 z"/><text style="font-size:20px;font-family:Sans;text-anchor:start;fill:#000" id="text3037-0-1-8-8-8-2" x="0" y="336"><tspan id="tspan3039-6-1-0-8-9-8" x="8" y="366.5">fijar tambor</tspan></text><path style="fill:#1d8989;fill-opacity:1;stroke:#005459;stroke-width:2;stroke-linecap:round;stroke-opacity:1" id="path21-6-1-0-1-8-3-2-4" d="m 149.00001,336.99999 120,0 0,40 -120,0 0,-16 0,-2 -12,0 0,6 -4,0 0,-16 4,0 0,6 12,0 0,-2 z"/><text style="font-size:20px;font-family:Sans;text-anchor:start;fill:#000" id="text23-9-82-5-8-1-1-2-0" x="140.523" y="338.953"><tspan id="tspan25-8-5-1-3-7-2-3-1" x="160.523" y="364.953">bombo</tspan></text><path id="path21-2-3-0-5" d="m 133.00001,210.99998 120,0 0,40 -120,0 0,-16 0,-2 -12,0 0,6 -4,0 0,-16 4,0 0,6 12,0 0,-2 z" style="fill:#00b700;fill-opacity:1;stroke:#007b00;stroke-width:2;stroke-linecap:round;stroke-opacity:1"/><text id="text23-0-6-8-0" x="166" y="210" style="font-size:20px;font-family:Sans;text-anchor:start;fill:#000"><tspan id="tspan25-7-2-20-8" x="186" y="236">mi</tspan></text><path style="fill:#f0f;fill-opacity:1;stroke:#c700d3;stroke-width:2;stroke-linecap:round;stroke-opacity:1" id="path21-6-7-2-79-9" d="m 132.99998,252.99998 120,0 0,40 -120,0 0,-16 0,-2 -12,0 0,6 -4,0 0,-16 4,0 0,6 12,0 0,-2 z"/><text style="font-size:20px;font-family:Sans;text-anchor:start;fill:#000" id="text23-9-8-9-32-2" x="168" y="252"><tspan id="tspan25-8-2-4-4-4" x="188" y="278">4</tspan></text><path style="fill:#00b700;fill-opacity:1;stroke:#007b00;stroke-width:2;stroke-linecap:round;stroke-opacity:1" id="path3194-3-8-8-2" d="m 19.000007,226.99998 0,-8 a 8,8 0 0 1 8,-8 l 8,0 0,4 20,0 0,-4 60.000003,0 8,0 a 8,8 0 0 1 8,8 l 0,8 -8,0 0,-6 -8,0 0,20 8,0 0,-6 8,0 0,34 -8,0 0,-6 -8,0 0,20 8,0 0,-6 8,0 0,8 a 8,8 0 0 1 -8,8 l -8,0 -60.000003,0 -2,0 0,4 -16,0 0,-4 -2,0 -8,0 a 8,8 0 0 1 -8,-8 l 0,-8 0,-42 0,-8 z"/><text style="font-size:20px;font-family:Sans;text-anchor:end;fill:#000" id="text3196-7-6-0-2" x="18" y="210"><tspan id="tspan3198-0-1-1-0" x="112" y="259">tono</tspan></text><text style="font-size:13.33333302px;font-family:Sans;text-anchor:end;fill:#000" id="text3200-6-0-5-1" x="18" y="212"><tspan id="tspan3202-5-0-5-3" x="112" y="234.5">nota</tspan></text><text style="font-size:13.33333302px;font-family:Sans;text-anchor:end;fill:#000" id="text3204-9-5-3-2" x="18" y="214"><tspan id="tspan3206-0-8-3-6" x="112" y="278.5">octava</tspan></text><path style="fill:#1d8989;fill-opacity:1;stroke:#005459;stroke-width:2;stroke-linecap:round;stroke-opacity:1" id="path3035-8-1-5-4-4-4" d="m 1.0000077,184.99998 0,-8 c 0,-4.41828 3.58172,-8 8,-8 l 8.0000003,0 0,4 20,0 0,-4 18,0 76.000002,0 8,0 c 4.41828,0 9.07159,3.71364 8,8 l 0,8 -8,0 0,-6 -8,0 0,20 8,0 0,-6 8,0 0,8 c 0,4.41827 -3.58172,8 -8,8 l -8,0 -76.000002,0 -2,0 0,4 -16,0 0,-4 -2,0 -8,0 c -5.52284,0 -10,4.47715 -10,10 l 0,8 0,49.99998 0,7.99999 c 0,5.52285 4.64205,11.3395 10,10 l 8,0 0,4 20,0 0,-4 16,0 0,12 0,12 0,8 c 0,4.41828 -3.71364,9.0716 -8,8 l -8,0 -18,0 -2,0 0,4 -16,0 0,-4 -2,0 -8.0000003,0 c -4.41828,0 -8,-3.58172 -8,-8 l 0,-8 z"/><text style="font-size:20px;font-family:Sans;text-anchor:start;fill:#000" id="text3037-0-1-8-8-8-25" x="0" y="168"><tspan id="tspan3039-6-1-0-8-9-2" x="8" y="198.5">fijar tambor</tspan></text><path style="fill:#1d8989;fill-opacity:1;stroke:#005459;stroke-width:2;stroke-linecap:round;stroke-opacity:1" id="path21-6-1-0-1-8-3-2-2" d="m 149.00001,168.99998 120,0 0,40 -120,0 0,-16 0,-2 -12,0 0,6 -4,0 0,-16 4,0 0,6 12,0 0,-2 z"/><text style="font-size:20px;font-family:Sans;text-anchor:start;fill:#000" id="text23-9-82-5-8-1-1-2-6" x="140.523" y="170.953"><tspan id="tspan25-8-5-1-3-7-2-3-18" x="160.523" y="196.953">triángulo</tspan></text></svg>