<svg xmlns="http://www.w3.org/2000/svg" xmlns:svg="http://www.w3.org/2000/svg" id="svg4075" width="207.079" height="161.199" version="1.1" viewBox="0 0 194.137 151.124"><metadata id="metadata4080"/><g id="g4085" transform="translate(0,0.56204231)"><path id="path3660" d="m 1,29 0,-8 c 0,-4.18879 3.8112098,-8 8,-8 l 8,0 10,-12 10,12 18,0 122,0 8,0 c 4.18879,0 9.01593,3.936277 8,8 l 0,8 0,8 0,8 c 0,4.18879 -3.81121,8 -8,8 l -8,0 -122,0 -2,0 0,4 -16,0 0,-4 -2,0 -8,0 c -2.617994,0 -5.219867,1.077731 -7.071068,2.928932 C 18.077731,57.780133 17,60.382006 17,63 l 0,8 0,8 0,8 c 0,2.61799 1.077731,5.21987 2.928932,7.07107 C 21.780133,95.92227 24.382004,97 27,97 l 8,0 0,4 20,0 0,-4 16,0 0,12 0,12 0,8 c 0,4.18879 -3.936277,6.98407 -8,8 l -8,0 -18,0 -10,12 -10,-12 -8,0 c -4.1887902,0 -8,-3.81121 -8,-8 l 0,-8 z" style="fill:#ffc000;fill-opacity:1;stroke:#c48d00;stroke-width:2;stroke-linecap:round;stroke-opacity:1"/><text id="text3662" style="font-size:20px;font-family:Sans;text-anchor:start;fill:#000"><tspan id="tspan3664" x="8" y="43">iniciar tambor</tspan></text></g><g id="g3918" transform="translate(18,54.562042)"><path style="fill:#ffc000;fill-opacity:1;stroke:#c48d00;stroke-width:2;stroke-linecap:round;stroke-opacity:1" id="path3058" d="M 1,17 1,9 A 8,8 0 0 1 9,1 l 8,0 0,4 20,0 0,-4 80,0 8,0 a 8,8 0 0 1 8,8 l 0,8 0,8 0,8 a 8,8 0 0 1 -8,8 l -8,0 -80,0 -2,0 0,4 -16,0 0,-4 -2,0 -8,0 A 8,8 0 0 1 1,33 l 0,-8 z"/><text style="font-size:20px;font-family:Sans;text-anchor:end;fill:#000" id="text3060"><tspan id="tspan3062" x="114" y="28">chunk</tspan></text></g><path id="path8" d="m 164.558,30.074889 16.41596,0 c 0.35659,0 0.64666,0.290074 0.64666,0.648047 l 0,1.09101 c 0,0.356126 -0.29007,0.647123 -0.64666,0.647123 l -16.41596,0 c -0.35797,0 -0.64805,-0.290074 -0.64805,-0.647123 l 0,-1.090548 c 0,-0.358897 0.28962,-0.648509 0.64805,-0.648509 z" style="display:inline;fill:red;fill-opacity:1;stroke:red;stroke-width:1.61665332;stroke-linecap:round;stroke-linejoin:round;stroke-opacity:1"/><rect id="rect10" width="15.307" height="10.221" x="165.112" y="32.461" style="display:inline;fill:none;stroke:red;stroke-width:1.61665332;stroke-linecap:round;stroke-linejoin:round;stroke-opacity:1"/><path id="path17" d="m 164.558,42.682013 16.41596,0 c 0.35659,0 0.64666,0.289612 0.64666,0.647123 l 0,1.09101 c 0,0.357974 -0.29007,0.648971 -0.64666,0.648971 l -16.41596,0 c -0.35797,0 -0.64805,-0.290535 -0.64805,-0.648971 l 0,-1.09101 c 0,-0.355663 0.28962,-0.647123 0.64805,-0.647123 z" style="display:inline;fill:red;fill-opacity:1;stroke:red;stroke-width:1.61665332;stroke-linecap:round;stroke-linejoin:round;stroke-opacity:1"/><path id="path19" d="m 165.11136,42.681089 3.94648,-10.22002 3.64717,10.219558 3.66103,-10.220019" style="display:inline;fill:none;stroke:red;stroke-width:1.61665332;stroke-linecap:round;stroke-linejoin:round;stroke-opacity:1"/><path id="path21" d="m 180.41691,42.681089 -4.05087,-10.22002" style="display:inline;fill:none;stroke:red;stroke-width:1.61665332;stroke-linecap:round;stroke-linejoin:round;stroke-opacity:1"/><line style="display:inline;fill:none;stroke:red;stroke-width:1.61665332;stroke-linecap:round;stroke-linejoin:round;stroke-opacity:1" id="line27" x1="175.661" x2="182.426" y1="27.742" y2="24.416" display="inline"/><line style="display:inline;fill:none;stroke:red;stroke-width:1.61665332;stroke-linecap:round;stroke-linejoin:round;stroke-opacity:1" id="line29" x1="162.89" x2="169.641" y1="22.691" y2="26.048" display="inline"/><path id="path23" d="m 171.97983,26.196307 c 0.25404,0.670218 -0.079,1.416188 -0.74274,1.668386 -0.66375,0.251736 -1.40834,-0.08684 -1.66238,-0.757056 -0.25266,-0.669756 0.0804,-1.41665 0.7432,-1.668848 0.66421,-0.25035 1.40833,0.08776 1.66192,0.757518 z" style="display:inline;fill:red;fill-opacity:1;stroke:red;stroke-width:1.03927708;stroke-linecap:round;stroke-linejoin:round;stroke-opacity:1"/><path id="path25" d="m 175.49813,29.263329 c -0.48038,0.519639 -1.2924,0.5492 -1.81435,0.06651 -0.52103,-0.482225 -0.5529,-1.293785 -0.0716,-1.813885 0.48084,-0.519639 1.29333,-0.549663 1.81343,-0.06744 0.52148,0.482687 0.55428,1.294709 0.0725,1.814809 z" style="display:inline;fill:red;fill-opacity:1;stroke:red;stroke-width:1.03927708;stroke-linecap:round;stroke-linejoin:round;stroke-opacity:1"/></svg>