<svg xmlns="http://www.w3.org/2000/svg" xmlns:svg="http://www.w3.org/2000/svg" id="svg5587" width="283.733" height="183.467" version="1.1" viewBox="0 0 266 172"><metadata id="metadata5592"/><path style="fill:#00b700;fill-opacity:1;stroke:#007b00;stroke-width:2;stroke-linecap:round;stroke-opacity:1" id="path21-2-3-0" d="m 133.00001,43 120,0 0,40 -120,0 0,-16 0,-2 -12,0 0,6 -4,0 0,-16 4,0 0,6 12,0 0,-2 z"/><text style="font-size:20px;font-family:Sans;text-anchor:start;fill:#000" id="text23-0-6-8" x="166" y="42"><tspan id="tspan25-7-2-20" x="186" y="68">re</tspan></text><path id="path21-6-7-2-79" d="m 132.99998,85 120,0 0,40 -120,0 0,-16 0,-2 -12,0 0,6 -4,0 0,-16 4,0 0,6 12,0 0,-2 z" style="fill:#f0f;fill-opacity:1;stroke:#c700d3;stroke-width:2;stroke-linecap:round;stroke-opacity:1"/><text id="text23-9-8-9-32" x="168" y="84" style="font-size:20px;font-family:Sans;text-anchor:start;fill:#000"><tspan id="tspan25-8-2-4-4" x="188" y="110">4</tspan></text><path id="path3194-3-8-8" d="m 18.999999,59 0,-8 a 8,8 0 0 1 8,-8 l 8,0 0,4 20,0 0,-4 60.000011,0 8,0 a 8,8 0 0 1 8,8 l 0,8 -8,0 0,-6 -8,0 0,20 8,0 0,-6 8,0 0,34 -8,0 0,-6 -8,0 0,20 8,0 0,-6 8,0 0,8 a 8,8 0 0 1 -8,8 l -8,0 -60.000011,0 -2,0 0,4 -16,0 0,-4 -2,0 -8,0 a 8,8 0 0 1 -8,-8 l 0,-8 0,-42 0,-8 z" style="fill:#00b700;fill-opacity:1;stroke:#007b00;stroke-width:2;stroke-linecap:round;stroke-opacity:1"/><text id="text3196-7-6-0" x="18" y="42" style="font-size:20px;font-family:Sans;text-anchor:end;fill:#000"><tspan id="tspan3198-0-1-1" x="112" y="91">tono</tspan></text><text id="text3200-6-0-5" x="18" y="44" style="font-size:13.33333302px;font-family:Sans;text-anchor:end;fill:#000"><tspan id="tspan3202-5-0-5" x="112" y="66.5">nota</tspan></text><text id="text3204-9-5-3" x="18" y="46" style="font-size:13.33333302px;font-family:Sans;text-anchor:end;fill:#000"><tspan id="tspan3206-0-8-3" x="112" y="110.5">octava</tspan></text><path id="path3035-8-1-5-4-4" d="M 1,17 1,9 C 1,4.58172 4.5817201,1 9.0000001,1 L 17,1 l 0,4 20,0 0,-4 18,0 72.00001,0 8,0 c 4.41828,0 9.07159,3.71364 8,8 l 0,8 -8,0 0,-6 -8,0 0,20 8,0 0,-6 8,0 0,8 c 0,4.41827 -3.58172,8 -8,8 l -8,0 L 55,41 l -2,0 0,4 -16,0 0,-4 -2,0 -8,0 c -5.52284,0 -10,4.47715 -10,10 l 0,8 0,49.99998 0,7.99999 c 0,5.52285 4.64205,11.3395 10,10 l 8,0 0,4 20,0 0,-4 16,0 0,12 0,12 0,8 c 0,4.41828 -3.71364,9.0716 -8,8 l -8,0 -18,0 -2,0 0,4 -16,0 0,-4 -2,0 -7.9999999,0 C 4.5817201,166.99997 1,163.41825 1,158.99997 l 0,-8 z" style="fill:#1d8989;fill-opacity:1;stroke:#005459;stroke-width:2;stroke-linecap:round;stroke-opacity:1"/><text id="text3037-0-1-8-8-8" x="0" y="0" style="font-size:20px;font-family:Sans;text-anchor:start;fill:#000"><tspan id="tspan3039-6-1-0-8-9" x="8" y="30.5">fijar tambor</tspan></text><path id="path21-6-1-0-1-8-3-2" d="m 145.00001,1 120,0 0,40 -120,0 0,-16 0,-2 -12,0 0,6 -4,0 0,-16 4,0 0,6 12,0 0,-2 z" style="fill:#1d8989;fill-opacity:1;stroke:#005459;stroke-width:2;stroke-linecap:round;stroke-opacity:1"/><text id="text23-9-82-5-8-1-1-2" x="136.523" y="2.953" style="font-size:20px;font-family:Sans;text-anchor:start;fill:#000"><tspan id="tspan25-8-5-1-3-7-2-3" x="156.523" y="28.953">bombo</tspan></text></svg>