<svg xmlns="http://www.w3.org/2000/svg" xmlns:svg="http://www.w3.org/2000/svg" id="svg3641" width="858" height="781.624" version="1.1"><metadata id="metadata3670"/><path id="path3027-4" d="m 1,30.06202 0,-8 c 0,-4.18879 3.81121,-8 8,-8 l 8,0 10,-12.0000004 10,12.0000004 18,0 70,0 8,0 c 4.18879,0 8,3.81121 8,8 l 0,8 -8,0 0,-6 -8,0 0,20 8,0 0,-6 8,0 0,8 c 0,4.18879 -3.81121,8 -8,8 l -8,0 -70,0 -2,0 0,4 -16,0 0,-4 -2,0 -8,0 c -2.61799,0 -5.21987,1.07773 -7.07107,2.92893 C 18.07773,58.84215 17,61.44402 17,64.06202 l 0,8 0,638.00003 0,8 c 0,2.618 1.07773,5.2198 2.92893,7.071 1.8512,1.8512 4.531247,2.294 7.07107,2.929 l 8,0 0,4 20,0 0,-4 16,0 0,12 0,12 0,8 c 0,4.1887 -3.93628,9.0159 -8,8 l -8,0 -18,0 -10,12 -10,-12 -8,0 c -4.18879,0 -8,-3.8113 -8,-8 l 0,-8 z" style="fill:#ffc000;fill-opacity:1;stroke:#c48d00;stroke-width:2;stroke-linecap:round;stroke-opacity:1"/><text id="text3029-4" x="-.055" y="-1.227" style="font-size:20px;font-family:Sans;text-anchor:start;fill:#000"><tspan id="tspan3031-5" x="7.945" y="41.773">acción</tspan></text><path id="path21-2-0" d="m 143,14.06202 120,0 0,40 -120,0 0,-16 0,-2 -12,0 0,6 -4,0 0,-16 4,0 0,6 12,0 0,-2 z" style="fill:#7bbbb8;fill-opacity:1;stroke:#4c8585;stroke-width:2;stroke-linecap:round;stroke-opacity:1"/><text id="text23-2" x="149.218" y="12.518" style="font-size:20px;font-family:Sans;text-anchor:start;fill:#000"><tspan id="tspan25-1" x="169.218" y="38.518">chunk</tspan></text><flowRoot id="flowRoot3830" transform="translate(0,-4.5839039e-5)" xml:space="preserve" style="font-style:normal;font-weight:400;font-size:16px;line-height:125%;font-family:Sans;text-align:end;letter-spacing:0;word-spacing:0;text-anchor:end;fill:#000;fill-opacity:1;stroke:none;stroke-width:1px;stroke-linecap:butt;stroke-linejoin:miter;stroke-opacity:1"><flowRegion id="flowRegion3832"><rect id="rect3834" width="3.864" height="325.833" x="287.197" y="276.783"/></flowRegion><flowPara id="flowPara3836"/></flowRoot><path style="fill:#1d8989;fill-opacity:1;stroke:#005459;stroke-width:2;stroke-linecap:round;stroke-opacity:1" id="path21-6-1-0-1-8-3-2" d="m 151,476.1241 120,0 0,40 -120,0 0,-16 0,-2 -12,0 0,6 -4,0 0,-16 4,0 0,6 12,0 0,-2 z"/><text style="font-size:20px;font-family:Sans;text-anchor:start;fill:#000" id="text23-9-82-5-8-1-1-2" x="142.523" y="478.077"><tspan id="tspan25-8-5-1-3-7-2-3" x="162.523" y="504.077">bombo</tspan></text><path id="path3051" d="m 37,492.1241 0,-8 a 8,8 0 0 1 8,-8 l 8,0 0,4 20,0 0,-4 60,0 8,0 a 8,8 0 0 1 8,8 l 0,8 -8,0 0,-6 -8,0 0,20 8,0 0,-6 8,0 0,8 a 8,8 0 0 1 -8,8 l -8,0 -60,0 -2,0 0,4 -16,0 0,-4 -2,0 -8,0 a 8,8 0 0 1 -8,-8 l 0,-8 0,-8 z" style="fill:#1d8989;fill-opacity:1;stroke:#005459;stroke-width:2;stroke-linecap:round;stroke-opacity:1"/><text id="text3053" x="36" y="475.124" style="font-size:20px;font-family:Sans;text-anchor:end;fill:#000"><tspan id="tspan3055" x="130" y="503.124">tambor</tspan></text><flowRoot style="font-style:normal;font-weight:400;font-size:16px;line-height:125%;font-family:sans-serif;text-align:center;letter-spacing:0;word-spacing:0;text-anchor:middle;fill:#000;fill-opacity:1;stroke:none;stroke-width:1px;stroke-linecap:butt;stroke-linejoin:miter;stroke-opacity:1" id="flowRoot4622" transform="translate(770.90853,60.956888)" xml:space="preserve"><flowRegion id="flowRegion4624"><rect id="rect4626" width="320.467" height="182.714" x="673.46" y="575.885"/></flowRegion><flowPara id="flowPara4628"/></flowRoot><path id="path3660" d="m 441,29.562051 0,-8 c 0,-4.18879 3.81121,-8 8,-8 l 8,0 10,-12.000001 10,12.000001 18,0 60,0 8,0 c 4.18879,0 8,3.81121 8,8 l 0,8 0,8 0,8 c 0,4.18879 -3.81121,8 -8,8 l -8,0 -60,0 -2,0 0,4 -16,0 0,-4 -2,0 -8,0 c -2.61799,0 -5.21987,1.077731 -7.07107,2.928932 C 458.07773,58.342184 457,60.944057 457,63.562051 l 0,8 0,8 0,425.999999 c 0,2.61799 1.07773,5.21987 2.92893,7.07107 1.8512,1.8512 4.53124,2.29397 7.07107,2.92893 l 8,0 0,4 20,0 0,-4 16,0 0,12 0,12 0,8 c 0,4.18879 -3.93628,6.98407 -8,8 l -8,0 -18,0 -10,12 -10,-12 -8,0 c -4.18879,0 -8,-3.81121 -8,-8 l 0,-8 z" style="fill:#ffc000;fill-opacity:1;stroke:#c48d00;stroke-width:2;stroke-linecap:round;stroke-opacity:1"/><text id="text3662" x="440" y=".562" style="font-size:20px;font-family:Sans;text-anchor:start;fill:#000"><tspan id="tspan3664" x="448" y="43.562">iniciar</tspan></text><path id="path4206" d="m 551.37629,43.03506 c -0.24354,0 -0.48399,-0.01591 -0.72092,-0.04546 l 0.61126,1.067795 0.60246,-1.051431 c -0.16339,0.01364 -0.32633,0.02909 -0.4928,0.02909 z" style="fill:#eee;stroke:red;stroke-width:1.75;stroke-linecap:round;stroke-linejoin:round;stroke-miterlimit:4;stroke-dasharray:none;stroke-opacity:1"/><path style="fill:#ff8080;fill-opacity:1;stroke:red;stroke-width:1.75;stroke-linecap:round;stroke-linejoin:round;stroke-miterlimit:4;stroke-dasharray:none;stroke-opacity:1" id="path4210" d="m 556.95295,26.419006 c -0.953,0 -1.74306,0.706863 -1.91261,1.63965 0.81868,0.611402 1.52243,1.415999 2.05882,2.367422 1.00629,-0.07819 1.80296,-0.936877 1.80296,-1.995581 0,-1.110979 -0.87286,-2.011491 -1.94917,-2.011491 z"/><path style="fill:#ff8080;fill-opacity:1;stroke:red;stroke-width:1.75;stroke-linecap:round;stroke-linejoin:round;stroke-miterlimit:4;stroke-dasharray:none;stroke-opacity:1" id="path4212" d="m 557.19649,39.220273 c -0.53904,1.01461 -1.25952,1.877846 -2.11255,2.525614 0.22944,0.847327 0.97458,1.472367 1.86901,1.472367 1.07587,0 1.94917,-0.900058 1.94917,-2.011037 0,-1.025065 -0.74558,-1.861936 -1.70563,-1.986944 z"/><path style="fill:#ff8080;fill-opacity:1;stroke:red;stroke-width:1.75;stroke-linecap:round;stroke-linejoin:round;stroke-miterlimit:4;stroke-dasharray:none;stroke-opacity:1" id="path4214" d="m 545.55258,39.213 c -0.9922,0.09364 -1.77213,0.945059 -1.77213,1.994217 0,1.110525 0.87197,2.011037 1.94828,2.011037 0.90897,0 1.66644,-0.645496 1.88135,-1.514642 -0.82926,-0.643677 -1.53036,-1.495095 -2.0575,-2.490612 z"/><path style="fill:#ff8080;fill-opacity:1;stroke:red;stroke-width:1.75;stroke-linecap:round;stroke-linejoin:round;stroke-miterlimit:4;stroke-dasharray:none;stroke-opacity:1" id="path4216" d="m 547.64575,28.105931 c -0.15105,-0.955969 -0.9486,-1.686925 -1.91702,-1.686925 -1.07631,0 -1.94828,0.900512 -1.94828,2.011037 0,1.082796 0.83057,1.959215 1.86945,2.002854 0.5223,-0.928695 1.20315,-1.720109 1.99585,-2.326966 z"/><path id="path4218" d="m 551.37629,26.799485 c 0.84026,0 1.64177,0.18683 2.38603,0.51276 0.32633,-0.489122 0.51878,-1.080523 0.51878,-1.719655 0,-1.676015 -1.31632,-3.035192 -2.94048,-3.035192 -1.62372,0 -2.94005,1.359177 -2.94005,3.035192 0,0.649132 0.19906,1.249625 0.53552,1.742838 0.75923,-0.340476 1.57968,-0.535943 2.4402,-0.535943 z" style="fill:#ff8080;fill-opacity:1;stroke:red;stroke-width:1.75;stroke-linecap:round;stroke-linejoin:round;stroke-miterlimit:4;stroke-dasharray:none;stroke-opacity:1"/><path style="fill:#ff8080;fill-opacity:1;stroke:red;stroke-width:1.75;stroke-linecap:round;stroke-linejoin:round;stroke-miterlimit:4;stroke-dasharray:none;stroke-opacity:1" id="path4222" d="m 558.24858,34.917272 c 0,2.152137 -0.72453,4.218359 -2.01285,5.740137 -1.28831,1.521824 -3.0375,2.377651 -4.85944,2.377651 -1.82193,0 -3.57112,-0.855827 -4.85944,-2.377651 -1.28831,-1.521778 -2.01284,-3.588 -2.01284,-5.740137 0,-4.453282 3.10228,-8.117787 6.87228,-8.117787 3.77001,0 6.87229,3.664505 6.87229,8.117787 z"/><path style="fill:red;fill-opacity:1;stroke:none" id="path4226" d="m 550.66198,36.43055 -0.67908,-2.102406 1.39339,-1.175983 1.59201,1.193712 -0.65486,2.122407 z"/><path style="fill:red;fill-opacity:1;stroke:none" id="path4228" d="m 551.37805,39.976684 c -1.74746,-0.07273 -2.44108,-0.913239 -2.44108,-0.913239 l 1.5722,-1.892393 1.96634,0.07637 1.3793,1.872846 c 0,0 -1.27273,0.906421 -2.47676,0.856418 z"/><path style="fill:red;fill-opacity:1;stroke:none" id="path4230" d="m 547.39341,36.472826 c -0.37389,-1.349177 0.0757,-3.12929 0.0757,-3.12929 l 1.76156,0.985063 0.65751,2.104224 -1.57748,1.924213 c 0,-4.54e-4 -0.64517,-0.904603 -0.91733,-1.88421 z"/><path style="fill:red;fill-opacity:1;stroke:none" id="path4232" d="m 547.836,32.509847 c 0,0 0.22019,-0.890056 1.33834,-1.737383 0.98516,-0.746865 1.96634,-0.781868 1.96634,-0.781868 l -0.0163,2.264235 -1.55061,1.250079 -1.73778,-0.995063 z"/><path style="fill:red;fill-opacity:1;stroke:none" id="path4234" d="m 553.39636,33.741289 -1.52331,-1.306901 0.16515,-2.367878 c 0,0 0.80767,-0.01909 1.7435,0.757776 0.98119,0.814142 1.48059,2.265143 1.48059,2.265143 l -1.86593,0.65186 z"/><path style="fill:red;fill-opacity:1;stroke:none" id="path4236" d="m 553.04757,36.563286 0.57823,-2.02922 1.84392,-0.698226 c 0,0 0.29814,1.210532 -0.0185,2.576073 -0.23781,1.025519 -0.91777,1.982398 -0.91777,1.982398 l -1.48588,-1.831025 z"/><path style="fill:#ffc000;fill-opacity:1;stroke:#c48d00;stroke-width:2;stroke-linecap:round;stroke-opacity:1" id="path3058" d="m 513,280.1241 0,-8 a 8,8 0 0 1 8,-8 l 8,0 0,4 20,0 0,-4 80,0 8,0 a 8,8 0 0 1 8,8 l 0,8 0,8 0,8 a 8,8 0 0 1 -8,8 l -8,0 -80,0 -2,0 0,4 -16,0 0,-4 -2,0 -8,0 a 8,8 0 0 1 -8,-8 l 0,-8 z"/><text style="font-size:20px;font-family:Sans;text-anchor:end;fill:#000" id="text3060" x="512" y="263.124"><tspan id="tspan3062" x="626" y="291.124">chunk</tspan></text><path style="fill:#fd6600;fill-opacity:1;stroke:#ac3d00;stroke-width:2;stroke-linecap:round;stroke-opacity:1" id="path3172" d="m 701,180.1241 120,0 0,40 -120,0 0,-16 0,-2 -12,0 0,6 -4,0 0,-16 4,0 0,6 12,0 0,-2 z"/><text style="font-size:20px;font-family:Sans;text-anchor:start;fill:#000" id="text3174" x="684" y="179.124"><tspan id="tspan3176" x="704" y="205.124">caja</tspan></text><path style="fill:#fd6600;fill-opacity:1;stroke:#ac3d00;stroke-width:2;stroke-linecap:round;stroke-opacity:1" id="path3172-8" d="m 737,474.1241 120,0 0,40 -120,0 0,-16 0,-2 -12,0 0,6 -4,0 0,-16 4,0 0,6 12,0 0,-2 z"/><text style="font-size:20px;font-family:Sans;text-anchor:start;fill:#000" id="text3174-5" x="720" y="473.124"><tspan id="tspan3176-0" x="740" y="499.124">caja</tspan></text><path style="fill:#fd6600;fill-opacity:1;stroke:#ac3d00;stroke-width:2;stroke-linecap:round;stroke-opacity:1" id="path21" d="m 459,70.1241 0,-8 c 10e-6,-4.418274 3.58173,-7.99999 8,-7.99999 l 8,0 0,3.99999 20,0 0,-3.99999 90,0 8,0 c 4.41827,0 9.07159,3.713635 8,7.99999 l 0,8 -8,0 0,-6 -8,0 0,20 8,0 0,-6 8,0 0,33.99999 -8,0 0,-6 -8,0 0,20 8,0 0,-6 8,0 0,8 c 0,4.41828 -3.58172,8 -8,8 l -8,0 -90,0 -2,0 0,4 -16,0 0,-4 -2,0 -8,0 c -4.41828,0 -8,-3.58172 -8,-8 l 0,-8 0,-41.99999 z"/><text style="font-size:20px;font-family:Sans;text-anchor:end;fill:#000" id="text23" x="470" y="53.124"><tspan id="tspan25" x="580" y="102.124">guardar en</tspan></text><text style="font-size:13.33333302px;font-family:Sans;text-anchor:end;fill:#000" id="text27" x="470" y="55.124"><tspan id="tspan29" x="580" y="77.624">nombre</tspan></text><text style="font-size:13.33333302px;font-family:Sans;text-anchor:end;fill:#000" id="text31" x="470" y="57.124"><tspan id="tspan33" x="580" y="121.624">valor</tspan></text><path id="path21-2-0-6" d="m 603,54.12411 120,0 0,39.99999 -120,0 0,-16 0,-2 -12,0 0,6 -4,0 0,-16 4,0 0,6 12,0 0,-2 z" style="fill:#7bbbb8;fill-opacity:1;stroke:#4c8585;stroke-width:2;stroke-linecap:round;stroke-opacity:1"/><text id="text23-2-0" x="609.218" y="52.206" style="font-size:20px;font-family:Sans;text-anchor:start;fill:#000"><tspan id="tspan25-1-8" x="629.218" y="78.206">caja</tspan></text><path id="path21-6-72-7" d="m 603,96.1241 120,0 0,39.99999 -120,0 0,-16 0,-2 -12,0 0,6 -4,0 0,-16 4,0 0,6 12,0 0,-2 z" style="fill:#f0f;fill-opacity:1;stroke:#c700d3;stroke-width:2;stroke-linecap:round;stroke-opacity:1"/><text id="text23-9-5-5" x="634" y="94.75" style="font-size:20px;font-family:Sans;text-anchor:start;fill:#000"><tspan id="tspan25-8-7-0" x="654" y="120.75">0.5</tspan></text><path style="fill:#e37a00;fill-opacity:1;stroke:#a34600;stroke-width:2;stroke-linecap:round;stroke-opacity:1" id="path3035-6" d="m 459,154.1241 0,-8 c 0,-4.41828 3.58172,-8 8,-8 l 8,0 0,4 20,0 0,-4 18,0 40,0 8,0 c 4.41828,0 8,3.58172 8,8 l 0,8 -8,0 0,-6 -8,0 0,20 8,0 0,-6 8,0 0,8 c 0,4.41828 -3.58172,8 -8,8 l -8,0 -40,0 -2,0 0,4 -16,0 0,-4 -2,0 -8,0 c -5.52285,0 -10,4.47715 -10,10 l 0,8 0,260 0,8 c 0,5.52285 4.47715,10 10,10 l 8,0 0,4 20,0 0,-4 16,0 0,12 0,12 0,8 c 0,4.41828 -3.58172,8 -8,8 l -8,0 -18,0 -2,0 0,4 -16,0 0,-4 -2,0 -8,0 c -4.41828,0 -8,-3.58172 -8,-8 l 0,-8 z"/><text style="font-size:20px;font-family:Sans;text-anchor:start;fill:#000" id="text3037-4" x="458" y="137.124"><tspan id="tspan3039-21" x="466" y="167.624">repetir</tspan></text><path id="path21-6-72-7-7" d="m 571,138.12411 120,0 0,40 -120,0 0,-16 0,-2 -12,0 0,6 -4,0 0,-16 4,0 0,6 12,0 0,-2 z" style="fill:#f0f;fill-opacity:1;stroke:#c700d3;stroke-width:2;stroke-linecap:round;stroke-opacity:1"/><text id="text23-9-5-5-0" x="604" y="137.124" style="font-size:20px;font-family:Sans;text-anchor:start;fill:#000"><tspan id="tspan25-8-7-0-3" x="624" y="163.124">4</tspan></text><path style="fill:#fd6600;fill-opacity:1;stroke:#ac3d00;stroke-width:2;stroke-linecap:round;stroke-opacity:1" id="path3035-1" d="m 477,196.1241 0,-8 c 0,-4.41828 3.58172,-8 8,-8 l 8,0 0,4 20,0 0,-4 18,0 152,0 8,0 c 4.41828,0 9.07159,3.71364 8,8 l 0,8 -8,0 0,-6 -8,0 0,20 8,0 0,-6 8,0 0,8 c 0,4.41828 -3.58172,8 -8,8 l -8,0 -152,0 -2,0 0,4 -16,0 0,-4 -2,0 -8,0 c -5.52285,0 -10,4.47715 -10,10 l 0,108 0,-108 0,108 c 0,5.52285 4.64205,8.66051 10,10 l 8,0 0,4 20,0 0,-4 16,0 0,12 0,12 0,8 c 0,4.41828 -3.58172,8 -8,8 l -8,0 -18,0 -2,0 0,4 -16,0 0,-4 -2,0 -8,0 c -4.41828,0 -8,-3.58172 -8,-8 l 0,-8 z"/><text style="font-size:20px;font-family:Sans;text-anchor:start;fill:#000" id="text3037-6" x="476" y="177.124"><tspan id="tspan3039-26" x="484" y="207.624">ritmo multiplican</tspan></text><path style="fill:#e37a00;fill-opacity:1;stroke:#a34600;stroke-width:2;stroke-linecap:round;stroke-opacity:1" id="path3035-6-5" d="m 495,238.1241 0,-8 c 0,-4.41828 3.58172,-8 8,-8 l 8,0 0,4 20,0 0,-4 18,0 40,0 8,0 c 4.41828,0 8,3.58172 8,8 l 0,8 -8,0 0,-6 -8,0 0,20 8,0 0,-6 8,0 0,8 c 0,4.41828 -3.58172,8 -8,8 l -8,0 -40,0 -2,0 0,4 -16,0 0,-4 -2,0 -8,0 c -5.52285,0 -10,4.47715 -10,10 l 0,8 0,8 0,8 c 0,5.52285 4.47715,10 10,10 l 8,0 0,4 20,0 0,-4 16,0 0,12 0,12 0,8 c 0,4.41828 -3.71364,6.92841 -8,8 l -8,0 -18,0 -2,0 0,4 -16,0 0,-4 -2,0 -8,0 c -4.41828,0 -8,-3.58172 -8,-8 l 0,-8 z"/><text style="font-size:20px;font-family:Sans;text-anchor:start;fill:#000" id="text3037-4-1" x="494" y="221.124"><tspan id="tspan3039-21-4" x="502" y="251.624">repetir</tspan></text><path id="path21-6-72-7-7-1" d="m 607,222.12411 120,0 0,40 -120,0 0,-16 0,-2 -12,0 0,6 -4,0 0,-16 4,0 0,6 12,0 0,-2 z" style="fill:#f0f;fill-opacity:1;stroke:#c700d3;stroke-width:2;stroke-linecap:round;stroke-opacity:1"/><text id="text23-9-5-5-0-7" x="640" y="221.124" style="font-size:20px;font-family:Sans;text-anchor:start;fill:#000"><tspan id="tspan25-8-7-0-3-48" x="660" y="247.124">4</tspan></text><path style="fill:#fd6600;fill-opacity:1;stroke:#ac3d00;stroke-width:2;stroke-linecap:round;stroke-opacity:1" id="path21-6" d="m 477,406.1241 0,-8 c 10e-6,-4.41827 3.58173,-7.99999 8,-7.99999 l 8,0 0,3.99999 20,0 0,-3.99999 92,0 8,0 c 4.41827,0 9.07159,3.71363 8,7.99999 l 0,8 -8,0 0,-6 -8,0 0,20 8,0 0,-6 8,0 0,34 -8,0 0,-6 -8,0 0,20 8,0 0,-6 8,0 0,8 c 0,4.41828 -3.58172,8 -8,8 l -8,0 -92,0 -2,0 0,4 -16,0 0,-4 -2,0 -8,0 c -4.41828,0 -8,-3.58172 -8,-8 l 0,-8 0,-42 z"/><text style="font-size:20px;font-family:Sans;text-anchor:end;fill:#000" id="text23-7" x="490" y="389.124"><tspan id="tspan25-12" x="600" y="438.124">guardar en</tspan></text><text style="font-size:13.33333302px;font-family:Sans;text-anchor:end;fill:#000" id="text27-1" x="490" y="391.124"><tspan id="tspan29-6" x="600" y="413.624">nombre</tspan></text><text style="font-size:13.33333302px;font-family:Sans;text-anchor:end;fill:#000" id="text31-7" x="490" y="393.124"><tspan id="tspan33-6" x="600" y="457.624">valor</tspan></text><path id="path21-2-0-6-0" d="m 623,390.12411 120,0 0,39.99999 -120,0 0,-16 0,-2 -12,0 0,6 -4,0 0,-16 4,0 0,6 12,0 0,-2 z" style="fill:#7bbbb8;fill-opacity:1;stroke:#4c8585;stroke-width:2;stroke-linecap:round;stroke-opacity:1"/><text id="text23-2-0-6" x="629.218" y="388.206" style="font-size:20px;font-family:Sans;text-anchor:start;fill:#000"><tspan id="tspan25-1-8-6" x="649.218" y="414.206">caja</tspan></text><path id="path21-6-72-7-74" d="m 737,432.1241 120,0 0,40 -120,0 0,-16 0,-2 -12,0 0,6 -4,0 0,-16 4,0 0,6 12,0 0,-2 z" style="fill:#f0f;fill-opacity:1;stroke:#c700d3;stroke-width:2;stroke-linecap:round;stroke-opacity:1"/><text id="text23-9-5-5-9" x="770" y="430.75" style="font-size:20px;font-family:Sans;text-anchor:start;fill:#000"><tspan id="tspan25-8-7-0-7" x="790" y="456.75">2</tspan></text><path id="path3798-4-4-5" d="m 623,448.1241 0,-8 a 8,8 0 0 1 8,-8 l 8,0 20,0 60,0 8,0 a 8,8 0 0 1 8,8 l 0,8 -8,0 0,-6 -8,0 0,20 8,0 0,-6 8,0 0,34 -8,0 0,-6 -8,0 0,20 8,0 0,-6 8,0 0,8 a 8,8 0 0 1 -8,8 l -8,0 -60,0 -20,0 -8,0 a 8,8 0 0 1 -8,-8 l 0,-8 0,-42 0,-2 -12,0 0,6 -4,0 0,-16 4,0 0,6 12,0 0,-2 z" style="fill:#f0f;fill-opacity:1;stroke:#c700d3;stroke-width:2;stroke-linecap:round;stroke-opacity:1"/><text id="text3800-3-2-0" x="598" y="431.124" style="font-size:28px;font-family:sans-serif;text-anchor:end;fill:#000"><tspan id="tspan3802-6-2-5" x="708" y="480.124">x</tspan></text><path style="fill:#fd6600;fill-opacity:1;stroke:#ac3d00;stroke-width:2;stroke-linecap:round;stroke-opacity:1" id="path3035-0" d="m 19,408.12411 0,-8 c 0,-4.41828 3.58172,-8 8,-8 l 8,0 0,4 20,0 0,-4 18,0 110,0 8,0 c 4.41828,0 9.07159,3.71364 8,8 l 0,8 -8,0 0,-6 -8,0 0,20 8,0 0,-6 8,0 0,8 c 0,4.41827 -3.58172,8 -8,8 l -8,0 -110,0 -2,0 0,4 -16,0 0,-4 -2,0 -8,0 c -5.52285,0 -10,4.47715 -10,9.99999 l 0,8 0,50.00001 0,7.99999 c 0,5.52285 4.64205,11.3395 10,10 l 8,0 0,4 20,0 0,-4 16,0 0,12 0,12 0,8 c 0,4.41828 -3.71365,9.0716 -8,8 l -8,0 -18,0 -2,0 0,4 -16,0 0,-4 -2,0 -8,0 c -4.41828,0 -8,-3.58172 -8,-8 l 0,-8 z"/><text style="font-size:20px;font-family:Sans;text-anchor:start;fill:#000" id="text3037-6-3" x="16" y="389.124"><tspan id="tspan3039-2" x="24" y="419.624">valor de la nota</tspan></text><path style="fill:#f0f;fill-opacity:1;stroke:#c700d3;stroke-width:2;stroke-linecap:round;stroke-opacity:1" id="path21-6-1-1" d="m 315,434.12411 120,0 0,40 -120,0 0,-16 0,-2 -12,0 0,6 -4,0 0,-16 4,0 0,6 12,0 0,-2 z"/><text style="font-size:20px;font-family:Sans;text-anchor:start;fill:#000" id="text23-9-82-8" x="350" y="433.124"><tspan id="tspan25-8-5-7-6" x="370" y="459.124">8</tspan></text><path style="fill:#f0f;fill-opacity:1;stroke:#c700d3;stroke-width:2;stroke-linecap:round;stroke-opacity:1" id="path3798-4-4-5-2" d="m 201,408.12411 0,-8 a 8,8 0 0 1 8,-8 l 8,0 20,0 60,0 8,0 a 8,8 0 0 1 8,8 l 0,8 -8,0 0,-6 -8,0 0,20 8,0 0,-6 8,0 0,34 -8,0 0,-6 -8,0 0,20 8,0 0,-6 8,0 0,8 a 8,8 0 0 1 -8,8 l -8,0 -60,0 -20,0 -8,0 a 8,8 0 0 1 -8,-8 l 0,-8 0,-42 0,-2 -12,0 0,6 -4,0 0,-16 4,0 0,6 12,0 0,-2 z"/><text style="font-size:28px;font-family:sans-serif;text-anchor:end;fill:#000" id="text3800-3-2-0-0" x="176" y="391.124"><tspan id="tspan3802-6-2-5-2" x="286" y="440.124">/</tspan></text><path style="fill:#f0f;fill-opacity:1;stroke:#c700d3;stroke-width:2;stroke-linecap:round;stroke-opacity:1" id="path21-8-2-1-0-6-7" d="m 315,392.12411 120,0 0,40 -120,0 0,-16 0,-2 -12,0 0,6 -4,0 0,-16 4,0 0,6 12,0 0,-2 z"/><text style="font-size:20px;font-family:Sans;text-anchor:start;fill:#000" id="text23-0-1-0-1-0-5" x="347" y="393.124"><tspan id="tspan25-7-0-5-2-5-9" x="367" y="419.124">1</tspan></text><path id="path3124-2" d="m 37,450.12411 0,-8 c 0,-4.41828 3.58172,-8 8,-8 l 8,0 0,4 20,0 0,-4 60,0 8,0 c 4.41828,0 8,3.58172 8,8 l 0,8 0,8 0,8 c 0,4.41828 -3.71364,6.92841 -8,8 l -8,0 -60,0 -2,0 0,4 -16,0 0,-4 -2,0 -8,0 c -4.41828,0 -8,-3.58172 -8,-8 l 0,-8 0,0 z" style="fill:#fd6600;fill-opacity:1;stroke:#ac3d00;stroke-width:2;stroke-linecap:round;stroke-opacity:1"/><text style="font-style:normal;font-weight:400;font-size:16px;line-height:125%;font-family:sans-serif;text-align:center;letter-spacing:0;word-spacing:0;text-anchor:middle;fill:#000;fill-opacity:1;stroke:none;stroke-width:1px;stroke-linecap:butt;stroke-linejoin:miter;stroke-opacity:1" id="text6137-2" x="118.823" y="461.047" xml:space="preserve"><tspan id="tspan6139-8" x="118.823" y="461.047" style="font-size:22.5px">↓</tspan></text><path style="fill:#1d8989;fill-opacity:1;stroke:#005459;stroke-width:2;stroke-linecap:round;stroke-opacity:1" id="path21-6-1-0-1-8-3-2-7" d="m 151,308.1241 120,0 0,40 -120,0 0,-16 0,-2 -12,0 0,6 -4,0 0,-16 4,0 0,6 12,0 0,-2 z"/><text style="font-size:20px;font-family:Sans;text-anchor:start;fill:#000" id="text23-9-82-5-8-1-1-2-5" x="142.523" y="310.077"><tspan id="tspan25-8-5-1-3-7-2-3-3" x="162.523" y="336.077">bombo</tspan></text><path id="path3051-5" d="m 37,324.1241 0,-8 a 8,8 0 0 1 8,-8 l 8,0 0,4 20,0 0,-4 60,0 8,0 a 8,8 0 0 1 8,8 l 0,8 -8,0 0,-6 -8,0 0,20 8,0 0,-6 8,0 0,8 a 8,8 0 0 1 -8,8 l -8,0 -60,0 -2,0 0,4 -16,0 0,-4 -2,0 -8,0 a 8,8 0 0 1 -8,-8 l 0,-8 0,-8 z" style="fill:#1d8989;fill-opacity:1;stroke:#005459;stroke-width:2;stroke-linecap:round;stroke-opacity:1"/><text id="text3053-62" x="36" y="307.124" style="font-size:20px;font-family:Sans;text-anchor:end;fill:#000"><tspan id="tspan3055-9" x="130" y="335.124">tambor</tspan></text><path style="fill:#fd6600;fill-opacity:1;stroke:#ac3d00;stroke-width:2;stroke-linecap:round;stroke-opacity:1" id="path3035-0-1" d="m 19,240.12411 0,-8 c 0,-4.41828 3.58172,-8 8,-8 l 8,0 0,4 20,0 0,-4 18,0 110,0 8,0 c 4.41828,0 9.07159,3.71364 8,8 l 0,8 -8,0 0,-6 -8,0 0,20 8,0 0,-6 8,0 0,8 c 0,4.41827 -3.58172,8 -8,8 l -8,0 -110,0 -2,0 0,4 -16,0 0,-4 -2,0 -8,0 c -5.52285,0 -10,4.47715 -10,9.99999 l 0,8 0,50.00001 0,7.99999 c 0,5.52285 4.64205,11.3395 10,10 l 8,0 0,4 20,0 0,-4 16,0 0,12 0,12 0,8 c 0,4.41828 -3.71365,9.0716 -8,8 l -8,0 -18,0 -2,0 0,4 -16,0 0,-4 -2,0 -8,0 c -4.41828,0 -8,-3.58172 -8,-8 l 0,-8 z"/><text style="font-size:20px;font-family:Sans;text-anchor:start;fill:#000" id="text3037-6-3-2" x="16" y="221.124"><tspan id="tspan3039-2-7" x="24" y="251.624">valor de la nota</tspan></text><path style="fill:#f0f;fill-opacity:1;stroke:#c700d3;stroke-width:2;stroke-linecap:round;stroke-opacity:1" id="path21-6-1-1-9" d="m 315,266.12411 120,0 0,40 -120,0 0,-16 0,-2 -12,0 0,6 -4,0 0,-16 4,0 0,6 12,0 0,-2 z"/><text style="font-size:20px;font-family:Sans;text-anchor:start;fill:#000" id="text23-9-82-8-3" x="350" y="265.124"><tspan id="tspan25-8-5-7-6-6" x="370" y="291.124">8</tspan></text><path style="fill:#f0f;fill-opacity:1;stroke:#c700d3;stroke-width:2;stroke-linecap:round;stroke-opacity:1" id="path3798-4-4-5-2-6" d="m 201,240.12411 0,-8 a 8,8 0 0 1 8,-8 l 8,0 20,0 60,0 8,0 a 8,8 0 0 1 8,8 l 0,8 -8,0 0,-6 -8,0 0,20 8,0 0,-6 8,0 0,34 -8,0 0,-6 -8,0 0,20 8,0 0,-6 8,0 0,8 a 8,8 0 0 1 -8,8 l -8,0 -60,0 -20,0 -8,0 a 8,8 0 0 1 -8,-8 l 0,-8 0,-42 0,-2 -12,0 0,6 -4,0 0,-16 4,0 0,6 12,0 0,-2 z"/><text style="font-size:28px;font-family:sans-serif;text-anchor:end;fill:#000" id="text3800-3-2-0-0-2" x="176" y="223.124"><tspan id="tspan3802-6-2-5-2-6" x="286" y="272.124">/</tspan></text><path style="fill:#f0f;fill-opacity:1;stroke:#c700d3;stroke-width:2;stroke-linecap:round;stroke-opacity:1" id="path21-8-2-1-0-6-7-8" d="m 315,224.12411 120,0 0,40 -120,0 0,-16 0,-2 -12,0 0,6 -4,0 0,-16 4,0 0,6 12,0 0,-2 z"/><text style="font-size:20px;font-family:Sans;text-anchor:start;fill:#000" id="text23-0-1-0-1-0-5-7" x="347" y="225.124"><tspan id="tspan25-7-0-5-2-5-9-9" x="367" y="251.124">1</tspan></text><path id="path3124-2-2" d="m 37,282.12411 0,-8 c 0,-4.41828 3.58172,-8 8,-8 l 8,0 0,4 20,0 0,-4 60,0 8,0 c 4.41828,0 8,3.58172 8,8 l 0,8 0,8 0,8 c 0,4.41828 -3.71364,6.92841 -8,8 l -8,0 -60,0 -2,0 0,4 -16,0 0,-4 -2,0 -8,0 c -4.41828,0 -8,-3.58172 -8,-8 l 0,-8 0,0 z" style="fill:#fd6600;fill-opacity:1;stroke:#ac3d00;stroke-width:2;stroke-linecap:round;stroke-opacity:1"/><text style="font-style:normal;font-weight:400;font-size:16px;line-height:125%;font-family:sans-serif;text-align:center;letter-spacing:0;word-spacing:0;text-anchor:middle;fill:#000;fill-opacity:1;stroke:none;stroke-width:1px;stroke-linecap:butt;stroke-linejoin:miter;stroke-opacity:1" id="text6137-2-0" x="118.823" y="293.047" xml:space="preserve"><tspan id="tspan6139-8-2" x="118.823" y="293.047" style="font-size:22.5px">↓</tspan></text><path style="fill:#1d8989;fill-opacity:1;stroke:#005459;stroke-width:2;stroke-linecap:round;stroke-opacity:1" id="path21-6-1-0-1-8-3-2-3" d="m 151,140.1241 120,0 0,40 -120,0 0,-16 0,-2.00001 -12,0 0,6.00001 -4,0 0,-16.00001 4,0 0,6 12,0 0,-2 z"/><text style="font-size:20px;font-family:Sans;text-anchor:start;fill:#000" id="text23-9-82-5-8-1-1-2-7" x="142.523" y="142.077"><tspan id="tspan25-8-5-1-3-7-2-3-5" x="162.523" y="168.077">snare d...</tspan></text><path id="path3051-9" d="m 37,156.1241 0,-8 a 8,8 0 0 1 8,-8 l 8,0 0,4 20,0 0,-4 60,0 8,0 a 8,8 0 0 1 8,8 l 0,8 -8,0 0,-6 -8,0 0,20 8,0 0,-6 8,0 0,8 a 8,8 0 0 1 -8,8 l -8,0 -60,0 -2,0 0,4 -16,0 0,-4 -2,0 -8,0 a 8,8 0 0 1 -8,-8 l 0,-8 0,-8 z" style="fill:#1d8989;fill-opacity:1;stroke:#005459;stroke-width:2;stroke-linecap:round;stroke-opacity:1"/><text id="text3053-2" x="36" y="139.124" style="font-size:20px;font-family:Sans;text-anchor:end;fill:#000"><tspan id="tspan3055-2" x="130" y="167.124">tambor</tspan></text><path style="fill:#fd6600;fill-opacity:1;stroke:#ac3d00;stroke-width:2;stroke-linecap:round;stroke-opacity:1" id="path3035-0-8" d="m 19,72.124111 0,-7.999996 c 0,-4.41828 3.58172,-8 8,-8 l 8,0 0,4 20,0 0,-4 18,0 110,0 8,0 c 4.41828,0 9.07159,3.71364 8,8 l 0,7.999996 -8,0 0,-6 -8,0 0,20 8,0 0,-6 8,0 0,8 c 0,4.41827 -3.58172,8 -8,8 l -8,0 -110,0 -2,0 0,3.999999 -16,0 0,-3.999999 -2,0 -8,0 c -5.52285,0 -10,4.477149 -10,9.999989 l 0,8 0,50.00001 0,7.99999 c 0,5.52285 4.64205,11.3395 10,10 l 8,0 0,4 20,0 0,-4 16,0 0,12 0,12 0,8 c 0,4.41828 -3.71365,9.0716 -8,8 l -8,0 -18,0 -2,0 0,4 -16,0 0,-4 -2,0 -8,0 c -4.41828,0 -8,-3.58172 -8,-8 l 0,-8 z"/><text style="font-size:20px;font-family:Sans;text-anchor:start;fill:#000" id="text3037-6-3-9" x="16" y="53.124"><tspan id="tspan3039-2-73" x="24" y="83.624">valor de la nota</tspan></text><path style="fill:#f0f;fill-opacity:1;stroke:#c700d3;stroke-width:2;stroke-linecap:round;stroke-opacity:1" id="path21-6-1-1-1" d="m 315,98.124114 120,0 0,39.999996 -120,0 0,-16 0,-2 -12,0 0,6 -4,0 0,-16 4,0 0,6 12,0 0,-2 z"/><text style="font-size:20px;font-family:Sans;text-anchor:start;fill:#000" id="text23-9-82-8-2" x="350" y="97.124"><tspan id="tspan25-8-5-7-6-9" x="370" y="123.124">8</tspan></text><path style="fill:#f0f;fill-opacity:1;stroke:#c700d3;stroke-width:2;stroke-linecap:round;stroke-opacity:1" id="path3798-4-4-5-2-1" d="m 201,72.124115 0,-8 a 8,8 0 0 1 8,-8 l 8,0 20,0 60,0 8,0 a 8,8 0 0 1 8,8 l 0,8 -8,0 0,-6 -8,0 0,20 8,0 0,-6 8,0 0,33.999995 -8,0 0,-6 -8,0 0,20 8,0 0,-6 8,0 0,8 a 8,8 0 0 1 -8,8 l -8,0 -60,0 -20,0 -8,0 a 8,8 0 0 1 -8,-8 l 0,-8 0,-41.999995 0,-2 -12,0 0,6 -4,0 0,-16 4,0 0,6 12,0 0,-2 z"/><text style="font-size:28px;font-family:sans-serif;text-anchor:end;fill:#000" id="text3800-3-2-0-0-9" x="176" y="55.124"><tspan id="tspan3802-6-2-5-2-4" x="286" y="104.124">/</tspan></text><path style="fill:#f0f;fill-opacity:1;stroke:#c700d3;stroke-width:2;stroke-linecap:round;stroke-opacity:1" id="path21-8-2-1-0-6-7-84" d="m 315,56.124115 120,0 0,40 -120,0 0,-16 0,-2 -12,0 0,6 -4,0 0,-16 4,0 0,6 12,0 0,-2 z"/><text style="font-size:20px;font-family:Sans;text-anchor:start;fill:#000" id="text23-0-1-0-1-0-5-5" x="347" y="57.124"><tspan id="tspan25-7-0-5-2-5-9-0" x="367" y="83.124">1</tspan></text><path id="path3124-2-3" d="m 37,114.12411 0,-8 c 0,-4.41828 3.58172,-7.999999 8,-7.999999 l 8,0 0,3.999999 20,0 0,-3.999999 60,0 8,0 c 4.41828,0 8,3.581719 8,7.999999 l 0,8 0,8 0,8 c 0,4.41828 -3.71364,6.92841 -8,8 l -8,0 -60,0 -2,0 0,4 -16,0 0,-4 -2,0 -8,0 c -4.41828,0 -8,-3.58172 -8,-8 l 0,-8 0,0 z" style="fill:#fd6600;fill-opacity:1;stroke:#ac3d00;stroke-width:2;stroke-linecap:round;stroke-opacity:1"/><text style="font-style:normal;font-weight:400;font-size:16px;line-height:125%;font-family:sans-serif;text-align:center;letter-spacing:0;word-spacing:0;text-anchor:middle;fill:#000;fill-opacity:1;stroke:none;stroke-width:1px;stroke-linecap:butt;stroke-linejoin:miter;stroke-opacity:1" id="text6137-2-6" x="118.823" y="125.047" xml:space="preserve"><tspan id="tspan6139-8-1" x="118.823" y="125.047" style="font-size:22.5px">↓</tspan></text><path style="fill:#1d8989;fill-opacity:1;stroke:#005459;stroke-width:2;stroke-linecap:round;stroke-opacity:1" id="path21-6-1-0-1-8-3-2-0" d="m 151,644.1241 120,0 0,40 -120,0 0,-16 0,-2 -12,0 0,6 -4,0 0,-16 4,0 0,6 12,0 0,-2 z"/><text style="font-size:20px;font-family:Sans;text-anchor:start;fill:#000" id="text23-9-82-5-8-1-1-2-63" x="142.523" y="646.077"><tspan id="tspan25-8-5-1-3-7-2-3-2" x="162.523" y="672.077">cencerro</tspan></text><path id="path3051-0" d="m 37,660.1241 0,-8 a 8,8 0 0 1 8,-8 l 8,0 0,4 20,0 0,-4 60,0 8,0 a 8,8 0 0 1 8,8 l 0,8 -8,0 0,-6 -8,0 0,20 8,0 0,-6 8,0 0,8 a 8,8 0 0 1 -8,8 l -8,0 -60,0 -2,0 0,4 -16,0 0,-4 -2,0 -8,0 a 8,8 0 0 1 -8,-8 l 0,-8 0,-8 z" style="fill:#1d8989;fill-opacity:1;stroke:#005459;stroke-width:2;stroke-linecap:round;stroke-opacity:1"/><text id="text3053-61" x="36" y="643.124" style="font-size:20px;font-family:Sans;text-anchor:end;fill:#000"><tspan id="tspan3055-5" x="130" y="671.124">tambor</tspan></text><path style="fill:#fd6600;fill-opacity:1;stroke:#ac3d00;stroke-width:2;stroke-linecap:round;stroke-opacity:1" id="path3035-0-5" d="m 19,576.12411 0,-8 c 0,-4.41828 3.58172,-8 8,-8 l 8,0 0,4 20,0 0,-4 18,0 110,0 8,0 c 4.41828,0 9.07159,3.71364 8,8 l 0,8 -8,0 0,-6 -8,0 0,20 8,0 0,-6 8,0 0,8 c 0,4.41827 -3.58172,8 -8,8 l -8,0 -110,0 -2,0 0,4 -16,0 0,-4 -2,0 -8,0 c -5.52285,0 -10,4.47715 -10,9.99999 l 0,8 0,50.00001 0,7.99999 c 0,5.52285 4.64205,11.3395 10,10 l 8,0 0,4 20,0 0,-4 16,0 0,12 0,12 0,8 c 0,4.41828 -3.71365,9.0716 -8,8 l -8,0 -18,0 -2,0 0,4 -16,0 0,-4 -2,0 -8,0 c -4.41828,0 -8,-3.58172 -8,-8 l 0,-8 z"/><text style="font-size:20px;font-family:Sans;text-anchor:start;fill:#000" id="text3037-6-3-4" x="16" y="557.124"><tspan id="tspan3039-2-76" x="24" y="587.624">valor de la nota</tspan></text><path style="fill:#f0f;fill-opacity:1;stroke:#c700d3;stroke-width:2;stroke-linecap:round;stroke-opacity:1" id="path21-6-1-1-6" d="m 315,602.12411 120,0 0,40 -120,0 0,-16 0,-2 -12,0 0,6 -4,0 0,-16 4,0 0,6 12,0 0,-2 z"/><text style="font-size:20px;font-family:Sans;text-anchor:start;fill:#000" id="text23-9-82-8-9" x="350" y="601.124"><tspan id="tspan25-8-5-7-6-3" x="370" y="627.124">8</tspan></text><path style="fill:#f0f;fill-opacity:1;stroke:#c700d3;stroke-width:2;stroke-linecap:round;stroke-opacity:1" id="path3798-4-4-5-2-4" d="m 201,576.12411 0,-8 a 8,8 0 0 1 8,-8 l 8,0 20,0 60,0 8,0 a 8,8 0 0 1 8,8 l 0,8 -8,0 0,-6 -8,0 0,20 8,0 0,-6 8,0 0,34 -8,0 0,-6 -8,0 0,20 8,0 0,-6 8,0 0,8 a 8,8 0 0 1 -8,8 l -8,0 -60,0 -20,0 -8,0 a 8,8 0 0 1 -8,-8 l 0,-8 0,-42 0,-2 -12,0 0,6 -4,0 0,-16 4,0 0,6 12,0 0,-2 z"/><text style="font-size:28px;font-family:sans-serif;text-anchor:end;fill:#000" id="text3800-3-2-0-0-5" x="176" y="559.124"><tspan id="tspan3802-6-2-5-2-2" x="286" y="608.124">/</tspan></text><path style="fill:#f0f;fill-opacity:1;stroke:#c700d3;stroke-width:2;stroke-linecap:round;stroke-opacity:1" id="path21-8-2-1-0-6-7-4" d="m 315,560.12411 120,0 0,40 -120,0 0,-16 0,-2 -12,0 0,6 -4,0 0,-16 4,0 0,6 12,0 0,-2 z"/><text style="font-size:20px;font-family:Sans;text-anchor:start;fill:#000" id="text23-0-1-0-1-0-5-74" x="347" y="561.124"><tspan id="tspan25-7-0-5-2-5-9-4" x="367" y="587.124">1</tspan></text><path id="path3124-2-30" d="m 37,618.12411 0,-8 c 0,-4.41828 3.58172,-8 8,-8 l 8,0 0,4 20,0 0,-4 60,0 8,0 c 4.41828,0 8,3.58172 8,8 l 0,8 0,8 0,8 c 0,4.41828 -3.71364,6.92841 -8,8 l -8,0 -60,0 -2,0 0,4 -16,0 0,-4 -2,0 -8,0 c -4.41828,0 -8,-3.58172 -8,-8 l 0,-8 0,0 z" style="fill:#fd6600;fill-opacity:1;stroke:#ac3d00;stroke-width:2;stroke-linecap:round;stroke-opacity:1"/><text style="font-style:normal;font-weight:400;font-size:16px;line-height:125%;font-family:sans-serif;text-align:center;letter-spacing:0;word-spacing:0;text-anchor:middle;fill:#000;fill-opacity:1;stroke:none;stroke-width:1px;stroke-linecap:butt;stroke-linejoin:miter;stroke-opacity:1" id="text6137-2-7" x="118.823" y="629.047" xml:space="preserve"><tspan id="tspan6139-8-8" x="118.823" y="629.047" style="font-size:22.5px">↓</tspan></text></svg>