<svg xmlns="http://www.w3.org/2000/svg" xmlns:svg="http://www.w3.org/2000/svg" id="svg2" width="918" height="1169.624" version="1.1"><metadata id="metadata157"/><path id="path3155" d="m 527,239.56205 0,-8 c 0,-4.18879 3.81121,-8 8,-8 l 8,0 20,0 60,0 8,0 c 4.18879,0 8,3.81121 8,8 l 0,8 -8,0 0,-6 -8,0 0,20 8,0 0,-6 8,0 0,160 -8,0 0,-6 -8,0 0,20 8,0 0,-6 8,0 0,8 c 0,4.18879 -3.81121,8 -8,8 l -8,0 -60,0 -20,0 -8,0 c -4.18879,0 -8,-3.81121 -8,-8 l 0,-8 0,-168 0,-2 -12,0 0,6 -4,0 0,-16 4,0 0,6 12,0 z" style="fill:#f0f;fill-opacity:1;stroke:#c700d3;stroke-width:2;stroke-linecap:round;stroke-opacity:1"/><text id="text3157" x="510" y="222.562" style="font-size:28px;font-family:Sans;text-anchor:end;fill:#000"><tspan id="tspan3159" x="620" y="271.562">+</tspan></text><path id="path21-8-0" d="m 527,139.56205 120,0 0,40 -120,0 0,-16 0,-2 -12,0 0,6 -4,0 0,-16 4,0 0,6 12,0 0,-2 z" style="fill:#f0f;fill-opacity:1;stroke:#c700d3;stroke-width:2;stroke-linecap:round;stroke-opacity:1"/><text id="text23-0-5" x="561" y="140.562" style="font-size:20px;font-family:Sans;text-anchor:start;fill:#000"><tspan id="tspan25-7-2" x="581" y="166.562">1</tspan></text><path id="path21-3" d="m 371,71.562052 0,-8 a 8,8 0 0 1 8,-8 l 8,0 0,4 20,0 0,-4 18,0 8,0 a 8,8 0 0 1 8,8 l 0,8 0,18 a 16,16 0 0 0 -16,15.999998 16,16 0 0 0 16,16 l 0,8 a 8,8 0 0 1 -8,8 l -8,0 -2,0 0,4 -16,0 0,-4 -2,0 -8,0 a 10,10 0 0 0 -10,10 l 0,8 0,8 0,8 a 10,10 0 0 0 10,10 l 8,0 0,4 20,0 0,-4 16,0 0,24 0,8 a 8,8 0 0 1 -8,8 l -8,0 -2,0 0,4 -16,0 0,-4 -2,0 -8,0 a 10,10 0 0 0 -10,10 l 0,8 0,8 0,8 a 10,10 0 0 0 10,10 l 8,0 0,4 20,0 0,-4 16,0 0,12 0,12 0,8 a 8,8 0 0 1 -8,8 l -8,0 -18,0 -2,0 0,4 -16,0 0,-4 -2,0 -8,0 a 8,8 0 0 1 -8,-8 l 0,-8 z" style="fill:#e37a00;fill-opacity:1;stroke:#a34600;stroke-width:2;stroke-linecap:round;stroke-opacity:1"/><text id="text23-00" x="370" y="54.562" style="font-size:20px;font-family:sans-serif;text-anchor:start;fill:#000"><tspan id="tspan25-13" x="378" y="90.062">si</tspan></text><text id="text27" x="370" y="54.562" style="font-size:13.33333302px;font-family:sans-serif;text-anchor:end;fill:#000"><tspan id="tspan29" x="434" y="132.562">entonces</tspan></text><text id="text31" x="370" y="54.562" style="font-size:13.33333302px;font-family:sans-serif;text-anchor:end;fill:#000"><tspan id="tspan33" x="434" y="216.562">sino</tspan></text><path id="path3027-4-2" d="m 353,29.56205 0,-8 c 0,-4.18879 3.81121,-8 8,-8 l 8,0 10,-12.0000001 10,12.0000001 18,0 70,0 8,0 c 4.18879,0 8,3.81121 8,8 l 0,8 -8,0 0,-6 -8,0 0,20 8,0 0,-6 8,0 0,8 c 0,4.18879 -3.81121,8 -8,8 l -8,0 -70,0 -2,0 0,4 -16,0 0,-4 -2,0 -8,0 c -2.61799,0 -5.21987,1.077731 -7.07107,2.928932 C 370.07773,58.342183 369,60.944056 369,63.56205 l 0,8 0,218 0,8 c 0,2.61799 1.07773,5.21987 2.92893,7.07107 1.8512,1.8512 4.45308,2.92893 7.07107,2.92893 l 8,0 0,4 20,0 0,-4 16,0 0,12 0,12 0,8 c 0,4.18878 -3.93628,9.01593 -8,8 l -8,0 -18,0 -10,12 -10,-12 -8,0 c -4.18879,0 -8,-3.81122 -8,-8 l 0,-8 z" style="fill:#ffc000;fill-opacity:1;stroke:#c48d00;stroke-width:2;stroke-linecap:round;stroke-opacity:1"/><text id="text3029-4-3" x="352.727" y="-1.183" style="font-size:20px;font-family:Sans;text-anchor:start;fill:#000"><tspan id="tspan3031-5-7" x="360.727" y="41.817">acción</tspan></text><path id="path21-2-7" d="m 495,13.56205 120,0 0,40 -120,0 0,-16 0,-2 -12,0 0,6 -4,0 0,-16 4,0 0,6 12,0 0,-2 z" style="fill:#7bbbb8;fill-opacity:1;stroke:#4c8585;stroke-width:2;stroke-linecap:round;stroke-opacity:1"/><text id="text23-2-3" x="520" y="12.562" style="font-size:20px;font-family:Sans;text-anchor:start;fill:#000"><tspan id="tspan25-1-3" x="540" y="38.562">fib</tspan></text><path id="path21-31" d="m 529,71.56205 0,-8 c 0,-4.18879 3.81121,-8 8,-8 l 8,0 20,0 80,0 8,0 0,40 -8,0 -80,0 -20,0 -8,0 c -4.18879,0 -8,-3.81121 -8,-8 l 0,-8 0,-2 -12,0 0,6 -4,0 0,-16 4,0 0,6 12,0 z" style="fill:#ffc000;fill-opacity:1;stroke:#c48d00;stroke-width:2;stroke-linecap:round;stroke-opacity:1"/><text id="text23-5" x="512" y="55.824" style="font-size:20px;font-family:Sans;text-anchor:end;fill:#000"><tspan id="tspan25-4" x="642" y="81.824">arg 1</tspan></text><path id="path3066" d="m 389,155.56205 0,-8 a 8,8 0 0 1 8,-8 l 8,0 0,4 20,0 0,-4 84,0 8,0 a 8,8 0 0 1 8,8 l 0,8 -8,0 0,-6 -8,0 0,20 8,0 0,-6 8,0 0,8 a 8,8 0 0 1 -8,8 l -8,0 -84,0 -2,0 0,4 -16,0 0,-4 -2,0 -8,0 a 8,8 0 0 1 -8,-8 l 0,-8 0,-8 z" style="fill:#ffc000;fill-opacity:1;stroke:#c48d00;stroke-width:2;stroke-linecap:round;stroke-opacity:1"/><text id="text3068" x="388" y="138.562" style="font-size:20px;font-family:Sans;text-anchor:end;fill:#000"><tspan id="tspan3070" x="506" y="166.562">retorno</tspan></text><g id="g3179" transform="matrix(2,0,0,2,426,22.56205)" style="fill:#d8d100;fill-opacity:1;stroke:#a19a00;stroke-opacity:1"><path id="path3181" d="m 0.5,41.25 c 0,-3.665191 3.3348086,-6.75 7,-6.75 l 1,0 0,-10 c 0,-4.18879 3.81121,-8 8,-8 l 34,0 0,8 -4,0 0,-3 -4,0 0,10 4,0 0,-3 4,0 0,17 -4,0 0,-3 -4,0 0,10 4,0 0,-3 4,0 0,8 -30,0 -11,0 -1,0 0,-1 0,-8 -1,0 c -3.6651914,0 -7,-2.584809 -7,-6.25 z" style="fill:#d8d100;fill-opacity:1;stroke:#a19a00;stroke-width:1;stroke-linecap:round;stroke-opacity:1"/></g><text id="text3183" x="426" y="54.562" style="font-size:28px;font-family:sans-serif;text-anchor:end;fill:#000;fill-opacity:1"><tspan id="tspan3185" x="508" y="103.562" style="fill:#000;fill-opacity:1">&lt;</tspan></text><path id="path3066-9" d="m 389,239.56205 0,-8 a 8,8 0 0 1 8,-8 l 8,0 0,4 20,0 0,-4 84,0 8,0 a 8,8 0 0 1 8,8 l 0,8 -8,0 0,-6 -8,0 0,20 8,0 0,-6 8,0 0,8 a 8,8 0 0 1 -8,8 l -8,0 -84,0 -2,0 0,4 -16,0 0,-4 -2,0 -8,0 a 8,8 0 0 1 -8,-8 l 0,-8 0,-8 z" style="fill:#ffc000;fill-opacity:1;stroke:#c48d00;stroke-width:2;stroke-linecap:round;stroke-opacity:1"/><text id="text3068-6" x="388" y="222.562" style="font-size:20px;font-family:Sans;text-anchor:end;fill:#000"><tspan id="tspan3070-9" x="506" y="250.562">retorno</tspan></text><path style="fill:#f0f;fill-opacity:1;stroke:#c700d3;stroke-width:2;stroke-linecap:round;stroke-opacity:1" id="path21-8-00" d="m 529.18928,97.562056 120,0 0,39.999994 -120,0 0,-16 0,-2 -12,0 0,6 -4,0 0,-16 4,0 0,6 12,0 0,-2 z"/><text style="font-size:20px;font-family:Sans;text-anchor:start;fill:#000" id="text23-0-7" x="561.189" y="99.096"><tspan id="tspan25-7-3" x="581.189" y="125.096">2</tspan></text><path id="path3798-4" d="m 679,281.56205 0,-8 a 8,8 0 0 1 8,-8 l 8,0 20,0 60,0 8,0 a 8,8 0 0 1 8,8 l 0,8 -8,0 0,-6 -8,0 0,20 8,0 0,-6 8,0 0,34 -8,0 0,-6 -8,0 0,20 8,0 0,-6 8,0 0,8 a 8,8 0 0 1 -8,8 l -8,0 -60,0 -20,0 -8,0 a 8,8 0 0 1 -8,-8 l 0,-8 0,-42 0,-2 -12,0 0,6 -4,0 0,-16 4,0 0,6 12,0 0,-2 z" style="fill:#f0f;fill-opacity:1;stroke:#c700d3;stroke-width:2;stroke-linecap:round;stroke-opacity:1"/><text id="text3800-3" x="662" y="264.562" style="font-size:28px;font-family:sans-serif;text-anchor:end;fill:#000"><tspan id="tspan3802-6" x="772" y="313.562">–</tspan></text><path id="path21-31-9-0" d="m 793,281.56205 0,-8 c 0,-4.18879 3.81121,-8 8,-8 l 8,0 20,0 80,0 8,0 0,40 -8,0 -80,0 -20,0 -8,0 c -4.18879,0 -8,-3.81121 -8,-8 l 0,-8 0,-2 -12,0 0,6 -4,0 0,-16 4,0 0,6 12,0 z" style="fill:#ffc000;fill-opacity:1;stroke:#c48d00;stroke-width:2;stroke-linecap:round;stroke-opacity:1"/><text id="text23-5-1-8" x="776" y="265.824" style="font-size:20px;font-family:Sans;text-anchor:end;fill:#000"><tspan id="tspan25-4-4-9" x="906" y="291.824">arg 1</tspan></text><path id="path21-8-2-1" d="m 793,307.56205 120,0 0,40 -120,0 0,-16 0,-2 -12,0 0,6 -4,0 0,-16 4,0 0,6 12,0 0,-2 z" style="fill:#f0f;fill-opacity:1;stroke:#c700d3;stroke-width:2;stroke-linecap:round;stroke-opacity:1"/><text id="text23-0-1-0" x="825" y="308.562" style="font-size:20px;font-family:Sans;text-anchor:start;fill:#000"><tspan id="tspan25-7-0-5" x="845" y="334.562">1</tspan></text><path id="path21-5-6" d="m 641,239.56205 0,-8 c 0,-4.18879 3.81121,-8 8,-8 l 8,0 20,0 18,0 64,0 8,0 c 4.18879,0 8,3.81121 8,8 l 0,8 0,8 0,8 c 0,4.18879 -3.81121,8 -8,8 l -8,0 -64,0 -8,0 c -2.61799,0 -5.21987,1.07773 -7.07107,2.92893 -1.8512,1.8512 -2.92893,4.45308 -2.92893,7.07107 l 0,8 -8,0 0,-6 -8,0 0,20 8,0 0,-6 8,0 0,8 c 0,2.61799 1.07773,47.21987 2.92893,49.07107 1.8512,1.8512 4.53124,3.56389 7.07107,2.92893 l 8,0 16,0 0,12 0,12 0,8 c 0,4.18879 -3.81121,8 -8,8 l -8,0 -18,0 -20,0 -8,0 c -4.18879,0 -8,-3.81121 -8,-8 l 0,-8 0,-126 0,-2 -12,0 0,6 -4,0 0,-16 4,0 0,6 12,0 z" style="fill:#ffc000;fill-opacity:1;stroke:#c48d00;stroke-width:2;stroke-linecap:round;stroke-opacity:1"/><text id="text23-3-1" x="672" y="222.562" style="font-size:20px;font-family:sans-serif;text-anchor:start;fill:#000"><tspan id="tspan25-77-8" x="690" y="253.062">fib</tspan></text><path id="path3798-4-4" d="m 679,449.56205 0,-8 a 8,8 0 0 1 8,-8 l 8,0 20,0 60,0 8,0 a 8,8 0 0 1 8,8 l 0,8 -8,0 0,-6 -8,0 0,20 8,0 0,-6 8,0 0,34 -8,0 0,-6 -8,0 0,20 8,0 0,-6 8,0 0,8 a 8,8 0 0 1 -8,8 l -8,0 -60,0 -20,0 -8,0 a 8,8 0 0 1 -8,-8 l 0,-8 0,-42 0,-2 -12,0 0,6 -4,0 0,-16 4,0 0,6 12,0 0,-2 z" style="fill:#f0f;fill-opacity:1;stroke:#c700d3;stroke-width:2;stroke-linecap:round;stroke-opacity:1"/><text id="text3800-3-2" x="662" y="432.562" style="font-size:28px;font-family:sans-serif;text-anchor:end;fill:#000"><tspan id="tspan3802-6-2" x="772" y="481.562">–</tspan></text><path id="path21-31-9-0-8" d="m 793,449.56205 0,-8 c 0,-4.18879 3.81121,-8 8,-8 l 8,0 20,0 80,0 8,0 0,40 -8,0 -80,0 -20,0 -8,0 c -4.18879,0 -8,-3.81121 -8,-8 l 0,-8 0,-2 -12,0 0,6 -4,0 0,-16 4,0 0,6 12,0 z" style="fill:#ffc000;fill-opacity:1;stroke:#c48d00;stroke-width:2;stroke-linecap:round;stroke-opacity:1"/><text id="text23-5-1-8-0" x="776" y="433.824" style="font-size:20px;font-family:Sans;text-anchor:end;fill:#000"><tspan id="tspan25-4-4-9-3" x="906" y="459.824">arg 1</tspan></text><path id="path21-8-2-1-0" d="m 793,475.56205 120,0 0,40 -120,0 0,-16 0,-2 -12,0 0,6 -4,0 0,-16 4,0 0,6 12,0 0,-2 z" style="fill:#f0f;fill-opacity:1;stroke:#c700d3;stroke-width:2;stroke-linecap:round;stroke-opacity:1"/><text id="text23-0-1-0-1" x="825" y="476.562" style="font-size:20px;font-family:Sans;text-anchor:start;fill:#000"><tspan id="tspan25-7-0-5-2" x="845" y="502.562">2</tspan></text><path id="path21-5-6-0" d="m 641,407.56207 0,-8 c 0,-4.18879 3.81121,-8 8,-8 l 8,0 20,0 18,0 64,0 8,0 c 4.18879,0 8,3.81121 8,8 l 0,8 0,8 0,8 c 0,4.18879 -3.81121,8 -8,8 l -8,0 -64,0 -8,0 c -2.61799,0 -5.21987,1.07773 -7.07107,2.92893 -1.8512,1.8512 -2.92893,4.45308 -2.92893,7.07107 l 0,8 -8,0 0,-6 -8,0 0,20 8,0 0,-6 8,0 0,8 c 0,2.61799 1.07773,47.21987 2.92893,49.07107 1.8512,1.8512 4.53124,3.56389 7.07107,2.92893 l 8,0 16,0 0,12 0,12 0,8 c 0,4.18879 -3.81121,8 -8,8 l -8,0 -18,0 -20,0 -8,0 c -4.18879,0 -8,-3.81121 -8,-8 l 0,-8 0,-126 0,-2 -12,0 0,6 -4,0 0,-16 4,0 0,6 12,0 z" style="fill:#ffc000;fill-opacity:1;stroke:#c48d00;stroke-width:2;stroke-linecap:round;stroke-opacity:1"/><text id="text23-3-1-5" x="672" y="390.562" style="font-size:20px;font-family:sans-serif;text-anchor:start;fill:#000"><tspan id="tspan25-77-8-6" x="690" y="421.062">fib</tspan></text><path style="fill:#00b700;fill-opacity:1;stroke:#007b00;stroke-width:2;stroke-linecap:round;stroke-opacity:1" id="path3027" d="m 389,544.12409 0,-8 a 8,8 0 0 1 8,-8 l 8,0 0,4 20,0 0,-4 68,0 8,0 a 8,8 0 0 1 8,8 l 0,8 -8,0 0,-6 -8,0 0,20 8,0 0,-6 8,0 0,8 a 8,8 0 0 1 -8,8 l -8,0 -68,0 -2,0 0,4 -16,0 0,-4 -2,0 -8,0 a 8,8 0 0 1 -8,-8 l 0,-8 0,-8 z"/><text style="font-size:20px;font-family:Sans;text-anchor:end;fill:#000" id="text3029" x="388" y="527.124"><tspan id="tspan3031" x="490" y="555.124">adelante</tspan></text><path style="fill:#00b700;fill-opacity:1;stroke:#007b00;stroke-width:2;stroke-linecap:round;stroke-opacity:1" id="path3101" d="m 389,586.12409 0,-8 a 8,8 0 0 1 8,-8 l 8,0 0,4 20,0 0,-4 60,0 8,0 a 8,8 0 0 1 8,8 l 0,8 -8,0 0,-6 -8,0 0,20 8,0 0,-6 8,0 0,8 a 8,8 0 0 1 -8,8 l -8,0 -60,0 -2,0 0,4 -16,0 0,-4 -2,0 -8,0 a 8,8 0 0 1 -8,-8 l 0,-8 0,-8 z"/><text style="font-size:20px;font-family:Sans;text-anchor:end;fill:#000" id="text3103" x="388" y="569.124"><tspan id="tspan3105" x="482" y="597.124">derecha</tspan></text><path style="fill:#f0f;fill-opacity:1;stroke:#c700d3;stroke-width:2;stroke-linecap:round;stroke-opacity:1" id="path21-7" d="m 503,570.12409 120.00001,0 0,40 -120.00001,0 0,-16 0,-2 -12,0 0,6 -4,0 0,-16 4,0 0,6 12,0 0,-2 z"/><text style="font-size:20px;font-family:Sans;text-anchor:start;fill:#000" id="text23-1" x="526.851" y="570.923"><tspan id="tspan25-0" x="546.851" y="596.923">90</tspan></text><path style="fill:#e37a00;fill-opacity:1;stroke:#a34600;stroke-width:2;stroke-linecap:round;stroke-opacity:1" id="path3035" d="m 371,502.12408 0,-8 c 0,-4.18879 3.81121,-8 8,-8 l 8,0 0,4 20,0 0,-4 18,0 40,0 8,0 c 4.18879,0 8,3.81121 8,8 l 0,8 -8,0 0,-6 -8,0 0,20 8,0 0,-6 8,0 0,8 c 0,4.18879 -3.81121,8 -8,8 l -8,0 -40,0 -2,0 0,4 -16,0 0,-4 -2,0 -8,0 c -2.61799,0 -5.21987,1.07773 -7.07107,2.92893 -1.8512,1.8512 -2.92893,4.45308 -2.92893,7.07107 l 0,8 0,50 0,8 c 0,2.61799 1.07773,5.21987 2.92893,7.07107 1.8512,1.8512 4.53124,3.56389 7.07107,2.92893 l 8,0 0,4 20,0 0,-4 16,0 0,12 0,12 0,8 c 0,4.18879 -3.81121,8 -8,8 l -8,0 -18,0 -2,0 0,4 -16,0 0,-4 -2,0 -8,0 c -4.18879,0 -8,-3.81121 -8,-8 l 0,-8 z"/><text style="font-size:20px;font-family:Sans;text-anchor:start;fill:#000" id="text3037" x="370" y="485.124"><tspan id="tspan3039" x="378" y="515.624">repetir</tspan></text><path style="fill:#ffc000;fill-opacity:1;stroke:#c48d00;stroke-width:2;stroke-linecap:round;stroke-opacity:1" id="path3027-4" d="m 353,460.06205 0,-8 c 0,-4.18879 3.81121,-8 8,-8 l 8,0 10,-12 10,12 18,0 70,0 8,0 c 4.18879,0 8,3.81121 8,8 l 0,8 -8,0 0,-6 -8,0 0,20 8,0 0,-6 8,0 0,8 c 0,4.18879 -3.81121,8 -8,8 l -8,0 -70,0 -2,0 0,4 -16,0 0,-4 -2,0 -8,0 c -2.61799,0 -5.21987,1.07773 -7.07107,2.92893 -1.8512,1.8512 -2.92893,4.45308 -2.92893,7.07107 l 0,8 0,596.00005 0,8 c 0,2.6179 1.07773,5.2198 2.92893,7.071 1.8512,1.8512 4.53125,2.294 7.07107,2.929 l 8,0 0,4 20,0 0,-4 16,0 0,12 0,12 0,8 c 0,4.1887 -3.93628,9.0159 -8,8 l -8,0 -18,0 -10,12 -10,-12 -8,0 c -4.18879,0 -8,-3.8113 -8,-8 l 0,-8 z"/><text style="font-size:20px;font-family:Sans;text-anchor:start;fill:#000" id="text3029-4" x="352.727" y="429.317"><tspan id="tspan3031-5" x="360.727" y="472.317">acción</tspan></text><path style="fill:#f0f;fill-opacity:1;stroke:#c700d3;stroke-width:2;stroke-linecap:round;stroke-opacity:1" id="path21-8" d="m 483,486.12409 120,0 0,40 -120,0 0,-16 0,-2 -12,0 0,6 -4,0 0,-16 4,0 0,6 12,0 0,-2 z"/><text style="font-size:20px;font-family:Sans;text-anchor:start;fill:#000" id="text23-0" x="515" y="487.124"><tspan id="tspan25-7" x="535" y="513.124">4</tspan></text><path id="path21-31-0" d="m 485,712.12408 0,-8 c 0,-4.18879 3.81121,-8 8,-8 l 8,0 20,0 80,0 8,0 0,40 -8,0 -80,0 -20,0 -8,0 c -4.18879,0 -8,-3.81121 -8,-8 l 0,-8 0,-2 -12,0 0,6 -4,0 0,-16 4,0 0,6 12,0 z" style="fill:#ffc000;fill-opacity:1;stroke:#c48d00;stroke-width:2;stroke-linecap:round;stroke-opacity:1"/><text id="text23-5-1" x="468" y="696.386" style="font-size:20px;font-family:Sans;text-anchor:end;fill:#000"><tspan id="tspan25-4-9" x="598" y="722.386">arg 1</tspan></text><path id="path21-7-6" d="m 485,654.12409 120.00001,0 0,40 -120.00001,0 0,-16 0,-2 -12,0 0,6 -4,0 0,-16 4,0 0,6 12,0 0,-2 z" style="fill:#f0f;fill-opacity:1;stroke:#c700d3;stroke-width:2;stroke-linecap:round;stroke-opacity:1"/><text id="text23-1-2" x="508.851" y="654.923" style="font-size:20px;font-family:Sans;text-anchor:start;fill:#000"><tspan id="tspan25-0-1" x="528.851" y="680.923">90</tspan></text><path id="path3194" d="m 371,670.12408 0,-8 a 8,8 0 0 1 8,-8 l 8,0 0,4 20,0 0,-4 60,0 8,0 a 8,8 0 0 1 8,8 l 0,8 -8,0 0,-6 -8,0 0,20 8,0 0,-6 8,0 0,34 -8,0 0,-6 -8,0 0,20 8,0 0,-6 8,0 0,8 a 8,8 0 0 1 -8,8 l -8,0 -60,0 -2,0 0,4 -16,0 0,-4 -2,0 -8,0 a 8,8 0 0 1 -8,-8 l 0,-8 0,-42 0,-8 z" style="fill:#00b700;fill-opacity:1;stroke:#007b00;stroke-width:2;stroke-linecap:round;stroke-opacity:1"/><text id="text3196" x="370" y="653.124" style="font-size:20px;font-family:Sans;text-anchor:end;fill:#000"><tspan id="tspan3198" x="464" y="702.124">arco</tspan></text><text id="text3200" x="370" y="653.124" style="font-size:13.33333302px;font-family:Sans;text-anchor:end;fill:#000"><tspan id="tspan3202" x="464" y="675.624">ángulo</tspan></text><text id="text3204" x="370" y="653.124" style="font-size:13.33333302px;font-family:Sans;text-anchor:end;fill:#000"><tspan id="tspan3206" x="464" y="717.624">radio</tspan></text><path style="fill:#7bbbb8;fill-opacity:1;stroke:#4c8585;stroke-width:2;stroke-linecap:round;stroke-opacity:1" id="path21-2" d="m 495,444.06205 120,0 0,40 -120,0 0,-16 0,-2 -12,0 0,6 -4,0 0,-16 4,0 0,6 12,0 0,-2 z"/><text style="font-size:20px;font-family:Sans;text-anchor:start;fill:#000" id="text23-2" x="494" y="443.062"><tspan id="tspan25-1" x="514" y="469.062">cuadrado</tspan></text><path id="path21-31-6" d="m 511,544.12408 0,-8 c 0,-4.18879 3.81121,-8 8,-8 l 8,0 20,0 80,0 8,0 0,40 -8,0 -80,0 -20,0 -8,0 c -4.18879,0 -8,-3.81121 -8,-8 l 0,-8 0,-2 -12,0 0,6 -4,0 0,-16 4,0 0,6 12,0 z" style="fill:#ffc000;fill-opacity:1;stroke:#c48d00;stroke-width:2;stroke-linecap:round;stroke-opacity:1"/><text id="text23-5-3" x="494" y="528.386" style="font-size:20px;font-family:Sans;text-anchor:end;fill:#000"><tspan id="tspan25-4-4" x="624" y="554.386">arg 1</tspan></text><path style="fill:#e37a00;fill-opacity:1;stroke:#a34600;stroke-width:2;stroke-linecap:round;stroke-opacity:1" id="path3035-6" d="m 19,156.1241 0,-8 c 0,-4.18879 3.81121,-8 8,-8 l 8,0 0,4 20,0 0,-4 18,0 40,0 8,0 c 4.18879,0 8,3.81121 8,8 l 0,8 -8,0 0,-6 -8,0 0,20 8,0 0,-6 8,0 0,8 c 0,4.18879 -3.81121,8 -8,8 l -8,0 -40,0 -2,0 0,4 -16,0 0,-4 -2,0 -8,0 c -2.61799,0 -5.21987,1.07773 -7.07107,2.92893 C 36.07773,184.90423 35,187.50611 35,190.1241 l 0,8 0,302 0,8 c 0,2.61799 1.07773,5.21987 2.92893,7.07107 1.8512,1.8512 4.53124,3.56389 7.07107,2.92893 l 8,0 0,4 20,0 0,-4 16,0 0,12 0,12 0,8 c 0,4.18879 -3.93628,9.01593 -8,8 l -8,0 -18,0 -2,0 0,4 -16,0 0,-4 -2,0 -8,0 c -4.18879,0 -8,-3.81121 -8,-8 l 0,-8 z"/><text style="font-size:20px;font-family:Sans;text-anchor:start;fill:#000" id="text3037-6" x="18" y="139.124"><tspan id="tspan3039-8" x="26" y="169.624">repetir</tspan></text><path style="fill:#f0f;fill-opacity:1;stroke:#c700d3;stroke-width:2;stroke-linecap:round;stroke-opacity:1" id="path21-8-9" d="m 131,140.12411 120.00001,0 0,40 -120.00001,0 0,-16 0,-2 -12,0 0,6 -4,0 0,-16 4,0 0,6 12,0 0,-2 z"/><text style="font-size:20px;font-family:Sans;text-anchor:start;fill:#000" id="text23-0-0" x="161" y="141.124"><tspan id="tspan25-7-6" x="181" y="167.124">6</tspan></text><path style="fill:#ffc000;fill-opacity:1;stroke:#c48d00;stroke-width:2;stroke-linecap:round;stroke-opacity:1" id="path3660-8" d="m 1,30.062096 0,-8 c 0,-4.18879 3.8112098,-8 8,-8 l 8,0 10,-12.0000004 10,12.0000004 18,0 60,0 8,0 c 4.18879,0 8,3.81121 8,8 l 0,8 0,8 0,8 c 0,4.18879 -3.81121,8 -8,8 l -8,0 -60,0 -2,0 0,4 -16,0 0,-4 -2,0 -8,0 c -2.617994,0 -5.219867,1.077731 -7.071068,2.928932 C 18.077731,58.842229 17,61.444102 17,64.062096 l 0,8 0,470.000004 0,8 c 0,2.61799 1.077731,5.21987 2.928932,7.07107 1.851201,1.8512 4.53124,3.56389 7.071068,2.92893 l 8,0 0,4 20,0 0,-4 16,0 0,12 0,12 0,8 c 0,4.18879 -3.936277,9.01593 -8,8 l -8,0 -18,0 -10,12 -10,-12 -8,0 c -4.1887902,0 -8,-3.81121 -8,-8 l 0,-8 z"/><text style="font-size:20px;font-family:Sans;text-anchor:start;fill:#000" id="text3662-6" x="0" y="1.062"><tspan id="tspan3664-1" x="8" y="44.062">iniciar</tspan></text><path style="fill:#eee;stroke:red;stroke-width:1.75;stroke-linecap:round;stroke-linejoin:round;stroke-miterlimit:4;stroke-dasharray:none;stroke-opacity:1" id="path4206-1" d="m 111.37629,43.535105 c -0.24354,0 -0.48399,-0.01591 -0.72092,-0.04546 l 0.61126,1.067795 0.60246,-1.051431 c -0.16339,0.01364 -0.32633,0.02909 -0.4928,0.02909 z"/><path id="path4210-1-3" d="m 116.95295,26.919051 c -0.95301,0 -1.74307,0.706863 -1.91262,1.63965 0.81869,0.611402 1.52243,1.415999 2.05883,2.367422 1.00629,-0.07819 1.80295,-0.936877 1.80295,-1.995581 0,-1.110979 -0.87285,-2.011491 -1.94916,-2.011491 z" style="fill:#ff8080;fill-opacity:1;stroke:red;stroke-width:1.75;stroke-linecap:round;stroke-linejoin:round;stroke-miterlimit:4;stroke-dasharray:none;stroke-opacity:1"/><path id="path4212-7" d="m 117.19648,39.720318 c -0.53903,1.01461 -1.25951,1.877846 -2.11255,2.525614 0.22945,0.847327 0.97459,1.472367 1.86902,1.472367 1.07587,0 1.94916,-0.900058 1.94916,-2.011037 0,-1.025065 -0.74558,-1.861936 -1.70563,-1.986944 z" style="fill:#ff8080;fill-opacity:1;stroke:red;stroke-width:1.75;stroke-linecap:round;stroke-linejoin:round;stroke-miterlimit:4;stroke-dasharray:none;stroke-opacity:1"/><path id="path4214-8" d="m 105.55257,39.713045 c -0.9922,0.09364 -1.77213,0.945059 -1.77213,1.994217 0,1.110525 0.87198,2.011037 1.94829,2.011037 0.90896,0 1.66643,-0.645496 1.88134,-1.514642 -0.82925,-0.643677 -1.53035,-1.495095 -2.0575,-2.490612 z" style="fill:#ff8080;fill-opacity:1;stroke:red;stroke-width:1.75;stroke-linecap:round;stroke-linejoin:round;stroke-miterlimit:4;stroke-dasharray:none;stroke-opacity:1"/><path id="path4216-3" d="m 107.64575,28.605976 c -0.15106,-0.955969 -0.9486,-1.686925 -1.91702,-1.686925 -1.07631,0 -1.94829,0.900512 -1.94829,2.011037 0,1.082796 0.83058,1.959215 1.86946,2.002854 0.5223,-0.928695 1.20314,-1.720109 1.99585,-2.326966 z" style="fill:#ff8080;fill-opacity:1;stroke:red;stroke-width:1.75;stroke-linecap:round;stroke-linejoin:round;stroke-miterlimit:4;stroke-dasharray:none;stroke-opacity:1"/><path style="fill:#ff8080;fill-opacity:1;stroke:red;stroke-width:1.75;stroke-linecap:round;stroke-linejoin:round;stroke-miterlimit:4;stroke-dasharray:none;stroke-opacity:1" id="path4218-9" d="m 111.37629,27.29953 c 0.84026,0 1.64177,0.18683 2.38603,0.51276 0.32633,-0.489122 0.51878,-1.080523 0.51878,-1.719655 0,-1.676015 -1.31632,-3.035192 -2.94048,-3.035192 -1.62372,0 -2.94005,1.359177 -2.94005,3.035192 0,0.649132 0.19906,1.249625 0.53552,1.742838 0.75923,-0.340476 1.57968,-0.535943 2.4402,-0.535943 z"/><path id="path4222-8" d="m 118.24858,35.417317 c 0,2.152137 -0.72453,4.218359 -2.01285,5.740137 -1.28832,1.521824 -3.0375,2.377651 -4.85944,2.377651 -1.82194,0 -3.57112,-0.855827 -4.85944,-2.377651 -1.28832,-1.521778 -2.01285,-3.588 -2.01285,-5.740137 0,-4.453282 3.10229,-8.117787 6.87229,-8.117787 3.77,0 6.87229,3.664505 6.87229,8.117787 z" style="fill:#ff8080;fill-opacity:1;stroke:red;stroke-width:1.75;stroke-linecap:round;stroke-linejoin:round;stroke-miterlimit:4;stroke-dasharray:none;stroke-opacity:1"/><path id="path4226-9" d="m 110.66198,36.930595 -0.67908,-2.102406 1.39339,-1.175983 1.59201,1.193712 -0.65486,2.122407 z" style="fill:red;fill-opacity:1;stroke:none"/><path id="path4228-3" d="m 111.37805,40.476729 c -1.74747,-0.07273 -2.44108,-0.913239 -2.44108,-0.913239 l 1.57219,-1.892393 1.96634,0.07637 1.3793,1.872846 c 0,0 -1.27272,0.906421 -2.47675,0.856418 z" style="fill:red;fill-opacity:1;stroke:none"/><path id="path4230-9" d="m 107.3934,36.972871 c -0.37389,-1.349177 0.0757,-3.12929 0.0757,-3.12929 l 1.76156,0.985063 0.6575,2.104224 -1.57747,1.924213 c 0,-4.54e-4 -0.64518,-0.904603 -0.91734,-1.88421 z" style="fill:red;fill-opacity:1;stroke:none"/><path id="path4232-5" d="m 107.836,33.009892 c 0,0 0.22019,-0.890056 1.33834,-1.737383 0.98515,-0.746865 1.96634,-0.781868 1.96634,-0.781868 l -0.0163,2.264235 -1.55062,1.250079 -1.73777,-0.995063 z" style="fill:red;fill-opacity:1;stroke:none"/><path id="path4234-2" d="m 113.39636,34.241334 -1.52331,-1.306901 0.16515,-2.367878 c 0,0 0.80767,-0.01909 1.7435,0.757776 0.98119,0.814142 1.48059,2.265143 1.48059,2.265143 l -1.86593,0.65186 z" style="fill:red;fill-opacity:1;stroke:none"/><path id="path4236-1" d="m 113.04757,37.063331 0.57823,-2.02922 1.84391,-0.698226 c 0,0 0.29815,1.210532 -0.0185,2.576073 -0.23781,1.025519 -0.91777,1.982398 -0.91777,1.982398 l -1.48588,-1.831025 z" style="fill:red;fill-opacity:1;stroke:none"/><path style="fill:#f0f;fill-opacity:1;stroke:#c700d3;stroke-width:2;stroke-linecap:round;stroke-opacity:1" id="path21-57" d="m 165,98.1241 120,0 0,40 -120,0 0,-16 0,-2 -12,0 0,6 -4,0 0,-16 4,0 0,6 12,0 0,-2 z"/><text style="font-size:20px;font-family:Sans;text-anchor:start;fill:#000" id="text23-6" x="192" y="97.124"><tspan id="tspan25-42" x="212" y="123.124">0</tspan></text><path id="path21-1" d="m 19,72.1241 0,-8 c 0,-4.418278 3.581722,-8 8,-8 l 8,0 0,4 20,0 0,-4 92,0 8,0 c 4.41828,0 9.07159,3.713641 8,8 l 0,8 -8,0 0,-6 -8,0 0,20 8,0 0,-6 8,0 0,34 -8,0 0,-6 -8,0 0,20 8,0 0,-6 8,0 0,8 c 0,4.41828 -3.58172,8 -8,8 l -8,0 -92,0 -2,0 0,4 -16,0 0,-4 -2,0 -8,0 c -4.418278,0 -8,-3.58172 -8,-8 l 0,-8 0,-42 z" style="fill:#fd6600;fill-opacity:1;stroke:#ac3d00;stroke-width:2;stroke-linecap:round;stroke-opacity:1"/><text id="text23-8" x="32" y="55.124" style="font-size:20px;font-family:Sans;text-anchor:end;fill:#000"><tspan id="tspan25-1-4" x="142" y="104.124">guardar en</tspan></text><text id="text27-4" x="32" y="57.124" style="font-size:13.33333302px;font-family:Sans;text-anchor:end;fill:#000"><tspan id="tspan29-2" x="142" y="79.624">nombre</tspan></text><text id="text31-1" x="32" y="59.124" style="font-size:13.33333302px;font-family:Sans;text-anchor:end;fill:#000"><tspan id="tspan33-6" x="142" y="123.624">valor</tspan></text><path style="fill:#7bbbb8;fill-opacity:1;stroke:#4c8585;stroke-width:2;stroke-linecap:round;stroke-opacity:1" id="path21-5-7" d="m 165,56.1241 120,0 0,40 -120,0 0,-16 0,-2 -12,0 0,6 -4,0 0,-16 4,0 0,6 12,0 0,-2 z"/><text style="font-size:20px;font-family:Sans;text-anchor:start;fill:#000" id="text23-5-4" x="182" y="55.124"><tspan id="tspan25-9" x="202" y="81.124">caja</tspan></text><path id="path21-0" d="m 151,476.10901 120,0 0,40 -120,0 0,-16 0,-2 -12,0 0,6 -4,0 0,-16 4,0 0,6 12,0 0,-2 z" style="fill:#f0f;fill-opacity:1;stroke:#c700d3;stroke-width:2;stroke-linecap:round;stroke-opacity:1"/><text id="text23-10" x="184" y="475.109" style="font-size:20px;font-family:Sans;text-anchor:start;fill:#000"><tspan id="tspan25-6" x="204" y="501.109">1</tspan></text><path id="path3172-5" d="m 151,434.10901 120,0 0,40 -120,0 0,-16 0,-2 -12,0 0,6 -4,0 0,-16 4,0 0,6 12,0 0,-2 z" style="fill:#fd6600;fill-opacity:1;stroke:#ac3d00;stroke-width:2;stroke-linecap:round;stroke-opacity:1"/><text id="text3174-8" x="134" y="433.109" style="font-size:20px;font-family:Sans;text-anchor:start;fill:#000"><tspan id="tspan3176-1" x="154" y="459.109">caja</tspan></text><path id="path3124" d="m 37,450.1241 0,-8 a 8,8 0 0 1 8,-8 l 8,0 0,4 20,0 0,-4 60,0 8,0 a 8,8 0 0 1 8,8 l 0,8 -8,0 0,-6 -8,0 0,20 8,0 0,-6 8,0 0,34 -8,0 0,-6 -8,0 0,20 8,0 0,-6 8,0 0,8 a 8,8 0 0 1 -8,8 l -8,0 -60,0 -2,0 0,4 -16,0 0,-4 -2,0 -8,0 a 8,8 0 0 1 -8,-8 l 0,-8 0,-42 0,-8 z" style="fill:#fd6600;fill-opacity:1;stroke:#ac3d00;stroke-width:2;stroke-linecap:round;stroke-opacity:1"/><text id="text3126" x="36" y="433.124" style="font-size:20px;font-family:Sans;text-anchor:end;fill:#000"><tspan id="tspan3128" x="130" y="482.124">sumar</tspan></text><text id="text3130" x="36" y="435.124" style="font-size:13.33333302px;font-family:Sans;text-anchor:end;fill:#000"><tspan id="tspan3132" x="130" y="457.624">para</tspan></text><text id="text3134" x="36" y="437.124" style="font-size:13.33333302px;font-family:Sans;text-anchor:end;fill:#000"><tspan id="tspan3136" x="130" y="501.624">valor</tspan></text><path style="fill:#ffc000;fill-opacity:1;stroke:#c48d00;stroke-width:2;stroke-linecap:round;stroke-opacity:1" id="path3062" d="m 37,198.1241 0,-8 c 0,-4.41828 3.581722,-8 8,-8 l 8,0 0,4 20,0 0,-4 18,0 40,0 8,0 c 4.41828,0 8,3.58172 8,8 l 0,8 0,8 0,8 c 0,4.41828 -3.58172,8 -8,8 l -8,0 -40,0 -8,0 c -5.522847,0 -10,4.47715 -10,10 l 0,8 -8,0 0,-6 -8,0 0,20 8,0 0,-6 8,0 0,134 c 0,5.52285 4.642051,11.33949 10,10 l 8,0 16,0 0,12 0,12 0,8 c 0,4.41828 -3.58172,8 -8,8 l -8,0 -18,0 -2,0 0,4 -16,0 0,-4 -2,0 -8,0 c -4.418278,0 -8,-3.58172 -8,-8 l 0,-8 z"/><text style="font-size:20px;font-family:sans-serif;text-anchor:start;fill:#000" id="text3064" x="36" y="181.124"><tspan id="tspan3066" x="44" y="211.624">cuadrado</tspan></text><path id="path3114" d="m 75,240.12408 0,-8 c 0,-4.41828 3.581722,-8 8,-8 l 8,0 20,0 60,0 8,0 c 4.41828,0 8,3.58172 8,8 l 0,8 -8,0 0,-6 -8,0 0,20 8,0 0,-6 8,0 0,118 -8,0 0,-6 -8,0 0,20 8,0 0,-6 8,0 0,8 c 0,4.41828 -3.71364,9.07159 -8,8 l -8,0 -60,0 -20,0 -8,0 c -4.418278,0 -8,-3.58172 -8,-8 l 0,-8 0,-126 0,-2 -12,0 0,6 -4,0 0,-16 4,0 0,6 12,0 z" style="fill:#f0f;fill-opacity:1;stroke:#c700d3;stroke-width:2;stroke-linecap:round;stroke-opacity:1"/><text id="text3116" x="58" y="223.124" style="font-size:28px;font-family:sans-serif;text-anchor:end;fill:#000"><tspan id="tspan3118" x="168" y="272.124">×</tspan></text><path id="path21-5" d="m 189,240.1241 0,-8 c 0,-4.18879 3.81121,-8 8,-8 l 8,0 20,0 18,0 64,0 8,0 c 4.18879,0 8,3.81121 8,8 l 0,8 0,8 0,8 c 0,4.18879 -3.81121,8 -8,8 l -8,0 -64,0 -8,0 c -2.61799,0 -5.21987,1.07773 -7.07107,2.92893 -1.8512,1.8512 -2.92893,4.45308 -2.92893,7.07107 l 0,8 -8,0 0,-6 -8,0 0,20 8,0 0,-6 8,0 0,8 c 0,2.61799 1.07773,5.21987 2.92893,7.07107 1.8512,1.8512 4.45308,2.92893 7.07107,2.92893 l 8,0 16,0 0,12 0,12 0,8 c 0,4.18879 -3.81121,8 -8,8 l -8,0 -18,0 -20,0 -8,0 c -4.18879,0 -8,-3.81121 -8,-8 l 0,-8 0,-84 0,-2 -12,0 0,6 -4,0 0,-16 4,0 0,6 12,0 z" style="fill:#ffc000;fill-opacity:1;stroke:#c48d00;stroke-width:2;stroke-linecap:round;stroke-opacity:1"/><text id="text23-3" x="218" y="223.124" style="font-size:20px;font-family:sans-serif;text-anchor:start;fill:#000"><tspan id="tspan25-77" x="236" y="253.624">fib</tspan></text><path id="path3172-5-1" d="m 227,266.1241 120,0 0,40 -120,0 0,-16 0,-2 -12,0 0,6 -4,0 0,-16 4,0 0,6 12,0 0,-2 z" style="fill:#fd6600;fill-opacity:1;stroke:#ac3d00;stroke-width:2;stroke-linecap:round;stroke-opacity:1"/><text id="text3174-8-1" x="210" y="265.124" style="font-size:20px;font-family:Sans;text-anchor:start;fill:#000"><tspan id="tspan3176-1-3" x="230" y="291.124">caja</tspan></text><path id="path21" d="m 189,350.12408 120,0 0,40 -120,0 0,-16 0,-2 -12,0 0,6 -4,0 0,-16 4,0 0,6 12,0 0,-2 z" style="fill:#f0f;fill-opacity:1;stroke:#c700d3;stroke-width:2;stroke-linecap:round;stroke-opacity:1"/><text id="text23" x="214" y="349.124" style="font-size:20px;font-family:Sans;text-anchor:start;fill:#000"><tspan id="tspan25" x="234" y="375.124">20</tspan></text><flowRoot style="font-style:normal;font-weight:400;font-size:16px;line-height:125%;font-family:sans-serif;text-align:center;letter-spacing:0;word-spacing:0;text-anchor:middle;fill:#000;fill-opacity:1;stroke:none;stroke-width:1px;stroke-linecap:butt;stroke-linejoin:miter;stroke-opacity:1" id="flowRoot4622" xml:space="preserve"><flowRegion id="flowRegion4624"><rect id="rect4626" width="320.467" height="182.714" x="673.46" y="575.885"/></flowRegion><flowPara id="flowPara4628"/></flowRoot><path id="path3798-4-4-5" d="m 617,754.12408 0,-8 a 8,8 0 0 1 8,-8 l 8,0 20,0 60,0 8,0 a 8,8 0 0 1 8,8 l 0,8 -8,0 0,-6 -8,0 0,20 8,0 0,-6 8,0 0,34 -8,0 0,-6 -8,0 0,20 8,0 0,-6 8,0 0,8 a 8,8 0 0 1 -8,8 l -8,0 -60,0 -20,0 -8,0 a 8,8 0 0 1 -8,-8 l 0,-8 0,-42 0,-2 -12,0 0,6 -4,0 0,-16 4,0 0,6 12,0 0,-2 z" style="fill:#f0f;fill-opacity:1;stroke:#c700d3;stroke-width:2;stroke-linecap:round;stroke-opacity:1"/><text id="text3800-3-2-0" x="592" y="737.124" style="font-size:28px;font-family:sans-serif;text-anchor:end;fill:#000"><tspan id="tspan3802-6-2-5" x="702" y="786.124">/</tspan></text><path id="path21-31-9-0-8-7" d="m 731,754.12408 0,-8 c 0,-4.18879 3.81121,-8 8,-8 l 8,0 20,0 80,0 8,0 0,40 -8,0 -80,0 -20,0 -8,0 c -4.18879,0 -8,-3.81121 -8,-8 l 0,-8 0,-2 -12,0 0,6 -4,0 0,-16 4,0 0,6 12,0 z" style="fill:#ffc000;fill-opacity:1;stroke:#c48d00;stroke-width:2;stroke-linecap:round;stroke-opacity:1"/><text id="text23-5-1-8-0-7" x="714" y="738.386" style="font-size:20px;font-family:Sans;text-anchor:end;fill:#000"><tspan id="tspan25-4-4-9-3-0" x="844" y="764.386">arg 1</tspan></text><path id="path21-8-2-1-0-6" d="m 731,780.12408 120,0 0,40 -120,0 0,-16 0,-2 -12,0 0,6 -4,0 0,-16 4,0 0,6 12,0 0,-2 z" style="fill:#f0f;fill-opacity:1;stroke:#c700d3;stroke-width:2;stroke-linecap:round;stroke-opacity:1"/><text id="text23-0-1-0-1-0" x="763" y="781.124" style="font-size:20px;font-family:Sans;text-anchor:start;fill:#000"><tspan id="tspan25-7-0-5-2-5" x="783" y="807.124">20</tspan></text><path id="path3035-7" d="m 389,796.12408 0,-8 c 0,-4.18879 3.81121,-8 8,-8 l 8,0 0,4 20,0 0,-4 18,0 76,0 8,0 c 4.18879,0 9.01593,3.93628 8,8 l 0,8 0,8 0,8 c 0,4.18879 -3.81121,8 -8,8 l -8,0 -76,0 -2,0 0,4 -16,0 0,-4 -2,0 -8,0 c -2.61799,0 -5.21987,1.07773 -7.07107,2.92893 -1.8512,1.8512 -2.92893,4.45308 -2.92893,7.07107 l 0,8 0,176.00002 0,8 c 0,2.618 1.07773,5.2199 2.92893,7.0711 1.8512,1.8512 4.53124,3.5638 7.07107,2.9289 l 8,0 0,4 20,0 0,-4 16,0 0,12 0,12 0,8 c 0,4.1888 -3.93628,9.0159 -8,8 l -8,0 -18,0 -2,0 0,4 -16,0 0,-4 -2,0 -8,0 c -4.18879,0 -8,-3.8112 -8,-8 l 0,-8 z" style="fill:#fd6600;fill-opacity:1;stroke:#ac3d00;stroke-width:2;stroke-linecap:round;stroke-opacity:1"/><text id="text3037-0" x="388" y="779.124" style="font-size:20px;font-family:Sans;text-anchor:start;fill:#000"><tspan id="tspan3039-7" x="396" y="809.624">tiempo libre</tspan></text><path id="path3035-23" d="m 371,754.12408 0,-8 c 0,-4.18879 3.8112,-8 8,-8 l 8,0 0,4 20,0 0,-4 18,0 174,0 8,0 c 4.1888,0 8,3.81121 8,8 l 0,8 -8,0 0,-6 -8,0 0,20 8,0 0,-6 8,0 0,8 c 0,4.18879 -3.8112,8 -8,8 l -8,0 -174,0 -2,0 0,4 -16,0 0,-4 -2,0 -8,0 c -2.618,0 -5.2199,1.07774 -7.0711,2.92894 -1.8512,1.8512 -2.9289,4.45307 -2.9289,7.07106 l 0,8 0,8 0,260.00002 c 0,2.618 1.0777,5.2198 2.9289,7.0711 1.8512,1.8512 4.5313,2.2939 7.0711,2.9289 l 8,0 0,4 20,0 0,-4 16,0 0,12 0,12 0,8 c 0,4.1888 -3.9363,6.9841 -8,8 l -8,0 -18,0 -2,0 0,4 -16,0 0,-4 -2,0 -8,0 c -4.1888,0 -8,-3.8112 -8,-8 l 0,-8 z" style="fill:#00b700;fill-opacity:1;stroke:#007b00;stroke-width:2;stroke-linecap:round;stroke-opacity:1"/><text id="text3037-1" x="370" y="737.124" style="font-size:20px;font-family:Sans;text-anchor:start;fill:#000"><tspan id="tspan3039-7-3" x="378" y="767.624">ajustar transposición</tspan></text><path style="fill:#00b700;fill-opacity:1;stroke:#007b00;stroke-width:2;stroke-linecap:round;stroke-opacity:1" id="path3194-36-6" d="m 425,922.12414 0,-8 a 8,8 0 0 1 8,-8 l 8,0 0,4 20,0 0,-4 60,0 8,0 a 8,8 0 0 1 8,8 l 0,8 -8,0 0,-6 -8,0 0,20 8,0 0,-6 8,0 0,34 -8,0 0,-5.99999 -8,0 0,19.99999 8,0 0,-6 8,0 0,8 a 8,8 0 0 1 -8,8 l -8,0 -60,0 -2,0 0,4 -16,0 0,-4 -2,0 -8,0 a 8,8 0 0 1 -8,-8 l 0,-8 0,-42 0,-8 z"/><text style="font-size:20px;font-family:Sans;text-anchor:end;fill:#000" id="text3196-75-2" x="424" y="905.124"><tspan id="tspan3198-3-1" x="518" y="954.124">tono</tspan></text><text style="font-size:13.33333302px;font-family:Sans;text-anchor:end;fill:#000" id="text3200-5-7" x="424" y="907.124"><tspan id="tspan3202-6-8" x="518" y="929.624">nota</tspan></text><text style="font-size:13.33333302px;font-family:Sans;text-anchor:end;fill:#000" id="text3204-2-5" x="424" y="909.124"><tspan id="tspan3206-9-7" x="518" y="973.624">octava</tspan></text><path id="path21-1-4" d="m 539,906.12414 120,0 0,40.00001 -120,0 0,-16.00001 0,-2 -12,0 0,6 -4,0 0,-16 4,0 0,6 12,0 0,-2 z" style="fill:#00b700;fill-opacity:1;stroke:#007b00;stroke-width:2;stroke-linecap:round;stroke-opacity:1"/><text id="text23-2-2-1" x="568" y="905.124" style="font-size:20px;font-family:Sans;text-anchor:start;fill:#000"><tspan id="tspan25-70-8" x="588" y="931.124">re</tspan></text><path style="fill:#f0f;fill-opacity:1;stroke:#c700d3;stroke-width:2;stroke-linecap:round;stroke-opacity:1" id="path21-6-9-5" d="m 539,948.12414 120,0 0,40 -120,0 0,-16 0,-2 -12,0 0,6 -4,0 0,-16 4,0 0,6 12,0 0,-2 z"/><text style="font-size:20px;font-family:Sans;text-anchor:start;fill:#000" id="text23-9-3-2-9" x="574" y="947.124"><tspan id="tspan25-8-6-7" x="594" y="973.124">4</tspan></text><path style="fill:#fd6600;fill-opacity:1;stroke:#ac3d00;stroke-width:2;stroke-linecap:round;stroke-opacity:1" id="path3035-0-5" d="m 407,838.12416 0,-8 c 0,-4.41828 3.58172,-8 8,-8 l 8,0 0,4 20,0 0,-4 18,0 110,0 8,0 c 4.41828,0 9.07159,3.71364 8,8 l 0,8 -8,0 0,-6 -8,0 0,20 8,0 0,-6 8,0 0,8 c 0,4.41827 -3.58172,8 -8,8 l -8,0 -110,0 -2,0 0,4 -16,0 0,-4 -2,0 -8,0 c -5.52285,0 -10,4.47715 -10,9.99999 l 0,8 0,92.00001 0,7.99999 c 0,5.52285 4.64205,11.3395 10,10 l 8,0 0,4 20,0 0,-4 16,0 0,11.99995 0,12 0,8 c 0,4.4183 -3.71365,9.0716 -8,8 l -8,0 -18,0 -2,0 0,4 -16,0 0,-4 -2,0 -8,0 c -4.41828,0 -8,-3.5817 -8,-8 l 0,-8 z"/><text style="font-size:20px;font-family:Sans;text-anchor:start;fill:#000" id="text3037-6-3" x="404" y="819.124"><tspan id="tspan3039-2-8" x="412" y="849.624">valor de la nota</tspan></text><path style="fill:#f0f;fill-opacity:1;stroke:#c700d3;stroke-width:2;stroke-linecap:round;stroke-opacity:1" id="path21-6-1-1-6-3" d="m 703,864.12416 120,0 0,40 -120,0 0,-16 0,-2 -12,0 0,6 -4,0 0,-16 4,0 0,6 12,0 0,-2 z"/><text style="font-size:20px;font-family:Sans;text-anchor:start;fill:#000" id="text23-9-82-8-1" x="730" y="863.124"><tspan id="tspan25-8-5-7-8" x="750" y="889.124">16</tspan></text><path style="fill:#f0f;fill-opacity:1;stroke:#c700d3;stroke-width:2;stroke-linecap:round;stroke-opacity:1" id="path3798-4-4-5-2-64" d="m 589,838.12416 0,-8 a 8,8 0 0 1 8,-8 l 8,0 20,0 60,0 8,0 a 8,8 0 0 1 8,8 l 0,8 -8,0 0,-6 -8,0 0,20 8,0 0,-6 8,0 0,34 -8,0 0,-6 -8,0 0,20 8,0 0,-6 8,0 0,8 a 8,8 0 0 1 -8,8 l -8,0 -60,0 -20,0 -8,0 a 8,8 0 0 1 -8,-8 l 0,-8 0,-42 0,-2 -12,0 0,6 -4,0 0,-16 4,0 0,6 12,0 0,-2 z"/><text style="font-size:28px;font-family:sans-serif;text-anchor:end;fill:#000" id="text3800-3-2-0-0-33" x="564" y="821.124"><tspan id="tspan3802-6-2-5-2-3" x="674" y="870.124">/</tspan></text><g id="g5147-3-8" transform="translate(456,779.12416)"><path id="path21-8-2-1-0-6-7-6" d="m 247,43 120,0 0,40 -120,0 0,-16 0,-2 -12,0 0,6 -4,0 0,-16 4,0 0,6 12,0 0,-2 z" style="fill:#f0f;fill-opacity:1;stroke:#c700d3;stroke-width:2;stroke-linecap:round;stroke-opacity:1"/><text id="text23-0-1-0-1-0-5-0" x="279" y="44" style="font-size:20px;font-family:Sans;text-anchor:start;fill:#000"><tspan id="tspan25-7-0-5-2-5-9-4" x="299" y="70">1</tspan></text></g><path id="path3124-2-8" d="m 425,880.12416 0,-8 c 0,-4.41828 3.58172,-8 8,-8 l 8,0 0,4 20,0 0,-4 60,0 8,0 c 4.41828,0 8,3.58172 8,8 l 0,8 0,8 0,8 c 0,4.41828 -3.71364,6.92841 -8,8 l -8,0 -60,0 -2,0 0,4 -16,0 0,-4 -2,0 -8,0 c -4.41828,0 -8,-3.58172 -8,-8 l 0,-8 0,0 z" style="fill:#fd6600;fill-opacity:1;stroke:#ac3d00;stroke-width:2;stroke-linecap:round;stroke-opacity:1"/><text style="font-style:normal;font-weight:400;font-size:16px;line-height:125%;font-family:sans-serif;text-align:center;letter-spacing:0;word-spacing:0;text-anchor:middle;fill:#000;fill-opacity:1;stroke:none;stroke-width:1px;stroke-linecap:butt;stroke-linejoin:miter;stroke-opacity:1" id="text6137-2-8" x="506.823" y="891.047" xml:space="preserve"><tspan id="tspan6139-8-8" x="506.823" y="891.047" style="font-size:22.5px">↓</tspan></text></svg>