<svg xmlns="http://www.w3.org/2000/svg" xmlns:svg="http://www.w3.org/2000/svg" id="svg4075" width="1207.467" height="788.399" version="1.1" viewBox="0 0 1132 739.124"><metadata id="metadata4080"/><path style="fill:#7bbbb8;fill-opacity:1;stroke:#4c8585;stroke-width:2;stroke-linecap:round;stroke-opacity:1" id="path21-2-0" d="m 143,13.562055 120,0 0,40 -120,0 0,-15.999999 0,-2 -12,0 0,6 -4,0 0,-16.000001 4,0 0,6 12,0 0,-2 z"/><text style="font-size:20px;font-family:Sans;text-anchor:start;fill:#000" id="text23-2" x="149.218" y="12.018"><tspan id="tspan25-1" x="169.218" y="38.018">acción</tspan></text><path id="path3027" d="m 37,490.12411 0,-8 c 0,-4.41828 3.581722,-8 8,-8 l 8,0 0,4 20,0 0,-4 60,0 8,0 c 4.41828,0 8,3.58172 8,8 l 0,8 -8,0 0,-6 -8,0 0,20 8,0 0,-6 8,0 0,8 c 0,4.41831 -3.58172,8.00001 -8,8.00001 l -8,0 -60,0 -2,0 0,4 -16,0 0,-4 -2,0 -8,0 c -4.418278,0 -8,-3.5817 -8,-8.00001 l 0,-8 z" style="fill:#00b700;fill-opacity:1;stroke:#007b00;stroke-width:2;stroke-linecap:round;stroke-opacity:1"/><text id="text3029" x="28" y="473.124" style="font-size:20px;font-family:Sans;text-anchor:end;fill:#000"><tspan id="tspan3031" x="130" y="501.124">atrás</tspan></text><path id="path21" d="m 151,474.12411 120,0 0,40.00001 -120,0 0,-16.00001 0,-2 -12,0 0,6 -4,0 0,-16 4,0 0,6 12,0 0,-2 z" style="fill:#f0f;fill-opacity:1;stroke:#c700d3;stroke-width:2;stroke-linecap:round;stroke-opacity:1"/><text id="text23" x="178" y="473.124" style="font-size:20px;font-family:Sans;text-anchor:start;fill:#000"><tspan id="tspan25" x="198" y="499.124">200</tspan></text><path id="path3101" d="m 37,532.12412 0,-8 a 8,8 0 0 1 8,-8 l 8,0 0,4 20,0 0,-4 60,0 8,0 a 8,8 0 0 1 8,8 l 0,8 -8,0 0,-6 -8,0 0,20 8,0 0,-6 8,0 0,8 a 8,8 0 0 1 -8,8 l -8,0 -60,0 -2,0 0,4 -16,0 0,-4 -2,0 -8,0 a 8,8 0 0 1 -8,-8 l 0,-8 0,-8 z" style="fill:#00b700;fill-opacity:1;stroke:#007b00;stroke-width:2;stroke-linecap:round;stroke-opacity:1"/><text id="text3103" x="36" y="515.124" style="font-size:20px;font-family:Sans;text-anchor:end;fill:#000"><tspan id="tspan3105" x="130" y="543.124">derecha</tspan></text><path id="path21-7" d="m 151,516.12412 120.00001,0 0,40 -120.00001,0 0,-16 0,-2 -12,0 0,6 -4,0 0,-16 4,0 0,6 12,0 0,-2 z" style="fill:#f0f;fill-opacity:1;stroke:#c700d3;stroke-width:2;stroke-linecap:round;stroke-opacity:1"/><text id="text23-1" x="174.851" y="516.923" style="font-size:20px;font-family:Sans;text-anchor:start;fill:#000"><tspan id="tspan25-0" x="194.851" y="542.923">90</tspan></text><path id="path3027-1" d="m 37,322.12412 0,-8 a 8,8 0 0 1 8,-8 l 8,0 0,4 20,0 0,-4 68,0 8,0 a 8,8 0 0 1 8,8 l 0,8 -8,0 0,-6 -8,0 0,20 8,0 0,-6 8,0 0,8 a 8,8 0 0 1 -8,8 l -8,0 -68,0 -2,0 0,4 -16,0 0,-4 -2,0 -8,0 a 8,8 0 0 1 -8,-8 l 0,-8 0,-8 z" style="fill:#00b700;fill-opacity:1;stroke:#007b00;stroke-width:2;stroke-linecap:round;stroke-opacity:1"/><text id="text3029-0" x="36" y="305.124" style="font-size:20px;font-family:Sans;text-anchor:end;fill:#000"><tspan id="tspan3031-8" x="138" y="333.124">adelante</tspan></text><path id="path21-3" d="m 159,306.12412 120,0 0,40 -120,0 0,-16 0,-2 -12,0 0,6 -4,0 0,-16 4,0 0,6 12,0 0,-2 z" style="fill:#f0f;fill-opacity:1;stroke:#c700d3;stroke-width:2;stroke-linecap:round;stroke-opacity:1"/><text id="text23-6" x="178" y="305.124" style="font-size:20px;font-family:Sans;text-anchor:start;fill:#000"><tspan id="tspan25-89" x="198" y="331.124">100</tspan></text><path id="path3027-6" d="m 37,154.12411 0,-8 a 8,8 0 0 1 8,-8 l 8,0 0,4 20,0 0,-4 68,0 8,0 a 8,8 0 0 1 8,8 l 0,8 -8,0 0,-6 -8,0 0,20 8,0 0,-6 8,0 0,8 a 8,8 0 0 1 -8,8 l -8,0 -68,0 -2,0 0,4 -16,0 0,-4 -2,0 -8,0 a 8,8 0 0 1 -8,-8 l 0,-8 0,-8 z" style="fill:#00b700;fill-opacity:1;stroke:#007b00;stroke-width:2;stroke-linecap:round;stroke-opacity:1"/><text id="text3029-3" x="36" y="137.124" style="font-size:20px;font-family:Sans;text-anchor:end;fill:#000"><tspan id="tspan3031-89" x="138" y="165.124">adelante</tspan></text><path id="path21-73" d="m 159,138.12411 120,0 0,40 -120,0 0,-16 0,-2 -12,0 0,6 -4,0 0,-16 4,0 0,6 12,0 0,-2 z" style="fill:#f0f;fill-opacity:1;stroke:#c700d3;stroke-width:2;stroke-linecap:round;stroke-opacity:1"/><text id="text23-5" x="178" y="137.124" style="font-size:20px;font-family:Sans;text-anchor:start;fill:#000"><tspan id="tspan25-3" x="198" y="163.124">100</tspan></text><path id="path3027-4" d="m 1,29.562055 0,-8 c 0,-4.18879 3.81121,-8 8,-8 l 8,0 10,-11.9999997 10,11.9999997 18,0 70,0 8,0 c 4.18879,0 8,3.81121 8,8 l 0,8 -8,0 0,-6 -8,0 0,20.000001 8,0 0,-6 8,0 0,8 c 0,4.18879 -3.81121,7.999999 -8,7.999999 l -8,0 -70,0 -2,0 0,4 -16,0 0,-4 -2,0 -8,0 c -2.61799,0 -5.21987,1.07773 -7.07107,2.92893 C 18.07773,58.342185 17,60.944055 17,63.562055 l 0,8 0,510.000005 0,8 c 0,2.61799 1.07773,5.21987 2.92893,7.07107 1.8512,1.8512 4.531247,2.29397 7.07107,2.92893 l 8,0 0,4 20,0 0,-4 16,0 0,12 0,12 0,8 c 0,4.18878 -3.93628,9.01593 -8,8 l -8,0 -18,0 -10,12 -10,-12 -8,0 c -4.18879,0 -8,-3.81122 -8,-8 l 0,-8 z" style="fill:#ffc000;fill-opacity:1;stroke:#c48d00;stroke-width:2;stroke-linecap:round;stroke-opacity:1"/><text style="font-size:20px;font-family:Sans;text-anchor:start;fill:#000" id="text3029-4" x="-.055" y="-1.727"><tspan id="tspan3031-5" x="7.945" y="41.273">acción</tspan></text><path style="fill:#ffc000;fill-opacity:1;stroke:#c48d00;stroke-width:2;stroke-linecap:round;stroke-opacity:1" id="path3058-23" d="m 917,113.56207 0,-8 a 8,8 0 0 1 8,-8.000004 l 8,0 0,4.000004 20,0 0,-4.000004 80,0 8,0 a 8,8 0 0 1 8,8.000004 l 0,8 0,8 0,8 a 8,8 0 0 1 -8,8 l -8,0 -80,0 -2,0 0,4 -16,0 0,-4 -2,0 -8,0 a 8,8 0 0 1 -8,-8 l 0,-8 z"/><text style="font-size:20px;font-family:Sans;text-anchor:end;fill:#000" id="text3060-40" x="916" y="96.562"><tspan id="tspan3062-0" x="1030" y="124.562">acción</tspan></text><path id="path3035-7" d="m 899,71.562056 0,-8 c 0,-4.18879 3.81121,-8 8,-8 l 8,0 0,4 20,0 0,-4 18,0 40,0 8,0 c 4.1888,0 8,3.81121 8,8 l 0,8 -8,0 0,-6 -8,0 0,20 8,0 0,-6 8,0 0,8 c 0,4.18879 -3.8112,8 -8,8 l -8,0 -40,0 -2,0 0,4 -16,0 0,-4 -2,0 -8,0 c -2.61799,0 -5.21987,1.07773 -7.07107,2.92893 C 916.07773,100.3422 915,102.94407 915,105.56206 l 0,8 0,8 0,8 c 0,2.61799 1.07773,5.21987 2.92893,7.07107 1.8512,1.8512 4.53124,3.56389 7.07107,2.92893 l 8,0 0,4 20,0 0,-4 16,0 0,12 0,12 0,8 c 0,4.1888 -3.93628,6.98407 -8,8 l -8,0 -18,0 -2,0 0,4 -16,0 0,-4 -2,0 -8,0 c -4.18879,0 -8,-3.8112 -8,-8 l 0,-8 z" style="fill:#e37a00;fill-opacity:1;stroke:#a34600;stroke-width:2;stroke-linecap:round;stroke-opacity:1"/><text id="text3037-9-7" x="898" y="54.562" style="font-size:20px;font-family:Sans;text-anchor:start;fill:#000"><tspan id="tspan3039-4" x="906" y="85.062">repetir</tspan></text><path id="path21-8-61" d="m 1011,55.562066 120,0 0,40 -120,0 0,-16 0,-2 -12,0 0,6 -4,0 0,-16 4,0 0,6 12,0 0,-2 z" style="fill:#f0f;fill-opacity:1;stroke:#c700d3;stroke-width:2;stroke-linecap:round;stroke-opacity:1"/><text id="text23-0-4" x="1041" y="56.562" style="font-size:20px;font-family:Sans;text-anchor:start;fill:#000"><tspan id="tspan25-7-0" x="1061" y="82.562">4</tspan></text><path id="path3660-4-5" d="m 881,29.562056 0,-8 c 0,-4.18879 3.81121,-8 8,-8 l 8,0 10,-12 10,12 18,0 60,0 8,0 c 4.1888,0 8,3.81121 8,8 l 0,8 0,8 0,8 c 0,4.18879 -3.8112,8 -8,8 l -8,0 -60,0 -2,0 0,4 -16,0 0,-4 -2,0 -8,0 c -2.61799,0 -5.21987,1.077731 -7.07107,2.928932 C 898.07773,58.342189 897,60.944062 897,63.562056 l 0,8 0,92.000004 0,8 c 0,2.61799 1.07773,5.21987 2.92893,7.07107 1.8512,1.8512 4.53124,3.56389 7.07107,2.92893 l 8,0 0,4 20,0 0,-4 16,0 0,12 0,12 0,8 c 0,4.18879 -3.93628,9.01593 -8,8 l -8,0 -18,0 -10,12 -10,-12 -8,0 c -4.18879,0 -8,-3.81121 -8,-8 l 0,-8 z" style="fill:#ffc000;fill-opacity:1;stroke:#c48d00;stroke-width:2;stroke-linecap:round;stroke-opacity:1"/><text id="text3662-8-4" x="880" y=".562" style="font-size:20px;font-family:Sans;text-anchor:start;fill:#000"><tspan id="tspan3664-5-20" x="888" y="43.562">iniciar</tspan></text><path id="path4206-3-4" d="m 991.37629,43.035065 c -0.24354,0 -0.48399,-0.01591 -0.72092,-0.04546 l 0.61126,1.067795 0.60246,-1.051431 c -0.16339,0.01364 -0.32633,0.02909 -0.4928,0.02909 z" style="fill:#eee;stroke:red;stroke-width:1.75;stroke-linecap:round;stroke-linejoin:round;stroke-miterlimit:4;stroke-dasharray:none;stroke-opacity:1"/><g id="g4208-9-1" transform="matrix(0.44038997,0,0,0.45457429,979.26689,21.088673)" style="fill:#ff8080;fill-opacity:1;stroke:red;stroke-width:3.91126204;stroke-linecap:round;stroke-linejoin:round;stroke-miterlimit:4;stroke-dasharray:none;stroke-opacity:1"><path id="path4210-2-6" d="m 40.16,11.726 c -2.164,0 -3.958,1.555 -4.343,3.607 1.859,1.345 3.457,3.115 4.675,5.208 2.285,-0.172 4.094,-2.061 4.094,-4.39 0,-2.444 -1.982,-4.425 -4.426,-4.425 z" style="fill:#ff8080;fill-opacity:1;stroke:red;stroke-width:3.91126204;stroke-miterlimit:4;stroke-dasharray:none;stroke-opacity:1"/><path id="path4212-9-6" d="m 40.713,39.887 c -1.224,2.232 -2.86,4.131 -4.797,5.556 0.521,1.864 2.213,3.239 4.244,3.239 2.443,0 4.426,-1.98 4.426,-4.424 0,-2.255 -1.693,-4.096 -3.873,-4.371 z" style="fill:#ff8080;fill-opacity:1;stroke:red;stroke-width:3.91126204;stroke-miterlimit:4;stroke-dasharray:none;stroke-opacity:1"/><path id="path4214-5-84" d="m 14.273,39.871 c -2.253,0.206 -4.024,2.079 -4.024,4.387 0,2.443 1.98,4.424 4.424,4.424 2.064,0 3.784,-1.42 4.272,-3.332 -1.883,-1.416 -3.475,-3.289 -4.672,-5.479 z" style="fill:#ff8080;fill-opacity:1;stroke:red;stroke-width:3.91126204;stroke-miterlimit:4;stroke-dasharray:none;stroke-opacity:1"/><path id="path4216-6-2" d="m 19.026,15.437 c -0.343,-2.103 -2.154,-3.711 -4.353,-3.711 -2.444,0 -4.424,1.981 -4.424,4.424 0,2.382 1.886,4.31 4.245,4.406 1.186,-2.043 2.732,-3.784 4.532,-5.119 z" style="fill:#ff8080;fill-opacity:1;stroke:red;stroke-width:3.91126204;stroke-miterlimit:4;stroke-dasharray:none;stroke-opacity:1"/></g><path id="path4218-8-5" d="m 991.37629,26.79949 c 0.84026,0 1.64177,0.18683 2.38603,0.51276 0.32633,-0.489122 0.51878,-1.080523 0.51878,-1.719655 0,-1.676015 -1.31632,-3.035192 -2.94048,-3.035192 -1.62372,0 -2.94005,1.359177 -2.94005,3.035192 0,0.649132 0.19906,1.249625 0.53552,1.742838 0.75923,-0.340476 1.57968,-0.535943 2.4402,-0.535943 z" style="fill:#ff8080;fill-opacity:1;stroke:red;stroke-width:1.75;stroke-linecap:round;stroke-linejoin:round;stroke-miterlimit:4;stroke-dasharray:none;stroke-opacity:1"/><g id="g4220-2-4" transform="matrix(0.44038997,0,0,0.45457429,979.26689,21.088673)" style="fill:#ff8080;fill-opacity:1;stroke:red;stroke-width:3.91126204;stroke-linecap:round;stroke-linejoin:round;stroke-miterlimit:4;stroke-dasharray:none;stroke-opacity:1"><path id="path4222-1-0" d="m 43.102,30.421 c 0,4.7344 -1.6452,9.2798 -4.5706,12.6275 -2.9254,3.3478 -6.8973,5.2305 -11.0344,5.2305 -4.1371,0 -8.109,-1.8827 -11.0344,-5.2305 -2.9254,-3.3477 -4.5706,-7.8931 -4.5706,-12.6275 0,-9.7966 7.0444,-17.858 15.605,-17.858 8.5606,0 15.605,8.0614 15.605,17.858 z" style="fill:#ff8080;fill-opacity:1;stroke:red;stroke-width:3.91126204;stroke-miterlimit:4;stroke-dasharray:none;stroke-opacity:1"/></g><g id="g4224-8-72" transform="matrix(0.44038997,0,0,0.45457429,979.26689,21.088673)" style="fill:red;fill-opacity:1;stroke:none"><path id="path4226-5-50" d="m 25.875,33.75 -1.542,-4.625 3.164,-2.587 3.615,2.626 -1.487,4.669 z" style="fill:red;fill-opacity:1;stroke:none"/><path id="path4228-5-65" d="m 27.501,41.551 c -3.968,-0.16 -5.543,-2.009 -5.543,-2.009 l 3.57,-4.163 4.465,0.168 3.132,4.12 c 0,0 -2.89,1.994 -5.624,1.884 z" style="fill:red;fill-opacity:1;stroke:none"/><path id="path4230-9-15" d="m 18.453,33.843 c -0.849,-2.968 0.172,-6.884 0.172,-6.884 l 4,2.167 1.493,4.629 -3.582,4.233 c 0,-10e-4 -1.465,-1.99 -2.083,-4.145 z" style="fill:red;fill-opacity:1;stroke:none"/><path id="path4232-2-7" d="m 19.458,25.125 c 0,0 0.5,-1.958 3.039,-3.822 2.237,-1.643 4.465,-1.72 4.465,-1.72 l -0.037,4.981 -3.521,2.75 -3.946,-2.189 z" style="fill:red;fill-opacity:1;stroke:none"/><path id="path4234-2-72" d="M 32.084,27.834 28.625,24.959 29,19.75 c 0,0 1.834,-0.042 3.959,1.667 2.228,1.791 3.362,4.983 3.362,4.983 l -4.237,1.434 z" style="fill:red;fill-opacity:1;stroke:none"/><path id="path4236-4-04" d="m 31.292,34.042 1.313,-4.464 4.187,-1.536 c 0,0 0.677,2.663 -0.042,5.667 -0.54,2.256 -2.084,4.361 -2.084,4.361 l -3.374,-4.028 z" style="fill:red;fill-opacity:1;stroke:none"/></g><path style="fill:#ffc000;fill-opacity:1;stroke:#c48d00;stroke-width:2;stroke-linecap:round;stroke-opacity:1" id="path3058" d="m 917,361.56207 0,-8 a 8,8 0 0 1 8,-8 l 8,0 0,4 20,0 0,-4 80,0 8,0 a 8,8 0 0 1 8,8 l 0,8 0,8 0,8 a 8,8 0 0 1 -8,8 l -8,0 -80,0 -2,0 0,4 -16,0 0,-4 -2,0 -8,0 a 8,8 0 0 1 -8,-8 l 0,-8 z"/><text style="font-size:20px;font-family:Sans;text-anchor:end;fill:#000" id="text3060" x="916" y="344.562"><tspan id="tspan3062" x="1030" y="372.562">chunk</tspan></text><path id="path3035-0" d="m 899,319.56206 0,-8 c 0,-4.18879 3.81121,-8 8,-8 l 8,0 0,4 20,0 0,-4 18,0 40,0 8,0 c 4.1888,0 8,3.81121 8,8 l 0,8 -8,0 0,-6 -8,0 0,20 8,0 0,-6 8,0 0,8 c 0,4.18879 -3.8112,8 -8,8 l -8,0 -40,0 -2,0 0,4 -16,0 0,-4 -2,0 -8,0 c -2.61799,0 -5.21987,1.07773 -7.07107,2.92893 C 916.07773,348.3422 915,350.94407 915,353.56206 l 0,8 0,8 0,8 c 0,2.61799 1.07773,5.21987 2.92893,7.07107 1.8512,1.8512 4.53124,3.56389 7.07107,2.92893 l 8,0 0,4 20,0 0,-4 16,0 0,12 0,12 0,8 c 0,4.1888 -3.93628,6.98407 -8,8 l -8,0 -18,0 -2,0 0,4 -16,0 0,-4 -2,0 -8,0 c -4.18879,0 -8,-3.8112 -8,-8 l 0,-8 z" style="fill:#e37a00;fill-opacity:1;stroke:#a34600;stroke-width:2;stroke-linecap:round;stroke-opacity:1"/><text id="text3037-28" x="898" y="302.562" style="font-size:20px;font-family:Sans;text-anchor:start;fill:#000"><tspan id="tspan3039-43" x="906" y="333.062">repetir</tspan></text><path id="path21-8" d="m 1011,303.56207 120,0 0,40 -120,0 0,-16 0,-2 -12,0 0,6 -4,0 0,-16 4,0 0,6 12,0 0,-2 z" style="fill:#f0f;fill-opacity:1;stroke:#c700d3;stroke-width:2;stroke-linecap:round;stroke-opacity:1"/><text id="text23-0-7" x="1041" y="304.562" style="font-size:20px;font-family:Sans;text-anchor:start;fill:#000"><tspan id="tspan25-7-4" x="1061" y="330.562">4</tspan></text><path id="path3660-4" d="m 881,277.56206 0,-8 c 0,-4.18879 3.81121,-8 8,-8 l 8,0 10,-12 10,12 18,0 60,0 8,0 c 4.1888,0 8,3.81121 8,8 l 0,8 0,8 0,8 c 0,4.18879 -3.8112,8 -8,8 l -8,0 -60,0 -2,0 0,4 -16,0 0,-4 -2,0 -8,0 c -2.61799,0 -5.21987,1.07773 -7.07107,2.92893 -1.8512,1.8512 -2.92893,4.45308 -2.92893,7.07107 l 0,8 0,92 0,8 c 0,2.61799 1.07773,5.21987 2.92893,7.07107 1.8512,1.8512 4.53124,3.56389 7.07107,2.92893 l 8,0 0,4 20,0 0,-4 16,0 0,12 0,12 0,8 c 0,4.18879 -3.93628,9.01593 -8,8 l -8,0 -18,0 -10,12 -10,-12 -8,0 c -4.18879,0 -8,-3.81121 -8,-8 l 0,-8 z" style="fill:#ffc000;fill-opacity:1;stroke:#c48d00;stroke-width:2;stroke-linecap:round;stroke-opacity:1"/><text id="text3662-8" x="880" y="248.562" style="font-size:20px;font-family:Sans;text-anchor:start;fill:#000"><tspan id="tspan3664-5" x="888" y="291.562">iniciar</tspan></text><path id="path4206-9" d="m 991.39004,291.03506 c -0.24354,0 -0.48399,-0.0159 -0.72092,-0.0455 l 0.61126,1.06779 0.60246,-1.05143 c -0.16339,0.0136 -0.32633,0.0291 -0.4928,0.0291 z" style="fill:#eee;stroke:#ff4100;stroke-width:1.75;stroke-linecap:round;stroke-linejoin:round;stroke-miterlimit:4;stroke-dasharray:none;stroke-opacity:1"/><path style="fill:#ff9452;fill-opacity:1;stroke:#ff4100;stroke-width:1.75;stroke-linecap:round;stroke-linejoin:round;stroke-miterlimit:4;stroke-dasharray:none;stroke-opacity:1" id="path4210-5" d="m 996.9667,274.41901 c -0.953,0 -1.74306,0.70686 -1.91261,1.63965 0.81868,0.6114 1.52243,1.41599 2.05882,2.36742 1.00629,-0.0782 1.80296,-0.93688 1.80296,-1.99558 0,-1.11098 -0.87286,-2.01149 -1.94917,-2.01149 z"/><path style="fill:#ff9452;fill-opacity:1;stroke:#ff4100;stroke-width:1.75;stroke-linecap:round;stroke-linejoin:round;stroke-miterlimit:4;stroke-dasharray:none;stroke-opacity:1" id="path4212-8" d="m 997.21024,287.22027 c -0.53904,1.01461 -1.25952,1.87785 -2.11255,2.52562 0.22944,0.84732 0.97458,1.47236 1.86901,1.47236 1.07587,0 1.94917,-0.90005 1.94917,-2.01103 0,-1.02507 -0.74558,-1.86194 -1.70563,-1.98695 z"/><path style="fill:#ff9452;fill-opacity:1;stroke:#ff4100;stroke-width:1.75;stroke-linecap:round;stroke-linejoin:round;stroke-miterlimit:4;stroke-dasharray:none;stroke-opacity:1" id="path4214-5-4" d="m 985.56633,287.213 c -0.9922,0.0936 -1.77213,0.94506 -1.77213,1.99422 0,1.11052 0.87197,2.01103 1.94828,2.01103 0.90897,0 1.66644,-0.64549 1.88135,-1.51464 -0.82926,-0.64368 -1.53036,-1.49509 -2.0575,-2.49061 z"/><path style="fill:#ff9452;fill-opacity:1;stroke:#ff4100;stroke-width:1.75;stroke-linecap:round;stroke-linejoin:round;stroke-miterlimit:4;stroke-dasharray:none;stroke-opacity:1" id="path4216-2" d="m 987.6595,276.10593 c -0.15105,-0.95597 -0.9486,-1.68692 -1.91702,-1.68692 -1.07631,0 -1.94828,0.90051 -1.94828,2.01103 0,1.0828 0.83057,1.95922 1.86945,2.00286 0.5223,-0.9287 1.20315,-1.72011 1.99585,-2.32697 z"/><path id="path4218-2" d="m 991.39004,274.79948 c 0.84026,0 1.64177,0.18683 2.38603,0.51276 0.32633,-0.48912 0.51878,-1.08052 0.51878,-1.71965 0,-1.67602 -1.31632,-3.03519 -2.94048,-3.03519 -1.62372,0 -2.94005,1.35917 -2.94005,3.03519 0,0.64913 0.19906,1.24962 0.53552,1.74284 0.75923,-0.34048 1.57968,-0.53595 2.4402,-0.53595 z" style="fill:#ff9452;fill-opacity:1;stroke:#ff4100;stroke-width:1.75;stroke-linecap:round;stroke-linejoin:round;stroke-miterlimit:4;stroke-dasharray:none;stroke-opacity:1"/><path style="fill:#ff9452;fill-opacity:1;stroke:#ff4100;stroke-width:1.75;stroke-linecap:round;stroke-linejoin:round;stroke-miterlimit:4;stroke-dasharray:none;stroke-opacity:1" id="path4222-7" d="m 998.26233,282.91727 c 0,2.15214 -0.72453,4.21836 -2.01285,5.74014 -1.28831,1.52182 -3.0375,2.37765 -4.85944,2.37765 -1.82193,0 -3.57112,-0.85583 -4.85944,-2.37765 -1.28831,-1.52178 -2.01284,-3.588 -2.01284,-5.74014 0,-4.45328 3.10228,-8.11779 6.87228,-8.11779 3.77001,0 6.87229,3.66451 6.87229,8.11779 z"/><path style="fill:#ff4100;fill-opacity:1;stroke:none" id="path4226-0" d="m 990.67573,284.43055 -0.67908,-2.10241 1.39339,-1.17598 1.59201,1.19371 -0.65486,2.12241 z"/><path style="fill:#ff4100;fill-opacity:1;stroke:none" id="path4228-4" d="m 991.3918,287.97668 c -1.74746,-0.0727 -2.44108,-0.91324 -2.44108,-0.91324 l 1.5722,-1.89239 1.96634,0.0764 1.3793,1.87285 c 0,0 -1.27273,0.90642 -2.47676,0.85642 z"/><path style="fill:#ff4100;fill-opacity:1;stroke:none" id="path4230-0" d="m 987.40716,284.47283 c -0.37389,-1.34918 0.0757,-3.12929 0.0757,-3.12929 l 1.76156,0.98506 0.65751,2.10422 -1.57748,1.92422 c 0,-4.6e-4 -0.64517,-0.90461 -0.91733,-1.88421 z"/><path style="fill:#ff4100;fill-opacity:1;stroke:none" id="path4232-3" d="m 987.84975,280.50985 c 0,0 0.22019,-0.89006 1.33834,-1.73739 0.98516,-0.74686 1.96634,-0.78186 1.96634,-0.78186 l -0.0163,2.26423 -1.55061,1.25008 -1.73778,-0.99506 z"/><path style="fill:#ff4100;fill-opacity:1;stroke:none" id="path4234-7" d="m 993.41011,281.74129 -1.52331,-1.3069 0.16515,-2.36788 c 0,0 0.80767,-0.0191 1.7435,0.75778 0.98119,0.81414 1.48059,2.26514 1.48059,2.26514 l -1.86593,0.65186 z"/><path style="fill:#ff4100;fill-opacity:1;stroke:none" id="path4236-3" d="m 993.06132,284.56329 0.57823,-2.02922 1.84392,-0.69823 c 0,0 0.29814,1.21053 -0.0185,2.57607 -0.23781,1.02552 -0.91777,1.9824 -0.91777,1.9824 l -1.48588,-1.83102 z"/><path id="path3027-4-3" d="m 441,29.562045 0,-7.999995 c 0,-4.18879 3.81121,-8 8,-8 l 8,0 10,-12.0000001 10,12.0000001 18,0 70,0 8,0 c 4.18879,0 8,3.81121 8,8 l 0,7.999995 -8,0 0,-5.999995 -8,0 0,19.999995 8,0 0,-6 8,0 0,8 c 0,4.188795 -3.81121,8.000005 -8,8.000005 l -8,0 -70,0 -2,0 0,4 -16,0 0,-4 -2,0 -8,0 c -2.61799,0 -5.21987,1.07773 -7.07107,2.92893 C 458.07773,58.34218 457,60.94405 457,63.56205 l 0,8 0,596.00001 0,8 c 0,2.61799 1.07773,5.21987 2.92893,7.07107 1.8512,1.8512 4.53125,2.29397 7.07107,2.92893 l 8,0 0,4 20,0 0,-4 16,0 0,12 0,12 0,8 c 0,4.18878 -3.93628,9.01593 -8,8 l -8,0 -18,0 -10,12 -10,-12 -8,0 c -4.18879,0 -8,-3.81122 -8,-8 l 0,-8 z" style="fill:#ffc000;fill-opacity:1;stroke:#c48d00;stroke-width:2;stroke-linecap:round;stroke-opacity:1"/><text id="text3029-4-6" x="439.945" y="-1.727" style="font-size:20px;font-family:Sans;text-anchor:start;fill:#000"><tspan id="tspan3031-5-7" x="447.945" y="41.273">acción</tspan></text><path id="path21-2-0-5" d="m 583,13.56205 120,0 0,40 -120,0 0,-16.000005 0,-2 -12,0 0,6 -4,0 0,-15.999995 4,0 0,5.999995 12,0 0,-2 z" style="fill:#7bbbb8;fill-opacity:1;stroke:#4c8585;stroke-width:2;stroke-linecap:round;stroke-opacity:1"/><text id="text23-2-35" x="589.218" y="12.018" style="font-size:20px;font-family:Sans;text-anchor:start;fill:#000"><tspan id="tspan25-1-6" x="609.218" y="38.018">chunk</tspan></text><path style="fill:#00b700;fill-opacity:1;stroke:#007b00;stroke-width:2;stroke-linecap:round;stroke-opacity:1" id="path3194-36-6" d="m 477,575.12412 0,-8 a 8,8 0 0 1 8,-8 l 8,0 0,4 20,0 0,-4 60,0 8,0 a 8,8 0 0 1 8,8 l 0,8 -8,0 0,-6 -8,0 0,20 8,0 0,-6 8,0 0,34 -8,0 0,-5.99999 -8,0 0,19.99999 8,0 0,-6 8,0 0,8 a 8,8 0 0 1 -8,8 l -8,0 -60,0 -2,0 0,4 -16,0 0,-4 -2,0 -8,0 a 8,8 0 0 1 -8,-8 l 0,-8 0,-42 0,-8 z"/><text style="font-size:20px;font-family:Sans;text-anchor:end;fill:#000" id="text3196-75-2" x="476" y="558.124"><tspan id="tspan3198-3-1" x="570" y="607.124">tono</tspan></text><text style="font-size:13.33333302px;font-family:Sans;text-anchor:end;fill:#000" id="text3200-5-7" x="476" y="560.124"><tspan id="tspan3202-6-8" x="570" y="582.624">nota</tspan></text><text style="font-size:13.33333302px;font-family:Sans;text-anchor:end;fill:#000" id="text3204-2-5" x="476" y="562.124"><tspan id="tspan3206-9-7" x="570" y="626.624">octava</tspan></text><path id="path21-1-4" d="m 591,559.12412 120,0 0,40.00001 -120,0 0,-16.00001 0,-2 -12,0 0,6 -4,0 0,-16 4,0 0,6 12,0 0,-2 z" style="fill:#00b700;fill-opacity:1;stroke:#007b00;stroke-width:2;stroke-linecap:round;stroke-opacity:1"/><text id="text23-2-2-1" x="616" y="558.124" style="font-size:20px;font-family:Sans;text-anchor:start;fill:#000"><tspan id="tspan25-70-8" x="636" y="584.124">sol</tspan></text><path style="fill:#f0f;fill-opacity:1;stroke:#c700d3;stroke-width:2;stroke-linecap:round;stroke-opacity:1" id="path21-6-9-5" d="m 591,601.12412 120,0 0,40 -120,0 0,-16 0,-2 -12,0 0,6 -4,0 0,-16 4,0 0,6 12,0 0,-2 z"/><text style="font-size:20px;font-family:Sans;text-anchor:start;fill:#000" id="text23-9-3-2-9" x="626" y="600.124"><tspan id="tspan25-8-6-7" x="646" y="626.124">4</tspan></text><path style="fill:#fd6600;fill-opacity:1;stroke:#ac3d00;stroke-width:2;stroke-linecap:round;stroke-opacity:1" id="path3035-0-5" d="m 459,491.12414 0,-8 c 0,-4.41828 3.58172,-8 8,-8 l 8,0 0,4 20,0 0,-4 18,0 110,0 8,0 c 4.41828,0 9.07159,3.71364 8,8 l 0,8 -8,0 0,-6 -8,0 0,20 8,0 0,-6 8,0 0,8 c 0,4.41828 -3.58172,8 -8,8 l -8,0 -110,0 -2,0 0,4 -16,0 0,-4 -2,0 -8,0 c -5.52285,0 -10,4.47715 -10,9.99999 l 0,8 0,92.00001 0,7.99999 c 0,5.52285 4.64205,11.3395 10,10 l 8,0 0,4 20,0 0,-4 16,0 0,12 0,12 0,8 c 0,4.41828 -3.71365,9.0716 -8,8 l -8,0 -18,0 -2,0 0,4 -16,0 0,-4 -2,0 -8,0 c -4.41828,0 -8,-3.58172 -8,-8 l 0,-8 z"/><text style="font-size:20px;font-family:Sans;text-anchor:start;fill:#000" id="text3037-6-3" x="456" y="472.124"><tspan id="tspan3039-2-8" x="464" y="502.624">valor de la nota</tspan></text><path style="fill:#f0f;fill-opacity:1;stroke:#c700d3;stroke-width:2;stroke-linecap:round;stroke-opacity:1" id="path21-6-1-1-6-3" d="m 755,517.12414 120,0 0,40 -120,0 0,-16 0,-2 -12,0 0,6 -4,0 0,-16 4,0 0,6 12,0 0,-2 z"/><text style="font-size:20px;font-family:Sans;text-anchor:start;fill:#000" id="text23-9-82-8-1" x="790" y="516.124"><tspan id="tspan25-8-5-7-8" x="810" y="542.124">2</tspan></text><path style="fill:#f0f;fill-opacity:1;stroke:#c700d3;stroke-width:2;stroke-linecap:round;stroke-opacity:1" id="path3798-4-4-5-2-64" d="m 641,491.12414 0,-8 a 8,8 0 0 1 8,-8 l 8,0 20,0 60,0 8,0 a 8,8 0 0 1 8,8 l 0,8 -8,0 0,-6 -8,0 0,20 8,0 0,-6 8,0 0,34 -8,0 0,-6 -8,0 0,20 8,0 0,-6 8,0 0,8 a 8,8 0 0 1 -8,8 l -8,0 -60,0 -20,0 -8,0 a 8,8 0 0 1 -8,-8 l 0,-8 0,-42 0,-2 -12,0 0,6 -4,0 0,-16 4,0 0,6 12,0 0,-2 z"/><text style="font-size:28px;font-family:sans-serif;text-anchor:end;fill:#000" id="text3800-3-2-0-0-33" x="616" y="474.124"><tspan id="tspan3802-6-2-5-2-3" x="726" y="523.124">/</tspan></text><g id="g5147-3-8" transform="translate(508,432.12414)"><path id="path21-8-2-1-0-6-7-6" d="m 247,43 120,0 0,40 -120,0 0,-16 0,-2 -12,0 0,6 -4,0 0,-16 4,0 0,6 12,0 0,-2 z" style="fill:#f0f;fill-opacity:1;stroke:#c700d3;stroke-width:2;stroke-linecap:round;stroke-opacity:1"/><text id="text23-0-1-0-1-0-5-0" x="279" y="44" style="font-size:20px;font-family:Sans;text-anchor:start;fill:#000"><tspan id="tspan25-7-0-5-2-5-9-4" x="299" y="70">1</tspan></text></g><path id="path3124-2-8" d="m 477,533.12414 0,-8 c 0,-4.41828 3.58172,-8 8,-8 l 8,0 0,4 20,0 0,-4 60,0 8,0 c 4.41828,0 8,3.58172 8,8 l 0,8 0,8 0,8 c 0,4.41828 -3.71364,6.92841 -8,8 l -8,0 -60,0 -2,0 0,4 -16,0 0,-4 -2,0 -8,0 c -4.41828,0 -8,-3.58172 -8,-8 l 0,-8 0,0 z" style="fill:#fd6600;fill-opacity:1;stroke:#ac3d00;stroke-width:2;stroke-linecap:round;stroke-opacity:1"/><text style="font-style:normal;font-weight:400;font-size:16px;line-height:125%;font-family:sans-serif;text-align:center;letter-spacing:0;word-spacing:0;text-anchor:middle;fill:#000;fill-opacity:1;stroke:none;stroke-width:1px;stroke-linecap:butt;stroke-linejoin:miter;stroke-opacity:1" id="text6137-2-8" x="558.823" y="544.047" xml:space="preserve"><tspan id="tspan6139-8-8" x="558.823" y="544.047" style="font-size:22.5px">↓</tspan></text><path style="fill:#00b700;fill-opacity:1;stroke:#007b00;stroke-width:2;stroke-linecap:round;stroke-opacity:1" id="path3194-9-1-7" d="m 477.00004,365.12412 0,-8 a 8,8 0 0 1 8,-8 l 8,0 0,4 20,0 0,-4 60,0 8,0 a 8,8 0 0 1 8,8 l 0,8 -8,0 0,-6 -8,0 0,20 8,0 0,-6 8,0 0,34 -8,0 0,-5.99999 -8,0 0,19.99999 8,0 0,-6 8,0 0,8 a 8,8 0 0 1 -8,8 l -8,0 -60,0 -2,0 0,4 -16,0 0,-4 -2,0 -8,0 a 8,8 0 0 1 -8,-8 l 0,-8 0,-42 0,-8 z"/><text style="font-size:20px;font-family:Sans;text-anchor:end;fill:#000" id="text3196-73-7" x="476" y="348.124"><tspan id="tspan3198-6-6" x="570" y="397.124">tono</tspan></text><text style="font-size:13.33333302px;font-family:Sans;text-anchor:end;fill:#000" id="text3200-1-4" x="476" y="350.124"><tspan id="tspan3202-2-3" x="570" y="372.624">nota</tspan></text><text style="font-size:13.33333302px;font-family:Sans;text-anchor:end;fill:#000" id="text3204-93-0" x="476" y="352.124"><tspan id="tspan3206-1-0-30" x="570" y="416.624">octava</tspan></text><path id="path21-9-9" d="m 591.00004,349.12412 120,0 0,40.00001 -120,0 0,-16.00001 0,-2 -12,0 0,6 -4,0 0,-16 4,0 0,6 12,0 0,-2 z" style="fill:#00b700;fill-opacity:1;stroke:#007b00;stroke-width:2;stroke-linecap:round;stroke-opacity:1"/><text id="text23-4-2" x="620" y="348.124" style="font-size:20px;font-family:Sans;text-anchor:start;fill:#000"><tspan id="tspan25-78-5" x="640" y="374.124">mi</tspan></text><path style="fill:#f0f;fill-opacity:1;stroke:#c700d3;stroke-width:2;stroke-linecap:round;stroke-opacity:1" id="path21-6-4-4" d="m 591.00004,391.12412 120,0 0,40 -120,0 0,-16 0,-2 -12,0 0,6 -4,0 0,-16 4,0 0,6 12,0 0,-2 z"/><text style="font-size:20px;font-family:Sans;text-anchor:start;fill:#000" id="text23-9-50-0" x="626" y="390.124"><tspan id="tspan25-8-3-59" x="646" y="416.124">4</tspan></text><path style="fill:#fd6600;fill-opacity:1;stroke:#ac3d00;stroke-width:2;stroke-linecap:round;stroke-opacity:1" id="path3035-6-4" d="m 459.00004,281.12414 0,-8 c 0,-4.41828 3.58172,-8 8,-8 l 8,0 0,4 20,0 0,-4 18,0 110,0 8,0 c 4.41828,0 9.07159,3.71364 8,8 l 0,8 -8,0 0,-6 -8,0 0,20 8,0 0,-6 8,0 0,8 c 0,4.41827 -3.58172,8 -8,8 l -8,0 -110,0 -2,0 0,4 -16,0 0,-4 -2,0 -8,0 c -5.52285,0 -10,4.47715 -10,9.99999 l 0,8 0,92.00001 0,7.99999 c 0,5.52285 4.64205,11.3395 10,10 l 8,0 0,4 20,0 0,-4 16,0 0,12 0,12 0,8 c 0,4.41828 -3.71364,9.0716 -8,8 l -8,0 -18,0 -2,0 0,4 -16,0 0,-4 -2,0 -8,0 c -4.41828,0 -8,-3.58172 -8,-8 l 0,-8 z"/><text style="font-size:20px;font-family:Sans;text-anchor:start;fill:#000" id="text3037-1-6" x="456" y="262.124"><tspan id="tspan3039-0-9" x="464" y="292.624">valor de la nota</tspan></text><path style="fill:#f0f;fill-opacity:1;stroke:#c700d3;stroke-width:2;stroke-linecap:round;stroke-opacity:1" id="path21-6-1-20-2" d="m 755,307.12414 120,0 0,40 -120,0 0,-16 0,-2 -12,0 0,6 -4,0 0,-16 4,0 0,6 12,0 0,-2 z"/><text style="font-size:20px;font-family:Sans;text-anchor:start;fill:#000" id="text23-9-82-6-4" x="790" y="306.124"><tspan id="tspan25-8-5-15-7" x="810" y="332.124">4</tspan></text><path style="fill:#f0f;fill-opacity:1;stroke:#c700d3;stroke-width:2;stroke-linecap:round;stroke-opacity:1" id="path3798-4-4-5-4-5" d="m 641,281.12414 0,-8 a 8,8 0 0 1 8,-8 l 8,0 20,0 60,0 8,0 a 8,8 0 0 1 8,8 l 0,8 -8,0 0,-6 -8,0 0,20 8,0 0,-6 8,0 0,34 -8,0 0,-6 -8,0 0,20 8,0 0,-6 8,0 0,8 a 8,8 0 0 1 -8,8 l -8,0 -60,0 -20,0 -8,0 a 8,8 0 0 1 -8,-8 l 0,-8 0,-42 0,-2 -12,0 0,6 -4,0 0,-16 4,0 0,6 12,0 0,-2 z"/><text style="font-size:28px;font-family:sans-serif;text-anchor:end;fill:#000" id="text3800-3-2-0-7-48" x="616" y="264.124"><tspan id="tspan3802-6-2-5-6-1" x="726" y="313.124">/</tspan></text><g id="g5147-5-2" transform="translate(508,222.12414)"><path id="path21-8-2-1-0-6-6-8" d="m 247,43 120,0 0,40 -120,0 0,-16 0,-2 -12,0 0,6 -4,0 0,-16 4,0 0,6 12,0 0,-2 z" style="fill:#f0f;fill-opacity:1;stroke:#c700d3;stroke-width:2;stroke-linecap:round;stroke-opacity:1"/><text id="text23-0-1-0-1-0-9-9" x="279" y="44" style="font-size:20px;font-family:Sans;text-anchor:start;fill:#000"><tspan id="tspan25-7-0-5-2-5-3-36" x="299" y="70">1</tspan></text></g><path id="path3124-7-8" d="m 477.00004,323.12414 0,-8 c 0,-4.41828 3.58172,-8 8,-8 l 8,0 0,4 20,0 0,-4 60,0 8,0 c 4.41828,0 8,3.58172 8,8 l 0,8 0,8 0,8 c 0,4.41828 -3.71364,6.92841 -8,8 l -8,0 -60,0 -2,0 0,4 -16,0 0,-4 -2,0 -8,0 c -4.41828,0 -8,-3.58172 -8,-8 l 0,-8 0,0 z" style="fill:#fd6600;fill-opacity:1;stroke:#ac3d00;stroke-width:2;stroke-linecap:round;stroke-opacity:1"/><text style="font-style:normal;font-weight:400;font-size:16px;line-height:125%;font-family:sans-serif;text-align:center;letter-spacing:0;word-spacing:0;text-anchor:middle;fill:#000;fill-opacity:1;stroke:none;stroke-width:1px;stroke-linecap:butt;stroke-linejoin:miter;stroke-opacity:1" id="text6137-4-0" x="558.823" y="334.047" xml:space="preserve"><tspan id="tspan6139-5-2" x="558.823" y="334.047" style="font-size:22.5px">↓</tspan></text><path style="fill:#00b700;fill-opacity:1;stroke:#007b00;stroke-width:2;stroke-linecap:round;stroke-opacity:1" id="path3194-36-0" d="m 477,155.1241 0,-8 a 8,8 0 0 1 8,-8 l 8,0 0,4 20,0 0,-4 60,0 8,0 a 8,8 0 0 1 8,8 l 0,8 -8,0 0,-6 -8,0 0,20 8,0 0,-6 8,0 0,34 -8,0 0,-5.99999 -8,0 0,19.99999 8,0 0,-6 8,0 0,8 a 8,8 0 0 1 -8,8 l -8,0 -60,0 -2,0 0,4 -16,0 0,-4 -2,0 -8,0 a 8,8 0 0 1 -8,-8 l 0,-8 0,-42 0,-8 z"/><text style="font-size:20px;font-family:Sans;text-anchor:end;fill:#000" id="text3196-75-51" x="476" y="138.124"><tspan id="tspan3198-3-10" x="570" y="187.124">tono</tspan></text><text style="font-size:13.33333302px;font-family:Sans;text-anchor:end;fill:#000" id="text3200-5-8" x="476" y="140.124"><tspan id="tspan3202-6-5" x="570" y="162.624">nota</tspan></text><text style="font-size:13.33333302px;font-family:Sans;text-anchor:end;fill:#000" id="text3204-2-06" x="476" y="142.124"><tspan id="tspan3206-9-4" x="570" y="206.624">octava</tspan></text><path id="path21-1-6" d="m 591,139.1241 120,0 0,40.00001 -120,0 0,-16.00001 0,-2 -12,0 0,6 -4,0 0,-16 4,0 0,6 12,0 0,-2 z" style="fill:#00b700;fill-opacity:1;stroke:#007b00;stroke-width:2;stroke-linecap:round;stroke-opacity:1"/><text id="text23-2-2-2" x="620" y="138.124" style="font-size:20px;font-family:Sans;text-anchor:start;fill:#000"><tspan id="tspan25-70-5" x="640" y="164.124">re</tspan></text><path style="fill:#f0f;fill-opacity:1;stroke:#c700d3;stroke-width:2;stroke-linecap:round;stroke-opacity:1" id="path21-6-9-8" d="m 591,181.1241 120,0 0,40 -120,0 0,-16 0,-2 -12,0 0,6 -4,0 0,-16 4,0 0,6 12,0 0,-2 z"/><text style="font-size:20px;font-family:Sans;text-anchor:start;fill:#000" id="text23-9-3-2-6" x="626" y="180.124"><tspan id="tspan25-8-6-2" x="646" y="206.124">4</tspan></text><path style="fill:#fd6600;fill-opacity:1;stroke:#ac3d00;stroke-width:2;stroke-linecap:round;stroke-opacity:1" id="path3035-0-8" d="m 459,71.124117 0,-7.999997 c 0,-4.41828 3.58172,-8 8,-8 l 8,0 0,4 20,0 0,-4 18,0 110,0 8,0 c 4.41828,0 9.07159,3.71364 8,8 l 0,7.999997 -8,0 0,-5.999997 -8,0 0,19.999997 8,0 0,-6 8,0 0,8 c 0,4.418278 -3.58172,8 -8,8 l -8,0 -110,0 -2,0 0,4 -16,0 0,-4 -2,0 -8,0 c -5.52285,0 -10,4.477153 -10,9.999993 l 0,8 0,92.00001 0,7.99999 c 0,5.52285 4.64205,11.3395 10,10 l 8,0 0,4 20,0 0,-4 16,0 0,12 0,12 0,8 c 0,4.41828 -3.71365,9.0716 -8,8 l -8,0 -18,0 -2,0 0,4 -16,0 0,-4 -2,0 -8,0 c -4.41828,0 -8,-3.58172 -8,-8 l 0,-8 z"/><text style="font-size:20px;font-family:Sans;text-anchor:start;fill:#000" id="text3037-6-4" x="456" y="52.124"><tspan id="tspan3039-2-72" x="464" y="82.624">valor de la nota</tspan></text><path style="fill:#f0f;fill-opacity:1;stroke:#c700d3;stroke-width:2;stroke-linecap:round;stroke-opacity:1" id="path21-6-1-1-6-0" d="m 755,97.12412 120,0 0,40 -120,0 0,-16 0,-2 -12,0 0,6 -4,0 0,-16 4,0 0,6 12,0 0,-2 z"/><text style="font-size:20px;font-family:Sans;text-anchor:start;fill:#000" id="text23-9-82-8-6" x="790" y="96.124"><tspan id="tspan25-8-5-7-2" x="810" y="122.124">4</tspan></text><path style="fill:#f0f;fill-opacity:1;stroke:#c700d3;stroke-width:2;stroke-linecap:round;stroke-opacity:1" id="path3798-4-4-5-2-0" d="m 641,71.12412 0,-8 a 8,8 0 0 1 8,-8 l 8,0 20,0 60,0 8,0 a 8,8 0 0 1 8,8 l 0,8 -8,0 0,-6 -8,0 0,20 8,0 0,-6 8,0 0,34 -8,0 0,-6 -8,0 0,20 8,0 0,-6 8,0 0,8 a 8,8 0 0 1 -8,8 l -8,0 -60,0 -20,0 -8,0 a 8,8 0 0 1 -8,-8 l 0,-8 0,-42 0,-2 -12,0 0,6 -4,0 0,-16 4,0 0,6 12,0 0,-2 z"/><text style="font-size:28px;font-family:sans-serif;text-anchor:end;fill:#000" id="text3800-3-2-0-0-8" x="616" y="54.124"><tspan id="tspan3802-6-2-5-2-1" x="726" y="103.124">/</tspan></text><g id="g5147-3-3" transform="translate(508,12.12412)"><path id="path21-8-2-1-0-6-7-1" d="m 247,43 120,0 0,40 -120,0 0,-16 0,-2 -12,0 0,6 -4,0 0,-16 4,0 0,6 12,0 0,-2 z" style="fill:#f0f;fill-opacity:1;stroke:#c700d3;stroke-width:2;stroke-linecap:round;stroke-opacity:1"/><text id="text23-0-1-0-1-0-5-10" x="279" y="44" style="font-size:20px;font-family:Sans;text-anchor:start;fill:#000"><tspan id="tspan25-7-0-5-2-5-9-3" x="299" y="70">1</tspan></text></g><path id="path3124-2-4" d="m 477,113.12412 0,-8 c 0,-4.41828 3.58172,-8.000003 8,-8.000003 l 8,0 0,4.000003 20,0 0,-4.000003 60,0 8,0 c 4.41828,0 8,3.581723 8,8.000003 l 0,8 0,8 0,8 c 0,4.41828 -3.71364,6.92841 -8,8 l -8,0 -60,0 -2,0 0,4 -16,0 0,-4 -2,0 -8,0 c -4.41828,0 -8,-3.58172 -8,-8 l 0,-8 0,0 z" style="fill:#fd6600;fill-opacity:1;stroke:#ac3d00;stroke-width:2;stroke-linecap:round;stroke-opacity:1"/><text style="font-style:normal;font-weight:400;font-size:16px;line-height:125%;font-family:sans-serif;text-align:center;letter-spacing:0;word-spacing:0;text-anchor:middle;fill:#000;fill-opacity:1;stroke:none;stroke-width:1px;stroke-linecap:butt;stroke-linejoin:miter;stroke-opacity:1" id="text6137-2-0" x="558.823" y="124.047" xml:space="preserve"><tspan id="tspan6139-8-3" x="558.823" y="124.047" style="font-size:22.5px">↓</tspan></text><path style="fill:#fd6600;fill-opacity:1;stroke:#ac3d00;stroke-width:2;stroke-linecap:round;stroke-opacity:1" id="path3035-0-2" d="m 19,70.124115 0,-8 c 0,-4.41828 3.58172,-8 8,-8 l 8,0 0,4 20,0 0,-4 18.000003,0 109.999997,0 8,0 c 4.41828,0 9.07159,3.71364 8,8 l 0,8 -8,0 0,-6 -8,0 0,20 8,0 0,-6 8,0 0,8 c 0,4.41827 -3.58172,8 -8,8 l -8,0 -109.999997,0 -2,0 0,4 -16.000003,0 0,-4 -2,0 -8,0 c -5.52285,0 -10,4.47715 -10,10.000005 l 0,8 0,50.00001 0,7.99999 c 0,5.52285 4.64205,11.3395 10,10 l 8,0 0,4 20.000003,0 0,-4 16,0 0,12 0,12 0,8 c 0,4.41828 -3.71365,9.0716 -8,8 l -8,0 -18.000003,0 -2,0 0,4 -16,0 0,-4 -2,0 -8,0 c -4.41828,0 -8,-3.58172 -8,-8 l 0,-8 z"/><text style="font-size:20px;font-family:Sans;text-anchor:start;fill:#000" id="text3037-6-9" x="16" y="51.124"><tspan id="tspan3039-2-1" x="24" y="81.624">valor de la nota</tspan></text><path style="fill:#f0f;fill-opacity:1;stroke:#c700d3;stroke-width:2;stroke-linecap:round;stroke-opacity:1" id="path21-6-1-1-7" d="m 315,96.124118 120,0 0,40.000002 -120,0 0,-16 0,-2 -12,0 0,6 -4,0 0,-16 4,0 0,6 12,0 0,-2 z"/><text style="font-size:20px;font-family:Sans;text-anchor:start;fill:#000" id="text23-9-82-8" x="350" y="95.124"><tspan id="tspan25-8-5-7" x="370" y="121.124">4</tspan></text><path style="fill:#f0f;fill-opacity:1;stroke:#c700d3;stroke-width:2;stroke-linecap:round;stroke-opacity:1" id="path3798-4-4-5-2" d="m 201,70.124115 0,-8 a 8,8 0 0 1 8,-8 l 8,0 20,0 60,0 8,0 a 8,8 0 0 1 8,8 l 0,8 -8,0 0,-6 -8,0 0,20 8,0 0,-6 8,0 0,34.000005 -8,0 0,-6 -8,0 0,20 8,0 0,-6 8,0 0,8 a 8,8 0 0 1 -8,8 l -8,0 -60,0 -20,0 -8,0 a 8,8 0 0 1 -8,-8 l 0,-8 0,-42.000005 0,-2 -12,0 0,6 -4,0 0,-16 4,0 0,6 12,0 0,-2 z"/><text style="font-size:28px;font-family:sans-serif;text-anchor:end;fill:#000" id="text3800-3-2-0-0" x="176" y="53.124"><tspan id="tspan3802-6-2-5-2" x="286" y="102.124">/</tspan></text><path style="fill:#f0f;fill-opacity:1;stroke:#c700d3;stroke-width:2;stroke-linecap:round;stroke-opacity:1" id="path21-8-2-1-0-6-7" d="m 315,54.124115 120,0 0,40 -120,0 0,-16 0,-2 -12,0 0,6 -4,0 0,-16 4,0 0,6 12,0 0,-2 z"/><text style="font-size:20px;font-family:Sans;text-anchor:start;fill:#000" id="text23-0-1-0-1-0-5" x="347" y="55.124"><tspan id="tspan25-7-0-5-2-5-9" x="367" y="81.124">1</tspan></text><path id="path3124-2" d="m 37,112.12413 0,-8 c 0,-4.418285 3.58172,-8.000015 8,-8.000015 l 8,0 0,4.000015 20.000003,0 0,-4.000015 59.999997,0 8,0 c 4.41828,0 8,3.58173 8,8.000015 l 0,8 0,8 0,8 c 0,4.41828 -3.71364,6.92841 -8,8 l -8,0 -59.999997,0 -2,0 0,4 -16.000003,0 0,-4 -2,0 -8,0 c -4.41828,0 -8,-3.58172 -8,-8 l 0,-8 0,0 z" style="fill:#fd6600;fill-opacity:1;stroke:#ac3d00;stroke-width:2;stroke-linecap:round;stroke-opacity:1"/><text style="font-style:normal;font-weight:400;font-size:16px;line-height:125%;font-family:sans-serif;text-align:center;letter-spacing:0;word-spacing:0;text-anchor:middle;fill:#000;fill-opacity:1;stroke:none;stroke-width:1px;stroke-linecap:butt;stroke-linejoin:miter;stroke-opacity:1" id="text6137-2" x="118.823" y="123.047" xml:space="preserve"><tspan id="tspan6139-8" x="118.823" y="123.047" style="font-size:22.5px">↓</tspan></text><path style="fill:#fd6600;fill-opacity:1;stroke:#ac3d00;stroke-width:2;stroke-linecap:round;stroke-opacity:1" id="path3035-0-2-2" d="m 19,238.12412 0,-8 c 0,-4.41828 3.58172,-8 8,-8 l 8,0 0,4 20,0 0,-4 18,0 110,0 8,0 c 4.41828,0 9.07159,3.71364 8,8 l 0,8 -8,0 0,-6 -8,0 0,20 8,0 0,-6 8,0 0,8 c 0,4.41827 -3.58172,8 -8,8 l -8,0 -110,0 -2,0 0,4 -16,0 0,-4 -2,0 -8,0 c -5.52285,0 -10,4.47715 -10,10 l 0,8 0,50.00001 0,7.99999 c 0,5.52285 4.64205,11.3395 10,10 l 8,0 0,4 20,0 0,-4 16,0 0,12 0,12 0,8 c 0,4.41828 -3.71365,9.0716 -8,8 l -8,0 -18,0 -2,0 0,4 -16,0 0,-4 -2,0 -8,0 c -4.41828,0 -8,-3.58172 -8,-8 l 0,-8 z"/><text style="font-size:20px;font-family:Sans;text-anchor:start;fill:#000" id="text3037-6-9-6" x="16" y="219.124"><tspan id="tspan3039-2-1-1" x="24" y="249.624">valor de la nota</tspan></text><path style="fill:#f0f;fill-opacity:1;stroke:#c700d3;stroke-width:2;stroke-linecap:round;stroke-opacity:1" id="path21-6-1-1-7-9" d="m 315,264.12412 120,0 0,40 -120,0 0,-16 0,-2 -12,0 0,6 -4,0 0,-16 4,0 0,6 12,0 0,-2 z"/><text style="font-size:20px;font-family:Sans;text-anchor:start;fill:#000" id="text23-9-82-8-2" x="350" y="263.124"><tspan id="tspan25-8-5-7-0" x="370" y="289.124">4</tspan></text><path style="fill:#f0f;fill-opacity:1;stroke:#c700d3;stroke-width:2;stroke-linecap:round;stroke-opacity:1" id="path3798-4-4-5-2-3" d="m 201,238.12412 0,-8 a 8,8 0 0 1 8,-8 l 8,0 20,0 60,0 8,0 a 8,8 0 0 1 8,8 l 0,8 -8,0 0,-6 -8,0 0,20 8,0 0,-6 8,0 0,34 -8,0 0,-6 -8,0 0,20 8,0 0,-6 8,0 0,8 a 8,8 0 0 1 -8,8 l -8,0 -60,0 -20,0 -8,0 a 8,8 0 0 1 -8,-8 l 0,-8 0,-42 0,-2 -12,0 0,6 -4,0 0,-16 4,0 0,6 12,0 0,-2 z"/><text style="font-size:28px;font-family:sans-serif;text-anchor:end;fill:#000" id="text3800-3-2-0-0-7" x="176" y="221.124"><tspan id="tspan3802-6-2-5-2-5" x="286" y="270.124">/</tspan></text><path style="fill:#f0f;fill-opacity:1;stroke:#c700d3;stroke-width:2;stroke-linecap:round;stroke-opacity:1" id="path21-8-2-1-0-6-7-2" d="m 315,222.12412 120,0 0,40 -120,0 0,-16 0,-2 -12,0 0,6 -4,0 0,-16 4,0 0,6 12,0 0,-2 z"/><text style="font-size:20px;font-family:Sans;text-anchor:start;fill:#000" id="text23-0-1-0-1-0-5-2" x="347" y="223.124"><tspan id="tspan25-7-0-5-2-5-9-8" x="367" y="249.124">1</tspan></text><path id="path3124-2-9" d="m 37,280.12413 0,-8 c 0,-4.41828 3.58172,-8.00001 8,-8.00001 l 8,0 0,4.00001 20,0 0,-4.00001 60,0 8,0 c 4.41828,0 8,3.58173 8,8.00001 l 0,8 0,8 0,8 c 0,4.41828 -3.71364,6.92841 -8,8 l -8,0 -60,0 -2,0 0,4 -16,0 0,-4 -2,0 -8,0 c -4.41828,0 -8,-3.58172 -8,-8 l 0,-8 0,0 z" style="fill:#fd6600;fill-opacity:1;stroke:#ac3d00;stroke-width:2;stroke-linecap:round;stroke-opacity:1"/><text style="font-style:normal;font-weight:400;font-size:16px;line-height:125%;font-family:sans-serif;text-align:center;letter-spacing:0;word-spacing:0;text-anchor:middle;fill:#000;fill-opacity:1;stroke:none;stroke-width:1px;stroke-linecap:butt;stroke-linejoin:miter;stroke-opacity:1" id="text6137-2-7" x="118.823" y="291.047" xml:space="preserve"><tspan id="tspan6139-8-36" x="118.823" y="291.047" style="font-size:22.5px">↓</tspan></text><path style="fill:#fd6600;fill-opacity:1;stroke:#ac3d00;stroke-width:2;stroke-linecap:round;stroke-opacity:1" id="path3035-0-2-2-4" d="m 19,406.12412 0,-8 c 0,-4.41828 3.58172,-8 8,-8 l 8,0 0,4 20,0 0,-4 18,0 110,0 8,0 c 4.41828,0 9.07159,3.71364 8,8 l 0,8 -8,0 0,-6 -8,0 0,20 8,0 0,-6 8,0 0,8 c 0,4.41827 -3.58172,8 -8,8 l -8,0 -110,0 -2,0 0,4 -16,0 0,-4 -2,0 -8,0 c -5.52285,0 -10,4.47715 -10,10 l 0,8 0,92 0,8 c 0,5.5228 4.64205,11.3395 10,10 l 8,0 0,4 20,0 0,-4 16,0 0,12 0,12 0,8 c 0,4.4183 -3.71365,9.0716 -8,8 l -8,0 -18,0 -2,0 0,4 -16,0 0,-4 -2,0 -8,0 c -4.41828,0 -8,-3.5817 -8,-8 l 0,-8 z"/><text style="font-size:20px;font-family:Sans;text-anchor:start;fill:#000" id="text3037-6-9-6-7" x="16" y="387.124"><tspan id="tspan3039-2-1-1-8" x="24" y="417.624">valor de la nota</tspan></text><path style="fill:#f0f;fill-opacity:1;stroke:#c700d3;stroke-width:2;stroke-linecap:round;stroke-opacity:1" id="path21-6-1-1-7-9-5" d="m 315,432.12411 120,0 0,40 -120,0 0,-16 0,-2 -12,0 0,6 -4,0 0,-16 4,0 0,6 12,0 0,-2 z"/><text style="font-size:20px;font-family:Sans;text-anchor:start;fill:#000" id="text23-9-82-8-2-0" x="350" y="431.124"><tspan id="tspan25-8-5-7-0-3" x="370" y="457.124">2</tspan></text><path style="fill:#f0f;fill-opacity:1;stroke:#c700d3;stroke-width:2;stroke-linecap:round;stroke-opacity:1" id="path3798-4-4-5-2-3-1" d="m 201,406.12412 0,-8 a 8,8 0 0 1 8,-8 l 8,0 20,0 60,0 8,0 a 8,8 0 0 1 8,8 l 0,8 -8,0 0,-6 -8,0 0,20 8,0 0,-6 8,0 0,34 -8,0 0,-6 -8,0 0,20 8,0 0,-6 8,0 0,8 a 8,8 0 0 1 -8,8 l -8,0 -60,0 -20,0 -8,0 a 8,8 0 0 1 -8,-8 l 0,-8 0,-42 0,-2 -12,0 0,6 -4,0 0,-16 4,0 0,6 12,0 0,-2 z"/><text style="font-size:28px;font-family:sans-serif;text-anchor:end;fill:#000" id="text3800-3-2-0-0-7-0" x="176" y="389.124"><tspan id="tspan3802-6-2-5-2-5-6" x="286" y="438.124">/</tspan></text><path style="fill:#f0f;fill-opacity:1;stroke:#c700d3;stroke-width:2;stroke-linecap:round;stroke-opacity:1" id="path21-8-2-1-0-6-7-2-2" d="m 315,390.12412 120,0 0,40 -120,0 0,-16 0,-2 -12,0 0,6 -4,0 0,-16 4,0 0,6 12,0 0,-2 z"/><text style="font-size:20px;font-family:Sans;text-anchor:start;fill:#000" id="text23-0-1-0-1-0-5-2-0" x="347" y="391.124"><tspan id="tspan25-7-0-5-2-5-9-8-6" x="367" y="417.124">1</tspan></text><path id="path3124-2-9-1" d="m 37,448.12413 0,-8 c 0,-4.41828 3.58172,-8.00001 8,-8.00001 l 8,0 0,4.00001 20,0 0,-4.00001 60,0 8,0 c 4.41828,0 8,3.58173 8,8.00001 l 0,8 0,8 0,8 c 0,4.41828 -3.71364,6.92841 -8,8 l -8,0 -60,0 -2,0 0,4 -16,0 0,-4 -2,0 -8,0 c -4.41828,0 -8,-3.58172 -8,-8 l 0,-8 0,0 z" style="fill:#fd6600;fill-opacity:1;stroke:#ac3d00;stroke-width:2;stroke-linecap:round;stroke-opacity:1"/><text style="font-style:normal;font-weight:400;font-size:16px;line-height:125%;font-family:sans-serif;text-align:center;letter-spacing:0;word-spacing:0;text-anchor:middle;fill:#000;fill-opacity:1;stroke:none;stroke-width:1px;stroke-linecap:butt;stroke-linejoin:miter;stroke-opacity:1" id="text6137-2-7-5" x="118.823" y="459.047" xml:space="preserve"><tspan id="tspan6139-8-36-5" x="118.823" y="459.047" style="font-size:22.5px">↓</tspan></text></svg>