<svg xmlns="http://www.w3.org/2000/svg" xmlns:svg="http://www.w3.org/2000/svg" id="svg4075" width="411.733" height="786.266" version="1.1" viewBox="0 0 386 737.124"><metadata id="metadata4080"/><path id="path3660-4-5" d="m 0.99996948,29.56205 0,-8 c 0,-4.18879 3.81120982,-8 8.00000002,-8 l 7.9999995,0 10,-12.0000001 10,12.0000001 18,0 60.000001,0 8,0 c 4.18879,0 8,3.81121 8,8 l 0,8 0,8 0,8 c 0,4.18879 -3.81121,8 -8,8 l -8,0 -60.000001,0 -2,0 0,4 -16,0 0,-4 -2,0 -8,0 c -2.617994,0 -5.219867,1.077731 -7.071068,2.928932 -1.851201,1.851201 -2.928932,4.453074 -2.928932,7.071068 l 0,8 0,594.00003 0,8 c 0,2.61799 1.077731,5.21987 2.928932,7.07107 1.851201,1.8512 4.53124,3.56389 7.071068,2.92893 l 8,0 0,4 20,0 0,-4 16,0 0,12 0,12 0,8 c 0,4.18879 -3.936277,9.01593 -8,8 l -8,0 -18,0 -10,12 -10,-12 -7.9999995,0 c -4.1887902,0 -8.00000002,-3.81121 -8.00000002,-8 l 0,-8 z" style="fill:#ffc000;fill-opacity:1;stroke:#c48d00;stroke-width:2;stroke-linecap:round;stroke-opacity:1"/><text id="text3662-8-4" x="0" y=".562" style="font-size:20px;font-family:Sans;text-anchor:start;fill:#000"><tspan id="tspan3664-5-20" x="8" y="43.562">iniciar</tspan></text><path id="path4206-3-4" d="m 125.37626,94.664809 c -0.24354,0 -0.48399,-0.01591 -0.72092,-0.04546 l 0.61126,1.067795 0.60246,-1.051431 c -0.16339,0.01364 -0.32633,0.02909 -0.4928,0.02909 z" style="fill:#eee;stroke:red;stroke-width:1.75;stroke-linecap:round;stroke-linejoin:round;stroke-miterlimit:4;stroke-dasharray:none;stroke-opacity:1"/><path style="fill:#ff8080;fill-opacity:1;stroke:red;stroke-width:1.75;stroke-linecap:round;stroke-linejoin:round;stroke-miterlimit:4;stroke-dasharray:none;stroke-opacity:1" id="path4210-2-6" d="m 116.95292,78.048755 c -0.95301,0 -1.74307,0.706863 -1.91262,1.63965 0.81869,0.611402 1.52243,1.415999 2.05883,2.367422 1.00629,-0.07819 1.80295,-0.936877 1.80295,-1.995581 0,-1.110979 -0.87285,-2.011491 -1.94916,-2.011491 z"/><path style="fill:#ff8080;fill-opacity:1;stroke:red;stroke-width:1.75;stroke-linecap:round;stroke-linejoin:round;stroke-miterlimit:4;stroke-dasharray:none;stroke-opacity:1" id="path4212-9-6" d="m 117.19645,90.850022 c -0.53903,1.01461 -1.25951,1.877846 -2.11255,2.525614 0.22945,0.847327 0.97459,1.472367 1.86902,1.472367 1.07587,0 1.94916,-0.900058 1.94916,-2.011037 0,-1.025065 -0.74558,-1.861936 -1.70563,-1.986944 z"/><path style="fill:#ff8080;fill-opacity:1;stroke:red;stroke-width:1.75;stroke-linecap:round;stroke-linejoin:round;stroke-miterlimit:4;stroke-dasharray:none;stroke-opacity:1" id="path4214-5-84" d="m 105.55254,90.842749 c -0.9922,0.09364 -1.77213,0.945059 -1.77213,1.994217 0,1.110525 0.87197,2.011037 1.94829,2.011037 0.90896,0 1.66643,-0.645496 1.88134,-1.514642 -0.82925,-0.643677 -1.53035,-1.495095 -2.0575,-2.490612 z"/><path style="fill:#ff8080;fill-opacity:1;stroke:red;stroke-width:1.75;stroke-linecap:round;stroke-linejoin:round;stroke-miterlimit:4;stroke-dasharray:none;stroke-opacity:1" id="path4216-6-2" d="m 107.64572,79.73568 c -0.15106,-0.955969 -0.9486,-1.686925 -1.91702,-1.686925 -1.07632,0 -1.94829,0.900512 -1.94829,2.011037 0,1.082796 0.83058,1.959215 1.86946,2.002854 0.5223,-0.928695 1.20314,-1.720109 1.99585,-2.326966 z"/><path id="path4218-8-5" d="m 111.37626,78.429234 c 0.84026,0 1.64177,0.18683 2.38603,0.51276 0.32633,-0.489122 0.51878,-1.080523 0.51878,-1.719655 0,-1.676015 -1.31632,-3.035192 -2.94048,-3.035192 -1.62372,0 -2.94005,1.359177 -2.94005,3.035192 0,0.649132 0.19906,1.249625 0.53552,1.742838 0.75923,-0.340476 1.57968,-0.535943 2.4402,-0.535943 z" style="fill:#ff8080;fill-opacity:1;stroke:red;stroke-width:1.75;stroke-linecap:round;stroke-linejoin:round;stroke-miterlimit:4;stroke-dasharray:none;stroke-opacity:1"/><path style="fill:#ff8080;fill-opacity:1;stroke:red;stroke-width:1.75;stroke-linecap:round;stroke-linejoin:round;stroke-miterlimit:4;stroke-dasharray:none;stroke-opacity:1" id="path4222-1-0" d="m 118.24854,86.547021 c 0,2.152137 -0.72453,4.218359 -2.01284,5.740137 -1.28832,1.521824 -3.0375,2.377651 -4.85944,2.377651 -1.82194,0 -3.57112,-0.855827 -4.85944,-2.377651 -1.28832,-1.521778 -2.01285,-3.588 -2.01285,-5.740137 0,-4.453282 3.10229,-8.117787 6.87229,-8.117787 3.77,0 6.87228,3.664505 6.87228,8.117787 z"/><path style="fill:red;fill-opacity:1;stroke:none" id="path4226-5-50" d="m 110.66195,88.060299 -0.67908,-2.102406 1.39339,-1.175983 1.59201,1.193712 -0.65486,2.122407 z"/><path style="fill:red;fill-opacity:1;stroke:none" id="path4228-5-65" d="m 111.37802,91.606433 c -1.74747,-0.07273 -2.44108,-0.913239 -2.44108,-0.913239 l 1.57219,-1.892393 1.96634,0.07637 1.3793,1.872846 c 0,0 -1.27272,0.906421 -2.47675,0.856418 z"/><path style="fill:red;fill-opacity:1;stroke:none" id="path4230-9-15" d="m 107.39337,88.102575 c -0.37389,-1.349177 0.0757,-3.12929 0.0757,-3.12929 l 1.76156,0.985063 0.6575,2.104224 -1.57748,1.924213 c 0,-4.54e-4 -0.64517,-0.904603 -0.91733,-1.88421 z"/><path style="fill:red;fill-opacity:1;stroke:none" id="path4232-2-7" d="m 107.83596,84.139596 c 0,0 0.2202,-0.890056 1.33835,-1.737383 0.98515,-0.746865 1.96634,-0.781868 1.96634,-0.781868 l -0.0163,2.264235 -1.55062,1.250079 -1.73778,-0.995063 z"/><path style="fill:red;fill-opacity:1;stroke:none" id="path4234-2-72" d="m 113.39633,85.371038 -1.52331,-1.306901 0.16515,-2.367878 c 0,0 0.80767,-0.01909 1.7435,0.757776 0.98119,0.814142 1.48059,2.265143 1.48059,2.265143 l -1.86593,0.65186 z"/><path style="fill:red;fill-opacity:1;stroke:none" id="path4236-4-04" d="m 113.04754,88.193035 0.57823,-2.02922 1.84391,-0.698226 c 0,0 0.29815,1.210532 -0.0185,2.576073 -0.23781,1.025519 -0.91778,1.982398 -0.91778,1.982398 l -1.48587,-1.831025 z"/><path id="path21" d="m 18.99994,71.20373 0,-8 c 0,-4.418278 3.581722,-8 8,-8 l 8,0 0,4 20,0 0,-4 18,0 76,0 8,0 c 4.41828,0 9.07159,3.713641 8,8 l 0,8 0,8 0,8 c 0,4.418278 -3.58172,8 -8,8 l -8,0 -76,0 -2,0 0,4 -16,0 0,-4 -2,0 -8,0 c -5.522847,0 -10,4.477153 -10,10 l 0,8 0,510.00003 0,8 c 0,5.52284 4.477154,10 10,10 l 8,0 0,4 20,0 0,-4 16,0 0,12 0,12 0,8 c 0,4.41827 -3.581722,8 -8,8 l -8,0 -18,0 -2,0 0,4 -16,0 0,-4 -2,0 -8,0 c -4.418278,0 -8,-3.58173 -8,-8 l 0,-8 z" style="fill:#e37a00;fill-opacity:1;stroke:#a34600;stroke-width:2;stroke-linecap:round;stroke-opacity:1"/><text id="text23" x="18" y="54.204" style="font-size:20px;font-family:Sans;text-anchor:start;fill:#000"><tspan id="tspan25" x="26" y="84.704">por siempre</tspan></text><path id="path3051" d="m 36.999941,615.20376 0,-8 a 8,8 0 0 1 8,-8 l 8,0 0,4 20,0 0,-4 59.999999,0 8,0 a 8,8 0 0 1 8,8 l 0,8 -8,0 0,-6 -8,0 0,20 8,0 0,-6 8,0 0,8 a 8,8 0 0 1 -8,8 l -8,0 -59.999999,0 -2,0 0,4 -16,0 0,-4 -2,0 -8,0 a 8,8 0 0 1 -8,-8 l 0,-8 0,-8 z" style="fill:#ffc000;fill-opacity:1;stroke:#c48d00;stroke-width:2;stroke-linecap:round;stroke-opacity:1"/><text id="text3053" x="36" y="598.204" style="font-size:20px;font-family:Sans;text-anchor:end;fill:#000"><tspan id="tspan3055" x="130" y="626.204">hacer</tspan></text><path id="path3035" d="m 36.999941,405.56206 0,-8 c 0,-4.41828 3.581722,-8 8,-8 l 8,0 0,4 20,0 0,-4 18,0 8,0 c 4.418279,0 7.999999,3.58172 7.999999,8 l 0,8 0,18 c -8.836555,0 -15.999999,7.16344 -15.999999,16 0,8.83656 7.163444,16 15.999999,16 l 0,8 c 0,4.41828 -3.58172,8 -7.999999,8 l -8,0 -2,0 0,4 -16,0 0,-4 -2,0 -8,0 c -5.522847,0 -10,4.47715 -10,10 l 0,8 0,50 0,8 c 0,5.52285 4.477153,10 10,10 l 8,0 0,4 20,0 0,-4 15.999999,0 0,12 0,12 0,8 c 0,4.41828 -3.58172,8 -7.999999,8 l -8,0 -18,0 -2,0 0,4 -16,0 0,-4 -2,0 -8,0 c -4.418278,0 -8,-3.58172 -8,-8 l 0,-8 z" style="fill:#e37a00;fill-opacity:1;stroke:#a34600;stroke-width:2;stroke-linecap:round;stroke-opacity:1"/><text id="text3037" x="36" y="388.562" style="font-size:20px;font-family:sans-serif;text-anchor:start;fill:#000"><tspan id="tspan3039" x="44" y="424.062">si</tspan></text><text id="text3041" x="36" y="388.562" style="font-size:13.33333302px;font-family:sans-serif;text-anchor:end;fill:#000"><tspan id="tspan3043" x="100" y="466.562">entonces</tspan></text><path id="path3035-0" d="m 36.999969,195.56206 0,-8 c 0,-4.41828 3.581722,-8 8,-8 l 8,0 0,4 20,0 0,-4 18,0 8,0 c 4.418281,0 8.000001,3.58172 8.000001,8 l 0,8 0,18 c -8.836557,0 -16.000001,7.16344 -16.000001,16 0,8.83656 7.163444,16 16.000001,16 l 0,8 c 0,4.41828 -3.58172,8 -8.000001,8 l -8,0 -2,0 0,4 -16,0 0,-4 -2,0 -8,0 c -5.522847,0 -10,4.47715 -10,10 l 0,8 0,50 0,8 c 0,5.52285 4.642051,11.33949 10,10 l 8,0 0,4 20,0 0,-4 16.000001,0 0,12 0,12 0,8 c 0,4.41828 -3.71364,9.07159 -8.000001,8 l -8,0 -18,0 -2,0 0,4 -16,0 0,-4 -2,0 -8,0 c -4.418278,0 -8,-3.58172 -8,-8 l 0,-8 z" style="fill:#e37a00;fill-opacity:1;stroke:#a34600;stroke-width:2;stroke-linecap:round;stroke-opacity:1"/><text id="text3037-8" x="36" y="178.562" style="font-size:20px;font-family:sans-serif;text-anchor:start;fill:#000"><tspan id="tspan3039-9" x="44" y="214.062">si</tspan></text><text id="text3041-0" x="36" y="178.562" style="font-size:13.33333302px;font-family:sans-serif;text-anchor:end;fill:#000"><tspan id="tspan3043-7" x="100" y="256.562">entonces</tspan></text><path id="path21-2" d="m 194.99997,221.56206 120,0 0,40 -120,0 0,-16 0,-2 -12,0 0,6 -4,0 0,-16 4,0 0,6 12,0 0,-2 z" style="fill:#f0f;fill-opacity:1;stroke:#c700d3;stroke-width:2;stroke-linecap:round;stroke-opacity:1"/><text id="text23-3" x="228" y="220.562" style="font-size:20px;font-family:Sans;text-anchor:start;fill:#000"><tspan id="tspan25-0" x="248" y="246.562">0</tspan></text><path id="path3052" d="m 194.99997,179.56206 178,0 0,40 -178,0 0,-16 0,-2 -12,0 0,6 -4,0 0,-16 4,0 0,6 12,0 0,-2 z" style="fill:#f06;fill-opacity:1;stroke:#ef003e;stroke-width:2;stroke-linecap:round;stroke-opacity:1"/><text id="text3054" x="178" y="178.562" style="font-size:20px;font-family:Sans;text-anchor:start;fill:#000"><tspan id="tspan3056" x="198" y="204.562">cursor x</tspan></text><path style="fill:#d8d100;fill-opacity:1;stroke:#a19a00;stroke-width:2;stroke-linecap:round;stroke-opacity:1" id="path3181-7" d="m 92.999968,229.06206 c 0,-7.33038 6.669617,-13.5 14.000002,-13.5 l 2,0 0,-20 c 0,-8.37758 7.62242,-16 16,-16 l 68,0 0,16 -8,0 0,-6 -8,0 0,20 8,0 0,-6 8,0 0,34 -8,0 0,-6 -8,0 0,20 8,0 0,-6 8,0 0,16 -60,0 -22,0 -2,0 0,-2 0,-16 -2,0 c -7.330385,0 -14.000002,-5.16962 -14.000002,-12.5 z"/><text id="text3183-1" x="92" y="178.562" style="font-size:28px;font-family:sans-serif;text-anchor:end;fill:#000;fill-opacity:1"><tspan id="tspan3185-0" x="174" y="227.562" style="fill:#000;fill-opacity:1">&gt;</tspan></text><path id="path3155" d="m 150.99997,615.56206 0,-8 a 8,8 0 0 1 8,-8 l 8,0 20,0 60,0 8,0 a 8,8 0 0 1 8,8 l 0,8 -8,0 0,-6 -8,0 0,20 8,0 0,-6 8,0 0,34 -8,0 0,-6 -8,0 0,20 8,0 0,-6 8,0 0,8 a 8,8 0 0 1 -8,8 l -8,0 -60,0 -20,0 -8,0 a 8,8 0 0 1 -8,-8 l 0,-8 0,-42 0,-2 -12,0 0,6 -4,0 0,-16 4,0 0,6 12,0 0,-2 z" style="fill:#f0f;fill-opacity:1;stroke:#c700d3;stroke-width:2;stroke-linecap:round;stroke-opacity:1"/><text id="text3157" x="134" y="598.562" style="font-size:28px;font-family:Sans;text-anchor:end;fill:#000"><tspan id="tspan3159" x="244" y="647.562">+</tspan></text><path id="path21-6" d="m 264.99997,599.56206 120,0 0,40 -120,0 0,-16 0,-2 -12,0 0,6 -4,0 0,-16 4,0 0,6 12,0 0,-2 z" style="fill:#7bbbb8;fill-opacity:1;stroke:#4c8585;stroke-width:2;stroke-linecap:round;stroke-opacity:1"/><text id="text23-7" x="268" y="598.562" style="font-size:20px;font-family:Sans;text-anchor:start;fill:#000"><tspan id="tspan25-4" x="288" y="624.562">chunk</tspan></text><path id="path3172" d="m 264.99997,641.56206 120,0 0,40 -120,0 0,-16 0,-2 -12,0 0,6 -4,0 0,-16 4,0 0,6 12,0 0,-2 z" style="fill:#fd6600;fill-opacity:1;stroke:#ac3d00;stroke-width:2;stroke-linecap:round;stroke-opacity:1"/><text id="text3174" x="248" y="640.562" style="font-size:20px;font-family:Sans;text-anchor:start;fill:#000"><tspan id="tspan3176" x="268" y="666.562">caja</tspan></text><path id="path3172-5" d="m 182.99997,95.56206 120,0 0,40 -120,0 0,-16 0,-2 -12,0 0,6 -4,0 0,-16 4,0 0,6 12,0 0,-2 z" style="fill:#fd6600;fill-opacity:1;stroke:#ac3d00;stroke-width:2;stroke-linecap:round;stroke-opacity:1"/><text id="text3174-1" x="166" y="94.562" style="font-size:20px;font-family:Sans;text-anchor:start;fill:#000"><tspan id="tspan3176-8" x="186" y="120.562">caja</tspan></text><path id="path21-7" d="m 36.999969,111.56206 0,-8 c 0,-4.418278 3.581722,-8 8,-8 l 8,0 0,4 20,0 0,-4 92.000001,0 8,0 c 4.41828,0 8,3.581722 8,8 l 0,8 -8,0 0,-6 -8,0 0,20 8,0 0,-6 8,0 0,34 -8,0 0,-6 -8,0 0,20 8,0 0,-6 8,0 0,8 c 0,4.41828 -3.58172,8 -8,8 l -8,0 -92.000001,0 -2,0 0,4 -16,0 0,-4 -2,0 -8,0 c -4.418278,0 -8,-3.58172 -8,-8 l 0,-8 0,-42 z" style="fill:#fd6600;fill-opacity:1;stroke:#ac3d00;stroke-width:2;stroke-linecap:round;stroke-opacity:1"/><text id="text23-8" x="50" y="94.562" style="font-size:20px;font-family:Sans;text-anchor:end;fill:#000"><tspan id="tspan25-8" x="160" y="143.562">guardar en</tspan></text><text id="text27" x="50" y="96.562" style="font-size:13.33333302px;font-family:Sans;text-anchor:end;fill:#000"><tspan id="tspan29" x="160" y="119.062">nombre</tspan></text><text id="text31" x="50" y="98.562" style="font-size:13.33333302px;font-family:Sans;text-anchor:end;fill:#000"><tspan id="tspan33" x="160" y="163.062">valor</tspan></text><path id="path21-8-61" d="m 168.99997,515.56206 120,0 0,40 -120,0 0,-16 0,-2 -12,0 0,6 -4,0 0,-16 4,0 0,6 12,0 0,-2 z" style="fill:#f0f;fill-opacity:1;stroke:#c700d3;stroke-width:2;stroke-linecap:round;stroke-opacity:1"/><text id="text23-0-4" x="199" y="516.562" style="font-size:20px;font-family:Sans;text-anchor:start;fill:#000"><tspan id="tspan25-7-0" x="219" y="542.562">2</tspan></text><path id="path3172-6" d="m 168.99997,473.56206 120,0 0,40 -120,0 0,-16 0,-2 -12,0 0,6 -4,0 0,-16 4,0 0,6 12,0 0,-2 z" style="fill:#fd6600;fill-opacity:1;stroke:#ac3d00;stroke-width:2;stroke-linecap:round;stroke-opacity:1"/><text id="text3174-9" x="152" y="472.562" style="font-size:20px;font-family:Sans;text-anchor:start;fill:#000"><tspan id="tspan3176-6" x="172" y="498.562">caja</tspan></text><path id="path3124" d="m 54.99997,489.56206 0,-8 a 8,8 0 0 1 8,-8 l 8,0 0,4 20,0 0,-4 60,0 8,0 a 8,8 0 0 1 8,8 l 0,8 -8,0 0,-6 -8,0 0,20 8,0 0,-6 8,0 0,34 -8,0 0,-6 -8,0 0,20 8,0 0,-6 8,0 0,8 a 8,8 0 0 1 -8,8 l -8,0 -60,0 -2,0 0,4 -16,0 0,-4 -2,0 -8,0 a 8,8 0 0 1 -8,-8 l 0,-8 0,-42 0,-8 z" style="fill:#fd6600;fill-opacity:1;stroke:#ac3d00;stroke-width:2;stroke-linecap:round;stroke-opacity:1"/><text id="text3126" x="54" y="472.562" style="font-size:20px;font-family:Sans;text-anchor:end;fill:#000"><tspan id="tspan3128" x="148" y="521.562">sumar</tspan></text><text id="text3130" x="54" y="474.562" style="font-size:13.33333302px;font-family:Sans;text-anchor:end;fill:#000"><tspan id="tspan3132" x="148" y="497.062">para</tspan></text><text id="text3134" x="54" y="476.562" style="font-size:13.33333302px;font-family:Sans;text-anchor:end;fill:#000"><tspan id="tspan3136" x="148" y="541.062">valor</tspan></text><path id="path21-4" d="m 168.99997,305.56206 120,0 0,40 -120,0 0,-16 0,-2 -12,0 0,6 -4,0 0,-16 4,0 0,6 12,0 0,-2 z" style="fill:#f0f;fill-opacity:1;stroke:#c700d3;stroke-width:2;stroke-linecap:round;stroke-opacity:1"/><text id="text23-1" x="202" y="304.562" style="font-size:20px;font-family:Sans;text-anchor:start;fill:#000"><tspan id="tspan25-3" x="222" y="330.562">1</tspan></text><path id="path3172-9" d="m 168.99997,263.56206 120,0 0,40 -120,0 0,-16 0,-2 -12,0 0,6 -4,0 0,-16 4,0 0,6 12,0 0,-2 z" style="fill:#fd6600;fill-opacity:1;stroke:#ac3d00;stroke-width:2;stroke-linecap:round;stroke-opacity:1"/><text id="text3174-5" x="152" y="262.562" style="font-size:20px;font-family:Sans;text-anchor:start;fill:#000"><tspan id="tspan3176-1" x="172" y="288.562">caja</tspan></text><path id="path3124-9" d="m 54.99997,279.56206 0,-8 a 8,8 0 0 1 8,-8 l 8,0 0,4 20,0 0,-4 60,0 8,0 a 8,8 0 0 1 8,8 l 0,8 -8,0 0,-6 -8,0 0,20 8,0 0,-6 8,0 0,34 -8,0 0,-6 -8,0 0,20 8,0 0,-6 8,0 0,8 a 8,8 0 0 1 -8,8 l -8,0 -60,0 -2,0 0,4 -16,0 0,-4 -2,0 -8,0 a 8,8 0 0 1 -8,-8 l 0,-8 0,-42 0,-8 z" style="fill:#fd6600;fill-opacity:1;stroke:#ac3d00;stroke-width:2;stroke-linecap:round;stroke-opacity:1"/><text id="text3126-8" x="54" y="262.562" style="font-size:20px;font-family:Sans;text-anchor:end;fill:#000"><tspan id="tspan3128-0" x="148" y="311.562">sumar</tspan></text><text id="text3130-7" x="54" y="264.562" style="font-size:13.33333302px;font-family:Sans;text-anchor:end;fill:#000"><tspan id="tspan3132-1" x="148" y="287.062">para</tspan></text><text id="text3134-5" x="54" y="266.562" style="font-size:13.33333302px;font-family:Sans;text-anchor:end;fill:#000"><tspan id="tspan3136-9" x="148" y="331.062">valor</tspan></text><path id="path3083" d="m 194.99997,389.56206 178,0 0,40 -178,0 0,-16 0,-2 -12,0 0,6 -4,0 0,-16 4,0 0,6 12,0 0,-2 z" style="fill:#f06;fill-opacity:1;stroke:#ef003e;stroke-width:2;stroke-linecap:round;stroke-opacity:1"/><text id="text3085" x="178" y="388.562" style="font-size:20px;font-family:Sans;text-anchor:start;fill:#000"><tspan id="tspan3087" x="198" y="414.562">cursor y</tspan></text><path style="fill:#d8d100;fill-opacity:1;stroke:#a19a00;stroke-width:2;stroke-linecap:round;stroke-opacity:1" id="path3181-7-9" d="m 92.999968,439.06206 c 0,-7.33038 6.669617,-13.5 14.000002,-13.5 l 2,0 0,-20 c 0,-8.37758 7.62242,-16 16,-16 l 68,0 0,16 -8,0 0,-6 -8,0 0,20 8,0 0,-6 8,0 0,34 -8,0 0,-6 -8,0 0,20 8,0 0,-6 8,0 0,16 -60,0 -22,0 -2,0 0,-2 0,-16 -2,0 c -7.330385,0 -14.000002,-5.16962 -14.000002,-12.5 z"/><text id="text3183-1-2" x="92" y="388.562" style="font-size:28px;font-family:sans-serif;text-anchor:end;fill:#000;fill-opacity:1"><tspan id="tspan3185-0-5" x="174" y="437.562" style="fill:#000;fill-opacity:1">&gt;</tspan></text><path id="path21-2-7" d="m 194.99996,431.20373 120,0 0,40 -120,0 0,-16 0,-2 -12,0 0,6 -4,0 0,-16 4,0 0,6 12,0 0,-2 z" style="fill:#f0f;fill-opacity:1;stroke:#c700d3;stroke-width:2;stroke-linecap:round;stroke-opacity:1"/><text id="text23-3-4" x="228" y="430.204" style="font-size:20px;font-family:Sans;text-anchor:start;fill:#000"><tspan id="tspan25-0-5" x="248" y="456.204">0</tspan></text><path id="path21-67" d="m 182.99996,137.20374 120,0 0,40 -120,0 0,-16 0,-2 -12,0 0,6 -4,0 0,-16 4,0 0,6 12,0 0,-2 z" style="fill:#f0f;fill-opacity:1;stroke:#c700d3;stroke-width:2;stroke-linecap:round;stroke-opacity:1"/><text id="text23-5" x="216" y="136.204" style="font-size:20px;font-family:Sans;text-anchor:start;fill:#000"><tspan id="tspan25-47" x="236" y="162.204">0</tspan></text></svg>