<svg xmlns="http://www.w3.org/2000/svg" xmlns:svg="http://www.w3.org/2000/svg" id="svg4075" width="445.867" height="373.333" version="1.1" viewBox="0 0 418 350"><metadata id="metadata4080"/><path style="fill:#00b700;fill-opacity:1;stroke:#007b00;stroke-width:2;stroke-linecap:round;stroke-opacity:1" id="path3194-9-8" d="m 19,101.00001 0,-7.999997 c 0,-4.418279 3.58172,-8.000001 8,-8.000001 l 8,0 0,4.000001 20,0 0,-4.000001 60,0 8,0 c 4.41828,0 8,3.581722 8,8.000001 l 0,7.999997 -8,0 0,-5.999997 -8,0 0,19.999997 8,0 0,-6 8,0 0,76 -8,0 0,-6 -8,0 0,20 8,0 0,-6 8,0 0,8 c 0,4.41828 -3.58172,8 -8,8 l -8,0 -60,0 -2,0 0,4 -16,0 0,-4 -2,0 -8,0 c -4.41828,0 -8,-3.58172 -8,-8 l 0,-8 0,-84 z"/><text style="font-size:20px;font-family:Sans;text-anchor:end;fill:#000" id="text3196-5-9" x="18" y="102"><tspan id="tspan3198-01-0" x="112" y="151">tono</tspan></text><text style="font-size:13.33333302px;font-family:Sans;text-anchor:end;fill:#000" id="text3200-4-7" x="18" y="86"><tspan id="tspan3202-55-0" x="112" y="108.5">nota</tspan></text><text style="font-size:13.33333302px;font-family:Sans;text-anchor:end;fill:#000" id="text3204-8-2" x="18" y="128"><tspan id="tspan3206-1-7" x="112" y="192.5">octava</tspan></text><path style="fill:#f0f;fill-opacity:1;stroke:#c700d3;stroke-width:2;stroke-linecap:round;stroke-opacity:1" id="path21-6-0-4" d="m 133,169 120,0 0,40 -120,0 0,-16 0,-2 -12,0 0,6 -4,0 0,-16 4,0 0,6 12,0 0,-2 z"/><text style="font-size:20px;font-family:Sans;text-anchor:start;fill:#000" id="text23-9-3-1" x="168" y="168"><tspan id="tspan25-8-27-7" x="188" y="194">4</tspan></text><flowRoot style="font-style:normal;font-weight:400;font-size:16px;line-height:125%;font-family:sans-serif;text-align:center;letter-spacing:0;word-spacing:0;text-anchor:middle;fill:#000;fill-opacity:1;stroke:none;stroke-width:1px;stroke-linecap:butt;stroke-linejoin:miter;stroke-opacity:1" id="flowRoot4622" transform="translate(868.22609,-42.082967)" xml:space="preserve"><flowRegion id="flowRegion4624"><rect id="rect4626" width="320.467" height="182.714" x="673.46" y="575.885"/></flowRegion><flowPara id="flowPara4628"/></flowRoot><path id="path21-38" d="m 297,127 120,0 0,40 -120,0 0,-16 0,-2 -12,0 0,6 -4,0 0,-16 4,0 0,6 12,0 0,-2 z" style="fill:#00b700;fill-opacity:1;stroke:#007b00;stroke-width:2;stroke-linecap:round;stroke-opacity:1"/><text id="text23-65" x="326" y="126" style="font-size:20px;font-family:Sans;text-anchor:start;fill:#000"><tspan id="tspan25-85" x="346" y="152">re</tspan></text><path id="path21-38-1" d="m 297,85.000014 120,0 0,40.000006 -120,0 0,-16 0,-2 -12,0 0,6 -4,0 0,-16.000006 4,0 0,6.000006 12,0 0,-2 z" style="fill:#00b700;fill-opacity:1;stroke:#007b00;stroke-width:2;stroke-linecap:round;stroke-opacity:1"/><text id="text23-65-3" x="322" y="84" style="font-size:20px;font-family:Sans;text-anchor:start;fill:#000"><tspan id="tspan25-85-4" x="342" y="110">do</tspan></text><path id="path3798-4-3-2" d="m 133,100.82993 0,-8.000006 c 0,-4.418278 3.58172,-8 8,-8 l 8,0 20,0 110,0 8,0 c 4.41828,0 9.07159,3.713641 8,8 l 0,8.000006 -8,0 0,-6.000006 -8,0 0,20.000006 8,0 0,-6 8,0 0,33.99999 -8,0 0,-6 -8,0 0,20 8,0 0,-6 8,0 0,8 c 0,4.41829 -3.58172,8 -8,8 l -8,0 -110,0 -20,0 -8,0 c -4.41828,0 -8,-3.58171 -8,-8 l 0,-8 0,-41.99999 0,-2 -12,0 0,6 -4,0 0,-16.000006 4,0 0,6.000006 12,0 z" style="fill:#f0f;fill-opacity:1;stroke:#c700d3;stroke-width:2;stroke-linecap:round;stroke-opacity:1"/><text id="text3800-3-4-6" x="164" y="83.83" style="font-size:28px;font-family:sans-serif;text-anchor:end;fill:#000"><tspan id="tspan3802-6-9-8" x="274" y="132.83" style="font-size:20px">uno de estos</tspan></text><text style="font-size:13.33333302px;font-family:Sans;text-anchor:end;fill:#000" id="text3200-4-78-4" x="177.46" y="88"><tspan id="tspan3202-55-08-0" x="271.46" y="110.5">éste</tspan></text><text style="font-size:13.33333302px;font-family:Sans;text-anchor:end;fill:#000" id="text3200-4-78-4-8" x="177.128" y="128.7"><tspan id="tspan3202-55-08-0-3" x="271.128" y="151.2">ése</tspan></text><path style="fill:#ffc000;fill-opacity:1;stroke:#c48d00;stroke-width:2;stroke-linecap:round;stroke-opacity:1" id="path3051" d="m 1,283.00002 0,-8 a 8,8 0 0 1 8,-8 l 8,0 0,4 20,0 0,-4 60,0 8,0 a 8,8 0 0 1 8,8 l 0,8 -8,0 0,-6 -8,0 0,20 8,0 0,-6 8,0 0,8 a 8,8 0 0 1 -8,8 l -8,0 -60,0 -2,0 0,4 -16,0 0,-4 -2,0 -8,0 a 8,8 0 0 1 -8,-8 l 0,-8 0,-8 z"/><text style="font-size:20px;font-family:Sans;text-anchor:end;fill:#000" id="text3053" x="0" y="266"><tspan id="tspan3055" x="94" y="294">hacer</tspan></text><path style="fill:#7bbbb8;fill-opacity:1;stroke:#4c8585;stroke-width:2;stroke-linecap:round;stroke-opacity:1" id="path21-6" d="m 281,267.00002 120,0 0,40 -120,0 0,-16 0,-2 -12,0 0,6 -4,0 0,-16 4,0 0,6 12,0 0,-2 z"/><text style="font-size:20px;font-family:Sans;text-anchor:start;fill:#000" id="text23-7" x="284" y="266"><tspan id="tspan25-4" x="304" y="292">chunk1</tspan></text><path id="path3798-4-3-2-4" d="m 115,283.00002 0,-8 c 0,-4.41828 3.58172,-8 8,-8 l 8,0 20,0 112,0 8,0 c 4.41828,0 9.07159,3.71364 8,8 l 0,8 -8,0 0,-6 -8,0 0,20 8,0 0,-6 8,0 0,34 -8,0 0,-6 -8,0 0,20 8,0 0,-6 8,0 0,8 c 0,4.41827 -3.58172,8 -8,8 l -8,0 -112,0 -20,0 -8,0 c -4.41828,0 -8,-3.58173 -8,-8 l 0,-8 0,-42 0,-2 -12,0 0,6 -4,0 0,-16 4,0 0,6 12,0 z" style="fill:#f0f;fill-opacity:1;stroke:#c700d3;stroke-width:2;stroke-linecap:round;stroke-opacity:1"/><text id="text3800-3-4-6-5" x="146" y="266" style="font-size:28px;font-family:sans-serif;text-anchor:end;fill:#000"><tspan id="tspan3802-6-9-8-2" x="256" y="315" style="font-size:20px">uno de estos</tspan></text><text style="font-size:13.33333302px;font-family:Sans;text-anchor:end;fill:#000" id="text3200-4-78-4-9" x="161.295" y="269.904"><tspan id="tspan3202-55-08-0-2" x="255.295" y="292.404">éste</tspan></text><text style="font-size:13.33333302px;font-family:Sans;text-anchor:end;fill:#000" id="text3200-4-78-4-8-2" x="160.963" y="310.604"><tspan id="tspan3202-55-08-0-3-6" x="254.963" y="333.104">ése</tspan></text><path style="fill:#7bbbb8;fill-opacity:1;stroke:#4c8585;stroke-width:2;stroke-linecap:round;stroke-opacity:1" id="path21-6-3" d="m 281,309.00002 120,0 0,40 -120,0 0,-16 0,-2 -12,0 0,6 -4,0 0,-16 4,0 0,6 12,0 0,-2 z"/><text style="font-size:20px;font-family:Sans;text-anchor:start;fill:#000" id="text23-7-4" x="284" y="308"><tspan id="tspan25-4-5" x="304" y="334">chunk2</tspan></text><path id="path3035-5" d="M 1,17.00001 1,9.0000097 c 0,-4.41828 3.58173,-8 8.00001,-8 l 8,0 0,4 20,0 0,-4 18,0 109.99999,0 8.00002,0 c 4.41827,0 9.07158,3.71364 8,8 l 0,8.0000003 -8,0 0,-6 -8.00002,0 0,20 8.00002,0 0,-6 8,0 0,8 c 0,4.41828 -3.58173,8 -8,8 l -8.00002,0 -109.99999,0 -2,0 0,4 -16,0 0,-4 -2,0 -8,0 c -5.52285,0 -10,4.47715 -10,10 l 0,8 0,134 0,7.99999 c 0,5.52285 4.64205,11.3395 10,10 l 8,0 0,4 20,0 0,-4 16,0 0,12 0,12 0,8 c 0,4.41828 -3.71364,9.07161 -8,8.00001 l -8,0 -18,0 -2,0 0,4 -16,0 0,-4 -2,0 -8,0 C 4.58173,251.00001 1,247.41828 1,243 l 0,-8 z" style="fill:#fd6600;fill-opacity:1;stroke:#ac3d00;stroke-width:2;stroke-linecap:round;stroke-opacity:1"/><text id="text3037-3" x="-2" y="-2" style="font-size:20px;font-family:Sans;text-anchor:start;fill:#000"><tspan id="tspan3039-5" x="6" y="28.5">valor de la nota</tspan></text><path id="path21-6-1-7" d="m 297.00002,43.00001 120.00002,0 0,40 -120.00002,0 0,-16 0,-2 -12,0 0,6 -4,0 0,-16 4,0 0,6 12,0 0,-2 z" style="fill:#f0f;fill-opacity:1;stroke:#c700d3;stroke-width:2;stroke-linecap:round;stroke-opacity:1"/><text id="text23-9-82-9" x="328" y="42" style="font-size:20px;font-family:Sans;text-anchor:start;fill:#000"><tspan id="tspan25-8-5-2" x="348" y="68">8</tspan></text><path id="path3798-4-4-5" d="m 183.00002,17.00001 0,-8.0000003 a 8.0000007,8.0000006 0 0 1 8,-8 l 8,0 20,0 60,0 8,0 a 8.0000007,8.0000006 0 0 1 8,8 l 0,8.0000003 -8,0 0,-6 -8,0 0,20 8,0 0,-6 8,0 0,34 -8,0 0,-6 -8,0 0,20 8,0 0,-6 8,0 0,8 a 8.0000007,8.0000006 0 0 1 -8,8 l -8,0 -60,0 -20,0 -8,0 a 8.0000007,8.0000006 0 0 1 -8,-8 l 0,-8 0,-42 0,-2 -12,0 0,6 -4.00002,0 0,-16 4.00002,0 0,6 12,0 0,-2 z" style="fill:#f0f;fill-opacity:1;stroke:#c700d3;stroke-width:2;stroke-linecap:round;stroke-opacity:1"/><text id="text3800-3-2-0" x="158" y="0" style="font-size:28px;font-family:sans-serif;text-anchor:end;fill:#000"><tspan id="tspan3802-6-2-5" x="268" y="49">/</tspan></text><path id="path21-8-2-1-0-6" d="m 297,1 120,0 0,40 -120,0 0,-16 0,-2 -12,0 0,6 -4,0 0,-16 4,0 0,6 12,0 0,-2 z" style="fill:#f0f;fill-opacity:1;stroke:#c700d3;stroke-width:2;stroke-linecap:round;stroke-opacity:1"/><text id="text23-0-1-0-1-0" x="329" y="2" style="font-size:20px;font-family:Sans;text-anchor:start;fill:#000"><tspan id="tspan25-7-0-5-2-5" x="349" y="28">1</tspan></text><path style="fill:#fd6600;fill-opacity:1;stroke:#ac3d00;stroke-width:2;stroke-linecap:round;stroke-opacity:1" id="path3124" d="m 19.00001,59.00001 0,-8 c 0,-4.41828 3.58172,-8 8,-8 l 8,0 0,4 20,0 0,-4 59.99999,0 8.00002,0 c 4.41827,0 8,3.58172 8,8 l 0,8 0,8 0,8 c 0,4.41828 -3.71365,6.92841 -8,8 l -8.00002,0 -59.99999,0 -2,0 0,3.999996 -16,0 0,-3.999996 -2,0 -8,0 c -4.41828,0 -8,-3.58172 -8,-8 l 0,-8 0,0 z"/><text id="text6137" x="100.823" y="69.923" xml:space="preserve" style="font-style:normal;font-weight:400;font-size:16px;line-height:125%;font-family:sans-serif;text-align:center;letter-spacing:0;word-spacing:0;text-anchor:middle;fill:#000;fill-opacity:1;stroke:none;stroke-width:1px;stroke-linecap:butt;stroke-linejoin:miter;stroke-opacity:1"><tspan style="font-size:22.5px" id="tspan6139" x="100.823" y="69.923">↓</tspan></text></svg>