<svg xmlns="http://www.w3.org/2000/svg" xmlns:svg="http://www.w3.org/2000/svg" id="svg4075" width="985.6" height="727.066" version="1.1" viewBox="0 0 924 681.624"><metadata id="metadata4080"/><path style="fill:#ffc000;fill-opacity:1;stroke:#c48d00;stroke-width:2;stroke-linecap:round;stroke-opacity:1" id="path3027-4-2" d="m 464.99989,29.56205 0,-8 c 0,-4.18879 3.81121,-8 8,-8 l 8,0 10,-12.0000001 10,12.0000001 18,0 70,0 8,0 c 4.18879,0 8,3.81121 8,8 l 0,8 -8,0 0,-6 -8,0 0,20 8,0 0,-6 8,0 0,8 c 0,4.18879 -3.81121,8 -8,8 l -8,0 -70,0 -2,0 0,4 -16,0 0,-4 -2,0 -8,0 c -2.61799,0 -5.21987,1.07773 -7.07107,2.92893 -1.8512,1.8512 -2.92893,4.45307 -2.92893,7.07107 l 0,8 0,174 0,8 c 0,2.61799 1.07773,5.21987 2.92893,7.07107 1.8512,1.8512 4.53125,2.29397 7.07107,2.92893 l 8,0 0,4 20,0 0,-4 16,0 0,12 0,12 0,8 c 0,4.18878 -3.93628,9.01593 -8,8 l -8,0 -18,0 -10,12 -10,-12 -8,0 c -4.18879,0 -8,-3.81122 -8,-8 l 0,-8 z"/><text style="font-size:20px;font-family:Sans;text-anchor:start;fill:#000" id="text3029-4-9" x="463.944" y="-1.727"><tspan id="tspan3031-5-3" x="471.944" y="41.273">acción</tspan></text><path style="fill:#7bbbb8;fill-opacity:1;stroke:#4c8585;stroke-width:2;stroke-linecap:round;stroke-opacity:1" id="path21-2-0-2" d="m 606.99989,13.56205 120,0 0,40 -120,0 0,-16 0,-2 -12,0 0,6 -4,0 0,-16 4,0 0,6 12,0 0,-2 z"/><text style="font-size:20px;font-family:Sans;text-anchor:start;fill:#000" id="text23-2-3" x="631.218" y="12.018"><tspan id="tspan25-1-1" x="651.218" y="38.018">re</tspan></text><path style="fill:#ffc000;fill-opacity:1;stroke:#c48d00;stroke-width:2;stroke-linecap:round;stroke-opacity:1" id="path3027-4-2-9" d="m 1,29.56206 0,-8 c 0,-4.18879 3.81121,-8 8,-8 l 8,0 10,-12.0000001 10,12.0000001 18,0 70,0 8,0 c 4.18879,0 8,3.81121 8,8 l 0,8 -8,0 0,-6 -8,0 0,20 8,0 0,-6 8,0 0,8 c 0,4.18879 -3.81121,8 -8,8 l -8,0 -70,0 -2,0 0,4 -16,0 0,-4 -2,0 -8,0 c -2.61799,0 -5.21987,1.07773 -7.07107,2.92893 C 18.07773,58.34219 17,60.94406 17,63.56206 l 0,8 0,174 0,8 c 0,2.61799 1.07773,5.21987 2.92893,7.07107 1.8512,1.8512 4.531247,2.29397 7.07107,2.92893 l 8,0 0,4 20,0 0,-4 16,0 0,12 0,12 0,8 c 0,4.18878 -3.93628,9.01593 -8,8 l -8,0 -18,0 -10,12 -10,-12 -8,0 c -4.18879,0 -8,-3.81122 -8,-8 l 0,-8 z"/><text style="font-size:20px;font-family:Sans;text-anchor:start;fill:#000" id="text3029-4-9-8" x="-.055" y="-1.727"><tspan id="tspan3031-5-3-4" x="7.945" y="41.273">acción</tspan></text><path style="fill:#7bbbb8;fill-opacity:1;stroke:#4c8585;stroke-width:2;stroke-linecap:round;stroke-opacity:1" id="path21-2-0-2-7" d="m 143,13.56206 120,0 0,40 -120,0 0,-16 0,-2 -12,0 0,6 -4,0 0,-16 4,0 0,6 12,0 0,-2 z"/><text style="font-size:20px;font-family:Sans;text-anchor:start;fill:#000" id="text23-2-3-6" x="155.218" y="12.018"><tspan id="tspan25-1-1-4" x="175.218" y="38.018">do</tspan></text><flowRoot style="font-style:normal;font-weight:400;font-size:16px;line-height:125%;font-family:sans-serif;text-align:center;letter-spacing:0;word-spacing:0;text-anchor:middle;fill:#000;fill-opacity:1;stroke:none;stroke-width:1px;stroke-linecap:butt;stroke-linejoin:miter;stroke-opacity:1" id="flowRoot4622" transform="translate(886.22609,11.041118)" xml:space="preserve"><flowRegion id="flowRegion4624"><rect id="rect4626" width="320.467" height="182.714" x="673.46" y="575.885"/></flowRegion><flowPara id="flowPara4628"/></flowRoot><path id="path3660-4-52" d="m 1,350.06207 0,-8 c 0,-4.18879 3.81121,-8 8,-8 l 8,0 10,-12 10,12 18,0 60,0 8,0 c 4.18879,0 8,3.81121 8,8 l 0,8 0,8 0,8 c 0,4.18879 -3.81121,8 -8,8 l -8,0 -60,0 -2,0 0,4 -16,0 0,-4 -2,0 -8,0 c -2.61799,0 -5.21987,1.07773 -7.07107,2.92893 C 18.07773,378.8422 17,381.44408 17,384.06207 l 0,8 0,92 0,8 c 0,2.61799 1.07773,5.21987 2.92893,7.07107 1.8512,1.8512 4.53124,3.56389 7.07107,2.92893 l 8,0 0,4 20,0 0,-4 16,0 0,12 0,12 0,8 c 0,4.18879 -3.93628,9.01593 -8,8 l -8,0 -18,0 -10,12 -10,-12 -8,0 c -4.18879,0 -8,-3.81121 -8,-8 l 0,-8 z" style="fill:#ffc000;fill-opacity:1;stroke:#c48d00;stroke-width:2;stroke-linecap:round;stroke-opacity:1"/><text id="text3662-8-6" x=".634" y="320.475" style="font-size:20px;font-family:Sans;text-anchor:start;fill:#000"><tspan id="tspan3664-5-6" x="8.634" y="363.475">iniciar</tspan></text><path id="path4206-9-4" d="m 112.02365,362.94794 c -0.24354,0 -0.48399,-0.0159 -0.72092,-0.0455 l 0.61126,1.0678 0.60246,-1.05144 c -0.16339,0.0136 -0.32633,0.0291 -0.4928,0.0291 z" style="fill:#eee;stroke:#ff4100;stroke-width:1.75;stroke-linecap:round;stroke-linejoin:round;stroke-miterlimit:4;stroke-dasharray:none;stroke-opacity:1"/><path style="fill:#ff9452;fill-opacity:1;stroke:#ff4100;stroke-width:1.75;stroke-linecap:round;stroke-linejoin:round;stroke-miterlimit:4;stroke-dasharray:none;stroke-opacity:1" id="path4210-5-6" d="m 117.60031,346.33189 c -0.953,0 -1.74306,0.70686 -1.91261,1.63965 0.81868,0.6114 1.52243,1.416 2.05882,2.36742 1.00629,-0.0782 1.80296,-0.93688 1.80296,-1.99558 0,-1.11098 -0.87286,-2.01149 -1.94917,-2.01149 z"/><path style="fill:#ff9452;fill-opacity:1;stroke:#ff4100;stroke-width:1.75;stroke-linecap:round;stroke-linejoin:round;stroke-miterlimit:4;stroke-dasharray:none;stroke-opacity:1" id="path4212-8-6" d="m 117.84385,359.13315 c -0.53904,1.01461 -1.25952,1.87785 -2.11255,2.52562 0.22944,0.84732 0.97458,1.47236 1.86901,1.47236 1.07587,0 1.94917,-0.90005 1.94917,-2.01103 0,-1.02507 -0.74558,-1.86194 -1.70563,-1.98695 z"/><path style="fill:#ff9452;fill-opacity:1;stroke:#ff4100;stroke-width:1.75;stroke-linecap:round;stroke-linejoin:round;stroke-miterlimit:4;stroke-dasharray:none;stroke-opacity:1" id="path4214-5-4-2" d="m 106.19994,359.12588 c -0.9922,0.0936 -1.77213,0.94506 -1.77213,1.99422 0,1.11052 0.87197,2.01103 1.94828,2.01103 0.90897,0 1.66644,-0.64549 1.88135,-1.51464 -0.82926,-0.64367 -1.53036,-1.49509 -2.0575,-2.49061 z"/><path style="fill:#ff9452;fill-opacity:1;stroke:#ff4100;stroke-width:1.75;stroke-linecap:round;stroke-linejoin:round;stroke-miterlimit:4;stroke-dasharray:none;stroke-opacity:1" id="path4216-2-9" d="m 108.29311,348.01881 c -0.15105,-0.95597 -0.9486,-1.68692 -1.91702,-1.68692 -1.07631,0 -1.94828,0.90051 -1.94828,2.01103 0,1.0828 0.83057,1.95922 1.86945,2.00286 0.5223,-0.9287 1.20315,-1.72011 1.99585,-2.32697 z"/><path id="path4218-2-1" d="m 112.02365,346.71237 c 0.84026,0 1.64177,0.18683 2.38603,0.51276 0.32633,-0.48913 0.51878,-1.08053 0.51878,-1.71966 0,-1.67602 -1.31632,-3.03519 -2.94048,-3.03519 -1.62372,0 -2.94005,1.35917 -2.94005,3.03519 0,0.64913 0.19906,1.24962 0.53552,1.74284 0.75923,-0.34048 1.57968,-0.53594 2.4402,-0.53594 z" style="fill:#ff9452;fill-opacity:1;stroke:#ff4100;stroke-width:1.75;stroke-linecap:round;stroke-linejoin:round;stroke-miterlimit:4;stroke-dasharray:none;stroke-opacity:1"/><path style="fill:#ff9452;fill-opacity:1;stroke:#ff4100;stroke-width:1.75;stroke-linecap:round;stroke-linejoin:round;stroke-miterlimit:4;stroke-dasharray:none;stroke-opacity:1" id="path4222-7-9" d="m 118.89594,354.83015 c 0,2.15214 -0.72453,4.21836 -2.01285,5.74014 -1.28831,1.52182 -3.0375,2.37765 -4.85944,2.37765 -1.82193,0 -3.57112,-0.85583 -4.85944,-2.37765 -1.28831,-1.52178 -2.01284,-3.588 -2.01284,-5.74014 0,-4.45328 3.10228,-8.11778 6.87228,-8.11778 3.77001,0 6.87229,3.6645 6.87229,8.11778 z"/><path style="fill:#ff4100;fill-opacity:1;stroke:none" id="path4226-0-9" d="m 111.30934,356.34343 -0.67908,-2.10241 1.39339,-1.17598 1.59201,1.19371 -0.65486,2.12241 z"/><path style="fill:#ff4100;fill-opacity:1;stroke:none" id="path4228-4-4" d="m 112.02541,359.88956 c -1.74746,-0.0727 -2.44108,-0.91323 -2.44108,-0.91323 l 1.5722,-1.8924 1.96634,0.0764 1.3793,1.87285 c 0,0 -1.27273,0.90642 -2.47676,0.85642 z"/><path style="fill:#ff4100;fill-opacity:1;stroke:none" id="path4230-0-7" d="m 108.04077,356.38571 c -0.37389,-1.34918 0.0757,-3.12929 0.0757,-3.12929 l 1.76156,0.98506 0.65751,2.10422 -1.57748,1.92422 c 0,-4.6e-4 -0.64517,-0.90461 -0.91733,-1.88421 z"/><path style="fill:#ff4100;fill-opacity:1;stroke:none" id="path4232-3-5" d="m 108.48336,352.42273 c 0,0 0.22019,-0.89006 1.33834,-1.73739 0.98516,-0.74686 1.96634,-0.78186 1.96634,-0.78186 l -0.0163,2.26423 -1.55061,1.25008 -1.73778,-0.99506 z"/><path style="fill:#ff4100;fill-opacity:1;stroke:none" id="path4234-7-5" d="m 114.04372,353.65417 -1.52331,-1.3069 0.16515,-2.36788 c 0,0 0.80767,-0.0191 1.7435,0.75778 0.98119,0.81414 1.48059,2.26514 1.48059,2.26514 l -1.86593,0.65186 z"/><path style="fill:#ff4100;fill-opacity:1;stroke:none" id="path4236-3-2" d="m 113.69493,356.47617 0.57823,-2.02922 1.84392,-0.69823 c 0,0 0.29814,1.21053 -0.0185,2.57607 -0.23781,1.02552 -0.91777,1.9824 -0.91777,1.9824 l -1.48588,-1.83102 z"/><path style="fill:#ffc000;fill-opacity:1;stroke:#c48d00;stroke-width:2;stroke-linecap:round;stroke-opacity:1" id="path3194-9-7-0" d="m 19,392.12411 0,-8 c 0,-4.41828 3.58172,-8 8,-8 l 8,0 0,4 20,0 0,-4 60,0 8,0 c 4.41828,0 8,3.58172 8,8 l 0,8 -8,0 0,-6 -8,0 0,20 8,0 0,-6 8,0 0,76 -8,0 0,-6 -8,0 0,20 8,0 0,-6 8,0 0,8 c 0,4.41828 -3.58172,8 -8,8 l -8,0 -60,0 -2,0 0,4 -16,0 0,-4 -2,0 -8,0 c -4.41828,0 -8,-3.58172 -8,-8 l 0,-8 0,-84 z"/><text style="font-size:20px;font-family:Sans;text-anchor:end;fill:#000" id="text3196-5-5-4" x="18" y="391.124"><tspan id="tspan3198-01-4-0" x="112" y="440.124">cuando</tspan></text><text style="font-size:13.33333302px;font-family:Sans;text-anchor:end;fill:#000" id="text3200-4-78-4" x="18" y="379.124"><tspan id="tspan3202-55-08-0" x="112" y="401.624">señal</tspan></text><text style="font-size:13.33333302px;font-family:Sans;text-anchor:end;fill:#000" id="text3204-8-4-9" x="18" y="419.124"><tspan id="tspan3206-1-3-1" x="112" y="483.624">hacer</tspan></text><path id="path21-38-8-5" d="m 246.61716,417.95402 212,0 0,40 -212,0 0,-16 0,-2 -12,0 0,6 -4,0 0,-16 4,0 0,6 12,0 0,-2 z" style="fill:#e37a00;fill-opacity:1;stroke:#a34600;stroke-width:2;stroke-linecap:round;stroke-opacity:1"/><text id="text23-65-0-3" x="245.617" y="416.954" style="font-size:20px;font-family:Sans;text-anchor:start;fill:#000"><tspan id="tspan25-85-7-0" x="265.617" y="442.954">renombrar tortuga</tspan></text><path style="fill:#7bbbb8;fill-opacity:1;stroke:#4c8585;stroke-width:2;stroke-linecap:round;stroke-opacity:1" id="path21-2-0-2-6-0" d="m 246.61716,375.95402 120,0 0,40 -120,0 0,-16 0,-2 -12,0 0,6 -4,0 0,-16 4,0 0,6 12,0 0,-2 z"/><text style="font-size:20px;font-family:Sans;text-anchor:start;fill:#000" id="text23-2-3-2-7" x="260.835" y="374.41"><tspan id="tspan25-1-1-8-9" x="280.835" y="400.41">click</tspan></text><path style="fill:#7bbbb8;fill-opacity:1;stroke:#4c8585;stroke-width:2;stroke-linecap:round;stroke-opacity:1" id="path21-2-0-2-5-3" d="m 132.61716,459.95402 120,0 0,40 -120,0 0,-16 0,-2 -12,0 0,6 -4,0 0,-16 4,0 0,6 12,0 0,-2 z"/><text style="font-size:20px;font-family:Sans;text-anchor:start;fill:#000" id="text23-2-3-9-6" x="156.835" y="458.41"><tspan id="tspan25-1-1-9-2" x="176.835" y="484.41">do</tspan></text><path id="path3798-4-3-2" d="m 132.61716,391.95402 0,-8 a 8,8 0 0 1 8,-8 l 8,0 20,0 60,0 8,0 a 8,8 0 0 1 8,8 l 0,8 -8,0 0,-6 -8,0 0,20 8,0 0,-6 8,0 0,34 -8,0 0,-6 -8,0 0,20 8,0 0,-6 8,0 0,8 a 8,8 0 0 1 -8,8 l -8,0 -60,0 -20,0 -8,0 a 8,8 0 0 1 -8,-8 l 0,-8 0,-42 0,-2 -12,0 0,6 -4,0 0,-16 4,0 0,6 12,0 0,-2 z" style="fill:#f0f;fill-opacity:1;stroke:#c700d3;stroke-width:2;stroke-linecap:round;stroke-opacity:1"/><text id="text3800-3-4-6" x="115.617" y="374.954" style="font-size:28px;font-family:sans-serif;text-anchor:end;fill:#000"><tspan id="tspan3802-6-9-8" x="225.617" y="423.954">+</tspan></text><path id="path21-8-61" d="m 596.99989,460.12411 120,0 0,40 -120,0 0,-16 0,-2 -12,0 0,6 -4,0 0,-16 4,0 0,6 12,0 0,-2 z" style="fill:#f0f;fill-opacity:1;stroke:#c700d3;stroke-width:2;stroke-linecap:round;stroke-opacity:1"/><text id="text23-0-4" x="627.517" y="461.361" style="font-size:20px;font-family:Sans;text-anchor:start;fill:#000"><tspan id="tspan25-7-0" x="647.517" y="487.361">0</tspan></text><path id="path3660-4" d="m 464.99989,350.06206 0,-8 c 0,-4.18879 3.81121,-8 8,-8 l 8,0 10,-12 10,12 18,0 60,0 8,0 c 4.18879,0 8,3.81121 8,8 l 0,8 0,8 0,8 c 0,4.18878 -3.81121,8 -8,8 l -8,0 -60,0 -2,0 0,4 -16,0 0,-4 -2,0 -8,0 c -2.61799,0 -5.21987,1.07772 -7.07107,2.92892 -1.8512,1.8512 -2.92893,4.45308 -2.92893,7.07108 l 0,8 0,218 0,8 c 0,2.61799 1.07773,5.21987 2.92893,7.07107 1.8512,1.8512 4.53124,3.56389 7.07107,2.92893 l 8,0 0,4 20,0 0,-4 16,0 0,12 0,12 0,8 c 0,4.18878 -3.93628,9.01593 -8,8 l -8,0 -18,0 -10,12 -10,-12 -8,0 c -4.18879,0 -8,-3.81122 -8,-8 l 0,-8 z" style="fill:#ffc000;fill-opacity:1;stroke:#c48d00;stroke-width:2;stroke-linecap:round;stroke-opacity:1"/><text id="text3662-8" x="464" y="321.062" style="font-size:20px;font-family:Sans;text-anchor:start;fill:#000"><tspan id="tspan3664-5" x="472" y="364.062">iniciar</tspan></text><path style="fill:#ffc000;fill-opacity:1;stroke:#c48d00;stroke-width:2;stroke-linecap:round;stroke-opacity:1" id="path3194-9-7" d="m 482.99989,518.1241 0,-8 c 0,-4.41828 3.58172,-8 8,-8 l 8,0 0,4 20,0 0,-4 60,0 8,0 c 4.41828,0 8,3.58172 8,8 l 0,8 -8,0 0,-6 -8,0 0,20 8,0 0,-6 8,0 0,76 -8,0 0,-6 -8,0 0,20 8,0 0,-6 8,0 0,8 c 0,4.41828 -3.58172,8 -8,8 l -8,0 -60,0 -2,0 0,4 -16,0 0,-4 -2,0 -8,0 c -4.41828,0 -8,-3.58172 -8,-8 l 0,-8 0,-84 z"/><text style="font-size:20px;font-family:Sans;text-anchor:end;fill:#000" id="text3196-5-5" x="482" y="519.124"><tspan id="tspan3198-01-4" x="576" y="568.124">cuando</tspan></text><text style="font-size:13.33333302px;font-family:Sans;text-anchor:end;fill:#000" id="text3200-4-78" x="482" y="505.124"><tspan id="tspan3202-55-08" x="576" y="527.624">señal</tspan></text><text style="font-size:13.33333302px;font-family:Sans;text-anchor:end;fill:#000" id="text3204-8-4" x="482" y="545.124"><tspan id="tspan3206-1-3" x="576" y="609.624">hacer</tspan></text><path id="path21-38-8" d="m 710.99989,544.12412 212,0 0,40 -212,0 0,-16 0,-2 -12,0 0,6 -4,0 0,-16 4,0 0,6 12,0 0,-2 z" style="fill:#e37a00;fill-opacity:1;stroke:#a34600;stroke-width:2;stroke-linecap:round;stroke-opacity:1"/><text id="text23-65-0" x="709.617" y="542.954" style="font-size:20px;font-family:Sans;text-anchor:start;fill:#000"><tspan id="tspan25-85-7" x="729.617" y="568.954">renombrar tortuga</tspan></text><path style="fill:#7bbbb8;fill-opacity:1;stroke:#4c8585;stroke-width:2;stroke-linecap:round;stroke-opacity:1" id="path21-2-0-2-6" d="m 710.99989,502.12412 120,0 0,40 -120,0 0,-16 0,-2 -12,0 0,6 -4,0 0,-16 4,0 0,6 12,0 0,-2 z"/><text style="font-size:20px;font-family:Sans;text-anchor:start;fill:#000" id="text23-2-3-2" x="724.835" y="500.41"><tspan id="tspan25-1-1-8" x="744.835" y="526.41">click</tspan></text><path style="fill:#7bbbb8;fill-opacity:1;stroke:#4c8585;stroke-width:2;stroke-linecap:round;stroke-opacity:1" id="path21-2-0-2-5" d="m 596.99989,586.12412 120,0 0,40 -120,0 0,-16 0,-2 -12,0 0,6 -4,0 0,-16 4,0 0,6 12,0 0,-2 z"/><text style="font-size:20px;font-family:Sans;text-anchor:start;fill:#000" id="text23-2-3-9" x="620.835" y="584.41"><tspan id="tspan25-1-1-9" x="640.835" y="610.41">re</tspan></text><path id="path3798-4-3" d="m 596.99989,518.12412 0,-8 a 8,8 0 0 1 8,-8 l 8,0 20,0 60,0 8,0 a 8,8 0 0 1 8,8 l 0,8 -8,0 0,-6 -8,0 0,20 8,0 0,-6 8,0 0,34 -8,0 0,-6 -8,0 0,20 8,0 0,-6 8,0 0,8 a 8,8 0 0 1 -8,8 l -8,0 -60,0 -20,0 -8,0 a 8,8 0 0 1 -8,-8 l 0,-8 0,-42 0,-2 -12,0 0,6 -4,0 0,-16 4,0 0,6 12,0 0,-2 z" style="fill:#f0f;fill-opacity:1;stroke:#c700d3;stroke-width:2;stroke-linecap:round;stroke-opacity:1"/><text id="text3800-3-4" x="579.617" y="500.954" style="font-size:28px;font-family:sans-serif;text-anchor:end;fill:#000"><tspan id="tspan3802-6-9" x="689.617" y="549.954">+</tspan></text><path style="fill:#00b700;fill-opacity:1;stroke:#007b00;stroke-width:2;stroke-linecap:round;stroke-opacity:1" id="path3381" d="m 482.99989,434.12411 0,-8 a 8,8 0 0 1 8,-8 l 8,0 0,4 20,0 0,-4 60,0 8,0 a 8,8 0 0 1 8,8 l 0,8 -8,0 0,-6 -8,0 0,20 8,0 0,-6 8,0 0,34 -8,0 0,-6 -8,0 0,20 8,0 0,-6 8,0 0,8 a 8,8 0 0 1 -8,8 l -8,0 -60,0 -2,0 0,4 -16,0 0,-4 -2,0 -8,0 a 8,8 0 0 1 -8,-8 l 0,-8 0,-42 0,-8 z"/><text style="font-size:20px;font-family:Sans;text-anchor:end;fill:#000" id="text3383" x="482" y="417.124"><tspan id="tspan3385" x="576" y="466.124">fijar xy</tspan></text><text style="font-size:13.33333302px;font-family:Sans;text-anchor:end;fill:#000" id="text3387" x="482" y="419.124"><tspan id="tspan3389" x="576" y="441.624">x</tspan></text><text style="font-size:13.33333302px;font-family:Sans;text-anchor:end;fill:#000" id="text3391" x="482" y="421.124"><tspan id="tspan3393" x="576" y="485.624">y</tspan></text><path id="path3058" d="m 482.99989,392.12411 0,-8 c 0,-4.41828 3.58172,-8 8,-8 l 8,0 0,4 20,0 0,-4 86,0 8,0 c 4.41828,0 9.07159,3.71364 8,8 l 0,8 0,8 0,8 c 0,4.41828 -3.58172,8 -8,8 l -8,0 -86,0 -2,0 0,4 -16,0 0,-4 -2,0 -8,0 c -4.41828,0 -8,-3.58172 -8,-8 l 0,-8 z" style="fill:#1d8989;fill-opacity:1;stroke:#005459;stroke-width:2;stroke-linecap:round;stroke-opacity:1"/><text id="text3060" x="516" y="375.124" style="font-size:20px;font-family:Sans;text-anchor:end;fill:#000"><tspan id="tspan3062" x="610" y="403.124">subir pluma</tspan></text><path id="path21-8-61-7" d="m 596.99989,458.1241 120,0 0,-40 -120,0 0,16 0,2 -12,0 0,-6 -4,0 0,16 4,0 0,-6 12,0 0,2 z" style="fill:#f0f;fill-opacity:1;stroke:#c700d3;stroke-width:2;stroke-linecap:round;stroke-opacity:1"/><text id="text23-0-4-3" x="617" y="419.124" style="font-size:20px;font-family:Sans;text-anchor:start;fill:#000"><tspan id="tspan25-7-0-6" x="637" y="445.124">100</tspan></text><path id="path4206-3-4" d="m 575.37618,365.03506 c -0.24354,0 -0.48399,-0.0159 -0.72092,-0.0455 l 0.61126,1.06779 0.60246,-1.05143 c -0.16339,0.0136 -0.32633,0.0291 -0.4928,0.0291 z" style="fill:#eee;stroke:red;stroke-width:1.75;stroke-linecap:round;stroke-linejoin:round;stroke-miterlimit:4;stroke-dasharray:none;stroke-opacity:1"/><path style="fill:#ff8080;fill-opacity:1;stroke:red;stroke-width:1.75;stroke-linecap:round;stroke-linejoin:round;stroke-miterlimit:4;stroke-dasharray:none;stroke-opacity:1" id="path4210-2-6" d="m 580.95284,348.41901 c -0.953,0 -1.74306,0.70686 -1.91261,1.63965 0.81868,0.6114 1.52243,1.416 2.05882,2.36742 1.00629,-0.0782 1.80296,-0.93688 1.80296,-1.99558 0,-1.11098 -0.87286,-2.01149 -1.94917,-2.01149 z"/><path style="fill:#ff8080;fill-opacity:1;stroke:red;stroke-width:1.75;stroke-linecap:round;stroke-linejoin:round;stroke-miterlimit:4;stroke-dasharray:none;stroke-opacity:1" id="path4212-9-6" d="m 581.19638,361.22027 c -0.53904,1.01461 -1.25952,1.87785 -2.11255,2.52562 0.22944,0.84733 0.97458,1.47237 1.86901,1.47237 1.07587,0 1.94917,-0.90006 1.94917,-2.01104 0,-1.02507 -0.74558,-1.86194 -1.70563,-1.98695 z"/><path style="fill:#ff8080;fill-opacity:1;stroke:red;stroke-width:1.75;stroke-linecap:round;stroke-linejoin:round;stroke-miterlimit:4;stroke-dasharray:none;stroke-opacity:1" id="path4214-5-84" d="m 569.55247,361.213 c -0.9922,0.0936 -1.77213,0.94506 -1.77213,1.99422 0,1.11052 0.87197,2.01104 1.94828,2.01104 0.90897,0 1.66644,-0.6455 1.88135,-1.51465 -0.82926,-0.64367 -1.53036,-1.49509 -2.0575,-2.49061 z"/><path style="fill:#ff8080;fill-opacity:1;stroke:red;stroke-width:1.75;stroke-linecap:round;stroke-linejoin:round;stroke-miterlimit:4;stroke-dasharray:none;stroke-opacity:1" id="path4216-6-2" d="m 571.64564,350.10593 c -0.15105,-0.95597 -0.9486,-1.68692 -1.91702,-1.68692 -1.07631,0 -1.94828,0.90051 -1.94828,2.01103 0,1.0828 0.83057,1.95922 1.86945,2.00286 0.5223,-0.9287 1.20315,-1.72011 1.99585,-2.32697 z"/><path id="path4218-8-5" d="m 575.37618,348.79948 c 0.84026,0 1.64177,0.18683 2.38603,0.51276 0.32633,-0.48912 0.51878,-1.08052 0.51878,-1.71965 0,-1.67602 -1.31632,-3.03519 -2.94048,-3.03519 -1.62372,0 -2.94005,1.35917 -2.94005,3.03519 0,0.64913 0.19906,1.24962 0.53552,1.74284 0.75923,-0.34048 1.57968,-0.53595 2.4402,-0.53595 z" style="fill:#ff8080;fill-opacity:1;stroke:red;stroke-width:1.75;stroke-linecap:round;stroke-linejoin:round;stroke-miterlimit:4;stroke-dasharray:none;stroke-opacity:1"/><path style="fill:#ff8080;fill-opacity:1;stroke:red;stroke-width:1.75;stroke-linecap:round;stroke-linejoin:round;stroke-miterlimit:4;stroke-dasharray:none;stroke-opacity:1" id="path4222-1-0" d="m 582.24847,356.91727 c 0,2.15214 -0.72453,4.21836 -2.01285,5.74014 -1.28831,1.52183 -3.0375,2.37765 -4.85944,2.37765 -1.82193,0 -3.57112,-0.85582 -4.85944,-2.37765 -1.28831,-1.52178 -2.01284,-3.588 -2.01284,-5.74014 0,-4.45328 3.10228,-8.11778 6.87228,-8.11778 3.77001,0 6.87229,3.6645 6.87229,8.11778 z"/><path style="fill:red;fill-opacity:1;stroke:none" id="path4226-5-50" d="m 574.66187,358.43055 -0.67908,-2.1024 1.39339,-1.17599 1.59201,1.19371 -0.65486,2.12241 z"/><path style="fill:red;fill-opacity:1;stroke:none" id="path4228-5-65" d="m 575.37794,361.97669 c -1.74746,-0.0727 -2.44108,-0.91324 -2.44108,-0.91324 l 1.5722,-1.8924 1.96634,0.0764 1.3793,1.87285 c 0,0 -1.27273,0.90642 -2.47676,0.85642 z"/><path style="fill:red;fill-opacity:1;stroke:none" id="path4230-9-15" d="m 571.3933,358.47283 c -0.37389,-1.34918 0.0757,-3.12929 0.0757,-3.12929 l 1.76156,0.98506 0.65751,2.10423 -1.57748,1.92421 c 0,-4.6e-4 -0.64517,-0.9046 -0.91733,-1.88421 z"/><path style="fill:red;fill-opacity:1;stroke:none" id="path4232-2-7" d="m 571.83589,354.50985 c 0,0 0.22019,-0.89006 1.33834,-1.73738 0.98516,-0.74687 1.96634,-0.78187 1.96634,-0.78187 l -0.0163,2.26423 -1.55061,1.25008 -1.73778,-0.99506 z"/><path style="fill:red;fill-opacity:1;stroke:none" id="path4234-2-72" d="m 577.39625,355.74129 -1.52331,-1.3069 0.16515,-2.36788 c 0,0 0.80767,-0.0191 1.7435,0.75778 0.98119,0.81414 1.48059,2.26514 1.48059,2.26514 l -1.86593,0.65186 z"/><path style="fill:red;fill-opacity:1;stroke:none" id="path4236-4-04" d="m 577.04746,358.56329 0.57823,-2.02922 1.84392,-0.69823 c 0,0 0.29814,1.21053 -0.0185,2.57607 -0.23781,1.02552 -0.91777,1.9824 -0.91777,1.9824 l -1.48588,-1.83102 z"/><path id="path3194" d="m 37,154.62411 0,-7.99999 a 8,8 0 0 1 8,-8 l 8,0 0,4 20,0 0,-4 60,0 8,0 a 8,8 0 0 1 8,8 l 0,7.99999 -8,0 0,-5.99999 -8,0 0,19.99999 8,0 0,-6 8,0 0,34 -8,0 0,-5.99999 -8,0 0,19.99999 8,0 0,-6 8,0 0,8 a 8,8 0 0 1 -8,8 l -8,0 -60,0 -2,0 0,4 -16,0 0,-4 -2,0 -8,0 a 8,8 0 0 1 -8,-8 l 0,-8 0,-42 0,-8 z" style="fill:#00b700;fill-opacity:1;stroke:#007b00;stroke-width:2;stroke-linecap:round;stroke-opacity:1"/><text id="text3196" x="36" y="137.624" style="font-size:20px;font-family:Sans;text-anchor:end;fill:#000"><tspan id="tspan3198" x="130" y="186.624">tono</tspan></text><text id="text3200" x="36" y="139.624" style="font-size:13.33333302px;font-family:Sans;text-anchor:end;fill:#000"><tspan id="tspan3202" x="130" y="162.124">nota</tspan></text><text id="text3204" x="36" y="141.624" style="font-size:13.33333302px;font-family:Sans;text-anchor:end;fill:#000"><tspan id="tspan3206" x="130" y="206.124">octava</tspan></text><path style="fill:#00b700;fill-opacity:1;stroke:#007b00;stroke-width:2;stroke-linecap:round;stroke-opacity:1" id="path21" d="m 151,138.62412 120,0 0,40 -120,0 0,-16.00001 0,-2 -12,0 0,6 -4,0 0,-15.99999 4,0 0,5.99999 12,0 0,-2 z"/><text style="font-size:20px;font-family:Sans;text-anchor:start;fill:#000" id="text23" x="180" y="137.624"><tspan id="tspan25" x="200" y="163.624">do</tspan></text><path id="path21-6" d="m 151,180.62411 120,0 0,40 -120,0 0,-16 0,-2 -12,0 0,6 -4,0 0,-16 4,0 0,6 12,0 0,-2 z" style="fill:#f0f;fill-opacity:1;stroke:#c700d3;stroke-width:2;stroke-linecap:round;stroke-opacity:1"/><text id="text23-9" x="186" y="179.624" style="font-size:20px;font-family:Sans;text-anchor:start;fill:#000"><tspan id="tspan25-8" x="206" y="205.624">4</tspan></text><path id="path3035" d="m 19,70.624133 0,-8 c 0,-4.418278 3.58173,-8 8,-8 l 8,0 0,4 20,0 0,-4 18,0 110,0 8,0 c 4.41828,0 9.07159,3.713641 8,8 l 0,8 -8,0 0,-6 -8,0 0,20 8,0 0,-6 8,0 0,8 c 0,4.418278 -3.58172,8 -8,8 l -8,0 -110,0 -2,0 0,4 -16,0 0,-4 -2,0 -8,0 c -5.52284,0 -10,4.477153 -10,9.999997 l 0,8 0,92 0,7.99999 c 0,5.52285 4.64205,11.3395 10,10 l 8,0 0,4 20,0 0,-4 16,0 0,12 0,12 0,8 c 0,4.41828 -3.71364,9.0716 -8,8 l -8,0 -18,0 -2,0 0,4 -16,0 0,-4 -2,0 -8,0 c -4.41827,0 -8,-3.58172 -8,-8 l 0,-8 z" style="fill:#fd6600;fill-opacity:1;stroke:#ac3d00;stroke-width:2;stroke-linecap:round;stroke-opacity:1"/><text id="text3037" x="16" y="51.624" style="font-size:20px;font-family:Sans;text-anchor:start;fill:#000"><tspan id="tspan3039" x="24" y="82.124">valor de la nota</tspan></text><path id="path21-6-1" d="m 315,96.624136 120,0 0,40.000004 -120,0 0,-16 0,-2 -12,0 0,6 -4,0 0,-16 4,0 0,6 12,0 0,-2 z" style="fill:#f0f;fill-opacity:1;stroke:#c700d3;stroke-width:2;stroke-linecap:round;stroke-opacity:1"/><text id="text23-9-82" x="350" y="95.624" style="font-size:20px;font-family:Sans;text-anchor:start;fill:#000"><tspan id="tspan25-8-5" x="370" y="121.624">8</tspan></text><path id="path3798-4-4-5" d="m 201,70.624133 0,-8 a 8,8 0 0 1 8,-8 l 8,0 20,0 60,0 8,0 a 8,8 0 0 1 8,8 l 0,8 -8,0 0,-6 -8,0 0,20 8,0 0,-6 8,0 0,33.999997 -8,0 0,-6 -8,0 0,20 8,0 0,-6 8,0 0,8 a 8,8 0 0 1 -8,8 l -8,0 -60,0 -20,0 -8,0 a 8,8 0 0 1 -8,-8 l 0,-8 0,-41.999997 0,-2 -12,0 0,6 -4,0 0,-16 4,0 0,6 12,0 0,-2 z" style="fill:#f0f;fill-opacity:1;stroke:#c700d3;stroke-width:2;stroke-linecap:round;stroke-opacity:1"/><text id="text3800-3-2-0" x="176" y="53.624" style="font-size:28px;font-family:sans-serif;text-anchor:end;fill:#000"><tspan id="tspan3802-6-2-5" x="286" y="102.624">/</tspan></text><path id="path21-8-2-1-0-6" d="m 315,54.624133 120,0 0,40 -120,0 0,-16 0,-2 -12,0 0,6 -4,0 0,-16 4,0 0,6 12,0 0,-2 z" style="fill:#f0f;fill-opacity:1;stroke:#c700d3;stroke-width:2;stroke-linecap:round;stroke-opacity:1"/><text id="text23-0-1-0-1-0" x="347" y="55.624" style="font-size:20px;font-family:Sans;text-anchor:start;fill:#000"><tspan id="tspan25-7-0-5-2-5" x="367" y="81.624">1</tspan></text><path style="fill:#fd6600;fill-opacity:1;stroke:#ac3d00;stroke-width:2;stroke-linecap:round;stroke-opacity:1" id="path3124" d="m 37,112.62413 0,-8 c 0,-4.41828 3.58172,-7.999997 8,-7.999997 l 8,0 0,3.999997 20,0 0,-3.999997 60,0 8,0 c 4.41828,0 8,3.581717 8,7.999997 l 0,8 0,8 0,8 c 0,4.41828 -3.71364,6.92841 -8,8 l -8,0 -60,0 -2,0 0,4 -16,0 0,-4 -2,0 -8,0 c -4.41828,0 -8,-3.58172 -8,-8 l 0,-8 0,0 z"/><text id="text6137" x="118.823" y="123.547" xml:space="preserve" style="font-style:normal;font-weight:400;font-size:16px;line-height:125%;font-family:sans-serif;text-align:center;letter-spacing:0;word-spacing:0;text-anchor:middle;fill:#000;fill-opacity:1;stroke:none;stroke-width:1px;stroke-linecap:butt;stroke-linejoin:miter;stroke-opacity:1"><tspan style="font-size:22.5px" id="tspan6139" x="118.823" y="123.547">↓</tspan></text><path id="path3194-3" d="m 500.99989,154.62411 0,-7.99999 a 8,8 0 0 1 8,-8 l 8,0 0,4 20,0 0,-4 60,0 8,0 a 8,8 0 0 1 8,8 l 0,7.99999 -8,0 0,-5.99999 -8,0 0,19.99999 8,0 0,-6 8,0 0,34 -8,0 0,-5.99999 -8,0 0,19.99999 8,0 0,-6 8,0 0,8 a 8,8 0 0 1 -8,8 l -8,0 -60,0 -2,0 0,4 -16,0 0,-4 -2,0 -8,0 a 8,8 0 0 1 -8,-8 l 0,-8 0,-42 0,-8 z" style="fill:#00b700;fill-opacity:1;stroke:#007b00;stroke-width:2;stroke-linecap:round;stroke-opacity:1"/><text id="text3196-6" x="500" y="137.624" style="font-size:20px;font-family:Sans;text-anchor:end;fill:#000"><tspan id="tspan3198-7" x="594" y="186.624">tono</tspan></text><text id="text3200-5" x="500" y="139.624" style="font-size:13.33333302px;font-family:Sans;text-anchor:end;fill:#000"><tspan id="tspan3202-3" x="594" y="162.124">nota</tspan></text><text id="text3204-5" x="500" y="141.624" style="font-size:13.33333302px;font-family:Sans;text-anchor:end;fill:#000"><tspan id="tspan3206-6" x="594" y="206.124">octava</tspan></text><path style="fill:#00b700;fill-opacity:1;stroke:#007b00;stroke-width:2;stroke-linecap:round;stroke-opacity:1" id="path21-2" d="m 614.99989,138.62412 120,0 0,40 -120,0 0,-16.00001 0,-2 -12,0 0,6 -4,0 0,-15.99999 4,0 0,5.99999 12,0 0,-2 z"/><text style="font-size:20px;font-family:Sans;text-anchor:start;fill:#000" id="text23-91" x="644" y="137.624"><tspan id="tspan25-2" x="664" y="163.624">re</tspan></text><path id="path21-6-7" d="m 614.99989,180.62411 120,0 0,40 -120,0 0,-16 0,-2 -12,0 0,6 -4,0 0,-16 4,0 0,6 12,0 0,-2 z" style="fill:#f0f;fill-opacity:1;stroke:#c700d3;stroke-width:2;stroke-linecap:round;stroke-opacity:1"/><text id="text23-9-0" x="650" y="179.624" style="font-size:20px;font-family:Sans;text-anchor:start;fill:#000"><tspan id="tspan25-8-9" x="670" y="205.624">4</tspan></text><path id="path3035-3" d="m 482.99989,70.624129 0,-8 c 0,-4.41828 3.58173,-8 8,-8 l 8,0 0,4 20,0 0,-4 18,0 110,0 8,0 c 4.41828,0 9.07159,3.71364 8,8 l 0,8 -8,0 0,-6 -8,0 0,20 8,0 0,-6 8,0 0,8 c 0,4.41828 -3.58172,8.000002 -8,8.000002 l -8,0 -110,0 -2,0 0,4 -16,0 0,-4 -2,0 -8,0 c -5.52284,0 -10,4.477153 -10,9.999999 l 0,8 0,92 0,7.99999 c 0,5.52285 4.64205,11.3395 10,10 l 8,0 0,4 20,0 0,-4 16,0 0,12 0,12 0,8 c 0,4.41828 -3.71364,9.0716 -8,8 l -8,0 -18,0 -2,0 0,4 -16,0 0,-4 -2,0 -8,0 c -4.41827,0 -8,-3.58172 -8,-8 l 0,-8 z" style="fill:#fd6600;fill-opacity:1;stroke:#ac3d00;stroke-width:2;stroke-linecap:round;stroke-opacity:1"/><text id="text3037-6" x="480" y="51.624" style="font-size:20px;font-family:Sans;text-anchor:start;fill:#000"><tspan id="tspan3039-0" x="488" y="82.124">valor de la nota</tspan></text><path id="path21-6-1-2" d="m 779,96.624134 120,0 0,39.999996 -120,0 0,-16 0,-2 -12,0 0,6 -4,0 0,-16 4,0 0,6 12,0 0,-2 z" style="fill:#f0f;fill-opacity:1;stroke:#c700d3;stroke-width:2;stroke-linecap:round;stroke-opacity:1"/><text id="text23-9-82-6" x="814" y="95.624" style="font-size:20px;font-family:Sans;text-anchor:start;fill:#000"><tspan id="tspan25-8-5-1" x="834" y="121.624">8</tspan></text><path id="path3798-4-4-5-7" d="m 665,70.624129 0,-8 a 8,8 0 0 1 8,-8 l 8,0 20,0 60,0 8,0 a 8,8 0 0 1 8,8 l 0,8 -8,0 0,-6 -8,0 0,20 8,0 0,-6 8,0 0,34.000001 -8,0 0,-6 -8,0 0,20 8,0 0,-6 8,0 0,8 a 8,8 0 0 1 -8,8 l -8,0 -60,0 -20,0 -8,0 a 8,8 0 0 1 -8,-8 l 0,-8 0,-42.000001 0,-2 -12,0 0,6 -4,0 0,-16 4,0 0,6 12,0 0,-2 z" style="fill:#f0f;fill-opacity:1;stroke:#c700d3;stroke-width:2;stroke-linecap:round;stroke-opacity:1"/><text id="text3800-3-2-0-9" x="640" y="53.624" style="font-size:28px;font-family:sans-serif;text-anchor:end;fill:#000"><tspan id="tspan3802-6-2-5-2" x="750" y="102.624">/</tspan></text><path id="path21-8-2-1-0-6-2" d="m 779,54.624129 120,0 0,40 -120,0 0,-16 0,-2 -12,0 0,6 -4,0 0,-16 4,0 0,6 12,0 0,-2 z" style="fill:#f0f;fill-opacity:1;stroke:#c700d3;stroke-width:2;stroke-linecap:round;stroke-opacity:1"/><text id="text23-0-1-0-1-0-3" x="811" y="55.624" style="font-size:20px;font-family:Sans;text-anchor:start;fill:#000"><tspan id="tspan25-7-0-5-2-5-7" x="831" y="81.624">1</tspan></text><path style="fill:#fd6600;fill-opacity:1;stroke:#ac3d00;stroke-width:2;stroke-linecap:round;stroke-opacity:1" id="path3124-5" d="m 500.99989,112.62413 0,-8 c 0,-4.41828 3.58172,-7.999999 8,-7.999999 l 8,0 0,3.999999 20,0 0,-3.999999 60,0 8,0 c 4.41828,0 8,3.581719 8,7.999999 l 0,8 0,8 0,8 c 0,4.41828 -3.71364,6.92841 -8,8 l -8,0 -60,0 -2,0 0,4 -16,0 0,-4 -2,0 -8,0 c -4.41828,0 -8,-3.58172 -8,-8 l 0,-8 0,0 z"/><text id="text6137-9" x="582.823" y="123.547" xml:space="preserve" style="font-style:normal;font-weight:400;font-size:16px;line-height:125%;font-family:sans-serif;text-align:center;letter-spacing:0;word-spacing:0;text-anchor:middle;fill:#000;fill-opacity:1;stroke:none;stroke-width:1px;stroke-linecap:butt;stroke-linejoin:miter;stroke-opacity:1"><tspan style="font-size:22.5px" id="tspan6139-2" x="582.823" y="123.547">↓</tspan></text></svg>