<svg xmlns="http://www.w3.org/2000/svg" xmlns:svg="http://www.w3.org/2000/svg" id="svg4075" width="808.533" height="1146.799" version="1.1" viewBox="0 0 758 1075.124"><metadata id="metadata4080"/><path id="path3660-4" d="m 1,29.56205 0,-8 c 0,-4.18879 3.8112098,-8 8,-8 l 8,0 10,-12.0000001 10,12.0000001 18,0 60,0 8,0 c 4.18879,0 8,3.81121 8,8 l 0,8 0,8 0,8 c 0,4.18879 -3.81121,8 -8,8 l -8,0 -60,0 -2,0 0,4 -16,0 0,-4 -2,0 -8,0 c -2.617994,0 -5.219867,1.077731 -7.071068,2.928932 C 18.077731,58.342183 17,60.944056 17,63.56205 l 0,8 0,931.99995 0,8 c 0,2.618 1.077731,5.2199 2.928932,7.0711 1.851201,1.8512 4.53124,3.5639 7.071068,2.9289 l 8,0 0,4 20,0 0,-4 16,0 0,12 0,12 0,8 c 0,4.1888 -3.936277,9.016 -8,8 l -8,0 -18,0 -10,12 -10,-12 -8,0 c -4.1887902,0 -8,-3.8112 -8,-8 l 0,-8 z" style="fill:#ffc000;fill-opacity:1;stroke:#c48d00;stroke-width:2;stroke-linecap:round;stroke-opacity:1"/><text id="text3662-8" x="0" y=".562" style="font-size:20px;font-family:Sans;text-anchor:start;fill:#000"><tspan id="tspan3664-5" x="8" y="43.562">iniciar</tspan></text><path style="fill:#ffc000;fill-opacity:1;stroke:#c48d00;stroke-width:2;stroke-linecap:round;stroke-opacity:1" id="path3058" d="m 19.000001,155.20367 0,-8 a 8,8 0 0 1 8,-8 l 8,0 0,4 20,0 0,-4 79.999999,0 8,0 a 8,8 0 0 1 8,8 l 0,8 0,8 0,8 a 8,8 0 0 1 -8,8 l -8,0 -79.999999,0 -2,0 0,4 -16,0 0,-4 -2,0 -8,0 a 8,8 0 0 1 -8,-8 l 0,-8 z"/><text style="font-size:20px;font-family:Sans;text-anchor:end;fill:#000" id="text3060" x="18" y="138.204"><tspan id="tspan3062" x="132" y="166.204">acción</tspan></text><path id="path3027-4" d="m 287,223.56205 0,-8 c 0,-4.18879 3.81121,-8 8,-8 l 8,0 10,-12 10,12 18,0 70,0 8,0 c 4.18879,0 8,3.81121 8,8 l 0,8 -8,0 0,-6 -8,0 0,20 8,0 0,-6 8,0 0,8 c 0,4.18879 -3.81121,8 -8,8 l -8,0 -70,0 -2,0 0,4 -16,0 0,-4 -2,0 -8,0 c -2.61799,0 -5.21987,1.07773 -7.07107,2.92893 -1.8512,1.8512 -2.92893,4.45307 -2.92893,7.07107 l 0,8 0,632.00003 0,8 c 0,2.61799 1.07773,5.21987 2.92893,7.07107 1.8512,1.8512 4.53125,2.29397 7.07107,2.92893 l 8,0 0,4 20,0 0,-4 16,0 0,12 0,12 0,8 c 0,4.18878 -3.93628,9.01593 -8,8 l -8,0 -18,0 -10,12 -10,-12 -8,0 c -4.18879,0 -8,-3.81122 -8,-8 l 0,-8 z" style="fill:#ffc000;fill-opacity:1;stroke:#c48d00;stroke-width:2;stroke-linecap:round;stroke-opacity:1"/><text id="text3029-4" x="285.945" y="192.273" style="font-size:20px;font-family:Sans;text-anchor:start;fill:#000"><tspan id="tspan3031-5" x="293.945" y="235.273">acción</tspan></text><path id="path21-2-0" d="m 429,207.56205 120,0 0,40 -120,0 0,-16 0,-2 -12,0 0,6 -4,0 0,-16 4,0 0,6 12,0 0,-2 z" style="fill:#7bbbb8;fill-opacity:1;stroke:#4c8585;stroke-width:2;stroke-linecap:round;stroke-opacity:1"/><text id="text23-2" x="435.218" y="206.018" style="font-size:20px;font-family:Sans;text-anchor:start;fill:#000"><tspan id="tspan25-1" x="455.218" y="232.018">acción</tspan></text><path id="path3035-7" d="m 323,307.56205 0,-8 c 0,-4.18879 3.81121,-8 8,-8 l 8,0 0,4 20,0 0,-4 18,0 40,0 8,0 c 4.18879,0 8,3.81121 8,8 l 0,8 -8,0 0,-6 -8,0 0,20 8,0 0,-6 8,0 0,8 c 0,4.18879 -3.81121,8 -8,8 l -8,0 -40,0 -2,0 0,4 -16,0 0,-4 -2,0 -8,0 c -2.61799,0 -5.21987,1.07773 -7.07107,2.92893 -1.8512,1.85121 -2.92893,4.45308 -2.92893,7.07107 l 0,8 0,172.00001 0,8 c 0,2.61799 1.07773,5.21987 2.92893,7.07107 1.8512,1.8512 4.53124,3.56389 7.07107,2.92893 l 8,0 0,4 20,0 0,-4 16,0 0,12 0,12 0,8 c 0,4.1888 -3.93628,6.98407 -8,8 l -8,0 -18,0 -2,0 0,4 -16,0 0,-4 -2,0 -8,0 c -4.18879,0 -8,-3.8112 -8,-8 l 0,-8 z" style="fill:#e37a00;fill-opacity:1;stroke:#a34600;stroke-width:2;stroke-linecap:round;stroke-opacity:1"/><text id="text3037-9" x="322" y="290.562" style="font-size:20px;font-family:Sans;text-anchor:start;fill:#000"><tspan id="tspan3039-4" x="330" y="321.062">repetir</tspan></text><path id="path21-8-61" d="m 435,291.56206 120,0 0,40 -120,0 0,-16 0,-2 -12,0 0,6 -4,0 0,-16 4,0 0,6 12,0 0,-2 z" style="fill:#f0f;fill-opacity:1;stroke:#c700d3;stroke-width:2;stroke-linecap:round;stroke-opacity:1"/><text id="text23-0-4" x="465" y="292.562" style="font-size:20px;font-family:Sans;text-anchor:start;fill:#000"><tspan id="tspan25-7-0" x="485" y="318.562">4</tspan></text><path style="fill:#00b700;fill-opacity:1;stroke:#007b00;stroke-width:2;stroke-linecap:round;stroke-opacity:1" id="path3035-23" d="m 305,265.20366 0,-8 c 0,-4.18879 3.81121,-8 8,-8 l 8,0 0,4 20,0 0,-4 18,0 174,0 8,0 c 4.18879,0 9.01593,3.93628 8,8 l 0,8 -8,0 0,-6 -8,0 0,20 8,0 0,-6 8,0 0,8 c 0,4.18879 -3.81121,8 -8,8 l -8,0 -174,0 -2,0 0,4 -16,0 0,-4 -2,0 -8,0 c -2.61799,0 -5.21987,1.07773 -7.07107,2.92893 -1.8512,1.8512 -2.92893,4.45308 -2.92893,7.07107 l 0,8 0,8 0,548.00002 c 0,2.61799 1.07773,5.21987 2.92893,7.07107 1.8512,1.8512 4.53124,2.29397 7.07107,2.92893 l 8,0 0,4 20,0 0,-4 16,0 0,12 0,12 0,8 c 0,4.18879 -3.93628,6.98407 -8,8 l -8,0 -18,0 -2,0 0,4 -16,0 0,-4 -2,0 -8,0 c -4.18879,0 -8,-3.81121 -8,-8 l 0,-8 z"/><text style="font-size:20px;font-family:Sans;text-anchor:start;fill:#000" id="text3037-1" x="304" y="246.204"><tspan id="tspan3039-7-3" x="312" y="276.704">ajustar transposición</tspan></text><path id="path3035-7-4" d="m 322.99997,597.20371 0,-8 c 0,-4.18879 3.81121,-8 8,-8 l 8,0 0,4 20,0 0,-4 18,0 40,0 8,0 c 4.18879,0 8,3.81121 8,8 l 0,8 -8,0 0,-6 -8,0 0,20 8,0 0,-6 8,0 0,8 c 0,4.18879 -3.81121,8 -8,8 l -8,0 -40,0 -2,0 0,4 -16,0 0,-4 -2,0 -8,0 c -2.61799,0 -5.21987,1.07773 -7.07107,2.92893 -1.8512,1.85121 -2.92893,4.45308 -2.92893,7.07107 l 0,8 0,174.00001 0,8 c 0,2.61799 1.07773,5.21987 2.92893,7.07107 1.8512,1.8512 4.53124,3.56389 7.07107,2.92893 l 8,0 0,4 20,0 0,-4 16,0 0,12 0,12 0,8 c 0,4.1888 -3.93628,6.98407 -8,8 l -8,0 -18,0 -2,0 0,4 -16,0 0,-4 -2,0 -8,0 c -4.18879,0 -8,-3.8112 -8,-8 l 0,-8 z" style="fill:#e37a00;fill-opacity:1;stroke:#a34600;stroke-width:2;stroke-linecap:round;stroke-opacity:1"/><text id="text3037-9-22" x="322" y="580.204" style="font-size:20px;font-family:Sans;text-anchor:start;fill:#000"><tspan id="tspan3039-4-6" x="330" y="610.704">repetir</tspan></text><path id="path21-8-61-4" d="m 434.99997,581.20372 120,0 0,40 -120,0 0,-16 0,-2 -12,0 0,6 -4,0 0,-16 4,0 0,6 12,0 0,-2 z" style="fill:#f0f;fill-opacity:1;stroke:#c700d3;stroke-width:2;stroke-linecap:round;stroke-opacity:1"/><text id="text23-0-4-6" x="465" y="582.204" style="font-size:20px;font-family:Sans;text-anchor:start;fill:#000"><tspan id="tspan25-7-0-3" x="485" y="608.204">2</tspan></text><path id="path4206-9" d="m 111.39004,43.035048 c -0.24354,0 -0.48399,-0.01591 -0.72092,-0.04546 l 0.61126,1.067795 0.60246,-1.051431 c -0.16339,0.01364 -0.32633,0.02909 -0.4928,0.02909 z" style="fill:#eee;stroke:#ff4100;stroke-width:1.75;stroke-linecap:round;stroke-linejoin:round;stroke-miterlimit:4;stroke-dasharray:none;stroke-opacity:1"/><path style="fill:#ff9452;fill-opacity:1;stroke:#ff4100;stroke-width:1.75;stroke-linecap:round;stroke-linejoin:round;stroke-miterlimit:4;stroke-dasharray:none;stroke-opacity:1" id="path4210-5" d="m 116.9667,26.418994 c -0.953,0 -1.74306,0.706863 -1.91261,1.63965 0.81868,0.611402 1.52243,1.415999 2.05882,2.367422 1.00629,-0.07819 1.80296,-0.936877 1.80296,-1.995581 0,-1.110979 -0.87286,-2.011491 -1.94917,-2.011491 z"/><path style="fill:#ff9452;fill-opacity:1;stroke:#ff4100;stroke-width:1.75;stroke-linecap:round;stroke-linejoin:round;stroke-miterlimit:4;stroke-dasharray:none;stroke-opacity:1" id="path4212-8" d="m 117.21024,39.220261 c -0.53904,1.01461 -1.25952,1.877846 -2.11255,2.525614 0.22944,0.847327 0.97458,1.472367 1.86901,1.472367 1.07587,0 1.94917,-0.900058 1.94917,-2.011037 0,-1.025065 -0.74558,-1.861936 -1.70563,-1.986944 z"/><path style="fill:#ff9452;fill-opacity:1;stroke:#ff4100;stroke-width:1.75;stroke-linecap:round;stroke-linejoin:round;stroke-miterlimit:4;stroke-dasharray:none;stroke-opacity:1" id="path4214-5-4" d="m 105.56633,39.212988 c -0.9922,0.09364 -1.77213,0.945059 -1.77213,1.994217 0,1.110525 0.87197,2.011037 1.94828,2.011037 0.90897,0 1.66644,-0.645496 1.88135,-1.514642 -0.82926,-0.643677 -1.53036,-1.495095 -2.0575,-2.490612 z"/><path style="fill:#ff9452;fill-opacity:1;stroke:#ff4100;stroke-width:1.75;stroke-linecap:round;stroke-linejoin:round;stroke-miterlimit:4;stroke-dasharray:none;stroke-opacity:1" id="path4216-2" d="m 107.6595,28.105919 c -0.15105,-0.955969 -0.9486,-1.686925 -1.91702,-1.686925 -1.07631,0 -1.94828,0.900512 -1.94828,2.011037 0,1.082796 0.83057,1.959215 1.86945,2.002854 0.5223,-0.928695 1.20315,-1.720109 1.99585,-2.326966 z"/><path id="path4218-2" d="m 111.39004,26.799473 c 0.84026,0 1.64177,0.18683 2.38603,0.51276 0.32633,-0.489122 0.51878,-1.080523 0.51878,-1.719655 0,-1.676015 -1.31632,-3.035192 -2.94048,-3.035192 -1.62372,0 -2.94005,1.359177 -2.94005,3.035192 0,0.649132 0.19906,1.249625 0.53552,1.742838 0.75923,-0.340476 1.57968,-0.535943 2.4402,-0.535943 z" style="fill:#ff9452;fill-opacity:1;stroke:#ff4100;stroke-width:1.75;stroke-linecap:round;stroke-linejoin:round;stroke-miterlimit:4;stroke-dasharray:none;stroke-opacity:1"/><path style="fill:#ff9452;fill-opacity:1;stroke:#ff4100;stroke-width:1.75;stroke-linecap:round;stroke-linejoin:round;stroke-miterlimit:4;stroke-dasharray:none;stroke-opacity:1" id="path4222-7" d="m 118.26233,34.91726 c 0,2.152137 -0.72453,4.218359 -2.01285,5.740137 -1.28831,1.521824 -3.0375,2.377651 -4.85944,2.377651 -1.82193,0 -3.57112,-0.855827 -4.85944,-2.377651 -1.28831,-1.521778 -2.01284,-3.588 -2.01284,-5.740137 0,-4.453282 3.10228,-8.117787 6.87228,-8.117787 3.77001,0 6.87229,3.664505 6.87229,8.117787 z"/><path style="fill:#ff4100;fill-opacity:1;stroke:none" id="path4226-0" d="m 110.67573,36.430538 -0.67908,-2.102406 1.39339,-1.175983 1.59201,1.193712 -0.65486,2.122407 z"/><path style="fill:#ff4100;fill-opacity:1;stroke:none" id="path4228-4" d="m 111.3918,39.976672 c -1.74746,-0.07273 -2.44108,-0.913239 -2.44108,-0.913239 l 1.5722,-1.892393 1.96634,0.07637 1.3793,1.872846 c 0,0 -1.27273,0.906421 -2.47676,0.856418 z"/><path style="fill:#ff4100;fill-opacity:1;stroke:none" id="path4230-0" d="m 107.40716,36.472814 c -0.37389,-1.349177 0.0757,-3.12929 0.0757,-3.12929 l 1.76156,0.985063 0.65751,2.104224 -1.57748,1.924213 c 0,-4.54e-4 -0.64517,-0.904603 -0.91733,-1.88421 z"/><path style="fill:#ff4100;fill-opacity:1;stroke:none" id="path4232-3" d="m 107.84975,32.509835 c 0,0 0.22019,-0.890056 1.33834,-1.737383 0.98516,-0.746865 1.96634,-0.781868 1.96634,-0.781868 l -0.0163,2.264235 -1.55061,1.250079 -1.73778,-0.995063 z"/><path style="fill:#ff4100;fill-opacity:1;stroke:none" id="path4234-7" d="m 113.41011,33.741277 -1.52331,-1.306901 0.16515,-2.367878 c 0,0 0.80767,-0.01909 1.7435,0.757776 0.98119,0.814142 1.48059,2.265143 1.48059,2.265143 l -1.86593,0.65186 z"/><path style="fill:#ff4100;fill-opacity:1;stroke:none" id="path4236-3" d="m 113.06132,36.563274 0.57823,-2.02922 1.84392,-0.698226 c 0,0 0.29814,1.210532 -0.0185,2.576073 -0.23781,1.025519 -0.91777,1.982398 -0.91777,1.982398 l -1.48588,-1.831025 z"/><path id="path21" d="m 18.999951,71.20371 0,-8 c 0,-4.418278 3.581722,-8 8,-8 l 8,0 0,4 20,0 0,-4 91.999999,0 8,0 c 4.41828,0 8,3.581722 8,8 l 0,8 -8,0 0,-6 -8,0 0,20 8,0 0,-6 8,0 0,34 -8,0 0,-6 -8,0 0,20 8,0 0,-6 8,0 0,8 c 0,4.41828 -3.58172,8 -8,8 l -8,0 -91.999999,0 -2,0 0,4 -16,0 0,-4 -2,0 -8,0 c -4.418278,0 -8,-3.58172 -8,-8 l 0,-8 0,-42 z" style="fill:#fd6600;fill-opacity:1;stroke:#ac3d00;stroke-width:2;stroke-linecap:round;stroke-opacity:1"/><text id="text23" x="32" y="54.204" style="font-size:20px;font-family:Sans;text-anchor:end;fill:#000"><tspan id="tspan25" x="142" y="103.204">guardar en</tspan></text><text id="text27" x="32" y="56.204" style="font-size:13.33333302px;font-family:Sans;text-anchor:end;fill:#000"><tspan id="tspan29" x="142" y="78.704">nombre</tspan></text><text id="text31" x="32" y="58.204" style="font-size:13.33333302px;font-family:Sans;text-anchor:end;fill:#000"><tspan id="tspan33" x="142" y="122.704">valor</tspan></text><path style="fill:#7bbbb8;fill-opacity:1;stroke:#4c8585;stroke-width:2;stroke-linecap:round;stroke-opacity:1" id="path21-2-0-6" d="m 164.99995,54.82976 120,0 0,40 -120,0 0,-16 0,-2 -12,0 0,6 -4,0 0,-16 4,0 0,6 12,0 0,-2 z"/><text style="font-size:20px;font-family:Sans;text-anchor:start;fill:#000" id="text23-2-0" x="171.218" y="53.286"><tspan id="tspan25-1-8" x="191.218" y="79.286">caja</tspan></text><path style="fill:#f0f;fill-opacity:1;stroke:#c700d3;stroke-width:2;stroke-linecap:round;stroke-opacity:1" id="path21-6-72-7" d="m 164.99994,96.829778 120,0 0,40.000002 -120,0 0,-16 0,-2 -12,0 0,6 -4,0 0,-16 4,0 0,6 12,0 0,-2 z"/><text style="font-size:20px;font-family:Sans;text-anchor:start;fill:#000" id="text23-9-5-5" x="200" y="95.83"><tspan id="tspan25-8-7-0" x="220" y="121.83">0</tspan></text><path id="path3172" d="m 133.00001,307.2037 120,0 0,40 -120,0 0,-16 0,-2 -12,0 0,6 -4,0 0,-16 4,0 0,6 12,0 0,-2 z" style="fill:#fd6600;fill-opacity:1;stroke:#ac3d00;stroke-width:2;stroke-linecap:round;stroke-opacity:1"/><text id="text3174" x="116" y="306.204" style="font-size:20px;font-family:Sans;text-anchor:start;fill:#000"><tspan id="tspan3176" x="136" y="332.204">caja</tspan></text><path id="path3124" d="m 19.000001,323.2037 0,-8 a 8,8 0 0 1 8,-8 l 8,0 0,4 20,0 0,-4 59.999999,0 8,0 a 8,8 0 0 1 8,8 l 0,8 -8,0 0,-6 -8,0 0,20 8,0 0,-6 8,0 0,34 -8,0 0,-6 -8,0 0,20 8,0 0,-6 8,0 0,8 a 8,8 0 0 1 -8,8 l -8,0 -59.999999,0 -2,0 0,4 -16,0 0,-4 -2,0 -8,0 a 8,8 0 0 1 -8,-8 l 0,-8 0,-42 0,-8 z" style="fill:#fd6600;fill-opacity:1;stroke:#ac3d00;stroke-width:2;stroke-linecap:round;stroke-opacity:1"/><text id="text3126" x="18" y="306.204" style="font-size:20px;font-family:Sans;text-anchor:end;fill:#000"><tspan id="tspan3128" x="112" y="355.204">sumar</tspan></text><text id="text3130" x="18" y="308.204" style="font-size:13.33333302px;font-family:Sans;text-anchor:end;fill:#000"><tspan id="tspan3132" x="112" y="330.704">para</tspan></text><text id="text3134" x="18" y="310.204" style="font-size:13.33333302px;font-family:Sans;text-anchor:end;fill:#000"><tspan id="tspan3136" x="112" y="374.704">valor</tspan></text><path style="fill:#f0f;fill-opacity:1;stroke:#c700d3;stroke-width:2;stroke-linecap:round;stroke-opacity:1" id="path21-6-72-7-7-0" d="m 133.00001,349.2037 120,0 0,40 -120,0 0,-16 0,-2 -12,0 0,6 -4,0 0,-16 4,0 0,6 12,0 0,-2 z"/><text style="font-size:20px;font-family:Sans;text-anchor:start;fill:#000" id="text23-9-5-5-0-2" x="168" y="348.204"><tspan id="tspan25-8-7-0-3-4" x="188" y="374.204">2</tspan></text><path style="fill:#ffc000;fill-opacity:1;stroke:#c48d00;stroke-width:2;stroke-linecap:round;stroke-opacity:1" id="path3058-23" d="m 19.000081,407.20373 0,-8 a 8,8 0 0 1 8,-8 l 8,0 0,4 19.999998,0 0,-4 80.000001,0 8,0 a 8,8 0 0 1 8,8 l 0,8 0,8 0,8 a 8,8 0 0 1 -8,8 l -8,0 -80.000001,0 -1.999998,0 0,4 -16,0 0,-4 -2,0 -8,0 a 8,8 0 0 1 -8,-8 l 0,-8 z"/><text style="font-size:20px;font-family:Sans;text-anchor:end;fill:#000" id="text3060-40" x="18" y="390.204"><tspan id="tspan3062-0" x="132" y="418.204">acción</tspan></text><path id="path3172-5" d="m 133.00001,181.20368 120,0 0,40 -120,0 0,-16 0,-2 -12,0 0,6 -4,0 0,-16 4,0 0,6 12,0 0,-2 z" style="fill:#fd6600;fill-opacity:1;stroke:#ac3d00;stroke-width:2;stroke-linecap:round;stroke-opacity:1"/><text id="text3174-0" x="116" y="180.204" style="font-size:20px;font-family:Sans;text-anchor:start;fill:#000"><tspan id="tspan3176-5" x="136" y="206.204">caja</tspan></text><path id="path3124-2" d="m 19.000001,197.20368 0,-8 a 8,8 0 0 1 8,-8 l 8,0 0,4 20,0 0,-4 59.999999,0 8,0 a 8,8 0 0 1 8,8 l 0,8 -8,0 0,-6 -8,0 0,20 8,0 0,-6 8,0 0,34 -8,0 0,-6 -8,0 0,20 8,0 0,-6 8,0 0,8 a 8,8 0 0 1 -8,8 l -8,0 -59.999999,0 -2,0 0,4 -16,0 0,-4 -2,0 -8,0 a 8,8 0 0 1 -8,-8 l 0,-8 0,-42 0,-8 z" style="fill:#fd6600;fill-opacity:1;stroke:#ac3d00;stroke-width:2;stroke-linecap:round;stroke-opacity:1"/><text id="text3126-7" x="18" y="180.204" style="font-size:20px;font-family:Sans;text-anchor:end;fill:#000"><tspan id="tspan3128-1" x="112" y="229.204">sumar</tspan></text><text id="text3130-2" x="18" y="182.204" style="font-size:13.33333302px;font-family:Sans;text-anchor:end;fill:#000"><tspan id="tspan3132-9" x="112" y="204.704">para</tspan></text><text id="text3134-4" x="18" y="184.204" style="font-size:13.33333302px;font-family:Sans;text-anchor:end;fill:#000"><tspan id="tspan3136-5" x="112" y="248.704">valor</tspan></text><path style="fill:#f0f;fill-opacity:1;stroke:#c700d3;stroke-width:2;stroke-linecap:round;stroke-opacity:1" id="path21-6-72-7-7-0-3" d="m 133.00001,223.20368 120,0 0,40 -120,0 0,-16 0,-2 -12,0 0,6 -4,0 0,-16 4,0 0,6 12,0 0,-2 z"/><text style="font-size:20px;font-family:Sans;text-anchor:start;fill:#000" id="text23-9-5-5-0-2-9" x="168" y="222.204"><tspan id="tspan25-8-7-0-3-4-9" x="188" y="248.204">7</tspan></text><path style="fill:#ffc000;fill-opacity:1;stroke:#c48d00;stroke-width:2;stroke-linecap:round;stroke-opacity:1" id="path3058-23-7" d="m 19.000081,281.20371 0,-8 a 8,8 0 0 1 8,-8 l 8,0 0,4 19.999998,0 0,-4 80.000001,0 8,0 a 8,8 0 0 1 8,8 l 0,8 0,8 0,8 a 8,8 0 0 1 -8,8 l -8,0 -80.000001,0 -1.999998,0 0,4 -16,0 0,-4 -2,0 -8,0 a 8,8 0 0 1 -8,-8 l 0,-8 z"/><text style="font-size:20px;font-family:Sans;text-anchor:end;fill:#000" id="text3060-40-0" x="18" y="264.204"><tspan id="tspan3062-0-1" x="132" y="292.204">acción</tspan></text><path id="path3035" d="m 18.999991,449.20369 0,-8 c 0,-4.18879 3.81121,-8 8,-8 l 8,0 0,4 20,0 0,-4 18,0 39.999999,0 8,0 c 4.18879,0 8,3.81121 8,8 l 0,8 -8,0 0,-6 -8,0 0,20 8,0 0,-6 8,0 0,8 c 0,4.18879 -3.81121,8 -8,8 l -8,0 -39.999999,0 -2,0 0,4 -16,0 0,-4 -2,0 -8,0 c -2.61799,0 -5.21987,1.07773 -7.07107,2.92893 -1.8512,1.85121 -2.92893,4.45308 -2.92893,7.07107 l 0,8 0,92.00001 0,8 c 0,2.61799 1.07773,5.21987 2.92893,7.07107 1.8512,1.85119 4.53124,3.56389 7.07107,2.92893 l 8,0 0,4 20,0 0,-4 16,0 0,12 0,12 0,8 c 0,4.1888 -3.93628,6.98407 -8,8 l -8,0 -18,0 -2,0 0,4 -16,0 0,-4 -2,0 -8,0 c -4.18879,0 -8,-3.8112 -8,-8 l 0,-8 z" style="fill:#e37a00;fill-opacity:1;stroke:#a34600;stroke-width:2;stroke-linecap:round;stroke-opacity:1"/><text id="text3037" x="18.469" y="431.884" style="font-size:20px;font-family:Sans;text-anchor:start;fill:#000"><tspan id="tspan3039" x="26.469" y="462.384">repetir</tspan></text><path id="path21-8" d="m 131.46881,432.88399 120,0 0,40 -120,0 0,-16 0,-2 -12,0 0,6 -4,0 0,-16 4,0 0,6 12,0 0,-2 z" style="fill:#f0f;fill-opacity:1;stroke:#c700d3;stroke-width:2;stroke-linecap:round;stroke-opacity:1"/><text id="text23-0" x="161.469" y="433.884" style="font-size:20px;font-family:Sans;text-anchor:start;fill:#000"><tspan id="tspan25-7" x="181.469" y="459.884">2</tspan></text><path id="path3172-0" d="m 151.00001,475.20367 120,0 0,40 -120,0 0,-16 0,-2 -12,0 0,6 -4,0 0,-16 4,0 0,6 12,0 0,-2 z" style="fill:#fd6600;fill-opacity:1;stroke:#ac3d00;stroke-width:2;stroke-linecap:round;stroke-opacity:1"/><text id="text3174-9" x="134" y="474.204" style="font-size:20px;font-family:Sans;text-anchor:start;fill:#000"><tspan id="tspan3176-6" x="154" y="500.204">caja</tspan></text><path id="path3124-6" d="m 37.000001,491.20367 0,-8 a 8,8 0 0 1 8,-8 l 8,0 0,4 20,0 0,-4 59.999999,0 8,0 a 8,8 0 0 1 8,8 l 0,8 -8,0 0,-6 -8,0 0,20 8,0 0,-6 8,0 0,34 -8,0 0,-6 -8,0 0,20 8,0 0,-6 8,0 0,8 a 8,8 0 0 1 -8,8 l -8,0 -59.999999,0 -2,0 0,4 -16,0 0,-4 -2,0 -8,0 a 8,8 0 0 1 -8,-8 l 0,-8 0,-42 0,-8 z" style="fill:#fd6600;fill-opacity:1;stroke:#ac3d00;stroke-width:2;stroke-linecap:round;stroke-opacity:1"/><text id="text3126-9" x="36" y="474.204" style="font-size:20px;font-family:Sans;text-anchor:end;fill:#000"><tspan id="tspan3128-8" x="130" y="523.204">sumar</tspan></text><text id="text3130-8" x="36" y="476.204" style="font-size:13.33333302px;font-family:Sans;text-anchor:end;fill:#000"><tspan id="tspan3132-4" x="130" y="498.704">para</tspan></text><text id="text3134-0" x="36" y="478.204" style="font-size:13.33333302px;font-family:Sans;text-anchor:end;fill:#000"><tspan id="tspan3136-4" x="130" y="542.704">valor</tspan></text><path style="fill:#f0f;fill-opacity:1;stroke:#c700d3;stroke-width:2;stroke-linecap:round;stroke-opacity:1" id="path21-6-72-7-7-0-2" d="m 151.00001,517.20367 120,0 0,40 -120,0 0,-16 0,-2 -12,0 0,6 -4,0 0,-16 4,0 0,6 12,0 0,-2 z"/><text style="font-size:20px;font-family:Sans;text-anchor:start;fill:#000" id="text23-9-5-5-0-2-3" x="186" y="516.204"><tspan id="tspan25-8-7-0-3-4-3" x="206" y="542.204">-2</tspan></text><path style="fill:#ffc000;fill-opacity:1;stroke:#c48d00;stroke-width:2;stroke-linecap:round;stroke-opacity:1" id="path3058-23-2" d="m 37.000081,575.2037 0,-8 a 8,8 0 0 1 8,-8 l 8,0 0,4 19.999998,0 0,-4 80.000001,0 8,0 a 8,8 0 0 1 8,8 l 0,8 0,8 0,8 a 8,8 0 0 1 -8,8 l -8,0 -80.000001,0 -1.999998,0 0,4 -16,0 0,-4 -2,0 -8,0 a 8,8 0 0 1 -8,-8 l 0,-8 z"/><text style="font-size:20px;font-family:Sans;text-anchor:end;fill:#000" id="text3060-40-7" x="36" y="558.204"><tspan id="tspan3062-0-17" x="150" y="586.204">acción</tspan></text><path id="path3035-18" d="m 18.999991,785.20371 0,-8 c 0,-4.18879 3.81121,-8 8,-8 l 8,0 0,4 20,0 0,-4 18,0 39.999999,0 8,0 c 4.18879,0 8,3.81121 8,8 l 0,8 -8,0 0,-6 -8,0 0,20 8,0 0,-6 8,0 0,8 c 0,4.18879 -3.81121,8 -8,8 l -8,0 -39.999999,0 -2,0 0,4 -16,0 0,-4 -2,0 -8,0 c -2.61799,0 -5.21987,1.07773 -7.07107,2.92893 -1.8512,1.85121 -2.92893,4.45308 -2.92893,7.07107 l 0,8 0,92 0,8 c 0,2.61799 1.07773,5.21988 2.92893,7.07107 1.8512,1.8512 4.53124,3.56389 7.07107,2.92893 l 8,0 0,4 20,0 0,-4 16,0 0,12 0,12.00001 0,8 c 0,4.1888 -3.93628,6.98407 -8,8 l -8,0 -18,0 -2,0 0,4 -16,0 0,-4 -2,0 -8,0 c -4.18879,0 -8,-3.8112 -8,-8 l 0,-8 z" style="fill:#e37a00;fill-opacity:1;stroke:#a34600;stroke-width:2;stroke-linecap:round;stroke-opacity:1"/><text id="text3037-5" x="18.469" y="767.884" style="font-size:20px;font-family:Sans;text-anchor:start;fill:#000"><tspan id="tspan3039-00" x="26.469" y="798.384">repetir</tspan></text><path id="path21-8-6" d="m 131.46881,768.88401 120,0 0,40 -120,0 0,-16 0,-2 -12,0 0,6 -4,0 0,-16 4,0 0,6 12,0 0,-2 z" style="fill:#f0f;fill-opacity:1;stroke:#c700d3;stroke-width:2;stroke-linecap:round;stroke-opacity:1"/><text id="text23-0-5" x="161.469" y="769.884" style="font-size:20px;font-family:Sans;text-anchor:start;fill:#000"><tspan id="tspan25-7-5" x="181.469" y="795.884">2</tspan></text><path id="path3172-0-0" d="m 151.00001,811.20369 120,0 0,40 -120,0 0,-16 0,-2 -12,0 0,6 -4,0 0,-16 4,0 0,6 12,0 0,-2 z" style="fill:#fd6600;fill-opacity:1;stroke:#ac3d00;stroke-width:2;stroke-linecap:round;stroke-opacity:1"/><text id="text3174-9-3" x="134" y="810.204" style="font-size:20px;font-family:Sans;text-anchor:start;fill:#000"><tspan id="tspan3176-6-1" x="154" y="836.204">caja</tspan></text><path id="path3124-6-2" d="m 37.000001,827.20369 0,-8 a 8,8 0 0 1 8,-8 l 8,0 0,4 20,0 0,-4 59.999999,0 8,0 a 8,8 0 0 1 8,8 l 0,8 -8,0 0,-6 -8,0 0,20 8,0 0,-6 8,0 0,34 -8,0 0,-6 -8,0 0,20 8,0 0,-6 8,0 0,8 a 8,8 0 0 1 -8,8 l -8,0 -59.999999,0 -2,0 0,4 -16,0 0,-4 -2,0 -8,0 a 8,8 0 0 1 -8,-8 l 0,-8 0,-42 0,-8 z" style="fill:#fd6600;fill-opacity:1;stroke:#ac3d00;stroke-width:2;stroke-linecap:round;stroke-opacity:1"/><text id="text3126-9-9" x="36" y="810.204" style="font-size:20px;font-family:Sans;text-anchor:end;fill:#000"><tspan id="tspan3128-8-9" x="130" y="859.204">sumar</tspan></text><text id="text3130-8-8" x="36" y="812.204" style="font-size:13.33333302px;font-family:Sans;text-anchor:end;fill:#000"><tspan id="tspan3132-4-9" x="130" y="834.704">para</tspan></text><text id="text3134-0-5" x="36" y="814.204" style="font-size:13.33333302px;font-family:Sans;text-anchor:end;fill:#000"><tspan id="tspan3136-4-0" x="130" y="878.704">valor</tspan></text><path style="fill:#f0f;fill-opacity:1;stroke:#c700d3;stroke-width:2;stroke-linecap:round;stroke-opacity:1" id="path21-6-72-7-7-0-2-8" d="m 151.00001,853.20369 120,0 0,40 -120,0 0,-16 0,-2 -12,0 0,6 -4,0 0,-16 4,0 0,6 12,0 0,-2 z"/><text style="font-size:20px;font-family:Sans;text-anchor:start;fill:#000" id="text23-9-5-5-0-2-3-3" x="186" y="852.204"><tspan id="tspan25-8-7-0-3-4-3-8" x="206" y="878.204">-2</tspan></text><path style="fill:#ffc000;fill-opacity:1;stroke:#c48d00;stroke-width:2;stroke-linecap:round;stroke-opacity:1" id="path3058-23-2-0" d="m 37.000081,911.20372 0,-8 a 8,8 0 0 1 8,-8 l 8,0 0,4 19.999998,0 0,-4 80.000001,0 8,0 a 8,8 0 0 1 8,8 l 0,8 0,8 0,8 a 8,8 0 0 1 -8,8 l -8,0 -80.000001,0 -1.999998,0 0,4 -16,0 0,-4 -2,0 -8,0 a 8,8 0 0 1 -8,-8 l 0,-8 z"/><text style="font-size:20px;font-family:Sans;text-anchor:end;fill:#000" id="text3060-40-7-1" x="36" y="894.204"><tspan id="tspan3062-0-17-0" x="150" y="922.204">acción</tspan></text><path id="path3172-2" d="m 133,643.20368 120,0 0,40 -120,0 0,-16 0,-2 -12,0 0,6 -4,0 0,-16 4,0 0,6 12,0 0,-2 z" style="fill:#fd6600;fill-opacity:1;stroke:#ac3d00;stroke-width:2;stroke-linecap:round;stroke-opacity:1"/><text id="text3174-06" x="116" y="642.204" style="font-size:20px;font-family:Sans;text-anchor:start;fill:#000"><tspan id="tspan3176-0" x="136" y="668.204">caja</tspan></text><path id="path3124-24" d="m 18.999991,659.20368 0,-8 a 8,8 0 0 1 8,-8 l 8,0 0,4 20,0 0,-4 59.999999,0 8,0 a 8,8 0 0 1 8,8 l 0,8 -8,0 0,-6 -8,0 0,20 8,0 0,-6 8,0 0,34 -8,0 0,-6 -8,0 0,20 8,0 0,-6 8,0 0,8 a 8,8 0 0 1 -8,8 l -8,0 -59.999999,0 -2,0 0,4 -16,0 0,-4 -2,0 -8,0 a 8,8 0 0 1 -8,-8 l 0,-8 0,-42 0,-8 z" style="fill:#fd6600;fill-opacity:1;stroke:#ac3d00;stroke-width:2;stroke-linecap:round;stroke-opacity:1"/><text id="text3126-2" x="18" y="642.204" style="font-size:20px;font-family:Sans;text-anchor:end;fill:#000"><tspan id="tspan3128-3" x="112" y="691.204">sumar</tspan></text><text id="text3130-24" x="18" y="644.204" style="font-size:13.33333302px;font-family:Sans;text-anchor:end;fill:#000"><tspan id="tspan3132-41" x="112" y="666.704">para</tspan></text><text id="text3134-5" x="18" y="646.204" style="font-size:13.33333302px;font-family:Sans;text-anchor:end;fill:#000"><tspan id="tspan3136-3" x="112" y="710.704">valor</tspan></text><path style="fill:#f0f;fill-opacity:1;stroke:#c700d3;stroke-width:2;stroke-linecap:round;stroke-opacity:1" id="path21-6-72-7-7-0-5" d="m 133,685.20368 120,0 0,40 -120,0 0,-16 0,-2 -12,0 0,6 -4,0 0,-16 4,0 0,6 12,0 0,-2 z"/><text style="font-size:20px;font-family:Sans;text-anchor:start;fill:#000" id="text23-9-5-5-0-2-95" x="168" y="684.204"><tspan id="tspan25-8-7-0-3-4-97" x="188" y="710.204">-1</tspan></text><path style="fill:#ffc000;fill-opacity:1;stroke:#c48d00;stroke-width:2;stroke-linecap:round;stroke-opacity:1" id="path3058-23-1" d="m 19.000071,743.20371 0,-8 a 8,8 0 0 1 8,-8 l 8,0 0,4 19.999998,0 0,-4 80.000001,0 8,0 a 8,8 0 0 1 8,8 l 0,8 0,8 0,8 a 8,8 0 0 1 -8,8 l -8,0 -80.000001,0 -1.999998,0 0,4 -16,0 0,-4 -2,0 -8,0 a 8,8 0 0 1 -8,-8 l 0,-8 z"/><text style="font-size:20px;font-family:Sans;text-anchor:end;fill:#000" id="text3060-40-00" x="18" y="726.204"><tspan id="tspan3062-0-6" x="132" y="754.204">acción</tspan></text><path id="path21-5" d="m 18.99997,995.20376 0,-8 c 0,-4.41828 3.581722,-8 8,-8 l 8,0 0,4 20,0 0,-4 214,0 8,0 c 4.41828,0 8,3.58172 8,8 l 0,8 -8,0 0,-6 -8,0 0,20.00004 8,0 0,-6 8,0 0,8 c 0,4.4182 -3.58172,8 -8,8 l -8,0 -214,0 -2,0 0,4 -16,0 0,-4 -2,0 -8,0 c -4.418278,0 -8,-3.5818 -8,-8 l 0,-8 z" style="fill:#1d8989;fill-opacity:1;stroke:#005459;stroke-width:2;stroke-linecap:round;stroke-opacity:1"/><text id="text23-8" x="168" y="978.204" style="font-size:20px;font-family:Sans;text-anchor:end;fill:#000"><tspan id="tspan25-6" x="262" y="1006.204">guardar como lilypond</tspan></text><path id="path21-2-0-9" d="m 287.00002,979.20376 140,0 0,40.00004 -140,0 0,-16 0,-2 -12,0 0,6 -4,0 0,-16.00004 4,0 0,6 12,0 0,-2 z" style="fill:#7bbbb8;fill-opacity:1;stroke:#4c8585;stroke-width:2;stroke-linecap:round;stroke-opacity:1"/><text id="text23-2-5" x="293.218" y="977.66" style="font-size:20px;font-family:Sans;text-anchor:start;fill:#000"><tspan id="tspan25-1-6" x="313.218" y="1003.66">hotdog.ly</tspan></text><path id="path3172-5-0" d="m 551,249.20402 120,0 0,40 -120,0 0,-16 0,-2 -12,0 0,6 -4,0 0,-16 4,0 0,6 12,0 0,-2 z" style="fill:#fd6600;fill-opacity:1;stroke:#ac3d00;stroke-width:2;stroke-linecap:round;stroke-opacity:1"/><text id="text3174-0-0" x="534" y="248.204" style="font-size:20px;font-family:Sans;text-anchor:start;fill:#000"><tspan id="tspan3176-5-1" x="554" y="274.204">caja</tspan></text><path id="path3194-2" d="m 358.99999,432.124 0,-8.00001 a 8.0000007,8.0000006 0 0 1 8,-8 l 8,0 0,4 20,0 0,-4 59.99999,0 8.00002,0 a 8.0000007,8.0000006 0 0 1 8,8 l 0,8.00001 -8,0 0,-6.00001 -8.00002,0 0,20.00001 8.00002,0 0,-6 8,0 0,34 -8,0 0,-5.99999 -8.00002,0 0,19.99999 8.00002,0 0,-6 8,0 0,8 a 8.0000007,8.0000006 0 0 1 -8,8 l -8.00002,0 -59.99999,0 -2,0 0,4 -16,0 0,-4 -2,0 -8,0 a 8.0000007,8.0000006 0 0 1 -8,-8 l 0,-8 0,-42 0,-8 z" style="fill:#00b700;fill-opacity:1;stroke:#007b00;stroke-width:2;stroke-linecap:round;stroke-opacity:1"/><text id="text3196-91" x="358" y="415.124" style="font-size:20px;font-family:Sans;text-anchor:end;fill:#000"><tspan id="tspan3198-2" x="452" y="464.124">tono</tspan></text><text id="text3200-7" x="358" y="417.124" style="font-size:13.33333302px;font-family:Sans;text-anchor:end;fill:#000"><tspan id="tspan3202-0" x="452" y="439.624">nota</tspan></text><text id="text3204-93" x="358" y="419.124" style="font-size:13.33333302px;font-family:Sans;text-anchor:end;fill:#000"><tspan id="tspan3206-6-1" x="452" y="483.624">octava</tspan></text><path style="fill:#00b700;fill-opacity:1;stroke:#007b00;stroke-width:2;stroke-linecap:round;stroke-opacity:1" id="path21-0" d="m 473,416.12399 120,0 0,40.00002 -120,0 0,-16.00001 0,-2 -12,0 0,6 -4.00002,0 0,-16.00001 4.00002,0 0,6.00001 12,0 0,-2 z"/><text style="font-size:20px;font-family:Sans;text-anchor:start;fill:#000" id="text23-6" x="500" y="415.124"><tspan id="tspan25-2" x="520" y="441.124">do</tspan></text><path id="path21-6-6" d="m 473,458.124 120,0 0,40 -120,0 0,-16 0,-2 -12,0 0,6 -4.00002,0 0,-16 4.00002,0 0,6 12,0 0,-2 z" style="fill:#f0f;fill-opacity:1;stroke:#c700d3;stroke-width:2;stroke-linecap:round;stroke-opacity:1"/><text id="text23-9-1" x="508" y="457.124" style="font-size:20px;font-family:Sans;text-anchor:start;fill:#000"><tspan id="tspan25-8-8" x="528" y="483.124">4</tspan></text><path id="path3035-5" d="m 340.99998,348.12401 0,-8 c 0,-4.41828 3.58173,-8 8.00001,-8 l 8,0 0,4 20,0 0,-4 18,0 109.99999,0 8.00002,0 c 4.41827,0 9.07158,3.71364 8,8 l 0,8 -8,0 0,-6 -8.00002,0 0,20 8.00002,0 0,-6 8,0 0,8 c 0,4.41828 -3.58173,8 -8,8 l -8.00002,0 -109.99999,0 -2,0 0,4 -16,0 0,-4 -2,0 -8,0 c -5.52285,0 -10,4.47715 -10,10 l 0,8 0,92.00001 0,7.99999 c 0,5.52285 4.64205,11.3395 10,10 l 8,0 0,4 20,0 0,-4 16,0 0,12 0,12 0,8 c 0,4.41828 -3.71364,9.07161 -8,8.00001 l -8,0 -18,0 -2,0 0,4 -16,0 0,-4 -2,0 -8,0 c -4.41828,0 -8.00001,-3.58173 -8.00001,-8.00001 l 0,-8 z" style="fill:#fd6600;fill-opacity:1;stroke:#ac3d00;stroke-width:2;stroke-linecap:round;stroke-opacity:1"/><text id="text3037-3" x="338" y="329.124" style="font-size:20px;font-family:Sans;text-anchor:start;fill:#000"><tspan id="tspan3039-5" x="346" y="359.624">valor de la nota</tspan></text><path id="path21-6-1-7" d="m 637.00005,374.12401 120.00002,0 0,40 -120.00002,0 0,-16 0,-2 -12,0 0,6 -4,0 0,-16 4,0 0,6 12,0 0,-2 z" style="fill:#f0f;fill-opacity:1;stroke:#c700d3;stroke-width:2;stroke-linecap:round;stroke-opacity:1"/><text id="text23-9-82-9" x="668" y="373.124" style="font-size:20px;font-family:Sans;text-anchor:start;fill:#000"><tspan id="tspan25-8-5-2" x="688" y="399.124">8</tspan></text><path id="path3798-4-4-5" d="m 523.00005,348.12401 0,-8 a 8.0000007,8.0000006 0 0 1 8,-8 l 8,0 20,0 60,0 8,0 a 8.0000007,8.0000006 0 0 1 8,8 l 0,8 -8,0 0,-6 -8,0 0,20 8,0 0,-6 8,0 0,34 -8,0 0,-6 -8,0 0,20 8,0 0,-6 8,0 0,8 a 8.0000007,8.0000006 0 0 1 -8,8 l -8,0 -60,0 -20,0 -8,0 a 8.0000007,8.0000006 0 0 1 -8,-8 l 0,-8 0,-42 0,-2 -12,0 0,6 -4.00002,0 0,-16 4.00002,0 0,6 12,0 0,-2 z" style="fill:#f0f;fill-opacity:1;stroke:#c700d3;stroke-width:2;stroke-linecap:round;stroke-opacity:1"/><text id="text3800-3-2-0" x="498" y="331.124" style="font-size:28px;font-family:sans-serif;text-anchor:end;fill:#000"><tspan id="tspan3802-6-2-5" x="608" y="380.124">/</tspan></text><path id="path21-8-2-1-0-6" d="m 637.00003,332.124 120,0 0,40 -120,0 0,-16 0,-2 -12,0 0,6 -4,0 0,-16 4,0 0,6 12,0 0,-2 z" style="fill:#f0f;fill-opacity:1;stroke:#c700d3;stroke-width:2;stroke-linecap:round;stroke-opacity:1"/><text id="text23-0-1-0-1-0" x="669" y="333.124" style="font-size:20px;font-family:Sans;text-anchor:start;fill:#000"><tspan id="tspan25-7-0-5-2-5" x="689" y="359.124">1</tspan></text><path style="fill:#fd6600;fill-opacity:1;stroke:#ac3d00;stroke-width:2;stroke-linecap:round;stroke-opacity:1" id="path3124-5" d="m 358.99999,390.12401 0,-8 c 0,-4.41828 3.58172,-8 8,-8 l 8,0 0,4 20,0 0,-4 59.99999,0 8.00002,0 c 4.41827,0 8,3.58172 8,8 l 0,8 0,8 0,8 c 0,4.41828 -3.71365,6.92841 -8,8 l -8.00002,0 -59.99999,0 -2,0 0,4 -16,0 0,-4 -2,0 -8,0 c -4.41828,0 -8,-3.58172 -8,-8 l 0,-8 0,0 z"/><text id="text6137" x="440.823" y="401.047" xml:space="preserve" style="font-style:normal;font-weight:400;font-size:16px;line-height:125%;font-family:sans-serif;text-align:center;letter-spacing:0;word-spacing:0;text-anchor:middle;fill:#000;fill-opacity:1;stroke:none;stroke-width:1px;stroke-linecap:butt;stroke-linejoin:miter;stroke-opacity:1"><tspan style="font-size:22.5px" id="tspan6139" x="440.823" y="401.047">↓</tspan></text><path id="path3194-2-9" d="m 358.99999,722.124 0,-8.00001 a 8.0000007,8.0000006 0 0 1 8,-8 l 8,0 0,4 20,0 0,-4 59.99999,0 8.00002,0 a 8.0000007,8.0000006 0 0 1 8,8 l 0,8.00001 -8,0 0,-6.00001 -8.00002,0 0,20.00001 8.00002,0 0,-6 8,0 0,34 -8,0 0,-5.99999 -8.00002,0 0,19.99999 8.00002,0 0,-6 8,0 0,8 a 8.0000007,8.0000006 0 0 1 -8,8 l -8.00002,0 -59.99999,0 -2,0 0,4 -16,0 0,-4 -2,0 -8,0 a 8.0000007,8.0000006 0 0 1 -8,-8 l 0,-8 0,-42 0,-8 z" style="fill:#00b700;fill-opacity:1;stroke:#007b00;stroke-width:2;stroke-linecap:round;stroke-opacity:1"/><text id="text3196-91-7" x="358" y="705.124" style="font-size:20px;font-family:Sans;text-anchor:end;fill:#000"><tspan id="tspan3198-2-7" x="452" y="754.124">tono</tspan></text><text id="text3200-7-6" x="358" y="707.124" style="font-size:13.33333302px;font-family:Sans;text-anchor:end;fill:#000"><tspan id="tspan3202-0-7" x="452" y="729.624">nota</tspan></text><text id="text3204-93-3" x="358" y="709.124" style="font-size:13.33333302px;font-family:Sans;text-anchor:end;fill:#000"><tspan id="tspan3206-6-1-6" x="452" y="773.624">octava</tspan></text><path style="fill:#00b700;fill-opacity:1;stroke:#007b00;stroke-width:2;stroke-linecap:round;stroke-opacity:1" id="path21-0-5" d="m 473,706.12399 120,0 0,40.00002 -120,0 0,-16.00001 0,-2 -12,0 0,6 -4.00002,0 0,-16.00001 4.00002,0 0,6.00001 12,0 0,-2 z"/><text style="font-size:20px;font-family:Sans;text-anchor:start;fill:#000" id="text23-6-6" x="500" y="705.124"><tspan id="tspan25-2-3" x="520" y="731.124">do</tspan></text><path id="path21-6-6-9" d="m 473,748.124 120,0 0,40 -120,0 0,-16 0,-2 -12,0 0,6 -4.00002,0 0,-16 4.00002,0 0,6 12,0 0,-2 z" style="fill:#f0f;fill-opacity:1;stroke:#c700d3;stroke-width:2;stroke-linecap:round;stroke-opacity:1"/><text id="text23-9-1-4" x="508" y="747.124" style="font-size:20px;font-family:Sans;text-anchor:start;fill:#000"><tspan id="tspan25-8-8-8" x="528" y="773.124">4</tspan></text><path id="path3035-5-1" d="m 340.99998,638.12401 0,-8 c 0,-4.41828 3.58173,-8 8.00001,-8 l 8,0 0,4 20,0 0,-4 18,0 109.99999,0 8.00002,0 c 4.41827,0 9.07158,3.71364 8,8 l 0,8 -8,0 0,-6 -8.00002,0 0,20 8.00002,0 0,-6 8,0 0,8 c 0,4.41828 -3.58173,8 -8,8 l -8.00002,0 -109.99999,0 -2,0 0,4 -16,0 0,-4 -2,0 -8,0 c -5.52285,0 -10,4.47715 -10,10 l 0,8 0,92.00001 0,7.99999 c 0,5.52285 4.64205,11.3395 10,10 l 8,0 0,4 20,0 0,-4 16,0 0,12 0,12 0,8 c 0,4.41828 -3.71364,9.07161 -8,8.00001 l -8,0 -18,0 -2,0 0,4 -16,0 0,-4 -2,0 -8,0 c -4.41828,0 -8.00001,-3.58173 -8.00001,-8.00001 l 0,-8 z" style="fill:#fd6600;fill-opacity:1;stroke:#ac3d00;stroke-width:2;stroke-linecap:round;stroke-opacity:1"/><text id="text3037-3-2" x="338" y="619.124" style="font-size:20px;font-family:Sans;text-anchor:start;fill:#000"><tspan id="tspan3039-5-9" x="346" y="649.624">valor de la nota</tspan></text><path id="path21-6-1-7-3" d="m 637.00005,664.12401 120.00002,0 0,40 -120.00002,0 0,-16 0,-2 -12,0 0,6 -4,0 0,-16 4,0 0,6 12,0 0,-2 z" style="fill:#f0f;fill-opacity:1;stroke:#c700d3;stroke-width:2;stroke-linecap:round;stroke-opacity:1"/><text id="text23-9-82-9-9" x="668" y="663.124" style="font-size:20px;font-family:Sans;text-anchor:start;fill:#000"><tspan id="tspan25-8-5-2-0" x="688" y="689.124">4</tspan></text><path id="path3798-4-4-5-8" d="m 523.00005,638.12401 0,-8 a 8.0000007,8.0000006 0 0 1 8,-8 l 8,0 20,0 60,0 8,0 a 8.0000007,8.0000006 0 0 1 8,8 l 0,8 -8,0 0,-6 -8,0 0,20 8,0 0,-6 8,0 0,34 -8,0 0,-6 -8,0 0,20 8,0 0,-6 8,0 0,8 a 8.0000007,8.0000006 0 0 1 -8,8 l -8,0 -60,0 -20,0 -8,0 a 8.0000007,8.0000006 0 0 1 -8,-8 l 0,-8 0,-42 0,-2 -12,0 0,6 -4.00002,0 0,-16 4.00002,0 0,6 12,0 0,-2 z" style="fill:#f0f;fill-opacity:1;stroke:#c700d3;stroke-width:2;stroke-linecap:round;stroke-opacity:1"/><text id="text3800-3-2-0-8" x="498" y="621.124" style="font-size:28px;font-family:sans-serif;text-anchor:end;fill:#000"><tspan id="tspan3802-6-2-5-5" x="608" y="670.124">/</tspan></text><path id="path21-8-2-1-0-6-9" d="m 637.00003,622.124 120,0 0,40 -120,0 0,-16 0,-2 -12,0 0,6 -4,0 0,-16 4,0 0,6 12,0 0,-2 z" style="fill:#f0f;fill-opacity:1;stroke:#c700d3;stroke-width:2;stroke-linecap:round;stroke-opacity:1"/><text id="text23-0-1-0-1-0-6" x="669" y="623.124" style="font-size:20px;font-family:Sans;text-anchor:start;fill:#000"><tspan id="tspan25-7-0-5-2-5-3" x="689" y="649.124">1</tspan></text><path style="fill:#fd6600;fill-opacity:1;stroke:#ac3d00;stroke-width:2;stroke-linecap:round;stroke-opacity:1" id="path3124-5-8" d="m 358.99999,680.12401 0,-8 c 0,-4.41828 3.58172,-8 8,-8 l 8,0 0,4 20,0 0,-4 59.99999,0 8.00002,0 c 4.41827,0 8,3.58172 8,8 l 0,8 0,8 0,8 c 0,4.41828 -3.71365,6.92841 -8,8 l -8.00002,0 -59.99999,0 -2,0 0,4 -16,0 0,-4 -2,0 -8,0 c -4.41828,0 -8,-3.58172 -8,-8 l 0,-8 0,0 z"/><text id="text6137-5" x="440.823" y="691.047" xml:space="preserve" style="font-style:normal;font-weight:400;font-size:16px;line-height:125%;font-family:sans-serif;text-align:center;letter-spacing:0;word-spacing:0;text-anchor:middle;fill:#000;fill-opacity:1;stroke:none;stroke-width:1px;stroke-linecap:butt;stroke-linejoin:miter;stroke-opacity:1"><tspan style="font-size:22.5px" id="tspan6139-6" x="440.823" y="691.047">↓</tspan></text></svg>