<svg xmlns="http://www.w3.org/2000/svg" xmlns:svg="http://www.w3.org/2000/svg" id="svg4224" width="251.733" height="317.867" version="1.1" viewBox="0 0 236 298"><metadata id="metadata4229"/><path style="fill:#00b700;fill-opacity:1;stroke:#007b00;stroke-width:2;stroke-linecap:round;stroke-opacity:1" id="path21-3" d="m 115,104.99997 120,0 0,40 -120,0 0,-16 0,-2 -12,0 0,6 -4,0 0,-16 4,0 0,6 12,0 0,-2 z"/><text style="font-size:20px;font-family:Sans;text-anchor:start;fill:#000" id="text23-6" x="148" y="104"><tspan id="tspan25-9" x="168" y="130">B♭</tspan></text><path id="path21-6-72" d="m 115,252.99997 120,0 0,40 -120,0 0,-16 0,-2 -12,0 0,6 -4,0 0,-16 4,0 0,6 12,0 0,-2 z" style="fill:#f0f;fill-opacity:1;stroke:#c700d3;stroke-width:2;stroke-linecap:round;stroke-opacity:1"/><text id="text23-9-5" x="150" y="252" style="font-size:20px;font-family:Sans;text-anchor:start;fill:#000"><tspan id="tspan25-8-7" x="170" y="278">5</tspan></text><path id="path3194-6" d="m 1,226.99997 0,-8 a 8,8 0 0 1 8,-8 l 8,0 0,4 20,0 0,-4 60,0 8,0 a 8,8 0 0 1 8,8 l 0,8 -8,0 0,-6 -8,0 0,20 8,0 0,-6 8,0 0,34 -8,0 0,-6 -8,0 0,20 8,0 0,-6 8,0 0,8 a 8,8 0 0 1 -8,8 l -8,0 -60,0 -2,0 0,4 -16,0 0,-4 -2,0 -8,0 a 8,8 0 0 1 -8,-8 l 0,-8 0,-42 0,-8 z" style="fill:#00b700;fill-opacity:1;stroke:#007b00;stroke-width:2;stroke-linecap:round;stroke-opacity:1"/><text id="text3196-0" y="210" style="font-size:20px;font-family:Sans;text-anchor:end;fill:#000"><tspan id="tspan3198-1" x="94" y="259">tono</tspan></text><text id="text3200-46" y="212" style="font-size:13.33333302px;font-family:Sans;text-anchor:end;fill:#000"><tspan id="tspan3202-3" x="94" y="234.5">nota</tspan></text><text id="text3204-4" y="212" style="font-size:13.33333302px;font-family:Sans;text-anchor:end;fill:#000"><tspan id="tspan3206-6" x="94" y="276.5">octava</tspan></text><path id="path21-6-72-7" d="m 115,146.99997 120,0 0,40 -120,0 0,-16 0,-2 -12,0 0,6 -4,0 0,-16 4,0 0,6 12,0 0,-2 z" style="fill:#f0f;fill-opacity:1;stroke:#c700d3;stroke-width:2;stroke-linecap:round;stroke-opacity:1"/><text id="text23-9-5-1" x="150" y="146" style="font-size:20px;font-family:Sans;text-anchor:start;fill:#000"><tspan id="tspan25-8-7-6" x="170" y="172">4</tspan></text><path id="path3194-6-6" d="m 1,120.99997 0,-8 a 8,8 0 0 1 8,-8 l 8,0 0,4 20,0 0,-4 60,0 8,0 a 8,8 0 0 1 8,8 l 0,8 -8,0 0,-6 -8,0 0,20 8,0 0,-6 8,0 0,34 -8,0 0,-6 -8,0 0,20 8,0 0,-6 8,0 0,8 a 8,8 0 0 1 -8,8 l -8,0 -60,0 -2,0 0,4 -16,0 0,-4 -2,0 -8,0 a 8,8 0 0 1 -8,-8 l 0,-8 0,-42 0,-8 z" style="fill:#00b700;fill-opacity:1;stroke:#007b00;stroke-width:2;stroke-linecap:round;stroke-opacity:1"/><text id="text3196-0-3" y="104" style="font-size:20px;font-family:Sans;text-anchor:end;fill:#000"><tspan id="tspan3198-1-3" x="94" y="153">tono</tspan></text><text id="text3200-46-9" y="106" style="font-size:13.33333302px;font-family:Sans;text-anchor:end;fill:#000"><tspan id="tspan3202-3-4" x="94" y="128.5">nota</tspan></text><text id="text3204-4-8" y="108" style="font-size:13.33333302px;font-family:Sans;text-anchor:end;fill:#000"><tspan id="tspan3206-6-7" x="94" y="172.5">octava</tspan></text><path style="fill:#00b700;fill-opacity:1;stroke:#007b00;stroke-width:2;stroke-linecap:round;stroke-opacity:1" id="path21-3-4" d="m 115,0.99998474 120,0 0,40.00000026 -120,0 0,-16 0,-2 -12,0 0,6 -4,0 0,-16 4,0 0,6 12,0 0,-2 z"/><text style="font-size:20px;font-family:Sans;text-anchor:start;fill:#000" id="text23-6-7" x="148" y="0"><tspan id="tspan25-9-30" x="168" y="26">sol</tspan></text><path id="path21-6-72-4" d="m 115,42.999988 120,0 0,40 -120,0 0,-16 0,-2 -12,0 0,6 -4,0 0,-16 4,0 0,6 12,0 0,-2 z" style="fill:#f0f;fill-opacity:1;stroke:#c700d3;stroke-width:2;stroke-linecap:round;stroke-opacity:1"/><text id="text23-9-5-5" x="150" y="42" style="font-size:20px;font-family:Sans;text-anchor:start;fill:#000"><tspan id="tspan25-8-7-7" x="170" y="68">6</tspan></text><path id="path3194-6-9" d="M 1,16.999985 1,8.9999847 A 8,8 0 0 1 9,0.99998474 l 8,0 0,3.99999996 20,0 0,-3.99999996 60,0 8,0 a 8,8 0 0 1 8,7.99999996 l 0,8.0000003 -8,0 0,-6 -8,0 0,20 8,0 0,-6 8,0 0,34 -8,0 0,-6 -8,0 0,20 8,0 0,-6 8,0 0,8 a 8,8 0 0 1 -8,8 l -8,0 -60,0 -2,0 0,4 -16,0 0,-4 -2,0 -8,0 a 8,8 0 0 1 -8,-8 l 0,-8 0,-42 0,-8 z" style="fill:#00b700;fill-opacity:1;stroke:#007b00;stroke-width:2;stroke-linecap:round;stroke-opacity:1"/><text id="text3196-0-6" y="0" style="font-size:20px;font-family:Sans;text-anchor:end;fill:#000"><tspan id="tspan3198-1-9" x="94" y="49">tono</tspan></text><text id="text3200-46-7" x="0" y="2" style="font-size:13.33333302px;font-family:Sans;text-anchor:end;fill:#000"><tspan id="tspan3202-3-1" x="94" y="24.5">nota</tspan></text><text id="text3204-4-7" y="4" style="font-size:13.33333302px;font-family:Sans;text-anchor:end;fill:#000"><tspan id="tspan3206-6-0" x="94" y="68.5">octava</tspan></text><path id="path21-6-72-6" d="m 115.00001,210.99997 120,0 0,40 -120,0 0,-16 0,-2 -12,0 0,6 -4,0 0,-16 4,0 0,6 12,0 0,-2 z" style="fill:#f0f;fill-opacity:1;stroke:#c700d3;stroke-width:2;stroke-linecap:round;stroke-opacity:1"/><text id="text23-9-5-59" x="140" y="210" style="font-size:20px;font-family:Sans;text-anchor:start;fill:#000"><tspan id="tspan25-8-7-4" x="160" y="236">440</tspan></text></svg>