<svg xmlns="http://www.w3.org/2000/svg" xmlns:svg="http://www.w3.org/2000/svg" id="svg4698" width="396.963" height="422.4" version="1.1" viewBox="0 0 372.152 396"><metadata id="metadata4703"/><g id="g7375" transform="translate(22.15244,-8e-6)"><path id="path3194-5" d="m -21.000002,17.00001 0,-8 c 0,-4.418278 3.581722,-8 8,-8 l 8.0000001,0 0,4 19.9999999,0 0,-4 82.000002,0 8,0 c 4.41828,0 8,3.581722 8,8 l 0,8 -8,0 0,-6 -8,0 0,20 8,0 0,-6 8,0 0,34 -8,0 0,-6 -8,0 0,20 8,0 0,-6 8,0 0,8 c 0,4.418278 -3.58172,8 -8,8 l -8,0 -82.000002,0 -2,0 0,4 -15.9999999,0 0,-4 -2,0 -8.0000001,0 c -4.418278,0 -9.07159,-3.713641 -8,-8 l 0,-8 0,-42 z" style="fill:#00b700;fill-opacity:1;stroke:#007b00;stroke-width:2;stroke-linecap:round;stroke-opacity:1"/><text id="text3196-8" y="0" style="font-size:20px;font-family:Sans;text-anchor:end;fill:#000"><tspan id="tspan3198-7" x="94" y="49">ritmo</tspan></text><text id="text3200-4" y="2" style="font-size:13.33333302px;font-family:Sans;text-anchor:end;fill:#000"><tspan id="tspan3202-8" x="94" y="24.5">número de notas</tspan></text><text id="text3204-2" y="4" style="font-size:13.33333302px;font-family:Sans;text-anchor:end;fill:#000"><tspan id="tspan3206-3" x="94" y="68.5">valor de la nota</tspan></text></g><g id="g7370" transform="translate(22.15244,-8e-6)"><path id="path21-6-15" d="m 115,1.000008 120,0 0,40 -120,0 0,-16 0,-2 -12,0 0,6 -4,0 0,-16 4,0 0,6 12,0 0,-2 z" style="fill:#f0f;fill-opacity:1;stroke:#c700d3;stroke-width:2;stroke-linecap:round;stroke-opacity:1"/><text id="text23-9-6" x="150" y="0" style="font-size:20px;font-family:Sans;text-anchor:start;fill:#000"><tspan id="tspan25-8-1" x="170" y="26">3</tspan></text></g><g id="g7393" transform="translate(22.15244,35.999993)"><path id="path3194-5-7" d="m -21.000002,117 0,-8 c 0,-4.41828 3.581722,-8 8,-8 l 8.0000001,0 0,4 19.9999999,0 0,-4 L 97,101 l 8,0 c 4.41828,0 8,3.58172 8,8 l 0,8 -8,0 0,-6 -8,0 0,20 8,0 0,-6 8,0 0,34 -8,0 0,-6 -8,0 0,20 8,0 0,-6 8,0 0,8 c 0,4.41828 -3.58172,8 -8,8 l -8,0 -82.000002,0 -2,0 0,4 -15.9999999,0 0,-4 -2,0 -8.0000001,0 c -4.418278,0 -9.07159,-3.71364 -8,-8 l 0,-8 0,-42 z" style="fill:#00b700;fill-opacity:1;stroke:#007b00;stroke-width:2;stroke-linecap:round;stroke-opacity:1"/><text id="text3196-8-4" y="100" style="font-size:20px;font-family:Sans;text-anchor:end;fill:#000"><tspan id="tspan3198-7-6" x="94" y="149">ritmo</tspan></text><text id="text3200-4-3" y="102" style="font-size:13.33333302px;font-family:Sans;text-anchor:end;fill:#000"><tspan id="tspan3202-8-8" x="94" y="124.5">número de notas</tspan></text><text id="text3204-2-6" y="104" style="font-size:13.33333302px;font-family:Sans;text-anchor:end;fill:#000"><tspan id="tspan3206-3-7" x="94" y="168.5">valor de la nota</tspan></text></g><g id="g7402" transform="translate(22.15244,35.999993)"><path id="path21-6-15-1" d="m 115,101 120,0 0,40 -120,0 0,-16 0,-2 -12,0 0,6 -4,0 0,-16 4,0 0,6 12,0 0,-2 z" style="fill:#f0f;fill-opacity:1;stroke:#c700d3;stroke-width:2;stroke-linecap:round;stroke-opacity:1"/><text id="text23-9-6-6" x="150" y="100" style="font-size:20px;font-family:Sans;text-anchor:start;fill:#000"><tspan id="tspan25-8-1-4" x="170" y="126">1</tspan></text></g><g id="g7384" transform="translate(22.15244,69.999994)"><path id="path3194-5-5" d="m -21.000002,217 0,-8 c 0,-4.41828 3.581722,-8 8,-8 l 8.0000001,0 0,4 19.9999999,0 0,-4 L 97,201 l 8,0 c 4.41828,0 8,3.58172 8,8 l 0,8 -8,0 0,-6 -8,0 0,20 8,0 0,-6 8,0 0,34 -8,0 0,-6 -8,0 0,20 8,0 0,-6 8,0 0,8 c 0,4.41828 -3.58172,8 -8,8 l -8,0 -82.000002,0 -2,0 0,4 -15.9999999,0 0,-4 -2,0 -8.0000001,0 c -4.418278,0 -8,-3.58172 -8,-8 l 0,-8 0,-42 z" style="fill:#00b700;fill-opacity:1;stroke:#007b00;stroke-width:2;stroke-linecap:round;stroke-opacity:1"/><text id="text3196-8-9" y="200" style="font-size:20px;font-family:Sans;text-anchor:end;fill:#000"><tspan id="tspan3198-7-4" x="94" y="249">ritmo</tspan></text><text id="text3200-4-4" y="202" style="font-size:13.33333302px;font-family:Sans;text-anchor:end;fill:#000"><tspan id="tspan3202-8-9" x="94" y="224.5">número de notas</tspan></text><text id="text3204-2-5" y="204" style="font-size:13.33333302px;font-family:Sans;text-anchor:end;fill:#000"><tspan id="tspan3206-3-1" x="94" y="268.5">valor de la nota</tspan></text></g><g id="g7407" transform="translate(22.15244,69.999994)"><path id="path21-6-15-0" d="m 115,201 120,0 0,40 -120,0 0,-16 0,-2 -12,0 0,6 -4,0 0,-16 4,0 0,6 12,0 0,-2 z" style="fill:#f0f;fill-opacity:1;stroke:#c700d3;stroke-width:2;stroke-linecap:round;stroke-opacity:1"/><text id="text23-9-6-62" x="150" y="200" style="font-size:20px;font-family:Sans;text-anchor:start;fill:#000"><tspan id="tspan25-8-1-42" x="170" y="226">7</tspan></text></g><g id="g6923-3-7" transform="translate(-95.31487,74.082314)"><g id="g5152-6-4-6-5" transform="translate(99.467316,145.91767)"><path id="path21-6-1-1-6-0-7-9" d="m 247,1.000003 120,0 0,40 -120,0 0,-16 0,-2 -12,0 0,6 -4,0 0,-16 4,0 0,6 12,0 0,-2 z" style="fill:#f0f;fill-opacity:1;stroke:#c700d3;stroke-width:2;stroke-linecap:round;stroke-opacity:1"/><text id="text23-9-82-8-6-5-2" x="282" y="0" style="font-size:20px;font-family:Sans;text-anchor:start;fill:#000"><tspan id="tspan25-8-5-7-2-3-2" x="302" y="26">8</tspan></text></g><g id="g5157-9-99-5-8" transform="translate(99.467316,103.91768)"><path id="path3798-4-4-5-2-0-6-9" d="m 133,17 0,-8 a 8,8 0 0 1 8,-8 l 8,0 20,0 60,0 8,0 a 8,8 0 0 1 8,8 l 0,8 -8,0 0,-6 -8,0 0,20 8,0 0,-6 8,0 0,34 -8,0 0,-6 -8,0 0,20 8,0 0,-6 8,0 0,8 a 8,8 0 0 1 -8,8 l -8,0 -60,0 -20,0 -8,0 a 8,8 0 0 1 -8,-8 l 0,-8 0,-42 0,-2 -12,0 0,6 -4,0 0,-16 4,0 0,6 12,0 0,-2 z" style="fill:#f0f;fill-opacity:1;stroke:#c700d3;stroke-width:2;stroke-linecap:round;stroke-opacity:1"/><text id="text3800-3-2-0-0-8-2-7" x="108" y="0" style="font-size:28px;font-family:sans-serif;text-anchor:end;fill:#000"><tspan id="tspan3802-6-2-5-2-1-9-3" x="218" y="49">/</tspan></text><g id="g5147-3-3-1-6" transform="translate(0,-42)"><path style="fill:#f0f;fill-opacity:1;stroke:#c700d3;stroke-width:2;stroke-linecap:round;stroke-opacity:1" id="path21-8-2-1-0-6-7-1-2-1" d="m 247,43 120,0 0,40 -120,0 0,-16 0,-2 -12,0 0,6 -4,0 0,-16 4,0 0,6 12,0 0,-2 z"/><text style="font-size:20px;font-family:Sans;text-anchor:start;fill:#000" id="text23-0-1-0-1-0-5-10-7-2" x="279" y="44"><tspan id="tspan25-7-0-5-2-5-9-3-0-9" x="299" y="70">1</tspan></text></g></g></g><g id="g6923-3-7-7" transform="translate(-95.31487,208.08234)"><g id="g5152-6-4-6-5-8" transform="translate(99.467316,145.91767)"><path id="path21-6-1-1-6-0-7-9-4" d="m 247,1.000003 120,0 0,40 -120,0 0,-16 0,-2 -12,0 0,6 -4,0 0,-16 4,0 0,6 12,0 0,-2 z" style="fill:#f0f;fill-opacity:1;stroke:#c700d3;stroke-width:2;stroke-linecap:round;stroke-opacity:1"/><text id="text23-9-82-8-6-5-2-5" x="274" y="0" style="font-size:20px;font-family:Sans;text-anchor:start;fill:#000"><tspan id="tspan25-8-5-7-2-3-2-0" x="294" y="26">16</tspan></text></g><g id="g5157-9-99-5-8-3" transform="translate(99.467316,103.91768)"><path id="path3798-4-4-5-2-0-6-9-6" d="m 133,17 0,-8 a 8,8 0 0 1 8,-8 l 8,0 20,0 60,0 8,0 a 8,8 0 0 1 8,8 l 0,8 -8,0 0,-6 -8,0 0,20 8,0 0,-6 8,0 0,34 -8,0 0,-6 -8,0 0,20 8,0 0,-6 8,0 0,8 a 8,8 0 0 1 -8,8 l -8,0 -60,0 -20,0 -8,0 a 8,8 0 0 1 -8,-8 l 0,-8 0,-42 0,-2 -12,0 0,6 -4,0 0,-16 4,0 0,6 12,0 0,-2 z" style="fill:#f0f;fill-opacity:1;stroke:#c700d3;stroke-width:2;stroke-linecap:round;stroke-opacity:1"/><text id="text3800-3-2-0-0-8-2-7-1" x="108" y="0" style="font-size:28px;font-family:sans-serif;text-anchor:end;fill:#000"><tspan id="tspan3802-6-2-5-2-1-9-3-0" x="218" y="49">/</tspan></text><g id="g5147-3-3-1-6-6" transform="translate(0,-42)"><path style="fill:#f0f;fill-opacity:1;stroke:#c700d3;stroke-width:2;stroke-linecap:round;stroke-opacity:1" id="path21-8-2-1-0-6-7-1-2-1-3" d="m 247,43 120,0 0,40 -120,0 0,-16 0,-2 -12,0 0,6 -4,0 0,-16 4,0 0,6 12,0 0,-2 z"/><text style="font-size:20px;font-family:Sans;text-anchor:start;fill:#000" id="text23-0-1-0-1-0-5-10-7-2-2" x="279" y="44"><tspan id="tspan25-7-0-5-2-5-9-3-0-9-0" x="299" y="70">1</tspan></text></g></g></g><g id="g6923-3-7-6" transform="translate(-95.31487,-61.917695)"><g id="g5152-6-4-6-5-1" transform="translate(99.467316,145.91767)"><path id="path21-6-1-1-6-0-7-9-5" d="m 247,1.000003 120,0 0,40 -120,0 0,-16 0,-2 -12,0 0,6 -4,0 0,-16 4,0 0,6 12,0 0,-2 z" style="fill:#f0f;fill-opacity:1;stroke:#c700d3;stroke-width:2;stroke-linecap:round;stroke-opacity:1"/><text id="text23-9-82-8-6-5-2-54" x="282" y="0" style="font-size:20px;font-family:Sans;text-anchor:start;fill:#000"><tspan id="tspan25-8-5-7-2-3-2-7" x="302" y="26">4</tspan></text></g><g id="g5157-9-99-5-8-6" transform="translate(99.467316,103.91768)"><path id="path3798-4-4-5-2-0-6-9-5" d="m 133,17 0,-8 a 8,8 0 0 1 8,-8 l 8,0 20,0 60,0 8,0 a 8,8 0 0 1 8,8 l 0,8 -8,0 0,-6 -8,0 0,20 8,0 0,-6 8,0 0,34 -8,0 0,-6 -8,0 0,20 8,0 0,-6 8,0 0,8 a 8,8 0 0 1 -8,8 l -8,0 -60,0 -20,0 -8,0 a 8,8 0 0 1 -8,-8 l 0,-8 0,-42 0,-2 -12,0 0,6 -4,0 0,-16 4,0 0,6 12,0 0,-2 z" style="fill:#f0f;fill-opacity:1;stroke:#c700d3;stroke-width:2;stroke-linecap:round;stroke-opacity:1"/><text id="text3800-3-2-0-0-8-2-7-6" x="108" y="0" style="font-size:28px;font-family:sans-serif;text-anchor:end;fill:#000"><tspan id="tspan3802-6-2-5-2-1-9-3-9" x="218" y="49">/</tspan></text><g id="g5147-3-3-1-6-3" transform="translate(0,-42)"><path style="fill:#f0f;fill-opacity:1;stroke:#c700d3;stroke-width:2;stroke-linecap:round;stroke-opacity:1" id="path21-8-2-1-0-6-7-1-2-1-7" d="m 247,43 120,0 0,40 -120,0 0,-16 0,-2 -12,0 0,6 -4,0 0,-16 4,0 0,6 12,0 0,-2 z"/><text style="font-size:20px;font-family:Sans;text-anchor:start;fill:#000" id="text23-0-1-0-1-0-5-10-7-2-4" x="279" y="44"><tspan id="tspan25-7-0-5-2-5-9-3-0-9-5" x="299" y="70">1</tspan></text></g></g></g></svg>