<svg xmlns="http://www.w3.org/2000/svg" xmlns:svg="http://www.w3.org/2000/svg" id="svg5587" width="288" height="205.532" version="1.1" viewBox="0 0 270 192.686"><metadata id="metadata5592"/><path id="path21-2-3-94" d="m 148.99992,55.68606 120,0 0,39.999999 -120,0 0,-16 0,-2 -12,0 0,6 -3.99999,0 0,-15.999999 3.99999,0 0,5.999999 12,0 0,-2 z" style="fill:#00b700;fill-opacity:1;stroke:#007b00;stroke-width:2;stroke-linecap:round;stroke-opacity:1"/><text id="text23-0-6-52" x="180" y="54.686" style="font-size:20px;font-family:Sans;text-anchor:start;fill:#000"><tspan id="tspan25-7-2-4" x="200" y="80.686">C</tspan></text><path style="fill:#1d8989;fill-opacity:1;stroke:#005459;stroke-width:2;stroke-linecap:round;stroke-opacity:1" id="path3194-3-8-43" d="m 18.999902,71.686059 0,-7.999999 c 0,-4.418278 3.581722,-8 8,-8 l 8,0 0,4 20,0 0,-4 75.999998,0 7.99999,0 c 4.41828,0 9.0716,3.713637 8.00001,8 l 0,7.999999 -8.00001,0 0,-5.999999 -7.99999,0 0,19.999999 7.99999,0 0,-6 8.00001,0 0,34.000001 -8.00001,0 0,-6 -7.99999,0 0,20 7.99999,0 0,-6 8.00001,0 0,8 c 0,4.41828 -3.58173,8 -8.00001,8 l -7.99999,0 -75.999998,0 -2,0 0,4 -16,0 0,-4 -2,0 -8,0 c -4.418278,0 -8,-3.58172 -8,-8 l 0,-8 0,-42.000001 z"/><text style="font-size:20px;font-family:Sans;text-anchor:end;fill:#000" id="text3196-7-6-6" x="32.896" y="54.403"><tspan id="tspan3198-0-1-1" x="126.896" y="103.403">fijar clave</tspan></text><text style="font-size:13.33333302px;font-family:Sans;text-anchor:end;fill:#000" id="text3200-6-0-8" x="33.409" y="56.403"><tspan id="tspan3202-5-0-1" x="127.409" y="78.903">clave</tspan></text><text style="font-size:13.33333302px;font-family:Sans;text-anchor:end;fill:#000" id="text3204-9-5-7" x="32.896" y="58.403"><tspan id="tspan3206-0-8-6" x="126.896" y="122.903">modo</tspan></text><g id="g4225" transform="translate(-2.000083,-155.31398)"><path style="fill:#00b700;fill-opacity:1;stroke:#007b00;stroke-width:2;stroke-linecap:round;stroke-opacity:1" id="path21-2-3-9-1" d="m 150.99998,253.00004 120,0 0,40 -120,0 0,-16 0,-2 -12,0 0,6 -4,0 0,-16 4,0 0,6 12,0 0,-2 z"/><text style="font-size:20px;font-family:Sans;text-anchor:start;fill:#000" id="text23-0-6-5-0" x="162" y="252"><tspan id="tspan25-7-2-2-6" x="182" y="278">Mayor</tspan></text></g><path id="path3660" d="m 0.99999237,29.56205 0,-8 c 0,-4.18879 3.81120993,-8 7.99999993,-8 l 8.0000007,0 10,-12.0000001 10,12.0000001 18,0 152.000007,0 8,0 c 4.18879,0 9.01593,3.936277 8,8 l 0,8 0,8 0,8 c 0,4.18879 -3.93628,9.01593 -8,8 l -8,0 -152.000007,0 -2,0 0,4 -16,0 0,-4 -2,0 -8,0 c -2.61799,0 -5.21987,1.07773 -7.07107,2.92893 -1.8512,1.85121 -2.92893,4.45308 -2.92893,7.07107 l 0,8 0,8 0,49.56196 c 0,2.61799 1.07773,5.21987 2.92893,7.07107 1.8512,1.8512 4.53124,2.29397 7.07107,2.92893 l 8,0 0,4 20,0 0,-4 16,0 0,12 0,12 0,8 c 0,4.18879 -3.93628,6.98407 -8,8 l -8,0 -18,0 -10,12 -10,-12 -8.0000007,0 c -4.18879,0 -7.99999993,-3.81121 -7.99999993,-8 l 0,-8 z" style="fill:#00b700;fill-opacity:1;stroke:#007b00;stroke-width:2;stroke-linecap:round;stroke-opacity:1"/><text id="text3662" x="0" y=".562" style="font-size:20px;font-family:Sans;text-anchor:start;fill:#000"><tspan id="tspan3664" x="8" y="43.562">modo personalizado</tspan></text></svg>