<svg xmlns="http://www.w3.org/2000/svg" xmlns:svg="http://www.w3.org/2000/svg" id="svg4075" width="416" height="553.666" version="1.1" viewBox="0 0 390 519.062"><metadata id="metadata4080"/><path id="path3027-4" d="m 1,29.56202 0,-8 c 0,-4.18879 3.81121,-8 8,-8 l 8,0 10,-12 10,12 18,0 70,0 8,0 c 4.18879,0 8,3.81121 8,8 l 0,8 -8,0 0,-6 -8,0 0,20 8,0 0,-6 8,0 0,8 c 0,4.18879 -3.81121,8 -8,8 l -8,0 -70,0 -2,0 0,4 -16,0 0,-4 -2,0 -8,0 c -2.61799,0 -5.21987,1.07773 -7.07107,2.92893 C 18.07773,58.34215 17,60.94402 17,63.56202 l 0,8 0,176 0,8 c 0,2.61799 1.07773,5.21987 2.92893,7.07107 1.8512,1.8512 4.531247,2.29397 7.07107,2.92893 l 8,0 0,4 20,0 0,-4 16,0 0,12 0,12 0,8 c 0,4.18878 -3.93628,9.01593 -8,8 l -8,0 -18,0 -10,12 -10,-12 -8,0 c -4.18879,0 -8,-3.81122 -8,-8 l 0,-8 z" style="fill:#ffc000;fill-opacity:1;stroke:#c48d00;stroke-width:2;stroke-linecap:round;stroke-opacity:1"/><text id="text3029-4" x="-.055" y="-1.727" style="font-size:20px;font-family:Sans;text-anchor:start;fill:#000"><tspan id="tspan3031-5" x="7.945" y="41.273">acción</tspan></text><path id="path21-2-0" d="m 143,13.56207 120,0 0,40 -120,0 0,-16 0,-2 -12,0 0,6 -4,0 0,-16 4,0 0,6 12,0 0,-2 z" style="fill:#7bbbb8;fill-opacity:1;stroke:#4c8585;stroke-width:2;stroke-linecap:round;stroke-opacity:1"/><text id="text23-2" x="149.218" y="12.018" style="font-size:20px;font-family:Sans;text-anchor:start;fill:#000"><tspan id="tspan25-1" x="169.218" y="38.018">ritmo</tspan></text><path id="path3027-4-1" d="m 1,355.49999 0,-8 c 0,-4.18879 3.81121,-8 8,-8 l 8,0 10,-12 10,12 18,0 70,0 8,0 c 4.18879,0 8,3.81121 8,8 l 0,8 -8,0 0,-6 -8,0 0,20 8,0 0,-6 8,0 0,8 c 0,4.18879 -3.81121,8 -8,8 l -8,0 -70,0 -2,0 0,4 -16,0 0,-4 -2,0 -8,0 c -2.61799,0 -5.21987,1.07773 -7.07107,2.92893 C 18.07773,384.28012 17,386.88199 17,389.49999 l 0,8 0,50 0,8 c 0,2.61799 1.07773,5.21987 2.92893,7.07107 1.8512,1.8512 4.531247,2.29397 7.07107,2.92893 l 8,0 0,4 20,0 0,-4 16,0 0,12 0,12 0,8 c 0,4.18878 -3.93628,9.01593 -8,8 l -8,0 -18,0 -10,12 -10,-12 -8,0 c -4.18879,0 -8,-3.81122 -8,-8 l 0,-8 z" style="fill:#ffc000;fill-opacity:1;stroke:#c48d00;stroke-width:2;stroke-linecap:round;stroke-opacity:1"/><text id="text3029-4-0" x="-.055" y="324.211" style="font-size:20px;font-family:Sans;text-anchor:start;fill:#000"><tspan id="tspan3031-5-6" x="7.945" y="367.211">acción</tspan></text><path id="path21-2-0-2" d="m 143,339.50004 120,0 0,40 -120,0 0,-16 0,-2 -12,0 0,6 -4,0 0,-16 4,0 0,6 12,0 0,-2 z" style="fill:#7bbbb8;fill-opacity:1;stroke:#4c8585;stroke-width:2;stroke-linecap:round;stroke-opacity:1"/><text id="text23-2-0" x="149.218" y="337.956" style="font-size:20px;font-family:Sans;text-anchor:start;fill:#000"><tspan id="tspan25-1-6" x="169.218" y="363.956">ritmo1</tspan></text><path style="fill:#00b700;fill-opacity:1;stroke:#007b00;stroke-width:2;stroke-linecap:round;stroke-opacity:1" id="path3194-5" d="m 18.999998,71.562069 0,-8 c 0,-4.418278 3.581722,-8 8,-8 l 8,0 0,4 20,0 0,-4 84.000002,0 8,0 c 4.41828,0 8,3.581722 8,8 l 0,8 -8,0 0,-6 -8,0 0,20 8,0 0,-6 8,0 0,34.000001 -8,0 0,-6 -8,0 0,20 8,0 0,-6 8,0 0,8 c 0,4.41828 -3.58172,8 -8,8 l -8,0 -84.000002,0 -2,0 0,4 -16,0 0,-4 -2,0 -8,0 c -4.418278,0 -8,-3.58172 -8,-8 l 0,-8 0,-42.000001 z"/><text style="font-size:20px;font-family:Sans;text-anchor:end;fill:#000" id="text3196-8" x="40" y="54.562"><tspan id="tspan3198-7" x="134" y="103.562">ritmo</tspan></text><text style="font-size:13.33333302px;font-family:Sans;text-anchor:end;fill:#000" id="text3200-4" x="40" y="54.562"><tspan id="tspan3202-8" x="134" y="77.062">número de notas</tspan></text><text style="font-size:13.33333302px;font-family:Sans;text-anchor:end;fill:#000" id="text3204-2" x="40" y="58.562"><tspan id="tspan3206-3" x="134" y="123.062">valor de la nota</tspan></text><path style="fill:#f0f;fill-opacity:1;stroke:#c700d3;stroke-width:2;stroke-linecap:round;stroke-opacity:1" id="path21-6-15" d="m 157,55.562068 120,0 0,40 -120,0 0,-16 0,-2 -12,0 0,6 -4,0 0,-16 4,0 0,6 12,0 0,-2 z"/><text style="font-size:20px;font-family:Sans;text-anchor:start;fill:#000" id="text23-9-6" x="192" y="54.562"><tspan id="tspan25-8-1" x="212" y="80.562">1</tspan></text><g id="g5152-6-4-6-5" transform="translate(23.999996,138.56204)"><path id="path21-6-1-1-6-0-7-9" d="m 247,1.000003 120,0 0,40 -120,0 0,-16 0,-2 -12,0 0,6 -4,0 0,-16 4,0 0,6 12,0 0,-2 z" style="fill:#f0f;fill-opacity:1;stroke:#c700d3;stroke-width:2;stroke-linecap:round;stroke-opacity:1"/><text id="text23-9-82-8-6-5-2" x="282" y="0" style="font-size:20px;font-family:Sans;text-anchor:start;fill:#000"><tspan id="tspan25-8-5-7-2-3-2" x="302" y="26">2</tspan></text></g><g id="g5157-9-99-5-8" transform="translate(23.999996,96.56205)"><path id="path3798-4-4-5-2-0-6-9" d="m 133,17 0,-8 a 8,8 0 0 1 8,-8 l 8,0 20,0 60,0 8,0 a 8,8 0 0 1 8,8 l 0,8 -8,0 0,-6 -8,0 0,20 8,0 0,-6 8,0 0,34 -8,0 0,-6 -8,0 0,20 8,0 0,-6 8,0 0,8 a 8,8 0 0 1 -8,8 l -8,0 -60,0 -20,0 -8,0 a 8,8 0 0 1 -8,-8 l 0,-8 0,-42 0,-2 -12,0 0,6 -4,0 0,-16 4,0 0,6 12,0 0,-2 z" style="fill:#f0f;fill-opacity:1;stroke:#c700d3;stroke-width:2;stroke-linecap:round;stroke-opacity:1"/><text id="text3800-3-2-0-0-8-2-7" x="108" y="0" style="font-size:28px;font-family:sans-serif;text-anchor:end;fill:#000"><tspan id="tspan3802-6-2-5-2-1-9-3" x="218" y="49">/</tspan></text><g id="g5147-3-3-1-6" transform="translate(0,-42)"><path style="fill:#f0f;fill-opacity:1;stroke:#c700d3;stroke-width:2;stroke-linecap:round;stroke-opacity:1" id="path21-8-2-1-0-6-7-1-2-1" d="m 247,43 120,0 0,40 -120,0 0,-16 0,-2 -12,0 0,6 -4,0 0,-16 4,0 0,6 12,0 0,-2 z"/><text style="font-size:20px;font-family:Sans;text-anchor:start;fill:#000" id="text23-0-1-0-1-0-5-10-7-2" x="279" y="44"><tspan id="tspan25-7-0-5-2-5-9-3-0-9" x="299" y="70">1</tspan></text></g></g><path id="path3124-2-4" d="m 19,155.56205 0,-8 c 0,-4.41828 3.58172,-8 8,-8 l 8,0 0,4 20,0 0,-4 60,0 8,0 c 4.41828,0 8,3.58172 8,8 l 0,8 0,8 0,8 c 0,4.41828 -3.71364,6.92841 -8,8 l -8,0 -60,0 -2,0 0,4 -16,0 0,-4 -2,0 -8,0 c -4.41828,0 -8,-3.58172 -8,-8 l 0,-8 0,0 z" style="fill:#fd6600;fill-opacity:1;stroke:#ac3d00;stroke-width:2;stroke-linecap:round;stroke-opacity:1"/><text style="font-style:normal;font-weight:400;font-size:16px;line-height:125%;font-family:sans-serif;text-align:center;letter-spacing:0;word-spacing:0;text-anchor:middle;fill:#000;fill-opacity:1;stroke:none;stroke-width:1px;stroke-linecap:butt;stroke-linejoin:miter;stroke-opacity:1" id="text6137-2-0" x="100.823" y="166.485" xml:space="preserve"><tspan id="tspan6139-8-3" x="100.823" y="166.485" style="font-size:22.5px">↓</tspan></text><path style="fill:#00b700;fill-opacity:1;stroke:#007b00;stroke-width:2;stroke-linecap:round;stroke-opacity:1" id="path3194-5-7" d="m 18.999998,197.56206 0,-8 c 0,-4.41828 3.581722,-8 8,-8 l 8,0 0,4 20,0 0,-4 82.000002,0 8,0 c 4.41828,0 8,3.58172 8,8 l 0,8 -8,0 0,-6 -8,0 0,20 8,0 0,-6 8,0 0,34 -8,0 0,-6 -8,0 0,20 8,0 0,-6 8,0 0,8 c 0,4.41828 -3.58172,8 -8,8 l -8,0 -82.000002,0 -2,0 0,4 -16,0 0,-4 -2,0 -8,0 c -4.418278,0 -9.07159,-3.71364 -8,-8 l 0,-8 0,-42 z"/><text style="font-size:20px;font-family:Sans;text-anchor:end;fill:#000" id="text3196-8-5" x="40" y="180.562"><tspan id="tspan3198-7-3" x="134" y="229.562">ritmo</tspan></text><text style="font-size:13.33333302px;font-family:Sans;text-anchor:end;fill:#000" id="text3200-4-5" x="40" y="180.562"><tspan id="tspan3202-8-6" x="134" y="203.062">número de notas</tspan></text><text style="font-size:13.33333302px;font-family:Sans;text-anchor:end;fill:#000" id="text3204-2-2" x="40" y="184.562"><tspan id="tspan3206-3-9" x="134" y="249.062">valor de la nota</tspan></text><path style="fill:#f0f;fill-opacity:1;stroke:#c700d3;stroke-width:2;stroke-linecap:round;stroke-opacity:1" id="path21-6-15-2" d="m 155,181.56206 120,0 0,40 -120,0 0,-16 0,-2 -12,0 0,6 -4,0 0,-16 4,0 0,6 12,0 0,-2 z"/><text style="font-size:20px;font-family:Sans;text-anchor:start;fill:#000" id="text23-9-6-7" x="190" y="180.562"><tspan id="tspan25-8-1-0" x="210" y="206.562">2</tspan></text><path style="fill:#f0f;fill-opacity:1;stroke:#c700d3;stroke-width:2;stroke-linecap:round;stroke-opacity:1" id="path21-6-1-1-6-0-7-9-6" d="m 269,265.56203 120,0 0,40 -120,0 0,-16 0,-2 -12,0 0,6 -4,0 0,-16 4,0 0,6 12,0 0,-2 z"/><text style="font-size:20px;font-family:Sans;text-anchor:start;fill:#000" id="text23-9-82-8-6-5-2-0" x="304" y="264.562"><tspan id="tspan25-8-5-7-2-3-2-6" x="324" y="290.562">4</tspan></text><path style="fill:#f0f;fill-opacity:1;stroke:#c700d3;stroke-width:2;stroke-linecap:round;stroke-opacity:1" id="path3798-4-4-5-2-0-6-9-6" d="m 155,239.56204 0,-8 a 8,8 0 0 1 8,-8 l 8,0 20,0 60,0 8,0 a 8,8 0 0 1 8,8 l 0,8 -8,0 0,-6 -8,0 0,20 8,0 0,-6 8,0 0,34 -8,0 0,-6 -8,0 0,20 8,0 0,-6 8,0 0,8 a 8,8 0 0 1 -8,8 l -8,0 -60,0 -20,0 -8,0 a 8,8 0 0 1 -8,-8 l 0,-8 0,-42 0,-2 -12,0 0,6 -4,0 0,-16 4,0 0,6 12,0 0,-2 z"/><text style="font-size:28px;font-family:sans-serif;text-anchor:end;fill:#000" id="text3800-3-2-0-0-8-2-7-1" x="130" y="222.562"><tspan id="tspan3802-6-2-5-2-1-9-3-8" x="240" y="271.562">/</tspan></text><g id="g5147-3-3-1-6-7" transform="translate(21.999997,180.56204)"><path id="path21-8-2-1-0-6-7-1-2-1-9" d="m 247,43 120,0 0,40 -120,0 0,-16 0,-2 -12,0 0,6 -4,0 0,-16 4,0 0,6 12,0 0,-2 z" style="fill:#f0f;fill-opacity:1;stroke:#c700d3;stroke-width:2;stroke-linecap:round;stroke-opacity:1"/><text id="text23-0-1-0-1-0-5-10-7-2-2" x="279" y="44" style="font-size:20px;font-family:Sans;text-anchor:start;fill:#000"><tspan id="tspan25-7-0-5-2-5-9-3-0-9-0" x="299" y="70">1</tspan></text></g><path style="fill:#00b700;fill-opacity:1;stroke:#007b00;stroke-width:2;stroke-linecap:round;stroke-opacity:1" id="path3194-5-2" d="m 18.999998,397.56206 0,-8 c 0,-4.41828 3.581722,-8 8,-8 l 8,0 0,4 20,0 0,-4 82.000002,0 8,0 c 4.41828,0 8,3.58172 8,8 l 0,8 -8,0 0,-6 -8,0 0,20 8,0 0,-6 8,0 0,34 -8,0 0,-6 -8,0 0,20 8,0 0,-6 8,0 0,8 c 0,4.41828 -3.58172,8 -8,8 l -8,0 -82.000002,0 -2,0 0,4 -16,0 0,-4 -2,0 -8,0 c -4.418278,0 -8,-3.58172 -8,-8 l 0,-8 0,-42 z"/><text style="font-size:20px;font-family:Sans;text-anchor:end;fill:#000" id="text3196-8-8" x="40" y="380.562"><tspan id="tspan3198-7-9" x="134" y="429.562">ritmo</tspan></text><text style="font-size:13.33333302px;font-family:Sans;text-anchor:end;fill:#000" id="text3200-4-7" x="40" y="380.562"><tspan id="tspan3202-8-3" x="134" y="403.062">número de notas</tspan></text><text style="font-size:13.33333302px;font-family:Sans;text-anchor:end;fill:#000" id="text3204-2-6" x="40" y="384.562"><tspan id="tspan3206-3-1" x="134" y="449.062">valor de la nota</tspan></text><g id="g3710-30-2" transform="translate(-143.83636,435.3863)"><path id="path21-6-15-9" d="m 298.83636,-53.824242 120,0 0,40 -120,0 0,-16 0,-2 -12,0 0,6 -4,0 0,-16 4,0 0,6 12,0 0,-2 z" style="fill:#f0f;fill-opacity:1;stroke:#c700d3;stroke-width:2;stroke-linecap:round;stroke-opacity:1"/><text id="text23-9-6-3" x="333.836" y="-54.824" style="font-size:20px;font-family:Sans;text-anchor:start;fill:#000"><tspan id="tspan25-8-1-1" x="353.836" y="-28.824">3</tspan></text></g><g id="g6923-3-7-94" transform="translate(-77.46732,318.64436)"><g id="g5152-6-4-6-5-7" transform="translate(99.467316,145.91767)"><path style="fill:#f0f;fill-opacity:1;stroke:#c700d3;stroke-width:2;stroke-linecap:round;stroke-opacity:1" id="path21-6-1-1-6-0-7-9-8" d="m 247,1.000003 120,0 0,40 -120,0 0,-16 0,-2 -12,0 0,6 -4,0 0,-16 4,0 0,6 12,0 0,-2 z"/><text style="font-size:20px;font-family:Sans;text-anchor:start;fill:#000" id="text23-9-82-8-6-5-2-4" x="282" y="0"><tspan id="tspan25-8-5-7-2-3-2-5" x="302" y="26">3</tspan></text></g><g id="g5157-9-99-5-8-0" transform="translate(99.467316,103.91768)"><path style="fill:#f0f;fill-opacity:1;stroke:#c700d3;stroke-width:2;stroke-linecap:round;stroke-opacity:1" id="path3798-4-4-5-2-0-6-9-3" d="m 133,17 0,-8 a 8,8 0 0 1 8,-8 l 8,0 20,0 60,0 8,0 a 8,8 0 0 1 8,8 l 0,8 -8,0 0,-6 -8,0 0,20 8,0 0,-6 8,0 0,34 -8,0 0,-6 -8,0 0,20 8,0 0,-6 8,0 0,8 a 8,8 0 0 1 -8,8 l -8,0 -60,0 -20,0 -8,0 a 8,8 0 0 1 -8,-8 l 0,-8 0,-42 0,-2 -12,0 0,6 -4,0 0,-16 4,0 0,6 12,0 0,-2 z"/><text style="font-size:28px;font-family:sans-serif;text-anchor:end;fill:#000" id="text3800-3-2-0-0-8-2-7-6" x="108" y="0"><tspan id="tspan3802-6-2-5-2-1-9-3-1" x="218" y="49">/</tspan></text><g id="g5147-3-3-1-6-0" transform="translate(0,-42)"><path id="path21-8-2-1-0-6-7-1-2-1-6" d="m 247,43 120,0 0,40 -120,0 0,-16 0,-2 -12,0 0,6 -4,0 0,-16 4,0 0,6 12,0 0,-2 z" style="fill:#f0f;fill-opacity:1;stroke:#c700d3;stroke-width:2;stroke-linecap:round;stroke-opacity:1"/><text id="text23-0-1-0-1-0-5-10-7-2-3" x="279" y="44" style="font-size:20px;font-family:Sans;text-anchor:start;fill:#000"><tspan id="tspan25-7-0-5-2-5-9-3-0-9-2" x="299" y="70">1</tspan></text></g></g></g></svg>