<svg xmlns="http://www.w3.org/2000/svg" xmlns:svg="http://www.w3.org/2000/svg" id="svg4167" width="499.2" height="159.066" version="1.1" viewBox="0 0 468 149.124"><metadata id="metadata4172"/><path style="fill:#1d8989;fill-opacity:1;stroke:#005459;stroke-width:2;stroke-linecap:round;stroke-opacity:1" id="path3194" d="m 19,70.124092 0,-8 c 0,-4.418278 3.58172,-8 8,-8 l 8,0 0,4 20,0 0,-4 274.00001,0 8,0 c 4.41828,0 6.92841,3.713641 8,8 l 0,8 -8,0 0,-6 -8,0 0,20 8,0 0,-6 8,0 0,8 c 0,4.418278 -3.58172,8 -8,8 l -8,0 -274.00001,0 -2,0 0,4 -16,0 0,-4 -2,0 -8,0 c -4.41828,0 -8,-3.581722 -8,-8 l 0,-8 0,0 z"/><text style="font-size:20px;font-family:Sans;text-anchor:end;fill:#000" id="text3196" x="224" y="33.124"><tspan id="tspan3198" x="318" y="82.124">tonos maestros por segundo</tspan></text><g id="g3710" transform="translate(48.16364,107.94833)"><path id="path21-6" d="m 298.83636,-53.824242 120,0 0,40 -120,0 0,-16 0,-2 -12,0 0,6 -4,0 0,-16 4,0 0,6 12,0 0,-2 z" style="fill:#f0f;fill-opacity:1;stroke:#c700d3;stroke-width:2;stroke-linecap:round;stroke-opacity:1"/><text id="text23-9" x="325.836" y="-52.824" style="font-size:20px;font-family:Sans;text-anchor:start;fill:#000"><tspan id="tspan25-8" x="345.836" y="-26.824">90</tspan></text></g><g id="g3990" transform="translate(0,1.1240922)"><path id="path3660" d="m 1,28.43795 0,-8 c 0,-4.18879 3.81121,-8 8,-8 l 8,0 L 27,0.43795006 37,12.43795 l 18,0 60,0 8,0 c 4.18879,0 6.98407,3.936277 8,8 l 0,8 0,8 0,8 c 0,4.18879 -3.81121,8 -8,8 l -8,0 -60,0 -2,0 0,4 -16,0 0,-4 -2,0 -8,0 c -2.61799,0 -5.21987,1.077731 -7.07107,2.928932 C 18.07773,57.218083 17,59.819956 17,62.43795 l 0,8 0,6 0,8 c 0,2.61799 1.07773,5.21987 2.92893,7.07107 1.8512,1.8512 4.531247,3.56389 7.07107,2.92893 l 8,0 0,4 20,0 0,-4 16,0 0,12 0,12 0,8 c 0,4.18879 -3.936277,9.01593 -8,8 l -8,0 -18,0 -10,12 -10,-12 -8,0 c -4.18879,0 -8,-3.81121 -8,-8 l 0,-8 z" style="fill:#00b700;fill-opacity:1;stroke:#007b00;stroke-width:2;stroke-linecap:round;stroke-opacity:1"/><text id="text3662" x="1.145" y="-4" style="font-size:20px;font-family:Sans;text-anchor:start;fill:#000"><tspan id="tspan3664" x="9.145" y="39">tempo</tspan></text></g></svg>