<svg xmlns="http://www.w3.org/2000/svg" xmlns:svg="http://www.w3.org/2000/svg" id="svg3641" width="462" height="949.124" version="1.1"><metadata id="metadata3670"/><g id="g5071" transform="translate(0,689.50004)"><g id="g5066" transform="translate(-110,0)"><path style="fill:#1d8989;fill-opacity:1;stroke:#005459;stroke-width:2;stroke-linecap:round;stroke-opacity:1" id="path3035-8-1-5-4-3-5" d="m 421,148.12405 0,-8 c 0,-4.41828 3.58172,-8 8,-8 l 8,0 0,4 20,0 0,-4 18,0 56.00001,0 8,0 c 4.41828,0 6.92841,3.71364 8,8 l 0,8 0,8 0,8 c 0,4.41827 -3.58172,8 -8,8 l -8,0 -56.00001,0 -2,0 0,4 -16,0 0,-4 -2,0 -8,0 c -5.52284,0 -10,4.47715 -10,10 l 0,8 0,6.00004 0,7.99998 c 0,5.52286 4.64205,11.3395 10,10.00001 l 8,0 0,4 20,0 0,-4 16.00001,0 0,12 0,12 0,8 c 0,4.41827 -3.71365,9.0716 -8.00001,8 l -8,0 -18,0 -2,0 0,4 -16,0 0,-4 -2,0 -8,0 c -4.41828,0 -8,-3.58173 -8,-8 l 0,-8 z"/><text id="text3037-2-2" x="423.867" y="128.146" style="font-size:20px;font-family:Sans;text-anchor:start;fill:#000"><tspan id="tspan3039-2-1" x="431.867" y="158.646">hacia atrás</tspan></text></g><g id="g3918" transform="translate(328,173.12408)"><path id="path3058" d="M 1,17 1,9 A 8,8 0 0 1 9,1 l 8,0 0,4 20,0 0,-4 80,0 8,0 a 8,8 0 0 1 8,8 l 0,8 0,8 0,8 a 8,8 0 0 1 -8,8 l -8,0 -80,0 -2,0 0,4 -16,0 0,-4 -2,0 -8,0 A 8,8 0 0 1 1,33 l 0,-8 z" style="fill:#ffc000;fill-opacity:1;stroke:#c48d00;stroke-width:2;stroke-linecap:round;stroke-opacity:1"/><text id="text3060" style="font-size:20px;font-family:Sans;text-anchor:end;fill:#000"><tspan id="tspan3062" x="114" y="28">chunk</tspan></text></g></g><path style="fill:#ffc000;fill-opacity:1;stroke:#c48d00;stroke-width:2;stroke-linecap:round;stroke-opacity:1" id="path3027-4-9" d="m 1,29.562051 0,-8 c 0,-4.18879 3.81121,-8 8,-8 l 8,0 10,-12.000001 10,12.000001 18,0 70,0 8,0 c 4.18879,0 8,3.81121 8,8 l 0,8 -8,0 0,-6 -8,0 0,20 8,0 0,-6 8,0 0,8 c 0,4.18879 -3.81121,8 -8,8 l -8,0 -70,0 -2,0 0,4 -16,0 0,-4 -2,0 -8,0 c -2.61799,0 -5.21987,1.07773 -7.07107,2.92893 C 18.07773,58.342181 17,60.944051 17,63.562051 l 0,8 0,805.999999 0,8 c 0,2.61799 1.07773,5.21987 2.92893,7.07107 1.8512,1.8512 4.53125,2.29397 7.07107,2.92893 l 8,0 0,4 20,0 0,-4 16,0 0,12 0,12 0,8 c 0,4.18878 -3.93628,9.01593 -8,8 l -8,0 -18,0 -10,12 -10,-12 -8,0 c -4.18879,0 -8,-3.81122 -8,-8 l 0,-8 z"/><text style="font-size:20px;font-family:Sans;text-anchor:start;fill:#000" id="text3029-4-3" x="-.055" y="-2.227"><tspan id="tspan3031-5-2" x="7.945" y="40.773">acción</tspan></text><path style="fill:#7bbbb8;fill-opacity:1;stroke:#4c8585;stroke-width:2;stroke-linecap:round;stroke-opacity:1" id="path21-2-0-4" d="m 143,13.562051 120,0 0,40 -120,0 0,-16 0,-2 -12,0 0,6 -4,0 0,-16 4,0 0,6 12,0 0,-2 z"/><text style="font-size:20px;font-family:Sans;text-anchor:start;fill:#000" id="text23-2-3" x="149.218" y="11.518"><tspan id="tspan25-1-7" x="169.218" y="37.518">chunk</tspan></text><path id="path3194-36-6" d="m 37,785.6241 0,-8 a 8,8 0 0 1 8,-8 l 8,0 0,4 20,0 0,-4 60,0 8,0 a 8,8 0 0 1 8,8 l 0,8 -8,0 0,-6 -8,0 0,20 8,0 0,-6 8,0 0,34 -8,0 0,-5.99999 -8,0 0,19.99999 8,0 0,-6 8,0 0,8 a 8,8 0 0 1 -8,8 l -8,0 -60,0 -2,0 0,4 -16,0 0,-4 -2,0 -8,0 a 8,8 0 0 1 -8,-8 l 0,-8 0,-42 0,-8 z" style="fill:#00b700;fill-opacity:1;stroke:#007b00;stroke-width:2;stroke-linecap:round;stroke-opacity:1"/><text id="text3196-75-2" x="36" y="768.624" style="font-size:20px;font-family:Sans;text-anchor:end;fill:#000"><tspan id="tspan3198-3-1" x="130" y="817.624">tono</tspan></text><text id="text3200-5-7" x="36" y="770.624" style="font-size:13.33333302px;font-family:Sans;text-anchor:end;fill:#000"><tspan id="tspan3202-6-8" x="130" y="793.124">nota</tspan></text><text id="text3204-2-5" x="36" y="772.624" style="font-size:13.33333302px;font-family:Sans;text-anchor:end;fill:#000"><tspan id="tspan3206-9-7" x="130" y="837.124">octava</tspan></text><path style="fill:#00b700;fill-opacity:1;stroke:#007b00;stroke-width:2;stroke-linecap:round;stroke-opacity:1" id="path21-1-4" d="m 151,769.6241 120,0 0,40.00001 -120,0 0,-16.00001 0,-2 -12,0 0,6 -4,0 0,-16 4,0 0,6 12,0 0,-2 z"/><text style="font-size:20px;font-family:Sans;text-anchor:start;fill:#000" id="text23-2-2-1" x="176" y="768.624"><tspan id="tspan25-70-8" x="196" y="794.624">sol</tspan></text><path id="path21-6-9-5" d="m 151,811.6241 120,0 0,40 -120,0 0,-16 0,-2 -12,0 0,6 -4,0 0,-16 4,0 0,6 12,0 0,-2 z" style="fill:#f0f;fill-opacity:1;stroke:#c700d3;stroke-width:2;stroke-linecap:round;stroke-opacity:1"/><text id="text23-9-3-2-9" x="186" y="810.624" style="font-size:20px;font-family:Sans;text-anchor:start;fill:#000"><tspan id="tspan25-8-6-7" x="206" y="836.624">4</tspan></text><path id="path3035-0-5" d="m 19,701.62412 0,-8 c 0,-4.41828 3.58172,-8 8,-8 l 8,0 0,4 20,0 0,-4 18,0 110,0 8,0 c 4.41828,0 9.07159,3.71364 8,8 l 0,8 -8,0 0,-6 -8,0 0,20 8,0 0,-6 8,0 0,8 c 0,4.41827 -3.58172,8 -8,8 l -8,0 -110,0 -2,0 0,4 -16,0 0,-4 -2,0 -8,0 c -5.52285,0 -10,4.47715 -10,9.99999 l 0,8 0,92.00001 0,7.99999 c 0,5.52285 4.64205,11.3395 10,10 l 8,0 0,4 20,0 0,-4 16,0 0,12 0,12 0,8 c 0,4.41828 -3.71365,9.0716 -8,8 l -8,0 -18,0 -2,0 0,4 -16,0 0,-4 -2,0 -8,0 c -4.41828,0 -8,-3.58172 -8,-8 l 0,-8 z" style="fill:#fd6600;fill-opacity:1;stroke:#ac3d00;stroke-width:2;stroke-linecap:round;stroke-opacity:1"/><text id="text3037-6-3" x="16" y="682.624" style="font-size:20px;font-family:Sans;text-anchor:start;fill:#000"><tspan id="tspan3039-2-8" x="24" y="713.124">valor de la nota</tspan></text><g id="g20377" transform="translate(50,-0.49998442)"><g id="g5152-6-8" transform="translate(18,727.1241)"><path id="path21-6-1-1-6-3" d="m 247,1.000003 120,0 0,40 -120,0 0,-16 0,-2 -12,0 0,6 -4,0 0,-16 4,0 0,6 12,0 0,-2 z" style="fill:#f0f;fill-opacity:1;stroke:#c700d3;stroke-width:2;stroke-linecap:round;stroke-opacity:1"/><text id="text23-9-82-8-1" x="282" y="0" style="font-size:20px;font-family:Sans;text-anchor:start;fill:#000"><tspan id="tspan25-8-5-7-8" x="302" y="26">4</tspan></text></g><g id="g5157-9-9" transform="translate(18,685.1241)"><path id="path3798-4-4-5-2-64" d="m 133,17 0,-8 a 8,8 0 0 1 8,-8 l 8,0 20,0 60,0 8,0 a 8,8 0 0 1 8,8 l 0,8 -8,0 0,-6 -8,0 0,20 8,0 0,-6 8,0 0,34 -8,0 0,-6 -8,0 0,20 8,0 0,-6 8,0 0,8 a 8,8 0 0 1 -8,8 l -8,0 -60,0 -20,0 -8,0 a 8,8 0 0 1 -8,-8 l 0,-8 0,-42 0,-2 -12,0 0,6 -4,0 0,-16 4,0 0,6 12,0 0,-2 z" style="fill:#f0f;fill-opacity:1;stroke:#c700d3;stroke-width:2;stroke-linecap:round;stroke-opacity:1"/><text id="text3800-3-2-0-0-33" x="108" y="0" style="font-size:28px;font-family:sans-serif;text-anchor:end;fill:#000"><tspan id="tspan3802-6-2-5-2-3" x="218" y="49">/</tspan></text><g id="g5147-3-8" transform="translate(0,-42)"><path style="fill:#f0f;fill-opacity:1;stroke:#c700d3;stroke-width:2;stroke-linecap:round;stroke-opacity:1" id="path21-8-2-1-0-6-7-6" d="m 247,43 120,0 0,40 -120,0 0,-16 0,-2 -12,0 0,6 -4,0 0,-16 4,0 0,6 12,0 0,-2 z"/><text style="font-size:20px;font-family:Sans;text-anchor:start;fill:#000" id="text23-0-1-0-1-0-5-0" x="279" y="44"><tspan id="tspan25-7-0-5-2-5-9-4" x="299" y="70">1</tspan></text></g></g></g><path style="fill:#fd6600;fill-opacity:1;stroke:#ac3d00;stroke-width:2;stroke-linecap:round;stroke-opacity:1" id="path3124-2-8" d="m 37,743.62412 0,-8 c 0,-4.41828 3.58172,-8 8,-8 l 8,0 0,4 20,0 0,-4 60,0 8,0 c 4.41828,0 8,3.58172 8,8 l 0,8 0,8 0,8 c 0,4.41828 -3.71364,6.92841 -8,8 l -8,0 -60,0 -2,0 0,4 -16,0 0,-4 -2,0 -8,0 c -4.41828,0 -8,-3.58172 -8,-8 l 0,-8 0,0 z"/><text id="text6137-2-8" x="118.823" y="754.547" xml:space="preserve" style="font-style:normal;font-weight:400;font-size:16px;line-height:125%;font-family:sans-serif;text-align:center;letter-spacing:0;word-spacing:0;text-anchor:middle;fill:#000;fill-opacity:1;stroke:none;stroke-width:1px;stroke-linecap:butt;stroke-linejoin:miter;stroke-opacity:1"><tspan style="font-size:22.5px" id="tspan6139-8-8" x="118.823" y="754.547">↓</tspan></text><path id="path3194-9-1-7" d="m 37.00004,575.6241 0,-8 a 8,8 0 0 1 8,-8 l 8,0 0,4 20,0 0,-4 60,0 8,0 a 8,8 0 0 1 8,8 l 0,8 -8,0 0,-6 -8,0 0,20 8,0 0,-6 8,0 0,34 -8,0 0,-5.99999 -8,0 0,19.99999 8,0 0,-6 8,0 0,8 a 8,8 0 0 1 -8,8 l -8,0 -60,0 -2,0 0,4 -16,0 0,-4 -2,0 -8,0 a 8,8 0 0 1 -8,-8 l 0,-8 0,-42 0,-8 z" style="fill:#00b700;fill-opacity:1;stroke:#007b00;stroke-width:2;stroke-linecap:round;stroke-opacity:1"/><text id="text3196-73-7" x="36" y="558.624" style="font-size:20px;font-family:Sans;text-anchor:end;fill:#000"><tspan id="tspan3198-6-6" x="130" y="607.624">tono</tspan></text><text id="text3200-1-4" x="36" y="560.624" style="font-size:13.33333302px;font-family:Sans;text-anchor:end;fill:#000"><tspan id="tspan3202-2-3" x="130" y="583.124">nota</tspan></text><text id="text3204-93-0" x="36" y="562.624" style="font-size:13.33333302px;font-family:Sans;text-anchor:end;fill:#000"><tspan id="tspan3206-1-0-30" x="130" y="627.124">octava</tspan></text><path style="fill:#00b700;fill-opacity:1;stroke:#007b00;stroke-width:2;stroke-linecap:round;stroke-opacity:1" id="path21-9-9" d="m 151.00004,559.6241 120,0 0,40.00001 -120,0 0,-16.00001 0,-2 -12,0 0,6 -4,0 0,-16 4,0 0,6 12,0 0,-2 z"/><text style="font-size:20px;font-family:Sans;text-anchor:start;fill:#000" id="text23-4-2" x="180" y="558.624"><tspan id="tspan25-78-5" x="200" y="584.624">ti</tspan></text><path id="path21-6-4-4" d="m 151.00004,601.6241 120,0 0,40 -120,0 0,-16 0,-2 -12,0 0,6 -4,0 0,-16 4,0 0,6 12,0 0,-2 z" style="fill:#f0f;fill-opacity:1;stroke:#c700d3;stroke-width:2;stroke-linecap:round;stroke-opacity:1"/><text id="text23-9-50-0" x="186" y="600.624" style="font-size:20px;font-family:Sans;text-anchor:start;fill:#000"><tspan id="tspan25-8-3-59" x="206" y="626.624">4</tspan></text><path id="path3035-6-4" d="m 19.00004,491.62412 0,-8 c 0,-4.41828 3.58172,-8 8,-8 l 8,0 0,4 20,0 0,-4 18,0 110,0 8,0 c 4.41828,0 9.07159,3.71364 8,8 l 0,8 -8,0 0,-6 -8,0 0,20 8,0 0,-6 8,0 0,8 c 0,4.41827 -3.58172,8 -8,8 l -8,0 -110,0 -2,0 0,4 -16,0 0,-4 -2,0 -8,0 c -5.52285,0 -10,4.47715 -10,9.99999 l 0,8 0,92.00001 0,7.99999 c 0,5.52285 4.64205,11.3395 10,10 l 8,0 0,4 20,0 0,-4 16,0 0,12 0,12 0,8 c 0,4.41828 -3.71364,9.0716 -8,8 l -8,0 -18,0 -2,0 0,4 -16,0 0,-4 -2,0 -8,0 c -4.41828,0 -8,-3.58172 -8,-8 l 0,-8 z" style="fill:#fd6600;fill-opacity:1;stroke:#ac3d00;stroke-width:2;stroke-linecap:round;stroke-opacity:1"/><text id="text3037-1-6" x="16" y="472.624" style="font-size:20px;font-family:Sans;text-anchor:start;fill:#000"><tspan id="tspan3039-0-9" x="24" y="503.124">valor de la nota</tspan></text><g id="g20391" transform="translate(50,-0.49998442)"><g id="g5152-63-2" transform="translate(18.00004,517.1241)"><path id="path21-6-1-20-2" d="m 247,1.000003 120,0 0,40 -120,0 0,-16 0,-2 -12,0 0,6 -4,0 0,-16 4,0 0,6 12,0 0,-2 z" style="fill:#f0f;fill-opacity:1;stroke:#c700d3;stroke-width:2;stroke-linecap:round;stroke-opacity:1"/><text id="text23-9-82-6-4" x="282" y="0" style="font-size:20px;font-family:Sans;text-anchor:start;fill:#000"><tspan id="tspan25-8-5-15-7" x="302" y="26">4</tspan></text></g><g id="g5157-5-7" transform="translate(18.00004,475.1241)"><path id="path3798-4-4-5-4-5" d="m 133,17 0,-8 a 8,8 0 0 1 8,-8 l 8,0 20,0 60,0 8,0 a 8,8 0 0 1 8,8 l 0,8 -8,0 0,-6 -8,0 0,20 8,0 0,-6 8,0 0,34 -8,0 0,-6 -8,0 0,20 8,0 0,-6 8,0 0,8 a 8,8 0 0 1 -8,8 l -8,0 -60,0 -20,0 -8,0 a 8,8 0 0 1 -8,-8 l 0,-8 0,-42 0,-2 -12,0 0,6 -4,0 0,-16 4,0 0,6 12,0 0,-2 z" style="fill:#f0f;fill-opacity:1;stroke:#c700d3;stroke-width:2;stroke-linecap:round;stroke-opacity:1"/><text id="text3800-3-2-0-7-48" x="108" y="0" style="font-size:28px;font-family:sans-serif;text-anchor:end;fill:#000"><tspan id="tspan3802-6-2-5-6-1" x="218" y="49">/</tspan></text><g id="g5147-5-2" transform="translate(0,-42)"><path style="fill:#f0f;fill-opacity:1;stroke:#c700d3;stroke-width:2;stroke-linecap:round;stroke-opacity:1" id="path21-8-2-1-0-6-6-8" d="m 247,43 120,0 0,40 -120,0 0,-16 0,-2 -12,0 0,6 -4,0 0,-16 4,0 0,6 12,0 0,-2 z"/><text style="font-size:20px;font-family:Sans;text-anchor:start;fill:#000" id="text23-0-1-0-1-0-9-9" x="279" y="44"><tspan id="tspan25-7-0-5-2-5-3-36" x="299" y="70">1</tspan></text></g></g></g><path style="fill:#fd6600;fill-opacity:1;stroke:#ac3d00;stroke-width:2;stroke-linecap:round;stroke-opacity:1" id="path3124-7-8" d="m 37.00004,533.62412 0,-8 c 0,-4.41828 3.58172,-8 8,-8 l 8,0 0,4 20,0 0,-4 60,0 8,0 c 4.41828,0 8,3.58172 8,8 l 0,8 0,8 0,8 c 0,4.41828 -3.71364,6.92841 -8,8 l -8,0 -60,0 -2,0 0,4 -16,0 0,-4 -2,0 -8,0 c -4.41828,0 -8,-3.58172 -8,-8 l 0,-8 0,0 z"/><text id="text6137-4-0" x="118.823" y="544.547" xml:space="preserve" style="font-style:normal;font-weight:400;font-size:16px;line-height:125%;font-family:sans-serif;text-align:center;letter-spacing:0;word-spacing:0;text-anchor:middle;fill:#000;fill-opacity:1;stroke:none;stroke-width:1px;stroke-linecap:butt;stroke-linejoin:miter;stroke-opacity:1"><tspan style="font-size:22.5px" id="tspan6139-5-2" x="118.823" y="544.547">↓</tspan></text><path id="path3194-36-0" d="m 37,365.62411 0,-8 a 8,8 0 0 1 8,-8 l 8,0 0,4 20,0 0,-4 60,0 8,0 a 8,8 0 0 1 8,8 l 0,8 -8,0 0,-6 -8,0 0,20 8,0 0,-6 8,0 0,34 -8,0 0,-5.99999 -8,0 0,19.99999 8,0 0,-6 8,0 0,8 a 8,8 0 0 1 -8,8 l -8,0 -60,0 -2,0 0,4 -16,0 0,-4 -2,0 -8,0 a 8,8 0 0 1 -8,-8 l 0,-8 0,-42 0,-8 z" style="fill:#00b700;fill-opacity:1;stroke:#007b00;stroke-width:2;stroke-linecap:round;stroke-opacity:1"/><text id="text3196-75-51" x="36" y="348.624" style="font-size:20px;font-family:Sans;text-anchor:end;fill:#000"><tspan id="tspan3198-3-10" x="130" y="397.624">tono</tspan></text><text id="text3200-5-8" x="36" y="350.624" style="font-size:13.33333302px;font-family:Sans;text-anchor:end;fill:#000"><tspan id="tspan3202-6-5" x="130" y="373.124">nota</tspan></text><text id="text3204-2-06" x="36" y="352.624" style="font-size:13.33333302px;font-family:Sans;text-anchor:end;fill:#000"><tspan id="tspan3206-9-4" x="130" y="417.124">octava</tspan></text><path style="fill:#00b700;fill-opacity:1;stroke:#007b00;stroke-width:2;stroke-linecap:round;stroke-opacity:1" id="path21-1-6" d="m 151,349.62411 120,0 0,40.00001 -120,0 0,-16.00001 0,-2 -12,0 0,6 -4,0 0,-16 4,0 0,6 12,0 0,-2 z"/><text style="font-size:20px;font-family:Sans;text-anchor:start;fill:#000" id="text23-2-2-2" x="180" y="348.624"><tspan id="tspan25-70-5" x="200" y="374.624">la</tspan></text><path id="path21-6-9-8" d="m 151,391.62411 120,0 0,40 -120,0 0,-16 0,-2 -12,0 0,6 -4,0 0,-16 4,0 0,6 12,0 0,-2 z" style="fill:#f0f;fill-opacity:1;stroke:#c700d3;stroke-width:2;stroke-linecap:round;stroke-opacity:1"/><text id="text23-9-3-2-6" x="186" y="390.624" style="font-size:20px;font-family:Sans;text-anchor:start;fill:#000"><tspan id="tspan25-8-6-2" x="206" y="416.624">4</tspan></text><path id="path3035-0-8" d="m 19,281.62413 0,-8 c 0,-4.41828 3.58172,-8 8,-8 l 8,0 0,4 20,0 0,-4 18,0 110,0 8,0 c 4.41828,0 9.07159,3.71364 8,8 l 0,8 -8,0 0,-6 -8,0 0,20 8,0 0,-6 8,0 0,8 c 0,4.41828 -3.58172,8 -8,8 l -8,0 -110,0 -2,0 0,4 -16,0 0,-4 -2,0 -8,0 c -5.52285,0 -10,4.47715 -10,9.99999 l 0,8 0,92.00001 0,7.99999 c 0,5.52285 4.64205,11.3395 10,10 l 8,0 0,4 20,0 0,-4 16,0 0,12 0,12 0,8 c 0,4.41828 -3.71365,9.0716 -8,8 l -8,0 -18,0 -2,0 0,4 -16,0 0,-4 -2,0 -8,0 c -4.41828,0 -8,-3.58172 -8,-8 l 0,-8 z" style="fill:#fd6600;fill-opacity:1;stroke:#ac3d00;stroke-width:2;stroke-linecap:round;stroke-opacity:1"/><text id="text3037-6-4" x="16" y="262.624" style="font-size:20px;font-family:Sans;text-anchor:start;fill:#000"><tspan id="tspan3039-2-72" x="24" y="293.124">valor de la nota</tspan></text><g id="g20405" transform="translate(50,-0.49998442)"><g id="g5152-6-4" transform="translate(18,307.12411)"><path id="path21-6-1-1-6-0" d="m 247,1.000003 120,0 0,40 -120,0 0,-16 0,-2 -12,0 0,6 -4,0 0,-16 4,0 0,6 12,0 0,-2 z" style="fill:#f0f;fill-opacity:1;stroke:#c700d3;stroke-width:2;stroke-linecap:round;stroke-opacity:1"/><text id="text23-9-82-8-6" x="282" y="0" style="font-size:20px;font-family:Sans;text-anchor:start;fill:#000"><tspan id="tspan25-8-5-7-2" x="302" y="26">4</tspan></text></g><g id="g5157-9-99" transform="translate(18,265.12411)"><path id="path3798-4-4-5-2-0" d="m 133,17 0,-8 a 8,8 0 0 1 8,-8 l 8,0 20,0 60,0 8,0 a 8,8 0 0 1 8,8 l 0,8 -8,0 0,-6 -8,0 0,20 8,0 0,-6 8,0 0,34 -8,0 0,-6 -8,0 0,20 8,0 0,-6 8,0 0,8 a 8,8 0 0 1 -8,8 l -8,0 -60,0 -20,0 -8,0 a 8,8 0 0 1 -8,-8 l 0,-8 0,-42 0,-2 -12,0 0,6 -4,0 0,-16 4,0 0,6 12,0 0,-2 z" style="fill:#f0f;fill-opacity:1;stroke:#c700d3;stroke-width:2;stroke-linecap:round;stroke-opacity:1"/><text id="text3800-3-2-0-0-8" x="108" y="0" style="font-size:28px;font-family:sans-serif;text-anchor:end;fill:#000"><tspan id="tspan3802-6-2-5-2-1" x="218" y="49">/</tspan></text><g id="g5147-3-3" transform="translate(0,-42)"><path style="fill:#f0f;fill-opacity:1;stroke:#c700d3;stroke-width:2;stroke-linecap:round;stroke-opacity:1" id="path21-8-2-1-0-6-7-1" d="m 247,43 120,0 0,40 -120,0 0,-16 0,-2 -12,0 0,6 -4,0 0,-16 4,0 0,6 12,0 0,-2 z"/><text style="font-size:20px;font-family:Sans;text-anchor:start;fill:#000" id="text23-0-1-0-1-0-5-10" x="279" y="44"><tspan id="tspan25-7-0-5-2-5-9-3" x="299" y="70">1</tspan></text></g></g></g><path style="fill:#fd6600;fill-opacity:1;stroke:#ac3d00;stroke-width:2;stroke-linecap:round;stroke-opacity:1" id="path3124-2-4" d="m 37,323.62413 0,-8 c 0,-4.41828 3.58172,-8 8,-8 l 8,0 0,4 20,0 0,-4 60,0 8,0 c 4.41828,0 8,3.58172 8,8 l 0,8 0,8 0,8 c 0,4.41828 -3.71364,6.92841 -8,8 l -8,0 -60,0 -2,0 0,4 -16,0 0,-4 -2,0 -8,0 c -4.41828,0 -8,-3.58172 -8,-8 l 0,-8 0,0 z"/><text id="text6137-2-0" x="118.823" y="334.547" xml:space="preserve" style="font-style:normal;font-weight:400;font-size:16px;line-height:125%;font-family:sans-serif;text-align:center;letter-spacing:0;word-spacing:0;text-anchor:middle;fill:#000;fill-opacity:1;stroke:none;stroke-width:1px;stroke-linecap:butt;stroke-linejoin:miter;stroke-opacity:1"><tspan style="font-size:22.5px" id="tspan6139-8-3" x="118.823" y="334.547">↓</tspan></text><path id="path3194-9-1-9" d="m 37.00004,155.6241 0,-8 a 8,8 0 0 1 8,-8 l 8,0 0,4 20,0 0,-4 60,0 8,0 a 8,8 0 0 1 8,8 l 0,8 -8,0 0,-6 -8,0 0,20 8,0 0,-6 8,0 0,34 -8,0 0,-5.99999 -8,0 0,19.99999 8,0 0,-6 8,0 0,8 a 8,8 0 0 1 -8,8 l -8,0 -60,0 -2,0 0,4 -16,0 0,-4 -2,0 -8,0 a 8,8 0 0 1 -8,-8 l 0,-8 0,-42 0,-8 z" style="fill:#00b700;fill-opacity:1;stroke:#007b00;stroke-width:2;stroke-linecap:round;stroke-opacity:1"/><text id="text3196-73-6" x="36" y="138.624" style="font-size:20px;font-family:Sans;text-anchor:end;fill:#000"><tspan id="tspan3198-6-9" x="130" y="187.624">tono</tspan></text><text id="text3200-1-3" x="36" y="140.624" style="font-size:13.33333302px;font-family:Sans;text-anchor:end;fill:#000"><tspan id="tspan3202-2-38" x="130" y="163.124">nota</tspan></text><text id="text3204-93-05" x="36" y="142.624" style="font-size:13.33333302px;font-family:Sans;text-anchor:end;fill:#000"><tspan id="tspan3206-1-0-6" x="130" y="207.124">octava</tspan></text><path style="fill:#00b700;fill-opacity:1;stroke:#007b00;stroke-width:2;stroke-linecap:round;stroke-opacity:1" id="path21-9-6" d="m 151.00004,139.6241 120,0 0,40.00001 -120,0 0,-16.00001 0,-2 -12,0 0,6 -4,0 0,-16 4,0 0,6 12,0 0,-2 z"/><text style="font-size:20px;font-family:Sans;text-anchor:start;fill:#000" id="text23-4-4" x="180" y="138.624"><tspan id="tspan25-78-0" x="200" y="164.624">sol</tspan></text><path id="path21-6-4-0" d="m 151.00004,181.6241 120,0 0,40 -120,0 0,-16 0,-2 -12,0 0,6 -4,0 0,-16 4,0 0,6 12,0 0,-2 z" style="fill:#f0f;fill-opacity:1;stroke:#c700d3;stroke-width:2;stroke-linecap:round;stroke-opacity:1"/><text id="text23-9-50-4" x="186" y="180.624" style="font-size:20px;font-family:Sans;text-anchor:start;fill:#000"><tspan id="tspan25-8-3-6" x="206" y="206.624">4</tspan></text><path id="path3035-6-2" d="m 19.00004,71.624113 0,-7.999997 c 0,-4.41828 3.58172,-8 8,-8 l 8,0 0,4 20,0 0,-4 18,0 110,0 8,0 c 4.41828,0 9.07159,3.71364 8,8 l 0,7.999997 -8,0 0,-5.999997 -8,0 0,19.999997 8,0 0,-6 8,0 0,8 c 0,4.418278 -3.58172,8 -8,8 l -8,0 -110,0 -2,0 0,4.000003 -16,0 0,-4.000003 -2,0 -8,0 c -5.52285,0 -10,4.477157 -10,9.999997 l 0,8 0,92.00001 0,7.99999 c 0,5.52285 4.64205,11.3395 10,10 l 8,0 0,4 20,0 0,-4 16,0 0,12 0,12 0,8 c 0,4.41828 -3.71364,9.0716 -8,8 l -8,0 -18,0 -2,0 0,4 -16,0 0,-4 -2,0 -8,0 c -4.41828,0 -8,-3.58172 -8,-8 l 0,-8 z" style="fill:#fd6600;fill-opacity:1;stroke:#ac3d00;stroke-width:2;stroke-linecap:round;stroke-opacity:1"/><text id="text3037-1-67" x="16" y="52.624" style="font-size:20px;font-family:Sans;text-anchor:start;fill:#000"><tspan id="tspan3039-0-5" x="24" y="83.124">valor de la nota</tspan></text><g id="g20450" transform="translate(50,-0.49998442)"><g id="g5152-63-6" transform="translate(18.00004,97.124097)"><path id="path21-6-1-20-9" d="m 247,1.000003 120,0 0,40 -120,0 0,-16 0,-2 -12,0 0,6 -4,0 0,-16 4,0 0,6 12,0 0,-2 z" style="fill:#f0f;fill-opacity:1;stroke:#c700d3;stroke-width:2;stroke-linecap:round;stroke-opacity:1"/><text id="text23-9-82-6-8" x="282" y="0" style="font-size:20px;font-family:Sans;text-anchor:start;fill:#000"><tspan id="tspan25-8-5-15-72" x="302" y="26">4</tspan></text></g><g id="g5157-5-8" transform="translate(18.00004,55.1241)"><path id="path3798-4-4-5-4-2" d="m 133,17 0,-8 a 8,8 0 0 1 8,-8 l 8,0 20,0 60,0 8,0 a 8,8 0 0 1 8,8 l 0,8 -8,0 0,-6 -8,0 0,20 8,0 0,-6 8,0 0,34 -8,0 0,-6 -8,0 0,20 8,0 0,-6 8,0 0,8 a 8,8 0 0 1 -8,8 l -8,0 -60,0 -20,0 -8,0 a 8,8 0 0 1 -8,-8 l 0,-8 0,-42 0,-2 -12,0 0,6 -4,0 0,-16 4,0 0,6 12,0 0,-2 z" style="fill:#f0f;fill-opacity:1;stroke:#c700d3;stroke-width:2;stroke-linecap:round;stroke-opacity:1"/><text id="text3800-3-2-0-7-9" x="108" y="0" style="font-size:28px;font-family:sans-serif;text-anchor:end;fill:#000"><tspan id="tspan3802-6-2-5-6-9" x="218" y="49">/</tspan></text><g id="g5147-5-6" transform="translate(0,-42)"><path style="fill:#f0f;fill-opacity:1;stroke:#c700d3;stroke-width:2;stroke-linecap:round;stroke-opacity:1" id="path21-8-2-1-0-6-6-0" d="m 247,43 120,0 0,40 -120,0 0,-16 0,-2 -12,0 0,6 -4,0 0,-16 4,0 0,6 12,0 0,-2 z"/><text style="font-size:20px;font-family:Sans;text-anchor:start;fill:#000" id="text23-0-1-0-1-0-9-2" x="279" y="44"><tspan id="tspan25-7-0-5-2-5-3-7" x="299" y="70">1</tspan></text></g></g></g><path style="fill:#fd6600;fill-opacity:1;stroke:#ac3d00;stroke-width:2;stroke-linecap:round;stroke-opacity:1" id="path3124-7-6" d="m 37.00004,113.62412 0,-8 c 0,-4.41828 3.58172,-8.000007 8,-8.000007 l 8,0 0,4.000007 20,0 0,-4.000007 60,0 8,0 c 4.41828,0 8,3.581727 8,8.000007 l 0,8 0,8 0,8 c 0,4.41828 -3.71364,6.92841 -8,8 l -8,0 -60,0 -2,0 0,4 -16,0 0,-4 -2,0 -8,0 c -4.41828,0 -8,-3.58172 -8,-8 l 0,-8 0,0 z"/><text id="text6137-4-1" x="118.823" y="124.547" xml:space="preserve" style="font-style:normal;font-weight:400;font-size:16px;line-height:125%;font-family:sans-serif;text-align:center;letter-spacing:0;word-spacing:0;text-anchor:middle;fill:#000;fill-opacity:1;stroke:none;stroke-width:1px;stroke-linecap:butt;stroke-linejoin:miter;stroke-opacity:1"><tspan style="font-size:22.5px" id="tspan6139-5-3" x="118.823" y="124.547">↓</tspan></text></svg>