<svg xmlns="http://www.w3.org/2000/svg" xmlns:svg="http://www.w3.org/2000/svg" id="svg6018" width="462.032" height="350.922" version="1.1"><metadata id="metadata6024"/><g id="g5686" transform="translate(244,0.42154)"><g id="g5684" transform="scale(1.5)"><path id="path5674" d="m 0.5,14.5 v -4 a 4,4 90 0 1 4,-4 h 4 l 5,-6 5,6 h 9 35 4 a 4,4 90 0 1 4,4 v 4 h -4 v -3 h -4 v 10 h 4 v -3 h 4 v 4 a 4,4 90 0 1 -4,4 h -4 -35 -1 v 2 h -8 v -2 h -1 -4 a 5,5 90 0 0 -5,5 v 4 4 4 a 5,5 90 0 0 5,5 h 4 v 2 h 10 v -2 h 8 v 6 6 4 a 4,4 90 0 1 -4,4 h -4 -9 l -5,6 -5,-6 h -4 a 4,4 90 0 1 -4,-4 v -4 z" style="fill:#ffbf00;fill-opacity:1;stroke:#daaf30;stroke-width:1;stroke-linecap:round;stroke-opacity:1"/><text id="text5678" style="font-size:10px;font-family:sans-serif;text-anchor:start;fill:#000"><tspan id="tspan5676" x="5.333" y="21.5">action</tspan></text></g></g><g id="g5696" transform="translate(338.5,9.42154)"><g id="g5694" transform="scale(1.5)"><path id="path5688" d="m 8.5,0.5 h 60 v 20 h -60 v -8 -1 h -6 v 3 h -2 v -8 h 2 v 3 h 6 v -1 z" style="fill:#ff6648;fill-opacity:1;stroke:#ea4326;stroke-width:1;stroke-linecap:round;stroke-opacity:1"/><text id="text5692" style="font-size:10px;font-family:sans-serif;text-anchor:start;fill:#000"><tspan id="tspan5690" x="13.333" y="13.833">beat1</tspan></text></g></g><path id="path5722" d="m 258.25,53.67154 v -6 a 6,6 0 0 1 6,-6 h 6 v 3 h 15 v -3 h 72.53174 6 a 6,6 0 0 1 6,6 v 6 h -6 v -4.5 h -6 v 15 h 6 v -4.5 h 6 v 6 a 6,6 0 0 1 -6,6 h -6 -72.53174 -1.5 v 3 h -12 v -3 h -1.5 -6 a 6,6 0 0 1 -6,-6 v -6 z" style="fill:#3edcdd;fill-opacity:1;stroke:#1dbcbd;stroke-width:1.5;stroke-linecap:round;stroke-opacity:1"/><text id="text5726" x="257.5" y="40.922" style="font-size:15px;font-family:sans-serif;text-anchor:end;fill:#000;stroke-width:1.5"><tspan id="tspan5724" x="354.532" y="61.172" style="stroke-width:1.5">set volume</tspan></text><g id="g5744" transform="translate(358.53174,40.92154)"><g id="g5742" transform="scale(1.5)"><path id="path5736" d="m 8.5,0.5 h 60 v 20 h -60 v -8 -1 h -6 v 3 h -2 v -8 h 2 v 3 h 6 v -1 z" style="fill:#ff6ea1;fill-opacity:1;stroke:#ff2c76;stroke-width:1;stroke-linecap:round;stroke-opacity:1"/><text id="text5740" style="font-size:10px;font-family:sans-serif;text-anchor:start;fill:#000"><tspan id="tspan5738" x="13.333" y="13.833">75</tspan></text></g></g><g id="g5710" transform="translate(244,238.00003)"><g id="g5708" transform="scale(1.5)"><path id="path5698" d="m 0.5,14.5 v -4 a 4,4 90 0 1 4,-4 h 4 l 5,-6 5,6 h 9 35 4 a 4,4 90 0 1 4,4 v 4 h -4 v -3 h -4 v 10 h 4 v -3 h 4 v 4 a 4,4 90 0 1 -4,4 h -4 -35 -1 v 2 h -8 v -2 h -1 -4 a 5,5 90 0 0 -5,5 v 4 4 4 a 5,5 90 0 0 5,5 h 4 v 2 h 10 v -2 h 8 v 6 6 4 a 4,4 90 0 1 -4,4 h -4 -9 l -5,6 -5,-6 h -4 a 4,4 90 0 1 -4,-4 v -4 z" style="fill:#ffbf00;fill-opacity:1;stroke:#daaf30;stroke-width:1;stroke-linecap:round;stroke-opacity:1"/><text id="text5702" style="font-size:10px;font-family:sans-serif;text-anchor:start;fill:#000"><tspan id="tspan5700" x="5.333" y="21.5">action</tspan></text></g></g><g id="g5720" transform="translate(338.5,247.00003)"><g id="g5718" transform="scale(1.5)"><path id="path5712" d="m 8.5,0.5 h 60 v 20 h -60 v -8 -1 h -6 v 3 h -2 v -8 h 2 v 3 h 6 v -1 z" style="fill:#ff6648;fill-opacity:1;stroke:#ea4326;stroke-width:1;stroke-linecap:round;stroke-opacity:1"/><text id="text5716" style="font-size:10px;font-family:sans-serif;text-anchor:start;fill:#000"><tspan id="tspan5714" x="13.333" y="13.833">offbeat</tspan></text></g></g><path id="path5746" d="m 258.25,291.25003 v -6 a 6,6 0 0 1 6,-6 h 6 v 3 h 15 v -3 h 72.53174 6 a 6,6 0 0 1 6,6 v 6 h -6 v -4.5 h -6 v 15 h 6 v -4.5 h 6 v 6 a 6,6 0 0 1 -6,6 h -6 -72.53174 -1.5 v 3 h -12 v -3 h -1.5 -6 a 6,6 0 0 1 -6,-6 v -6 z" style="fill:#3edcdd;fill-opacity:1;stroke:#1dbcbd;stroke-width:1.5;stroke-linecap:round;stroke-opacity:1"/><text id="text5750" x="257.5" y="278.5" style="font-size:15px;font-family:sans-serif;text-anchor:end;fill:#000;stroke-width:1.5"><tspan id="tspan5748" x="354.532" y="298.75" style="stroke-width:1.5">set volume</tspan></text><g id="g5768" transform="translate(358.53174,278.50003)"><g id="g5766" transform="scale(1.5)"><path id="path5760" d="m 8.5,0.5 h 60 v 20 h -60 v -8 -1 h -6 v 3 h -2 v -8 h 2 v 3 h 6 v -1 z" style="fill:#ff6ea1;fill-opacity:1;stroke:#ff2c76;stroke-width:1;stroke-linecap:round;stroke-opacity:1"/><text id="text5764" style="font-size:10px;font-family:sans-serif;text-anchor:start;fill:#000"><tspan id="tspan5762" x="13.333" y="13.833">25</tspan></text></g></g><g id="g5820" transform="translate(244,119.21079)"><g id="g5818" transform="scale(1.5)"><path id="path5808" d="m 0.5,14.5 v -4 a 4,4 90 0 1 4,-4 h 4 l 5,-6 5,6 h 9 35 4 a 4,4 90 0 1 4,4 v 4 h -4 v -3 h -4 v 10 h 4 v -3 h 4 v 4 a 4,4 90 0 1 -4,4 h -4 -35 -1 v 2 h -8 v -2 h -1 -4 a 5,5 90 0 0 -5,5 v 4 4 4 a 5,5 90 0 0 5,5 h 4 v 2 h 10 v -2 h 8 v 6 6 4 a 4,4 90 0 1 -4,4 h -4 -9 l -5,6 -5,-6 h -4 a 4,4 90 0 1 -4,-4 v -4 z" style="fill:#ffbf00;fill-opacity:1;stroke:#daaf30;stroke-width:1;stroke-linecap:round;stroke-opacity:1"/><text id="text5812" style="font-size:10px;font-family:sans-serif;text-anchor:start;fill:#000"><tspan id="tspan5810" x="5.333" y="21.5">action</tspan></text></g></g><g id="g5830" transform="translate(338.5,128.21079)"><g id="g5828" transform="scale(1.5)"><path id="path5822" d="m 8.5,0.5 h 60 v 20 h -60 v -8 -1 h -6 v 3 h -2 v -8 h 2 v 3 h 6 v -1 z" style="fill:#ff6648;fill-opacity:1;stroke:#ea4326;stroke-width:1;stroke-linecap:round;stroke-opacity:1"/><text id="text5826" style="font-size:10px;font-family:sans-serif;text-anchor:start;fill:#000"><tspan id="tspan5824" x="13.333" y="13.833">beat3</tspan></text></g></g><path id="path5832" d="m 258.25,172.46079 v -6 a 6,6 0 0 1 6,-6 h 6 v 3 h 15 v -3 h 72.53174 6 a 6,6 0 0 1 6,6 v 6 h -6 v -4.5 h -6 v 15 h 6 v -4.5 h 6 v 6 a 6,6 0 0 1 -6,6 h -6 -72.53174 -1.5 v 3 h -12 v -3 h -1.5 -6 a 6,6 0 0 1 -6,-6 v -6 z" style="fill:#3edcdd;fill-opacity:1;stroke:#1dbcbd;stroke-width:1.5;stroke-linecap:round;stroke-opacity:1"/><text id="text5836" x="257.5" y="159.711" style="font-size:15px;font-family:sans-serif;text-anchor:end;fill:#000;stroke-width:1.5"><tspan id="tspan5834" x="354.532" y="179.961" style="stroke-width:1.5">set volume</tspan></text><g id="g5854" transform="translate(358.53174,159.71079)"><g id="g5852" transform="scale(1.5)"><path id="path5846" d="m 8.5,0.5 h 60 v 20 h -60 v -8 -1 h -6 v 3 h -2 v -8 h 2 v 3 h 6 v -1 z" style="fill:#ff6ea1;fill-opacity:1;stroke:#ff2c76;stroke-width:1;stroke-linecap:round;stroke-opacity:1"/><text id="text5850" style="font-size:10px;font-family:sans-serif;text-anchor:start;fill:#000"><tspan id="tspan5848" x="13.333" y="13.833">50</tspan></text></g></g><g id="g6789" transform="translate(0,23.671537)"><g id="g5652"><g id="g5650" transform="scale(1.5)"><path style="fill:#fe994f;fill-opacity:1;stroke:#e8680e;stroke-width:1;stroke-linecap:round;stroke-opacity:1" id="path5636" d="m 0.5,8.5 v -4 a 4,4 90 0 1 4,-4 h 4 v 2 h 10 v -2 h 33.364258 4 a 4,4 90 0 1 4,4 v 4 h -4 v -3 h -4 v 10 h 4 v -3 h 4 v 17 h -4 v -3 h -4 v 10 h 4 v -3 h 4 v 4 a 4,4 90 0 1 -4,4 h -4 H 18.5 h -1 v 2 h -8 v -2 h -1 -4 a 4,4 90 0 1 -4,-4 v -4 -21 z"/><text style="font-size:10px;font-family:sans-serif;text-anchor:end;fill:#000" id="text5640"><tspan id="tspan5638" x="49.698" y="24">on beat</tspan></text><text style="font-size:6.66666651px;font-family:sans-serif;text-anchor:end;fill:#000" id="text5644"><tspan id="tspan5642" x="49.698" y="11.25">beat</tspan></text><text style="font-size:6.66666651px;font-family:sans-serif;text-anchor:end;fill:#000" id="text5648"><tspan id="tspan5646" x="49.698" y="32.25">do</tspan></text></g></g><g id="g5662" transform="translate(78.54639)"><g id="g5660" transform="scale(1.5)"><path style="fill:#ff6ea1;fill-opacity:1;stroke:#ff2c76;stroke-width:1;stroke-linecap:round;stroke-opacity:1" id="path5654" d="m 8.5,0.5 h 60 v 20 h -60 v -8 -1 h -6 v 3 h -2 v -8 h 2 v 3 h 6 v -1 z"/><text style="font-size:10px;font-family:sans-serif;text-anchor:start;fill:#000" id="text5658"><tspan id="tspan5656" x="13.333" y="13.833">1</tspan></text></g></g><g id="g5672" transform="translate(78.54639,31.5)"><g id="g5670" transform="scale(1.5)"><path style="fill:#ff6648;fill-opacity:1;stroke:#ea4326;stroke-width:1;stroke-linecap:round;stroke-opacity:1" id="path5664" d="m 8.5,0.5 h 60 v 20 h -60 v -8 -1 h -6 v 3 h -2 v -8 h 2 v 3 h 6 v -1 z"/><text style="font-size:10px;font-family:sans-serif;text-anchor:start;fill:#000" id="text5668"><tspan id="tspan5666" x="13.333" y="13.833">beat1</tspan></text></g></g></g><g id="g6768" transform="translate(0,79.460787)"><g id="g5786" transform="translate(0,63)"><g id="g5784" transform="scale(1.5)"><path style="fill:#fe994f;fill-opacity:1;stroke:#e8680e;stroke-width:1;stroke-linecap:round;stroke-opacity:1" id="path5770" d="m 0.5,8.5 v -4 a 4,4 90 0 1 4,-4 h 4 v 2 h 10 v -2 h 33.364258 4 a 4,4 90 0 1 4,4 v 4 h -4 v -3 h -4 v 10 h 4 v -3 h 4 v 17 h -4 v -3 h -4 v 10 h 4 v -3 h 4 v 4 a 4,4 90 0 1 -4,4 h -4 H 18.5 h -1 v 2 h -8 v -2 h -1 -4 a 4,4 90 0 1 -4,-4 v -4 -21 z"/><text style="font-size:10px;font-family:sans-serif;text-anchor:end;fill:#000" id="text5774"><tspan id="tspan5772" x="49.698" y="24">on beat</tspan></text><text style="font-size:6.66666651px;font-family:sans-serif;text-anchor:end;fill:#000" id="text5778"><tspan id="tspan5776" x="49.698" y="11.25">beat</tspan></text><text style="font-size:6.66666651px;font-family:sans-serif;text-anchor:end;fill:#000" id="text5782"><tspan id="tspan5780" x="49.698" y="32.25">do</tspan></text></g></g><g id="g5796" transform="translate(78.54639,63)"><g id="g5794" transform="scale(1.5)"><path style="fill:#ff6ea1;fill-opacity:1;stroke:#ff2c76;stroke-width:1;stroke-linecap:round;stroke-opacity:1" id="path5788" d="m 8.5,0.5 h 60 v 20 h -60 v -8 -1 h -6 v 3 h -2 v -8 h 2 v 3 h 6 v -1 z"/><text style="font-size:10px;font-family:sans-serif;text-anchor:start;fill:#000" id="text5792"><tspan id="tspan5790" x="13.333" y="13.833">3</tspan></text></g></g><g id="g5806" transform="translate(78.54639,94.5)"><g id="g5804" transform="scale(1.5)"><path style="fill:#ff6648;fill-opacity:1;stroke:#ea4326;stroke-width:1;stroke-linecap:round;stroke-opacity:1" id="path5798" d="m 8.5,0.5 h 60 v 20 h -60 v -8 -1 h -6 v 3 h -2 v -8 h 2 v 3 h 6 v -1 z"/><text style="font-size:10px;font-family:sans-serif;text-anchor:start;fill:#000" id="text5802"><tspan id="tspan5800" x="13.333" y="13.833">beat3</tspan></text></g></g></g><g id="g5868" transform="translate(0,277.00003)"><g id="g5866" transform="scale(1.5)"><path id="path5856" d="m 0.5,8.5 v -4 a 4,4 90 0 1 4,-4 h 4 v 2 h 10 v -2 h 58.203125 4 a 4,4 90 0 1 4,4 v 4 h -4 v -3 h -4 v 10 h 4 v -3 h 4 v 4 a 4,4 90 0 1 -4,4 h -4 H 18.5 h -1 v 2 h -8 v -2 h -1 -4 a 4,4 90 0 1 -4,-4 v -4 z" style="fill:#fe994f;fill-opacity:1;stroke:#e8680e;stroke-width:1;stroke-linecap:round;stroke-opacity:1"/><text id="text5860" style="font-size:10px;font-family:sans-serif;text-anchor:end;fill:#000"><tspan id="tspan5858" x="74.536" y="13.5">on offbeat do</tspan></text></g></g><g id="g5878" transform="translate(115.80469,278.50003)"><g id="g5876" transform="scale(1.5)"><path id="path5870" d="m 8.5,0.5 h 60 v 20 h -60 v -8 -1 h -6 v 3 h -2 v -8 h 2 v 3 h 6 v -1 z" style="fill:#ff6648;fill-opacity:1;stroke:#ea4326;stroke-width:1;stroke-linecap:round;stroke-opacity:1"/><text id="text5874" style="font-size:10px;font-family:sans-serif;text-anchor:start;fill:#000"><tspan id="tspan5872" x="13.333" y="13.833">offbeat</tspan></text></g></g></svg>