<svg xmlns="http://www.w3.org/2000/svg" xmlns:svg="http://www.w3.org/2000/svg" id="svg5587" width="285.221" height="129" version="1.1" viewBox="0 0 267.395 120.937"><metadata id="metadata5592"/><flowRoot style="font-style:normal;font-weight:400;font-size:16px;line-height:125%;font-family:sans-serif;text-align:center;letter-spacing:0;word-spacing:0;text-anchor:middle;fill:#000;fill-opacity:1;stroke:none;stroke-width:1px;stroke-linecap:butt;stroke-linejoin:miter;stroke-opacity:1" id="flowRoot13151" transform="translate(-401.23843,156.46875)" xml:space="preserve"><flowRegion id="flowRegion13153"><rect id="rect13155" width="341.506" height="75.89" x="-46.463" y="28.555"/></flowRegion><flowPara id="flowPara13157"/></flowRoot><path id="path1527" d="m 0.703125,11.953125 v -5.625 a 5.625,5.625 0 0 1 5.625,-5.625 h 5.625 v 2.8125 h 14.0625 v -2.8125 h 12.65625 50.832367 5.625 a 5.625,5.625 0 0 1 5.624998,5.625 v 5.625 h -5.624998 v -4.21875 h -5.625 v 14.0625 h 5.625 v -4.21875 h 5.624998 v 5.625 a 5.625,5.625 0 0 1 -5.624998,5.625 h -5.625 -50.832367 -1.40625 v 2.8125 h -11.25 v -2.8125 h -1.40625 -5.625 a 7.03125,7.03125 0 0 0 -7.03125,7.03125 v 5.625 5.625 29.53125 5.625 a 7.03125,7.03125 0 0 0 7.03125,7.03125 h 5.625 v 2.8125 h 14.0625 v -2.8125 h 11.25 v 8.4375 8.437505 5.625 a 5.625,5.625 0 0 1 -5.625,5.625 h -5.625 -12.65625 -1.40625 v 2.8125 h -11.25 v -2.8125 h -1.40625 -5.625 a 5.625,5.625 0 0 1 -5.625,-5.625 v -5.625 z" style="fill:#fe994f;fill-opacity:1;stroke:#e8680e;stroke-width:1.40625;stroke-linecap:round;stroke-opacity:1"/><text id="text1531" style="font-size:14.0625px;font-family:sans-serif;text-anchor:start;fill:#000;stroke-width:1.40625"><tspan id="tspan1529" x="7.5" y="21.445" style="stroke-width:1.40625">note value</tspan></text><path id="path1541" d="m 102.16049,11.953125 v -5.625 a 5.625,5.625 0 0 1 5.625,-5.625 h 5.625 14.0625 42.1875 5.625 a 5.625,5.625 0 0 1 5.625,5.625 v 5.625 h -5.625 v -4.21875 h -5.625 v 14.0625 h 5.625 v -4.21875 h 5.625 v 23.90625 h -5.625 v -4.21875 h -5.625 v 14.0625 h 5.625 v -4.21875 h 5.625 v 5.625 a 5.625,5.625 0 0 1 -5.625,5.625 h -5.625 -42.1875 -14.0625 -5.625 a 5.625,5.625 0 0 1 -5.625,-5.625 v -5.625 -29.53125 -1.40625 h -8.437495 v 4.21875 h -2.8125 v -11.25 h 2.8125 v 4.21875 h 8.437495 z" style="fill:#ff6ea1;fill-opacity:1;stroke:#ff2c76;stroke-width:1.40625;stroke-linecap:round;stroke-opacity:1"/><text id="text1545" x="90.207" style="font-size:19.6875px;font-family:sans-serif;text-anchor:end;fill:#000;stroke-width:1.40625"><tspan id="tspan1543" x="166.614" y="33.469" style="stroke-width:1.40625">/</tspan></text><path id="path1559" d="m 182.31674,0.703125 h 84.375 v 28.125 h -84.375 v -11.25 -1.40625 h -8.4375 v 4.21875 h -2.8125 v -11.25 h 2.8125 v 4.21875 h 8.4375 v -1.40625 z" style="fill:#ff6ea1;fill-opacity:1;stroke:#ff2c76;stroke-width:1.40625;stroke-linecap:round;stroke-opacity:1"/><text id="text1563" x="170.364" style="font-size:14.0625px;font-family:sans-serif;text-anchor:start;fill:#000;stroke-width:1.40625"><tspan id="tspan1561" x="189.114" y="19.453" style="stroke-width:1.40625">1</tspan></text><path id="path1569" d="m 182.31674,30.234375 h 84.375 v 28.125 h -84.375 v -11.25 -1.40625 h -8.4375 v 4.21875 h -2.8125 v -11.25 h 2.8125 v 4.21875 h 8.4375 v -1.40625 z" style="fill:#ff6ea1;fill-opacity:1;stroke:#ff2c76;stroke-width:1.40625;stroke-linecap:round;stroke-opacity:1"/><text id="text1573" x="170.364" y="29.531" style="font-size:14.0625px;font-family:sans-serif;text-anchor:start;fill:#000;stroke-width:1.40625"><tspan id="tspan1571" x="189.114" y="48.984" style="stroke-width:1.40625">4</tspan></text><path id="path1579" d="m 13.359375,41.484375 v -5.625 a 5.625,5.625 0 0 1 5.625,-5.625 h 5.625 v 2.8125 h 14.0625 v -2.8125 h 28.125 5.625 a 5.625,5.625 0 0 1 5.625,5.625 v 5.625 5.625 5.625 a 5.625,5.625 0 0 1 -5.625,5.625 h -5.625 -28.125 -1.40625 v 2.8125 h -11.25 v -2.8125 h -1.40625 -5.625 a 5.625,5.625 0 0 1 -5.625,-5.625 v -5.625 z" style="fill:#c4c4c4;fill-opacity:1;stroke:#a0a0a0;stroke-width:1.40625;stroke-linecap:round;stroke-opacity:1"/><text id="text1583" x="12.656" y="29.531" style="font-size:14.0625px;font-family:sans-serif;text-anchor:end;fill:#000;stroke-width:1.40625"><tspan id="tspan1581" x="63.75" y="48.516" style="stroke-width:1.40625">↓</tspan></text><path id="path1589" d="m 13.359375,71.015626 v -5.625 a 5.625,5.625 0 0 1 5.625,-5.625 h 5.625 v 2.8125 h 14.0625 v -2.8125 h 42.1875 5.625 a 5.625,5.625 0 0 1 5.625,5.625 v 5.625 h -5.625 v -4.21875 h -5.625 v 14.0625 h 5.625 v -4.21875 h 5.625 v 5.625 a 5.625,5.625 0 0 1 -5.625,5.625 h -5.625 -42.1875 -1.40625 v 2.8125 h -11.25 v -2.8125 h -1.40625 -5.625 a 5.625,5.625 0 0 1 -5.625,-5.625 v -5.625 z" style="fill:#3edcdd;fill-opacity:1;stroke:#1dbcbd;stroke-width:1.40625;stroke-linecap:round;stroke-opacity:1"/><text id="text1593" x="12.656" y="59.063" style="font-size:14.0625px;font-family:sans-serif;text-anchor:end;fill:#000;stroke-width:1.40625"><tspan id="tspan1591" x="77.813" y="78.047" style="stroke-width:1.40625">drum</tspan></text><path id="path1603" d="m 93.515625,59.765626 h 84.374995 v 28.125 H 93.515625 v -11.25 -1.40625 h -8.4375 v 4.21875 h -2.8125 v -11.25 h 2.8125 v 4.21875 h 8.4375 v -1.40625 z" style="fill:#3edcdd;fill-opacity:1;stroke:#1dbcbd;stroke-width:1.40625;stroke-linecap:round;stroke-opacity:1"/><text id="text1607" x="81.563" y="59.063" style="font-size:14.0625px;font-family:sans-serif;text-anchor:start;fill:#000;stroke-width:1.40625"><tspan id="tspan1605" x="100.313" y="78.516" style="stroke-width:1.40625">kick drum</tspan></text></svg>