<svg xmlns="http://www.w3.org/2000/svg" xmlns:svg="http://www.w3.org/2000/svg" id="svg4075" width="202.352" height="176.343" version="1.1" viewBox="0 0 202.352 176.343"><metadata id="metadata4080"/><path id="path943" d="m 0.75,22.171537 v -6 a 6,6 0 0 1 6,-6 h 6 l 7.5,-8.9999996 7.5,8.9999996 h 13.5 45 6 a 6,6 0 0 1 6,6 v 6 6 6 a 6,6 0 0 1 -6,6 h -6 -45 -1.5 v 3 h -12 v -3 h -1.5 -6 a 7.5,7.5 0 0 0 -7.5,7.5 v 6 6 63.000003 6 a 7.5,7.5 0 0 0 7.5,7.5 h 6 v 3 h 15 v -3 h 12 v 9 9 6 a 6,6 0 0 1 -6,6 h -6 -13.5 l -7.5,9 -7.5,-9 h -6 a 6,6 0 0 1 -6,-6 v -6 z" style="fill:#ffbf00;fill-opacity:1;stroke:#daaf30;stroke-width:1.5;stroke-linecap:round;stroke-opacity:1"/><text id="text947" y=".422" style="font-size:15px;font-family:sans-serif;text-anchor:start;fill:#000;stroke-width:1.5"><tspan id="tspan945" x="8" y="32.672" style="stroke-width:1.5">start</tspan></text><path id="path953" d="m 14.25,53.671537 v -6 a 6,6 0 0 1 6,-6 h 6 v 3 h 15 v -3 h 13.5 43.352051 5.999999 a 6,6 0 0 1 6,6 v 6 h -6 v -4.5 h -6 v 15 h 6 v -4.5 h 6 v 6 a 6,6 0 0 1 -6,6 h -6 H 54.75 53.25 v 3 h -12 v -3 h -1.5 -6 a 7.5,7.5 0 0 0 -7.5,7.5 v 6 6 6 a 7.5,7.5 0 0 0 7.5,7.500003 h 6 v 3 h 15 v -3 h 12 v 9 9 6 a 6,6 0 0 1 -6,6 h -6 -13.5 -1.5 v 3 h -12 v -3 h -1.5 -6 a 6,6 0 0 1 -6,-6 v -6 z" style="fill:#3edcdd;fill-opacity:1;stroke:#1dbcbd;stroke-width:1.5;stroke-linecap:round;stroke-opacity:1"/><text id="text957" x="13.5" y="40.922" style="font-size:15px;font-family:sans-serif;text-anchor:start;fill:#000;stroke-width:1.5"><tspan id="tspan955" x="21.5" y="63.797" style="stroke-width:1.5">set drum</tspan></text><path id="path967" d="m 111.60205,41.671537 h 90 v 30 h -90 v -12 -1.5 h -9 v 4.5 h -3 v -12 h 3 v 4.5 h 9 v -1.5 z" style="fill:#3edcdd;fill-opacity:1;stroke:#1dbcbd;stroke-width:1.5;stroke-linecap:round;stroke-opacity:1"/><text id="text971" x="98.852" y="40.922" style="font-size:15px;font-family:sans-serif;text-anchor:start;fill:#000;stroke-width:1.5"><tspan id="tspan969" x="118.852" y="61.672" style="stroke-width:1.5">kick drum</tspan></text><path id="path1001" d="m 27.75,85.171537 v -6 a 6,6 0 0 1 6,-6 h 6 v 3 h 15 v -3 h 60 6 a 6,6 0 0 1 6,6 v 6 6 6 a 6,6 0 0 1 -6,6.000003 h -6 -60 -1.5 v 3 h -12 v -3 h -1.5 -6 a 6,6 0 0 1 -6,-6.000003 v -6 z" style="fill:#ffbf00;fill-opacity:1;stroke:#daaf30;stroke-width:1.5;stroke-linecap:round;stroke-opacity:1"/><text id="text1005" x="27" y="72.422" style="font-size:15px;font-family:sans-serif;text-anchor:end;fill:#000;stroke-width:1.5"><tspan id="tspan1003" x="111.5" y="92.672" style="stroke-width:1.5">chunk</tspan></text></svg>