<svg xmlns="http://www.w3.org/2000/svg" xmlns:svg="http://www.w3.org/2000/svg" id="svg3641" width="202.5" height="396.843" version="1.1"><metadata id="metadata3670"/><path id="path922" d="m 0.75,22.171537 v -6 a 6,6 0 0 1 6,-6 h 6 l 7.5,-8.9999996 7.5,8.9999996 h 13.5 110.88135 6 a 6,6 0 0 1 6,6 v 6 6 6 a 6,6 0 0 1 -6,6 h -6 H 41.25 39.75 v 3 h -12 v -3 h -1.5 -6 a 7.5,7.5 0 0 0 -7.5,7.5 v 6 6 283.500003 6 a 7.5,7.5 0 0 0 7.5,7.5 h 6 v 3 h 15 v -3 h 12 v 9 9 6 a 6,6 0 0 1 -6,6 h -6 -13.5 l -7.5,9 -7.5,-9 h -6 a 6,6 0 0 1 -6,-6 v -6 z" style="fill:#7cd622;fill-opacity:1;stroke:#57ad02;stroke-width:1.5;stroke-linecap:round;stroke-opacity:1"/><text id="text926" x="0" y=".422" style="font-size:15px;font-family:sans-serif;text-anchor:start;fill:#000;stroke-width:1.5"><tspan id="tspan924" x="8" y="32.672" style="stroke-width:1.5">pitch-drum mapper</tspan></text><path id="path932" d="m 14.25,53.671537 v -6 a 6,6 0 0 1 6,-6 h 6 v 3 h 15 v -3 h 45 6 a 6,6 0 0 1 6,6 v 6 h -6 v -4.5 h -6 v 15 h 6 v -4.5 h 6 v 25.5 h -6 v -4.5 h -6 v 15 h 6 v -4.5 h 6 v 6 a 6,6 0 0 1 -6,6.000003 h -6 -45 -1.5 v 3 h -12 v -3 h -1.5 -6 a 6,6 0 0 1 -6,-6.000003 v -6 -31.5 z" style="fill:#7cd622;fill-opacity:1;stroke:#57ad02;stroke-width:1.5;stroke-linecap:round;stroke-opacity:1"/><text id="text936" x="13.5" y="40.922" style="font-size:15px;font-family:sans-serif;text-anchor:end;fill:#000;stroke-width:1.5"><tspan id="tspan934" x="83" y="76.922" style="stroke-width:1.5">pitch</tspan></text><text id="text940" x="13.5" y="40.922" style="font-size:10px;font-family:sans-serif;text-anchor:end;fill:#000;stroke-width:1.5"><tspan id="tspan938" x="83" y="57.797" style="stroke-width:1.5">name</tspan></text><text id="text944" x="13.5" y="40.922" style="font-size:10px;font-family:sans-serif;text-anchor:end;fill:#000;stroke-width:1.5"><tspan id="tspan942" x="83" y="89.297" style="stroke-width:1.5">octave</tspan></text><path id="path950" d="m 99.75,41.671537 h 90 v 30 h -90 v -12 -1.5 h -9 v 4.5 h -3 v -12 h 3 v 4.5 h 9 v -1.5 z" style="fill:#7cd622;fill-opacity:1;stroke:#57ad02;stroke-width:1.5;stroke-linecap:round;stroke-opacity:1"/><text id="text954" x="87" y="40.922" style="font-size:15px;font-family:sans-serif;text-anchor:start;fill:#000;stroke-width:1.5"><tspan id="tspan952" x="107" y="61.672" style="stroke-width:1.5">sol</tspan></text><path id="path960" d="m 99.75,73.171537 h 90 v 30.000003 h -90 v -12.000003 -1.5 h -9 v 4.5 h -3 v -12 h 3 v 4.5 h 9 v -1.5 z" style="fill:#ff6ea1;fill-opacity:1;stroke:#ff2c76;stroke-width:1.5;stroke-linecap:round;stroke-opacity:1"/><text id="text964" x="87" y="72.422" style="font-size:15px;font-family:sans-serif;text-anchor:start;fill:#000;stroke-width:1.5"><tspan id="tspan962" x="107" y="93.172" style="stroke-width:1.5">4</tspan></text><path id="path970" d="m 14.25,116.67154 v -6 a 6,6 0 0 1 6,-6 h 6 v 3 h 15 v -3 h 45 6 a 6,6 0 0 1 6,6 v 6 h -6 v -4.5 h -6 v 15 h 6 v -4.5 h 6 v 25.5 h -6 v -4.5 h -6 v 15 h 6 v -4.5 h 6 v 6 a 6,6 0 0 1 -6,6 h -6 -45 -1.5 v 3 h -12 v -3 h -1.5 -6 a 6,6 0 0 1 -6,-6 v -6 -31.5 z" style="fill:#7cd622;fill-opacity:1;stroke:#57ad02;stroke-width:1.5;stroke-linecap:round;stroke-opacity:1"/><text id="text974" x="13.5" y="103.922" style="font-size:15px;font-family:sans-serif;text-anchor:end;fill:#000;stroke-width:1.5"><tspan id="tspan972" x="83" y="139.922" style="stroke-width:1.5">pitch</tspan></text><text id="text978" x="13.5" y="103.922" style="font-size:10px;font-family:sans-serif;text-anchor:end;fill:#000;stroke-width:1.5"><tspan id="tspan976" x="83" y="120.797" style="stroke-width:1.5">name</tspan></text><text id="text982" x="13.5" y="103.922" style="font-size:10px;font-family:sans-serif;text-anchor:end;fill:#000;stroke-width:1.5"><tspan id="tspan980" x="83" y="152.297" style="stroke-width:1.5">octave</tspan></text><path id="path988" d="m 99.75,104.67154 h 90 v 30 h -90 v -12 -1.5 h -9 v 4.5 h -3 v -12 h 3 v 4.5 h 9 v -1.5 z" style="fill:#7cd622;fill-opacity:1;stroke:#57ad02;stroke-width:1.5;stroke-linecap:round;stroke-opacity:1"/><text id="text992" x="87" y="103.922" style="font-size:15px;font-family:sans-serif;text-anchor:start;fill:#000;stroke-width:1.5"><tspan id="tspan990" x="107" y="124.672" style="stroke-width:1.5">mi</tspan></text><path id="path998" d="m 99.75,136.17154 h 90 v 30 h -90 v -12 -1.5 h -9 v 4.5 h -3 v -12 h 3 v 4.5 h 9 v -1.5 z" style="fill:#ff6ea1;fill-opacity:1;stroke:#ff2c76;stroke-width:1.5;stroke-linecap:round;stroke-opacity:1"/><text id="text1002" x="87" y="135.422" style="font-size:15px;font-family:sans-serif;text-anchor:start;fill:#000;stroke-width:1.5"><tspan id="tspan1000" x="107" y="156.172" style="stroke-width:1.5">4</tspan></text><path id="path1008" d="m 14.25,179.67154 v -6 a 6,6 0 0 1 6,-6 h 6 v 3 h 15 v -3 h 45 6 a 6,6 0 0 1 6,6 v 6 h -6 v -4.5 h -6 v 15 h 6 v -4.5 h 6 v 25.5 h -6 v -4.5 h -6 v 15 h 6 v -4.5 h 6 v 6 a 6,6 0 0 1 -6,6 h -6 -45 -1.5 v 3 h -12 v -3 h -1.5 -6 a 6,6 0 0 1 -6,-6 v -6 -31.5 z" style="fill:#7cd622;fill-opacity:1;stroke:#57ad02;stroke-width:1.5;stroke-linecap:round;stroke-opacity:1"/><text id="text1012" x="13.5" y="166.922" style="font-size:15px;font-family:sans-serif;text-anchor:end;fill:#000;stroke-width:1.5"><tspan id="tspan1010" x="83" y="202.922" style="stroke-width:1.5">pitch</tspan></text><text id="text1016" x="13.5" y="166.922" style="font-size:10px;font-family:sans-serif;text-anchor:end;fill:#000;stroke-width:1.5"><tspan id="tspan1014" x="83" y="183.797" style="stroke-width:1.5">name</tspan></text><text id="text1020" x="13.5" y="166.922" style="font-size:10px;font-family:sans-serif;text-anchor:end;fill:#000;stroke-width:1.5"><tspan id="tspan1018" x="83" y="215.297" style="stroke-width:1.5">octave</tspan></text><path id="path1026" d="m 99.75,167.67154 h 90 v 30 h -90 v -12 -1.5 h -9 v 4.5 h -3 v -12 h 3 v 4.5 h 9 v -1.5 z" style="fill:#7cd622;fill-opacity:1;stroke:#57ad02;stroke-width:1.5;stroke-linecap:round;stroke-opacity:1"/><text id="text1030" x="87" y="166.922" style="font-size:15px;font-family:sans-serif;text-anchor:start;fill:#000;stroke-width:1.5"><tspan id="tspan1028" x="107" y="187.672" style="stroke-width:1.5">re</tspan></text><path id="path1036" d="m 99.75,199.17154 h 90 v 30 h -90 v -12 -1.5 h -9 v 4.5 h -3 v -12 h 3 v 4.5 h 9 v -1.5 z" style="fill:#ff6ea1;fill-opacity:1;stroke:#ff2c76;stroke-width:1.5;stroke-linecap:round;stroke-opacity:1"/><text id="text1040" x="87" y="198.422" style="font-size:15px;font-family:sans-serif;text-anchor:start;fill:#000;stroke-width:1.5"><tspan id="tspan1038" x="107" y="219.172" style="stroke-width:1.5">4</tspan></text><path id="path1046" d="m 14.25,242.67154 v -6 a 6,6 0 0 1 6,-6 h 6 v 3 h 15 v -3 h 45 6 a 6,6 0 0 1 6,6 v 6 h -6 v -4.5 h -6 v 15 h 6 v -4.5 h 6 v 6 a 6,6 0 0 1 -6,6 h -6 -45 -1.5 v 3 h -12 v -3 h -1.5 -6 a 6,6 0 0 1 -6,-6 v -6 z" style="fill:#3edcdd;fill-opacity:1;stroke:#1dbcbd;stroke-width:1.5;stroke-linecap:round;stroke-opacity:1"/><text id="text1050" x="13.5" y="229.922" style="font-size:15px;font-family:sans-serif;text-anchor:end;fill:#000;stroke-width:1.5"><tspan id="tspan1048" x="83" y="250.172" style="stroke-width:1.5">drum</tspan></text><path id="path1060" d="m 99.75,230.67154 h 90 v 30 h -90 v -12 -1.5 h -9 v 4.5 h -3 v -12 h 3 v 4.5 h 9 v -1.5 z" style="fill:#3edcdd;fill-opacity:1;stroke:#1dbcbd;stroke-width:1.5;stroke-linecap:round;stroke-opacity:1"/><text id="text1064" x="87" y="229.922" style="font-size:15px;font-family:sans-serif;text-anchor:start;fill:#000;stroke-width:1.5"><tspan id="tspan1062" x="107" y="250.672" style="stroke-width:1.5">kick drum</tspan></text><path id="path1070" d="m 14.25,274.17154 v -6 a 6,6 0 0 1 6,-6 h 6 v 3 h 15 v -3 h 45 6 a 6,6 0 0 1 6,6 v 6 h -6 v -4.5 h -6 v 15 h 6 v -4.5 h 6 v 6 a 6,6 0 0 1 -6,6 h -6 -45 -1.5 v 3 h -12 v -3 h -1.5 -6 a 6,6 0 0 1 -6,-6 v -6 z" style="fill:#3edcdd;fill-opacity:1;stroke:#1dbcbd;stroke-width:1.5;stroke-linecap:round;stroke-opacity:1"/><text id="text1074" x="13.5" y="261.422" style="font-size:15px;font-family:sans-serif;text-anchor:end;fill:#000;stroke-width:1.5"><tspan id="tspan1072" x="83" y="281.672" style="stroke-width:1.5">drum</tspan></text><path id="path1084" d="m 99.75,262.17154 h 90 v 30 h -90 v -12 -1.5 h -9 v 4.5 h -3 v -12 h 3 v 4.5 h 9 v -1.5 z" style="fill:#3edcdd;fill-opacity:1;stroke:#1dbcbd;stroke-width:1.5;stroke-linecap:round;stroke-opacity:1"/><text id="text1088" x="87" y="261.422" style="font-size:15px;font-family:sans-serif;text-anchor:start;fill:#000;stroke-width:1.5"><tspan id="tspan1086" x="107" y="282.172" style="stroke-width:1.5">tom tom</tspan></text><path id="path1094" d="m 14.25,337.17154 v -6 a 6,6 0 0 1 6,-6 h 6 v 3 h 15 v -3 h 45 6 a 6,6 0 0 1 6,6 v 6 h -6 v -4.5 h -6 v 15 h 6 v -4.5 h 6 v 6 a 6,6 0 0 1 -6,6 h -6 -45 -1.5 v 3 h -12 v -3 h -1.5 -6 a 6,6 0 0 1 -6,-6 v -6 z" style="fill:#3edcdd;fill-opacity:1;stroke:#1dbcbd;stroke-width:1.5;stroke-linecap:round;stroke-opacity:1"/><text id="text1098" x="13.5" y="324.422" style="font-size:15px;font-family:sans-serif;text-anchor:end;fill:#000;stroke-width:1.5"><tspan id="tspan1096" x="83" y="344.672" style="stroke-width:1.5">drum</tspan></text><path id="path1108" d="m 99.75,325.17154 h 102 v 30 h -102 v -12 -1.5 h -9 v 4.5 h -3 v -12 h 3 v 4.5 h 9 v -1.5 z" style="fill:#3edcdd;fill-opacity:1;stroke:#1dbcbd;stroke-width:1.5;stroke-linecap:round;stroke-opacity:1"/><text id="text1112" x="87" y="324.422" style="font-size:15px;font-family:sans-serif;text-anchor:start;fill:#000;stroke-width:1.5"><tspan id="tspan1110" x="107" y="345.172" style="stroke-width:1.5">triangle bell</tspan></text><path id="path1180" d="m 14.25,305.67154 v -6 a 6,6 0 0 1 6,-6 h 6 v 3 h 15 v -3 h 45 6 a 6,6 0 0 1 6,6 v 6 h -6 v -4.5 h -6 v 15 h 6 v -4.5 h 6 v 6 a 6,6 0 0 1 -6,6 h -6 -45 -1.5 v 3 h -12 v -3 h -1.5 -6 a 6,6 0 0 1 -6,-6 v -6 z" style="fill:#3edcdd;fill-opacity:1;stroke:#1dbcbd;stroke-width:1.5;stroke-linecap:round;stroke-opacity:1"/><text id="text1184" x="13.5" y="292.922" style="font-size:15px;font-family:sans-serif;text-anchor:end;fill:#000;stroke-width:1.5"><tspan id="tspan1182" x="83" y="313.172" style="stroke-width:1.5">drum</tspan></text><path id="path1194" d="m 99.75,293.67154 h 90 v 30 h -90 v -12 -1.5 h -9 v 4.5 h -3 v -12 h 3 v 4.5 h 9 v -1.5 z" style="fill:#3edcdd;fill-opacity:1;stroke:#1dbcbd;stroke-width:1.5;stroke-linecap:round;stroke-opacity:1"/><text id="text1198" x="87" y="292.922" style="font-size:15px;font-family:sans-serif;text-anchor:start;fill:#000;stroke-width:1.5"><tspan id="tspan1196" x="107" y="313.672" style="stroke-width:1.5">ride bell</tspan></text></svg>