<svg xmlns="http://www.w3.org/2000/svg" xmlns:svg="http://www.w3.org/2000/svg" id="svg5587" width="203.705" height="431.103" version="1.1" viewBox="0 0 203.705 431.103"><metadata id="metadata5592"/><path id="path1164" d="m 0.703125,20.785816 v -5.625 a 5.625,5.625 0 0 1 5.625,-5.6249996 h 5.625 l 7.03125,-8.4375 7.03125,8.4375 h 12.65625 49.21875 5.625 a 5.625,5.625 0 0 1 5.625,5.6249996 v 5.625 h -5.625 v -4.21875 h -5.625 v 14.0625 h 5.625 v -4.21875 h 5.625 v 5.625 a 5.625,5.625 0 0 1 -5.625,5.625 h -5.625 -49.21875 -1.40625 v 2.8125 h -11.25 v -2.8125 h -1.40625 -5.625 a 7.03125,7.03125 0 0 0 -7.03125,7.03125 v 5.625 5.625 324.843754 5.625 a 7.03125,7.03125 0 0 0 7.03125,7.03125 h 5.625 v 2.8125 h 14.0625 v -2.8125 h 11.25 v 8.4375 8.4375 5.625 a 5.625,5.625 0 0 1 -5.625,5.625 h -5.625 -12.65625 l -7.03125,8.4375 -7.03125,-8.4375 h -5.625 a 5.625,5.625 0 0 1 -5.625,-5.625 v -5.625 z" style="fill:#ffbf00;fill-opacity:1;stroke:#daaf30;stroke-width:1.40625;stroke-linecap:round;stroke-opacity:1"/><text id="text1168" y=".395" style="font-size:14.0625px;font-family:sans-serif;text-anchor:start;fill:#000;stroke-width:1.40625"><tspan id="tspan1166" x="7.5" y="30.63" style="stroke-width:1.40625">action</tspan></text><path id="path1178" d="m 100.54689,9.5358164 h 84.37499 V 37.660816 h -84.37499 v -11.25 -1.40625 h -8.437505 v 4.21875 h -2.8125 v -11.25 h 2.8125 v 4.21875 h 8.437505 v -1.40625 z" style="fill:#ff6648;fill-opacity:1;stroke:#ea4326;stroke-width:1.40625;stroke-linecap:round;stroke-opacity:1"/><text id="text1182" x="88.594" y="8.833" style="font-size:14.0625px;font-family:sans-serif;text-anchor:start;fill:#000;stroke-width:1.40625"><tspan id="tspan1180" x="107.344" y="28.286" style="stroke-width:1.40625">drums</tspan></text><path id="path1188" d="m 13.359375,50.317066 v -5.625 a 5.625,5.625 0 0 1 5.625,-5.625 h 5.625 v 2.8125 h 14.0625 v -2.8125 h 12.65625 40.642547 5.625 a 5.625,5.625 0 0 1 5.624998,5.625 v 5.625 h -5.624998 v -4.21875 h -5.625 v 14.0625 h 5.625 v -4.21875 h 5.624998 v 5.625 a 5.625,5.625 0 0 1 -5.624998,5.625 h -5.625 -40.642547 -1.40625 v 2.8125 h -11.25 v -2.8125 h -1.40625 -5.625 a 7.03125,7.03125 0 0 0 -7.03125,7.03125 v 5.625 5.625 29.531254 5.625 a 7.03125,7.03125 0 0 0 7.03125,7.03125 h 5.625 v 2.8125 h 14.0625 v -2.8125 h 11.25 v 8.4375 8.4375 5.625 a 5.625,5.625 0 0 1 -5.625,5.625 h -5.625 -12.65625 -1.40625 v 2.8125 h -11.25 v -2.8125 h -1.40625 -5.625 a 5.625,5.625 0 0 1 -5.625,-5.625 v -5.625 z" style="fill:#3edcdd;fill-opacity:1;stroke:#1dbcbd;stroke-width:1.40625;stroke-linecap:round;stroke-opacity:1"/><text id="text1192" x="12.656" y="38.364" style="font-size:14.0625px;font-family:sans-serif;text-anchor:start;fill:#000;stroke-width:1.40625"><tspan id="tspan1190" x="20.156" y="59.809" style="stroke-width:1.40625">set drum</tspan></text><path id="path1202" d="m 104.62693,39.067066 h 84.37499 v 28.125 h -84.37499 v -11.25 -1.40625 h -8.437505 v 4.21875 h -2.8125 v -11.25 h 2.8125 v 4.21875 h 8.437505 v -1.40625 z" style="fill:#3edcdd;fill-opacity:1;stroke:#1dbcbd;stroke-width:1.40625;stroke-linecap:round;stroke-opacity:1"/><text id="text1206" x="92.674" y="38.364" style="font-size:14.0625px;font-family:sans-serif;text-anchor:start;fill:#000;stroke-width:1.40625"><tspan id="tspan1204" x="111.424" y="57.817" style="stroke-width:1.40625">kick drum</tspan></text><path id="path1212" d="m 26.015625,79.848316 v -5.625 a 5.625,5.625 0 0 1 5.625,-5.625 h 5.625 v 2.8125 h 14.0625 v -2.8125 h 42.1875 5.625 a 5.625,5.625 0 0 1 5.625005,5.625 v 5.625 h -5.625005 v -4.21875 h -5.625 v 14.0625 h 5.625 v -4.21875 h 5.625005 v 23.906254 h -5.625005 v -4.21875 h -5.625 v 14.0625 h 5.625 v -4.21875 h 5.625005 v 5.625 a 5.625,5.625 0 0 1 -5.625005,5.625 h -5.625 -42.1875 -1.40625 v 2.8125 h -11.25 v -2.8125 h -1.40625 -5.625 a 5.625,5.625 0 0 1 -5.625,-5.625 v -5.625 -29.531254 z" style="fill:#7cd622;fill-opacity:1;stroke:#57ad02;stroke-width:1.40625;stroke-linecap:round;stroke-opacity:1"/><text id="text1216" x="25.313" y="67.895" style="font-size:14.0625px;font-family:sans-serif;text-anchor:end;fill:#000;stroke-width:1.40625"><tspan id="tspan1214" x="90.469" y="101.645" style="stroke-width:1.40625">pitch</tspan></text><text id="text1220" x="25.313" y="67.895" style="font-size:9.375px;font-family:sans-serif;text-anchor:end;fill:#000;stroke-width:1.40625"><tspan id="tspan1218" x="90.469" y="83.716" style="stroke-width:1.40625">name</tspan></text><text id="text1224" x="25.313" y="67.895" style="font-size:9.375px;font-family:sans-serif;text-anchor:end;fill:#000;stroke-width:1.40625"><tspan id="tspan1222" x="90.469" y="113.247" style="stroke-width:1.40625">octave</tspan></text><path id="path1230" d="m 106.17189,68.598316 h 84.37499 v 28.125 h -84.37499 v -11.25 -1.40625 h -8.437505 v 4.21875 h -2.8125 v -11.25 h 2.8125 v 4.21875 h 8.437505 v -1.40625 z" style="fill:#7cd622;fill-opacity:1;stroke:#57ad02;stroke-width:1.40625;stroke-linecap:round;stroke-opacity:1"/><text id="text1234" x="94.219" y="67.895" style="font-size:14.0625px;font-family:sans-serif;text-anchor:start;fill:#000;stroke-width:1.40625"><tspan id="tspan1232" x="112.969" y="87.348" style="stroke-width:1.40625">sol</tspan></text><path id="path1240" d="m 106.17189,98.129566 h 84.37499 v 28.125004 h -84.37499 v -11.25 -1.40625 h -8.437505 v 4.21875 h -2.8125 v -11.25 h 2.8125 v 4.21875 h 8.437505 v -1.40625 z" style="fill:#ff6ea1;fill-opacity:1;stroke:#ff2c76;stroke-width:1.40625;stroke-linecap:round;stroke-opacity:1"/><text id="text1244" x="94.219" y="97.426" style="font-size:14.0625px;font-family:sans-serif;text-anchor:start;fill:#000;stroke-width:1.40625"><tspan id="tspan1242" x="112.969" y="116.88" style="stroke-width:1.40625">4</tspan></text><path id="path1250" d="m 13.359375,168.44207 v -5.625 a 5.625,5.625 0 0 1 5.625,-5.625 h 5.625 v 2.8125 h 14.0625 v -2.8125 h 12.65625 40.642547 5.625 a 5.625,5.625 0 0 1 5.624998,5.625 v 5.625 h -5.624998 v -4.21875 h -5.625 v 14.0625 h 5.625 v -4.21875 h 5.624998 v 5.625 a 5.625,5.625 0 0 1 -5.624998,5.625 h -5.625 -40.642547 -1.40625 v 2.8125 h -11.25 v -2.8125 h -1.40625 -5.625 a 7.03125,7.03125 0 0 0 -7.03125,7.03125 v 5.625 5.625 29.53125 5.625 a 7.03125,7.03125 0 0 0 7.03125,7.03125 h 5.625 v 2.8125 h 14.0625 v -2.8125 h 11.25 v 8.4375 8.4375 5.625 a 5.625,5.625 0 0 1 -5.625,5.625 h -5.625 -12.65625 -1.40625 v 2.8125 h -11.25 v -2.8125 h -1.40625 -5.625 a 5.625,5.625 0 0 1 -5.625,-5.625 v -5.625 z" style="fill:#3edcdd;fill-opacity:1;stroke:#1dbcbd;stroke-width:1.40625;stroke-linecap:round;stroke-opacity:1"/><text id="text1254" x="12.656" y="156.489" style="font-size:14.0625px;font-family:sans-serif;text-anchor:start;fill:#000;stroke-width:1.40625"><tspan id="tspan1252" x="20.156" y="177.934" style="stroke-width:1.40625">set drum</tspan></text><path id="path1264" d="m 104.62693,157.19207 h 98.37499 v 28.125 h -98.37499 v -11.25 -1.40625 h -8.437505 v 4.21875 h -2.8125 v -11.25 h 2.8125 v 4.21875 h 8.437505 v -1.40625 z" style="fill:#3edcdd;fill-opacity:1;stroke:#1dbcbd;stroke-width:1.40625;stroke-linecap:round;stroke-opacity:1"/><text id="text1268" x="92.674" y="156.489" style="font-size:14.0625px;font-family:sans-serif;text-anchor:start;fill:#000;stroke-width:1.40625"><tspan id="tspan1266" x="111.424" y="175.942" style="stroke-width:1.40625">triangle bell</tspan></text><path id="path1274" d="m 26.015625,197.97332 v -5.625 a 5.625,5.625 0 0 1 5.625,-5.625 h 5.625 v 2.8125 h 14.0625 v -2.8125 h 42.1875 5.625 a 5.625,5.625 0 0 1 5.625005,5.625 v 5.625 h -5.625005 v -4.21875 h -5.625 v 14.0625 h 5.625 v -4.21875 h 5.625005 v 23.90625 h -5.625005 v -4.21875 h -5.625 v 14.0625 h 5.625 v -4.21875 h 5.625005 v 5.625 a 5.625,5.625 0 0 1 -5.625005,5.625 h -5.625 -42.1875 -1.40625 v 2.8125 h -11.25 v -2.8125 h -1.40625 -5.625 a 5.625,5.625 0 0 1 -5.625,-5.625 v -5.625 -29.53125 z" style="fill:#7cd622;fill-opacity:1;stroke:#57ad02;stroke-width:1.40625;stroke-linecap:round;stroke-opacity:1"/><text id="text1278" x="25.313" y="186.02" style="font-size:14.0625px;font-family:sans-serif;text-anchor:end;fill:#000;stroke-width:1.40625"><tspan id="tspan1276" x="90.469" y="219.77" style="stroke-width:1.40625">pitch</tspan></text><text id="text1282" x="25.313" y="186.02" style="font-size:9.375px;font-family:sans-serif;text-anchor:end;fill:#000;stroke-width:1.40625"><tspan id="tspan1280" x="90.469" y="201.84" style="stroke-width:1.40625">name</tspan></text><text id="text1286" x="25.313" y="186.02" style="font-size:9.375px;font-family:sans-serif;text-anchor:end;fill:#000;stroke-width:1.40625"><tspan id="tspan1284" x="90.469" y="231.372" style="stroke-width:1.40625">octave</tspan></text><path id="path1292" d="m 106.17189,186.72332 h 84.37499 v 28.125 h -84.37499 v -11.25 -1.40625 h -8.437505 v 4.21875 h -2.8125 v -11.25 h 2.8125 v 4.21875 h 8.437505 v -1.40625 z" style="fill:#7cd622;fill-opacity:1;stroke:#57ad02;stroke-width:1.40625;stroke-linecap:round;stroke-opacity:1"/><text id="text1296" x="94.219" y="186.02" style="font-size:14.0625px;font-family:sans-serif;text-anchor:start;fill:#000;stroke-width:1.40625"><tspan id="tspan1294" x="112.969" y="205.473" style="stroke-width:1.40625">mi</tspan></text><path id="path1302" d="m 106.17189,216.25457 h 84.37499 v 28.125 h -84.37499 v -11.25 -1.40625 h -8.437505 v 4.21875 h -2.8125 v -11.25 h 2.8125 v 4.21875 h 8.437505 v -1.40625 z" style="fill:#ff6ea1;fill-opacity:1;stroke:#ff2c76;stroke-width:1.40625;stroke-linecap:round;stroke-opacity:1"/><text id="text1306" x="94.219" y="215.551" style="font-size:14.0625px;font-family:sans-serif;text-anchor:start;fill:#000;stroke-width:1.40625"><tspan id="tspan1304" x="112.969" y="235.005" style="stroke-width:1.40625">4</tspan></text><path id="path1312" d="m 13.359375,286.56707 v -5.625 a 5.625,5.625 0 0 1 5.625,-5.625 h 5.625 v 2.8125 h 14.0625 v -2.8125 h 12.65625 40.642547 5.625 a 5.625,5.625 0 0 1 5.624998,5.625 v 5.625 h -5.624998 v -4.21875 h -5.625 v 14.0625 h 5.625 v -4.21875 h 5.624998 v 5.625 a 5.625,5.625 0 0 1 -5.624998,5.625 h -5.625 -40.642547 -1.40625 v 2.8125 h -11.25 v -2.8125 h -1.40625 -5.625 a 7.03125,7.03125 0 0 0 -7.03125,7.03125 v 5.625 5.625 29.53125 5.625 a 7.03125,7.03125 0 0 0 7.03125,7.03125 h 5.625 v 2.8125 h 14.0625 v -2.8125 h 11.25 v 8.4375 8.4375 5.625 a 5.625,5.625 0 0 1 -5.625,5.625 h -5.625 -12.65625 -1.40625 v 2.8125 h -11.25 v -2.8125 h -1.40625 -5.625 a 5.625,5.625 0 0 1 -5.625,-5.625 v -5.625 z" style="fill:#3edcdd;fill-opacity:1;stroke:#1dbcbd;stroke-width:1.40625;stroke-linecap:round;stroke-opacity:1"/><text id="text1316" x="12.656" y="274.614" style="font-size:14.0625px;font-family:sans-serif;text-anchor:start;fill:#000;stroke-width:1.40625"><tspan id="tspan1314" x="20.156" y="296.059" style="stroke-width:1.40625">set drum</tspan></text><path id="path1326" d="m 104.62693,275.31707 h 84.37499 v 28.125 h -84.37499 v -11.25 -1.40625 h -8.437505 v 4.21875 h -2.8125 v -11.25 h 2.8125 v 4.21875 h 8.437505 v -1.40625 z" style="fill:#3edcdd;fill-opacity:1;stroke:#1dbcbd;stroke-width:1.40625;stroke-linecap:round;stroke-opacity:1"/><text id="text1330" x="92.674" y="274.614" style="font-size:14.0625px;font-family:sans-serif;text-anchor:start;fill:#000;stroke-width:1.40625"><tspan id="tspan1328" x="111.424" y="294.067" style="stroke-width:1.40625">tom tom</tspan></text><path id="path1336" d="m 26.015625,316.09832 v -5.625 a 5.625,5.625 0 0 1 5.625,-5.625 h 5.625 v 2.8125 h 14.0625 v -2.8125 h 42.1875 5.625 a 5.625,5.625 0 0 1 5.625005,5.625 v 5.625 h -5.625005 v -4.21875 h -5.625 v 14.0625 h 5.625 v -4.21875 h 5.625005 v 23.90625 h -5.625005 v -4.21875 h -5.625 v 14.0625 h 5.625 v -4.21875 h 5.625005 v 5.625 a 5.625,5.625 0 0 1 -5.625005,5.625 h -5.625 -42.1875 -1.40625 v 2.8125 h -11.25 v -2.8125 h -1.40625 -5.625 a 5.625,5.625 0 0 1 -5.625,-5.625 v -5.625 -29.53125 z" style="fill:#7cd622;fill-opacity:1;stroke:#57ad02;stroke-width:1.40625;stroke-linecap:round;stroke-opacity:1"/><text id="text1340" x="25.313" y="304.145" style="font-size:14.0625px;font-family:sans-serif;text-anchor:end;fill:#000;stroke-width:1.40625"><tspan id="tspan1338" x="90.469" y="337.895" style="stroke-width:1.40625">pitch</tspan></text><text id="text1344" x="25.313" y="304.145" style="font-size:9.375px;font-family:sans-serif;text-anchor:end;fill:#000;stroke-width:1.40625"><tspan id="tspan1342" x="90.469" y="319.966" style="stroke-width:1.40625">name</tspan></text><text id="text1348" x="25.313" y="304.145" style="font-size:9.375px;font-family:sans-serif;text-anchor:end;fill:#000;stroke-width:1.40625"><tspan id="tspan1346" x="90.469" y="349.497" style="stroke-width:1.40625">octave</tspan></text><path id="path1354" d="m 106.17189,304.84832 h 84.37499 v 28.125 h -84.37499 v -11.25 -1.40625 h -8.437505 v 4.21875 h -2.8125 v -11.25 h 2.8125 v 4.21875 h 8.437505 v -1.40625 z" style="fill:#7cd622;fill-opacity:1;stroke:#57ad02;stroke-width:1.40625;stroke-linecap:round;stroke-opacity:1"/><text id="text1358" x="94.219" y="304.145" style="font-size:14.0625px;font-family:sans-serif;text-anchor:start;fill:#000;stroke-width:1.40625"><tspan id="tspan1356" x="112.969" y="323.598" style="stroke-width:1.40625">re</tspan></text><path id="path1364" d="m 106.17189,334.37957 h 84.37499 v 28.125 h -84.37499 v -11.25 -1.40625 h -8.437505 v 4.21875 h -2.8125 v -11.25 h 2.8125 v 4.21875 h 8.437505 v -1.40625 z" style="fill:#ff6ea1;fill-opacity:1;stroke:#ff2c76;stroke-width:1.40625;stroke-linecap:round;stroke-opacity:1"/><text id="text1368" x="94.219" y="333.676" style="font-size:14.0625px;font-family:sans-serif;text-anchor:start;fill:#000;stroke-width:1.40625"><tspan id="tspan1366" x="112.969" y="353.13" style="stroke-width:1.40625">4</tspan></text></svg>