<svg xmlns="http://www.w3.org/2000/svg" xmlns:svg="http://www.w3.org/2000/svg" id="svg5587" width="178.594" height="120.938" version="1.1" viewBox="0 0 178.594 120.938"><metadata id="metadata5592"/><path id="path1101" d="m 0.703125,11.953125 v -5.625 a 5.625,5.625 0 0 1 5.625,-5.625 h 5.625 v 2.8125 h 14.0625 v -2.8125 h 12.65625 40.642547 5.625 a 5.625,5.625 0 0 1 5.625,5.625 v 5.625 h -5.625 v -4.21875 h -5.625 v 14.0625 h 5.625 v -4.21875 h 5.625 v 5.625 a 5.625,5.625 0 0 1 -5.625,5.625 h -5.625 -40.642547 -1.40625 v 2.8125 h -11.25 v -2.8125 h -1.40625 -5.625 a 7.03125,7.03125 0 0 0 -7.03125,7.03125 v 5.625 5.625 29.53125 5.625 a 7.03125,7.03125 0 0 0 7.03125,7.03125 h 5.625 v 2.8125 h 14.0625 v -2.8125 h 11.25 v 8.4375 8.437505 5.625 a 5.625,5.625 0 0 1 -5.625,5.625 h -5.625 -12.65625 -1.40625 v 2.8125 h -11.25 v -2.8125 h -1.40625 -5.625 a 5.625,5.625 0 0 1 -5.625,-5.625 v -5.625 z" style="fill:#3edcdd;fill-opacity:1;stroke:#1dbcbd;stroke-width:1.40625;stroke-linecap:round;stroke-opacity:1"/><text id="text1105" style="font-size:14.0625px;font-family:sans-serif;text-anchor:start;fill:#000;stroke-width:1.40625"><tspan id="tspan1103" x="7.5" y="21.445" style="stroke-width:1.40625">set drum</tspan></text><path id="path1115" d="m 91.970675,0.703125 h 84.374995 v 28.125 H 91.970675 v -11.25 -1.40625 h -8.4375 v 4.21875 h -2.8125 v -11.25 h 2.8125 v 4.21875 h 8.4375 v -1.40625 z" style="fill:#3edcdd;fill-opacity:1;stroke:#1dbcbd;stroke-width:1.40625;stroke-linecap:round;stroke-opacity:1"/><text id="text1119" x="80.018" style="font-size:14.0625px;font-family:sans-serif;text-anchor:start;fill:#000;stroke-width:1.40625"><tspan id="tspan1117" x="98.768" y="19.453" style="stroke-width:1.40625">kick drum</tspan></text><g id="g1141" transform="matrix(0.93750003,0,0,0.93750003,12.65625,29.53125)"><g id="g1139" transform="scale(1.5)"><path id="path1125" d="m 0.5,8.5 v -4 a 4,4 90 0 1 4,-4 h 4 v 2 h 10 v -2 h 30 4 a 4,4 90 0 1 4,4 v 4 h -4 v -3 h -4 v 10 h 4 v -3 h 4 v 17 h -4 v -3 h -4 v 10 h 4 v -3 h 4 v 4 a 4,4 90 0 1 -4,4 h -4 -30 -1 v 2 h -8 v -2 h -1 -4 a 4,4 90 0 1 -4,-4 v -4 -21 z" style="fill:#7cd622;fill-opacity:1;stroke:#57ad02;stroke-width:1;stroke-linecap:round;stroke-opacity:1"/><text id="text1129" style="font-size:10px;font-family:sans-serif;text-anchor:end;fill:#000"><tspan id="tspan1127" x="46.333" y="24">pitch</tspan></text><text id="text1133" style="font-size:6.66666651px;font-family:sans-serif;text-anchor:end;fill:#000"><tspan id="tspan1131" x="46.333" y="11.25">name</tspan></text><text id="text1137" style="font-size:6.66666651px;font-family:sans-serif;text-anchor:end;fill:#000"><tspan id="tspan1135" x="46.333" y="32.25">octave</tspan></text></g></g><g id="g1151" transform="matrix(0.93750003,0,0,0.93750003,81.5625,29.53125)"><g id="g1149" transform="scale(1.5)"><path id="path1143" d="m 8.5,0.5 h 60 v 20 h -60 v -8 -1 h -6 v 3 h -2 v -8 h 2 v 3 h 6 v -1 z" style="fill:#7cd622;fill-opacity:1;stroke:#57ad02;stroke-width:1;stroke-linecap:round;stroke-opacity:1"/><text id="text1147" style="font-size:10px;font-family:sans-serif;text-anchor:start;fill:#000"><tspan id="tspan1145" x="13.333" y="13.833">sol</tspan></text></g></g><g id="g1161" transform="matrix(0.93750003,0,0,0.93750003,81.5625,59.0625)"><g id="g1159" transform="scale(1.5)"><path id="path1153" d="m 8.5,0.5 h 60 v 20 h -60 v -8 -1 h -6 v 3 h -2 v -8 h 2 v 3 h 6 v -1 z" style="fill:#ff6ea1;fill-opacity:1;stroke:#ff2c76;stroke-width:1;stroke-linecap:round;stroke-opacity:1"/><text id="text1157" style="font-size:10px;font-family:sans-serif;text-anchor:start;fill:#000"><tspan id="tspan1155" x="13.333" y="13.833">4</tspan></text></g></g></svg>