<svg xmlns="http://www.w3.org/2000/svg" xmlns:svg="http://www.w3.org/2000/svg" id="svg10429" width="768" height="584" version="1.1"><metadata id="metadata10435"/><rect id="backgroundrect" width="100%" height="100%" x="0" y="0" fill="none" stroke="none"/><g id="g10427" class="currentLayer"><title id="title10069">Layer 1</title><g id="svg_1"><g id="svg_2"><g id="svg_3" transform="translate(335,-72) scale(1.5)"><path style="fill:#daa926;fill-opacity:1;stroke:#daaf30;stroke-width:1;stroke-linecap:round;stroke-opacity:1" id="svg_4" d="m-222.8333282470703,62 L-222.8333282470703,58 A4,4 90 0 1 -218.8333282470703,54 L-214.8333282470703,54 L-209.8333282470703,48 L-204.8333282470703,54 L-195.8333282470703,54 L-135.8333282470703,54 L-131.8333282470703,54 A4,4 90 0 1 -127.83332824707031,58 L-127.83332824707031,62 L-127.83332824707031,66 L-127.83332824707031,70 A4,4 90 0 1 -131.8333282470703,74 L-135.8333282470703,74 L-195.8333282470703,74 L-196.8333282470703,74 L-196.8333282470703,76 L-204.8333282470703,76 L-204.8333282470703,74 L-205.8333282470703,74 L-209.8333282470703,74 A5,5 90 0 0 -214.8333282470703,79 L-214.8333282470703,83 L-214.8333282470703,87 L-214.8333282470703,276 L-214.8333282470703,280 A5,5 90 0 0 -209.8333282470703,285 L-205.8333282470703,285 L-205.8333282470703,287 L-195.8333282470703,287 L-195.8333282470703,285 L-187.8333282470703,285 L-187.8333282470703,291 L-187.8333282470703,297 L-187.8333282470703,301 A4,4 90 0 1 -191.8333282470703,305 L-195.8333282470703,305 L-204.8333282470703,305 L-209.8333282470703,311 L-214.8333282470703,305 L-218.8333282470703,305 A4,4 90 0 1 -222.8333282470703,301 L-222.8333282470703,297 z"/><text style="font-size:10px;fill:#282828;font-family:sans-serif;text-anchor:start" id="svg_5" x="-223.333" y="47.5"><tspan id="svg_6" x="-203.333" y="69.5">start</tspan></text></g></g></g><g id="svg_15"><g id="svg_16"><g id="svg_17" transform="translate(782,-31) scale(1.5)"><path style="fill:#ff8b2d;fill-opacity:1;stroke:#e86b0e;stroke-width:1;stroke-linecap:round;stroke-opacity:1" id="svg_18" d="m-222.8333282470703,56 L-222.8333282470703,52 A4,4 90 0 1 -218.8333282470703,48 L-214.8333282470703,48 L-214.8333282470703,50 L-204.8333282470703,50 L-204.8333282470703,48 L-195.8333282470703,48 L-135.8333282470703,48 L-131.8333282470703,48 A4,4 90 0 1 -127.83332824707031,52 L-127.83332824707031,56 L-131.8333282470703,56 L-131.8333282470703,53 L-135.8333282470703,53 L-135.8333282470703,63 L-131.8333282470703,63 L-131.8333282470703,60 L-127.83332824707031,60 L-127.83332824707031,64 A4,4 90 0 1 -131.8333282470703,68 L-135.8333282470703,68 L-195.8333282470703,68 L-196.8333282470703,68 L-196.8333282470703,70 L-204.8333282470703,70 L-204.8333282470703,68 L-205.8333282470703,68 L-209.8333282470703,68 A5,5 90 0 0 -214.8333282470703,73 L-214.8333282470703,77 L-214.8333282470703,81 L-214.8333282470703,102 L-214.8333282470703,106 A5,5 90 0 0 -209.8333282470703,111 L-205.8333282470703,111 L-205.8333282470703,113 L-195.8333282470703,113 L-195.8333282470703,111 L-187.8333282470703,111 L-187.8333282470703,117 L-187.8333282470703,123 L-187.8333282470703,127 A4,4 90 0 1 -191.8333282470703,131 L-195.8333282470703,131 L-204.8333282470703,131 L-205.8333282470703,131 L-205.8333282470703,133 L-213.8333282470703,133 L-213.8333282470703,131 L-214.8333282470703,131 L-218.8333282470703,131 A4,4 90 0 1 -222.8333282470703,127 L-222.8333282470703,123 z"/><text style="font-size:10px;fill:#282828;font-family:sans-serif;text-anchor:start" id="svg_19" x="-223.333" y="47.5"><tspan id="svg_20" x="-203.333" y="62.5">note</tspan></text><text style="font-size:6.666666666666667px;fill:#282828;font-family:sans-serif;text-anchor:end" id="svg_21" x="-223.333" y="47.5"><tspan id="svg_22" x="-138.333" y="59.5">value</tspan></text></g></g></g><g id="svg_30"><g id="svg_31" transform="translate(914,-31) scale(1.5)"><path style="fill:#ff5293;fill-opacity:1;stroke:#ff2c76;stroke-width:1;stroke-linecap:round;stroke-opacity:1" id="svg_32" d="m-214.8333282470703,56 L-214.8333282470703,52 A4,4 90 0 1 -210.8333282470703,48 L-206.8333282470703,48 L-196.8333282470703,48 L-166.8333282470703,48 L-162.8333282470703,48 A4,4 90 0 1 -158.8333282470703,52 L-158.8333282470703,56 L-162.8333282470703,56 L-162.8333282470703,53 L-166.8333282470703,53 L-166.8333282470703,63 L-162.8333282470703,63 L-162.8333282470703,60 L-158.8333282470703,60 L-158.8333282470703,77 L-162.8333282470703,77 L-162.8333282470703,74 L-166.8333282470703,74 L-166.8333282470703,84 L-162.8333282470703,84 L-162.8333282470703,81 L-158.8333282470703,81 L-158.8333282470703,85 A4,4 90 0 1 -162.8333282470703,89 L-166.8333282470703,89 L-196.8333282470703,89 L-206.8333282470703,89 L-210.8333282470703,89 A4,4 90 0 1 -214.8333282470703,85 L-214.8333282470703,81 L-214.8333282470703,60 L-214.8333282470703,59 L-220.8333282470703,59 L-220.8333282470703,62 L-222.8333282470703,62 L-222.8333282470703,54 L-220.8333282470703,54 L-220.8333282470703,57 L-214.8333282470703,57 L-214.8333282470703,56 z"/><text style="font-size:9px;fill:#282828;font-family:sans-serif;text-anchor:end" id="svg_33" x="-223.333" y="47.5"><tspan id="svg_34" x="-169.333" y="70.5">➗</tspan></text></g></g><g id="svg_39"><g id="svg_40" transform="translate(1000,-31) scale(1.5)"><path style="fill:#ff5293;fill-opacity:1;stroke:#ff2c76;stroke-width:1;stroke-linecap:round;stroke-opacity:1" id="svg_41" d="m-214.8333282470703,48 L-154.8333282470703,48 L-154.8333282470703,68 L-214.8333282470703,68 L-214.8333282470703,60 L-214.8333282470703,59 L-220.8333282470703,59 L-220.8333282470703,62 L-222.8333282470703,62 L-222.8333282470703,54 L-220.8333282470703,54 L-220.8333282470703,57 L-214.8333282470703,57 L-214.8333282470703,56 z"/><text style="font-size:10px;fill:#282828;font-family:sans-serif;text-anchor:start" id="svg_42" x="-223.333" y="47.5"><tspan id="svg_43" x="-210.333" y="61.5">1</tspan></text></g></g><g id="svg_44"><g id="svg_45" transform="translate(1000,1) scale(1.5)"><path style="fill:#ff5293;fill-opacity:1;stroke:#ff2c76;stroke-width:1;stroke-linecap:round;stroke-opacity:1" id="svg_46" d="m-214.8333282470703,48 L-154.8333282470703,48 L-154.8333282470703,68 L-214.8333282470703,68 L-214.8333282470703,60 L-214.8333282470703,59 L-220.8333282470703,59 L-220.8333282470703,62 L-222.8333282470703,62 L-222.8333282470703,54 L-220.8333282470703,54 L-220.8333282470703,57 L-214.8333282470703,57 L-214.8333282470703,56 z"/><text style="font-size:10px;fill:#282828;font-family:sans-serif;text-anchor:start" id="svg_47" x="-223.333" y="47.5"><tspan id="svg_48" x="-210.333" y="61.5">4</tspan></text></g></g><g id="svg_49"><g id="svg_50" transform="translate(796,1) scale(1.5)"><path style="fill:#b0b0b0;fill-opacity:1;stroke:#a0a0a0;stroke-width:1;stroke-linecap:round;stroke-opacity:1" id="svg_51" d="m-222.8333282470703,56 L-222.8333282470703,52 A4,4 90 0 1 -218.8333282470703,48 L-214.8333282470703,48 L-214.8333282470703,50 L-204.8333282470703,50 L-204.8333282470703,48 L-184.8333282470703,48 L-180.8333282470703,48 A4,4 90 0 1 -176.8333282470703,52 L-176.8333282470703,56 L-176.8333282470703,60 L-176.8333282470703,64 A4,4 90 0 1 -180.8333282470703,68 L-184.8333282470703,68 L-204.8333282470703,68 L-205.8333282470703,68 L-205.8333282470703,70 L-213.8333282470703,70 L-213.8333282470703,68 L-214.8333282470703,68 L-218.8333282470703,68 A4,4 90 0 1 -222.8333282470703,64 L-222.8333282470703,60 z"/><text style="font-size:10px;fill:#282828;font-family:sans-serif;text-anchor:end" id="svg_52" x="-223.333" y="47.5"><tspan id="svg_53" x="-187.333" y="61.5">↓</tspan></text></g></g><g id="svg_54"><g id="svg_55"><g id="svg_56" transform="translate(782,221) scale(1.5)"><path style="fill:#ff8b2d;fill-opacity:1;stroke:#e86b0e;stroke-width:1;stroke-linecap:round;stroke-opacity:1" id="svg_57" d="m-222.8333282470703,56 L-222.8333282470703,52 A4,4 90 0 1 -218.8333282470703,48 L-214.8333282470703,48 L-214.8333282470703,50 L-204.8333282470703,50 L-204.8333282470703,48 L-195.8333282470703,48 L-135.8333282470703,48 L-131.8333282470703,48 A4,4 90 0 1 -127.83332824707031,52 L-127.83332824707031,56 L-131.8333282470703,56 L-131.8333282470703,53 L-135.8333282470703,53 L-135.8333282470703,63 L-131.8333282470703,63 L-131.8333282470703,60 L-127.83332824707031,60 L-127.83332824707031,64 A4,4 90 0 1 -131.8333282470703,68 L-135.8333282470703,68 L-195.8333282470703,68 L-196.8333282470703,68 L-196.8333282470703,70 L-204.8333282470703,70 L-204.8333282470703,68 L-205.8333282470703,68 L-209.8333282470703,68 A5,5 90 0 0 -214.8333282470703,73 L-214.8333282470703,77 L-214.8333282470703,81 L-214.8333282470703,102 L-214.8333282470703,106 A5,5 90 0 0 -209.8333282470703,111 L-205.8333282470703,111 L-205.8333282470703,113 L-195.8333282470703,113 L-195.8333282470703,111 L-187.8333282470703,111 L-187.8333282470703,117 L-187.8333282470703,123 L-187.8333282470703,127 A4,4 90 0 1 -191.8333282470703,131 L-195.8333282470703,131 L-204.8333282470703,131 L-205.8333282470703,131 L-205.8333282470703,133 L-213.8333282470703,133 L-213.8333282470703,131 L-214.8333282470703,131 L-218.8333282470703,131 A4,4 90 0 1 -222.8333282470703,127 L-222.8333282470703,123 z"/><text style="font-size:10px;fill:#282828;font-family:sans-serif;text-anchor:start" id="svg_58" x="-223.333" y="47.5"><tspan id="svg_59" x="-203.333" y="62.5">note</tspan></text><text style="font-size:6.666666666666667px;fill:#282828;font-family:sans-serif;text-anchor:end" id="svg_60" x="-223.333" y="47.5"><tspan id="svg_61" x="-138.333" y="59.5">value</tspan></text></g></g></g><g id="svg_69"><g id="svg_70" transform="translate(914,221) scale(1.5)"><path style="fill:#ff5293;fill-opacity:1;stroke:#ff2c76;stroke-width:1;stroke-linecap:round;stroke-opacity:1" id="svg_71" d="m-214.8333282470703,56 L-214.8333282470703,52 A4,4 90 0 1 -210.8333282470703,48 L-206.8333282470703,48 L-196.8333282470703,48 L-166.8333282470703,48 L-162.8333282470703,48 A4,4 90 0 1 -158.8333282470703,52 L-158.8333282470703,56 L-162.8333282470703,56 L-162.8333282470703,53 L-166.8333282470703,53 L-166.8333282470703,63 L-162.8333282470703,63 L-162.8333282470703,60 L-158.8333282470703,60 L-158.8333282470703,77 L-162.8333282470703,77 L-162.8333282470703,74 L-166.8333282470703,74 L-166.8333282470703,84 L-162.8333282470703,84 L-162.8333282470703,81 L-158.8333282470703,81 L-158.8333282470703,85 A4,4 90 0 1 -162.8333282470703,89 L-166.8333282470703,89 L-196.8333282470703,89 L-206.8333282470703,89 L-210.8333282470703,89 A4,4 90 0 1 -214.8333282470703,85 L-214.8333282470703,81 L-214.8333282470703,60 L-214.8333282470703,59 L-220.8333282470703,59 L-220.8333282470703,62 L-222.8333282470703,62 L-222.8333282470703,54 L-220.8333282470703,54 L-220.8333282470703,57 L-214.8333282470703,57 L-214.8333282470703,56 z"/><text style="font-size:9px;fill:#282828;font-family:sans-serif;text-anchor:end" id="svg_72" x="-223.333" y="47.5"><tspan id="svg_73" x="-169.333" y="70.5">➗</tspan></text></g></g><g id="svg_78"><g id="svg_79" transform="translate(1000,221) scale(1.5)"><path style="fill:#ff5293;fill-opacity:1;stroke:#ff2c76;stroke-width:1;stroke-linecap:round;stroke-opacity:1" id="svg_80" d="m-214.8333282470703,48 L-154.8333282470703,48 L-154.8333282470703,68 L-214.8333282470703,68 L-214.8333282470703,60 L-214.8333282470703,59 L-220.8333282470703,59 L-220.8333282470703,62 L-222.8333282470703,62 L-222.8333282470703,54 L-220.8333282470703,54 L-220.8333282470703,57 L-214.8333282470703,57 L-214.8333282470703,56 z"/><text style="font-size:10px;fill:#282828;font-family:sans-serif;text-anchor:start" id="svg_81" x="-223.333" y="47.5"><tspan id="svg_82" x="-210.333" y="61.5">1</tspan></text></g></g><g id="svg_83"><g id="svg_84" transform="translate(1000,253) scale(1.5)"><path style="fill:#ff5293;fill-opacity:1;stroke:#ff2c76;stroke-width:1;stroke-linecap:round;stroke-opacity:1" id="svg_85" d="m-214.8333282470703,48 L-154.8333282470703,48 L-154.8333282470703,68 L-214.8333282470703,68 L-214.8333282470703,60 L-214.8333282470703,59 L-220.8333282470703,59 L-220.8333282470703,62 L-222.8333282470703,62 L-222.8333282470703,54 L-220.8333282470703,54 L-220.8333282470703,57 L-214.8333282470703,57 L-214.8333282470703,56 z"/><text style="font-size:10px;fill:#282828;font-family:sans-serif;text-anchor:start" id="svg_86" x="-223.333" y="47.5"><tspan id="svg_87" x="-210.333" y="61.5">4</tspan></text></g></g><g id="svg_88"><g id="svg_89" transform="translate(796,253) scale(1.5)"><path style="fill:#b0b0b0;fill-opacity:1;stroke:#a0a0a0;stroke-width:1;stroke-linecap:round;stroke-opacity:1" id="svg_90" d="m-222.8333282470703,56 L-222.8333282470703,52 A4,4 90 0 1 -218.8333282470703,48 L-214.8333282470703,48 L-214.8333282470703,50 L-204.8333282470703,50 L-204.8333282470703,48 L-184.8333282470703,48 L-180.8333282470703,48 A4,4 90 0 1 -176.8333282470703,52 L-176.8333282470703,56 L-176.8333282470703,60 L-176.8333282470703,64 A4,4 90 0 1 -180.8333282470703,68 L-184.8333282470703,68 L-204.8333282470703,68 L-205.8333282470703,68 L-205.8333282470703,70 L-213.8333282470703,70 L-213.8333282470703,68 L-214.8333282470703,68 L-218.8333282470703,68 A4,4 90 0 1 -222.8333282470703,64 L-222.8333282470703,60 z"/><text style="font-size:10px;fill:#282828;font-family:sans-serif;text-anchor:end" id="svg_91" x="-223.333" y="47.5"><tspan id="svg_92" x="-187.333" y="61.5">↓</tspan></text></g></g><g id="svg_93"><g id="svg_94"><g id="svg_95" transform="translate(782,95) scale(1.5)"><path style="fill:#ff8b2d;fill-opacity:1;stroke:#e86b0e;stroke-width:1;stroke-linecap:round;stroke-opacity:1" id="svg_96" d="m-222.8333282470703,56 L-222.8333282470703,52 A4,4 90 0 1 -218.8333282470703,48 L-214.8333282470703,48 L-214.8333282470703,50 L-204.8333282470703,50 L-204.8333282470703,48 L-195.8333282470703,48 L-135.8333282470703,48 L-131.8333282470703,48 A4,4 90 0 1 -127.83332824707031,52 L-127.83332824707031,56 L-131.8333282470703,56 L-131.8333282470703,53 L-135.8333282470703,53 L-135.8333282470703,63 L-131.8333282470703,63 L-131.8333282470703,60 L-127.83332824707031,60 L-127.83332824707031,64 A4,4 90 0 1 -131.8333282470703,68 L-135.8333282470703,68 L-195.8333282470703,68 L-196.8333282470703,68 L-196.8333282470703,70 L-204.8333282470703,70 L-204.8333282470703,68 L-205.8333282470703,68 L-209.8333282470703,68 A5,5 90 0 0 -214.8333282470703,73 L-214.8333282470703,77 L-214.8333282470703,81 L-214.8333282470703,102 L-214.8333282470703,106 A5,5 90 0 0 -209.8333282470703,111 L-205.8333282470703,111 L-205.8333282470703,113 L-195.8333282470703,113 L-195.8333282470703,111 L-187.8333282470703,111 L-187.8333282470703,117 L-187.8333282470703,123 L-187.8333282470703,127 A4,4 90 0 1 -191.8333282470703,131 L-195.8333282470703,131 L-204.8333282470703,131 L-205.8333282470703,131 L-205.8333282470703,133 L-213.8333282470703,133 L-213.8333282470703,131 L-214.8333282470703,131 L-218.8333282470703,131 A4,4 90 0 1 -222.8333282470703,127 L-222.8333282470703,123 z"/><text style="font-size:10px;fill:#282828;font-family:sans-serif;text-anchor:start" id="svg_97" x="-223.333" y="47.5"><tspan id="svg_98" x="-203.333" y="62.5">note</tspan></text><text style="font-size:6.666666666666667px;fill:#282828;font-family:sans-serif;text-anchor:end" id="svg_99" x="-223.333" y="47.5"><tspan id="svg_100" x="-138.333" y="59.5">value</tspan></text></g></g></g><g id="svg_108"><g id="svg_109" transform="translate(914,95) scale(1.5)"><path style="fill:#ff5293;fill-opacity:1;stroke:#ff2c76;stroke-width:1;stroke-linecap:round;stroke-opacity:1" id="svg_110" d="m-214.8333282470703,56 L-214.8333282470703,52 A4,4 90 0 1 -210.8333282470703,48 L-206.8333282470703,48 L-196.8333282470703,48 L-166.8333282470703,48 L-162.8333282470703,48 A4,4 90 0 1 -158.8333282470703,52 L-158.8333282470703,56 L-162.8333282470703,56 L-162.8333282470703,53 L-166.8333282470703,53 L-166.8333282470703,63 L-162.8333282470703,63 L-162.8333282470703,60 L-158.8333282470703,60 L-158.8333282470703,77 L-162.8333282470703,77 L-162.8333282470703,74 L-166.8333282470703,74 L-166.8333282470703,84 L-162.8333282470703,84 L-162.8333282470703,81 L-158.8333282470703,81 L-158.8333282470703,85 A4,4 90 0 1 -162.8333282470703,89 L-166.8333282470703,89 L-196.8333282470703,89 L-206.8333282470703,89 L-210.8333282470703,89 A4,4 90 0 1 -214.8333282470703,85 L-214.8333282470703,81 L-214.8333282470703,60 L-214.8333282470703,59 L-220.8333282470703,59 L-220.8333282470703,62 L-222.8333282470703,62 L-222.8333282470703,54 L-220.8333282470703,54 L-220.8333282470703,57 L-214.8333282470703,57 L-214.8333282470703,56 z"/><text style="font-size:9px;fill:#282828;font-family:sans-serif;text-anchor:end" id="svg_111" x="-223.333" y="47.5"><tspan id="svg_112" x="-169.333" y="70.5">➗</tspan></text></g></g><g id="svg_117"><g id="svg_118" transform="translate(1000,95) scale(1.5)"><path style="fill:#ff5293;fill-opacity:1;stroke:#ff2c76;stroke-width:1;stroke-linecap:round;stroke-opacity:1" id="svg_119" d="m-214.8333282470703,48 L-154.8333282470703,48 L-154.8333282470703,68 L-214.8333282470703,68 L-214.8333282470703,60 L-214.8333282470703,59 L-220.8333282470703,59 L-220.8333282470703,62 L-222.8333282470703,62 L-222.8333282470703,54 L-220.8333282470703,54 L-220.8333282470703,57 L-214.8333282470703,57 L-214.8333282470703,56 z"/><text style="font-size:10px;fill:#282828;font-family:sans-serif;text-anchor:start" id="svg_120" x="-223.333" y="47.5"><tspan id="svg_121" x="-210.333" y="61.5">1</tspan></text></g></g><g id="svg_122"><g id="svg_123" transform="translate(1000,127) scale(1.5)"><path style="fill:#ff5293;fill-opacity:1;stroke:#ff2c76;stroke-width:1;stroke-linecap:round;stroke-opacity:1" id="svg_124" d="m-214.8333282470703,48 L-154.8333282470703,48 L-154.8333282470703,68 L-214.8333282470703,68 L-214.8333282470703,60 L-214.8333282470703,59 L-220.8333282470703,59 L-220.8333282470703,62 L-222.8333282470703,62 L-222.8333282470703,54 L-220.8333282470703,54 L-220.8333282470703,57 L-214.8333282470703,57 L-214.8333282470703,56 z"/><text style="font-size:10px;fill:#282828;font-family:sans-serif;text-anchor:start" id="svg_125" x="-223.333" y="47.5"><tspan id="svg_126" x="-210.333" y="61.5">4</tspan></text></g></g><g id="svg_127"><g id="svg_128" transform="translate(796,127) scale(1.5)"><path style="fill:#b0b0b0;fill-opacity:1;stroke:#a0a0a0;stroke-width:1;stroke-linecap:round;stroke-opacity:1" id="svg_129" d="m-222.8333282470703,56 L-222.8333282470703,52 A4,4 90 0 1 -218.8333282470703,48 L-214.8333282470703,48 L-214.8333282470703,50 L-204.8333282470703,50 L-204.8333282470703,48 L-184.8333282470703,48 L-180.8333282470703,48 A4,4 90 0 1 -176.8333282470703,52 L-176.8333282470703,56 L-176.8333282470703,60 L-176.8333282470703,64 A4,4 90 0 1 -180.8333282470703,68 L-184.8333282470703,68 L-204.8333282470703,68 L-205.8333282470703,68 L-205.8333282470703,70 L-213.8333282470703,70 L-213.8333282470703,68 L-214.8333282470703,68 L-218.8333282470703,68 A4,4 90 0 1 -222.8333282470703,64 L-222.8333282470703,60 z"/><text style="font-size:10px;fill:#282828;font-family:sans-serif;text-anchor:end" id="svg_130" x="-223.333" y="47.5"><tspan id="svg_131" x="-187.333" y="61.5">↓</tspan></text></g></g><g id="svg_132"><g id="svg_133" transform="translate(363,64) scale(1.5)"><path style="fill:#ff8b2d;fill-opacity:1;stroke:#e86b0e;stroke-width:1;stroke-linecap:round;stroke-opacity:1" id="svg_134" d="m-222.8333282470703,56 L-222.8333282470703,52 A4,4 90 0 1 -218.8333282470703,48 L-214.8333282470703,48 L-214.8333282470703,50 L-204.8333282470703,50 L-204.8333282470703,48 L-195.8333282470703,48 L-123.01106262207031,48 L-119.01106262207031,48 A4,4 90 0 1 -115.01106262207031,52 L-115.01106262207031,56 L-119.01106262207031,56 L-119.01106262207031,53 L-123.01106262207031,53 L-123.01106262207031,63 L-119.01106262207031,63 L-119.01106262207031,60 L-115.01106262207031,60 L-115.01106262207031,64 A4,4 90 0 1 -119.01106262207031,68 L-123.01106262207031,68 L-195.8333282470703,68 L-196.8333282470703,68 L-196.8333282470703,70 L-204.8333282470703,70 L-204.8333282470703,68 L-205.8333282470703,68 L-209.8333282470703,68 A5,5 90 0 0 -214.8333282470703,73 L-214.8333282470703,77 L-214.8333282470703,81 L-214.8333282470703,102 L-214.8333282470703,106 A5,5 90 0 0 -209.8333282470703,111 L-205.8333282470703,111 L-205.8333282470703,113 L-195.8333282470703,113 L-195.8333282470703,111 L-187.8333282470703,111 L-187.8333282470703,117 L-187.8333282470703,123 L-187.8333282470703,127 A4,4 90 0 1 -191.8333282470703,131 L-195.8333282470703,131 L-204.8333282470703,131 L-205.8333282470703,131 L-205.8333282470703,133 L-213.8333282470703,133 L-213.8333282470703,131 L-214.8333282470703,131 L-218.8333282470703,131 A4,4 90 0 1 -222.8333282470703,127 L-222.8333282470703,123 z"/><text style="font-size:10px;fill:#282828;font-family:sans-serif;text-anchor:start" id="svg_135" x="-223.333" y="47.5"><tspan id="svg_136" x="-218.333" y="62.5">multiply note value</tspan></text></g></g><g id="svg_139"><g id="svg_140" transform="translate(514,64) scale(1.5)"><path style="fill:#ff5293;fill-opacity:1;stroke:#ff2c76;stroke-width:1;stroke-linecap:round;stroke-opacity:1" id="svg_141" d="m-214.8333282470703,56 L-214.8333282470703,52 A4,4 90 0 1 -210.8333282470703,48 L-206.8333282470703,48 L-196.8333282470703,48 L-166.8333282470703,48 L-162.8333282470703,48 A4,4 90 0 1 -158.8333282470703,52 L-158.8333282470703,56 L-162.8333282470703,56 L-162.8333282470703,53 L-166.8333282470703,53 L-166.8333282470703,63 L-162.8333282470703,63 L-162.8333282470703,60 L-158.8333282470703,60 L-158.8333282470703,77 L-162.8333282470703,77 L-162.8333282470703,74 L-166.8333282470703,74 L-166.8333282470703,84 L-162.8333282470703,84 L-162.8333282470703,81 L-158.8333282470703,81 L-158.8333282470703,85 A4,4 90 0 1 -162.8333282470703,89 L-166.8333282470703,89 L-196.8333282470703,89 L-206.8333282470703,89 L-210.8333282470703,89 A4,4 90 0 1 -214.8333282470703,85 L-214.8333282470703,81 L-214.8333282470703,60 L-214.8333282470703,59 L-220.8333282470703,59 L-220.8333282470703,62 L-222.8333282470703,62 L-222.8333282470703,54 L-220.8333282470703,54 L-220.8333282470703,57 L-214.8333282470703,57 L-214.8333282470703,56 z"/><text style="font-size:9px;fill:#282828;font-family:sans-serif;text-anchor:end" id="svg_142" x="-223.333" y="47.5"><tspan id="svg_143" x="-169.333" y="70.5">➗</tspan></text></g></g><g id="svg_148"><g id="svg_149" transform="translate(600,64) scale(1.5)"><path style="fill:#ff5293;fill-opacity:1;stroke:#ff2c76;stroke-width:1;stroke-linecap:round;stroke-opacity:1" id="svg_150" d="m-214.8333282470703,48 L-154.8333282470703,48 L-154.8333282470703,68 L-214.8333282470703,68 L-214.8333282470703,60 L-214.8333282470703,59 L-220.8333282470703,59 L-220.8333282470703,62 L-222.8333282470703,62 L-222.8333282470703,54 L-220.8333282470703,54 L-220.8333282470703,57 L-214.8333282470703,57 L-214.8333282470703,56 z"/><text style="font-size:10px;fill:#282828;font-family:sans-serif;text-anchor:start" id="svg_151" x="-223.333" y="47.5"><tspan id="svg_152" x="-210.333" y="61.5">1</tspan></text></g></g><g id="svg_153"><g id="svg_154" transform="translate(377,96) scale(1.5)"><path style="fill:#b0b0b0;fill-opacity:1;stroke:#a0a0a0;stroke-width:1;stroke-linecap:round;stroke-opacity:1" id="svg_155" d="m-222.8333282470703,56 L-222.8333282470703,52 A4,4 90 0 1 -218.8333282470703,48 L-214.8333282470703,48 L-214.8333282470703,50 L-204.8333282470703,50 L-204.8333282470703,48 L-184.8333282470703,48 L-180.8333282470703,48 A4,4 90 0 1 -176.8333282470703,52 L-176.8333282470703,56 L-176.8333282470703,60 L-176.8333282470703,64 A4,4 90 0 1 -180.8333282470703,68 L-184.8333282470703,68 L-204.8333282470703,68 L-205.8333282470703,68 L-205.8333282470703,70 L-213.8333282470703,70 L-213.8333282470703,68 L-214.8333282470703,68 L-218.8333282470703,68 A4,4 90 0 1 -222.8333282470703,64 L-222.8333282470703,60 z"/><text style="font-size:10px;fill:#282828;font-family:sans-serif;text-anchor:end" id="svg_156" x="-223.333" y="47.5"><tspan id="svg_157" x="-187.333" y="61.5">↓</tspan></text></g></g><g id="svg_158"><g id="svg_159" transform="translate(349,-31) scale(1.5)"><path style="fill:#daa926;fill-opacity:1;stroke:#daaf30;stroke-width:1;stroke-linecap:round;stroke-opacity:1" id="svg_160" d="m-222.8333282470703,56 L-222.8333282470703,52 A4,4 90 0 1 -218.8333282470703,48 L-214.8333282470703,48 L-214.8333282470703,50 L-204.8333282470703,50 L-204.8333282470703,48 L-172.0403594970703,48 L-168.0403594970703,48 A4,4 90 0 1 -164.0403594970703,52 L-164.0403594970703,56 L-168.0403594970703,56 L-168.0403594970703,53 L-172.0403594970703,53 L-172.0403594970703,63 L-168.0403594970703,63 L-168.0403594970703,60 L-164.0403594970703,60 L-164.0403594970703,77 L-168.0403594970703,77 L-168.0403594970703,74 L-172.0403594970703,74 L-172.0403594970703,84 L-168.0403594970703,84 L-168.0403594970703,81 L-164.0403594970703,81 L-164.0403594970703,85 A4,4 90 0 1 -168.0403594970703,89 L-172.0403594970703,89 L-204.8333282470703,89 L-205.8333282470703,89 L-205.8333282470703,91 L-213.8333282470703,91 L-213.8333282470703,89 L-214.8333282470703,89 L-218.8333282470703,89 A4,4 90 0 1 -222.8333282470703,85 L-222.8333282470703,81 L-222.8333282470703,60 L-222.8333282470703,56 z"/><text style="font-size:10px;fill:#282828;font-family:sans-serif;text-anchor:end" id="svg_161" x="-223.333" y="47.5"><tspan id="svg_162" x="-174.333" y="71.5">store in</tspan></text><text style="font-size:6.666666666666667px;fill:#282828;font-family:sans-serif;text-anchor:end" id="svg_163" x="-223.333" y="47.5"><tspan id="svg_164" x="-174.333" y="59.5">name</tspan></text><text style="font-size:6.666666666666667px;fill:#282828;font-family:sans-serif;text-anchor:end" id="svg_165" x="-223.333" y="47.5"><tspan id="svg_166" x="-174.333" y="80.5">value</tspan></text></g></g><g id="svg_167"><g id="svg_168" transform="translate(427,-31) scale(1.5)"><path style="fill:#ff5942;fill-opacity:1;stroke:#ea4326;stroke-width:1;stroke-linecap:round;stroke-opacity:1" id="svg_169" d="m-214.8333282470703,48 L-124.83332824707031,48 L-124.83332824707031,68 L-214.8333282470703,68 L-214.8333282470703,60 L-214.8333282470703,59 L-220.8333282470703,59 L-220.8333282470703,62 L-222.8333282470703,62 L-222.8333282470703,54 L-220.8333282470703,54 L-220.8333282470703,57 L-214.8333282470703,57 L-214.8333282470703,56 z"/><text style="font-size:10px;fill:#282828;font-family:sans-serif;text-anchor:start" id="svg_170" x="-223.333" y="47.5"><tspan id="svg_171" x="-210.333" y="61.5">box</tspan></text></g></g><g id="svg_172"><g id="svg_173" transform="translate(427,1) scale(1.5)"><path style="fill:#ff5293;fill-opacity:1;stroke:#ff2c76;stroke-width:1;stroke-linecap:round;stroke-opacity:1" id="svg_174" d="m-214.8333282470703,48 L-154.8333282470703,48 L-154.8333282470703,68 L-214.8333282470703,68 L-214.8333282470703,60 L-214.8333282470703,59 L-220.8333282470703,59 L-220.8333282470703,62 L-222.8333282470703,62 L-222.8333282470703,54 L-220.8333282470703,54 L-220.8333282470703,57 L-214.8333282470703,57 L-214.8333282470703,56 z"/><text style="font-size:10px;fill:#282828;font-family:sans-serif;text-anchor:start" id="svg_175" x="-223.333" y="47.5"><tspan id="svg_176" x="-210.333" y="61.5">1</tspan></text></g></g><g id="svg_177"><g id="svg_178" transform="translate(349,32) scale(1.5)"><path style="fill:#d68136;fill-opacity:1;stroke:#b7651a;stroke-width:1;stroke-linecap:round;stroke-opacity:1" id="svg_179" d="m-222.8333282470703,56 L-222.8333282470703,52 A4,4 90 0 1 -218.8333282470703,48 L-214.8333282470703,48 L-214.8333282470703,50 L-204.8333282470703,50 L-204.8333282470703,48 L-195.8333282470703,48 L-175.8333282470703,48 L-171.8333282470703,48 A4,4 90 0 1 -167.8333282470703,52 L-167.8333282470703,56 L-171.8333282470703,56 L-171.8333282470703,53 L-175.8333282470703,53 L-175.8333282470703,63 L-171.8333282470703,63 L-171.8333282470703,60 L-167.8333282470703,60 L-167.8333282470703,64 A4,4 90 0 1 -171.8333282470703,68 L-175.8333282470703,68 L-195.8333282470703,68 L-196.8333282470703,68 L-196.8333282470703,70 L-204.8333282470703,70 L-204.8333282470703,68 L-205.8333282470703,68 L-209.8333282470703,68 A5,5 90 0 0 -214.8333282470703,73 L-214.8333282470703,77 L-214.8333282470703,81 L-214.8333282470703,186 L-214.8333282470703,190 A5,5 90 0 0 -209.8333282470703,195 L-205.8333282470703,195 L-205.8333282470703,197 L-195.8333282470703,197 L-195.8333282470703,195 L-187.8333282470703,195 L-187.8333282470703,201 L-187.8333282470703,207 L-187.8333282470703,211 A4,4 90 0 1 -191.8333282470703,215 L-195.8333282470703,215 L-204.8333282470703,215 L-205.8333282470703,215 L-205.8333282470703,217 L-213.8333282470703,217 L-213.8333282470703,215 L-214.8333282470703,215 L-218.8333282470703,215 A4,4 90 0 1 -222.8333282470703,211 L-222.8333282470703,207 z"/><text style="font-size:10px;fill:#282828;font-family:sans-serif;text-anchor:start" id="svg_180" x="-223.333" y="47.5"><tspan id="svg_181" x="-218.333" y="62.5">repeat</tspan></text></g></g><g id="svg_184"><g id="svg_185" transform="translate(421,32) scale(1.5)"><path style="fill:#ff5293;fill-opacity:1;stroke:#ff2c76;stroke-width:1;stroke-linecap:round;stroke-opacity:1" id="svg_186" d="m-214.8333282470703,48 L-154.8333282470703,48 L-154.8333282470703,68 L-214.8333282470703,68 L-214.8333282470703,60 L-214.8333282470703,59 L-220.8333282470703,59 L-220.8333282470703,62 L-222.8333282470703,62 L-222.8333282470703,54 L-220.8333282470703,54 L-220.8333282470703,57 L-214.8333282470703,57 L-214.8333282470703,56 z"/><text style="font-size:10px;fill:#282828;font-family:sans-serif;text-anchor:start" id="svg_187" x="-223.333" y="47.5"><tspan id="svg_188" x="-210.333" y="61.5">4</tspan></text></g></g><g id="svg_189"><g id="svg_190" transform="translate(600,96) scale(1.5)"><path style="fill:#daa926;fill-opacity:1;stroke:#daaf30;stroke-width:1;stroke-linecap:round;stroke-opacity:1" id="svg_191" d="m-214.8333282470703,48 L-124.83332824707031,48 L-124.83332824707031,68 L-214.8333282470703,68 L-214.8333282470703,60 L-214.8333282470703,59 L-220.8333282470703,59 L-220.8333282470703,62 L-222.8333282470703,62 L-222.8333282470703,54 L-220.8333282470703,54 L-220.8333282470703,57 L-214.8333282470703,57 L-214.8333282470703,56 z"/><text style="font-size:10px;fill:#282828;font-family:sans-serif;text-anchor:start" id="svg_192" x="-223.333" y="47.5"><tspan id="svg_193" x="-210.333" y="61.5">box</tspan></text></g></g><g id="svg_194"><g id="svg_195"><g id="svg_196" transform="translate(768,-72) scale(1.5)"><path style="fill:#daa926;fill-opacity:1;stroke:#daaf30;stroke-width:1;stroke-linecap:round;stroke-opacity:1" id="svg_197" d="m-222.8333282470703,62 L-222.8333282470703,58 A4,4 90 0 1 -218.8333282470703,54 L-214.8333282470703,54 L-209.8333282470703,48 L-204.8333282470703,54 L-195.8333282470703,54 L-143.8333282470703,54 L-139.8333282470703,54 A4,4 90 0 1 -135.8333282470703,58 L-135.8333282470703,62 L-139.8333282470703,62 L-139.8333282470703,59 L-143.8333282470703,59 L-143.8333282470703,69 L-139.8333282470703,69 L-139.8333282470703,66 L-135.8333282470703,66 L-135.8333282470703,70 A4,4 90 0 1 -139.8333282470703,74 L-143.8333282470703,74 L-195.8333282470703,74 L-196.8333282470703,74 L-196.8333282470703,76 L-204.8333282470703,76 L-204.8333282470703,74 L-205.8333282470703,74 L-209.8333282470703,74 A5,5 90 0 0 -214.8333282470703,79 L-214.8333282470703,83 L-214.8333282470703,87 L-214.8333282470703,402 L-214.8333282470703,406 A5,5 90 0 0 -209.8333282470703,411 L-205.8333282470703,411 L-205.8333282470703,413 L-195.8333282470703,413 L-195.8333282470703,411 L-187.8333282470703,411 L-187.8333282470703,417 L-187.8333282470703,423 L-187.8333282470703,427 A4,4 90 0 1 -191.8333282470703,431 L-195.8333282470703,431 L-204.8333282470703,431 L-209.8333282470703,437 L-214.8333282470703,431 L-218.8333282470703,431 A4,4 90 0 1 -222.8333282470703,427 L-222.8333282470703,423 z"/><text style="font-size:10px;fill:#282828;font-family:sans-serif;text-anchor:start" id="svg_198" x="-223.333" y="47.5"><tspan id="svg_199" x="-203.333" y="69.5">action</tspan></text></g></g></g><g id="svg_209"><g id="svg_210" transform="translate(888,-63) scale(1.5)"><path style="fill:#ff5942;fill-opacity:1;stroke:#ea4326;stroke-width:1;stroke-linecap:round;stroke-opacity:1" id="svg_211" d="m-214.8333282470703,48 L-124.83332824707031,48 L-124.83332824707031,68 L-214.8333282470703,68 L-214.8333282470703,60 L-214.8333282470703,59 L-220.8333282470703,59 L-220.8333282470703,62 L-222.8333282470703,62 L-222.8333282470703,54 L-220.8333282470703,54 L-220.8333282470703,57 L-214.8333282470703,57 L-214.8333282470703,56 z"/><text style="font-size:10px;fill:#282828;font-family:sans-serif;text-anchor:start" id="svg_212" x="-223.333" y="47.5"><tspan id="svg_213" x="-210.333" y="61.5">action</tspan></text></g></g><g id="svg_214"><g id="svg_215" transform="translate(377,128) scale(1.5)"><path style="fill:#daa926;fill-opacity:1;stroke:#daaf30;stroke-width:1;stroke-linecap:round;stroke-opacity:1" id="svg_216" d="m-222.8333282470703,56 L-222.8333282470703,52 A4,4 90 0 1 -218.8333282470703,48 L-214.8333282470703,48 L-214.8333282470703,50 L-204.8333282470703,50 L-204.8333282470703,48 L-134.8333282470703,48 L-130.8333282470703,48 A4,4 90 0 1 -126.83332824707031,52 L-126.83332824707031,56 L-126.83332824707031,60 L-126.83332824707031,64 A4,4 90 0 1 -130.8333282470703,68 L-134.8333282470703,68 L-204.8333282470703,68 L-205.8333282470703,68 L-205.8333282470703,70 L-213.8333282470703,70 L-213.8333282470703,68 L-214.8333282470703,68 L-218.8333282470703,68 A4,4 90 0 1 -222.8333282470703,64 L-222.8333282470703,60 z"/><text style="font-size:10px;fill:#282828;font-family:sans-serif;text-anchor:end" id="svg_217" x="-223.333" y="47.5"><tspan id="svg_218" x="-137.333" y="61.5">action</tspan></text></g></g><g id="svg_219"><g id="svg_220" transform="translate(555,190) scale(1.5)"><path style="fill:#ff5942;fill-opacity:1;stroke:#ea4326;stroke-width:1;stroke-linecap:round;stroke-opacity:1" id="svg_221" d="m-214.8333282470703,48 L-124.83332824707031,48 L-124.83332824707031,68 L-214.8333282470703,68 L-214.8333282470703,60 L-214.8333282470703,59 L-220.8333282470703,59 L-220.8333282470703,62 L-222.8333282470703,62 L-222.8333282470703,54 L-220.8333282470703,54 L-220.8333282470703,57 L-214.8333282470703,57 L-214.8333282470703,56 z"/><text style="font-size:10px;fill:#282828;font-family:sans-serif;text-anchor:start" id="svg_222" x="-223.333" y="47.5"><tspan id="svg_223" x="-210.333" y="61.5">box</tspan></text></g></g><g id="svg_224"><g id="svg_225" transform="translate(363,190) scale(1.5)"><path style="fill:#daa926;fill-opacity:1;stroke:#daaf30;stroke-width:1;stroke-linecap:round;stroke-opacity:1" id="svg_226" d="m-222.8333282470703,56 L-222.8333282470703,52 A4,4 90 0 1 -218.8333282470703,48 L-214.8333282470703,48 L-214.8333282470703,50 L-204.8333282470703,50 L-204.8333282470703,48 L-153.1389923095703,48 L-149.1389923095703,48 A4,4 90 0 1 -145.1389923095703,52 L-145.1389923095703,56 L-149.1389923095703,56 L-149.1389923095703,53 L-153.1389923095703,53 L-153.1389923095703,63 L-149.1389923095703,63 L-149.1389923095703,60 L-145.1389923095703,60 L-145.1389923095703,64 A4,4 90 0 1 -149.1389923095703,68 L-153.1389923095703,68 L-204.8333282470703,68 L-205.8333282470703,68 L-205.8333282470703,70 L-213.8333282470703,70 L-213.8333282470703,68 L-214.8333282470703,68 L-218.8333282470703,68 A4,4 90 0 1 -222.8333282470703,64 L-222.8333282470703,60 L-222.8333282470703,56 z"/><text style="font-size:10px;fill:#282828;font-family:sans-serif;text-anchor:end" id="svg_227" x="-223.333" y="47.5"><tspan id="svg_228" x="-155.333" y="61.5">store in box</tspan></text></g></g><g id="svg_231"><g id="svg_232" transform="translate(469,190) scale(1.5)"><path style="fill:#ff5293;fill-opacity:1;stroke:#ff2c76;stroke-width:1;stroke-linecap:round;stroke-opacity:1" id="svg_233" d="m-214.8333282470703,56 L-214.8333282470703,52 A4,4 90 0 1 -210.8333282470703,48 L-206.8333282470703,48 L-196.8333282470703,48 L-166.8333282470703,48 L-162.8333282470703,48 A4,4 90 0 1 -158.8333282470703,52 L-158.8333282470703,56 L-162.8333282470703,56 L-162.8333282470703,53 L-166.8333282470703,53 L-166.8333282470703,63 L-162.8333282470703,63 L-162.8333282470703,60 L-158.8333282470703,60 L-158.8333282470703,77 L-162.8333282470703,77 L-162.8333282470703,74 L-166.8333282470703,74 L-166.8333282470703,84 L-162.8333282470703,84 L-162.8333282470703,81 L-158.8333282470703,81 L-158.8333282470703,85 A4,4 90 0 1 -162.8333282470703,89 L-166.8333282470703,89 L-196.8333282470703,89 L-206.8333282470703,89 L-210.8333282470703,89 A4,4 90 0 1 -214.8333282470703,85 L-214.8333282470703,81 L-214.8333282470703,60 L-214.8333282470703,59 L-220.8333282470703,59 L-220.8333282470703,62 L-222.8333282470703,62 L-222.8333282470703,54 L-220.8333282470703,54 L-220.8333282470703,57 L-214.8333282470703,57 L-214.8333282470703,56 z"/><text style="font-size:14px;fill:#282828;font-family:sans-serif;text-anchor:end" id="svg_234" x="-223.333" y="47.5"><tspan id="svg_235" x="-169.333" y="71.5">×</tspan></text></g></g><g id="svg_240"><g id="svg_241" transform="translate(555,222) scale(1.5)"><path style="fill:#ff5293;fill-opacity:1;stroke:#ff2c76;stroke-width:1;stroke-linecap:round;stroke-opacity:1" id="svg_242" d="m-214.8333282470703,48 L-154.8333282470703,48 L-154.8333282470703,68 L-214.8333282470703,68 L-214.8333282470703,60 L-214.8333282470703,59 L-220.8333282470703,59 L-220.8333282470703,62 L-222.8333282470703,62 L-222.8333282470703,54 L-220.8333282470703,54 L-220.8333282470703,57 L-214.8333282470703,57 L-214.8333282470703,56 z"/><text style="font-size:10px;fill:#282828;font-family:sans-serif;text-anchor:start" id="svg_243" x="-223.333" y="47.5"><tspan id="svg_244" x="-210.333" y="61.5">2</tspan></text></g></g><g id="svg_245"><g id="svg_246" transform="translate(363,222) scale(1.5)"><path style="fill:#b0b0b0;fill-opacity:1;stroke:#a0a0a0;stroke-width:1;stroke-linecap:round;stroke-opacity:1" id="svg_247" d="m-222.8333282470703,56 L-222.8333282470703,52 A4,4 90 0 1 -218.8333282470703,48 L-214.8333282470703,48 L-214.8333282470703,50 L-204.8333282470703,50 L-204.8333282470703,48 L-184.8333282470703,48 L-180.8333282470703,48 A4,4 90 0 1 -176.8333282470703,52 L-176.8333282470703,56 L-176.8333282470703,60 L-176.8333282470703,64 A4,4 90 0 1 -180.8333282470703,68 L-184.8333282470703,68 L-204.8333282470703,68 L-205.8333282470703,68 L-205.8333282470703,70 L-213.8333282470703,70 L-213.8333282470703,68 L-214.8333282470703,68 L-218.8333282470703,68 A4,4 90 0 1 -222.8333282470703,64 L-222.8333282470703,60 z"/><text style="font-size:10px;fill:#282828;font-family:sans-serif;text-anchor:end" id="svg_248" x="-223.333" y="47.5"><tspan id="svg_249" x="-187.333" y="61.5">↓</tspan></text></g></g><g id="svg_250"><g id="svg_251"><g id="svg_252" transform="translate(782,347) scale(1.5)"><path style="fill:#ff8b2d;fill-opacity:1;stroke:#e86b0e;stroke-width:1;stroke-linecap:round;stroke-opacity:1" id="svg_253" d="m-222.8333282470703,56 L-222.8333282470703,52 A4,4 90 0 1 -218.8333282470703,48 L-214.8333282470703,48 L-214.8333282470703,50 L-204.8333282470703,50 L-204.8333282470703,48 L-195.8333282470703,48 L-135.8333282470703,48 L-131.8333282470703,48 A4,4 90 0 1 -127.83332824707031,52 L-127.83332824707031,56 L-131.8333282470703,56 L-131.8333282470703,53 L-135.8333282470703,53 L-135.8333282470703,63 L-131.8333282470703,63 L-131.8333282470703,60 L-127.83332824707031,60 L-127.83332824707031,64 A4,4 90 0 1 -131.8333282470703,68 L-135.8333282470703,68 L-195.8333282470703,68 L-196.8333282470703,68 L-196.8333282470703,70 L-204.8333282470703,70 L-204.8333282470703,68 L-205.8333282470703,68 L-209.8333282470703,68 A5,5 90 0 0 -214.8333282470703,73 L-214.8333282470703,77 L-214.8333282470703,81 L-214.8333282470703,102 L-214.8333282470703,106 A5,5 90 0 0 -209.8333282470703,111 L-205.8333282470703,111 L-205.8333282470703,113 L-195.8333282470703,113 L-195.8333282470703,111 L-187.8333282470703,111 L-187.8333282470703,117 L-187.8333282470703,123 L-187.8333282470703,127 A4,4 90 0 1 -191.8333282470703,131 L-195.8333282470703,131 L-204.8333282470703,131 L-205.8333282470703,131 L-205.8333282470703,133 L-213.8333282470703,133 L-213.8333282470703,131 L-214.8333282470703,131 L-218.8333282470703,131 A4,4 90 0 1 -222.8333282470703,127 L-222.8333282470703,123 z"/><text style="font-size:10px;fill:#282828;font-family:sans-serif;text-anchor:start" id="svg_254" x="-223.333" y="47.5"><tspan id="svg_255" x="-203.333" y="62.5">note</tspan></text><text style="font-size:6.666666666666667px;fill:#282828;font-family:sans-serif;text-anchor:end" id="svg_256" x="-223.333" y="47.5"><tspan id="svg_257" x="-138.333" y="59.5">value</tspan></text></g></g></g><g id="svg_265"><g id="svg_266" transform="translate(914,347) scale(1.5)"><path style="fill:#ff5293;fill-opacity:1;stroke:#ff2c76;stroke-width:1;stroke-linecap:round;stroke-opacity:1" id="svg_267" d="m-214.8333282470703,56 L-214.8333282470703,52 A4,4 90 0 1 -210.8333282470703,48 L-206.8333282470703,48 L-196.8333282470703,48 L-166.8333282470703,48 L-162.8333282470703,48 A4,4 90 0 1 -158.8333282470703,52 L-158.8333282470703,56 L-162.8333282470703,56 L-162.8333282470703,53 L-166.8333282470703,53 L-166.8333282470703,63 L-162.8333282470703,63 L-162.8333282470703,60 L-158.8333282470703,60 L-158.8333282470703,77 L-162.8333282470703,77 L-162.8333282470703,74 L-166.8333282470703,74 L-166.8333282470703,84 L-162.8333282470703,84 L-162.8333282470703,81 L-158.8333282470703,81 L-158.8333282470703,85 A4,4 90 0 1 -162.8333282470703,89 L-166.8333282470703,89 L-196.8333282470703,89 L-206.8333282470703,89 L-210.8333282470703,89 A4,4 90 0 1 -214.8333282470703,85 L-214.8333282470703,81 L-214.8333282470703,60 L-214.8333282470703,59 L-220.8333282470703,59 L-220.8333282470703,62 L-222.8333282470703,62 L-222.8333282470703,54 L-220.8333282470703,54 L-220.8333282470703,57 L-214.8333282470703,57 L-214.8333282470703,56 z"/><text style="font-size:9px;fill:#282828;font-family:sans-serif;text-anchor:end" id="svg_268" x="-223.333" y="47.5"><tspan id="svg_269" x="-169.333" y="70.5">➗</tspan></text></g></g><g id="svg_274"><g id="svg_275" transform="translate(1000,347) scale(1.5)"><path style="fill:#ff5293;fill-opacity:1;stroke:#ff2c76;stroke-width:1;stroke-linecap:round;stroke-opacity:1" id="svg_276" d="m-214.8333282470703,48 L-154.8333282470703,48 L-154.8333282470703,68 L-214.8333282470703,68 L-214.8333282470703,60 L-214.8333282470703,59 L-220.8333282470703,59 L-220.8333282470703,62 L-222.8333282470703,62 L-222.8333282470703,54 L-220.8333282470703,54 L-220.8333282470703,57 L-214.8333282470703,57 L-214.8333282470703,56 z"/><text style="font-size:10px;fill:#282828;font-family:sans-serif;text-anchor:start" id="svg_277" x="-223.333" y="47.5"><tspan id="svg_278" x="-210.333" y="61.5">1</tspan></text></g></g><g id="svg_279"><g id="svg_280" transform="translate(1000,379) scale(1.5)"><path style="fill:#ff5293;fill-opacity:1;stroke:#ff2c76;stroke-width:1;stroke-linecap:round;stroke-opacity:1" id="svg_281" d="m-214.8333282470703,48 L-154.8333282470703,48 L-154.8333282470703,68 L-214.8333282470703,68 L-214.8333282470703,60 L-214.8333282470703,59 L-220.8333282470703,59 L-220.8333282470703,62 L-222.8333282470703,62 L-222.8333282470703,54 L-220.8333282470703,54 L-220.8333282470703,57 L-214.8333282470703,57 L-214.8333282470703,56 z"/><text style="font-size:10px;fill:#282828;font-family:sans-serif;text-anchor:start" id="svg_282" x="-223.333" y="47.5"><tspan id="svg_283" x="-210.333" y="61.5">4</tspan></text></g></g><g id="svg_284"><g id="svg_285" transform="translate(796,379) scale(1.5)"><path style="fill:#b0b0b0;fill-opacity:1;stroke:#a0a0a0;stroke-width:1;stroke-linecap:round;stroke-opacity:1" id="svg_286" d="m-222.8333282470703,56 L-222.8333282470703,52 A4,4 90 0 1 -218.8333282470703,48 L-214.8333282470703,48 L-214.8333282470703,50 L-204.8333282470703,50 L-204.8333282470703,48 L-184.8333282470703,48 L-180.8333282470703,48 A4,4 90 0 1 -176.8333282470703,52 L-176.8333282470703,56 L-176.8333282470703,60 L-176.8333282470703,64 A4,4 90 0 1 -180.8333282470703,68 L-184.8333282470703,68 L-204.8333282470703,68 L-205.8333282470703,68 L-205.8333282470703,70 L-213.8333282470703,70 L-213.8333282470703,68 L-214.8333282470703,68 L-218.8333282470703,68 A4,4 90 0 1 -222.8333282470703,64 L-222.8333282470703,60 z"/><text style="font-size:10px;fill:#282828;font-family:sans-serif;text-anchor:end" id="svg_287" x="-223.333" y="47.5"><tspan id="svg_288" x="-187.333" y="61.5">↓</tspan></text></g></g><g id="svg_289"><g id="svg_290" transform="translate(796,33) scale(1.5)"><path style="fill:#25c3c0;fill-opacity:1;stroke:#1dbcbd;stroke-width:1;stroke-linecap:round;stroke-opacity:1" id="svg_291" d="m-222.8333282470703,56 L-222.8333282470703,52 A4,4 90 0 1 -218.8333282470703,48 L-214.8333282470703,48 L-214.8333282470703,50 L-204.8333282470703,50 L-204.8333282470703,48 L-174.8333282470703,48 L-170.8333282470703,48 A4,4 90 0 1 -166.8333282470703,52 L-166.8333282470703,56 L-170.8333282470703,56 L-170.8333282470703,53 L-174.8333282470703,53 L-174.8333282470703,63 L-170.8333282470703,63 L-170.8333282470703,60 L-166.8333282470703,60 L-166.8333282470703,64 A4,4 90 0 1 -170.8333282470703,68 L-174.8333282470703,68 L-204.8333282470703,68 L-205.8333282470703,68 L-205.8333282470703,70 L-213.8333282470703,70 L-213.8333282470703,68 L-214.8333282470703,68 L-218.8333282470703,68 A4,4 90 0 1 -222.8333282470703,64 L-222.8333282470703,60 L-222.8333282470703,56 z"/><text style="font-size:10px;fill:#282828;font-family:sans-serif;text-anchor:end" id="svg_292" x="-223.333" y="47.5"><tspan id="svg_293" x="-177.333" y="61.5">drum</tspan></text></g></g><g id="svg_296"><g id="svg_297" transform="translate(870,33) scale(1.5)"><path style="fill:#25c3c0;fill-opacity:1;stroke:#1dbcbd;stroke-width:1;stroke-linecap:round;stroke-opacity:1" id="svg_298" d="m-214.8333282470703,48 L-104.83332824707031,48 L-104.83332824707031,68 L-214.8333282470703,68 L-214.8333282470703,60 L-214.8333282470703,59 L-220.8333282470703,59 L-220.8333282470703,62 L-222.8333282470703,62 L-222.8333282470703,54 L-220.8333282470703,54 L-220.8333282470703,57 L-214.8333282470703,57 L-214.8333282470703,56 z"/><text style="font-size:10px;fill:#282828;font-family:sans-serif;text-anchor:start" id="svg_299" x="-223.333" y="47.5"><tspan id="svg_300" x="-210.333" y="61.5">snare drum</tspan></text></g></g><g id="svg_301"><g id="svg_302" transform="translate(796,159) scale(1.5)"><path style="fill:#25c3c0;fill-opacity:1;stroke:#1dbcbd;stroke-width:1;stroke-linecap:round;stroke-opacity:1" id="svg_303" d="m-222.8333282470703,56 L-222.8333282470703,52 A4,4 90 0 1 -218.8333282470703,48 L-214.8333282470703,48 L-214.8333282470703,50 L-204.8333282470703,50 L-204.8333282470703,48 L-174.8333282470703,48 L-170.8333282470703,48 A4,4 90 0 1 -166.8333282470703,52 L-166.8333282470703,56 L-170.8333282470703,56 L-170.8333282470703,53 L-174.8333282470703,53 L-174.8333282470703,63 L-170.8333282470703,63 L-170.8333282470703,60 L-166.8333282470703,60 L-166.8333282470703,64 A4,4 90 0 1 -170.8333282470703,68 L-174.8333282470703,68 L-204.8333282470703,68 L-205.8333282470703,68 L-205.8333282470703,70 L-213.8333282470703,70 L-213.8333282470703,68 L-214.8333282470703,68 L-218.8333282470703,68 A4,4 90 0 1 -222.8333282470703,64 L-222.8333282470703,60 L-222.8333282470703,56 z"/><text style="font-size:10px;fill:#282828;font-family:sans-serif;text-anchor:end" id="svg_304" x="-223.333" y="47.5"><tspan id="svg_305" x="-177.333" y="61.5">drum</tspan></text></g></g><g id="svg_308"><g id="svg_309" transform="translate(870,159) scale(1.5)"><path style="fill:#25c3c0;fill-opacity:1;stroke:#1dbcbd;stroke-width:1;stroke-linecap:round;stroke-opacity:1" id="svg_310" d="m-214.8333282470703,48 L-104.83332824707031,48 L-104.83332824707031,68 L-214.8333282470703,68 L-214.8333282470703,60 L-214.8333282470703,59 L-220.8333282470703,59 L-220.8333282470703,62 L-222.8333282470703,62 L-222.8333282470703,54 L-220.8333282470703,54 L-220.8333282470703,57 L-214.8333282470703,57 L-214.8333282470703,56 z"/><text style="font-size:10px;fill:#282828;font-family:sans-serif;text-anchor:start" id="svg_311" x="-223.333" y="47.5"><tspan id="svg_312" x="-210.333" y="61.5">kick drum</tspan></text></g></g><g id="svg_313"><g id="svg_314" transform="translate(796,285) scale(1.5)"><path style="fill:#25c3c0;fill-opacity:1;stroke:#1dbcbd;stroke-width:1;stroke-linecap:round;stroke-opacity:1" id="svg_315" d="m-222.8333282470703,56 L-222.8333282470703,52 A4,4 90 0 1 -218.8333282470703,48 L-214.8333282470703,48 L-214.8333282470703,50 L-204.8333282470703,50 L-204.8333282470703,48 L-174.8333282470703,48 L-170.8333282470703,48 A4,4 90 0 1 -166.8333282470703,52 L-166.8333282470703,56 L-170.8333282470703,56 L-170.8333282470703,53 L-174.8333282470703,53 L-174.8333282470703,63 L-170.8333282470703,63 L-170.8333282470703,60 L-166.8333282470703,60 L-166.8333282470703,64 A4,4 90 0 1 -170.8333282470703,68 L-174.8333282470703,68 L-204.8333282470703,68 L-205.8333282470703,68 L-205.8333282470703,70 L-213.8333282470703,70 L-213.8333282470703,68 L-214.8333282470703,68 L-218.8333282470703,68 A4,4 90 0 1 -222.8333282470703,64 L-222.8333282470703,60 L-222.8333282470703,56 z"/><text style="font-size:10px;fill:#282828;font-family:sans-serif;text-anchor:end" id="svg_316" x="-223.333" y="47.5"><tspan id="svg_317" x="-177.333" y="61.5">drum</tspan></text></g></g><g id="svg_320"><g id="svg_321" transform="translate(870,285) scale(1.5)"><path style="fill:#25c3c0;fill-opacity:1;stroke:#1dbcbd;stroke-width:1;stroke-linecap:round;stroke-opacity:1" id="svg_322" d="m-214.8333282470703,48 L-104.83332824707031,48 L-104.83332824707031,68 L-214.8333282470703,68 L-214.8333282470703,60 L-214.8333282470703,59 L-220.8333282470703,59 L-220.8333282470703,62 L-222.8333282470703,62 L-222.8333282470703,54 L-220.8333282470703,54 L-220.8333282470703,57 L-214.8333282470703,57 L-214.8333282470703,56 z"/><text style="font-size:10px;fill:#282828;font-family:sans-serif;text-anchor:start" id="svg_323" x="-223.333" y="47.5"><tspan id="svg_324" x="-210.333" y="61.5">kick drum</tspan></text></g></g><g id="svg_325"><g id="svg_326" transform="translate(796,411) scale(1.5)"><path style="fill:#25c3c0;fill-opacity:1;stroke:#1dbcbd;stroke-width:1;stroke-linecap:round;stroke-opacity:1" id="svg_327" d="m-222.8333282470703,56 L-222.8333282470703,52 A4,4 90 0 1 -218.8333282470703,48 L-214.8333282470703,48 L-214.8333282470703,50 L-204.8333282470703,50 L-204.8333282470703,48 L-174.8333282470703,48 L-170.8333282470703,48 A4,4 90 0 1 -166.8333282470703,52 L-166.8333282470703,56 L-170.8333282470703,56 L-170.8333282470703,53 L-174.8333282470703,53 L-174.8333282470703,63 L-170.8333282470703,63 L-170.8333282470703,60 L-166.8333282470703,60 L-166.8333282470703,64 A4,4 90 0 1 -170.8333282470703,68 L-174.8333282470703,68 L-204.8333282470703,68 L-205.8333282470703,68 L-205.8333282470703,70 L-213.8333282470703,70 L-213.8333282470703,68 L-214.8333282470703,68 L-218.8333282470703,68 A4,4 90 0 1 -222.8333282470703,64 L-222.8333282470703,60 L-222.8333282470703,56 z"/><text style="font-size:10px;fill:#282828;font-family:sans-serif;text-anchor:end" id="svg_328" x="-223.333" y="47.5"><tspan id="svg_329" x="-177.333" y="61.5">drum</tspan></text></g></g><g id="svg_332"><g id="svg_333" transform="translate(870,411) scale(1.5)"><path style="fill:#25c3c0;fill-opacity:1;stroke:#1dbcbd;stroke-width:1;stroke-linecap:round;stroke-opacity:1" id="svg_334" d="m-214.8333282470703,48 L-104.83332824707031,48 L-104.83332824707031,68 L-214.8333282470703,68 L-214.8333282470703,60 L-214.8333282470703,59 L-220.8333282470703,59 L-220.8333282470703,62 L-222.8333282470703,62 L-222.8333282470703,54 L-220.8333282470703,54 L-220.8333282470703,57 L-214.8333282470703,57 L-214.8333282470703,56 z"/><text style="font-size:10px;fill:#282828;font-family:sans-serif;text-anchor:start" id="svg_335" x="-223.333" y="47.5"><tspan id="svg_336" x="-210.333" y="61.5">triangle bell</tspan></text></g></g></g></svg>