<svg xmlns="http://www.w3.org/2000/svg" xmlns:svg="http://www.w3.org/2000/svg" id="svg2" width="508.646" height="428.414" version="1.1" xml:space="preserve"><metadata id="metadata8"/><defs id="defs6"><marker id="marker3924" orient="auto" refX="0" refY="0" style="overflow:visible"><path id="path3922" d="M 8.7185878,4.0337352 L -2.2072895,0.016013256 L 8.7185884,-4.0017078 C 6.9730900,-1.6296469 6.9831476,1.6157441 8.7185878,4.0337352 z" transform="scale(0.6) rotate(180) translate(0,0)" style="fill-rule:evenodd;stroke-width:.625;stroke-linejoin:round;stroke:#000;stroke-opacity:1;fill:#000;fill-opacity:1"/></marker><marker id="marker3752" orient="auto" refX="0" refY="0" style="overflow:visible"><path id="path3750" d="M 8.7185878,4.0337352 L -2.2072895,0.016013256 L 8.7185884,-4.0017078 C 6.9730900,-1.6296469 6.9831476,1.6157441 8.7185878,4.0337352 z" transform="scale(0.6) translate(0,0)" style="fill-rule:evenodd;stroke-width:.625;stroke-linejoin:round;stroke:#000;stroke-opacity:1;fill:#000;fill-opacity:1"/></marker><marker style="overflow:visible" id="marker3272" orient="auto" refX="0" refY="0"><path style="fill-rule:evenodd;stroke-width:.625;stroke-linejoin:round;stroke:#000;stroke-opacity:1;fill:#000;fill-opacity:1" id="path3270" d="M 8.7185878,4.0337352 L -2.2072895,0.016013256 L 8.7185884,-4.0017078 C 6.9730900,-1.6296469 6.9831476,1.6157441 8.7185878,4.0337352 z" transform="scale(0.6) rotate(180) translate(0,0)"/></marker><marker style="overflow:visible" id="marker3130" orient="auto" refX="0" refY="0"><path style="fill-rule:evenodd;stroke:#000;stroke-width:1pt;stroke-opacity:1;fill:#000;fill-opacity:1" id="path3128" d="M 0.0,0.0 L 5.0,-5.0 L -12.5,0.0 L 5.0,5.0 L 0.0,0.0 z" transform="scale(0.4) rotate(180) translate(10,0)"/></marker><marker style="overflow:visible" id="marker2988" orient="auto" refX="0" refY="0"><path style="fill-rule:evenodd;stroke:#000;stroke-width:1pt;stroke-opacity:1;fill:#000;fill-opacity:1" id="path2986" d="M 0.0,0.0 L 5.0,-5.0 L -12.5,0.0 L 5.0,5.0 L 0.0,0.0 z" transform="scale(0.4) translate(10,0)"/></marker><marker style="overflow:visible" id="marker2858" orient="auto" refX="0" refY="0"><path style="fill-rule:evenodd;stroke:#000;stroke-width:1pt;stroke-opacity:1;fill:#000;fill-opacity:1" id="path2856" d="M 0.0,0.0 L 5.0,-5.0 L -12.5,0.0 L 5.0,5.0 L 0.0,0.0 z" transform="scale(0.4) translate(10,0)"/></marker><marker style="overflow:visible" id="Arrow1Send" orient="auto" refX="0" refY="0"><path style="fill-rule:evenodd;stroke:#b06d00;stroke-width:1pt;stroke-opacity:1;fill:#b06d00;fill-opacity:1" id="path1663" d="M 0.0,0.0 L 5.0,-5.0 L -12.5,0.0 L 5.0,5.0 L 0.0,0.0 z" transform="scale(0.2) rotate(180) translate(6,0)"/></marker><marker style="overflow:visible" id="Arrow1Mend" orient="auto" refX="0" refY="0"><path style="fill-rule:evenodd;stroke:#b06d00;stroke-width:1pt;stroke-opacity:1;fill:#b06d00;fill-opacity:1" id="path1657" d="M 0.0,0.0 L 5.0,-5.0 L -12.5,0.0 L 5.0,5.0 L 0.0,0.0 z" transform="scale(0.4) rotate(180) translate(10,0)"/></marker><marker style="overflow:visible" id="marker2508" orient="auto" refX="0" refY="0"><path style="fill-rule:evenodd;stroke-width:.625;stroke-linejoin:round;stroke:#b06d00;stroke-opacity:1;fill:#b06d00;fill-opacity:1" id="path2506" d="M 8.7185878,4.0337352 L -2.2072895,0.016013256 L 8.7185884,-4.0017078 C 6.9730900,-1.6296469 6.9831476,1.6157441 8.7185878,4.0337352 z" transform="scale(0.6) translate(0,0)"/></marker><marker style="overflow:visible" id="Arrow1Mstart" orient="auto" refX="0" refY="0"><path style="fill-rule:evenodd;stroke:#b06d00;stroke-width:1pt;stroke-opacity:1;fill:#b06d00;fill-opacity:1" id="path1654" d="M 0.0,0.0 L 5.0,-5.0 L -12.5,0.0 L 5.0,5.0 L 0.0,0.0 z" transform="scale(0.4) translate(10,0)"/></marker><marker id="marker2310" orient="auto" refX="0" refY="0" style="overflow:visible"><path id="path2308" d="M -2.5,-1.0 C -2.5,1.7600000 -4.7400000,4.0 -7.5,4.0 C -10.260000,4.0 -12.5,1.7600000 -12.5,-1.0 C -12.5,-3.7600000 -10.260000,-6.0 -7.5,-6.0 C -4.7400000,-6.0 -2.5,-3.7600000 -2.5,-1.0 z" transform="scale(0.4) translate(7.4, 1)" style="fill-rule:evenodd;stroke:#000;stroke-width:1pt;stroke-opacity:1;fill:#000;fill-opacity:1"/></marker><marker style="overflow:visible" id="Arrow2Mstart" orient="auto" refX="0" refY="0"><path style="fill-rule:evenodd;stroke-width:.625;stroke-linejoin:round;stroke:#000;stroke-opacity:1;fill:#000;fill-opacity:1" id="path1672" d="M 8.7185878,4.0337352 L -2.2072895,0.016013256 L 8.7185884,-4.0017078 C 6.9730900,-1.6296469 6.9831476,1.6157441 8.7185878,4.0337352 z" transform="scale(0.6) translate(0,0)"/></marker><marker style="overflow:visible" id="Arrow2Mend" orient="auto" refX="0" refY="0"><path style="fill-rule:evenodd;stroke-width:.625;stroke-linejoin:round;stroke:red;stroke-opacity:1;fill:red;fill-opacity:1" id="path1675" d="M 8.7185878,4.0337352 L -2.2072895,0.016013256 L 8.7185884,-4.0017078 C 6.9730900,-1.6296469 6.9831476,1.6157441 8.7185878,4.0337352 z" transform="scale(0.6) rotate(180) translate(0,0)"/></marker><marker style="overflow:visible" id="DotM" orient="auto" refX="0" refY="0"><path style="fill-rule:evenodd;stroke:#000;stroke-width:1pt;stroke-opacity:1;fill:#000;fill-opacity:1" id="path1712" d="M -2.5,-1.0 C -2.5,1.7600000 -4.7400000,4.0 -7.5,4.0 C -10.260000,4.0 -12.5,1.7600000 -12.5,-1.0 C -12.5,-3.7600000 -10.260000,-6.0 -7.5,-6.0 C -4.7400000,-6.0 -2.5,-3.7600000 -2.5,-1.0 z" transform="scale(0.4) translate(7.4, 1)"/></marker><marker id="DotL" orient="auto" refX="0" refY="0" style="overflow:visible"><path id="path1374" d="M -2.5,-1.0 C -2.5,1.7600000 -4.7400000,4.0 -7.5,4.0 C -10.260000,4.0 -12.5,1.7600000 -12.5,-1.0 C -12.5,-3.7600000 -10.260000,-6.0 -7.5,-6.0 C -4.7400000,-6.0 -2.5,-3.7600000 -2.5,-1.0 z" transform="scale(0.8) translate(7.4, 1)" style="fill-rule:evenodd;stroke:#000;stroke-width:1pt;stroke-opacity:1;fill:#000;fill-opacity:1"/></marker><marker id="Arrow2Lstart" orient="auto" refX="0" refY="0" style="overflow:visible"><path id="path1331" d="M 8.7185878,4.0337352 L -2.2072895,0.016013256 L 8.7185884,-4.0017078 C 6.9730900,-1.6296469 6.9831476,1.6157441 8.7185878,4.0337352 z" transform="scale(1.1) translate(1,0)" style="fill-rule:evenodd;stroke-width:.625;stroke-linejoin:round;stroke:#000;stroke-opacity:1;fill:#000;fill-opacity:1"/></marker><marker id="Arrow2Lend" orient="auto" refX="0" refY="0" style="overflow:visible"><path id="path1334" d="M 8.7185878,4.0337352 L -2.2072895,0.016013256 L 8.7185884,-4.0017078 C 6.9730900,-1.6296469 6.9831476,1.6157441 8.7185878,4.0337352 z" transform="scale(1.1) rotate(180) translate(1,0)" style="fill-rule:evenodd;stroke-width:.625;stroke-linejoin:round;stroke:#000;stroke-opacity:1;fill:#000;fill-opacity:1"/></marker><marker id="Arrow1Lend" orient="auto" refX="0" refY="0" style="overflow:visible"><path id="path1316" d="M 0.0,0.0 L 5.0,-5.0 L -12.5,0.0 L 5.0,5.0 L 0.0,0.0 z" transform="scale(0.8) rotate(180) translate(12.5,0)" style="fill-rule:evenodd;stroke:#000;stroke-width:1pt;stroke-opacity:1;fill:#000;fill-opacity:1"/></marker><clipPath id="clipPath16" clipPathUnits="userSpaceOnUse"><path id="path18" d="M 0,792 H 612 V 0 H 0 Z"/></clipPath><clipPath id="clipPath100" clipPathUnits="userSpaceOnUse"><path id="path102" d="M 0,792 H 612 V 0 H 0 Z"/></clipPath><filter id="dropshadow-1" height="1.3"><feGaussianBlur id="feGaussianBlur3970-8" in="SourceAlpha" stdDeviation="3"/><feOffset id="feOffset3972-2" dx="2" dy="2" result="offsetblur"/><feComponentTransfer id="feComponentTransfer3974-0"><feFuncA id="feFuncA3976-2" slope=".2" type="linear"/></feComponentTransfer><feMerge id="feMerge3978-4"><feMergeNode id="feMergeNode3980-6"/><feMergeNode id="feMergeNode3982-3" in="SourceGraphic"/></feMerge></filter><filter id="dropshadow" height="1.3"><feGaussianBlur id="feGaussianBlur3970" in="SourceAlpha" stdDeviation="3"/><feOffset id="feOffset3972" dx="2" dy="2" result="offsetblur"/><feComponentTransfer id="feComponentTransfer3974"><feFuncA id="feFuncA3976" slope=".2" type="linear"/></feComponentTransfer><feMerge id="feMerge3978"><feMergeNode id="feMergeNode3980"/><feMergeNode id="feMergeNode3982" in="SourceGraphic"/></feMerge></filter><marker id="Arrow2Lend-6" orient="auto" refX="0" refY="0" style="overflow:visible"><path id="path1334-4" d="M 8.7185878,4.0337352 -2.2072895,0.01601326 8.7185884,-4.0017078 c -1.7454984,2.3720609 -1.7354408,5.6174519 -6e-7,8.035443 z" transform="matrix(-1.1,0,0,-1.1,-1.1,0)" style="fill:#000;fill-opacity:1;fill-rule:evenodd;stroke:#000;stroke-width:.625;stroke-linejoin:round;stroke-opacity:1"/></marker><marker id="Arrow2Lstart-0" orient="auto" refX="0" refY="0" style="overflow:visible"><path id="path1331-4" d="M 8.7185878,4.0337352 -2.2072895,0.01601326 8.7185884,-4.0017078 c -1.7454984,2.3720609 -1.7354408,5.6174519 -6e-7,8.035443 z" transform="matrix(1.1,0,0,1.1,1.1,0)" style="fill:#000;fill-opacity:1;fill-rule:evenodd;stroke:#000;stroke-width:.625;stroke-linejoin:round;stroke-opacity:1"/></marker><marker id="DotL-6" orient="auto" refX="0" refY="0" style="overflow:visible"><path id="path1374-2" d="m -2.5,-1 c 0,2.76 -2.24,5 -5,5 -2.76,0 -5,-2.24 -5,-5 0,-2.76 2.24,-5 5,-5 2.76,0 5,2.24 5,5 z" transform="matrix(0.8,0,0,0.8,5.92,0.8)" style="fill:#000;fill-opacity:1;fill-rule:evenodd;stroke:#000;stroke-width:1.00000003pt;stroke-opacity:1"/></marker><marker id="Arrow2Lstart-0-7" orient="auto" refX="0" refY="0" style="overflow:visible"><path id="path1331-4-5" d="M 8.7185878,4.0337352 -2.2072895,0.01601326 8.7185884,-4.0017078 c -1.7454984,2.3720609 -1.7354408,5.6174519 -6e-7,8.035443 z" transform="matrix(1.1,0,0,1.1,1.1,0)" style="fill:#000;fill-opacity:1;fill-rule:evenodd;stroke:#000;stroke-width:.625;stroke-linejoin:round;stroke-opacity:1"/></marker><marker id="DotL-6-6" orient="auto" refX="0" refY="0" style="overflow:visible"><path id="path1374-2-9" d="m -2.5,-1 c 0,2.76 -2.24,5 -5,5 -2.76,0 -5,-2.24 -5,-5 0,-2.76 2.24,-5 5,-5 2.76,0 5,2.24 5,5 z" transform="matrix(0.8,0,0,0.8,5.92,0.8)" style="fill:#000;fill-opacity:1;fill-rule:evenodd;stroke:#000;stroke-width:1.00000003pt;stroke-opacity:1"/></marker></defs><path style="fill:none;stroke:#373535;stroke-width:1.25;stroke-linecap:butt;stroke-linejoin:miter;stroke-miterlimit:4;stroke-dasharray:none;stroke-opacity:1" id="path26" d="m 432.83591,214.95253 c 0,99.5075 -80.66751,180.17625 -180.17625,180.17625 -99.50751,0 -180.175005,-80.66875 -180.175005,-180.17625 0,-99.5075 80.667495,-180.176245 180.175005,-180.176245 99.50874,0 180.17624,80.668745 180.17625,180.176245 z"/><path style="fill:none;stroke:#373535;stroke-width:1.25;stroke-linecap:butt;stroke-linejoin:miter;stroke-miterlimit:4;stroke-dasharray:none;stroke-opacity:1" id="path34" d="M 72.484405,214.95253 H 432.83566"/><path style="fill:none;stroke:#373535;stroke-width:1.25;stroke-linecap:butt;stroke-linejoin:miter;stroke-miterlimit:4;stroke-dasharray:none;stroke-opacity:1" id="path38" d="M 252.66015,214.95253 96.623905,124.86629"/><path style="fill:none;stroke:#373535;stroke-width:1.25;stroke-linecap:butt;stroke-linejoin:miter;stroke-miterlimit:4;stroke-dasharray:none;stroke-opacity:1" id="path42" d="M 252.66015,214.95253 162.57266,370.99128"/><path style="fill:none;stroke:#373535;stroke-width:1.25;stroke-linecap:butt;stroke-linejoin:miter;stroke-miterlimit:4;stroke-dasharray:none;stroke-opacity:1" id="path46" d="M 252.66015,214.95253 96.622655,305.04004"/><path style="fill:none;stroke:#373535;stroke-width:1.25;stroke-linecap:butt;stroke-linejoin:miter;stroke-miterlimit:4;stroke-dasharray:none;stroke-opacity:1" id="path50" d="m 252.66015,214.95253 90.0875,156.0375"/><path style="fill:none;stroke:#373535;stroke-width:1.25;stroke-linecap:butt;stroke-linejoin:miter;stroke-miterlimit:4;stroke-dasharray:none;stroke-opacity:1" id="path54" d="m 252.66015,214.95253 156.035,90.08751"/><path style="fill:none;stroke:#373535;stroke-width:1.25;stroke-linecap:butt;stroke-linejoin:miter;stroke-miterlimit:4;stroke-dasharray:none;stroke-opacity:1" id="path58" d="m 252.65891,214.95191 156.03625,-90.0875"/><path style="fill:none;stroke:#373535;stroke-width:1.25;stroke-linecap:butt;stroke-linejoin:miter;stroke-miterlimit:4;stroke-dasharray:none;stroke-opacity:1" id="path62" d="M 252.66015,214.95253 342.74765,58.916285"/><path style="fill:none;stroke:#373535;stroke-width:1.25;stroke-linecap:butt;stroke-linejoin:miter;stroke-miterlimit:4;stroke-dasharray:none;stroke-opacity:1" id="path66" d="M 252.66015,214.95253 162.5714,58.916285"/><text style="font-size:15px;line-height:0%;stroke-width:1.25" id="text128" x="41.787" y="224.48" transform="matrix(0.99871402,-0.05063329,0.05063361,0.99872058,0,0)"><tspan id="tspan130" x="41.787" y="224.48" style="font-style:normal;font-variant:normal;font-weight:400;font-stretch:normal;font-size:18.68162537px;font-family:sans-serif;-inkscape-font-specification:sans-serif;writing-mode:lr-tb;fill:#373535;fill-opacity:1;fill-rule:nonzero;stroke:none;stroke-width:1.25">A</tspan></text><text style="font-size:14.99999905px;line-height:0%;stroke-width:1.25" id="text136" x="117.872" y="402.87" transform="rotate(-4.6880616)"><tspan id="tspan138" x="117.872" y="402.87" style="font-style:normal;font-variant:normal;font-weight:400;font-stretch:normal;font-size:18.68175316px;font-family:sans-serif;-inkscape-font-specification:sans-serif;writing-mode:lr-tb;fill:#373535;fill-opacity:1;fill-rule:nonzero;stroke:none;stroke-width:1.25">G</tspan></text><text style="font-size:15px;line-height:0%;stroke-width:1.25" id="text144" x="150.66" y="49.366" transform="rotate(0.66178098)"><tspan id="tspan146" x="150.66" y="49.366" style="font-style:normal;font-variant:normal;font-weight:400;font-stretch:normal;font-size:18.68175316px;font-family:sans-serif;-inkscape-font-specification:sans-serif;writing-mode:lr-tb;fill:#373535;fill-opacity:1;fill-rule:nonzero;stroke:none;stroke-width:1.25">B</tspan></text><text style="font-size:15px;line-height:0%;stroke-width:1.25" id="text148" x="245.944" y="30.977" transform="rotate(-0.43346459)"><tspan id="tspan150" x="245.944" y="30.977" style="font-style:normal;font-variant:normal;font-weight:400;font-stretch:normal;font-size:18.68162537px;font-family:sans-serif;-inkscape-font-specification:sans-serif;writing-mode:lr-tb;fill:#373535;fill-opacity:1;fill-rule:nonzero;stroke:none;stroke-width:1.25">C</tspan></text><text style="font-size:14.99999905px;line-height:0%;stroke-width:1.25" id="text156" x="415.861" y="113.121" transform="rotate(2.0614162)"><tspan id="tspan158" x="415.861" y="113.121" style="font-style:normal;font-variant:normal;font-weight:400;font-stretch:normal;font-size:18.68175316px;font-family:sans-serif;-inkscape-font-specification:sans-serif;writing-mode:lr-tb;fill:#373535;fill-opacity:1;fill-rule:nonzero;stroke:none;stroke-width:1.25">D</tspan></text><text style="font-size:14.99999905px;line-height:0%;stroke-width:1.25" id="text164" x="396.625" y="341.317" transform="rotate(-2.912159)"><tspan id="tspan166" x="396.625" y="341.317" style="font-style:normal;font-variant:normal;font-weight:400;font-stretch:normal;font-size:18.68175316px;font-family:sans-serif;-inkscape-font-specification:sans-serif;writing-mode:lr-tb;fill:#373535;fill-opacity:1;fill-rule:nonzero;stroke:none;stroke-width:1.25">E</tspan></text><text style="font-size:15px;line-height:0%;stroke-width:1.25" id="text168" x="312.017" y="417.322" transform="rotate(-4.5339016)"><tspan id="tspan170" x="312.017" y="417.322" style="font-style:normal;font-variant:normal;font-weight:400;font-stretch:normal;font-size:18.68175316px;font-family:sans-serif;-inkscape-font-specification:sans-serif;writing-mode:lr-tb;fill:#373535;fill-opacity:1;fill-rule:nonzero;stroke:none;stroke-width:1.25">F</tspan></text><flowRoot style="font-style:normal;font-weight:400;line-height:.01%;font-family:sans-serif;letter-spacing:0;word-spacing:0;fill:#000;fill-opacity:1;stroke:none;stroke-width:1px;stroke-linecap:butt;stroke-linejoin:miter;stroke-opacity:1" id="flowRoot3739" transform="translate(-138.66797,-8.74609)" xml:space="preserve"><flowRegion id="flowRegion3741"><rect id="rect3743" width="73.369" height="41.511" x="148.668" y="-3.373"/></flowRegion><flowPara style="font-size:25px;line-height:1.25" id="flowPara3745"/></flowRoot><text id="text144-5" x="32.04" y="127.725" transform="rotate(0.66178098)" style="font-size:15px;line-height:0%;stroke-width:1.25"><tspan id="tspan146-1" x="32.04" y="127.725" style="font-style:normal;font-variant:normal;font-weight:400;font-stretch:normal;font-size:18.68175316px;font-family:sans-serif;-inkscape-font-specification:sans-serif;writing-mode:lr-tb;fill:#373535;fill-opacity:1;fill-rule:nonzero;stroke:none;stroke-width:1.25">A#/Bb</tspan></text><text id="text144-1" x="34.972" y="320.055" transform="rotate(0.66178098)" style="font-size:15px;line-height:0%;stroke-width:1.25"><tspan id="tspan146-8" x="34.972" y="320.055" style="font-style:normal;font-variant:normal;font-weight:400;font-stretch:normal;font-size:18.68175316px;font-family:sans-serif;-inkscape-font-specification:sans-serif;writing-mode:lr-tb;fill:#373535;fill-opacity:1;fill-rule:nonzero;stroke:none;stroke-width:1.25">G#/Ab</tspan></text><text id="text144-2" x="227.431" y="413.704" transform="rotate(0.66178098)" style="font-size:15px;line-height:0%;stroke-width:1.25"><tspan id="tspan146-9" x="227.431" y="413.704" style="font-style:normal;font-variant:normal;font-weight:400;font-stretch:normal;font-size:18.68175316px;font-family:sans-serif;-inkscape-font-specification:sans-serif;writing-mode:lr-tb;fill:#373535;fill-opacity:1;fill-rule:nonzero;stroke:none;stroke-width:1.25">F#/Gb</tspan></text><text id="text144-4" x="442.005" y="215.594" transform="rotate(0.66178098)" style="font-size:15px;line-height:0%;stroke-width:1.25"><tspan id="tspan146-98" x="442.005" y="215.594" style="font-style:normal;font-variant:normal;font-weight:400;font-stretch:normal;font-size:18.68175316px;font-family:sans-serif;-inkscape-font-specification:sans-serif;writing-mode:lr-tb;fill:#373535;fill-opacity:1;fill-rule:nonzero;stroke:none;stroke-width:1.25">D#/Eb</tspan></text><text id="text144-7" x="339.287" y="47.442" transform="rotate(0.66178098)" style="font-size:15px;line-height:0%;stroke-width:1.25"><tspan id="tspan146-7" x="339.287" y="47.442" style="font-style:normal;font-variant:normal;font-weight:400;font-stretch:normal;font-size:18.68175316px;font-family:sans-serif;-inkscape-font-specification:sans-serif;writing-mode:lr-tb;fill:#373535;fill-opacity:1;fill-rule:nonzero;stroke:none;stroke-width:1.25">C#/Db</tspan></text><flowRoot style="font-style:normal;font-weight:400;line-height:.01%;font-family:sans-serif;letter-spacing:0;word-spacing:0;fill:#000;fill-opacity:1;stroke:none;stroke-width:1px;stroke-linecap:butt;stroke-linejoin:miter;stroke-opacity:1" id="flowRoot4049" transform="translate(-138.66797,-8.74609)" xml:space="preserve"><flowRegion id="flowRegion4051"><rect id="rect4053" width="76.471" height="67.059" x="583.529" y="74.706"/></flowRegion><flowPara style="font-size:16.25px;line-height:1.25" id="flowPara4055"/></flowRoot><flowRoot style="font-style:normal;font-weight:400;line-height:.01%;font-family:sans-serif;letter-spacing:0;word-spacing:0;fill:#000;fill-opacity:1;stroke:none;stroke-width:1px;stroke-linecap:butt;stroke-linejoin:miter;stroke-opacity:1" id="flowRoot5094" transform="matrix(1.25,0,0,-1.25,-138.66797,981.25391)" xml:space="preserve"><flowRegion id="flowRegion5096"><rect id="rect5098" width="154.098" height="29.508" x="490.164" y="611.729"/></flowRegion><flowPara style="font-size:22.5px;line-height:1.25" id="flowPara5100"/></flowRoot><path style="fill:none;stroke:red;stroke-width:3;stroke-linecap:round;stroke-linejoin:miter;stroke-miterlimit:4;stroke-dasharray:none;stroke-opacity:1" id="path30" d="M 252.66015,395.12828 V 34.777035"/><g id="g1290" transform="matrix(1.25,0,0,-1.25,-68.973854,1195.9559)"><rect style="fill:#fff;fill-opacity:1;stroke:none;stroke-width:2.4000001;stroke-linecap:round;stroke-miterlimit:4;stroke-dasharray:none;stroke-opacity:1" id="rect1285" width="99.61" height="11.818" x="208.168" y="-695.84" ry="5.909" transform="scale(1,-1)"/><text style="font-style:normal;font-weight:400;font-size:32px;line-height:20px;font-family:sans-serif;letter-spacing:0;word-spacing:0;fill:#000;fill-opacity:1;stroke:none;stroke-width:.80000001px;stroke-linecap:butt;stroke-linejoin:miter;stroke-opacity:1" id="text1283" x="209.964" y="-685.159" transform="scale(1,-1)" xml:space="preserve"><tspan id="tspan1281" x="209.964" y="-685.159" style="font-size:12.80000019px;fill:red;fill-opacity:1;stroke-width:.80000001px">axis of rotation</tspan></text></g><path id="path4" d="m 255.18786,128.15909 a 79.652053,79.652053 0 0 1 79.65205,79.65205 79.652053,79.652053 0 0 1 -39.82602,68.98072" style="fill:none;stroke:#000;stroke-width:5.30999994;stroke-linecap:round;stroke-miterlimit:4;stroke-dasharray:none;stroke-opacity:1;marker-start:url(#Arrow2Mstart);marker-end:url(#DotM)"/><path id="path6" d="M 255.41439,90.371896 A 119.65586,119.65586 0 0 1 359.03941,150.19983" style="fill:none;stroke:#000;stroke-width:5.318;stroke-linecap:round;stroke-opacity:1;marker-end:url(#marker2310);marker-start:url(#marker3752);stroke-miterlimit:4;stroke-dasharray:none"/><path id="path6-3" d="M 249.9638,90.800042 A 119.65586,119.65586 0 0 0 146.33878,150.62797" style="fill:none;stroke:#000;stroke-width:3.98852885pt;stroke-linecap:round;stroke-opacity:1;marker-end:url(#marker3924)"/><path id="path4-6" d="m 249.23027,128.15909 a 79.652053,79.652053 0 0 0 -79.65205,79.65205 79.652053,79.652053 0 0 0 39.82602,68.98071" style="fill:none;stroke:#000;stroke-width:3.98260295pt;stroke-linecap:round;stroke-opacity:1;marker-end:url(#marker3272)"/></svg>