<svg xmlns="http://www.w3.org/2000/svg" xmlns:svg="http://www.w3.org/2000/svg" id="svg8422" width="671.901" height="554.343" version="1.1"><metadata id="metadata8428"/><path id="path4747" d="m 14.25,53.67154 v -6 a 6,6 0 0 1 6,-6 h 6 v 3 h 15 v -3 h 13.5 54.22119 6 a 6,6 0 0 1 6,6 v 6 h -6 v -4.5 h -6 v 15 h 6 v -4.5 h 6 v 6 a 6,6 0 0 1 -6,6 h -6 H 54.75 53.25 v 3 h -12 v -3 h -1.5 -6 a 7.5,7.5 0 0 0 -7.5,7.5 v 6 6 94.5 6 a 7.5,7.5 0 0 0 7.5,7.5 h 6 v 3 h 15 v -3 h 12 v 9 9 6 a 6,6 0 0 1 -6,6 h -6 -13.5 -1.5 v 3 h -12 v -3 h -1.5 -6 a 6,6 0 0 1 -6,-6 v -6 z" style="fill:#fe994f;fill-opacity:1;stroke:#e8680e;stroke-width:1.5;stroke-linecap:round;stroke-opacity:1"/><text id="text4751" x="13.5" y="40.922" style="font-size:15px;font-family:sans-serif;text-anchor:start;fill:#000;stroke-width:1.5"><tspan id="tspan4749" x="21.5" y="63.797" style="stroke-width:1.5">note value</tspan></text><path id="path4761" d="m 122.4712,53.67154 v -6 a 6,6 0 0 1 6,-6 h 6 15 45 6 a 6,6 0 0 1 6,6 v 6 h -6 v -4.5 h -6 v 15 h 6 v -4.5 h 6 v 25.5 h -6 v -4.5 h -6 v 15 h 6 v -4.5 h 6 v 6 a 6,6 0 0 1 -6,6 h -6 -45 -15 -6 a 6,6 0 0 1 -6,-6 v -6 -31.5 -1.5 h -9 v 4.5 h -3 v -12 h 3 v 4.5 h 9 z" style="fill:#ff6ea1;fill-opacity:1;stroke:#ff2c76;stroke-width:1.5;stroke-linecap:round;stroke-opacity:1"/><text id="text4765" x="109.721" y="40.922" style="font-size:21px;font-family:sans-serif;text-anchor:end;fill:#000;stroke-width:1.5"><tspan id="tspan4763" x="191.221" y="76.622" style="stroke-width:1.5">/</tspan></text><path id="path4779" d="m 207.9712,41.67154 h 90 v 30 h -90 v -12 -1.5 h -9 v 4.5 h -3 v -12 h 3 v 4.5 h 9 v -1.5 z" style="fill:#ff6ea1;fill-opacity:1;stroke:#ff2c76;stroke-width:1.5;stroke-linecap:round;stroke-opacity:1"/><text id="text4783" x="195.221" y="40.922" style="font-size:15px;font-family:sans-serif;text-anchor:start;fill:#000;stroke-width:1.5"><tspan id="tspan4781" x="215.221" y="61.672" style="stroke-width:1.5">1</tspan></text><path id="path4789" d="m 207.9712,73.17154 h 90 v 30 h -90 v -12 -1.5 h -9 v 4.5 h -3 v -12 h 3 v 4.5 h 9 v -1.5 z" style="fill:#ff6ea1;fill-opacity:1;stroke:#ff2c76;stroke-width:1.5;stroke-linecap:round;stroke-opacity:1"/><text id="text4793" x="195.221" y="72.422" style="font-size:15px;font-family:sans-serif;text-anchor:start;fill:#000;stroke-width:1.5"><tspan id="tspan4791" x="215.221" y="93.172" style="stroke-width:1.5">4</tspan></text><path id="path4799" d="m 27.75,85.17154 v -6 a 6,6 0 0 1 6,-6 h 6 v 3 h 15 v -3 h 30 6 a 6,6 0 0 1 6,6 v 6 6 6 a 6,6 0 0 1 -6,6 h -6 -30 -1.5 v 3 h -12 v -3 h -1.5 -6 a 6,6 0 0 1 -6,-6 v -6 z" style="fill:#c4c4c4;fill-opacity:1;stroke:#a0a0a0;stroke-width:1.5;stroke-linecap:round;stroke-opacity:1"/><text id="text4803" x="27" y="72.422" style="font-size:15px;font-family:sans-serif;text-anchor:end;fill:#000;stroke-width:1.5"><tspan id="tspan4801" x="81.5" y="92.672" style="stroke-width:1.5">↓</tspan></text><path id="path4809" d="m 27.75,116.67154 v -6 a 6,6 0 0 1 6,-6 h 6 v 3 h 15 v -3 h 45 6 a 6,6 0 0 1 6,6 v 6 h -6 v -4.5 h -6 v 15 h 6 v -4.5 h 6 v 25.5 h -6 v -4.5 h -6 v 15 h 6 v -4.5 h 6 v 6 a 6,6 0 0 1 -6,6 h -6 -45 -1.5 v 3 h -12 v -3 h -1.5 -6 a 6,6 0 0 1 -6,-6 v -6 -31.5 z" style="fill:#7cd622;fill-opacity:1;stroke:#57ad02;stroke-width:1.5;stroke-linecap:round;stroke-opacity:1"/><text id="text4813" x="27" y="103.922" style="font-size:15px;font-family:sans-serif;text-anchor:end;fill:#000;stroke-width:1.5"><tspan id="tspan4811" x="96.5" y="139.922" style="stroke-width:1.5">pitch</tspan></text><text id="text4817" x="27" y="103.922" style="font-size:10px;font-family:sans-serif;text-anchor:end;fill:#000;stroke-width:1.5"><tspan id="tspan4815" x="96.5" y="120.797" style="stroke-width:1.5">name</tspan></text><text id="text4821" x="27" y="103.922" style="font-size:10px;font-family:sans-serif;text-anchor:end;fill:#000;stroke-width:1.5"><tspan id="tspan4819" x="96.5" y="152.297" style="stroke-width:1.5">octave</tspan></text><path id="path4827" d="m 113.25,104.67154 h 90 v 30 h -90 v -12 -1.5 h -9 v 4.5 h -3 v -12 h 3 v 4.5 h 9 v -1.5 z" style="fill:#7cd622;fill-opacity:1;stroke:#57ad02;stroke-width:1.5;stroke-linecap:round;stroke-opacity:1"/><text id="text4831" x="100.5" y="103.922" style="font-size:15px;font-family:sans-serif;text-anchor:start;fill:#000;stroke-width:1.5"><tspan id="tspan4829" x="120.5" y="124.672" style="stroke-width:1.5">sol</tspan></text><path id="path4837" d="m 113.25,136.17154 h 90 v 30 h -90 v -12 -1.5 h -9 v 4.5 h -3 v -12 h 3 v 4.5 h 9 v -1.5 z" style="fill:#ff6ea1;fill-opacity:1;stroke:#ff2c76;stroke-width:1.5;stroke-linecap:round;stroke-opacity:1"/><text id="text4841" x="100.5" y="135.422" style="font-size:15px;font-family:sans-serif;text-anchor:start;fill:#000;stroke-width:1.5"><tspan id="tspan4839" x="120.5" y="156.172" style="stroke-width:1.5">4</tspan></text><path id="path4847" d="m 14.25,242.67154 v -6 a 6,6 0 0 1 6,-6 h 6 v 3 h 15 v -3 h 13.5 54.22119 6 a 6,6 0 0 1 6,6 v 6 h -6 v -4.5 h -6 v 15 h 6 v -4.5 h 6 v 6 a 6,6 0 0 1 -6,6 h -6 H 54.75 53.25 v 3 h -12 v -3 h -1.5 -6 a 7.5,7.5 0 0 0 -7.5,7.5 v 6 6 31.5 6 a 7.5,7.5 0 0 0 7.5,7.5 h 6 v 3 h 15 v -3 h 12 v 9 9 6 a 6,6 0 0 1 -6,6 h -6 -13.5 -1.5 v 3 h -12 v -3 h -1.5 -6 a 6,6 0 0 1 -6,-6 v -6 z" style="fill:#fe994f;fill-opacity:1;stroke:#e8680e;stroke-width:1.5;stroke-linecap:round;stroke-opacity:1"/><text id="text4851" x="13.5" y="229.922" style="font-size:15px;font-family:sans-serif;text-anchor:start;fill:#000;stroke-width:1.5"><tspan id="tspan4849" x="21.5" y="252.797" style="stroke-width:1.5">note value</tspan></text><path id="path4861" d="m 122.4712,242.67154 v -6 a 6,6 0 0 1 6,-6 h 6 15 45 6 a 6,6 0 0 1 6,6 v 6 h -6 v -4.5 h -6 v 15 h 6 v -4.5 h 6 v 25.5 h -6 v -4.5 h -6 v 15 h 6 v -4.5 h 6 v 6 a 6,6 0 0 1 -6,6 h -6 -45 -15 -6 a 6,6 0 0 1 -6,-6 v -6 -31.5 -1.5 h -9 v 4.5 h -3 v -12 h 3 v 4.5 h 9 z" style="fill:#ff6ea1;fill-opacity:1;stroke:#ff2c76;stroke-width:1.5;stroke-linecap:round;stroke-opacity:1"/><text id="text4865" x="109.721" y="229.922" style="font-size:21px;font-family:sans-serif;text-anchor:end;fill:#000;stroke-width:1.5"><tspan id="tspan4863" x="191.221" y="265.622" style="stroke-width:1.5">/</tspan></text><path id="path4879" d="m 207.9712,230.67154 h 90 v 30 h -90 v -12 -1.5 h -9 v 4.5 h -3 v -12 h 3 v 4.5 h 9 v -1.5 z" style="fill:#ff6ea1;fill-opacity:1;stroke:#ff2c76;stroke-width:1.5;stroke-linecap:round;stroke-opacity:1"/><text id="text4883" x="195.221" y="229.922" style="font-size:15px;font-family:sans-serif;text-anchor:start;fill:#000;stroke-width:1.5"><tspan id="tspan4881" x="215.221" y="250.672" style="stroke-width:1.5">1</tspan></text><path id="path4889" d="m 207.9712,262.1715 h 90 v 30 h -90 v -12 -1.5 h -9 v 4.5 h -3 v -12 h 3 v 4.5 h 9 v -1.5 z" style="fill:#ff6ea1;fill-opacity:1;stroke:#ff2c76;stroke-width:1.5;stroke-linecap:round;stroke-opacity:1"/><text id="text4893" x="195.221" y="261.422" style="font-size:15px;font-family:sans-serif;text-anchor:start;fill:#000;stroke-width:1.5"><tspan id="tspan4891" x="215.221" y="282.172" style="stroke-width:1.5">8</tspan></text><path id="path4899" d="m 27.75,274.1715 v -6 a 6,6 0 0 1 6,-6 h 6 v 3 h 15 v -3 h 30 6 a 6,6 0 0 1 6,6 v 6 6 6 a 6,6 0 0 1 -6,6 h -6 -30 -1.5 v 3 h -12 v -3 h -1.5 -6 a 6,6 0 0 1 -6,-6 v -6 z" style="fill:#c4c4c4;fill-opacity:1;stroke:#a0a0a0;stroke-width:1.5;stroke-linecap:round;stroke-opacity:1"/><text id="text4903" x="27" y="261.422" style="font-size:15px;font-family:sans-serif;text-anchor:end;fill:#000;stroke-width:1.5"><tspan id="tspan4901" x="81.5" y="281.672" style="stroke-width:1.5">↓</tspan></text><path id="path4909" d="m 27.75,305.6715 v -6 a 6,6 0 0 1 6,-6 h 6 v 3 h 15 v -3 h 45 6 a 6,6 0 0 1 6,6 v 6 h -6 v -4.5 h -6 v 15 h 6 v -4.5 h 6 v 6 a 6,6 0 0 1 -6,6 h -6 -45 -1.5 v 3 h -12 v -3 h -1.5 -6 a 6,6 0 0 1 -6,-6 v -6 z" style="fill:#92a9ff;fill-opacity:1;stroke:#5370dc;stroke-width:1.5;stroke-linecap:round;stroke-opacity:1"/><text id="text4913" x="27" y="292.922" style="font-size:15px;font-family:sans-serif;text-anchor:end;fill:#000;stroke-width:1.5"><tspan id="tspan4911" x="96.5" y="313.172" style="stroke-width:1.5">right</tspan></text><path id="path4923" d="m 113.25,293.6715 h 90 v 30 h -90 v -12 -1.5 h -9 v 4.5 h -3 v -12 h 3 v 4.5 h 9 v -1.5 z" style="fill:#ff6ea1;fill-opacity:1;stroke:#ff2c76;stroke-width:1.5;stroke-linecap:round;stroke-opacity:1"/><text id="text4927" x="100.5" y="292.922" style="font-size:15px;font-family:sans-serif;text-anchor:start;fill:#000;stroke-width:1.5"><tspan id="tspan4925" x="120.5" y="313.672" style="stroke-width:1.5">3</tspan></text><path id="path4933" d="m 0.75,22.17154 v -6 a 6,6 0 0 1 6,-6 h 6 l 7.5,-9 7.5,9 h 13.5 52.5 6 a 6,6 0 0 1 6,6 v 6 h -6 v -4.5 h -6 v 15 h 6 v -4.5 h 6 v 6 a 6,6 0 0 1 -6,6 h -6 -52.5 -1.5 v 3 h -12 v -3 h -1.5 -6 a 7.5,7.5 0 0 0 -7.5,7.5 v 6 6 283.5 6 a 7.5,7.5 0 0 0 7.5,7.5 h 6 v 3 h 15 v -3 h 12 v 9 9 6 a 6,6 0 0 1 -6,6 h -6 -13.5 l -7.5,9 -7.5,-9 h -6 a 6,6 0 0 1 -6,-6 v -6 z" style="fill:#ffbf00;fill-opacity:1;stroke:#daaf30;stroke-width:1.5;stroke-linecap:round;stroke-opacity:1"/><text id="text4937" y=".422" style="font-size:15px;font-family:sans-serif;text-anchor:start;fill:#000;stroke-width:1.5"><tspan id="tspan4935" x="8" y="32.672" style="stroke-width:1.5">action</tspan></text><path id="path4947" d="m 107.25,10.17154 h 90 v 30 h -90 v -12 -1.5 h -9 v 4.5 h -3 v -12 h 3 v 4.5 h 9 v -1.5 z" style="fill:#ff6648;fill-opacity:1;stroke:#ea4326;stroke-width:1.5;stroke-linecap:round;stroke-opacity:1"/><text id="text4951" x="94.5" y="9.422" style="font-size:15px;font-family:sans-serif;text-anchor:start;fill:#000;stroke-width:1.5"><tspan id="tspan4949" x="114.5" y="30.172" style="stroke-width:1.5">chunk</tspan></text><path id="path4957" d="m 27.75,179.67154 v -6 a 6,6 0 0 1 6,-6 h 6 v 3 h 15 v -3 h 50.01709 6 a 6,6 0 0 1 6,6 v 6 h -6 v -4.5 h -6 v 15 h 6 v -4.5 h 6 v 6 a 6,6 0 0 1 -6,6 h -6 H 54.75 53.25 v 3 h -12 v -3 h -1.5 -6 a 6,6 0 0 1 -6,-6 v -6 z" style="fill:#92a9ff;fill-opacity:1;stroke:#5370dc;stroke-width:1.5;stroke-linecap:round;stroke-opacity:1"/><text id="text4961" x="27" y="166.922" style="font-size:15px;font-family:sans-serif;text-anchor:end;fill:#000;stroke-width:1.5"><tspan id="tspan4959" x="101.517" y="187.172" style="stroke-width:1.5">forward</tspan></text><path id="path4971" d="m 118.2671,167.67154 h 90 v 30 h -90 v -12 -1.5 h -9 v 4.5 h -3 v -12 h 3 v 4.5 h 9 v -1.5 z" style="fill:#ff6ea1;fill-opacity:1;stroke:#ff2c76;stroke-width:1.5;stroke-linecap:round;stroke-opacity:1"/><text id="text4975" x="105.517" y="166.922" style="font-size:15px;font-family:sans-serif;text-anchor:start;fill:#000;stroke-width:1.5"><tspan id="tspan4973" x="125.517" y="187.672" style="stroke-width:1.5">10</tspan></text><path id="path4737" d="m 335.75,22.17154 v -6 a 6,6 0 0 1 6,-6 h 6 l 7.5,-9 7.5,9 h 13.5 45 6 a 6,6 0 0 1 6,6 v 6 6 6 a 6,6 0 0 1 -6,6 h -6 -45 -1.5 v 3 h -12 v -3 h -1.5 -6 a 7.5,7.5 0 0 0 -7.5,7.5 v 6 6 441 6 a 7.5,7.5 0 0 0 7.5,7.5 h 6 v 3 h 15 v -3 h 12 v 9 9 6 a 6,6 0 0 1 -6,6 h -6 -13.5 l -7.5,9 -7.5,-9 h -6 a 6,6 0 0 1 -6,-6 v -6 z" style="fill:#ffbf00;fill-opacity:1;stroke:#daaf30;stroke-width:1.5;stroke-linecap:round;stroke-opacity:1"/><text id="text4741" x="335" y=".422" style="font-size:15px;font-family:sans-serif;text-anchor:start;fill:#000;stroke-width:1.5"><tspan id="tspan4739" x="343" y="32.672" style="stroke-width:1.5">start</tspan></text><path id="path4981" d="m 349.25,53.67154 v -6 a 6,6 0 0 1 6,-6 h 6 v 3 h 15 v -3 h 13.5 30 6 a 6,6 0 0 1 6,6 v 6 h -6 v -4.5 h -6 v 15 h 6 v -4.5 h 6 v 6 a 6,6 0 0 1 -6,6 h -6 -30 -1.5 v 3 h -12 v -3 h -1.5 -6 a 7.5,7.5 0 0 0 -7.5,7.5 v 6 6 378 6 a 7.5,7.5 0 0 0 7.5,7.5 h 6 v 3 h 15 v -3 h 12 v 9 9 6 a 6,6 0 0 1 -6,6 h -6 -13.5 -1.5 v 3 h -12 v -3 h -1.5 -6 a 6,6 0 0 1 -6,-6 v -6 z" style="fill:#e9a066;fill-opacity:1;stroke:#b7651a;stroke-width:1.5;stroke-linecap:round;stroke-opacity:1"/><text id="text4985" x="348.5" y="40.922" style="font-size:15px;font-family:sans-serif;text-anchor:start;fill:#000;stroke-width:1.5"><tspan id="tspan4983" x="356.5" y="63.797" style="stroke-width:1.5">repeat</tspan></text><path id="path4995" d="m 433.25,41.67154 h 90 v 30 h -90 v -12 -1.5 h -9 v 4.5 h -3 v -12 h 3 v 4.5 h 9 v -1.5 z" style="fill:#ff6ea1;fill-opacity:1;stroke:#ff2c76;stroke-width:1.5;stroke-linecap:round;stroke-opacity:1"/><text id="text4999" x="420.5" y="40.922" style="font-size:15px;font-family:sans-serif;text-anchor:start;fill:#000;stroke-width:1.5"><tspan id="tspan4997" x="440.5" y="61.672" style="stroke-width:1.5">5</tspan></text><path id="path5005" d="m 362.75,85.17154 v -6 a 6,6 0 0 1 6,-6 h 6 v 3 h 15 v -3 h 80.04639 6 a 6,6 0 0 1 6,6 v 6 h -6 v -4.5 h -6 v 15 h 6 v -4.5 h 6 v 6 a 6,6 0 0 1 -6,6 h -6 -80.04639 -1.5 v 3 h -12 v -3 h -1.5 -6 a 6,6 0 0 1 -6,-6 v -6 z" style="fill:#92a9ff;fill-opacity:1;stroke:#5370dc;stroke-width:1.5;stroke-linecap:round;stroke-opacity:1"/><text id="text5009" x="362" y="72.422" style="font-size:15px;font-family:sans-serif;text-anchor:end;fill:#000;stroke-width:1.5"><tspan id="tspan5007" x="466.546" y="92.672" style="stroke-width:1.5">set pen size</tspan></text><path id="path5019" d="m 483.2964,73.17154 h 90 v 30 h -90 v -12 -1.5 h -9 v 4.5 h -3 v -12 h 3 v 4.5 h 9 v -1.5 z" style="fill:#ff6ea1;fill-opacity:1;stroke:#ff2c76;stroke-width:1.5;stroke-linecap:round;stroke-opacity:1"/><text id="text5023" x="470.546" y="72.422" style="font-size:15px;font-family:sans-serif;text-anchor:start;fill:#000;stroke-width:1.5"><tspan id="tspan5021" x="490.546" y="93.172" style="stroke-width:1.5">50</tspan></text><path id="path5029" d="m 362.75,116.67154 v -6 a 6,6 0 0 1 6,-6 h 6 v 3 h 15 v -3 h 49.18945 6 a 6,6 0 0 1 6,6 v 6 h -6 v -4.5 h -6 v 15 h 6 v -4.5 h 6 v 25.5 h -6 v -4.5 h -6 v 15 h 6 v -4.5 h 6 v 6 a 6,6 0 0 1 -6,6 h -6 -49.18945 -1.5 v 3 h -12 v -3 h -1.5 -6 a 6,6 0 0 1 -6,-6 v -6 -31.5 z" style="fill:#fe994f;fill-opacity:1;stroke:#e8680e;stroke-width:1.5;stroke-linecap:round;stroke-opacity:1"/><text id="text5033" x="362" y="103.922" style="font-size:15px;font-family:sans-serif;text-anchor:end;fill:#000;stroke-width:1.5"><tspan id="tspan5031" x="435.689" y="139.922" style="stroke-width:1.5">store in</tspan></text><text id="text5037" x="362" y="103.922" style="font-size:10px;font-family:sans-serif;text-anchor:end;fill:#000;stroke-width:1.5"><tspan id="tspan5035" x="435.689" y="120.797" style="stroke-width:1.5">name</tspan></text><text id="text5041" x="362" y="103.922" style="font-size:10px;font-family:sans-serif;text-anchor:end;fill:#000;stroke-width:1.5"><tspan id="tspan5039" x="435.689" y="152.297" style="stroke-width:1.5">value</tspan></text><path id="path5047" d="m 452.4395,104.67154 h 90 v 30 h -90 v -12 -1.5 h -9 v 4.5 h -3 v -12 h 3 v 4.5 h 9 v -1.5 z" style="fill:#ff6648;fill-opacity:1;stroke:#ea4326;stroke-width:1.5;stroke-linecap:round;stroke-opacity:1"/><text id="text5051" x="439.69" y="103.922" style="font-size:15px;font-family:sans-serif;text-anchor:start;fill:#000;stroke-width:1.5"><tspan id="tspan5049" x="459.69" y="124.672" style="stroke-width:1.5">box</tspan></text><path id="path5057" d="m 452.4395,136.17154 h 90 v 30 h -90 v -12 -1.5 h -9 v 4.5 h -3 v -12 h 3 v 4.5 h 9 v -1.5 z" style="fill:#ff6ea1;fill-opacity:1;stroke:#ff2c76;stroke-width:1.5;stroke-linecap:round;stroke-opacity:1"/><text id="text5061" x="439.69" y="135.422" style="font-size:15px;font-family:sans-serif;text-anchor:start;fill:#000;stroke-width:1.5"><tspan id="tspan5059" x="459.69" y="156.172" style="stroke-width:1.5">0</tspan></text><path id="path5067" d="m 362.75,179.67154 v -6 a 6,6 0 0 1 6,-6 h 6 v 3 h 15 v -3 h 13.5 30 6 a 6,6 0 0 1 6,6 v 6 h -6 v -4.5 h -6 v 15 h 6 v -4.5 h 6 v 6 a 6,6 0 0 1 -6,6 h -6 -30 -1.5 v 3 h -12 v -3 h -1.5 -6 a 7.5,7.5 0 0 0 -7.5,7.5 v 6 6 220.5 6 a 7.5,7.5 0 0 0 7.5,7.5 h 6 v 3 h 15 v -3 h 12 v 9 9 6 a 6,6 0 0 1 -6,6 h -6 -13.5 -1.5 v 3 h -12 v -3 h -1.5 -6 a 6,6 0 0 1 -6,-6 v -6 z" style="fill:#e9a066;fill-opacity:1;stroke:#b7651a;stroke-width:1.5;stroke-linecap:round;stroke-opacity:1"/><text id="text5071" x="362" y="166.922" style="font-size:15px;font-family:sans-serif;text-anchor:start;fill:#000;stroke-width:1.5"><tspan id="tspan5069" x="370" y="189.797" style="stroke-width:1.5">repeat</tspan></text><path id="path5081" d="m 446.75,167.67154 h 90 v 30 h -90 v -12 -1.5 h -9 v 4.5 h -3 v -12 h 3 v 4.5 h 9 v -1.5 z" style="fill:#ff6ea1;fill-opacity:1;stroke:#ff2c76;stroke-width:1.5;stroke-linecap:round;stroke-opacity:1"/><text id="text5085" x="434" y="166.922" style="font-size:15px;font-family:sans-serif;text-anchor:start;fill:#000;stroke-width:1.5"><tspan id="tspan5083" x="454" y="187.672" style="stroke-width:1.5">24</tspan></text><path id="path5091" d="m 376.25,211.17154 v -6 a 6,6 0 0 1 6,-6 h 6 v 3 h 15 v -3 h 13.5 120.90089 6 a 6,6 0 0 1 6,6 v 6 h -6 v -4.5 h -6 v 15 h 6 v -4.5 h 6 v 6 a 6,6 0 0 1 -6,6 h -6 -120.90089 -1.5 v 3 h -12 v -3 h -1.5 -6 a 7.5,7.5 0 0 0 -7.5,7.5 v 6 6 6 a 7.5,7.5 0 0 0 7.5,7.5 h 6 v 3 h 15 v -3 h 12 v 9 9 6 a 6,6 0 0 1 -6,6 h -6 -13.5 -1.5 v 3 h -12 v -3 h -1.5 -6 a 6,6 0 0 1 -6,-6 v -6 z" style="fill:#7cd622;fill-opacity:1;stroke:#57ad02;stroke-width:1.5;stroke-linecap:round;stroke-opacity:1"/><text id="text5095" x="375.5" y="198.422" style="font-size:15px;font-family:sans-serif;text-anchor:start;fill:#000;stroke-width:1.5"><tspan id="tspan5093" x="383.5" y="221.297" style="stroke-width:1.5">semi-tone transpose</tspan></text><path id="path5105" d="m 389.75,242.67154 v -6 a 6,6 0 0 1 6,-6 h 6 v 3 h 15 v -3 h 60 6 a 6,6 0 0 1 6,6 v 6 6 6 a 6,6 0 0 1 -6,6 h -6 -60 -1.5 v 3 h -12 v -3 h -1.5 -6 a 6,6 0 0 1 -6,-6 v -6 z" style="fill:#ffbf00;fill-opacity:1;stroke:#daaf30;stroke-width:1.5;stroke-linecap:round;stroke-opacity:1"/><text id="text5109" x="389" y="229.922" style="font-size:15px;font-family:sans-serif;text-anchor:end;fill:#000;stroke-width:1.5"><tspan id="tspan5107" x="473.5" y="250.172" style="stroke-width:1.5">chunk</tspan></text><path id="path5115" d="m 551.1509,199.17154 h 120 v 30 h -120 v -12 -1.5 h -9 v 4.5 h -3 v -12 h 3 v 4.5 h 9 v -1.5 z" style="fill:#fe994f;fill-opacity:1;stroke:#e8680e;stroke-width:1.5;stroke-linecap:round;stroke-opacity:1"/><text id="text5119" x="538.401" y="198.422" style="font-size:15px;font-family:sans-serif;text-anchor:start;fill:#000;stroke-width:1.5"><tspan id="tspan5117" x="558.401" y="219.172" style="stroke-width:1.5">box</tspan></text><path id="path5125" d="m 376.25,305.6715 v -6 a 6,6 0 0 1 6,-6 h 6 v 3 h 15 v -3 h 45 6 a 6,6 0 0 1 6,6 v 6 h -6 v -4.5 h -6 v 15 h 6 v -4.5 h 6 v 25.5 h -6 v -4.5 h -6 v 15 h 6 v -4.5 h 6 v 6 a 6,6 0 0 1 -6,6 h -6 -45 -1.5 v 3 h -12 v -3 h -1.5 -6 a 6,6 0 0 1 -6,-6 v -6 -31.5 z" style="fill:#fe994f;fill-opacity:1;stroke:#e8680e;stroke-width:1.5;stroke-linecap:round;stroke-opacity:1"/><text id="text5129" x="375.5" y="292.922" style="font-size:15px;font-family:sans-serif;text-anchor:end;fill:#000;stroke-width:1.5"><tspan id="tspan5127" x="445" y="328.922" style="stroke-width:1.5">add</tspan></text><text id="text5133" x="375.5" y="292.922" style="font-size:10px;font-family:sans-serif;text-anchor:end;fill:#000;stroke-width:1.5"><tspan id="tspan5131" x="445" y="309.797" style="stroke-width:1.5">to</tspan></text><text id="text5137" x="375.5" y="292.922" style="font-size:10px;font-family:sans-serif;text-anchor:end;fill:#000;stroke-width:1.5"><tspan id="tspan5135" x="445" y="341.297" style="stroke-width:1.5">value</tspan></text><path id="path5143" d="m 461.75,293.6715 h 120 v 30 h -120 v -12 -1.5 h -9 v 4.5 h -3 v -12 h 3 v 4.5 h 9 v -1.5 z" style="fill:#fe994f;fill-opacity:1;stroke:#e8680e;stroke-width:1.5;stroke-linecap:round;stroke-opacity:1"/><text id="text5147" x="449" y="292.922" style="font-size:15px;font-family:sans-serif;text-anchor:start;fill:#000;stroke-width:1.5"><tspan id="tspan5145" x="469" y="313.672" style="stroke-width:1.5">box</tspan></text><path id="path5153" d="m 461.75,325.1715 h 90 v 30 h -90 v -12 -1.5 h -9 v 4.5 h -3 v -12 h 3 v 4.5 h 9 v -1.5 z" style="fill:#ff6ea1;fill-opacity:1;stroke:#ff2c76;stroke-width:1.5;stroke-linecap:round;stroke-opacity:1"/><text id="text5157" x="449" y="324.422" style="font-size:15px;font-family:sans-serif;text-anchor:start;fill:#000;stroke-width:1.5"><tspan id="tspan5155" x="469" y="345.172" style="stroke-width:1.5">-1</tspan></text><path id="path5163" d="m 470.9639,356.6715 h 105 v 30 h -105 v -12 -1.5 h -9 v 4.5 h -3 v -12 h 3 v 4.5 h 9 v -1.5 z" style="fill:#92a9ff;fill-opacity:1;stroke:#5370dc;stroke-width:1.5;stroke-linecap:round;stroke-opacity:1"/><text id="text5167" x="458.214" y="355.922" style="font-size:15px;font-family:sans-serif;text-anchor:start;fill:#000;stroke-width:1.5"><tspan id="tspan5165" x="478.214" y="376.672" style="stroke-width:1.5">color</tspan></text><path id="path5173" d="m 376.25,368.6715 v -6 a 6,6 0 0 1 6,-6 h 6 v 3 h 15 v -3 h 54.21387 6 a 6,6 0 0 1 6,6 v 6 h -6 v -4.5 h -6 v 15 h 6 v -4.5 h 6 v 6 a 6,6 0 0 1 -6,6 h -6 -54.21387 -1.5 v 3 h -12 v -3 h -1.5 -6 a 6,6 0 0 1 -6,-6 v -6 z" style="fill:#fe994f;fill-opacity:1;stroke:#e8680e;stroke-width:1.5;stroke-linecap:round;stroke-opacity:1"/><text id="text5177" x="375.5" y="355.922" style="font-size:15px;font-family:sans-serif;text-anchor:end;fill:#000;stroke-width:1.5"><tspan id="tspan5175" x="454.214" y="376.172" style="stroke-width:1.5">add 1 to</tspan></text><path id="path5187" d="m 376.25,400.1715 v -6 a 6,6 0 0 1 6,-6 h 6 v 3 h 15 v -3 h 45 6 a 6,6 0 0 1 6,6 v 6 h -6 v -4.5 h -6 v 15 h 6 v -4.5 h 6 v 25.5 h -6 v -4.5 h -6 v 15 h 6 v -4.5 h 6 v 6 a 6,6 0 0 1 -6,6 h -6 -45 -1.5 v 3 h -12 v -3 h -1.5 -6 a 6,6 0 0 1 -6,-6 v -6 -31.5 z" style="fill:#fe994f;fill-opacity:1;stroke:#e8680e;stroke-width:1.5;stroke-linecap:round;stroke-opacity:1"/><text id="text5191" x="375.5" y="387.422" style="font-size:15px;font-family:sans-serif;text-anchor:end;fill:#000;stroke-width:1.5"><tspan id="tspan5189" x="445" y="423.422" style="stroke-width:1.5">add</tspan></text><text id="text5195" x="375.5" y="387.422" style="font-size:10px;font-family:sans-serif;text-anchor:end;fill:#000;stroke-width:1.5"><tspan id="tspan5193" x="445" y="404.297" style="stroke-width:1.5">to</tspan></text><text id="text5199" x="375.5" y="387.422" style="font-size:10px;font-family:sans-serif;text-anchor:end;fill:#000;stroke-width:1.5"><tspan id="tspan5197" x="445" y="435.797" style="stroke-width:1.5">value</tspan></text><path id="path5205" d="m 461.75,388.1715 h 115.86914 v 30 H 461.75 v -12 -1.5 h -9 v 4.5 h -3 v -12 h 3 v 4.5 h 9 v -1.5 z" style="fill:#92a9ff;fill-opacity:1;stroke:#5370dc;stroke-width:1.5;stroke-linecap:round;stroke-opacity:1"/><text id="text5209" x="449" y="387.422" style="font-size:15px;font-family:sans-serif;text-anchor:start;fill:#000;stroke-width:1.5"><tspan id="tspan5207" x="469" y="408.172" style="stroke-width:1.5">pen size</tspan></text><path id="path5215" d="m 461.75,419.6715 h 90 v 30 h -90 v -12 -1.5 h -9 v 4.5 h -3 v -12 h 3 v 4.5 h 9 v -1.5 z" style="fill:#ff6ea1;fill-opacity:1;stroke:#ff2c76;stroke-width:1.5;stroke-linecap:round;stroke-opacity:1"/><text id="text5219" x="449" y="418.922" style="font-size:15px;font-family:sans-serif;text-anchor:start;fill:#000;stroke-width:1.5"><tspan id="tspan5217" x="469" y="439.672" style="stroke-width:1.5">-2</tspan></text></svg>