<svg xmlns="http://www.w3.org/2000/svg" xmlns:svg="http://www.w3.org/2000/svg" id="svg4075" width="267.395" height="273.75" version="1.1" viewBox="0 0 267.395 273.75"><metadata id="metadata4080"/><flowRoot style="font-style:normal;font-weight:400;font-size:16px;line-height:125%;font-family:sans-serif;text-align:center;letter-spacing:0;word-spacing:0;text-anchor:middle;fill:#000;fill-opacity:1;stroke:none;stroke-width:1px;stroke-linecap:butt;stroke-linejoin:miter;stroke-opacity:1" id="flowRoot4622" transform="translate(868.22609,-118.33301)" xml:space="preserve"><flowRegion id="flowRegion4624"><rect id="rect4626" width="320.467" height="182.714" x="673.46" y="575.885"/></flowRegion><flowPara id="flowPara4628"/></flowRoot><g id="g1016" transform="scale(0.93749996)"><g id="g1014" transform="scale(1.5)"><path id="path1004" d="m 0.5,8.5 v -4 a 4,4 90 0 1 4,-4 h 4 v 2 h 10 v -2 h 9 36.147461 4 a 4,4 90 0 1 4,4 v 4 h -4 v -3 h -4 v 10 h 4 v -3 h 4 v 4 a 4,4 90 0 1 -4,4 h -4 H 27.5 h -1 v 2 h -8 v -2 h -1 -4 a 5,5 90 0 0 -5,5 v 4 4 63 4 a 5,5 90 0 0 5,5 h 4 v 2 h 10 v -2 h 8 v 6 6 4 a 4,4 90 0 1 -4,4 h -4 -9 -1 v 2 h -8 v -2 h -1 -4 a 4,4 90 0 1 -4,-4 v -4 z" style="fill:#fe994f;fill-opacity:1;stroke:#e8680e;stroke-width:1;stroke-linecap:round;stroke-opacity:1"/><text id="text1008" style="font-size:10px;font-family:sans-serif;text-anchor:start;fill:#000"><tspan id="tspan1006" x="5.333" y="15.25">note value</tspan></text></g></g><g id="g1034" transform="matrix(0.93749996,0,0,0.93749996,90.20736,0)"><g id="g1032" transform="scale(1.5)"><path id="path1018" d="m 8.5,8.5 v -4 a 4,4 90 0 1 4,-4 h 4 10 30 4 a 4,4 90 0 1 4,4 v 4 h -4 v -3 h -4 v 10 h 4 v -3 h 4 v 17 h -4 v -3 h -4 v 10 h 4 v -3 h 4 v 4 a 4,4 90 0 1 -4,4 h -4 -30 -10 -4 a 4,4 90 0 1 -4,-4 v -4 -21 -1 h -6 v 3 h -2 v -8 h 2 v 3 h 6 z" style="fill:#ff6ea1;fill-opacity:1;stroke:#ff2c76;stroke-width:1;stroke-linecap:round;stroke-opacity:1"/><text id="text1022" style="font-size:14px;font-family:sans-serif;text-anchor:end;fill:#000"><tspan id="tspan1020" x="54.333" y="23.8">/</tspan></text></g></g><g id="g1044" transform="matrix(0.93749996,0,0,0.93749996,170.36361,0)"><g id="g1042" transform="scale(1.5)"><path id="path1036" d="m 8.5,0.5 h 60 v 20 h -60 v -8 -1 h -6 v 3 h -2 v -8 h 2 v 3 h 6 v -1 z" style="fill:#ff6ea1;fill-opacity:1;stroke:#ff2c76;stroke-width:1;stroke-linecap:round;stroke-opacity:1"/><text id="text1040" style="font-size:10px;font-family:sans-serif;text-anchor:start;fill:#000"><tspan id="tspan1038" x="13.333" y="13.833">1</tspan></text></g></g><g id="g1054" transform="matrix(0.93749996,0,0,0.93749996,170.36361,29.531249)"><g id="g1052" transform="scale(1.5)"><path id="path1046" d="m 8.5,0.5 h 60 v 20 h -60 v -8 -1 h -6 v 3 h -2 v -8 h 2 v 3 h 6 v -1 z" style="fill:#ff6ea1;fill-opacity:1;stroke:#ff2c76;stroke-width:1;stroke-linecap:round;stroke-opacity:1"/><text id="text1050" style="font-size:10px;font-family:sans-serif;text-anchor:start;fill:#000"><tspan id="tspan1048" x="13.333" y="13.833">4</tspan></text></g></g><path id="path1056" d="m 13.359375,41.484373 v -5.624999 a 5.6249996,5.6249996 0 0 1 5.625,-5.625 h 5.624999 v 2.8125 h 14.062499 v -2.8125 h 28.124998 5.625 a 5.6249996,5.6249996 0 0 1 5.624999,5.625 v 5.624999 5.625 5.624999 a 5.6249996,5.6249996 0 0 1 -5.624999,5.625 h -5.625 -28.124998 -1.40625 v 2.8125 H 26.015624 v -2.8125 h -1.40625 -5.624999 a 5.6249996,5.6249996 0 0 1 -5.625,-5.625 v -5.624999 z" style="fill:#c4c4c4;fill-opacity:1;stroke:#a0a0a0;stroke-width:1.40624988;stroke-linecap:round;stroke-opacity:1"/><text id="text1060" x="12.656" y="29.531" style="font-size:14.06249905px;font-family:sans-serif;text-anchor:end;fill:#000;stroke-width:1.40624988"><tspan id="tspan1058" x="63.75" y="48.516" style="stroke-width:1.40624988">↓</tspan></text><g id="g1082" transform="matrix(0.93749996,0,0,0.93749996,12.65625,59.062502)"><g id="g1080" transform="scale(1.5)"><path id="path1066" d="m 0.5,8.5 v -4 a 4,4 90 0 1 4,-4 h 4 v 2 h 10 v -2 h 30 4 a 4,4 90 0 1 4,4 v 4 h -4 v -3 h -4 v 10 h 4 v -3 h 4 v 21 17 h -4 v -3 h -4 v 10 h 4 v -3 h 4 v 4 a 4,4 90 0 1 -4,4 h -4 -30 -1 v 2 h -8 v -2 h -1 -4 a 4,4 90 0 1 -4,-4 v -4 -21 -21 z" style="fill:#7cd622;fill-opacity:1;stroke:#57ad02;stroke-width:1;stroke-linecap:round;stroke-opacity:1"/><text id="text1070" style="font-size:10px;font-family:sans-serif;text-anchor:end;fill:#000"><tspan id="tspan1068" x="46.333" y="34.5">pitch</tspan></text><text id="text1074" style="font-size:6.66666651px;font-family:sans-serif;text-anchor:end;fill:#000"><tspan id="tspan1072" x="46.333" y="11.25">name</tspan></text><text id="text1078" style="font-size:6.66666651px;font-family:sans-serif;text-anchor:end;fill:#000"><tspan id="tspan1076" x="46.333" y="53.25">octave</tspan></text></g></g><g id="g1092" transform="matrix(0.93749996,0,0,0.93749996,81.56249,118.125)"><g id="g1090" transform="scale(1.5)"><path id="path1084" d="m 8.5,0.5 h 60 v 20 h -60 v -8 -1 h -6 v 3 h -2 v -8 h 2 v 3 h 6 v -1 z" style="fill:#ff6ea1;fill-opacity:1;stroke:#ff2c76;stroke-width:1;stroke-linecap:round;stroke-opacity:1"/><text id="text1088" style="font-size:10px;font-family:sans-serif;text-anchor:start;fill:#000"><tspan id="tspan1086" x="13.333" y="13.833">4</tspan></text></g></g><g id="g1134" transform="matrix(0.93749996,0,0,0.93749996,81.56249,59.062502)"><g id="g1132" transform="scale(1.5)"><path id="path1118" d="m 8.5,8.5 v -4 a 4,4 90 0 1 4,-4 h 4 10 30 4 a 4,4 90 0 1 4,4 v 4 h -4 v -3 h -4 v 10 h 4 v -3 h 4 v 17 h -4 v -3 h -4 v 10 h 4 v -3 h 4 v 4 a 4,4 90 0 1 -4,4 h -4 -30 -10 -4 a 4,4 90 0 1 -4,-4 v -4 -21 -1 h -6 v 3 h -2 v -8 h 2 v 3 h 6 z" style="fill:#ff6ea1;fill-opacity:1;stroke:#ff2c76;stroke-width:1;stroke-linecap:round;stroke-opacity:1"/><text id="text1122" style="font-size:10px;font-family:sans-serif;text-anchor:end;fill:#000"><tspan id="tspan1120" x="54.333" y="23">one of</tspan></text><text id="text1126" style="font-size:6.66666651px;font-family:sans-serif;text-anchor:end;fill:#000"><tspan id="tspan1124" x="54.333" y="11.25">this</tspan></text><text id="text1130" style="font-size:6.66666651px;font-family:sans-serif;text-anchor:end;fill:#000"><tspan id="tspan1128" x="54.333" y="32.25">that</tspan></text></g></g><g id="g1144" transform="matrix(0.93749996,0,0,0.93749996,161.71874,59.062502)"><g id="g1142" transform="scale(1.5)"><path id="path1136" d="m 8.5,0.5 h 60 v 20 h -60 v -8 -1 h -6 v 3 h -2 v -8 h 2 v 3 h 6 v -1 z" style="fill:#7cd622;fill-opacity:1;stroke:#57ad02;stroke-width:1;stroke-linecap:round;stroke-opacity:1"/><text id="text1140" style="font-size:10px;font-family:sans-serif;text-anchor:start;fill:#000"><tspan id="tspan1138" x="13.333" y="13.833">do</tspan></text></g></g><g id="g1154" transform="matrix(0.93749996,0,0,0.93749996,161.71874,88.593752)"><g id="g1152" transform="scale(1.5)"><path id="path1146" d="m 8.5,0.5 h 60 v 20 h -60 v -8 -1 h -6 v 3 h -2 v -8 h 2 v 3 h 6 v -1 z" style="fill:#7cd622;fill-opacity:1;stroke:#57ad02;stroke-width:1;stroke-linecap:round;stroke-opacity:1"/><text id="text1150" style="font-size:10px;font-family:sans-serif;text-anchor:start;fill:#000"><tspan id="tspan1148" x="13.333" y="13.833">re</tspan></text></g></g><g id="g2134" transform="translate(674.69586,-44.7524)"><g id="g1106" transform="matrix(0.93749996,0,0,0.93749996,-674.69586,259.43989)"><g id="g1104" transform="scale(1.5)"><path style="fill:#ffbf00;fill-opacity:1;stroke:#daaf30;stroke-width:1;stroke-linecap:round;stroke-opacity:1" id="path1094" d="m 0.5,8.5 v -4 a 4,4 90 0 1 4,-4 h 4 v 2 h 10 v -2 h 30 4 a 4,4 90 0 1 4,4 v 4 h -4 v -3 h -4 v 10 h 4 v -3 h 4 v 4 a 4,4 90 0 1 -4,4 h -4 -30 -1 v 2 h -8 v -2 h -1 -4 a 4,4 90 0 1 -4,-4 v -4 z"/><text style="font-size:10px;font-family:sans-serif;text-anchor:end;fill:#000" id="text1098"><tspan id="tspan1096" x="46.333" y="13.5">do</tspan></text></g></g><g id="g1116" transform="matrix(0.93749996,0,0,0.93749996,-525.63337,288.97114)"><g id="g1114" transform="scale(1.5)"><path style="fill:#ff6648;fill-opacity:1;stroke:#ea4326;stroke-width:1;stroke-linecap:round;stroke-opacity:1" id="path1108" d="m 8.5,0.5 h 60 v 20 h -60 v -8 -1 h -6 v 3 h -2 v -8 h 2 v 3 h 6 v -1 z"/><text style="font-size:10px;font-family:sans-serif;text-anchor:start;fill:#000" id="text1112"><tspan id="tspan1110" x="13.333" y="13.833">chunk2</tspan></text></g></g><g id="g1172" transform="matrix(0.93749996,0,0,0.93749996,-605.78962,259.43989)"><g id="g1170" transform="scale(1.5)"><path style="fill:#ff6ea1;fill-opacity:1;stroke:#ff2c76;stroke-width:1;stroke-linecap:round;stroke-opacity:1" id="path1156" d="m 8.5,8.5 v -4 a 4,4 90 0 1 4,-4 h 4 10 30 4 a 4,4 90 0 1 4,4 v 4 h -4 v -3 h -4 v 10 h 4 v -3 h 4 v 17 h -4 v -3 h -4 v 10 h 4 v -3 h 4 v 4 a 4,4 90 0 1 -4,4 h -4 -30 -10 -4 a 4,4 90 0 1 -4,-4 v -4 -21 -1 h -6 v 3 h -2 v -8 h 2 v 3 h 6 z"/><text style="font-size:10px;font-family:sans-serif;text-anchor:end;fill:#000" id="text1160"><tspan id="tspan1158" x="54.333" y="23">one of</tspan></text><text style="font-size:6.66666651px;font-family:sans-serif;text-anchor:end;fill:#000" id="text1164"><tspan id="tspan1162" x="54.333" y="11.25">this</tspan></text><text style="font-size:6.66666651px;font-family:sans-serif;text-anchor:end;fill:#000" id="text1168"><tspan id="tspan1166" x="54.333" y="32.25">that</tspan></text></g></g><g id="g1182" transform="matrix(0.93749996,0,0,0.93749996,-525.63337,259.43989)"><g id="g1180" transform="scale(1.5)"><path style="fill:#ff6648;fill-opacity:1;stroke:#ea4326;stroke-width:1;stroke-linecap:round;stroke-opacity:1" id="path1174" d="m 8.5,0.5 h 60 v 20 h -60 v -8 -1 h -6 v 3 h -2 v -8 h 2 v 3 h 6 v -1 z"/><text style="font-size:10px;font-family:sans-serif;text-anchor:start;fill:#000" id="text1178"><tspan id="tspan1176" x="13.333" y="13.833">chunk1</tspan></text></g></g></g></svg>