<svg xmlns="http://www.w3.org/2000/svg" xmlns:svg="http://www.w3.org/2000/svg" id="svg4075" width="299.531" height="549.228" version="1.1" viewBox="0 0 299.531 549.228"><metadata id="metadata4080"/><g id="g939" transform="matrix(0.93749997,0,0,0.93749997,0,0.39519)"><g id="g937" transform="scale(1.5)"><path style="fill:#ffbf00;fill-opacity:1;stroke:#daaf30;stroke-width:1;stroke-linecap:round;stroke-opacity:1" id="path931" d="m 0.5,14.5 v -4 a 4,4 90 0 1 4,-4 h 4 l 5,-6 5,6 h 9 30 4 a 4,4 90 0 1 4,4 v 4 4 4 a 4,4 90 0 1 -4,4 h -4 -30 -1 v 2 h -8 v -2 h -1 -4 a 5,5 90 0 0 -5,5 v 4 4 315 4 a 5,5 90 0 0 5,5 h 4 v 2 h 10 v -2 h 8 v 6 6 4 a 4,4 90 0 1 -4,4 h -4 -9 l -5,6 -5,-6 h -4 a 4,4 90 0 1 -4,-4 v -4 z"/><text style="font-size:10px;font-family:sans-serif;text-anchor:start;fill:#000" id="text935"><tspan id="tspan933" x="5.333" y="21.5">start</tspan></text></g></g><g id="g2037" transform="matrix(0.93749997,0,0,0.93749997,12.6562,38.36394)"><g id="g2035" transform="scale(1.5)"><path style="fill:#e9a066;fill-opacity:1;stroke:#b7651a;stroke-width:1;stroke-linecap:round;stroke-opacity:1" id="path2029" d="m 0.5,8.5 v -4 a 4,4 90 0 1 4,-4 h 4 v 2 h 10 v -2 h 9 11.123047 4 a 4,4 90 0 1 4,4 v 4 4 4 a 4,4 90 0 1 -4,4 h -4 H 27.5 h -1 v 2 h -8 v -2 h -1 -4 a 5,5 90 0 0 -5,5 v 4 4 273 4 a 5,5 90 0 0 5,5 h 4 v 2 h 10 v -2 h 8 v 6 6 4 a 4,4 90 0 1 -4,4 h -4 -9 -1 v 2 h -8 v -2 h -1 -4 a 4,4 90 0 1 -4,-4 v -4 z"/><text style="font-size:10px;font-family:sans-serif;text-anchor:start;fill:#000" id="text2033"><tspan id="tspan2031" x="5.333" y="15.25">forever</tspan></text></g></g><g id="g2055" transform="matrix(0.93749997,0,0,0.93749997,25.3125,67.89519)"><g id="g2053" transform="scale(1.5)"><path style="fill:#fe994f;fill-opacity:1;stroke:#e8680e;stroke-width:1;stroke-linecap:round;stroke-opacity:1" id="path2039" d="m 0.5,8.5 v -4 a 4,4 90 0 1 4,-4 h 4 v 2 h 10 v -2 h 32.792969 4 a 4,4 90 0 1 4,4 v 4 h -4 v -3 h -4 v 10 h 4 v -3 h 4 v 17 h -4 v -3 h -4 v 10 h 4 v -3 h 4 v 4 a 4,4 90 0 1 -4,4 h -4 H 18.5 h -1 v 2 h -8 v -2 h -1 -4 a 4,4 90 0 1 -4,-4 v -4 -21 z"/><text style="font-size:10px;font-family:sans-serif;text-anchor:end;fill:#000" id="text2043"><tspan id="tspan2041" x="49.126" y="24">store in</tspan></text><text style="font-size:6.66666651px;font-family:sans-serif;text-anchor:end;fill:#000" id="text2047"><tspan id="tspan2045" x="49.126" y="11.25">name</tspan></text><text style="font-size:6.66666651px;font-family:sans-serif;text-anchor:end;fill:#000" id="text2051"><tspan id="tspan2049" x="49.126" y="32.25">value</tspan></text></g></g><g id="g2065" transform="matrix(0.93749997,0,0,0.93749997,98.1463,67.89519)"><g id="g2063" transform="scale(1.5)"><path style="fill:#ff6648;fill-opacity:1;stroke:#ea4326;stroke-width:1;stroke-linecap:round;stroke-opacity:1" id="path2057" d="m 8.5,0.5 h 60 v 20 h -60 v -8 -1 h -6 v 3 h -2 v -8 h 2 v 3 h 6 v -1 z"/><text style="font-size:10px;font-family:sans-serif;text-anchor:start;fill:#000" id="text2061"><tspan id="tspan2059" x="13.333" y="13.833">box</tspan></text></g></g><g id="g2075" transform="matrix(0.93749997,0,0,0.93749997,98.1463,97.42644)"><g id="g2073" transform="scale(1.5)"><path style="fill:#ff6ea1;fill-opacity:1;stroke:#ff2c76;stroke-width:1;stroke-linecap:round;stroke-opacity:1" id="path2067" d="m 8.5,0.5 h 60 v 20 h -60 v -8 -1 h -6 v 3 h -2 v -8 h 2 v 3 h 6 v -1 z"/><text style="font-size:10px;font-family:sans-serif;text-anchor:start;fill:#000" id="text2071"><tspan id="tspan2069" x="13.333" y="13.833">0</tspan></text></g></g><g id="g2085" transform="matrix(0.93749997,0,0,0.93749997,125.1562,156.48894)"><g id="g2083" transform="scale(1.5)"><path style="fill:#ff6ea1;fill-opacity:1;stroke:#ff2c76;stroke-width:1;stroke-linecap:round;stroke-opacity:1" id="path2077" d="m 8.5,0.5 h 60 v 20 h -60 v -8 -1 h -6 v 3 h -2 v -8 h 2 v 3 h 6 v -1 z"/><text style="font-size:10px;font-family:sans-serif;text-anchor:start;fill:#000" id="text2081"><tspan id="tspan2079" x="13.333" y="13.833">0</tspan></text></g></g><g id="g2095" transform="matrix(0.93749997,0,0,0.93749997,125.1562,304.14519)"><g id="g2093" transform="scale(1.5)"><path style="fill:#ff6ea1;fill-opacity:1;stroke:#ff2c76;stroke-width:1;stroke-linecap:round;stroke-opacity:1" id="path2087" d="m 8.5,0.5 h 60 v 20 h -60 v -8 -1 h -6 v 3 h -2 v -8 h 2 v 3 h 6 v -1 z"/><text style="font-size:10px;font-family:sans-serif;text-anchor:start;fill:#000" id="text2091"><tspan id="tspan2089" x="13.333" y="13.833">0</tspan></text></g></g><g id="g2109" transform="matrix(0.93749997,0,0,0.93749997,25.3125,126.95769)"><g id="g2107" transform="scale(1.5)"><path style="fill:#e9a066;fill-opacity:1;stroke:#b7651a;stroke-width:1;stroke-linecap:round;stroke-opacity:1" id="path2097" d="m 0.5,8.5 v -4 a 4,4 90 0 1 4,-4 h 4 v 2 h 10 v -2 h 9 4 a 4,4 90 0 1 4,4 v 4 9 a 8,8 90 0 0 -8,8 8,8 90 0 0 8,8 v 4 a 4,4 90 0 1 -4,4 h -4 -1 v 2 h -8 v -2 h -1 -4 a 5,5 90 0 0 -5,5 v 4 4 21 4 a 5,5 90 0 0 5,5 h 4 v 2 h 10 v -2 h 8 v 6 6 4 a 4,4 90 0 1 -4,4 h -4 -9 -1 v 2 h -8 v -2 h -1 -4 a 4,4 90 0 1 -4,-4 v -4 z"/><text style="font-size:10px;font-family:sans-serif;text-anchor:start;fill:#000" id="text2101"><tspan id="tspan2099" x="5.333" y="18.583">if</tspan></text><text style="font-size:6.66666651px;font-family:sans-serif;text-anchor:end;fill:#000" id="text2105"><tspan id="tspan2103" x="30.667" y="37.833">then</tspan></text></g></g><g id="g2123" transform="matrix(0.93749997,0,0,0.93749997,25.3125,274.61394)"><g id="g2121" transform="scale(1.5)"><path style="fill:#e9a066;fill-opacity:1;stroke:#b7651a;stroke-width:1;stroke-linecap:round;stroke-opacity:1" id="path2111" d="m 0.5,8.5 v -4 a 4,4 90 0 1 4,-4 h 4 v 2 h 10 v -2 h 9 4 a 4,4 90 0 1 4,4 v 4 9 a 8,8 90 0 0 -8,8 8,8 90 0 0 8,8 v 4 a 4,4 90 0 1 -4,4 h -4 -1 v 2 h -8 v -2 h -1 -4 a 5,5 90 0 0 -5,5 v 4 4 21 4 a 5,5 90 0 0 5,5 h 4 v 2 h 10 v -2 h 8 v 6 6 4 a 4,4 90 0 1 -4,4 h -4 -9 -1 v 2 h -8 v -2 h -1 -4 a 4,4 90 0 1 -4,-4 v -4 z"/><text style="font-size:10px;font-family:sans-serif;text-anchor:start;fill:#000" id="text2115"><tspan id="tspan2113" x="5.333" y="18.583">if</tspan></text><text style="font-size:6.66666651px;font-family:sans-serif;text-anchor:end;fill:#000" id="text2119"><tspan id="tspan2117" x="30.667" y="37.833">then</tspan></text></g></g><g id="g2135" transform="matrix(0.93749997,0,0,0.93749997,64.6875,126.95769)"><g id="g2133" transform="scale(1.5)"><g id="g2127" transform="translate(0,-16)"><path style="fill:#d97df5;fill-opacity:1;stroke:#b653d3;stroke-width:1;stroke-linecap:round;stroke-opacity:1" id="path2125" d="m 0.5,41.5 a 7,7 90 0 1 7,-7 h 1 v -10 a 8,8 90 0 1 8,-8 h 34 v 8 h -4 v -3 h -4 v 10 h 4 v -3 h 4 v 17 h -4 v -3 h -4 v 10 h 4 v -3 h 4 v 8 h -30 -12 v -8 -1 h -1 a 7,7 90 0 1 -7,-7 z"/></g><text style="font-size:14px;font-family:sans-serif;text-anchor:end;fill:#000" id="text2131"><tspan id="tspan2129" x="37.667" y="25.667">&gt;</tspan></text></g></g><g id="g2147" transform="matrix(0.93749997,0,0,0.93749997,64.6875,274.61394)"><g id="g2145" transform="scale(1.5)"><g id="g2139" transform="translate(0,-16)"><path style="fill:#d97df5;fill-opacity:1;stroke:#b653d3;stroke-width:1;stroke-linecap:round;stroke-opacity:1" id="path2137" d="m 0.5,41.5 a 7,7 90 0 1 7,-7 h 1 v -10 a 8,8 90 0 1 8,-8 h 34 v 8 h -4 v -3 h -4 v 10 h 4 v -3 h 4 v 17 h -4 v -3 h -4 v 10 h 4 v -3 h 4 v 8 h -30 -12 v -8 -1 h -1 a 7,7 90 0 1 -7,-7 z"/></g><text style="font-size:14px;font-family:sans-serif;text-anchor:end;fill:#000" id="text2143"><tspan id="tspan2141" x="37.667" y="25.667">&gt;</tspan></text></g></g><g id="g2157" transform="matrix(0.93749997,0,0,0.93749997,125.1562,126.95769)"><g id="g2155" transform="scale(1.5)"><path style="fill:#ff664b;fill-opacity:1;stroke:#ea4326;stroke-width:1;stroke-linecap:round;stroke-opacity:1" id="path2149" d="m 8.5,0.5 h 90.561523 v 20 H 8.5 v -8 -1 h -6 v 3 h -2 v -8 h 2 v 3 h 6 v -1 z"/><text style="font-size:10px;font-family:sans-serif;text-anchor:start;fill:#000" id="text2153"><tspan id="tspan2151" x="13.333" y="13.833">cursor x</tspan></text></g></g><g id="g2167" transform="matrix(0.93749997,0,0,0.93749997,125.1562,274.61394)"><g id="g2165" transform="scale(1.5)"><path style="fill:#ff664b;fill-opacity:1;stroke:#ea4326;stroke-width:1;stroke-linecap:round;stroke-opacity:1" id="path2159" d="m 8.5,0.5 h 90.561523 v 20 H 8.5 v -8 -1 h -6 v 3 h -2 v -8 h 2 v 3 h 6 v -1 z"/><text style="font-size:10px;font-family:sans-serif;text-anchor:start;fill:#000" id="text2163"><tspan id="tspan2161" x="13.333" y="13.833">cursor y</tspan></text></g></g><g id="g2185" transform="matrix(0.93749997,0,0,0.93749997,37.9687,186.02019)"><g id="g2183" transform="scale(1.5)"><path style="fill:#fe994f;fill-opacity:1;stroke:#e8680e;stroke-width:1;stroke-linecap:round;stroke-opacity:1" id="path2169" d="m 0.5,8.5 v -4 a 4,4 90 0 1 4,-4 h 4 v 2 h 10 v -2 h 30 4 a 4,4 90 0 1 4,4 v 4 h -4 v -3 h -4 v 10 h 4 v -3 h 4 v 17 h -4 v -3 h -4 v 10 h 4 v -3 h 4 v 4 a 4,4 90 0 1 -4,4 h -4 -30 -1 v 2 h -8 v -2 h -1 -4 a 4,4 90 0 1 -4,-4 v -4 -21 z"/><text style="font-size:10px;font-family:sans-serif;text-anchor:end;fill:#000" id="text2173"><tspan id="tspan2171" x="46.333" y="24">add</tspan></text><text style="font-size:6.66666651px;font-family:sans-serif;text-anchor:end;fill:#000" id="text2177"><tspan id="tspan2175" x="46.333" y="11.25">to</tspan></text><text style="font-size:6.66666651px;font-family:sans-serif;text-anchor:end;fill:#000" id="text2181"><tspan id="tspan2179" x="46.333" y="32.25">value</tspan></text></g></g><g id="g2203" transform="matrix(0.93749997,0,0,0.93749997,37.9687,333.67643)"><g id="g2201" transform="scale(1.5)"><path style="fill:#fe994f;fill-opacity:1;stroke:#e8680e;stroke-width:1;stroke-linecap:round;stroke-opacity:1" id="path2187" d="m 0.5,8.5 v -4 a 4,4 90 0 1 4,-4 h 4 v 2 h 10 v -2 h 30 4 a 4,4 90 0 1 4,4 v 4 h -4 v -3 h -4 v 10 h 4 v -3 h 4 v 17 h -4 v -3 h -4 v 10 h 4 v -3 h 4 v 4 a 4,4 90 0 1 -4,4 h -4 -30 -1 v 2 h -8 v -2 h -1 -4 a 4,4 90 0 1 -4,-4 v -4 -21 z"/><text style="font-size:10px;font-family:sans-serif;text-anchor:end;fill:#000" id="text2191"><tspan id="tspan2189" x="46.333" y="24">add</tspan></text><text style="font-size:6.66666651px;font-family:sans-serif;text-anchor:end;fill:#000" id="text2195"><tspan id="tspan2193" x="46.333" y="11.25">to</tspan></text><text style="font-size:6.66666651px;font-family:sans-serif;text-anchor:end;fill:#000" id="text2199"><tspan id="tspan2197" x="46.333" y="32.25">value</tspan></text></g></g><g id="g2213" transform="matrix(0.93749997,0,0,0.93749997,106.875,186.02019)"><g id="g2211" transform="scale(1.5)"><path style="fill:#fe994f;fill-opacity:1;stroke:#e8680e;stroke-width:1;stroke-linecap:round;stroke-opacity:1" id="path2205" d="m 8.5,0.5 h 80 v 20 h -80 v -8 -1 h -6 v 3 h -2 v -8 h 2 v 3 h 6 v -1 z"/><text style="font-size:10px;font-family:sans-serif;text-anchor:start;fill:#000" id="text2209"><tspan id="tspan2207" x="13.333" y="13.833">box</tspan></text></g></g><g id="g2223" transform="matrix(0.93749997,0,0,0.93749997,106.875,333.67643)"><g id="g2221" transform="scale(1.5)"><path style="fill:#fe994f;fill-opacity:1;stroke:#e8680e;stroke-width:1;stroke-linecap:round;stroke-opacity:1" id="path2215" d="m 8.5,0.5 h 80 v 20 h -80 v -8 -1 h -6 v 3 h -2 v -8 h 2 v 3 h 6 v -1 z"/><text style="font-size:10px;font-family:sans-serif;text-anchor:start;fill:#000" id="text2219"><tspan id="tspan2217" x="13.333" y="13.833">box</tspan></text></g></g><g id="g2233" transform="matrix(0.93749997,0,0,0.93749997,106.875,215.55144)"><g id="g2231" transform="scale(1.5)"><path style="fill:#ff6ea1;fill-opacity:1;stroke:#ff2c76;stroke-width:1;stroke-linecap:round;stroke-opacity:1" id="path2225" d="m 8.5,0.5 h 60 v 20 h -60 v -8 -1 h -6 v 3 h -2 v -8 h 2 v 3 h 6 v -1 z"/><text style="font-size:10px;font-family:sans-serif;text-anchor:start;fill:#000" id="text2229"><tspan id="tspan2227" x="13.333" y="13.833">1</tspan></text></g></g><g id="g2243" transform="matrix(0.93749997,0,0,0.93749997,106.875,363.20768)"><g id="g2241" transform="scale(1.5)"><path style="fill:#ff6ea1;fill-opacity:1;stroke:#ff2c76;stroke-width:1;stroke-linecap:round;stroke-opacity:1" id="path2235" d="m 8.5,0.5 h 60 v 20 h -60 v -8 -1 h -6 v 3 h -2 v -8 h 2 v 3 h 6 v -1 z"/><text style="font-size:10px;font-family:sans-serif;text-anchor:start;fill:#000" id="text2239"><tspan id="tspan2237" x="13.333" y="13.833">2</tspan></text></g></g><g id="g2261" transform="matrix(0.93749997,0,0,0.93749997,94.2187,422.27018)"><g id="g2259" transform="scale(1.5)"><path style="fill:#ff6ea1;fill-opacity:1;stroke:#ff2c76;stroke-width:1;stroke-linecap:round;stroke-opacity:1" id="path2245" d="m 8.5,8.5 v -4 a 4,4 90 0 1 4,-4 h 4 10 30 4 a 4,4 90 0 1 4,4 v 4 h -4 v -3 h -4 v 10 h 4 v -3 h 4 v 17 h -4 v -3 h -4 v 10 h 4 v -3 h 4 v 4 a 4,4 90 0 1 -4,4 h -4 -30 -10 -4 a 4,4 90 0 1 -4,-4 v -4 -21 -1 h -6 v 3 h -2 v -8 h 2 v 3 h 6 z"/><text style="font-size:14px;font-family:sans-serif;text-anchor:end;fill:#000" id="text2249"><tspan id="tspan2247" x="54.333" y="23.8">+</tspan></text></g></g><g id="g2271" transform="matrix(0.93749997,0,0,0.93749997,174.375,422.27018)"><g id="g2269" transform="scale(1.5)"><path style="fill:#ff6648;fill-opacity:1;stroke:#ea4326;stroke-width:1;stroke-linecap:round;stroke-opacity:1" id="path2263" d="m 8.5,0.5 h 60 v 20 h -60 v -8 -1 h -6 v 3 h -2 v -8 h 2 v 3 h 6 v -1 z"/><text style="font-size:10px;font-family:sans-serif;text-anchor:start;fill:#000" id="text2267"><tspan id="tspan2265" x="13.333" y="13.833">chunk</tspan></text></g></g><g id="g2281" transform="matrix(0.93749997,0,0,0.93749997,174.375,451.80143)"><g id="g2279" transform="scale(1.5)"><path style="fill:#fe994f;fill-opacity:1;stroke:#e8680e;stroke-width:1;stroke-linecap:round;stroke-opacity:1" id="path2273" d="m 8.5,0.5 h 80 v 20 h -80 v -8 -1 h -6 v 3 h -2 v -8 h 2 v 3 h 6 v -1 z"/><text style="font-size:10px;font-family:sans-serif;text-anchor:start;fill:#000" id="text2277"><tspan id="tspan2275" x="13.333" y="13.833">box</tspan></text></g></g><g id="g2295" transform="matrix(0.93749997,0,0,0.93749997,25.3125,422.27018)"><g id="g2293" transform="scale(1.5)"><path style="fill:#ffbf00;fill-opacity:1;stroke:#daaf30;stroke-width:1;stroke-linecap:round;stroke-opacity:1" id="path2283" d="m 0.5,8.5 v -4 a 4,4 90 0 1 4,-4 h 4 v 2 h 10 v -2 h 30 4 a 4,4 90 0 1 4,4 v 4 h -4 v -3 h -4 v 10 h 4 v -3 h 4 v 4 a 4,4 90 0 1 -4,4 h -4 -30 -1 v 2 h -8 v -2 h -1 -4 a 4,4 90 0 1 -4,-4 v -4 z"/><text style="font-size:10px;font-family:sans-serif;text-anchor:end;fill:#000" id="text2287"><tspan id="tspan2285" x="46.333" y="13.5">do</tspan></text></g></g><path style="fill:#c4c4c4;fill-opacity:1;stroke:#a0a0a0;stroke-width:1.40625;stroke-linecap:round;stroke-opacity:1" id="path2297" d="m 26.015625,463.75455 v -5.625 a 5.625,5.625 0 0 1 5.625,-5.625 h 5.625 v 2.8125 h 14.0625 v -2.8125 h 28.125 5.625 a 5.625,5.625 0 0 1 5.625,5.625 v 5.625 5.625 5.625 a 5.625,5.625 0 0 1 -5.625,5.625 h -5.625 -28.125 -1.40625 v 2.8125 h -11.25 v -2.8125 h -1.40625 -5.625 a 5.625,5.625 0 0 1 -5.625,-5.625 v -5.625 z"/><text style="font-size:14.0625px;font-family:sans-serif;text-anchor:end;fill:#000;stroke-width:1.40625" id="text2301" x="25.313" y="451.801"><tspan id="tspan2299" x="76.406" y="470.786" style="stroke-width:1.40625">↓</tspan></text></svg>