<svg xmlns="http://www.w3.org/2000/svg" xmlns:svg="http://www.w3.org/2000/svg" id="svg8" width="191.5" height="711.843" version="1.1" viewBox="0 0 50.668 188.342"><metadata id="metadata5"/><g id="layer1" transform="translate(-118.2971,-75.829091)"><g id="layer1-4" transform="translate(9.7517842,-1.1528295)"><path style="fill:#7cd622;fill-opacity:1;stroke:#57ad02;stroke-width:.39687499;stroke-linecap:round;stroke-opacity:1" id="path863" d="m 108.74375,82.84814 v -1.5875 c 0,-0.876752 0.71075,-1.587499 1.5875,-1.587499 h 1.5875 l 1.98437,-2.381251 1.98438,2.381251 h 3.57187 26.86432 1.5875 c 0.87675,0 1.5875,0.710747 1.5875,1.587499 v 1.5875 1.5875 1.5875 c 0,0.876752 -0.71075,1.5875 -1.5875,1.5875 h -1.5875 -26.86432 -0.39687 v 0.79375 h -3.175 v -0.79375 h -0.39688 -1.5875 c -1.09594,3e-6 -1.98437,0.888437 -1.98437,1.984375 v 1.5875 1.5875 158.353125 1.5875 c 0,1.09594 0.88843,1.98438 1.98437,1.98438 h 1.5875 v 0.79375 h 3.96875 v -0.79375 h 3.175 v 2.38125 2.38125 1.5875 c 0,0.87675 -0.71075,1.5875 -1.5875,1.5875 h -1.5875 -3.57187 l -1.98438,2.38125 -1.98437,-2.38125 h -1.5875 c -0.87675,0 -1.5875,-0.71075 -1.5875,-1.5875 v -1.5875 z"/><text style="font-size:3.96875px;font-family:sans-serif;text-anchor:start;fill:#282828;stroke-width:.39687499" id="text867" x="108.545" y="77.093"><tspan style="stroke-width:.39687499" id="tspan865" x="116.483" y="85.825">music keyboard</tspan></text><g id="g889" transform="matrix(0.13229166,0,0,0.13229166,109.71704,80.523587)"><g style="isolation:isolate" id="g887"><g id="g885" data-name="レイヤー 2"><g id="g883"><rect style="opacity:.4;mix-blend-mode:multiply;fill:#292929" id="rect873" width="42" height="42" x="0" y="0" rx="5" ry="5"/><path style="fill:#fff" id="path875" d="m 30.56,29.8 -4.17,-4.16 h 2.26 a 1.035,1.035 0 1 0 0,-2.07 h -4.71 a 1.08,1.08 0 0 0 -1.11,1 v 0 c 0,0 0,0 0,0.06 v 4.64 0 a 1.04,1.04 0 1 0 2.08,0 v -2.19 l 4.19,4.19 a 1,1 0 0 0 1.46,0 1,1 0 0 0 0,-1.47 z"/><path style="fill:#fff" id="path877" d="m 19.17,24.6 a 1.08,1.08 0 0 0 -1.11,-1 h -4.71 a 1.035,1.035 0 1 0 0,2.07 h 2.25 l -4.16,4.13 a 1.039447,1.039447 0 0 0 1.47,1.47 l 4.18,-4.19 v 2.26 a 1.04,1.04 0 1 0 2.08,0 V 24.7 c 0,0 0,0 0,-0.06 a 0.08,0.08 0 0 1 0,-0.04 z"/><path style="fill:#fff" id="path879" d="m 23.94,20.5 h 4.7 a 1.04,1.04 0 1 0 0,-2.08 h -2.25 l 4.17,-4.16 a 1,1 0 0 0 0,-1.47 1,1 0 0 0 -1.46,0 L 24.91,17 v -2.28 a 1.04,1.04 0 1 0 -2.08,0 v 4.64 a 0.43,0.43 0 0 0 0,0.05 v 0.05 a 1.09,1.09 0 0 0 1.11,1.04 z"/><path style="fill:#fff" id="path881" d="m 18.13,13.62 a 1.08,1.08 0 0 0 -1,1.09 V 17 l -4.18,-4.19 a 1,1 0 0 0 -1.47,0 1,1 0 0 0 0,1.46 l 4.16,4.17 h -2.29 a 1.04,1.04 0 1 0 0,2.08 h 4.71 a 1.09,1.09 0 0 0 1.11,-1 c 0,0 0,0 0,-0.06 v -4.75 a 1.07,1.07 0 0 0 -1.04,-1.09 z"/></g></g></g></g><g id="g909" transform="matrix(0.26458333,0,0,0.26458333,112.24948,87.94137)"><g id="g907" transform="scale(1.5)"><path id="path893" d="m 0.5,8.5 v -4 a 4,4 90 0 1 4,-4 h 4 v 2 h 10 v -2 h 30 4 a 4,4 90 0 1 4,4 v 4 h -4 v -3 h -4 v 10 h 4 v -3 h 4 v 17 h -4 v -3 h -4 v 10 h 4 v -3 h 4 v 4 a 4,4 90 0 1 -4,4 h -4 -30 -1 v 2 h -8 v -2 h -1 -4 a 4,4 90 0 1 -4,-4 v -4 -21 z" style="fill:#7cd622;fill-opacity:1;stroke:#57ad02;stroke-width:1;stroke-linecap:round;stroke-opacity:1"/><text id="text897" style="font-size:10px;font-family:sans-serif;text-anchor:end;fill:#282828"><tspan id="tspan895" x="46" y="24">pitch</tspan></text><text id="text901" style="font-size:6.66666651px;font-family:sans-serif;text-anchor:end;fill:#282828"><tspan id="tspan899" x="46" y="12">name</tspan></text><text id="text905" style="font-size:6.66666651px;font-family:sans-serif;text-anchor:end;fill:#282828"><tspan id="tspan903" x="46" y="33">octave</tspan></text></g></g><g id="g919" transform="matrix(0.26458333,0,0,0.26458333,131.82865,87.94137)"><g id="g917" transform="scale(1.5)"><path id="path911" d="m 8.5,0.5 h 60 v 20 h -60 v -8 -1 h -6 v 3 h -2 v -8 h 2 v 3 h 6 v -1 z" style="fill:#7cd622;fill-opacity:1;stroke:#57ad02;stroke-width:1;stroke-linecap:round;stroke-opacity:1"/><text id="text915" style="font-size:10px;font-family:sans-serif;text-anchor:start;fill:#282828"><tspan id="tspan913" x="13" y="14">sol</tspan></text></g></g><g id="g929" transform="matrix(0.26458333,0,0,0.26458333,131.82865,96.408037)"><g id="g927" transform="scale(1.5)"><path id="path921" d="m 8.5,0.5 h 60 v 20 h -60 v -8 -1 h -6 v 3 h -2 v -8 h 2 v 3 h 6 v -1 z" style="fill:#ff6ea1;fill-opacity:1;stroke:#ff2c76;stroke-width:1;stroke-linecap:round;stroke-opacity:1"/><text id="text925" style="font-size:10px;font-family:sans-serif;text-anchor:start;fill:#282828"><tspan id="tspan923" x="13" y="14">4</tspan></text></g></g><g id="g947" transform="matrix(0.26458333,0,0,0.26458333,112.24948,137.94762)"><g id="g945" transform="scale(1.5)"><path id="path931" d="m 0.5,8.5 v -4 a 4,4 90 0 1 4,-4 h 4 v 2 h 10 v -2 h 30 4 a 4,4 90 0 1 4,4 v 4 h -4 v -3 h -4 v 10 h 4 v -3 h 4 v 17 h -4 v -3 h -4 v 10 h 4 v -3 h 4 v 4 a 4,4 90 0 1 -4,4 h -4 -30 -1 v 2 h -8 v -2 h -1 -4 a 4,4 90 0 1 -4,-4 v -4 -21 z" style="fill:#7cd622;fill-opacity:1;stroke:#57ad02;stroke-width:1;stroke-linecap:round;stroke-opacity:1"/><text id="text935" style="font-size:10px;font-family:sans-serif;text-anchor:end;fill:#282828"><tspan id="tspan933" x="46" y="24">pitch</tspan></text><text id="text939" style="font-size:6.66666651px;font-family:sans-serif;text-anchor:end;fill:#282828"><tspan id="tspan937" x="46" y="12">name</tspan></text><text id="text943" style="font-size:6.66666651px;font-family:sans-serif;text-anchor:end;fill:#282828"><tspan id="tspan941" x="46" y="33">octave</tspan></text></g></g><g id="g957" transform="matrix(0.26458333,0,0,0.26458333,131.82865,137.94762)"><g id="g955" transform="scale(1.5)"><path id="path949" d="m 8.5,0.5 h 60 v 20 h -60 v -8 -1 h -6 v 3 h -2 v -8 h 2 v 3 h 6 v -1 z" style="fill:#7cd622;fill-opacity:1;stroke:#57ad02;stroke-width:1;stroke-linecap:round;stroke-opacity:1"/><text id="text953" style="font-size:10px;font-family:sans-serif;text-anchor:start;fill:#282828"><tspan id="tspan951" x="13" y="14">fa</tspan></text></g></g><g id="g967" transform="matrix(0.26458333,0,0,0.26458333,131.82865,146.41429)"><g id="g965" transform="scale(1.5)"><path id="path959" d="m 8.5,0.5 h 60 v 20 h -60 v -8 -1 h -6 v 3 h -2 v -8 h 2 v 3 h 6 v -1 z" style="fill:#ff6ea1;fill-opacity:1;stroke:#ff2c76;stroke-width:1;stroke-linecap:round;stroke-opacity:1"/><text id="text963" style="font-size:10px;font-family:sans-serif;text-anchor:start;fill:#282828"><tspan id="tspan961" x="13" y="14">4</tspan></text></g></g><g id="g985" transform="matrix(0.26458333,0,0,0.26458333,112.24948,154.61637)"><g id="g983" transform="scale(1.5)"><path id="path969" d="m 0.5,8.5 v -4 a 4,4 90 0 1 4,-4 h 4 v 2 h 10 v -2 h 30 4 a 4,4 90 0 1 4,4 v 4 h -4 v -3 h -4 v 10 h 4 v -3 h 4 v 17 h -4 v -3 h -4 v 10 h 4 v -3 h 4 v 4 a 4,4 90 0 1 -4,4 h -4 -30 -1 v 2 h -8 v -2 h -1 -4 a 4,4 90 0 1 -4,-4 v -4 -21 z" style="fill:#7cd622;fill-opacity:1;stroke:#57ad02;stroke-width:1;stroke-linecap:round;stroke-opacity:1"/><text id="text973" style="font-size:10px;font-family:sans-serif;text-anchor:end;fill:#282828"><tspan id="tspan971" x="46" y="24">pitch</tspan></text><text id="text977" style="font-size:6.66666651px;font-family:sans-serif;text-anchor:end;fill:#282828"><tspan id="tspan975" x="46" y="12">name</tspan></text><text id="text981" style="font-size:6.66666651px;font-family:sans-serif;text-anchor:end;fill:#282828"><tspan id="tspan979" x="46" y="33">octave</tspan></text></g></g><g id="g995" transform="matrix(0.26458333,0,0,0.26458333,131.82865,154.61637)"><g id="g993" transform="scale(1.5)"><path id="path987" d="m 8.5,0.5 h 60 v 20 h -60 v -8 -1 h -6 v 3 h -2 v -8 h 2 v 3 h 6 v -1 z" style="fill:#7cd622;fill-opacity:1;stroke:#57ad02;stroke-width:1;stroke-linecap:round;stroke-opacity:1"/><text id="text991" style="font-size:10px;font-family:sans-serif;text-anchor:start;fill:#282828"><tspan id="tspan989" x="13" y="14">mi</tspan></text></g></g><g id="g1005" transform="matrix(0.26458333,0,0,0.26458333,131.82865,163.08304)"><g id="g1003" transform="scale(1.5)"><path id="path997" d="m 8.5,0.5 h 60 v 20 h -60 v -8 -1 h -6 v 3 h -2 v -8 h 2 v 3 h 6 v -1 z" style="fill:#ff6ea1;fill-opacity:1;stroke:#ff2c76;stroke-width:1;stroke-linecap:round;stroke-opacity:1"/><text id="text1001" style="font-size:10px;font-family:sans-serif;text-anchor:start;fill:#282828"><tspan id="tspan999" x="13" y="14">4</tspan></text></g></g><g id="g1023" transform="matrix(0.26458333,0,0,0.26458333,112.24948,171.28512)"><g id="g1021" transform="scale(1.5)"><path id="path1007" d="m 0.5,8.5 v -4 a 4,4 90 0 1 4,-4 h 4 v 2 h 10 v -2 h 30 4 a 4,4 90 0 1 4,4 v 4 h -4 v -3 h -4 v 10 h 4 v -3 h 4 v 17 h -4 v -3 h -4 v 10 h 4 v -3 h 4 v 4 a 4,4 90 0 1 -4,4 h -4 -30 -1 v 2 h -8 v -2 h -1 -4 a 4,4 90 0 1 -4,-4 v -4 -21 z" style="fill:#7cd622;fill-opacity:1;stroke:#57ad02;stroke-width:1;stroke-linecap:round;stroke-opacity:1"/><text id="text1011" style="font-size:10px;font-family:sans-serif;text-anchor:end;fill:#282828"><tspan id="tspan1009" x="46" y="24">pitch</tspan></text><text id="text1015" style="font-size:6.66666651px;font-family:sans-serif;text-anchor:end;fill:#282828"><tspan id="tspan1013" x="46" y="12">name</tspan></text><text id="text1019" style="font-size:6.66666651px;font-family:sans-serif;text-anchor:end;fill:#282828"><tspan id="tspan1017" x="46" y="33">octave</tspan></text></g></g><g id="g1033" transform="matrix(0.26458333,0,0,0.26458333,131.82865,171.28512)"><g id="g1031" transform="scale(1.5)"><path id="path1025" d="m 8.5,0.5 h 60 v 20 h -60 v -8 -1 h -6 v 3 h -2 v -8 h 2 v 3 h 6 v -1 z" style="fill:#7cd622;fill-opacity:1;stroke:#57ad02;stroke-width:1;stroke-linecap:round;stroke-opacity:1"/><text id="text1029" style="font-size:10px;font-family:sans-serif;text-anchor:start;fill:#282828"><tspan id="tspan1027" x="13" y="14">re</tspan></text></g></g><g id="g1043" transform="matrix(0.26458333,0,0,0.26458333,131.82865,179.75179)"><g id="g1041" transform="scale(1.5)"><path id="path1035" d="m 8.5,0.5 h 60 v 20 h -60 v -8 -1 h -6 v 3 h -2 v -8 h 2 v 3 h 6 v -1 z" style="fill:#ff6ea1;fill-opacity:1;stroke:#ff2c76;stroke-width:1;stroke-linecap:round;stroke-opacity:1"/><text id="text1039" style="font-size:10px;font-family:sans-serif;text-anchor:start;fill:#282828"><tspan id="tspan1037" x="13" y="14">4</tspan></text></g></g><g id="g1061" transform="matrix(0.26458333,0,0,0.26458333,112.24948,204.62262)"><g id="g1059" transform="scale(1.5)"><path id="path1045" d="m 0.5,8.5 v -4 a 4,4 90 0 1 4,-4 h 4 v 2 h 10 v -2 h 30 4 a 4,4 90 0 1 4,4 v 4 h -4 v -3 h -4 v 10 h 4 v -3 h 4 v 17 h -4 v -3 h -4 v 10 h 4 v -3 h 4 v 4 a 4,4 90 0 1 -4,4 h -4 -30 -1 v 2 h -8 v -2 h -1 -4 a 4,4 90 0 1 -4,-4 v -4 -21 z" style="fill:#7cd622;fill-opacity:1;stroke:#57ad02;stroke-width:1;stroke-linecap:round;stroke-opacity:1"/><text id="text1049" style="font-size:10px;font-family:sans-serif;text-anchor:end;fill:#282828"><tspan id="tspan1047" x="46" y="24">pitch</tspan></text><text id="text1053" style="font-size:6.66666651px;font-family:sans-serif;text-anchor:end;fill:#282828"><tspan id="tspan1051" x="46" y="12">name</tspan></text><text id="text1057" style="font-size:6.66666651px;font-family:sans-serif;text-anchor:end;fill:#282828"><tspan id="tspan1055" x="46" y="33">octave</tspan></text></g></g><g id="g1071" transform="matrix(0.26458333,0,0,0.26458333,131.82865,204.62262)"><g id="g1069" transform="scale(1.5)"><path id="path1063" d="m 8.5,0.5 h 60 v 20 h -60 v -8 -1 h -6 v 3 h -2 v -8 h 2 v 3 h 6 v -1 z" style="fill:#7cd622;fill-opacity:1;stroke:#57ad02;stroke-width:1;stroke-linecap:round;stroke-opacity:1"/><text id="text1067" style="font-size:10px;font-family:sans-serif;text-anchor:start;fill:#282828"><tspan id="tspan1065" x="13" y="14">do</tspan></text></g></g><g id="g1081" transform="matrix(0.26458333,0,0,0.26458333,131.82865,213.08929)"><g id="g1079" transform="scale(1.5)"><path id="path1073" d="m 8.5,0.5 h 60 v 20 h -60 v -8 -1 h -6 v 3 h -2 v -8 h 2 v 3 h 6 v -1 z" style="fill:#ff6ea1;fill-opacity:1;stroke:#ff2c76;stroke-width:1;stroke-linecap:round;stroke-opacity:1"/><text id="text1077" style="font-size:10px;font-family:sans-serif;text-anchor:start;fill:#282828"><tspan id="tspan1075" x="13" y="14">4</tspan></text></g></g><g id="g1099" transform="matrix(0.26458333,0,0,0.26458333,112.24948,104.61012)"><g id="g1097" transform="scale(1.5)"><path id="path1083" d="m 0.5,8.5 v -4 a 4,4 90 0 1 4,-4 h 4 v 2 h 10 v -2 h 30 4 a 4,4 90 0 1 4,4 v 4 h -4 v -3 h -4 v 10 h 4 v -3 h 4 v 17 h -4 v -3 h -4 v 10 h 4 v -3 h 4 v 4 a 4,4 90 0 1 -4,4 h -4 -30 -1 v 2 h -8 v -2 h -1 -4 a 4,4 90 0 1 -4,-4 v -4 -21 z" style="fill:#7cd622;fill-opacity:1;stroke:#57ad02;stroke-width:1;stroke-linecap:round;stroke-opacity:1"/><text id="text1087" style="font-size:10px;font-family:sans-serif;text-anchor:end;fill:#282828"><tspan id="tspan1085" x="46" y="24">pitch</tspan></text><text id="text1091" style="font-size:6.66666651px;font-family:sans-serif;text-anchor:end;fill:#282828"><tspan id="tspan1089" x="46" y="12">name</tspan></text><text id="text1095" style="font-size:6.66666651px;font-family:sans-serif;text-anchor:end;fill:#282828"><tspan id="tspan1093" x="46" y="33">octave</tspan></text></g></g><g id="g1109" transform="matrix(0.26458333,0,0,0.26458333,131.82865,104.61012)"><g id="g1107" transform="scale(1.5)"><path id="path1101" d="m 8.5,0.5 h 60 v 20 h -60 v -8 -1 h -6 v 3 h -2 v -8 h 2 v 3 h 6 v -1 z" style="fill:#7cd622;fill-opacity:1;stroke:#57ad02;stroke-width:1;stroke-linecap:round;stroke-opacity:1"/><text id="text1105" style="font-size:10px;font-family:sans-serif;text-anchor:start;fill:#282828"><tspan id="tspan1103" x="13" y="14">do♯</tspan></text></g></g><g id="g1119" transform="matrix(0.26458333,0,0,0.26458333,131.82865,113.07679)"><g id="g1117" transform="scale(1.5)"><path id="path1111" d="m 8.5,0.5 h 60 v 20 h -60 v -8 -1 h -6 v 3 h -2 v -8 h 2 v 3 h 6 v -1 z" style="fill:#ff6ea1;fill-opacity:1;stroke:#ff2c76;stroke-width:1;stroke-linecap:round;stroke-opacity:1"/><text id="text1115" style="font-size:10px;font-family:sans-serif;text-anchor:start;fill:#282828"><tspan id="tspan1113" x="13" y="14">4</tspan></text></g></g><g id="g1137" transform="matrix(0.26458333,0,0,0.26458333,112.24948,121.27887)"><g id="g1135" transform="scale(1.5)"><path id="path1121" d="m 0.5,8.5 v -4 a 4,4 90 0 1 4,-4 h 4 v 2 h 10 v -2 h 30 4 a 4,4 90 0 1 4,4 v 4 h -4 v -3 h -4 v 10 h 4 v -3 h 4 v 17 h -4 v -3 h -4 v 10 h 4 v -3 h 4 v 4 a 4,4 90 0 1 -4,4 h -4 -30 -1 v 2 h -8 v -2 h -1 -4 a 4,4 90 0 1 -4,-4 v -4 -21 z" style="fill:#7cd622;fill-opacity:1;stroke:#57ad02;stroke-width:1;stroke-linecap:round;stroke-opacity:1"/><text id="text1125" style="font-size:10px;font-family:sans-serif;text-anchor:end;fill:#282828"><tspan id="tspan1123" x="46" y="24">pitch</tspan></text><text id="text1129" style="font-size:6.66666651px;font-family:sans-serif;text-anchor:end;fill:#282828"><tspan id="tspan1127" x="46" y="12">name</tspan></text><text id="text1133" style="font-size:6.66666651px;font-family:sans-serif;text-anchor:end;fill:#282828"><tspan id="tspan1131" x="46" y="33">octave</tspan></text></g></g><g id="g1147" transform="matrix(0.26458333,0,0,0.26458333,131.82865,121.27887)"><g id="g1145" transform="scale(1.5)"><path id="path1139" d="m 8.5,0.5 h 60 v 20 h -60 v -8 -1 h -6 v 3 h -2 v -8 h 2 v 3 h 6 v -1 z" style="fill:#7cd622;fill-opacity:1;stroke:#57ad02;stroke-width:1;stroke-linecap:round;stroke-opacity:1"/><text id="text1143" style="font-size:10px;font-family:sans-serif;text-anchor:start;fill:#282828"><tspan id="tspan1141" x="13" y="14">re♯</tspan></text></g></g><g id="g1157" transform="matrix(0.26458333,0,0,0.26458333,131.82865,129.74554)"><g id="g1155" transform="scale(1.5)"><path id="path1149" d="m 8.5,0.5 h 60 v 20 h -60 v -8 -1 h -6 v 3 h -2 v -8 h 2 v 3 h 6 v -1 z" style="fill:#ff6ea1;fill-opacity:1;stroke:#ff2c76;stroke-width:1;stroke-linecap:round;stroke-opacity:1"/><text id="text1153" style="font-size:10px;font-family:sans-serif;text-anchor:start;fill:#282828"><tspan id="tspan1151" x="13" y="14">4</tspan></text></g></g><g id="g1175" transform="matrix(0.26458333,0,0,0.26458333,112.24948,187.95387)"><g id="g1173" transform="scale(1.5)"><path id="path1159" d="m 0.5,8.5 v -4 a 4,4 90 0 1 4,-4 h 4 v 2 h 10 v -2 h 30 4 a 4,4 90 0 1 4,4 v 4 h -4 v -3 h -4 v 10 h 4 v -3 h 4 v 17 h -4 v -3 h -4 v 10 h 4 v -3 h 4 v 4 a 4,4 90 0 1 -4,4 h -4 -30 -1 v 2 h -8 v -2 h -1 -4 a 4,4 90 0 1 -4,-4 v -4 -21 z" style="fill:#7cd622;fill-opacity:1;stroke:#57ad02;stroke-width:1;stroke-linecap:round;stroke-opacity:1"/><text id="text1163" style="font-size:10px;font-family:sans-serif;text-anchor:end;fill:#282828"><tspan id="tspan1161" x="46" y="24">pitch</tspan></text><text id="text1167" style="font-size:6.66666651px;font-family:sans-serif;text-anchor:end;fill:#282828"><tspan id="tspan1165" x="46" y="12">name</tspan></text><text id="text1171" style="font-size:6.66666651px;font-family:sans-serif;text-anchor:end;fill:#282828"><tspan id="tspan1169" x="46" y="33">octave</tspan></text></g></g><g id="g1185" transform="matrix(0.26458333,0,0,0.26458333,131.82865,187.95387)"><g id="g1183" transform="scale(1.5)"><path id="path1177" d="m 8.5,0.5 h 60 v 20 h -60 v -8 -1 h -6 v 3 h -2 v -8 h 2 v 3 h 6 v -1 z" style="fill:#7cd622;fill-opacity:1;stroke:#57ad02;stroke-width:1;stroke-linecap:round;stroke-opacity:1"/><text id="text1181" style="font-size:10px;font-family:sans-serif;text-anchor:start;fill:#282828"><tspan id="tspan1179" x="13" y="14">fa♯</tspan></text></g></g><g id="g1195" transform="matrix(0.26458333,0,0,0.26458333,131.82865,196.42054)"><g id="g1193" transform="scale(1.5)"><path id="path1187" d="m 8.5,0.5 h 60 v 20 h -60 v -8 -1 h -6 v 3 h -2 v -8 h 2 v 3 h 6 v -1 z" style="fill:#ff6ea1;fill-opacity:1;stroke:#ff2c76;stroke-width:1;stroke-linecap:round;stroke-opacity:1"/><text id="text1191" style="font-size:10px;font-family:sans-serif;text-anchor:start;fill:#282828"><tspan id="tspan1189" x="13" y="14">4</tspan></text></g></g><g id="g1213" transform="matrix(0.26458333,0,0,0.26458333,112.24948,221.29137)"><g id="g1211" transform="scale(1.5)"><path id="path1197" d="m 0.5,8.5 v -4 a 4,4 90 0 1 4,-4 h 4 v 2 h 10 v -2 h 30 4 a 4,4 90 0 1 4,4 v 4 h -4 v -3 h -4 v 10 h 4 v -3 h 4 v 17 h -4 v -3 h -4 v 10 h 4 v -3 h 4 v 4 a 4,4 90 0 1 -4,4 h -4 -30 -1 v 2 h -8 v -2 h -1 -4 a 4,4 90 0 1 -4,-4 v -4 -21 z" style="fill:#7cd622;fill-opacity:1;stroke:#57ad02;stroke-width:1;stroke-linecap:round;stroke-opacity:1"/><text id="text1201" style="font-size:10px;font-family:sans-serif;text-anchor:end;fill:#282828"><tspan id="tspan1199" x="46" y="24">pitch</tspan></text><text id="text1205" style="font-size:6.66666651px;font-family:sans-serif;text-anchor:end;fill:#282828"><tspan id="tspan1203" x="46" y="12">name</tspan></text><text id="text1209" style="font-size:6.66666651px;font-family:sans-serif;text-anchor:end;fill:#282828"><tspan id="tspan1207" x="46" y="33">octave</tspan></text></g></g><g id="g1223" transform="matrix(0.26458333,0,0,0.26458333,131.82865,221.29137)"><g id="g1221" transform="scale(1.5)"><path id="path1215" d="m 8.5,0.5 h 60 v 20 h -60 v -8 -1 h -6 v 3 h -2 v -8 h 2 v 3 h 6 v -1 z" style="fill:#7cd622;fill-opacity:1;stroke:#57ad02;stroke-width:1;stroke-linecap:round;stroke-opacity:1"/><text id="text1219" style="font-size:10px;font-family:sans-serif;text-anchor:start;fill:#282828"><tspan id="tspan1217" x="13" y="14">sol♯</tspan></text></g></g><g id="g1233" transform="matrix(0.26458333,0,0,0.26458333,131.82865,229.75803)"><g id="g1231" transform="scale(1.5)"><path id="path1225" d="m 8.5,0.5 h 60 v 20 h -60 v -8 -1 h -6 v 3 h -2 v -8 h 2 v 3 h 6 v -1 z" style="fill:#ff6ea1;fill-opacity:1;stroke:#ff2c76;stroke-width:1;stroke-linecap:round;stroke-opacity:1"/><text id="text1229" style="font-size:10px;font-family:sans-serif;text-anchor:start;fill:#282828"><tspan id="tspan1227" x="13" y="14">4</tspan></text></g></g><g id="g1251" transform="matrix(0.26458333,0,0,0.26458333,112.24948,237.96012)"><g id="g1249" transform="scale(1.5)"><path id="path1235" d="m 0.5,8.5 v -4 a 4,4 90 0 1 4,-4 h 4 v 2 h 10 v -2 h 30 4 a 4,4 90 0 1 4,4 v 4 h -4 v -3 h -4 v 10 h 4 v -3 h 4 v 17 h -4 v -3 h -4 v 10 h 4 v -3 h 4 v 4 a 4,4 90 0 1 -4,4 h -4 -30 -1 v 2 h -8 v -2 h -1 -4 a 4,4 90 0 1 -4,-4 v -4 -21 z" style="fill:#7cd622;fill-opacity:1;stroke:#57ad02;stroke-width:1;stroke-linecap:round;stroke-opacity:1"/><text id="text1239" style="font-size:10px;font-family:sans-serif;text-anchor:end;fill:#282828"><tspan id="tspan1237" x="46" y="24">pitch</tspan></text><text id="text1243" style="font-size:6.66666651px;font-family:sans-serif;text-anchor:end;fill:#282828"><tspan id="tspan1241" x="46" y="12">name</tspan></text><text id="text1247" style="font-size:6.66666651px;font-family:sans-serif;text-anchor:end;fill:#282828"><tspan id="tspan1245" x="46" y="33">octave</tspan></text></g></g><g id="g1261" transform="matrix(0.26458333,0,0,0.26458333,131.82865,237.96012)"><g id="g1259" transform="scale(1.5)"><path id="path1253" d="m 8.5,0.5 h 60 v 20 h -60 v -8 -1 h -6 v 3 h -2 v -8 h 2 v 3 h 6 v -1 z" style="fill:#7cd622;fill-opacity:1;stroke:#57ad02;stroke-width:1;stroke-linecap:round;stroke-opacity:1"/><text id="text1257" style="font-size:10px;font-family:sans-serif;text-anchor:start;fill:#282828"><tspan id="tspan1255" x="13" y="14">ti</tspan></text></g></g><g id="g1271" transform="matrix(0.26458333,0,0,0.26458333,131.82865,246.42678)"><g id="g1269" transform="scale(1.5)"><path id="path1263" d="m 8.5,0.5 h 60 v 20 h -60 v -8 -1 h -6 v 3 h -2 v -8 h 2 v 3 h 6 v -1 z" style="fill:#ff6ea1;fill-opacity:1;stroke:#ff2c76;stroke-width:1;stroke-linecap:round;stroke-opacity:1"/><text id="text1267" style="font-size:10px;font-family:sans-serif;text-anchor:start;fill:#282828"><tspan id="tspan1265" x="13" y="14">4</tspan></text></g></g></g></g></svg>