<svg xmlns="http://www.w3.org/2000/svg" xmlns:svg="http://www.w3.org/2000/svg" id="svg3641" width="305.342" height="428.343" version="1.1"><metadata id="metadata3670"/><g id="g2059" transform="translate(13.5,229.92154)"><g id="g2057" transform="scale(1.5)"><path id="path2047" d="m 0.5,8.5 v -4 a 4,4 90 0 1 4,-4 h 4 v 2 h 10 v -2 h 9 40 4 a 4,4 90 0 1 4,4 v 4 h -4 v -3 h -4 v 10 h 4 v -3 h 4 v 4 a 4,4 90 0 1 -4,4 h -4 -40 -1 v 2 h -8 v -2 h -1 -4 a 5,5 90 0 0 -5,5 v 4 4 42 4 a 5,5 90 0 0 5,5 h 4 v 2 h 10 v -2 h 8 v 6 6 4 a 4,4 90 0 1 -4,4 h -4 -9 -1 v 2 h -8 v -2 h -1 -4 a 4,4 90 0 1 -4,-4 v -4 z" style="fill:#92a9ff;fill-opacity:1;stroke:#5370dc;stroke-width:1;stroke-linecap:round;stroke-opacity:1"/><text id="text2051" style="font-size:10px;font-family:sans-serif;text-anchor:start;fill:#000"><tspan id="tspan2049" x="5.333" y="15.25">tuplet</tspan></text><text id="text2055" style="font-size:6.66666651px;font-family:sans-serif;text-anchor:end;fill:#000"><tspan id="tspan2053" x="65.333" y="11.25">note value</tspan></text></g></g><g id="g2077" transform="translate(115.5,229.92154)"><g id="g2075" transform="scale(1.5)"><path id="path2061" d="m 8.5,8.5 v -4 a 4,4 90 0 1 4,-4 h 4 10 30 4 a 4,4 90 0 1 4,4 v 4 h -4 v -3 h -4 v 10 h 4 v -3 h 4 v 17 h -4 v -3 h -4 v 10 h 4 v -3 h 4 v 4 a 4,4 90 0 1 -4,4 h -4 -30 -10 -4 a 4,4 90 0 1 -4,-4 v -4 -21 -1 h -6 v 3 h -2 v -8 h 2 v 3 h 6 z" style="fill:#ff6ea1;fill-opacity:1;stroke:#ff2c76;stroke-width:1;stroke-linecap:round;stroke-opacity:1"/><text id="text2065" style="font-size:14px;font-family:sans-serif;text-anchor:end;fill:#000"><tspan id="tspan2063" x="54.333" y="23.8">/</tspan></text></g></g><g id="g2087" transform="translate(201,229.92154)"><g id="g2085" transform="scale(1.5)"><path id="path2079" d="m 8.5,0.5 h 60 v 20 h -60 v -8 -1 h -6 v 3 h -2 v -8 h 2 v 3 h 6 v -1 z" style="fill:#ff6ea1;fill-opacity:1;stroke:#ff2c76;stroke-width:1;stroke-linecap:round;stroke-opacity:1"/><text id="text2083" style="font-size:10px;font-family:sans-serif;text-anchor:start;fill:#000"><tspan id="tspan2081" x="13.333" y="13.833">1</tspan></text></g></g><g id="g2097" transform="translate(201,261.42154)"><g id="g2095" transform="scale(1.5)"><path id="path2089" d="m 8.5,0.5 h 60 v 20 h -60 v -8 -1 h -6 v 3 h -2 v -8 h 2 v 3 h 6 v -1 z" style="fill:#ff6ea1;fill-opacity:1;stroke:#ff2c76;stroke-width:1;stroke-linecap:round;stroke-opacity:1"/><text id="text2093" style="font-size:10px;font-family:sans-serif;text-anchor:start;fill:#000"><tspan id="tspan2091" x="13.333" y="13.833">4</tspan></text></g></g><path id="path2099" d="m 27.75,274.17154 v -6 a 6,6 0 0 1 6,-6 h 6 v 3 h 15 v -3 h 30 6 a 6,6 0 0 1 6,6 v 6 6 6 a 6,6 0 0 1 -6,6 h -6 -30 -1.5 v 3 h -12 v -3 h -1.5 -6 a 6,6 0 0 1 -6,-6 v -6 z" style="fill:#c4c4c4;fill-opacity:1;stroke:#a0a0a0;stroke-width:1.5;stroke-linecap:round;stroke-opacity:1"/><text id="text2103" x="27" y="261.422" style="font-size:15px;font-family:sans-serif;text-anchor:end;fill:#000;stroke-width:1.5"><tspan id="tspan2101" x="81.5" y="281.672" style="stroke-width:1.5">↓</tspan></text><g id="g2125" transform="translate(27,292.92154)"><g id="g2123" transform="scale(1.5)"><path id="path2109" d="m 0.5,8.5 v -4 a 4,4 90 0 1 4,-4 h 4 v 2 h 10 v -2 h 40.561523 4 a 4,4 90 0 1 4,4 v 4 h -4 v -3 h -4 v 10 h 4 v -3 h 4 v 17 h -4 v -3 h -4 v 10 h 4 v -3 h 4 v 4 a 4,4 90 0 1 -4,4 h -4 H 18.5 h -1 v 2 h -8 v -2 h -1 -4 a 4,4 90 0 1 -4,-4 v -4 -21 z" style="fill:#92a9ff;fill-opacity:1;stroke:#5370dc;stroke-width:1;stroke-linecap:round;stroke-opacity:1"/><text id="text2113" style="font-size:10px;font-family:sans-serif;text-anchor:end;fill:#000"><tspan id="tspan2111" x="56.895" y="24">rhythm</tspan></text><text id="text2117" style="font-size:6.66666651px;font-family:sans-serif;text-anchor:end;fill:#000"><tspan id="tspan2115" x="56.895" y="11.25">number of notes</tspan></text><text id="text2121" style="font-size:6.66666651px;font-family:sans-serif;text-anchor:end;fill:#000"><tspan id="tspan2119" x="56.895" y="32.25">note value</tspan></text></g></g><g id="g2135" transform="translate(116.34229,292.92154)"><g id="g2133" transform="scale(1.5)"><path id="path2127" d="m 8.5,0.5 h 60 v 20 h -60 v -8 -1 h -6 v 3 h -2 v -8 h 2 v 3 h 6 v -1 z" style="fill:#ff6ea1;fill-opacity:1;stroke:#ff2c76;stroke-width:1;stroke-linecap:round;stroke-opacity:1"/><text id="text2131" style="font-size:10px;font-family:sans-serif;text-anchor:start;fill:#000"><tspan id="tspan2129" x="13.333" y="13.833">3</tspan></text></g></g><g id="g2153" transform="translate(116.34229,324.42154)"><g id="g2151" transform="scale(1.5)"><path id="path2137" d="m 8.5,8.5 v -4 a 4,4 90 0 1 4,-4 h 4 10 30 4 a 4,4 90 0 1 4,4 v 4 h -4 v -3 h -4 v 10 h 4 v -3 h 4 v 17 h -4 v -3 h -4 v 10 h 4 v -3 h 4 v 4 a 4,4 90 0 1 -4,4 h -4 -30 -10 -4 a 4,4 90 0 1 -4,-4 v -4 -21 -1 h -6 v 3 h -2 v -8 h 2 v 3 h 6 z" style="fill:#ff6ea1;fill-opacity:1;stroke:#ff2c76;stroke-width:1;stroke-linecap:round;stroke-opacity:1"/><text id="text2141" style="font-size:14px;font-family:sans-serif;text-anchor:end;fill:#000"><tspan id="tspan2139" x="54.333" y="23.8">/</tspan></text></g></g><g id="g2163" transform="translate(201.84229,324.42154)"><g id="g2161" transform="scale(1.5)"><path id="path2155" d="m 8.5,0.5 h 60 v 20 h -60 v -8 -1 h -6 v 3 h -2 v -8 h 2 v 3 h 6 v -1 z" style="fill:#ff6ea1;fill-opacity:1;stroke:#ff2c76;stroke-width:1;stroke-linecap:round;stroke-opacity:1"/><text id="text2159" style="font-size:10px;font-family:sans-serif;text-anchor:start;fill:#000"><tspan id="tspan2157" x="13.333" y="13.833">1</tspan></text></g></g><g id="g2173" transform="translate(201.84229,355.92154)"><g id="g2171" transform="scale(1.5)"><path id="path2165" d="m 8.5,0.5 h 60 v 20 h -60 v -8 -1 h -6 v 3 h -2 v -8 h 2 v 3 h 6 v -1 z" style="fill:#ff6ea1;fill-opacity:1;stroke:#ff2c76;stroke-width:1;stroke-linecap:round;stroke-opacity:1"/><text id="text2169" style="font-size:10px;font-family:sans-serif;text-anchor:start;fill:#000"><tspan id="tspan2167" x="13.333" y="13.833">16</tspan></text></g></g><path id="path2175" d="m 0.75,22.17154 v -6 a 6,6 0 0 1 6,-6 h 6 l 7.5,-9 7.5,9 h 13.5 95.01709 6 a 6,6 0 0 1 6,6 v 6 6 6 a 6,6 0 0 1 -6,6 h -6 H 41.25 39.75 v 3 h -12 v -3 h -1.5 -6 a 7.5,7.5 0 0 0 -7.5,7.5 v 6 6 315 6 a 7.5,7.5 0 0 0 7.5,7.5 h 6 v 3 h 15 v -3 h 12 v 9 9 6 a 6,6 0 0 1 -6,6 h -6 -13.5 l -7.5,9 -7.5,-9 h -6 a 6,6 0 0 1 -6,-6 v -6 z" style="fill:#7cd622;fill-opacity:1;stroke:#57ad02;stroke-width:1.5;stroke-linecap:round;stroke-opacity:1"/><text id="text2179" y=".422" style="font-size:15px;font-family:sans-serif;text-anchor:start;fill:#000;stroke-width:1.5"><tspan id="tspan2177" x="8" y="32.672" style="stroke-width:1.5">phrase maker</tspan></text><g id="g2201" transform="translate(13.5,40.92154)"><g id="g2199" transform="scale(1.5)"><path id="path2185" d="m 0.5,8.5 v -4 a 4,4 90 0 1 4,-4 h 4 v 2 h 10 v -2 h 30 4 a 4,4 90 0 1 4,4 v 4 h -4 v -3 h -4 v 10 h 4 v -3 h 4 v 17 h -4 v -3 h -4 v 10 h 4 v -3 h 4 v 4 a 4,4 90 0 1 -4,4 h -4 -30 -1 v 2 h -8 v -2 h -1 -4 a 4,4 90 0 1 -4,-4 v -4 -21 z" style="fill:#7cd622;fill-opacity:1;stroke:#57ad02;stroke-width:1;stroke-linecap:round;stroke-opacity:1"/><text id="text2189" style="font-size:10px;font-family:sans-serif;text-anchor:end;fill:#000"><tspan id="tspan2187" x="46.333" y="24">pitch</tspan></text><text id="text2193" style="font-size:6.66666651px;font-family:sans-serif;text-anchor:end;fill:#000"><tspan id="tspan2191" x="46.333" y="11.25">name</tspan></text><text id="text2197" style="font-size:6.66666651px;font-family:sans-serif;text-anchor:end;fill:#000"><tspan id="tspan2195" x="46.333" y="32.25">octave</tspan></text></g></g><g id="g2211" transform="translate(87,40.92154)"><g id="g2209" transform="scale(1.5)"><path id="path2203" d="m 8.5,0.5 h 60 v 20 h -60 v -8 -1 h -6 v 3 h -2 v -8 h 2 v 3 h 6 v -1 z" style="fill:#7cd622;fill-opacity:1;stroke:#57ad02;stroke-width:1;stroke-linecap:round;stroke-opacity:1"/><text id="text2207" style="font-size:10px;font-family:sans-serif;text-anchor:start;fill:#000"><tspan id="tspan2205" x="13.333" y="13.833">sol</tspan></text></g></g><g id="g2221" transform="translate(87,72.42154)"><g id="g2219" transform="scale(1.5)"><path id="path2213" d="m 8.5,0.5 h 60 v 20 h -60 v -8 -1 h -6 v 3 h -2 v -8 h 2 v 3 h 6 v -1 z" style="fill:#ff6ea1;fill-opacity:1;stroke:#ff2c76;stroke-width:1;stroke-linecap:round;stroke-opacity:1"/><text id="text2217" style="font-size:10px;font-family:sans-serif;text-anchor:start;fill:#000"><tspan id="tspan2215" x="13.333" y="13.833">4</tspan></text></g></g><g id="g2239" transform="translate(13.5,103.92154)"><g id="g2237" transform="scale(1.5)"><path id="path2223" d="m 0.5,8.5 v -4 a 4,4 90 0 1 4,-4 h 4 v 2 h 10 v -2 h 30 4 a 4,4 90 0 1 4,4 v 4 h -4 v -3 h -4 v 10 h 4 v -3 h 4 v 17 h -4 v -3 h -4 v 10 h 4 v -3 h 4 v 4 a 4,4 90 0 1 -4,4 h -4 -30 -1 v 2 h -8 v -2 h -1 -4 a 4,4 90 0 1 -4,-4 v -4 -21 z" style="fill:#7cd622;fill-opacity:1;stroke:#57ad02;stroke-width:1;stroke-linecap:round;stroke-opacity:1"/><text id="text2227" style="font-size:10px;font-family:sans-serif;text-anchor:end;fill:#000"><tspan id="tspan2225" x="46.333" y="24">pitch</tspan></text><text id="text2231" style="font-size:6.66666651px;font-family:sans-serif;text-anchor:end;fill:#000"><tspan id="tspan2229" x="46.333" y="11.25">name</tspan></text><text id="text2235" style="font-size:6.66666651px;font-family:sans-serif;text-anchor:end;fill:#000"><tspan id="tspan2233" x="46.333" y="32.25">octave</tspan></text></g></g><g id="g2249" transform="translate(87,103.92154)"><g id="g2247" transform="scale(1.5)"><path id="path2241" d="m 8.5,0.5 h 60 v 20 h -60 v -8 -1 h -6 v 3 h -2 v -8 h 2 v 3 h 6 v -1 z" style="fill:#7cd622;fill-opacity:1;stroke:#57ad02;stroke-width:1;stroke-linecap:round;stroke-opacity:1"/><text id="text2245" style="font-size:10px;font-family:sans-serif;text-anchor:start;fill:#000"><tspan id="tspan2243" x="13.333" y="13.833">mi</tspan></text></g></g><g id="g2259" transform="translate(87,135.42154)"><g id="g2257" transform="scale(1.5)"><path id="path2251" d="m 8.5,0.5 h 60 v 20 h -60 v -8 -1 h -6 v 3 h -2 v -8 h 2 v 3 h 6 v -1 z" style="fill:#ff6ea1;fill-opacity:1;stroke:#ff2c76;stroke-width:1;stroke-linecap:round;stroke-opacity:1"/><text id="text2255" style="font-size:10px;font-family:sans-serif;text-anchor:start;fill:#000"><tspan id="tspan2253" x="13.333" y="13.833">4</tspan></text></g></g><g id="g2277" transform="translate(13.5,166.92154)"><g id="g2275" transform="scale(1.5)"><path id="path2261" d="m 0.5,8.5 v -4 a 4,4 90 0 1 4,-4 h 4 v 2 h 10 v -2 h 30 4 a 4,4 90 0 1 4,4 v 4 h -4 v -3 h -4 v 10 h 4 v -3 h 4 v 17 h -4 v -3 h -4 v 10 h 4 v -3 h 4 v 4 a 4,4 90 0 1 -4,4 h -4 -30 -1 v 2 h -8 v -2 h -1 -4 a 4,4 90 0 1 -4,-4 v -4 -21 z" style="fill:#7cd622;fill-opacity:1;stroke:#57ad02;stroke-width:1;stroke-linecap:round;stroke-opacity:1"/><text id="text2265" style="font-size:10px;font-family:sans-serif;text-anchor:end;fill:#000"><tspan id="tspan2263" x="46.333" y="24">pitch</tspan></text><text id="text2269" style="font-size:6.66666651px;font-family:sans-serif;text-anchor:end;fill:#000"><tspan id="tspan2267" x="46.333" y="11.25">name</tspan></text><text id="text2273" style="font-size:6.66666651px;font-family:sans-serif;text-anchor:end;fill:#000"><tspan id="tspan2271" x="46.333" y="32.25">octave</tspan></text></g></g><g id="g2287" transform="translate(87,166.92154)"><g id="g2285" transform="scale(1.5)"><path id="path2279" d="m 8.5,0.5 h 60 v 20 h -60 v -8 -1 h -6 v 3 h -2 v -8 h 2 v 3 h 6 v -1 z" style="fill:#7cd622;fill-opacity:1;stroke:#57ad02;stroke-width:1;stroke-linecap:round;stroke-opacity:1"/><text id="text2283" style="font-size:10px;font-family:sans-serif;text-anchor:start;fill:#000"><tspan id="tspan2281" x="13.333" y="13.833">re</tspan></text></g></g><g id="g2297" transform="translate(87,198.42154)"><g id="g2295" transform="scale(1.5)"><path id="path2289" d="m 8.5,0.5 h 60 v 20 h -60 v -8 -1 h -6 v 3 h -2 v -8 h 2 v 3 h 6 v -1 z" style="fill:#ff6ea1;fill-opacity:1;stroke:#ff2c76;stroke-width:1;stroke-linecap:round;stroke-opacity:1"/><text id="text2293" style="font-size:10px;font-family:sans-serif;text-anchor:start;fill:#000"><tspan id="tspan2291" x="13.333" y="13.833">4</tspan></text></g></g></svg>