<svg xmlns="http://www.w3.org/2000/svg" xmlns:svg="http://www.w3.org/2000/svg" id="svg3641" width="291.842" height="428.343" version="1.1" viewBox="0 0 291.842 428.343"><metadata id="metadata3670"/><g id="g1607" transform="translate(13.5,324.42154)"><g id="g1605" transform="scale(1.5)"><path id="path1591" d="m 0.5,8.5 v -4 a 4,4 90 0 1 4,-4 h 4 v 2 h 10 v -2 h 40.561523 4 a 4,4 90 0 1 4,4 v 4 h -4 v -3 h -4 v 10 h 4 v -3 h 4 v 17 h -4 v -3 h -4 v 10 h 4 v -3 h 4 v 4 a 4,4 90 0 1 -4,4 h -4 H 18.5 h -1 v 2 h -8 v -2 h -1 -4 a 4,4 90 0 1 -4,-4 v -4 -21 z" style="fill:#92a9ff;fill-opacity:1;stroke:#5370dc;stroke-width:1;stroke-linecap:round;stroke-opacity:1"/><text id="text1595" style="font-size:10px;font-family:sans-serif;text-anchor:end;fill:#000"><tspan id="tspan1593" x="56.895" y="24">rhythm</tspan></text><text id="text1599" style="font-size:6.66666651px;font-family:sans-serif;text-anchor:end;fill:#000"><tspan id="tspan1597" x="56.895" y="11.25">number of notes</tspan></text><text id="text1603" style="font-size:6.66666651px;font-family:sans-serif;text-anchor:end;fill:#000"><tspan id="tspan1601" x="56.895" y="32.25">note value</tspan></text></g></g><g id="g1617" transform="translate(102.8423,324.42154)"><g id="g1615" transform="scale(1.5)"><path id="path1609" d="m 8.5,0.5 h 60 v 20 h -60 v -8 -1 h -6 v 3 h -2 v -8 h 2 v 3 h 6 v -1 z" style="fill:#ff6ea1;fill-opacity:1;stroke:#ff2c76;stroke-width:1;stroke-linecap:round;stroke-opacity:1"/><text id="text1613" style="font-size:10px;font-family:sans-serif;text-anchor:start;fill:#000"><tspan id="tspan1611" x="13.333" y="13.833">6</tspan></text></g></g><g id="g1635" transform="translate(102.8423,355.92154)"><g id="g1633" transform="scale(1.5)"><path id="path1619" d="m 8.5,8.5 v -4 a 4,4 90 0 1 4,-4 h 4 10 30 4 a 4,4 90 0 1 4,4 v 4 h -4 v -3 h -4 v 10 h 4 v -3 h 4 v 17 h -4 v -3 h -4 v 10 h 4 v -3 h 4 v 4 a 4,4 90 0 1 -4,4 h -4 -30 -10 -4 a 4,4 90 0 1 -4,-4 v -4 -21 -1 h -6 v 3 h -2 v -8 h 2 v 3 h 6 z" style="fill:#ff6ea1;fill-opacity:1;stroke:#ff2c76;stroke-width:1;stroke-linecap:round;stroke-opacity:1"/><text id="text1623" style="font-size:14px;font-family:sans-serif;text-anchor:end;fill:#000"><tspan id="tspan1621" x="54.333" y="23.8">/</tspan></text></g></g><g id="g1645" transform="translate(188.3423,355.92154)"><g id="g1643" transform="scale(1.5)"><path id="path1637" d="m 8.5,0.5 h 60 v 20 h -60 v -8 -1 h -6 v 3 h -2 v -8 h 2 v 3 h 6 v -1 z" style="fill:#ff6ea1;fill-opacity:1;stroke:#ff2c76;stroke-width:1;stroke-linecap:round;stroke-opacity:1"/><text id="text1641" style="font-size:10px;font-family:sans-serif;text-anchor:start;fill:#000"><tspan id="tspan1639" x="13.333" y="13.833">1</tspan></text></g></g><g id="g1655" transform="translate(188.3423,387.42154)"><g id="g1653" transform="scale(1.5)"><path id="path1647" d="m 8.5,0.5 h 60 v 20 h -60 v -8 -1 h -6 v 3 h -2 v -8 h 2 v 3 h 6 v -1 z" style="fill:#ff6ea1;fill-opacity:1;stroke:#ff2c76;stroke-width:1;stroke-linecap:round;stroke-opacity:1"/><text id="text1651" style="font-size:10px;font-family:sans-serif;text-anchor:start;fill:#000"><tspan id="tspan1649" x="13.333" y="13.833">8</tspan></text></g></g><path id="path1657" d="m 14.25,305.67154 v -6 a 6,6 0 0 1 6,-6 h 6 v 3 h 15 v -3 h 30 6 a 6,6 0 0 1 6,6 v 6 6 6 a 6,6 0 0 1 -6,6 h -6 -30 -1.5 v 3 h -12 v -3 h -1.5 -6 a 6,6 0 0 1 -6,-6 v -6 z" style="fill:#c4c4c4;fill-opacity:1;stroke:#a0a0a0;stroke-width:1.5;stroke-linecap:round;stroke-opacity:1"/><text id="text1661" x="13.5" y="292.922" style="font-size:15px;font-family:sans-serif;text-anchor:end;fill:#000;stroke-width:1.5"><tspan id="tspan1659" x="68" y="313.172" style="stroke-width:1.5">↓</tspan></text><path id="path1667" d="m 0.75,22.171537 v -6 a 6,6 0 0 1 6,-6 h 6 l 7.5,-9 7.5,9 h 13.5 95.01709 6 a 6,6 0 0 1 6,6 v 6 6 6 a 6,6 0 0 1 -6,6 h -6 H 41.25 39.75 v 3 h -12 v -3 h -1.5 -6 a 7.5,7.5 0 0 0 -7.5,7.5 v 6 6 315.000003 6 a 7.5,7.5 0 0 0 7.5,7.5 h 6 v 3 h 15 v -3 h 12 v 9 9 6 a 6,6 0 0 1 -6,6 h -6 -13.5 l -7.5,9 -7.5,-9 h -6 a 6,6 0 0 1 -6,-6 v -6 z" style="fill:#7cd622;fill-opacity:1;stroke:#57ad02;stroke-width:1.5;stroke-linecap:round;stroke-opacity:1"/><text id="text1671" y=".422" style="font-size:15px;font-family:sans-serif;text-anchor:start;fill:#000;stroke-width:1.5"><tspan id="tspan1669" x="8" y="32.672" style="stroke-width:1.5">phrase maker</tspan></text><g id="g1693" transform="translate(13.5,40.921537)"><g id="g1691" transform="scale(1.5)"><path id="path1677" d="m 0.5,8.5 v -4 a 4,4 90 0 1 4,-4 h 4 v 2 h 10 v -2 h 30 4 a 4,4 90 0 1 4,4 v 4 h -4 v -3 h -4 v 10 h 4 v -3 h 4 v 17 h -4 v -3 h -4 v 10 h 4 v -3 h 4 v 4 a 4,4 90 0 1 -4,4 h -4 -30 -1 v 2 h -8 v -2 h -1 -4 a 4,4 90 0 1 -4,-4 v -4 -21 z" style="fill:#7cd622;fill-opacity:1;stroke:#57ad02;stroke-width:1;stroke-linecap:round;stroke-opacity:1"/><text id="text1681" style="font-size:10px;font-family:sans-serif;text-anchor:end;fill:#000"><tspan id="tspan1679" x="46.333" y="24">pitch</tspan></text><text id="text1685" style="font-size:6.66666651px;font-family:sans-serif;text-anchor:end;fill:#000"><tspan id="tspan1683" x="46.333" y="11.25">name</tspan></text><text id="text1689" style="font-size:6.66666651px;font-family:sans-serif;text-anchor:end;fill:#000"><tspan id="tspan1687" x="46.333" y="32.25">octave</tspan></text></g></g><g id="g1703" transform="translate(87,40.921537)"><g id="g1701" transform="scale(1.5)"><path id="path1695" d="m 8.5,0.5 h 60 v 20 h -60 v -8 -1 h -6 v 3 h -2 v -8 h 2 v 3 h 6 v -1 z" style="fill:#7cd622;fill-opacity:1;stroke:#57ad02;stroke-width:1;stroke-linecap:round;stroke-opacity:1"/><text id="text1699" style="font-size:10px;font-family:sans-serif;text-anchor:start;fill:#000"><tspan id="tspan1697" x="13.333" y="13.833">sol</tspan></text></g></g><g id="g1713" transform="translate(87,72.421537)"><g id="g1711" transform="scale(1.5)"><path id="path1705" d="m 8.5,0.5 h 60 v 20 h -60 v -8 -1 h -6 v 3 h -2 v -8 h 2 v 3 h 6 v -1 z" style="fill:#ff6ea1;fill-opacity:1;stroke:#ff2c76;stroke-width:1;stroke-linecap:round;stroke-opacity:1"/><text id="text1709" style="font-size:10px;font-family:sans-serif;text-anchor:start;fill:#000"><tspan id="tspan1707" x="13.333" y="13.833">4</tspan></text></g></g><g id="g1731" transform="translate(13.5,103.92154)"><g id="g1729" transform="scale(1.5)"><path id="path1715" d="m 0.5,8.5 v -4 a 4,4 90 0 1 4,-4 h 4 v 2 h 10 v -2 h 30 4 a 4,4 90 0 1 4,4 v 4 h -4 v -3 h -4 v 10 h 4 v -3 h 4 v 17 h -4 v -3 h -4 v 10 h 4 v -3 h 4 v 4 a 4,4 90 0 1 -4,4 h -4 -30 -1 v 2 h -8 v -2 h -1 -4 a 4,4 90 0 1 -4,-4 v -4 -21 z" style="fill:#7cd622;fill-opacity:1;stroke:#57ad02;stroke-width:1;stroke-linecap:round;stroke-opacity:1"/><text id="text1719" style="font-size:10px;font-family:sans-serif;text-anchor:end;fill:#000"><tspan id="tspan1717" x="46.333" y="24">pitch</tspan></text><text id="text1723" style="font-size:6.66666651px;font-family:sans-serif;text-anchor:end;fill:#000"><tspan id="tspan1721" x="46.333" y="11.25">name</tspan></text><text id="text1727" style="font-size:6.66666651px;font-family:sans-serif;text-anchor:end;fill:#000"><tspan id="tspan1725" x="46.333" y="32.25">octave</tspan></text></g></g><g id="g1741" transform="translate(87,103.92154)"><g id="g1739" transform="scale(1.5)"><path id="path1733" d="m 8.5,0.5 h 60 v 20 h -60 v -8 -1 h -6 v 3 h -2 v -8 h 2 v 3 h 6 v -1 z" style="fill:#7cd622;fill-opacity:1;stroke:#57ad02;stroke-width:1;stroke-linecap:round;stroke-opacity:1"/><text id="text1737" style="font-size:10px;font-family:sans-serif;text-anchor:start;fill:#000"><tspan id="tspan1735" x="13.333" y="13.833">mi</tspan></text></g></g><g id="g1751" transform="translate(87,135.42154)"><g id="g1749" transform="scale(1.5)"><path id="path1743" d="m 8.5,0.5 h 60 v 20 h -60 v -8 -1 h -6 v 3 h -2 v -8 h 2 v 3 h 6 v -1 z" style="fill:#ff6ea1;fill-opacity:1;stroke:#ff2c76;stroke-width:1;stroke-linecap:round;stroke-opacity:1"/><text id="text1747" style="font-size:10px;font-family:sans-serif;text-anchor:start;fill:#000"><tspan id="tspan1745" x="13.333" y="13.833">4</tspan></text></g></g><g id="g1769" transform="translate(13.5,166.92154)"><g id="g1767" transform="scale(1.5)"><path id="path1753" d="m 0.5,8.5 v -4 a 4,4 90 0 1 4,-4 h 4 v 2 h 10 v -2 h 30 4 a 4,4 90 0 1 4,4 v 4 h -4 v -3 h -4 v 10 h 4 v -3 h 4 v 17 h -4 v -3 h -4 v 10 h 4 v -3 h 4 v 4 a 4,4 90 0 1 -4,4 h -4 -30 -1 v 2 h -8 v -2 h -1 -4 a 4,4 90 0 1 -4,-4 v -4 -21 z" style="fill:#7cd622;fill-opacity:1;stroke:#57ad02;stroke-width:1;stroke-linecap:round;stroke-opacity:1"/><text id="text1757" style="font-size:10px;font-family:sans-serif;text-anchor:end;fill:#000"><tspan id="tspan1755" x="46.333" y="24">pitch</tspan></text><text id="text1761" style="font-size:6.66666651px;font-family:sans-serif;text-anchor:end;fill:#000"><tspan id="tspan1759" x="46.333" y="11.25">name</tspan></text><text id="text1765" style="font-size:6.66666651px;font-family:sans-serif;text-anchor:end;fill:#000"><tspan id="tspan1763" x="46.333" y="32.25">octave</tspan></text></g></g><g id="g1779" transform="translate(87,166.92154)"><g id="g1777" transform="scale(1.5)"><path id="path1771" d="m 8.5,0.5 h 60 v 20 h -60 v -8 -1 h -6 v 3 h -2 v -8 h 2 v 3 h 6 v -1 z" style="fill:#7cd622;fill-opacity:1;stroke:#57ad02;stroke-width:1;stroke-linecap:round;stroke-opacity:1"/><text id="text1775" style="font-size:10px;font-family:sans-serif;text-anchor:start;fill:#000"><tspan id="tspan1773" x="13.333" y="13.833">re</tspan></text></g></g><g id="g1789" transform="translate(87,198.42154)"><g id="g1787" transform="scale(1.5)"><path id="path1781" d="m 8.5,0.5 h 60 v 20 h -60 v -8 -1 h -6 v 3 h -2 v -8 h 2 v 3 h 6 v -1 z" style="fill:#ff6ea1;fill-opacity:1;stroke:#ff2c76;stroke-width:1;stroke-linecap:round;stroke-opacity:1"/><text id="text1785" style="font-size:10px;font-family:sans-serif;text-anchor:start;fill:#000"><tspan id="tspan1783" x="13.333" y="13.833">4</tspan></text></g></g><g id="g1807" transform="translate(13.5,229.92154)"><g id="g1805" transform="scale(1.5)"><path id="path1791" d="m 0.5,8.5 v -4 a 4,4 90 0 1 4,-4 h 4 v 2 h 10 v -2 h 40.561523 4 a 4,4 90 0 1 4,4 v 4 h -4 v -3 h -4 v 10 h 4 v -3 h 4 v 17 h -4 v -3 h -4 v 10 h 4 v -3 h 4 v 4 a 4,4 90 0 1 -4,4 h -4 H 18.5 h -1 v 2 h -8 v -2 h -1 -4 a 4,4 90 0 1 -4,-4 v -4 -21 z" style="fill:#92a9ff;fill-opacity:1;stroke:#5370dc;stroke-width:1;stroke-linecap:round;stroke-opacity:1"/><text id="text1795" style="font-size:10px;font-family:sans-serif;text-anchor:end;fill:#000"><tspan id="tspan1793" x="56.895" y="24">rhythm</tspan></text><text id="text1799" style="font-size:6.66666651px;font-family:sans-serif;text-anchor:end;fill:#000"><tspan id="tspan1797" x="56.895" y="11.25">number of notes</tspan></text><text id="text1803" style="font-size:6.66666651px;font-family:sans-serif;text-anchor:end;fill:#000"><tspan id="tspan1801" x="56.895" y="32.25">note value</tspan></text></g></g><g id="g1817" transform="translate(102.8423,229.92154)"><g id="g1815" transform="scale(1.5)"><path id="path1809" d="m 8.5,0.5 h 60 v 20 h -60 v -8 -1 h -6 v 3 h -2 v -8 h 2 v 3 h 6 v -1 z" style="fill:#ff6ea1;fill-opacity:1;stroke:#ff2c76;stroke-width:1;stroke-linecap:round;stroke-opacity:1"/><text id="text1813" style="font-size:10px;font-family:sans-serif;text-anchor:start;fill:#000"><tspan id="tspan1811" x="13.333" y="13.833">3</tspan></text></g></g><g id="g1835" transform="translate(102.8423,261.42154)"><g id="g1833" transform="scale(1.5)"><path id="path1819" d="m 8.5,8.5 v -4 a 4,4 90 0 1 4,-4 h 4 10 30 4 a 4,4 90 0 1 4,4 v 4 h -4 v -3 h -4 v 10 h 4 v -3 h 4 v 17 h -4 v -3 h -4 v 10 h 4 v -3 h 4 v 4 a 4,4 90 0 1 -4,4 h -4 -30 -10 -4 a 4,4 90 0 1 -4,-4 v -4 -21 -1 h -6 v 3 h -2 v -8 h 2 v 3 h 6 z" style="fill:#ff6ea1;fill-opacity:1;stroke:#ff2c76;stroke-width:1;stroke-linecap:round;stroke-opacity:1"/><text id="text1823" style="font-size:14px;font-family:sans-serif;text-anchor:end;fill:#000"><tspan id="tspan1821" x="54.333" y="23.8">/</tspan></text></g></g><g id="g1845" transform="translate(188.3423,261.42154)"><g id="g1843" transform="scale(1.5)"><path id="path1837" d="m 8.5,0.5 h 60 v 20 h -60 v -8 -1 h -6 v 3 h -2 v -8 h 2 v 3 h 6 v -1 z" style="fill:#ff6ea1;fill-opacity:1;stroke:#ff2c76;stroke-width:1;stroke-linecap:round;stroke-opacity:1"/><text id="text1841" style="font-size:10px;font-family:sans-serif;text-anchor:start;fill:#000"><tspan id="tspan1839" x="13.333" y="13.833">1</tspan></text></g></g><g id="g1855" transform="translate(188.3423,292.92154)"><g id="g1853" transform="scale(1.5)"><path id="path1847" d="m 8.5,0.5 h 60 v 20 h -60 v -8 -1 h -6 v 3 h -2 v -8 h 2 v 3 h 6 v -1 z" style="fill:#ff6ea1;fill-opacity:1;stroke:#ff2c76;stroke-width:1;stroke-linecap:round;stroke-opacity:1"/><text id="text1851" style="font-size:10px;font-family:sans-serif;text-anchor:start;fill:#000"><tspan id="tspan1849" x="13.333" y="13.833">4</tspan></text></g></g></svg>