<svg xmlns="http://www.w3.org/2000/svg" xmlns:svg="http://www.w3.org/2000/svg" id="svg3641" width="298.721" height="554.343" version="1.1" viewBox="0 0 298.721 554.343"><metadata id="metadata3670"/><g id="g1625" transform="translate(0,0.421537)"><g id="g1623" transform="scale(1.5)"><path id="path1613" d="m 0.5,14.5 v -4 a 4,4 90 0 1 4,-4 h 4 l 5,-6 5,6 h 9 35 4 a 4,4 90 0 1 4,4 v 4 h -4 v -3 h -4 v 10 h 4 v -3 h 4 v 4 a 4,4 90 0 1 -4,4 h -4 -35 -1 v 2 h -8 v -2 h -1 -4 a 5,5 90 0 0 -5,5 v 4 4 294 4 a 5,5 90 0 0 5,5 h 4 v 2 h 10 v -2 h 8 v 6 6 4 a 4,4 90 0 1 -4,4 h -4 -9 l -5,6 -5,-6 h -4 a 4,4 90 0 1 -4,-4 v -4 z" style="fill:#ffbf00;fill-opacity:1;stroke:#daaf30;stroke-width:1;stroke-linecap:round;stroke-opacity:1"/><text id="text1617" style="font-size:10px;font-family:sans-serif;text-anchor:start;fill:#000"><tspan id="tspan1615" x="5.333" y="21.5">action</tspan></text></g></g><g id="g1635" transform="translate(94.5,9.421537)"><g id="g1633" transform="scale(1.5)"><path id="path1627" d="m 8.5,0.5 h 60 v 20 h -60 v -8 -1 h -6 v 3 h -2 v -8 h 2 v 3 h 6 v -1 z" style="fill:#ff6648;fill-opacity:1;stroke:#ea4326;stroke-width:1;stroke-linecap:round;stroke-opacity:1"/><text id="text1631" style="font-size:10px;font-family:sans-serif;text-anchor:start;fill:#000"><tspan id="tspan1629" x="13.333" y="13.833">chunk</tspan></text></g></g><g id="g1659" transform="translate(13.5,40.921537)"><g id="g1657" transform="scale(1.5)"><path id="path1647" d="m 0.5,8.5 v -4 a 4,4 90 0 1 4,-4 h 4 v 2 h 10 v -2 h 9 36.147461 4 a 4,4 90 0 1 4,4 v 4 h -4 v -3 h -4 v 10 h 4 v -3 h 4 v 4 a 4,4 90 0 1 -4,4 h -4 H 27.5 h -1 v 2 h -8 v -2 h -1 -4 a 5,5 90 0 0 -5,5 v 4 4 42 4 a 5,5 90 0 0 5,5 h 4 v 2 h 10 v -2 h 8 v 6 6 4 a 4,4 90 0 1 -4,4 h -4 -9 -1 v 2 h -8 v -2 h -1 -4 a 4,4 90 0 1 -4,-4 v -4 z" style="fill:#fe994f;fill-opacity:1;stroke:#e8680e;stroke-width:1;stroke-linecap:round;stroke-opacity:1"/><text id="text1651" style="font-size:10px;font-family:sans-serif;text-anchor:start;fill:#000"><tspan id="tspan1649" x="5.333" y="15.25">note value</tspan></text></g></g><g id="g1677" transform="translate(109.72119,40.921537)"><g id="g1675" transform="scale(1.5)"><path id="path1661" d="m 8.5,8.5 v -4 a 4,4 90 0 1 4,-4 h 4 10 30 4 a 4,4 90 0 1 4,4 v 4 h -4 v -3 h -4 v 10 h 4 v -3 h 4 v 17 h -4 v -3 h -4 v 10 h 4 v -3 h 4 v 4 a 4,4 90 0 1 -4,4 h -4 -30 -10 -4 a 4,4 90 0 1 -4,-4 v -4 -21 -1 h -6 v 3 h -2 v -8 h 2 v 3 h 6 z" style="fill:#ff6ea1;fill-opacity:1;stroke:#ff2c76;stroke-width:1;stroke-linecap:round;stroke-opacity:1"/><text id="text1665" style="font-size:14px;font-family:sans-serif;text-anchor:end;fill:#000"><tspan id="tspan1663" x="54.333" y="23.8">/</tspan></text></g></g><g id="g1687" transform="translate(195.22119,40.921537)"><g id="g1685" transform="scale(1.5)"><path id="path1679" d="m 8.5,0.5 h 60 v 20 h -60 v -8 -1 h -6 v 3 h -2 v -8 h 2 v 3 h 6 v -1 z" style="fill:#ff6ea1;fill-opacity:1;stroke:#ff2c76;stroke-width:1;stroke-linecap:round;stroke-opacity:1"/><text id="text1683" style="font-size:10px;font-family:sans-serif;text-anchor:start;fill:#000"><tspan id="tspan1681" x="13.333" y="13.833">1</tspan></text></g></g><g id="g1697" transform="translate(195.22119,72.421537)"><g id="g1695" transform="scale(1.5)"><path id="path1689" d="m 8.5,0.5 h 60 v 20 h -60 v -8 -1 h -6 v 3 h -2 v -8 h 2 v 3 h 6 v -1 z" style="fill:#ff6ea1;fill-opacity:1;stroke:#ff2c76;stroke-width:1;stroke-linecap:round;stroke-opacity:1"/><text id="text1693" style="font-size:10px;font-family:sans-serif;text-anchor:start;fill:#000"><tspan id="tspan1691" x="13.333" y="13.833">4</tspan></text></g></g><path id="path1699" d="m 27.75,85.171537 v -6 a 6,6 0 0 1 6,-6 h 6 v 3 h 15 v -3 h 30 6 a 6,6 0 0 1 6,6 v 6 6 6 a 6,6 0 0 1 -6,6.000003 h -6 -30 -1.5 v 3 h -12 v -3 h -1.5 -6 a 6,6 0 0 1 -6,-6.000003 v -6 z" style="fill:#c4c4c4;fill-opacity:1;stroke:#a0a0a0;stroke-width:1.5;stroke-linecap:round;stroke-opacity:1"/><text id="text1703" x="27" y="72.422" style="font-size:15px;font-family:sans-serif;text-anchor:end;fill:#000;stroke-width:1.5"><tspan id="tspan1701" x="81.5" y="92.672" style="stroke-width:1.5">↓</tspan></text><g id="g1725" transform="translate(27,103.92154)"><g id="g1723" transform="scale(1.5)"><path id="path1709" d="m 0.5,8.5 v -4 a 4,4 90 0 1 4,-4 h 4 v 2 h 10 v -2 h 30 4 a 4,4 90 0 1 4,4 v 4 h -4 v -3 h -4 v 10 h 4 v -3 h 4 v 17 h -4 v -3 h -4 v 10 h 4 v -3 h 4 v 4 a 4,4 90 0 1 -4,4 h -4 -30 -1 v 2 h -8 v -2 h -1 -4 a 4,4 90 0 1 -4,-4 v -4 -21 z" style="fill:#7cd622;fill-opacity:1;stroke:#57ad02;stroke-width:1;stroke-linecap:round;stroke-opacity:1"/><text id="text1713" style="font-size:10px;font-family:sans-serif;text-anchor:end;fill:#000"><tspan id="tspan1711" x="46.333" y="24">pitch</tspan></text><text id="text1717" style="font-size:6.66666651px;font-family:sans-serif;text-anchor:end;fill:#000"><tspan id="tspan1715" x="46.333" y="11.25">name</tspan></text><text id="text1721" style="font-size:6.66666651px;font-family:sans-serif;text-anchor:end;fill:#000"><tspan id="tspan1719" x="46.333" y="32.25">octave</tspan></text></g></g><g id="g1735" transform="translate(100.5,103.92154)"><g id="g1733" transform="scale(1.5)"><path id="path1727" d="m 8.5,0.5 h 60 v 20 h -60 v -8 -1 h -6 v 3 h -2 v -8 h 2 v 3 h 6 v -1 z" style="fill:#7cd622;fill-opacity:1;stroke:#57ad02;stroke-width:1;stroke-linecap:round;stroke-opacity:1"/><text id="text1731" style="font-size:10px;font-family:sans-serif;text-anchor:start;fill:#000"><tspan id="tspan1729" x="13.333" y="13.833">re</tspan></text></g></g><g id="g1745" transform="translate(100.5,135.42154)"><g id="g1743" transform="scale(1.5)"><path id="path1737" d="m 8.5,0.5 h 60 v 20 h -60 v -8 -1 h -6 v 3 h -2 v -8 h 2 v 3 h 6 v -1 z" style="fill:#ff6ea1;fill-opacity:1;stroke:#ff2c76;stroke-width:1;stroke-linecap:round;stroke-opacity:1"/><text id="text1741" style="font-size:10px;font-family:sans-serif;text-anchor:start;fill:#000"><tspan id="tspan1739" x="13.333" y="13.833">4</tspan></text></g></g><g id="g1759" transform="translate(13.5,198.42154)"><g id="g1757" transform="scale(1.5)"><path id="path1747" d="m 0.5,8.5 v -4 a 4,4 90 0 1 4,-4 h 4 v 2 h 10 v -2 h 9 36.147461 4 a 4,4 90 0 1 4,4 v 4 h -4 v -3 h -4 v 10 h 4 v -3 h 4 v 4 a 4,4 90 0 1 -4,4 h -4 H 27.5 h -1 v 2 h -8 v -2 h -1 -4 a 5,5 90 0 0 -5,5 v 4 4 42 4 a 5,5 90 0 0 5,5 h 4 v 2 h 10 v -2 h 8 v 6 6 4 a 4,4 90 0 1 -4,4 h -4 -9 -1 v 2 h -8 v -2 h -1 -4 a 4,4 90 0 1 -4,-4 v -4 z" style="fill:#fe994f;fill-opacity:1;stroke:#e8680e;stroke-width:1;stroke-linecap:round;stroke-opacity:1"/><text id="text1751" style="font-size:10px;font-family:sans-serif;text-anchor:start;fill:#000"><tspan id="tspan1749" x="5.333" y="15.25">note value</tspan></text></g></g><g id="g1777" transform="translate(109.72119,198.42154)"><g id="g1775" transform="scale(1.5)"><path id="path1761" d="m 8.5,8.5 v -4 a 4,4 90 0 1 4,-4 h 4 10 30 4 a 4,4 90 0 1 4,4 v 4 h -4 v -3 h -4 v 10 h 4 v -3 h 4 v 17 h -4 v -3 h -4 v 10 h 4 v -3 h 4 v 4 a 4,4 90 0 1 -4,4 h -4 -30 -10 -4 a 4,4 90 0 1 -4,-4 v -4 -21 -1 h -6 v 3 h -2 v -8 h 2 v 3 h 6 z" style="fill:#ff6ea1;fill-opacity:1;stroke:#ff2c76;stroke-width:1;stroke-linecap:round;stroke-opacity:1"/><text id="text1765" style="font-size:14px;font-family:sans-serif;text-anchor:end;fill:#000"><tspan id="tspan1763" x="54.333" y="23.8">/</tspan></text></g></g><g id="g1787" transform="translate(195.22119,198.42154)"><g id="g1785" transform="scale(1.5)"><path id="path1779" d="m 8.5,0.5 h 60 v 20 h -60 v -8 -1 h -6 v 3 h -2 v -8 h 2 v 3 h 6 v -1 z" style="fill:#ff6ea1;fill-opacity:1;stroke:#ff2c76;stroke-width:1;stroke-linecap:round;stroke-opacity:1"/><text id="text1783" style="font-size:10px;font-family:sans-serif;text-anchor:start;fill:#000"><tspan id="tspan1781" x="13.333" y="13.833">1</tspan></text></g></g><g id="g1797" transform="translate(195.22119,229.92154)"><g id="g1795" transform="scale(1.5)"><path id="path1789" d="m 8.5,0.5 h 60 v 20 h -60 v -8 -1 h -6 v 3 h -2 v -8 h 2 v 3 h 6 v -1 z" style="fill:#ff6ea1;fill-opacity:1;stroke:#ff2c76;stroke-width:1;stroke-linecap:round;stroke-opacity:1"/><text id="text1793" style="font-size:10px;font-family:sans-serif;text-anchor:start;fill:#000"><tspan id="tspan1791" x="13.333" y="13.833">4</tspan></text></g></g><path id="path1799" d="m 27.75,242.67154 v -6 a 6,6 0 0 1 6,-6 h 6 v 3 h 15 v -3 h 30 6 a 6,6 0 0 1 6,6 v 6 6 6 a 6,6 0 0 1 -6,6 h -6 -30 -1.5 v 3 h -12 v -3 h -1.5 -6 a 6,6 0 0 1 -6,-6 v -6 z" style="fill:#c4c4c4;fill-opacity:1;stroke:#a0a0a0;stroke-width:1.5;stroke-linecap:round;stroke-opacity:1"/><text id="text1803" x="27" y="229.922" style="font-size:15px;font-family:sans-serif;text-anchor:end;fill:#000;stroke-width:1.5"><tspan id="tspan1801" x="81.5" y="250.172" style="stroke-width:1.5">↓</tspan></text><g id="g1825" transform="translate(27,261.42154)"><g id="g1823" transform="scale(1.5)"><path id="path1809" d="m 0.5,8.5 v -4 a 4,4 90 0 1 4,-4 h 4 v 2 h 10 v -2 h 30 4 a 4,4 90 0 1 4,4 v 4 h -4 v -3 h -4 v 10 h 4 v -3 h 4 v 17 h -4 v -3 h -4 v 10 h 4 v -3 h 4 v 4 a 4,4 90 0 1 -4,4 h -4 -30 -1 v 2 h -8 v -2 h -1 -4 a 4,4 90 0 1 -4,-4 v -4 -21 z" style="fill:#7cd622;fill-opacity:1;stroke:#57ad02;stroke-width:1;stroke-linecap:round;stroke-opacity:1"/><text id="text1813" style="font-size:10px;font-family:sans-serif;text-anchor:end;fill:#000"><tspan id="tspan1811" x="46.333" y="24">pitch</tspan></text><text id="text1817" style="font-size:6.66666651px;font-family:sans-serif;text-anchor:end;fill:#000"><tspan id="tspan1815" x="46.333" y="11.25">name</tspan></text><text id="text1821" style="font-size:6.66666651px;font-family:sans-serif;text-anchor:end;fill:#000"><tspan id="tspan1819" x="46.333" y="32.25">octave</tspan></text></g></g><g id="g1835" transform="translate(100.5,261.42154)"><g id="g1833" transform="scale(1.5)"><path id="path1827" d="m 8.5,0.5 h 60 v 20 h -60 v -8 -1 h -6 v 3 h -2 v -8 h 2 v 3 h 6 v -1 z" style="fill:#7cd622;fill-opacity:1;stroke:#57ad02;stroke-width:1;stroke-linecap:round;stroke-opacity:1"/><text id="text1831" style="font-size:10px;font-family:sans-serif;text-anchor:start;fill:#000"><tspan id="tspan1829" x="13.333" y="13.833">mi</tspan></text></g></g><g id="g1845" transform="translate(100.5,292.92154)"><g id="g1843" transform="scale(1.5)"><path id="path1837" d="m 8.5,0.5 h 60 v 20 h -60 v -8 -1 h -6 v 3 h -2 v -8 h 2 v 3 h 6 v -1 z" style="fill:#ff6ea1;fill-opacity:1;stroke:#ff2c76;stroke-width:1;stroke-linecap:round;stroke-opacity:1"/><text id="text1841" style="font-size:10px;font-family:sans-serif;text-anchor:start;fill:#000"><tspan id="tspan1839" x="13.333" y="13.833">4</tspan></text></g></g><g id="g1859" transform="translate(13.5,355.92154)"><g id="g1857" transform="scale(1.5)"><path id="path1847" d="m 0.5,8.5 v -4 a 4,4 90 0 1 4,-4 h 4 v 2 h 10 v -2 h 9 36.147461 4 a 4,4 90 0 1 4,4 v 4 h -4 v -3 h -4 v 10 h 4 v -3 h 4 v 4 a 4,4 90 0 1 -4,4 h -4 H 27.5 h -1 v 2 h -8 v -2 h -1 -4 a 5,5 90 0 0 -5,5 v 4 4 42 4 a 5,5 90 0 0 5,5 h 4 v 2 h 10 v -2 h 8 v 6 6 4 a 4,4 90 0 1 -4,4 h -4 -9 -1 v 2 h -8 v -2 h -1 -4 a 4,4 90 0 1 -4,-4 v -4 z" style="fill:#fe994f;fill-opacity:1;stroke:#e8680e;stroke-width:1;stroke-linecap:round;stroke-opacity:1"/><text id="text1851" style="font-size:10px;font-family:sans-serif;text-anchor:start;fill:#000"><tspan id="tspan1849" x="5.333" y="15.25">note value</tspan></text></g></g><g id="g1877" transform="translate(109.72119,355.92154)"><g id="g1875" transform="scale(1.5)"><path id="path1861" d="m 8.5,8.5 v -4 a 4,4 90 0 1 4,-4 h 4 10 30 4 a 4,4 90 0 1 4,4 v 4 h -4 v -3 h -4 v 10 h 4 v -3 h 4 v 17 h -4 v -3 h -4 v 10 h 4 v -3 h 4 v 4 a 4,4 90 0 1 -4,4 h -4 -30 -10 -4 a 4,4 90 0 1 -4,-4 v -4 -21 -1 h -6 v 3 h -2 v -8 h 2 v 3 h 6 z" style="fill:#ff6ea1;fill-opacity:1;stroke:#ff2c76;stroke-width:1;stroke-linecap:round;stroke-opacity:1"/><text id="text1865" style="font-size:14px;font-family:sans-serif;text-anchor:end;fill:#000"><tspan id="tspan1863" x="54.333" y="23.8">/</tspan></text></g></g><g id="g1887" transform="translate(195.22119,355.92154)"><g id="g1885" transform="scale(1.5)"><path id="path1879" d="m 8.5,0.5 h 60 v 20 h -60 v -8 -1 h -6 v 3 h -2 v -8 h 2 v 3 h 6 v -1 z" style="fill:#ff6ea1;fill-opacity:1;stroke:#ff2c76;stroke-width:1;stroke-linecap:round;stroke-opacity:1"/><text id="text1883" style="font-size:10px;font-family:sans-serif;text-anchor:start;fill:#000"><tspan id="tspan1881" x="13.333" y="13.833">1</tspan></text></g></g><g id="g1897" transform="translate(195.22119,387.42154)"><g id="g1895" transform="scale(1.5)"><path id="path1889" d="m 8.5,0.5 h 60 v 20 h -60 v -8 -1 h -6 v 3 h -2 v -8 h 2 v 3 h 6 v -1 z" style="fill:#ff6ea1;fill-opacity:1;stroke:#ff2c76;stroke-width:1;stroke-linecap:round;stroke-opacity:1"/><text id="text1893" style="font-size:10px;font-family:sans-serif;text-anchor:start;fill:#000"><tspan id="tspan1891" x="13.333" y="13.833">4</tspan></text></g></g><path id="path1899" d="m 27.75,400.17154 v -6 a 6,6 0 0 1 6,-6 h 6 v 3 h 15 v -3 h 30 6 a 6,6 0 0 1 6,6 v 6 6 6 a 6,6 0 0 1 -6,6 h -6 -30 -1.5 v 3 h -12 v -3 h -1.5 -6 a 6,6 0 0 1 -6,-6 v -6 z" style="fill:#c4c4c4;fill-opacity:1;stroke:#a0a0a0;stroke-width:1.5;stroke-linecap:round;stroke-opacity:1"/><text id="text1903" x="27" y="387.422" style="font-size:15px;font-family:sans-serif;text-anchor:end;fill:#000;stroke-width:1.5"><tspan id="tspan1901" x="81.5" y="407.672" style="stroke-width:1.5">↓</tspan></text><g id="g1925" transform="translate(27,418.92154)"><g id="g1923" transform="scale(1.5)"><path id="path1909" d="m 0.5,8.5 v -4 a 4,4 90 0 1 4,-4 h 4 v 2 h 10 v -2 h 30 4 a 4,4 90 0 1 4,4 v 4 h -4 v -3 h -4 v 10 h 4 v -3 h 4 v 17 h -4 v -3 h -4 v 10 h 4 v -3 h 4 v 4 a 4,4 90 0 1 -4,4 h -4 -30 -1 v 2 h -8 v -2 h -1 -4 a 4,4 90 0 1 -4,-4 v -4 -21 z" style="fill:#7cd622;fill-opacity:1;stroke:#57ad02;stroke-width:1;stroke-linecap:round;stroke-opacity:1"/><text id="text1913" style="font-size:10px;font-family:sans-serif;text-anchor:end;fill:#000"><tspan id="tspan1911" x="46.333" y="24">pitch</tspan></text><text id="text1917" style="font-size:6.66666651px;font-family:sans-serif;text-anchor:end;fill:#000"><tspan id="tspan1915" x="46.333" y="11.25">name</tspan></text><text id="text1921" style="font-size:6.66666651px;font-family:sans-serif;text-anchor:end;fill:#000"><tspan id="tspan1919" x="46.333" y="32.25">octave</tspan></text></g></g><g id="g1935" transform="translate(100.5,418.92154)"><g id="g1933" transform="scale(1.5)"><path id="path1927" d="m 8.5,0.5 h 60 v 20 h -60 v -8 -1 h -6 v 3 h -2 v -8 h 2 v 3 h 6 v -1 z" style="fill:#7cd622;fill-opacity:1;stroke:#57ad02;stroke-width:1;stroke-linecap:round;stroke-opacity:1"/><text id="text1931" style="font-size:10px;font-family:sans-serif;text-anchor:start;fill:#000"><tspan id="tspan1929" x="13.333" y="13.833">sol</tspan></text></g></g><g id="g1945" transform="translate(100.5,450.42154)"><g id="g1943" transform="scale(1.5)"><path id="path1937" d="m 8.5,0.5 h 60 v 20 h -60 v -8 -1 h -6 v 3 h -2 v -8 h 2 v 3 h 6 v -1 z" style="fill:#ff6ea1;fill-opacity:1;stroke:#ff2c76;stroke-width:1;stroke-linecap:round;stroke-opacity:1"/><text id="text1941" style="font-size:10px;font-family:sans-serif;text-anchor:start;fill:#000"><tspan id="tspan1939" x="13.333" y="13.833">4</tspan></text></g></g></svg>