<svg xmlns="http://www.w3.org/2000/svg" xmlns:svg="http://www.w3.org/2000/svg" id="svg3641" width="315.207" height="333.843" version="1.1"><metadata id="metadata3670"/><g id="g1873" transform="translate(13.5,229.92154)"><g id="g1871" transform="scale(1.5)"><path id="path1857" d="m 0.5,8.5 v -4 a 4,4 90 0 1 4,-4 h 4 v 2 h 10 v -2 h 56.137695 4 a 4,4 90 0 1 4,4 v 4 h -4 v -3 h -4 v 10 h 4 v -3 h 4 v 17 h -4 v -3 h -4 v 10 h 4 v -3 h 4 v 4 a 4,4 90 0 1 -4,4 h -4 H 18.5 h -1 v 2 h -8 v -2 h -1 -4 a 4,4 90 0 1 -4,-4 v -4 -21 z" style="fill:#92a9ff;fill-opacity:1;stroke:#5370dc;stroke-width:1;stroke-linecap:round;stroke-opacity:1"/><text id="text1861" style="font-size:10px;font-family:sans-serif;text-anchor:end;fill:#000"><tspan id="tspan1859" x="72.471" y="24">simple tuplet</tspan></text><text id="text1865" style="font-size:6.66666651px;font-family:sans-serif;text-anchor:end;fill:#000"><tspan id="tspan1863" x="72.471" y="11.25">number of notes</tspan></text><text id="text1869" style="font-size:6.66666651px;font-family:sans-serif;text-anchor:end;fill:#000"><tspan id="tspan1867" x="72.471" y="32.25">note value</tspan></text></g></g><g id="g1883" transform="translate(126.20654,229.92154)"><g id="g1881" transform="scale(1.5)"><path id="path1875" d="m 8.5,0.5 h 60 v 20 h -60 v -8 -1 h -6 v 3 h -2 v -8 h 2 v 3 h 6 v -1 z" style="fill:#ff6ea1;fill-opacity:1;stroke:#ff2c76;stroke-width:1;stroke-linecap:round;stroke-opacity:1"/><text id="text1879" style="font-size:10px;font-family:sans-serif;text-anchor:start;fill:#000"><tspan id="tspan1877" x="13.333" y="13.833">3</tspan></text></g></g><g id="g1901" transform="translate(126.20654,261.42154)"><g id="g1899" transform="scale(1.5)"><path id="path1885" d="m 8.5,8.5 v -4 a 4,4 90 0 1 4,-4 h 4 10 30 4 a 4,4 90 0 1 4,4 v 4 h -4 v -3 h -4 v 10 h 4 v -3 h 4 v 17 h -4 v -3 h -4 v 10 h 4 v -3 h 4 v 4 a 4,4 90 0 1 -4,4 h -4 -30 -10 -4 a 4,4 90 0 1 -4,-4 v -4 -21 -1 h -6 v 3 h -2 v -8 h 2 v 3 h 6 z" style="fill:#ff6ea1;fill-opacity:1;stroke:#ff2c76;stroke-width:1;stroke-linecap:round;stroke-opacity:1"/><text id="text1889" style="font-size:14px;font-family:sans-serif;text-anchor:end;fill:#000"><tspan id="tspan1887" x="54.333" y="23.8">/</tspan></text></g></g><g id="g1911" transform="translate(211.70654,261.42154)"><g id="g1909" transform="scale(1.5)"><path id="path1903" d="m 8.5,0.5 h 60 v 20 h -60 v -8 -1 h -6 v 3 h -2 v -8 h 2 v 3 h 6 v -1 z" style="fill:#ff6ea1;fill-opacity:1;stroke:#ff2c76;stroke-width:1;stroke-linecap:round;stroke-opacity:1"/><text id="text1907" style="font-size:10px;font-family:sans-serif;text-anchor:start;fill:#000"><tspan id="tspan1905" x="13.333" y="13.833">1</tspan></text></g></g><g id="g1921" transform="translate(211.70654,292.92154)"><g id="g1919" transform="scale(1.5)"><path id="path1913" d="m 8.5,0.5 h 60 v 20 h -60 v -8 -1 h -6 v 3 h -2 v -8 h 2 v 3 h 6 v -1 z" style="fill:#ff6ea1;fill-opacity:1;stroke:#ff2c76;stroke-width:1;stroke-linecap:round;stroke-opacity:1"/><text id="text1917" style="font-size:10px;font-family:sans-serif;text-anchor:start;fill:#000"><tspan id="tspan1915" x="13.333" y="13.833">4</tspan></text></g></g><path id="path1923" d="m 0.75,22.17154 v -6 a 6,6 0 0 1 6,-6 h 6 l 7.5,-9 7.5,9 h 13.5 95.01709 6 a 6,6 0 0 1 6,6 v 6 6 6 a 6,6 0 0 1 -6,6 h -6 H 41.25 39.75 v 3 h -12 v -3 h -1.5 -6 a 7.5,7.5 0 0 0 -7.5,7.5 v 6 6 220.5 6 a 7.5,7.5 0 0 0 7.5,7.5 h 6 v 3 h 15 v -3 h 12 v 9 9 6 a 6,6 0 0 1 -6,6 h -6 -13.5 l -7.5,9 -7.5,-9 h -6 a 6,6 0 0 1 -6,-6 v -6 z" style="fill:#7cd622;fill-opacity:1;stroke:#57ad02;stroke-width:1.5;stroke-linecap:round;stroke-opacity:1"/><text id="text1927" y=".422" style="font-size:15px;font-family:sans-serif;text-anchor:start;fill:#000;stroke-width:1.5"><tspan id="tspan1925" x="8" y="32.672" style="stroke-width:1.5">phrase maker</tspan></text><g id="g1949" transform="translate(13.5,40.92154)"><g id="g1947" transform="scale(1.5)"><path id="path1933" d="m 0.5,8.5 v -4 a 4,4 90 0 1 4,-4 h 4 v 2 h 10 v -2 h 30 4 a 4,4 90 0 1 4,4 v 4 h -4 v -3 h -4 v 10 h 4 v -3 h 4 v 17 h -4 v -3 h -4 v 10 h 4 v -3 h 4 v 4 a 4,4 90 0 1 -4,4 h -4 -30 -1 v 2 h -8 v -2 h -1 -4 a 4,4 90 0 1 -4,-4 v -4 -21 z" style="fill:#7cd622;fill-opacity:1;stroke:#57ad02;stroke-width:1;stroke-linecap:round;stroke-opacity:1"/><text id="text1937" style="font-size:10px;font-family:sans-serif;text-anchor:end;fill:#000"><tspan id="tspan1935" x="46.333" y="24">pitch</tspan></text><text id="text1941" style="font-size:6.66666651px;font-family:sans-serif;text-anchor:end;fill:#000"><tspan id="tspan1939" x="46.333" y="11.25">name</tspan></text><text id="text1945" style="font-size:6.66666651px;font-family:sans-serif;text-anchor:end;fill:#000"><tspan id="tspan1943" x="46.333" y="32.25">octave</tspan></text></g></g><g id="g1959" transform="translate(87,40.92154)"><g id="g1957" transform="scale(1.5)"><path id="path1951" d="m 8.5,0.5 h 60 v 20 h -60 v -8 -1 h -6 v 3 h -2 v -8 h 2 v 3 h 6 v -1 z" style="fill:#7cd622;fill-opacity:1;stroke:#57ad02;stroke-width:1;stroke-linecap:round;stroke-opacity:1"/><text id="text1955" style="font-size:10px;font-family:sans-serif;text-anchor:start;fill:#000"><tspan id="tspan1953" x="13.333" y="13.833">sol</tspan></text></g></g><g id="g1969" transform="translate(87,72.42154)"><g id="g1967" transform="scale(1.5)"><path id="path1961" d="m 8.5,0.5 h 60 v 20 h -60 v -8 -1 h -6 v 3 h -2 v -8 h 2 v 3 h 6 v -1 z" style="fill:#ff6ea1;fill-opacity:1;stroke:#ff2c76;stroke-width:1;stroke-linecap:round;stroke-opacity:1"/><text id="text1965" style="font-size:10px;font-family:sans-serif;text-anchor:start;fill:#000"><tspan id="tspan1963" x="13.333" y="13.833">4</tspan></text></g></g><g id="g1987" transform="translate(13.5,103.92154)"><g id="g1985" transform="scale(1.5)"><path id="path1971" d="m 0.5,8.5 v -4 a 4,4 90 0 1 4,-4 h 4 v 2 h 10 v -2 h 30 4 a 4,4 90 0 1 4,4 v 4 h -4 v -3 h -4 v 10 h 4 v -3 h 4 v 17 h -4 v -3 h -4 v 10 h 4 v -3 h 4 v 4 a 4,4 90 0 1 -4,4 h -4 -30 -1 v 2 h -8 v -2 h -1 -4 a 4,4 90 0 1 -4,-4 v -4 -21 z" style="fill:#7cd622;fill-opacity:1;stroke:#57ad02;stroke-width:1;stroke-linecap:round;stroke-opacity:1"/><text id="text1975" style="font-size:10px;font-family:sans-serif;text-anchor:end;fill:#000"><tspan id="tspan1973" x="46.333" y="24">pitch</tspan></text><text id="text1979" style="font-size:6.66666651px;font-family:sans-serif;text-anchor:end;fill:#000"><tspan id="tspan1977" x="46.333" y="11.25">name</tspan></text><text id="text1983" style="font-size:6.66666651px;font-family:sans-serif;text-anchor:end;fill:#000"><tspan id="tspan1981" x="46.333" y="32.25">octave</tspan></text></g></g><g id="g1997" transform="translate(87,103.92154)"><g id="g1995" transform="scale(1.5)"><path id="path1989" d="m 8.5,0.5 h 60 v 20 h -60 v -8 -1 h -6 v 3 h -2 v -8 h 2 v 3 h 6 v -1 z" style="fill:#7cd622;fill-opacity:1;stroke:#57ad02;stroke-width:1;stroke-linecap:round;stroke-opacity:1"/><text id="text1993" style="font-size:10px;font-family:sans-serif;text-anchor:start;fill:#000"><tspan id="tspan1991" x="13.333" y="13.833">mi</tspan></text></g></g><g id="g2007" transform="translate(87,135.42154)"><g id="g2005" transform="scale(1.5)"><path id="path1999" d="m 8.5,0.5 h 60 v 20 h -60 v -8 -1 h -6 v 3 h -2 v -8 h 2 v 3 h 6 v -1 z" style="fill:#ff6ea1;fill-opacity:1;stroke:#ff2c76;stroke-width:1;stroke-linecap:round;stroke-opacity:1"/><text id="text2003" style="font-size:10px;font-family:sans-serif;text-anchor:start;fill:#000"><tspan id="tspan2001" x="13.333" y="13.833">4</tspan></text></g></g><g id="g2025" transform="translate(13.5,166.92154)"><g id="g2023" transform="scale(1.5)"><path id="path2009" d="m 0.5,8.5 v -4 a 4,4 90 0 1 4,-4 h 4 v 2 h 10 v -2 h 30 4 a 4,4 90 0 1 4,4 v 4 h -4 v -3 h -4 v 10 h 4 v -3 h 4 v 17 h -4 v -3 h -4 v 10 h 4 v -3 h 4 v 4 a 4,4 90 0 1 -4,4 h -4 -30 -1 v 2 h -8 v -2 h -1 -4 a 4,4 90 0 1 -4,-4 v -4 -21 z" style="fill:#7cd622;fill-opacity:1;stroke:#57ad02;stroke-width:1;stroke-linecap:round;stroke-opacity:1"/><text id="text2013" style="font-size:10px;font-family:sans-serif;text-anchor:end;fill:#000"><tspan id="tspan2011" x="46.333" y="24">pitch</tspan></text><text id="text2017" style="font-size:6.66666651px;font-family:sans-serif;text-anchor:end;fill:#000"><tspan id="tspan2015" x="46.333" y="11.25">name</tspan></text><text id="text2021" style="font-size:6.66666651px;font-family:sans-serif;text-anchor:end;fill:#000"><tspan id="tspan2019" x="46.333" y="32.25">octave</tspan></text></g></g><g id="g2035" transform="translate(87,166.92154)"><g id="g2033" transform="scale(1.5)"><path id="path2027" d="m 8.5,0.5 h 60 v 20 h -60 v -8 -1 h -6 v 3 h -2 v -8 h 2 v 3 h 6 v -1 z" style="fill:#7cd622;fill-opacity:1;stroke:#57ad02;stroke-width:1;stroke-linecap:round;stroke-opacity:1"/><text id="text2031" style="font-size:10px;font-family:sans-serif;text-anchor:start;fill:#000"><tspan id="tspan2029" x="13.333" y="13.833">re</tspan></text></g></g><g id="g2045" transform="translate(87,198.42154)"><g id="g2043" transform="scale(1.5)"><path id="path2037" d="m 8.5,0.5 h 60 v 20 h -60 v -8 -1 h -6 v 3 h -2 v -8 h 2 v 3 h 6 v -1 z" style="fill:#ff6ea1;fill-opacity:1;stroke:#ff2c76;stroke-width:1;stroke-linecap:round;stroke-opacity:1"/><text id="text2041" style="font-size:10px;font-family:sans-serif;text-anchor:start;fill:#000"><tspan id="tspan2039" x="13.333" y="13.833">4</tspan></text></g></g></svg>