<svg xmlns="http://www.w3.org/2000/svg" xmlns:svg="http://www.w3.org/2000/svg" id="svg3641" width="291.842" height="459.843" version="1.1"><metadata id="metadata3670"/><path id="path1321" d="m 0.75,22.171537 v -6 a 6,6 0 0 1 6,-6 h 6 l 7.5,-8.9999996 7.5,8.9999996 h 13.5 95.01709 6 a 6,6 0 0 1 6,6 v 6 6 6 a 6,6 0 0 1 -6,6 h -6 H 41.25 39.75 v 3 h -12 v -3 h -1.5 -6 a 7.5,7.5 0 0 0 -7.5,7.5 v 6 6 346.500003 6 a 7.5,7.5 0 0 0 7.5,7.5 h 6 v 3 h 15 v -3 h 12 v 9 9 6 a 6,6 0 0 1 -6,6 h -6 -13.5 l -7.5,9 -7.5,-9 h -6 a 6,6 0 0 1 -6,-6 v -6 z" style="fill:#7cd622;fill-opacity:1;stroke:#57ad02;stroke-width:1.5;stroke-linecap:round;stroke-opacity:1"/><text id="text1325" y=".422" style="font-size:15px;font-family:sans-serif;text-anchor:start;fill:#000;stroke-width:1.5"><tspan id="tspan1323" x="8" y="32.672" style="stroke-width:1.5">phrase maker</tspan></text><g id="g1339" transform="translate(87,103.92154)"><g id="g1337" transform="scale(1.5)"><path id="path1331" d="m 8.5,0.5 h 60 v 20 h -60 v -8 -1 h -6 v 3 h -2 v -8 h 2 v 3 h 6 v -1 z" style="fill:#7cd622;fill-opacity:1;stroke:#57ad02;stroke-width:1;stroke-linecap:round;stroke-opacity:1"/><text id="text1335" style="font-size:10px;font-family:sans-serif;text-anchor:start;fill:#000"><tspan id="tspan1333" x="13.333" y="13.833">sol</tspan></text></g></g><g id="g1349" transform="translate(87,135.42154)"><g id="g1347" transform="scale(1.5)"><path id="path1341" d="m 8.5,0.5 h 60 v 20 h -60 v -8 -1 h -6 v 3 h -2 v -8 h 2 v 3 h 6 v -1 z" style="fill:#ff6ea1;fill-opacity:1;stroke:#ff2c76;stroke-width:1;stroke-linecap:round;stroke-opacity:1"/><text id="text1345" style="font-size:10px;font-family:sans-serif;text-anchor:start;fill:#000"><tspan id="tspan1343" x="13.333" y="13.833">5</tspan></text></g></g><g id="g1363" transform="translate(27,198.42154)"><g id="g1361" transform="scale(1.5)"><path id="path1351" d="m 0.5,8.5 v -4 a 4,4 90 0 1 4,-4 h 4 v 2 h 10 v -2 h 71.972656 4 a 4,4 90 0 1 4,4 v 4 h -4 v -3 h -4 v 10 h 4 v -3 h 4 v 4 a 4,4 90 0 1 -4,4 h -4 H 18.5 h -1 v 2 h -8 v -2 h -1 -4 a 4,4 90 0 1 -4,-4 v -4 z" style="fill:#7cd622;fill-opacity:1;stroke:#57ad02;stroke-width:1;stroke-linecap:round;stroke-opacity:1"/><text id="text1355" style="font-size:10px;font-family:sans-serif;text-anchor:end;fill:#000"><tspan id="tspan1353" x="88.306" y="13.5">scalar step (+/–)</tspan></text></g></g><g id="g1373" transform="translate(163.45898,198.42154)"><g id="g1371" transform="scale(1.5)"><path id="path1365" d="m 8.5,0.5 h 60 v 20 h -60 v -8 -1 h -6 v 3 h -2 v -8 h 2 v 3 h 6 v -1 z" style="fill:#ff6ea1;fill-opacity:1;stroke:#ff2c76;stroke-width:1;stroke-linecap:round;stroke-opacity:1"/><text id="text1369" style="font-size:10px;font-family:sans-serif;text-anchor:start;fill:#000"><tspan id="tspan1367" x="13.333" y="13.833">-1</tspan></text></g></g><path id="path1375" d="m 14.25,53.671537 v -6 a 6,6 0 0 1 6,-6 h 6 v 3 h 15 v -3 h 47.519531 6 a 6,6 0 0 1 5.999999,6 v 6 h -5.999999 v -4.5 h -6 v 15 h 6 v -4.5 h 5.999999 v 25.5 h -5.999999 v -4.5 h -6 v 15 h 6 v -4.5 h 5.999999 v 6 a 6,6 0 0 1 -5.999999,6.000003 h -6 H 41.25 39.75 v 3 h -12 v -3 h -1.5 -6 a 6,6 0 0 1 -6,-6.000003 v -6 -31.5 z" style="fill:#3edcdd;fill-opacity:1;stroke:#1dbcbd;stroke-width:1.5;stroke-linecap:round;stroke-opacity:1"/><text id="text1379" x="13.5" y="40.922" style="font-size:15px;font-family:sans-serif;text-anchor:end;fill:#000;stroke-width:1.5"><tspan id="tspan1377" x="85.52" y="76.922" style="stroke-width:1.5">set key</tspan></text><text id="text1383" x="13.5" y="40.922" style="font-size:10px;font-family:sans-serif;text-anchor:end;fill:#000;stroke-width:1.5"><tspan id="tspan1381" x="85.52" y="57.797" style="stroke-width:1.5">key</tspan></text><text id="text1387" x="13.5" y="40.922" style="font-size:10px;font-family:sans-serif;text-anchor:end;fill:#000;stroke-width:1.5"><tspan id="tspan1385" x="85.52" y="89.297" style="stroke-width:1.5">mode</tspan></text><g id="g1401" transform="translate(89.51953,40.921537)"><g id="g1399" transform="scale(1.5)"><path id="path1393" d="m 8.5,0.5 h 60 v 20 h -60 v -8 -1 h -6 v 3 h -2 v -8 h 2 v 3 h 6 v -1 z" style="fill:#7cd622;fill-opacity:1;stroke:#57ad02;stroke-width:1;stroke-linecap:round;stroke-opacity:1"/><text id="text1397" style="font-size:10px;font-family:sans-serif;text-anchor:start;fill:#000"><tspan id="tspan1395" x="13.333" y="13.833">G</tspan></text></g></g><g id="g1411" transform="translate(89.51953,72.421541)"><g id="g1409" transform="scale(1.5)"><path id="path1403" d="m 8.5,0.5 h 60 v 20 h -60 v -8 -1 h -6 v 3 h -2 v -8 h 2 v 3 h 6 v -1 z" style="fill:#7cd622;fill-opacity:1;stroke:#57ad02;stroke-width:1;stroke-linecap:round;stroke-opacity:1"/><text id="text1407" style="font-size:10px;font-family:sans-serif;text-anchor:start;fill:#000"><tspan id="tspan1405" x="13.333" y="13.833">major</tspan></text></g></g><g id="g1425" transform="translate(13.5,166.92154)"><g id="g1423" transform="scale(1.5)"><path id="path1413" d="m 0.5,8.5 v -4 a 4,4 90 0 1 4,-4 h 4 v 2 h 10 v -2 h 9 20 4 a 4,4 90 0 1 4,4 v 4 h -4 v -3 h -4 v 10 h 4 v -3 h 4 v 4 a 4,4 90 0 1 -4,4 h -4 -20 -1 v 2 h -8 v -2 h -1 -4 a 5,5 90 0 0 -5,5 v 4 4 4 a 5,5 90 0 0 5,5 h 4 v 2 h 10 v -2 h 8 v 6 6 4 a 4,4 90 0 1 -4,4 h -4 -9 -1 v 2 h -8 v -2 h -1 -4 a 4,4 90 0 1 -4,-4 v -4 z" style="fill:#e9a066;fill-opacity:1;stroke:#b7651a;stroke-width:1;stroke-linecap:round;stroke-opacity:1"/><text id="text1417" style="font-size:10px;font-family:sans-serif;text-anchor:start;fill:#000"><tspan id="tspan1415" x="5.333" y="15.25">repeat</tspan></text></g></g><path id="path1427" d="m 98.25,167.67154 h 142.55859 v 30 H 98.25 v -12 -1.5 h -9 v 4.5 h -3 v -12 h 3 v 4.5 h 9 v -1.5 z" style="fill:#3edcdd;fill-opacity:1;stroke:#1dbcbd;stroke-width:1.5;stroke-linecap:round;stroke-opacity:1"/><text id="text1431" x="85.5" y="166.922" style="font-size:15px;font-family:sans-serif;text-anchor:start;fill:#000;stroke-width:1.5"><tspan id="tspan1429" x="105.5" y="187.672" style="stroke-width:1.5">mode length</tspan></text><g id="g1453" transform="translate(13.5,103.92154)"><g id="g1451" transform="scale(1.5)"><path id="path1437" d="m 0.5,8.5 v -4 a 4,4 90 0 1 4,-4 h 4 v 2 h 10 v -2 h 30 4 a 4,4 90 0 1 4,4 v 4 h -4 v -3 h -4 v 10 h 4 v -3 h 4 v 17 h -4 v -3 h -4 v 10 h 4 v -3 h 4 v 4 a 4,4 90 0 1 -4,4 h -4 -30 -1 v 2 h -8 v -2 h -1 -4 a 4,4 90 0 1 -4,-4 v -4 -21 z" style="fill:#7cd622;fill-opacity:1;stroke:#57ad02;stroke-width:1;stroke-linecap:round;stroke-opacity:1"/><text id="text1441" style="font-size:10px;font-family:sans-serif;text-anchor:end;fill:#000"><tspan id="tspan1439" x="46.333" y="24">pitch</tspan></text><text id="text1445" style="font-size:6.66666651px;font-family:sans-serif;text-anchor:end;fill:#000"><tspan id="tspan1443" x="46.333" y="11.25">name</tspan></text><text id="text1449" style="font-size:6.66666651px;font-family:sans-serif;text-anchor:end;fill:#000"><tspan id="tspan1447" x="46.333" y="32.25">octave</tspan></text></g></g><g id="g1471" transform="translate(13.5,261.42154)"><g id="g1469" transform="scale(1.5)"><path id="path1455" d="m 0.5,8.5 v -4 a 4,4 90 0 1 4,-4 h 4 v 2 h 10 v -2 h 40.561523 4 a 4,4 90 0 1 4,4 v 4 h -4 v -3 h -4 v 10 h 4 v -3 h 4 v 17 h -4 v -3 h -4 v 10 h 4 v -3 h 4 v 4 a 4,4 90 0 1 -4,4 h -4 H 18.5 h -1 v 2 h -8 v -2 h -1 -4 a 4,4 90 0 1 -4,-4 v -4 -21 z" style="fill:#92a9ff;fill-opacity:1;stroke:#5370dc;stroke-width:1;stroke-linecap:round;stroke-opacity:1"/><text id="text1459" style="font-size:10px;font-family:sans-serif;text-anchor:end;fill:#000"><tspan id="tspan1457" x="56.895" y="24">rhythm</tspan></text><text id="text1463" style="font-size:6.66666651px;font-family:sans-serif;text-anchor:end;fill:#000"><tspan id="tspan1461" x="56.895" y="11.25">number of notes</tspan></text><text id="text1467" style="font-size:6.66666651px;font-family:sans-serif;text-anchor:end;fill:#000"><tspan id="tspan1465" x="56.895" y="32.25">note value</tspan></text></g></g><g id="g1481" transform="translate(102.84229,261.42154)"><g id="g1479" transform="scale(1.5)"><path id="path1473" d="m 8.5,0.5 h 60 v 20 h -60 v -8 -1 h -6 v 3 h -2 v -8 h 2 v 3 h 6 v -1 z" style="fill:#ff6ea1;fill-opacity:1;stroke:#ff2c76;stroke-width:1;stroke-linecap:round;stroke-opacity:1"/><text id="text1477" style="font-size:10px;font-family:sans-serif;text-anchor:start;fill:#000"><tspan id="tspan1475" x="13.333" y="13.833">6</tspan></text></g></g><g id="g1491" transform="translate(188.3423,292.92154)"><g id="g1489" transform="scale(1.5)"><path id="path1483" d="m 8.5,0.5 h 60 v 20 h -60 v -8 -1 h -6 v 3 h -2 v -8 h 2 v 3 h 6 v -1 z" style="fill:#ff6ea1;fill-opacity:1;stroke:#ff2c76;stroke-width:1;stroke-linecap:round;stroke-opacity:1"/><text id="text1487" style="font-size:10px;font-family:sans-serif;text-anchor:start;fill:#000"><tspan id="tspan1485" x="13.333" y="13.833">1</tspan></text></g></g><g id="g1509" transform="translate(102.84229,292.92154)"><g id="g1507" transform="scale(1.5)"><path id="path1493" d="m 8.5,8.5 v -4 a 4,4 90 0 1 4,-4 h 4 10 30 4 a 4,4 90 0 1 4,4 v 4 h -4 v -3 h -4 v 10 h 4 v -3 h 4 v 17 h -4 v -3 h -4 v 10 h 4 v -3 h 4 v 4 a 4,4 90 0 1 -4,4 h -4 -30 -10 -4 a 4,4 90 0 1 -4,-4 v -4 -21 -1 h -6 v 3 h -2 v -8 h 2 v 3 h 6 z" style="fill:#ff6ea1;fill-opacity:1;stroke:#ff2c76;stroke-width:1;stroke-linecap:round;stroke-opacity:1"/><text id="text1497" style="font-size:14px;font-family:sans-serif;text-anchor:end;fill:#000"><tspan id="tspan1495" x="54.333" y="23.8">/</tspan></text></g></g><g id="g1519" transform="translate(188.3423,324.42154)"><g id="g1517" transform="scale(1.5)"><path id="path1511" d="m 8.5,0.5 h 60 v 20 h -60 v -8 -1 h -6 v 3 h -2 v -8 h 2 v 3 h 6 v -1 z" style="fill:#ff6ea1;fill-opacity:1;stroke:#ff2c76;stroke-width:1;stroke-linecap:round;stroke-opacity:1"/><text id="text1515" style="font-size:10px;font-family:sans-serif;text-anchor:start;fill:#000"><tspan id="tspan1513" x="13.333" y="13.833">4</tspan></text></g></g><g id="g1537" transform="translate(13.5,355.92154)"><g id="g1535" transform="scale(1.5)"><path id="path1521" d="m 0.5,8.5 v -4 a 4,4 90 0 1 4,-4 h 4 v 2 h 10 v -2 h 40.561523 4 a 4,4 90 0 1 4,4 v 4 h -4 v -3 h -4 v 10 h 4 v -3 h 4 v 17 h -4 v -3 h -4 v 10 h 4 v -3 h 4 v 4 a 4,4 90 0 1 -4,4 h -4 H 18.5 h -1 v 2 h -8 v -2 h -1 -4 a 4,4 90 0 1 -4,-4 v -4 -21 z" style="fill:#92a9ff;fill-opacity:1;stroke:#5370dc;stroke-width:1;stroke-linecap:round;stroke-opacity:1"/><text id="text1525" style="font-size:10px;font-family:sans-serif;text-anchor:end;fill:#000"><tspan id="tspan1523" x="56.895" y="24">rhythm</tspan></text><text id="text1529" style="font-size:6.66666651px;font-family:sans-serif;text-anchor:end;fill:#000"><tspan id="tspan1527" x="56.895" y="11.25">number of notes</tspan></text><text id="text1533" style="font-size:6.66666651px;font-family:sans-serif;text-anchor:end;fill:#000"><tspan id="tspan1531" x="56.895" y="32.25">note value</tspan></text></g></g><g id="g1547" transform="translate(102.84229,355.92154)"><g id="g1545" transform="scale(1.5)"><path id="path1539" d="m 8.5,0.5 h 60 v 20 h -60 v -8 -1 h -6 v 3 h -2 v -8 h 2 v 3 h 6 v -1 z" style="fill:#ff6ea1;fill-opacity:1;stroke:#ff2c76;stroke-width:1;stroke-linecap:round;stroke-opacity:1"/><text id="text1543" style="font-size:10px;font-family:sans-serif;text-anchor:start;fill:#000"><tspan id="tspan1541" x="13.333" y="13.833">1</tspan></text></g></g><g id="g1557" transform="translate(188.3423,387.42154)"><g id="g1555" transform="scale(1.5)"><path id="path1549" d="m 8.5,0.5 h 60 v 20 h -60 v -8 -1 h -6 v 3 h -2 v -8 h 2 v 3 h 6 v -1 z" style="fill:#ff6ea1;fill-opacity:1;stroke:#ff2c76;stroke-width:1;stroke-linecap:round;stroke-opacity:1"/><text id="text1553" style="font-size:10px;font-family:sans-serif;text-anchor:start;fill:#000"><tspan id="tspan1551" x="13.333" y="13.833">1</tspan></text></g></g><g id="g1575" transform="translate(102.84229,387.42154)"><g id="g1573" transform="scale(1.5)"><path id="path1559" d="m 8.5,8.5 v -4 a 4,4 90 0 1 4,-4 h 4 10 30 4 a 4,4 90 0 1 4,4 v 4 h -4 v -3 h -4 v 10 h 4 v -3 h 4 v 17 h -4 v -3 h -4 v 10 h 4 v -3 h 4 v 4 a 4,4 90 0 1 -4,4 h -4 -30 -10 -4 a 4,4 90 0 1 -4,-4 v -4 -21 -1 h -6 v 3 h -2 v -8 h 2 v 3 h 6 z" style="fill:#ff6ea1;fill-opacity:1;stroke:#ff2c76;stroke-width:1;stroke-linecap:round;stroke-opacity:1"/><text id="text1563" style="font-size:14px;font-family:sans-serif;text-anchor:end;fill:#000"><tspan id="tspan1561" x="54.333" y="23.8">/</tspan></text></g></g><g id="g1585" transform="translate(188.3423,418.92154)"><g id="g1583" transform="scale(1.5)"><path id="path1577" d="m 8.5,0.5 h 60 v 20 h -60 v -8 -1 h -6 v 3 h -2 v -8 h 2 v 3 h 6 v -1 z" style="fill:#ff6ea1;fill-opacity:1;stroke:#ff2c76;stroke-width:1;stroke-linecap:round;stroke-opacity:1"/><text id="text1581" style="font-size:10px;font-family:sans-serif;text-anchor:start;fill:#000"><tspan id="tspan1579" x="13.333" y="13.833">2</tspan></text></g></g><path id="path1587" d="m 14.25,337.17154 v -6 a 6,6 0 0 1 6,-6 h 6 v 3 h 15 v -3 h 30 6 a 6,6 0 0 1 6,6 v 6 6 6 a 6,6 0 0 1 -6,6 h -6 -30 -1.5 v 3 h -12 v -3 h -1.5 -6 a 6,6 0 0 1 -6,-6 v -6 z" style="fill:#c4c4c4;fill-opacity:1;stroke:#a0a0a0;stroke-width:1.5;stroke-linecap:round;stroke-opacity:1"/><text id="text1591" x="13.5" y="324.422" style="font-size:15px;font-family:sans-serif;text-anchor:end;fill:#000;stroke-width:1.5"><tspan id="tspan1589" x="68" y="344.672" style="stroke-width:1.5">↓</tspan></text></svg>