<svg xmlns="http://www.w3.org/2000/svg" xmlns:svg="http://www.w3.org/2000/svg" id="svg3641" width="273.602" height="312.978" version="1.1" viewBox="0 0 273.602 312.978"><metadata id="metadata3670"/><path id="path1173" d="m 0.70312651,20.785818 v -5.625 a 5.625,5.625 0 0 1 5.62499999,-5.625 h 5.6250005 l 7.03125,-8.4375 7.03125,8.4375 h 12.65625 89.078523 5.625 a 5.625,5.625 0 0 1 5.625,5.625 v 5.625 5.625 5.625 a 5.625,5.625 0 0 1 -5.625,5.625 h -5.625 -89.078523 -1.40625 v 2.8125 h -11.25 v -2.8125 h -1.40625 -5.625 a 7.03125,7.03125 0 0 0 -7.03125,7.03125 v 5.625 5.625 206.718752 5.625 a 7.03125,7.03125 0 0 0 7.03125,7.03125 h 5.625 v 2.8125 h 14.0625 v -2.8125 h 11.25 v 8.4375 8.4375 5.625 a 5.625,5.625 0 0 1 -5.625,5.625 h -5.625 -12.65625 l -7.03125,8.4375 -7.03125,-8.4375 H 6.3281265 a 5.625,5.625 0 0 1 -5.62499999,-5.625 v -5.625 z" style="fill:#7cd622;fill-opacity:1;stroke:#57ad02;stroke-width:1.40625;stroke-linecap:round;stroke-opacity:1"/><text id="text1177" x="0" y=".395" style="font-size:14.0625px;font-family:sans-serif;text-anchor:start;fill:#000;stroke-width:1.40625"><tspan id="tspan1175" x="7.5" y="30.63" style="stroke-width:1.40625">phrase maker</tspan></text><g id="g1199" transform="matrix(0.93750001,0,0,0.93750001,12.656252,38.363943)"><g id="g1197" transform="scale(1.5)"><path id="path1183" d="m 0.5,8.5 v -4 a 4,4 90 0 1 4,-4 h 4 v 2 h 10 v -2 h 30 4 a 4,4 90 0 1 4,4 v 4 h -4 v -3 h -4 v 10 h 4 v -3 h 4 v 17 h -4 v -3 h -4 v 10 h 4 v -3 h 4 v 4 a 4,4 90 0 1 -4,4 h -4 -30 -1 v 2 h -8 v -2 h -1 -4 a 4,4 90 0 1 -4,-4 v -4 -21 z" style="fill:#7cd622;fill-opacity:1;stroke:#57ad02;stroke-width:1;stroke-linecap:round;stroke-opacity:1"/><text id="text1187" style="font-size:10px;font-family:sans-serif;text-anchor:end;fill:#000"><tspan id="tspan1185" x="46.333" y="24">pitch</tspan></text><text id="text1191" style="font-size:6.66666651px;font-family:sans-serif;text-anchor:end;fill:#000"><tspan id="tspan1189" x="46.333" y="11.25">name</tspan></text><text id="text1195" style="font-size:6.66666651px;font-family:sans-serif;text-anchor:end;fill:#000"><tspan id="tspan1193" x="46.333" y="32.25">octave</tspan></text></g></g><path id="path1201" d="m 93.515627,39.067068 h 84.375003 v 28.125 H 93.515627 v -11.25 -1.40625 h -8.4375 v 4.21875 h -2.8125 v -11.25 h 2.8125 v 4.21875 h 8.4375 v -1.40625 z" style="fill:#7cd622;fill-opacity:1;stroke:#57ad02;stroke-width:1.40625;stroke-linecap:round;stroke-opacity:1"/><text id="text1205" x="81.563" y="38.364" style="font-size:14.0625px;font-family:sans-serif;text-anchor:start;fill:#000;stroke-width:1.40625"><tspan id="tspan1203" x="100.313" y="57.817" style="stroke-width:1.40625">sol</tspan></text><g id="g1219" transform="matrix(0.93750001,0,0,0.93750001,81.562502,67.895194)"><g id="g1217" transform="scale(1.5)"><path id="path1211" d="m 8.5,0.5 h 60 v 20 h -60 v -8 -1 h -6 v 3 h -2 v -8 h 2 v 3 h 6 v -1 z" style="fill:#ff6ea1;fill-opacity:1;stroke:#ff2c76;stroke-width:1;stroke-linecap:round;stroke-opacity:1"/><text id="text1215" style="font-size:10px;font-family:sans-serif;text-anchor:start;fill:#000"><tspan id="tspan1213" x="13.333" y="13.833">4</tspan></text></g></g><g id="g1237" transform="matrix(0.93750001,0,0,0.93750001,12.656252,97.426444)"><g id="g1235" transform="scale(1.5)"><path id="path1221" d="m 0.5,8.5 v -4 a 4,4 90 0 1 4,-4 h 4 v 2 h 10 v -2 h 30 4 a 4,4 90 0 1 4,4 v 4 h -4 v -3 h -4 v 10 h 4 v -3 h 4 v 17 h -4 v -3 h -4 v 10 h 4 v -3 h 4 v 4 a 4,4 90 0 1 -4,4 h -4 -30 -1 v 2 h -8 v -2 h -1 -4 a 4,4 90 0 1 -4,-4 v -4 -21 z" style="fill:#7cd622;fill-opacity:1;stroke:#57ad02;stroke-width:1;stroke-linecap:round;stroke-opacity:1"/><text id="text1225" style="font-size:10px;font-family:sans-serif;text-anchor:end;fill:#000"><tspan id="tspan1223" x="46.333" y="24">pitch</tspan></text><text id="text1229" style="font-size:6.66666651px;font-family:sans-serif;text-anchor:end;fill:#000"><tspan id="tspan1227" x="46.333" y="11.25">name</tspan></text><text id="text1233" style="font-size:6.66666651px;font-family:sans-serif;text-anchor:end;fill:#000"><tspan id="tspan1231" x="46.333" y="32.25">octave</tspan></text></g></g><g id="g1247" transform="matrix(0.93750001,0,0,0.93750001,81.562502,97.426444)"><g id="g1245" transform="scale(1.5)"><path id="path1239" d="m 8.5,0.5 h 60 v 20 h -60 v -8 -1 h -6 v 3 h -2 v -8 h 2 v 3 h 6 v -1 z" style="fill:#7cd622;fill-opacity:1;stroke:#57ad02;stroke-width:1;stroke-linecap:round;stroke-opacity:1"/><text id="text1243" style="font-size:10px;font-family:sans-serif;text-anchor:start;fill:#000"><tspan id="tspan1241" x="13.333" y="13.833">mi</tspan></text></g></g><g id="g1257" transform="matrix(0.93750001,0,0,0.93750001,81.562502,126.95769)"><g id="g1255" transform="scale(1.5)"><path id="path1249" d="m 8.5,0.5 h 60 v 20 h -60 v -8 -1 h -6 v 3 h -2 v -8 h 2 v 3 h 6 v -1 z" style="fill:#ff6ea1;fill-opacity:1;stroke:#ff2c76;stroke-width:1;stroke-linecap:round;stroke-opacity:1"/><text id="text1253" style="font-size:10px;font-family:sans-serif;text-anchor:start;fill:#000"><tspan id="tspan1251" x="13.333" y="13.833">4</tspan></text></g></g><g id="g1275" transform="matrix(0.93750001,0,0,0.93750001,12.656252,156.48894)"><g id="g1273" transform="scale(1.5)"><path id="path1259" d="m 0.5,8.5 v -4 a 4,4 90 0 1 4,-4 h 4 v 2 h 10 v -2 h 30 4 a 4,4 90 0 1 4,4 v 4 h -4 v -3 h -4 v 10 h 4 v -3 h 4 v 17 h -4 v -3 h -4 v 10 h 4 v -3 h 4 v 4 a 4,4 90 0 1 -4,4 h -4 -30 -1 v 2 h -8 v -2 h -1 -4 a 4,4 90 0 1 -4,-4 v -4 -21 z" style="fill:#7cd622;fill-opacity:1;stroke:#57ad02;stroke-width:1;stroke-linecap:round;stroke-opacity:1"/><text id="text1263" style="font-size:10px;font-family:sans-serif;text-anchor:end;fill:#000"><tspan id="tspan1261" x="46.333" y="24">pitch</tspan></text><text id="text1267" style="font-size:6.66666651px;font-family:sans-serif;text-anchor:end;fill:#000"><tspan id="tspan1265" x="46.333" y="11.25">name</tspan></text><text id="text1271" style="font-size:6.66666651px;font-family:sans-serif;text-anchor:end;fill:#000"><tspan id="tspan1269" x="46.333" y="32.25">octave</tspan></text></g></g><g id="g1285" transform="matrix(0.93750001,0,0,0.93750001,81.562502,156.48894)"><g id="g1283" transform="scale(1.5)"><path id="path1277" d="m 8.5,0.5 h 60 v 20 h -60 v -8 -1 h -6 v 3 h -2 v -8 h 2 v 3 h 6 v -1 z" style="fill:#7cd622;fill-opacity:1;stroke:#57ad02;stroke-width:1;stroke-linecap:round;stroke-opacity:1"/><text id="text1281" style="font-size:10px;font-family:sans-serif;text-anchor:start;fill:#000"><tspan id="tspan1279" x="13.333" y="13.833">re</tspan></text></g></g><g id="g1295" transform="matrix(0.93750001,0,0,0.93750001,81.562502,186.02019)"><g id="g1293" transform="scale(1.5)"><path id="path1287" d="m 8.5,0.5 h 60 v 20 h -60 v -8 -1 h -6 v 3 h -2 v -8 h 2 v 3 h 6 v -1 z" style="fill:#ff6ea1;fill-opacity:1;stroke:#ff2c76;stroke-width:1;stroke-linecap:round;stroke-opacity:1"/><text id="text1291" style="font-size:10px;font-family:sans-serif;text-anchor:start;fill:#000"><tspan id="tspan1289" x="13.333" y="13.833">4</tspan></text></g></g><g id="g1313" transform="matrix(0.93750001,0,0,0.93750001,12.656252,215.55145)"><g id="g1311" transform="scale(1.5)"><path id="path1297" d="m 0.5,8.5 v -4 a 4,4 90 0 1 4,-4 h 4 v 2 h 10 v -2 h 40.561523 4 a 4,4 90 0 1 4,4 v 4 h -4 v -3 h -4 v 10 h 4 v -3 h 4 v 17 h -4 v -3 h -4 v 10 h 4 v -3 h 4 v 4 a 4,4 90 0 1 -4,4 h -4 H 18.5 h -1 v 2 h -8 v -2 h -1 -4 a 4,4 90 0 1 -4,-4 v -4 -21 z" style="fill:#92a9ff;fill-opacity:1;stroke:#5370dc;stroke-width:1;stroke-linecap:round;stroke-opacity:1"/><text id="text1301" style="font-size:10px;font-family:sans-serif;text-anchor:end;fill:#000"><tspan id="tspan1299" x="56.895" y="24">rhythm</tspan></text><text id="text1305" style="font-size:6.66666651px;font-family:sans-serif;text-anchor:end;fill:#000"><tspan id="tspan1303" x="56.895" y="11.25">number of notes</tspan></text><text id="text1309" style="font-size:6.66666651px;font-family:sans-serif;text-anchor:end;fill:#000"><tspan id="tspan1307" x="56.895" y="32.25">note value</tspan></text></g></g><g id="g1323" transform="matrix(0.93750001,0,0,0.93750001,96.414649,215.55145)"><g id="g1321" transform="scale(1.5)"><path id="path1315" d="m 8.5,0.5 h 60 v 20 h -60 v -8 -1 h -6 v 3 h -2 v -8 h 2 v 3 h 6 v -1 z" style="fill:#ff6ea1;fill-opacity:1;stroke:#ff2c76;stroke-width:1;stroke-linecap:round;stroke-opacity:1"/><text id="text1319" style="font-size:10px;font-family:sans-serif;text-anchor:start;fill:#000"><tspan id="tspan1317" x="13.333" y="13.833">3</tspan></text></g></g><g id="g1341" transform="matrix(0.93750001,0,0,0.93750001,96.414649,245.0827)"><g id="g1339" transform="scale(1.5)"><path id="path1325" d="m 8.5,8.5 v -4 a 4,4 90 0 1 4,-4 h 4 10 30 4 a 4,4 90 0 1 4,4 v 4 h -4 v -3 h -4 v 10 h 4 v -3 h 4 v 17 h -4 v -3 h -4 v 10 h 4 v -3 h 4 v 4 a 4,4 90 0 1 -4,4 h -4 -30 -10 -4 a 4,4 90 0 1 -4,-4 v -4 -21 -1 h -6 v 3 h -2 v -8 h 2 v 3 h 6 z" style="fill:#ff6ea1;fill-opacity:1;stroke:#ff2c76;stroke-width:1;stroke-linecap:round;stroke-opacity:1"/><text id="text1329" style="font-size:14px;font-family:sans-serif;text-anchor:end;fill:#000"><tspan id="tspan1327" x="54.333" y="23.8">/</tspan></text></g></g><g id="g1351" transform="matrix(0.93750001,0,0,0.93750001,176.5709,245.0827)"><g id="g1349" transform="scale(1.5)"><path id="path1343" d="m 8.5,0.5 h 60 v 20 h -60 v -8 -1 h -6 v 3 h -2 v -8 h 2 v 3 h 6 v -1 z" style="fill:#ff6ea1;fill-opacity:1;stroke:#ff2c76;stroke-width:1;stroke-linecap:round;stroke-opacity:1"/><text id="text1347" style="font-size:10px;font-family:sans-serif;text-anchor:start;fill:#000"><tspan id="tspan1345" x="13.333" y="13.833">1</tspan></text></g></g><g id="g1361" transform="matrix(0.93750001,0,0,0.93750001,176.5709,274.61395)"><g id="g1359" transform="scale(1.5)"><path id="path1353" d="m 8.5,0.5 h 60 v 20 h -60 v -8 -1 h -6 v 3 h -2 v -8 h 2 v 3 h 6 v -1 z" style="fill:#ff6ea1;fill-opacity:1;stroke:#ff2c76;stroke-width:1;stroke-linecap:round;stroke-opacity:1"/><text id="text1357" style="font-size:10px;font-family:sans-serif;text-anchor:start;fill:#000"><tspan id="tspan1355" x="13.333" y="13.833">4</tspan></text></g></g></svg>