<svg xmlns="http://www.w3.org/2000/svg" xmlns:svg="http://www.w3.org/2000/svg" id="svg4698" width="260.946" height="308.878" version="1.1" viewBox="0 0 260.946 308.878"><metadata id="metadata4703"/><g id="g1379" transform="matrix(0.93750001,0,0,0.93750001,-2.7599999e-6,3.49e-6)"><g id="g1377" transform="scale(1.5)"><path id="path1363" d="m 0.5,8.5 v -4 a 4,4 90 0 1 4,-4 h 4 v 2 h 10 v -2 h 40.561523 4 a 4,4 90 0 1 4,4 v 4 h -4 v -3 h -4 v 10 h 4 v -3 h 4 v 17 h -4 v -3 h -4 v 10 h 4 v -3 h 4 v 4 a 4,4 90 0 1 -4,4 h -4 H 18.5 h -1 v 2 h -8 v -2 h -1 -4 a 4,4 90 0 1 -4,-4 v -4 -21 z" style="fill:#92a9ff;fill-opacity:1;stroke:#5370dc;stroke-width:1;stroke-linecap:round;stroke-opacity:1"/><text id="text1367" style="font-size:10px;font-family:sans-serif;text-anchor:end;fill:#000"><tspan id="tspan1365" x="56.895" y="24">rhythm</tspan></text><text id="text1371" style="font-size:6.66666651px;font-family:sans-serif;text-anchor:end;fill:#000"><tspan id="tspan1369" x="56.895" y="11.25">number of notes</tspan></text><text id="text1375" style="font-size:6.66666651px;font-family:sans-serif;text-anchor:end;fill:#000"><tspan id="tspan1373" x="56.895" y="32.25">note value</tspan></text></g></g><g id="g1389" transform="matrix(0.93750001,0,0,0.93750001,83.758395,3.49e-6)"><g id="g1387" transform="scale(1.5)"><path id="path1381" d="m 8.5,0.5 h 60 v 20 h -60 v -8 -1 h -6 v 3 h -2 v -8 h 2 v 3 h 6 v -1 z" style="fill:#ff6ea1;fill-opacity:1;stroke:#ff2c76;stroke-width:1;stroke-linecap:round;stroke-opacity:1"/><text id="text1385" style="font-size:10px;font-family:sans-serif;text-anchor:start;fill:#000"><tspan id="tspan1383" x="13.333" y="13.833">3</tspan></text></g></g><g id="g1407" transform="matrix(0.93750001,0,0,0.93750001,83.758395,29.531254)"><g id="g1405" transform="scale(1.5)"><path id="path1391" d="m 8.5,8.5 v -4 a 4,4 90 0 1 4,-4 h 4 10 30 4 a 4,4 90 0 1 4,4 v 4 h -4 v -3 h -4 v 10 h 4 v -3 h 4 v 17 h -4 v -3 h -4 v 10 h 4 v -3 h 4 v 4 a 4,4 90 0 1 -4,4 h -4 -30 -10 -4 a 4,4 90 0 1 -4,-4 v -4 -21 -1 h -6 v 3 h -2 v -8 h 2 v 3 h 6 z" style="fill:#ff6ea1;fill-opacity:1;stroke:#ff2c76;stroke-width:1;stroke-linecap:round;stroke-opacity:1"/><text id="text1395" style="font-size:14px;font-family:sans-serif;text-anchor:end;fill:#000"><tspan id="tspan1393" x="54.333" y="23.8">/</tspan></text></g></g><g id="g1417" transform="matrix(0.93750001,0,0,0.93750001,163.91465,29.531254)"><g id="g1415" transform="scale(1.5)"><path id="path1409" d="m 8.5,0.5 h 60 v 20 h -60 v -8 -1 h -6 v 3 h -2 v -8 h 2 v 3 h 6 v -1 z" style="fill:#ff6ea1;fill-opacity:1;stroke:#ff2c76;stroke-width:1;stroke-linecap:round;stroke-opacity:1"/><text id="text1413" style="font-size:10px;font-family:sans-serif;text-anchor:start;fill:#000"><tspan id="tspan1411" x="13.333" y="13.833">1</tspan></text></g></g><g id="g1427" transform="matrix(0.93750001,0,0,0.93750001,163.91465,59.062504)"><g id="g1425" transform="scale(1.5)"><path id="path1419" d="m 8.5,0.5 h 60 v 20 h -60 v -8 -1 h -6 v 3 h -2 v -8 h 2 v 3 h 6 v -1 z" style="fill:#ff6ea1;fill-opacity:1;stroke:#ff2c76;stroke-width:1;stroke-linecap:round;stroke-opacity:1"/><text id="text1423" style="font-size:10px;font-family:sans-serif;text-anchor:start;fill:#000"><tspan id="tspan1421" x="13.333" y="13.833">4</tspan></text></g></g><g id="g1455" transform="matrix(0.93750001,0,0,0.93750001,-2.42e-6,217.47139)"><g id="g1453" transform="scale(1.5)"><path id="path1439" d="m 0.5,8.5 v -4 a 4,4 90 0 1 4,-4 h 4 v 2 h 10 v -2 h 40.561523 4 a 4,4 90 0 1 4,4 v 4 h -4 v -3 h -4 v 10 h 4 v -3 h 4 v 17 h -4 v -3 h -4 v 10 h 4 v -3 h 4 v 4 a 4,4 90 0 1 -4,4 h -4 H 18.5 h -1 v 2 h -8 v -2 h -1 -4 a 4,4 90 0 1 -4,-4 v -4 -21 z" style="fill:#92a9ff;fill-opacity:1;stroke:#5370dc;stroke-width:1;stroke-linecap:round;stroke-opacity:1"/><text id="text1443" style="font-size:10px;font-family:sans-serif;text-anchor:end;fill:#000"><tspan id="tspan1441" x="56.895" y="24">rhythm</tspan></text><text id="text1447" style="font-size:6.66666651px;font-family:sans-serif;text-anchor:end;fill:#000"><tspan id="tspan1445" x="56.895" y="11.25">number of notes</tspan></text><text id="text1451" style="font-size:6.66666651px;font-family:sans-serif;text-anchor:end;fill:#000"><tspan id="tspan1449" x="56.895" y="32.25">note value</tspan></text></g></g><g id="g1465" transform="matrix(0.93750001,0,0,0.93750001,83.758395,217.47139)"><g id="g1463" transform="scale(1.5)"><path id="path1457" d="m 8.5,0.5 h 60 v 20 h -60 v -8 -1 h -6 v 3 h -2 v -8 h 2 v 3 h 6 v -1 z" style="fill:#ff6ea1;fill-opacity:1;stroke:#ff2c76;stroke-width:1;stroke-linecap:round;stroke-opacity:1"/><text id="text1461" style="font-size:10px;font-family:sans-serif;text-anchor:start;fill:#000"><tspan id="tspan1459" x="13.333" y="13.833">7</tspan></text></g></g><g id="g1483" transform="matrix(0.93750001,0,0,0.93750001,83.758395,247.00265)"><g id="g1481" transform="scale(1.5)"><path id="path1467" d="m 8.5,8.5 v -4 a 4,4 90 0 1 4,-4 h 4 10 30 4 a 4,4 90 0 1 4,4 v 4 h -4 v -3 h -4 v 10 h 4 v -3 h 4 v 17 h -4 v -3 h -4 v 10 h 4 v -3 h 4 v 4 a 4,4 90 0 1 -4,4 h -4 -30 -10 -4 a 4,4 90 0 1 -4,-4 v -4 -21 -1 h -6 v 3 h -2 v -8 h 2 v 3 h 6 z" style="fill:#ff6ea1;fill-opacity:1;stroke:#ff2c76;stroke-width:1;stroke-linecap:round;stroke-opacity:1"/><text id="text1471" style="font-size:14px;font-family:sans-serif;text-anchor:end;fill:#000"><tspan id="tspan1469" x="54.333" y="23.8">/</tspan></text></g></g><g id="g1493" transform="matrix(0.93750001,0,0,0.93750001,163.91465,247.00265)"><g id="g1491" transform="scale(1.5)"><path id="path1485" d="m 8.5,0.5 h 60 v 20 h -60 v -8 -1 h -6 v 3 h -2 v -8 h 2 v 3 h 6 v -1 z" style="fill:#ff6ea1;fill-opacity:1;stroke:#ff2c76;stroke-width:1;stroke-linecap:round;stroke-opacity:1"/><text id="text1489" style="font-size:10px;font-family:sans-serif;text-anchor:start;fill:#000"><tspan id="tspan1487" x="13.333" y="13.833">1</tspan></text></g></g><g id="g1503" transform="matrix(0.93750001,0,0,0.93750001,163.91465,276.5339)"><g id="g1501" transform="scale(1.5)"><path id="path1495" d="m 8.5,0.5 h 60 v 20 h -60 v -8 -1 h -6 v 3 h -2 v -8 h 2 v 3 h 6 v -1 z" style="fill:#ff6ea1;fill-opacity:1;stroke:#ff2c76;stroke-width:1;stroke-linecap:round;stroke-opacity:1"/><text id="text1499" style="font-size:10px;font-family:sans-serif;text-anchor:start;fill:#000"><tspan id="tspan1497" x="13.333" y="13.833">16</tspan></text></g></g><g id="g1531" transform="matrix(0.93750001,0,0,0.93750001,3.78e-6,108.37499)"><g id="g1529" transform="scale(1.5)"><path id="path1515" d="m 0.5,8.5 v -4 a 4,4 90 0 1 4,-4 h 4 v 2 h 10 v -2 h 40.561523 4 a 4,4 90 0 1 4,4 v 4 h -4 v -3 h -4 v 10 h 4 v -3 h 4 v 17 h -4 v -3 h -4 v 10 h 4 v -3 h 4 v 4 a 4,4 90 0 1 -4,4 h -4 H 18.5 h -1 v 2 h -8 v -2 h -1 -4 a 4,4 90 0 1 -4,-4 v -4 -21 z" style="fill:#92a9ff;fill-opacity:1;stroke:#5370dc;stroke-width:1;stroke-linecap:round;stroke-opacity:1"/><text id="text1519" style="font-size:10px;font-family:sans-serif;text-anchor:end;fill:#000"><tspan id="tspan1517" x="56.895" y="24">rhythm</tspan></text><text id="text1523" style="font-size:6.66666651px;font-family:sans-serif;text-anchor:end;fill:#000"><tspan id="tspan1521" x="56.895" y="11.25">number of notes</tspan></text><text id="text1527" style="font-size:6.66666651px;font-family:sans-serif;text-anchor:end;fill:#000"><tspan id="tspan1525" x="56.895" y="32.25">note value</tspan></text></g></g><g id="g1541" transform="matrix(0.93750001,0,0,0.93750001,83.758402,108.37499)"><g id="g1539" transform="scale(1.5)"><path id="path1533" d="m 8.5,0.5 h 60 v 20 h -60 v -8 -1 h -6 v 3 h -2 v -8 h 2 v 3 h 6 v -1 z" style="fill:#ff6ea1;fill-opacity:1;stroke:#ff2c76;stroke-width:1;stroke-linecap:round;stroke-opacity:1"/><text id="text1537" style="font-size:10px;font-family:sans-serif;text-anchor:start;fill:#000"><tspan id="tspan1535" x="13.333" y="13.833">1</tspan></text></g></g><g id="g1559" transform="matrix(0.93750001,0,0,0.93750001,83.758402,137.90624)"><g id="g1557" transform="scale(1.5)"><path id="path1543" d="m 8.5,8.5 v -4 a 4,4 90 0 1 4,-4 h 4 10 30 4 a 4,4 90 0 1 4,4 v 4 h -4 v -3 h -4 v 10 h 4 v -3 h 4 v 17 h -4 v -3 h -4 v 10 h 4 v -3 h 4 v 4 a 4,4 90 0 1 -4,4 h -4 -30 -10 -4 a 4,4 90 0 1 -4,-4 v -4 -21 -1 h -6 v 3 h -2 v -8 h 2 v 3 h 6 z" style="fill:#ff6ea1;fill-opacity:1;stroke:#ff2c76;stroke-width:1;stroke-linecap:round;stroke-opacity:1"/><text id="text1547" style="font-size:14px;font-family:sans-serif;text-anchor:end;fill:#000"><tspan id="tspan1545" x="54.333" y="23.8">/</tspan></text></g></g><g id="g1569" transform="matrix(0.93750001,0,0,0.93750001,163.91465,137.90624)"><g id="g1567" transform="scale(1.5)"><path id="path1561" d="m 8.5,0.5 h 60 v 20 h -60 v -8 -1 h -6 v 3 h -2 v -8 h 2 v 3 h 6 v -1 z" style="fill:#ff6ea1;fill-opacity:1;stroke:#ff2c76;stroke-width:1;stroke-linecap:round;stroke-opacity:1"/><text id="text1565" style="font-size:10px;font-family:sans-serif;text-anchor:start;fill:#000"><tspan id="tspan1563" x="13.333" y="13.833">1</tspan></text></g></g><g id="g1579" transform="matrix(0.93750001,0,0,0.93750001,163.91465,167.43749)"><g id="g1577" transform="scale(1.5)"><path id="path1571" d="m 8.5,0.5 h 60 v 20 h -60 v -8 -1 h -6 v 3 h -2 v -8 h 2 v 3 h 6 v -1 z" style="fill:#ff6ea1;fill-opacity:1;stroke:#ff2c76;stroke-width:1;stroke-linecap:round;stroke-opacity:1"/><text id="text1575" style="font-size:10px;font-family:sans-serif;text-anchor:start;fill:#000"><tspan id="tspan1573" x="13.333" y="13.833">8</tspan></text></g></g></svg>