<svg xmlns="http://www.w3.org/2000/svg" xmlns:svg="http://www.w3.org/2000/svg" id="svg3016" width="272.5" height="129" version="1.1" viewBox="0 0 72.099 34.131"><metadata id="metadata3013"/><g id="layer1" transform="translate(-7.039807,-86.410566)"><g id="g1642" transform="matrix(0.26458333,0,0,0.26458333,7.039807,86.410566)"><g id="g1640" transform="scale(1.5)"><path id="path1626" d="m 0.5,8.5 v -4 a 4,4 90 0 1 4,-4 h 4 v 2 h 10 v -2 h 63.935547 4 a 4,4 90 0 1 4,4 v 4 h -4 v -3 h -4 v 10 h 4 v -3 h 4 v 17 h -4 v -3 h -4 v 10 h 4 v -3 h 4 v 4 a 4,4 90 0 1 -4,4 h -4 H 18.5 h -1 v 2 h -8 v -2 h -1 -4 a 4,4 90 0 1 -4,-4 v -4 -21 z" style="fill:#fe994f;fill-opacity:1;stroke:#e86b0e;stroke-width:1;stroke-linecap:round;stroke-opacity:1"/><text id="text1630" style="font-size:10px;font-family:sans-serif;text-anchor:end;fill:#282828"><tspan id="tspan1628" x="80" y="24">on strong beat</tspan></text><text id="text1634" style="font-size:6.66666651px;font-family:sans-serif;text-anchor:end;fill:#282828"><tspan id="tspan1632" x="80" y="12">beat</tspan></text><text id="text1638" style="font-size:6.66666651px;font-family:sans-serif;text-anchor:end;fill:#282828"><tspan id="tspan1636" x="80" y="33">do</tspan></text></g></g><g id="g1652" transform="matrix(0.26458333,0,0,0.26458333,39.84814,86.410566)"><g id="g1650" transform="scale(1.5)"><path id="path1644" d="m 8.5,0.5 h 60 v 20 h -60 v -8 -1 h -6 v 3 h -2 v -8 h 2 v 3 h 6 v -1 z" style="fill:#ff6ea1;fill-opacity:1;stroke:#ff2c76;stroke-width:1;stroke-linecap:round;stroke-opacity:1"/><text id="text1648" style="font-size:10px;font-family:sans-serif;text-anchor:start;fill:#282828"><tspan id="tspan1646" x="13" y="14">1</tspan></text></g></g><g id="g1662" transform="matrix(0.26458333,0,0,0.26458333,39.84814,94.877232)"><g id="g1660" transform="scale(1.5)"><path id="path1654" d="m 8.5,0.5 h 90 v 20 h -90 v -8 -1 h -6 v 3 h -2 v -8 h 2 v 3 h 6 v -1 z" style="fill:#ff664b;fill-opacity:1;stroke:#ea4326;stroke-width:1;stroke-linecap:round;stroke-opacity:1"/><text id="text1658" style="font-size:10px;font-family:sans-serif;text-anchor:start;fill:#282828"><tspan id="tspan1656" x="13" y="14">action</tspan></text></g></g><g id="g1680" transform="matrix(0.26458333,0,0,0.26458333,7.039807,103.07932)"><g id="g1678" transform="scale(1.5)"><path id="path1664" d="m 0.5,8.5 v -4 a 4,4 90 0 1 4,-4 h 4 v 2 h 10 v -2 h 63.935547 4 a 4,4 90 0 1 4,4 v 4 h -4 v -3 h -4 v 10 h 4 v -3 h 4 v 17 h -4 v -3 h -4 v 10 h 4 v -3 h 4 v 4 a 4,4 90 0 1 -4,4 h -4 H 18.5 h -1 v 2 h -8 v -2 h -1 -4 a 4,4 90 0 1 -4,-4 v -4 -21 z" style="fill:#fe994f;fill-opacity:1;stroke:#e86b0e;stroke-width:1;stroke-linecap:round;stroke-opacity:1"/><text id="text1668" style="font-size:10px;font-family:sans-serif;text-anchor:end;fill:#282828"><tspan id="tspan1666" x="80" y="24">on strong beat</tspan></text><text id="text1672" style="font-size:6.66666651px;font-family:sans-serif;text-anchor:end;fill:#282828"><tspan id="tspan1670" x="80" y="12">beat</tspan></text><text id="text1676" style="font-size:6.66666651px;font-family:sans-serif;text-anchor:end;fill:#282828"><tspan id="tspan1674" x="80" y="33">do</tspan></text></g></g><g id="g1690" transform="matrix(0.26458333,0,0,0.26458333,39.84814,103.07932)"><g id="g1688" transform="scale(1.5)"><path id="path1682" d="m 8.5,0.5 h 60 v 20 h -60 v -8 -1 h -6 v 3 h -2 v -8 h 2 v 3 h 6 v -1 z" style="fill:#ff6ea1;fill-opacity:1;stroke:#ff2c76;stroke-width:1;stroke-linecap:round;stroke-opacity:1"/><text id="text1686" style="font-size:10px;font-family:sans-serif;text-anchor:start;fill:#282828"><tspan id="tspan1684" x="13" y="14">3</tspan></text></g></g><g id="g1700" transform="matrix(0.26458333,0,0,0.26458333,39.84814,111.54598)"><g id="g1698" transform="scale(1.5)"><path id="path1692" d="m 8.5,0.5 h 90 v 20 h -90 v -8 -1 h -6 v 3 h -2 v -8 h 2 v 3 h 6 v -1 z" style="fill:#ff664b;fill-opacity:1;stroke:#ea4326;stroke-width:1;stroke-linecap:round;stroke-opacity:1"/><text id="text1696" style="font-size:10px;font-family:sans-serif;text-anchor:start;fill:#282828"><tspan id="tspan1694" x="13" y="14">action</tspan></text></g></g></g></svg>