<svg xmlns="http://www.w3.org/2000/svg" xmlns:svg="http://www.w3.org/2000/svg" id="svg5587" width="180.956" height="135.79" version="1.1" viewBox="0 0 180.956 135.79"><metadata id="metadata5592"/><path id="path849" d="m 0.70312505,20.785818 v -5.625001 a 5.6250004,5.6250004 0 0 1 5.62500035,-5.625 h 5.6250006 l 7.03125,-8.4375006 7.031251,8.4375006 h 12.656251 70.346832 5.62501 a 5.6250004,5.6250004 0 0 1 5.625,5.625 v 5.625001 5.625 5.625001 a 5.6250004,5.6250004 0 0 1 -5.625,5.625 h -5.62501 -70.346832 -1.40625 v 2.8125 H 26.015627 v -2.8125 h -1.40625 -5.625001 a 7.0312505,7.0312505 0 0 0 -7.03125,7.031251 v 5.625 5.625 29.531252 5.625001 a 7.0312505,7.0312505 0 0 0 7.03125,7.03125 h 5.625001 v 2.812497 h 14.062501 v -2.812497 h 11.250001 v 8.437497 8.4375 5.625 a 5.6250004,5.6250004 0 0 1 -5.625001,5.62501 h -5.625 -12.656251 l -7.031251,8.4375 -7.03125,-8.4375 H 6.3281254 a 5.6250004,5.6250004 0 0 1 -5.62500035,-5.62501 v -5.625 z" style="fill:#7cd622;fill-opacity:1;stroke:#57ad02;stroke-width:1.40625012;stroke-linecap:round;stroke-opacity:1"/><text id="text853" y=".395" style="font-size:14.06250095px;font-family:sans-serif;text-anchor:start;fill:#000;stroke-width:1.40625012"><tspan id="tspan851" x="7.5" y="30.63" style="stroke-width:1.40625012">custom mode</tspan></text><path id="path859" d="m 13.359385,50.317067 v -5.625001 a 5.6250004,5.6250004 0 0 1 5.625,-5.625 h 5.625001 v 2.8125 h 14.062501 v -2.8125 h 44.549563 5.625 a 5.6250004,5.6250004 0 0 1 5.625001,5.625 v 5.625001 H 88.84645 v -4.21875 h -5.625 v 14.062501 h 5.625 v -4.218751 h 5.625001 V 79.848319 H 88.84645 v -4.21875 h -5.625 V 89.69207 h 5.625 v -4.218751 h 5.625001 v 5.625001 a 5.6250004,5.6250004 0 0 1 -5.625001,5.625 h -5.625 -44.549563 -1.40625 v 2.8125 H 26.015636 v -2.8125 h -1.40625 -5.625001 a 5.6250004,5.6250004 0 0 1 -5.625,-5.625 V 85.473319 55.942067 Z" style="fill:#3edcdd;fill-opacity:1;stroke:#1dbcbd;stroke-width:1.40625012;stroke-linecap:round;stroke-opacity:1"/><text id="text863" x="12.656" y="38.364" style="font-size:14.06250095px;font-family:sans-serif;text-anchor:end;fill:#000;stroke-width:1.40625012"><tspan id="tspan861" x="80.175" y="72.114" style="stroke-width:1.40625012">set key</tspan></text><text id="text867" x="12.656" y="38.364" style="font-size:9.375px;font-family:sans-serif;text-anchor:end;fill:#000;stroke-width:1.40625012"><tspan id="tspan865" x="80.175" y="54.184" style="stroke-width:1.40625012">key</tspan></text><text id="text871" x="12.656" y="38.364" style="font-size:9.375px;font-family:sans-serif;text-anchor:end;fill:#000;stroke-width:1.40625012"><tspan id="tspan869" x="80.175" y="83.716" style="stroke-width:1.40625012">mode</tspan></text><path id="path877" d="M 95.877697,39.067066 H 180.2527 V 67.192068 H 95.877697 v -11.250001 -1.40625 h -8.437501 v 4.21875 h -2.8125 v -11.25 h 2.8125 v 4.21875 h 8.437501 v -1.40625 z" style="fill:#7cd622;fill-opacity:1;stroke:#57ad02;stroke-width:1.40625012;stroke-linecap:round;stroke-opacity:1"/><text id="text881" x="83.925" y="38.364" style="font-size:14.06250095px;font-family:sans-serif;text-anchor:start;fill:#000;stroke-width:1.40625012"><tspan id="tspan879" x="102.675" y="57.817" style="stroke-width:1.40625012">C</tspan></text><path id="path887" d="M 95.877697,68.598316 H 180.2527 V 96.723318 H 95.877697 v -11.250001 -1.40625 h -8.437501 v 4.21875 h -2.8125 v -11.25 h 2.8125 v 4.21875 h 8.437501 v -1.40625 z" style="fill:#7cd622;fill-opacity:1;stroke:#57ad02;stroke-width:1.40625012;stroke-linecap:round;stroke-opacity:1"/><text id="text891" x="83.925" y="67.895" style="font-size:14.06250095px;font-family:sans-serif;text-anchor:start;fill:#000;stroke-width:1.40625012"><tspan id="tspan889" x="102.675" y="87.348" style="stroke-width:1.40625012">major</tspan></text></svg>