<svg xmlns="http://www.w3.org/2000/svg" xmlns:svg="http://www.w3.org/2000/svg" id="svg3641" width="541.842" height="522.843" version="1.1"><metadata id="metadata3670"/><g id="g959" transform="translate(0,0.42153745)"><g id="g957" transform="scale(1.5)"><path id="path947" d="m 0.5,14.5 v -4 a 4,4 90 0 1 4,-4 h 4 l 5,-6 5,6 h 9 35 4 a 4,4 90 0 1 4,4 v 4 h -4 v -3 h -4 v 10 h 4 v -3 h 4 v 4 a 4,4 90 0 1 -4,4 h -4 -35 -1 v 2 h -8 v -2 h -1 -4 a 5,5 90 0 0 -5,5 v 4 4 273 4 a 5,5 90 0 0 5,5 h 4 v 2 h 10 v -2 h 8 v 6 6 4 a 4,4 90 0 1 -4,4 h -4 -9 l -5,6 -5,-6 h -4 a 4,4 90 0 1 -4,-4 v -4 z" style="fill:#ffbf00;fill-opacity:1;stroke:#daaf30;stroke-width:1;stroke-linecap:round;stroke-opacity:1"/><text id="text951" style="font-size:10px;font-family:sans-serif;text-anchor:start;fill:#000"><tspan id="tspan949" x="5.333" y="21.5">action</tspan></text></g></g><g id="g969" transform="translate(94.5,9.4215375)"><g id="g967" transform="scale(1.5)"><path id="path961" d="m 8.5,0.5 h 60 v 20 h -60 v -8 -1 h -6 v 3 h -2 v -8 h 2 v 3 h 6 v -1 z" style="fill:#ff6648;fill-opacity:1;stroke:#ea4326;stroke-width:1;stroke-linecap:round;stroke-opacity:1"/><text id="text965" style="font-size:10px;font-family:sans-serif;text-anchor:start;fill:#000"><tspan id="tspan963" x="13.333" y="13.833">major</tspan></text></g></g><g id="g987" transform="translate(13.5,40.921537)"><g id="g985" transform="scale(1.5)"><path id="path971" d="m 0.5,8.5 v -4 a 4,4 90 0 1 4,-4 h 4 v 2 h 10 v -2 h 30 4 a 4,4 90 0 1 4,4 v 4 h -4 v -3 h -4 v 10 h 4 v -3 h 4 v 17 h -4 v -3 h -4 v 10 h 4 v -3 h 4 v 4 a 4,4 90 0 1 -4,4 h -4 -30 -1 v 2 h -8 v -2 h -1 -4 a 4,4 90 0 1 -4,-4 v -4 -21 z" style="fill:#7cd622;fill-opacity:1;stroke:#57ad02;stroke-width:1;stroke-linecap:round;stroke-opacity:1"/><text id="text975" style="font-size:10px;font-family:sans-serif;text-anchor:end;fill:#000"><tspan id="tspan973" x="46.333" y="24">pitch</tspan></text><text id="text979" style="font-size:6.66666651px;font-family:sans-serif;text-anchor:end;fill:#000"><tspan id="tspan977" x="46.333" y="11.25">name</tspan></text><text id="text983" style="font-size:6.66666651px;font-family:sans-serif;text-anchor:end;fill:#000"><tspan id="tspan981" x="46.333" y="32.25">octave</tspan></text></g></g><g id="g997" transform="translate(87,40.921537)"><g id="g995" transform="scale(1.5)"><path id="path989" d="m 8.5,0.5 h 60 v 20 h -60 v -8 -1 h -6 v 3 h -2 v -8 h 2 v 3 h 6 v -1 z" style="fill:#7cd622;fill-opacity:1;stroke:#57ad02;stroke-width:1;stroke-linecap:round;stroke-opacity:1"/><text id="text993" style="font-size:10px;font-family:sans-serif;text-anchor:start;fill:#000"><tspan id="tspan991" x="13.333" y="13.833">ti</tspan></text></g></g><g id="g1007" transform="translate(87,72.421537)"><g id="g1005" transform="scale(1.5)"><path id="path999" d="m 8.5,0.5 h 60 v 20 h -60 v -8 -1 h -6 v 3 h -2 v -8 h 2 v 3 h 6 v -1 z" style="fill:#ff6ea1;fill-opacity:1;stroke:#ff2c76;stroke-width:1;stroke-linecap:round;stroke-opacity:1"/><text id="text1003" style="font-size:10px;font-family:sans-serif;text-anchor:start;fill:#000"><tspan id="tspan1001" x="13.333" y="13.833">4</tspan></text></g></g><g id="g1025" transform="translate(13.5,103.92154)"><g id="g1023" transform="scale(1.5)"><path id="path1009" d="m 0.5,8.5 v -4 a 4,4 90 0 1 4,-4 h 4 v 2 h 10 v -2 h 30 4 a 4,4 90 0 1 4,4 v 4 h -4 v -3 h -4 v 10 h 4 v -3 h 4 v 17 h -4 v -3 h -4 v 10 h 4 v -3 h 4 v 4 a 4,4 90 0 1 -4,4 h -4 -30 -1 v 2 h -8 v -2 h -1 -4 a 4,4 90 0 1 -4,-4 v -4 -21 z" style="fill:#7cd622;fill-opacity:1;stroke:#57ad02;stroke-width:1;stroke-linecap:round;stroke-opacity:1"/><text id="text1013" style="font-size:10px;font-family:sans-serif;text-anchor:end;fill:#000"><tspan id="tspan1011" x="46.333" y="24">pitch</tspan></text><text id="text1017" style="font-size:6.66666651px;font-family:sans-serif;text-anchor:end;fill:#000"><tspan id="tspan1015" x="46.333" y="11.25">name</tspan></text><text id="text1021" style="font-size:6.66666651px;font-family:sans-serif;text-anchor:end;fill:#000"><tspan id="tspan1019" x="46.333" y="32.25">octave</tspan></text></g></g><g id="g1035" transform="translate(87,103.92154)"><g id="g1033" transform="scale(1.5)"><path id="path1027" d="m 8.5,0.5 h 60 v 20 h -60 v -8 -1 h -6 v 3 h -2 v -8 h 2 v 3 h 6 v -1 z" style="fill:#7cd622;fill-opacity:1;stroke:#57ad02;stroke-width:1;stroke-linecap:round;stroke-opacity:1"/><text id="text1031" style="font-size:10px;font-family:sans-serif;text-anchor:start;fill:#000"><tspan id="tspan1029" x="13.333" y="13.833">la</tspan></text></g></g><g id="g1045" transform="translate(87,135.42154)"><g id="g1043" transform="scale(1.5)"><path id="path1037" d="m 8.5,0.5 h 60 v 20 h -60 v -8 -1 h -6 v 3 h -2 v -8 h 2 v 3 h 6 v -1 z" style="fill:#ff6ea1;fill-opacity:1;stroke:#ff2c76;stroke-width:1;stroke-linecap:round;stroke-opacity:1"/><text id="text1041" style="font-size:10px;font-family:sans-serif;text-anchor:start;fill:#000"><tspan id="tspan1039" x="13.333" y="13.833">4</tspan></text></g></g><g id="g1063" transform="translate(13.5,166.92154)"><g id="g1061" transform="scale(1.5)"><path id="path1047" d="m 0.5,8.5 v -4 a 4,4 90 0 1 4,-4 h 4 v 2 h 10 v -2 h 30 4 a 4,4 90 0 1 4,4 v 4 h -4 v -3 h -4 v 10 h 4 v -3 h 4 v 17 h -4 v -3 h -4 v 10 h 4 v -3 h 4 v 4 a 4,4 90 0 1 -4,4 h -4 -30 -1 v 2 h -8 v -2 h -1 -4 a 4,4 90 0 1 -4,-4 v -4 -21 z" style="fill:#7cd622;fill-opacity:1;stroke:#57ad02;stroke-width:1;stroke-linecap:round;stroke-opacity:1"/><text id="text1051" style="font-size:10px;font-family:sans-serif;text-anchor:end;fill:#000"><tspan id="tspan1049" x="46.333" y="24">pitch</tspan></text><text id="text1055" style="font-size:6.66666651px;font-family:sans-serif;text-anchor:end;fill:#000"><tspan id="tspan1053" x="46.333" y="11.25">name</tspan></text><text id="text1059" style="font-size:6.66666651px;font-family:sans-serif;text-anchor:end;fill:#000"><tspan id="tspan1057" x="46.333" y="32.25">octave</tspan></text></g></g><g id="g1073" transform="translate(87,166.92154)"><g id="g1071" transform="scale(1.5)"><path id="path1065" d="m 8.5,0.5 h 60 v 20 h -60 v -8 -1 h -6 v 3 h -2 v -8 h 2 v 3 h 6 v -1 z" style="fill:#7cd622;fill-opacity:1;stroke:#57ad02;stroke-width:1;stroke-linecap:round;stroke-opacity:1"/><text id="text1069" style="font-size:10px;font-family:sans-serif;text-anchor:start;fill:#000"><tspan id="tspan1067" x="13.333" y="13.833">sol</tspan></text></g></g><g id="g1083" transform="translate(87,198.42154)"><g id="g1081" transform="scale(1.5)"><path id="path1075" d="m 8.5,0.5 h 60 v 20 h -60 v -8 -1 h -6 v 3 h -2 v -8 h 2 v 3 h 6 v -1 z" style="fill:#ff6ea1;fill-opacity:1;stroke:#ff2c76;stroke-width:1;stroke-linecap:round;stroke-opacity:1"/><text id="text1079" style="font-size:10px;font-family:sans-serif;text-anchor:start;fill:#000"><tspan id="tspan1077" x="13.333" y="13.833">4</tspan></text></g></g><g id="g1101" transform="translate(13.5,229.92154)"><g id="g1099" transform="scale(1.5)"><path id="path1085" d="m 0.5,8.5 v -4 a 4,4 90 0 1 4,-4 h 4 v 2 h 10 v -2 h 30 4 a 4,4 90 0 1 4,4 v 4 h -4 v -3 h -4 v 10 h 4 v -3 h 4 v 17 h -4 v -3 h -4 v 10 h 4 v -3 h 4 v 4 a 4,4 90 0 1 -4,4 h -4 -30 -1 v 2 h -8 v -2 h -1 -4 a 4,4 90 0 1 -4,-4 v -4 -21 z" style="fill:#7cd622;fill-opacity:1;stroke:#57ad02;stroke-width:1;stroke-linecap:round;stroke-opacity:1"/><text id="text1089" style="font-size:10px;font-family:sans-serif;text-anchor:end;fill:#000"><tspan id="tspan1087" x="46.333" y="24">pitch</tspan></text><text id="text1093" style="font-size:6.66666651px;font-family:sans-serif;text-anchor:end;fill:#000"><tspan id="tspan1091" x="46.333" y="11.25">name</tspan></text><text id="text1097" style="font-size:6.66666651px;font-family:sans-serif;text-anchor:end;fill:#000"><tspan id="tspan1095" x="46.333" y="32.25">octave</tspan></text></g></g><g id="g1111" transform="translate(87,229.92154)"><g id="g1109" transform="scale(1.5)"><path id="path1103" d="m 8.5,0.5 h 60 v 20 h -60 v -8 -1 h -6 v 3 h -2 v -8 h 2 v 3 h 6 v -1 z" style="fill:#7cd622;fill-opacity:1;stroke:#57ad02;stroke-width:1;stroke-linecap:round;stroke-opacity:1"/><text id="text1107" style="font-size:10px;font-family:sans-serif;text-anchor:start;fill:#000"><tspan id="tspan1105" x="13.333" y="13.833">fa</tspan></text></g></g><g id="g1121" transform="translate(87,261.42154)"><g id="g1119" transform="scale(1.5)"><path id="path1113" d="m 8.5,0.5 h 60 v 20 h -60 v -8 -1 h -6 v 3 h -2 v -8 h 2 v 3 h 6 v -1 z" style="fill:#ff6ea1;fill-opacity:1;stroke:#ff2c76;stroke-width:1;stroke-linecap:round;stroke-opacity:1"/><text id="text1117" style="font-size:10px;font-family:sans-serif;text-anchor:start;fill:#000"><tspan id="tspan1115" x="13.333" y="13.833">4</tspan></text></g></g><g id="g1139" transform="translate(13.5,292.92154)"><g id="g1137" transform="scale(1.5)"><path id="path1123" d="m 0.5,8.5 v -4 a 4,4 90 0 1 4,-4 h 4 v 2 h 10 v -2 h 30 4 a 4,4 90 0 1 4,4 v 4 h -4 v -3 h -4 v 10 h 4 v -3 h 4 v 17 h -4 v -3 h -4 v 10 h 4 v -3 h 4 v 4 a 4,4 90 0 1 -4,4 h -4 -30 -1 v 2 h -8 v -2 h -1 -4 a 4,4 90 0 1 -4,-4 v -4 -21 z" style="fill:#7cd622;fill-opacity:1;stroke:#57ad02;stroke-width:1;stroke-linecap:round;stroke-opacity:1"/><text id="text1127" style="font-size:10px;font-family:sans-serif;text-anchor:end;fill:#000"><tspan id="tspan1125" x="46.333" y="24">pitch</tspan></text><text id="text1131" style="font-size:6.66666651px;font-family:sans-serif;text-anchor:end;fill:#000"><tspan id="tspan1129" x="46.333" y="11.25">name</tspan></text><text id="text1135" style="font-size:6.66666651px;font-family:sans-serif;text-anchor:end;fill:#000"><tspan id="tspan1133" x="46.333" y="32.25">octave</tspan></text></g></g><g id="g1149" transform="translate(87,292.92154)"><g id="g1147" transform="scale(1.5)"><path id="path1141" d="m 8.5,0.5 h 60 v 20 h -60 v -8 -1 h -6 v 3 h -2 v -8 h 2 v 3 h 6 v -1 z" style="fill:#7cd622;fill-opacity:1;stroke:#57ad02;stroke-width:1;stroke-linecap:round;stroke-opacity:1"/><text id="text1145" style="font-size:10px;font-family:sans-serif;text-anchor:start;fill:#000"><tspan id="tspan1143" x="13.333" y="13.833">mi</tspan></text></g></g><g id="g1159" transform="translate(87,324.42154)"><g id="g1157" transform="scale(1.5)"><path id="path1151" d="m 8.5,0.5 h 60 v 20 h -60 v -8 -1 h -6 v 3 h -2 v -8 h 2 v 3 h 6 v -1 z" style="fill:#ff6ea1;fill-opacity:1;stroke:#ff2c76;stroke-width:1;stroke-linecap:round;stroke-opacity:1"/><text id="text1155" style="font-size:10px;font-family:sans-serif;text-anchor:start;fill:#000"><tspan id="tspan1153" x="13.333" y="13.833">4</tspan></text></g></g><g id="g1177" transform="translate(13.5,355.92154)"><g id="g1175" transform="scale(1.5)"><path id="path1161" d="m 0.5,8.5 v -4 a 4,4 90 0 1 4,-4 h 4 v 2 h 10 v -2 h 30 4 a 4,4 90 0 1 4,4 v 4 h -4 v -3 h -4 v 10 h 4 v -3 h 4 v 17 h -4 v -3 h -4 v 10 h 4 v -3 h 4 v 4 a 4,4 90 0 1 -4,4 h -4 -30 -1 v 2 h -8 v -2 h -1 -4 a 4,4 90 0 1 -4,-4 v -4 -21 z" style="fill:#7cd622;fill-opacity:1;stroke:#57ad02;stroke-width:1;stroke-linecap:round;stroke-opacity:1"/><text id="text1165" style="font-size:10px;font-family:sans-serif;text-anchor:end;fill:#000"><tspan id="tspan1163" x="46.333" y="24">pitch</tspan></text><text id="text1169" style="font-size:6.66666651px;font-family:sans-serif;text-anchor:end;fill:#000"><tspan id="tspan1167" x="46.333" y="11.25">name</tspan></text><text id="text1173" style="font-size:6.66666651px;font-family:sans-serif;text-anchor:end;fill:#000"><tspan id="tspan1171" x="46.333" y="32.25">octave</tspan></text></g></g><g id="g1187" transform="translate(87,355.92154)"><g id="g1185" transform="scale(1.5)"><path id="path1179" d="m 8.5,0.5 h 60 v 20 h -60 v -8 -1 h -6 v 3 h -2 v -8 h 2 v 3 h 6 v -1 z" style="fill:#7cd622;fill-opacity:1;stroke:#57ad02;stroke-width:1;stroke-linecap:round;stroke-opacity:1"/><text id="text1183" style="font-size:10px;font-family:sans-serif;text-anchor:start;fill:#000"><tspan id="tspan1181" x="13.333" y="13.833">re</tspan></text></g></g><g id="g1197" transform="translate(87,387.42154)"><g id="g1195" transform="scale(1.5)"><path id="path1189" d="m 8.5,0.5 h 60 v 20 h -60 v -8 -1 h -6 v 3 h -2 v -8 h 2 v 3 h 6 v -1 z" style="fill:#ff6ea1;fill-opacity:1;stroke:#ff2c76;stroke-width:1;stroke-linecap:round;stroke-opacity:1"/><text id="text1193" style="font-size:10px;font-family:sans-serif;text-anchor:start;fill:#000"><tspan id="tspan1191" x="13.333" y="13.833">4</tspan></text></g></g><g id="g1215" transform="translate(13.5,418.92154)"><g id="g1213" transform="scale(1.5)"><path id="path1199" d="m 0.5,8.5 v -4 a 4,4 90 0 1 4,-4 h 4 v 2 h 10 v -2 h 30 4 a 4,4 90 0 1 4,4 v 4 h -4 v -3 h -4 v 10 h 4 v -3 h 4 v 17 h -4 v -3 h -4 v 10 h 4 v -3 h 4 v 4 a 4,4 90 0 1 -4,4 h -4 -30 -1 v 2 h -8 v -2 h -1 -4 a 4,4 90 0 1 -4,-4 v -4 -21 z" style="fill:#7cd622;fill-opacity:1;stroke:#57ad02;stroke-width:1;stroke-linecap:round;stroke-opacity:1"/><text id="text1203" style="font-size:10px;font-family:sans-serif;text-anchor:end;fill:#000"><tspan id="tspan1201" x="46.333" y="24">pitch</tspan></text><text id="text1207" style="font-size:6.66666651px;font-family:sans-serif;text-anchor:end;fill:#000"><tspan id="tspan1205" x="46.333" y="11.25">name</tspan></text><text id="text1211" style="font-size:6.66666651px;font-family:sans-serif;text-anchor:end;fill:#000"><tspan id="tspan1209" x="46.333" y="32.25">octave</tspan></text></g></g><g id="g1225" transform="translate(87,418.92154)"><g id="g1223" transform="scale(1.5)"><path id="path1217" d="m 8.5,0.5 h 60 v 20 h -60 v -8 -1 h -6 v 3 h -2 v -8 h 2 v 3 h 6 v -1 z" style="fill:#7cd622;fill-opacity:1;stroke:#57ad02;stroke-width:1;stroke-linecap:round;stroke-opacity:1"/><text id="text1221" style="font-size:10px;font-family:sans-serif;text-anchor:start;fill:#000"><tspan id="tspan1219" x="13.333" y="13.833">do</tspan></text></g></g><g id="g1235" transform="translate(87,450.42154)"><g id="g1233" transform="scale(1.5)"><path id="path1227" d="m 8.5,0.5 h 60 v 20 h -60 v -8 -1 h -6 v 3 h -2 v -8 h 2 v 3 h 6 v -1 z" style="fill:#ff6ea1;fill-opacity:1;stroke:#ff2c76;stroke-width:1;stroke-linecap:round;stroke-opacity:1"/><text id="text1231" style="font-size:10px;font-family:sans-serif;text-anchor:start;fill:#000"><tspan id="tspan1229" x="13.333" y="13.833">4</tspan></text></g></g><path id="path1237" d="m 250.75,22.171537 v -6 a 6,6 0 0 1 6,-6 h 6 l 7.5,-8.9999995 7.5,8.9999995 h 13.5 95.01709 6 a 6,6 0 0 1 6,6 v 6 6 6 a 6,6 0 0 1 -6,6 h -6 -95.01709 -1.5 v 3 h -12 v -3 h -1.5 -6 a 7.5,7.5 0 0 0 -7.5,7.5 v 6 6 63.000003 6 a 7.5,7.5 0 0 0 7.5,7.5 h 6 v 3 h 15 v -3 h 12 v 9 9 6 a 6,6 0 0 1 -6,6 h -6 -13.5 l -7.5,9 -7.5,-9 h -6 a 6,6 0 0 1 -6,-6 v -6 z" style="fill:#7cd622;fill-opacity:1;stroke:#57ad02;stroke-width:1.5;stroke-linecap:round;stroke-opacity:1"/><text id="text1241" x="250" y=".422" style="font-size:15px;font-family:sans-serif;text-anchor:start;fill:#000;stroke-width:1.5"><tspan id="tspan1239" x="258" y="32.672" style="stroke-width:1.5">phrase maker</tspan></text><g id="g1263" transform="translate(263.5,72.421537)"><g id="g1261" transform="scale(1.5)"><path id="path1247" d="m 0.5,8.5 v -4 a 4,4 90 0 1 4,-4 h 4 v 2 h 10 v -2 h 40.561523 4 a 4,4 90 0 1 4,4 v 4 h -4 v -3 h -4 v 10 h 4 v -3 h 4 v 17 h -4 v -3 h -4 v 10 h 4 v -3 h 4 v 4 a 4,4 90 0 1 -4,4 h -4 H 18.5 h -1 v 2 h -8 v -2 h -1 -4 a 4,4 90 0 1 -4,-4 v -4 -21 z" style="fill:#92a9ff;fill-opacity:1;stroke:#5370dc;stroke-width:1;stroke-linecap:round;stroke-opacity:1"/><text id="text1251" style="font-size:10px;font-family:sans-serif;text-anchor:end;fill:#000"><tspan id="tspan1249" x="56.895" y="24">rhythm</tspan></text><text id="text1255" style="font-size:6.66666651px;font-family:sans-serif;text-anchor:end;fill:#000"><tspan id="tspan1253" x="56.895" y="11.25">number of notes</tspan></text><text id="text1259" style="font-size:6.66666651px;font-family:sans-serif;text-anchor:end;fill:#000"><tspan id="tspan1257" x="56.895" y="32.25">note value</tspan></text></g></g><g id="g1273" transform="translate(352.84229,72.421537)"><g id="g1271" transform="scale(1.5)"><path id="path1265" d="m 8.5,0.5 h 60 v 20 h -60 v -8 -1 h -6 v 3 h -2 v -8 h 2 v 3 h 6 v -1 z" style="fill:#ff6ea1;fill-opacity:1;stroke:#ff2c76;stroke-width:1;stroke-linecap:round;stroke-opacity:1"/><text id="text1269" style="font-size:10px;font-family:sans-serif;text-anchor:start;fill:#000"><tspan id="tspan1267" x="13.333" y="13.833">6</tspan></text></g></g><g id="g1291" transform="translate(352.84229,103.92154)"><g id="g1289" transform="scale(1.5)"><path id="path1275" d="m 8.5,8.5 v -4 a 4,4 90 0 1 4,-4 h 4 10 30 4 a 4,4 90 0 1 4,4 v 4 h -4 v -3 h -4 v 10 h 4 v -3 h 4 v 17 h -4 v -3 h -4 v 10 h 4 v -3 h 4 v 4 a 4,4 90 0 1 -4,4 h -4 -30 -10 -4 a 4,4 90 0 1 -4,-4 v -4 -21 -1 h -6 v 3 h -2 v -8 h 2 v 3 h 6 z" style="fill:#ff6ea1;fill-opacity:1;stroke:#ff2c76;stroke-width:1;stroke-linecap:round;stroke-opacity:1"/><text id="text1279" style="font-size:14px;font-family:sans-serif;text-anchor:end;fill:#000"><tspan id="tspan1277" x="54.333" y="23.8">/</tspan></text></g></g><g id="g1301" transform="translate(438.34229,103.92154)"><g id="g1299" transform="scale(1.5)"><path id="path1293" d="m 8.5,0.5 h 60 v 20 h -60 v -8 -1 h -6 v 3 h -2 v -8 h 2 v 3 h 6 v -1 z" style="fill:#ff6ea1;fill-opacity:1;stroke:#ff2c76;stroke-width:1;stroke-linecap:round;stroke-opacity:1"/><text id="text1297" style="font-size:10px;font-family:sans-serif;text-anchor:start;fill:#000"><tspan id="tspan1295" x="13.333" y="13.833">1</tspan></text></g></g><g id="g1311" transform="translate(438.34229,135.42154)"><g id="g1309" transform="scale(1.5)"><path id="path1303" d="m 8.5,0.5 h 60 v 20 h -60 v -8 -1 h -6 v 3 h -2 v -8 h 2 v 3 h 6 v -1 z" style="fill:#ff6ea1;fill-opacity:1;stroke:#ff2c76;stroke-width:1;stroke-linecap:round;stroke-opacity:1"/><text id="text1307" style="font-size:10px;font-family:sans-serif;text-anchor:start;fill:#000"><tspan id="tspan1305" x="13.333" y="13.833">4</tspan></text></g></g><g id="g1321" transform="translate(263.5,40.921537)"><g id="g1319" transform="scale(1.5)"><path id="path1313" d="m 0.5,8.5 v -4 a 4,4 90 0 1 4,-4 h 4 v 2 h 10 v -2 h 40 4 a 4,4 90 0 1 4,4 v 4 4 4 a 4,4 90 0 1 -4,4 h -4 -40 -1 v 2 h -8 v -2 h -1 -4 a 4,4 90 0 1 -4,-4 v -4 z" style="fill:#ffbf00;fill-opacity:1;stroke:#daaf30;stroke-width:1;stroke-linecap:round;stroke-opacity:1"/><text id="text1317" style="font-size:10px;font-family:sans-serif;text-anchor:end;fill:#000"><tspan id="tspan1315" x="56.333" y="13.5">major</tspan></text></g></g></svg>