<svg xmlns="http://www.w3.org/2000/svg" xmlns:svg="http://www.w3.org/2000/svg" id="svg4455" width="285.221" height="223.5" version="1.1"><metadata id="metadata4461"/><g id="g4319"><g id="g4317" transform="scale(1.5)"><path style="fill:#fe994f;fill-opacity:1;stroke:#e8680e;stroke-width:1;stroke-linecap:round;stroke-opacity:1" id="path4307" d="m 0.5,8.5 v -4 a 4,4 90 0 1 4,-4 h 4 v 2 h 10 v -2 h 9 36.147461 4 a 4,4 90 0 1 4,4 v 4 h -4 v -3 h -4 v 10 h 4 v -3 h 4 v 4 a 4,4 90 0 1 -4,4 h -4 H 27.5 h -1 v 2 h -8 v -2 h -1 -4 a 5,5 90 0 0 -5,5 v 4 4 84 4 a 5,5 90 0 0 5,5 h 4 v 2 h 10 v -2 h 8 v 6 6 4 a 4,4 90 0 1 -4,4 h -4 -9 -1 v 2 h -8 v -2 h -1 -4 a 4,4 90 0 1 -4,-4 v -4 z"/><text style="font-size:10px;font-family:sans-serif;text-anchor:start;fill:#000" id="text4311"><tspan id="tspan4309" x="5.333" y="15.25">note value</tspan></text></g></g><g id="g4337" transform="translate(96.22119)"><g id="g4335" transform="scale(1.5)"><path style="fill:#ff6ea1;fill-opacity:1;stroke:#ff2c76;stroke-width:1;stroke-linecap:round;stroke-opacity:1" id="path4321" d="m 8.5,8.5 v -4 a 4,4 90 0 1 4,-4 h 4 10 30 4 a 4,4 90 0 1 4,4 v 4 h -4 v -3 h -4 v 10 h 4 v -3 h 4 v 17 h -4 v -3 h -4 v 10 h 4 v -3 h 4 v 4 a 4,4 90 0 1 -4,4 h -4 -30 -10 -4 a 4,4 90 0 1 -4,-4 v -4 -21 -1 h -6 v 3 h -2 v -8 h 2 v 3 h 6 z"/><text style="font-size:14px;font-family:sans-serif;text-anchor:end;fill:#000" id="text4325"><tspan id="tspan4323" x="54.333" y="23.8">/</tspan></text></g></g><g id="g4347" transform="translate(181.72119)"><g id="g4345" transform="scale(1.5)"><path style="fill:#ff6ea1;fill-opacity:1;stroke:#ff2c76;stroke-width:1;stroke-linecap:round;stroke-opacity:1" id="path4339" d="m 8.5,0.5 h 60 v 20 h -60 v -8 -1 h -6 v 3 h -2 v -8 h 2 v 3 h 6 v -1 z"/><text style="font-size:10px;font-family:sans-serif;text-anchor:start;fill:#000" id="text4343"><tspan id="tspan4341" x="13.333" y="13.833">1</tspan></text></g></g><g id="g4357" transform="translate(181.72119,31.5)"><g id="g4355" transform="scale(1.5)"><path style="fill:#ff6ea1;fill-opacity:1;stroke:#ff2c76;stroke-width:1;stroke-linecap:round;stroke-opacity:1" id="path4349" d="m 8.5,0.5 h 60 v 20 h -60 v -8 -1 h -6 v 3 h -2 v -8 h 2 v 3 h 6 v -1 z"/><text style="font-size:10px;font-family:sans-serif;text-anchor:start;fill:#000" id="text4353"><tspan id="tspan4351" x="13.333" y="13.833">4</tspan></text></g></g><path style="fill:#c4c4c4;fill-opacity:1;stroke:#a0a0a0;stroke-width:1.5;stroke-linecap:round;stroke-opacity:1" id="path4359" d="m 14.25,44.25 v -6 a 6,6 0 0 1 6,-6 h 6 v 3 h 15 v -3 h 30 6 a 6,6 0 0 1 6,6 v 6 6 6 a 6,6 0 0 1 -6,6 h -6 -30 -1.5 v 3 h -12 v -3 h -1.5 -6 a 6,6 0 0 1 -6,-6 v -6 z"/><text style="font-size:15px;font-family:sans-serif;text-anchor:end;fill:#000;stroke-width:1.5" id="text4363" x="13.5" y="31.5"><tspan id="tspan4361" x="68" y="51.75" style="stroke-width:1.5">↓</tspan></text><g id="g4385" transform="translate(13.5,63)"><g id="g4383" transform="scale(1.5)"><path style="fill:#7cd622;fill-opacity:1;stroke:#57ad02;stroke-width:1;stroke-linecap:round;stroke-opacity:1" id="path4369" d="m 0.5,8.5 v -4 a 4,4 90 0 1 4,-4 h 4 v 2 h 10 v -2 h 30 4 a 4,4 90 0 1 4,4 v 4 h -4 v -3 h -4 v 10 h 4 v -3 h 4 v 17 h -4 v -3 h -4 v 10 h 4 v -3 h 4 v 4 a 4,4 90 0 1 -4,4 h -4 -30 -1 v 2 h -8 v -2 h -1 -4 a 4,4 90 0 1 -4,-4 v -4 -21 z"/><text style="font-size:10px;font-family:sans-serif;text-anchor:end;fill:#000" id="text4373"><tspan id="tspan4371" x="46.333" y="24">pitch</tspan></text><text style="font-size:6.66666651px;font-family:sans-serif;text-anchor:end;fill:#000" id="text4377"><tspan id="tspan4375" x="46.333" y="11.25">name</tspan></text><text style="font-size:6.66666651px;font-family:sans-serif;text-anchor:end;fill:#000" id="text4381"><tspan id="tspan4379" x="46.333" y="32.25">octave</tspan></text></g></g><g id="g4395" transform="translate(87,63)"><g id="g4393" transform="scale(1.5)"><path style="fill:#7cd622;fill-opacity:1;stroke:#57ad02;stroke-width:1;stroke-linecap:round;stroke-opacity:1" id="path4387" d="m 8.5,0.5 h 60 v 20 h -60 v -8 -1 h -6 v 3 h -2 v -8 h 2 v 3 h 6 v -1 z"/><text style="font-size:10px;font-family:sans-serif;text-anchor:start;fill:#000" id="text4391"><tspan id="tspan4389" x="13.333" y="13.833">re</tspan></text></g></g><g id="g4405" transform="translate(87,94.5)"><g id="g4403" transform="scale(1.5)"><path style="fill:#ff6ea1;fill-opacity:1;stroke:#ff2c76;stroke-width:1;stroke-linecap:round;stroke-opacity:1" id="path4397" d="m 8.5,0.5 h 60 v 20 h -60 v -8 -1 h -6 v 3 h -2 v -8 h 2 v 3 h 6 v -1 z"/><text style="font-size:10px;font-family:sans-serif;text-anchor:start;fill:#000" id="text4401"><tspan id="tspan4399" x="13.333" y="13.833">5</tspan></text></g></g><path style="fill:#3edcdd;fill-opacity:1;stroke:#1dbcbd;stroke-width:1.5;stroke-linecap:round;stroke-opacity:1" id="path4407" d="m 14.25,138.75 v -6 a 6,6 0 0 1 6,-6 h 6 v 3 h 15 v -3 h 45 6 a 6,6 0 0 1 6,6 v 6 h -6 v -4.5 h -6 v 15 h 6 v -4.5 h 6 v 6 a 6,6 0 0 1 -6,6 h -6 -45 -1.5 v 3 h -12 v -3 h -1.5 -6 a 6,6 0 0 1 -6,-6 v -6 z"/><text style="font-size:15px;font-family:sans-serif;text-anchor:end;fill:#000;stroke-width:1.5" id="text4411" x="13.5" y="126"><tspan id="tspan4409" x="83" y="146.25" style="stroke-width:1.5">drum</tspan></text><path style="fill:#3edcdd;fill-opacity:1;stroke:#1dbcbd;stroke-width:1.5;stroke-linecap:round;stroke-opacity:1" id="path4421" d="m 99.75,126.75 h 98 v 30 h -98 v -12 -1.5 h -9 v 4.5 h -3 v -12 h 3 v 4.5 h 9 v -1.5 z"/><text style="font-size:15px;font-family:sans-serif;text-anchor:start;fill:#000;stroke-width:1.5" id="text4425" x="87" y="126"><tspan id="tspan4423" x="107" y="146.75" style="stroke-width:1.5">snare drum</tspan></text><path style="fill:#3edcdd;fill-opacity:1;stroke:#1dbcbd;stroke-width:1.5;stroke-linecap:round;stroke-opacity:1" id="path4431" d="m 14.25,170.25 v -6 a 6,6 0 0 1 6,-6 h 6 v 3 h 15 v -3 h 45 6 a 6,6 0 0 1 6,6 v 6 h -6 v -4.5 h -6 v 15 h 6 v -4.5 h 6 v 6 a 6,6 0 0 1 -6,6 h -6 -45 -1.5 v 3 h -12 v -3 h -1.5 -6 a 6,6 0 0 1 -6,-6 v -6 z"/><text style="font-size:15px;font-family:sans-serif;text-anchor:end;fill:#000;stroke-width:1.5" id="text4435" x="13.5" y="157.5"><tspan id="tspan4433" x="83" y="177.75" style="stroke-width:1.5">drum</tspan></text><path style="fill:#3edcdd;fill-opacity:1;stroke:#1dbcbd;stroke-width:1.5;stroke-linecap:round;stroke-opacity:1" id="path4445" d="m 99.75,158.25 h 106 v 30 h -106 v -12 -1.5 h -9 v 4.5 h -3 v -12 h 3 v 4.5 h 9 v -1.5 z"/><text style="font-size:15px;font-family:sans-serif;text-anchor:start;fill:#000;stroke-width:1.5" id="text4449" x="87" y="157.5"><tspan id="tspan4447" x="107" y="178.25" style="stroke-width:1.5">triangle bell</tspan></text></svg>