<svg xmlns="http://www.w3.org/2000/svg" xmlns:svg="http://www.w3.org/2000/svg" id="svg2" width="300" height="325" version="1.1"><metadata id="metadata7"/><path style="fill:#ffb2b3;fill-opacity:1;stroke:none;stroke-width:25;stroke-linecap:round;stroke-miterlimit:4;stroke-dasharray:none;stroke-opacity:1" id="path1257" d="M 387.13205,-5.7176978e-5 A 175,175 0 0 1 381.16907,45.293276 L 212.13205,-5.7176978e-5 Z" transform="rotate(45)"/><path style="fill:#ffccd6;fill-opacity:1;stroke:none;stroke-width:25;stroke-linecap:round;stroke-miterlimit:4;stroke-dasharray:none;stroke-opacity:1" id="path1257-6" d="m 379.90381,-54.903866 a 175,175 0 0 1 -5.96298,45.2933335 L 204.90381,-54.903866 Z" transform="rotate(60)"/><path style="fill:#ffb2b3;fill-opacity:1;stroke:none;stroke-width:25;stroke-linecap:round;stroke-miterlimit:4;stroke-dasharray:none;stroke-opacity:1" id="path1257-8" d="m 358.71172,-106.06608 a 175,175 0 0 1 -5.96298,45.293335 L 183.71172,-106.06608 Z" transform="rotate(75)"/><path style="fill:#ffccd6;fill-opacity:1;stroke:none;stroke-width:25;stroke-linecap:round;stroke-miterlimit:4;stroke-dasharray:none;stroke-opacity:1" id="path1257-6-7" d="m 324.99998,-150.00006 a 175,175 0 0 1 -5.96298,45.29333 l -169.03702,-45.29333 z" transform="rotate(90)"/><path style="fill:#ffb2b3;fill-opacity:1;stroke:none;stroke-width:25;stroke-linecap:round;stroke-miterlimit:4;stroke-dasharray:none;stroke-opacity:1" id="path1257-2" d="m 281.06598,-183.71176 a 175,175 0 0 1 -5.96298,45.29333 l -169.03702,-45.29333 z" transform="rotate(105)"/><path style="fill:#ffccd6;fill-opacity:1;stroke:none;stroke-width:25;stroke-linecap:round;stroke-miterlimit:4;stroke-dasharray:none;stroke-opacity:1" id="path1257-6-0" d="m 229.90377,-204.90384 a 175,175 0 0 1 -5.96298,45.29333 L 54.903774,-204.90384 Z" transform="rotate(120)"/><text id="text847" x="122.126" y="318.306" xml:space="preserve" style="font-style:normal;font-weight:400;font-size:19.99999619px;line-height:12.49999714px;font-family:sans-serif;letter-spacing:0;word-spacing:0;fill:#000;fill-opacity:1;stroke:none;stroke-width:.49999991px;stroke-linecap:butt;stroke-linejoin:miter;stroke-opacity:1"><tspan id="tspan845" x="122.126" y="318.306" style="stroke-width:.49999991px">8</tspan></text><text id="text863" x="166.013" y="316.709" xml:space="preserve" style="font-style:normal;font-weight:400;font-size:19.99999619px;line-height:12.49999714px;font-family:sans-serif;letter-spacing:0;word-spacing:0;fill:#000;fill-opacity:1;stroke:none;stroke-width:.49999991px;stroke-linecap:butt;stroke-linejoin:miter;stroke-opacity:1"><tspan id="tspan861" x="166.013" y="316.709" style="stroke-width:.49999991px">4</tspan></text><text id="text875" x="241.916" y="285.465" xml:space="preserve" style="font-style:normal;font-weight:400;font-size:19.99999619px;line-height:12.49999714px;font-family:sans-serif;letter-spacing:0;word-spacing:0;fill:#000;fill-opacity:1;stroke:none;stroke-width:.49999991px;stroke-linecap:butt;stroke-linejoin:miter;stroke-opacity:1"><tspan id="tspan873" x="241.916" y="285.465" style="stroke-width:.49999991px">1</tspan></text><text id="text936" x="205.552" y="306.645" xml:space="preserve" style="font-style:normal;font-weight:400;font-size:19.99999619px;line-height:12.49999714px;font-family:sans-serif;letter-spacing:0;word-spacing:0;fill:#000;fill-opacity:1;stroke:none;stroke-width:.49999991px;stroke-linecap:butt;stroke-linejoin:miter;stroke-opacity:1"><tspan id="tspan934" x="205.552" y="306.645" style="stroke-width:.49999991px">2</tspan></text><text id="text940" x="75.691" y="307.83" xml:space="preserve" style="font-style:normal;font-weight:400;font-size:19.99999619px;line-height:12.49999714px;font-family:sans-serif;letter-spacing:0;word-spacing:0;fill:#000;fill-opacity:1;stroke:none;stroke-width:.49999991px;stroke-linecap:butt;stroke-linejoin:miter;stroke-opacity:1"><tspan id="tspan938" x="75.691" y="307.83" style="stroke-width:.49999991px">16</tspan></text><text id="text944" x="40.971" y="287.296" xml:space="preserve" style="font-style:normal;font-weight:400;font-size:19.99999619px;line-height:12.49999714px;font-family:sans-serif;letter-spacing:0;word-spacing:0;fill:#000;fill-opacity:1;stroke:none;stroke-width:.49999991px;stroke-linecap:butt;stroke-linejoin:miter;stroke-opacity:1"><tspan id="tspan942" x="40.971" y="287.296" style="stroke-width:.49999991px">32</tspan></text><path style="fill:#ffccd6;fill-opacity:1;stroke:none;stroke-width:25;stroke-linecap:round;stroke-miterlimit:4;stroke-dasharray:none;stroke-opacity:1" id="path1069" d="M 362.13205,-4.5776367e-5 A 150,150 0 0 1 212.13205,149.99995 l 0,-149.999995776367 z" transform="rotate(45)"/><path style="fill:#ffb2b3;fill-opacity:1;stroke:none;stroke-width:25;stroke-linecap:round;stroke-miterlimit:4;stroke-dasharray:none;stroke-opacity:1" id="path1069-0" d="M 150,-212.13203 A 150,150 0 0 1 4.0192345e-6,-62.132034 L 0,-212.13203 Z" transform="rotate(135)"/><path style="fill:#ffccd6;fill-opacity:1;stroke:none;stroke-width:25;stroke-linecap:round;stroke-miterlimit:4;stroke-dasharray:none;stroke-opacity:1" id="path1069-6" d="M -62.132034,0 A 150,150 0 0 1 -212.13203,150 l 0,-150 z" transform="rotate(-135)"/><path style="fill:#ffb2b3;fill-opacity:1;stroke:none;stroke-width:25;stroke-linecap:round;stroke-miterlimit:4;stroke-dasharray:none;stroke-opacity:1" id="path1069-2" d="m 150.00002,212.13205 a 150,150 0 0 1 -150.000000721976,150 l -4.019235e-6,-150 z" transform="rotate(-45)"/><g id="g1190" transform="translate(-47.995587,-46.854898)"><path style="fill:gray;fill-opacity:1;stroke:none;stroke-width:.49999991;stroke-linecap:round;stroke-miterlimit:4;stroke-dasharray:none;stroke-opacity:1" id="path926" d="m 198.39386,150.00003 a 50,49.99998 0 0 1 43.30127,24.99999 50,49.99998 0 0 1 0,49.99998 50,49.99998 0 0 1 -43.30127,24.99999 v -49.99998 z"/><path style="fill:silver;fill-opacity:1;stroke:none;stroke-width:.49999991;stroke-linecap:round;stroke-miterlimit:4;stroke-dasharray:none;stroke-opacity:1" id="path926-2" d="m 198.39384,150.00003 a 50,49.99998 0 0 0 -43.30127,24.99999 50,49.99998 0 0 0 0,49.99998 50,49.99998 0 0 0 43.30127,24.99999 v -49.99998 z"/><text style="font-style:normal;font-weight:400;font-size:19.99999619px;line-height:12.49999714px;font-family:sans-serif;letter-spacing:0;word-spacing:0;fill:#000;fill-opacity:1;stroke:none;stroke-width:.49999991px;stroke-linecap:butt;stroke-linejoin:miter;stroke-opacity:1" id="text983" x="216.032" y="206.325" xml:space="preserve"><tspan style="fill:#000;stroke-width:.49999991px" id="tspan981" x="216.032" y="206.325">x</tspan></text></g><text id="text871" x="142.308" y="256" xml:space="preserve" style="font-style:normal;font-weight:400;font-size:19.99999619px;line-height:12.49999714px;font-family:sans-serif;letter-spacing:0;word-spacing:0;fill:#000;fill-opacity:1;stroke:none;stroke-width:.49999991px;stroke-linecap:butt;stroke-linejoin:miter;stroke-opacity:1"><tspan id="tspan869" x="142.308" y="256" style="stroke-width:.49999991px">2</tspan></text><text id="text867" x="241.247" y="158.118" xml:space="preserve" style="font-style:normal;font-weight:400;font-size:19.99999619px;line-height:12.49999714px;font-family:sans-serif;letter-spacing:0;word-spacing:0;fill:#000;fill-opacity:1;stroke:none;stroke-width:.49999991px;stroke-linecap:butt;stroke-linejoin:miter;stroke-opacity:1"><tspan id="tspan865" x="241.247" y="158.118" style="stroke-width:.49999991px">3</tspan></text><text id="text859" x="145.782" y="59.812" xml:space="preserve" style="font-style:normal;font-weight:400;font-size:19.99999619px;line-height:12.49999714px;font-family:sans-serif;letter-spacing:0;word-spacing:0;fill:#000;fill-opacity:1;stroke:none;stroke-width:.49999991px;stroke-linecap:butt;stroke-linejoin:miter;stroke-opacity:1"><tspan id="tspan857" x="145.782" y="59.812" style="fill:#000;stroke-width:.49999991px">5</tspan></text><text id="text851" x="54.62" y="158.346" xml:space="preserve" style="font-style:normal;font-weight:400;font-size:19.99999619px;line-height:12.49999714px;font-family:sans-serif;letter-spacing:0;word-spacing:0;fill:#000;fill-opacity:1;stroke:none;stroke-width:.49999991px;stroke-linecap:butt;stroke-linejoin:miter;stroke-opacity:1"><tspan id="tspan849" x="54.62" y="158.346" style="stroke-width:.49999991px">7</tspan></text></svg>