<svg xmlns="http://www.w3.org/2000/svg" xmlns:svg="http://www.w3.org/2000/svg" id="svg4602" width="178.594" height="135.79" version="1.1" viewBox="0 0 178.594 135.79"><metadata id="metadata4607"/><path style="fill:#7cd622;fill-opacity:1;stroke:#57ad02;stroke-width:1.40625;stroke-linecap:round;stroke-opacity:1" id="path868" d="m 0.703125,20.785816 v -5.625 a 5.625,5.625 0 0 1 5.625,-5.6249996 h 5.625 l 7.03125,-8.4375 7.03125,8.4375 h 12.65625 75.819395 5.625 a 5.625,5.625 0 0 1 5.625,5.6249996 v 5.625 5.625 5.625 a 5.625,5.625 0 0 1 -5.625,5.625 h -5.625 -75.819395 -1.40625 v 2.8125 h -11.25 v -2.8125 h -1.40625 -5.625 a 7.03125,7.03125 0 0 0 -7.03125,7.03125 v 5.625 5.625 29.53125 5.625 a 7.03125,7.03125 0 0 0 7.03125,7.03125 h 5.625 v 2.812504 h 14.0625 v -2.812504 h 11.25 v 8.437504 8.4375 5.625 a 5.625,5.625 0 0 1 -5.625,5.625 h -5.625 -12.65625 l -7.03125,8.4375 -7.03125,-8.4375 h -5.625 a 5.625,5.625 0 0 1 -5.625,-5.625 v -5.625 z"/><text style="font-size:14.0625px;font-family:sans-serif;text-anchor:start;fill:#000;stroke-width:1.40625" id="text872" y=".395"><tspan style="stroke-width:1.40625" id="tspan870" x="7.5" y="30.63">pitch staircase</tspan></text><g id="g894" transform="matrix(0.93749999,0,0,0.93749999,12.65625,38.36394)"><g id="g892" transform="scale(1.5)"><path style="fill:#7cd622;fill-opacity:1;stroke:#57ad02;stroke-width:1;stroke-linecap:round;stroke-opacity:1" id="path878" d="m 0.5,8.5 v -4 a 4,4 90 0 1 4,-4 h 4 v 2 h 10 v -2 h 30 4 a 4,4 90 0 1 4,4 v 4 h -4 v -3 h -4 v 10 h 4 v -3 h 4 v 17 h -4 v -3 h -4 v 10 h 4 v -3 h 4 v 4 a 4,4 90 0 1 -4,4 h -4 -30 -1 v 2 h -8 v -2 h -1 -4 a 4,4 90 0 1 -4,-4 v -4 -21 z"/><text style="font-size:10px;font-family:sans-serif;text-anchor:end;fill:#000" id="text882"><tspan id="tspan880" x="46.333" y="24">pitch</tspan></text><text style="font-size:6.66666651px;font-family:sans-serif;text-anchor:end;fill:#000" id="text886"><tspan id="tspan884" x="46.333" y="11.25">name</tspan></text><text style="font-size:6.66666651px;font-family:sans-serif;text-anchor:end;fill:#000" id="text890"><tspan id="tspan888" x="46.333" y="32.25">octave</tspan></text></g></g><g id="g904" transform="matrix(0.93749999,0,0,0.93749999,81.56249,38.36394)"><g id="g902" transform="scale(1.5)"><path style="fill:#7cd622;fill-opacity:1;stroke:#57ad02;stroke-width:1;stroke-linecap:round;stroke-opacity:1" id="path896" d="m 8.5,0.5 h 60 v 20 h -60 v -8 -1 h -6 v 3 h -2 v -8 h 2 v 3 h 6 v -1 z"/><text style="font-size:10px;font-family:sans-serif;text-anchor:start;fill:#000" id="text900"><tspan id="tspan898" x="13.333" y="13.833">la</tspan></text></g></g><g id="g914" transform="matrix(0.93749999,0,0,0.93749999,81.56249,67.895192)"><g id="g912" transform="scale(1.5)"><path style="fill:#ff6ea1;fill-opacity:1;stroke:#ff2c76;stroke-width:1;stroke-linecap:round;stroke-opacity:1" id="path906" d="m 8.5,0.5 h 60 v 20 h -60 v -8 -1 h -6 v 3 h -2 v -8 h 2 v 3 h 6 v -1 z"/><text style="font-size:10px;font-family:sans-serif;text-anchor:start;fill:#000" id="text910"><tspan id="tspan908" x="13.333" y="13.833">3</tspan></text></g></g></svg>