<svg xmlns="http://www.w3.org/2000/svg" xmlns:svg="http://www.w3.org/2000/svg" id="svg4167" width="178.594" height="106.259" version="1.1" viewBox="0 0 178.594 106.259"><metadata id="metadata4172"/><path id="path834" d="m 0.703125,20.785816 v -5.625 a 5.625,5.625 0 0 1 5.625,-5.6249996 h 5.625 l 7.03125,-8.4375 7.03125,8.4375 h 12.65625 53.153229 5.625 a 5.625,5.625 0 0 1 5.624996,5.6249996 v 5.625 5.625 5.625 a 5.625,5.625 0 0 1 -5.624996,5.625 h -5.625 -53.153229 -1.40625 v 2.8125 h -11.25 v -2.8125 h -1.40625 -5.625 a 7.03125,7.03125 0 0 0 -7.03125,7.03125 v 5.625 5.625 5.625 a 7.03125,7.03125 0 0 0 7.03125,7.03125 h 5.625 v 2.8125 h 14.0625 v -2.8125 h 11.25 v 8.4375 8.4375 5.625 a 5.625,5.625 0 0 1 -5.625,5.625 h -5.625 -12.65625 l -7.03125,8.437504 -7.03125,-8.437504 h -5.625 a 5.625,5.625 0 0 1 -5.625,-5.625 v -5.625 z" style="fill:#7cd622;fill-opacity:1;stroke:#57ad02;stroke-width:1.40625;stroke-linecap:round;stroke-opacity:1"/><text id="text838" y=".395" style="font-size:14.0625px;font-family:sans-serif;text-anchor:start;fill:#000;stroke-width:1.40625"><tspan id="tspan836" x="7.5" y="30.63" style="stroke-width:1.40625">pitch slider</tspan></text><path id="path844" d="m 13.359375,50.317065 v -5.625 a 5.625,5.625 0 0 1 5.625,-5.625 h 5.625 v 2.8125 h 14.0625 v -2.8125 h 42.1875 5.625 a 5.625,5.625 0 0 1 5.625,5.625 v 5.625 h -5.625 v -4.21875 h -5.625 v 14.0625 h 5.625 v -4.21875 h 5.625 v 5.625 a 5.625,5.625 0 0 1 -5.625,5.625 h -5.625 -42.1875 -1.40625 v 2.8125 h -11.25 v -2.8125 h -1.40625 -5.625 a 5.625,5.625 0 0 1 -5.625,-5.625 v -5.625 z" style="fill:#7cd622;fill-opacity:1;stroke:#57ad02;stroke-width:1.40625;stroke-linecap:round;stroke-opacity:1"/><text id="text848" x="12.656" y="38.364" style="font-size:14.0625px;font-family:sans-serif;text-anchor:end;fill:#000;stroke-width:1.40625"><tspan id="tspan846" x="77.813" y="57.348" style="stroke-width:1.40625">hertz</tspan></text><path id="path858" d="m 93.515625,39.067065 h 84.374995 v 28.125 H 93.515625 v -11.25 -1.40625 h -8.4375 v 4.21875 h -2.8125 v -11.25 h 2.8125 v 4.21875 h 8.4375 v -1.40625 z" style="fill:#ff6ea1;fill-opacity:1;stroke:#ff2c76;stroke-width:1.40625;stroke-linecap:round;stroke-opacity:1"/><text id="text862" x="81.563" y="38.364" style="font-size:14.0625px;font-family:sans-serif;text-anchor:start;fill:#000;stroke-width:1.40625"><tspan id="tspan860" x="100.313" y="57.817" style="stroke-width:1.40625">220</tspan></text></svg>