<svg xmlns="http://www.w3.org/2000/svg" xmlns:svg="http://www.w3.org/2000/svg" id="svg4602" width="361.5" height="333.843" version="1.1" viewBox="0 0 361.5 333.843"><metadata id="metadata47"/><g id="g928" transform="translate(0,0.42153745)"><g id="g926" transform="scale(1.5)"><path id="path916" d="m 0.5,14.5 v -4 a 4,4 90 0 1 4,-4 h 4 l 5,-6 5,6 h 9 35 4 a 4,4 90 0 1 4,4 v 4 h -4 v -3 h -4 v 10 h 4 v -3 h 4 v 4 a 4,4 90 0 1 -4,4 h -4 -35 -1 v 2 h -8 v -2 h -1 -4 a 5,5 90 0 0 -5,5 v 4 4 147 4 a 5,5 90 0 0 5,5 h 4 v 2 h 10 v -2 h 8 v 6 6 4 a 4,4 90 0 1 -4,4 h -4 -9 l -5,6 -5,-6 h -4 a 4,4 90 0 1 -4,-4 v -4 z" style="fill:#ffbf00;fill-opacity:1;stroke:#daaf30;stroke-width:1;stroke-linecap:round;stroke-opacity:1"/><text id="text920" style="font-size:10px;font-family:sans-serif;text-anchor:start;fill:#000"><tspan id="tspan918" x="5.333" y="21.5">action</tspan></text></g></g><g id="g938" transform="translate(94.5,9.4215375)"><g id="g936" transform="scale(1.5)"><path id="path930" d="m 8.5,0.5 h 60 v 20 h -60 v -8 -1 h -6 v 3 h -2 v -8 h 2 v 3 h 6 v -1 z" style="fill:#ff6648;fill-opacity:1;stroke:#ea4326;stroke-width:1;stroke-linecap:round;stroke-opacity:1"/><text id="text934" style="font-size:10px;font-family:sans-serif;text-anchor:start;fill:#000"><tspan id="tspan932" x="13.333" y="13.833">stair</tspan></text></g></g><g id="g952" transform="translate(13.5,40.921537)"><g id="g950" transform="scale(1.5)"><path id="path940" d="m 0.5,8.5 v -4 a 4,4 90 0 1 4,-4 h 4 v 2 h 10 v -2 h 30 4 a 4,4 90 0 1 4,4 v 4 h -4 v -3 h -4 v 10 h 4 v -3 h 4 v 4 a 4,4 90 0 1 -4,4 h -4 -30 -1 v 2 h -8 v -2 h -1 -4 a 4,4 90 0 1 -4,-4 v -4 z" style="fill:#7cd622;fill-opacity:1;stroke:#57ad02;stroke-width:1;stroke-linecap:round;stroke-opacity:1"/><text id="text944" style="font-size:10px;font-family:sans-serif;text-anchor:end;fill:#000"><tspan id="tspan942" x="46.333" y="13.5">hertz</tspan></text></g></g><g id="g970" transform="translate(87,40.921537)"><g id="g968" transform="scale(1.5)"><path id="path954" d="m 8.5,8.5 v -4 a 4,4 90 0 1 4,-4 h 4 10 30 4 a 4,4 90 0 1 4,4 v 4 h -4 v -3 h -4 v 10 h 4 v -3 h 4 v 17 h -4 v -3 h -4 v 10 h 4 v -3 h 4 v 4 a 4,4 90 0 1 -4,4 h -4 -30 -10 -4 a 4,4 90 0 1 -4,-4 v -4 -21 -1 h -6 v 3 h -2 v -8 h 2 v 3 h 6 z" style="fill:#ff6ea1;fill-opacity:1;stroke:#ff2c76;stroke-width:1;stroke-linecap:round;stroke-opacity:1"/><text id="text958" style="font-size:14px;font-family:sans-serif;text-anchor:end;fill:#000"><tspan id="tspan956" x="54.333" y="23.8">×</tspan></text></g></g><g id="g980" transform="translate(172.5,40.921537)"><g id="g978" transform="scale(1.5)"><path id="path972" d="m 8.5,0.5 h 60 v 20 h -60 v -8 -1 h -6 v 3 h -2 v -8 h 2 v 3 h 6 v -1 z" style="fill:#ff6ea1;fill-opacity:1;stroke:#ff2c76;stroke-width:1;stroke-linecap:round;stroke-opacity:1"/><text id="text976" style="font-size:10px;font-family:sans-serif;text-anchor:start;fill:#000"><tspan id="tspan974" x="13.333" y="13.833">220</tspan></text></g></g><g id="g998" transform="translate(172.5,72.421537)"><g id="g996" transform="scale(1.5)"><path id="path982" d="m 8.5,8.5 v -4 a 4,4 90 0 1 4,-4 h 4 10 30 4 a 4,4 90 0 1 4,4 v 4 h -4 v -3 h -4 v 10 h 4 v -3 h 4 v 17 h -4 v -3 h -4 v 10 h 4 v -3 h 4 v 4 a 4,4 90 0 1 -4,4 h -4 -30 -10 -4 a 4,4 90 0 1 -4,-4 v -4 -21 -1 h -6 v 3 h -2 v -8 h 2 v 3 h 6 z" style="fill:#ff6ea1;fill-opacity:1;stroke:#ff2c76;stroke-width:1;stroke-linecap:round;stroke-opacity:1"/><text id="text986" style="font-size:14px;font-family:sans-serif;text-anchor:end;fill:#000"><tspan id="tspan984" x="54.333" y="23.8">/</tspan></text></g></g><g id="g1008" transform="translate(258,72.421537)"><g id="g1006" transform="scale(1.5)"><path id="path1000" d="m 8.5,0.5 h 60 v 20 h -60 v -8 -1 h -6 v 3 h -2 v -8 h 2 v 3 h 6 v -1 z" style="fill:#ff6ea1;fill-opacity:1;stroke:#ff2c76;stroke-width:1;stroke-linecap:round;stroke-opacity:1"/><text id="text1004" style="font-size:10px;font-family:sans-serif;text-anchor:start;fill:#000"><tspan id="tspan1002" x="13.333" y="13.833">9</tspan></text></g></g><g id="g1018" transform="translate(258,103.92155)"><g id="g1016" transform="scale(1.5)"><path id="path1010" d="m 8.5,0.5 h 60 v 20 h -60 v -8 -1 h -6 v 3 h -2 v -8 h 2 v 3 h 6 v -1 z" style="fill:#ff6ea1;fill-opacity:1;stroke:#ff2c76;stroke-width:1;stroke-linecap:round;stroke-opacity:1"/><text id="text1014" style="font-size:10px;font-family:sans-serif;text-anchor:start;fill:#000"><tspan id="tspan1012" x="13.333" y="13.833">4</tspan></text></g></g><path id="path1020" d="m 14.25,85.171537 v -6 a 6,6 0 0 1 6,-6 h 6 v 3 h 15 v -3 h 30 6 a 6,6 0 0 1 6,6 v 6 6 6 a 6,6 0 0 1 -6,6.000003 h -6 -30 -1.5 v 3 h -12 v -3 h -1.5 -6 a 6,6 0 0 1 -6,-6.000003 v -6 z" style="fill:#c4c4c4;fill-opacity:1;stroke:#a0a0a0;stroke-width:1.5;stroke-linecap:round;stroke-opacity:1"/><text id="text1024" x="13.5" y="72.422" style="font-size:15px;font-family:sans-serif;text-anchor:end;fill:#000;stroke-width:1.5"><tspan id="tspan1022" x="68" y="92.672" style="stroke-width:1.5">↓</tspan></text><path id="path1030" d="m 14.25,116.67155 v -6 a 6,6 0 0 1 6,-6 h 6 v 3 h 15 v -3 h 30 6 a 6,6 0 0 1 6,6 v 6 6 6 a 6,6 0 0 1 -6,6 h -6 -30 -1.5 v 3 h -12 v -3 h -1.5 -6 a 6,6 0 0 1 -6,-6 v -6 z" style="fill:#c4c4c4;fill-opacity:1;stroke:#a0a0a0;stroke-width:1.5;stroke-linecap:round;stroke-opacity:1"/><text id="text1034" x="13.5" y="103.922" style="font-size:15px;font-family:sans-serif;text-anchor:end;fill:#000;stroke-width:1.5"><tspan id="tspan1032" x="68" y="124.172" style="stroke-width:1.5">↓</tspan></text><g id="g1052" transform="translate(13.5,135.42155)"><g id="g1050" transform="scale(1.5)"><path id="path1040" d="m 0.5,8.5 v -4 a 4,4 90 0 1 4,-4 h 4 v 2 h 10 v -2 h 30 4 a 4,4 90 0 1 4,4 v 4 h -4 v -3 h -4 v 10 h 4 v -3 h 4 v 4 a 4,4 90 0 1 -4,4 h -4 -30 -1 v 2 h -8 v -2 h -1 -4 a 4,4 90 0 1 -4,-4 v -4 z" style="fill:#7cd622;fill-opacity:1;stroke:#57ad02;stroke-width:1;stroke-linecap:round;stroke-opacity:1"/><text id="text1044" style="font-size:10px;font-family:sans-serif;text-anchor:end;fill:#000"><tspan id="tspan1042" x="46.333" y="13.5">hertz</tspan></text></g></g><g id="g1070" transform="translate(87,135.42155)"><g id="g1068" transform="scale(1.5)"><path id="path1054" d="m 8.5,8.5 v -4 a 4,4 90 0 1 4,-4 h 4 10 30 4 a 4,4 90 0 1 4,4 v 4 h -4 v -3 h -4 v 10 h 4 v -3 h 4 v 17 h -4 v -3 h -4 v 10 h 4 v -3 h 4 v 4 a 4,4 90 0 1 -4,4 h -4 -30 -10 -4 a 4,4 90 0 1 -4,-4 v -4 -21 -1 h -6 v 3 h -2 v -8 h 2 v 3 h 6 z" style="fill:#ff6ea1;fill-opacity:1;stroke:#ff2c76;stroke-width:1;stroke-linecap:round;stroke-opacity:1"/><text id="text1058" style="font-size:14px;font-family:sans-serif;text-anchor:end;fill:#000"><tspan id="tspan1056" x="54.333" y="23.8">×</tspan></text></g></g><g id="g1080" transform="translate(172.5,135.42155)"><g id="g1078" transform="scale(1.5)"><path id="path1072" d="m 8.5,0.5 h 60 v 20 h -60 v -8 -1 h -6 v 3 h -2 v -8 h 2 v 3 h 6 v -1 z" style="fill:#ff6ea1;fill-opacity:1;stroke:#ff2c76;stroke-width:1;stroke-linecap:round;stroke-opacity:1"/><text id="text1076" style="font-size:10px;font-family:sans-serif;text-anchor:start;fill:#000"><tspan id="tspan1074" x="13.333" y="13.833">220</tspan></text></g></g><g id="g1098" transform="translate(172.5,166.92155)"><g id="g1096" transform="scale(1.5)"><path id="path1082" d="m 8.5,8.5 v -4 a 4,4 90 0 1 4,-4 h 4 10 30 4 a 4,4 90 0 1 4,4 v 4 h -4 v -3 h -4 v 10 h 4 v -3 h 4 v 17 h -4 v -3 h -4 v 10 h 4 v -3 h 4 v 4 a 4,4 90 0 1 -4,4 h -4 -30 -10 -4 a 4,4 90 0 1 -4,-4 v -4 -21 -1 h -6 v 3 h -2 v -8 h 2 v 3 h 6 z" style="fill:#ff6ea1;fill-opacity:1;stroke:#ff2c76;stroke-width:1;stroke-linecap:round;stroke-opacity:1"/><text id="text1086" style="font-size:14px;font-family:sans-serif;text-anchor:end;fill:#000"><tspan id="tspan1084" x="54.333" y="23.8">/</tspan></text></g></g><g id="g1108" transform="translate(258,166.92155)"><g id="g1106" transform="scale(1.5)"><path id="path1100" d="m 8.5,0.5 h 60 v 20 h -60 v -8 -1 h -6 v 3 h -2 v -8 h 2 v 3 h 6 v -1 z" style="fill:#ff6ea1;fill-opacity:1;stroke:#ff2c76;stroke-width:1;stroke-linecap:round;stroke-opacity:1"/><text id="text1104" style="font-size:10px;font-family:sans-serif;text-anchor:start;fill:#000"><tspan id="tspan1102" x="13.333" y="13.833">3</tspan></text></g></g><g id="g1118" transform="translate(258,198.42155)"><g id="g1116" transform="scale(1.5)"><path id="path1110" d="m 8.5,0.5 h 60 v 20 h -60 v -8 -1 h -6 v 3 h -2 v -8 h 2 v 3 h 6 v -1 z" style="fill:#ff6ea1;fill-opacity:1;stroke:#ff2c76;stroke-width:1;stroke-linecap:round;stroke-opacity:1"/><text id="text1114" style="font-size:10px;font-family:sans-serif;text-anchor:start;fill:#000"><tspan id="tspan1112" x="13.333" y="13.833">2</tspan></text></g></g><path id="path1120" d="m 14.25,179.67155 v -6 a 6,6 0 0 1 6,-6 h 6 v 3 h 15 v -3 h 30 6 a 6,6 0 0 1 6,6 v 6 6 6 a 6,6 0 0 1 -6,6 h -6 -30 -1.5 v 3 h -12 v -3 h -1.5 -6 a 6,6 0 0 1 -6,-6 v -6 z" style="fill:#c4c4c4;fill-opacity:1;stroke:#a0a0a0;stroke-width:1.5;stroke-linecap:round;stroke-opacity:1"/><text id="text1124" x="13.5" y="166.922" style="font-size:15px;font-family:sans-serif;text-anchor:end;fill:#000;stroke-width:1.5"><tspan id="tspan1122" x="68" y="187.172" style="stroke-width:1.5">↓</tspan></text><path id="path1130" d="m 14.25,211.17155 v -6 a 6,6 0 0 1 6,-6 h 6 v 3 h 15 v -3 h 30 6 a 6,6 0 0 1 6,6 v 6 6 6 a 6,6 0 0 1 -6,6 h -6 -30 -1.5 v 3 h -12 v -3 h -1.5 -6 a 6,6 0 0 1 -6,-6 v -6 z" style="fill:#c4c4c4;fill-opacity:1;stroke:#a0a0a0;stroke-width:1.5;stroke-linecap:round;stroke-opacity:1"/><text id="text1134" x="13.5" y="198.422" style="font-size:15px;font-family:sans-serif;text-anchor:end;fill:#000;stroke-width:1.5"><tspan id="tspan1132" x="68" y="218.672" style="stroke-width:1.5">↓</tspan></text><g id="g1156" transform="translate(13.5,229.92155)"><g id="g1154" transform="scale(1.5)"><path id="path1140" d="m 0.5,8.5 v -4 a 4,4 90 0 1 4,-4 h 4 v 2 h 10 v -2 h 30 4 a 4,4 90 0 1 4,4 v 4 h -4 v -3 h -4 v 10 h 4 v -3 h 4 v 17 h -4 v -3 h -4 v 10 h 4 v -3 h 4 v 4 a 4,4 90 0 1 -4,4 h -4 -30 -1 v 2 h -8 v -2 h -1 -4 a 4,4 90 0 1 -4,-4 v -4 -21 z" style="fill:#7cd622;fill-opacity:1;stroke:#57ad02;stroke-width:1;stroke-linecap:round;stroke-opacity:1"/><text id="text1144" style="font-size:10px;font-family:sans-serif;text-anchor:end;fill:#000"><tspan id="tspan1142" x="46.333" y="24">pitch</tspan></text><text id="text1148" style="font-size:6.66666651px;font-family:sans-serif;text-anchor:end;fill:#000"><tspan id="tspan1146" x="46.333" y="11.25">name</tspan></text><text id="text1152" style="font-size:6.66666651px;font-family:sans-serif;text-anchor:end;fill:#000"><tspan id="tspan1150" x="46.333" y="32.25">octave</tspan></text></g></g><g id="g1166" transform="translate(87,229.92155)"><g id="g1164" transform="scale(1.5)"><path id="path1158" d="m 8.5,0.5 h 60 v 20 h -60 v -8 -1 h -6 v 3 h -2 v -8 h 2 v 3 h 6 v -1 z" style="fill:#ff6648;fill-opacity:1;stroke:#ea4326;stroke-width:1;stroke-linecap:round;stroke-opacity:1"/><text id="text1162" style="font-size:10px;font-family:sans-serif;text-anchor:start;fill:#000"><tspan id="tspan1160" x="13.333" y="13.833">A</tspan></text></g></g><g id="g1176" transform="translate(87,261.42155)"><g id="g1174" transform="scale(1.5)"><path id="path1168" d="m 8.5,0.5 h 60 v 20 h -60 v -8 -1 h -6 v 3 h -2 v -8 h 2 v 3 h 6 v -1 z" style="fill:#ff6ea1;fill-opacity:1;stroke:#ff2c76;stroke-width:1;stroke-linecap:round;stroke-opacity:1"/><text id="text1172" style="font-size:10px;font-family:sans-serif;text-anchor:start;fill:#000"><tspan id="tspan1170" x="13.333" y="13.833">3</tspan></text></g></g></svg>