<svg xmlns="http://www.w3.org/2000/svg" xmlns:svg="http://www.w3.org/2000/svg" id="svg9746" width="349.5" height="774.843" version="1.1"><metadata id="metadata9752"/><g id="g8822" transform="translate(-456,6.4215375)"><g id="g8784" transform="translate(456,-6)"><g id="g8782" transform="scale(1.5)"><path style="fill:#ffbf00;fill-opacity:1;stroke:#daaf30;stroke-width:1;stroke-linecap:round;stroke-opacity:1" id="path8776" d="m 0.5,14.5 v -4 a 4,4 90 0 1 4,-4 h 4 l 5,-6 5,6 h 9 60 4 a 4,4 90 0 1 4,4 v 4 4 4 a 4,4 90 0 1 -4,4 h -4 -60 -1 v 2 h -8 v -2 h -1 -4 a 5,5 90 0 0 -5,5 v 4 4 441 4 a 5,5 90 0 0 5,5 h 4 v 2 h 10 v -2 h 8 v 6 6 4 a 4,4 90 0 1 -4,4 h -4 -9 l -5,6 -5,-6 h -4 a 4,4 90 0 1 -4,-4 v -4 z"/><text style="font-size:10px;font-family:sans-serif;text-anchor:start;fill:#282828" id="text8780"><tspan id="tspan8778" x="20" y="22">start</tspan></text></g></g><g id="g8800" transform="matrix(0.5,0,0,0.5,456,6)"><g style="isolation:isolate" id="g8798"><g id="レイヤー_2" data-name="レイヤー 2"><g id="Icon"><rect style="opacity:.4;mix-blend-mode:multiply;fill:#292929" id="rect8786" width="42" height="42" x="0" y="0" rx="5" ry="5"/><path style="fill:#fff" id="path8788" d="m 30.56,29.8 -4.17,-4.16 h 2.26 a 1.035,1.035 0 1 0 0,-2.07 h -4.71 a 1.08,1.08 0 0 0 -1.11,1 v 0 c 0,0 0,0 0,0.06 v 4.64 0 a 1.04,1.04 0 1 0 2.08,0 v -2.19 l 4.19,4.19 a 1,1 0 0 0 1.46,0 1,1 0 0 0 0,-1.47 z"/><path style="fill:#fff" id="path8790" d="m 19.17,24.6 a 1.08,1.08 0 0 0 -1.11,-1 h -4.71 a 1.035,1.035 0 1 0 0,2.07 h 2.25 l -4.16,4.13 a 1.039447,1.039447 0 0 0 1.47,1.47 l 4.18,-4.19 v 2.26 a 1.04,1.04 0 1 0 2.08,0 V 24.7 c 0,0 0,0 0,-0.06 a 0.08,0.08 0 0 1 0,-0.04 z"/><path style="fill:#fff" id="path8792" d="m 23.94,20.5 h 4.7 a 1.04,1.04 0 1 0 0,-2.08 h -2.25 l 4.17,-4.16 a 1,1 0 0 0 0,-1.47 1,1 0 0 0 -1.46,0 L 24.91,17 v -2.28 a 1.04,1.04 0 1 0 -2.08,0 v 4.64 a 0.43,0.43 0 0 0 0,0.05 v 0.05 a 1.09,1.09 0 0 0 1.11,1.04 z"/><path style="fill:#fff" id="path8794" d="m 18.13,13.62 a 1.08,1.08 0 0 0 -1,1.09 V 17 l -4.18,-4.19 a 1,1 0 0 0 -1.47,0 1,1 0 0 0 0,1.46 l 4.16,4.17 h -2.29 a 1.04,1.04 0 1 0 0,2.08 h 4.71 a 1.09,1.09 0 0 0 1.11,-1 c 0,0 0,0 0,-0.06 v -4.75 a 1.07,1.07 0 0 0 -1.04,-1.09 z"/></g></g></g></g><g id="g8820" transform="matrix(0.4,0,0,0.4,566,6)"><g style="fill:#ffada6;stroke:#ed001d;stroke-width:1.99999976;stroke-miterlimit:4;stroke-dasharray:none" id="g3586" transform="translate(-3.1884835,0.12548216)"><path style="fill:#ffada6;stroke:none;stroke-width:1px;stroke-linecap:butt;stroke-linejoin:miter;stroke-opacity:1" id="path4725" d="m 31.188483,5.8745178 c 0,0 -1.254644,-1 -2,-1 -1.490712,0 -2.945907,0.9459074 -4,2 -1.581139,1.5811389 -1.692548,4.1860072 -3,6.0000002 -0.826905,1.14727 -1.85273,2.173095 -3,3 -1.813992,1.307452 -4.41886,1.418861 -5.999999,3 -1.054093,1.054093 -2,2.509288 -2,4 0,1.490712 1.176934,3.540162 2,4 2.595129,1.449868 0.836609,0.648512 2,2 0,0 -1.040434,3.300808 -1,5 0.06539,2.747959 1.999999,7 1.999999,8 0,1 3.621931,4.46873 6,6 2.394526,1.541867 5.323775,2.059095 8.164792,2.258437 3.065644,0.215103 5.976447,-0.356365 8.670416,-1.835208 1.652944,-0.907377 3.020234,-1.924716 4.164792,-3.423229 1.631246,-2.13571 3.310226,-4.40261 4,-7 0.42778,-1.610833 0.203639,-3.345821 0,-5 -0.167925,-1.364071 -1.27205,-2.652826 -1,-4 0.329909,-1.633688 2.319717,-2.47849 3,-4 0.693755,-1.551642 1.687609,-3.445625 1,-5 -0.786311,-1.777496 -3.357594,-1.960634 -5,-3 -1.015577,-0.642689 -2.106041,-1.196706 -3,-2 -1.93647,-1.740075 -3.442391,-3.913943 -5,-6.0000002 -0.71906,-0.9630146 -1.044881,-2.2704844 -2,-3 -0.837694,-0.6398275 -1.974105,-1.2421808 -3,-1 -0.458794,0.1083066 -1,1 -1,1"/><path id="path4505-6" d="m 46.209786,28.156906 c 0,0 1.463947,5.738921 1.001084,8.583832 -0.503422,3.094194 -1.733796,6.320068 -4.004337,8.583833 -2.061998,2.055845 -3.20724,2.828474 -6.006505,3.815036 -1.290398,0.454783 -4.973515,0.953759 -6.514048,0.953759 -1.540535,0 -5.223651,-0.498977 -6.514049,-0.95376 -2.799265,-0.986562 -3.944507,-1.759191 -6.006506,-3.815036 -2.270541,-2.263765 -3.500915,-5.489639 -4.004337,-8.583833 -0.462863,-2.844911 1.001084,-8.583832 1.001084,-8.583832 M 28.176267,22.43435 c 0,0 -4.122174,4.705629 -7.007589,5.722555 -1.877805,0.661806 -4.201946,0.826315 -6.006506,0 -1.925806,-0.881834 -3.58357,-2.772978 -4.004337,-4.768796 -0.478397,-2.26917 0.558956,-4.123549 2.470477,-5.529022 2.067374,-1.520067 4.598363,-1.662883 6.539282,-3.054811 2.515152,-1.803739 2.912345,-5.389772 5.005421,-7.6300732 1.420632,-1.520559 5.512965,-3.8150366 5.512965,-3.8150366 0,0 4.092331,2.2944775 5.512964,3.8150365 2.093073,2.2403013 2.490269,5.8263353 5.005421,7.6300743 1.940919,1.391928 4.538808,1.465531 6.606183,2.927334 1.937249,1.369793 2.881973,3.387329 2.403575,5.656499 -0.420767,1.995818 -2.078532,3.886962 -4.004337,4.768796 -1.80456,0.826315 -4.1287,0.661806 -6.006505,0 -2.885416,-1.016926 -7.00759,-5.722555 -7.00759,-5.722555" style="fill:none;stroke:#ed001d;stroke-width:1.95427048;stroke-linecap:round;stroke-linejoin:miter;stroke-miterlimit:4;stroke-dasharray:none;stroke-opacity:1"/><g id="g4565" transform="matrix(1.0010843,0,0,0.95375917,57.401951,5.3863652)" style="fill:none;stroke:#ed001d;stroke-opacity:1"><g id="g4553" transform="translate(0,-1)" style="fill:none;stroke:#ed001d;stroke-opacity:1"><path id="path3411-7" d="M -30.228157,8.514322 C -33.422908,9.40349 -38.624018,5.874516 -40.102591,4.585664" style="fill:none;fill-rule:evenodd;stroke:#ed001d;stroke-width:1.93205309;stroke-linecap:butt;stroke-linejoin:miter;stroke-miterlimit:4;stroke-dasharray:none;stroke-opacity:1"/><path id="path3413-5" d="M -29.760199,5.904536 C -33.101366,5.473905 -35.931474,3.7361852 -37.633646,2.3416285" style="fill:none;fill-rule:evenodd;stroke:#ed001d;stroke-width:1.93205309;stroke-linecap:butt;stroke-linejoin:miter;stroke-miterlimit:4;stroke-dasharray:none;stroke-opacity:1"/></g><g id="g4557" style="fill:none;stroke:#ed001d;stroke-opacity:1"><path id="path3411-3" d="m -23.145912,7.514322 c 3.194751,0.889168 8.395861,-2.639806 9.874434,-3.928658" style="fill:none;fill-rule:evenodd;stroke:#ed001d;stroke-width:1.93205309;stroke-linecap:butt;stroke-linejoin:miter;stroke-miterlimit:4;stroke-dasharray:none;stroke-opacity:1"/><path id="path3413-56" d="m -23.61387,4.904536 c 3.341167,-0.430631 6.171275,-2.168351 7.873447,-3.5629075" style="fill:none;fill-rule:evenodd;stroke:#ed001d;stroke-width:1.93205309;stroke-linecap:butt;stroke-linejoin:miter;stroke-miterlimit:4;stroke-dasharray:none;stroke-opacity:1"/></g></g><g id="g4636" transform="matrix(1.0010843,0,0,0.95375917,57.930597,3.4788469)" style="fill:#fff;fill-opacity:.94117647;stroke:#ed001d;stroke-opacity:1"><ellipse id="circle3409-2" cx="-30.837" cy="14.613" rx="1.885" ry="2.067" style="fill:#fff;fill-opacity:.94117647;fill-rule:evenodd;stroke:#ed001d;stroke-width:1.99999976;stroke-linecap:butt;stroke-linejoin:miter;stroke-miterlimit:4;stroke-dasharray:none;stroke-opacity:1"/><ellipse id="ellipse4229-9" cx="-23.593" cy="14.699" rx="1.885" ry="2.067" style="fill:#fff;fill-opacity:.94117647;fill-rule:evenodd;stroke:#ed001d;stroke-width:1.99999976;stroke-linecap:butt;stroke-linejoin:miter;stroke-miterlimit:4;stroke-dasharray:none;stroke-opacity:1"/></g><g id="g4632" transform="matrix(1.0010843,0,0,0.95375917,58.02711,3.4788469)" style="fill:none;stroke:#ed001d;stroke-opacity:1"><path id="path4303-1" d="m -37.186516,14.624518 c -14.340024,2.75008 -4.810404,15.671871 4.375,5.25" style="fill:none;fill-rule:evenodd;stroke:#ed001d;stroke-width:1px;stroke-linecap:butt;stroke-linejoin:miter;stroke-miterlimit:4;stroke-dasharray:none;stroke-opacity:1"/><path id="path4303-1-2" d="m -17.436517,14.624518 c 14.3400245,2.75008 4.810404,15.671872 -4.375,5.25" style="fill:none;fill-rule:evenodd;stroke:#ed001d;stroke-width:1px;stroke-linecap:butt;stroke-linejoin:miter;stroke-miterlimit:4;stroke-dasharray:none;stroke-opacity:1"/></g><path id="path4227-7" d="m 33.12784,3.3591671 c -1.384692,1.3140551 -1.985761,2.3793068 -2.459835,2.3793068 -0.662709,0 -1.27278,-1.0652517 -2.459836,-2.3793068 -0.97292,-1.0770097 1.101306,-2.37930771 2.459836,-2.37930771 1.358531,0 3.532987,1.36090081 2.459835,2.37930771 z" style="fill:#ed001d;fill-opacity:1;fill-rule:evenodd;stroke:#ed001d;stroke-width:2.16383076;stroke-linecap:butt;stroke-linejoin:miter;stroke-miterlimit:4;stroke-dasharray:none;stroke-opacity:1"/><path style="fill:none;stroke:#ed001d;stroke-width:1.95427048;stroke-linecap:round;stroke-linejoin:miter;stroke-miterlimit:4;stroke-dasharray:none;stroke-opacity:1" id="path4653" d="m 31.302308,50.085622 c 0,0 0.723125,3.123831 5.500191,3.669996 4.777067,0.546166 11.784656,-3.778776 14.78791,-9.501331 3.003254,-5.722555 2.402683,-11.490783 3.003253,-18.121425"/></g></g></g><g id="g9254" transform="translate(14,357.42154)"><g id="g9252" transform="scale(1.5)"><path style="fill:#7cd622;fill-opacity:1;stroke:#57ad02;stroke-width:1;stroke-linecap:round;stroke-opacity:1" id="path9242" d="m 0.5,8.5 v -4 a 4,4 90 0 1 4,-4 h 4 v 2 h 10 v -2 h 9 80.60059 4 a 4,4 90 0 1 4,4 v 4 h -4 v -3 h -4 v 10 h 4 v -3 h 4 v 4 a 4,4 90 0 1 -4,4 h -4 H 27.5 h -1 v 2 h -8 v -2 h -1 -4 a 5,5 90 0 0 -5,5 v 4 4 189 4 a 5,5 90 0 0 5,5 h 4 v 2 h 10 v -2 h 8 v 6 6 4 a 4,4 90 0 1 -4,4 h -4 -9 -1 v 2 h -8 v -2 h -1 -4 a 4,4 90 0 1 -4,-4 v -4 z"/><text style="font-size:10px;font-family:sans-serif;text-anchor:start;fill:#282828" id="text9246"><tspan id="tspan9244" x="5" y="15">semi-tone transpose</tspan></text></g></g><g id="g9264" transform="translate(177,357.42154)"><g id="g9262" transform="scale(1.5)"><path style="fill:#ff6ea1;fill-opacity:1;stroke:#ff2c76;stroke-width:1;stroke-linecap:round;stroke-opacity:1" id="path9256" d="m 8.5,0.5 h 60 v 20 h -60 v -8 -1 h -6 v 3 h -2 v -8 h 2 v 3 h 6 v -1 z"/><text style="font-size:10px;font-family:sans-serif;text-anchor:start;fill:#282828" id="text9260"><tspan id="tspan9258" x="13" y="14">1</tspan></text></g></g><g id="g9298" transform="translate(-456,6.4215375)"><g id="g9278" transform="translate(470,35)"><g id="g9276" transform="scale(1.5)"><path style="fill:#fe994f;fill-opacity:1;stroke:#e86b0e;stroke-width:1;stroke-linecap:round;stroke-opacity:1" id="path9266" d="m 0.5,8.5 v -4 a 4,4 90 0 1 4,-4 h 4 v 2 h 10 v -2 h 9 60 4 a 4,4 90 0 1 4,4 v 4 h -4 v -3 h -4 v 10 h 4 v -3 h 4 v 4 a 4,4 90 0 1 -4,4 h -4 -60 -1 v 2 h -8 v -2 h -1 -4 a 5,5 90 0 0 -5,5 v 4 4 42 4 a 5,5 90 0 0 5,5 h 4 v 2 h 10 v -2 h 8 v 6 6 4 a 4,4 90 0 1 -4,4 h -4 -9 -1 v 2 h -8 v -2 h -1 -4 a 4,4 90 0 1 -4,-4 v -4 z"/><text style="font-size:10px;font-family:sans-serif;text-anchor:start;fill:#282828" id="text9270"><tspan id="tspan9268" x="20" y="15">note</tspan></text><text style="font-size:6.66666651px;font-family:sans-serif;text-anchor:end;fill:#282828" id="text9274"><tspan id="tspan9272" x="85" y="12">value</tspan></text></g></g><g id="g9296" transform="matrix(0.5,0,0,0.5,470,39)"><g style="isolation:isolate" id="g9294"><g id="g9292" data-name="レイヤー 2"><g id="g9290"><rect style="opacity:.4;mix-blend-mode:multiply;fill:#292929" id="rect9280" width="42" height="42" x="0" y="0" rx="5" ry="5"/><path style="fill:#fff" id="path9282" d="m 30.56,29.8 -4.17,-4.16 h 2.26 a 1.035,1.035 0 1 0 0,-2.07 h -4.71 a 1.08,1.08 0 0 0 -1.11,1 v 0 c 0,0 0,0 0,0.06 v 4.64 0 a 1.04,1.04 0 1 0 2.08,0 v -2.19 l 4.19,4.19 a 1,1 0 0 0 1.46,0 1,1 0 0 0 0,-1.47 z"/><path style="fill:#fff" id="path9284" d="m 19.17,24.6 a 1.08,1.08 0 0 0 -1.11,-1 h -4.71 a 1.035,1.035 0 1 0 0,2.07 h 2.25 l -4.16,4.13 a 1.039447,1.039447 0 0 0 1.47,1.47 l 4.18,-4.19 v 2.26 a 1.04,1.04 0 1 0 2.08,0 V 24.7 c 0,0 0,0 0,-0.06 a 0.08,0.08 0 0 1 0,-0.04 z"/><path style="fill:#fff" id="path9286" d="m 23.94,20.5 h 4.7 a 1.04,1.04 0 1 0 0,-2.08 h -2.25 l 4.17,-4.16 a 1,1 0 0 0 0,-1.47 1,1 0 0 0 -1.46,0 L 24.91,17 v -2.28 a 1.04,1.04 0 1 0 -2.08,0 v 4.64 a 0.43,0.43 0 0 0 0,0.05 v 0.05 a 1.09,1.09 0 0 0 1.11,1.04 z"/><path style="fill:#fff" id="path9288" d="m 18.13,13.62 a 1.08,1.08 0 0 0 -1,1.09 V 17 l -4.18,-4.19 a 1,1 0 0 0 -1.47,0 1,1 0 0 0 0,1.46 l 4.16,4.17 h -2.29 a 1.04,1.04 0 1 0 0,2.08 h 4.71 a 1.09,1.09 0 0 0 1.11,-1 c 0,0 0,0 0,-0.06 v -4.75 a 1.07,1.07 0 0 0 -1.04,-1.09 z"/></g></g></g></g></g><g id="g9316" transform="translate(146,41.421537)"><g id="g9314" transform="scale(1.5)"><path style="fill:#ff6ea1;fill-opacity:1;stroke:#ff2c76;stroke-width:1;stroke-linecap:round;stroke-opacity:1" id="path9300" d="m 8.5,8.5 v -4 a 4,4 90 0 1 4,-4 h 4 10 30 4 a 4,4 90 0 1 4,4 v 4 h -4 v -3 h -4 v 10 h 4 v -3 h 4 v 17 h -4 v -3 h -4 v 10 h 4 v -3 h 4 v 4 a 4,4 90 0 1 -4,4 h -4 -30 -10 -4 a 4,4 90 0 1 -4,-4 v -4 -21 -1 h -6 v 3 h -2 v -8 h 2 v 3 h 6 z"/><text style="font-size:9px;font-family:sans-serif;text-anchor:end;fill:#282828" id="text9304"><tspan id="tspan9302" x="54" y="23">/</tspan></text></g></g><g id="g9326" transform="translate(232,41.421537)"><g id="g9324" transform="scale(1.5)"><path style="fill:#ff6ea1;fill-opacity:1;stroke:#ff2c76;stroke-width:1;stroke-linecap:round;stroke-opacity:1" id="path9318" d="m 8.5,0.5 h 60 v 20 h -60 v -8 -1 h -6 v 3 h -2 v -8 h 2 v 3 h 6 v -1 z"/><text style="font-size:10px;font-family:sans-serif;text-anchor:start;fill:#282828" id="text9322"><tspan id="tspan9320" x="13" y="14">1</tspan></text></g></g><g id="g9336" transform="translate(232,73.421537)"><g id="g9334" transform="scale(1.5)"><path style="fill:#ff6ea1;fill-opacity:1;stroke:#ff2c76;stroke-width:1;stroke-linecap:round;stroke-opacity:1" id="path9328" d="m 8.5,0.5 h 60 v 20 h -60 v -8 -1 h -6 v 3 h -2 v -8 h 2 v 3 h 6 v -1 z"/><text style="font-size:10px;font-family:sans-serif;text-anchor:start;fill:#282828" id="text9332"><tspan id="tspan9330" x="13" y="14">4</tspan></text></g></g><g id="g9346" transform="translate(28,73.421537)"><g id="g9344" transform="scale(1.5)"><path style="fill:#c4c4c4;fill-opacity:1;stroke:#a0a0a0;stroke-width:1;stroke-linecap:round;stroke-opacity:1" id="path9338" d="m 0.5,8.5 v -4 a 4,4 90 0 1 4,-4 h 4 v 2 h 10 v -2 h 20 4 a 4,4 90 0 1 4,4 v 4 4 4 a 4,4 90 0 1 -4,4 h -4 -20 -1 v 2 h -8 v -2 h -1 -4 a 4,4 90 0 1 -4,-4 v -4 z"/><text style="font-size:10px;font-family:sans-serif;text-anchor:end;fill:#282828" id="text9342"><tspan id="tspan9340" x="36" y="14">↓</tspan></text></g></g><g id="g9364" transform="translate(28,105.42154)"><g id="g9362" transform="scale(1.5)"><path style="fill:#7cd622;fill-opacity:1;stroke:#57ad02;stroke-width:1;stroke-linecap:round;stroke-opacity:1" id="path9348" d="m 0.5,8.5 v -4 a 4,4 90 0 1 4,-4 h 4 v 2 h 10 v -2 h 30 4 a 4,4 90 0 1 4,4 v 4 h -4 v -3 h -4 v 10 h 4 v -3 h 4 v 17 h -4 v -3 h -4 v 10 h 4 v -3 h 4 v 4 a 4,4 90 0 1 -4,4 h -4 -30 -1 v 2 h -8 v -2 h -1 -4 a 4,4 90 0 1 -4,-4 v -4 -21 z"/><text style="font-size:10px;font-family:sans-serif;text-anchor:end;fill:#282828" id="text9352"><tspan id="tspan9350" x="46" y="24">pitch</tspan></text><text style="font-size:6.66666651px;font-family:sans-serif;text-anchor:end;fill:#282828" id="text9356"><tspan id="tspan9354" x="46" y="12">name</tspan></text><text style="font-size:6.66666651px;font-family:sans-serif;text-anchor:end;fill:#282828" id="text9360"><tspan id="tspan9358" x="46" y="33">octave</tspan></text></g></g><g id="g9374" transform="translate(102,105.42154)"><g id="g9372" transform="scale(1.5)"><path style="fill:#7cd622;fill-opacity:1;stroke:#57ad02;stroke-width:1;stroke-linecap:round;stroke-opacity:1" id="path9366" d="m 8.5,0.5 h 60 v 20 h -60 v -8 -1 h -6 v 3 h -2 v -8 h 2 v 3 h 6 v -1 z"/><text style="font-size:10px;font-family:sans-serif;text-anchor:start;fill:#282828" id="text9370"><tspan id="tspan9368" x="13" y="14">sol</tspan></text></g></g><g id="g9384" transform="translate(102,137.42154)"><g id="g9382" transform="scale(1.5)"><path style="fill:#ff6ea1;fill-opacity:1;stroke:#ff2c76;stroke-width:1;stroke-linecap:round;stroke-opacity:1" id="path9376" d="m 8.5,0.5 h 60 v 20 h -60 v -8 -1 h -6 v 3 h -2 v -8 h 2 v 3 h 6 v -1 z"/><text style="font-size:10px;font-family:sans-serif;text-anchor:start;fill:#282828" id="text9380"><tspan id="tspan9378" x="13" y="14">4</tspan></text></g></g><g id="g9418" transform="translate(-456,6.4215375)"><g id="g9398" transform="translate(470,193)"><g id="g9396" transform="scale(1.5)"><path style="fill:#fe994f;fill-opacity:1;stroke:#e86b0e;stroke-width:1;stroke-linecap:round;stroke-opacity:1" id="path9386" d="m 0.5,8.5 v -4 a 4,4 90 0 1 4,-4 h 4 v 2 h 10 v -2 h 9 60 4 a 4,4 90 0 1 4,4 v 4 h -4 v -3 h -4 v 10 h 4 v -3 h 4 v 4 a 4,4 90 0 1 -4,4 h -4 -60 -1 v 2 h -8 v -2 h -1 -4 a 5,5 90 0 0 -5,5 v 4 4 42 4 a 5,5 90 0 0 5,5 h 4 v 2 h 10 v -2 h 8 v 6 6 4 a 4,4 90 0 1 -4,4 h -4 -9 -1 v 2 h -8 v -2 h -1 -4 a 4,4 90 0 1 -4,-4 v -4 z"/><text style="font-size:10px;font-family:sans-serif;text-anchor:start;fill:#282828" id="text9390"><tspan id="tspan9388" x="20" y="15">note</tspan></text><text style="font-size:6.66666651px;font-family:sans-serif;text-anchor:end;fill:#282828" id="text9394"><tspan id="tspan9392" x="85" y="12">value</tspan></text></g></g><g id="g9416" transform="matrix(0.5,0,0,0.5,470,197)"><g style="isolation:isolate" id="g9414"><g id="g9412" data-name="レイヤー 2"><g id="g9410"><rect style="opacity:.4;mix-blend-mode:multiply;fill:#292929" id="rect9400" width="42" height="42" x="0" y="0" rx="5" ry="5"/><path style="fill:#fff" id="path9402" d="m 30.56,29.8 -4.17,-4.16 h 2.26 a 1.035,1.035 0 1 0 0,-2.07 h -4.71 a 1.08,1.08 0 0 0 -1.11,1 v 0 c 0,0 0,0 0,0.06 v 4.64 0 a 1.04,1.04 0 1 0 2.08,0 v -2.19 l 4.19,4.19 a 1,1 0 0 0 1.46,0 1,1 0 0 0 0,-1.47 z"/><path style="fill:#fff" id="path9404" d="m 19.17,24.6 a 1.08,1.08 0 0 0 -1.11,-1 h -4.71 a 1.035,1.035 0 1 0 0,2.07 h 2.25 l -4.16,4.13 a 1.039447,1.039447 0 0 0 1.47,1.47 l 4.18,-4.19 v 2.26 a 1.04,1.04 0 1 0 2.08,0 V 24.7 c 0,0 0,0 0,-0.06 a 0.08,0.08 0 0 1 0,-0.04 z"/><path style="fill:#fff" id="path9406" d="m 23.94,20.5 h 4.7 a 1.04,1.04 0 1 0 0,-2.08 h -2.25 l 4.17,-4.16 a 1,1 0 0 0 0,-1.47 1,1 0 0 0 -1.46,0 L 24.91,17 v -2.28 a 1.04,1.04 0 1 0 -2.08,0 v 4.64 a 0.43,0.43 0 0 0 0,0.05 v 0.05 a 1.09,1.09 0 0 0 1.11,1.04 z"/><path style="fill:#fff" id="path9408" d="m 18.13,13.62 a 1.08,1.08 0 0 0 -1,1.09 V 17 l -4.18,-4.19 a 1,1 0 0 0 -1.47,0 1,1 0 0 0 0,1.46 l 4.16,4.17 h -2.29 a 1.04,1.04 0 1 0 0,2.08 h 4.71 a 1.09,1.09 0 0 0 1.11,-1 c 0,0 0,0 0,-0.06 v -4.75 a 1.07,1.07 0 0 0 -1.04,-1.09 z"/></g></g></g></g></g><g id="g9436" transform="translate(146,199.42154)"><g id="g9434" transform="scale(1.5)"><path style="fill:#ff6ea1;fill-opacity:1;stroke:#ff2c76;stroke-width:1;stroke-linecap:round;stroke-opacity:1" id="path9420" d="m 8.5,8.5 v -4 a 4,4 90 0 1 4,-4 h 4 10 30 4 a 4,4 90 0 1 4,4 v 4 h -4 v -3 h -4 v 10 h 4 v -3 h 4 v 17 h -4 v -3 h -4 v 10 h 4 v -3 h 4 v 4 a 4,4 90 0 1 -4,4 h -4 -30 -10 -4 a 4,4 90 0 1 -4,-4 v -4 -21 -1 h -6 v 3 h -2 v -8 h 2 v 3 h 6 z"/><text style="font-size:9px;font-family:sans-serif;text-anchor:end;fill:#282828" id="text9424"><tspan id="tspan9422" x="54" y="23">/</tspan></text></g></g><g id="g9446" transform="translate(232,199.42154)"><g id="g9444" transform="scale(1.5)"><path style="fill:#ff6ea1;fill-opacity:1;stroke:#ff2c76;stroke-width:1;stroke-linecap:round;stroke-opacity:1" id="path9438" d="m 8.5,0.5 h 60 v 20 h -60 v -8 -1 h -6 v 3 h -2 v -8 h 2 v 3 h 6 v -1 z"/><text style="font-size:10px;font-family:sans-serif;text-anchor:start;fill:#282828" id="text9442"><tspan id="tspan9440" x="13" y="14">1</tspan></text></g></g><g id="g9456" transform="translate(232,231.42154)"><g id="g9454" transform="scale(1.5)"><path style="fill:#ff6ea1;fill-opacity:1;stroke:#ff2c76;stroke-width:1;stroke-linecap:round;stroke-opacity:1" id="path9448" d="m 8.5,0.5 h 60 v 20 h -60 v -8 -1 h -6 v 3 h -2 v -8 h 2 v 3 h 6 v -1 z"/><text style="font-size:10px;font-family:sans-serif;text-anchor:start;fill:#282828" id="text9452"><tspan id="tspan9450" x="13" y="14">4</tspan></text></g></g><g id="g9466" transform="translate(28,231.42154)"><g id="g9464" transform="scale(1.5)"><path style="fill:#c4c4c4;fill-opacity:1;stroke:#a0a0a0;stroke-width:1;stroke-linecap:round;stroke-opacity:1" id="path9458" d="m 0.5,8.5 v -4 a 4,4 90 0 1 4,-4 h 4 v 2 h 10 v -2 h 20 4 a 4,4 90 0 1 4,4 v 4 4 4 a 4,4 90 0 1 -4,4 h -4 -20 -1 v 2 h -8 v -2 h -1 -4 a 4,4 90 0 1 -4,-4 v -4 z"/><text style="font-size:10px;font-family:sans-serif;text-anchor:end;fill:#282828" id="text9462"><tspan id="tspan9460" x="36" y="14">↓</tspan></text></g></g><g id="g9484" transform="translate(28,263.42154)"><g id="g9482" transform="scale(1.5)"><path style="fill:#7cd622;fill-opacity:1;stroke:#57ad02;stroke-width:1;stroke-linecap:round;stroke-opacity:1" id="path9468" d="m 0.5,8.5 v -4 a 4,4 90 0 1 4,-4 h 4 v 2 h 10 v -2 h 30 4 a 4,4 90 0 1 4,4 v 4 h -4 v -3 h -4 v 10 h 4 v -3 h 4 v 17 h -4 v -3 h -4 v 10 h 4 v -3 h 4 v 4 a 4,4 90 0 1 -4,4 h -4 -30 -1 v 2 h -8 v -2 h -1 -4 a 4,4 90 0 1 -4,-4 v -4 -21 z"/><text style="font-size:10px;font-family:sans-serif;text-anchor:end;fill:#282828" id="text9472"><tspan id="tspan9470" x="46" y="24">pitch</tspan></text><text style="font-size:6.66666651px;font-family:sans-serif;text-anchor:end;fill:#282828" id="text9476"><tspan id="tspan9474" x="46" y="12">name</tspan></text><text style="font-size:6.66666651px;font-family:sans-serif;text-anchor:end;fill:#282828" id="text9480"><tspan id="tspan9478" x="46" y="33">octave</tspan></text></g></g><g id="g9494" transform="translate(102,263.42154)"><g id="g9492" transform="scale(1.5)"><path style="fill:#7cd622;fill-opacity:1;stroke:#57ad02;stroke-width:1;stroke-linecap:round;stroke-opacity:1" id="path9486" d="m 8.5,0.5 h 60 v 20 h -60 v -8 -1 h -6 v 3 h -2 v -8 h 2 v 3 h 6 v -1 z"/><text style="font-size:10px;font-family:sans-serif;text-anchor:start;fill:#282828" id="text9490"><tspan id="tspan9488" x="13" y="14">mi</tspan></text></g></g><g id="g9504" transform="translate(102,295.42154)"><g id="g9502" transform="scale(1.5)"><path style="fill:#ff6ea1;fill-opacity:1;stroke:#ff2c76;stroke-width:1;stroke-linecap:round;stroke-opacity:1" id="path9496" d="m 8.5,0.5 h 60 v 20 h -60 v -8 -1 h -6 v 3 h -2 v -8 h 2 v 3 h 6 v -1 z"/><text style="font-size:10px;font-family:sans-serif;text-anchor:start;fill:#282828" id="text9500"><tspan id="tspan9498" x="13" y="14">4</tspan></text></g></g><g id="g9538" transform="translate(-456,6.4215375)"><g id="g9518" transform="translate(484,383)"><g id="g9516" transform="scale(1.5)"><path style="fill:#fe994f;fill-opacity:1;stroke:#e86b0e;stroke-width:1;stroke-linecap:round;stroke-opacity:1" id="path9506" d="m 0.5,8.5 v -4 a 4,4 90 0 1 4,-4 h 4 v 2 h 10 v -2 h 9 60 4 a 4,4 90 0 1 4,4 v 4 h -4 v -3 h -4 v 10 h 4 v -3 h 4 v 4 a 4,4 90 0 1 -4,4 h -4 -60 -1 v 2 h -8 v -2 h -1 -4 a 5,5 90 0 0 -5,5 v 4 4 42 4 a 5,5 90 0 0 5,5 h 4 v 2 h 10 v -2 h 8 v 6 6 4 a 4,4 90 0 1 -4,4 h -4 -9 -1 v 2 h -8 v -2 h -1 -4 a 4,4 90 0 1 -4,-4 v -4 z"/><text style="font-size:10px;font-family:sans-serif;text-anchor:start;fill:#282828" id="text9510"><tspan id="tspan9508" x="20" y="15">note</tspan></text><text style="font-size:6.66666651px;font-family:sans-serif;text-anchor:end;fill:#282828" id="text9514"><tspan id="tspan9512" x="85" y="12">value</tspan></text></g></g><g id="g9536" transform="matrix(0.5,0,0,0.5,484,387)"><g style="isolation:isolate" id="g9534"><g id="g9532" data-name="レイヤー 2"><g id="g9530"><rect style="opacity:.4;mix-blend-mode:multiply;fill:#292929" id="rect9520" width="42" height="42" x="0" y="0" rx="5" ry="5"/><path style="fill:#fff" id="path9522" d="m 30.56,29.8 -4.17,-4.16 h 2.26 a 1.035,1.035 0 1 0 0,-2.07 h -4.71 a 1.08,1.08 0 0 0 -1.11,1 v 0 c 0,0 0,0 0,0.06 v 4.64 0 a 1.04,1.04 0 1 0 2.08,0 v -2.19 l 4.19,4.19 a 1,1 0 0 0 1.46,0 1,1 0 0 0 0,-1.47 z"/><path style="fill:#fff" id="path9524" d="m 19.17,24.6 a 1.08,1.08 0 0 0 -1.11,-1 h -4.71 a 1.035,1.035 0 1 0 0,2.07 h 2.25 l -4.16,4.13 a 1.039447,1.039447 0 0 0 1.47,1.47 l 4.18,-4.19 v 2.26 a 1.04,1.04 0 1 0 2.08,0 V 24.7 c 0,0 0,0 0,-0.06 a 0.08,0.08 0 0 1 0,-0.04 z"/><path style="fill:#fff" id="path9526" d="m 23.94,20.5 h 4.7 a 1.04,1.04 0 1 0 0,-2.08 h -2.25 l 4.17,-4.16 a 1,1 0 0 0 0,-1.47 1,1 0 0 0 -1.46,0 L 24.91,17 v -2.28 a 1.04,1.04 0 1 0 -2.08,0 v 4.64 a 0.43,0.43 0 0 0 0,0.05 v 0.05 a 1.09,1.09 0 0 0 1.11,1.04 z"/><path style="fill:#fff" id="path9528" d="m 18.13,13.62 a 1.08,1.08 0 0 0 -1,1.09 V 17 l -4.18,-4.19 a 1,1 0 0 0 -1.47,0 1,1 0 0 0 0,1.46 l 4.16,4.17 h -2.29 a 1.04,1.04 0 1 0 0,2.08 h 4.71 a 1.09,1.09 0 0 0 1.11,-1 c 0,0 0,0 0,-0.06 v -4.75 a 1.07,1.07 0 0 0 -1.04,-1.09 z"/></g></g></g></g></g><g id="g9556" transform="translate(160,389.42154)"><g id="g9554" transform="scale(1.5)"><path style="fill:#ff6ea1;fill-opacity:1;stroke:#ff2c76;stroke-width:1;stroke-linecap:round;stroke-opacity:1" id="path9540" d="m 8.5,8.5 v -4 a 4,4 90 0 1 4,-4 h 4 10 30 4 a 4,4 90 0 1 4,4 v 4 h -4 v -3 h -4 v 10 h 4 v -3 h 4 v 17 h -4 v -3 h -4 v 10 h 4 v -3 h 4 v 4 a 4,4 90 0 1 -4,4 h -4 -30 -10 -4 a 4,4 90 0 1 -4,-4 v -4 -21 -1 h -6 v 3 h -2 v -8 h 2 v 3 h 6 z"/><text style="font-size:9px;font-family:sans-serif;text-anchor:end;fill:#282828" id="text9544"><tspan id="tspan9542" x="54" y="23">/</tspan></text></g></g><g id="g9566" transform="translate(246,389.42154)"><g id="g9564" transform="scale(1.5)"><path style="fill:#ff6ea1;fill-opacity:1;stroke:#ff2c76;stroke-width:1;stroke-linecap:round;stroke-opacity:1" id="path9558" d="m 8.5,0.5 h 60 v 20 h -60 v -8 -1 h -6 v 3 h -2 v -8 h 2 v 3 h 6 v -1 z"/><text style="font-size:10px;font-family:sans-serif;text-anchor:start;fill:#282828" id="text9562"><tspan id="tspan9560" x="13" y="14">1</tspan></text></g></g><g id="g9576" transform="translate(246,421.42154)"><g id="g9574" transform="scale(1.5)"><path style="fill:#ff6ea1;fill-opacity:1;stroke:#ff2c76;stroke-width:1;stroke-linecap:round;stroke-opacity:1" id="path9568" d="m 8.5,0.5 h 60 v 20 h -60 v -8 -1 h -6 v 3 h -2 v -8 h 2 v 3 h 6 v -1 z"/><text style="font-size:10px;font-family:sans-serif;text-anchor:start;fill:#282828" id="text9572"><tspan id="tspan9570" x="13" y="14">4</tspan></text></g></g><g id="g9586" transform="translate(42,421.42154)"><g id="g9584" transform="scale(1.5)"><path style="fill:#c4c4c4;fill-opacity:1;stroke:#a0a0a0;stroke-width:1;stroke-linecap:round;stroke-opacity:1" id="path9578" d="m 0.5,8.5 v -4 a 4,4 90 0 1 4,-4 h 4 v 2 h 10 v -2 h 20 4 a 4,4 90 0 1 4,4 v 4 4 4 a 4,4 90 0 1 -4,4 h -4 -20 -1 v 2 h -8 v -2 h -1 -4 a 4,4 90 0 1 -4,-4 v -4 z"/><text style="font-size:10px;font-family:sans-serif;text-anchor:end;fill:#282828" id="text9582"><tspan id="tspan9580" x="36" y="14">↓</tspan></text></g></g><g id="g9604" transform="translate(42,453.42154)"><g id="g9602" transform="scale(1.5)"><path style="fill:#7cd622;fill-opacity:1;stroke:#57ad02;stroke-width:1;stroke-linecap:round;stroke-opacity:1" id="path9588" d="m 0.5,8.5 v -4 a 4,4 90 0 1 4,-4 h 4 v 2 h 10 v -2 h 30 4 a 4,4 90 0 1 4,4 v 4 h -4 v -3 h -4 v 10 h 4 v -3 h 4 v 17 h -4 v -3 h -4 v 10 h 4 v -3 h 4 v 4 a 4,4 90 0 1 -4,4 h -4 -30 -1 v 2 h -8 v -2 h -1 -4 a 4,4 90 0 1 -4,-4 v -4 -21 z"/><text style="font-size:10px;font-family:sans-serif;text-anchor:end;fill:#282828" id="text9592"><tspan id="tspan9590" x="46" y="24">pitch</tspan></text><text style="font-size:6.66666651px;font-family:sans-serif;text-anchor:end;fill:#282828" id="text9596"><tspan id="tspan9594" x="46" y="12">name</tspan></text><text style="font-size:6.66666651px;font-family:sans-serif;text-anchor:end;fill:#282828" id="text9600"><tspan id="tspan9598" x="46" y="33">octave</tspan></text></g></g><g id="g9614" transform="translate(116,453.42154)"><g id="g9612" transform="scale(1.5)"><path style="fill:#7cd622;fill-opacity:1;stroke:#57ad02;stroke-width:1;stroke-linecap:round;stroke-opacity:1" id="path9606" d="m 8.5,0.5 h 60 v 20 h -60 v -8 -1 h -6 v 3 h -2 v -8 h 2 v 3 h 6 v -1 z"/><text style="font-size:10px;font-family:sans-serif;text-anchor:start;fill:#282828" id="text9610"><tspan id="tspan9608" x="13" y="14">sol</tspan></text></g></g><g id="g9624" transform="translate(116,485.42154)"><g id="g9622" transform="scale(1.5)"><path style="fill:#ff6ea1;fill-opacity:1;stroke:#ff2c76;stroke-width:1;stroke-linecap:round;stroke-opacity:1" id="path9616" d="m 8.5,0.5 h 60 v 20 h -60 v -8 -1 h -6 v 3 h -2 v -8 h 2 v 3 h 6 v -1 z"/><text style="font-size:10px;font-family:sans-serif;text-anchor:start;fill:#282828" id="text9620"><tspan id="tspan9618" x="13" y="14">4</tspan></text></g></g><g id="g9658" transform="translate(-456,6.4215375)"><g id="g9638" transform="translate(484,541)"><g id="g9636" transform="scale(1.5)"><path style="fill:#fe994f;fill-opacity:1;stroke:#e86b0e;stroke-width:1;stroke-linecap:round;stroke-opacity:1" id="path9626" d="m 0.5,8.5 v -4 a 4,4 90 0 1 4,-4 h 4 v 2 h 10 v -2 h 9 60 4 a 4,4 90 0 1 4,4 v 4 h -4 v -3 h -4 v 10 h 4 v -3 h 4 v 4 a 4,4 90 0 1 -4,4 h -4 -60 -1 v 2 h -8 v -2 h -1 -4 a 5,5 90 0 0 -5,5 v 4 4 42 4 a 5,5 90 0 0 5,5 h 4 v 2 h 10 v -2 h 8 v 6 6 4 a 4,4 90 0 1 -4,4 h -4 -9 -1 v 2 h -8 v -2 h -1 -4 a 4,4 90 0 1 -4,-4 v -4 z"/><text style="font-size:10px;font-family:sans-serif;text-anchor:start;fill:#282828" id="text9630"><tspan id="tspan9628" x="20" y="15">note</tspan></text><text style="font-size:6.66666651px;font-family:sans-serif;text-anchor:end;fill:#282828" id="text9634"><tspan id="tspan9632" x="85" y="12">value</tspan></text></g></g><g id="g9656" transform="matrix(0.5,0,0,0.5,484,545)"><g style="isolation:isolate" id="g9654"><g id="g9652" data-name="レイヤー 2"><g id="g9650"><rect style="opacity:.4;mix-blend-mode:multiply;fill:#292929" id="rect9640" width="42" height="42" x="0" y="0" rx="5" ry="5"/><path style="fill:#fff" id="path9642" d="m 30.56,29.8 -4.17,-4.16 h 2.26 a 1.035,1.035 0 1 0 0,-2.07 h -4.71 a 1.08,1.08 0 0 0 -1.11,1 v 0 c 0,0 0,0 0,0.06 v 4.64 0 a 1.04,1.04 0 1 0 2.08,0 v -2.19 l 4.19,4.19 a 1,1 0 0 0 1.46,0 1,1 0 0 0 0,-1.47 z"/><path style="fill:#fff" id="path9644" d="m 19.17,24.6 a 1.08,1.08 0 0 0 -1.11,-1 h -4.71 a 1.035,1.035 0 1 0 0,2.07 h 2.25 l -4.16,4.13 a 1.039447,1.039447 0 0 0 1.47,1.47 l 4.18,-4.19 v 2.26 a 1.04,1.04 0 1 0 2.08,0 V 24.7 c 0,0 0,0 0,-0.06 a 0.08,0.08 0 0 1 0,-0.04 z"/><path style="fill:#fff" id="path9646" d="m 23.94,20.5 h 4.7 a 1.04,1.04 0 1 0 0,-2.08 h -2.25 l 4.17,-4.16 a 1,1 0 0 0 0,-1.47 1,1 0 0 0 -1.46,0 L 24.91,17 v -2.28 a 1.04,1.04 0 1 0 -2.08,0 v 4.64 a 0.43,0.43 0 0 0 0,0.05 v 0.05 a 1.09,1.09 0 0 0 1.11,1.04 z"/><path style="fill:#fff" id="path9648" d="m 18.13,13.62 a 1.08,1.08 0 0 0 -1,1.09 V 17 l -4.18,-4.19 a 1,1 0 0 0 -1.47,0 1,1 0 0 0 0,1.46 l 4.16,4.17 h -2.29 a 1.04,1.04 0 1 0 0,2.08 h 4.71 a 1.09,1.09 0 0 0 1.11,-1 c 0,0 0,0 0,-0.06 v -4.75 a 1.07,1.07 0 0 0 -1.04,-1.09 z"/></g></g></g></g></g><g id="g9676" transform="translate(160,547.42154)"><g id="g9674" transform="scale(1.5)"><path style="fill:#ff6ea1;fill-opacity:1;stroke:#ff2c76;stroke-width:1;stroke-linecap:round;stroke-opacity:1" id="path9660" d="m 8.5,8.5 v -4 a 4,4 90 0 1 4,-4 h 4 10 30 4 a 4,4 90 0 1 4,4 v 4 h -4 v -3 h -4 v 10 h 4 v -3 h 4 v 17 h -4 v -3 h -4 v 10 h 4 v -3 h 4 v 4 a 4,4 90 0 1 -4,4 h -4 -30 -10 -4 a 4,4 90 0 1 -4,-4 v -4 -21 -1 h -6 v 3 h -2 v -8 h 2 v 3 h 6 z"/><text style="font-size:9px;font-family:sans-serif;text-anchor:end;fill:#282828" id="text9664"><tspan id="tspan9662" x="54" y="23">/</tspan></text></g></g><g id="g9686" transform="translate(246,547.42154)"><g id="g9684" transform="scale(1.5)"><path style="fill:#ff6ea1;fill-opacity:1;stroke:#ff2c76;stroke-width:1;stroke-linecap:round;stroke-opacity:1" id="path9678" d="m 8.5,0.5 h 60 v 20 h -60 v -8 -1 h -6 v 3 h -2 v -8 h 2 v 3 h 6 v -1 z"/><text style="font-size:10px;font-family:sans-serif;text-anchor:start;fill:#282828" id="text9682"><tspan id="tspan9680" x="13" y="14">1</tspan></text></g></g><g id="g9696" transform="translate(246,579.42154)"><g id="g9694" transform="scale(1.5)"><path style="fill:#ff6ea1;fill-opacity:1;stroke:#ff2c76;stroke-width:1;stroke-linecap:round;stroke-opacity:1" id="path9688" d="m 8.5,0.5 h 60 v 20 h -60 v -8 -1 h -6 v 3 h -2 v -8 h 2 v 3 h 6 v -1 z"/><text style="font-size:10px;font-family:sans-serif;text-anchor:start;fill:#282828" id="text9692"><tspan id="tspan9690" x="13" y="14">4</tspan></text></g></g><g id="g9706" transform="translate(42,579.42154)"><g id="g9704" transform="scale(1.5)"><path style="fill:#c4c4c4;fill-opacity:1;stroke:#a0a0a0;stroke-width:1;stroke-linecap:round;stroke-opacity:1" id="path9698" d="m 0.5,8.5 v -4 a 4,4 90 0 1 4,-4 h 4 v 2 h 10 v -2 h 20 4 a 4,4 90 0 1 4,4 v 4 4 4 a 4,4 90 0 1 -4,4 h -4 -20 -1 v 2 h -8 v -2 h -1 -4 a 4,4 90 0 1 -4,-4 v -4 z"/><text style="font-size:10px;font-family:sans-serif;text-anchor:end;fill:#282828" id="text9702"><tspan id="tspan9700" x="36" y="14">↓</tspan></text></g></g><g id="g9724" transform="translate(42,611.42154)"><g id="g9722" transform="scale(1.5)"><path style="fill:#7cd622;fill-opacity:1;stroke:#57ad02;stroke-width:1;stroke-linecap:round;stroke-opacity:1" id="path9708" d="m 0.5,8.5 v -4 a 4,4 90 0 1 4,-4 h 4 v 2 h 10 v -2 h 30 4 a 4,4 90 0 1 4,4 v 4 h -4 v -3 h -4 v 10 h 4 v -3 h 4 v 17 h -4 v -3 h -4 v 10 h 4 v -3 h 4 v 4 a 4,4 90 0 1 -4,4 h -4 -30 -1 v 2 h -8 v -2 h -1 -4 a 4,4 90 0 1 -4,-4 v -4 -21 z"/><text style="font-size:10px;font-family:sans-serif;text-anchor:end;fill:#282828" id="text9712"><tspan id="tspan9710" x="46" y="24">pitch</tspan></text><text style="font-size:6.66666651px;font-family:sans-serif;text-anchor:end;fill:#282828" id="text9716"><tspan id="tspan9714" x="46" y="12">name</tspan></text><text style="font-size:6.66666651px;font-family:sans-serif;text-anchor:end;fill:#282828" id="text9720"><tspan id="tspan9718" x="46" y="33">octave</tspan></text></g></g><g id="g9734" transform="translate(116,611.42154)"><g id="g9732" transform="scale(1.5)"><path style="fill:#7cd622;fill-opacity:1;stroke:#57ad02;stroke-width:1;stroke-linecap:round;stroke-opacity:1" id="path9726" d="m 8.5,0.5 h 60 v 20 h -60 v -8 -1 h -6 v 3 h -2 v -8 h 2 v 3 h 6 v -1 z"/><text style="font-size:10px;font-family:sans-serif;text-anchor:start;fill:#282828" id="text9730"><tspan id="tspan9728" x="13" y="14">mi</tspan></text></g></g><g id="g9744" transform="translate(116,643.42154)"><g id="g9742" transform="scale(1.5)"><path style="fill:#ff6ea1;fill-opacity:1;stroke:#ff2c76;stroke-width:1;stroke-linecap:round;stroke-opacity:1" id="path9736" d="m 8.5,0.5 h 60 v 20 h -60 v -8 -1 h -6 v 3 h -2 v -8 h 2 v 3 h 6 v -1 z"/><text style="font-size:10px;font-family:sans-serif;text-anchor:start;fill:#282828" id="text9740"><tspan id="tspan9738" x="13" y="14">4</tspan></text></g></g></svg>