<svg xmlns="http://www.w3.org/2000/svg" xmlns:svg="http://www.w3.org/2000/svg" id="svg4167" width="178.594" height="135.79" version="1.1" viewBox="0 0 178.594 135.79"><metadata id="metadata4172"/><g id="g1276" transform="matrix(0.93749999,0,0,0.93749999,12.65625,67.895191)"><g id="g1274" transform="scale(1.5)"><path id="path1264" d="m 0.5,8.5 v -4 a 4,4 90 0 1 4,-4 h 4 v 2 h 10 v -2 h 30 4 a 4,4 90 0 1 4,4 v 4 h -4 v -3 h -4 v 10 h 4 v -3 h 4 v 4 a 4,4 90 0 1 -4,4 h -4 -30 -1 v 2 h -8 v -2 h -1 -4 a 4,4 90 0 1 -4,-4 v -4 z" style="fill:#7cd622;fill-opacity:1;stroke:#57ad02;stroke-width:1;stroke-linecap:round;stroke-opacity:1"/><text id="text1268" style="font-size:10px;font-family:sans-serif;text-anchor:end;fill:#000"><tspan id="tspan1266" x="46.333" y="13.5">hertz</tspan></text></g></g><g id="g1286" transform="matrix(0.93749999,0,0,0.93749999,81.5625,67.895191)"><g id="g1284" transform="scale(1.5)"><path id="path1278" d="m 8.5,0.5 h 60 v 20 h -60 v -8 -1 h -6 v 3 h -2 v -8 h 2 v 3 h 6 v -1 z" style="fill:#ff6ea1;fill-opacity:1;stroke:#ff2c76;stroke-width:1;stroke-linecap:round;stroke-opacity:1"/><text id="text1282" style="font-size:10px;font-family:sans-serif;text-anchor:start;fill:#000"><tspan id="tspan1280" x="13.333" y="13.833">440</tspan></text></g></g><path id="path1288" d="m 0.703125,20.785816 v -5.625 a 5.625,5.625 0 0 1 5.625,-5.6249996 h 5.625 l 7.03125,-8.4375 7.03125,8.4375 h 12.65625 53.153229 5.625 a 5.625,5.625 0 0 1 5.624996,5.6249996 v 5.625 5.625 5.625 a 5.625,5.625 0 0 1 -5.624996,5.625 h -5.625 -53.153229 -1.40625 v 2.8125 h -11.25 v -2.8125 h -1.40625 -5.625 a 7.03125,7.03125 0 0 0 -7.03125,7.03125 v 5.625 5.625 29.53125 5.625 a 7.03125,7.03125 0 0 0 7.03125,7.03125 h 5.625 v 2.812504 h 14.0625 v -2.812504 h 11.25 v 8.437504 8.4375 5.625 a 5.625,5.625 0 0 1 -5.625,5.625 h -5.625 -12.65625 l -7.03125,8.4375 -7.03125,-8.4375 h -5.625 a 5.625,5.625 0 0 1 -5.625,-5.625 v -5.625 z" style="fill:#7cd622;fill-opacity:1;stroke:#57ad02;stroke-width:1.40625;stroke-linecap:round;stroke-opacity:1"/><text id="text1292" y=".395" style="font-size:14.0625px;font-family:sans-serif;text-anchor:start;fill:#000;stroke-width:1.40625"><tspan id="tspan1290" x="7.5" y="30.63" style="stroke-width:1.40625">pitch slider</tspan></text><g id="g1310" transform="matrix(0.93749999,0,0,0.93749999,12.65625,38.363941)"><g id="g1308" transform="scale(1.5)"><path id="path1298" d="m 0.5,8.5 v -4 a 4,4 90 0 1 4,-4 h 4 v 2 h 10 v -2 h 30 4 a 4,4 90 0 1 4,4 v 4 h -4 v -3 h -4 v 10 h 4 v -3 h 4 v 4 a 4,4 90 0 1 -4,4 h -4 -30 -1 v 2 h -8 v -2 h -1 -4 a 4,4 90 0 1 -4,-4 v -4 z" style="fill:#7cd622;fill-opacity:1;stroke:#57ad02;stroke-width:1;stroke-linecap:round;stroke-opacity:1"/><text id="text1302" style="font-size:10px;font-family:sans-serif;text-anchor:end;fill:#000"><tspan id="tspan1300" x="46.333" y="13.5">hertz</tspan></text></g></g><g id="g1320" transform="matrix(0.93749999,0,0,0.93749999,81.5625,38.363941)"><g id="g1318" transform="scale(1.5)"><path id="path1312" d="m 8.5,0.5 h 60 v 20 h -60 v -8 -1 h -6 v 3 h -2 v -8 h 2 v 3 h 6 v -1 z" style="fill:#ff6ea1;fill-opacity:1;stroke:#ff2c76;stroke-width:1;stroke-linecap:round;stroke-opacity:1"/><text id="text1316" style="font-size:10px;font-family:sans-serif;text-anchor:start;fill:#000"><tspan id="tspan1314" x="13.333" y="13.833">220</tspan></text></g></g></svg>