<svg xmlns="http://www.w3.org/2000/svg" xmlns:svg="http://www.w3.org/2000/svg" id="svg4075" width="267.395" height="120.937" version="1.1" viewBox="0 0 267.395 120.937"><metadata id="metadata4080"/><g id="g857" transform="scale(0.93749997)"><g id="g855" transform="scale(1.5)"><path id="path845" d="m 0.5,8.5 v -4 a 4,4 90 0 1 4,-4 h 4 v 2 h 10 v -2 h 9 36.147461 4 a 4,4 90 0 1 4,4 v 4 h -4 v -3 h -4 v 10 h 4 v -3 h 4 v 4 a 4,4 90 0 1 -4,4 h -4 H 27.5 h -1 v 2 h -8 v -2 h -1 -4 a 5,5 90 0 0 -5,5 v 4 4 21 4 a 5,5 90 0 0 5,5 h 4 v 2 h 10 v -2 h 8 v 6 6 4 a 4,4 90 0 1 -4,4 h -4 -9 -1 v 2 h -8 v -2 h -1 -4 a 4,4 90 0 1 -4,-4 v -4 z" style="fill:#fe994f;fill-opacity:1;stroke:#e8680e;stroke-width:1;stroke-linecap:round;stroke-opacity:1"/><text id="text849" style="font-size:10px;font-family:sans-serif;text-anchor:start;fill:#000"><tspan id="tspan847" x="5.333" y="15.25">note value</tspan></text></g></g><g id="g875" transform="matrix(0.93749997,0,0,0.93749997,90.20736,0)"><g id="g873" transform="scale(1.5)"><path id="path859" d="m 8.5,8.5 v -4 a 4,4 90 0 1 4,-4 h 4 10 30 4 a 4,4 90 0 1 4,4 v 4 h -4 v -3 h -4 v 10 h 4 v -3 h 4 v 17 h -4 v -3 h -4 v 10 h 4 v -3 h 4 v 4 a 4,4 90 0 1 -4,4 h -4 -30 -10 -4 a 4,4 90 0 1 -4,-4 v -4 -21 -1 h -6 v 3 h -2 v -8 h 2 v 3 h 6 z" style="fill:#ff6ea1;fill-opacity:1;stroke:#ff2c76;stroke-width:1;stroke-linecap:round;stroke-opacity:1"/><text id="text863" style="font-size:14px;font-family:sans-serif;text-anchor:end;fill:#000"><tspan id="tspan861" x="54.333" y="23.8">/</tspan></text></g></g><g id="g885" transform="matrix(0.93749997,0,0,0.93749997,170.36361,0)"><g id="g883" transform="scale(1.5)"><path id="path877" d="m 8.5,0.5 h 60 v 20 h -60 v -8 -1 h -6 v 3 h -2 v -8 h 2 v 3 h 6 v -1 z" style="fill:#ff6ea1;fill-opacity:1;stroke:#ff2c76;stroke-width:1;stroke-linecap:round;stroke-opacity:1"/><text id="text881" style="font-size:10px;font-family:sans-serif;text-anchor:start;fill:#000"><tspan id="tspan879" x="13.333" y="13.833">1</tspan></text></g></g><g id="g895" transform="matrix(0.93749997,0,0,0.93749997,170.36361,29.531249)"><g id="g893" transform="scale(1.5)"><path id="path887" d="m 8.5,0.5 h 60 v 20 h -60 v -8 -1 h -6 v 3 h -2 v -8 h 2 v 3 h 6 v -1 z" style="fill:#ff6ea1;fill-opacity:1;stroke:#ff2c76;stroke-width:1;stroke-linecap:round;stroke-opacity:1"/><text id="text891" style="font-size:10px;font-family:sans-serif;text-anchor:start;fill:#000"><tspan id="tspan889" x="13.333" y="13.833">8</tspan></text></g></g><path id="path897" d="m 13.359375,41.484374 v -5.625 a 5.625,5.625 0 0 1 5.625,-5.625 h 5.625 v 2.8125 h 14.0625 v -2.8125 h 28.125 5.625 a 5.625,5.625 0 0 1 5.625,5.625 v 5.625 5.625 5.625 a 5.625,5.625 0 0 1 -5.625,5.625 h -5.625 -28.125 -1.40625 v 2.8125 h -11.25 v -2.8125 h -1.40625 -5.625 a 5.625,5.625 0 0 1 -5.625,-5.625 v -5.625 z" style="fill:#c4c4c4;fill-opacity:1;stroke:#a0a0a0;stroke-width:1.40625;stroke-linecap:round;stroke-opacity:1"/><text id="text901" x="12.656" y="29.531" style="font-size:14.0625px;font-family:sans-serif;text-anchor:end;fill:#000;stroke-width:1.40625"><tspan id="tspan899" x="63.75" y="48.516" style="stroke-width:1.40625">↓</tspan></text><g id="g919" transform="matrix(0.93749997,0,0,0.93749997,12.65625,59.062502)"><g id="g917" transform="scale(1.5)"><path id="path907" d="m 0.5,8.5 v -4 a 4,4 90 0 1 4,-4 h 4 v 2 h 10 v -2 h 30 4 a 4,4 90 0 1 4,4 v 4 h -4 v -3 h -4 v 10 h 4 v -3 h 4 v 4 a 4,4 90 0 1 -4,4 h -4 -30 -1 v 2 h -8 v -2 h -1 -4 a 4,4 90 0 1 -4,-4 v -4 z" style="fill:#7cd622;fill-opacity:1;stroke:#57ad02;stroke-width:1;stroke-linecap:round;stroke-opacity:1"/><text id="text911" style="font-size:10px;font-family:sans-serif;text-anchor:end;fill:#000"><tspan id="tspan909" x="46.333" y="13.5">hertz</tspan></text></g></g><g id="g929" transform="matrix(0.93749997,0,0,0.93749997,81.56249,59.062502)"><g id="g927" transform="scale(1.5)"><path id="path921" d="m 8.5,0.5 h 60 v 20 h -60 v -8 -1 h -6 v 3 h -2 v -8 h 2 v 3 h 6 v -1 z" style="fill:#ff6ea1;fill-opacity:1;stroke:#ff2c76;stroke-width:1;stroke-linecap:round;stroke-opacity:1"/><text id="text925" style="font-size:10px;font-family:sans-serif;text-anchor:start;fill:#000"><tspan id="tspan923" x="13.333" y="13.833">373</tspan></text></g></g></svg>