<svg xmlns="http://www.w3.org/2000/svg" xmlns:svg="http://www.w3.org/2000/svg" id="svg5587" width="286.258" height="312.978" version="1.1" viewBox="0 0 286.258 312.978"><metadata id="metadata5592"/><flowRoot style="font-style:normal;font-weight:400;font-size:16px;line-height:125%;font-family:sans-serif;text-align:center;letter-spacing:0;word-spacing:0;text-anchor:middle;fill:#000;fill-opacity:1;stroke:none;stroke-width:1px;stroke-linecap:butt;stroke-linejoin:miter;stroke-opacity:1" id="flowRoot4622" transform="translate(4.5278969,-871.63404)" xml:space="preserve"><flowRegion id="flowRegion4624"><rect id="rect4626" width="320.467" height="182.714" x="673.46" y="575.885"/></flowRegion><flowPara id="flowPara4628"/></flowRoot><path id="path964" d="m 0.70312815,20.785816 v -5.625 A 5.625,5.625 0 0 1 6.3281281,9.5358162 h 5.6249999 l 7.03125,-8.4375 7.03125,8.4375 h 12.65625 60.953522 5.625 a 5.625,5.625 0 0 1 5.625,5.6249998 v 5.625 5.625 5.625 a 5.625,5.625 0 0 1 -5.625,5.625 h -5.625 -60.953522 -1.40625 v 2.8125 h -11.25 v -2.8125 h -1.40625 -5.625 a 7.03125,7.03125 0 0 0 -7.03125,7.03125 v 5.625 5.625 206.718754 5.625 a 7.03125,7.03125 0 0 0 7.03125,7.03125 h 5.625 v 2.8125 h 14.0625 v -2.8125 h 11.25 v 8.4375 8.4375 5.625 a 5.625,5.625 0 0 1 -5.625,5.625 h -5.625 -12.65625 l -7.03125,8.4375 -7.03125,-8.4375 H 6.3281281 a 5.625,5.625 0 0 1 -5.62499995,-5.625 v -5.625 z" style="fill:#7cd622;fill-opacity:1;stroke:#57ad02;stroke-width:1.40625;stroke-linecap:round;stroke-opacity:1"/><text id="text968" x="0" y=".395" style="font-size:14.0625px;font-family:sans-serif;text-anchor:start;fill:#000;stroke-width:1.40625"><tspan id="tspan966" x="7.5" y="30.63" style="stroke-width:1.40625">rhythm maker</tspan></text><path id="path974" d="m 13.359378,50.317066 v -5.625 a 5.625,5.625 0 0 1 5.625,-5.625 h 5.625 v 2.8125 h 14.0625 v -2.8125 h 12.65625 40.642547 5.625 a 5.625,5.625 0 0 1 5.625005,5.625 v 5.625 h -5.625005 v -4.21875 h -5.625 v 14.0625 h 5.625 v -4.21875 h 5.625005 v 5.625 a 5.625,5.625 0 0 1 -5.625005,5.625 h -5.625 -40.642547 -1.40625 v 2.8125 h -11.25 v -2.8125 h -1.40625 -5.625 a 7.03125,7.03125 0 0 0 -7.03125,7.03125 v 5.625 5.625 29.531254 5.625 a 7.03125,7.03125 0 0 0 7.03125,7.03125 h 5.625 v 2.8125 h 14.0625 v -2.8125 h 11.25 v 8.4375 8.4375 5.625 a 5.625,5.625 0 0 1 -5.625,5.625 h -5.625 -12.65625 -1.40625 v 2.8125 h -11.25 v -2.8125 h -1.40625 -5.625 a 5.625,5.625 0 0 1 -5.625,-5.625 v -5.625 z" style="fill:#3edcdd;fill-opacity:1;stroke:#1dbcbd;stroke-width:1.40625;stroke-linecap:round;stroke-opacity:1"/><text id="text978" x="12.656" y="38.364" style="font-size:14.0625px;font-family:sans-serif;text-anchor:start;fill:#000;stroke-width:1.40625"><tspan id="tspan976" x="20.156" y="59.809" style="stroke-width:1.40625">set drum</tspan></text><path id="path988" d="m 104.62692,39.067066 h 94.375 v 28.125 h -94.375 v -11.25 -1.40625 h -8.437496 v 4.21875 h -2.8125 v -11.25 h 2.8125 v 4.21875 h 8.437496 v -1.40625 z" style="fill:#3edcdd;fill-opacity:1;stroke:#1dbcbd;stroke-width:1.40625;stroke-linecap:round;stroke-opacity:1"/><text id="text992" x="92.674" y="38.364" style="font-size:14.0625px;font-family:sans-serif;text-anchor:start;fill:#000;stroke-width:1.40625"><tspan id="tspan990" x="111.424" y="57.817" style="stroke-width:1.40625">snare drum</tspan></text><path id="path998" d="m 26.015628,79.848315 v -5.625 a 5.625,5.625 0 0 1 5.625,-5.625 h 5.625 v 2.8125 h 14.0625 v -2.8125 h 57.039642 5.625 a 5.625,5.625 0 0 1 5.625,5.625 v 5.625 h -5.625 v -4.21875 h -5.625 v 14.0625 h 5.625 v -4.21875 h 5.625 v 23.906255 h -5.625 v -4.21875 h -5.625 v 14.0625 h 5.625 v -4.21875 h 5.625 v 5.625 a 5.625,5.625 0 0 1 -5.625,5.625 h -5.625 -57.039642 -1.40625 v 2.8125 h -11.25 v -2.8125 h -1.40625 -5.625 a 5.625,5.625 0 0 1 -5.625,-5.625 v -5.625 -29.531255 z" style="fill:#92a9ff;fill-opacity:1;stroke:#5370dc;stroke-width:1.40625;stroke-linecap:round;stroke-opacity:1"/><text id="text1002" x="25.313" y="67.895" style="font-size:14.0625px;font-family:sans-serif;text-anchor:end;fill:#000;stroke-width:1.40625"><tspan id="tspan1000" x="105.321" y="101.645" style="stroke-width:1.40625">rhythm</tspan></text><text id="text1006" x="25.313" y="67.895" style="font-size:9.375px;font-family:sans-serif;text-anchor:end;fill:#000;stroke-width:1.40625"><tspan id="tspan1004" x="105.321" y="83.716" style="stroke-width:1.40625">number of notes</tspan></text><text id="text1010" x="25.313" y="67.895" style="font-size:9.375px;font-family:sans-serif;text-anchor:end;fill:#000;stroke-width:1.40625"><tspan id="tspan1008" x="105.321" y="113.247" style="stroke-width:1.40625">note value</tspan></text><path id="path1016" d="m 121.02402,68.598315 h 84.375 v 28.125 h -84.375 v -11.25 -1.40625 h -8.4375 v 4.21875 h -2.8125 v -11.25 h 2.8125 v 4.21875 h 8.4375 v -1.40625 z" style="fill:#ff6ea1;fill-opacity:1;stroke:#ff2c76;stroke-width:1.40625;stroke-linecap:round;stroke-opacity:1"/><text id="text1020" x="109.071" y="67.895" style="font-size:14.0625px;font-family:sans-serif;text-anchor:start;fill:#000;stroke-width:1.40625"><tspan id="tspan1018" x="127.821" y="87.348" style="stroke-width:1.40625">1</tspan></text><path id="path1026" d="m 121.02402,109.37957 v -5.625 a 5.625,5.625 0 0 1 5.625,-5.625005 h 5.625 14.0625 42.1875 5.625 a 5.625,5.625 0 0 1 5.625,5.625005 v 5.625 h -5.625 v -4.21875 h -5.625 v 14.0625 h 5.625 v -4.21875 h 5.625 v 23.90625 h -5.625 v -4.21875 h -5.625 v 14.0625 h 5.625 v -4.21875 h 5.625 v 5.625 a 5.625,5.625 0 0 1 -5.625,5.625 h -5.625 -42.1875 -14.0625 -5.625 a 5.625,5.625 0 0 1 -5.625,-5.625 v -5.625 -29.53125 -1.40625 h -8.4375 v 4.21875 h -2.8125 v -11.25 h 2.8125 v 4.21875 h 8.4375 z" style="fill:#ff6ea1;fill-opacity:1;stroke:#ff2c76;stroke-width:1.40625;stroke-linecap:round;stroke-opacity:1"/><text id="text1030" x="109.071" y="97.426" style="font-size:19.6875px;font-family:sans-serif;text-anchor:end;fill:#000;stroke-width:1.40625"><tspan id="tspan1028" x="185.477" y="130.895" style="stroke-width:1.40625">/</tspan></text><path id="path1044" d="m 201.18027,98.129565 h 84.375 v 28.125005 h -84.375 v -11.25 -1.40625 h -8.4375 v 4.21875 h -2.8125 v -11.25 h 2.8125 v 4.21875 h 8.4375 v -1.40625 z" style="fill:#ff6ea1;fill-opacity:1;stroke:#ff2c76;stroke-width:1.40625;stroke-linecap:round;stroke-opacity:1"/><text id="text1048" x="189.227" y="97.426" style="font-size:14.0625px;font-family:sans-serif;text-anchor:start;fill:#000;stroke-width:1.40625"><tspan id="tspan1046" x="207.977" y="116.88" style="stroke-width:1.40625">1</tspan></text><path id="path1054" d="m 201.18027,127.66082 h 84.375 v 28.125 h -84.375 v -11.25 -1.40625 h -8.4375 v 4.21875 h -2.8125 v -11.25 h 2.8125 v 4.21875 h 8.4375 v -1.40625 z" style="fill:#ff6ea1;fill-opacity:1;stroke:#ff2c76;stroke-width:1.40625;stroke-linecap:round;stroke-opacity:1"/><text id="text1058" x="189.227" y="126.958" style="font-size:14.0625px;font-family:sans-serif;text-anchor:start;fill:#000;stroke-width:1.40625"><tspan id="tspan1056" x="207.977" y="146.411" style="stroke-width:1.40625">1</tspan></text><path id="path1064" d="m 13.359378,168.44207 v -5.625 a 5.625,5.625 0 0 1 5.625,-5.625 h 5.625 v 2.8125 h 14.0625 v -2.8125 h 12.65625 40.642547 5.625 a 5.625,5.625 0 0 1 5.625005,5.625 v 5.625 h -5.625005 v -4.21875 h -5.625 v 14.0625 h 5.625 v -4.21875 h 5.625005 v 5.625 a 5.625,5.625 0 0 1 -5.625005,5.625 h -5.625 -40.642547 -1.40625 v 2.8125 h -11.25 v -2.8125 h -1.40625 -5.625 a 7.03125,7.03125 0 0 0 -7.03125,7.03125 v 5.625 5.625 29.53125 5.625 a 7.03125,7.03125 0 0 0 7.03125,7.03125 h 5.625 v 2.8125 h 14.0625 v -2.8125 h 11.25 v 8.4375 8.4375 5.625 a 5.625,5.625 0 0 1 -5.625,5.625 h -5.625 -12.65625 -1.40625 v 2.8125 h -11.25 v -2.8125 h -1.40625 -5.625 a 5.625,5.625 0 0 1 -5.625,-5.625 v -5.625 z" style="fill:#3edcdd;fill-opacity:1;stroke:#1dbcbd;stroke-width:1.40625;stroke-linecap:round;stroke-opacity:1"/><text id="text1068" x="12.656" y="156.489" style="font-size:14.0625px;font-family:sans-serif;text-anchor:start;fill:#000;stroke-width:1.40625"><tspan id="tspan1066" x="20.156" y="177.934" style="stroke-width:1.40625">set drum</tspan></text><path id="path1078" d="m 104.62692,157.19207 h 84.375 v 28.125 h -84.375 v -11.25 -1.40625 h -8.437496 v 4.21875 h -2.8125 v -11.25 h 2.8125 v 4.21875 h 8.437496 v -1.40625 z" style="fill:#3edcdd;fill-opacity:1;stroke:#1dbcbd;stroke-width:1.40625;stroke-linecap:round;stroke-opacity:1"/><text id="text1082" x="92.674" y="156.489" style="font-size:14.0625px;font-family:sans-serif;text-anchor:start;fill:#000;stroke-width:1.40625"><tspan id="tspan1080" x="111.424" y="175.942" style="stroke-width:1.40625">kick drum</tspan></text><path id="path1088" d="m 26.015628,197.97332 v -5.625 a 5.625,5.625 0 0 1 5.625,-5.625 h 5.625 v 2.8125 h 14.0625 v -2.8125 h 57.039642 5.625 a 5.625,5.625 0 0 1 5.625,5.625 v 5.625 h -5.625 v -4.21875 h -5.625 v 14.0625 h 5.625 v -4.21875 h 5.625 v 23.90625 h -5.625 v -4.21875 h -5.625 v 14.0625 h 5.625 v -4.21875 h 5.625 v 5.625 a 5.625,5.625 0 0 1 -5.625,5.625 h -5.625 -57.039642 -1.40625 v 2.8125 h -11.25 v -2.8125 h -1.40625 -5.625 a 5.625,5.625 0 0 1 -5.625,-5.625 v -5.625 -29.53125 z" style="fill:#92a9ff;fill-opacity:1;stroke:#5370dc;stroke-width:1.40625;stroke-linecap:round;stroke-opacity:1"/><text id="text1092" x="25.313" y="186.02" style="font-size:14.0625px;font-family:sans-serif;text-anchor:end;fill:#000;stroke-width:1.40625"><tspan id="tspan1090" x="105.321" y="219.77" style="stroke-width:1.40625">rhythm</tspan></text><text id="text1096" x="25.313" y="186.02" style="font-size:9.375px;font-family:sans-serif;text-anchor:end;fill:#000;stroke-width:1.40625"><tspan id="tspan1094" x="105.321" y="201.84" style="stroke-width:1.40625">number of notes</tspan></text><text id="text1100" x="25.313" y="186.02" style="font-size:9.375px;font-family:sans-serif;text-anchor:end;fill:#000;stroke-width:1.40625"><tspan id="tspan1098" x="105.321" y="231.372" style="stroke-width:1.40625">note value</tspan></text><path id="path1106" d="m 121.02402,186.72332 h 84.375 v 28.125 h -84.375 v -11.25 -1.40625 h -8.4375 v 4.21875 h -2.8125 v -11.25 h 2.8125 v 4.21875 h 8.4375 v -1.40625 z" style="fill:#ff6ea1;fill-opacity:1;stroke:#ff2c76;stroke-width:1.40625;stroke-linecap:round;stroke-opacity:1"/><text id="text1110" x="109.071" y="186.02" style="font-size:14.0625px;font-family:sans-serif;text-anchor:start;fill:#000;stroke-width:1.40625"><tspan id="tspan1108" x="127.821" y="205.473" style="stroke-width:1.40625">1</tspan></text><path id="path1116" d="m 121.02402,227.50457 v -5.625 a 5.625,5.625 0 0 1 5.625,-5.625 h 5.625 14.0625 42.1875 5.625 a 5.625,5.625 0 0 1 5.625,5.625 v 5.625 h -5.625 v -4.21875 h -5.625 v 14.0625 h 5.625 v -4.21875 h 5.625 v 23.90625 h -5.625 v -4.21875 h -5.625 v 14.0625 h 5.625 v -4.21875 h 5.625 v 5.625 a 5.625,5.625 0 0 1 -5.625,5.625 h -5.625 -42.1875 -14.0625 -5.625 a 5.625,5.625 0 0 1 -5.625,-5.625 v -5.625 -29.53125 -1.40625 h -8.4375 v 4.21875 h -2.8125 v -11.25 h 2.8125 v 4.21875 h 8.4375 z" style="fill:#ff6ea1;fill-opacity:1;stroke:#ff2c76;stroke-width:1.40625;stroke-linecap:round;stroke-opacity:1"/><text id="text1120" x="109.071" y="215.551" style="font-size:19.6875px;font-family:sans-serif;text-anchor:end;fill:#000;stroke-width:1.40625"><tspan id="tspan1118" x="185.477" y="249.02" style="stroke-width:1.40625">/</tspan></text><path id="path1134" d="m 201.18027,216.25457 h 84.375 v 28.125 h -84.375 v -11.25 -1.40625 h -8.4375 v 4.21875 h -2.8125 v -11.25 h 2.8125 v 4.21875 h 8.4375 v -1.40625 z" style="fill:#ff6ea1;fill-opacity:1;stroke:#ff2c76;stroke-width:1.40625;stroke-linecap:round;stroke-opacity:1"/><text id="text1138" x="189.227" y="215.551" style="font-size:14.0625px;font-family:sans-serif;text-anchor:start;fill:#000;stroke-width:1.40625"><tspan id="tspan1136" x="207.977" y="235.005" style="stroke-width:1.40625">1</tspan></text><path id="path1144" d="m 201.18027,245.78582 h 84.375 v 28.125 h -84.375 v -11.25 -1.40625 h -8.4375 v 4.21875 h -2.8125 v -11.25 h 2.8125 v 4.21875 h 8.4375 v -1.40625 z" style="fill:#ff6ea1;fill-opacity:1;stroke:#ff2c76;stroke-width:1.40625;stroke-linecap:round;stroke-opacity:1"/><text id="text1148" x="189.227" y="245.083" style="font-size:14.0625px;font-family:sans-serif;text-anchor:start;fill:#000;stroke-width:1.40625"><tspan id="tspan1146" x="207.977" y="264.536" style="stroke-width:1.40625">1</tspan></text></svg>