<svg xmlns="http://www.w3.org/2000/svg" xmlns:svg="http://www.w3.org/2000/svg" id="svg3641" width="190.5" height="333.843" version="1.1"><metadata id="metadata3670"/><g id="g1784" transform="translate(25.5,229.92154)"><g id="g1782" transform="scale(1.5)"><path id="path1776" d="m -7.5,8.5 v -4 c 0,-2.209139 1.790861,-4 4,-4 h 4 v 2 h 10 v -2 h 48 4 c 2.209139,0 4,1.790861 4,4 v 4 4 4 c 0,2.209139 -1.790861,4 -4,4 h -4 -48 -1 v 2 h -8 v -2 h -1 -4 c -2.209139,0 -4.6985911,-1.904227 -4,-4 v -4 z" style="fill:#ffbf00;fill-opacity:1;stroke:#daaf30;stroke-width:1;stroke-linecap:round;stroke-opacity:1"/><text id="text1780" style="font-size:10px;font-family:sans-serif;text-anchor:end;fill:#000"><tspan id="tspan1778" x="56.333" y="13.5">kick_rhythm</tspan></text></g></g><g id="g1794" transform="translate(35.5,261.42154)"><g id="g1792" transform="scale(1.5)"><path id="path1786" d="m -14.166667,8.5 v -4 c 0,-2.209139 1.790861,-4 4,-4 h 4.0000003 v 2 h 10 v -2 H 58.5 h 4 c 2.209139,0 4,1.790861 4,4 v 4 4 4 c 0,2.209139 -1.790861,4 -4,4 h -4 -54.6666667 -1 v 2 h -8 v -2 h -1 -4.0000003 c -2.209139,0 -4.698591,-1.904227 -4,-4 v -4 z" style="fill:#ffbf00;fill-opacity:1;stroke:#daaf30;stroke-width:1;stroke-linecap:round;stroke-opacity:1"/><text id="text1790" style="font-size:10px;font-family:sans-serif;text-anchor:end;fill:#000"><tspan id="tspan1788" x="56.333" y="13.5">snare_rhythm</tspan></text></g></g><path id="path1796" d="m 0.75,22.171537 v -6 a 6,6 0 0 1 6,-6 h 6 l 7.5,-9 7.5,9 h 13.5 95.01709 6 a 6,6 0 0 1 6,6 v 6 6 6 a 6,6 0 0 1 -6,6 h -6 H 41.25 39.75 v 3 h -12 v -3 h -1.5 -6 a 7.5,7.5 0 0 0 -7.5,7.5 v 6 6 220.500003 6 a 7.5,7.5 0 0 0 7.5,7.5 h 6 v 3 h 15 v -3 h 12 v 9 9 6 a 6,6 0 0 1 -6,6 h -6 -13.5 l -7.5,9 -7.5,-9 h -6 a 6,6 0 0 1 -6,-6 v -6 z" style="fill:#7cd622;fill-opacity:1;stroke:#57ad02;stroke-width:1.5;stroke-linecap:round;stroke-opacity:1"/><text id="text1800" y=".422" style="font-size:15px;font-family:sans-serif;text-anchor:start;fill:#000;stroke-width:1.5"><tspan id="tspan1798" x="8" y="32.672" style="stroke-width:1.5">phrase maker</tspan></text><g id="g1822" transform="translate(13.5,40.921537)"><g id="g1820" transform="scale(1.5)"><path id="path1806" d="m 0.5,8.5 v -4 a 4,4 90 0 1 4,-4 h 4 v 2 h 10 v -2 h 30 4 a 4,4 90 0 1 4,4 v 4 h -4 v -3 h -4 v 10 h 4 v -3 h 4 v 17 h -4 v -3 h -4 v 10 h 4 v -3 h 4 v 4 a 4,4 90 0 1 -4,4 h -4 -30 -1 v 2 h -8 v -2 h -1 -4 a 4,4 90 0 1 -4,-4 v -4 -21 z" style="fill:#7cd622;fill-opacity:1;stroke:#57ad02;stroke-width:1;stroke-linecap:round;stroke-opacity:1"/><text id="text1810" style="font-size:10px;font-family:sans-serif;text-anchor:end;fill:#000"><tspan id="tspan1808" x="46.333" y="24">pitch</tspan></text><text id="text1814" style="font-size:6.66666651px;font-family:sans-serif;text-anchor:end;fill:#000"><tspan id="tspan1812" x="46.333" y="11.25">name</tspan></text><text id="text1818" style="font-size:6.66666651px;font-family:sans-serif;text-anchor:end;fill:#000"><tspan id="tspan1816" x="46.333" y="32.25">octave</tspan></text></g></g><g id="g1832" transform="translate(87,40.921537)"><g id="g1830" transform="scale(1.5)"><path id="path1824" d="m 8.5,0.5 h 60 v 20 h -60 v -8 -1 h -6 v 3 h -2 v -8 h 2 v 3 h 6 v -1 z" style="fill:#7cd622;fill-opacity:1;stroke:#57ad02;stroke-width:1;stroke-linecap:round;stroke-opacity:1"/><text id="text1828" style="font-size:10px;font-family:sans-serif;text-anchor:start;fill:#000"><tspan id="tspan1826" x="13.333" y="13.833">sol</tspan></text></g></g><g id="g1842" transform="translate(87,72.421537)"><g id="g1840" transform="scale(1.5)"><path id="path1834" d="m 8.5,0.5 h 60 v 20 h -60 v -8 -1 h -6 v 3 h -2 v -8 h 2 v 3 h 6 v -1 z" style="fill:#ff6ea1;fill-opacity:1;stroke:#ff2c76;stroke-width:1;stroke-linecap:round;stroke-opacity:1"/><text id="text1838" style="font-size:10px;font-family:sans-serif;text-anchor:start;fill:#000"><tspan id="tspan1836" x="13.333" y="13.833">4</tspan></text></g></g><g id="g1860" transform="translate(13.5,103.92154)"><g id="g1858" transform="scale(1.5)"><path id="path1844" d="m 0.5,8.5 v -4 a 4,4 90 0 1 4,-4 h 4 v 2 h 10 v -2 h 30 4 a 4,4 90 0 1 4,4 v 4 h -4 v -3 h -4 v 10 h 4 v -3 h 4 v 17 h -4 v -3 h -4 v 10 h 4 v -3 h 4 v 4 a 4,4 90 0 1 -4,4 h -4 -30 -1 v 2 h -8 v -2 h -1 -4 a 4,4 90 0 1 -4,-4 v -4 -21 z" style="fill:#7cd622;fill-opacity:1;stroke:#57ad02;stroke-width:1;stroke-linecap:round;stroke-opacity:1"/><text id="text1848" style="font-size:10px;font-family:sans-serif;text-anchor:end;fill:#000"><tspan id="tspan1846" x="46.333" y="24">pitch</tspan></text><text id="text1852" style="font-size:6.66666651px;font-family:sans-serif;text-anchor:end;fill:#000"><tspan id="tspan1850" x="46.333" y="11.25">name</tspan></text><text id="text1856" style="font-size:6.66666651px;font-family:sans-serif;text-anchor:end;fill:#000"><tspan id="tspan1854" x="46.333" y="32.25">octave</tspan></text></g></g><g id="g1870" transform="translate(87,103.92154)"><g id="g1868" transform="scale(1.5)"><path id="path1862" d="m 8.5,0.5 h 60 v 20 h -60 v -8 -1 h -6 v 3 h -2 v -8 h 2 v 3 h 6 v -1 z" style="fill:#7cd622;fill-opacity:1;stroke:#57ad02;stroke-width:1;stroke-linecap:round;stroke-opacity:1"/><text id="text1866" style="font-size:10px;font-family:sans-serif;text-anchor:start;fill:#000"><tspan id="tspan1864" x="13.333" y="13.833">mi</tspan></text></g></g><g id="g1880" transform="translate(87,135.42154)"><g id="g1878" transform="scale(1.5)"><path id="path1872" d="m 8.5,0.5 h 60 v 20 h -60 v -8 -1 h -6 v 3 h -2 v -8 h 2 v 3 h 6 v -1 z" style="fill:#ff6ea1;fill-opacity:1;stroke:#ff2c76;stroke-width:1;stroke-linecap:round;stroke-opacity:1"/><text id="text1876" style="font-size:10px;font-family:sans-serif;text-anchor:start;fill:#000"><tspan id="tspan1874" x="13.333" y="13.833">4</tspan></text></g></g><g id="g1898" transform="translate(13.5,166.92154)"><g id="g1896" transform="scale(1.5)"><path id="path1882" d="m 0.5,8.5 v -4 a 4,4 90 0 1 4,-4 h 4 v 2 h 10 v -2 h 30 4 a 4,4 90 0 1 4,4 v 4 h -4 v -3 h -4 v 10 h 4 v -3 h 4 v 17 h -4 v -3 h -4 v 10 h 4 v -3 h 4 v 4 a 4,4 90 0 1 -4,4 h -4 -30 -1 v 2 h -8 v -2 h -1 -4 a 4,4 90 0 1 -4,-4 v -4 -21 z" style="fill:#7cd622;fill-opacity:1;stroke:#57ad02;stroke-width:1;stroke-linecap:round;stroke-opacity:1"/><text id="text1886" style="font-size:10px;font-family:sans-serif;text-anchor:end;fill:#000"><tspan id="tspan1884" x="46.333" y="24">pitch</tspan></text><text id="text1890" style="font-size:6.66666651px;font-family:sans-serif;text-anchor:end;fill:#000"><tspan id="tspan1888" x="46.333" y="11.25">name</tspan></text><text id="text1894" style="font-size:6.66666651px;font-family:sans-serif;text-anchor:end;fill:#000"><tspan id="tspan1892" x="46.333" y="32.25">octave</tspan></text></g></g><g id="g1908" transform="translate(87,166.92154)"><g id="g1906" transform="scale(1.5)"><path id="path1900" d="m 8.5,0.5 h 60 v 20 h -60 v -8 -1 h -6 v 3 h -2 v -8 h 2 v 3 h 6 v -1 z" style="fill:#7cd622;fill-opacity:1;stroke:#57ad02;stroke-width:1;stroke-linecap:round;stroke-opacity:1"/><text id="text1904" style="font-size:10px;font-family:sans-serif;text-anchor:start;fill:#000"><tspan id="tspan1902" x="13.333" y="13.833">re</tspan></text></g></g><g id="g1918" transform="translate(87,198.42154)"><g id="g1916" transform="scale(1.5)"><path id="path1910" d="m 8.5,0.5 h 60 v 20 h -60 v -8 -1 h -6 v 3 h -2 v -8 h 2 v 3 h 6 v -1 z" style="fill:#ff6ea1;fill-opacity:1;stroke:#ff2c76;stroke-width:1;stroke-linecap:round;stroke-opacity:1"/><text id="text1914" style="font-size:10px;font-family:sans-serif;text-anchor:start;fill:#000"><tspan id="tspan1912" x="13.333" y="13.833">4</tspan></text></g></g></svg>