<svg xmlns="http://www.w3.org/2000/svg" xmlns:svg="http://www.w3.org/2000/svg" id="svg4075" width="625.989" height="431.103" version="1.1" viewBox="0 0 625.989 431.103"><metadata id="metadata4080"/><g id="g1436" transform="matrix(1.40625,0,0,1.40625,320.625,0.39519)"><path style="fill:#ffbf00;fill-opacity:1;stroke:#daaf30;stroke-width:1;stroke-linecap:round;stroke-opacity:1" id="path1430" d="m 0.5,14.5 v -4 a 4,4 90 0 1 4,-4 h 4 l 5,-6 5,6 h 9 30 4 a 4,4 90 0 1 4,4 v 4 4 4 a 4,4 90 0 1 -4,4 h -4 -30 -1 v 2 h -8 v -2 h -1 -4 a 5,5 90 0 0 -5,5 v 4 4 231 4 a 5,5 90 0 0 5,5 h 4 v 2 h 10 v -2 h 8 v 6 6 4 a 4,4 90 0 1 -4,4 h -4 -9 l -5,6 -5,-6 h -4 a 4,4 90 0 1 -4,-4 v -4 z"/><text style="font-size:10px;font-family:sans-serif;text-anchor:start;fill:#000" id="text1434"><tspan id="tspan1432" x="5.333" y="21.5">start</tspan></text></g><g id="g1446" transform="matrix(1.40625,0,0,1.40625,333.28125,38.36394)"><path style="fill:#e9a066;fill-opacity:1;stroke:#b7651a;stroke-width:1;stroke-linecap:round;stroke-opacity:1" id="path1440" d="m 0.5,8.5 v -4 a 4,4 90 0 1 4,-4 h 4 v 2 h 10 v -2 h 9 11.123047 4 a 4,4 90 0 1 4,4 v 4 4 4 a 4,4 90 0 1 -4,4 h -4 H 27.5 h -1 v 2 h -8 v -2 h -1 -4 a 5,5 90 0 0 -5,5 v 4 4 189 4 a 5,5 90 0 0 5,5 h 4 v 2 h 10 v -2 h 8 v 6 6 4 a 4,4 90 0 1 -4,4 h -4 -9 -1 v 2 h -8 v -2 h -1 -4 a 4,4 90 0 1 -4,-4 v -4 z"/><text style="font-size:10px;font-family:sans-serif;text-anchor:start;fill:#000" id="text1444"><tspan id="tspan1442" x="5.333" y="15.25">forever</tspan></text></g><g id="g1460" transform="matrix(1.40625,0,0,1.40625,345.9375,67.89519)"><path style="fill:#fe994f;fill-opacity:1;stroke:#e8680e;stroke-width:1;stroke-linecap:round;stroke-opacity:1" id="path1450" d="m 0.5,8.5 v -4 a 4,4 90 0 1 4,-4 h 4 v 2 h 10 v -2 h 9 36.147461 4 a 4,4 90 0 1 4,4 v 4 h -4 v -3 h -4 v 10 h 4 v -3 h 4 v 4 a 4,4 90 0 1 -4,4 h -4 H 27.5 h -1 v 2 h -8 v -2 h -1 -4 a 5,5 90 0 0 -5,5 v 4 4 21 4 a 5,5 90 0 0 5,5 h 4 v 2 h 10 v -2 h 8 v 6 6 4 a 4,4 90 0 1 -4,4 h -4 -9 -1 v 2 h -8 v -2 h -1 -4 a 4,4 90 0 1 -4,-4 v -4 z"/><text style="font-size:10px;font-family:sans-serif;text-anchor:start;fill:#000" id="text1454"><tspan id="tspan1452" x="5.333" y="15.25">note value</tspan></text></g><g id="g1478" transform="matrix(1.40625,0,0,1.40625,436.14487,67.89519)"><path style="fill:#ff6ea1;fill-opacity:1;stroke:#ff2c76;stroke-width:1;stroke-linecap:round;stroke-opacity:1" id="path1464" d="m 8.5,8.5 v -4 a 4,4 90 0 1 4,-4 h 4 10 30 4 a 4,4 90 0 1 4,4 v 4 h -4 v -3 h -4 v 10 h 4 v -3 h 4 v 17 h -4 v -3 h -4 v 10 h 4 v -3 h 4 v 4 a 4,4 90 0 1 -4,4 h -4 -30 -10 -4 a 4,4 90 0 1 -4,-4 v -4 -21 -1 h -6 v 3 h -2 v -8 h 2 v 3 h 6 z"/><text style="font-size:14px;font-family:sans-serif;text-anchor:end;fill:#000" id="text1468"><tspan id="tspan1466" x="54.333" y="23.8">/</tspan></text></g><g id="g1488" transform="matrix(1.40625,0,0,1.40625,516.30112,67.89519)"><path style="fill:#ff6ea1;fill-opacity:1;stroke:#ff2c76;stroke-width:1;stroke-linecap:round;stroke-opacity:1" id="path1482" d="m 8.5,0.5 h 60 v 20 h -60 v -8 -1 h -6 v 3 h -2 v -8 h 2 v 3 h 6 v -1 z"/><text style="font-size:10px;font-family:sans-serif;text-anchor:start;fill:#000" id="text1486"><tspan id="tspan1484" x="13.333" y="13.833">1</tspan></text></g><g id="g1498" transform="matrix(1.40625,0,0,1.40625,516.30112,97.42644)"><path style="fill:#ff6ea1;fill-opacity:1;stroke:#ff2c76;stroke-width:1;stroke-linecap:round;stroke-opacity:1" id="path1492" d="m 8.5,0.5 h 60 v 20 h -60 v -8 -1 h -6 v 3 h -2 v -8 h 2 v 3 h 6 v -1 z"/><text style="font-size:10px;font-family:sans-serif;text-anchor:start;fill:#000" id="text1496"><tspan id="tspan1494" x="13.333" y="13.833">2</tspan></text></g><path id="path1502" d="m 359.29687,109.37957 v -5.625 a 5.625,5.625 0 0 1 5.625,-5.625005 h 5.625 v 2.812505 h 14.0625 v -2.812505 h 28.125 5.625 a 5.625,5.625 0 0 1 5.625,5.625005 v 5.625 5.625 5.625 a 5.625,5.625 0 0 1 -5.625,5.625 h -5.625 -28.125 -1.40625 v 2.8125 h -11.25 v -2.8125 h -1.40625 -5.625 a 5.625,5.625 0 0 1 -5.625,-5.625 v -5.625 z" style="fill:#c4c4c4;fill-opacity:1;stroke:#a0a0a0;stroke-width:1.40625;stroke-linecap:round;stroke-opacity:1"/><text id="text1506" x="358.594" y="97.426" style="font-size:14.0625px;font-family:sans-serif;text-anchor:end;fill:#000;stroke-width:1.40625"><tspan id="tspan1504" x="409.688" y="116.411" style="stroke-width:1.40625">↓</tspan></text><path id="path1512" d="m 359.29687,138.91082 v -5.625 a 5.625,5.625 0 0 1 5.625,-5.625 h 5.625 v 2.8125 h 14.0625 v -2.8125 h 42.1875 5.625 a 5.625,5.625 0 0 1 5.625,5.625 v 5.625 h -5.625 v -4.21875 h -5.625 v 14.0625 h 5.625 v -4.21875 h 5.625 v 5.625 a 5.625,5.625 0 0 1 -5.625,5.625 h -5.625 -42.1875 -1.40625 v 2.8125 h -11.25 v -2.8125 h -1.40625 -5.625 a 5.625,5.625 0 0 1 -5.625,-5.625 v -5.625 z" style="fill:#3edcdd;fill-opacity:1;stroke:#1dbcbd;stroke-width:1.40625;stroke-linecap:round;stroke-opacity:1"/><text id="text1516" x="358.594" y="126.958" style="font-size:14.0625px;font-family:sans-serif;text-anchor:end;fill:#000;stroke-width:1.40625"><tspan id="tspan1514" x="423.75" y="145.942" style="stroke-width:1.40625">drum</tspan></text><path id="path1526" d="m 439.45312,127.66082 h 94.375 v 28.125 h -94.375 v -11.25 -1.40625 h -8.4375 v 4.21875 h -2.8125 v -11.25 h 2.8125 v 4.21875 h 8.4375 v -1.40625 z" style="fill:#3edcdd;fill-opacity:1;stroke:#1dbcbd;stroke-width:1.40625;stroke-linecap:round;stroke-opacity:1"/><text id="text1530" x="427.5" y="126.958" style="font-size:14.0625px;font-family:sans-serif;text-anchor:start;fill:#000;stroke-width:1.40625"><tspan id="tspan1528" x="446.25" y="146.411" style="stroke-width:1.40625">snare drum</tspan></text><g id="g1546" transform="matrix(1.40625,0,0,1.40625,345.9375,186.02019)"><path style="fill:#e9a066;fill-opacity:1;stroke:#b7651a;stroke-width:1;stroke-linecap:round;stroke-opacity:1" id="path1536" d="m 0.5,8.5 v -4 a 4,4 90 0 1 4,-4 h 4 v 2 h 10 v -2 h 9 20 4 a 4,4 90 0 1 4,4 v 4 h -4 v -3 h -4 v 10 h 4 v -3 h 4 v 4 a 4,4 90 0 1 -4,4 h -4 -20 -1 v 2 h -8 v -2 h -1 -4 a 5,5 90 0 0 -5,5 v 4 4 63 4 a 5,5 90 0 0 5,5 h 4 v 2 h 10 v -2 h 8 v 6 6 4 a 4,4 90 0 1 -4,4 h -4 -9 -1 v 2 h -8 v -2 h -1 -4 a 4,4 90 0 1 -4,-4 v -4 z"/><text style="font-size:10px;font-family:sans-serif;text-anchor:start;fill:#000" id="text1540"><tspan id="tspan1538" x="5.333" y="15.25">repeat</tspan></text></g><g id="g1556" transform="matrix(1.40625,0,0,1.40625,413.4375,186.02019)"><path style="fill:#ff6ea1;fill-opacity:1;stroke:#ff2c76;stroke-width:1;stroke-linecap:round;stroke-opacity:1" id="path1550" d="m 8.5,0.5 h 60 v 20 h -60 v -8 -1 h -6 v 3 h -2 v -8 h 2 v 3 h 6 v -1 z"/><text style="font-size:10px;font-family:sans-serif;text-anchor:start;fill:#000" id="text1554"><tspan id="tspan1552" x="13.333" y="13.833">2</tspan></text></g><g id="g1570" transform="matrix(1.40625,0,0,1.40625,358.59375,215.55144)"><path style="fill:#fe994f;fill-opacity:1;stroke:#e8680e;stroke-width:1;stroke-linecap:round;stroke-opacity:1" id="path1560" d="m 0.5,8.5 v -4 a 4,4 90 0 1 4,-4 h 4 v 2 h 10 v -2 h 9 36.147461 4 a 4,4 90 0 1 4,4 v 4 h -4 v -3 h -4 v 10 h 4 v -3 h 4 v 4 a 4,4 90 0 1 -4,4 h -4 H 27.5 h -1 v 2 h -8 v -2 h -1 -4 a 5,5 90 0 0 -5,5 v 4 4 21 4 a 5,5 90 0 0 5,5 h 4 v 2 h 10 v -2 h 8 v 6 6 4 a 4,4 90 0 1 -4,4 h -4 -9 -1 v 2 h -8 v -2 h -1 -4 a 4,4 90 0 1 -4,-4 v -4 z"/><text style="font-size:10px;font-family:sans-serif;text-anchor:start;fill:#000" id="text1564"><tspan id="tspan1562" x="5.333" y="15.25">note value</tspan></text></g><g id="g1588" transform="matrix(1.40625,0,0,1.40625,448.80112,215.55144)"><path style="fill:#ff6ea1;fill-opacity:1;stroke:#ff2c76;stroke-width:1;stroke-linecap:round;stroke-opacity:1" id="path1574" d="m 8.5,8.5 v -4 a 4,4 90 0 1 4,-4 h 4 10 30 4 a 4,4 90 0 1 4,4 v 4 h -4 v -3 h -4 v 10 h 4 v -3 h 4 v 17 h -4 v -3 h -4 v 10 h 4 v -3 h 4 v 4 a 4,4 90 0 1 -4,4 h -4 -30 -10 -4 a 4,4 90 0 1 -4,-4 v -4 -21 -1 h -6 v 3 h -2 v -8 h 2 v 3 h 6 z"/><text style="font-size:14px;font-family:sans-serif;text-anchor:end;fill:#000" id="text1578"><tspan id="tspan1576" x="54.333" y="23.8">/</tspan></text></g><g id="g1598" transform="matrix(1.40625,0,0,1.40625,528.95737,215.55144)"><path style="fill:#ff6ea1;fill-opacity:1;stroke:#ff2c76;stroke-width:1;stroke-linecap:round;stroke-opacity:1" id="path1592" d="m 8.5,0.5 h 60 v 20 h -60 v -8 -1 h -6 v 3 h -2 v -8 h 2 v 3 h 6 v -1 z"/><text style="font-size:10px;font-family:sans-serif;text-anchor:start;fill:#000" id="text1596"><tspan id="tspan1594" x="13.333" y="13.833">1</tspan></text></g><g id="g1608" transform="matrix(1.40625,0,0,1.40625,528.95737,245.08269)"><path style="fill:#ff6ea1;fill-opacity:1;stroke:#ff2c76;stroke-width:1;stroke-linecap:round;stroke-opacity:1" id="path1602" d="m 8.5,0.5 h 60 v 20 h -60 v -8 -1 h -6 v 3 h -2 v -8 h 2 v 3 h 6 v -1 z"/><text style="font-size:10px;font-family:sans-serif;text-anchor:start;fill:#000" id="text1606"><tspan id="tspan1604" x="13.333" y="13.833">4</tspan></text></g><path id="path1612" d="m 371.95312,257.03582 v -5.625 a 5.625,5.625 0 0 1 5.625,-5.625 h 5.625 v 2.8125 h 14.0625 v -2.8125 h 28.125 5.625 a 5.625,5.625 0 0 1 5.625,5.625 v 5.625 5.625 5.625 a 5.625,5.625 0 0 1 -5.625,5.625 h -5.625 -28.125 -1.40625 v 2.8125 h -11.25 v -2.8125 h -1.40625 -5.625 a 5.625,5.625 0 0 1 -5.625,-5.625 v -5.625 z" style="fill:#c4c4c4;fill-opacity:1;stroke:#a0a0a0;stroke-width:1.40625;stroke-linecap:round;stroke-opacity:1"/><text id="text1616" x="371.25" y="245.083" style="font-size:14.0625px;font-family:sans-serif;text-anchor:end;fill:#000;stroke-width:1.40625"><tspan id="tspan1614" x="422.344" y="264.067" style="stroke-width:1.40625">↓</tspan></text><path id="path1622" d="m 371.95312,286.56707 v -5.625 a 5.625,5.625 0 0 1 5.625,-5.625 h 5.625 v 2.8125 h 14.0625 v -2.8125 h 42.1875 5.625 a 5.625,5.625 0 0 1 5.625,5.625 v 5.625 h -5.625 v -4.21875 h -5.625 v 14.0625 h 5.625 v -4.21875 h 5.625 v 5.625 a 5.625,5.625 0 0 1 -5.625,5.625 h -5.625 -42.1875 -1.40625 v 2.8125 h -11.25 v -2.8125 h -1.40625 -5.625 a 5.625,5.625 0 0 1 -5.625,-5.625 v -5.625 z" style="fill:#3edcdd;fill-opacity:1;stroke:#1dbcbd;stroke-width:1.40625;stroke-linecap:round;stroke-opacity:1"/><text id="text1626" x="371.25" y="274.614" style="font-size:14.0625px;font-family:sans-serif;text-anchor:end;fill:#000;stroke-width:1.40625"><tspan id="tspan1624" x="436.406" y="293.598" style="stroke-width:1.40625">drum</tspan></text><path id="path1636" d="m 452.10937,275.31707 h 94.375 v 28.125 h -94.375 v -11.25 -1.40625 h -8.4375 v 4.21875 h -2.8125 v -11.25 h 2.8125 v 4.21875 h 8.4375 v -1.40625 z" style="fill:#3edcdd;fill-opacity:1;stroke:#1dbcbd;stroke-width:1.40625;stroke-linecap:round;stroke-opacity:1"/><text id="text1640" x="440.156" y="274.614" style="font-size:14.0625px;font-family:sans-serif;text-anchor:start;fill:#000;stroke-width:1.40625"><tspan id="tspan1638" x="458.906" y="294.067" style="stroke-width:1.40625">snare drum</tspan></text><g id="g1652" transform="matrix(1.40625,0,0,1.40625,0,0.39519)"><path style="fill:#ffbf00;fill-opacity:1;stroke:#daaf30;stroke-width:1;stroke-linecap:round;stroke-opacity:1" id="path1646" d="m 0.5,14.5 v -4 a 4,4 90 0 1 4,-4 h 4 l 5,-6 5,6 h 9 30 4 a 4,4 90 0 1 4,4 v 4 4 4 a 4,4 90 0 1 -4,4 h -4 -30 -1 v 2 h -8 v -2 h -1 -4 a 5,5 90 0 0 -5,5 v 4 4 147 4 a 5,5 90 0 0 5,5 h 4 v 2 h 10 v -2 h 8 v 6 6 4 a 4,4 90 0 1 -4,4 h -4 -9 l -5,6 -5,-6 h -4 a 4,4 90 0 1 -4,-4 v -4 z"/><text style="font-size:10px;font-family:sans-serif;text-anchor:start;fill:#000" id="text1650"><tspan id="tspan1648" x="5.333" y="21.5">start</tspan></text></g><g id="g1662" transform="matrix(1.40625,0,0,1.40625,12.65625,38.36394)"><path style="fill:#e9a066;fill-opacity:1;stroke:#b7651a;stroke-width:1;stroke-linecap:round;stroke-opacity:1" id="path1656" d="m 0.5,8.5 v -4 a 4,4 90 0 1 4,-4 h 4 v 2 h 10 v -2 h 9 11.123047 4 a 4,4 90 0 1 4,4 v 4 4 4 a 4,4 90 0 1 -4,4 h -4 H 27.5 h -1 v 2 h -8 v -2 h -1 -4 a 5,5 90 0 0 -5,5 v 4 4 105 4 a 5,5 90 0 0 5,5 h 4 v 2 h 10 v -2 h 8 v 6 6 4 a 4,4 90 0 1 -4,4 h -4 -9 -1 v 2 h -8 v -2 h -1 -4 a 4,4 90 0 1 -4,-4 v -4 z"/><text style="font-size:10px;font-family:sans-serif;text-anchor:start;fill:#000" id="text1660"><tspan id="tspan1658" x="5.333" y="15.25">forever</tspan></text></g><g id="g1676" transform="matrix(1.40625,0,0,1.40625,25.3125,67.89519)"><path style="fill:#e9a066;fill-opacity:1;stroke:#b7651a;stroke-width:1;stroke-linecap:round;stroke-opacity:1" id="path1666" d="m 0.5,8.5 v -4 a 4,4 90 0 1 4,-4 h 4 v 2 h 10 v -2 h 9 20 4 a 4,4 90 0 1 4,4 v 4 h -4 v -3 h -4 v 10 h 4 v -3 h 4 v 4 a 4,4 90 0 1 -4,4 h -4 -20 -1 v 2 h -8 v -2 h -1 -4 a 5,5 90 0 0 -5,5 v 4 4 63 4 a 5,5 90 0 0 5,5 h 4 v 2 h 10 v -2 h 8 v 6 6 4 a 4,4 90 0 1 -4,4 h -4 -9 -1 v 2 h -8 v -2 h -1 -4 a 4,4 90 0 1 -4,-4 v -4 z"/><text style="font-size:10px;font-family:sans-serif;text-anchor:start;fill:#000" id="text1670"><tspan id="tspan1668" x="5.333" y="15.25">repeat</tspan></text></g><g id="g1686" transform="matrix(1.40625,0,0,1.40625,92.8125,67.89519)"><path style="fill:#ff6ea1;fill-opacity:1;stroke:#ff2c76;stroke-width:1;stroke-linecap:round;stroke-opacity:1" id="path1680" d="m 8.5,0.5 h 60 v 20 h -60 v -8 -1 h -6 v 3 h -2 v -8 h 2 v 3 h 6 v -1 z"/><text style="font-size:10px;font-family:sans-serif;text-anchor:start;fill:#000" id="text1684"><tspan id="tspan1682" x="13.333" y="13.833">3</tspan></text></g><g id="g1700" transform="matrix(1.40625,0,0,1.40625,37.96875,97.42644)"><path style="fill:#fe994f;fill-opacity:1;stroke:#e8680e;stroke-width:1;stroke-linecap:round;stroke-opacity:1" id="path1690" d="m 0.5,8.5 v -4 a 4,4 90 0 1 4,-4 h 4 v 2 h 10 v -2 h 9 36.147461 4 a 4,4 90 0 1 4,4 v 4 h -4 v -3 h -4 v 10 h 4 v -3 h 4 v 4 a 4,4 90 0 1 -4,4 h -4 H 27.5 h -1 v 2 h -8 v -2 h -1 -4 a 5,5 90 0 0 -5,5 v 4 4 21 4 a 5,5 90 0 0 5,5 h 4 v 2 h 10 v -2 h 8 v 6 6 4 a 4,4 90 0 1 -4,4 h -4 -9 -1 v 2 h -8 v -2 h -1 -4 a 4,4 90 0 1 -4,-4 v -4 z"/><text style="font-size:10px;font-family:sans-serif;text-anchor:start;fill:#000" id="text1694"><tspan id="tspan1692" x="5.333" y="15.25">note value</tspan></text></g><g id="g1718" transform="matrix(1.40625,0,0,1.40625,128.17612,97.42644)"><path style="fill:#ff6ea1;fill-opacity:1;stroke:#ff2c76;stroke-width:1;stroke-linecap:round;stroke-opacity:1" id="path1704" d="m 8.5,8.5 v -4 a 4,4 90 0 1 4,-4 h 4 10 30 4 a 4,4 90 0 1 4,4 v 4 h -4 v -3 h -4 v 10 h 4 v -3 h 4 v 17 h -4 v -3 h -4 v 10 h 4 v -3 h 4 v 4 a 4,4 90 0 1 -4,4 h -4 -30 -10 -4 a 4,4 90 0 1 -4,-4 v -4 -21 -1 h -6 v 3 h -2 v -8 h 2 v 3 h 6 z"/><text style="font-size:14px;font-family:sans-serif;text-anchor:end;fill:#000" id="text1708"><tspan id="tspan1706" x="54.333" y="23.8">/</tspan></text></g><g id="g1728" transform="matrix(1.40625,0,0,1.40625,208.33237,97.42644)"><path style="fill:#ff6ea1;fill-opacity:1;stroke:#ff2c76;stroke-width:1;stroke-linecap:round;stroke-opacity:1" id="path1722" d="m 8.5,0.5 h 60 v 20 h -60 v -8 -1 h -6 v 3 h -2 v -8 h 2 v 3 h 6 v -1 z"/><text style="font-size:10px;font-family:sans-serif;text-anchor:start;fill:#000" id="text1726"><tspan id="tspan1724" x="13.333" y="13.833">1</tspan></text></g><g id="g1738" transform="matrix(1.40625,0,0,1.40625,208.33237,126.95769)"><path style="fill:#ff6ea1;fill-opacity:1;stroke:#ff2c76;stroke-width:1;stroke-linecap:round;stroke-opacity:1" id="path1732" d="m 8.5,0.5 h 60 v 20 h -60 v -8 -1 h -6 v 3 h -2 v -8 h 2 v 3 h 6 v -1 z"/><text style="font-size:10px;font-family:sans-serif;text-anchor:start;fill:#000" id="text1736"><tspan id="tspan1734" x="13.333" y="13.833">3</tspan></text></g><path id="path1742" d="m 51.328125,138.91082 v -5.625 a 5.625,5.625 0 0 1 5.625,-5.625 h 5.625 v 2.8125 h 14.0625 v -2.8125 h 28.125005 5.625 a 5.625,5.625 0 0 1 5.625,5.625 v 5.625 5.625 5.625 a 5.625,5.625 0 0 1 -5.625,5.625 h -5.625 -28.125005 -1.40625 v 2.8125 h -11.25 v -2.8125 h -1.40625 -5.625 a 5.625,5.625 0 0 1 -5.625,-5.625 v -5.625 z" style="fill:#c4c4c4;fill-opacity:1;stroke:#a0a0a0;stroke-width:1.40625;stroke-linecap:round;stroke-opacity:1"/><text id="text1746" x="50.625" y="126.958" style="font-size:14.0625px;font-family:sans-serif;text-anchor:end;fill:#000;stroke-width:1.40625"><tspan id="tspan1744" x="101.719" y="145.942" style="stroke-width:1.40625">↓</tspan></text><path id="path1752" d="m 51.328125,168.44207 v -5.625 a 5.625,5.625 0 0 1 5.625,-5.625 h 5.625 v 2.8125 h 14.0625 v -2.8125 h 42.187505 5.625 a 5.625,5.625 0 0 1 5.62499,5.625 v 5.625 h -5.62499 v -4.21875 h -5.625 v 14.0625 h 5.625 v -4.21875 h 5.62499 v 5.625 a 5.625,5.625 0 0 1 -5.62499,5.625 h -5.625 -42.187505 -1.40625 v 2.8125 h -11.25 v -2.8125 h -1.40625 -5.625 a 5.625,5.625 0 0 1 -5.625,-5.625 v -5.625 z" style="fill:#3edcdd;fill-opacity:1;stroke:#1dbcbd;stroke-width:1.40625;stroke-linecap:round;stroke-opacity:1"/><text id="text1756" x="50.625" y="156.489" style="font-size:14.0625px;font-family:sans-serif;text-anchor:end;fill:#000;stroke-width:1.40625"><tspan id="tspan1754" x="115.781" y="175.473" style="stroke-width:1.40625">drum</tspan></text><path id="path1766" d="m 131.48437,157.19207 h 84.375 v 28.125 h -84.375 v -11.25 -1.40625 h -8.43749 v 4.21875 h -2.8125 v -11.25 h 2.8125 v 4.21875 h 8.43749 v -1.40625 z" style="fill:#3edcdd;fill-opacity:1;stroke:#1dbcbd;stroke-width:1.40625;stroke-linecap:round;stroke-opacity:1"/><text id="text1770" x="119.531" y="156.489" style="font-size:14.0625px;font-family:sans-serif;text-anchor:start;fill:#000;stroke-width:1.40625"><tspan id="tspan1768" x="138.281" y="175.942" style="stroke-width:1.40625">kick drum</tspan></text></svg>