<svg xmlns="http://www.w3.org/2000/svg" xmlns:svg="http://www.w3.org/2000/svg" id="svg4075" width="285.221" height="129" version="1.1" viewBox="0 0 267.395 120.938"><metadata id="metadata4080"/><g id="g1467" transform="matrix(0.93749999,0,0,0.93749999,2.52e-6,-2.47e-6)"><g id="g1465" transform="scale(1.5)"><path id="path1455" d="m 0.5,8.5 v -4 a 4,4 90 0 1 4,-4 h 4 v 2 h 10 v -2 h 9 36.147461 4 a 4,4 90 0 1 4,4 v 4 h -4 v -3 h -4 v 10 h 4 v -3 h 4 v 4 a 4,4 90 0 1 -4,4 h -4 H 27.5 h -1 v 2 h -8 v -2 h -1 -4 a 5,5 90 0 0 -5,5 v 4 4 21 4 a 5,5 90 0 0 5,5 h 4 v 2 h 10 v -2 h 8 v 6 6 4 a 4,4 90 0 1 -4,4 h -4 -9 -1 v 2 h -8 v -2 h -1 -4 a 4,4 90 0 1 -4,-4 v -4 z" style="fill:#fe994f;fill-opacity:1;stroke:#e8680e;stroke-width:1;stroke-linecap:round;stroke-opacity:1"/><text id="text1459" style="font-size:10px;font-family:sans-serif;text-anchor:start;fill:#000"><tspan id="tspan1457" x="5.333" y="15.25">note value</tspan></text></g></g><g id="g1485" transform="matrix(0.93749999,0,0,0.93749999,90.207367,-2.47e-6)"><g id="g1483" transform="scale(1.5)"><path id="path1469" d="m 8.5,8.5 v -4 a 4,4 90 0 1 4,-4 h 4 10 30 4 a 4,4 90 0 1 4,4 v 4 h -4 v -3 h -4 v 10 h 4 v -3 h 4 v 17 h -4 v -3 h -4 v 10 h 4 v -3 h 4 v 4 a 4,4 90 0 1 -4,4 h -4 -30 -10 -4 a 4,4 90 0 1 -4,-4 v -4 -21 -1 h -6 v 3 h -2 v -8 h 2 v 3 h 6 z" style="fill:#ff6ea1;fill-opacity:1;stroke:#ff2c76;stroke-width:1;stroke-linecap:round;stroke-opacity:1"/><text id="text1473" style="font-size:14px;font-family:sans-serif;text-anchor:end;fill:#000"><tspan id="tspan1471" x="54.333" y="23.8">/</tspan></text></g></g><g id="g1495" transform="matrix(0.93749999,0,0,0.93749999,170.36362,-2.47e-6)"><g id="g1493" transform="scale(1.5)"><path id="path1487" d="m 8.5,0.5 h 60 v 20 h -60 v -8 -1 h -6 v 3 h -2 v -8 h 2 v 3 h 6 v -1 z" style="fill:#ff6ea1;fill-opacity:1;stroke:#ff2c76;stroke-width:1;stroke-linecap:round;stroke-opacity:1"/><text id="text1491" style="font-size:10px;font-family:sans-serif;text-anchor:start;fill:#000"><tspan id="tspan1489" x="13.333" y="13.833">1</tspan></text></g></g><g id="g1505" transform="matrix(0.93749999,0,0,0.93749999,170.36362,29.531247)"><g id="g1503" transform="scale(1.5)"><path id="path1497" d="m 8.5,0.5 h 60 v 20 h -60 v -8 -1 h -6 v 3 h -2 v -8 h 2 v 3 h 6 v -1 z" style="fill:#ff6ea1;fill-opacity:1;stroke:#ff2c76;stroke-width:1;stroke-linecap:round;stroke-opacity:1"/><text id="text1501" style="font-size:10px;font-family:sans-serif;text-anchor:start;fill:#000"><tspan id="tspan1499" x="13.333" y="13.833">4</tspan></text></g></g><path id="path1507" d="m 13.359377,41.484372 v -5.625 a 5.625,5.625 0 0 1 5.625,-5.625 h 5.625 v 2.8125 h 14.0625 v -2.8125 h 28.125 5.625 a 5.625,5.625 0 0 1 5.625,5.625 v 5.625 5.625 5.625 a 5.625,5.625 0 0 1 -5.625,5.625 h -5.625 -28.125 -1.40625 v 2.8125 h -11.25 v -2.8125 h -1.40625 -5.625 a 5.625,5.625 0 0 1 -5.625,-5.625 v -5.625 z" style="fill:#c4c4c4;fill-opacity:1;stroke:#a0a0a0;stroke-width:1.40625;stroke-linecap:round;stroke-opacity:1"/><text id="text1511" x="12.656" y="29.531" style="font-size:14.0625px;font-family:sans-serif;text-anchor:end;fill:#000;stroke-width:1.40625"><tspan id="tspan1509" x="63.75" y="48.516" style="stroke-width:1.40625">↓</tspan></text><g id="g1525" transform="matrix(0.93749999,0,0,0.93749999,12.656252,59.062497)"><g id="g1523" transform="scale(1.5)"><path id="path1517" d="m 0.5,8.5 v -4 a 4,4 90 0 1 4,-4 h 4 v 2 h 10 v -2 h 31.12793 4 a 4,4 90 0 1 4,4 v 4 4 4 a 4,4 90 0 1 -4,4 h -4 H 18.5 h -1 v 2 h -8 v -2 h -1 -4 a 4,4 90 0 1 -4,-4 v -4 z" style="fill:#fe994f;fill-opacity:1;stroke:#e8680e;stroke-width:1;stroke-linecap:round;stroke-opacity:1"/><text id="text1521" style="font-size:10px;font-family:sans-serif;text-anchor:end;fill:#000"><tspan id="tspan1519" x="47.461" y="13.5">silence</tspan></text></g></g></svg>