<svg xmlns="http://www.w3.org/2000/svg" xmlns:svg="http://www.w3.org/2000/svg" id="svg3641" width="288.923" height="207.843" version="1.1"><metadata id="metadata3670"/><path id="path980" d="m 0.75,22.171537 v -6 a 6,6 0 0 1 6,-6 h 6 l 7.5,-9 7.5,9 h 13.5 45 6 a 6,6 0 0 1 6,6 v 6 6 6 a 6,6 0 0 1 -6,6 h -6 -45 -1.5 v 3 h -12 v -3 h -1.5 -6 a 7.5,7.5 0 0 0 -7.5,7.5 v 6 6 94.500003 6 a 7.5,7.5 0 0 0 7.5,7.5 h 6 v 3 h 15 v -3 h 12 v 9 9 6 a 6,6 0 0 1 -6,6 h -6 -13.5 l -7.5,9 -7.5,-9 h -6 a 6,6 0 0 1 -6,-6 v -6 z" style="fill:#7cd622;fill-opacity:1;stroke:#57ad02;stroke-width:1.5;stroke-linecap:round;stroke-opacity:1"/><text id="text984" y=".422" style="font-size:15px;font-family:sans-serif;text-anchor:start;fill:#000;stroke-width:1.5"><tspan id="tspan982" x="8" y="32.672" style="stroke-width:1.5">status</tspan></text><path id="path990" d="m 14.25,85.171537 v -6 a 6,6 0 0 1 6,-6 h 6 v 3 h 15 v -3 h 45 6 a 6,6 0 0 1 6,6 v 6 h -6 v -4.5 h -6 v 15 h 6 v -4.5 h 6 v 6 a 6,6 0 0 1 -6,6.000003 h -6 -45 -1.5 v 3 h -12 v -3 h -1.5 -6 a 6,6 0 0 1 -6,-6.000003 v -6 z" style="fill:#c4c4c4;fill-opacity:1;stroke:#a0a0a0;stroke-width:1.5;stroke-linecap:round;stroke-opacity:1"/><text id="text994" x="13.5" y="72.422" style="font-size:15px;font-family:sans-serif;text-anchor:end;fill:#000;stroke-width:1.5"><tspan id="tspan992" x="83" y="92.672" style="stroke-width:1.5">print</tspan></text><path id="path1004" d="M 99.75,73.171537 H 229.80615 V 103.17154 H 99.75 v -12.000003 -1.5 h -9 v 4.5 h -3 v -12 h 3 v 4.5 h 9 v -1.5 z" style="fill:#fe994f;fill-opacity:1;stroke:#e8680e;stroke-width:1.5;stroke-linecap:round;stroke-opacity:1"/><text id="text1008" x="87" y="72.422" style="font-size:15px;font-family:sans-serif;text-anchor:start;fill:#000;stroke-width:1.5"><tspan id="tspan1006" x="107" y="93.172" style="stroke-width:1.5">beat count</tspan></text><path id="path1014" d="m 14.25,116.67154 v -6 a 6,6 0 0 1 6,-6 h 6 v 3 h 15 v -3 h 45 6 a 6,6 0 0 1 6,6 v 6 h -6 v -4.5 h -6 v 15 h 6 v -4.5 h 6 v 6 a 6,6 0 0 1 -6,6 h -6 -45 -1.5 v 3 h -12 v -3 h -1.5 -6 a 6,6 0 0 1 -6,-6 v -6 z" style="fill:#c4c4c4;fill-opacity:1;stroke:#a0a0a0;stroke-width:1.5;stroke-linecap:round;stroke-opacity:1"/><text id="text1018" x="13.5" y="103.922" style="font-size:15px;font-family:sans-serif;text-anchor:end;fill:#000;stroke-width:1.5"><tspan id="tspan1016" x="83" y="124.172" style="stroke-width:1.5">print</tspan></text><path id="path1028" d="m 99.75,104.67154 h 159.22119 v 30 H 99.75 v -12 -1.5 h -9 v 4.5 h -3 v -12 h 3 v 4.5 h 9 v -1.5 z" style="fill:#fe994f;fill-opacity:1;stroke:#e8680e;stroke-width:1.5;stroke-linecap:round;stroke-opacity:1"/><text id="text1032" x="87" y="103.922" style="font-size:15px;font-family:sans-serif;text-anchor:start;fill:#000;stroke-width:1.5"><tspan id="tspan1030" x="107" y="124.672" style="stroke-width:1.5">measure count</tspan></text><path id="path1038" d="m 14.25,148.17154 v -6 a 6,6 0 0 1 6,-6 h 6 v 3 h 15 v -3 h 45 6 a 6,6 0 0 1 6,6 v 6 h -6 v -4.5 h -6 v 15 h 6 v -4.5 h 6 v 6 a 6,6 0 0 1 -6,6 h -6 -45 -1.5 v 3 h -12 v -3 h -1.5 -6 a 6,6 0 0 1 -6,-6 v -6 z" style="fill:#c4c4c4;fill-opacity:1;stroke:#a0a0a0;stroke-width:1.5;stroke-linecap:round;stroke-opacity:1"/><text id="text1042" x="13.5" y="135.422" style="font-size:15px;font-family:sans-serif;text-anchor:end;fill:#000;stroke-width:1.5"><tspan id="tspan1040" x="83" y="155.672" style="stroke-width:1.5">print</tspan></text><path id="path1052" d="m 99.75,136.17154 h 188.42284 v 30 H 99.75 v -12 -1.5 h -9 v 4.5 h -3 v -12 h 3 v 4.5 h 9 v -1.5 z" style="fill:#fe994f;fill-opacity:1;stroke:#e8680e;stroke-width:1.5;stroke-linecap:round;stroke-opacity:1"/><text id="text1056" x="87" y="135.422" style="font-size:15px;font-family:sans-serif;text-anchor:start;fill:#000;stroke-width:1.5"><tspan id="tspan1054" x="107" y="156.172" style="stroke-width:1.5">whole notes played</tspan></text><path id="path1062" d="m 14.25,53.671537 v -6 a 6,6 0 0 1 6,-6 h 6 v 3 h 15 v -3 h 45 6 a 6,6 0 0 1 6,6 v 6 h -6 v -4.5 h -6 v 15 h 6 v -4.5 h 6 v 6 a 6,6 0 0 1 -6,6 h -6 -45 -1.5 v 3 h -12 v -3 h -1.5 -6 a 6,6 0 0 1 -6,-6 v -6 z" style="fill:#c4c4c4;fill-opacity:1;stroke:#a0a0a0;stroke-width:1.5;stroke-linecap:round;stroke-opacity:1"/><text id="text1066" x="13.5" y="40.922" style="font-size:15px;font-family:sans-serif;text-anchor:end;fill:#000;stroke-width:1.5"><tspan id="tspan1064" x="83" y="61.172" style="stroke-width:1.5">print</tspan></text><path id="path1076" d="m 99.75,41.671537 h 171.73095 v 30 H 99.75 v -12 -1.5 h -9 v 4.5 h -3 v -12 h 3 v 4.5 h 9 v -1.5 z" style="fill:#fe994f;fill-opacity:1;stroke:#e8680e;stroke-width:1.5;stroke-linecap:round;stroke-opacity:1"/><text id="text1080" x="87" y="40.922" style="font-size:15px;font-family:sans-serif;text-anchor:start;fill:#000;stroke-width:1.5"><tspan id="tspan1078" x="107" y="61.672" style="stroke-width:1.5">beats per minute</tspan></text></svg>