<svg xmlns="http://www.w3.org/2000/svg" xmlns:svg="http://www.w3.org/2000/svg" id="svg46" width="415.241" height="144.843" version="1.1"><metadata id="metadata52"/><path id="path897" d="m 0.75,22.171537 v -6 a 6,6 0 0 1 6,-6 h 6 l 7.5,-8.9999996 7.5,8.9999996 h 13.5 60 6 a 6,6 0 0 1 6,6 v 6 6 6 a 6,6 0 0 1 -6,6 h -6 -60 -1.5 v 3 h -12 v -3 h -1.5 -6 a 7.5,7.5 0 0 0 -7.5,7.5 v 6 6 31.5 6 a 7.5,7.5 0 0 0 7.5,7.500003 h 6 v 3 h 15 v -3 h 12 v 9 9 6 a 6,6 0 0 1 -6,6 h -6 -13.5 l -7.5,9 -7.5,-9 h -6 a 6,6 0 0 1 -6,-6 v -6 z" style="fill:#7cd622;fill-opacity:1;stroke:#57ad02;stroke-width:1.5;stroke-linecap:round;stroke-opacity:1"/><text id="text901" y=".422" style="font-size:15px;font-family:sans-serif;text-anchor:start;fill:#000;stroke-width:1.5"><tspan id="tspan899" x="8" y="32.672" style="stroke-width:1.5">tempo</tspan></text><g id="g923" transform="translate(13.5,40.921527)"><g id="g921" transform="scale(1.5)"><path id="path907" d="m 0.5,8.5 v -4 a 4,4 90 0 1 4,-4 h 4 v 2 h 10 v -2 h 122.82715 4 a 4,4 90 0 1 4,4 v 4 h -4 v -3 h -4 v 10 h 4 v -3 h 4 v 17 h -4 v -3 h -4 v 10 h 4 v -3 h 4 v 4 a 4,4 90 0 1 -4,4 h -4 H 18.5 h -1 v 2 h -8 v -2 h -1 -4 a 4,4 90 0 1 -4,-4 v -4 -21 z" style="fill:#fe994f;fill-opacity:1;stroke:#e8680e;stroke-width:1;stroke-linecap:round;stroke-opacity:1"/><text id="text911" style="font-size:10px;font-family:sans-serif;text-anchor:end;fill:#000"><tspan id="tspan909" x="139.16" y="24">master beats per minute</tspan></text><text id="text915" style="font-size:6.66666651px;font-family:sans-serif;text-anchor:end;fill:#000"><tspan id="tspan913" x="139.16" y="11.25">bpm</tspan></text><text id="text919" style="font-size:6.66666651px;font-family:sans-serif;text-anchor:end;fill:#000"><tspan id="tspan917" x="139.16" y="32.25">beat value</tspan></text></g></g><g id="g933" transform="translate(226.24072,40.921527)"><g id="g931" transform="scale(1.5)"><path id="path925" d="m 8.5,0.5 h 60 v 20 h -60 v -8 -1 h -6 v 3 h -2 v -8 h 2 v 3 h 6 v -1 z" style="fill:#ff6ea1;fill-opacity:1;stroke:#ff2c76;stroke-width:1;stroke-linecap:round;stroke-opacity:1"/><text id="text929" style="font-size:10px;font-family:sans-serif;text-anchor:start;fill:#000"><tspan id="tspan927" x="13.333" y="13.833">90</tspan></text></g></g><g id="g951" transform="translate(226.24072,72.421527)"><g id="g949" transform="scale(1.5)"><path id="path935" d="m 8.5,8.5 v -4 a 4,4 90 0 1 4,-4 h 4 10 30 4 a 4,4 90 0 1 4,4 v 4 h -4 v -3 h -4 v 10 h 4 v -3 h 4 v 17 h -4 v -3 h -4 v 10 h 4 v -3 h 4 v 4 a 4,4 90 0 1 -4,4 h -4 -30 -10 -4 a 4,4 90 0 1 -4,-4 v -4 -21 -1 h -6 v 3 h -2 v -8 h 2 v 3 h 6 z" style="fill:#ff6ea1;fill-opacity:1;stroke:#ff2c76;stroke-width:1;stroke-linecap:round;stroke-opacity:1"/><text id="text939" style="font-size:14px;font-family:sans-serif;text-anchor:end;fill:#000"><tspan id="tspan937" x="54.333" y="23.8">/</tspan></text></g></g><g id="g961" transform="translate(311.74072,72.421527)"><g id="g959" transform="scale(1.5)"><path id="path953" d="m 8.5,0.5 h 60 v 20 h -60 v -8 -1 h -6 v 3 h -2 v -8 h 2 v 3 h 6 v -1 z" style="fill:#ff6ea1;fill-opacity:1;stroke:#ff2c76;stroke-width:1;stroke-linecap:round;stroke-opacity:1"/><text id="text957" style="font-size:10px;font-family:sans-serif;text-anchor:start;fill:#000"><tspan id="tspan955" x="13.333" y="13.833">1</tspan></text></g></g><g id="g971" transform="translate(311.74072,103.92154)"><g id="g969" transform="scale(1.5)"><path id="path963" d="m 8.5,0.5 h 60 v 20 h -60 v -8 -1 h -6 v 3 h -2 v -8 h 2 v 3 h 6 v -1 z" style="fill:#ff6ea1;fill-opacity:1;stroke:#ff2c76;stroke-width:1;stroke-linecap:round;stroke-opacity:1"/><text id="text967" style="font-size:10px;font-family:sans-serif;text-anchor:start;fill:#000"><tspan id="tspan965" x="13.333" y="13.833">4</tspan></text></g></g></svg>