<svg xmlns="http://www.w3.org/2000/svg" xmlns:svg="http://www.w3.org/2000/svg" id="svg8659" width="720" height="554" version="1.1"><metadata id="metadata8665"/><rect id="backgroundrect" width="100%" height="100%" x="0" y="0" fill="none" stroke="none"/><g id="g8657" class="currentLayer"><title id="title8361">Layer 1</title><g id="svg_15"><g id="svg_16"><g id="svg_17" transform="translate(867,15) scale(1.5)"><path style="fill:#ff8b2d;fill-opacity:1;stroke:#e86b0e;stroke-width:1;stroke-linecap:round;stroke-opacity:1" id="svg_18" d="m-312,-2 L-312,-6 A4,4 90 0 1 -308,-10 L-304,-10 L-304,-8 L-294,-8 L-294,-10 L-285,-10 L-225,-10 L-221,-10 A4,4 90 0 1 -217,-6 L-217,-2 L-221,-2 L-221,-5 L-225,-5 L-225,5 L-221,5 L-221,2 L-217,2 L-217,6 A4,4 90 0 1 -221,10 L-225,10 L-285,10 L-286,10 L-286,12 L-294,12 L-294,10 L-295,10 L-299,10 A5,5 90 0 0 -304,15 L-304,19 L-304,23 L-304,65 L-304,69 A5,5 90 0 0 -299,74 L-295,74 L-295,76 L-285,76 L-285,74 L-277,74 L-277,80 L-277,86 L-277,90 A4,4 90 0 1 -281,94 L-285,94 L-294,94 L-295,94 L-295,96 L-303,96 L-303,94 L-304,94 L-308,94 A4,4 90 0 1 -312,90 L-312,86 z"/><text style="font-size:10px;fill:#282828;font-family:sans-serif;text-anchor:start" id="svg_19" x="-312.5" y="-10.5"><tspan id="svg_20" x="-292.5" y="4.5">note</tspan></text><text style="font-size:6.666666666666667px;fill:#282828;font-family:sans-serif;text-anchor:end" id="svg_21" x="-312.5" y="-10.5"><tspan id="svg_22" x="-227.5" y="1.5">value</tspan></text></g></g></g><g id="svg_30"><g id="svg_31" transform="translate(999,15) scale(1.5)"><path style="fill:#ff5293;fill-opacity:1;stroke:#ff2c76;stroke-width:1;stroke-linecap:round;stroke-opacity:1" id="svg_32" d="m-304,-2 L-304,-6 A4,4 90 0 1 -300,-10 L-296,-10 L-286,-10 L-256,-10 L-252,-10 A4,4 90 0 1 -248,-6 L-248,-2 L-252,-2 L-252,-5 L-256,-5 L-256,5 L-252,5 L-252,2 L-248,2 L-248,19 L-252,19 L-252,16 L-256,16 L-256,26 L-252,26 L-252,23 L-248,23 L-248,27 A4,4 90 0 1 -252,31 L-256,31 L-286,31 L-296,31 L-300,31 A4,4 90 0 1 -304,27 L-304,23 L-304,2 L-304,1 L-310,1 L-310,4 L-312,4 L-312,-4 L-310,-4 L-310,-1 L-304,-1 L-304,-2 z"/><text style="font-size:9px;fill:#282828;font-family:sans-serif;text-anchor:end" id="svg_33" x="-312.5" y="-10.5"><tspan id="svg_34" x="-258.5" y="12.5">➗</tspan></text></g></g><g id="svg_39"><g id="svg_40" transform="translate(1085,15) scale(1.5)"><path style="fill:#ff5293;fill-opacity:1;stroke:#ff2c76;stroke-width:1;stroke-linecap:round;stroke-opacity:1" id="svg_41" d="m-304,-10 L-244,-10 L-244,10 L-304,10 L-304,2 L-304,1 L-310,1 L-310,4 L-312,4 L-312,-4 L-310,-4 L-310,-1 L-304,-1 L-304,-2 z"/><text style="font-size:10px;fill:#282828;font-family:sans-serif;text-anchor:start" id="svg_42" x="-312.5" y="-10.5"><tspan id="svg_43" x="-299.5" y="3.5">1</tspan></text></g></g><g id="svg_44"><g id="svg_45" transform="translate(1085,47) scale(1.5)"><path style="fill:#ff5293;fill-opacity:1;stroke:#ff2c76;stroke-width:1;stroke-linecap:round;stroke-opacity:1" id="svg_46" d="m-304,-10 L-244,-10 L-244,10 L-304,10 L-304,2 L-304,1 L-310,1 L-310,4 L-312,4 L-312,-4 L-310,-4 L-310,-1 L-304,-1 L-304,-2 z"/><text style="font-size:10px;fill:#282828;font-family:sans-serif;text-anchor:start" id="svg_47" x="-312.5" y="-10.5"><tspan id="svg_48" x="-299.5" y="3.5">16</tspan></text></g></g><g id="svg_49"><g id="svg_50" transform="translate(881,47) scale(1.5)"><path style="fill:#b0b0b0;fill-opacity:1;stroke:#a0a0a0;stroke-width:1;stroke-linecap:round;stroke-opacity:1" id="svg_51" d="m-312,-2 L-312,-6 A4,4 90 0 1 -308,-10 L-304,-10 L-304,-8 L-294,-8 L-294,-10 L-274,-10 L-270,-10 A4,4 90 0 1 -266,-6 L-266,-2 L-266,2 L-266,6 A4,4 90 0 1 -270,10 L-274,10 L-294,10 L-295,10 L-295,12 L-303,12 L-303,10 L-304,10 L-308,10 A4,4 90 0 1 -312,6 L-312,2 z"/><text style="font-size:10px;fill:#282828;font-family:sans-serif;text-anchor:end" id="svg_52" x="-312.5" y="-10.5"><tspan id="svg_53" x="-276.5" y="3.5">↓</tspan></text></g></g><g id="svg_54"><g id="svg_55" transform="translate(881,79) scale(1.5)"><path style="fill:#77c428;fill-opacity:1;stroke:#57ad02;stroke-width:1;stroke-linecap:round;stroke-opacity:1" id="svg_56" d="m-312,-2 L-312,-6 A4,4 90 0 1 -308,-10 L-304,-10 L-304,-8 L-294,-8 L-294,-10 L-264,-10 L-260,-10 A4,4 90 0 1 -256,-6 L-256,-2 L-260,-2 L-260,-5 L-264,-5 L-264,5 L-260,5 L-260,2 L-256,2 L-256,19 L-260,19 L-260,16 L-264,16 L-264,26 L-260,26 L-260,23 L-256,23 L-256,27 A4,4 90 0 1 -260,31 L-264,31 L-294,31 L-295,31 L-295,33 L-303,33 L-303,31 L-304,31 L-308,31 A4,4 90 0 1 -312,27 L-312,23 L-312,2 L-312,-2 z"/><text style="font-size:10px;fill:#282828;font-family:sans-serif;text-anchor:end" id="svg_57" x="-312.5" y="-10.5"><tspan id="svg_58" x="-266.5" y="13.5">pitch</tspan></text><text style="font-size:6.666666666666667px;fill:#282828;font-family:sans-serif;text-anchor:end" id="svg_59" x="-312.5" y="-10.5"><tspan id="svg_60" x="-266.5" y="1.5">name</tspan></text><text style="font-size:6.666666666666667px;fill:#282828;font-family:sans-serif;text-anchor:end" id="svg_61" x="-312.5" y="-10.5"><tspan id="svg_62" x="-266.5" y="22.5">octave</tspan></text></g></g><g id="svg_63"><g id="svg_64" transform="translate(955,79) scale(1.5)"><path style="fill:#77c428;fill-opacity:1;stroke:#57ad02;stroke-width:1;stroke-linecap:round;stroke-opacity:1" id="svg_65" d="m-304,-10 L-244,-10 L-244,10 L-304,10 L-304,2 L-304,1 L-310,1 L-310,4 L-312,4 L-312,-4 L-310,-4 L-310,-1 L-304,-1 L-304,-2 z"/><text style="font-size:10px;fill:#282828;font-family:sans-serif;text-anchor:start" id="svg_66" x="-312.5" y="-10.5"><tspan id="svg_67" x="-299.5" y="3.5">sol</tspan></text></g></g><g id="svg_68"><g id="svg_69" transform="translate(955,111) scale(1.5)"><path style="fill:#ff5293;fill-opacity:1;stroke:#ff2c76;stroke-width:1;stroke-linecap:round;stroke-opacity:1" id="svg_70" d="m-304,-10 L-244,-10 L-244,10 L-304,10 L-304,2 L-304,1 L-310,1 L-310,4 L-312,4 L-312,-4 L-310,-4 L-310,-1 L-304,-1 L-304,-2 z"/><text style="font-size:10px;fill:#282828;font-family:sans-serif;text-anchor:start" id="svg_71" x="-312.5" y="-10.5"><tspan id="svg_72" x="-299.5" y="3.5">4</tspan></text></g></g><g id="svg_73"><g id="svg_74"><g id="svg_75" transform="translate(482,379) scale(1.5)"><path style="fill:#ff8b2d;fill-opacity:1;stroke:#e86b0e;stroke-width:1;stroke-linecap:round;stroke-opacity:1" id="svg_76" d="m-312,-2 L-312,-6 A4,4 90 0 1 -308,-10 L-304,-10 L-304,-8 L-294,-8 L-294,-10 L-285,-10 L-225,-10 L-221,-10 A4,4 90 0 1 -217,-6 L-217,-2 L-221,-2 L-221,-5 L-225,-5 L-225,5 L-221,5 L-221,2 L-217,2 L-217,6 A4,4 90 0 1 -221,10 L-225,10 L-285,10 L-286,10 L-286,12 L-294,12 L-294,10 L-295,10 L-299,10 A5,5 90 0 0 -304,15 L-304,19 L-304,23 L-304,65 L-304,69 A5,5 90 0 0 -299,74 L-295,74 L-295,76 L-285,76 L-285,74 L-277,74 L-277,80 L-277,86 L-277,90 A4,4 90 0 1 -281,94 L-285,94 L-294,94 L-295,94 L-295,96 L-303,96 L-303,94 L-304,94 L-308,94 A4,4 90 0 1 -312,90 L-312,86 z"/><text style="font-size:10px;fill:#282828;font-family:sans-serif;text-anchor:start" id="svg_77" x="-312.5" y="-10.5"><tspan id="svg_78" x="-292.5" y="4.5">note</tspan></text><text style="font-size:6.666666666666667px;fill:#282828;font-family:sans-serif;text-anchor:end" id="svg_79" x="-312.5" y="-10.5"><tspan id="svg_80" x="-227.5" y="1.5">value</tspan></text></g></g></g><g id="svg_88"><g id="svg_89" transform="translate(614,379) scale(1.5)"><path style="fill:#ff5293;fill-opacity:1;stroke:#ff2c76;stroke-width:1;stroke-linecap:round;stroke-opacity:1" id="svg_90" d="m-304,-2 L-304,-6 A4,4 90 0 1 -300,-10 L-296,-10 L-286,-10 L-256,-10 L-252,-10 A4,4 90 0 1 -248,-6 L-248,-2 L-252,-2 L-252,-5 L-256,-5 L-256,5 L-252,5 L-252,2 L-248,2 L-248,19 L-252,19 L-252,16 L-256,16 L-256,26 L-252,26 L-252,23 L-248,23 L-248,27 A4,4 90 0 1 -252,31 L-256,31 L-286,31 L-296,31 L-300,31 A4,4 90 0 1 -304,27 L-304,23 L-304,2 L-304,1 L-310,1 L-310,4 L-312,4 L-312,-4 L-310,-4 L-310,-1 L-304,-1 L-304,-2 z"/><text style="font-size:9px;fill:#282828;font-family:sans-serif;text-anchor:end" id="svg_91" x="-312.5" y="-10.5"><tspan id="svg_92" x="-258.5" y="12.5">➗</tspan></text></g></g><g id="svg_97"><g id="svg_98" transform="translate(700,379) scale(1.5)"><path style="fill:#ff5293;fill-opacity:1;stroke:#ff2c76;stroke-width:1;stroke-linecap:round;stroke-opacity:1" id="svg_99" d="m-304,-10 L-244,-10 L-244,10 L-304,10 L-304,2 L-304,1 L-310,1 L-310,4 L-312,4 L-312,-4 L-310,-4 L-310,-1 L-304,-1 L-304,-2 z"/><text style="font-size:10px;fill:#282828;font-family:sans-serif;text-anchor:start" id="svg_100" x="-312.5" y="-10.5"><tspan id="svg_101" x="-299.5" y="3.5">1</tspan></text></g></g><g id="svg_102"><g id="svg_103" transform="translate(700,411) scale(1.5)"><path style="fill:#ff5293;fill-opacity:1;stroke:#ff2c76;stroke-width:1;stroke-linecap:round;stroke-opacity:1" id="svg_104" d="m-304,-10 L-244,-10 L-244,10 L-304,10 L-304,2 L-304,1 L-310,1 L-310,4 L-312,4 L-312,-4 L-310,-4 L-310,-1 L-304,-1 L-304,-2 z"/><text style="font-size:10px;fill:#282828;font-family:sans-serif;text-anchor:start" id="svg_105" x="-312.5" y="-10.5"><tspan id="svg_106" x="-299.5" y="3.5">8</tspan></text></g></g><g id="svg_107"><g id="svg_108" transform="translate(496,411) scale(1.5)"><path style="fill:#b0b0b0;fill-opacity:1;stroke:#a0a0a0;stroke-width:1;stroke-linecap:round;stroke-opacity:1" id="svg_109" d="m-312,-2 L-312,-6 A4,4 90 0 1 -308,-10 L-304,-10 L-304,-8 L-294,-8 L-294,-10 L-274,-10 L-270,-10 A4,4 90 0 1 -266,-6 L-266,-2 L-266,2 L-266,6 A4,4 90 0 1 -270,10 L-274,10 L-294,10 L-295,10 L-295,12 L-303,12 L-303,10 L-304,10 L-308,10 A4,4 90 0 1 -312,6 L-312,2 z"/><text style="font-size:10px;fill:#282828;font-family:sans-serif;text-anchor:end" id="svg_110" x="-312.5" y="-10.5"><tspan id="svg_111" x="-276.5" y="3.5">↓</tspan></text></g></g><g id="svg_112"><g id="svg_113" transform="translate(496,443) scale(1.5)"><path style="fill:#77c428;fill-opacity:1;stroke:#57ad02;stroke-width:1;stroke-linecap:round;stroke-opacity:1" id="svg_114" d="m-312,-2 L-312,-6 A4,4 90 0 1 -308,-10 L-304,-10 L-304,-8 L-294,-8 L-294,-10 L-264,-10 L-260,-10 A4,4 90 0 1 -256,-6 L-256,-2 L-260,-2 L-260,-5 L-264,-5 L-264,5 L-260,5 L-260,2 L-256,2 L-256,19 L-260,19 L-260,16 L-264,16 L-264,26 L-260,26 L-260,23 L-256,23 L-256,27 A4,4 90 0 1 -260,31 L-264,31 L-294,31 L-295,31 L-295,33 L-303,33 L-303,31 L-304,31 L-308,31 A4,4 90 0 1 -312,27 L-312,23 L-312,2 L-312,-2 z"/><text style="font-size:10px;fill:#282828;font-family:sans-serif;text-anchor:end" id="svg_115" x="-312.5" y="-10.5"><tspan id="svg_116" x="-266.5" y="13.5">pitch</tspan></text><text style="font-size:6.666666666666667px;fill:#282828;font-family:sans-serif;text-anchor:end" id="svg_117" x="-312.5" y="-10.5"><tspan id="svg_118" x="-266.5" y="1.5">name</tspan></text><text style="font-size:6.666666666666667px;fill:#282828;font-family:sans-serif;text-anchor:end" id="svg_119" x="-312.5" y="-10.5"><tspan id="svg_120" x="-266.5" y="22.5">octave</tspan></text></g></g><g id="svg_121"><g id="svg_122" transform="translate(570,443) scale(1.5)"><path style="fill:#77c428;fill-opacity:1;stroke:#57ad02;stroke-width:1;stroke-linecap:round;stroke-opacity:1" id="svg_123" d="m-304,-10 L-244,-10 L-244,10 L-304,10 L-304,2 L-304,1 L-310,1 L-310,4 L-312,4 L-312,-4 L-310,-4 L-310,-1 L-304,-1 L-304,-2 z"/><text style="font-size:10px;fill:#282828;font-family:sans-serif;text-anchor:start" id="svg_124" x="-312.5" y="-10.5"><tspan id="svg_125" x="-299.5" y="3.5">sol</tspan></text></g></g><g id="svg_126"><g id="svg_127" transform="translate(570,475) scale(1.5)"><path style="fill:#ff5293;fill-opacity:1;stroke:#ff2c76;stroke-width:1;stroke-linecap:round;stroke-opacity:1" id="svg_128" d="m-304,-10 L-244,-10 L-244,10 L-304,10 L-304,2 L-304,1 L-310,1 L-310,4 L-312,4 L-312,-4 L-310,-4 L-310,-1 L-304,-1 L-304,-2 z"/><text style="font-size:10px;fill:#282828;font-family:sans-serif;text-anchor:start" id="svg_129" x="-312.5" y="-10.5"><tspan id="svg_130" x="-299.5" y="3.5">4</tspan></text></g></g><g id="svg_131"><g id="svg_132"><g id="svg_133" transform="translate(482,79) scale(1.5)"><path style="fill:#ff8b2d;fill-opacity:1;stroke:#e86b0e;stroke-width:1;stroke-linecap:round;stroke-opacity:1" id="svg_134" d="m-312,-2 L-312,-6 A4,4 90 0 1 -308,-10 L-304,-10 L-304,-8 L-294,-8 L-294,-10 L-285,-10 L-225,-10 L-221,-10 A4,4 90 0 1 -217,-6 L-217,-2 L-221,-2 L-221,-5 L-225,-5 L-225,5 L-221,5 L-221,2 L-217,2 L-217,6 A4,4 90 0 1 -221,10 L-225,10 L-285,10 L-286,10 L-286,12 L-294,12 L-294,10 L-295,10 L-299,10 A5,5 90 0 0 -304,15 L-304,19 L-304,23 L-304,65 L-304,69 A5,5 90 0 0 -299,74 L-295,74 L-295,76 L-285,76 L-285,74 L-277,74 L-277,80 L-277,86 L-277,90 A4,4 90 0 1 -281,94 L-285,94 L-294,94 L-295,94 L-295,96 L-303,96 L-303,94 L-304,94 L-308,94 A4,4 90 0 1 -312,90 L-312,86 z"/><text style="font-size:10px;fill:#282828;font-family:sans-serif;text-anchor:start" id="svg_135" x="-312.5" y="-10.5"><tspan id="svg_136" x="-292.5" y="4.5">note</tspan></text><text style="font-size:6.666666666666667px;fill:#282828;font-family:sans-serif;text-anchor:end" id="svg_137" x="-312.5" y="-10.5"><tspan id="svg_138" x="-227.5" y="1.5">value</tspan></text></g></g></g><g id="svg_146"><g id="svg_147" transform="translate(614,79) scale(1.5)"><path style="fill:#ff5293;fill-opacity:1;stroke:#ff2c76;stroke-width:1;stroke-linecap:round;stroke-opacity:1" id="svg_148" d="m-304,-2 L-304,-6 A4,4 90 0 1 -300,-10 L-296,-10 L-286,-10 L-256,-10 L-252,-10 A4,4 90 0 1 -248,-6 L-248,-2 L-252,-2 L-252,-5 L-256,-5 L-256,5 L-252,5 L-252,2 L-248,2 L-248,19 L-252,19 L-252,16 L-256,16 L-256,26 L-252,26 L-252,23 L-248,23 L-248,27 A4,4 90 0 1 -252,31 L-256,31 L-286,31 L-296,31 L-300,31 A4,4 90 0 1 -304,27 L-304,23 L-304,2 L-304,1 L-310,1 L-310,4 L-312,4 L-312,-4 L-310,-4 L-310,-1 L-304,-1 L-304,-2 z"/><text style="font-size:9px;fill:#282828;font-family:sans-serif;text-anchor:end" id="svg_149" x="-312.5" y="-10.5"><tspan id="svg_150" x="-258.5" y="12.5">➗</tspan></text></g></g><g id="svg_155"><g id="svg_156" transform="translate(700,79) scale(1.5)"><path style="fill:#ff5293;fill-opacity:1;stroke:#ff2c76;stroke-width:1;stroke-linecap:round;stroke-opacity:1" id="svg_157" d="m-304,-10 L-244,-10 L-244,10 L-304,10 L-304,2 L-304,1 L-310,1 L-310,4 L-312,4 L-312,-4 L-310,-4 L-310,-1 L-304,-1 L-304,-2 z"/><text style="font-size:10px;fill:#282828;font-family:sans-serif;text-anchor:start" id="svg_158" x="-312.5" y="-10.5"><tspan id="svg_159" x="-299.5" y="3.5">1</tspan></text></g></g><g id="svg_160"><g id="svg_161" transform="translate(496,111) scale(1.5)"><path style="fill:#b0b0b0;fill-opacity:1;stroke:#a0a0a0;stroke-width:1;stroke-linecap:round;stroke-opacity:1" id="svg_162" d="m-312,-2 L-312,-6 A4,4 90 0 1 -308,-10 L-304,-10 L-304,-8 L-294,-8 L-294,-10 L-274,-10 L-270,-10 A4,4 90 0 1 -266,-6 L-266,-2 L-266,2 L-266,6 A4,4 90 0 1 -270,10 L-274,10 L-294,10 L-295,10 L-295,12 L-303,12 L-303,10 L-304,10 L-308,10 A4,4 90 0 1 -312,6 L-312,2 z"/><text style="font-size:10px;fill:#282828;font-family:sans-serif;text-anchor:end" id="svg_163" x="-312.5" y="-10.5"><tspan id="svg_164" x="-276.5" y="3.5">↓</tspan></text></g></g><g id="svg_165"><g id="svg_166" transform="translate(496,143) scale(1.5)"><path style="fill:#77c428;fill-opacity:1;stroke:#57ad02;stroke-width:1;stroke-linecap:round;stroke-opacity:1" id="svg_167" d="m-312,-2 L-312,-6 A4,4 90 0 1 -308,-10 L-304,-10 L-304,-8 L-294,-8 L-294,-10 L-264,-10 L-260,-10 A4,4 90 0 1 -256,-6 L-256,-2 L-260,-2 L-260,-5 L-264,-5 L-264,5 L-260,5 L-260,2 L-256,2 L-256,19 L-260,19 L-260,16 L-264,16 L-264,26 L-260,26 L-260,23 L-256,23 L-256,27 A4,4 90 0 1 -260,31 L-264,31 L-294,31 L-295,31 L-295,33 L-303,33 L-303,31 L-304,31 L-308,31 A4,4 90 0 1 -312,27 L-312,23 L-312,2 L-312,-2 z"/><text style="font-size:10px;fill:#282828;font-family:sans-serif;text-anchor:end" id="svg_168" x="-312.5" y="-10.5"><tspan id="svg_169" x="-266.5" y="13.5">pitch</tspan></text><text style="font-size:6.666666666666667px;fill:#282828;font-family:sans-serif;text-anchor:end" id="svg_170" x="-312.5" y="-10.5"><tspan id="svg_171" x="-266.5" y="1.5">name</tspan></text><text style="font-size:6.666666666666667px;fill:#282828;font-family:sans-serif;text-anchor:end" id="svg_172" x="-312.5" y="-10.5"><tspan id="svg_173" x="-266.5" y="22.5">octave</tspan></text></g></g><g id="svg_174"><g id="svg_175" transform="translate(570,143) scale(1.5)"><path style="fill:#77c428;fill-opacity:1;stroke:#57ad02;stroke-width:1;stroke-linecap:round;stroke-opacity:1" id="svg_176" d="m-304,-10 L-244,-10 L-244,10 L-304,10 L-304,2 L-304,1 L-310,1 L-310,4 L-312,4 L-312,-4 L-310,-4 L-310,-1 L-304,-1 L-304,-2 z"/><text style="font-size:10px;fill:#282828;font-family:sans-serif;text-anchor:start" id="svg_177" x="-312.5" y="-10.5"><tspan id="svg_178" x="-299.5" y="3.5">sol</tspan></text></g></g><g id="svg_179"><g id="svg_180" transform="translate(570,175) scale(1.5)"><path style="fill:#ff5293;fill-opacity:1;stroke:#ff2c76;stroke-width:1;stroke-linecap:round;stroke-opacity:1" id="svg_181" d="m-304,-10 L-244,-10 L-244,10 L-304,10 L-304,2 L-304,1 L-310,1 L-310,4 L-312,4 L-312,-4 L-310,-4 L-310,-1 L-304,-1 L-304,-2 z"/><text style="font-size:10px;fill:#282828;font-family:sans-serif;text-anchor:start" id="svg_182" x="-312.5" y="-10.5"><tspan id="svg_183" x="-299.5" y="3.5">4</tspan></text></g></g><g id="svg_184"><g id="svg_185" transform="translate(700,111) scale(1.5)"><path style="fill:#ff5293;fill-opacity:1;stroke:#ff2c76;stroke-width:1;stroke-linecap:round;stroke-opacity:1" id="svg_186" d="m-304,-10 L-244,-10 L-244,10 L-304,10 L-304,2 L-304,1 L-310,1 L-310,4 L-312,4 L-312,-4 L-310,-4 L-310,-1 L-304,-1 L-304,-2 z"/><text style="font-size:10px;fill:#282828;font-family:sans-serif;text-anchor:start" id="svg_187" x="-312.5" y="-10.5"><tspan id="svg_188" x="-299.5" y="3.5">8</tspan></text></g></g><g id="svg_189"><g id="svg_190"><g id="svg_191" transform="translate(868,315) scale(1.5)"><path style="fill:#ff8b2d;fill-opacity:1;stroke:#e86b0e;stroke-width:1;stroke-linecap:round;stroke-opacity:1" id="svg_192" d="m-312,-2 L-312,-6 A4,4 90 0 1 -308,-10 L-304,-10 L-304,-8 L-294,-8 L-294,-10 L-285,-10 L-225,-10 L-221,-10 A4,4 90 0 1 -217,-6 L-217,-2 L-221,-2 L-221,-5 L-225,-5 L-225,5 L-221,5 L-221,2 L-217,2 L-217,6 A4,4 90 0 1 -221,10 L-225,10 L-285,10 L-286,10 L-286,12 L-294,12 L-294,10 L-295,10 L-299,10 A5,5 90 0 0 -304,15 L-304,19 L-304,23 L-304,65 L-304,69 A5,5 90 0 0 -299,74 L-295,74 L-295,76 L-285,76 L-285,74 L-277,74 L-277,80 L-277,86 L-277,90 A4,4 90 0 1 -281,94 L-285,94 L-294,94 L-295,94 L-295,96 L-303,96 L-303,94 L-304,94 L-308,94 A4,4 90 0 1 -312,90 L-312,86 z"/><text style="font-size:10px;fill:#282828;font-family:sans-serif;text-anchor:start" id="svg_193" x="-312.5" y="-10.5"><tspan id="svg_194" x="-292.5" y="4.5">note</tspan></text><text style="font-size:6.666666666666667px;fill:#282828;font-family:sans-serif;text-anchor:end" id="svg_195" x="-312.5" y="-10.5"><tspan id="svg_196" x="-227.5" y="1.5">value</tspan></text></g></g></g><g id="svg_204"><g id="svg_205" transform="translate(1000,315) scale(1.5)"><path style="fill:#ff5293;fill-opacity:1;stroke:#ff2c76;stroke-width:1;stroke-linecap:round;stroke-opacity:1" id="svg_206" d="m-304,-2 L-304,-6 A4,4 90 0 1 -300,-10 L-296,-10 L-286,-10 L-256,-10 L-252,-10 A4,4 90 0 1 -248,-6 L-248,-2 L-252,-2 L-252,-5 L-256,-5 L-256,5 L-252,5 L-252,2 L-248,2 L-248,19 L-252,19 L-252,16 L-256,16 L-256,26 L-252,26 L-252,23 L-248,23 L-248,27 A4,4 90 0 1 -252,31 L-256,31 L-286,31 L-296,31 L-300,31 A4,4 90 0 1 -304,27 L-304,23 L-304,2 L-304,1 L-310,1 L-310,4 L-312,4 L-312,-4 L-310,-4 L-310,-1 L-304,-1 L-304,-2 z"/><text style="font-size:9px;fill:#282828;font-family:sans-serif;text-anchor:end" id="svg_207" x="-312.5" y="-10.5"><tspan id="svg_208" x="-258.5" y="12.5">➗</tspan></text></g></g><g id="svg_213"><g id="svg_214" transform="translate(1086,315) scale(1.5)"><path style="fill:#ff5293;fill-opacity:1;stroke:#ff2c76;stroke-width:1;stroke-linecap:round;stroke-opacity:1" id="svg_215" d="m-304,-10 L-244,-10 L-244,10 L-304,10 L-304,2 L-304,1 L-310,1 L-310,4 L-312,4 L-312,-4 L-310,-4 L-310,-1 L-304,-1 L-304,-2 z"/><text style="font-size:10px;fill:#282828;font-family:sans-serif;text-anchor:start" id="svg_216" x="-312.5" y="-10.5"><tspan id="svg_217" x="-299.5" y="3.5">1</tspan></text></g></g><g id="svg_218"><g id="svg_219" transform="translate(1086,347) scale(1.5)"><path style="fill:#ff5293;fill-opacity:1;stroke:#ff2c76;stroke-width:1;stroke-linecap:round;stroke-opacity:1" id="svg_220" d="m-304,-10 L-244,-10 L-244,10 L-304,10 L-304,2 L-304,1 L-310,1 L-310,4 L-312,4 L-312,-4 L-310,-4 L-310,-1 L-304,-1 L-304,-2 z"/><text style="font-size:10px;fill:#282828;font-family:sans-serif;text-anchor:start" id="svg_221" x="-312.5" y="-10.5"><tspan id="svg_222" x="-299.5" y="3.5">4</tspan></text></g></g><g id="svg_223"><g id="svg_224" transform="translate(882,347) scale(1.5)"><path style="fill:#b0b0b0;fill-opacity:1;stroke:#a0a0a0;stroke-width:1;stroke-linecap:round;stroke-opacity:1" id="svg_225" d="m-312,-2 L-312,-6 A4,4 90 0 1 -308,-10 L-304,-10 L-304,-8 L-294,-8 L-294,-10 L-274,-10 L-270,-10 A4,4 90 0 1 -266,-6 L-266,-2 L-266,2 L-266,6 A4,4 90 0 1 -270,10 L-274,10 L-294,10 L-295,10 L-295,12 L-303,12 L-303,10 L-304,10 L-308,10 A4,4 90 0 1 -312,6 L-312,2 z"/><text style="font-size:10px;fill:#282828;font-family:sans-serif;text-anchor:end" id="svg_226" x="-312.5" y="-10.5"><tspan id="svg_227" x="-276.5" y="3.5">↓</tspan></text></g></g><g id="svg_228"><g id="svg_229" transform="translate(882,379) scale(1.5)"><path style="fill:#77c428;fill-opacity:1;stroke:#57ad02;stroke-width:1;stroke-linecap:round;stroke-opacity:1" id="svg_230" d="m-312,-2 L-312,-6 A4,4 90 0 1 -308,-10 L-304,-10 L-304,-8 L-294,-8 L-294,-10 L-264,-10 L-260,-10 A4,4 90 0 1 -256,-6 L-256,-2 L-260,-2 L-260,-5 L-264,-5 L-264,5 L-260,5 L-260,2 L-256,2 L-256,19 L-260,19 L-260,16 L-264,16 L-264,26 L-260,26 L-260,23 L-256,23 L-256,27 A4,4 90 0 1 -260,31 L-264,31 L-294,31 L-295,31 L-295,33 L-303,33 L-303,31 L-304,31 L-308,31 A4,4 90 0 1 -312,27 L-312,23 L-312,2 L-312,-2 z"/><text style="font-size:10px;fill:#282828;font-family:sans-serif;text-anchor:end" id="svg_231" x="-312.5" y="-10.5"><tspan id="svg_232" x="-266.5" y="13.5">pitch</tspan></text><text style="font-size:6.666666666666667px;fill:#282828;font-family:sans-serif;text-anchor:end" id="svg_233" x="-312.5" y="-10.5"><tspan id="svg_234" x="-266.5" y="1.5">name</tspan></text><text style="font-size:6.666666666666667px;fill:#282828;font-family:sans-serif;text-anchor:end" id="svg_235" x="-312.5" y="-10.5"><tspan id="svg_236" x="-266.5" y="22.5">octave</tspan></text></g></g><g id="svg_237"><g id="svg_238" transform="translate(956,379) scale(1.5)"><path style="fill:#77c428;fill-opacity:1;stroke:#57ad02;stroke-width:1;stroke-linecap:round;stroke-opacity:1" id="svg_239" d="m-304,-10 L-244,-10 L-244,10 L-304,10 L-304,2 L-304,1 L-310,1 L-310,4 L-312,4 L-312,-4 L-310,-4 L-310,-1 L-304,-1 L-304,-2 z"/><text style="font-size:10px;fill:#282828;font-family:sans-serif;text-anchor:start" id="svg_240" x="-312.5" y="-10.5"><tspan id="svg_241" x="-299.5" y="3.5">sol</tspan></text></g></g><g id="svg_242"><g id="svg_243" transform="translate(956,411) scale(1.5)"><path style="fill:#ff5293;fill-opacity:1;stroke:#ff2c76;stroke-width:1;stroke-linecap:round;stroke-opacity:1" id="svg_244" d="m-304,-10 L-244,-10 L-244,10 L-304,10 L-304,2 L-304,1 L-310,1 L-310,4 L-312,4 L-312,-4 L-310,-4 L-310,-1 L-304,-1 L-304,-2 z"/><text style="font-size:10px;fill:#282828;font-family:sans-serif;text-anchor:start" id="svg_245" x="-312.5" y="-10.5"><tspan id="svg_246" x="-299.5" y="3.5">4</tspan></text></g></g><g id="svg_247"><g id="svg_248" transform="translate(468,15) scale(1.5)"><path style="fill:#ff8b2d;fill-opacity:1;stroke:#e86b0e;stroke-width:1;stroke-linecap:round;stroke-opacity:1" id="svg_249" d="m-312,-2 L-312,-6 A4,4 90 0 1 -308,-10 L-304,-10 L-304,-8 L-294,-8 L-294,-10 L-285,-10 L-212.177734375,-10 L-208.177734375,-10 A4,4 90 0 1 -204.177734375,-6 L-204.177734375,-2 L-208.177734375,-2 L-208.177734375,-5 L-212.177734375,-5 L-212.177734375,5 L-208.177734375,5 L-208.177734375,2 L-204.177734375,2 L-204.177734375,6 A4,4 90 0 1 -208.177734375,10 L-212.177734375,10 L-285,10 L-286,10 L-286,12 L-294,12 L-294,10 L-295,10 L-299,10 A5,5 90 0 0 -304,15 L-304,19 L-304,23 L-304,128 L-304,132 A5,5 90 0 0 -299,137 L-295,137 L-295,139 L-285,139 L-285,137 L-277,137 L-277,143 L-277,149 L-277,153 A4,4 90 0 1 -281,157 L-285,157 L-294,157 L-295,157 L-295,159 L-303,159 L-303,157 L-304,157 L-308,157 A4,4 90 0 1 -312,153 L-312,149 z"/><text style="font-size:10px;fill:#282828;font-family:sans-serif;text-anchor:start" id="svg_250" x="-312.5" y="-10.5"><tspan id="svg_251" x="-307.5" y="4.5">multiply note value</tspan></text></g></g><g id="svg_254"><g id="svg_255" transform="translate(619,15) scale(1.5)"><path style="fill:#ff5293;fill-opacity:1;stroke:#ff2c76;stroke-width:1;stroke-linecap:round;stroke-opacity:1" id="svg_256" d="m-304,-2 L-304,-6 A4,4 90 0 1 -300,-10 L-296,-10 L-286,-10 L-256,-10 L-252,-10 A4,4 90 0 1 -248,-6 L-248,-2 L-252,-2 L-252,-5 L-256,-5 L-256,5 L-252,5 L-252,2 L-248,2 L-248,19 L-252,19 L-252,16 L-256,16 L-256,26 L-252,26 L-252,23 L-248,23 L-248,27 A4,4 90 0 1 -252,31 L-256,31 L-286,31 L-296,31 L-300,31 A4,4 90 0 1 -304,27 L-304,23 L-304,2 L-304,1 L-310,1 L-310,4 L-312,4 L-312,-4 L-310,-4 L-310,-1 L-304,-1 L-304,-2 z"/><text style="font-size:9px;fill:#282828;font-family:sans-serif;text-anchor:end" id="svg_257" x="-312.5" y="-10.5"><tspan id="svg_258" x="-258.5" y="12.5">➗</tspan></text></g></g><g id="svg_263"><g id="svg_264" transform="translate(705,15) scale(1.5)"><path style="fill:#ff5293;fill-opacity:1;stroke:#ff2c76;stroke-width:1;stroke-linecap:round;stroke-opacity:1" id="svg_265" d="m-304,-10 L-244,-10 L-244,10 L-304,10 L-304,2 L-304,1 L-310,1 L-310,4 L-312,4 L-312,-4 L-310,-4 L-310,-1 L-304,-1 L-304,-2 z"/><text style="font-size:10px;fill:#282828;font-family:sans-serif;text-anchor:start" id="svg_266" x="-312.5" y="-10.5"><tspan id="svg_267" x="-299.5" y="3.5">1</tspan></text></g></g><g id="svg_268"><g id="svg_269" transform="translate(705,47) scale(1.5)"><path style="fill:#ff5293;fill-opacity:1;stroke:#ff2c76;stroke-width:1;stroke-linecap:round;stroke-opacity:1" id="svg_270" d="m-304,-10 L-244,-10 L-244,10 L-304,10 L-304,2 L-304,1 L-310,1 L-310,4 L-312,4 L-312,-4 L-310,-4 L-310,-1 L-304,-1 L-304,-2 z"/><text style="font-size:10px;fill:#282828;font-family:sans-serif;text-anchor:start" id="svg_271" x="-312.5" y="-10.5"><tspan id="svg_272" x="-299.5" y="3.5">2</tspan></text></g></g><g id="svg_273"><g id="svg_274" transform="translate(482,47) scale(1.5)"><path style="fill:#b0b0b0;fill-opacity:1;stroke:#a0a0a0;stroke-width:1;stroke-linecap:round;stroke-opacity:1" id="svg_275" d="m-312,-2 L-312,-6 A4,4 90 0 1 -308,-10 L-304,-10 L-304,-8 L-294,-8 L-294,-10 L-274,-10 L-270,-10 A4,4 90 0 1 -266,-6 L-266,-2 L-266,2 L-266,6 A4,4 90 0 1 -270,10 L-274,10 L-294,10 L-295,10 L-295,12 L-303,12 L-303,10 L-304,10 L-308,10 A4,4 90 0 1 -312,6 L-312,2 z"/><text style="font-size:10px;fill:#282828;font-family:sans-serif;text-anchor:end" id="svg_276" x="-312.5" y="-10.5"><tspan id="svg_277" x="-276.5" y="3.5">↓</tspan></text></g></g><g id="svg_278"><g id="svg_279" transform="translate(468,315) scale(1.5)"><path style="fill:#ff8b2d;fill-opacity:1;stroke:#e86b0e;stroke-width:1;stroke-linecap:round;stroke-opacity:1" id="svg_280" d="m-312,-2 L-312,-6 A4,4 90 0 1 -308,-10 L-304,-10 L-304,-8 L-294,-8 L-294,-10 L-285,-10 L-212.177734375,-10 L-208.177734375,-10 A4,4 90 0 1 -204.177734375,-6 L-204.177734375,-2 L-208.177734375,-2 L-208.177734375,-5 L-212.177734375,-5 L-212.177734375,5 L-208.177734375,5 L-208.177734375,2 L-204.177734375,2 L-204.177734375,6 A4,4 90 0 1 -208.177734375,10 L-212.177734375,10 L-285,10 L-286,10 L-286,12 L-294,12 L-294,10 L-295,10 L-299,10 A5,5 90 0 0 -304,15 L-304,19 L-304,23 L-304,128 L-304,132 A5,5 90 0 0 -299,137 L-295,137 L-295,139 L-285,139 L-285,137 L-277,137 L-277,143 L-277,149 L-277,153 A4,4 90 0 1 -281,157 L-285,157 L-294,157 L-295,157 L-295,159 L-303,159 L-303,157 L-304,157 L-308,157 A4,4 90 0 1 -312,153 L-312,149 z"/><text style="font-size:10px;fill:#282828;font-family:sans-serif;text-anchor:start" id="svg_281" x="-312.5" y="-10.5"><tspan id="svg_282" x="-307.5" y="4.5">multiply note value</tspan></text></g></g><g id="svg_285"><g id="svg_286" transform="translate(619,315) scale(1.5)"><path style="fill:#ff5293;fill-opacity:1;stroke:#ff2c76;stroke-width:1;stroke-linecap:round;stroke-opacity:1" id="svg_287" d="m-304,-2 L-304,-6 A4,4 90 0 1 -300,-10 L-296,-10 L-286,-10 L-256,-10 L-252,-10 A4,4 90 0 1 -248,-6 L-248,-2 L-252,-2 L-252,-5 L-256,-5 L-256,5 L-252,5 L-252,2 L-248,2 L-248,19 L-252,19 L-252,16 L-256,16 L-256,26 L-252,26 L-252,23 L-248,23 L-248,27 A4,4 90 0 1 -252,31 L-256,31 L-286,31 L-296,31 L-300,31 A4,4 90 0 1 -304,27 L-304,23 L-304,2 L-304,1 L-310,1 L-310,4 L-312,4 L-312,-4 L-310,-4 L-310,-1 L-304,-1 L-304,-2 z"/><text style="font-size:9px;fill:#282828;font-family:sans-serif;text-anchor:end" id="svg_288" x="-312.5" y="-10.5"><tspan id="svg_289" x="-258.5" y="12.5">➗</tspan></text></g></g><g id="svg_294"><g id="svg_295" transform="translate(705,315) scale(1.5)"><path style="fill:#ff5293;fill-opacity:1;stroke:#ff2c76;stroke-width:1;stroke-linecap:round;stroke-opacity:1" id="svg_296" d="m-304,-10 L-244,-10 L-244,10 L-304,10 L-304,2 L-304,1 L-310,1 L-310,4 L-312,4 L-312,-4 L-310,-4 L-310,-1 L-304,-1 L-304,-2 z"/><text style="font-size:10px;fill:#282828;font-family:sans-serif;text-anchor:start" id="svg_297" x="-312.5" y="-10.5"><tspan id="svg_298" x="-299.5" y="3.5">2</tspan></text></g></g><g id="svg_299"><g id="svg_300" transform="translate(705,347) scale(1.5)"><path style="fill:#ff5293;fill-opacity:1;stroke:#ff2c76;stroke-width:1;stroke-linecap:round;stroke-opacity:1" id="svg_301" d="m-304,-10 L-244,-10 L-244,10 L-304,10 L-304,2 L-304,1 L-310,1 L-310,4 L-312,4 L-312,-4 L-310,-4 L-310,-1 L-304,-1 L-304,-2 z"/><text style="font-size:10px;fill:#282828;font-family:sans-serif;text-anchor:start" id="svg_302" x="-312.5" y="-10.5"><tspan id="svg_303" x="-299.5" y="3.5">1</tspan></text></g></g><g id="svg_304"><g id="svg_305" transform="translate(482,347) scale(1.5)"><path style="fill:#b0b0b0;fill-opacity:1;stroke:#a0a0a0;stroke-width:1;stroke-linecap:round;stroke-opacity:1" id="svg_306" d="m-312,-2 L-312,-6 A4,4 90 0 1 -308,-10 L-304,-10 L-304,-8 L-294,-8 L-294,-10 L-274,-10 L-270,-10 A4,4 90 0 1 -266,-6 L-266,-2 L-266,2 L-266,6 A4,4 90 0 1 -270,10 L-274,10 L-294,10 L-295,10 L-295,12 L-303,12 L-303,10 L-304,10 L-308,10 A4,4 90 0 1 -312,6 L-312,2 z"/><text style="font-size:10px;fill:#282828;font-family:sans-serif;text-anchor:end" id="svg_307" x="-312.5" y="-10.5"><tspan id="svg_308" x="-276.5" y="3.5">↓</tspan></text></g></g></g></svg>