<svg xmlns="http://www.w3.org/2000/svg" width="715" height="573"><rect id="backgroundrect" width="100%" height="100%" x="0" y="0" fill="none" stroke="none"/><g class="currentLayer"><title>Layer 1</title><g id="svg_15"><g id="svg_16"><g id="svg_17" transform="translate(662, 272) scale(1.5)"><path style="fill:#ff8b2d;fill-opacity:1;stroke:#e86b0e;stroke-width:1;stroke-linecap:round;stroke-opacity:1" id="svg_18" d="m-178,-25.333332061767578 L-178,-29.333332061767578 A4,4 90 0 1 -174,-33.33333206176758 L-170,-33.33333206176758 L-170,-31.333332061767578 L-160,-31.333332061767578 L-160,-33.33333206176758 L-151,-33.33333206176758 L-91,-33.33333206176758 L-87,-33.33333206176758 A4,4 90 0 1 -83,-29.333332061767578 L-83,-25.333332061767578 L-87,-25.333332061767578 L-87,-28.333332061767578 L-91,-28.333332061767578 L-91,-18.333332061767578 L-87,-18.333332061767578 L-87,-21.333332061767578 L-83,-21.333332061767578 L-83,-17.333332061767578 A4,4 90 0 1 -87,-13.333332061767578 L-91,-13.333332061767578 L-151,-13.333332061767578 L-152,-13.333332061767578 L-152,-11.333332061767578 L-160,-11.333332061767578 L-160,-13.333332061767578 L-161,-13.333332061767578 L-165,-13.333332061767578 A5,5 90 0 0 -170,-8.333332061767578 L-170,-4.333332061767578 L-170,-0.3333320617675781 L-170,41.66666793823242 L-170,45.66666793823242 A5,5 90 0 0 -165,50.66666793823242 L-161,50.66666793823242 L-161,52.66666793823242 L-151,52.66666793823242 L-151,50.66666793823242 L-143,50.66666793823242 L-143,56.66666793823242 L-143,62.66666793823242 L-143,66.66666793823242 A4,4 90 0 1 -147,70.66666793823242 L-151,70.66666793823242 L-160,70.66666793823242 L-161,70.66666793823242 L-161,72.66666793823242 L-169,72.66666793823242 L-169,70.66666793823242 L-170,70.66666793823242 L-174,70.66666793823242 A4,4 90 0 1 -178,66.66666793823242 L-178,62.66666793823242 z"/><text style="font-size:10px;fill:#282828;font-family:sans-serif;text-anchor:start" id="svg_19" x="-178.5" y="-33.833"><tspan id="svg_20" x="-158.5" y="-18.833">note</tspan></text><text style="font-size:6.666666666666667px;fill:#282828;font-family:sans-serif;text-anchor:end" id="svg_21" x="-178.5" y="-33.833"><tspan id="svg_22" x="-93.5" y="-21.833">value</tspan></text></g></g><g id="svg_23" transform="translate(662, 276) scale(0.5)"><g style="isolation:isolate" id="svg_24"><g id="レイヤー_2" data-name="レイヤー 2"><g id="Icon"><rect style="fill:#292929;opacity:.4;mix-blend-mode:multiply" id="svg_25" width="42" height="42" x="-535.5" y="-101.5" rx="5" ry="5"/><path style="fill:#fff" id="svg_26" d="M-504.9400005340576,-71.70000076293945 l-4.170000076293945,-4.159999847412109 h2.259999990463257 a1,1 0 1 0 0,-2.069999933242798 H-511.5599994659424 a1.0800000429153442,1.0800000429153442 0 0 0 -1.1100000143051147,1 v0 s0,0 0,0.05999999865889549 v4.639999866485596 h0 a1,1 0 1 0 2.0799999237060547,0 V-74.42000007629395 l4.190000057220459,4.190000057220459 a1,1 0 0 0 1.4600000381469727,0 A1,1 0 0 0 -504.9400005340576,-71.70000076293945 z"/><path style="fill:#fff" id="svg_27" d="M-516.329999923706,-76.89999961853027 a1.0800000429153442,1.0800000429153442 0 0 0 -1.1100000143051147,-1 H-522.1499996185303 a1,1 0 1 0 0,2.069999933242798 H-519.8999996185303 L-524.0600004196167,-71.70000076293945 a1,1 0 0 0 1.4700000286102295,1.4700000286102295 l4.179999828338623,-4.190000057220459 v2.259999990463257 a1,1 0 1 0 2.0799999237060547,0 V-76.79999923706055 s0,0 0,-0.05999999865889549 A0.07999999821186066,0.07999999821186066 0 0 1 -516.329999923706,-76.89999961853027 z"/><path style="fill:#fff" id="svg_28" d="M-511.5599994659424,-81 h4.699999809265137 a1,1 0 1 0 0,-2.0799999237060547 H-509.11000061035156 l4.170000076293945,-4.159999847412109 a1,1 0 0 0 0,-1.4700000286102295 a1,1 0 0 0 -1.4600000381469727,0 L-510.5900001525879,-84.5 V-86.77999973297119 a1,1 0 1 0 -2.0799999237060547,0 v4.639999866485596 a0.4300000071525574,0.4300000071525574 0 0 0 0,0.05000000074505806 v0.05000000074505806 A1.090000033378601,1.090000033378601 0 0 0 -511.5599994659424,-81 z"/><path style="fill:#fff" id="svg_29" d="M-517.3700008392334,-87.88000011444092 a1.0800000429153442,1.0800000429153442 0 0 0 -1,1.090000033378601 V-84.5 l-4.179999828338623,-4.190000057220459 a1,1 0 0 0 -1.4700000286102295,0 a1,1 0 0 0 0,1.4600000381469727 l4.159999847412109,4.170000076293945 H-522.1499996185303 a1,1 0 1 0 0,2.0799999237060547 h4.710000038146973 a1.090000033378601,1.090000033378601 0 0 0 1.1100000143051147,-1 a0.07999999821186066,0.07999999821186066 0 0 1 0,0 s0,0 0,-0.05999999865889549 V-86.78999996185303 A1.0700000524520874,1.0700000524520874 0 0 0 -517.3700008392334,-87.88000011444092 z"/></g></g></g></g></g><g id="svg_30"><g id="svg_31" transform="translate(794, 272) scale(1.5)"><path style="fill:#ff5293;fill-opacity:1;stroke:#ff2c76;stroke-width:1;stroke-linecap:round;stroke-opacity:1" id="svg_32" d="m-170,-25.333332061767578 L-170,-29.333332061767578 A4,4 90 0 1 -166,-33.33333206176758 L-162,-33.33333206176758 L-152,-33.33333206176758 L-122,-33.33333206176758 L-118,-33.33333206176758 A4,4 90 0 1 -114,-29.333332061767578 L-114,-25.333332061767578 L-118,-25.333332061767578 L-118,-28.333332061767578 L-122,-28.333332061767578 L-122,-18.333332061767578 L-118,-18.333332061767578 L-118,-21.333332061767578 L-114,-21.333332061767578 L-114,-4.333332061767578 L-118,-4.333332061767578 L-118,-7.333332061767578 L-122,-7.333332061767578 L-122,2.666667938232422 L-118,2.666667938232422 L-118,-0.3333320617675781 L-114,-0.3333320617675781 L-114,3.666667938232422 A4,4 90 0 1 -118,7.666667938232422 L-122,7.666667938232422 L-152,7.666667938232422 L-162,7.666667938232422 L-166,7.666667938232422 A4,4 90 0 1 -170,3.666667938232422 L-170,-0.3333320617675781 L-170,-21.333332061767578 L-170,-22.333332061767578 L-176,-22.333332061767578 L-176,-19.333332061767578 L-178,-19.333332061767578 L-178,-27.333332061767578 L-176,-27.333332061767578 L-176,-24.333332061767578 L-170,-24.333332061767578 L-170,-25.333332061767578 z"/><text style="font-size:9px;fill:#282828;font-family:sans-serif;text-anchor:end" id="svg_33" x="-178.5" y="-33.833"><tspan id="svg_34" x="-124.5" y="-10.833">➗</tspan></text></g></g><g id="svg_39"><g id="svg_40" transform="translate(880, 272) scale(1.5)"><path style="fill:#ff5293;fill-opacity:1;stroke:#ff2c76;stroke-width:1;stroke-linecap:round;stroke-opacity:1" id="svg_41" d="m-170,-33.33333206176758 L-110,-33.33333206176758 L-110,-13.333332061767578 L-170,-13.333332061767578 L-170,-21.333332061767578 L-170,-22.333332061767578 L-176,-22.333332061767578 L-176,-19.333332061767578 L-178,-19.333332061767578 L-178,-27.333332061767578 L-176,-27.333332061767578 L-176,-24.333332061767578 L-170,-24.333332061767578 L-170,-25.333332061767578 z"/><text style="font-size:10px;fill:#282828;font-family:sans-serif;text-anchor:start" id="svg_42" x="-178.5" y="-33.833"><tspan id="svg_43" x="-165.5" y="-19.833">1</tspan></text></g></g><g id="svg_44"><g id="svg_45" transform="translate(880, 304) scale(1.5)"><path style="fill:#ff5293;fill-opacity:1;stroke:#ff2c76;stroke-width:1;stroke-linecap:round;stroke-opacity:1" id="svg_46" d="m-170,-33.33333206176758 L-110,-33.33333206176758 L-110,-13.333332061767578 L-170,-13.333332061767578 L-170,-21.333332061767578 L-170,-22.333332061767578 L-176,-22.333332061767578 L-176,-19.333332061767578 L-178,-19.333332061767578 L-178,-27.333332061767578 L-176,-27.333332061767578 L-176,-24.333332061767578 L-170,-24.333332061767578 L-170,-25.333332061767578 z"/><text style="font-size:10px;fill:#282828;font-family:sans-serif;text-anchor:start" id="svg_47" x="-178.5" y="-33.833"><tspan id="svg_48" x="-165.5" y="-19.833">4</tspan></text></g></g><g id="svg_49"><g id="svg_50" transform="translate(676, 304) scale(1.5)"><path style="fill:#b0b0b0;fill-opacity:1;stroke:#a0a0a0;stroke-width:1;stroke-linecap:round;stroke-opacity:1" id="svg_51" d="m-178,-25.333332061767578 L-178,-29.333332061767578 A4,4 90 0 1 -174,-33.33333206176758 L-170,-33.33333206176758 L-170,-31.333332061767578 L-160,-31.333332061767578 L-160,-33.33333206176758 L-140,-33.33333206176758 L-136,-33.33333206176758 A4,4 90 0 1 -132,-29.333332061767578 L-132,-25.333332061767578 L-132,-21.333332061767578 L-132,-17.333332061767578 A4,4 90 0 1 -136,-13.333332061767578 L-140,-13.333332061767578 L-160,-13.333332061767578 L-161,-13.333332061767578 L-161,-11.333332061767578 L-169,-11.333332061767578 L-169,-13.333332061767578 L-170,-13.333332061767578 L-174,-13.333332061767578 A4,4 90 0 1 -178,-17.333332061767578 L-178,-21.333332061767578 z"/><text style="font-size:10px;fill:#282828;font-family:sans-serif;text-anchor:end" id="svg_52" x="-178.5" y="-33.833"><tspan id="svg_53" x="-142.5" y="-19.833">↓</tspan></text></g></g><g id="svg_54"><g id="svg_55" transform="translate(676, 336) scale(1.5)"><path style="fill:#77c428;fill-opacity:1;stroke:#57ad02;stroke-width:1;stroke-linecap:round;stroke-opacity:1" id="svg_56" d="m-178,-25.333332061767578 L-178,-29.333332061767578 A4,4 90 0 1 -174,-33.33333206176758 L-170,-33.33333206176758 L-170,-31.333332061767578 L-160,-31.333332061767578 L-160,-33.33333206176758 L-130,-33.33333206176758 L-126,-33.33333206176758 A4,4 90 0 1 -122,-29.333332061767578 L-122,-25.333332061767578 L-126,-25.333332061767578 L-126,-28.333332061767578 L-130,-28.333332061767578 L-130,-18.333332061767578 L-126,-18.333332061767578 L-126,-21.333332061767578 L-122,-21.333332061767578 L-122,-4.333332061767578 L-126,-4.333332061767578 L-126,-7.333332061767578 L-130,-7.333332061767578 L-130,2.666667938232422 L-126,2.666667938232422 L-126,-0.3333320617675781 L-122,-0.3333320617675781 L-122,3.666667938232422 A4,4 90 0 1 -126,7.666667938232422 L-130,7.666667938232422 L-160,7.666667938232422 L-161,7.666667938232422 L-161,9.666667938232422 L-169,9.666667938232422 L-169,7.666667938232422 L-170,7.666667938232422 L-174,7.666667938232422 A4,4 90 0 1 -178,3.666667938232422 L-178,-0.3333320617675781 L-178,-21.333332061767578 L-178,-25.333332061767578 z"/><text style="font-size:10px;fill:#282828;font-family:sans-serif;text-anchor:end" id="svg_57" x="-178.5" y="-33.833"><tspan id="svg_58" x="-132.5" y="-9.833">pitch</tspan></text><text style="font-size:6.666666666666667px;fill:#282828;font-family:sans-serif;text-anchor:end" id="svg_59" x="-178.5" y="-33.833"><tspan id="svg_60" x="-132.5" y="-21.833">name</tspan></text><text style="font-size:6.666666666666667px;fill:#282828;font-family:sans-serif;text-anchor:end" id="svg_61" x="-178.5" y="-33.833"><tspan id="svg_62" x="-132.5" y="-.833">octave</tspan></text></g></g><g id="svg_63"><g id="svg_64" transform="translate(750, 336) scale(1.5)"><path style="fill:#77c428;fill-opacity:1;stroke:#57ad02;stroke-width:1;stroke-linecap:round;stroke-opacity:1" id="svg_65" d="m-170,-33.33333206176758 L-110,-33.33333206176758 L-110,-13.333332061767578 L-170,-13.333332061767578 L-170,-21.333332061767578 L-170,-22.333332061767578 L-176,-22.333332061767578 L-176,-19.333332061767578 L-178,-19.333332061767578 L-178,-27.333332061767578 L-176,-27.333332061767578 L-176,-24.333332061767578 L-170,-24.333332061767578 L-170,-25.333332061767578 z"/><text style="font-size:10px;fill:#282828;font-family:sans-serif;text-anchor:start" id="svg_66" x="-178.5" y="-33.833"><tspan id="svg_67" x="-165.5" y="-19.833">mi</tspan></text></g></g><g id="svg_68"><g id="svg_69" transform="translate(750, 368) scale(1.5)"><path style="fill:#ff5293;fill-opacity:1;stroke:#ff2c76;stroke-width:1;stroke-linecap:round;stroke-opacity:1" id="svg_70" d="m-170,-33.33333206176758 L-110,-33.33333206176758 L-110,-13.333332061767578 L-170,-13.333332061767578 L-170,-21.333332061767578 L-170,-22.333332061767578 L-176,-22.333332061767578 L-176,-19.333332061767578 L-178,-19.333332061767578 L-178,-27.333332061767578 L-176,-27.333332061767578 L-176,-24.333332061767578 L-170,-24.333332061767578 L-170,-25.333332061767578 z"/><text style="font-size:10px;fill:#282828;font-family:sans-serif;text-anchor:start" id="svg_71" x="-178.5" y="-33.833"><tspan id="svg_72" x="-165.5" y="-19.833">4</tspan></text></g></g><g id="svg_73"><g id="svg_74"><g id="svg_75" transform="translate(662, 114) scale(1.5)"><path style="fill:#ff8b2d;fill-opacity:1;stroke:#e86b0e;stroke-width:1;stroke-linecap:round;stroke-opacity:1" id="svg_76" d="m-178,-25.333332061767578 L-178,-29.333332061767578 A4,4 90 0 1 -174,-33.33333206176758 L-170,-33.33333206176758 L-170,-31.333332061767578 L-160,-31.333332061767578 L-160,-33.33333206176758 L-151,-33.33333206176758 L-91,-33.33333206176758 L-87,-33.33333206176758 A4,4 90 0 1 -83,-29.333332061767578 L-83,-25.333332061767578 L-87,-25.333332061767578 L-87,-28.333332061767578 L-91,-28.333332061767578 L-91,-18.333332061767578 L-87,-18.333332061767578 L-87,-21.333332061767578 L-83,-21.333332061767578 L-83,-17.333332061767578 A4,4 90 0 1 -87,-13.333332061767578 L-91,-13.333332061767578 L-151,-13.333332061767578 L-152,-13.333332061767578 L-152,-11.333332061767578 L-160,-11.333332061767578 L-160,-13.333332061767578 L-161,-13.333332061767578 L-165,-13.333332061767578 A5,5 90 0 0 -170,-8.333332061767578 L-170,-4.333332061767578 L-170,-0.3333320617675781 L-170,41.66666793823242 L-170,45.66666793823242 A5,5 90 0 0 -165,50.66666793823242 L-161,50.66666793823242 L-161,52.66666793823242 L-151,52.66666793823242 L-151,50.66666793823242 L-143,50.66666793823242 L-143,56.66666793823242 L-143,62.66666793823242 L-143,66.66666793823242 A4,4 90 0 1 -147,70.66666793823242 L-151,70.66666793823242 L-160,70.66666793823242 L-161,70.66666793823242 L-161,72.66666793823242 L-169,72.66666793823242 L-169,70.66666793823242 L-170,70.66666793823242 L-174,70.66666793823242 A4,4 90 0 1 -178,66.66666793823242 L-178,62.66666793823242 z"/><text style="font-size:10px;fill:#282828;font-family:sans-serif;text-anchor:start" id="svg_77" x="-178.5" y="-33.833"><tspan id="svg_78" x="-158.5" y="-18.833">note</tspan></text><text style="font-size:6.666666666666667px;fill:#282828;font-family:sans-serif;text-anchor:end" id="svg_79" x="-178.5" y="-33.833"><tspan id="svg_80" x="-93.5" y="-21.833">value</tspan></text></g></g><g id="svg_81" transform="translate(662, 118) scale(0.5)"><g style="isolation:isolate" id="svg_82"><g id="レイヤー_2" data-name="レイヤー 2"><g id="Icon"><rect style="fill:#292929;opacity:.4;mix-blend-mode:multiply" id="svg_83" width="42" height="42" x="-535.5" y="-101.5" rx="5" ry="5"/><path style="fill:#fff" id="svg_84" d="M-504.9400005340576,-71.70000076293945 l-4.170000076293945,-4.159999847412109 h2.259999990463257 a1,1 0 1 0 0,-2.069999933242798 H-511.5599994659424 a1.0800000429153442,1.0800000429153442 0 0 0 -1.1100000143051147,1 v0 s0,0 0,0.05999999865889549 v4.639999866485596 h0 a1,1 0 1 0 2.0799999237060547,0 V-74.42000007629395 l4.190000057220459,4.190000057220459 a1,1 0 0 0 1.4600000381469727,0 A1,1 0 0 0 -504.9400005340576,-71.70000076293945 z"/><path style="fill:#fff" id="svg_85" d="M-516.329999923706,-76.89999961853027 a1.0800000429153442,1.0800000429153442 0 0 0 -1.1100000143051147,-1 H-522.1499996185303 a1,1 0 1 0 0,2.069999933242798 H-519.8999996185303 L-524.0600004196167,-71.70000076293945 a1,1 0 0 0 1.4700000286102295,1.4700000286102295 l4.179999828338623,-4.190000057220459 v2.259999990463257 a1,1 0 1 0 2.0799999237060547,0 V-76.79999923706055 s0,0 0,-0.05999999865889549 A0.07999999821186066,0.07999999821186066 0 0 1 -516.329999923706,-76.89999961853027 z"/><path style="fill:#fff" id="svg_86" d="M-511.5599994659424,-81 h4.699999809265137 a1,1 0 1 0 0,-2.0799999237060547 H-509.11000061035156 l4.170000076293945,-4.159999847412109 a1,1 0 0 0 0,-1.4700000286102295 a1,1 0 0 0 -1.4600000381469727,0 L-510.5900001525879,-84.5 V-86.77999973297119 a1,1 0 1 0 -2.0799999237060547,0 v4.639999866485596 a0.4300000071525574,0.4300000071525574 0 0 0 0,0.05000000074505806 v0.05000000074505806 A1.090000033378601,1.090000033378601 0 0 0 -511.5599994659424,-81 z"/><path style="fill:#fff" id="svg_87" d="M-517.3700008392334,-87.88000011444092 a1.0800000429153442,1.0800000429153442 0 0 0 -1,1.090000033378601 V-84.5 l-4.179999828338623,-4.190000057220459 a1,1 0 0 0 -1.4700000286102295,0 a1,1 0 0 0 0,1.4600000381469727 l4.159999847412109,4.170000076293945 H-522.1499996185303 a1,1 0 1 0 0,2.0799999237060547 h4.710000038146973 a1.090000033378601,1.090000033378601 0 0 0 1.1100000143051147,-1 a0.07999999821186066,0.07999999821186066 0 0 1 0,0 s0,0 0,-0.05999999865889549 V-86.78999996185303 A1.0700000524520874,1.0700000524520874 0 0 0 -517.3700008392334,-87.88000011444092 z"/></g></g></g></g></g><g id="svg_88"><g id="svg_89" transform="translate(794, 114) scale(1.5)"><path style="fill:#ff5293;fill-opacity:1;stroke:#ff2c76;stroke-width:1;stroke-linecap:round;stroke-opacity:1" id="svg_90" d="m-170,-25.333332061767578 L-170,-29.333332061767578 A4,4 90 0 1 -166,-33.33333206176758 L-162,-33.33333206176758 L-152,-33.33333206176758 L-122,-33.33333206176758 L-118,-33.33333206176758 A4,4 90 0 1 -114,-29.333332061767578 L-114,-25.333332061767578 L-118,-25.333332061767578 L-118,-28.333332061767578 L-122,-28.333332061767578 L-122,-18.333332061767578 L-118,-18.333332061767578 L-118,-21.333332061767578 L-114,-21.333332061767578 L-114,-4.333332061767578 L-118,-4.333332061767578 L-118,-7.333332061767578 L-122,-7.333332061767578 L-122,2.666667938232422 L-118,2.666667938232422 L-118,-0.3333320617675781 L-114,-0.3333320617675781 L-114,3.666667938232422 A4,4 90 0 1 -118,7.666667938232422 L-122,7.666667938232422 L-152,7.666667938232422 L-162,7.666667938232422 L-166,7.666667938232422 A4,4 90 0 1 -170,3.666667938232422 L-170,-0.3333320617675781 L-170,-21.333332061767578 L-170,-22.333332061767578 L-176,-22.333332061767578 L-176,-19.333332061767578 L-178,-19.333332061767578 L-178,-27.333332061767578 L-176,-27.333332061767578 L-176,-24.333332061767578 L-170,-24.333332061767578 L-170,-25.333332061767578 z"/><text style="font-size:9px;fill:#282828;font-family:sans-serif;text-anchor:end" id="svg_91" x="-178.5" y="-33.833"><tspan id="svg_92" x="-124.5" y="-10.833">➗</tspan></text></g></g><g id="svg_97"><g id="svg_98" transform="translate(880, 114) scale(1.5)"><path style="fill:#ff5293;fill-opacity:1;stroke:#ff2c76;stroke-width:1;stroke-linecap:round;stroke-opacity:1" id="svg_99" d="m-170,-33.33333206176758 L-110,-33.33333206176758 L-110,-13.333332061767578 L-170,-13.333332061767578 L-170,-21.333332061767578 L-170,-22.333332061767578 L-176,-22.333332061767578 L-176,-19.333332061767578 L-178,-19.333332061767578 L-178,-27.333332061767578 L-176,-27.333332061767578 L-176,-24.333332061767578 L-170,-24.333332061767578 L-170,-25.333332061767578 z"/><text style="font-size:10px;fill:#282828;font-family:sans-serif;text-anchor:start" id="svg_100" x="-178.5" y="-33.833"><tspan id="svg_101" x="-165.5" y="-19.833">1</tspan></text></g></g><g id="svg_102"><g id="svg_103" transform="translate(880, 146) scale(1.5)"><path style="fill:#ff5293;fill-opacity:1;stroke:#ff2c76;stroke-width:1;stroke-linecap:round;stroke-opacity:1" id="svg_104" d="m-170,-33.33333206176758 L-110,-33.33333206176758 L-110,-13.333332061767578 L-170,-13.333332061767578 L-170,-21.333332061767578 L-170,-22.333332061767578 L-176,-22.333332061767578 L-176,-19.333332061767578 L-178,-19.333332061767578 L-178,-27.333332061767578 L-176,-27.333332061767578 L-176,-24.333332061767578 L-170,-24.333332061767578 L-170,-25.333332061767578 z"/><text style="font-size:10px;fill:#282828;font-family:sans-serif;text-anchor:start" id="svg_105" x="-178.5" y="-33.833"><tspan id="svg_106" x="-165.5" y="-19.833">4</tspan></text></g></g><g id="svg_107"><g id="svg_108" transform="translate(676, 146) scale(1.5)"><path style="fill:#b0b0b0;fill-opacity:1;stroke:#a0a0a0;stroke-width:1;stroke-linecap:round;stroke-opacity:1" id="svg_109" d="m-178,-25.333332061767578 L-178,-29.333332061767578 A4,4 90 0 1 -174,-33.33333206176758 L-170,-33.33333206176758 L-170,-31.333332061767578 L-160,-31.333332061767578 L-160,-33.33333206176758 L-140,-33.33333206176758 L-136,-33.33333206176758 A4,4 90 0 1 -132,-29.333332061767578 L-132,-25.333332061767578 L-132,-21.333332061767578 L-132,-17.333332061767578 A4,4 90 0 1 -136,-13.333332061767578 L-140,-13.333332061767578 L-160,-13.333332061767578 L-161,-13.333332061767578 L-161,-11.333332061767578 L-169,-11.333332061767578 L-169,-13.333332061767578 L-170,-13.333332061767578 L-174,-13.333332061767578 A4,4 90 0 1 -178,-17.333332061767578 L-178,-21.333332061767578 z"/><text style="font-size:10px;fill:#282828;font-family:sans-serif;text-anchor:end" id="svg_110" x="-178.5" y="-33.833"><tspan id="svg_111" x="-142.5" y="-19.833">↓</tspan></text></g></g><g id="svg_112"><g id="svg_113" transform="translate(676, 178) scale(1.5)"><path style="fill:#77c428;fill-opacity:1;stroke:#57ad02;stroke-width:1;stroke-linecap:round;stroke-opacity:1" id="svg_114" d="m-178,-25.333332061767578 L-178,-29.333332061767578 A4,4 90 0 1 -174,-33.33333206176758 L-170,-33.33333206176758 L-170,-31.333332061767578 L-160,-31.333332061767578 L-160,-33.33333206176758 L-130,-33.33333206176758 L-126,-33.33333206176758 A4,4 90 0 1 -122,-29.333332061767578 L-122,-25.333332061767578 L-126,-25.333332061767578 L-126,-28.333332061767578 L-130,-28.333332061767578 L-130,-18.333332061767578 L-126,-18.333332061767578 L-126,-21.333332061767578 L-122,-21.333332061767578 L-122,-4.333332061767578 L-126,-4.333332061767578 L-126,-7.333332061767578 L-130,-7.333332061767578 L-130,2.666667938232422 L-126,2.666667938232422 L-126,-0.3333320617675781 L-122,-0.3333320617675781 L-122,3.666667938232422 A4,4 90 0 1 -126,7.666667938232422 L-130,7.666667938232422 L-160,7.666667938232422 L-161,7.666667938232422 L-161,9.666667938232422 L-169,9.666667938232422 L-169,7.666667938232422 L-170,7.666667938232422 L-174,7.666667938232422 A4,4 90 0 1 -178,3.666667938232422 L-178,-0.3333320617675781 L-178,-21.333332061767578 L-178,-25.333332061767578 z"/><text style="font-size:10px;fill:#282828;font-family:sans-serif;text-anchor:end" id="svg_115" x="-178.5" y="-33.833"><tspan id="svg_116" x="-132.5" y="-9.833">pitch</tspan></text><text style="font-size:6.666666666666667px;fill:#282828;font-family:sans-serif;text-anchor:end" id="svg_117" x="-178.5" y="-33.833"><tspan id="svg_118" x="-132.5" y="-21.833">name</tspan></text><text style="font-size:6.666666666666667px;fill:#282828;font-family:sans-serif;text-anchor:end" id="svg_119" x="-178.5" y="-33.833"><tspan id="svg_120" x="-132.5" y="-.833">octave</tspan></text></g></g><g id="svg_121"><g id="svg_122" transform="translate(750, 178) scale(1.5)"><path style="fill:#77c428;fill-opacity:1;stroke:#57ad02;stroke-width:1;stroke-linecap:round;stroke-opacity:1" id="svg_123" d="m-170,-33.33333206176758 L-110,-33.33333206176758 L-110,-13.333332061767578 L-170,-13.333332061767578 L-170,-21.333332061767578 L-170,-22.333332061767578 L-176,-22.333332061767578 L-176,-19.333332061767578 L-178,-19.333332061767578 L-178,-27.333332061767578 L-176,-27.333332061767578 L-176,-24.333332061767578 L-170,-24.333332061767578 L-170,-25.333332061767578 z"/><text style="font-size:10px;fill:#282828;font-family:sans-serif;text-anchor:start" id="svg_124" x="-178.5" y="-33.833"><tspan id="svg_125" x="-165.5" y="-19.833">sol</tspan></text></g></g><g id="svg_126"><g id="svg_127" transform="translate(750, 210) scale(1.5)"><path style="fill:#ff5293;fill-opacity:1;stroke:#ff2c76;stroke-width:1;stroke-linecap:round;stroke-opacity:1" id="svg_128" d="m-170,-33.33333206176758 L-110,-33.33333206176758 L-110,-13.333332061767578 L-170,-13.333332061767578 L-170,-21.333332061767578 L-170,-22.333332061767578 L-176,-22.333332061767578 L-176,-19.333332061767578 L-178,-19.333332061767578 L-178,-27.333332061767578 L-176,-27.333332061767578 L-176,-24.333332061767578 L-170,-24.333332061767578 L-170,-25.333332061767578 z"/><text style="font-size:10px;fill:#282828;font-family:sans-serif;text-anchor:start" id="svg_129" x="-178.5" y="-33.833"><tspan id="svg_130" x="-165.5" y="-19.833">4</tspan></text></g></g><g id="svg_131"><g id="svg_132"><g id="svg_133" transform="translate(662, 430) scale(1.5)"><path style="fill:#ff8b2d;fill-opacity:1;stroke:#e86b0e;stroke-width:1;stroke-linecap:round;stroke-opacity:1" id="svg_134" d="m-178,-25.333332061767578 L-178,-29.333332061767578 A4,4 90 0 1 -174,-33.33333206176758 L-170,-33.33333206176758 L-170,-31.333332061767578 L-160,-31.333332061767578 L-160,-33.33333206176758 L-151,-33.33333206176758 L-91,-33.33333206176758 L-87,-33.33333206176758 A4,4 90 0 1 -83,-29.333332061767578 L-83,-25.333332061767578 L-87,-25.333332061767578 L-87,-28.333332061767578 L-91,-28.333332061767578 L-91,-18.333332061767578 L-87,-18.333332061767578 L-87,-21.333332061767578 L-83,-21.333332061767578 L-83,-17.333332061767578 A4,4 90 0 1 -87,-13.333332061767578 L-91,-13.333332061767578 L-151,-13.333332061767578 L-152,-13.333332061767578 L-152,-11.333332061767578 L-160,-11.333332061767578 L-160,-13.333332061767578 L-161,-13.333332061767578 L-165,-13.333332061767578 A5,5 90 0 0 -170,-8.333332061767578 L-170,-4.333332061767578 L-170,-0.3333320617675781 L-170,41.66666793823242 L-170,45.66666793823242 A5,5 90 0 0 -165,50.66666793823242 L-161,50.66666793823242 L-161,52.66666793823242 L-151,52.66666793823242 L-151,50.66666793823242 L-143,50.66666793823242 L-143,56.66666793823242 L-143,62.66666793823242 L-143,66.66666793823242 A4,4 90 0 1 -147,70.66666793823242 L-151,70.66666793823242 L-160,70.66666793823242 L-161,70.66666793823242 L-161,72.66666793823242 L-169,72.66666793823242 L-169,70.66666793823242 L-170,70.66666793823242 L-174,70.66666793823242 A4,4 90 0 1 -178,66.66666793823242 L-178,62.66666793823242 z"/><text style="font-size:10px;fill:#282828;font-family:sans-serif;text-anchor:start" id="svg_135" x="-178.5" y="-33.833"><tspan id="svg_136" x="-158.5" y="-18.833">note</tspan></text><text style="font-size:6.666666666666667px;fill:#282828;font-family:sans-serif;text-anchor:end" id="svg_137" x="-178.5" y="-33.833"><tspan id="svg_138" x="-93.5" y="-21.833">value</tspan></text></g></g><g id="svg_139" transform="translate(662, 434) scale(0.5)"><g style="isolation:isolate" id="svg_140"><g id="レイヤー_2" data-name="レイヤー 2"><g id="Icon"><rect style="fill:#292929;opacity:.4;mix-blend-mode:multiply" id="svg_141" width="42" height="42" x="-535.5" y="-101.5" rx="5" ry="5"/><path style="fill:#fff" id="svg_142" d="M-504.9400005340576,-71.70000076293945 l-4.170000076293945,-4.159999847412109 h2.259999990463257 a1,1 0 1 0 0,-2.069999933242798 H-511.5599994659424 a1.0800000429153442,1.0800000429153442 0 0 0 -1.1100000143051147,1 v0 s0,0 0,0.05999999865889549 v4.639999866485596 h0 a1,1 0 1 0 2.0799999237060547,0 V-74.42000007629395 l4.190000057220459,4.190000057220459 a1,1 0 0 0 1.4600000381469727,0 A1,1 0 0 0 -504.9400005340576,-71.70000076293945 z"/><path style="fill:#fff" id="svg_143" d="M-516.329999923706,-76.89999961853027 a1.0800000429153442,1.0800000429153442 0 0 0 -1.1100000143051147,-1 H-522.1499996185303 a1,1 0 1 0 0,2.069999933242798 H-519.8999996185303 L-524.0600004196167,-71.70000076293945 a1,1 0 0 0 1.4700000286102295,1.4700000286102295 l4.179999828338623,-4.190000057220459 v2.259999990463257 a1,1 0 1 0 2.0799999237060547,0 V-76.79999923706055 s0,0 0,-0.05999999865889549 A0.07999999821186066,0.07999999821186066 0 0 1 -516.329999923706,-76.89999961853027 z"/><path style="fill:#fff" id="svg_144" d="M-511.5599994659424,-81 h4.699999809265137 a1,1 0 1 0 0,-2.0799999237060547 H-509.11000061035156 l4.170000076293945,-4.159999847412109 a1,1 0 0 0 0,-1.4700000286102295 a1,1 0 0 0 -1.4600000381469727,0 L-510.5900001525879,-84.5 V-86.77999973297119 a1,1 0 1 0 -2.0799999237060547,0 v4.639999866485596 a0.4300000071525574,0.4300000071525574 0 0 0 0,0.05000000074505806 v0.05000000074505806 A1.090000033378601,1.090000033378601 0 0 0 -511.5599994659424,-81 z"/><path style="fill:#fff" id="svg_145" d="M-517.3700008392334,-87.88000011444092 a1.0800000429153442,1.0800000429153442 0 0 0 -1,1.090000033378601 V-84.5 l-4.179999828338623,-4.190000057220459 a1,1 0 0 0 -1.4700000286102295,0 a1,1 0 0 0 0,1.4600000381469727 l4.159999847412109,4.170000076293945 H-522.1499996185303 a1,1 0 1 0 0,2.0799999237060547 h4.710000038146973 a1.090000033378601,1.090000033378601 0 0 0 1.1100000143051147,-1 a0.07999999821186066,0.07999999821186066 0 0 1 0,0 s0,0 0,-0.05999999865889549 V-86.78999996185303 A1.0700000524520874,1.0700000524520874 0 0 0 -517.3700008392334,-87.88000011444092 z"/></g></g></g></g></g><g id="svg_146"><g id="svg_147" transform="translate(794, 430) scale(1.5)"><path style="fill:#ff5293;fill-opacity:1;stroke:#ff2c76;stroke-width:1;stroke-linecap:round;stroke-opacity:1" id="svg_148" d="m-170,-25.333332061767578 L-170,-29.333332061767578 A4,4 90 0 1 -166,-33.33333206176758 L-162,-33.33333206176758 L-152,-33.33333206176758 L-122,-33.33333206176758 L-118,-33.33333206176758 A4,4 90 0 1 -114,-29.333332061767578 L-114,-25.333332061767578 L-118,-25.333332061767578 L-118,-28.333332061767578 L-122,-28.333332061767578 L-122,-18.333332061767578 L-118,-18.333332061767578 L-118,-21.333332061767578 L-114,-21.333332061767578 L-114,-4.333332061767578 L-118,-4.333332061767578 L-118,-7.333332061767578 L-122,-7.333332061767578 L-122,2.666667938232422 L-118,2.666667938232422 L-118,-0.3333320617675781 L-114,-0.3333320617675781 L-114,3.666667938232422 A4,4 90 0 1 -118,7.666667938232422 L-122,7.666667938232422 L-152,7.666667938232422 L-162,7.666667938232422 L-166,7.666667938232422 A4,4 90 0 1 -170,3.666667938232422 L-170,-0.3333320617675781 L-170,-21.333332061767578 L-170,-22.333332061767578 L-176,-22.333332061767578 L-176,-19.333332061767578 L-178,-19.333332061767578 L-178,-27.333332061767578 L-176,-27.333332061767578 L-176,-24.333332061767578 L-170,-24.333332061767578 L-170,-25.333332061767578 z"/><text style="font-size:9px;fill:#282828;font-family:sans-serif;text-anchor:end" id="svg_149" x="-178.5" y="-33.833"><tspan id="svg_150" x="-124.5" y="-10.833">➗</tspan></text></g></g><g id="svg_155"><g id="svg_156" transform="translate(880, 430) scale(1.5)"><path style="fill:#ff5293;fill-opacity:1;stroke:#ff2c76;stroke-width:1;stroke-linecap:round;stroke-opacity:1" id="svg_157" d="m-170,-33.33333206176758 L-110,-33.33333206176758 L-110,-13.333332061767578 L-170,-13.333332061767578 L-170,-21.333332061767578 L-170,-22.333332061767578 L-176,-22.333332061767578 L-176,-19.333332061767578 L-178,-19.333332061767578 L-178,-27.333332061767578 L-176,-27.333332061767578 L-176,-24.333332061767578 L-170,-24.333332061767578 L-170,-25.333332061767578 z"/><text style="font-size:10px;fill:#282828;font-family:sans-serif;text-anchor:start" id="svg_158" x="-178.5" y="-33.833"><tspan id="svg_159" x="-165.5" y="-19.833">1</tspan></text></g></g><g id="svg_160"><g id="svg_161" transform="translate(880, 462) scale(1.5)"><path style="fill:#ff5293;fill-opacity:1;stroke:#ff2c76;stroke-width:1;stroke-linecap:round;stroke-opacity:1" id="svg_162" d="m-170,-33.33333206176758 L-110,-33.33333206176758 L-110,-13.333332061767578 L-170,-13.333332061767578 L-170,-21.333332061767578 L-170,-22.333332061767578 L-176,-22.333332061767578 L-176,-19.333332061767578 L-178,-19.333332061767578 L-178,-27.333332061767578 L-176,-27.333332061767578 L-176,-24.333332061767578 L-170,-24.333332061767578 L-170,-25.333332061767578 z"/><text style="font-size:10px;fill:#282828;font-family:sans-serif;text-anchor:start" id="svg_163" x="-178.5" y="-33.833"><tspan id="svg_164" x="-165.5" y="-19.833">4</tspan></text></g></g><g id="svg_165"><g id="svg_166" transform="translate(676, 462) scale(1.5)"><path style="fill:#b0b0b0;fill-opacity:1;stroke:#a0a0a0;stroke-width:1;stroke-linecap:round;stroke-opacity:1" id="svg_167" d="m-178,-25.333332061767578 L-178,-29.333332061767578 A4,4 90 0 1 -174,-33.33333206176758 L-170,-33.33333206176758 L-170,-31.333332061767578 L-160,-31.333332061767578 L-160,-33.33333206176758 L-140,-33.33333206176758 L-136,-33.33333206176758 A4,4 90 0 1 -132,-29.333332061767578 L-132,-25.333332061767578 L-132,-21.333332061767578 L-132,-17.333332061767578 A4,4 90 0 1 -136,-13.333332061767578 L-140,-13.333332061767578 L-160,-13.333332061767578 L-161,-13.333332061767578 L-161,-11.333332061767578 L-169,-11.333332061767578 L-169,-13.333332061767578 L-170,-13.333332061767578 L-174,-13.333332061767578 A4,4 90 0 1 -178,-17.333332061767578 L-178,-21.333332061767578 z"/><text style="font-size:10px;fill:#282828;font-family:sans-serif;text-anchor:end" id="svg_168" x="-178.5" y="-33.833"><tspan id="svg_169" x="-142.5" y="-19.833">↓</tspan></text></g></g><g id="svg_170"><g id="svg_171" transform="translate(676, 494) scale(1.5)"><path style="fill:#77c428;fill-opacity:1;stroke:#57ad02;stroke-width:1;stroke-linecap:round;stroke-opacity:1" id="svg_172" d="m-178,-25.333332061767578 L-178,-29.333332061767578 A4,4 90 0 1 -174,-33.33333206176758 L-170,-33.33333206176758 L-170,-31.333332061767578 L-160,-31.333332061767578 L-160,-33.33333206176758 L-130,-33.33333206176758 L-126,-33.33333206176758 A4,4 90 0 1 -122,-29.333332061767578 L-122,-25.333332061767578 L-126,-25.333332061767578 L-126,-28.333332061767578 L-130,-28.333332061767578 L-130,-18.333332061767578 L-126,-18.333332061767578 L-126,-21.333332061767578 L-122,-21.333332061767578 L-122,-4.333332061767578 L-126,-4.333332061767578 L-126,-7.333332061767578 L-130,-7.333332061767578 L-130,2.666667938232422 L-126,2.666667938232422 L-126,-0.3333320617675781 L-122,-0.3333320617675781 L-122,3.666667938232422 A4,4 90 0 1 -126,7.666667938232422 L-130,7.666667938232422 L-160,7.666667938232422 L-161,7.666667938232422 L-161,9.666667938232422 L-169,9.666667938232422 L-169,7.666667938232422 L-170,7.666667938232422 L-174,7.666667938232422 A4,4 90 0 1 -178,3.666667938232422 L-178,-0.3333320617675781 L-178,-21.333332061767578 L-178,-25.333332061767578 z"/><text style="font-size:10px;fill:#282828;font-family:sans-serif;text-anchor:end" id="svg_173" x="-178.5" y="-33.833"><tspan id="svg_174" x="-132.5" y="-9.833">pitch</tspan></text><text style="font-size:6.666666666666667px;fill:#282828;font-family:sans-serif;text-anchor:end" id="svg_175" x="-178.5" y="-33.833"><tspan id="svg_176" x="-132.5" y="-21.833">name</tspan></text><text style="font-size:6.666666666666667px;fill:#282828;font-family:sans-serif;text-anchor:end" id="svg_177" x="-178.5" y="-33.833"><tspan id="svg_178" x="-132.5" y="-.833">octave</tspan></text></g></g><g id="svg_179"><g id="svg_180" transform="translate(750, 494) scale(1.5)"><path style="fill:#77c428;fill-opacity:1;stroke:#57ad02;stroke-width:1;stroke-linecap:round;stroke-opacity:1" id="svg_181" d="m-170,-33.33333206176758 L-110,-33.33333206176758 L-110,-13.333332061767578 L-170,-13.333332061767578 L-170,-21.333332061767578 L-170,-22.333332061767578 L-176,-22.333332061767578 L-176,-19.333332061767578 L-178,-19.333332061767578 L-178,-27.333332061767578 L-176,-27.333332061767578 L-176,-24.333332061767578 L-170,-24.333332061767578 L-170,-25.333332061767578 z"/><text style="font-size:10px;fill:#282828;font-family:sans-serif;text-anchor:start" id="svg_182" x="-178.5" y="-33.833"><tspan id="svg_183" x="-165.5" y="-19.833">sol</tspan></text></g></g><g id="svg_184"><g id="svg_185" transform="translate(750, 526) scale(1.5)"><path style="fill:#ff5293;fill-opacity:1;stroke:#ff2c76;stroke-width:1;stroke-linecap:round;stroke-opacity:1" id="svg_186" d="m-170,-33.33333206176758 L-110,-33.33333206176758 L-110,-13.333332061767578 L-170,-13.333332061767578 L-170,-21.333332061767578 L-170,-22.333332061767578 L-176,-22.333332061767578 L-176,-19.333332061767578 L-178,-19.333332061767578 L-178,-27.333332061767578 L-176,-27.333332061767578 L-176,-24.333332061767578 L-170,-24.333332061767578 L-170,-25.333332061767578 z"/><text style="font-size:10px;fill:#282828;font-family:sans-serif;text-anchor:start" id="svg_187" x="-178.5" y="-33.833"><tspan id="svg_188" x="-165.5" y="-19.833">4</tspan></text></g></g><g id="svg_189"><g id="svg_190" transform="translate(267, 54) scale(1.5)"><path style="fill:#25c3c0;fill-opacity:1;stroke:#1dbcbd;stroke-width:1;stroke-linecap:round;stroke-opacity:1" id="svg_191" d="m-178,-25.333332061767578 L-178,-29.333332061767578 A4,4 90 0 1 -174,-33.33333206176758 L-170,-33.33333206176758 L-170,-31.333332061767578 L-160,-31.333332061767578 L-160,-33.33333206176758 L-151,-33.33333206176758 L-123,-33.33333206176758 L-119,-33.33333206176758 A4,4 90 0 1 -115,-29.333332061767578 L-115,-25.333332061767578 L-119,-25.333332061767578 L-119,-28.333332061767578 L-123,-28.333332061767578 L-123,-18.333332061767578 L-119,-18.333332061767578 L-119,-21.333332061767578 L-115,-21.333332061767578 L-115,-17.333332061767578 A4,4 90 0 1 -119,-13.333332061767578 L-123,-13.333332061767578 L-151,-13.333332061767578 L-152,-13.333332061767578 L-152,-11.333332061767578 L-160,-11.333332061767578 L-160,-13.333332061767578 L-161,-13.333332061767578 L-165,-13.333332061767578 A5,5 90 0 0 -170,-8.333332061767578 L-170,-4.333332061767578 L-170,-0.3333320617675781 L-170,314.6666679382324 L-170,318.6666679382324 A5,5 90 0 0 -165,323.6666679382324 L-161,323.6666679382324 L-161,325.6666679382324 L-151,325.6666679382324 L-151,323.6666679382324 L-143,323.6666679382324 L-143,329.6666679382324 L-143,335.6666679382324 L-143,339.6666679382324 A4,4 90 0 1 -147,343.6666679382324 L-151,343.6666679382324 L-160,343.6666679382324 L-161,343.6666679382324 L-161,345.6666679382324 L-169,345.6666679382324 L-169,343.6666679382324 L-170,343.6666679382324 L-174,343.6666679382324 A4,4 90 0 1 -178,339.6666679382324 L-178,335.6666679382324 z"/><text style="font-size:10px;fill:#282828;font-family:sans-serif;text-anchor:start" id="svg_192" x="-178.5" y="-33.833"><tspan id="svg_193" x="-173.5" y="-18.833">staccato</tspan></text></g></g><g id="svg_196"><g id="svg_197" transform="translate(351, 54) scale(1.5)"><path style="fill:#ff5293;fill-opacity:1;stroke:#ff2c76;stroke-width:1;stroke-linecap:round;stroke-opacity:1" id="svg_198" d="m-170,-25.333332061767578 L-170,-29.333332061767578 A4,4 90 0 1 -166,-33.33333206176758 L-162,-33.33333206176758 L-152,-33.33333206176758 L-122,-33.33333206176758 L-118,-33.33333206176758 A4,4 90 0 1 -114,-29.333332061767578 L-114,-25.333332061767578 L-118,-25.333332061767578 L-118,-28.333332061767578 L-122,-28.333332061767578 L-122,-18.333332061767578 L-118,-18.333332061767578 L-118,-21.333332061767578 L-114,-21.333332061767578 L-114,-4.333332061767578 L-118,-4.333332061767578 L-118,-7.333332061767578 L-122,-7.333332061767578 L-122,2.666667938232422 L-118,2.666667938232422 L-118,-0.3333320617675781 L-114,-0.3333320617675781 L-114,3.666667938232422 A4,4 90 0 1 -118,7.666667938232422 L-122,7.666667938232422 L-152,7.666667938232422 L-162,7.666667938232422 L-166,7.666667938232422 A4,4 90 0 1 -170,3.666667938232422 L-170,-0.3333320617675781 L-170,-21.333332061767578 L-170,-22.333332061767578 L-176,-22.333332061767578 L-176,-19.333332061767578 L-178,-19.333332061767578 L-178,-27.333332061767578 L-176,-27.333332061767578 L-176,-24.333332061767578 L-170,-24.333332061767578 L-170,-25.333332061767578 z"/><text style="font-size:9px;fill:#282828;font-family:sans-serif;text-anchor:end" id="svg_199" x="-178.5" y="-33.833"><tspan id="svg_200" x="-124.5" y="-10.833">➗</tspan></text></g></g><g id="svg_205"><g id="svg_206" transform="translate(437, 54) scale(1.5)"><path style="fill:#ff5293;fill-opacity:1;stroke:#ff2c76;stroke-width:1;stroke-linecap:round;stroke-opacity:1" id="svg_207" d="m-170,-33.33333206176758 L-110,-33.33333206176758 L-110,-13.333332061767578 L-170,-13.333332061767578 L-170,-21.333332061767578 L-170,-22.333332061767578 L-176,-22.333332061767578 L-176,-19.333332061767578 L-178,-19.333332061767578 L-178,-27.333332061767578 L-176,-27.333332061767578 L-176,-24.333332061767578 L-170,-24.333332061767578 L-170,-25.333332061767578 z"/><text style="font-size:10px;fill:#282828;font-family:sans-serif;text-anchor:start" id="svg_208" x="-178.5" y="-33.833"><tspan id="svg_209" x="-165.5" y="-19.833">1</tspan></text></g></g><g id="svg_210"><g id="svg_211" transform="translate(437, 86) scale(1.5)"><path style="fill:#ff5293;fill-opacity:1;stroke:#ff2c76;stroke-width:1;stroke-linecap:round;stroke-opacity:1" id="svg_212" d="m-170,-33.33333206176758 L-110,-33.33333206176758 L-110,-13.333332061767578 L-170,-13.333332061767578 L-170,-21.333332061767578 L-170,-22.333332061767578 L-176,-22.333332061767578 L-176,-19.333332061767578 L-178,-19.333332061767578 L-178,-27.333332061767578 L-176,-27.333332061767578 L-176,-24.333332061767578 L-170,-24.333332061767578 L-170,-25.333332061767578 z"/><text style="font-size:10px;fill:#282828;font-family:sans-serif;text-anchor:start" id="svg_213" x="-178.5" y="-33.833"><tspan id="svg_214" x="-165.5" y="-19.833">32</tspan></text></g></g><g id="svg_215"><g id="svg_216" transform="translate(281, 86) scale(1.5)"><path style="fill:#b0b0b0;fill-opacity:1;stroke:#a0a0a0;stroke-width:1;stroke-linecap:round;stroke-opacity:1" id="svg_217" d="m-178,-25.333332061767578 L-178,-29.333332061767578 A4,4 90 0 1 -174,-33.33333206176758 L-170,-33.33333206176758 L-170,-31.333332061767578 L-160,-31.333332061767578 L-160,-33.33333206176758 L-140,-33.33333206176758 L-136,-33.33333206176758 A4,4 90 0 1 -132,-29.333332061767578 L-132,-25.333332061767578 L-132,-21.333332061767578 L-132,-17.333332061767578 A4,4 90 0 1 -136,-13.333332061767578 L-140,-13.333332061767578 L-160,-13.333332061767578 L-161,-13.333332061767578 L-161,-11.333332061767578 L-169,-11.333332061767578 L-169,-13.333332061767578 L-170,-13.333332061767578 L-174,-13.333332061767578 A4,4 90 0 1 -178,-17.333332061767578 L-178,-21.333332061767578 z"/><text style="font-size:10px;fill:#282828;font-family:sans-serif;text-anchor:end" id="svg_218" x="-178.5" y="-33.833"><tspan id="svg_219" x="-142.5" y="-19.833">↓</tspan></text></g></g><g id="svg_220"><g id="svg_221"><g id="svg_222" transform="translate(281, 118) scale(1.5)"><path style="fill:#ff8b2d;fill-opacity:1;stroke:#e86b0e;stroke-width:1;stroke-linecap:round;stroke-opacity:1" id="svg_223" d="m-178,-25.333332061767578 L-178,-29.333332061767578 A4,4 90 0 1 -174,-33.33333206176758 L-170,-33.33333206176758 L-170,-31.333332061767578 L-160,-31.333332061767578 L-160,-33.33333206176758 L-151,-33.33333206176758 L-91,-33.33333206176758 L-87,-33.33333206176758 A4,4 90 0 1 -83,-29.333332061767578 L-83,-25.333332061767578 L-87,-25.333332061767578 L-87,-28.333332061767578 L-91,-28.333332061767578 L-91,-18.333332061767578 L-87,-18.333332061767578 L-87,-21.333332061767578 L-83,-21.333332061767578 L-83,-17.333332061767578 A4,4 90 0 1 -87,-13.333332061767578 L-91,-13.333332061767578 L-151,-13.333332061767578 L-152,-13.333332061767578 L-152,-11.333332061767578 L-160,-11.333332061767578 L-160,-13.333332061767578 L-161,-13.333332061767578 L-165,-13.333332061767578 A5,5 90 0 0 -170,-8.333332061767578 L-170,-4.333332061767578 L-170,-0.3333320617675781 L-170,41.66666793823242 L-170,45.66666793823242 A5,5 90 0 0 -165,50.66666793823242 L-161,50.66666793823242 L-161,52.66666793823242 L-151,52.66666793823242 L-151,50.66666793823242 L-143,50.66666793823242 L-143,56.66666793823242 L-143,62.66666793823242 L-143,66.66666793823242 A4,4 90 0 1 -147,70.66666793823242 L-151,70.66666793823242 L-160,70.66666793823242 L-161,70.66666793823242 L-161,72.66666793823242 L-169,72.66666793823242 L-169,70.66666793823242 L-170,70.66666793823242 L-174,70.66666793823242 A4,4 90 0 1 -178,66.66666793823242 L-178,62.66666793823242 z"/><text style="font-size:10px;fill:#282828;font-family:sans-serif;text-anchor:start" id="svg_224" x="-178.5" y="-33.833"><tspan id="svg_225" x="-158.5" y="-18.833">note</tspan></text><text style="font-size:6.666666666666667px;fill:#282828;font-family:sans-serif;text-anchor:end" id="svg_226" x="-178.5" y="-33.833"><tspan id="svg_227" x="-93.5" y="-21.833">value</tspan></text></g></g><g id="svg_228" transform="translate(281, 122) scale(0.5)"><g style="isolation:isolate" id="svg_229"><g id="レイヤー_2" data-name="レイヤー 2"><g id="Icon"><rect style="fill:#292929;opacity:.4;mix-blend-mode:multiply" id="svg_230" width="42" height="42" x="-535.5" y="-101.5" rx="5" ry="5"/><path style="fill:#fff" id="svg_231" d="M-504.9400005340576,-71.70000076293945 l-4.170000076293945,-4.159999847412109 h2.259999990463257 a1,1 0 1 0 0,-2.069999933242798 H-511.5599994659424 a1.0800000429153442,1.0800000429153442 0 0 0 -1.1100000143051147,1 v0 s0,0 0,0.05999999865889549 v4.639999866485596 h0 a1,1 0 1 0 2.0799999237060547,0 V-74.42000007629395 l4.190000057220459,4.190000057220459 a1,1 0 0 0 1.4600000381469727,0 A1,1 0 0 0 -504.9400005340576,-71.70000076293945 z"/><path style="fill:#fff" id="svg_232" d="M-516.329999923706,-76.89999961853027 a1.0800000429153442,1.0800000429153442 0 0 0 -1.1100000143051147,-1 H-522.1499996185303 a1,1 0 1 0 0,2.069999933242798 H-519.8999996185303 L-524.0600004196167,-71.70000076293945 a1,1 0 0 0 1.4700000286102295,1.4700000286102295 l4.179999828338623,-4.190000057220459 v2.259999990463257 a1,1 0 1 0 2.0799999237060547,0 V-76.79999923706055 s0,0 0,-0.05999999865889549 A0.07999999821186066,0.07999999821186066 0 0 1 -516.329999923706,-76.89999961853027 z"/><path style="fill:#fff" id="svg_233" d="M-511.5599994659424,-81 h4.699999809265137 a1,1 0 1 0 0,-2.0799999237060547 H-509.11000061035156 l4.170000076293945,-4.159999847412109 a1,1 0 0 0 0,-1.4700000286102295 a1,1 0 0 0 -1.4600000381469727,0 L-510.5900001525879,-84.5 V-86.77999973297119 a1,1 0 1 0 -2.0799999237060547,0 v4.639999866485596 a0.4300000071525574,0.4300000071525574 0 0 0 0,0.05000000074505806 v0.05000000074505806 A1.090000033378601,1.090000033378601 0 0 0 -511.5599994659424,-81 z"/><path style="fill:#fff" id="svg_234" d="M-517.3700008392334,-87.88000011444092 a1.0800000429153442,1.0800000429153442 0 0 0 -1,1.090000033378601 V-84.5 l-4.179999828338623,-4.190000057220459 a1,1 0 0 0 -1.4700000286102295,0 a1,1 0 0 0 0,1.4600000381469727 l4.159999847412109,4.170000076293945 H-522.1499996185303 a1,1 0 1 0 0,2.0799999237060547 h4.710000038146973 a1.090000033378601,1.090000033378601 0 0 0 1.1100000143051147,-1 a0.07999999821186066,0.07999999821186066 0 0 1 0,0 s0,0 0,-0.05999999865889549 V-86.78999996185303 A1.0700000524520874,1.0700000524520874 0 0 0 -517.3700008392334,-87.88000011444092 z"/></g></g></g></g></g><g id="svg_235"><g id="svg_236" transform="translate(413, 118) scale(1.5)"><path style="fill:#ff5293;fill-opacity:1;stroke:#ff2c76;stroke-width:1;stroke-linecap:round;stroke-opacity:1" id="svg_237" d="m-170,-25.333332061767578 L-170,-29.333332061767578 A4,4 90 0 1 -166,-33.33333206176758 L-162,-33.33333206176758 L-152,-33.33333206176758 L-122,-33.33333206176758 L-118,-33.33333206176758 A4,4 90 0 1 -114,-29.333332061767578 L-114,-25.333332061767578 L-118,-25.333332061767578 L-118,-28.333332061767578 L-122,-28.333332061767578 L-122,-18.333332061767578 L-118,-18.333332061767578 L-118,-21.333332061767578 L-114,-21.333332061767578 L-114,-4.333332061767578 L-118,-4.333332061767578 L-118,-7.333332061767578 L-122,-7.333332061767578 L-122,2.666667938232422 L-118,2.666667938232422 L-118,-0.3333320617675781 L-114,-0.3333320617675781 L-114,3.666667938232422 A4,4 90 0 1 -118,7.666667938232422 L-122,7.666667938232422 L-152,7.666667938232422 L-162,7.666667938232422 L-166,7.666667938232422 A4,4 90 0 1 -170,3.666667938232422 L-170,-0.3333320617675781 L-170,-21.333332061767578 L-170,-22.333332061767578 L-176,-22.333332061767578 L-176,-19.333332061767578 L-178,-19.333332061767578 L-178,-27.333332061767578 L-176,-27.333332061767578 L-176,-24.333332061767578 L-170,-24.333332061767578 L-170,-25.333332061767578 z"/><text style="font-size:9px;fill:#282828;font-family:sans-serif;text-anchor:end" id="svg_238" x="-178.5" y="-33.833"><tspan id="svg_239" x="-124.5" y="-10.833">➗</tspan></text></g></g><g id="svg_244"><g id="svg_245" transform="translate(499, 118) scale(1.5)"><path style="fill:#ff5293;fill-opacity:1;stroke:#ff2c76;stroke-width:1;stroke-linecap:round;stroke-opacity:1" id="svg_246" d="m-170,-33.33333206176758 L-110,-33.33333206176758 L-110,-13.333332061767578 L-170,-13.333332061767578 L-170,-21.333332061767578 L-170,-22.333332061767578 L-176,-22.333332061767578 L-176,-19.333332061767578 L-178,-19.333332061767578 L-178,-27.333332061767578 L-176,-27.333332061767578 L-176,-24.333332061767578 L-170,-24.333332061767578 L-170,-25.333332061767578 z"/><text style="font-size:10px;fill:#282828;font-family:sans-serif;text-anchor:start" id="svg_247" x="-178.5" y="-33.833"><tspan id="svg_248" x="-165.5" y="-19.833">1</tspan></text></g></g><g id="svg_249"><g id="svg_250" transform="translate(499, 150) scale(1.5)"><path style="fill:#ff5293;fill-opacity:1;stroke:#ff2c76;stroke-width:1;stroke-linecap:round;stroke-opacity:1" id="svg_251" d="m-170,-33.33333206176758 L-110,-33.33333206176758 L-110,-13.333332061767578 L-170,-13.333332061767578 L-170,-21.333332061767578 L-170,-22.333332061767578 L-176,-22.333332061767578 L-176,-19.333332061767578 L-178,-19.333332061767578 L-178,-27.333332061767578 L-176,-27.333332061767578 L-176,-24.333332061767578 L-170,-24.333332061767578 L-170,-25.333332061767578 z"/><text style="font-size:10px;fill:#282828;font-family:sans-serif;text-anchor:start" id="svg_252" x="-178.5" y="-33.833"><tspan id="svg_253" x="-165.5" y="-19.833">4</tspan></text></g></g><g id="svg_254"><g id="svg_255" transform="translate(295, 150) scale(1.5)"><path style="fill:#b0b0b0;fill-opacity:1;stroke:#a0a0a0;stroke-width:1;stroke-linecap:round;stroke-opacity:1" id="svg_256" d="m-178,-25.333332061767578 L-178,-29.333332061767578 A4,4 90 0 1 -174,-33.33333206176758 L-170,-33.33333206176758 L-170,-31.333332061767578 L-160,-31.333332061767578 L-160,-33.33333206176758 L-140,-33.33333206176758 L-136,-33.33333206176758 A4,4 90 0 1 -132,-29.333332061767578 L-132,-25.333332061767578 L-132,-21.333332061767578 L-132,-17.333332061767578 A4,4 90 0 1 -136,-13.333332061767578 L-140,-13.333332061767578 L-160,-13.333332061767578 L-161,-13.333332061767578 L-161,-11.333332061767578 L-169,-11.333332061767578 L-169,-13.333332061767578 L-170,-13.333332061767578 L-174,-13.333332061767578 A4,4 90 0 1 -178,-17.333332061767578 L-178,-21.333332061767578 z"/><text style="font-size:10px;fill:#282828;font-family:sans-serif;text-anchor:end" id="svg_257" x="-178.5" y="-33.833"><tspan id="svg_258" x="-142.5" y="-19.833">↓</tspan></text></g></g><g id="svg_259"><g id="svg_260" transform="translate(295, 182) scale(1.5)"><path style="fill:#77c428;fill-opacity:1;stroke:#57ad02;stroke-width:1;stroke-linecap:round;stroke-opacity:1" id="svg_261" d="m-178,-25.333332061767578 L-178,-29.333332061767578 A4,4 90 0 1 -174,-33.33333206176758 L-170,-33.33333206176758 L-170,-31.333332061767578 L-160,-31.333332061767578 L-160,-33.33333206176758 L-130,-33.33333206176758 L-126,-33.33333206176758 A4,4 90 0 1 -122,-29.333332061767578 L-122,-25.333332061767578 L-126,-25.333332061767578 L-126,-28.333332061767578 L-130,-28.333332061767578 L-130,-18.333332061767578 L-126,-18.333332061767578 L-126,-21.333332061767578 L-122,-21.333332061767578 L-122,-4.333332061767578 L-126,-4.333332061767578 L-126,-7.333332061767578 L-130,-7.333332061767578 L-130,2.666667938232422 L-126,2.666667938232422 L-126,-0.3333320617675781 L-122,-0.3333320617675781 L-122,3.666667938232422 A4,4 90 0 1 -126,7.666667938232422 L-130,7.666667938232422 L-160,7.666667938232422 L-161,7.666667938232422 L-161,9.666667938232422 L-169,9.666667938232422 L-169,7.666667938232422 L-170,7.666667938232422 L-174,7.666667938232422 A4,4 90 0 1 -178,3.666667938232422 L-178,-0.3333320617675781 L-178,-21.333332061767578 L-178,-25.333332061767578 z"/><text style="font-size:10px;fill:#282828;font-family:sans-serif;text-anchor:end" id="svg_262" x="-178.5" y="-33.833"><tspan id="svg_263" x="-132.5" y="-9.833">pitch</tspan></text><text style="font-size:6.666666666666667px;fill:#282828;font-family:sans-serif;text-anchor:end" id="svg_264" x="-178.5" y="-33.833"><tspan id="svg_265" x="-132.5" y="-21.833">name</tspan></text><text style="font-size:6.666666666666667px;fill:#282828;font-family:sans-serif;text-anchor:end" id="svg_266" x="-178.5" y="-33.833"><tspan id="svg_267" x="-132.5" y="-.833">octave</tspan></text></g></g><g id="svg_268"><g id="svg_269" transform="translate(369, 182) scale(1.5)"><path style="fill:#77c428;fill-opacity:1;stroke:#57ad02;stroke-width:1;stroke-linecap:round;stroke-opacity:1" id="svg_270" d="m-170,-33.33333206176758 L-110,-33.33333206176758 L-110,-13.333332061767578 L-170,-13.333332061767578 L-170,-21.333332061767578 L-170,-22.333332061767578 L-176,-22.333332061767578 L-176,-19.333332061767578 L-178,-19.333332061767578 L-178,-27.333332061767578 L-176,-27.333332061767578 L-176,-24.333332061767578 L-170,-24.333332061767578 L-170,-25.333332061767578 z"/><text style="font-size:10px;fill:#282828;font-family:sans-serif;text-anchor:start" id="svg_271" x="-178.5" y="-33.833"><tspan id="svg_272" x="-165.5" y="-19.833">sol</tspan></text></g></g><g id="svg_273"><g id="svg_274" transform="translate(369, 214) scale(1.5)"><path style="fill:#ff5293;fill-opacity:1;stroke:#ff2c76;stroke-width:1;stroke-linecap:round;stroke-opacity:1" id="svg_275" d="m-170,-33.33333206176758 L-110,-33.33333206176758 L-110,-13.333332061767578 L-170,-13.333332061767578 L-170,-21.333332061767578 L-170,-22.333332061767578 L-176,-22.333332061767578 L-176,-19.333332061767578 L-178,-19.333332061767578 L-178,-27.333332061767578 L-176,-27.333332061767578 L-176,-24.333332061767578 L-170,-24.333332061767578 L-170,-25.333332061767578 z"/><text style="font-size:10px;fill:#282828;font-family:sans-serif;text-anchor:start" id="svg_276" x="-178.5" y="-33.833"><tspan id="svg_277" x="-165.5" y="-19.833">4</tspan></text></g></g><g id="svg_278"><g id="svg_279"><g id="svg_280" transform="translate(281, 276) scale(1.5)"><path style="fill:#ff8b2d;fill-opacity:1;stroke:#e86b0e;stroke-width:1;stroke-linecap:round;stroke-opacity:1" id="svg_281" d="m-178,-25.333332061767578 L-178,-29.333332061767578 A4,4 90 0 1 -174,-33.33333206176758 L-170,-33.33333206176758 L-170,-31.333332061767578 L-160,-31.333332061767578 L-160,-33.33333206176758 L-151,-33.33333206176758 L-91,-33.33333206176758 L-87,-33.33333206176758 A4,4 90 0 1 -83,-29.333332061767578 L-83,-25.333332061767578 L-87,-25.333332061767578 L-87,-28.333332061767578 L-91,-28.333332061767578 L-91,-18.333332061767578 L-87,-18.333332061767578 L-87,-21.333332061767578 L-83,-21.333332061767578 L-83,-17.333332061767578 A4,4 90 0 1 -87,-13.333332061767578 L-91,-13.333332061767578 L-151,-13.333332061767578 L-152,-13.333332061767578 L-152,-11.333332061767578 L-160,-11.333332061767578 L-160,-13.333332061767578 L-161,-13.333332061767578 L-165,-13.333332061767578 A5,5 90 0 0 -170,-8.333332061767578 L-170,-4.333332061767578 L-170,-0.3333320617675781 L-170,41.66666793823242 L-170,45.66666793823242 A5,5 90 0 0 -165,50.66666793823242 L-161,50.66666793823242 L-161,52.66666793823242 L-151,52.66666793823242 L-151,50.66666793823242 L-143,50.66666793823242 L-143,56.66666793823242 L-143,62.66666793823242 L-143,66.66666793823242 A4,4 90 0 1 -147,70.66666793823242 L-151,70.66666793823242 L-160,70.66666793823242 L-161,70.66666793823242 L-161,72.66666793823242 L-169,72.66666793823242 L-169,70.66666793823242 L-170,70.66666793823242 L-174,70.66666793823242 A4,4 90 0 1 -178,66.66666793823242 L-178,62.66666793823242 z"/><text style="font-size:10px;fill:#282828;font-family:sans-serif;text-anchor:start" id="svg_282" x="-178.5" y="-33.833"><tspan id="svg_283" x="-158.5" y="-18.833">note</tspan></text><text style="font-size:6.666666666666667px;fill:#282828;font-family:sans-serif;text-anchor:end" id="svg_284" x="-178.5" y="-33.833"><tspan id="svg_285" x="-93.5" y="-21.833">value</tspan></text></g></g><g id="svg_286" transform="translate(281, 280) scale(0.5)"><g style="isolation:isolate" id="svg_287"><g id="レイヤー_2" data-name="レイヤー 2"><g id="Icon"><rect style="fill:#292929;opacity:.4;mix-blend-mode:multiply" id="svg_288" width="42" height="42" x="-535.5" y="-101.5" rx="5" ry="5"/><path style="fill:#fff" id="svg_289" d="M-504.9400005340576,-71.70000076293945 l-4.170000076293945,-4.159999847412109 h2.259999990463257 a1,1 0 1 0 0,-2.069999933242798 H-511.5599994659424 a1.0800000429153442,1.0800000429153442 0 0 0 -1.1100000143051147,1 v0 s0,0 0,0.05999999865889549 v4.639999866485596 h0 a1,1 0 1 0 2.0799999237060547,0 V-74.42000007629395 l4.190000057220459,4.190000057220459 a1,1 0 0 0 1.4600000381469727,0 A1,1 0 0 0 -504.9400005340576,-71.70000076293945 z"/><path style="fill:#fff" id="svg_290" d="M-516.329999923706,-76.89999961853027 a1.0800000429153442,1.0800000429153442 0 0 0 -1.1100000143051147,-1 H-522.1499996185303 a1,1 0 1 0 0,2.069999933242798 H-519.8999996185303 L-524.0600004196167,-71.70000076293945 a1,1 0 0 0 1.4700000286102295,1.4700000286102295 l4.179999828338623,-4.190000057220459 v2.259999990463257 a1,1 0 1 0 2.0799999237060547,0 V-76.79999923706055 s0,0 0,-0.05999999865889549 A0.07999999821186066,0.07999999821186066 0 0 1 -516.329999923706,-76.89999961853027 z"/><path style="fill:#fff" id="svg_291" d="M-511.5599994659424,-81 h4.699999809265137 a1,1 0 1 0 0,-2.0799999237060547 H-509.11000061035156 l4.170000076293945,-4.159999847412109 a1,1 0 0 0 0,-1.4700000286102295 a1,1 0 0 0 -1.4600000381469727,0 L-510.5900001525879,-84.5 V-86.77999973297119 a1,1 0 1 0 -2.0799999237060547,0 v4.639999866485596 a0.4300000071525574,0.4300000071525574 0 0 0 0,0.05000000074505806 v0.05000000074505806 A1.090000033378601,1.090000033378601 0 0 0 -511.5599994659424,-81 z"/><path style="fill:#fff" id="svg_292" d="M-517.3700008392334,-87.88000011444092 a1.0800000429153442,1.0800000429153442 0 0 0 -1,1.090000033378601 V-84.5 l-4.179999828338623,-4.190000057220459 a1,1 0 0 0 -1.4700000286102295,0 a1,1 0 0 0 0,1.4600000381469727 l4.159999847412109,4.170000076293945 H-522.1499996185303 a1,1 0 1 0 0,2.0799999237060547 h4.710000038146973 a1.090000033378601,1.090000033378601 0 0 0 1.1100000143051147,-1 a0.07999999821186066,0.07999999821186066 0 0 1 0,0 s0,0 0,-0.05999999865889549 V-86.78999996185303 A1.0700000524520874,1.0700000524520874 0 0 0 -517.3700008392334,-87.88000011444092 z"/></g></g></g></g></g><g id="svg_293"><g id="svg_294" transform="translate(413, 276) scale(1.5)"><path style="fill:#ff5293;fill-opacity:1;stroke:#ff2c76;stroke-width:1;stroke-linecap:round;stroke-opacity:1" id="svg_295" d="m-170,-25.333332061767578 L-170,-29.333332061767578 A4,4 90 0 1 -166,-33.33333206176758 L-162,-33.33333206176758 L-152,-33.33333206176758 L-122,-33.33333206176758 L-118,-33.33333206176758 A4,4 90 0 1 -114,-29.333332061767578 L-114,-25.333332061767578 L-118,-25.333332061767578 L-118,-28.333332061767578 L-122,-28.333332061767578 L-122,-18.333332061767578 L-118,-18.333332061767578 L-118,-21.333332061767578 L-114,-21.333332061767578 L-114,-4.333332061767578 L-118,-4.333332061767578 L-118,-7.333332061767578 L-122,-7.333332061767578 L-122,2.666667938232422 L-118,2.666667938232422 L-118,-0.3333320617675781 L-114,-0.3333320617675781 L-114,3.666667938232422 A4,4 90 0 1 -118,7.666667938232422 L-122,7.666667938232422 L-152,7.666667938232422 L-162,7.666667938232422 L-166,7.666667938232422 A4,4 90 0 1 -170,3.666667938232422 L-170,-0.3333320617675781 L-170,-21.333332061767578 L-170,-22.333332061767578 L-176,-22.333332061767578 L-176,-19.333332061767578 L-178,-19.333332061767578 L-178,-27.333332061767578 L-176,-27.333332061767578 L-176,-24.333332061767578 L-170,-24.333332061767578 L-170,-25.333332061767578 z"/><text style="font-size:9px;fill:#282828;font-family:sans-serif;text-anchor:end" id="svg_296" x="-178.5" y="-33.833"><tspan id="svg_297" x="-124.5" y="-10.833">➗</tspan></text></g></g><g id="svg_302"><g id="svg_303" transform="translate(499, 276) scale(1.5)"><path style="fill:#ff5293;fill-opacity:1;stroke:#ff2c76;stroke-width:1;stroke-linecap:round;stroke-opacity:1" id="svg_304" d="m-170,-33.33333206176758 L-110,-33.33333206176758 L-110,-13.333332061767578 L-170,-13.333332061767578 L-170,-21.333332061767578 L-170,-22.333332061767578 L-176,-22.333332061767578 L-176,-19.333332061767578 L-178,-19.333332061767578 L-178,-27.333332061767578 L-176,-27.333332061767578 L-176,-24.333332061767578 L-170,-24.333332061767578 L-170,-25.333332061767578 z"/><text style="font-size:10px;fill:#282828;font-family:sans-serif;text-anchor:start" id="svg_305" x="-178.5" y="-33.833"><tspan id="svg_306" x="-165.5" y="-19.833">1</tspan></text></g></g><g id="svg_307"><g id="svg_308" transform="translate(499, 308) scale(1.5)"><path style="fill:#ff5293;fill-opacity:1;stroke:#ff2c76;stroke-width:1;stroke-linecap:round;stroke-opacity:1" id="svg_309" d="m-170,-33.33333206176758 L-110,-33.33333206176758 L-110,-13.333332061767578 L-170,-13.333332061767578 L-170,-21.333332061767578 L-170,-22.333332061767578 L-176,-22.333332061767578 L-176,-19.333332061767578 L-178,-19.333332061767578 L-178,-27.333332061767578 L-176,-27.333332061767578 L-176,-24.333332061767578 L-170,-24.333332061767578 L-170,-25.333332061767578 z"/><text style="font-size:10px;fill:#282828;font-family:sans-serif;text-anchor:start" id="svg_310" x="-178.5" y="-33.833"><tspan id="svg_311" x="-165.5" y="-19.833">4</tspan></text></g></g><g id="svg_312"><g id="svg_313" transform="translate(295, 308) scale(1.5)"><path style="fill:#b0b0b0;fill-opacity:1;stroke:#a0a0a0;stroke-width:1;stroke-linecap:round;stroke-opacity:1" id="svg_314" d="m-178,-25.333332061767578 L-178,-29.333332061767578 A4,4 90 0 1 -174,-33.33333206176758 L-170,-33.33333206176758 L-170,-31.333332061767578 L-160,-31.333332061767578 L-160,-33.33333206176758 L-140,-33.33333206176758 L-136,-33.33333206176758 A4,4 90 0 1 -132,-29.333332061767578 L-132,-25.333332061767578 L-132,-21.333332061767578 L-132,-17.333332061767578 A4,4 90 0 1 -136,-13.333332061767578 L-140,-13.333332061767578 L-160,-13.333332061767578 L-161,-13.333332061767578 L-161,-11.333332061767578 L-169,-11.333332061767578 L-169,-13.333332061767578 L-170,-13.333332061767578 L-174,-13.333332061767578 A4,4 90 0 1 -178,-17.333332061767578 L-178,-21.333332061767578 z"/><text style="font-size:10px;fill:#282828;font-family:sans-serif;text-anchor:end" id="svg_315" x="-178.5" y="-33.833"><tspan id="svg_316" x="-142.5" y="-19.833">↓</tspan></text></g></g><g id="svg_317"><g id="svg_318" transform="translate(295, 340) scale(1.5)"><path style="fill:#77c428;fill-opacity:1;stroke:#57ad02;stroke-width:1;stroke-linecap:round;stroke-opacity:1" id="svg_319" d="m-178,-25.333332061767578 L-178,-29.333332061767578 A4,4 90 0 1 -174,-33.33333206176758 L-170,-33.33333206176758 L-170,-31.333332061767578 L-160,-31.333332061767578 L-160,-33.33333206176758 L-130,-33.33333206176758 L-126,-33.33333206176758 A4,4 90 0 1 -122,-29.333332061767578 L-122,-25.333332061767578 L-126,-25.333332061767578 L-126,-28.333332061767578 L-130,-28.333332061767578 L-130,-18.333332061767578 L-126,-18.333332061767578 L-126,-21.333332061767578 L-122,-21.333332061767578 L-122,-4.333332061767578 L-126,-4.333332061767578 L-126,-7.333332061767578 L-130,-7.333332061767578 L-130,2.666667938232422 L-126,2.666667938232422 L-126,-0.3333320617675781 L-122,-0.3333320617675781 L-122,3.666667938232422 A4,4 90 0 1 -126,7.666667938232422 L-130,7.666667938232422 L-160,7.666667938232422 L-161,7.666667938232422 L-161,9.666667938232422 L-169,9.666667938232422 L-169,7.666667938232422 L-170,7.666667938232422 L-174,7.666667938232422 A4,4 90 0 1 -178,3.666667938232422 L-178,-0.3333320617675781 L-178,-21.333332061767578 L-178,-25.333332061767578 z"/><text style="font-size:10px;fill:#282828;font-family:sans-serif;text-anchor:end" id="svg_320" x="-178.5" y="-33.833"><tspan id="svg_321" x="-132.5" y="-9.833">pitch</tspan></text><text style="font-size:6.666666666666667px;fill:#282828;font-family:sans-serif;text-anchor:end" id="svg_322" x="-178.5" y="-33.833"><tspan id="svg_323" x="-132.5" y="-21.833">name</tspan></text><text style="font-size:6.666666666666667px;fill:#282828;font-family:sans-serif;text-anchor:end" id="svg_324" x="-178.5" y="-33.833"><tspan id="svg_325" x="-132.5" y="-.833">octave</tspan></text></g></g><g id="svg_326"><g id="svg_327" transform="translate(369, 340) scale(1.5)"><path style="fill:#77c428;fill-opacity:1;stroke:#57ad02;stroke-width:1;stroke-linecap:round;stroke-opacity:1" id="svg_328" d="m-170,-33.33333206176758 L-110,-33.33333206176758 L-110,-13.333332061767578 L-170,-13.333332061767578 L-170,-21.333332061767578 L-170,-22.333332061767578 L-176,-22.333332061767578 L-176,-19.333332061767578 L-178,-19.333332061767578 L-178,-27.333332061767578 L-176,-27.333332061767578 L-176,-24.333332061767578 L-170,-24.333332061767578 L-170,-25.333332061767578 z"/><text style="font-size:10px;fill:#282828;font-family:sans-serif;text-anchor:start" id="svg_329" x="-178.5" y="-33.833"><tspan id="svg_330" x="-165.5" y="-19.833">mi</tspan></text></g></g><g id="svg_331"><g id="svg_332" transform="translate(369, 372) scale(1.5)"><path style="fill:#ff5293;fill-opacity:1;stroke:#ff2c76;stroke-width:1;stroke-linecap:round;stroke-opacity:1" id="svg_333" d="m-170,-33.33333206176758 L-110,-33.33333206176758 L-110,-13.333332061767578 L-170,-13.333332061767578 L-170,-21.333332061767578 L-170,-22.333332061767578 L-176,-22.333332061767578 L-176,-19.333332061767578 L-178,-19.333332061767578 L-178,-27.333332061767578 L-176,-27.333332061767578 L-176,-24.333332061767578 L-170,-24.333332061767578 L-170,-25.333332061767578 z"/><text style="font-size:10px;fill:#282828;font-family:sans-serif;text-anchor:start" id="svg_334" x="-178.5" y="-33.833"><tspan id="svg_335" x="-165.5" y="-19.833">4</tspan></text></g></g><g id="svg_336"><g id="svg_337"><g id="svg_338" transform="translate(281, 434) scale(1.5)"><path style="fill:#ff8b2d;fill-opacity:1;stroke:#e86b0e;stroke-width:1;stroke-linecap:round;stroke-opacity:1" id="svg_339" d="m-178,-25.333332061767578 L-178,-29.333332061767578 A4,4 90 0 1 -174,-33.33333206176758 L-170,-33.33333206176758 L-170,-31.333332061767578 L-160,-31.333332061767578 L-160,-33.33333206176758 L-151,-33.33333206176758 L-91,-33.33333206176758 L-87,-33.33333206176758 A4,4 90 0 1 -83,-29.333332061767578 L-83,-25.333332061767578 L-87,-25.333332061767578 L-87,-28.333332061767578 L-91,-28.333332061767578 L-91,-18.333332061767578 L-87,-18.333332061767578 L-87,-21.333332061767578 L-83,-21.333332061767578 L-83,-17.333332061767578 A4,4 90 0 1 -87,-13.333332061767578 L-91,-13.333332061767578 L-151,-13.333332061767578 L-152,-13.333332061767578 L-152,-11.333332061767578 L-160,-11.333332061767578 L-160,-13.333332061767578 L-161,-13.333332061767578 L-165,-13.333332061767578 A5,5 90 0 0 -170,-8.333332061767578 L-170,-4.333332061767578 L-170,-0.3333320617675781 L-170,41.66666793823242 L-170,45.66666793823242 A5,5 90 0 0 -165,50.66666793823242 L-161,50.66666793823242 L-161,52.66666793823242 L-151,52.66666793823242 L-151,50.66666793823242 L-143,50.66666793823242 L-143,56.66666793823242 L-143,62.66666793823242 L-143,66.66666793823242 A4,4 90 0 1 -147,70.66666793823242 L-151,70.66666793823242 L-160,70.66666793823242 L-161,70.66666793823242 L-161,72.66666793823242 L-169,72.66666793823242 L-169,70.66666793823242 L-170,70.66666793823242 L-174,70.66666793823242 A4,4 90 0 1 -178,66.66666793823242 L-178,62.66666793823242 z"/><text style="font-size:10px;fill:#282828;font-family:sans-serif;text-anchor:start" id="svg_340" x="-178.5" y="-33.833"><tspan id="svg_341" x="-158.5" y="-18.833">note</tspan></text><text style="font-size:6.666666666666667px;fill:#282828;font-family:sans-serif;text-anchor:end" id="svg_342" x="-178.5" y="-33.833"><tspan id="svg_343" x="-93.5" y="-21.833">value</tspan></text></g></g><g id="svg_344" transform="translate(281, 438) scale(0.5)"><g style="isolation:isolate" id="svg_345"><g id="レイヤー_2" data-name="レイヤー 2"><g id="Icon"><rect style="fill:#292929;opacity:.4;mix-blend-mode:multiply" id="svg_346" width="42" height="42" x="-535.5" y="-101.5" rx="5" ry="5"/><path style="fill:#fff" id="svg_347" d="M-504.9400005340576,-71.70000076293945 l-4.170000076293945,-4.159999847412109 h2.259999990463257 a1,1 0 1 0 0,-2.069999933242798 H-511.5599994659424 a1.0800000429153442,1.0800000429153442 0 0 0 -1.1100000143051147,1 v0 s0,0 0,0.05999999865889549 v4.639999866485596 h0 a1,1 0 1 0 2.0799999237060547,0 V-74.42000007629395 l4.190000057220459,4.190000057220459 a1,1 0 0 0 1.4600000381469727,0 A1,1 0 0 0 -504.9400005340576,-71.70000076293945 z"/><path style="fill:#fff" id="svg_348" d="M-516.329999923706,-76.89999961853027 a1.0800000429153442,1.0800000429153442 0 0 0 -1.1100000143051147,-1 H-522.1499996185303 a1,1 0 1 0 0,2.069999933242798 H-519.8999996185303 L-524.0600004196167,-71.70000076293945 a1,1 0 0 0 1.4700000286102295,1.4700000286102295 l4.179999828338623,-4.190000057220459 v2.259999990463257 a1,1 0 1 0 2.0799999237060547,0 V-76.79999923706055 s0,0 0,-0.05999999865889549 A0.07999999821186066,0.07999999821186066 0 0 1 -516.329999923706,-76.89999961853027 z"/><path style="fill:#fff" id="svg_349" d="M-511.5599994659424,-81 h4.699999809265137 a1,1 0 1 0 0,-2.0799999237060547 H-509.11000061035156 l4.170000076293945,-4.159999847412109 a1,1 0 0 0 0,-1.4700000286102295 a1,1 0 0 0 -1.4600000381469727,0 L-510.5900001525879,-84.5 V-86.77999973297119 a1,1 0 1 0 -2.0799999237060547,0 v4.639999866485596 a0.4300000071525574,0.4300000071525574 0 0 0 0,0.05000000074505806 v0.05000000074505806 A1.090000033378601,1.090000033378601 0 0 0 -511.5599994659424,-81 z"/><path style="fill:#fff" id="svg_350" d="M-517.3700008392334,-87.88000011444092 a1.0800000429153442,1.0800000429153442 0 0 0 -1,1.090000033378601 V-84.5 l-4.179999828338623,-4.190000057220459 a1,1 0 0 0 -1.4700000286102295,0 a1,1 0 0 0 0,1.4600000381469727 l4.159999847412109,4.170000076293945 H-522.1499996185303 a1,1 0 1 0 0,2.0799999237060547 h4.710000038146973 a1.090000033378601,1.090000033378601 0 0 0 1.1100000143051147,-1 a0.07999999821186066,0.07999999821186066 0 0 1 0,0 s0,0 0,-0.05999999865889549 V-86.78999996185303 A1.0700000524520874,1.0700000524520874 0 0 0 -517.3700008392334,-87.88000011444092 z"/></g></g></g></g></g><g id="svg_351"><g id="svg_352" transform="translate(413, 434) scale(1.5)"><path style="fill:#ff5293;fill-opacity:1;stroke:#ff2c76;stroke-width:1;stroke-linecap:round;stroke-opacity:1" id="svg_353" d="m-170,-25.333332061767578 L-170,-29.333332061767578 A4,4 90 0 1 -166,-33.33333206176758 L-162,-33.33333206176758 L-152,-33.33333206176758 L-122,-33.33333206176758 L-118,-33.33333206176758 A4,4 90 0 1 -114,-29.333332061767578 L-114,-25.333332061767578 L-118,-25.333332061767578 L-118,-28.333332061767578 L-122,-28.333332061767578 L-122,-18.333332061767578 L-118,-18.333332061767578 L-118,-21.333332061767578 L-114,-21.333332061767578 L-114,-4.333332061767578 L-118,-4.333332061767578 L-118,-7.333332061767578 L-122,-7.333332061767578 L-122,2.666667938232422 L-118,2.666667938232422 L-118,-0.3333320617675781 L-114,-0.3333320617675781 L-114,3.666667938232422 A4,4 90 0 1 -118,7.666667938232422 L-122,7.666667938232422 L-152,7.666667938232422 L-162,7.666667938232422 L-166,7.666667938232422 A4,4 90 0 1 -170,3.666667938232422 L-170,-0.3333320617675781 L-170,-21.333332061767578 L-170,-22.333332061767578 L-176,-22.333332061767578 L-176,-19.333332061767578 L-178,-19.333332061767578 L-178,-27.333332061767578 L-176,-27.333332061767578 L-176,-24.333332061767578 L-170,-24.333332061767578 L-170,-25.333332061767578 z"/><text style="font-size:9px;fill:#282828;font-family:sans-serif;text-anchor:end" id="svg_354" x="-178.5" y="-33.833"><tspan id="svg_355" x="-124.5" y="-10.833">➗</tspan></text></g></g><g id="svg_360"><g id="svg_361" transform="translate(499, 434) scale(1.5)"><path style="fill:#ff5293;fill-opacity:1;stroke:#ff2c76;stroke-width:1;stroke-linecap:round;stroke-opacity:1" id="svg_362" d="m-170,-33.33333206176758 L-110,-33.33333206176758 L-110,-13.333332061767578 L-170,-13.333332061767578 L-170,-21.333332061767578 L-170,-22.333332061767578 L-176,-22.333332061767578 L-176,-19.333332061767578 L-178,-19.333332061767578 L-178,-27.333332061767578 L-176,-27.333332061767578 L-176,-24.333332061767578 L-170,-24.333332061767578 L-170,-25.333332061767578 z"/><text style="font-size:10px;fill:#282828;font-family:sans-serif;text-anchor:start" id="svg_363" x="-178.5" y="-33.833"><tspan id="svg_364" x="-165.5" y="-19.833">1</tspan></text></g></g><g id="svg_365"><g id="svg_366" transform="translate(499, 466) scale(1.5)"><path style="fill:#ff5293;fill-opacity:1;stroke:#ff2c76;stroke-width:1;stroke-linecap:round;stroke-opacity:1" id="svg_367" d="m-170,-33.33333206176758 L-110,-33.33333206176758 L-110,-13.333332061767578 L-170,-13.333332061767578 L-170,-21.333332061767578 L-170,-22.333332061767578 L-176,-22.333332061767578 L-176,-19.333332061767578 L-178,-19.333332061767578 L-178,-27.333332061767578 L-176,-27.333332061767578 L-176,-24.333332061767578 L-170,-24.333332061767578 L-170,-25.333332061767578 z"/><text style="font-size:10px;fill:#282828;font-family:sans-serif;text-anchor:start" id="svg_368" x="-178.5" y="-33.833"><tspan id="svg_369" x="-165.5" y="-19.833">4</tspan></text></g></g><g id="svg_370"><g id="svg_371" transform="translate(295, 466) scale(1.5)"><path style="fill:#b0b0b0;fill-opacity:1;stroke:#a0a0a0;stroke-width:1;stroke-linecap:round;stroke-opacity:1" id="svg_372" d="m-178,-25.333332061767578 L-178,-29.333332061767578 A4,4 90 0 1 -174,-33.33333206176758 L-170,-33.33333206176758 L-170,-31.333332061767578 L-160,-31.333332061767578 L-160,-33.33333206176758 L-140,-33.33333206176758 L-136,-33.33333206176758 A4,4 90 0 1 -132,-29.333332061767578 L-132,-25.333332061767578 L-132,-21.333332061767578 L-132,-17.333332061767578 A4,4 90 0 1 -136,-13.333332061767578 L-140,-13.333332061767578 L-160,-13.333332061767578 L-161,-13.333332061767578 L-161,-11.333332061767578 L-169,-11.333332061767578 L-169,-13.333332061767578 L-170,-13.333332061767578 L-174,-13.333332061767578 A4,4 90 0 1 -178,-17.333332061767578 L-178,-21.333332061767578 z"/><text style="font-size:10px;fill:#282828;font-family:sans-serif;text-anchor:end" id="svg_373" x="-178.5" y="-33.833"><tspan id="svg_374" x="-142.5" y="-19.833">↓</tspan></text></g></g><g id="svg_375"><g id="svg_376" transform="translate(295, 498) scale(1.5)"><path style="fill:#77c428;fill-opacity:1;stroke:#57ad02;stroke-width:1;stroke-linecap:round;stroke-opacity:1" id="svg_377" d="m-178,-25.333332061767578 L-178,-29.333332061767578 A4,4 90 0 1 -174,-33.33333206176758 L-170,-33.33333206176758 L-170,-31.333332061767578 L-160,-31.333332061767578 L-160,-33.33333206176758 L-130,-33.33333206176758 L-126,-33.33333206176758 A4,4 90 0 1 -122,-29.333332061767578 L-122,-25.333332061767578 L-126,-25.333332061767578 L-126,-28.333332061767578 L-130,-28.333332061767578 L-130,-18.333332061767578 L-126,-18.333332061767578 L-126,-21.333332061767578 L-122,-21.333332061767578 L-122,-4.333332061767578 L-126,-4.333332061767578 L-126,-7.333332061767578 L-130,-7.333332061767578 L-130,2.666667938232422 L-126,2.666667938232422 L-126,-0.3333320617675781 L-122,-0.3333320617675781 L-122,3.666667938232422 A4,4 90 0 1 -126,7.666667938232422 L-130,7.666667938232422 L-160,7.666667938232422 L-161,7.666667938232422 L-161,9.666667938232422 L-169,9.666667938232422 L-169,7.666667938232422 L-170,7.666667938232422 L-174,7.666667938232422 A4,4 90 0 1 -178,3.666667938232422 L-178,-0.3333320617675781 L-178,-21.333332061767578 L-178,-25.333332061767578 z"/><text style="font-size:10px;fill:#282828;font-family:sans-serif;text-anchor:end" id="svg_378" x="-178.5" y="-33.833"><tspan id="svg_379" x="-132.5" y="-9.833">pitch</tspan></text><text style="font-size:6.666666666666667px;fill:#282828;font-family:sans-serif;text-anchor:end" id="svg_380" x="-178.5" y="-33.833"><tspan id="svg_381" x="-132.5" y="-21.833">name</tspan></text><text style="font-size:6.666666666666667px;fill:#282828;font-family:sans-serif;text-anchor:end" id="svg_382" x="-178.5" y="-33.833"><tspan id="svg_383" x="-132.5" y="-.833">octave</tspan></text></g></g><g id="svg_384"><g id="svg_385" transform="translate(369, 498) scale(1.5)"><path style="fill:#77c428;fill-opacity:1;stroke:#57ad02;stroke-width:1;stroke-linecap:round;stroke-opacity:1" id="svg_386" d="m-170,-33.33333206176758 L-110,-33.33333206176758 L-110,-13.333332061767578 L-170,-13.333332061767578 L-170,-21.333332061767578 L-170,-22.333332061767578 L-176,-22.333332061767578 L-176,-19.333332061767578 L-178,-19.333332061767578 L-178,-27.333332061767578 L-176,-27.333332061767578 L-176,-24.333332061767578 L-170,-24.333332061767578 L-170,-25.333332061767578 z"/><text style="font-size:10px;fill:#282828;font-family:sans-serif;text-anchor:start" id="svg_387" x="-178.5" y="-33.833"><tspan id="svg_388" x="-165.5" y="-19.833">sol</tspan></text></g></g><g id="svg_389"><g id="svg_390" transform="translate(369, 530) scale(1.5)"><path style="fill:#ff5293;fill-opacity:1;stroke:#ff2c76;stroke-width:1;stroke-linecap:round;stroke-opacity:1" id="svg_391" d="m-170,-33.33333206176758 L-110,-33.33333206176758 L-110,-13.333332061767578 L-170,-13.333332061767578 L-170,-21.333332061767578 L-170,-22.333332061767578 L-176,-22.333332061767578 L-176,-19.333332061767578 L-178,-19.333332061767578 L-178,-27.333332061767578 L-176,-27.333332061767578 L-176,-24.333332061767578 L-170,-24.333332061767578 L-170,-25.333332061767578 z"/><text style="font-size:10px;fill:#282828;font-family:sans-serif;text-anchor:start" id="svg_392" x="-178.5" y="-33.833"><tspan id="svg_393" x="-165.5" y="-19.833">4</tspan></text></g></g><g id="svg_394"><g id="svg_395" transform="translate(648, 50) scale(1.5)"><path style="fill:#25c3c0;fill-opacity:1;stroke:#1dbcbd;stroke-width:1;stroke-linecap:round;stroke-opacity:1" id="svg_396" d="m-178,-25.333332061767578 L-178,-29.333332061767578 A4,4 90 0 1 -174,-33.33333206176758 L-170,-33.33333206176758 L-170,-31.333332061767578 L-160,-31.333332061767578 L-160,-33.33333206176758 L-151,-33.33333206176758 L-131,-33.33333206176758 L-127,-33.33333206176758 A4,4 90 0 1 -123,-29.333332061767578 L-123,-25.333332061767578 L-127,-25.333332061767578 L-127,-28.333332061767578 L-131,-28.333332061767578 L-131,-18.333332061767578 L-127,-18.333332061767578 L-127,-21.333332061767578 L-123,-21.333332061767578 L-123,-17.333332061767578 A4,4 90 0 1 -127,-13.333332061767578 L-131,-13.333332061767578 L-151,-13.333332061767578 L-152,-13.333332061767578 L-152,-11.333332061767578 L-160,-11.333332061767578 L-160,-13.333332061767578 L-161,-13.333332061767578 L-165,-13.333332061767578 A5,5 90 0 0 -170,-8.333332061767578 L-170,-4.333332061767578 L-170,-0.3333320617675781 L-170,314.6666679382324 L-170,318.6666679382324 A5,5 90 0 0 -165,323.6666679382324 L-161,323.6666679382324 L-161,325.6666679382324 L-151,325.6666679382324 L-151,323.6666679382324 L-143,323.6666679382324 L-143,329.6666679382324 L-143,335.6666679382324 L-143,339.6666679382324 A4,4 90 0 1 -147,343.6666679382324 L-151,343.6666679382324 L-160,343.6666679382324 L-161,343.6666679382324 L-161,345.6666679382324 L-169,345.6666679382324 L-169,343.6666679382324 L-170,343.6666679382324 L-174,343.6666679382324 A4,4 90 0 1 -178,339.6666679382324 L-178,335.6666679382324 z"/><text style="font-size:10px;fill:#282828;font-family:sans-serif;text-anchor:start" id="svg_397" x="-178.5" y="-33.833"><tspan id="svg_398" x="-173.5" y="-18.833">slur</tspan></text></g></g><g id="svg_401"><g id="svg_402" transform="translate(720, 50) scale(1.5)"><path style="fill:#ff5293;fill-opacity:1;stroke:#ff2c76;stroke-width:1;stroke-linecap:round;stroke-opacity:1" id="svg_403" d="m-170,-25.333332061767578 L-170,-29.333332061767578 A4,4 90 0 1 -166,-33.33333206176758 L-162,-33.33333206176758 L-152,-33.33333206176758 L-122,-33.33333206176758 L-118,-33.33333206176758 A4,4 90 0 1 -114,-29.333332061767578 L-114,-25.333332061767578 L-118,-25.333332061767578 L-118,-28.333332061767578 L-122,-28.333332061767578 L-122,-18.333332061767578 L-118,-18.333332061767578 L-118,-21.333332061767578 L-114,-21.333332061767578 L-114,-4.333332061767578 L-118,-4.333332061767578 L-118,-7.333332061767578 L-122,-7.333332061767578 L-122,2.666667938232422 L-118,2.666667938232422 L-118,-0.3333320617675781 L-114,-0.3333320617675781 L-114,3.666667938232422 A4,4 90 0 1 -118,7.666667938232422 L-122,7.666667938232422 L-152,7.666667938232422 L-162,7.666667938232422 L-166,7.666667938232422 A4,4 90 0 1 -170,3.666667938232422 L-170,-0.3333320617675781 L-170,-21.333332061767578 L-170,-22.333332061767578 L-176,-22.333332061767578 L-176,-19.333332061767578 L-178,-19.333332061767578 L-178,-27.333332061767578 L-176,-27.333332061767578 L-176,-24.333332061767578 L-170,-24.333332061767578 L-170,-25.333332061767578 z"/><text style="font-size:9px;fill:#282828;font-family:sans-serif;text-anchor:end" id="svg_404" x="-178.5" y="-33.833"><tspan id="svg_405" x="-124.5" y="-10.833">➗</tspan></text></g></g><g id="svg_410"><g id="svg_411" transform="translate(806, 50) scale(1.5)"><path style="fill:#ff5293;fill-opacity:1;stroke:#ff2c76;stroke-width:1;stroke-linecap:round;stroke-opacity:1" id="svg_412" d="m-170,-33.33333206176758 L-110,-33.33333206176758 L-110,-13.333332061767578 L-170,-13.333332061767578 L-170,-21.333332061767578 L-170,-22.333332061767578 L-176,-22.333332061767578 L-176,-19.333332061767578 L-178,-19.333332061767578 L-178,-27.333332061767578 L-176,-27.333332061767578 L-176,-24.333332061767578 L-170,-24.333332061767578 L-170,-25.333332061767578 z"/><text style="font-size:10px;fill:#282828;font-family:sans-serif;text-anchor:start" id="svg_413" x="-178.5" y="-33.833"><tspan id="svg_414" x="-165.5" y="-19.833">1</tspan></text></g></g><g id="svg_415"><g id="svg_416" transform="translate(806, 82) scale(1.5)"><path style="fill:#ff5293;fill-opacity:1;stroke:#ff2c76;stroke-width:1;stroke-linecap:round;stroke-opacity:1" id="svg_417" d="m-170,-33.33333206176758 L-110,-33.33333206176758 L-110,-13.333332061767578 L-170,-13.333332061767578 L-170,-21.333332061767578 L-170,-22.333332061767578 L-176,-22.333332061767578 L-176,-19.333332061767578 L-178,-19.333332061767578 L-178,-27.333332061767578 L-176,-27.333332061767578 L-176,-24.333332061767578 L-170,-24.333332061767578 L-170,-25.333332061767578 z"/><text style="font-size:10px;fill:#282828;font-family:sans-serif;text-anchor:start" id="svg_418" x="-178.5" y="-33.833"><tspan id="svg_419" x="-165.5" y="-19.833">16</tspan></text></g></g><g id="svg_420"><g id="svg_421" transform="translate(662, 82) scale(1.5)"><path style="fill:#b0b0b0;fill-opacity:1;stroke:#a0a0a0;stroke-width:1;stroke-linecap:round;stroke-opacity:1" id="svg_422" d="m-178,-25.333332061767578 L-178,-29.333332061767578 A4,4 90 0 1 -174,-33.33333206176758 L-170,-33.33333206176758 L-170,-31.333332061767578 L-160,-31.333332061767578 L-160,-33.33333206176758 L-140,-33.33333206176758 L-136,-33.33333206176758 A4,4 90 0 1 -132,-29.333332061767578 L-132,-25.333332061767578 L-132,-21.333332061767578 L-132,-17.333332061767578 A4,4 90 0 1 -136,-13.333332061767578 L-140,-13.333332061767578 L-160,-13.333332061767578 L-161,-13.333332061767578 L-161,-11.333332061767578 L-169,-11.333332061767578 L-169,-13.333332061767578 L-170,-13.333332061767578 L-174,-13.333332061767578 A4,4 90 0 1 -178,-17.333332061767578 L-178,-21.333332061767578 z"/><text style="font-size:10px;fill:#282828;font-family:sans-serif;text-anchor:end" id="svg_423" x="-178.5" y="-33.833"><tspan id="svg_424" x="-142.5" y="-19.833">↓</tspan></text></g></g></g></svg>