<svg xmlns="http://www.w3.org/2000/svg" xmlns:svg="http://www.w3.org/2000/svg" id="svg6945" width="970" height="411" version="1.1"><metadata id="metadata6951"/><rect id="backgroundrect" width="100%" height="100%" x="0" y="0" fill="none" stroke="none"/><g id="g6943" class="currentLayer"><title id="title6623">Layer 1</title><g id="svg_15"><g id="svg_16"><g id="svg_17" transform="translate(883,105) scale(1.5)"><path style="fill:#ff8b2d;fill-opacity:1;stroke:#e86b0e;stroke-width:1;stroke-linecap:round;stroke-opacity:1" id="svg_18" d="m-265.3333435058594,-19.33333396911621 L-265.3333435058594,-23.33333396911621 A4,4 90 0 1 -261.3333435058594,-27.33333396911621 L-257.3333435058594,-27.33333396911621 L-257.3333435058594,-25.33333396911621 L-247.33334350585938,-25.33333396911621 L-247.33334350585938,-27.33333396911621 L-238.33334350585938,-27.33333396911621 L-178.33334350585938,-27.33333396911621 L-174.33334350585938,-27.33333396911621 A4,4 90 0 1 -170.33334350585938,-23.33333396911621 L-170.33334350585938,-19.33333396911621 L-174.33334350585938,-19.33333396911621 L-174.33334350585938,-22.33333396911621 L-178.33334350585938,-22.33333396911621 L-178.33334350585938,-12.333333969116211 L-174.33334350585938,-12.333333969116211 L-174.33334350585938,-15.333333969116211 L-170.33334350585938,-15.333333969116211 L-170.33334350585938,-11.333333969116211 A4,4 90 0 1 -174.33334350585938,-7.333333969116211 L-178.33334350585938,-7.333333969116211 L-238.33334350585938,-7.333333969116211 L-239.33334350585938,-7.333333969116211 L-239.33334350585938,-5.333333969116211 L-247.33334350585938,-5.333333969116211 L-247.33334350585938,-7.333333969116211 L-248.33334350585938,-7.333333969116211 L-252.33334350585938,-7.333333969116211 A5,5 90 0 0 -257.3333435058594,-2.333333969116211 L-257.3333435058594,1.666666030883789 L-257.3333435058594,5.666666030883789 L-257.3333435058594,47.66666603088379 L-257.3333435058594,51.66666603088379 A5,5 90 0 0 -252.33334350585938,56.66666603088379 L-248.33334350585938,56.66666603088379 L-248.33334350585938,58.66666603088379 L-238.33334350585938,58.66666603088379 L-238.33334350585938,56.66666603088379 L-230.33334350585938,56.66666603088379 L-230.33334350585938,62.66666603088379 L-230.33334350585938,68.66666603088379 L-230.33334350585938,72.66666603088379 A4,4 90 0 1 -234.33334350585938,76.66666603088379 L-238.33334350585938,76.66666603088379 L-247.33334350585938,76.66666603088379 L-248.33334350585938,76.66666603088379 L-248.33334350585938,78.66666603088379 L-256.3333435058594,78.66666603088379 L-256.3333435058594,76.66666603088379 L-257.3333435058594,76.66666603088379 L-261.3333435058594,76.66666603088379 A4,4 90 0 1 -265.3333435058594,72.66666603088379 L-265.3333435058594,68.66666603088379 z"/><text style="font-size:10px;fill:#282828;font-family:sans-serif;text-anchor:start" id="svg_19" x="-265.833" y="-27.833"><tspan id="svg_20" x="-245.833" y="-12.833">note</tspan></text><text style="font-size:6.666666666666667px;fill:#282828;font-family:sans-serif;text-anchor:end" id="svg_21" x="-265.833" y="-27.833"><tspan id="svg_22" x="-180.833" y="-15.833">value</tspan></text></g></g></g><g id="svg_30"><g id="svg_31" transform="translate(1015,105) scale(1.5)"><path style="fill:#ff5293;fill-opacity:1;stroke:#ff2c76;stroke-width:1;stroke-linecap:round;stroke-opacity:1" id="svg_32" d="m-257.3333435058594,-19.33333396911621 L-257.3333435058594,-23.33333396911621 A4,4 90 0 1 -253.33334350585938,-27.33333396911621 L-249.33334350585938,-27.33333396911621 L-239.33334350585938,-27.33333396911621 L-209.33334350585938,-27.33333396911621 L-205.33334350585938,-27.33333396911621 A4,4 90 0 1 -201.33334350585938,-23.33333396911621 L-201.33334350585938,-19.33333396911621 L-205.33334350585938,-19.33333396911621 L-205.33334350585938,-22.33333396911621 L-209.33334350585938,-22.33333396911621 L-209.33334350585938,-12.333333969116211 L-205.33334350585938,-12.333333969116211 L-205.33334350585938,-15.333333969116211 L-201.33334350585938,-15.333333969116211 L-201.33334350585938,1.666666030883789 L-205.33334350585938,1.666666030883789 L-205.33334350585938,-1.333333969116211 L-209.33334350585938,-1.333333969116211 L-209.33334350585938,8.666666030883789 L-205.33334350585938,8.666666030883789 L-205.33334350585938,5.666666030883789 L-201.33334350585938,5.666666030883789 L-201.33334350585938,9.666666030883789 A4,4 90 0 1 -205.33334350585938,13.666666030883789 L-209.33334350585938,13.666666030883789 L-239.33334350585938,13.666666030883789 L-249.33334350585938,13.666666030883789 L-253.33334350585938,13.666666030883789 A4,4 90 0 1 -257.3333435058594,9.666666030883789 L-257.3333435058594,5.666666030883789 L-257.3333435058594,-15.333333969116211 L-257.3333435058594,-16.33333396911621 L-263.3333435058594,-16.33333396911621 L-263.3333435058594,-13.333333969116211 L-265.3333435058594,-13.333333969116211 L-265.3333435058594,-21.33333396911621 L-263.3333435058594,-21.33333396911621 L-263.3333435058594,-18.33333396911621 L-257.3333435058594,-18.33333396911621 L-257.3333435058594,-19.33333396911621 z"/><text style="font-size:9px;fill:#282828;font-family:sans-serif;text-anchor:end" id="svg_33" x="-265.833" y="-27.833"><tspan id="svg_34" x="-211.833" y="-4.833">➗</tspan></text></g></g><g id="svg_39"><g id="svg_40" transform="translate(1101,105) scale(1.5)"><path style="fill:#ff5293;fill-opacity:1;stroke:#ff2c76;stroke-width:1;stroke-linecap:round;stroke-opacity:1" id="svg_41" d="m-257.3333435058594,-27.33333396911621 L-197.33334350585938,-27.33333396911621 L-197.33334350585938,-7.333333969116211 L-257.3333435058594,-7.333333969116211 L-257.3333435058594,-15.333333969116211 L-257.3333435058594,-16.33333396911621 L-263.3333435058594,-16.33333396911621 L-263.3333435058594,-13.333333969116211 L-265.3333435058594,-13.333333969116211 L-265.3333435058594,-21.33333396911621 L-263.3333435058594,-21.33333396911621 L-263.3333435058594,-18.33333396911621 L-257.3333435058594,-18.33333396911621 L-257.3333435058594,-19.33333396911621 z"/><text style="font-size:10px;fill:#282828;font-family:sans-serif;text-anchor:start" id="svg_42" x="-265.833" y="-27.833"><tspan id="svg_43" x="-252.833" y="-13.833">1</tspan></text></g></g><g id="svg_44"><g id="svg_45" transform="translate(1101,137) scale(1.5)"><path style="fill:#ff5293;fill-opacity:1;stroke:#ff2c76;stroke-width:1;stroke-linecap:round;stroke-opacity:1" id="svg_46" d="m-257.3333435058594,-27.33333396911621 L-197.33334350585938,-27.33333396911621 L-197.33334350585938,-7.333333969116211 L-257.3333435058594,-7.333333969116211 L-257.3333435058594,-15.333333969116211 L-257.3333435058594,-16.33333396911621 L-263.3333435058594,-16.33333396911621 L-263.3333435058594,-13.333333969116211 L-265.3333435058594,-13.333333969116211 L-265.3333435058594,-21.33333396911621 L-263.3333435058594,-21.33333396911621 L-263.3333435058594,-18.33333396911621 L-257.3333435058594,-18.33333396911621 L-257.3333435058594,-19.33333396911621 z"/><text style="font-size:10px;fill:#282828;font-family:sans-serif;text-anchor:start" id="svg_47" x="-265.833" y="-27.833"><tspan id="svg_48" x="-252.833" y="-13.833">4</tspan></text></g></g><g id="svg_49"><g id="svg_50" transform="translate(897,137) scale(1.5)"><path style="fill:#b0b0b0;fill-opacity:1;stroke:#a0a0a0;stroke-width:1;stroke-linecap:round;stroke-opacity:1" id="svg_51" d="m-265.3333435058594,-19.33333396911621 L-265.3333435058594,-23.33333396911621 A4,4 90 0 1 -261.3333435058594,-27.33333396911621 L-257.3333435058594,-27.33333396911621 L-257.3333435058594,-25.33333396911621 L-247.33334350585938,-25.33333396911621 L-247.33334350585938,-27.33333396911621 L-227.33334350585938,-27.33333396911621 L-223.33334350585938,-27.33333396911621 A4,4 90 0 1 -219.33334350585938,-23.33333396911621 L-219.33334350585938,-19.33333396911621 L-219.33334350585938,-15.333333969116211 L-219.33334350585938,-11.333333969116211 A4,4 90 0 1 -223.33334350585938,-7.333333969116211 L-227.33334350585938,-7.333333969116211 L-247.33334350585938,-7.333333969116211 L-248.33334350585938,-7.333333969116211 L-248.33334350585938,-5.333333969116211 L-256.3333435058594,-5.333333969116211 L-256.3333435058594,-7.333333969116211 L-257.3333435058594,-7.333333969116211 L-261.3333435058594,-7.333333969116211 A4,4 90 0 1 -265.3333435058594,-11.333333969116211 L-265.3333435058594,-15.333333969116211 z"/><text style="font-size:10px;fill:#282828;font-family:sans-serif;text-anchor:end" id="svg_52" x="-265.833" y="-27.833"><tspan id="svg_53" x="-229.833" y="-13.833">↓</tspan></text></g></g><g id="svg_54"><g id="svg_55" transform="translate(897,169) scale(1.5)"><path style="fill:#77c428;fill-opacity:1;stroke:#57ad02;stroke-width:1;stroke-linecap:round;stroke-opacity:1" id="svg_56" d="m-265.3333435058594,-19.33333396911621 L-265.3333435058594,-23.33333396911621 A4,4 90 0 1 -261.3333435058594,-27.33333396911621 L-257.3333435058594,-27.33333396911621 L-257.3333435058594,-25.33333396911621 L-247.33334350585938,-25.33333396911621 L-247.33334350585938,-27.33333396911621 L-217.33334350585938,-27.33333396911621 L-213.33334350585938,-27.33333396911621 A4,4 90 0 1 -209.33334350585938,-23.33333396911621 L-209.33334350585938,-19.33333396911621 L-213.33334350585938,-19.33333396911621 L-213.33334350585938,-22.33333396911621 L-217.33334350585938,-22.33333396911621 L-217.33334350585938,-12.333333969116211 L-213.33334350585938,-12.333333969116211 L-213.33334350585938,-15.333333969116211 L-209.33334350585938,-15.333333969116211 L-209.33334350585938,1.666666030883789 L-213.33334350585938,1.666666030883789 L-213.33334350585938,-1.333333969116211 L-217.33334350585938,-1.333333969116211 L-217.33334350585938,8.666666030883789 L-213.33334350585938,8.666666030883789 L-213.33334350585938,5.666666030883789 L-209.33334350585938,5.666666030883789 L-209.33334350585938,9.666666030883789 A4,4 90 0 1 -213.33334350585938,13.666666030883789 L-217.33334350585938,13.666666030883789 L-247.33334350585938,13.666666030883789 L-248.33334350585938,13.666666030883789 L-248.33334350585938,15.666666030883789 L-256.3333435058594,15.666666030883789 L-256.3333435058594,13.666666030883789 L-257.3333435058594,13.666666030883789 L-261.3333435058594,13.666666030883789 A4,4 90 0 1 -265.3333435058594,9.666666030883789 L-265.3333435058594,5.666666030883789 L-265.3333435058594,-15.333333969116211 L-265.3333435058594,-19.33333396911621 z"/><text style="font-size:10px;fill:#282828;font-family:sans-serif;text-anchor:end" id="svg_57" x="-265.833" y="-27.833"><tspan id="svg_58" x="-219.833" y="-3.833">pitch</tspan></text><text style="font-size:6.666666666666667px;fill:#282828;font-family:sans-serif;text-anchor:end" id="svg_59" x="-265.833" y="-27.833"><tspan id="svg_60" x="-219.833" y="-15.833">name</tspan></text><text style="font-size:6.666666666666667px;fill:#282828;font-family:sans-serif;text-anchor:end" id="svg_61" x="-265.833" y="-27.833"><tspan id="svg_62" x="-219.833" y="5.167">octave</tspan></text></g></g><g id="svg_63"><g id="svg_64" transform="translate(971,169) scale(1.5)"><path style="fill:#77c428;fill-opacity:1;stroke:#57ad02;stroke-width:1;stroke-linecap:round;stroke-opacity:1" id="svg_65" d="m-257.3333435058594,-27.33333396911621 L-197.33334350585938,-27.33333396911621 L-197.33334350585938,-7.333333969116211 L-257.3333435058594,-7.333333969116211 L-257.3333435058594,-15.333333969116211 L-257.3333435058594,-16.33333396911621 L-263.3333435058594,-16.33333396911621 L-263.3333435058594,-13.333333969116211 L-265.3333435058594,-13.333333969116211 L-265.3333435058594,-21.33333396911621 L-263.3333435058594,-21.33333396911621 L-263.3333435058594,-18.33333396911621 L-257.3333435058594,-18.33333396911621 L-257.3333435058594,-19.33333396911621 z"/><text style="font-size:10px;fill:#282828;font-family:sans-serif;text-anchor:start" id="svg_66" x="-265.833" y="-27.833"><tspan id="svg_67" x="-252.833" y="-13.833">re</tspan></text></g></g><g id="svg_68"><g id="svg_69" transform="translate(971,201) scale(1.5)"><path style="fill:#ff5293;fill-opacity:1;stroke:#ff2c76;stroke-width:1;stroke-linecap:round;stroke-opacity:1" id="svg_70" d="m-257.3333435058594,-27.33333396911621 L-197.33334350585938,-27.33333396911621 L-197.33334350585938,-7.333333969116211 L-257.3333435058594,-7.333333969116211 L-257.3333435058594,-15.333333969116211 L-257.3333435058594,-16.33333396911621 L-263.3333435058594,-16.33333396911621 L-263.3333435058594,-13.333333969116211 L-265.3333435058594,-13.333333969116211 L-265.3333435058594,-21.33333396911621 L-263.3333435058594,-21.33333396911621 L-263.3333435058594,-18.33333396911621 L-257.3333435058594,-18.33333396911621 L-257.3333435058594,-19.33333396911621 z"/><text style="font-size:10px;fill:#282828;font-family:sans-serif;text-anchor:start" id="svg_71" x="-265.833" y="-27.833"><tspan id="svg_72" x="-252.833" y="-13.833">5</tspan></text></g></g><g id="svg_73"><g id="svg_74"><g id="svg_75" transform="translate(412,263) scale(1.5)"><path style="fill:#ff8b2d;fill-opacity:1;stroke:#e86b0e;stroke-width:1;stroke-linecap:round;stroke-opacity:1" id="svg_76" d="m-265.3333435058594,-19.33333396911621 L-265.3333435058594,-23.33333396911621 A4,4 90 0 1 -261.3333435058594,-27.33333396911621 L-257.3333435058594,-27.33333396911621 L-257.3333435058594,-25.33333396911621 L-247.33334350585938,-25.33333396911621 L-247.33334350585938,-27.33333396911621 L-238.33334350585938,-27.33333396911621 L-178.33334350585938,-27.33333396911621 L-174.33334350585938,-27.33333396911621 A4,4 90 0 1 -170.33334350585938,-23.33333396911621 L-170.33334350585938,-19.33333396911621 L-174.33334350585938,-19.33333396911621 L-174.33334350585938,-22.33333396911621 L-178.33334350585938,-22.33333396911621 L-178.33334350585938,-12.333333969116211 L-174.33334350585938,-12.333333969116211 L-174.33334350585938,-15.333333969116211 L-170.33334350585938,-15.333333969116211 L-170.33334350585938,-11.333333969116211 A4,4 90 0 1 -174.33334350585938,-7.333333969116211 L-178.33334350585938,-7.333333969116211 L-238.33334350585938,-7.333333969116211 L-239.33334350585938,-7.333333969116211 L-239.33334350585938,-5.333333969116211 L-247.33334350585938,-5.333333969116211 L-247.33334350585938,-7.333333969116211 L-248.33334350585938,-7.333333969116211 L-252.33334350585938,-7.333333969116211 A5,5 90 0 0 -257.3333435058594,-2.333333969116211 L-257.3333435058594,1.666666030883789 L-257.3333435058594,5.666666030883789 L-257.3333435058594,47.66666603088379 L-257.3333435058594,51.66666603088379 A5,5 90 0 0 -252.33334350585938,56.66666603088379 L-248.33334350585938,56.66666603088379 L-248.33334350585938,58.66666603088379 L-238.33334350585938,58.66666603088379 L-238.33334350585938,56.66666603088379 L-230.33334350585938,56.66666603088379 L-230.33334350585938,62.66666603088379 L-230.33334350585938,68.66666603088379 L-230.33334350585938,72.66666603088379 A4,4 90 0 1 -234.33334350585938,76.66666603088379 L-238.33334350585938,76.66666603088379 L-247.33334350585938,76.66666603088379 L-248.33334350585938,76.66666603088379 L-248.33334350585938,78.66666603088379 L-256.3333435058594,78.66666603088379 L-256.3333435058594,76.66666603088379 L-257.3333435058594,76.66666603088379 L-261.3333435058594,76.66666603088379 A4,4 90 0 1 -265.3333435058594,72.66666603088379 L-265.3333435058594,68.66666603088379 z"/><text style="font-size:10px;fill:#282828;font-family:sans-serif;text-anchor:start" id="svg_77" x="-265.833" y="-27.833"><tspan id="svg_78" x="-245.833" y="-12.833">note</tspan></text><text style="font-size:6.666666666666667px;fill:#282828;font-family:sans-serif;text-anchor:end" id="svg_79" x="-265.833" y="-27.833"><tspan id="svg_80" x="-180.833" y="-15.833">value</tspan></text></g></g></g><g id="svg_88"><g id="svg_89" transform="translate(544,263) scale(1.5)"><path style="fill:#ff5293;fill-opacity:1;stroke:#ff2c76;stroke-width:1;stroke-linecap:round;stroke-opacity:1" id="svg_90" d="m-257.3333435058594,-19.33333396911621 L-257.3333435058594,-23.33333396911621 A4,4 90 0 1 -253.33334350585938,-27.33333396911621 L-249.33334350585938,-27.33333396911621 L-239.33334350585938,-27.33333396911621 L-209.33334350585938,-27.33333396911621 L-205.33334350585938,-27.33333396911621 A4,4 90 0 1 -201.33334350585938,-23.33333396911621 L-201.33334350585938,-19.33333396911621 L-205.33334350585938,-19.33333396911621 L-205.33334350585938,-22.33333396911621 L-209.33334350585938,-22.33333396911621 L-209.33334350585938,-12.333333969116211 L-205.33334350585938,-12.333333969116211 L-205.33334350585938,-15.333333969116211 L-201.33334350585938,-15.333333969116211 L-201.33334350585938,1.666666030883789 L-205.33334350585938,1.666666030883789 L-205.33334350585938,-1.333333969116211 L-209.33334350585938,-1.333333969116211 L-209.33334350585938,8.666666030883789 L-205.33334350585938,8.666666030883789 L-205.33334350585938,5.666666030883789 L-201.33334350585938,5.666666030883789 L-201.33334350585938,9.666666030883789 A4,4 90 0 1 -205.33334350585938,13.666666030883789 L-209.33334350585938,13.666666030883789 L-239.33334350585938,13.666666030883789 L-249.33334350585938,13.666666030883789 L-253.33334350585938,13.666666030883789 A4,4 90 0 1 -257.3333435058594,9.666666030883789 L-257.3333435058594,5.666666030883789 L-257.3333435058594,-15.333333969116211 L-257.3333435058594,-16.33333396911621 L-263.3333435058594,-16.33333396911621 L-263.3333435058594,-13.333333969116211 L-265.3333435058594,-13.333333969116211 L-265.3333435058594,-21.33333396911621 L-263.3333435058594,-21.33333396911621 L-263.3333435058594,-18.33333396911621 L-257.3333435058594,-18.33333396911621 L-257.3333435058594,-19.33333396911621 z"/><text style="font-size:9px;fill:#282828;font-family:sans-serif;text-anchor:end" id="svg_91" x="-265.833" y="-27.833"><tspan id="svg_92" x="-211.833" y="-4.833">➗</tspan></text></g></g><g id="svg_97"><g id="svg_98" transform="translate(630,263) scale(1.5)"><path style="fill:#ff5293;fill-opacity:1;stroke:#ff2c76;stroke-width:1;stroke-linecap:round;stroke-opacity:1" id="svg_99" d="m-257.3333435058594,-27.33333396911621 L-197.33334350585938,-27.33333396911621 L-197.33334350585938,-7.333333969116211 L-257.3333435058594,-7.333333969116211 L-257.3333435058594,-15.333333969116211 L-257.3333435058594,-16.33333396911621 L-263.3333435058594,-16.33333396911621 L-263.3333435058594,-13.333333969116211 L-265.3333435058594,-13.333333969116211 L-265.3333435058594,-21.33333396911621 L-263.3333435058594,-21.33333396911621 L-263.3333435058594,-18.33333396911621 L-257.3333435058594,-18.33333396911621 L-257.3333435058594,-19.33333396911621 z"/><text style="font-size:10px;fill:#282828;font-family:sans-serif;text-anchor:start" id="svg_100" x="-265.833" y="-27.833"><tspan id="svg_101" x="-252.833" y="-13.833">1</tspan></text></g></g><g id="svg_102"><g id="svg_103" transform="translate(630,295) scale(1.5)"><path style="fill:#ff5293;fill-opacity:1;stroke:#ff2c76;stroke-width:1;stroke-linecap:round;stroke-opacity:1" id="svg_104" d="m-257.3333435058594,-27.33333396911621 L-197.33334350585938,-27.33333396911621 L-197.33334350585938,-7.333333969116211 L-257.3333435058594,-7.333333969116211 L-257.3333435058594,-15.333333969116211 L-257.3333435058594,-16.33333396911621 L-263.3333435058594,-16.33333396911621 L-263.3333435058594,-13.333333969116211 L-265.3333435058594,-13.333333969116211 L-265.3333435058594,-21.33333396911621 L-263.3333435058594,-21.33333396911621 L-263.3333435058594,-18.33333396911621 L-257.3333435058594,-18.33333396911621 L-257.3333435058594,-19.33333396911621 z"/><text style="font-size:10px;fill:#282828;font-family:sans-serif;text-anchor:start" id="svg_105" x="-265.833" y="-27.833"><tspan id="svg_106" x="-252.833" y="-13.833">8</tspan></text></g></g><g id="svg_107"><g id="svg_108" transform="translate(426,295) scale(1.5)"><path style="fill:#b0b0b0;fill-opacity:1;stroke:#a0a0a0;stroke-width:1;stroke-linecap:round;stroke-opacity:1" id="svg_109" d="m-265.3333435058594,-19.33333396911621 L-265.3333435058594,-23.33333396911621 A4,4 90 0 1 -261.3333435058594,-27.33333396911621 L-257.3333435058594,-27.33333396911621 L-257.3333435058594,-25.33333396911621 L-247.33334350585938,-25.33333396911621 L-247.33334350585938,-27.33333396911621 L-227.33334350585938,-27.33333396911621 L-223.33334350585938,-27.33333396911621 A4,4 90 0 1 -219.33334350585938,-23.33333396911621 L-219.33334350585938,-19.33333396911621 L-219.33334350585938,-15.333333969116211 L-219.33334350585938,-11.333333969116211 A4,4 90 0 1 -223.33334350585938,-7.333333969116211 L-227.33334350585938,-7.333333969116211 L-247.33334350585938,-7.333333969116211 L-248.33334350585938,-7.333333969116211 L-248.33334350585938,-5.333333969116211 L-256.3333435058594,-5.333333969116211 L-256.3333435058594,-7.333333969116211 L-257.3333435058594,-7.333333969116211 L-261.3333435058594,-7.333333969116211 A4,4 90 0 1 -265.3333435058594,-11.333333969116211 L-265.3333435058594,-15.333333969116211 z"/><text style="font-size:10px;fill:#282828;font-family:sans-serif;text-anchor:end" id="svg_110" x="-265.833" y="-27.833"><tspan id="svg_111" x="-229.833" y="-13.833">↓</tspan></text></g></g><g id="svg_112"><g id="svg_113" transform="translate(426,327) scale(1.5)"><path style="fill:#77c428;fill-opacity:1;stroke:#57ad02;stroke-width:1;stroke-linecap:round;stroke-opacity:1" id="svg_114" d="m-265.3333435058594,-19.33333396911621 L-265.3333435058594,-23.33333396911621 A4,4 90 0 1 -261.3333435058594,-27.33333396911621 L-257.3333435058594,-27.33333396911621 L-257.3333435058594,-25.33333396911621 L-247.33334350585938,-25.33333396911621 L-247.33334350585938,-27.33333396911621 L-217.33334350585938,-27.33333396911621 L-213.33334350585938,-27.33333396911621 A4,4 90 0 1 -209.33334350585938,-23.33333396911621 L-209.33334350585938,-19.33333396911621 L-213.33334350585938,-19.33333396911621 L-213.33334350585938,-22.33333396911621 L-217.33334350585938,-22.33333396911621 L-217.33334350585938,-12.333333969116211 L-213.33334350585938,-12.333333969116211 L-213.33334350585938,-15.333333969116211 L-209.33334350585938,-15.333333969116211 L-209.33334350585938,1.666666030883789 L-213.33334350585938,1.666666030883789 L-213.33334350585938,-1.333333969116211 L-217.33334350585938,-1.333333969116211 L-217.33334350585938,8.666666030883789 L-213.33334350585938,8.666666030883789 L-213.33334350585938,5.666666030883789 L-209.33334350585938,5.666666030883789 L-209.33334350585938,9.666666030883789 A4,4 90 0 1 -213.33334350585938,13.666666030883789 L-217.33334350585938,13.666666030883789 L-247.33334350585938,13.666666030883789 L-248.33334350585938,13.666666030883789 L-248.33334350585938,15.666666030883789 L-256.3333435058594,15.666666030883789 L-256.3333435058594,13.666666030883789 L-257.3333435058594,13.666666030883789 L-261.3333435058594,13.666666030883789 A4,4 90 0 1 -265.3333435058594,9.666666030883789 L-265.3333435058594,5.666666030883789 L-265.3333435058594,-15.333333969116211 L-265.3333435058594,-19.33333396911621 z"/><text style="font-size:10px;fill:#282828;font-family:sans-serif;text-anchor:end" id="svg_115" x="-265.833" y="-27.833"><tspan id="svg_116" x="-219.833" y="-3.833">pitch</tspan></text><text style="font-size:6.666666666666667px;fill:#282828;font-family:sans-serif;text-anchor:end" id="svg_117" x="-265.833" y="-27.833"><tspan id="svg_118" x="-219.833" y="-15.833">name</tspan></text><text style="font-size:6.666666666666667px;fill:#282828;font-family:sans-serif;text-anchor:end" id="svg_119" x="-265.833" y="-27.833"><tspan id="svg_120" x="-219.833" y="5.167">octave</tspan></text></g></g><g id="svg_121"><g id="svg_122" transform="translate(500,327) scale(1.5)"><path style="fill:#77c428;fill-opacity:1;stroke:#57ad02;stroke-width:1;stroke-linecap:round;stroke-opacity:1" id="svg_123" d="m-257.3333435058594,-27.33333396911621 L-197.33334350585938,-27.33333396911621 L-197.33334350585938,-7.333333969116211 L-257.3333435058594,-7.333333969116211 L-257.3333435058594,-15.333333969116211 L-257.3333435058594,-16.33333396911621 L-263.3333435058594,-16.33333396911621 L-263.3333435058594,-13.333333969116211 L-265.3333435058594,-13.333333969116211 L-265.3333435058594,-21.33333396911621 L-263.3333435058594,-21.33333396911621 L-263.3333435058594,-18.33333396911621 L-257.3333435058594,-18.33333396911621 L-257.3333435058594,-19.33333396911621 z"/><text style="font-size:10px;fill:#282828;font-family:sans-serif;text-anchor:start" id="svg_124" x="-265.833" y="-27.833"><tspan id="svg_125" x="-252.833" y="-13.833">mi</tspan></text></g></g><g id="svg_126"><g id="svg_127" transform="translate(500,359) scale(1.5)"><path style="fill:#ff5293;fill-opacity:1;stroke:#ff2c76;stroke-width:1;stroke-linecap:round;stroke-opacity:1" id="svg_128" d="m-257.3333435058594,-27.33333396911621 L-197.33334350585938,-27.33333396911621 L-197.33334350585938,-7.333333969116211 L-257.3333435058594,-7.333333969116211 L-257.3333435058594,-15.333333969116211 L-257.3333435058594,-16.33333396911621 L-263.3333435058594,-16.33333396911621 L-263.3333435058594,-13.333333969116211 L-265.3333435058594,-13.333333969116211 L-265.3333435058594,-21.33333396911621 L-263.3333435058594,-21.33333396911621 L-263.3333435058594,-18.33333396911621 L-257.3333435058594,-18.33333396911621 L-257.3333435058594,-19.33333396911621 z"/><text style="font-size:10px;fill:#282828;font-family:sans-serif;text-anchor:start" id="svg_129" x="-265.833" y="-27.833"><tspan id="svg_130" x="-252.833" y="-13.833">5</tspan></text></g></g><g id="svg_131"><g id="svg_132"><g id="svg_133" transform="translate(412,105) scale(1.5)"><path style="fill:#ff8b2d;fill-opacity:1;stroke:#e86b0e;stroke-width:1;stroke-linecap:round;stroke-opacity:1" id="svg_134" d="m-265.3333435058594,-19.33333396911621 L-265.3333435058594,-23.33333396911621 A4,4 90 0 1 -261.3333435058594,-27.33333396911621 L-257.3333435058594,-27.33333396911621 L-257.3333435058594,-25.33333396911621 L-247.33334350585938,-25.33333396911621 L-247.33334350585938,-27.33333396911621 L-238.33334350585938,-27.33333396911621 L-178.33334350585938,-27.33333396911621 L-174.33334350585938,-27.33333396911621 A4,4 90 0 1 -170.33334350585938,-23.33333396911621 L-170.33334350585938,-19.33333396911621 L-174.33334350585938,-19.33333396911621 L-174.33334350585938,-22.33333396911621 L-178.33334350585938,-22.33333396911621 L-178.33334350585938,-12.333333969116211 L-174.33334350585938,-12.333333969116211 L-174.33334350585938,-15.333333969116211 L-170.33334350585938,-15.333333969116211 L-170.33334350585938,-11.333333969116211 A4,4 90 0 1 -174.33334350585938,-7.333333969116211 L-178.33334350585938,-7.333333969116211 L-238.33334350585938,-7.333333969116211 L-239.33334350585938,-7.333333969116211 L-239.33334350585938,-5.333333969116211 L-247.33334350585938,-5.333333969116211 L-247.33334350585938,-7.333333969116211 L-248.33334350585938,-7.333333969116211 L-252.33334350585938,-7.333333969116211 A5,5 90 0 0 -257.3333435058594,-2.333333969116211 L-257.3333435058594,1.666666030883789 L-257.3333435058594,5.666666030883789 L-257.3333435058594,47.66666603088379 L-257.3333435058594,51.66666603088379 A5,5 90 0 0 -252.33334350585938,56.66666603088379 L-248.33334350585938,56.66666603088379 L-248.33334350585938,58.66666603088379 L-238.33334350585938,58.66666603088379 L-238.33334350585938,56.66666603088379 L-230.33334350585938,56.66666603088379 L-230.33334350585938,62.66666603088379 L-230.33334350585938,68.66666603088379 L-230.33334350585938,72.66666603088379 A4,4 90 0 1 -234.33334350585938,76.66666603088379 L-238.33334350585938,76.66666603088379 L-247.33334350585938,76.66666603088379 L-248.33334350585938,76.66666603088379 L-248.33334350585938,78.66666603088379 L-256.3333435058594,78.66666603088379 L-256.3333435058594,76.66666603088379 L-257.3333435058594,76.66666603088379 L-261.3333435058594,76.66666603088379 A4,4 90 0 1 -265.3333435058594,72.66666603088379 L-265.3333435058594,68.66666603088379 z"/><text style="font-size:10px;fill:#282828;font-family:sans-serif;text-anchor:start" id="svg_135" x="-265.833" y="-27.833"><tspan id="svg_136" x="-245.833" y="-12.833">note</tspan></text><text style="font-size:6.666666666666667px;fill:#282828;font-family:sans-serif;text-anchor:end" id="svg_137" x="-265.833" y="-27.833"><tspan id="svg_138" x="-180.833" y="-15.833">value</tspan></text></g></g></g><g id="svg_146"><g id="svg_147" transform="translate(544,105) scale(1.5)"><path style="fill:#ff5293;fill-opacity:1;stroke:#ff2c76;stroke-width:1;stroke-linecap:round;stroke-opacity:1" id="svg_148" d="m-257.3333435058594,-19.33333396911621 L-257.3333435058594,-23.33333396911621 A4,4 90 0 1 -253.33334350585938,-27.33333396911621 L-249.33334350585938,-27.33333396911621 L-239.33334350585938,-27.33333396911621 L-209.33334350585938,-27.33333396911621 L-205.33334350585938,-27.33333396911621 A4,4 90 0 1 -201.33334350585938,-23.33333396911621 L-201.33334350585938,-19.33333396911621 L-205.33334350585938,-19.33333396911621 L-205.33334350585938,-22.33333396911621 L-209.33334350585938,-22.33333396911621 L-209.33334350585938,-12.333333969116211 L-205.33334350585938,-12.333333969116211 L-205.33334350585938,-15.333333969116211 L-201.33334350585938,-15.333333969116211 L-201.33334350585938,1.666666030883789 L-205.33334350585938,1.666666030883789 L-205.33334350585938,-1.333333969116211 L-209.33334350585938,-1.333333969116211 L-209.33334350585938,8.666666030883789 L-205.33334350585938,8.666666030883789 L-205.33334350585938,5.666666030883789 L-201.33334350585938,5.666666030883789 L-201.33334350585938,9.666666030883789 A4,4 90 0 1 -205.33334350585938,13.666666030883789 L-209.33334350585938,13.666666030883789 L-239.33334350585938,13.666666030883789 L-249.33334350585938,13.666666030883789 L-253.33334350585938,13.666666030883789 A4,4 90 0 1 -257.3333435058594,9.666666030883789 L-257.3333435058594,5.666666030883789 L-257.3333435058594,-15.333333969116211 L-257.3333435058594,-16.33333396911621 L-263.3333435058594,-16.33333396911621 L-263.3333435058594,-13.333333969116211 L-265.3333435058594,-13.333333969116211 L-265.3333435058594,-21.33333396911621 L-263.3333435058594,-21.33333396911621 L-263.3333435058594,-18.33333396911621 L-257.3333435058594,-18.33333396911621 L-257.3333435058594,-19.33333396911621 z"/><text style="font-size:9px;fill:#282828;font-family:sans-serif;text-anchor:end" id="svg_149" x="-265.833" y="-27.833"><tspan id="svg_150" x="-211.833" y="-4.833">➗</tspan></text></g></g><g id="svg_155"><g id="svg_156" transform="translate(630,105) scale(1.5)"><path style="fill:#ff5293;fill-opacity:1;stroke:#ff2c76;stroke-width:1;stroke-linecap:round;stroke-opacity:1" id="svg_157" d="m-257.3333435058594,-27.33333396911621 L-197.33334350585938,-27.33333396911621 L-197.33334350585938,-7.333333969116211 L-257.3333435058594,-7.333333969116211 L-257.3333435058594,-15.333333969116211 L-257.3333435058594,-16.33333396911621 L-263.3333435058594,-16.33333396911621 L-263.3333435058594,-13.333333969116211 L-265.3333435058594,-13.333333969116211 L-265.3333435058594,-21.33333396911621 L-263.3333435058594,-21.33333396911621 L-263.3333435058594,-18.33333396911621 L-257.3333435058594,-18.33333396911621 L-257.3333435058594,-19.33333396911621 z"/><text style="font-size:10px;fill:#282828;font-family:sans-serif;text-anchor:start" id="svg_158" x="-265.833" y="-27.833"><tspan id="svg_159" x="-252.833" y="-13.833">1</tspan></text></g></g><g id="svg_160"><g id="svg_161" transform="translate(426,137) scale(1.5)"><path style="fill:#b0b0b0;fill-opacity:1;stroke:#a0a0a0;stroke-width:1;stroke-linecap:round;stroke-opacity:1" id="svg_162" d="m-265.3333435058594,-19.33333396911621 L-265.3333435058594,-23.33333396911621 A4,4 90 0 1 -261.3333435058594,-27.33333396911621 L-257.3333435058594,-27.33333396911621 L-257.3333435058594,-25.33333396911621 L-247.33334350585938,-25.33333396911621 L-247.33334350585938,-27.33333396911621 L-227.33334350585938,-27.33333396911621 L-223.33334350585938,-27.33333396911621 A4,4 90 0 1 -219.33334350585938,-23.33333396911621 L-219.33334350585938,-19.33333396911621 L-219.33334350585938,-15.333333969116211 L-219.33334350585938,-11.333333969116211 A4,4 90 0 1 -223.33334350585938,-7.333333969116211 L-227.33334350585938,-7.333333969116211 L-247.33334350585938,-7.333333969116211 L-248.33334350585938,-7.333333969116211 L-248.33334350585938,-5.333333969116211 L-256.3333435058594,-5.333333969116211 L-256.3333435058594,-7.333333969116211 L-257.3333435058594,-7.333333969116211 L-261.3333435058594,-7.333333969116211 A4,4 90 0 1 -265.3333435058594,-11.333333969116211 L-265.3333435058594,-15.333333969116211 z"/><text style="font-size:10px;fill:#282828;font-family:sans-serif;text-anchor:end" id="svg_163" x="-265.833" y="-27.833"><tspan id="svg_164" x="-229.833" y="-13.833">↓</tspan></text></g></g><g id="svg_165"><g id="svg_166" transform="translate(426,169) scale(1.5)"><path style="fill:#77c428;fill-opacity:1;stroke:#57ad02;stroke-width:1;stroke-linecap:round;stroke-opacity:1" id="svg_167" d="m-265.3333435058594,-19.33333396911621 L-265.3333435058594,-23.33333396911621 A4,4 90 0 1 -261.3333435058594,-27.33333396911621 L-257.3333435058594,-27.33333396911621 L-257.3333435058594,-25.33333396911621 L-247.33334350585938,-25.33333396911621 L-247.33334350585938,-27.33333396911621 L-217.33334350585938,-27.33333396911621 L-213.33334350585938,-27.33333396911621 A4,4 90 0 1 -209.33334350585938,-23.33333396911621 L-209.33334350585938,-19.33333396911621 L-213.33334350585938,-19.33333396911621 L-213.33334350585938,-22.33333396911621 L-217.33334350585938,-22.33333396911621 L-217.33334350585938,-12.333333969116211 L-213.33334350585938,-12.333333969116211 L-213.33334350585938,-15.333333969116211 L-209.33334350585938,-15.333333969116211 L-209.33334350585938,1.666666030883789 L-213.33334350585938,1.666666030883789 L-213.33334350585938,-1.333333969116211 L-217.33334350585938,-1.333333969116211 L-217.33334350585938,8.666666030883789 L-213.33334350585938,8.666666030883789 L-213.33334350585938,5.666666030883789 L-209.33334350585938,5.666666030883789 L-209.33334350585938,9.666666030883789 A4,4 90 0 1 -213.33334350585938,13.666666030883789 L-217.33334350585938,13.666666030883789 L-247.33334350585938,13.666666030883789 L-248.33334350585938,13.666666030883789 L-248.33334350585938,15.666666030883789 L-256.3333435058594,15.666666030883789 L-256.3333435058594,13.666666030883789 L-257.3333435058594,13.666666030883789 L-261.3333435058594,13.666666030883789 A4,4 90 0 1 -265.3333435058594,9.666666030883789 L-265.3333435058594,5.666666030883789 L-265.3333435058594,-15.333333969116211 L-265.3333435058594,-19.33333396911621 z"/><text style="font-size:10px;fill:#282828;font-family:sans-serif;text-anchor:end" id="svg_168" x="-265.833" y="-27.833"><tspan id="svg_169" x="-219.833" y="-3.833">pitch</tspan></text><text style="font-size:6.666666666666667px;fill:#282828;font-family:sans-serif;text-anchor:end" id="svg_170" x="-265.833" y="-27.833"><tspan id="svg_171" x="-219.833" y="-15.833">name</tspan></text><text style="font-size:6.666666666666667px;fill:#282828;font-family:sans-serif;text-anchor:end" id="svg_172" x="-265.833" y="-27.833"><tspan id="svg_173" x="-219.833" y="5.167">octave</tspan></text></g></g><g id="svg_174"><g id="svg_175" transform="translate(500,169) scale(1.5)"><path style="fill:#77c428;fill-opacity:1;stroke:#57ad02;stroke-width:1;stroke-linecap:round;stroke-opacity:1" id="svg_176" d="m-257.3333435058594,-27.33333396911621 L-197.33334350585938,-27.33333396911621 L-197.33334350585938,-7.333333969116211 L-257.3333435058594,-7.333333969116211 L-257.3333435058594,-15.333333969116211 L-257.3333435058594,-16.33333396911621 L-263.3333435058594,-16.33333396911621 L-263.3333435058594,-13.333333969116211 L-265.3333435058594,-13.333333969116211 L-265.3333435058594,-21.33333396911621 L-263.3333435058594,-21.33333396911621 L-263.3333435058594,-18.33333396911621 L-257.3333435058594,-18.33333396911621 L-257.3333435058594,-19.33333396911621 z"/><text style="font-size:10px;fill:#282828;font-family:sans-serif;text-anchor:start" id="svg_177" x="-265.833" y="-27.833"><tspan id="svg_178" x="-252.833" y="-13.833">re</tspan></text></g></g><g id="svg_179"><g id="svg_180" transform="translate(500,201) scale(1.5)"><path style="fill:#ff5293;fill-opacity:1;stroke:#ff2c76;stroke-width:1;stroke-linecap:round;stroke-opacity:1" id="svg_181" d="m-257.3333435058594,-27.33333396911621 L-197.33334350585938,-27.33333396911621 L-197.33334350585938,-7.333333969116211 L-257.3333435058594,-7.333333969116211 L-257.3333435058594,-15.333333969116211 L-257.3333435058594,-16.33333396911621 L-263.3333435058594,-16.33333396911621 L-263.3333435058594,-13.333333969116211 L-265.3333435058594,-13.333333969116211 L-265.3333435058594,-21.33333396911621 L-263.3333435058594,-21.33333396911621 L-263.3333435058594,-18.33333396911621 L-257.3333435058594,-18.33333396911621 L-257.3333435058594,-19.33333396911621 z"/><text style="font-size:10px;fill:#282828;font-family:sans-serif;text-anchor:start" id="svg_182" x="-265.833" y="-27.833"><tspan id="svg_183" x="-252.833" y="-13.833">5</tspan></text></g></g><g id="svg_184"><g id="svg_185" transform="translate(398,41) scale(1.5)"><path style="fill:#77c428;fill-opacity:1;stroke:#57ad02;stroke-width:1;stroke-linecap:round;stroke-opacity:1" id="svg_186" d="m-265.3333435058594,-19.33333396911621 L-265.3333435058594,-23.33333396911621 A4,4 90 0 1 -261.3333435058594,-27.33333396911621 L-257.3333435058594,-27.33333396911621 L-257.3333435058594,-25.33333396911621 L-247.33334350585938,-25.33333396911621 L-247.33334350585938,-27.33333396911621 L-238.33334350585938,-27.33333396911621 L-157.73275756835938,-27.33333396911621 L-153.73275756835938,-27.33333396911621 A4,4 90 0 1 -149.73275756835938,-23.33333396911621 L-149.73275756835938,-19.33333396911621 L-153.73275756835938,-19.33333396911621 L-153.73275756835938,-22.33333396911621 L-157.73275756835938,-22.33333396911621 L-157.73275756835938,-12.333333969116211 L-153.73275756835938,-12.333333969116211 L-153.73275756835938,-15.333333969116211 L-149.73275756835938,-15.333333969116211 L-149.73275756835938,-11.333333969116211 A4,4 90 0 1 -153.73275756835938,-7.333333969116211 L-157.73275756835938,-7.333333969116211 L-238.33334350585938,-7.333333969116211 L-239.33334350585938,-7.333333969116211 L-239.33334350585938,-5.333333969116211 L-247.33334350585938,-5.333333969116211 L-247.33334350585938,-7.333333969116211 L-248.33334350585938,-7.333333969116211 L-252.33334350585938,-7.333333969116211 A5,5 90 0 0 -257.3333435058594,-2.333333969116211 L-257.3333435058594,1.666666030883789 L-257.3333435058594,5.666666030883789 L-257.3333435058594,215.6666660308838 L-257.3333435058594,219.6666660308838 A5,5 90 0 0 -252.33334350585938,224.6666660308838 L-248.33334350585938,224.6666660308838 L-248.33334350585938,226.6666660308838 L-238.33334350585938,226.6666660308838 L-238.33334350585938,224.6666660308838 L-230.33334350585938,224.6666660308838 L-230.33334350585938,230.6666660308838 L-230.33334350585938,236.6666660308838 L-230.33334350585938,240.6666660308838 A4,4 90 0 1 -234.33334350585938,244.6666660308838 L-238.33334350585938,244.6666660308838 L-247.33334350585938,244.6666660308838 L-248.33334350585938,244.6666660308838 L-248.33334350585938,246.6666660308838 L-256.3333435058594,246.6666660308838 L-256.3333435058594,244.6666660308838 L-257.3333435058594,244.6666660308838 L-261.3333435058594,244.6666660308838 A4,4 90 0 1 -265.3333435058594,240.6666660308838 L-265.3333435058594,236.6666660308838 z"/><text style="font-size:10px;fill:#282828;font-family:sans-serif;text-anchor:start" id="svg_187" x="-265.833" y="-27.833"><tspan id="svg_188" x="-260.833" y="-12.833">semi-tone transpose</tspan></text></g></g><g id="svg_191"><g id="svg_192" transform="translate(561,41) scale(1.5)"><path style="fill:#ff5293;fill-opacity:1;stroke:#ff2c76;stroke-width:1;stroke-linecap:round;stroke-opacity:1" id="svg_193" d="m-257.3333435058594,-19.33333396911621 L-257.3333435058594,-23.33333396911621 A4,4 90 0 1 -253.33334350585938,-27.33333396911621 L-249.33334350585938,-27.33333396911621 L-239.33334350585938,-27.33333396911621 L-209.33334350585938,-27.33333396911621 L-205.33334350585938,-27.33333396911621 A4,4 90 0 1 -201.33334350585938,-23.33333396911621 L-201.33334350585938,-19.33333396911621 L-205.33334350585938,-19.33333396911621 L-205.33334350585938,-22.33333396911621 L-209.33334350585938,-22.33333396911621 L-209.33334350585938,-12.333333969116211 L-205.33334350585938,-12.333333969116211 L-205.33334350585938,-15.333333969116211 L-201.33334350585938,-15.333333969116211 L-201.33334350585938,1.666666030883789 L-205.33334350585938,1.666666030883789 L-205.33334350585938,-1.333333969116211 L-209.33334350585938,-1.333333969116211 L-209.33334350585938,8.666666030883789 L-205.33334350585938,8.666666030883789 L-205.33334350585938,5.666666030883789 L-201.33334350585938,5.666666030883789 L-201.33334350585938,9.666666030883789 A4,4 90 0 1 -205.33334350585938,13.666666030883789 L-209.33334350585938,13.666666030883789 L-239.33334350585938,13.666666030883789 L-249.33334350585938,13.666666030883789 L-253.33334350585938,13.666666030883789 A4,4 90 0 1 -257.3333435058594,9.666666030883789 L-257.3333435058594,5.666666030883789 L-257.3333435058594,-15.333333969116211 L-257.3333435058594,-16.33333396911621 L-263.3333435058594,-16.33333396911621 L-263.3333435058594,-13.333333969116211 L-265.3333435058594,-13.333333969116211 L-265.3333435058594,-21.33333396911621 L-263.3333435058594,-21.33333396911621 L-263.3333435058594,-18.33333396911621 L-257.3333435058594,-18.33333396911621 L-257.3333435058594,-19.33333396911621 z"/><text style="font-size:14px;fill:#282828;font-family:sans-serif;text-anchor:end" id="svg_194" x="-265.833" y="-27.833"><tspan id="svg_195" x="-211.833" y="-3.833">+</tspan></text></g></g><g id="svg_200"><g id="svg_201" transform="translate(647,41) scale(1.5)"><path style="fill:#ff5293;fill-opacity:1;stroke:#ff2c76;stroke-width:1;stroke-linecap:round;stroke-opacity:1" id="svg_202" d="m-257.3333435058594,-27.33333396911621 L-197.33334350585938,-27.33333396911621 L-197.33334350585938,-7.333333969116211 L-257.3333435058594,-7.333333969116211 L-257.3333435058594,-15.333333969116211 L-257.3333435058594,-16.33333396911621 L-263.3333435058594,-16.33333396911621 L-263.3333435058594,-13.333333969116211 L-265.3333435058594,-13.333333969116211 L-265.3333435058594,-21.33333396911621 L-263.3333435058594,-21.33333396911621 L-263.3333435058594,-18.33333396911621 L-257.3333435058594,-18.33333396911621 L-257.3333435058594,-19.33333396911621 z"/><text style="font-size:10px;fill:#282828;font-family:sans-serif;text-anchor:start" id="svg_203" x="-265.833" y="-27.833"><tspan id="svg_204" x="-252.833" y="-13.833">1</tspan></text></g></g><g id="svg_205"><g id="svg_206" transform="translate(647,73) scale(1.5)"><path style="fill:#ff5293;fill-opacity:1;stroke:#ff2c76;stroke-width:1;stroke-linecap:round;stroke-opacity:1" id="svg_207" d="m-257.3333435058594,-19.33333396911621 L-257.3333435058594,-23.33333396911621 A4,4 90 0 1 -253.33334350585938,-27.33333396911621 L-249.33334350585938,-27.33333396911621 L-239.33334350585938,-27.33333396911621 L-209.33334350585938,-27.33333396911621 L-205.33334350585938,-27.33333396911621 A4,4 90 0 1 -201.33334350585938,-23.33333396911621 L-201.33334350585938,-19.33333396911621 L-205.33334350585938,-19.33333396911621 L-205.33334350585938,-22.33333396911621 L-209.33334350585938,-22.33333396911621 L-209.33334350585938,-12.333333969116211 L-205.33334350585938,-12.333333969116211 L-205.33334350585938,-15.333333969116211 L-201.33334350585938,-15.333333969116211 L-201.33334350585938,1.666666030883789 L-205.33334350585938,1.666666030883789 L-205.33334350585938,-1.333333969116211 L-209.33334350585938,-1.333333969116211 L-209.33334350585938,8.666666030883789 L-205.33334350585938,8.666666030883789 L-205.33334350585938,5.666666030883789 L-201.33334350585938,5.666666030883789 L-201.33334350585938,9.666666030883789 A4,4 90 0 1 -205.33334350585938,13.666666030883789 L-209.33334350585938,13.666666030883789 L-239.33334350585938,13.666666030883789 L-249.33334350585938,13.666666030883789 L-253.33334350585938,13.666666030883789 A4,4 90 0 1 -257.3333435058594,9.666666030883789 L-257.3333435058594,5.666666030883789 L-257.3333435058594,-15.333333969116211 L-257.3333435058594,-16.33333396911621 L-263.3333435058594,-16.33333396911621 L-263.3333435058594,-13.333333969116211 L-265.3333435058594,-13.333333969116211 L-265.3333435058594,-21.33333396911621 L-263.3333435058594,-21.33333396911621 L-263.3333435058594,-18.33333396911621 L-257.3333435058594,-18.33333396911621 L-257.3333435058594,-19.33333396911621 z"/><text style="font-size:14px;fill:#282828;font-family:sans-serif;text-anchor:end" id="svg_208" x="-265.833" y="-27.833"><tspan id="svg_209" x="-211.833" y="-3.833">×</tspan></text></g></g><g id="svg_214"><g id="svg_215" transform="translate(733,73) scale(1.5)"><path style="fill:#ff5293;fill-opacity:1;stroke:#ff2c76;stroke-width:1;stroke-linecap:round;stroke-opacity:1" id="svg_216" d="m-257.3333435058594,-27.33333396911621 L-197.33334350585938,-27.33333396911621 L-197.33334350585938,-7.333333969116211 L-257.3333435058594,-7.333333969116211 L-257.3333435058594,-15.333333969116211 L-257.3333435058594,-16.33333396911621 L-263.3333435058594,-16.33333396911621 L-263.3333435058594,-13.333333969116211 L-265.3333435058594,-13.333333969116211 L-265.3333435058594,-21.33333396911621 L-263.3333435058594,-21.33333396911621 L-263.3333435058594,-18.33333396911621 L-257.3333435058594,-18.33333396911621 L-257.3333435058594,-19.33333396911621 z"/><text style="font-size:10px;fill:#282828;font-family:sans-serif;text-anchor:start" id="svg_217" x="-265.833" y="-27.833"><tspan id="svg_218" x="-252.833" y="-13.833">1</tspan></text></g></g><g id="svg_219"><g id="svg_220" transform="translate(733,105) scale(1.5)"><path style="fill:#ff5293;fill-opacity:1;stroke:#ff2c76;stroke-width:1;stroke-linecap:round;stroke-opacity:1" id="svg_221" d="m-257.3333435058594,-27.33333396911621 L-197.33334350585938,-27.33333396911621 L-197.33334350585938,-7.333333969116211 L-257.3333435058594,-7.333333969116211 L-257.3333435058594,-15.333333969116211 L-257.3333435058594,-16.33333396911621 L-263.3333435058594,-16.33333396911621 L-263.3333435058594,-13.333333969116211 L-265.3333435058594,-13.333333969116211 L-265.3333435058594,-21.33333396911621 L-263.3333435058594,-21.33333396911621 L-263.3333435058594,-18.33333396911621 L-257.3333435058594,-18.33333396911621 L-257.3333435058594,-19.33333396911621 z"/><text style="font-size:10px;fill:#282828;font-family:sans-serif;text-anchor:start" id="svg_222" x="-265.833" y="-27.833"><tspan id="svg_223" x="-252.833" y="-13.833">12</tspan></text></g></g><g id="svg_224"><g id="svg_225" transform="translate(412,73) scale(1.5)"><path style="fill:#b0b0b0;fill-opacity:1;stroke:#a0a0a0;stroke-width:1;stroke-linecap:round;stroke-opacity:1" id="svg_226" d="m-265.3333435058594,-19.33333396911621 L-265.3333435058594,-23.33333396911621 A4,4 90 0 1 -261.3333435058594,-27.33333396911621 L-257.3333435058594,-27.33333396911621 L-257.3333435058594,-25.33333396911621 L-247.33334350585938,-25.33333396911621 L-247.33334350585938,-27.33333396911621 L-227.33334350585938,-27.33333396911621 L-223.33334350585938,-27.33333396911621 A4,4 90 0 1 -219.33334350585938,-23.33333396911621 L-219.33334350585938,-19.33333396911621 L-219.33334350585938,-15.333333969116211 L-219.33334350585938,-11.333333969116211 A4,4 90 0 1 -223.33334350585938,-7.333333969116211 L-227.33334350585938,-7.333333969116211 L-247.33334350585938,-7.333333969116211 L-248.33334350585938,-7.333333969116211 L-248.33334350585938,-5.333333969116211 L-256.3333435058594,-5.333333969116211 L-256.3333435058594,-7.333333969116211 L-257.3333435058594,-7.333333969116211 L-261.3333435058594,-7.333333969116211 A4,4 90 0 1 -265.3333435058594,-11.333333969116211 L-265.3333435058594,-15.333333969116211 z"/><text style="font-size:10px;fill:#282828;font-family:sans-serif;text-anchor:end" id="svg_227" x="-265.833" y="-27.833"><tspan id="svg_228" x="-229.833" y="-13.833">↓</tspan></text></g></g><g id="svg_229"><g id="svg_230" transform="translate(630,137) scale(1.5)"><path style="fill:#ff5293;fill-opacity:1;stroke:#ff2c76;stroke-width:1;stroke-linecap:round;stroke-opacity:1" id="svg_231" d="m-257.3333435058594,-27.33333396911621 L-197.33334350585938,-27.33333396911621 L-197.33334350585938,-7.333333969116211 L-257.3333435058594,-7.333333969116211 L-257.3333435058594,-15.333333969116211 L-257.3333435058594,-16.33333396911621 L-263.3333435058594,-16.33333396911621 L-263.3333435058594,-13.333333969116211 L-265.3333435058594,-13.333333969116211 L-265.3333435058594,-21.33333396911621 L-263.3333435058594,-21.33333396911621 L-263.3333435058594,-18.33333396911621 L-257.3333435058594,-18.33333396911621 L-257.3333435058594,-19.33333396911621 z"/><text style="font-size:10px;fill:#282828;font-family:sans-serif;text-anchor:start" id="svg_232" x="-265.833" y="-27.833"><tspan id="svg_233" x="-252.833" y="-13.833">8</tspan></text></g></g><g id="svg_234"><g id="svg_235" transform="translate(869,41) scale(1.5)"><path style="fill:#77c428;fill-opacity:1;stroke:#57ad02;stroke-width:1;stroke-linecap:round;stroke-opacity:1" id="svg_236" d="m-265.3333435058594,-19.33333396911621 L-265.3333435058594,-23.33333396911621 A4,4 90 0 1 -261.3333435058594,-27.33333396911621 L-257.3333435058594,-27.33333396911621 L-257.3333435058594,-25.33333396911621 L-247.33334350585938,-25.33333396911621 L-247.33334350585938,-27.33333396911621 L-238.33334350585938,-27.33333396911621 L-151.34603881835938,-27.33333396911621 L-147.34603881835938,-27.33333396911621 A4,4 90 0 1 -143.34603881835938,-23.33333396911621 L-143.34603881835938,-19.33333396911621 L-147.34603881835938,-19.33333396911621 L-147.34603881835938,-22.33333396911621 L-151.34603881835938,-22.33333396911621 L-151.34603881835938,-12.333333969116211 L-147.34603881835938,-12.333333969116211 L-147.34603881835938,-15.333333969116211 L-143.34603881835938,-15.333333969116211 L-143.34603881835938,-11.333333969116211 A4,4 90 0 1 -147.34603881835938,-7.333333969116211 L-151.34603881835938,-7.333333969116211 L-238.33334350585938,-7.333333969116211 L-239.33334350585938,-7.333333969116211 L-239.33334350585938,-5.333333969116211 L-247.33334350585938,-5.333333969116211 L-247.33334350585938,-7.333333969116211 L-248.33334350585938,-7.333333969116211 L-252.33334350585938,-7.333333969116211 A5,5 90 0 0 -257.3333435058594,-2.333333969116211 L-257.3333435058594,1.666666030883789 L-257.3333435058594,5.666666030883789 L-257.3333435058594,215.6666660308838 L-257.3333435058594,219.6666660308838 A5,5 90 0 0 -252.33334350585938,224.6666660308838 L-248.33334350585938,224.6666660308838 L-248.33334350585938,226.6666660308838 L-238.33334350585938,226.6666660308838 L-238.33334350585938,224.6666660308838 L-230.33334350585938,224.6666660308838 L-230.33334350585938,230.6666660308838 L-230.33334350585938,236.6666660308838 L-230.33334350585938,240.6666660308838 A4,4 90 0 1 -234.33334350585938,244.6666660308838 L-238.33334350585938,244.6666660308838 L-247.33334350585938,244.6666660308838 L-248.33334350585938,244.6666660308838 L-248.33334350585938,246.6666660308838 L-256.3333435058594,246.6666660308838 L-256.3333435058594,244.6666660308838 L-257.3333435058594,244.6666660308838 L-261.3333435058594,244.6666660308838 A4,4 90 0 1 -265.3333435058594,240.6666660308838 L-265.3333435058594,236.6666660308838 z"/><text style="font-size:10px;fill:#282828;font-family:sans-serif;text-anchor:start" id="svg_237" x="-265.833" y="-27.833"><tspan id="svg_238" x="-260.833" y="-12.833">scalar transpose (+/–)</tspan></text></g></g><g id="svg_241"><g id="svg_242" transform="translate(1041,41) scale(1.5)"><path style="fill:#ff5293;fill-opacity:1;stroke:#ff2c76;stroke-width:1;stroke-linecap:round;stroke-opacity:1" id="svg_243" d="m-257.3333435058594,-19.33333396911621 L-257.3333435058594,-23.33333396911621 A4,4 90 0 1 -253.33334350585938,-27.33333396911621 L-249.33334350585938,-27.33333396911621 L-239.33334350585938,-27.33333396911621 L-209.33334350585938,-27.33333396911621 L-205.33334350585938,-27.33333396911621 A4,4 90 0 1 -201.33334350585938,-23.33333396911621 L-201.33334350585938,-19.33333396911621 L-205.33334350585938,-19.33333396911621 L-205.33334350585938,-22.33333396911621 L-209.33334350585938,-22.33333396911621 L-209.33334350585938,-12.333333969116211 L-205.33334350585938,-12.333333969116211 L-205.33334350585938,-15.333333969116211 L-201.33334350585938,-15.333333969116211 L-201.33334350585938,1.666666030883789 L-205.33334350585938,1.666666030883789 L-205.33334350585938,-1.333333969116211 L-209.33334350585938,-1.333333969116211 L-209.33334350585938,8.666666030883789 L-205.33334350585938,8.666666030883789 L-205.33334350585938,5.666666030883789 L-201.33334350585938,5.666666030883789 L-201.33334350585938,9.666666030883789 A4,4 90 0 1 -205.33334350585938,13.666666030883789 L-209.33334350585938,13.666666030883789 L-239.33334350585938,13.666666030883789 L-249.33334350585938,13.666666030883789 L-253.33334350585938,13.666666030883789 A4,4 90 0 1 -257.3333435058594,9.666666030883789 L-257.3333435058594,5.666666030883789 L-257.3333435058594,-15.333333969116211 L-257.3333435058594,-16.33333396911621 L-263.3333435058594,-16.33333396911621 L-263.3333435058594,-13.333333969116211 L-265.3333435058594,-13.333333969116211 L-265.3333435058594,-21.33333396911621 L-263.3333435058594,-21.33333396911621 L-263.3333435058594,-18.33333396911621 L-257.3333435058594,-18.33333396911621 L-257.3333435058594,-19.33333396911621 z"/><text style="font-size:14px;fill:#282828;font-family:sans-serif;text-anchor:end" id="svg_244" x="-265.833" y="-27.833"><tspan id="svg_245" x="-211.833" y="-3.833">+</tspan></text></g></g><g id="svg_250"><g id="svg_251" transform="translate(1127,41) scale(1.5)"><path style="fill:#ff5293;fill-opacity:1;stroke:#ff2c76;stroke-width:1;stroke-linecap:round;stroke-opacity:1" id="svg_252" d="m-257.3333435058594,-27.33333396911621 L-197.33334350585938,-27.33333396911621 L-197.33334350585938,-7.333333969116211 L-257.3333435058594,-7.333333969116211 L-257.3333435058594,-15.333333969116211 L-257.3333435058594,-16.33333396911621 L-263.3333435058594,-16.33333396911621 L-263.3333435058594,-13.333333969116211 L-265.3333435058594,-13.333333969116211 L-265.3333435058594,-21.33333396911621 L-263.3333435058594,-21.33333396911621 L-263.3333435058594,-18.33333396911621 L-257.3333435058594,-18.33333396911621 L-257.3333435058594,-19.33333396911621 z"/><text style="font-size:10px;fill:#282828;font-family:sans-serif;text-anchor:start" id="svg_253" x="-265.833" y="-27.833"><tspan id="svg_254" x="-252.833" y="-13.833">4</tspan></text></g></g><g id="svg_255"><g id="svg_256" transform="translate(1127,73) scale(1.5)"><path style="fill:#ff5293;fill-opacity:1;stroke:#ff2c76;stroke-width:1;stroke-linecap:round;stroke-opacity:1" id="svg_257" d="m-257.3333435058594,-19.33333396911621 L-257.3333435058594,-23.33333396911621 A4,4 90 0 1 -253.33334350585938,-27.33333396911621 L-249.33334350585938,-27.33333396911621 L-239.33334350585938,-27.33333396911621 L-209.33334350585938,-27.33333396911621 L-205.33334350585938,-27.33333396911621 A4,4 90 0 1 -201.33334350585938,-23.33333396911621 L-201.33334350585938,-19.33333396911621 L-205.33334350585938,-19.33333396911621 L-205.33334350585938,-22.33333396911621 L-209.33334350585938,-22.33333396911621 L-209.33334350585938,-12.333333969116211 L-205.33334350585938,-12.333333969116211 L-205.33334350585938,-15.333333969116211 L-201.33334350585938,-15.333333969116211 L-201.33334350585938,1.666666030883789 L-205.33334350585938,1.666666030883789 L-205.33334350585938,-1.333333969116211 L-209.33334350585938,-1.333333969116211 L-209.33334350585938,8.666666030883789 L-205.33334350585938,8.666666030883789 L-205.33334350585938,5.666666030883789 L-201.33334350585938,5.666666030883789 L-201.33334350585938,9.666666030883789 A4,4 90 0 1 -205.33334350585938,13.666666030883789 L-209.33334350585938,13.666666030883789 L-239.33334350585938,13.666666030883789 L-249.33334350585938,13.666666030883789 L-253.33334350585938,13.666666030883789 A4,4 90 0 1 -257.3333435058594,9.666666030883789 L-257.3333435058594,5.666666030883789 L-257.3333435058594,-15.333333969116211 L-257.3333435058594,-16.33333396911621 L-263.3333435058594,-16.33333396911621 L-263.3333435058594,-13.333333969116211 L-265.3333435058594,-13.333333969116211 L-265.3333435058594,-21.33333396911621 L-263.3333435058594,-21.33333396911621 L-263.3333435058594,-18.33333396911621 L-257.3333435058594,-18.33333396911621 L-257.3333435058594,-19.33333396911621 z"/><text style="font-size:14px;fill:#282828;font-family:sans-serif;text-anchor:end" id="svg_258" x="-265.833" y="-27.833"><tspan id="svg_259" x="-211.833" y="-3.833">×</tspan></text></g></g><g id="svg_264"><g id="svg_265" transform="translate(1213,73) scale(1.5)"><path style="fill:#ff5293;fill-opacity:1;stroke:#ff2c76;stroke-width:1;stroke-linecap:round;stroke-opacity:1" id="svg_266" d="m-257.3333435058594,-27.33333396911621 L-197.33334350585938,-27.33333396911621 L-197.33334350585938,-7.333333969116211 L-257.3333435058594,-7.333333969116211 L-257.3333435058594,-15.333333969116211 L-257.3333435058594,-16.33333396911621 L-263.3333435058594,-16.33333396911621 L-263.3333435058594,-13.333333969116211 L-265.3333435058594,-13.333333969116211 L-265.3333435058594,-21.33333396911621 L-263.3333435058594,-21.33333396911621 L-263.3333435058594,-18.33333396911621 L-257.3333435058594,-18.33333396911621 L-257.3333435058594,-19.33333396911621 z"/><text style="font-size:10px;fill:#282828;font-family:sans-serif;text-anchor:start" id="svg_267" x="-265.833" y="-27.833"><tspan id="svg_268" x="-252.833" y="-13.833">0</tspan></text></g></g><g id="svg_269"><g id="svg_270" transform="translate(1213,105) scale(1.5)"><path style="fill:#77c428;fill-opacity:1;stroke:#57ad02;stroke-width:1;stroke-linecap:round;stroke-opacity:1" id="svg_271" d="m-257.3333435058594,-27.33333396911621 L-162.29428100585938,-27.33333396911621 L-162.29428100585938,-7.333333969116211 L-257.3333435058594,-7.333333969116211 L-257.3333435058594,-15.333333969116211 L-257.3333435058594,-16.33333396911621 L-263.3333435058594,-16.33333396911621 L-263.3333435058594,-13.333333969116211 L-265.3333435058594,-13.333333969116211 L-265.3333435058594,-21.33333396911621 L-263.3333435058594,-21.33333396911621 L-263.3333435058594,-18.33333396911621 L-257.3333435058594,-18.33333396911621 L-257.3333435058594,-19.33333396911621 z"/><text style="font-size:10px;fill:#282828;font-family:sans-serif;text-anchor:start" id="svg_272" x="-265.833" y="-27.833"><tspan id="svg_273" x="-252.833" y="-13.833">mode length</tspan></text></g></g><g id="svg_274"><g id="svg_275" transform="translate(883,73) scale(1.5)"><path style="fill:#b0b0b0;fill-opacity:1;stroke:#a0a0a0;stroke-width:1;stroke-linecap:round;stroke-opacity:1" id="svg_276" d="m-265.3333435058594,-19.33333396911621 L-265.3333435058594,-23.33333396911621 A4,4 90 0 1 -261.3333435058594,-27.33333396911621 L-257.3333435058594,-27.33333396911621 L-257.3333435058594,-25.33333396911621 L-247.33334350585938,-25.33333396911621 L-247.33334350585938,-27.33333396911621 L-227.33334350585938,-27.33333396911621 L-223.33334350585938,-27.33333396911621 A4,4 90 0 1 -219.33334350585938,-23.33333396911621 L-219.33334350585938,-19.33333396911621 L-219.33334350585938,-15.333333969116211 L-219.33334350585938,-11.333333969116211 A4,4 90 0 1 -223.33334350585938,-7.333333969116211 L-227.33334350585938,-7.333333969116211 L-247.33334350585938,-7.333333969116211 L-248.33334350585938,-7.333333969116211 L-248.33334350585938,-5.333333969116211 L-256.3333435058594,-5.333333969116211 L-256.3333435058594,-7.333333969116211 L-257.3333435058594,-7.333333969116211 L-261.3333435058594,-7.333333969116211 A4,4 90 0 1 -265.3333435058594,-11.333333969116211 L-265.3333435058594,-15.333333969116211 z"/><text style="font-size:10px;fill:#282828;font-family:sans-serif;text-anchor:end" id="svg_277" x="-265.833" y="-27.833"><tspan id="svg_278" x="-229.833" y="-13.833">↓</tspan></text></g></g><g id="svg_279"><g id="svg_280"><g id="svg_281" transform="translate(883,263) scale(1.5)"><path style="fill:#ff8b2d;fill-opacity:1;stroke:#e86b0e;stroke-width:1;stroke-linecap:round;stroke-opacity:1" id="svg_282" d="m-265.3333435058594,-19.33333396911621 L-265.3333435058594,-23.33333396911621 A4,4 90 0 1 -261.3333435058594,-27.33333396911621 L-257.3333435058594,-27.33333396911621 L-257.3333435058594,-25.33333396911621 L-247.33334350585938,-25.33333396911621 L-247.33334350585938,-27.33333396911621 L-238.33334350585938,-27.33333396911621 L-178.33334350585938,-27.33333396911621 L-174.33334350585938,-27.33333396911621 A4,4 90 0 1 -170.33334350585938,-23.33333396911621 L-170.33334350585938,-19.33333396911621 L-174.33334350585938,-19.33333396911621 L-174.33334350585938,-22.33333396911621 L-178.33334350585938,-22.33333396911621 L-178.33334350585938,-12.333333969116211 L-174.33334350585938,-12.333333969116211 L-174.33334350585938,-15.333333969116211 L-170.33334350585938,-15.333333969116211 L-170.33334350585938,-11.333333969116211 A4,4 90 0 1 -174.33334350585938,-7.333333969116211 L-178.33334350585938,-7.333333969116211 L-238.33334350585938,-7.333333969116211 L-239.33334350585938,-7.333333969116211 L-239.33334350585938,-5.333333969116211 L-247.33334350585938,-5.333333969116211 L-247.33334350585938,-7.333333969116211 L-248.33334350585938,-7.333333969116211 L-252.33334350585938,-7.333333969116211 A5,5 90 0 0 -257.3333435058594,-2.333333969116211 L-257.3333435058594,1.666666030883789 L-257.3333435058594,5.666666030883789 L-257.3333435058594,47.66666603088379 L-257.3333435058594,51.66666603088379 A5,5 90 0 0 -252.33334350585938,56.66666603088379 L-248.33334350585938,56.66666603088379 L-248.33334350585938,58.66666603088379 L-238.33334350585938,58.66666603088379 L-238.33334350585938,56.66666603088379 L-230.33334350585938,56.66666603088379 L-230.33334350585938,62.66666603088379 L-230.33334350585938,68.66666603088379 L-230.33334350585938,72.66666603088379 A4,4 90 0 1 -234.33334350585938,76.66666603088379 L-238.33334350585938,76.66666603088379 L-247.33334350585938,76.66666603088379 L-248.33334350585938,76.66666603088379 L-248.33334350585938,78.66666603088379 L-256.3333435058594,78.66666603088379 L-256.3333435058594,76.66666603088379 L-257.3333435058594,76.66666603088379 L-261.3333435058594,76.66666603088379 A4,4 90 0 1 -265.3333435058594,72.66666603088379 L-265.3333435058594,68.66666603088379 z"/><text style="font-size:10px;fill:#282828;font-family:sans-serif;text-anchor:start" id="svg_283" x="-265.833" y="-27.833"><tspan id="svg_284" x="-245.833" y="-12.833">note</tspan></text><text style="font-size:6.666666666666667px;fill:#282828;font-family:sans-serif;text-anchor:end" id="svg_285" x="-265.833" y="-27.833"><tspan id="svg_286" x="-180.833" y="-15.833">value</tspan></text></g></g></g><g id="svg_294"><g id="svg_295" transform="translate(1015,263) scale(1.5)"><path style="fill:#ff5293;fill-opacity:1;stroke:#ff2c76;stroke-width:1;stroke-linecap:round;stroke-opacity:1" id="svg_296" d="m-257.3333435058594,-19.33333396911621 L-257.3333435058594,-23.33333396911621 A4,4 90 0 1 -253.33334350585938,-27.33333396911621 L-249.33334350585938,-27.33333396911621 L-239.33334350585938,-27.33333396911621 L-209.33334350585938,-27.33333396911621 L-205.33334350585938,-27.33333396911621 A4,4 90 0 1 -201.33334350585938,-23.33333396911621 L-201.33334350585938,-19.33333396911621 L-205.33334350585938,-19.33333396911621 L-205.33334350585938,-22.33333396911621 L-209.33334350585938,-22.33333396911621 L-209.33334350585938,-12.333333969116211 L-205.33334350585938,-12.333333969116211 L-205.33334350585938,-15.333333969116211 L-201.33334350585938,-15.333333969116211 L-201.33334350585938,1.666666030883789 L-205.33334350585938,1.666666030883789 L-205.33334350585938,-1.333333969116211 L-209.33334350585938,-1.333333969116211 L-209.33334350585938,8.666666030883789 L-205.33334350585938,8.666666030883789 L-205.33334350585938,5.666666030883789 L-201.33334350585938,5.666666030883789 L-201.33334350585938,9.666666030883789 A4,4 90 0 1 -205.33334350585938,13.666666030883789 L-209.33334350585938,13.666666030883789 L-239.33334350585938,13.666666030883789 L-249.33334350585938,13.666666030883789 L-253.33334350585938,13.666666030883789 A4,4 90 0 1 -257.3333435058594,9.666666030883789 L-257.3333435058594,5.666666030883789 L-257.3333435058594,-15.333333969116211 L-257.3333435058594,-16.33333396911621 L-263.3333435058594,-16.33333396911621 L-263.3333435058594,-13.333333969116211 L-265.3333435058594,-13.333333969116211 L-265.3333435058594,-21.33333396911621 L-263.3333435058594,-21.33333396911621 L-263.3333435058594,-18.33333396911621 L-257.3333435058594,-18.33333396911621 L-257.3333435058594,-19.33333396911621 z"/><text style="font-size:9px;fill:#282828;font-family:sans-serif;text-anchor:end" id="svg_297" x="-265.833" y="-27.833"><tspan id="svg_298" x="-211.833" y="-4.833">➗</tspan></text></g></g><g id="svg_303"><g id="svg_304" transform="translate(1101,263) scale(1.5)"><path style="fill:#ff5293;fill-opacity:1;stroke:#ff2c76;stroke-width:1;stroke-linecap:round;stroke-opacity:1" id="svg_305" d="m-257.3333435058594,-27.33333396911621 L-197.33334350585938,-27.33333396911621 L-197.33334350585938,-7.333333969116211 L-257.3333435058594,-7.333333969116211 L-257.3333435058594,-15.333333969116211 L-257.3333435058594,-16.33333396911621 L-263.3333435058594,-16.33333396911621 L-263.3333435058594,-13.333333969116211 L-265.3333435058594,-13.333333969116211 L-265.3333435058594,-21.33333396911621 L-263.3333435058594,-21.33333396911621 L-263.3333435058594,-18.33333396911621 L-257.3333435058594,-18.33333396911621 L-257.3333435058594,-19.33333396911621 z"/><text style="font-size:10px;fill:#282828;font-family:sans-serif;text-anchor:start" id="svg_306" x="-265.833" y="-27.833"><tspan id="svg_307" x="-252.833" y="-13.833">1</tspan></text></g></g><g id="svg_308"><g id="svg_309" transform="translate(1101,295) scale(1.5)"><path style="fill:#ff5293;fill-opacity:1;stroke:#ff2c76;stroke-width:1;stroke-linecap:round;stroke-opacity:1" id="svg_310" d="m-257.3333435058594,-27.33333396911621 L-197.33334350585938,-27.33333396911621 L-197.33334350585938,-7.333333969116211 L-257.3333435058594,-7.333333969116211 L-257.3333435058594,-15.333333969116211 L-257.3333435058594,-16.33333396911621 L-263.3333435058594,-16.33333396911621 L-263.3333435058594,-13.333333969116211 L-265.3333435058594,-13.333333969116211 L-265.3333435058594,-21.33333396911621 L-263.3333435058594,-21.33333396911621 L-263.3333435058594,-18.33333396911621 L-257.3333435058594,-18.33333396911621 L-257.3333435058594,-19.33333396911621 z"/><text style="font-size:10px;fill:#282828;font-family:sans-serif;text-anchor:start" id="svg_311" x="-265.833" y="-27.833"><tspan id="svg_312" x="-252.833" y="-13.833">4</tspan></text></g></g><g id="svg_313"><g id="svg_314" transform="translate(897,295) scale(1.5)"><path style="fill:#b0b0b0;fill-opacity:1;stroke:#a0a0a0;stroke-width:1;stroke-linecap:round;stroke-opacity:1" id="svg_315" d="m-265.3333435058594,-19.33333396911621 L-265.3333435058594,-23.33333396911621 A4,4 90 0 1 -261.3333435058594,-27.33333396911621 L-257.3333435058594,-27.33333396911621 L-257.3333435058594,-25.33333396911621 L-247.33334350585938,-25.33333396911621 L-247.33334350585938,-27.33333396911621 L-227.33334350585938,-27.33333396911621 L-223.33334350585938,-27.33333396911621 A4,4 90 0 1 -219.33334350585938,-23.33333396911621 L-219.33334350585938,-19.33333396911621 L-219.33334350585938,-15.333333969116211 L-219.33334350585938,-11.333333969116211 A4,4 90 0 1 -223.33334350585938,-7.333333969116211 L-227.33334350585938,-7.333333969116211 L-247.33334350585938,-7.333333969116211 L-248.33334350585938,-7.333333969116211 L-248.33334350585938,-5.333333969116211 L-256.3333435058594,-5.333333969116211 L-256.3333435058594,-7.333333969116211 L-257.3333435058594,-7.333333969116211 L-261.3333435058594,-7.333333969116211 A4,4 90 0 1 -265.3333435058594,-11.333333969116211 L-265.3333435058594,-15.333333969116211 z"/><text style="font-size:10px;fill:#282828;font-family:sans-serif;text-anchor:end" id="svg_316" x="-265.833" y="-27.833"><tspan id="svg_317" x="-229.833" y="-13.833">↓</tspan></text></g></g><g id="svg_318"><g id="svg_319" transform="translate(897,327) scale(1.5)"><path style="fill:#77c428;fill-opacity:1;stroke:#57ad02;stroke-width:1;stroke-linecap:round;stroke-opacity:1" id="svg_320" d="m-265.3333435058594,-19.33333396911621 L-265.3333435058594,-23.33333396911621 A4,4 90 0 1 -261.3333435058594,-27.33333396911621 L-257.3333435058594,-27.33333396911621 L-257.3333435058594,-25.33333396911621 L-247.33334350585938,-25.33333396911621 L-247.33334350585938,-27.33333396911621 L-217.33334350585938,-27.33333396911621 L-213.33334350585938,-27.33333396911621 A4,4 90 0 1 -209.33334350585938,-23.33333396911621 L-209.33334350585938,-19.33333396911621 L-213.33334350585938,-19.33333396911621 L-213.33334350585938,-22.33333396911621 L-217.33334350585938,-22.33333396911621 L-217.33334350585938,-12.333333969116211 L-213.33334350585938,-12.333333969116211 L-213.33334350585938,-15.333333969116211 L-209.33334350585938,-15.333333969116211 L-209.33334350585938,1.666666030883789 L-213.33334350585938,1.666666030883789 L-213.33334350585938,-1.333333969116211 L-217.33334350585938,-1.333333969116211 L-217.33334350585938,8.666666030883789 L-213.33334350585938,8.666666030883789 L-213.33334350585938,5.666666030883789 L-209.33334350585938,5.666666030883789 L-209.33334350585938,9.666666030883789 A4,4 90 0 1 -213.33334350585938,13.666666030883789 L-217.33334350585938,13.666666030883789 L-247.33334350585938,13.666666030883789 L-248.33334350585938,13.666666030883789 L-248.33334350585938,15.666666030883789 L-256.3333435058594,15.666666030883789 L-256.3333435058594,13.666666030883789 L-257.3333435058594,13.666666030883789 L-261.3333435058594,13.666666030883789 A4,4 90 0 1 -265.3333435058594,9.666666030883789 L-265.3333435058594,5.666666030883789 L-265.3333435058594,-15.333333969116211 L-265.3333435058594,-19.33333396911621 z"/><text style="font-size:10px;fill:#282828;font-family:sans-serif;text-anchor:end" id="svg_321" x="-265.833" y="-27.833"><tspan id="svg_322" x="-219.833" y="-3.833">pitch</tspan></text><text style="font-size:6.666666666666667px;fill:#282828;font-family:sans-serif;text-anchor:end" id="svg_323" x="-265.833" y="-27.833"><tspan id="svg_324" x="-219.833" y="-15.833">name</tspan></text><text style="font-size:6.666666666666667px;fill:#282828;font-family:sans-serif;text-anchor:end" id="svg_325" x="-265.833" y="-27.833"><tspan id="svg_326" x="-219.833" y="5.167">octave</tspan></text></g></g><g id="svg_327"><g id="svg_328" transform="translate(971,327) scale(1.5)"><path style="fill:#77c428;fill-opacity:1;stroke:#57ad02;stroke-width:1;stroke-linecap:round;stroke-opacity:1" id="svg_329" d="m-257.3333435058594,-27.33333396911621 L-197.33334350585938,-27.33333396911621 L-197.33334350585938,-7.333333969116211 L-257.3333435058594,-7.333333969116211 L-257.3333435058594,-15.333333969116211 L-257.3333435058594,-16.33333396911621 L-263.3333435058594,-16.33333396911621 L-263.3333435058594,-13.333333969116211 L-265.3333435058594,-13.333333969116211 L-265.3333435058594,-21.33333396911621 L-263.3333435058594,-21.33333396911621 L-263.3333435058594,-18.33333396911621 L-257.3333435058594,-18.33333396911621 L-257.3333435058594,-19.33333396911621 z"/><text style="font-size:10px;fill:#282828;font-family:sans-serif;text-anchor:start" id="svg_330" x="-265.833" y="-27.833"><tspan id="svg_331" x="-252.833" y="-13.833">mi</tspan></text></g></g><g id="svg_332"><g id="svg_333" transform="translate(971,359) scale(1.5)"><path style="fill:#ff5293;fill-opacity:1;stroke:#ff2c76;stroke-width:1;stroke-linecap:round;stroke-opacity:1" id="svg_334" d="m-257.3333435058594,-27.33333396911621 L-197.33334350585938,-27.33333396911621 L-197.33334350585938,-7.333333969116211 L-257.3333435058594,-7.333333969116211 L-257.3333435058594,-15.333333969116211 L-257.3333435058594,-16.33333396911621 L-263.3333435058594,-16.33333396911621 L-263.3333435058594,-13.333333969116211 L-265.3333435058594,-13.333333969116211 L-265.3333435058594,-21.33333396911621 L-263.3333435058594,-21.33333396911621 L-263.3333435058594,-18.33333396911621 L-257.3333435058594,-18.33333396911621 L-257.3333435058594,-19.33333396911621 z"/><text style="font-size:10px;fill:#282828;font-family:sans-serif;text-anchor:start" id="svg_335" x="-265.833" y="-27.833"><tspan id="svg_336" x="-252.833" y="-13.833">5</tspan></text></g></g></g></svg>