<svg xmlns="http://www.w3.org/2000/svg" width="735" height="696"><rect id="backgroundrect" width="100%" height="100%" x="0" y="0" fill="none" stroke="none"/><g class="currentLayer"><title>Layer 1</title><g id="svg_15"><g id="svg_16"><g id="svg_17" transform="translate(249, 57) scale(1.5)"><path style="fill:#ff8b2d;fill-opacity:1;stroke:#e86b0e;stroke-width:1;stroke-linecap:round;stroke-opacity:1" id="svg_18" d="m-165.5,-4 L-165.5,-8 A4,4 90 0 1 -161.5,-12 L-157.5,-12 L-157.5,-10 L-147.5,-10 L-147.5,-12 L-138.5,-12 L-78.5,-12 L-74.5,-12 A4,4 90 0 1 -70.5,-8 L-70.5,-4 L-74.5,-4 L-74.5,-7 L-78.5,-7 L-78.5,3 L-74.5,3 L-74.5,0 L-70.5,0 L-70.5,4 A4,4 90 0 1 -74.5,8 L-78.5,8 L-138.5,8 L-139.5,8 L-139.5,10 L-147.5,10 L-147.5,8 L-148.5,8 L-152.5,8 A5,5 90 0 0 -157.5,13 L-157.5,17 L-157.5,21 L-157.5,63 L-157.5,67 A5,5 90 0 0 -152.5,72 L-148.5,72 L-148.5,74 L-138.5,74 L-138.5,72 L-130.5,72 L-130.5,78 L-130.5,84 L-130.5,88 A4,4 90 0 1 -134.5,92 L-138.5,92 L-147.5,92 L-148.5,92 L-148.5,94 L-156.5,94 L-156.5,92 L-157.5,92 L-161.5,92 A4,4 90 0 1 -165.5,88 L-165.5,84 z"/><text style="font-size:10px;fill:#282828;font-family:sans-serif;text-anchor:start" id="svg_19" x="-166" y="-12.5"><tspan id="svg_20" x="-146" y="2.5">note</tspan></text><text style="font-size:6.666666666666667px;fill:#282828;font-family:sans-serif;text-anchor:end" id="svg_21" x="-166" y="-12.5"><tspan id="svg_22" x="-81" y="-.5">value</tspan></text></g></g><g id="svg_23" transform="translate(249, 61) scale(0.5)"><g style="isolation:isolate" id="svg_24"><g id="レイヤー_2" data-name="レイヤー 2"><g id="Icon"><rect style="fill:#292929;opacity:.4;mix-blend-mode:multiply" id="svg_25" width="42" height="42" x="-498" y="-37.5" rx="5" ry="5"/><path style="fill:#fff" id="svg_26" d="M-467.4400005340576,-7.700000762939453 l-4.170000076293945,-4.159999847412109 h2.259999990463257 a1,1 0 1 0 0,-2.069999933242798 H-474.0599994659424 a1.0800000429153442,1.0800000429153442 0 0 0 -1.1100000143051147,1 v0 s0,0 0,0.05999999865889549 v4.639999866485596 h0 a1,1 0 1 0 2.0799999237060547,0 V-10.420000076293945 l4.190000057220459,4.190000057220459 a1,1 0 0 0 1.4600000381469727,0 A1,1 0 0 0 -467.4400005340576,-7.700000762939453 z"/><path style="fill:#fff" id="svg_27" d="M-478.82999992370605,-12.899999618530273 a1.0800000429153442,1.0800000429153442 0 0 0 -1.1100000143051147,-1 H-484.6499996185303 a1,1 0 1 0 0,2.069999933242798 H-482.3999996185303 L-486.5600004196167,-7.700000762939453 a1,1 0 0 0 1.4700000286102295,1.4700000286102295 l4.179999828338623,-4.190000057220459 v2.259999990463257 a1,1 0 1 0 2.0799999237060547,0 V-12.799999237060547 s0,0 0,-0.05999999865889549 A0.07999999821186066,0.07999999821186066 0 0 1 -478.82999992370605,-12.899999618530273 z"/><path style="fill:#fff" id="svg_28" d="M-474.0599994659424,-17 h4.699999809265137 a1,1 0 1 0 0,-2.0799999237060547 H-471.61000061035156 l4.170000076293945,-4.159999847412109 a1,1 0 0 0 0,-1.4700000286102295 a1,1 0 0 0 -1.4600000381469727,0 L-473.0900001525879,-20.5 V-22.77999973297119 a1,1 0 1 0 -2.0799999237060547,0 v4.639999866485596 a0.4300000071525574,0.4300000071525574 0 0 0 0,0.05000000074505806 v0.05000000074505806 A1.090000033378601,1.090000033378601 0 0 0 -474.0599994659424,-17 z"/><path style="fill:#fff" id="svg_29" d="M-479.8700008392334,-23.880000114440918 a1.0800000429153442,1.0800000429153442 0 0 0 -1,1.090000033378601 V-20.5 l-4.179999828338623,-4.190000057220459 a1,1 0 0 0 -1.4700000286102295,0 a1,1 0 0 0 0,1.4600000381469727 l4.159999847412109,4.170000076293945 H-484.6499996185303 a1,1 0 1 0 0,2.0799999237060547 h4.710000038146973 a1.090000033378601,1.090000033378601 0 0 0 1.1100000143051147,-1 a0.07999999821186066,0.07999999821186066 0 0 1 0,0 s0,0 0,-0.05999999865889549 V-22.789999961853027 A1.0700000524520874,1.0700000524520874 0 0 0 -479.8700008392334,-23.880000114440918 z"/></g></g></g></g></g><g id="svg_30"><g id="svg_31" transform="translate(381, 57) scale(1.5)"><path style="fill:#ff5293;fill-opacity:1;stroke:#ff2c76;stroke-width:1;stroke-linecap:round;stroke-opacity:1" id="svg_32" d="m-157.5,-4 L-157.5,-8 A4,4 90 0 1 -153.5,-12 L-149.5,-12 L-139.5,-12 L-109.5,-12 L-105.5,-12 A4,4 90 0 1 -101.5,-8 L-101.5,-4 L-105.5,-4 L-105.5,-7 L-109.5,-7 L-109.5,3 L-105.5,3 L-105.5,0 L-101.5,0 L-101.5,17 L-105.5,17 L-105.5,14 L-109.5,14 L-109.5,24 L-105.5,24 L-105.5,21 L-101.5,21 L-101.5,25 A4,4 90 0 1 -105.5,29 L-109.5,29 L-139.5,29 L-149.5,29 L-153.5,29 A4,4 90 0 1 -157.5,25 L-157.5,21 L-157.5,0 L-157.5,-1 L-163.5,-1 L-163.5,2 L-165.5,2 L-165.5,-6 L-163.5,-6 L-163.5,-3 L-157.5,-3 L-157.5,-4 z"/><text style="font-size:9px;fill:#282828;font-family:sans-serif;text-anchor:end" id="svg_33" x="-166" y="-12.5"><tspan id="svg_34" x="-112" y="10.5">➗</tspan></text></g></g><g id="svg_39"><g id="svg_40" transform="translate(467, 57) scale(1.5)"><path style="fill:#ff5293;fill-opacity:1;stroke:#ff2c76;stroke-width:1;stroke-linecap:round;stroke-opacity:1" id="svg_41" d="m-157.5,-12 L-97.5,-12 L-97.5,8 L-157.5,8 L-157.5,0 L-157.5,-1 L-163.5,-1 L-163.5,2 L-165.5,2 L-165.5,-6 L-163.5,-6 L-163.5,-3 L-157.5,-3 L-157.5,-4 z"/><text style="font-size:10px;fill:#282828;font-family:sans-serif;text-anchor:start" id="svg_42" x="-166" y="-12.5"><tspan id="svg_43" x="-153" y="1.5">1</tspan></text></g></g><g id="svg_44"><g id="svg_45" transform="translate(467, 89) scale(1.5)"><path style="fill:#ff5293;fill-opacity:1;stroke:#ff2c76;stroke-width:1;stroke-linecap:round;stroke-opacity:1" id="svg_46" d="m-157.5,-12 L-97.5,-12 L-97.5,8 L-157.5,8 L-157.5,0 L-157.5,-1 L-163.5,-1 L-163.5,2 L-165.5,2 L-165.5,-6 L-163.5,-6 L-163.5,-3 L-157.5,-3 L-157.5,-4 z"/><text style="font-size:10px;fill:#282828;font-family:sans-serif;text-anchor:start" id="svg_47" x="-166" y="-12.5"><tspan id="svg_48" x="-153" y="1.5">4</tspan></text></g></g><g id="svg_49"><g id="svg_50" transform="translate(263, 89) scale(1.5)"><path style="fill:#b0b0b0;fill-opacity:1;stroke:#a0a0a0;stroke-width:1;stroke-linecap:round;stroke-opacity:1" id="svg_51" d="m-165.5,-4 L-165.5,-8 A4,4 90 0 1 -161.5,-12 L-157.5,-12 L-157.5,-10 L-147.5,-10 L-147.5,-12 L-127.5,-12 L-123.5,-12 A4,4 90 0 1 -119.5,-8 L-119.5,-4 L-119.5,0 L-119.5,4 A4,4 90 0 1 -123.5,8 L-127.5,8 L-147.5,8 L-148.5,8 L-148.5,10 L-156.5,10 L-156.5,8 L-157.5,8 L-161.5,8 A4,4 90 0 1 -165.5,4 L-165.5,0 z"/><text style="font-size:10px;fill:#282828;font-family:sans-serif;text-anchor:end" id="svg_52" x="-166" y="-12.5"><tspan id="svg_53" x="-130" y="1.5">↓</tspan></text></g></g><g id="svg_54"><g id="svg_55" transform="translate(263, 121) scale(1.5)"><path style="fill:#77c428;fill-opacity:1;stroke:#57ad02;stroke-width:1;stroke-linecap:round;stroke-opacity:1" id="svg_56" d="m-165.5,-4 L-165.5,-8 A4,4 90 0 1 -161.5,-12 L-157.5,-12 L-157.5,-10 L-147.5,-10 L-147.5,-12 L-117.5,-12 L-113.5,-12 A4,4 90 0 1 -109.5,-8 L-109.5,-4 L-113.5,-4 L-113.5,-7 L-117.5,-7 L-117.5,3 L-113.5,3 L-113.5,0 L-109.5,0 L-109.5,17 L-113.5,17 L-113.5,14 L-117.5,14 L-117.5,24 L-113.5,24 L-113.5,21 L-109.5,21 L-109.5,25 A4,4 90 0 1 -113.5,29 L-117.5,29 L-147.5,29 L-148.5,29 L-148.5,31 L-156.5,31 L-156.5,29 L-157.5,29 L-161.5,29 A4,4 90 0 1 -165.5,25 L-165.5,21 L-165.5,0 L-165.5,-4 z"/><text style="font-size:10px;fill:#282828;font-family:sans-serif;text-anchor:end" id="svg_57" x="-166" y="-12.5"><tspan id="svg_58" x="-120" y="11.5">pitch</tspan></text><text style="font-size:6.666666666666667px;fill:#282828;font-family:sans-serif;text-anchor:end" id="svg_59" x="-166" y="-12.5"><tspan id="svg_60" x="-120" y="-.5">name</tspan></text><text style="font-size:6.666666666666667px;fill:#282828;font-family:sans-serif;text-anchor:end" id="svg_61" x="-166" y="-12.5"><tspan id="svg_62" x="-120" y="20.5">octave</tspan></text></g></g><g id="svg_63"><g id="svg_64" transform="translate(337, 121) scale(1.5)"><path style="fill:#77c428;fill-opacity:1;stroke:#57ad02;stroke-width:1;stroke-linecap:round;stroke-opacity:1" id="svg_65" d="m-157.5,-12 L-97.5,-12 L-97.5,8 L-157.5,8 L-157.5,0 L-157.5,-1 L-163.5,-1 L-163.5,2 L-165.5,2 L-165.5,-6 L-163.5,-6 L-163.5,-3 L-157.5,-3 L-157.5,-4 z"/><text style="font-size:10px;fill:#282828;font-family:sans-serif;text-anchor:start" id="svg_66" x="-166" y="-12.5"><tspan id="svg_67" x="-153" y="1.5">sol</tspan></text></g></g><g id="svg_68"><g id="svg_69" transform="translate(337, 153) scale(1.5)"><path style="fill:#ff5293;fill-opacity:1;stroke:#ff2c76;stroke-width:1;stroke-linecap:round;stroke-opacity:1" id="svg_70" d="m-157.5,-12 L-97.5,-12 L-97.5,8 L-157.5,8 L-157.5,0 L-157.5,-1 L-163.5,-1 L-163.5,2 L-165.5,2 L-165.5,-6 L-163.5,-6 L-163.5,-3 L-157.5,-3 L-157.5,-4 z"/><text style="font-size:10px;fill:#282828;font-family:sans-serif;text-anchor:start" id="svg_71" x="-166" y="-12.5"><tspan id="svg_72" x="-153" y="1.5">4</tspan></text></g></g><g id="svg_73"><g id="svg_74"><g id="svg_75" transform="translate(252, 305) scale(1.5)"><path style="fill:#ff8b2d;fill-opacity:1;stroke:#e86b0e;stroke-width:1;stroke-linecap:round;stroke-opacity:1" id="svg_76" d="m-165.5,-4 L-165.5,-8 A4,4 90 0 1 -161.5,-12 L-157.5,-12 L-157.5,-10 L-147.5,-10 L-147.5,-12 L-138.5,-12 L-78.5,-12 L-74.5,-12 A4,4 90 0 1 -70.5,-8 L-70.5,-4 L-74.5,-4 L-74.5,-7 L-78.5,-7 L-78.5,3 L-74.5,3 L-74.5,0 L-70.5,0 L-70.5,4 A4,4 90 0 1 -74.5,8 L-78.5,8 L-138.5,8 L-139.5,8 L-139.5,10 L-147.5,10 L-147.5,8 L-148.5,8 L-152.5,8 A5,5 90 0 0 -157.5,13 L-157.5,17 L-157.5,21 L-157.5,63 L-157.5,67 A5,5 90 0 0 -152.5,72 L-148.5,72 L-148.5,74 L-138.5,74 L-138.5,72 L-130.5,72 L-130.5,78 L-130.5,84 L-130.5,88 A4,4 90 0 1 -134.5,92 L-138.5,92 L-147.5,92 L-148.5,92 L-148.5,94 L-156.5,94 L-156.5,92 L-157.5,92 L-161.5,92 A4,4 90 0 1 -165.5,88 L-165.5,84 z"/><text style="font-size:10px;fill:#282828;font-family:sans-serif;text-anchor:start" id="svg_77" x="-166" y="-12.5"><tspan id="svg_78" x="-146" y="2.5">note</tspan></text><text style="font-size:6.666666666666667px;fill:#282828;font-family:sans-serif;text-anchor:end" id="svg_79" x="-166" y="-12.5"><tspan id="svg_80" x="-81" y="-.5">value</tspan></text></g></g><g id="svg_81" transform="translate(252, 309) scale(0.5)"><g style="isolation:isolate" id="svg_82"><g id="レイヤー_2" data-name="レイヤー 2"><g id="Icon"><rect style="fill:#292929;opacity:.4;mix-blend-mode:multiply" id="svg_83" width="42" height="42" x="-498" y="-37.5" rx="5" ry="5"/><path style="fill:#fff" id="svg_84" d="M-467.4400005340576,-7.700000762939453 l-4.170000076293945,-4.159999847412109 h2.259999990463257 a1,1 0 1 0 0,-2.069999933242798 H-474.0599994659424 a1.0800000429153442,1.0800000429153442 0 0 0 -1.1100000143051147,1 v0 s0,0 0,0.05999999865889549 v4.639999866485596 h0 a1,1 0 1 0 2.0799999237060547,0 V-10.420000076293945 l4.190000057220459,4.190000057220459 a1,1 0 0 0 1.4600000381469727,0 A1,1 0 0 0 -467.4400005340576,-7.700000762939453 z"/><path style="fill:#fff" id="svg_85" d="M-478.82999992370605,-12.899999618530273 a1.0800000429153442,1.0800000429153442 0 0 0 -1.1100000143051147,-1 H-484.6499996185303 a1,1 0 1 0 0,2.069999933242798 H-482.3999996185303 L-486.5600004196167,-7.700000762939453 a1,1 0 0 0 1.4700000286102295,1.4700000286102295 l4.179999828338623,-4.190000057220459 v2.259999990463257 a1,1 0 1 0 2.0799999237060547,0 V-12.799999237060547 s0,0 0,-0.05999999865889549 A0.07999999821186066,0.07999999821186066 0 0 1 -478.82999992370605,-12.899999618530273 z"/><path style="fill:#fff" id="svg_86" d="M-474.0599994659424,-17 h4.699999809265137 a1,1 0 1 0 0,-2.0799999237060547 H-471.61000061035156 l4.170000076293945,-4.159999847412109 a1,1 0 0 0 0,-1.4700000286102295 a1,1 0 0 0 -1.4600000381469727,0 L-473.0900001525879,-20.5 V-22.77999973297119 a1,1 0 1 0 -2.0799999237060547,0 v4.639999866485596 a0.4300000071525574,0.4300000071525574 0 0 0 0,0.05000000074505806 v0.05000000074505806 A1.090000033378601,1.090000033378601 0 0 0 -474.0599994659424,-17 z"/><path style="fill:#fff" id="svg_87" d="M-479.8700008392334,-23.880000114440918 a1.0800000429153442,1.0800000429153442 0 0 0 -1,1.090000033378601 V-20.5 l-4.179999828338623,-4.190000057220459 a1,1 0 0 0 -1.4700000286102295,0 a1,1 0 0 0 0,1.4600000381469727 l4.159999847412109,4.170000076293945 H-484.6499996185303 a1,1 0 1 0 0,2.0799999237060547 h4.710000038146973 a1.090000033378601,1.090000033378601 0 0 0 1.1100000143051147,-1 a0.07999999821186066,0.07999999821186066 0 0 1 0,0 s0,0 0,-0.05999999865889549 V-22.789999961853027 A1.0700000524520874,1.0700000524520874 0 0 0 -479.8700008392334,-23.880000114440918 z"/></g></g></g></g></g><g id="svg_88"><g id="svg_89" transform="translate(384, 305) scale(1.5)"><path style="fill:#ff5293;fill-opacity:1;stroke:#ff2c76;stroke-width:1;stroke-linecap:round;stroke-opacity:1" id="svg_90" d="m-157.5,-4 L-157.5,-8 A4,4 90 0 1 -153.5,-12 L-149.5,-12 L-139.5,-12 L-109.5,-12 L-105.5,-12 A4,4 90 0 1 -101.5,-8 L-101.5,-4 L-105.5,-4 L-105.5,-7 L-109.5,-7 L-109.5,3 L-105.5,3 L-105.5,0 L-101.5,0 L-101.5,17 L-105.5,17 L-105.5,14 L-109.5,14 L-109.5,24 L-105.5,24 L-105.5,21 L-101.5,21 L-101.5,25 A4,4 90 0 1 -105.5,29 L-109.5,29 L-139.5,29 L-149.5,29 L-153.5,29 A4,4 90 0 1 -157.5,25 L-157.5,21 L-157.5,0 L-157.5,-1 L-163.5,-1 L-163.5,2 L-165.5,2 L-165.5,-6 L-163.5,-6 L-163.5,-3 L-157.5,-3 L-157.5,-4 z"/><text style="font-size:9px;fill:#282828;font-family:sans-serif;text-anchor:end" id="svg_91" x="-166" y="-12.5"><tspan id="svg_92" x="-112" y="10.5">➗</tspan></text></g></g><g id="svg_97"><g id="svg_98" transform="translate(470, 305) scale(1.5)"><path style="fill:#ff5293;fill-opacity:1;stroke:#ff2c76;stroke-width:1;stroke-linecap:round;stroke-opacity:1" id="svg_99" d="m-157.5,-12 L-97.5,-12 L-97.5,8 L-157.5,8 L-157.5,0 L-157.5,-1 L-163.5,-1 L-163.5,2 L-165.5,2 L-165.5,-6 L-163.5,-6 L-163.5,-3 L-157.5,-3 L-157.5,-4 z"/><text style="font-size:10px;fill:#282828;font-family:sans-serif;text-anchor:start" id="svg_100" x="-166" y="-12.5"><tspan id="svg_101" x="-153" y="1.5">1</tspan></text></g></g><g id="svg_102"><g id="svg_103" transform="translate(470, 337) scale(1.5)"><path style="fill:#ff5293;fill-opacity:1;stroke:#ff2c76;stroke-width:1;stroke-linecap:round;stroke-opacity:1" id="svg_104" d="m-157.5,-12 L-97.5,-12 L-97.5,8 L-157.5,8 L-157.5,0 L-157.5,-1 L-163.5,-1 L-163.5,2 L-165.5,2 L-165.5,-6 L-163.5,-6 L-163.5,-3 L-157.5,-3 L-157.5,-4 z"/><text style="font-size:10px;fill:#282828;font-family:sans-serif;text-anchor:start" id="svg_105" x="-166" y="-12.5"><tspan id="svg_106" x="-153" y="1.5">4</tspan></text></g></g><g id="svg_107"><g id="svg_108" transform="translate(266, 337) scale(1.5)"><path style="fill:#b0b0b0;fill-opacity:1;stroke:#a0a0a0;stroke-width:1;stroke-linecap:round;stroke-opacity:1" id="svg_109" d="m-165.5,-4 L-165.5,-8 A4,4 90 0 1 -161.5,-12 L-157.5,-12 L-157.5,-10 L-147.5,-10 L-147.5,-12 L-127.5,-12 L-123.5,-12 A4,4 90 0 1 -119.5,-8 L-119.5,-4 L-119.5,0 L-119.5,4 A4,4 90 0 1 -123.5,8 L-127.5,8 L-147.5,8 L-148.5,8 L-148.5,10 L-156.5,10 L-156.5,8 L-157.5,8 L-161.5,8 A4,4 90 0 1 -165.5,4 L-165.5,0 z"/><text style="font-size:10px;fill:#282828;font-family:sans-serif;text-anchor:end" id="svg_110" x="-166" y="-12.5"><tspan id="svg_111" x="-130" y="1.5">↓</tspan></text></g></g><g id="svg_112"><g id="svg_113" transform="translate(266, 369) scale(1.5)"><path style="fill:#77c428;fill-opacity:1;stroke:#57ad02;stroke-width:1;stroke-linecap:round;stroke-opacity:1" id="svg_114" d="m-165.5,-4 L-165.5,-8 A4,4 90 0 1 -161.5,-12 L-157.5,-12 L-157.5,-10 L-147.5,-10 L-147.5,-12 L-117.5,-12 L-113.5,-12 A4,4 90 0 1 -109.5,-8 L-109.5,-4 L-113.5,-4 L-113.5,-7 L-117.5,-7 L-117.5,3 L-113.5,3 L-113.5,0 L-109.5,0 L-109.5,17 L-113.5,17 L-113.5,14 L-117.5,14 L-117.5,24 L-113.5,24 L-113.5,21 L-109.5,21 L-109.5,25 A4,4 90 0 1 -113.5,29 L-117.5,29 L-147.5,29 L-148.5,29 L-148.5,31 L-156.5,31 L-156.5,29 L-157.5,29 L-161.5,29 A4,4 90 0 1 -165.5,25 L-165.5,21 L-165.5,0 L-165.5,-4 z"/><text style="font-size:10px;fill:#282828;font-family:sans-serif;text-anchor:end" id="svg_115" x="-166" y="-12.5"><tspan id="svg_116" x="-120" y="11.5">pitch</tspan></text><text style="font-size:6.666666666666667px;fill:#282828;font-family:sans-serif;text-anchor:end" id="svg_117" x="-166" y="-12.5"><tspan id="svg_118" x="-120" y="-.5">name</tspan></text><text style="font-size:6.666666666666667px;fill:#282828;font-family:sans-serif;text-anchor:end" id="svg_119" x="-166" y="-12.5"><tspan id="svg_120" x="-120" y="20.5">octave</tspan></text></g></g><g id="svg_121"><g id="svg_122" transform="translate(340, 369) scale(1.5)"><path style="fill:#77c428;fill-opacity:1;stroke:#57ad02;stroke-width:1;stroke-linecap:round;stroke-opacity:1" id="svg_123" d="m-157.5,-12 L-97.5,-12 L-97.5,8 L-157.5,8 L-157.5,0 L-157.5,-1 L-163.5,-1 L-163.5,2 L-165.5,2 L-165.5,-6 L-163.5,-6 L-163.5,-3 L-157.5,-3 L-157.5,-4 z"/><text style="font-size:10px;fill:#282828;font-family:sans-serif;text-anchor:start" id="svg_124" x="-166" y="-12.5"><tspan id="svg_125" x="-153" y="1.5">sol</tspan></text></g></g><g id="svg_126"><g id="svg_127" transform="translate(340, 401) scale(1.5)"><path style="fill:#ff5293;fill-opacity:1;stroke:#ff2c76;stroke-width:1;stroke-linecap:round;stroke-opacity:1" id="svg_128" d="m-157.5,-12 L-97.5,-12 L-97.5,8 L-157.5,8 L-157.5,0 L-157.5,-1 L-163.5,-1 L-163.5,2 L-165.5,2 L-165.5,-6 L-163.5,-6 L-163.5,-3 L-157.5,-3 L-157.5,-4 z"/><text style="font-size:10px;fill:#282828;font-family:sans-serif;text-anchor:start" id="svg_129" x="-166" y="-12.5"><tspan id="svg_130" x="-153" y="1.5">4</tspan></text></g></g><g id="svg_131"><g id="svg_132" transform="translate(249, 25) scale(1.5)"><path style="fill:#25c3c0;fill-opacity:1;stroke:#1dbcbd;stroke-width:1;stroke-linecap:round;stroke-opacity:1" id="svg_133" d="m-165.5,-4 L-165.5,-8 A4,4 90 0 1 -161.5,-12 L-157.5,-12 L-157.5,-10 L-147.5,-10 L-147.5,-12 L-62.5,-12 L-58.5,-12 A4,4 90 0 1 -54.5,-8 L-54.5,-4 L-58.5,-4 L-58.5,-7 L-62.5,-7 L-62.5,3 L-58.5,3 L-58.5,0 L-54.5,0 L-54.5,4 A4,4 90 0 1 -58.5,8 L-62.5,8 L-147.5,8 L-148.5,8 L-148.5,10 L-156.5,10 L-156.5,8 L-157.5,8 L-161.5,8 A4,4 90 0 1 -165.5,4 L-165.5,0 L-165.5,-4 z"/><text style="font-size:10px;fill:#282828;font-family:sans-serif;text-anchor:end" id="svg_134" x="-166" y="-12.5"><tspan id="svg_135" x="-65" y="1.5">set master volume</tspan></text></g></g><g id="svg_138"><g id="svg_139" transform="translate(405, 25) scale(1.5)"><path style="fill:#ff5293;fill-opacity:1;stroke:#ff2c76;stroke-width:1;stroke-linecap:round;stroke-opacity:1" id="svg_140" d="m-157.5,-12 L-97.5,-12 L-97.5,8 L-157.5,8 L-157.5,0 L-157.5,-1 L-163.5,-1 L-163.5,2 L-165.5,2 L-165.5,-6 L-163.5,-6 L-163.5,-3 L-157.5,-3 L-157.5,-4 z"/><text style="font-size:10px;fill:#282828;font-family:sans-serif;text-anchor:start" id="svg_141" x="-166" y="-12.5"><tspan id="svg_142" x="-153" y="1.5">50</tspan></text></g></g><g id="svg_143"><g id="svg_144" transform="translate(252, 242) scale(1.5)"><path style="fill:#25c3c0;fill-opacity:1;stroke:#1dbcbd;stroke-width:1;stroke-linecap:round;stroke-opacity:1" id="svg_145" d="m-165.5,-4 L-165.5,-8 A4,4 90 0 1 -161.5,-12 L-157.5,-12 L-157.5,-10 L-147.5,-10 L-147.5,-12 L-69.5,-12 L-65.5,-12 A4,4 90 0 1 -61.5,-8 L-61.5,-4 L-65.5,-4 L-65.5,-7 L-69.5,-7 L-69.5,3 L-65.5,3 L-65.5,0 L-61.5,0 L-61.5,17 L-65.5,17 L-65.5,14 L-69.5,14 L-69.5,24 L-65.5,24 L-65.5,21 L-61.5,21 L-61.5,25 A4,4 90 0 1 -65.5,29 L-69.5,29 L-147.5,29 L-148.5,29 L-148.5,31 L-156.5,31 L-156.5,29 L-157.5,29 L-161.5,29 A4,4 90 0 1 -165.5,25 L-165.5,21 L-165.5,0 L-165.5,-4 z"/><text style="font-size:10px;fill:#282828;font-family:sans-serif;text-anchor:end" id="svg_146" x="-166" y="-12.5"><tspan id="svg_147" x="-72" y="11.5">set synth volume</tspan></text><text style="font-size:6.666666666666667px;fill:#282828;font-family:sans-serif;text-anchor:end" id="svg_148" x="-166" y="-12.5"><tspan id="svg_149" x="-72" y="-.5">synth</tspan></text><text style="font-size:6.666666666666667px;fill:#282828;font-family:sans-serif;text-anchor:end" id="svg_150" x="-166" y="-12.5"><tspan id="svg_151" x="-72" y="20.5">volume</tspan></text></g></g><g id="svg_152"><g id="svg_153" transform="translate(398, 242) scale(1.5)"><path style="fill:#25c3c0;fill-opacity:1;stroke:#1dbcbd;stroke-width:1;stroke-linecap:round;stroke-opacity:1" id="svg_154" d="m-157.5,-12 L-47.5,-12 L-47.5,8 L-157.5,8 L-157.5,0 L-157.5,-1 L-163.5,-1 L-163.5,2 L-165.5,2 L-165.5,-6 L-163.5,-6 L-163.5,-3 L-157.5,-3 L-157.5,-4 z"/><text style="font-size:10px;fill:#282828;font-family:sans-serif;text-anchor:start" id="svg_155" x="-166" y="-12.5"><tspan id="svg_156" x="-153" y="1.5">default</tspan></text></g></g><g id="svg_157"><g id="svg_158" transform="translate(398, 274) scale(1.5)"><path style="fill:#ff5293;fill-opacity:1;stroke:#ff2c76;stroke-width:1;stroke-linecap:round;stroke-opacity:1" id="svg_159" d="m-157.5,-12 L-97.5,-12 L-97.5,8 L-157.5,8 L-157.5,0 L-157.5,-1 L-163.5,-1 L-163.5,2 L-165.5,2 L-165.5,-6 L-163.5,-6 L-163.5,-3 L-157.5,-3 L-157.5,-4 z"/><text style="font-size:10px;fill:#282828;font-family:sans-serif;text-anchor:start" id="svg_160" x="-166" y="-12.5"><tspan id="svg_161" x="-153" y="1.5">50</tspan></text></g></g><g id="svg_162"><g id="svg_163"><g id="svg_164" transform="translate(663, 50) scale(1.5)"><path style="fill:#ff8b2d;fill-opacity:1;stroke:#e86b0e;stroke-width:1;stroke-linecap:round;stroke-opacity:1" id="svg_165" d="m-165.5,-4 L-165.5,-8 A4,4 90 0 1 -161.5,-12 L-157.5,-12 L-157.5,-10 L-147.5,-10 L-147.5,-12 L-138.5,-12 L-78.5,-12 L-74.5,-12 A4,4 90 0 1 -70.5,-8 L-70.5,-4 L-74.5,-4 L-74.5,-7 L-78.5,-7 L-78.5,3 L-74.5,3 L-74.5,0 L-70.5,0 L-70.5,4 A4,4 90 0 1 -74.5,8 L-78.5,8 L-138.5,8 L-139.5,8 L-139.5,10 L-147.5,10 L-147.5,8 L-148.5,8 L-152.5,8 A5,5 90 0 0 -157.5,13 L-157.5,17 L-157.5,21 L-157.5,63 L-157.5,67 A5,5 90 0 0 -152.5,72 L-148.5,72 L-148.5,74 L-138.5,74 L-138.5,72 L-130.5,72 L-130.5,78 L-130.5,84 L-130.5,88 A4,4 90 0 1 -134.5,92 L-138.5,92 L-147.5,92 L-148.5,92 L-148.5,94 L-156.5,94 L-156.5,92 L-157.5,92 L-161.5,92 A4,4 90 0 1 -165.5,88 L-165.5,84 z"/><text style="font-size:10px;fill:#282828;font-family:sans-serif;text-anchor:start" id="svg_166" x="-166" y="-12.5"><tspan id="svg_167" x="-146" y="2.5">note</tspan></text><text style="font-size:6.666666666666667px;fill:#282828;font-family:sans-serif;text-anchor:end" id="svg_168" x="-166" y="-12.5"><tspan id="svg_169" x="-81" y="-.5">value</tspan></text></g></g><g id="svg_170" transform="translate(663, 54) scale(0.5)"><g style="isolation:isolate" id="svg_171"><g id="レイヤー_2" data-name="レイヤー 2"><g id="Icon"><rect style="fill:#292929;opacity:.4;mix-blend-mode:multiply" id="svg_172" width="42" height="42" x="-498" y="-37.5" rx="5" ry="5"/><path style="fill:#fff" id="svg_173" d="M-467.4400005340576,-7.700000762939453 l-4.170000076293945,-4.159999847412109 h2.259999990463257 a1,1 0 1 0 0,-2.069999933242798 H-474.0599994659424 a1.0800000429153442,1.0800000429153442 0 0 0 -1.1100000143051147,1 v0 s0,0 0,0.05999999865889549 v4.639999866485596 h0 a1,1 0 1 0 2.0799999237060547,0 V-10.420000076293945 l4.190000057220459,4.190000057220459 a1,1 0 0 0 1.4600000381469727,0 A1,1 0 0 0 -467.4400005340576,-7.700000762939453 z"/><path style="fill:#fff" id="svg_174" d="M-478.82999992370605,-12.899999618530273 a1.0800000429153442,1.0800000429153442 0 0 0 -1.1100000143051147,-1 H-484.6499996185303 a1,1 0 1 0 0,2.069999933242798 H-482.3999996185303 L-486.5600004196167,-7.700000762939453 a1,1 0 0 0 1.4700000286102295,1.4700000286102295 l4.179999828338623,-4.190000057220459 v2.259999990463257 a1,1 0 1 0 2.0799999237060547,0 V-12.799999237060547 s0,0 0,-0.05999999865889549 A0.07999999821186066,0.07999999821186066 0 0 1 -478.82999992370605,-12.899999618530273 z"/><path style="fill:#fff" id="svg_175" d="M-474.0599994659424,-17 h4.699999809265137 a1,1 0 1 0 0,-2.0799999237060547 H-471.61000061035156 l4.170000076293945,-4.159999847412109 a1,1 0 0 0 0,-1.4700000286102295 a1,1 0 0 0 -1.4600000381469727,0 L-473.0900001525879,-20.5 V-22.77999973297119 a1,1 0 1 0 -2.0799999237060547,0 v4.639999866485596 a0.4300000071525574,0.4300000071525574 0 0 0 0,0.05000000074505806 v0.05000000074505806 A1.090000033378601,1.090000033378601 0 0 0 -474.0599994659424,-17 z"/><path style="fill:#fff" id="svg_176" d="M-479.8700008392334,-23.880000114440918 a1.0800000429153442,1.0800000429153442 0 0 0 -1,1.090000033378601 V-20.5 l-4.179999828338623,-4.190000057220459 a1,1 0 0 0 -1.4700000286102295,0 a1,1 0 0 0 0,1.4600000381469727 l4.159999847412109,4.170000076293945 H-484.6499996185303 a1,1 0 1 0 0,2.0799999237060547 h4.710000038146973 a1.090000033378601,1.090000033378601 0 0 0 1.1100000143051147,-1 a0.07999999821186066,0.07999999821186066 0 0 1 0,0 s0,0 0,-0.05999999865889549 V-22.789999961853027 A1.0700000524520874,1.0700000524520874 0 0 0 -479.8700008392334,-23.880000114440918 z"/></g></g></g></g></g><g id="svg_177"><g id="svg_178" transform="translate(795, 50) scale(1.5)"><path style="fill:#ff5293;fill-opacity:1;stroke:#ff2c76;stroke-width:1;stroke-linecap:round;stroke-opacity:1" id="svg_179" d="m-157.5,-4 L-157.5,-8 A4,4 90 0 1 -153.5,-12 L-149.5,-12 L-139.5,-12 L-109.5,-12 L-105.5,-12 A4,4 90 0 1 -101.5,-8 L-101.5,-4 L-105.5,-4 L-105.5,-7 L-109.5,-7 L-109.5,3 L-105.5,3 L-105.5,0 L-101.5,0 L-101.5,17 L-105.5,17 L-105.5,14 L-109.5,14 L-109.5,24 L-105.5,24 L-105.5,21 L-101.5,21 L-101.5,25 A4,4 90 0 1 -105.5,29 L-109.5,29 L-139.5,29 L-149.5,29 L-153.5,29 A4,4 90 0 1 -157.5,25 L-157.5,21 L-157.5,0 L-157.5,-1 L-163.5,-1 L-163.5,2 L-165.5,2 L-165.5,-6 L-163.5,-6 L-163.5,-3 L-157.5,-3 L-157.5,-4 z"/><text style="font-size:9px;fill:#282828;font-family:sans-serif;text-anchor:end" id="svg_180" x="-166" y="-12.5"><tspan id="svg_181" x="-112" y="10.5">➗</tspan></text></g></g><g id="svg_186"><g id="svg_187" transform="translate(881, 50) scale(1.5)"><path style="fill:#ff5293;fill-opacity:1;stroke:#ff2c76;stroke-width:1;stroke-linecap:round;stroke-opacity:1" id="svg_188" d="m-157.5,-12 L-97.5,-12 L-97.5,8 L-157.5,8 L-157.5,0 L-157.5,-1 L-163.5,-1 L-163.5,2 L-165.5,2 L-165.5,-6 L-163.5,-6 L-163.5,-3 L-157.5,-3 L-157.5,-4 z"/><text style="font-size:10px;fill:#282828;font-family:sans-serif;text-anchor:start" id="svg_189" x="-166" y="-12.5"><tspan id="svg_190" x="-153" y="1.5">1</tspan></text></g></g><g id="svg_191"><g id="svg_192" transform="translate(881, 82) scale(1.5)"><path style="fill:#ff5293;fill-opacity:1;stroke:#ff2c76;stroke-width:1;stroke-linecap:round;stroke-opacity:1" id="svg_193" d="m-157.5,-12 L-97.5,-12 L-97.5,8 L-157.5,8 L-157.5,0 L-157.5,-1 L-163.5,-1 L-163.5,2 L-165.5,2 L-165.5,-6 L-163.5,-6 L-163.5,-3 L-157.5,-3 L-157.5,-4 z"/><text style="font-size:10px;fill:#282828;font-family:sans-serif;text-anchor:start" id="svg_194" x="-166" y="-12.5"><tspan id="svg_195" x="-153" y="1.5">4</tspan></text></g></g><g id="svg_196"><g id="svg_197" transform="translate(677, 82) scale(1.5)"><path style="fill:#b0b0b0;fill-opacity:1;stroke:#a0a0a0;stroke-width:1;stroke-linecap:round;stroke-opacity:1" id="svg_198" d="m-165.5,-4 L-165.5,-8 A4,4 90 0 1 -161.5,-12 L-157.5,-12 L-157.5,-10 L-147.5,-10 L-147.5,-12 L-127.5,-12 L-123.5,-12 A4,4 90 0 1 -119.5,-8 L-119.5,-4 L-119.5,0 L-119.5,4 A4,4 90 0 1 -123.5,8 L-127.5,8 L-147.5,8 L-148.5,8 L-148.5,10 L-156.5,10 L-156.5,8 L-157.5,8 L-161.5,8 A4,4 90 0 1 -165.5,4 L-165.5,0 z"/><text style="font-size:10px;fill:#282828;font-family:sans-serif;text-anchor:end" id="svg_199" x="-166" y="-12.5"><tspan id="svg_200" x="-130" y="1.5">↓</tspan></text></g></g><g id="svg_201"><g id="svg_202" transform="translate(677, 114) scale(1.5)"><path style="fill:#77c428;fill-opacity:1;stroke:#57ad02;stroke-width:1;stroke-linecap:round;stroke-opacity:1" id="svg_203" d="m-165.5,-4 L-165.5,-8 A4,4 90 0 1 -161.5,-12 L-157.5,-12 L-157.5,-10 L-147.5,-10 L-147.5,-12 L-117.5,-12 L-113.5,-12 A4,4 90 0 1 -109.5,-8 L-109.5,-4 L-113.5,-4 L-113.5,-7 L-117.5,-7 L-117.5,3 L-113.5,3 L-113.5,0 L-109.5,0 L-109.5,17 L-113.5,17 L-113.5,14 L-117.5,14 L-117.5,24 L-113.5,24 L-113.5,21 L-109.5,21 L-109.5,25 A4,4 90 0 1 -113.5,29 L-117.5,29 L-147.5,29 L-148.5,29 L-148.5,31 L-156.5,31 L-156.5,29 L-157.5,29 L-161.5,29 A4,4 90 0 1 -165.5,25 L-165.5,21 L-165.5,0 L-165.5,-4 z"/><text style="font-size:10px;fill:#282828;font-family:sans-serif;text-anchor:end" id="svg_204" x="-166" y="-12.5"><tspan id="svg_205" x="-120" y="11.5">pitch</tspan></text><text style="font-size:6.666666666666667px;fill:#282828;font-family:sans-serif;text-anchor:end" id="svg_206" x="-166" y="-12.5"><tspan id="svg_207" x="-120" y="-.5">name</tspan></text><text style="font-size:6.666666666666667px;fill:#282828;font-family:sans-serif;text-anchor:end" id="svg_208" x="-166" y="-12.5"><tspan id="svg_209" x="-120" y="20.5">octave</tspan></text></g></g><g id="svg_210"><g id="svg_211" transform="translate(751, 114) scale(1.5)"><path style="fill:#77c428;fill-opacity:1;stroke:#57ad02;stroke-width:1;stroke-linecap:round;stroke-opacity:1" id="svg_212" d="m-157.5,-12 L-97.5,-12 L-97.5,8 L-157.5,8 L-157.5,0 L-157.5,-1 L-163.5,-1 L-163.5,2 L-165.5,2 L-165.5,-6 L-163.5,-6 L-163.5,-3 L-157.5,-3 L-157.5,-4 z"/><text style="font-size:10px;fill:#282828;font-family:sans-serif;text-anchor:start" id="svg_213" x="-166" y="-12.5"><tspan id="svg_214" x="-153" y="1.5">sol</tspan></text></g></g><g id="svg_215"><g id="svg_216" transform="translate(751, 146) scale(1.5)"><path style="fill:#ff5293;fill-opacity:1;stroke:#ff2c76;stroke-width:1;stroke-linecap:round;stroke-opacity:1" id="svg_217" d="m-157.5,-12 L-97.5,-12 L-97.5,8 L-157.5,8 L-157.5,0 L-157.5,-1 L-163.5,-1 L-163.5,2 L-165.5,2 L-165.5,-6 L-163.5,-6 L-163.5,-3 L-157.5,-3 L-157.5,-4 z"/><text style="font-size:10px;fill:#282828;font-family:sans-serif;text-anchor:start" id="svg_218" x="-166" y="-12.5"><tspan id="svg_219" x="-153" y="1.5">4</tspan></text></g></g><g id="svg_220"><g id="svg_221"><g id="svg_222" transform="translate(663, 208) scale(1.5)"><path style="fill:#ff8b2d;fill-opacity:1;stroke:#e86b0e;stroke-width:1;stroke-linecap:round;stroke-opacity:1" id="svg_223" d="m-165.5,-4 L-165.5,-8 A4,4 90 0 1 -161.5,-12 L-157.5,-12 L-157.5,-10 L-147.5,-10 L-147.5,-12 L-138.5,-12 L-78.5,-12 L-74.5,-12 A4,4 90 0 1 -70.5,-8 L-70.5,-4 L-74.5,-4 L-74.5,-7 L-78.5,-7 L-78.5,3 L-74.5,3 L-74.5,0 L-70.5,0 L-70.5,4 A4,4 90 0 1 -74.5,8 L-78.5,8 L-138.5,8 L-139.5,8 L-139.5,10 L-147.5,10 L-147.5,8 L-148.5,8 L-152.5,8 A5,5 90 0 0 -157.5,13 L-157.5,17 L-157.5,21 L-157.5,63 L-157.5,67 A5,5 90 0 0 -152.5,72 L-148.5,72 L-148.5,74 L-138.5,74 L-138.5,72 L-130.5,72 L-130.5,78 L-130.5,84 L-130.5,88 A4,4 90 0 1 -134.5,92 L-138.5,92 L-147.5,92 L-148.5,92 L-148.5,94 L-156.5,94 L-156.5,92 L-157.5,92 L-161.5,92 A4,4 90 0 1 -165.5,88 L-165.5,84 z"/><text style="font-size:10px;fill:#282828;font-family:sans-serif;text-anchor:start" id="svg_224" x="-166" y="-12.5"><tspan id="svg_225" x="-146" y="2.5">note</tspan></text><text style="font-size:6.666666666666667px;fill:#282828;font-family:sans-serif;text-anchor:end" id="svg_226" x="-166" y="-12.5"><tspan id="svg_227" x="-81" y="-.5">value</tspan></text></g></g><g id="svg_228" transform="translate(663, 212) scale(0.5)"><g style="isolation:isolate" id="svg_229"><g id="レイヤー_2" data-name="レイヤー 2"><g id="Icon"><rect style="fill:#292929;opacity:.4;mix-blend-mode:multiply" id="svg_230" width="42" height="42" x="-498" y="-37.5" rx="5" ry="5"/><path style="fill:#fff" id="svg_231" d="M-467.4400005340576,-7.700000762939453 l-4.170000076293945,-4.159999847412109 h2.259999990463257 a1,1 0 1 0 0,-2.069999933242798 H-474.0599994659424 a1.0800000429153442,1.0800000429153442 0 0 0 -1.1100000143051147,1 v0 s0,0 0,0.05999999865889549 v4.639999866485596 h0 a1,1 0 1 0 2.0799999237060547,0 V-10.420000076293945 l4.190000057220459,4.190000057220459 a1,1 0 0 0 1.4600000381469727,0 A1,1 0 0 0 -467.4400005340576,-7.700000762939453 z"/><path style="fill:#fff" id="svg_232" d="M-478.82999992370605,-12.899999618530273 a1.0800000429153442,1.0800000429153442 0 0 0 -1.1100000143051147,-1 H-484.6499996185303 a1,1 0 1 0 0,2.069999933242798 H-482.3999996185303 L-486.5600004196167,-7.700000762939453 a1,1 0 0 0 1.4700000286102295,1.4700000286102295 l4.179999828338623,-4.190000057220459 v2.259999990463257 a1,1 0 1 0 2.0799999237060547,0 V-12.799999237060547 s0,0 0,-0.05999999865889549 A0.07999999821186066,0.07999999821186066 0 0 1 -478.82999992370605,-12.899999618530273 z"/><path style="fill:#fff" id="svg_233" d="M-474.0599994659424,-17 h4.699999809265137 a1,1 0 1 0 0,-2.0799999237060547 H-471.61000061035156 l4.170000076293945,-4.159999847412109 a1,1 0 0 0 0,-1.4700000286102295 a1,1 0 0 0 -1.4600000381469727,0 L-473.0900001525879,-20.5 V-22.77999973297119 a1,1 0 1 0 -2.0799999237060547,0 v4.639999866485596 a0.4300000071525574,0.4300000071525574 0 0 0 0,0.05000000074505806 v0.05000000074505806 A1.090000033378601,1.090000033378601 0 0 0 -474.0599994659424,-17 z"/><path style="fill:#fff" id="svg_234" d="M-479.8700008392334,-23.880000114440918 a1.0800000429153442,1.0800000429153442 0 0 0 -1,1.090000033378601 V-20.5 l-4.179999828338623,-4.190000057220459 a1,1 0 0 0 -1.4700000286102295,0 a1,1 0 0 0 0,1.4600000381469727 l4.159999847412109,4.170000076293945 H-484.6499996185303 a1,1 0 1 0 0,2.0799999237060547 h4.710000038146973 a1.090000033378601,1.090000033378601 0 0 0 1.1100000143051147,-1 a0.07999999821186066,0.07999999821186066 0 0 1 0,0 s0,0 0,-0.05999999865889549 V-22.789999961853027 A1.0700000524520874,1.0700000524520874 0 0 0 -479.8700008392334,-23.880000114440918 z"/></g></g></g></g></g><g id="svg_235"><g id="svg_236" transform="translate(795, 208) scale(1.5)"><path style="fill:#ff5293;fill-opacity:1;stroke:#ff2c76;stroke-width:1;stroke-linecap:round;stroke-opacity:1" id="svg_237" d="m-157.5,-4 L-157.5,-8 A4,4 90 0 1 -153.5,-12 L-149.5,-12 L-139.5,-12 L-109.5,-12 L-105.5,-12 A4,4 90 0 1 -101.5,-8 L-101.5,-4 L-105.5,-4 L-105.5,-7 L-109.5,-7 L-109.5,3 L-105.5,3 L-105.5,0 L-101.5,0 L-101.5,17 L-105.5,17 L-105.5,14 L-109.5,14 L-109.5,24 L-105.5,24 L-105.5,21 L-101.5,21 L-101.5,25 A4,4 90 0 1 -105.5,29 L-109.5,29 L-139.5,29 L-149.5,29 L-153.5,29 A4,4 90 0 1 -157.5,25 L-157.5,21 L-157.5,0 L-157.5,-1 L-163.5,-1 L-163.5,2 L-165.5,2 L-165.5,-6 L-163.5,-6 L-163.5,-3 L-157.5,-3 L-157.5,-4 z"/><text style="font-size:9px;fill:#282828;font-family:sans-serif;text-anchor:end" id="svg_238" x="-166" y="-12.5"><tspan id="svg_239" x="-112" y="10.5">➗</tspan></text></g></g><g id="svg_244"><g id="svg_245" transform="translate(881, 208) scale(1.5)"><path style="fill:#ff5293;fill-opacity:1;stroke:#ff2c76;stroke-width:1;stroke-linecap:round;stroke-opacity:1" id="svg_246" d="m-157.5,-12 L-97.5,-12 L-97.5,8 L-157.5,8 L-157.5,0 L-157.5,-1 L-163.5,-1 L-163.5,2 L-165.5,2 L-165.5,-6 L-163.5,-6 L-163.5,-3 L-157.5,-3 L-157.5,-4 z"/><text style="font-size:10px;fill:#282828;font-family:sans-serif;text-anchor:start" id="svg_247" x="-166" y="-12.5"><tspan id="svg_248" x="-153" y="1.5">1</tspan></text></g></g><g id="svg_249"><g id="svg_250" transform="translate(881, 240) scale(1.5)"><path style="fill:#ff5293;fill-opacity:1;stroke:#ff2c76;stroke-width:1;stroke-linecap:round;stroke-opacity:1" id="svg_251" d="m-157.5,-12 L-97.5,-12 L-97.5,8 L-157.5,8 L-157.5,0 L-157.5,-1 L-163.5,-1 L-163.5,2 L-165.5,2 L-165.5,-6 L-163.5,-6 L-163.5,-3 L-157.5,-3 L-157.5,-4 z"/><text style="font-size:10px;fill:#282828;font-family:sans-serif;text-anchor:start" id="svg_252" x="-166" y="-12.5"><tspan id="svg_253" x="-153" y="1.5">4</tspan></text></g></g><g id="svg_254"><g id="svg_255" transform="translate(677, 240) scale(1.5)"><path style="fill:#b0b0b0;fill-opacity:1;stroke:#a0a0a0;stroke-width:1;stroke-linecap:round;stroke-opacity:1" id="svg_256" d="m-165.5,-4 L-165.5,-8 A4,4 90 0 1 -161.5,-12 L-157.5,-12 L-157.5,-10 L-147.5,-10 L-147.5,-12 L-127.5,-12 L-123.5,-12 A4,4 90 0 1 -119.5,-8 L-119.5,-4 L-119.5,0 L-119.5,4 A4,4 90 0 1 -123.5,8 L-127.5,8 L-147.5,8 L-148.5,8 L-148.5,10 L-156.5,10 L-156.5,8 L-157.5,8 L-161.5,8 A4,4 90 0 1 -165.5,4 L-165.5,0 z"/><text style="font-size:10px;fill:#282828;font-family:sans-serif;text-anchor:end" id="svg_257" x="-166" y="-12.5"><tspan id="svg_258" x="-130" y="1.5">↓</tspan></text></g></g><g id="svg_259"><g id="svg_260" transform="translate(677, 272) scale(1.5)"><path style="fill:#77c428;fill-opacity:1;stroke:#57ad02;stroke-width:1;stroke-linecap:round;stroke-opacity:1" id="svg_261" d="m-165.5,-4 L-165.5,-8 A4,4 90 0 1 -161.5,-12 L-157.5,-12 L-157.5,-10 L-147.5,-10 L-147.5,-12 L-117.5,-12 L-113.5,-12 A4,4 90 0 1 -109.5,-8 L-109.5,-4 L-113.5,-4 L-113.5,-7 L-117.5,-7 L-117.5,3 L-113.5,3 L-113.5,0 L-109.5,0 L-109.5,17 L-113.5,17 L-113.5,14 L-117.5,14 L-117.5,24 L-113.5,24 L-113.5,21 L-109.5,21 L-109.5,25 A4,4 90 0 1 -113.5,29 L-117.5,29 L-147.5,29 L-148.5,29 L-148.5,31 L-156.5,31 L-156.5,29 L-157.5,29 L-161.5,29 A4,4 90 0 1 -165.5,25 L-165.5,21 L-165.5,0 L-165.5,-4 z"/><text style="font-size:10px;fill:#282828;font-family:sans-serif;text-anchor:end" id="svg_262" x="-166" y="-12.5"><tspan id="svg_263" x="-120" y="11.5">pitch</tspan></text><text style="font-size:6.666666666666667px;fill:#282828;font-family:sans-serif;text-anchor:end" id="svg_264" x="-166" y="-12.5"><tspan id="svg_265" x="-120" y="-.5">name</tspan></text><text style="font-size:6.666666666666667px;fill:#282828;font-family:sans-serif;text-anchor:end" id="svg_266" x="-166" y="-12.5"><tspan id="svg_267" x="-120" y="20.5">octave</tspan></text></g></g><g id="svg_268"><g id="svg_269" transform="translate(751, 272) scale(1.5)"><path style="fill:#77c428;fill-opacity:1;stroke:#57ad02;stroke-width:1;stroke-linecap:round;stroke-opacity:1" id="svg_270" d="m-157.5,-12 L-97.5,-12 L-97.5,8 L-157.5,8 L-157.5,0 L-157.5,-1 L-163.5,-1 L-163.5,2 L-165.5,2 L-165.5,-6 L-163.5,-6 L-163.5,-3 L-157.5,-3 L-157.5,-4 z"/><text style="font-size:10px;fill:#282828;font-family:sans-serif;text-anchor:start" id="svg_271" x="-166" y="-12.5"><tspan id="svg_272" x="-153" y="1.5">la</tspan></text></g></g><g id="svg_273"><g id="svg_274" transform="translate(751, 304) scale(1.5)"><path style="fill:#ff5293;fill-opacity:1;stroke:#ff2c76;stroke-width:1;stroke-linecap:round;stroke-opacity:1" id="svg_275" d="m-157.5,-12 L-97.5,-12 L-97.5,8 L-157.5,8 L-157.5,0 L-157.5,-1 L-163.5,-1 L-163.5,2 L-165.5,2 L-165.5,-6 L-163.5,-6 L-163.5,-3 L-157.5,-3 L-157.5,-4 z"/><text style="font-size:10px;fill:#282828;font-family:sans-serif;text-anchor:start" id="svg_276" x="-166" y="-12.5"><tspan id="svg_277" x="-153" y="1.5">4</tspan></text></g></g><g id="svg_278"><g id="svg_279"><g id="svg_280" transform="translate(663, 366) scale(1.5)"><path style="fill:#ff8b2d;fill-opacity:1;stroke:#e86b0e;stroke-width:1;stroke-linecap:round;stroke-opacity:1" id="svg_281" d="m-165.5,-4 L-165.5,-8 A4,4 90 0 1 -161.5,-12 L-157.5,-12 L-157.5,-10 L-147.5,-10 L-147.5,-12 L-138.5,-12 L-78.5,-12 L-74.5,-12 A4,4 90 0 1 -70.5,-8 L-70.5,-4 L-74.5,-4 L-74.5,-7 L-78.5,-7 L-78.5,3 L-74.5,3 L-74.5,0 L-70.5,0 L-70.5,4 A4,4 90 0 1 -74.5,8 L-78.5,8 L-138.5,8 L-139.5,8 L-139.5,10 L-147.5,10 L-147.5,8 L-148.5,8 L-152.5,8 A5,5 90 0 0 -157.5,13 L-157.5,17 L-157.5,21 L-157.5,63 L-157.5,67 A5,5 90 0 0 -152.5,72 L-148.5,72 L-148.5,74 L-138.5,74 L-138.5,72 L-130.5,72 L-130.5,78 L-130.5,84 L-130.5,88 A4,4 90 0 1 -134.5,92 L-138.5,92 L-147.5,92 L-148.5,92 L-148.5,94 L-156.5,94 L-156.5,92 L-157.5,92 L-161.5,92 A4,4 90 0 1 -165.5,88 L-165.5,84 z"/><text style="font-size:10px;fill:#282828;font-family:sans-serif;text-anchor:start" id="svg_282" x="-166" y="-12.5"><tspan id="svg_283" x="-146" y="2.5">note</tspan></text><text style="font-size:6.666666666666667px;fill:#282828;font-family:sans-serif;text-anchor:end" id="svg_284" x="-166" y="-12.5"><tspan id="svg_285" x="-81" y="-.5">value</tspan></text></g></g><g id="svg_286" transform="translate(663, 370) scale(0.5)"><g style="isolation:isolate" id="svg_287"><g id="レイヤー_2" data-name="レイヤー 2"><g id="Icon"><rect style="fill:#292929;opacity:.4;mix-blend-mode:multiply" id="svg_288" width="42" height="42" x="-498" y="-37.5" rx="5" ry="5"/><path style="fill:#fff" id="svg_289" d="M-467.4400005340576,-7.700000762939453 l-4.170000076293945,-4.159999847412109 h2.259999990463257 a1,1 0 1 0 0,-2.069999933242798 H-474.0599994659424 a1.0800000429153442,1.0800000429153442 0 0 0 -1.1100000143051147,1 v0 s0,0 0,0.05999999865889549 v4.639999866485596 h0 a1,1 0 1 0 2.0799999237060547,0 V-10.420000076293945 l4.190000057220459,4.190000057220459 a1,1 0 0 0 1.4600000381469727,0 A1,1 0 0 0 -467.4400005340576,-7.700000762939453 z"/><path style="fill:#fff" id="svg_290" d="M-478.82999992370605,-12.899999618530273 a1.0800000429153442,1.0800000429153442 0 0 0 -1.1100000143051147,-1 H-484.6499996185303 a1,1 0 1 0 0,2.069999933242798 H-482.3999996185303 L-486.5600004196167,-7.700000762939453 a1,1 0 0 0 1.4700000286102295,1.4700000286102295 l4.179999828338623,-4.190000057220459 v2.259999990463257 a1,1 0 1 0 2.0799999237060547,0 V-12.799999237060547 s0,0 0,-0.05999999865889549 A0.07999999821186066,0.07999999821186066 0 0 1 -478.82999992370605,-12.899999618530273 z"/><path style="fill:#fff" id="svg_291" d="M-474.0599994659424,-17 h4.699999809265137 a1,1 0 1 0 0,-2.0799999237060547 H-471.61000061035156 l4.170000076293945,-4.159999847412109 a1,1 0 0 0 0,-1.4700000286102295 a1,1 0 0 0 -1.4600000381469727,0 L-473.0900001525879,-20.5 V-22.77999973297119 a1,1 0 1 0 -2.0799999237060547,0 v4.639999866485596 a0.4300000071525574,0.4300000071525574 0 0 0 0,0.05000000074505806 v0.05000000074505806 A1.090000033378601,1.090000033378601 0 0 0 -474.0599994659424,-17 z"/><path style="fill:#fff" id="svg_292" d="M-479.8700008392334,-23.880000114440918 a1.0800000429153442,1.0800000429153442 0 0 0 -1,1.090000033378601 V-20.5 l-4.179999828338623,-4.190000057220459 a1,1 0 0 0 -1.4700000286102295,0 a1,1 0 0 0 0,1.4600000381469727 l4.159999847412109,4.170000076293945 H-484.6499996185303 a1,1 0 1 0 0,2.0799999237060547 h4.710000038146973 a1.090000033378601,1.090000033378601 0 0 0 1.1100000143051147,-1 a0.07999999821186066,0.07999999821186066 0 0 1 0,0 s0,0 0,-0.05999999865889549 V-22.789999961853027 A1.0700000524520874,1.0700000524520874 0 0 0 -479.8700008392334,-23.880000114440918 z"/></g></g></g></g></g><g id="svg_293"><g id="svg_294" transform="translate(795, 366) scale(1.5)"><path style="fill:#ff5293;fill-opacity:1;stroke:#ff2c76;stroke-width:1;stroke-linecap:round;stroke-opacity:1" id="svg_295" d="m-157.5,-4 L-157.5,-8 A4,4 90 0 1 -153.5,-12 L-149.5,-12 L-139.5,-12 L-109.5,-12 L-105.5,-12 A4,4 90 0 1 -101.5,-8 L-101.5,-4 L-105.5,-4 L-105.5,-7 L-109.5,-7 L-109.5,3 L-105.5,3 L-105.5,0 L-101.5,0 L-101.5,17 L-105.5,17 L-105.5,14 L-109.5,14 L-109.5,24 L-105.5,24 L-105.5,21 L-101.5,21 L-101.5,25 A4,4 90 0 1 -105.5,29 L-109.5,29 L-139.5,29 L-149.5,29 L-153.5,29 A4,4 90 0 1 -157.5,25 L-157.5,21 L-157.5,0 L-157.5,-1 L-163.5,-1 L-163.5,2 L-165.5,2 L-165.5,-6 L-163.5,-6 L-163.5,-3 L-157.5,-3 L-157.5,-4 z"/><text style="font-size:9px;fill:#282828;font-family:sans-serif;text-anchor:end" id="svg_296" x="-166" y="-12.5"><tspan id="svg_297" x="-112" y="10.5">➗</tspan></text></g></g><g id="svg_302"><g id="svg_303" transform="translate(881, 366) scale(1.5)"><path style="fill:#ff5293;fill-opacity:1;stroke:#ff2c76;stroke-width:1;stroke-linecap:round;stroke-opacity:1" id="svg_304" d="m-157.5,-12 L-97.5,-12 L-97.5,8 L-157.5,8 L-157.5,0 L-157.5,-1 L-163.5,-1 L-163.5,2 L-165.5,2 L-165.5,-6 L-163.5,-6 L-163.5,-3 L-157.5,-3 L-157.5,-4 z"/><text style="font-size:10px;fill:#282828;font-family:sans-serif;text-anchor:start" id="svg_305" x="-166" y="-12.5"><tspan id="svg_306" x="-153" y="1.5">1</tspan></text></g></g><g id="svg_307"><g id="svg_308" transform="translate(881, 398) scale(1.5)"><path style="fill:#ff5293;fill-opacity:1;stroke:#ff2c76;stroke-width:1;stroke-linecap:round;stroke-opacity:1" id="svg_309" d="m-157.5,-12 L-97.5,-12 L-97.5,8 L-157.5,8 L-157.5,0 L-157.5,-1 L-163.5,-1 L-163.5,2 L-165.5,2 L-165.5,-6 L-163.5,-6 L-163.5,-3 L-157.5,-3 L-157.5,-4 z"/><text style="font-size:10px;fill:#282828;font-family:sans-serif;text-anchor:start" id="svg_310" x="-166" y="-12.5"><tspan id="svg_311" x="-153" y="1.5">4</tspan></text></g></g><g id="svg_312"><g id="svg_313" transform="translate(677, 398) scale(1.5)"><path style="fill:#b0b0b0;fill-opacity:1;stroke:#a0a0a0;stroke-width:1;stroke-linecap:round;stroke-opacity:1" id="svg_314" d="m-165.5,-4 L-165.5,-8 A4,4 90 0 1 -161.5,-12 L-157.5,-12 L-157.5,-10 L-147.5,-10 L-147.5,-12 L-127.5,-12 L-123.5,-12 A4,4 90 0 1 -119.5,-8 L-119.5,-4 L-119.5,0 L-119.5,4 A4,4 90 0 1 -123.5,8 L-127.5,8 L-147.5,8 L-148.5,8 L-148.5,10 L-156.5,10 L-156.5,8 L-157.5,8 L-161.5,8 A4,4 90 0 1 -165.5,4 L-165.5,0 z"/><text style="font-size:10px;fill:#282828;font-family:sans-serif;text-anchor:end" id="svg_315" x="-166" y="-12.5"><tspan id="svg_316" x="-130" y="1.5">↓</tspan></text></g></g><g id="svg_317"><g id="svg_318" transform="translate(677, 430) scale(1.5)"><path style="fill:#77c428;fill-opacity:1;stroke:#57ad02;stroke-width:1;stroke-linecap:round;stroke-opacity:1" id="svg_319" d="m-165.5,-4 L-165.5,-8 A4,4 90 0 1 -161.5,-12 L-157.5,-12 L-157.5,-10 L-147.5,-10 L-147.5,-12 L-117.5,-12 L-113.5,-12 A4,4 90 0 1 -109.5,-8 L-109.5,-4 L-113.5,-4 L-113.5,-7 L-117.5,-7 L-117.5,3 L-113.5,3 L-113.5,0 L-109.5,0 L-109.5,17 L-113.5,17 L-113.5,14 L-117.5,14 L-117.5,24 L-113.5,24 L-113.5,21 L-109.5,21 L-109.5,25 A4,4 90 0 1 -113.5,29 L-117.5,29 L-147.5,29 L-148.5,29 L-148.5,31 L-156.5,31 L-156.5,29 L-157.5,29 L-161.5,29 A4,4 90 0 1 -165.5,25 L-165.5,21 L-165.5,0 L-165.5,-4 z"/><text style="font-size:10px;fill:#282828;font-family:sans-serif;text-anchor:end" id="svg_320" x="-166" y="-12.5"><tspan id="svg_321" x="-120" y="11.5">pitch</tspan></text><text style="font-size:6.666666666666667px;fill:#282828;font-family:sans-serif;text-anchor:end" id="svg_322" x="-166" y="-12.5"><tspan id="svg_323" x="-120" y="-.5">name</tspan></text><text style="font-size:6.666666666666667px;fill:#282828;font-family:sans-serif;text-anchor:end" id="svg_324" x="-166" y="-12.5"><tspan id="svg_325" x="-120" y="20.5">octave</tspan></text></g></g><g id="svg_326"><g id="svg_327" transform="translate(751, 430) scale(1.5)"><path style="fill:#77c428;fill-opacity:1;stroke:#57ad02;stroke-width:1;stroke-linecap:round;stroke-opacity:1" id="svg_328" d="m-157.5,-12 L-97.5,-12 L-97.5,8 L-157.5,8 L-157.5,0 L-157.5,-1 L-163.5,-1 L-163.5,2 L-165.5,2 L-165.5,-6 L-163.5,-6 L-163.5,-3 L-157.5,-3 L-157.5,-4 z"/><text style="font-size:10px;fill:#282828;font-family:sans-serif;text-anchor:start" id="svg_329" x="-166" y="-12.5"><tspan id="svg_330" x="-153" y="1.5">ti</tspan></text></g></g><g id="svg_331"><g id="svg_332" transform="translate(751, 462) scale(1.5)"><path style="fill:#ff5293;fill-opacity:1;stroke:#ff2c76;stroke-width:1;stroke-linecap:round;stroke-opacity:1" id="svg_333" d="m-157.5,-12 L-97.5,-12 L-97.5,8 L-157.5,8 L-157.5,0 L-157.5,-1 L-163.5,-1 L-163.5,2 L-165.5,2 L-165.5,-6 L-163.5,-6 L-163.5,-3 L-157.5,-3 L-157.5,-4 z"/><text style="font-size:10px;fill:#282828;font-family:sans-serif;text-anchor:start" id="svg_334" x="-166" y="-12.5"><tspan id="svg_335" x="-153" y="1.5">4</tspan></text></g></g><g id="svg_336"><g id="svg_337" transform="translate(649, 18) scale(1.5)"><path style="fill:#25c3c0;fill-opacity:1;stroke:#1dbcbd;stroke-width:1;stroke-linecap:round;stroke-opacity:1" id="svg_338" d="m-165.5,-4 L-165.5,-8 A4,4 90 0 1 -161.5,-12 L-157.5,-12 L-157.5,-10 L-147.5,-10 L-147.5,-12 L-138.5,-12 L-101.5,-12 L-97.5,-12 A4,4 90 0 1 -93.5,-8 L-93.5,-4 L-97.5,-4 L-97.5,-7 L-101.5,-7 L-101.5,3 L-97.5,3 L-97.5,0 L-93.5,0 L-93.5,4 A4,4 90 0 1 -97.5,8 L-101.5,8 L-138.5,8 L-139.5,8 L-139.5,10 L-147.5,10 L-147.5,8 L-148.5,8 L-152.5,8 A5,5 90 0 0 -157.5,13 L-157.5,17 L-157.5,21 L-157.5,315 L-157.5,319 A5,5 90 0 0 -152.5,324 L-148.5,324 L-148.5,326 L-138.5,326 L-138.5,324 L-130.5,324 L-130.5,330 L-130.5,336 L-130.5,340 A4,4 90 0 1 -134.5,344 L-138.5,344 L-147.5,344 L-148.5,344 L-148.5,346 L-156.5,346 L-156.5,344 L-157.5,344 L-161.5,344 A4,4 90 0 1 -165.5,340 L-165.5,336 z"/><text style="font-size:10px;fill:#282828;font-family:sans-serif;text-anchor:start" id="svg_339" x="-166" y="-12.5"><tspan id="svg_340" x="-161" y="2.5">crescendo</tspan></text></g></g><g id="svg_343"><g id="svg_344" transform="translate(747, 18) scale(1.5)"><path style="fill:#ff5293;fill-opacity:1;stroke:#ff2c76;stroke-width:1;stroke-linecap:round;stroke-opacity:1" id="svg_345" d="m-157.5,-12 L-97.5,-12 L-97.5,8 L-157.5,8 L-157.5,0 L-157.5,-1 L-163.5,-1 L-163.5,2 L-165.5,2 L-165.5,-6 L-163.5,-6 L-163.5,-3 L-157.5,-3 L-157.5,-4 z"/><text style="font-size:10px;fill:#282828;font-family:sans-serif;text-anchor:start" id="svg_346" x="-166" y="-12.5"><tspan id="svg_347" x="-153" y="1.5">5</tspan></text></g></g><g id="svg_348"><g id="svg_349"><g id="svg_350" transform="translate(266, 524) scale(1.5)"><path style="fill:#ff8b2d;fill-opacity:1;stroke:#e86b0e;stroke-width:1;stroke-linecap:round;stroke-opacity:1" id="svg_351" d="m-165.5,-4 L-165.5,-8 A4,4 90 0 1 -161.5,-12 L-157.5,-12 L-157.5,-10 L-147.5,-10 L-147.5,-12 L-138.5,-12 L-78.5,-12 L-74.5,-12 A4,4 90 0 1 -70.5,-8 L-70.5,-4 L-74.5,-4 L-74.5,-7 L-78.5,-7 L-78.5,3 L-74.5,3 L-74.5,0 L-70.5,0 L-70.5,4 A4,4 90 0 1 -74.5,8 L-78.5,8 L-138.5,8 L-139.5,8 L-139.5,10 L-147.5,10 L-147.5,8 L-148.5,8 L-152.5,8 A5,5 90 0 0 -157.5,13 L-157.5,17 L-157.5,21 L-157.5,63 L-157.5,67 A5,5 90 0 0 -152.5,72 L-148.5,72 L-148.5,74 L-138.5,74 L-138.5,72 L-130.5,72 L-130.5,78 L-130.5,84 L-130.5,88 A4,4 90 0 1 -134.5,92 L-138.5,92 L-147.5,92 L-148.5,92 L-148.5,94 L-156.5,94 L-156.5,92 L-157.5,92 L-161.5,92 A4,4 90 0 1 -165.5,88 L-165.5,84 z"/><text style="font-size:10px;fill:#282828;font-family:sans-serif;text-anchor:start" id="svg_352" x="-166" y="-12.5"><tspan id="svg_353" x="-146" y="2.5">note</tspan></text><text style="font-size:6.666666666666667px;fill:#282828;font-family:sans-serif;text-anchor:end" id="svg_354" x="-166" y="-12.5"><tspan id="svg_355" x="-81" y="-.5">value</tspan></text></g></g><g id="svg_356" transform="translate(266, 528) scale(0.5)"><g style="isolation:isolate" id="svg_357"><g id="レイヤー_2" data-name="レイヤー 2"><g id="Icon"><rect style="fill:#292929;opacity:.4;mix-blend-mode:multiply" id="svg_358" width="42" height="42" x="-498" y="-37.5" rx="5" ry="5"/><path style="fill:#fff" id="svg_359" d="M-467.4400005340576,-7.700000762939453 l-4.170000076293945,-4.159999847412109 h2.259999990463257 a1,1 0 1 0 0,-2.069999933242798 H-474.0599994659424 a1.0800000429153442,1.0800000429153442 0 0 0 -1.1100000143051147,1 v0 s0,0 0,0.05999999865889549 v4.639999866485596 h0 a1,1 0 1 0 2.0799999237060547,0 V-10.420000076293945 l4.190000057220459,4.190000057220459 a1,1 0 0 0 1.4600000381469727,0 A1,1 0 0 0 -467.4400005340576,-7.700000762939453 z"/><path style="fill:#fff" id="svg_360" d="M-478.82999992370605,-12.899999618530273 a1.0800000429153442,1.0800000429153442 0 0 0 -1.1100000143051147,-1 H-484.6499996185303 a1,1 0 1 0 0,2.069999933242798 H-482.3999996185303 L-486.5600004196167,-7.700000762939453 a1,1 0 0 0 1.4700000286102295,1.4700000286102295 l4.179999828338623,-4.190000057220459 v2.259999990463257 a1,1 0 1 0 2.0799999237060547,0 V-12.799999237060547 s0,0 0,-0.05999999865889549 A0.07999999821186066,0.07999999821186066 0 0 1 -478.82999992370605,-12.899999618530273 z"/><path style="fill:#fff" id="svg_361" d="M-474.0599994659424,-17 h4.699999809265137 a1,1 0 1 0 0,-2.0799999237060547 H-471.61000061035156 l4.170000076293945,-4.159999847412109 a1,1 0 0 0 0,-1.4700000286102295 a1,1 0 0 0 -1.4600000381469727,0 L-473.0900001525879,-20.5 V-22.77999973297119 a1,1 0 1 0 -2.0799999237060547,0 v4.639999866485596 a0.4300000071525574,0.4300000071525574 0 0 0 0,0.05000000074505806 v0.05000000074505806 A1.090000033378601,1.090000033378601 0 0 0 -474.0599994659424,-17 z"/><path style="fill:#fff" id="svg_362" d="M-479.8700008392334,-23.880000114440918 a1.0800000429153442,1.0800000429153442 0 0 0 -1,1.090000033378601 V-20.5 l-4.179999828338623,-4.190000057220459 a1,1 0 0 0 -1.4700000286102295,0 a1,1 0 0 0 0,1.4600000381469727 l4.159999847412109,4.170000076293945 H-484.6499996185303 a1,1 0 1 0 0,2.0799999237060547 h4.710000038146973 a1.090000033378601,1.090000033378601 0 0 0 1.1100000143051147,-1 a0.07999999821186066,0.07999999821186066 0 0 1 0,0 s0,0 0,-0.05999999865889549 V-22.789999961853027 A1.0700000524520874,1.0700000524520874 0 0 0 -479.8700008392334,-23.880000114440918 z"/></g></g></g></g></g><g id="svg_363"><g id="svg_364" transform="translate(398, 524) scale(1.5)"><path style="fill:#ff5293;fill-opacity:1;stroke:#ff2c76;stroke-width:1;stroke-linecap:round;stroke-opacity:1" id="svg_365" d="m-157.5,-4 L-157.5,-8 A4,4 90 0 1 -153.5,-12 L-149.5,-12 L-139.5,-12 L-109.5,-12 L-105.5,-12 A4,4 90 0 1 -101.5,-8 L-101.5,-4 L-105.5,-4 L-105.5,-7 L-109.5,-7 L-109.5,3 L-105.5,3 L-105.5,0 L-101.5,0 L-101.5,17 L-105.5,17 L-105.5,14 L-109.5,14 L-109.5,24 L-105.5,24 L-105.5,21 L-101.5,21 L-101.5,25 A4,4 90 0 1 -105.5,29 L-109.5,29 L-139.5,29 L-149.5,29 L-153.5,29 A4,4 90 0 1 -157.5,25 L-157.5,21 L-157.5,0 L-157.5,-1 L-163.5,-1 L-163.5,2 L-165.5,2 L-165.5,-6 L-163.5,-6 L-163.5,-3 L-157.5,-3 L-157.5,-4 z"/><text style="font-size:9px;fill:#282828;font-family:sans-serif;text-anchor:end" id="svg_366" x="-166" y="-12.5"><tspan id="svg_367" x="-112" y="10.5">➗</tspan></text></g></g><g id="svg_372"><g id="svg_373" transform="translate(484, 524) scale(1.5)"><path style="fill:#ff5293;fill-opacity:1;stroke:#ff2c76;stroke-width:1;stroke-linecap:round;stroke-opacity:1" id="svg_374" d="m-157.5,-12 L-97.5,-12 L-97.5,8 L-157.5,8 L-157.5,0 L-157.5,-1 L-163.5,-1 L-163.5,2 L-165.5,2 L-165.5,-6 L-163.5,-6 L-163.5,-3 L-157.5,-3 L-157.5,-4 z"/><text style="font-size:10px;fill:#282828;font-family:sans-serif;text-anchor:start" id="svg_375" x="-166" y="-12.5"><tspan id="svg_376" x="-153" y="1.5">1</tspan></text></g></g><g id="svg_377"><g id="svg_378" transform="translate(484, 556) scale(1.5)"><path style="fill:#ff5293;fill-opacity:1;stroke:#ff2c76;stroke-width:1;stroke-linecap:round;stroke-opacity:1" id="svg_379" d="m-157.5,-12 L-97.5,-12 L-97.5,8 L-157.5,8 L-157.5,0 L-157.5,-1 L-163.5,-1 L-163.5,2 L-165.5,2 L-165.5,-6 L-163.5,-6 L-163.5,-3 L-157.5,-3 L-157.5,-4 z"/><text style="font-size:10px;fill:#282828;font-family:sans-serif;text-anchor:start" id="svg_380" x="-166" y="-12.5"><tspan id="svg_381" x="-153" y="1.5">4</tspan></text></g></g><g id="svg_382"><g id="svg_383" transform="translate(280, 556) scale(1.5)"><path style="fill:#b0b0b0;fill-opacity:1;stroke:#a0a0a0;stroke-width:1;stroke-linecap:round;stroke-opacity:1" id="svg_384" d="m-165.5,-4 L-165.5,-8 A4,4 90 0 1 -161.5,-12 L-157.5,-12 L-157.5,-10 L-147.5,-10 L-147.5,-12 L-127.5,-12 L-123.5,-12 A4,4 90 0 1 -119.5,-8 L-119.5,-4 L-119.5,0 L-119.5,4 A4,4 90 0 1 -123.5,8 L-127.5,8 L-147.5,8 L-148.5,8 L-148.5,10 L-156.5,10 L-156.5,8 L-157.5,8 L-161.5,8 A4,4 90 0 1 -165.5,4 L-165.5,0 z"/><text style="font-size:10px;fill:#282828;font-family:sans-serif;text-anchor:end" id="svg_385" x="-166" y="-12.5"><tspan id="svg_386" x="-130" y="1.5">↓</tspan></text></g></g><g id="svg_387"><g id="svg_388" transform="translate(280, 588) scale(1.5)"><path style="fill:#77c428;fill-opacity:1;stroke:#57ad02;stroke-width:1;stroke-linecap:round;stroke-opacity:1" id="svg_389" d="m-165.5,-4 L-165.5,-8 A4,4 90 0 1 -161.5,-12 L-157.5,-12 L-157.5,-10 L-147.5,-10 L-147.5,-12 L-117.5,-12 L-113.5,-12 A4,4 90 0 1 -109.5,-8 L-109.5,-4 L-113.5,-4 L-113.5,-7 L-117.5,-7 L-117.5,3 L-113.5,3 L-113.5,0 L-109.5,0 L-109.5,17 L-113.5,17 L-113.5,14 L-117.5,14 L-117.5,24 L-113.5,24 L-113.5,21 L-109.5,21 L-109.5,25 A4,4 90 0 1 -113.5,29 L-117.5,29 L-147.5,29 L-148.5,29 L-148.5,31 L-156.5,31 L-156.5,29 L-157.5,29 L-161.5,29 A4,4 90 0 1 -165.5,25 L-165.5,21 L-165.5,0 L-165.5,-4 z"/><text style="font-size:10px;fill:#282828;font-family:sans-serif;text-anchor:end" id="svg_390" x="-166" y="-12.5"><tspan id="svg_391" x="-120" y="11.5">pitch</tspan></text><text style="font-size:6.666666666666667px;fill:#282828;font-family:sans-serif;text-anchor:end" id="svg_392" x="-166" y="-12.5"><tspan id="svg_393" x="-120" y="-.5">name</tspan></text><text style="font-size:6.666666666666667px;fill:#282828;font-family:sans-serif;text-anchor:end" id="svg_394" x="-166" y="-12.5"><tspan id="svg_395" x="-120" y="20.5">octave</tspan></text></g></g><g id="svg_396"><g id="svg_397" transform="translate(354, 588) scale(1.5)"><path style="fill:#77c428;fill-opacity:1;stroke:#57ad02;stroke-width:1;stroke-linecap:round;stroke-opacity:1" id="svg_398" d="m-157.5,-12 L-97.5,-12 L-97.5,8 L-157.5,8 L-157.5,0 L-157.5,-1 L-163.5,-1 L-163.5,2 L-165.5,2 L-165.5,-6 L-163.5,-6 L-163.5,-3 L-157.5,-3 L-157.5,-4 z"/><text style="font-size:10px;fill:#282828;font-family:sans-serif;text-anchor:start" id="svg_399" x="-166" y="-12.5"><tspan id="svg_400" x="-153" y="1.5">sol</tspan></text></g></g><g id="svg_401"><g id="svg_402" transform="translate(354, 620) scale(1.5)"><path style="fill:#ff5293;fill-opacity:1;stroke:#ff2c76;stroke-width:1;stroke-linecap:round;stroke-opacity:1" id="svg_403" d="m-157.5,-12 L-97.5,-12 L-97.5,8 L-157.5,8 L-157.5,0 L-157.5,-1 L-163.5,-1 L-163.5,2 L-165.5,2 L-165.5,-6 L-163.5,-6 L-163.5,-3 L-157.5,-3 L-157.5,-4 z"/><text style="font-size:10px;fill:#282828;font-family:sans-serif;text-anchor:start" id="svg_404" x="-166" y="-12.5"><tspan id="svg_405" x="-153" y="1.5">4</tspan></text></g></g><g id="svg_406"><g id="svg_407" transform="translate(252, 492) scale(1.5)"><path style="fill:#25c3c0;fill-opacity:1;stroke:#1dbcbd;stroke-width:1;stroke-linecap:round;stroke-opacity:1" id="svg_408" d="m-165.5,-4 L-165.5,-8 A4,4 90 0 1 -161.5,-12 L-157.5,-12 L-157.5,-10 L-147.5,-10 L-147.5,-12 L-138.5,-12 L-59.5,-12 L-55.5,-12 A4,4 90 0 1 -51.5,-8 L-51.5,-4 L-55.5,-4 L-55.5,-7 L-59.5,-7 L-59.5,3 L-55.5,3 L-55.5,0 L-51.5,0 L-51.5,4 A4,4 90 0 1 -55.5,8 L-59.5,8 L-138.5,8 L-139.5,8 L-139.5,10 L-147.5,10 L-147.5,8 L-148.5,8 L-152.5,8 A5,5 90 0 0 -157.5,13 L-157.5,17 L-157.5,21 L-157.5,105 L-157.5,109 A5,5 90 0 0 -152.5,114 L-148.5,114 L-148.5,116 L-138.5,116 L-138.5,114 L-130.5,114 L-130.5,120 L-130.5,126 L-130.5,130 A4,4 90 0 1 -134.5,134 L-138.5,134 L-147.5,134 L-148.5,134 L-148.5,136 L-156.5,136 L-156.5,134 L-157.5,134 L-161.5,134 A4,4 90 0 1 -165.5,130 L-165.5,126 z"/><text style="font-size:10px;fill:#282828;font-family:sans-serif;text-anchor:start" id="svg_409" x="-166" y="-12.5"><tspan id="svg_410" x="-161" y="2.5">set relative volume</tspan></text></g></g><g id="svg_413"><g id="svg_414" transform="translate(413, 492) scale(1.5)"><path style="fill:#ff5293;fill-opacity:1;stroke:#ff2c76;stroke-width:1;stroke-linecap:round;stroke-opacity:1" id="svg_415" d="m-157.5,-12 L-97.5,-12 L-97.5,8 L-157.5,8 L-157.5,0 L-157.5,-1 L-163.5,-1 L-163.5,2 L-165.5,2 L-165.5,-6 L-163.5,-6 L-163.5,-3 L-157.5,-3 L-157.5,-4 z"/><text style="font-size:10px;fill:#282828;font-family:sans-serif;text-anchor:start" id="svg_416" x="-166" y="-12.5"><tspan id="svg_417" x="-153" y="1.5">25</tspan></text></g></g></g></svg>