<svg xmlns="http://www.w3.org/2000/svg" width="700" height="463"><rect id="backgroundrect" width="100%" height="100%" x="0" y="0" fill="none" stroke="none"/><g class="currentLayer"><title>Layer 1</title><g id="svg_15"><g id="svg_16" transform="translate(180, 137) scale(1.5)"><path style="fill:#ff8b2d;fill-opacity:1;stroke:#e86b0e;stroke-width:1;stroke-linecap:round;stroke-opacity:1" id="svg_17" d="m-120,-83.33333587646484 L-120,-87.33333587646484 A4,4 90 0 1 -116,-91.33333587646484 L-112,-91.33333587646484 L-112,-89.33333587646484 L-102,-89.33333587646484 L-102,-91.33333587646484 L-93,-91.33333587646484 L-53,-91.33333587646484 L-49,-91.33333587646484 A4,4 90 0 1 -45,-87.33333587646484 L-45,-83.33333587646484 L-49,-83.33333587646484 L-49,-86.33333587646484 L-53,-86.33333587646484 L-53,-76.33333587646484 L-49,-76.33333587646484 L-49,-79.33333587646484 L-45,-79.33333587646484 L-45,-62.333335876464844 L-49,-62.333335876464844 L-49,-65.33333587646484 L-53,-65.33333587646484 L-53,-55.333335876464844 L-49,-55.333335876464844 L-49,-58.333335876464844 L-45,-58.333335876464844 L-45,-54.333335876464844 A4,4 90 0 1 -49,-50.333335876464844 L-53,-50.333335876464844 L-93,-50.333335876464844 L-94,-50.333335876464844 L-94,-48.333335876464844 L-102,-48.333335876464844 L-102,-50.333335876464844 L-103,-50.333335876464844 L-107,-50.333335876464844 A5,5 90 0 0 -112,-45.333335876464844 L-112,-41.333335876464844 L-112,-37.333335876464844 L-112,172.66666412353516 L-112,176.66666412353516 A5,5 90 0 0 -107,181.66666412353516 L-103,181.66666412353516 L-103,183.66666412353516 L-93,183.66666412353516 L-93,181.66666412353516 L-85,181.66666412353516 L-85,187.66666412353516 L-85,193.66666412353516 L-85,197.66666412353516 A4,4 90 0 1 -89,201.66666412353516 L-93,201.66666412353516 L-102,201.66666412353516 L-103,201.66666412353516 L-103,203.66666412353516 L-111,203.66666412353516 L-111,201.66666412353516 L-112,201.66666412353516 L-116,201.66666412353516 A4,4 90 0 1 -120,197.66666412353516 L-120,193.66666412353516 z"/><text style="font-size:10px;fill:#282828;font-family:sans-serif;text-anchor:start" id="svg_18" x="-120.5" y="-91.833"><tspan id="svg_19" x="-115.5" y="-69.833">swing</tspan></text><text style="font-size:6.666666666666667px;fill:#282828;font-family:sans-serif;text-anchor:end" id="svg_20" x="-120.5" y="-91.833"><tspan id="svg_21" x="-55.5" y="-79.833">swing value</tspan></text><text style="font-size:6.666666666666667px;fill:#282828;font-family:sans-serif;text-anchor:end" id="svg_22" x="-120.5" y="-91.833"><tspan id="svg_23" x="-55.5" y="-58.833">note value</tspan></text></g></g><g id="svg_24"><g id="svg_25" transform="translate(282, 137) scale(1.5)"><path style="fill:#b0b0b0;fill-opacity:1;stroke:#a0a0a0;stroke-width:1;stroke-linecap:round;stroke-opacity:1" id="svg_26" d="m-112,-83.33333587646484 L-112,-87.33333587646484 A4,4 90 0 1 -108,-91.33333587646484 L-104,-91.33333587646484 L-94,-91.33333587646484 L-64,-91.33333587646484 L-60,-91.33333587646484 A4,4 90 0 1 -56,-87.33333587646484 L-56,-83.33333587646484 L-60,-83.33333587646484 L-60,-86.33333587646484 L-64,-86.33333587646484 L-64,-76.33333587646484 L-60,-76.33333587646484 L-60,-79.33333587646484 L-56,-79.33333587646484 L-56,-75.33333587646484 A4,4 90 0 1 -60,-71.33333587646484 L-64,-71.33333587646484 L-94,-71.33333587646484 L-104,-71.33333587646484 L-108,-71.33333587646484 A4,4 90 0 1 -112,-75.33333587646484 L-112,-79.33333587646484 L-112,-80.33333587646484 L-118,-80.33333587646484 L-118,-77.33333587646484 L-120,-77.33333587646484 L-120,-85.33333587646484 L-118,-85.33333587646484 L-118,-82.33333587646484 L-112,-82.33333587646484 L-112,-83.33333587646484 z"/><text style="font-size:10px;fill:#282828;font-family:sans-serif;text-anchor:end" id="svg_27" x="-120.5" y="-91.833"><tspan id="svg_28" x="-66.5" y="-78.833">←</tspan></text></g></g><g id="svg_31"><g id="svg_32" transform="translate(368, 137) scale(1.5)"><path style="fill:#b0b0b0;fill-opacity:1;stroke:#a0a0a0;stroke-width:1;stroke-linecap:round;stroke-opacity:1" id="svg_33" d="m-112,-83.33333587646484 L-112,-87.33333587646484 A4,4 90 0 1 -108,-91.33333587646484 L-104,-91.33333587646484 L-94,-91.33333587646484 L-64,-91.33333587646484 L-60,-91.33333587646484 A4,4 90 0 1 -56,-87.33333587646484 L-56,-83.33333587646484 L-60,-83.33333587646484 L-60,-86.33333587646484 L-64,-86.33333587646484 L-64,-76.33333587646484 L-60,-76.33333587646484 L-60,-79.33333587646484 L-56,-79.33333587646484 L-56,-75.33333587646484 A4,4 90 0 1 -60,-71.33333587646484 L-64,-71.33333587646484 L-94,-71.33333587646484 L-104,-71.33333587646484 L-108,-71.33333587646484 A4,4 90 0 1 -112,-75.33333587646484 L-112,-79.33333587646484 L-112,-80.33333587646484 L-118,-80.33333587646484 L-118,-77.33333587646484 L-120,-77.33333587646484 L-120,-85.33333587646484 L-118,-85.33333587646484 L-118,-82.33333587646484 L-112,-82.33333587646484 L-112,-83.33333587646484 z"/><text style="font-size:10px;fill:#282828;font-family:sans-serif;text-anchor:end" id="svg_34" x="-120.5" y="-91.833"><tspan id="svg_35" x="-66.5" y="-78.833">←</tspan></text></g></g><g id="svg_38"><g id="svg_39" transform="translate(454, 137) scale(1.5)"><path style="fill:#ff5293;fill-opacity:1;stroke:#ff2c76;stroke-width:1;stroke-linecap:round;stroke-opacity:1" id="svg_40" d="m-112,-83.33333587646484 L-112,-87.33333587646484 A4,4 90 0 1 -108,-91.33333587646484 L-104,-91.33333587646484 L-94,-91.33333587646484 L-64,-91.33333587646484 L-60,-91.33333587646484 A4,4 90 0 1 -56,-87.33333587646484 L-56,-83.33333587646484 L-60,-83.33333587646484 L-60,-86.33333587646484 L-64,-86.33333587646484 L-64,-76.33333587646484 L-60,-76.33333587646484 L-60,-79.33333587646484 L-56,-79.33333587646484 L-56,-62.333335876464844 L-60,-62.333335876464844 L-60,-65.33333587646484 L-64,-65.33333587646484 L-64,-55.333335876464844 L-60,-55.333335876464844 L-60,-58.333335876464844 L-56,-58.333335876464844 L-56,-54.333335876464844 A4,4 90 0 1 -60,-50.333335876464844 L-64,-50.333335876464844 L-94,-50.333335876464844 L-104,-50.333335876464844 L-108,-50.333335876464844 A4,4 90 0 1 -112,-54.333335876464844 L-112,-58.333335876464844 L-112,-79.33333587646484 L-112,-80.33333587646484 L-118,-80.33333587646484 L-118,-77.33333587646484 L-120,-77.33333587646484 L-120,-85.33333587646484 L-118,-85.33333587646484 L-118,-82.33333587646484 L-112,-82.33333587646484 L-112,-83.33333587646484 z"/><text style="font-size:9px;fill:#282828;font-family:sans-serif;text-anchor:end" id="svg_41" x="-120.5" y="-91.833"><tspan id="svg_42" x="-66.5" y="-68.833">➗</tspan></text></g></g><g id="svg_47"><g id="svg_48" transform="translate(540, 137) scale(1.5)"><path style="fill:#ff5293;fill-opacity:1;stroke:#ff2c76;stroke-width:1;stroke-linecap:round;stroke-opacity:1" id="svg_49" d="m-112,-91.33333587646484 L-52,-91.33333587646484 L-52,-71.33333587646484 L-112,-71.33333587646484 L-112,-79.33333587646484 L-112,-80.33333587646484 L-118,-80.33333587646484 L-118,-77.33333587646484 L-120,-77.33333587646484 L-120,-85.33333587646484 L-118,-85.33333587646484 L-118,-82.33333587646484 L-112,-82.33333587646484 L-112,-83.33333587646484 z"/><text style="font-size:10px;fill:#282828;font-family:sans-serif;text-anchor:start" id="svg_50" x="-120.5" y="-91.833"><tspan id="svg_51" x="-107.5" y="-77.833">1</tspan></text></g></g><g id="svg_52"><g id="svg_53" transform="translate(540, 169) scale(1.5)"><path style="fill:#ff5293;fill-opacity:1;stroke:#ff2c76;stroke-width:1;stroke-linecap:round;stroke-opacity:1" id="svg_54" d="m-112,-91.33333587646484 L-52,-91.33333587646484 L-52,-71.33333587646484 L-112,-71.33333587646484 L-112,-79.33333587646484 L-112,-80.33333587646484 L-118,-80.33333587646484 L-118,-77.33333587646484 L-120,-77.33333587646484 L-120,-85.33333587646484 L-118,-85.33333587646484 L-118,-82.33333587646484 L-112,-82.33333587646484 L-112,-83.33333587646484 z"/><text style="font-size:10px;fill:#282828;font-family:sans-serif;text-anchor:start" id="svg_55" x="-120.5" y="-91.833"><tspan id="svg_56" x="-107.5" y="-77.833">24</tspan></text></g></g><g id="svg_57"><g id="svg_58" transform="translate(282, 169) scale(1.5)"><path style="fill:#ff5293;fill-opacity:1;stroke:#ff2c76;stroke-width:1;stroke-linecap:round;stroke-opacity:1" id="svg_59" d="m-112,-83.33333587646484 L-112,-87.33333587646484 A4,4 90 0 1 -108,-91.33333587646484 L-104,-91.33333587646484 L-94,-91.33333587646484 L-64,-91.33333587646484 L-60,-91.33333587646484 A4,4 90 0 1 -56,-87.33333587646484 L-56,-83.33333587646484 L-60,-83.33333587646484 L-60,-86.33333587646484 L-64,-86.33333587646484 L-64,-76.33333587646484 L-60,-76.33333587646484 L-60,-79.33333587646484 L-56,-79.33333587646484 L-56,-62.333335876464844 L-60,-62.333335876464844 L-60,-65.33333587646484 L-64,-65.33333587646484 L-64,-55.333335876464844 L-60,-55.333335876464844 L-60,-58.333335876464844 L-56,-58.333335876464844 L-56,-54.333335876464844 A4,4 90 0 1 -60,-50.333335876464844 L-64,-50.333335876464844 L-94,-50.333335876464844 L-104,-50.333335876464844 L-108,-50.333335876464844 A4,4 90 0 1 -112,-54.333335876464844 L-112,-58.333335876464844 L-112,-79.33333587646484 L-112,-80.33333587646484 L-118,-80.33333587646484 L-118,-77.33333587646484 L-120,-77.33333587646484 L-120,-85.33333587646484 L-118,-85.33333587646484 L-118,-82.33333587646484 L-112,-82.33333587646484 L-112,-83.33333587646484 z"/><text style="font-size:9px;fill:#282828;font-family:sans-serif;text-anchor:end" id="svg_60" x="-120.5" y="-91.833"><tspan id="svg_61" x="-66.5" y="-68.833">➗</tspan></text></g></g><g id="svg_66"><g id="svg_67" transform="translate(368, 169) scale(1.5)"><path style="fill:#ff5293;fill-opacity:1;stroke:#ff2c76;stroke-width:1;stroke-linecap:round;stroke-opacity:1" id="svg_68" d="m-112,-91.33333587646484 L-52,-91.33333587646484 L-52,-71.33333587646484 L-112,-71.33333587646484 L-112,-79.33333587646484 L-112,-80.33333587646484 L-118,-80.33333587646484 L-118,-77.33333587646484 L-120,-77.33333587646484 L-120,-85.33333587646484 L-118,-85.33333587646484 L-118,-82.33333587646484 L-112,-82.33333587646484 L-112,-83.33333587646484 z"/><text style="font-size:10px;fill:#282828;font-family:sans-serif;text-anchor:start" id="svg_69" x="-120.5" y="-91.833"><tspan id="svg_70" x="-107.5" y="-77.833">1</tspan></text></g></g><g id="svg_71"><g id="svg_72" transform="translate(368, 201) scale(1.5)"><path style="fill:#ff5293;fill-opacity:1;stroke:#ff2c76;stroke-width:1;stroke-linecap:round;stroke-opacity:1" id="svg_73" d="m-112,-91.33333587646484 L-52,-91.33333587646484 L-52,-71.33333587646484 L-112,-71.33333587646484 L-112,-79.33333587646484 L-112,-80.33333587646484 L-118,-80.33333587646484 L-118,-77.33333587646484 L-120,-77.33333587646484 L-120,-85.33333587646484 L-118,-85.33333587646484 L-118,-82.33333587646484 L-112,-82.33333587646484 L-112,-83.33333587646484 z"/><text style="font-size:10px;fill:#282828;font-family:sans-serif;text-anchor:start" id="svg_74" x="-120.5" y="-91.833"><tspan id="svg_75" x="-107.5" y="-77.833">8</tspan></text></g></g><g id="svg_76"><g id="svg_77" transform="translate(194, 200) scale(1.5)"><path style="fill:#b0b0b0;fill-opacity:1;stroke:#a0a0a0;stroke-width:1;stroke-linecap:round;stroke-opacity:1" id="svg_78" d="m-120,-83.33333587646484 L-120,-87.33333587646484 A4,4 90 0 1 -116,-91.33333587646484 L-112,-91.33333587646484 L-112,-89.33333587646484 L-102,-89.33333587646484 L-102,-91.33333587646484 L-82,-91.33333587646484 L-78,-91.33333587646484 A4,4 90 0 1 -74,-87.33333587646484 L-74,-83.33333587646484 L-74,-79.33333587646484 L-74,-75.33333587646484 A4,4 90 0 1 -78,-71.33333587646484 L-82,-71.33333587646484 L-102,-71.33333587646484 L-103,-71.33333587646484 L-103,-69.33333587646484 L-111,-69.33333587646484 L-111,-71.33333587646484 L-112,-71.33333587646484 L-116,-71.33333587646484 A4,4 90 0 1 -120,-75.33333587646484 L-120,-79.33333587646484 z"/><text style="font-size:10px;fill:#282828;font-family:sans-serif;text-anchor:end" id="svg_79" x="-120.5" y="-91.833"><tspan id="svg_80" x="-84.5" y="-77.833">↓</tspan></text></g></g><g id="svg_81"><g id="svg_82"><g id="svg_83" transform="translate(194, 232) scale(1.5)"><path style="fill:#ff8b2d;fill-opacity:1;stroke:#e86b0e;stroke-width:1;stroke-linecap:round;stroke-opacity:1" id="svg_84" d="m-120,-83.33333587646484 L-120,-87.33333587646484 A4,4 90 0 1 -116,-91.33333587646484 L-112,-91.33333587646484 L-112,-89.33333587646484 L-102,-89.33333587646484 L-102,-91.33333587646484 L-93,-91.33333587646484 L-33,-91.33333587646484 L-29,-91.33333587646484 A4,4 90 0 1 -25,-87.33333587646484 L-25,-83.33333587646484 L-29,-83.33333587646484 L-29,-86.33333587646484 L-33,-86.33333587646484 L-33,-76.33333587646484 L-29,-76.33333587646484 L-29,-79.33333587646484 L-25,-79.33333587646484 L-25,-75.33333587646484 A4,4 90 0 1 -29,-71.33333587646484 L-33,-71.33333587646484 L-93,-71.33333587646484 L-94,-71.33333587646484 L-94,-69.33333587646484 L-102,-69.33333587646484 L-102,-71.33333587646484 L-103,-71.33333587646484 L-107,-71.33333587646484 A5,5 90 0 0 -112,-66.33333587646484 L-112,-62.333335876464844 L-112,-58.333335876464844 L-112,-16.333335876464844 L-112,-12.333335876464844 A5,5 90 0 0 -107,-7.333335876464844 L-103,-7.333335876464844 L-103,-5.333335876464844 L-93,-5.333335876464844 L-93,-7.333335876464844 L-85,-7.333335876464844 L-85,-1.3333358764648438 L-85,4.666664123535156 L-85,8.666664123535156 A4,4 90 0 1 -89,12.666664123535156 L-93,12.666664123535156 L-102,12.666664123535156 L-103,12.666664123535156 L-103,14.666664123535156 L-111,14.666664123535156 L-111,12.666664123535156 L-112,12.666664123535156 L-116,12.666664123535156 A4,4 90 0 1 -120,8.666664123535156 L-120,4.666664123535156 z"/><text style="font-size:10px;fill:#282828;font-family:sans-serif;text-anchor:start" id="svg_85" x="-120.5" y="-91.833"><tspan id="svg_86" x="-100.5" y="-76.833">note</tspan></text><text style="font-size:6.666666666666667px;fill:#282828;font-family:sans-serif;text-anchor:end" id="svg_87" x="-120.5" y="-91.833"><tspan id="svg_88" x="-35.5" y="-79.833">value</tspan></text></g></g><g id="svg_89" transform="translate(194, 236) scale(0.5)"><g style="isolation:isolate" id="svg_90"><g id="レイヤー_2" data-name="レイヤー 2"><g id="Icon"><rect style="fill:#292929;opacity:.4;mix-blend-mode:multiply" id="svg_91" width="42" height="42" x="-361.5" y="-275.5" rx="5" ry="5"/><path style="fill:#fff" id="svg_92" d="M-330.9400005340576,-245.70000076293945 l-4.170000076293945,-4.159999847412109 h2.259999990463257 a1,1 0 1 0 0,-2.069999933242798 H-337.5599994659424 a1.0800000429153442,1.0800000429153442 0 0 0 -1.1100000143051147,1 v0 s0,0 0,0.05999999865889549 v4.639999866485596 h0 a1,1 0 1 0 2.0799999237060547,0 V-248.42000007629395 l4.190000057220459,4.190000057220459 a1,1 0 0 0 1.4600000381469727,0 A1,1 0 0 0 -330.9400005340576,-245.70000076293945 z"/><path style="fill:#fff" id="svg_93" d="M-342.32999992370605,-250.89999961853027 a1.0800000429153442,1.0800000429153442 0 0 0 -1.1100000143051147,-1 H-348.1499996185303 a1,1 0 1 0 0,2.069999933242798 H-345.8999996185303 L-350.0600004196167,-245.70000076293945 a1,1 0 0 0 1.4700000286102295,1.4700000286102295 l4.179999828338623,-4.190000057220459 v2.259999990463257 a1,1 0 1 0 2.0799999237060547,0 V-250.79999923706055 s0,0 0,-0.05999999865889549 A0.07999999821186066,0.07999999821186066 0 0 1 -342.32999992370605,-250.89999961853027 z"/><path style="fill:#fff" id="svg_94" d="M-337.5599994659424,-255 h4.699999809265137 a1,1 0 1 0 0,-2.0799999237060547 H-335.11000061035156 l4.170000076293945,-4.159999847412109 a1,1 0 0 0 0,-1.4700000286102295 a1,1 0 0 0 -1.4600000381469727,0 L-336.5900001525879,-258.5 V-260.7799997329712 a1,1 0 1 0 -2.0799999237060547,0 v4.639999866485596 a0.4300000071525574,0.4300000071525574 0 0 0 0,0.05000000074505806 v0.05000000074505806 A1.090000033378601,1.090000033378601 0 0 0 -337.5599994659424,-255 z"/><path style="fill:#fff" id="svg_95" d="M-343.3700008392334,-261.8800001144409 a1.0800000429153442,1.0800000429153442 0 0 0 -1,1.090000033378601 V-258.5 l-4.179999828338623,-4.190000057220459 a1,1 0 0 0 -1.4700000286102295,0 a1,1 0 0 0 0,1.4600000381469727 l4.159999847412109,4.170000076293945 H-348.1499996185303 a1,1 0 1 0 0,2.0799999237060547 h4.710000038146973 a1.090000033378601,1.090000033378601 0 0 0 1.1100000143051147,-1 a0.07999999821186066,0.07999999821186066 0 0 1 0,0 s0,0 0,-0.05999999865889549 V-260.789999961853 A1.0700000524520874,1.0700000524520874 0 0 0 -343.3700008392334,-261.8800001144409 z"/></g></g></g></g></g><g id="svg_96"><g id="svg_97" transform="translate(326, 232) scale(1.5)"><path style="fill:#ff5293;fill-opacity:1;stroke:#ff2c76;stroke-width:1;stroke-linecap:round;stroke-opacity:1" id="svg_98" d="m-112,-83.33333587646484 L-112,-87.33333587646484 A4,4 90 0 1 -108,-91.33333587646484 L-104,-91.33333587646484 L-94,-91.33333587646484 L-64,-91.33333587646484 L-60,-91.33333587646484 A4,4 90 0 1 -56,-87.33333587646484 L-56,-83.33333587646484 L-60,-83.33333587646484 L-60,-86.33333587646484 L-64,-86.33333587646484 L-64,-76.33333587646484 L-60,-76.33333587646484 L-60,-79.33333587646484 L-56,-79.33333587646484 L-56,-62.333335876464844 L-60,-62.333335876464844 L-60,-65.33333587646484 L-64,-65.33333587646484 L-64,-55.333335876464844 L-60,-55.333335876464844 L-60,-58.333335876464844 L-56,-58.333335876464844 L-56,-54.333335876464844 A4,4 90 0 1 -60,-50.333335876464844 L-64,-50.333335876464844 L-94,-50.333335876464844 L-104,-50.333335876464844 L-108,-50.333335876464844 A4,4 90 0 1 -112,-54.333335876464844 L-112,-58.333335876464844 L-112,-79.33333587646484 L-112,-80.33333587646484 L-118,-80.33333587646484 L-118,-77.33333587646484 L-120,-77.33333587646484 L-120,-85.33333587646484 L-118,-85.33333587646484 L-118,-82.33333587646484 L-112,-82.33333587646484 L-112,-83.33333587646484 z"/><text style="font-size:9px;fill:#282828;font-family:sans-serif;text-anchor:end" id="svg_99" x="-120.5" y="-91.833"><tspan id="svg_100" x="-66.5" y="-68.833">➗</tspan></text></g></g><g id="svg_105"><g id="svg_106" transform="translate(412, 232) scale(1.5)"><path style="fill:#ff5293;fill-opacity:1;stroke:#ff2c76;stroke-width:1;stroke-linecap:round;stroke-opacity:1" id="svg_107" d="m-112,-91.33333587646484 L-52,-91.33333587646484 L-52,-71.33333587646484 L-112,-71.33333587646484 L-112,-79.33333587646484 L-112,-80.33333587646484 L-118,-80.33333587646484 L-118,-77.33333587646484 L-120,-77.33333587646484 L-120,-85.33333587646484 L-118,-85.33333587646484 L-118,-82.33333587646484 L-112,-82.33333587646484 L-112,-83.33333587646484 z"/><text style="font-size:10px;fill:#282828;font-family:sans-serif;text-anchor:start" id="svg_108" x="-120.5" y="-91.833"><tspan id="svg_109" x="-107.5" y="-77.833">1</tspan></text></g></g><g id="svg_110"><g id="svg_111" transform="translate(412, 264) scale(1.5)"><path style="fill:#ff5293;fill-opacity:1;stroke:#ff2c76;stroke-width:1;stroke-linecap:round;stroke-opacity:1" id="svg_112" d="m-112,-91.33333587646484 L-52,-91.33333587646484 L-52,-71.33333587646484 L-112,-71.33333587646484 L-112,-79.33333587646484 L-112,-80.33333587646484 L-118,-80.33333587646484 L-118,-77.33333587646484 L-120,-77.33333587646484 L-120,-85.33333587646484 L-118,-85.33333587646484 L-118,-82.33333587646484 L-112,-82.33333587646484 L-112,-83.33333587646484 z"/><text style="font-size:10px;fill:#282828;font-family:sans-serif;text-anchor:start" id="svg_113" x="-120.5" y="-91.833"><tspan id="svg_114" x="-107.5" y="-77.833">8</tspan></text></g></g><g id="svg_115"><g id="svg_116" transform="translate(208, 264) scale(1.5)"><path style="fill:#b0b0b0;fill-opacity:1;stroke:#a0a0a0;stroke-width:1;stroke-linecap:round;stroke-opacity:1" id="svg_117" d="m-120,-83.33333587646484 L-120,-87.33333587646484 A4,4 90 0 1 -116,-91.33333587646484 L-112,-91.33333587646484 L-112,-89.33333587646484 L-102,-89.33333587646484 L-102,-91.33333587646484 L-82,-91.33333587646484 L-78,-91.33333587646484 A4,4 90 0 1 -74,-87.33333587646484 L-74,-83.33333587646484 L-74,-79.33333587646484 L-74,-75.33333587646484 A4,4 90 0 1 -78,-71.33333587646484 L-82,-71.33333587646484 L-102,-71.33333587646484 L-103,-71.33333587646484 L-103,-69.33333587646484 L-111,-69.33333587646484 L-111,-71.33333587646484 L-112,-71.33333587646484 L-116,-71.33333587646484 A4,4 90 0 1 -120,-75.33333587646484 L-120,-79.33333587646484 z"/><text style="font-size:10px;fill:#282828;font-family:sans-serif;text-anchor:end" id="svg_118" x="-120.5" y="-91.833"><tspan id="svg_119" x="-84.5" y="-77.833">↓</tspan></text></g></g><g id="svg_120"><g id="svg_121" transform="translate(208, 296) scale(1.5)"><path style="fill:#77c428;fill-opacity:1;stroke:#57ad02;stroke-width:1;stroke-linecap:round;stroke-opacity:1" id="svg_122" d="m-120,-83.33333587646484 L-120,-87.33333587646484 A4,4 90 0 1 -116,-91.33333587646484 L-112,-91.33333587646484 L-112,-89.33333587646484 L-102,-89.33333587646484 L-102,-91.33333587646484 L-72,-91.33333587646484 L-68,-91.33333587646484 A4,4 90 0 1 -64,-87.33333587646484 L-64,-83.33333587646484 L-68,-83.33333587646484 L-68,-86.33333587646484 L-72,-86.33333587646484 L-72,-76.33333587646484 L-68,-76.33333587646484 L-68,-79.33333587646484 L-64,-79.33333587646484 L-64,-62.333335876464844 L-68,-62.333335876464844 L-68,-65.33333587646484 L-72,-65.33333587646484 L-72,-55.333335876464844 L-68,-55.333335876464844 L-68,-58.333335876464844 L-64,-58.333335876464844 L-64,-54.333335876464844 A4,4 90 0 1 -68,-50.333335876464844 L-72,-50.333335876464844 L-102,-50.333335876464844 L-103,-50.333335876464844 L-103,-48.333335876464844 L-111,-48.333335876464844 L-111,-50.333335876464844 L-112,-50.333335876464844 L-116,-50.333335876464844 A4,4 90 0 1 -120,-54.333335876464844 L-120,-58.333335876464844 L-120,-79.33333587646484 L-120,-83.33333587646484 z"/><text style="font-size:10px;fill:#282828;font-family:sans-serif;text-anchor:end" id="svg_123" x="-120.5" y="-91.833"><tspan id="svg_124" x="-74.5" y="-67.833">pitch</tspan></text><text style="font-size:6.666666666666667px;fill:#282828;font-family:sans-serif;text-anchor:end" id="svg_125" x="-120.5" y="-91.833"><tspan id="svg_126" x="-74.5" y="-79.833">name</tspan></text><text style="font-size:6.666666666666667px;fill:#282828;font-family:sans-serif;text-anchor:end" id="svg_127" x="-120.5" y="-91.833"><tspan id="svg_128" x="-74.5" y="-58.833">octave</tspan></text></g></g><g id="svg_129"><g id="svg_130" transform="translate(282, 296) scale(1.5)"><path style="fill:#77c428;fill-opacity:1;stroke:#57ad02;stroke-width:1;stroke-linecap:round;stroke-opacity:1" id="svg_131" d="m-112,-91.33333587646484 L-52,-91.33333587646484 L-52,-71.33333587646484 L-112,-71.33333587646484 L-112,-79.33333587646484 L-112,-80.33333587646484 L-118,-80.33333587646484 L-118,-77.33333587646484 L-120,-77.33333587646484 L-120,-85.33333587646484 L-118,-85.33333587646484 L-118,-82.33333587646484 L-112,-82.33333587646484 L-112,-83.33333587646484 z"/><text style="font-size:10px;fill:#282828;font-family:sans-serif;text-anchor:start" id="svg_132" x="-120.5" y="-91.833"><tspan id="svg_133" x="-107.5" y="-77.833">fa</tspan></text></g></g><g id="svg_134"><g id="svg_135" transform="translate(282, 328) scale(1.5)"><path style="fill:#ff5293;fill-opacity:1;stroke:#ff2c76;stroke-width:1;stroke-linecap:round;stroke-opacity:1" id="svg_136" d="m-112,-91.33333587646484 L-52,-91.33333587646484 L-52,-71.33333587646484 L-112,-71.33333587646484 L-112,-79.33333587646484 L-112,-80.33333587646484 L-118,-80.33333587646484 L-118,-77.33333587646484 L-120,-77.33333587646484 L-120,-85.33333587646484 L-118,-85.33333587646484 L-118,-82.33333587646484 L-112,-82.33333587646484 L-112,-83.33333587646484 z"/><text style="font-size:10px;fill:#282828;font-family:sans-serif;text-anchor:start" id="svg_137" x="-120.5" y="-91.833"><tspan id="svg_138" x="-107.5" y="-77.833">4</tspan></text></g></g><g id="svg_139"><g id="svg_140"><g id="svg_141" transform="translate(194, 390) scale(1.5)"><path style="fill:#ff8b2d;fill-opacity:1;stroke:#e86b0e;stroke-width:1;stroke-linecap:round;stroke-opacity:1" id="svg_142" d="m-120,-83.33333587646484 L-120,-87.33333587646484 A4,4 90 0 1 -116,-91.33333587646484 L-112,-91.33333587646484 L-112,-89.33333587646484 L-102,-89.33333587646484 L-102,-91.33333587646484 L-93,-91.33333587646484 L-33,-91.33333587646484 L-29,-91.33333587646484 A4,4 90 0 1 -25,-87.33333587646484 L-25,-83.33333587646484 L-29,-83.33333587646484 L-29,-86.33333587646484 L-33,-86.33333587646484 L-33,-76.33333587646484 L-29,-76.33333587646484 L-29,-79.33333587646484 L-25,-79.33333587646484 L-25,-75.33333587646484 A4,4 90 0 1 -29,-71.33333587646484 L-33,-71.33333587646484 L-93,-71.33333587646484 L-94,-71.33333587646484 L-94,-69.33333587646484 L-102,-69.33333587646484 L-102,-71.33333587646484 L-103,-71.33333587646484 L-107,-71.33333587646484 A5,5 90 0 0 -112,-66.33333587646484 L-112,-62.333335876464844 L-112,-58.333335876464844 L-112,-16.333335876464844 L-112,-12.333335876464844 A5,5 90 0 0 -107,-7.333335876464844 L-103,-7.333335876464844 L-103,-5.333335876464844 L-93,-5.333335876464844 L-93,-7.333335876464844 L-85,-7.333335876464844 L-85,-1.3333358764648438 L-85,4.666664123535156 L-85,8.666664123535156 A4,4 90 0 1 -89,12.666664123535156 L-93,12.666664123535156 L-102,12.666664123535156 L-103,12.666664123535156 L-103,14.666664123535156 L-111,14.666664123535156 L-111,12.666664123535156 L-112,12.666664123535156 L-116,12.666664123535156 A4,4 90 0 1 -120,8.666664123535156 L-120,4.666664123535156 z"/><text style="font-size:10px;fill:#282828;font-family:sans-serif;text-anchor:start" id="svg_143" x="-120.5" y="-91.833"><tspan id="svg_144" x="-100.5" y="-76.833">note</tspan></text><text style="font-size:6.666666666666667px;fill:#282828;font-family:sans-serif;text-anchor:end" id="svg_145" x="-120.5" y="-91.833"><tspan id="svg_146" x="-35.5" y="-79.833">value</tspan></text></g></g><g id="svg_147" transform="translate(194, 394) scale(0.5)"><g style="isolation:isolate" id="svg_148"><g id="レイヤー_2" data-name="レイヤー 2"><g id="Icon"><rect style="fill:#292929;opacity:.4;mix-blend-mode:multiply" id="svg_149" width="42" height="42" x="-361.5" y="-275.5" rx="5" ry="5"/><path style="fill:#fff" id="svg_150" d="M-330.9400005340576,-245.70000076293945 l-4.170000076293945,-4.159999847412109 h2.259999990463257 a1,1 0 1 0 0,-2.069999933242798 H-337.5599994659424 a1.0800000429153442,1.0800000429153442 0 0 0 -1.1100000143051147,1 v0 s0,0 0,0.05999999865889549 v4.639999866485596 h0 a1,1 0 1 0 2.0799999237060547,0 V-248.42000007629395 l4.190000057220459,4.190000057220459 a1,1 0 0 0 1.4600000381469727,0 A1,1 0 0 0 -330.9400005340576,-245.70000076293945 z"/><path style="fill:#fff" id="svg_151" d="M-342.32999992370605,-250.89999961853027 a1.0800000429153442,1.0800000429153442 0 0 0 -1.1100000143051147,-1 H-348.1499996185303 a1,1 0 1 0 0,2.069999933242798 H-345.8999996185303 L-350.0600004196167,-245.70000076293945 a1,1 0 0 0 1.4700000286102295,1.4700000286102295 l4.179999828338623,-4.190000057220459 v2.259999990463257 a1,1 0 1 0 2.0799999237060547,0 V-250.79999923706055 s0,0 0,-0.05999999865889549 A0.07999999821186066,0.07999999821186066 0 0 1 -342.32999992370605,-250.89999961853027 z"/><path style="fill:#fff" id="svg_152" d="M-337.5599994659424,-255 h4.699999809265137 a1,1 0 1 0 0,-2.0799999237060547 H-335.11000061035156 l4.170000076293945,-4.159999847412109 a1,1 0 0 0 0,-1.4700000286102295 a1,1 0 0 0 -1.4600000381469727,0 L-336.5900001525879,-258.5 V-260.7799997329712 a1,1 0 1 0 -2.0799999237060547,0 v4.639999866485596 a0.4300000071525574,0.4300000071525574 0 0 0 0,0.05000000074505806 v0.05000000074505806 A1.090000033378601,1.090000033378601 0 0 0 -337.5599994659424,-255 z"/><path style="fill:#fff" id="svg_153" d="M-343.3700008392334,-261.8800001144409 a1.0800000429153442,1.0800000429153442 0 0 0 -1,1.090000033378601 V-258.5 l-4.179999828338623,-4.190000057220459 a1,1 0 0 0 -1.4700000286102295,0 a1,1 0 0 0 0,1.4600000381469727 l4.159999847412109,4.170000076293945 H-348.1499996185303 a1,1 0 1 0 0,2.0799999237060547 h4.710000038146973 a1.090000033378601,1.090000033378601 0 0 0 1.1100000143051147,-1 a0.07999999821186066,0.07999999821186066 0 0 1 0,0 s0,0 0,-0.05999999865889549 V-260.789999961853 A1.0700000524520874,1.0700000524520874 0 0 0 -343.3700008392334,-261.8800001144409 z"/></g></g></g></g></g><g id="svg_154"><g id="svg_155" transform="translate(326, 390) scale(1.5)"><path style="fill:#ff5293;fill-opacity:1;stroke:#ff2c76;stroke-width:1;stroke-linecap:round;stroke-opacity:1" id="svg_156" d="m-112,-83.33333587646484 L-112,-87.33333587646484 A4,4 90 0 1 -108,-91.33333587646484 L-104,-91.33333587646484 L-94,-91.33333587646484 L-64,-91.33333587646484 L-60,-91.33333587646484 A4,4 90 0 1 -56,-87.33333587646484 L-56,-83.33333587646484 L-60,-83.33333587646484 L-60,-86.33333587646484 L-64,-86.33333587646484 L-64,-76.33333587646484 L-60,-76.33333587646484 L-60,-79.33333587646484 L-56,-79.33333587646484 L-56,-62.333335876464844 L-60,-62.333335876464844 L-60,-65.33333587646484 L-64,-65.33333587646484 L-64,-55.333335876464844 L-60,-55.333335876464844 L-60,-58.333335876464844 L-56,-58.333335876464844 L-56,-54.333335876464844 A4,4 90 0 1 -60,-50.333335876464844 L-64,-50.333335876464844 L-94,-50.333335876464844 L-104,-50.333335876464844 L-108,-50.333335876464844 A4,4 90 0 1 -112,-54.333335876464844 L-112,-58.333335876464844 L-112,-79.33333587646484 L-112,-80.33333587646484 L-118,-80.33333587646484 L-118,-77.33333587646484 L-120,-77.33333587646484 L-120,-85.33333587646484 L-118,-85.33333587646484 L-118,-82.33333587646484 L-112,-82.33333587646484 L-112,-83.33333587646484 z"/><text style="font-size:9px;fill:#282828;font-family:sans-serif;text-anchor:end" id="svg_157" x="-120.5" y="-91.833"><tspan id="svg_158" x="-66.5" y="-68.833">➗</tspan></text></g></g><g id="svg_163"><g id="svg_164" transform="translate(412, 390) scale(1.5)"><path style="fill:#ff5293;fill-opacity:1;stroke:#ff2c76;stroke-width:1;stroke-linecap:round;stroke-opacity:1" id="svg_165" d="m-112,-91.33333587646484 L-52,-91.33333587646484 L-52,-71.33333587646484 L-112,-71.33333587646484 L-112,-79.33333587646484 L-112,-80.33333587646484 L-118,-80.33333587646484 L-118,-77.33333587646484 L-120,-77.33333587646484 L-120,-85.33333587646484 L-118,-85.33333587646484 L-118,-82.33333587646484 L-112,-82.33333587646484 L-112,-83.33333587646484 z"/><text style="font-size:10px;fill:#282828;font-family:sans-serif;text-anchor:start" id="svg_166" x="-120.5" y="-91.833"><tspan id="svg_167" x="-107.5" y="-77.833">1</tspan></text></g></g><g id="svg_168"><g id="svg_169" transform="translate(412, 422) scale(1.5)"><path style="fill:#ff5293;fill-opacity:1;stroke:#ff2c76;stroke-width:1;stroke-linecap:round;stroke-opacity:1" id="svg_170" d="m-112,-91.33333587646484 L-52,-91.33333587646484 L-52,-71.33333587646484 L-112,-71.33333587646484 L-112,-79.33333587646484 L-112,-80.33333587646484 L-118,-80.33333587646484 L-118,-77.33333587646484 L-120,-77.33333587646484 L-120,-85.33333587646484 L-118,-85.33333587646484 L-118,-82.33333587646484 L-112,-82.33333587646484 L-112,-83.33333587646484 z"/><text style="font-size:10px;fill:#282828;font-family:sans-serif;text-anchor:start" id="svg_171" x="-120.5" y="-91.833"><tspan id="svg_172" x="-107.5" y="-77.833">8</tspan></text></g></g><g id="svg_173"><g id="svg_174" transform="translate(208, 422) scale(1.5)"><path style="fill:#b0b0b0;fill-opacity:1;stroke:#a0a0a0;stroke-width:1;stroke-linecap:round;stroke-opacity:1" id="svg_175" d="m-120,-83.33333587646484 L-120,-87.33333587646484 A4,4 90 0 1 -116,-91.33333587646484 L-112,-91.33333587646484 L-112,-89.33333587646484 L-102,-89.33333587646484 L-102,-91.33333587646484 L-82,-91.33333587646484 L-78,-91.33333587646484 A4,4 90 0 1 -74,-87.33333587646484 L-74,-83.33333587646484 L-74,-79.33333587646484 L-74,-75.33333587646484 A4,4 90 0 1 -78,-71.33333587646484 L-82,-71.33333587646484 L-102,-71.33333587646484 L-103,-71.33333587646484 L-103,-69.33333587646484 L-111,-69.33333587646484 L-111,-71.33333587646484 L-112,-71.33333587646484 L-116,-71.33333587646484 A4,4 90 0 1 -120,-75.33333587646484 L-120,-79.33333587646484 z"/><text style="font-size:10px;fill:#282828;font-family:sans-serif;text-anchor:end" id="svg_176" x="-120.5" y="-91.833"><tspan id="svg_177" x="-84.5" y="-77.833">↓</tspan></text></g></g><g id="svg_178"><g id="svg_179" transform="translate(208, 454) scale(1.5)"><path style="fill:#77c428;fill-opacity:1;stroke:#57ad02;stroke-width:1;stroke-linecap:round;stroke-opacity:1" id="svg_180" d="m-120,-83.33333587646484 L-120,-87.33333587646484 A4,4 90 0 1 -116,-91.33333587646484 L-112,-91.33333587646484 L-112,-89.33333587646484 L-102,-89.33333587646484 L-102,-91.33333587646484 L-72,-91.33333587646484 L-68,-91.33333587646484 A4,4 90 0 1 -64,-87.33333587646484 L-64,-83.33333587646484 L-68,-83.33333587646484 L-68,-86.33333587646484 L-72,-86.33333587646484 L-72,-76.33333587646484 L-68,-76.33333587646484 L-68,-79.33333587646484 L-64,-79.33333587646484 L-64,-62.333335876464844 L-68,-62.333335876464844 L-68,-65.33333587646484 L-72,-65.33333587646484 L-72,-55.333335876464844 L-68,-55.333335876464844 L-68,-58.333335876464844 L-64,-58.333335876464844 L-64,-54.333335876464844 A4,4 90 0 1 -68,-50.333335876464844 L-72,-50.333335876464844 L-102,-50.333335876464844 L-103,-50.333335876464844 L-103,-48.333335876464844 L-111,-48.333335876464844 L-111,-50.333335876464844 L-112,-50.333335876464844 L-116,-50.333335876464844 A4,4 90 0 1 -120,-54.333335876464844 L-120,-58.333335876464844 L-120,-79.33333587646484 L-120,-83.33333587646484 z"/><text style="font-size:10px;fill:#282828;font-family:sans-serif;text-anchor:end" id="svg_181" x="-120.5" y="-91.833"><tspan id="svg_182" x="-74.5" y="-67.833">pitch</tspan></text><text style="font-size:6.666666666666667px;fill:#282828;font-family:sans-serif;text-anchor:end" id="svg_183" x="-120.5" y="-91.833"><tspan id="svg_184" x="-74.5" y="-79.833">name</tspan></text><text style="font-size:6.666666666666667px;fill:#282828;font-family:sans-serif;text-anchor:end" id="svg_185" x="-120.5" y="-91.833"><tspan id="svg_186" x="-74.5" y="-58.833">octave</tspan></text></g></g><g id="svg_187"><g id="svg_188" transform="translate(282, 454) scale(1.5)"><path style="fill:#77c428;fill-opacity:1;stroke:#57ad02;stroke-width:1;stroke-linecap:round;stroke-opacity:1" id="svg_189" d="m-112,-91.33333587646484 L-52,-91.33333587646484 L-52,-71.33333587646484 L-112,-71.33333587646484 L-112,-79.33333587646484 L-112,-80.33333587646484 L-118,-80.33333587646484 L-118,-77.33333587646484 L-120,-77.33333587646484 L-120,-85.33333587646484 L-118,-85.33333587646484 L-118,-82.33333587646484 L-112,-82.33333587646484 L-112,-83.33333587646484 z"/><text style="font-size:10px;fill:#282828;font-family:sans-serif;text-anchor:start" id="svg_190" x="-120.5" y="-91.833"><tspan id="svg_191" x="-107.5" y="-77.833">sol</tspan></text></g></g><g id="svg_192"><g id="svg_193" transform="translate(282, 486) scale(1.5)"><path style="fill:#ff5293;fill-opacity:1;stroke:#ff2c76;stroke-width:1;stroke-linecap:round;stroke-opacity:1" id="svg_194" d="m-112,-91.33333587646484 L-52,-91.33333587646484 L-52,-71.33333587646484 L-112,-71.33333587646484 L-112,-79.33333587646484 L-112,-80.33333587646484 L-118,-80.33333587646484 L-118,-77.33333587646484 L-120,-77.33333587646484 L-120,-85.33333587646484 L-118,-85.33333587646484 L-118,-82.33333587646484 L-112,-82.33333587646484 L-112,-83.33333587646484 z"/><text style="font-size:10px;fill:#282828;font-family:sans-serif;text-anchor:start" id="svg_195" x="-120.5" y="-91.833"><tspan id="svg_196" x="-107.5" y="-77.833">4</tspan></text></g></g><g id="svg_197"><g id="svg_198" transform="translate(546, 220) scale(1.5)"><path style="fill:#ff8b2d;fill-opacity:1;stroke:#e86b0e;stroke-width:1;stroke-linecap:round;stroke-opacity:1" id="svg_199" d="m-120,-83.33333587646484 L-120,-87.33333587646484 A4,4 90 0 1 -116,-91.33333587646484 L-112,-91.33333587646484 L-112,-89.33333587646484 L-102,-89.33333587646484 L-102,-91.33333587646484 L-93,-91.33333587646484 L-83,-91.33333587646484 L-79,-91.33333587646484 A4,4 90 0 1 -75,-87.33333587646484 L-75,-83.33333587646484 L-75,-79.33333587646484 L-75,-75.33333587646484 A4,4 90 0 1 -79,-71.33333587646484 L-83,-71.33333587646484 L-93,-71.33333587646484 L-94,-71.33333587646484 L-94,-69.33333587646484 L-102,-69.33333587646484 L-102,-71.33333587646484 L-103,-71.33333587646484 L-107,-71.33333587646484 A5,5 90 0 0 -112,-66.33333587646484 L-112,-62.333335876464844 L-112,-58.333335876464844 L-112,130.66666412353516 L-112,134.66666412353516 A5,5 90 0 0 -107,139.66666412353516 L-103,139.66666412353516 L-103,141.66666412353516 L-93,141.66666412353516 L-93,139.66666412353516 L-85,139.66666412353516 L-85,145.66666412353516 L-85,151.66666412353516 L-85,155.66666412353516 A4,4 90 0 1 -89,159.66666412353516 L-93,159.66666412353516 L-102,159.66666412353516 L-103,159.66666412353516 L-103,161.66666412353516 L-111,161.66666412353516 L-111,159.66666412353516 L-112,159.66666412353516 L-116,159.66666412353516 A4,4 90 0 1 -120,155.66666412353516 L-120,151.66666412353516 z"/><text style="font-size:10px;fill:#282828;font-family:sans-serif;text-anchor:start" id="svg_200" x="-120.5" y="-91.833"><tspan id="svg_201" x="-115.5" y="-76.833">tie</tspan></text></g></g><g id="svg_202"><g id="svg_203"><g id="svg_204" transform="translate(560, 252) scale(1.5)"><path style="fill:#ff8b2d;fill-opacity:1;stroke:#e86b0e;stroke-width:1;stroke-linecap:round;stroke-opacity:1" id="svg_205" d="m-120,-83.33333587646484 L-120,-87.33333587646484 A4,4 90 0 1 -116,-91.33333587646484 L-112,-91.33333587646484 L-112,-89.33333587646484 L-102,-89.33333587646484 L-102,-91.33333587646484 L-93,-91.33333587646484 L-33,-91.33333587646484 L-29,-91.33333587646484 A4,4 90 0 1 -25,-87.33333587646484 L-25,-83.33333587646484 L-29,-83.33333587646484 L-29,-86.33333587646484 L-33,-86.33333587646484 L-33,-76.33333587646484 L-29,-76.33333587646484 L-29,-79.33333587646484 L-25,-79.33333587646484 L-25,-75.33333587646484 A4,4 90 0 1 -29,-71.33333587646484 L-33,-71.33333587646484 L-93,-71.33333587646484 L-94,-71.33333587646484 L-94,-69.33333587646484 L-102,-69.33333587646484 L-102,-71.33333587646484 L-103,-71.33333587646484 L-107,-71.33333587646484 A5,5 90 0 0 -112,-66.33333587646484 L-112,-62.333335876464844 L-112,-58.333335876464844 L-112,-16.333335876464844 L-112,-12.333335876464844 A5,5 90 0 0 -107,-7.333335876464844 L-103,-7.333335876464844 L-103,-5.333335876464844 L-93,-5.333335876464844 L-93,-7.333335876464844 L-85,-7.333335876464844 L-85,-1.3333358764648438 L-85,4.666664123535156 L-85,8.666664123535156 A4,4 90 0 1 -89,12.666664123535156 L-93,12.666664123535156 L-102,12.666664123535156 L-103,12.666664123535156 L-103,14.666664123535156 L-111,14.666664123535156 L-111,12.666664123535156 L-112,12.666664123535156 L-116,12.666664123535156 A4,4 90 0 1 -120,8.666664123535156 L-120,4.666664123535156 z"/><text style="font-size:10px;fill:#282828;font-family:sans-serif;text-anchor:start" id="svg_206" x="-120.5" y="-91.833"><tspan id="svg_207" x="-100.5" y="-76.833">note</tspan></text><text style="font-size:6.666666666666667px;fill:#282828;font-family:sans-serif;text-anchor:end" id="svg_208" x="-120.5" y="-91.833"><tspan id="svg_209" x="-35.5" y="-79.833">value</tspan></text></g></g><g id="svg_210" transform="translate(560, 256) scale(0.5)"><g style="isolation:isolate" id="svg_211"><g id="レイヤー_2" data-name="レイヤー 2"><g id="Icon"><rect style="fill:#292929;opacity:.4;mix-blend-mode:multiply" id="svg_212" width="42" height="42" x="-361.5" y="-275.5" rx="5" ry="5"/><path style="fill:#fff" id="svg_213" d="M-330.9400005340576,-245.70000076293945 l-4.170000076293945,-4.159999847412109 h2.259999990463257 a1,1 0 1 0 0,-2.069999933242798 H-337.5599994659424 a1.0800000429153442,1.0800000429153442 0 0 0 -1.1100000143051147,1 v0 s0,0 0,0.05999999865889549 v4.639999866485596 h0 a1,1 0 1 0 2.0799999237060547,0 V-248.42000007629395 l4.190000057220459,4.190000057220459 a1,1 0 0 0 1.4600000381469727,0 A1,1 0 0 0 -330.9400005340576,-245.70000076293945 z"/><path style="fill:#fff" id="svg_214" d="M-342.32999992370605,-250.89999961853027 a1.0800000429153442,1.0800000429153442 0 0 0 -1.1100000143051147,-1 H-348.1499996185303 a1,1 0 1 0 0,2.069999933242798 H-345.8999996185303 L-350.0600004196167,-245.70000076293945 a1,1 0 0 0 1.4700000286102295,1.4700000286102295 l4.179999828338623,-4.190000057220459 v2.259999990463257 a1,1 0 1 0 2.0799999237060547,0 V-250.79999923706055 s0,0 0,-0.05999999865889549 A0.07999999821186066,0.07999999821186066 0 0 1 -342.32999992370605,-250.89999961853027 z"/><path style="fill:#fff" id="svg_215" d="M-337.5599994659424,-255 h4.699999809265137 a1,1 0 1 0 0,-2.0799999237060547 H-335.11000061035156 l4.170000076293945,-4.159999847412109 a1,1 0 0 0 0,-1.4700000286102295 a1,1 0 0 0 -1.4600000381469727,0 L-336.5900001525879,-258.5 V-260.7799997329712 a1,1 0 1 0 -2.0799999237060547,0 v4.639999866485596 a0.4300000071525574,0.4300000071525574 0 0 0 0,0.05000000074505806 v0.05000000074505806 A1.090000033378601,1.090000033378601 0 0 0 -337.5599994659424,-255 z"/><path style="fill:#fff" id="svg_216" d="M-343.3700008392334,-261.8800001144409 a1.0800000429153442,1.0800000429153442 0 0 0 -1,1.090000033378601 V-258.5 l-4.179999828338623,-4.190000057220459 a1,1 0 0 0 -1.4700000286102295,0 a1,1 0 0 0 0,1.4600000381469727 l4.159999847412109,4.170000076293945 H-348.1499996185303 a1,1 0 1 0 0,2.0799999237060547 h4.710000038146973 a1.090000033378601,1.090000033378601 0 0 0 1.1100000143051147,-1 a0.07999999821186066,0.07999999821186066 0 0 1 0,0 s0,0 0,-0.05999999865889549 V-260.789999961853 A1.0700000524520874,1.0700000524520874 0 0 0 -343.3700008392334,-261.8800001144409 z"/></g></g></g></g></g><g id="svg_217"><g id="svg_218" transform="translate(692, 252) scale(1.5)"><path style="fill:#ff5293;fill-opacity:1;stroke:#ff2c76;stroke-width:1;stroke-linecap:round;stroke-opacity:1" id="svg_219" d="m-112,-83.33333587646484 L-112,-87.33333587646484 A4,4 90 0 1 -108,-91.33333587646484 L-104,-91.33333587646484 L-94,-91.33333587646484 L-64,-91.33333587646484 L-60,-91.33333587646484 A4,4 90 0 1 -56,-87.33333587646484 L-56,-83.33333587646484 L-60,-83.33333587646484 L-60,-86.33333587646484 L-64,-86.33333587646484 L-64,-76.33333587646484 L-60,-76.33333587646484 L-60,-79.33333587646484 L-56,-79.33333587646484 L-56,-62.333335876464844 L-60,-62.333335876464844 L-60,-65.33333587646484 L-64,-65.33333587646484 L-64,-55.333335876464844 L-60,-55.333335876464844 L-60,-58.333335876464844 L-56,-58.333335876464844 L-56,-54.333335876464844 A4,4 90 0 1 -60,-50.333335876464844 L-64,-50.333335876464844 L-94,-50.333335876464844 L-104,-50.333335876464844 L-108,-50.333335876464844 A4,4 90 0 1 -112,-54.333335876464844 L-112,-58.333335876464844 L-112,-79.33333587646484 L-112,-80.33333587646484 L-118,-80.33333587646484 L-118,-77.33333587646484 L-120,-77.33333587646484 L-120,-85.33333587646484 L-118,-85.33333587646484 L-118,-82.33333587646484 L-112,-82.33333587646484 L-112,-83.33333587646484 z"/><text style="font-size:9px;fill:#282828;font-family:sans-serif;text-anchor:end" id="svg_220" x="-120.5" y="-91.833"><tspan id="svg_221" x="-66.5" y="-68.833">➗</tspan></text></g></g><g id="svg_226"><g id="svg_227" transform="translate(778, 252) scale(1.5)"><path style="fill:#ff5293;fill-opacity:1;stroke:#ff2c76;stroke-width:1;stroke-linecap:round;stroke-opacity:1" id="svg_228" d="m-112,-91.33333587646484 L-52,-91.33333587646484 L-52,-71.33333587646484 L-112,-71.33333587646484 L-112,-79.33333587646484 L-112,-80.33333587646484 L-118,-80.33333587646484 L-118,-77.33333587646484 L-120,-77.33333587646484 L-120,-85.33333587646484 L-118,-85.33333587646484 L-118,-82.33333587646484 L-112,-82.33333587646484 L-112,-83.33333587646484 z"/><text style="font-size:10px;fill:#282828;font-family:sans-serif;text-anchor:start" id="svg_229" x="-120.5" y="-91.833"><tspan id="svg_230" x="-107.5" y="-77.833">1</tspan></text></g></g><g id="svg_231"><g id="svg_232" transform="translate(778, 284) scale(1.5)"><path style="fill:#ff5293;fill-opacity:1;stroke:#ff2c76;stroke-width:1;stroke-linecap:round;stroke-opacity:1" id="svg_233" d="m-112,-91.33333587646484 L-52,-91.33333587646484 L-52,-71.33333587646484 L-112,-71.33333587646484 L-112,-79.33333587646484 L-112,-80.33333587646484 L-118,-80.33333587646484 L-118,-77.33333587646484 L-120,-77.33333587646484 L-120,-85.33333587646484 L-118,-85.33333587646484 L-118,-82.33333587646484 L-112,-82.33333587646484 L-112,-83.33333587646484 z"/><text style="font-size:10px;fill:#282828;font-family:sans-serif;text-anchor:start" id="svg_234" x="-120.5" y="-91.833"><tspan id="svg_235" x="-107.5" y="-77.833">8</tspan></text></g></g><g id="svg_236"><g id="svg_237" transform="translate(574, 284) scale(1.5)"><path style="fill:#b0b0b0;fill-opacity:1;stroke:#a0a0a0;stroke-width:1;stroke-linecap:round;stroke-opacity:1" id="svg_238" d="m-120,-83.33333587646484 L-120,-87.33333587646484 A4,4 90 0 1 -116,-91.33333587646484 L-112,-91.33333587646484 L-112,-89.33333587646484 L-102,-89.33333587646484 L-102,-91.33333587646484 L-82,-91.33333587646484 L-78,-91.33333587646484 A4,4 90 0 1 -74,-87.33333587646484 L-74,-83.33333587646484 L-74,-79.33333587646484 L-74,-75.33333587646484 A4,4 90 0 1 -78,-71.33333587646484 L-82,-71.33333587646484 L-102,-71.33333587646484 L-103,-71.33333587646484 L-103,-69.33333587646484 L-111,-69.33333587646484 L-111,-71.33333587646484 L-112,-71.33333587646484 L-116,-71.33333587646484 A4,4 90 0 1 -120,-75.33333587646484 L-120,-79.33333587646484 z"/><text style="font-size:10px;fill:#282828;font-family:sans-serif;text-anchor:end" id="svg_239" x="-120.5" y="-91.833"><tspan id="svg_240" x="-84.5" y="-77.833">↓</tspan></text></g></g><g id="svg_241"><g id="svg_242" transform="translate(574, 316) scale(1.5)"><path style="fill:#77c428;fill-opacity:1;stroke:#57ad02;stroke-width:1;stroke-linecap:round;stroke-opacity:1" id="svg_243" d="m-120,-83.33333587646484 L-120,-87.33333587646484 A4,4 90 0 1 -116,-91.33333587646484 L-112,-91.33333587646484 L-112,-89.33333587646484 L-102,-89.33333587646484 L-102,-91.33333587646484 L-72,-91.33333587646484 L-68,-91.33333587646484 A4,4 90 0 1 -64,-87.33333587646484 L-64,-83.33333587646484 L-68,-83.33333587646484 L-68,-86.33333587646484 L-72,-86.33333587646484 L-72,-76.33333587646484 L-68,-76.33333587646484 L-68,-79.33333587646484 L-64,-79.33333587646484 L-64,-62.333335876464844 L-68,-62.333335876464844 L-68,-65.33333587646484 L-72,-65.33333587646484 L-72,-55.333335876464844 L-68,-55.333335876464844 L-68,-58.333335876464844 L-64,-58.333335876464844 L-64,-54.333335876464844 A4,4 90 0 1 -68,-50.333335876464844 L-72,-50.333335876464844 L-102,-50.333335876464844 L-103,-50.333335876464844 L-103,-48.333335876464844 L-111,-48.333335876464844 L-111,-50.333335876464844 L-112,-50.333335876464844 L-116,-50.333335876464844 A4,4 90 0 1 -120,-54.333335876464844 L-120,-58.333335876464844 L-120,-79.33333587646484 L-120,-83.33333587646484 z"/><text style="font-size:10px;fill:#282828;font-family:sans-serif;text-anchor:end" id="svg_244" x="-120.5" y="-91.833"><tspan id="svg_245" x="-74.5" y="-67.833">pitch</tspan></text><text style="font-size:6.666666666666667px;fill:#282828;font-family:sans-serif;text-anchor:end" id="svg_246" x="-120.5" y="-91.833"><tspan id="svg_247" x="-74.5" y="-79.833">name</tspan></text><text style="font-size:6.666666666666667px;fill:#282828;font-family:sans-serif;text-anchor:end" id="svg_248" x="-120.5" y="-91.833"><tspan id="svg_249" x="-74.5" y="-58.833">octave</tspan></text></g></g><g id="svg_250"><g id="svg_251" transform="translate(648, 316) scale(1.5)"><path style="fill:#77c428;fill-opacity:1;stroke:#57ad02;stroke-width:1;stroke-linecap:round;stroke-opacity:1" id="svg_252" d="m-112,-91.33333587646484 L-52,-91.33333587646484 L-52,-71.33333587646484 L-112,-71.33333587646484 L-112,-79.33333587646484 L-112,-80.33333587646484 L-118,-80.33333587646484 L-118,-77.33333587646484 L-120,-77.33333587646484 L-120,-85.33333587646484 L-118,-85.33333587646484 L-118,-82.33333587646484 L-112,-82.33333587646484 L-112,-83.33333587646484 z"/><text style="font-size:10px;fill:#282828;font-family:sans-serif;text-anchor:start" id="svg_253" x="-120.5" y="-91.833"><tspan id="svg_254" x="-107.5" y="-77.833">sol</tspan></text></g></g><g id="svg_255"><g id="svg_256" transform="translate(648, 348) scale(1.5)"><path style="fill:#ff5293;fill-opacity:1;stroke:#ff2c76;stroke-width:1;stroke-linecap:round;stroke-opacity:1" id="svg_257" d="m-112,-91.33333587646484 L-52,-91.33333587646484 L-52,-71.33333587646484 L-112,-71.33333587646484 L-112,-79.33333587646484 L-112,-80.33333587646484 L-118,-80.33333587646484 L-118,-77.33333587646484 L-120,-77.33333587646484 L-120,-85.33333587646484 L-118,-85.33333587646484 L-118,-82.33333587646484 L-112,-82.33333587646484 L-112,-83.33333587646484 z"/><text style="font-size:10px;fill:#282828;font-family:sans-serif;text-anchor:start" id="svg_258" x="-120.5" y="-91.833"><tspan id="svg_259" x="-107.5" y="-77.833">4</tspan></text></g></g><g id="svg_260"><g id="svg_261"><g id="svg_262" transform="translate(560, 410) scale(1.5)"><path style="fill:#ff8b2d;fill-opacity:1;stroke:#e86b0e;stroke-width:1;stroke-linecap:round;stroke-opacity:1" id="svg_263" d="m-120,-83.33333587646484 L-120,-87.33333587646484 A4,4 90 0 1 -116,-91.33333587646484 L-112,-91.33333587646484 L-112,-89.33333587646484 L-102,-89.33333587646484 L-102,-91.33333587646484 L-93,-91.33333587646484 L-33,-91.33333587646484 L-29,-91.33333587646484 A4,4 90 0 1 -25,-87.33333587646484 L-25,-83.33333587646484 L-29,-83.33333587646484 L-29,-86.33333587646484 L-33,-86.33333587646484 L-33,-76.33333587646484 L-29,-76.33333587646484 L-29,-79.33333587646484 L-25,-79.33333587646484 L-25,-75.33333587646484 A4,4 90 0 1 -29,-71.33333587646484 L-33,-71.33333587646484 L-93,-71.33333587646484 L-94,-71.33333587646484 L-94,-69.33333587646484 L-102,-69.33333587646484 L-102,-71.33333587646484 L-103,-71.33333587646484 L-107,-71.33333587646484 A5,5 90 0 0 -112,-66.33333587646484 L-112,-62.333335876464844 L-112,-58.333335876464844 L-112,-16.333335876464844 L-112,-12.333335876464844 A5,5 90 0 0 -107,-7.333335876464844 L-103,-7.333335876464844 L-103,-5.333335876464844 L-93,-5.333335876464844 L-93,-7.333335876464844 L-85,-7.333335876464844 L-85,-1.3333358764648438 L-85,4.666664123535156 L-85,8.666664123535156 A4,4 90 0 1 -89,12.666664123535156 L-93,12.666664123535156 L-102,12.666664123535156 L-103,12.666664123535156 L-103,14.666664123535156 L-111,14.666664123535156 L-111,12.666664123535156 L-112,12.666664123535156 L-116,12.666664123535156 A4,4 90 0 1 -120,8.666664123535156 L-120,4.666664123535156 z"/><text style="font-size:10px;fill:#282828;font-family:sans-serif;text-anchor:start" id="svg_264" x="-120.5" y="-91.833"><tspan id="svg_265" x="-100.5" y="-76.833">note</tspan></text><text style="font-size:6.666666666666667px;fill:#282828;font-family:sans-serif;text-anchor:end" id="svg_266" x="-120.5" y="-91.833"><tspan id="svg_267" x="-35.5" y="-79.833">value</tspan></text></g></g><g id="svg_268" transform="translate(560, 414) scale(0.5)"><g style="isolation:isolate" id="svg_269"><g id="レイヤー_2" data-name="レイヤー 2"><g id="Icon"><rect style="fill:#292929;opacity:.4;mix-blend-mode:multiply" id="svg_270" width="42" height="42" x="-361.5" y="-275.5" rx="5" ry="5"/><path style="fill:#fff" id="svg_271" d="M-330.9400005340576,-245.70000076293945 l-4.170000076293945,-4.159999847412109 h2.259999990463257 a1,1 0 1 0 0,-2.069999933242798 H-337.5599994659424 a1.0800000429153442,1.0800000429153442 0 0 0 -1.1100000143051147,1 v0 s0,0 0,0.05999999865889549 v4.639999866485596 h0 a1,1 0 1 0 2.0799999237060547,0 V-248.42000007629395 l4.190000057220459,4.190000057220459 a1,1 0 0 0 1.4600000381469727,0 A1,1 0 0 0 -330.9400005340576,-245.70000076293945 z"/><path style="fill:#fff" id="svg_272" d="M-342.32999992370605,-250.89999961853027 a1.0800000429153442,1.0800000429153442 0 0 0 -1.1100000143051147,-1 H-348.1499996185303 a1,1 0 1 0 0,2.069999933242798 H-345.8999996185303 L-350.0600004196167,-245.70000076293945 a1,1 0 0 0 1.4700000286102295,1.4700000286102295 l4.179999828338623,-4.190000057220459 v2.259999990463257 a1,1 0 1 0 2.0799999237060547,0 V-250.79999923706055 s0,0 0,-0.05999999865889549 A0.07999999821186066,0.07999999821186066 0 0 1 -342.32999992370605,-250.89999961853027 z"/><path style="fill:#fff" id="svg_273" d="M-337.5599994659424,-255 h4.699999809265137 a1,1 0 1 0 0,-2.0799999237060547 H-335.11000061035156 l4.170000076293945,-4.159999847412109 a1,1 0 0 0 0,-1.4700000286102295 a1,1 0 0 0 -1.4600000381469727,0 L-336.5900001525879,-258.5 V-260.7799997329712 a1,1 0 1 0 -2.0799999237060547,0 v4.639999866485596 a0.4300000071525574,0.4300000071525574 0 0 0 0,0.05000000074505806 v0.05000000074505806 A1.090000033378601,1.090000033378601 0 0 0 -337.5599994659424,-255 z"/><path style="fill:#fff" id="svg_274" d="M-343.3700008392334,-261.8800001144409 a1.0800000429153442,1.0800000429153442 0 0 0 -1,1.090000033378601 V-258.5 l-4.179999828338623,-4.190000057220459 a1,1 0 0 0 -1.4700000286102295,0 a1,1 0 0 0 0,1.4600000381469727 l4.159999847412109,4.170000076293945 H-348.1499996185303 a1,1 0 1 0 0,2.0799999237060547 h4.710000038146973 a1.090000033378601,1.090000033378601 0 0 0 1.1100000143051147,-1 a0.07999999821186066,0.07999999821186066 0 0 1 0,0 s0,0 0,-0.05999999865889549 V-260.789999961853 A1.0700000524520874,1.0700000524520874 0 0 0 -343.3700008392334,-261.8800001144409 z"/></g></g></g></g></g><g id="svg_275"><g id="svg_276" transform="translate(692, 410) scale(1.5)"><path style="fill:#ff5293;fill-opacity:1;stroke:#ff2c76;stroke-width:1;stroke-linecap:round;stroke-opacity:1" id="svg_277" d="m-112,-83.33333587646484 L-112,-87.33333587646484 A4,4 90 0 1 -108,-91.33333587646484 L-104,-91.33333587646484 L-94,-91.33333587646484 L-64,-91.33333587646484 L-60,-91.33333587646484 A4,4 90 0 1 -56,-87.33333587646484 L-56,-83.33333587646484 L-60,-83.33333587646484 L-60,-86.33333587646484 L-64,-86.33333587646484 L-64,-76.33333587646484 L-60,-76.33333587646484 L-60,-79.33333587646484 L-56,-79.33333587646484 L-56,-62.333335876464844 L-60,-62.333335876464844 L-60,-65.33333587646484 L-64,-65.33333587646484 L-64,-55.333335876464844 L-60,-55.333335876464844 L-60,-58.333335876464844 L-56,-58.333335876464844 L-56,-54.333335876464844 A4,4 90 0 1 -60,-50.333335876464844 L-64,-50.333335876464844 L-94,-50.333335876464844 L-104,-50.333335876464844 L-108,-50.333335876464844 A4,4 90 0 1 -112,-54.333335876464844 L-112,-58.333335876464844 L-112,-79.33333587646484 L-112,-80.33333587646484 L-118,-80.33333587646484 L-118,-77.33333587646484 L-120,-77.33333587646484 L-120,-85.33333587646484 L-118,-85.33333587646484 L-118,-82.33333587646484 L-112,-82.33333587646484 L-112,-83.33333587646484 z"/><text style="font-size:9px;fill:#282828;font-family:sans-serif;text-anchor:end" id="svg_278" x="-120.5" y="-91.833"><tspan id="svg_279" x="-66.5" y="-68.833">➗</tspan></text></g></g><g id="svg_284"><g id="svg_285" transform="translate(778, 410) scale(1.5)"><path style="fill:#ff5293;fill-opacity:1;stroke:#ff2c76;stroke-width:1;stroke-linecap:round;stroke-opacity:1" id="svg_286" d="m-112,-91.33333587646484 L-52,-91.33333587646484 L-52,-71.33333587646484 L-112,-71.33333587646484 L-112,-79.33333587646484 L-112,-80.33333587646484 L-118,-80.33333587646484 L-118,-77.33333587646484 L-120,-77.33333587646484 L-120,-85.33333587646484 L-118,-85.33333587646484 L-118,-82.33333587646484 L-112,-82.33333587646484 L-112,-83.33333587646484 z"/><text style="font-size:10px;fill:#282828;font-family:sans-serif;text-anchor:start" id="svg_287" x="-120.5" y="-91.833"><tspan id="svg_288" x="-107.5" y="-77.833">1</tspan></text></g></g><g id="svg_289"><g id="svg_290" transform="translate(778, 442) scale(1.5)"><path style="fill:#ff5293;fill-opacity:1;stroke:#ff2c76;stroke-width:1;stroke-linecap:round;stroke-opacity:1" id="svg_291" d="m-112,-91.33333587646484 L-52,-91.33333587646484 L-52,-71.33333587646484 L-112,-71.33333587646484 L-112,-79.33333587646484 L-112,-80.33333587646484 L-118,-80.33333587646484 L-118,-77.33333587646484 L-120,-77.33333587646484 L-120,-85.33333587646484 L-118,-85.33333587646484 L-118,-82.33333587646484 L-112,-82.33333587646484 L-112,-83.33333587646484 z"/><text style="font-size:10px;fill:#282828;font-family:sans-serif;text-anchor:start" id="svg_292" x="-120.5" y="-91.833"><tspan id="svg_293" x="-107.5" y="-77.833">4</tspan></text></g></g><g id="svg_294"><g id="svg_295" transform="translate(574, 442) scale(1.5)"><path style="fill:#b0b0b0;fill-opacity:1;stroke:#a0a0a0;stroke-width:1;stroke-linecap:round;stroke-opacity:1" id="svg_296" d="m-120,-83.33333587646484 L-120,-87.33333587646484 A4,4 90 0 1 -116,-91.33333587646484 L-112,-91.33333587646484 L-112,-89.33333587646484 L-102,-89.33333587646484 L-102,-91.33333587646484 L-82,-91.33333587646484 L-78,-91.33333587646484 A4,4 90 0 1 -74,-87.33333587646484 L-74,-83.33333587646484 L-74,-79.33333587646484 L-74,-75.33333587646484 A4,4 90 0 1 -78,-71.33333587646484 L-82,-71.33333587646484 L-102,-71.33333587646484 L-103,-71.33333587646484 L-103,-69.33333587646484 L-111,-69.33333587646484 L-111,-71.33333587646484 L-112,-71.33333587646484 L-116,-71.33333587646484 A4,4 90 0 1 -120,-75.33333587646484 L-120,-79.33333587646484 z"/><text style="font-size:10px;fill:#282828;font-family:sans-serif;text-anchor:end" id="svg_297" x="-120.5" y="-91.833"><tspan id="svg_298" x="-84.5" y="-77.833">↓</tspan></text></g></g><g id="svg_299"><g id="svg_300" transform="translate(574, 474) scale(1.5)"><path style="fill:#77c428;fill-opacity:1;stroke:#57ad02;stroke-width:1;stroke-linecap:round;stroke-opacity:1" id="svg_301" d="m-120,-83.33333587646484 L-120,-87.33333587646484 A4,4 90 0 1 -116,-91.33333587646484 L-112,-91.33333587646484 L-112,-89.33333587646484 L-102,-89.33333587646484 L-102,-91.33333587646484 L-72,-91.33333587646484 L-68,-91.33333587646484 A4,4 90 0 1 -64,-87.33333587646484 L-64,-83.33333587646484 L-68,-83.33333587646484 L-68,-86.33333587646484 L-72,-86.33333587646484 L-72,-76.33333587646484 L-68,-76.33333587646484 L-68,-79.33333587646484 L-64,-79.33333587646484 L-64,-62.333335876464844 L-68,-62.333335876464844 L-68,-65.33333587646484 L-72,-65.33333587646484 L-72,-55.333335876464844 L-68,-55.333335876464844 L-68,-58.333335876464844 L-64,-58.333335876464844 L-64,-54.333335876464844 A4,4 90 0 1 -68,-50.333335876464844 L-72,-50.333335876464844 L-102,-50.333335876464844 L-103,-50.333335876464844 L-103,-48.333335876464844 L-111,-48.333335876464844 L-111,-50.333335876464844 L-112,-50.333335876464844 L-116,-50.333335876464844 A4,4 90 0 1 -120,-54.333335876464844 L-120,-58.333335876464844 L-120,-79.33333587646484 L-120,-83.33333587646484 z"/><text style="font-size:10px;fill:#282828;font-family:sans-serif;text-anchor:end" id="svg_302" x="-120.5" y="-91.833"><tspan id="svg_303" x="-74.5" y="-67.833">pitch</tspan></text><text style="font-size:6.666666666666667px;fill:#282828;font-family:sans-serif;text-anchor:end" id="svg_304" x="-120.5" y="-91.833"><tspan id="svg_305" x="-74.5" y="-79.833">name</tspan></text><text style="font-size:6.666666666666667px;fill:#282828;font-family:sans-serif;text-anchor:end" id="svg_306" x="-120.5" y="-91.833"><tspan id="svg_307" x="-74.5" y="-58.833">octave</tspan></text></g></g><g id="svg_308"><g id="svg_309" transform="translate(648, 474) scale(1.5)"><path style="fill:#77c428;fill-opacity:1;stroke:#57ad02;stroke-width:1;stroke-linecap:round;stroke-opacity:1" id="svg_310" d="m-112,-91.33333587646484 L-52,-91.33333587646484 L-52,-71.33333587646484 L-112,-71.33333587646484 L-112,-79.33333587646484 L-112,-80.33333587646484 L-118,-80.33333587646484 L-118,-77.33333587646484 L-120,-77.33333587646484 L-120,-85.33333587646484 L-118,-85.33333587646484 L-118,-82.33333587646484 L-112,-82.33333587646484 L-112,-83.33333587646484 z"/><text style="font-size:10px;fill:#282828;font-family:sans-serif;text-anchor:start" id="svg_311" x="-120.5" y="-91.833"><tspan id="svg_312" x="-107.5" y="-77.833">sol</tspan></text></g></g><g id="svg_313"><g id="svg_314" transform="translate(648, 506) scale(1.5)"><path style="fill:#ff5293;fill-opacity:1;stroke:#ff2c76;stroke-width:1;stroke-linecap:round;stroke-opacity:1" id="svg_315" d="m-112,-91.33333587646484 L-52,-91.33333587646484 L-52,-71.33333587646484 L-112,-71.33333587646484 L-112,-79.33333587646484 L-112,-80.33333587646484 L-118,-80.33333587646484 L-118,-77.33333587646484 L-120,-77.33333587646484 L-120,-85.33333587646484 L-118,-85.33333587646484 L-118,-82.33333587646484 L-112,-82.33333587646484 L-112,-83.33333587646484 z"/><text style="font-size:10px;fill:#282828;font-family:sans-serif;text-anchor:start" id="svg_316" x="-120.5" y="-91.833"><tspan id="svg_317" x="-107.5" y="-77.833">4</tspan></text></g></g></g></svg>