<svg xmlns="http://www.w3.org/2000/svg" xmlns:svg="http://www.w3.org/2000/svg" id="svg9193" width="409" height="678" version="1.1"><metadata id="metadata9199"/><rect id="backgroundrect" width="100%" height="100%" x="0" y="0" fill="none" stroke="none"/><g id="g9191" class="currentLayer"><title id="title8935">Layer 1</title><g id="svg_1"><g id="svg_2"><g id="svg_3" transform="translate(218,1) scale(1.5)"><path style="fill:#daa926;fill-opacity:1;stroke:#daaf30;stroke-width:1;stroke-linecap:round;stroke-opacity:1" id="svg_4" d="m-144.8333282470703,13.333333373069763 L-144.8333282470703,9.333333373069763 A4,4 90 0 1 -140.8333282470703,5.333333373069763 L-136.8333282470703,5.333333373069763 L-131.8333282470703,-0.6666666269302368 L-126.83332824707031,5.333333373069763 L-117.83332824707031,5.333333373069763 L-57.83332824707031,5.333333373069763 L-53.83332824707031,5.333333373069763 A4,4 90 0 1 -49.83332824707031,9.333333373069763 L-49.83332824707031,13.333333373069763 L-49.83332824707031,17.333333373069763 L-49.83332824707031,21.333333373069763 A4,4 90 0 1 -53.83332824707031,25.333333373069763 L-57.83332824707031,25.333333373069763 L-117.83332824707031,25.333333373069763 L-118.83332824707031,25.333333373069763 L-118.83332824707031,27.333333373069763 L-126.83332824707031,27.333333373069763 L-126.83332824707031,25.333333373069763 L-127.83332824707031,25.333333373069763 L-131.8333282470703,25.333333373069763 A5,5 90 0 0 -136.8333282470703,30.333333373069763 L-136.8333282470703,34.33333337306976 L-136.8333282470703,38.33333337306976 L-136.8333282470703,416.33333337306976 L-136.8333282470703,420.33333337306976 A5,5 90 0 0 -131.8333282470703,425.33333337306976 L-127.83332824707031,425.33333337306976 L-127.83332824707031,427.33333337306976 L-117.83332824707031,427.33333337306976 L-117.83332824707031,425.33333337306976 L-109.83332824707031,425.33333337306976 L-109.83332824707031,431.33333337306976 L-109.83332824707031,437.33333337306976 L-109.83332824707031,441.33333337306976 A4,4 90 0 1 -113.83332824707031,445.33333337306976 L-117.83332824707031,445.33333337306976 L-126.83332824707031,445.33333337306976 L-131.8333282470703,451.33333337306976 L-136.8333282470703,445.33333337306976 L-140.8333282470703,445.33333337306976 A4,4 90 0 1 -144.8333282470703,441.33333337306976 L-144.8333282470703,437.33333337306976 z"/><text style="font-size:10px;fill:#282828;font-family:sans-serif;text-anchor:start" id="svg_5" x="-145.333" y="-1.167"><tspan id="svg_6" x="-125.333" y="20.833">start</tspan></text></g></g></g><g id="svg_15"><g id="svg_16"><g id="svg_17" transform="translate(232,42) scale(1.5)"><path style="fill:#ff8b2d;fill-opacity:1;stroke:#e86b0e;stroke-width:1;stroke-linecap:round;stroke-opacity:1" id="svg_18" d="m-144.8333282470703,7.333333373069763 L-144.8333282470703,3.333333373069763 A4,4 90 0 1 -140.8333282470703,-0.6666666269302368 L-136.8333282470703,-0.6666666269302368 L-136.8333282470703,1.3333333730697632 L-126.83332824707031,1.3333333730697632 L-126.83332824707031,-0.6666666269302368 L-117.83332824707031,-0.6666666269302368 L-57.83332824707031,-0.6666666269302368 L-53.83332824707031,-0.6666666269302368 A4,4 90 0 1 -49.83332824707031,3.333333373069763 L-49.83332824707031,7.333333373069763 L-53.83332824707031,7.333333373069763 L-53.83332824707031,4.333333373069763 L-57.83332824707031,4.333333373069763 L-57.83332824707031,14.333333373069763 L-53.83332824707031,14.333333373069763 L-53.83332824707031,11.333333373069763 L-49.83332824707031,11.333333373069763 L-49.83332824707031,15.333333373069763 A4,4 90 0 1 -53.83332824707031,19.333333373069763 L-57.83332824707031,19.333333373069763 L-117.83332824707031,19.333333373069763 L-118.83332824707031,19.333333373069763 L-118.83332824707031,21.333333373069763 L-126.83332824707031,21.333333373069763 L-126.83332824707031,19.333333373069763 L-127.83332824707031,19.333333373069763 L-131.8333282470703,19.333333373069763 A5,5 90 0 0 -136.8333282470703,24.333333373069763 L-136.8333282470703,28.333333373069763 L-136.8333282470703,32.33333337306976 L-136.8333282470703,74.33333337306976 L-136.8333282470703,78.33333337306976 A5,5 90 0 0 -131.8333282470703,83.33333337306976 L-127.83332824707031,83.33333337306976 L-127.83332824707031,85.33333337306976 L-117.83332824707031,85.33333337306976 L-117.83332824707031,83.33333337306976 L-109.83332824707031,83.33333337306976 L-109.83332824707031,89.33333337306976 L-109.83332824707031,95.33333337306976 L-109.83332824707031,99.33333337306976 A4,4 90 0 1 -113.83332824707031,103.33333337306976 L-117.83332824707031,103.33333337306976 L-126.83332824707031,103.33333337306976 L-127.83332824707031,103.33333337306976 L-127.83332824707031,105.33333337306976 L-135.8333282470703,105.33333337306976 L-135.8333282470703,103.33333337306976 L-136.8333282470703,103.33333337306976 L-140.8333282470703,103.33333337306976 A4,4 90 0 1 -144.8333282470703,99.33333337306976 L-144.8333282470703,95.33333337306976 z"/><text style="font-size:10px;fill:#282828;font-family:sans-serif;text-anchor:start" id="svg_19" x="-145.333" y="-1.167"><tspan id="svg_20" x="-125.333" y="13.833">note</tspan></text><text style="font-size:6.666666666666667px;fill:#282828;font-family:sans-serif;text-anchor:end" id="svg_21" x="-145.333" y="-1.167"><tspan id="svg_22" x="-60.333" y="10.833">value</tspan></text></g></g></g><g id="svg_30"><g id="svg_31" transform="translate(364,42) scale(1.5)"><path style="fill:#ff5293;fill-opacity:1;stroke:#ff2c76;stroke-width:1;stroke-linecap:round;stroke-opacity:1" id="svg_32" d="m-136.8333282470703,7.333333373069763 L-136.8333282470703,3.333333373069763 A4,4 90 0 1 -132.8333282470703,-0.6666666269302368 L-128.8333282470703,-0.6666666269302368 L-118.83332824707031,-0.6666666269302368 L-88.83332824707031,-0.6666666269302368 L-84.83332824707031,-0.6666666269302368 A4,4 90 0 1 -80.83332824707031,3.333333373069763 L-80.83332824707031,7.333333373069763 L-84.83332824707031,7.333333373069763 L-84.83332824707031,4.333333373069763 L-88.83332824707031,4.333333373069763 L-88.83332824707031,14.333333373069763 L-84.83332824707031,14.333333373069763 L-84.83332824707031,11.333333373069763 L-80.83332824707031,11.333333373069763 L-80.83332824707031,28.333333373069763 L-84.83332824707031,28.333333373069763 L-84.83332824707031,25.333333373069763 L-88.83332824707031,25.333333373069763 L-88.83332824707031,35.33333337306976 L-84.83332824707031,35.33333337306976 L-84.83332824707031,32.33333337306976 L-80.83332824707031,32.33333337306976 L-80.83332824707031,36.33333337306976 A4,4 90 0 1 -84.83332824707031,40.33333337306976 L-88.83332824707031,40.33333337306976 L-118.83332824707031,40.33333337306976 L-128.8333282470703,40.33333337306976 L-132.8333282470703,40.33333337306976 A4,4 90 0 1 -136.8333282470703,36.33333337306976 L-136.8333282470703,32.33333337306976 L-136.8333282470703,11.333333373069763 L-136.8333282470703,10.333333373069763 L-142.8333282470703,10.333333373069763 L-142.8333282470703,13.333333373069763 L-144.8333282470703,13.333333373069763 L-144.8333282470703,5.333333373069763 L-142.8333282470703,5.333333373069763 L-142.8333282470703,8.333333373069763 L-136.8333282470703,8.333333373069763 L-136.8333282470703,7.333333373069763 z"/><text style="font-size:9px;fill:#282828;font-family:sans-serif;text-anchor:end" id="svg_33" x="-145.333" y="-1.167"><tspan id="svg_34" x="-91.333" y="21.833">➗</tspan></text></g></g><g id="svg_39"><g id="svg_40" transform="translate(450,42) scale(1.5)"><path style="fill:#ff5293;fill-opacity:1;stroke:#ff2c76;stroke-width:1;stroke-linecap:round;stroke-opacity:1" id="svg_41" d="m-136.8333282470703,-0.6666666269302368 L-76.83332824707031,-0.6666666269302368 L-76.83332824707031,19.333333373069763 L-136.8333282470703,19.333333373069763 L-136.8333282470703,11.333333373069763 L-136.8333282470703,10.333333373069763 L-142.8333282470703,10.333333373069763 L-142.8333282470703,13.333333373069763 L-144.8333282470703,13.333333373069763 L-144.8333282470703,5.333333373069763 L-142.8333282470703,5.333333373069763 L-142.8333282470703,8.333333373069763 L-136.8333282470703,8.333333373069763 L-136.8333282470703,7.333333373069763 z"/><text style="font-size:10px;fill:#282828;font-family:sans-serif;text-anchor:start" id="svg_42" x="-145.333" y="-1.167"><tspan id="svg_43" x="-132.333" y="12.833">1</tspan></text></g></g><g id="svg_44"><g id="svg_45" transform="translate(450,74) scale(1.5)"><path style="fill:#ff5293;fill-opacity:1;stroke:#ff2c76;stroke-width:1;stroke-linecap:round;stroke-opacity:1" id="svg_46" d="m-136.8333282470703,-0.6666666269302368 L-76.83332824707031,-0.6666666269302368 L-76.83332824707031,19.333333373069763 L-136.8333282470703,19.333333373069763 L-136.8333282470703,11.333333373069763 L-136.8333282470703,10.333333373069763 L-142.8333282470703,10.333333373069763 L-142.8333282470703,13.333333373069763 L-144.8333282470703,13.333333373069763 L-144.8333282470703,5.333333373069763 L-142.8333282470703,5.333333373069763 L-142.8333282470703,8.333333373069763 L-136.8333282470703,8.333333373069763 L-136.8333282470703,7.333333373069763 z"/><text style="font-size:10px;fill:#282828;font-family:sans-serif;text-anchor:start" id="svg_47" x="-145.333" y="-1.167"><tspan id="svg_48" x="-132.333" y="12.833">8</tspan></text></g></g><g id="svg_49"><g id="svg_50" transform="translate(246,74) scale(1.5)"><path style="fill:#b0b0b0;fill-opacity:1;stroke:#a0a0a0;stroke-width:1;stroke-linecap:round;stroke-opacity:1" id="svg_51" d="m-144.8333282470703,7.333333373069763 L-144.8333282470703,3.333333373069763 A4,4 90 0 1 -140.8333282470703,-0.6666666269302368 L-136.8333282470703,-0.6666666269302368 L-136.8333282470703,1.3333333730697632 L-126.83332824707031,1.3333333730697632 L-126.83332824707031,-0.6666666269302368 L-106.83332824707031,-0.6666666269302368 L-102.83332824707031,-0.6666666269302368 A4,4 90 0 1 -98.83332824707031,3.333333373069763 L-98.83332824707031,7.333333373069763 L-98.83332824707031,11.333333373069763 L-98.83332824707031,15.333333373069763 A4,4 90 0 1 -102.83332824707031,19.333333373069763 L-106.83332824707031,19.333333373069763 L-126.83332824707031,19.333333373069763 L-127.83332824707031,19.333333373069763 L-127.83332824707031,21.333333373069763 L-135.8333282470703,21.333333373069763 L-135.8333282470703,19.333333373069763 L-136.8333282470703,19.333333373069763 L-140.8333282470703,19.333333373069763 A4,4 90 0 1 -144.8333282470703,15.333333373069763 L-144.8333282470703,11.333333373069763 z"/><text style="font-size:10px;fill:#282828;font-family:sans-serif;text-anchor:end" id="svg_52" x="-145.333" y="-1.167"><tspan id="svg_53" x="-109.333" y="12.833">↓</tspan></text></g></g><g id="svg_54"><g id="svg_55" transform="translate(246,106) scale(1.5)"><path style="fill:#77c428;fill-opacity:1;stroke:#57ad02;stroke-width:1;stroke-linecap:round;stroke-opacity:1" id="svg_56" d="m-144.8333282470703,7.333333373069763 L-144.8333282470703,3.333333373069763 A4,4 90 0 1 -140.8333282470703,-0.6666666269302368 L-136.8333282470703,-0.6666666269302368 L-136.8333282470703,1.3333333730697632 L-126.83332824707031,1.3333333730697632 L-126.83332824707031,-0.6666666269302368 L-96.83332824707031,-0.6666666269302368 L-92.83332824707031,-0.6666666269302368 A4,4 90 0 1 -88.83332824707031,3.333333373069763 L-88.83332824707031,7.333333373069763 L-92.83332824707031,7.333333373069763 L-92.83332824707031,4.333333373069763 L-96.83332824707031,4.333333373069763 L-96.83332824707031,14.333333373069763 L-92.83332824707031,14.333333373069763 L-92.83332824707031,11.333333373069763 L-88.83332824707031,11.333333373069763 L-88.83332824707031,28.333333373069763 L-92.83332824707031,28.333333373069763 L-92.83332824707031,25.333333373069763 L-96.83332824707031,25.333333373069763 L-96.83332824707031,35.33333337306976 L-92.83332824707031,35.33333337306976 L-92.83332824707031,32.33333337306976 L-88.83332824707031,32.33333337306976 L-88.83332824707031,36.33333337306976 A4,4 90 0 1 -92.83332824707031,40.33333337306976 L-96.83332824707031,40.33333337306976 L-126.83332824707031,40.33333337306976 L-127.83332824707031,40.33333337306976 L-127.83332824707031,42.33333337306976 L-135.8333282470703,42.33333337306976 L-135.8333282470703,40.33333337306976 L-136.8333282470703,40.33333337306976 L-140.8333282470703,40.33333337306976 A4,4 90 0 1 -144.8333282470703,36.33333337306976 L-144.8333282470703,32.33333337306976 L-144.8333282470703,11.333333373069763 L-144.8333282470703,7.333333373069763 z"/><text style="font-size:10px;fill:#282828;font-family:sans-serif;text-anchor:end" id="svg_57" x="-145.333" y="-1.167"><tspan id="svg_58" x="-99.333" y="22.833">pitch</tspan></text><text style="font-size:6.666666666666667px;fill:#282828;font-family:sans-serif;text-anchor:end" id="svg_59" x="-145.333" y="-1.167"><tspan id="svg_60" x="-99.333" y="10.833">name</tspan></text><text style="font-size:6.666666666666667px;fill:#282828;font-family:sans-serif;text-anchor:end" id="svg_61" x="-145.333" y="-1.167"><tspan id="svg_62" x="-99.333" y="31.833">octave</tspan></text></g></g><g id="svg_63"><g id="svg_64" transform="translate(320,106) scale(1.5)"><path style="fill:#77c428;fill-opacity:1;stroke:#57ad02;stroke-width:1;stroke-linecap:round;stroke-opacity:1" id="svg_65" d="m-136.8333282470703,-0.6666666269302368 L-76.83332824707031,-0.6666666269302368 L-76.83332824707031,19.333333373069763 L-136.8333282470703,19.333333373069763 L-136.8333282470703,11.333333373069763 L-136.8333282470703,10.333333373069763 L-142.8333282470703,10.333333373069763 L-142.8333282470703,13.333333373069763 L-144.8333282470703,13.333333373069763 L-144.8333282470703,5.333333373069763 L-142.8333282470703,5.333333373069763 L-142.8333282470703,8.333333373069763 L-136.8333282470703,8.333333373069763 L-136.8333282470703,7.333333373069763 z"/><text style="font-size:10px;fill:#282828;font-family:sans-serif;text-anchor:start" id="svg_66" x="-145.333" y="-1.167"><tspan id="svg_67" x="-132.333" y="12.833">do</tspan></text></g></g><g id="svg_68"><g id="svg_69" transform="translate(320,138) scale(1.5)"><path style="fill:#ff5293;fill-opacity:1;stroke:#ff2c76;stroke-width:1;stroke-linecap:round;stroke-opacity:1" id="svg_70" d="m-136.8333282470703,-0.6666666269302368 L-76.83332824707031,-0.6666666269302368 L-76.83332824707031,19.333333373069763 L-136.8333282470703,19.333333373069763 L-136.8333282470703,11.333333373069763 L-136.8333282470703,10.333333373069763 L-142.8333282470703,10.333333373069763 L-142.8333282470703,13.333333373069763 L-144.8333282470703,13.333333373069763 L-144.8333282470703,5.333333373069763 L-142.8333282470703,5.333333373069763 L-142.8333282470703,8.333333373069763 L-136.8333282470703,8.333333373069763 L-136.8333282470703,7.333333373069763 z"/><text style="font-size:10px;fill:#282828;font-family:sans-serif;text-anchor:start" id="svg_71" x="-145.333" y="-1.167"><tspan id="svg_72" x="-132.333" y="12.833">4</tspan></text></g></g><g id="svg_73"><g id="svg_74" transform="translate(232,200) scale(1.5)"><path style="fill:#d68136;fill-opacity:1;stroke:#b7651a;stroke-width:1;stroke-linecap:round;stroke-opacity:1" id="svg_75" d="m-144.8333282470703,7.333333373069763 L-144.8333282470703,3.333333373069763 A4,4 90 0 1 -140.8333282470703,-0.6666666269302368 L-136.8333282470703,-0.6666666269302368 L-136.8333282470703,1.3333333730697632 L-126.83332824707031,1.3333333730697632 L-126.83332824707031,-0.6666666269302368 L-117.83332824707031,-0.6666666269302368 L-97.83332824707031,-0.6666666269302368 L-93.83332824707031,-0.6666666269302368 A4,4 90 0 1 -89.83332824707031,3.333333373069763 L-89.83332824707031,7.333333373069763 L-93.83332824707031,7.333333373069763 L-93.83332824707031,4.333333373069763 L-97.83332824707031,4.333333373069763 L-97.83332824707031,14.333333373069763 L-93.83332824707031,14.333333373069763 L-93.83332824707031,11.333333373069763 L-89.83332824707031,11.333333373069763 L-89.83332824707031,15.333333373069763 A4,4 90 0 1 -93.83332824707031,19.333333373069763 L-97.83332824707031,19.333333373069763 L-117.83332824707031,19.333333373069763 L-118.83332824707031,19.333333373069763 L-118.83332824707031,21.333333373069763 L-126.83332824707031,21.333333373069763 L-126.83332824707031,19.333333373069763 L-127.83332824707031,19.333333373069763 L-131.8333282470703,19.333333373069763 A5,5 90 0 0 -136.8333282470703,24.333333373069763 L-136.8333282470703,28.333333373069763 L-136.8333282470703,32.33333337306976 L-136.8333282470703,116.33333337306976 L-136.8333282470703,120.33333337306976 A5,5 90 0 0 -131.8333282470703,125.33333337306976 L-127.83332824707031,125.33333337306976 L-127.83332824707031,127.33333337306976 L-117.83332824707031,127.33333337306976 L-117.83332824707031,125.33333337306976 L-109.83332824707031,125.33333337306976 L-109.83332824707031,131.33333337306976 L-109.83332824707031,137.33333337306976 L-109.83332824707031,141.33333337306976 A4,4 90 0 1 -113.83332824707031,145.33333337306976 L-117.83332824707031,145.33333337306976 L-126.83332824707031,145.33333337306976 L-127.83332824707031,145.33333337306976 L-127.83332824707031,147.33333337306976 L-135.8333282470703,147.33333337306976 L-135.8333282470703,145.33333337306976 L-136.8333282470703,145.33333337306976 L-140.8333282470703,145.33333337306976 A4,4 90 0 1 -144.8333282470703,141.33333337306976 L-144.8333282470703,137.33333337306976 z"/><text style="font-size:10px;fill:#282828;font-family:sans-serif;text-anchor:start" id="svg_76" x="-145.333" y="-1.167"><tspan id="svg_77" x="-140.333" y="13.833">repeat</tspan></text></g></g><g id="svg_80"><g id="svg_81"><g id="svg_82" transform="translate(246,232) scale(1.5)"><path style="fill:#ff8b2d;fill-opacity:1;stroke:#e86b0e;stroke-width:1;stroke-linecap:round;stroke-opacity:1" id="svg_83" d="m-144.8333282470703,7.333333373069763 L-144.8333282470703,3.333333373069763 A4,4 90 0 1 -140.8333282470703,-0.6666666269302368 L-136.8333282470703,-0.6666666269302368 L-136.8333282470703,1.3333333730697632 L-126.83332824707031,1.3333333730697632 L-126.83332824707031,-0.6666666269302368 L-117.83332824707031,-0.6666666269302368 L-57.83332824707031,-0.6666666269302368 L-53.83332824707031,-0.6666666269302368 A4,4 90 0 1 -49.83332824707031,3.333333373069763 L-49.83332824707031,7.333333373069763 L-53.83332824707031,7.333333373069763 L-53.83332824707031,4.333333373069763 L-57.83332824707031,4.333333373069763 L-57.83332824707031,14.333333373069763 L-53.83332824707031,14.333333373069763 L-53.83332824707031,11.333333373069763 L-49.83332824707031,11.333333373069763 L-49.83332824707031,15.333333373069763 A4,4 90 0 1 -53.83332824707031,19.333333373069763 L-57.83332824707031,19.333333373069763 L-117.83332824707031,19.333333373069763 L-118.83332824707031,19.333333373069763 L-118.83332824707031,21.333333373069763 L-126.83332824707031,21.333333373069763 L-126.83332824707031,19.333333373069763 L-127.83332824707031,19.333333373069763 L-131.8333282470703,19.333333373069763 A5,5 90 0 0 -136.8333282470703,24.333333373069763 L-136.8333282470703,28.333333373069763 L-136.8333282470703,32.33333337306976 L-136.8333282470703,74.33333337306976 L-136.8333282470703,78.33333337306976 A5,5 90 0 0 -131.8333282470703,83.33333337306976 L-127.83332824707031,83.33333337306976 L-127.83332824707031,85.33333337306976 L-117.83332824707031,85.33333337306976 L-117.83332824707031,83.33333337306976 L-109.83332824707031,83.33333337306976 L-109.83332824707031,89.33333337306976 L-109.83332824707031,95.33333337306976 L-109.83332824707031,99.33333337306976 A4,4 90 0 1 -113.83332824707031,103.33333337306976 L-117.83332824707031,103.33333337306976 L-126.83332824707031,103.33333337306976 L-127.83332824707031,103.33333337306976 L-127.83332824707031,105.33333337306976 L-135.8333282470703,105.33333337306976 L-135.8333282470703,103.33333337306976 L-136.8333282470703,103.33333337306976 L-140.8333282470703,103.33333337306976 A4,4 90 0 1 -144.8333282470703,99.33333337306976 L-144.8333282470703,95.33333337306976 z"/><text style="font-size:10px;fill:#282828;font-family:sans-serif;text-anchor:start" id="svg_84" x="-145.333" y="-1.167"><tspan id="svg_85" x="-125.333" y="13.833">note</tspan></text><text style="font-size:6.666666666666667px;fill:#282828;font-family:sans-serif;text-anchor:end" id="svg_86" x="-145.333" y="-1.167"><tspan id="svg_87" x="-60.333" y="10.833">value</tspan></text></g></g></g><g id="svg_95"><g id="svg_96" transform="translate(378,232) scale(1.5)"><path style="fill:#ff5293;fill-opacity:1;stroke:#ff2c76;stroke-width:1;stroke-linecap:round;stroke-opacity:1" id="svg_97" d="m-136.8333282470703,7.333333373069763 L-136.8333282470703,3.333333373069763 A4,4 90 0 1 -132.8333282470703,-0.6666666269302368 L-128.8333282470703,-0.6666666269302368 L-118.83332824707031,-0.6666666269302368 L-88.83332824707031,-0.6666666269302368 L-84.83332824707031,-0.6666666269302368 A4,4 90 0 1 -80.83332824707031,3.333333373069763 L-80.83332824707031,7.333333373069763 L-84.83332824707031,7.333333373069763 L-84.83332824707031,4.333333373069763 L-88.83332824707031,4.333333373069763 L-88.83332824707031,14.333333373069763 L-84.83332824707031,14.333333373069763 L-84.83332824707031,11.333333373069763 L-80.83332824707031,11.333333373069763 L-80.83332824707031,28.333333373069763 L-84.83332824707031,28.333333373069763 L-84.83332824707031,25.333333373069763 L-88.83332824707031,25.333333373069763 L-88.83332824707031,35.33333337306976 L-84.83332824707031,35.33333337306976 L-84.83332824707031,32.33333337306976 L-80.83332824707031,32.33333337306976 L-80.83332824707031,36.33333337306976 A4,4 90 0 1 -84.83332824707031,40.33333337306976 L-88.83332824707031,40.33333337306976 L-118.83332824707031,40.33333337306976 L-128.8333282470703,40.33333337306976 L-132.8333282470703,40.33333337306976 A4,4 90 0 1 -136.8333282470703,36.33333337306976 L-136.8333282470703,32.33333337306976 L-136.8333282470703,11.333333373069763 L-136.8333282470703,10.333333373069763 L-142.8333282470703,10.333333373069763 L-142.8333282470703,13.333333373069763 L-144.8333282470703,13.333333373069763 L-144.8333282470703,5.333333373069763 L-142.8333282470703,5.333333373069763 L-142.8333282470703,8.333333373069763 L-136.8333282470703,8.333333373069763 L-136.8333282470703,7.333333373069763 z"/><text style="font-size:9px;fill:#282828;font-family:sans-serif;text-anchor:end" id="svg_98" x="-145.333" y="-1.167"><tspan id="svg_99" x="-91.333" y="21.833">➗</tspan></text></g></g><g id="svg_104"><g id="svg_105" transform="translate(464,232) scale(1.5)"><path style="fill:#ff5293;fill-opacity:1;stroke:#ff2c76;stroke-width:1;stroke-linecap:round;stroke-opacity:1" id="svg_106" d="m-136.8333282470703,-0.6666666269302368 L-76.83332824707031,-0.6666666269302368 L-76.83332824707031,19.333333373069763 L-136.8333282470703,19.333333373069763 L-136.8333282470703,11.333333373069763 L-136.8333282470703,10.333333373069763 L-142.8333282470703,10.333333373069763 L-142.8333282470703,13.333333373069763 L-144.8333282470703,13.333333373069763 L-144.8333282470703,5.333333373069763 L-142.8333282470703,5.333333373069763 L-142.8333282470703,8.333333373069763 L-136.8333282470703,8.333333373069763 L-136.8333282470703,7.333333373069763 z"/><text style="font-size:10px;fill:#282828;font-family:sans-serif;text-anchor:start" id="svg_107" x="-145.333" y="-1.167"><tspan id="svg_108" x="-132.333" y="12.833">1</tspan></text></g></g><g id="svg_109"><g id="svg_110" transform="translate(464,264) scale(1.5)"><path style="fill:#ff5293;fill-opacity:1;stroke:#ff2c76;stroke-width:1;stroke-linecap:round;stroke-opacity:1" id="svg_111" d="m-136.8333282470703,-0.6666666269302368 L-76.83332824707031,-0.6666666269302368 L-76.83332824707031,19.333333373069763 L-136.8333282470703,19.333333373069763 L-136.8333282470703,11.333333373069763 L-136.8333282470703,10.333333373069763 L-142.8333282470703,10.333333373069763 L-142.8333282470703,13.333333373069763 L-144.8333282470703,13.333333373069763 L-144.8333282470703,5.333333373069763 L-142.8333282470703,5.333333373069763 L-142.8333282470703,8.333333373069763 L-136.8333282470703,8.333333373069763 L-136.8333282470703,7.333333373069763 z"/><text style="font-size:10px;fill:#282828;font-family:sans-serif;text-anchor:start" id="svg_112" x="-145.333" y="-1.167"><tspan id="svg_113" x="-132.333" y="12.833">8</tspan></text></g></g><g id="svg_114"><g id="svg_115" transform="translate(260,264) scale(1.5)"><path style="fill:#b0b0b0;fill-opacity:1;stroke:#a0a0a0;stroke-width:1;stroke-linecap:round;stroke-opacity:1" id="svg_116" d="m-144.8333282470703,7.333333373069763 L-144.8333282470703,3.333333373069763 A4,4 90 0 1 -140.8333282470703,-0.6666666269302368 L-136.8333282470703,-0.6666666269302368 L-136.8333282470703,1.3333333730697632 L-126.83332824707031,1.3333333730697632 L-126.83332824707031,-0.6666666269302368 L-106.83332824707031,-0.6666666269302368 L-102.83332824707031,-0.6666666269302368 A4,4 90 0 1 -98.83332824707031,3.333333373069763 L-98.83332824707031,7.333333373069763 L-98.83332824707031,11.333333373069763 L-98.83332824707031,15.333333373069763 A4,4 90 0 1 -102.83332824707031,19.333333373069763 L-106.83332824707031,19.333333373069763 L-126.83332824707031,19.333333373069763 L-127.83332824707031,19.333333373069763 L-127.83332824707031,21.333333373069763 L-135.8333282470703,21.333333373069763 L-135.8333282470703,19.333333373069763 L-136.8333282470703,19.333333373069763 L-140.8333282470703,19.333333373069763 A4,4 90 0 1 -144.8333282470703,15.333333373069763 L-144.8333282470703,11.333333373069763 z"/><text style="font-size:10px;fill:#282828;font-family:sans-serif;text-anchor:end" id="svg_117" x="-145.333" y="-1.167"><tspan id="svg_118" x="-109.333" y="12.833">↓</tspan></text></g></g><g id="svg_119"><g id="svg_120" transform="translate(304,200) scale(1.5)"><path style="fill:#77c428;fill-opacity:1;stroke:#57ad02;stroke-width:1;stroke-linecap:round;stroke-opacity:1" id="svg_121" d="m-136.8333282470703,-0.6666666269302368 L-41.79426574707031,-0.6666666269302368 L-41.79426574707031,19.333333373069763 L-136.8333282470703,19.333333373069763 L-136.8333282470703,11.333333373069763 L-136.8333282470703,10.333333373069763 L-142.8333282470703,10.333333373069763 L-142.8333282470703,13.333333373069763 L-144.8333282470703,13.333333373069763 L-144.8333282470703,5.333333373069763 L-142.8333282470703,5.333333373069763 L-142.8333282470703,8.333333373069763 L-136.8333282470703,8.333333373069763 L-136.8333282470703,7.333333373069763 z"/><text style="font-size:10px;fill:#282828;font-family:sans-serif;text-anchor:start" id="svg_122" x="-145.333" y="-1.167"><tspan id="svg_123" x="-132.333" y="12.833">mode length</tspan></text></g></g><g id="svg_124"><g id="svg_125" transform="translate(260,296) scale(1.5)"><path style="fill:#77c428;fill-opacity:1;stroke:#57ad02;stroke-width:1;stroke-linecap:round;stroke-opacity:1" id="svg_126" d="m-144.8333282470703,7.333333373069763 L-144.8333282470703,3.333333373069763 A4,4 90 0 1 -140.8333282470703,-0.6666666269302368 L-136.8333282470703,-0.6666666269302368 L-136.8333282470703,1.3333333730697632 L-126.83332824707031,1.3333333730697632 L-126.83332824707031,-0.6666666269302368 L-69.02571105957031,-0.6666666269302368 L-65.02571105957031,-0.6666666269302368 A4,4 90 0 1 -61.02571105957031,3.333333373069763 L-61.02571105957031,7.333333373069763 L-65.02571105957031,7.333333373069763 L-65.02571105957031,4.333333373069763 L-69.02571105957031,4.333333373069763 L-69.02571105957031,14.333333373069763 L-65.02571105957031,14.333333373069763 L-65.02571105957031,11.333333373069763 L-61.02571105957031,11.333333373069763 L-61.02571105957031,15.333333373069763 A4,4 90 0 1 -65.02571105957031,19.333333373069763 L-69.02571105957031,19.333333373069763 L-126.83332824707031,19.333333373069763 L-127.83332824707031,19.333333373069763 L-127.83332824707031,21.333333373069763 L-135.8333282470703,21.333333373069763 L-135.8333282470703,19.333333373069763 L-136.8333282470703,19.333333373069763 L-140.8333282470703,19.333333373069763 A4,4 90 0 1 -144.8333282470703,15.333333373069763 L-144.8333282470703,11.333333373069763 L-144.8333282470703,7.333333373069763 z"/><text style="font-size:10px;fill:#282828;font-family:sans-serif;text-anchor:end" id="svg_127" x="-145.333" y="-1.167"><tspan id="svg_128" x="-71.333" y="12.833">pitch number</tspan></text></g></g><g id="svg_131"><g id="svg_132" transform="translate(461,296) scale(1.5)"><path style="fill:#77c428;fill-opacity:1;stroke:#57ad02;stroke-width:1;stroke-linecap:round;stroke-opacity:1" id="svg_133" d="m-136.8333282470703,-0.6666666269302368 L-39.02571105957031,-0.6666666269302368 L-39.02571105957031,19.333333373069763 L-136.8333282470703,19.333333373069763 L-136.8333282470703,11.333333373069763 L-136.8333282470703,10.333333373069763 L-142.8333282470703,10.333333373069763 L-142.8333282470703,13.333333373069763 L-144.8333282470703,13.333333373069763 L-144.8333282470703,5.333333373069763 L-142.8333282470703,5.333333373069763 L-142.8333282470703,8.333333373069763 L-136.8333282470703,8.333333373069763 L-136.8333282470703,7.333333373069763 z"/><text style="font-size:10px;fill:#282828;font-family:sans-serif;text-anchor:start" id="svg_134" x="-145.333" y="-1.167"><tspan id="svg_135" x="-132.333" y="12.833">pitch number</tspan></text></g></g><g id="svg_136"><g id="svg_137" transform="translate(461,328) scale(1.5)"><path style="fill:#77c428;fill-opacity:1;stroke:#57ad02;stroke-width:1;stroke-linecap:round;stroke-opacity:1" id="svg_138" d="m-136.8333282470703,-0.6666666269302368 L-34.57746887207031,-0.6666666269302368 L-34.57746887207031,19.333333373069763 L-136.8333282470703,19.333333373069763 L-136.8333282470703,11.333333373069763 L-136.8333282470703,10.333333373069763 L-142.8333282470703,10.333333373069763 L-142.8333282470703,13.333333373069763 L-144.8333282470703,13.333333373069763 L-144.8333282470703,5.333333373069763 L-142.8333282470703,5.333333373069763 L-142.8333282470703,8.333333373069763 L-136.8333282470703,8.333333373069763 L-136.8333282470703,7.333333373069763 z"/><text style="font-size:10px;fill:#282828;font-family:sans-serif;text-anchor:start" id="svg_139" x="-145.333" y="-1.167"><tspan id="svg_140" x="-132.333" y="12.833">scalar step up</tspan></text></g></g><g id="svg_141"><g id="svg_142" transform="translate(375,296) scale(1.5)"><path style="fill:#ff5293;fill-opacity:1;stroke:#ff2c76;stroke-width:1;stroke-linecap:round;stroke-opacity:1" id="svg_143" d="m-136.8333282470703,7.333333373069763 L-136.8333282470703,3.333333373069763 A4,4 90 0 1 -132.8333282470703,-0.6666666269302368 L-128.8333282470703,-0.6666666269302368 L-118.83332824707031,-0.6666666269302368 L-88.83332824707031,-0.6666666269302368 L-84.83332824707031,-0.6666666269302368 A4,4 90 0 1 -80.83332824707031,3.333333373069763 L-80.83332824707031,7.333333373069763 L-84.83332824707031,7.333333373069763 L-84.83332824707031,4.333333373069763 L-88.83332824707031,4.333333373069763 L-88.83332824707031,14.333333373069763 L-84.83332824707031,14.333333373069763 L-84.83332824707031,11.333333373069763 L-80.83332824707031,11.333333373069763 L-80.83332824707031,28.333333373069763 L-84.83332824707031,28.333333373069763 L-84.83332824707031,25.333333373069763 L-88.83332824707031,25.333333373069763 L-88.83332824707031,35.33333337306976 L-84.83332824707031,35.33333337306976 L-84.83332824707031,32.33333337306976 L-80.83332824707031,32.33333337306976 L-80.83332824707031,36.33333337306976 A4,4 90 0 1 -84.83332824707031,40.33333337306976 L-88.83332824707031,40.33333337306976 L-118.83332824707031,40.33333337306976 L-128.8333282470703,40.33333337306976 L-132.8333282470703,40.33333337306976 A4,4 90 0 1 -136.8333282470703,36.33333337306976 L-136.8333282470703,32.33333337306976 L-136.8333282470703,11.333333373069763 L-136.8333282470703,10.333333373069763 L-142.8333282470703,10.333333373069763 L-142.8333282470703,13.333333373069763 L-144.8333282470703,13.333333373069763 L-144.8333282470703,5.333333373069763 L-142.8333282470703,5.333333373069763 L-142.8333282470703,8.333333373069763 L-136.8333282470703,8.333333373069763 L-136.8333282470703,7.333333373069763 z"/><text style="font-size:14px;fill:#282828;font-family:sans-serif;text-anchor:end" id="svg_144" x="-145.333" y="-1.167"><tspan id="svg_145" x="-91.333" y="22.833">+</tspan></text></g></g><g id="svg_150"><g id="svg_151" transform="translate(260,328) scale(1.5)"><path style="fill:#b0b0b0;fill-opacity:1;stroke:#a0a0a0;stroke-width:1;stroke-linecap:round;stroke-opacity:1" id="svg_152" d="m-144.8333282470703,7.333333373069763 L-144.8333282470703,3.333333373069763 A4,4 90 0 1 -140.8333282470703,-0.6666666269302368 L-136.8333282470703,-0.6666666269302368 L-136.8333282470703,1.3333333730697632 L-126.83332824707031,1.3333333730697632 L-126.83332824707031,-0.6666666269302368 L-106.83332824707031,-0.6666666269302368 L-102.83332824707031,-0.6666666269302368 A4,4 90 0 1 -98.83332824707031,3.333333373069763 L-98.83332824707031,7.333333373069763 L-98.83332824707031,11.333333373069763 L-98.83332824707031,15.333333373069763 A4,4 90 0 1 -102.83332824707031,19.333333373069763 L-106.83332824707031,19.333333373069763 L-126.83332824707031,19.333333373069763 L-127.83332824707031,19.333333373069763 L-127.83332824707031,21.333333373069763 L-135.8333282470703,21.333333373069763 L-135.8333282470703,19.333333373069763 L-136.8333282470703,19.333333373069763 L-140.8333282470703,19.333333373069763 A4,4 90 0 1 -144.8333282470703,15.333333373069763 L-144.8333282470703,11.333333373069763 z"/><text style="font-size:10px;fill:#282828;font-family:sans-serif;text-anchor:end" id="svg_153" x="-145.333" y="-1.167"><tspan id="svg_154" x="-109.333" y="12.833">↓</tspan></text></g></g><g id="svg_155"><g id="svg_156" transform="translate(232,421) scale(1.5)"><path style="fill:#d68136;fill-opacity:1;stroke:#b7651a;stroke-width:1;stroke-linecap:round;stroke-opacity:1" id="svg_157" d="m-144.8333282470703,7.333333373069763 L-144.8333282470703,3.333333373069763 A4,4 90 0 1 -140.8333282470703,-0.6666666269302368 L-136.8333282470703,-0.6666666269302368 L-136.8333282470703,1.3333333730697632 L-126.83332824707031,1.3333333730697632 L-126.83332824707031,-0.6666666269302368 L-117.83332824707031,-0.6666666269302368 L-97.83332824707031,-0.6666666269302368 L-93.83332824707031,-0.6666666269302368 A4,4 90 0 1 -89.83332824707031,3.333333373069763 L-89.83332824707031,7.333333373069763 L-93.83332824707031,7.333333373069763 L-93.83332824707031,4.333333373069763 L-97.83332824707031,4.333333373069763 L-97.83332824707031,14.333333373069763 L-93.83332824707031,14.333333373069763 L-93.83332824707031,11.333333373069763 L-89.83332824707031,11.333333373069763 L-89.83332824707031,15.333333373069763 A4,4 90 0 1 -93.83332824707031,19.333333373069763 L-97.83332824707031,19.333333373069763 L-117.83332824707031,19.333333373069763 L-118.83332824707031,19.333333373069763 L-118.83332824707031,21.333333373069763 L-126.83332824707031,21.333333373069763 L-126.83332824707031,19.333333373069763 L-127.83332824707031,19.333333373069763 L-131.8333282470703,19.333333373069763 A5,5 90 0 0 -136.8333282470703,24.333333373069763 L-136.8333282470703,28.333333373069763 L-136.8333282470703,32.33333337306976 L-136.8333282470703,116.33333337306976 L-136.8333282470703,120.33333337306976 A5,5 90 0 0 -131.8333282470703,125.33333337306976 L-127.83332824707031,125.33333337306976 L-127.83332824707031,127.33333337306976 L-117.83332824707031,127.33333337306976 L-117.83332824707031,125.33333337306976 L-109.83332824707031,125.33333337306976 L-109.83332824707031,131.33333337306976 L-109.83332824707031,137.33333337306976 L-109.83332824707031,141.33333337306976 A4,4 90 0 1 -113.83332824707031,145.33333337306976 L-117.83332824707031,145.33333337306976 L-126.83332824707031,145.33333337306976 L-127.83332824707031,145.33333337306976 L-127.83332824707031,147.33333337306976 L-135.8333282470703,147.33333337306976 L-135.8333282470703,145.33333337306976 L-136.8333282470703,145.33333337306976 L-140.8333282470703,145.33333337306976 A4,4 90 0 1 -144.8333282470703,141.33333337306976 L-144.8333282470703,137.33333337306976 z"/><text style="font-size:10px;fill:#282828;font-family:sans-serif;text-anchor:start" id="svg_158" x="-145.333" y="-1.167"><tspan id="svg_159" x="-140.333" y="13.833">repeat</tspan></text></g></g><g id="svg_162"><g id="svg_163" transform="translate(304,421) scale(1.5)"><path style="fill:#77c428;fill-opacity:1;stroke:#57ad02;stroke-width:1;stroke-linecap:round;stroke-opacity:1" id="svg_164" d="m-136.8333282470703,-0.6666666269302368 L-41.79426574707031,-0.6666666269302368 L-41.79426574707031,19.333333373069763 L-136.8333282470703,19.333333373069763 L-136.8333282470703,11.333333373069763 L-136.8333282470703,10.333333373069763 L-142.8333282470703,10.333333373069763 L-142.8333282470703,13.333333373069763 L-144.8333282470703,13.333333373069763 L-144.8333282470703,5.333333373069763 L-142.8333282470703,5.333333373069763 L-142.8333282470703,8.333333373069763 L-136.8333282470703,8.333333373069763 L-136.8333282470703,7.333333373069763 z"/><text style="font-size:10px;fill:#282828;font-family:sans-serif;text-anchor:start" id="svg_165" x="-145.333" y="-1.167"><tspan id="svg_166" x="-132.333" y="12.833">mode length</tspan></text></g></g><g id="svg_167"><g id="svg_168"><g id="svg_169" transform="translate(246,453) scale(1.5)"><path style="fill:#ff8b2d;fill-opacity:1;stroke:#e86b0e;stroke-width:1;stroke-linecap:round;stroke-opacity:1" id="svg_170" d="m-144.8333282470703,7.333333373069763 L-144.8333282470703,3.333333373069763 A4,4 90 0 1 -140.8333282470703,-0.6666666269302368 L-136.8333282470703,-0.6666666269302368 L-136.8333282470703,1.3333333730697632 L-126.83332824707031,1.3333333730697632 L-126.83332824707031,-0.6666666269302368 L-117.83332824707031,-0.6666666269302368 L-57.83332824707031,-0.6666666269302368 L-53.83332824707031,-0.6666666269302368 A4,4 90 0 1 -49.83332824707031,3.333333373069763 L-49.83332824707031,7.333333373069763 L-53.83332824707031,7.333333373069763 L-53.83332824707031,4.333333373069763 L-57.83332824707031,4.333333373069763 L-57.83332824707031,14.333333373069763 L-53.83332824707031,14.333333373069763 L-53.83332824707031,11.333333373069763 L-49.83332824707031,11.333333373069763 L-49.83332824707031,15.333333373069763 A4,4 90 0 1 -53.83332824707031,19.333333373069763 L-57.83332824707031,19.333333373069763 L-117.83332824707031,19.333333373069763 L-118.83332824707031,19.333333373069763 L-118.83332824707031,21.333333373069763 L-126.83332824707031,21.333333373069763 L-126.83332824707031,19.333333373069763 L-127.83332824707031,19.333333373069763 L-131.8333282470703,19.333333373069763 A5,5 90 0 0 -136.8333282470703,24.333333373069763 L-136.8333282470703,28.333333373069763 L-136.8333282470703,32.33333337306976 L-136.8333282470703,74.33333337306976 L-136.8333282470703,78.33333337306976 A5,5 90 0 0 -131.8333282470703,83.33333337306976 L-127.83332824707031,83.33333337306976 L-127.83332824707031,85.33333337306976 L-117.83332824707031,85.33333337306976 L-117.83332824707031,83.33333337306976 L-109.83332824707031,83.33333337306976 L-109.83332824707031,89.33333337306976 L-109.83332824707031,95.33333337306976 L-109.83332824707031,99.33333337306976 A4,4 90 0 1 -113.83332824707031,103.33333337306976 L-117.83332824707031,103.33333337306976 L-126.83332824707031,103.33333337306976 L-127.83332824707031,103.33333337306976 L-127.83332824707031,105.33333337306976 L-135.8333282470703,105.33333337306976 L-135.8333282470703,103.33333337306976 L-136.8333282470703,103.33333337306976 L-140.8333282470703,103.33333337306976 A4,4 90 0 1 -144.8333282470703,99.33333337306976 L-144.8333282470703,95.33333337306976 z"/><text style="font-size:10px;fill:#282828;font-family:sans-serif;text-anchor:start" id="svg_171" x="-145.333" y="-1.167"><tspan id="svg_172" x="-125.333" y="13.833">note</tspan></text><text style="font-size:6.666666666666667px;fill:#282828;font-family:sans-serif;text-anchor:end" id="svg_173" x="-145.333" y="-1.167"><tspan id="svg_174" x="-60.333" y="10.833">value</tspan></text></g></g></g><g id="svg_182"><g id="svg_183" transform="translate(378,453) scale(1.5)"><path style="fill:#ff5293;fill-opacity:1;stroke:#ff2c76;stroke-width:1;stroke-linecap:round;stroke-opacity:1" id="svg_184" d="m-136.8333282470703,7.333333373069763 L-136.8333282470703,3.333333373069763 A4,4 90 0 1 -132.8333282470703,-0.6666666269302368 L-128.8333282470703,-0.6666666269302368 L-118.83332824707031,-0.6666666269302368 L-88.83332824707031,-0.6666666269302368 L-84.83332824707031,-0.6666666269302368 A4,4 90 0 1 -80.83332824707031,3.333333373069763 L-80.83332824707031,7.333333373069763 L-84.83332824707031,7.333333373069763 L-84.83332824707031,4.333333373069763 L-88.83332824707031,4.333333373069763 L-88.83332824707031,14.333333373069763 L-84.83332824707031,14.333333373069763 L-84.83332824707031,11.333333373069763 L-80.83332824707031,11.333333373069763 L-80.83332824707031,28.333333373069763 L-84.83332824707031,28.333333373069763 L-84.83332824707031,25.333333373069763 L-88.83332824707031,25.333333373069763 L-88.83332824707031,35.33333337306976 L-84.83332824707031,35.33333337306976 L-84.83332824707031,32.33333337306976 L-80.83332824707031,32.33333337306976 L-80.83332824707031,36.33333337306976 A4,4 90 0 1 -84.83332824707031,40.33333337306976 L-88.83332824707031,40.33333337306976 L-118.83332824707031,40.33333337306976 L-128.8333282470703,40.33333337306976 L-132.8333282470703,40.33333337306976 A4,4 90 0 1 -136.8333282470703,36.33333337306976 L-136.8333282470703,32.33333337306976 L-136.8333282470703,11.333333373069763 L-136.8333282470703,10.333333373069763 L-142.8333282470703,10.333333373069763 L-142.8333282470703,13.333333373069763 L-144.8333282470703,13.333333373069763 L-144.8333282470703,5.333333373069763 L-142.8333282470703,5.333333373069763 L-142.8333282470703,8.333333373069763 L-136.8333282470703,8.333333373069763 L-136.8333282470703,7.333333373069763 z"/><text style="font-size:9px;fill:#282828;font-family:sans-serif;text-anchor:end" id="svg_185" x="-145.333" y="-1.167"><tspan id="svg_186" x="-91.333" y="21.833">➗</tspan></text></g></g><g id="svg_191"><g id="svg_192" transform="translate(464,453) scale(1.5)"><path style="fill:#ff5293;fill-opacity:1;stroke:#ff2c76;stroke-width:1;stroke-linecap:round;stroke-opacity:1" id="svg_193" d="m-136.8333282470703,-0.6666666269302368 L-76.83332824707031,-0.6666666269302368 L-76.83332824707031,19.333333373069763 L-136.8333282470703,19.333333373069763 L-136.8333282470703,11.333333373069763 L-136.8333282470703,10.333333373069763 L-142.8333282470703,10.333333373069763 L-142.8333282470703,13.333333373069763 L-144.8333282470703,13.333333373069763 L-144.8333282470703,5.333333373069763 L-142.8333282470703,5.333333373069763 L-142.8333282470703,8.333333373069763 L-136.8333282470703,8.333333373069763 L-136.8333282470703,7.333333373069763 z"/><text style="font-size:10px;fill:#282828;font-family:sans-serif;text-anchor:start" id="svg_194" x="-145.333" y="-1.167"><tspan id="svg_195" x="-132.333" y="12.833">1</tspan></text></g></g><g id="svg_196"><g id="svg_197" transform="translate(464,485) scale(1.5)"><path style="fill:#ff5293;fill-opacity:1;stroke:#ff2c76;stroke-width:1;stroke-linecap:round;stroke-opacity:1" id="svg_198" d="m-136.8333282470703,-0.6666666269302368 L-76.83332824707031,-0.6666666269302368 L-76.83332824707031,19.333333373069763 L-136.8333282470703,19.333333373069763 L-136.8333282470703,11.333333373069763 L-136.8333282470703,10.333333373069763 L-142.8333282470703,10.333333373069763 L-142.8333282470703,13.333333373069763 L-144.8333282470703,13.333333373069763 L-144.8333282470703,5.333333373069763 L-142.8333282470703,5.333333373069763 L-142.8333282470703,8.333333373069763 L-136.8333282470703,8.333333373069763 L-136.8333282470703,7.333333373069763 z"/><text style="font-size:10px;fill:#282828;font-family:sans-serif;text-anchor:start" id="svg_199" x="-145.333" y="-1.167"><tspan id="svg_200" x="-132.333" y="12.833">8</tspan></text></g></g><g id="svg_201"><g id="svg_202" transform="translate(260,485) scale(1.5)"><path style="fill:#b0b0b0;fill-opacity:1;stroke:#a0a0a0;stroke-width:1;stroke-linecap:round;stroke-opacity:1" id="svg_203" d="m-144.8333282470703,7.333333373069763 L-144.8333282470703,3.333333373069763 A4,4 90 0 1 -140.8333282470703,-0.6666666269302368 L-136.8333282470703,-0.6666666269302368 L-136.8333282470703,1.3333333730697632 L-126.83332824707031,1.3333333730697632 L-126.83332824707031,-0.6666666269302368 L-106.83332824707031,-0.6666666269302368 L-102.83332824707031,-0.6666666269302368 A4,4 90 0 1 -98.83332824707031,3.333333373069763 L-98.83332824707031,7.333333373069763 L-98.83332824707031,11.333333373069763 L-98.83332824707031,15.333333373069763 A4,4 90 0 1 -102.83332824707031,19.333333373069763 L-106.83332824707031,19.333333373069763 L-126.83332824707031,19.333333373069763 L-127.83332824707031,19.333333373069763 L-127.83332824707031,21.333333373069763 L-135.8333282470703,21.333333373069763 L-135.8333282470703,19.333333373069763 L-136.8333282470703,19.333333373069763 L-140.8333282470703,19.333333373069763 A4,4 90 0 1 -144.8333282470703,15.333333373069763 L-144.8333282470703,11.333333373069763 z"/><text style="font-size:10px;fill:#282828;font-family:sans-serif;text-anchor:end" id="svg_204" x="-145.333" y="-1.167"><tspan id="svg_205" x="-109.333" y="12.833">↓</tspan></text></g></g><g id="svg_206"><g id="svg_207" transform="translate(260,517) scale(1.5)"><path style="fill:#77c428;fill-opacity:1;stroke:#57ad02;stroke-width:1;stroke-linecap:round;stroke-opacity:1" id="svg_208" d="m-144.8333282470703,7.333333373069763 L-144.8333282470703,3.333333373069763 A4,4 90 0 1 -140.8333282470703,-0.6666666269302368 L-136.8333282470703,-0.6666666269302368 L-136.8333282470703,1.3333333730697632 L-126.83332824707031,1.3333333730697632 L-126.83332824707031,-0.6666666269302368 L-69.02571105957031,-0.6666666269302368 L-65.02571105957031,-0.6666666269302368 A4,4 90 0 1 -61.02571105957031,3.333333373069763 L-61.02571105957031,7.333333373069763 L-65.02571105957031,7.333333373069763 L-65.02571105957031,4.333333373069763 L-69.02571105957031,4.333333373069763 L-69.02571105957031,14.333333373069763 L-65.02571105957031,14.333333373069763 L-65.02571105957031,11.333333373069763 L-61.02571105957031,11.333333373069763 L-61.02571105957031,15.333333373069763 A4,4 90 0 1 -65.02571105957031,19.333333373069763 L-69.02571105957031,19.333333373069763 L-126.83332824707031,19.333333373069763 L-127.83332824707031,19.333333373069763 L-127.83332824707031,21.333333373069763 L-135.8333282470703,21.333333373069763 L-135.8333282470703,19.333333373069763 L-136.8333282470703,19.333333373069763 L-140.8333282470703,19.333333373069763 A4,4 90 0 1 -144.8333282470703,15.333333373069763 L-144.8333282470703,11.333333373069763 L-144.8333282470703,7.333333373069763 z"/><text style="font-size:10px;fill:#282828;font-family:sans-serif;text-anchor:end" id="svg_209" x="-145.333" y="-1.167"><tspan id="svg_210" x="-71.333" y="12.833">pitch number</tspan></text></g></g><g id="svg_213"><g id="svg_214" transform="translate(375,517) scale(1.5)"><path style="fill:#ff5293;fill-opacity:1;stroke:#ff2c76;stroke-width:1;stroke-linecap:round;stroke-opacity:1" id="svg_215" d="m-136.8333282470703,7.333333373069763 L-136.8333282470703,3.333333373069763 A4,4 90 0 1 -132.8333282470703,-0.6666666269302368 L-128.8333282470703,-0.6666666269302368 L-118.83332824707031,-0.6666666269302368 L-88.83332824707031,-0.6666666269302368 L-84.83332824707031,-0.6666666269302368 A4,4 90 0 1 -80.83332824707031,3.333333373069763 L-80.83332824707031,7.333333373069763 L-84.83332824707031,7.333333373069763 L-84.83332824707031,4.333333373069763 L-88.83332824707031,4.333333373069763 L-88.83332824707031,14.333333373069763 L-84.83332824707031,14.333333373069763 L-84.83332824707031,11.333333373069763 L-80.83332824707031,11.333333373069763 L-80.83332824707031,28.333333373069763 L-84.83332824707031,28.333333373069763 L-84.83332824707031,25.333333373069763 L-88.83332824707031,25.333333373069763 L-88.83332824707031,35.33333337306976 L-84.83332824707031,35.33333337306976 L-84.83332824707031,32.33333337306976 L-80.83332824707031,32.33333337306976 L-80.83332824707031,36.33333337306976 A4,4 90 0 1 -84.83332824707031,40.33333337306976 L-88.83332824707031,40.33333337306976 L-118.83332824707031,40.33333337306976 L-128.8333282470703,40.33333337306976 L-132.8333282470703,40.33333337306976 A4,4 90 0 1 -136.8333282470703,36.33333337306976 L-136.8333282470703,32.33333337306976 L-136.8333282470703,11.333333373069763 L-136.8333282470703,10.333333373069763 L-142.8333282470703,10.333333373069763 L-142.8333282470703,13.333333373069763 L-144.8333282470703,13.333333373069763 L-144.8333282470703,5.333333373069763 L-142.8333282470703,5.333333373069763 L-142.8333282470703,8.333333373069763 L-136.8333282470703,8.333333373069763 L-136.8333282470703,7.333333373069763 z"/><text style="font-size:14px;fill:#282828;font-family:sans-serif;text-anchor:end" id="svg_216" x="-145.333" y="-1.167"><tspan id="svg_217" x="-91.333" y="22.833">+</tspan></text></g></g><g id="svg_222"><g id="svg_223" transform="translate(461,517) scale(1.5)"><path style="fill:#77c428;fill-opacity:1;stroke:#57ad02;stroke-width:1;stroke-linecap:round;stroke-opacity:1" id="svg_224" d="m-136.8333282470703,-0.6666666269302368 L-39.02571105957031,-0.6666666269302368 L-39.02571105957031,19.333333373069763 L-136.8333282470703,19.333333373069763 L-136.8333282470703,11.333333373069763 L-136.8333282470703,10.333333373069763 L-142.8333282470703,10.333333373069763 L-142.8333282470703,13.333333373069763 L-144.8333282470703,13.333333373069763 L-144.8333282470703,5.333333373069763 L-142.8333282470703,5.333333373069763 L-142.8333282470703,8.333333373069763 L-136.8333282470703,8.333333373069763 L-136.8333282470703,7.333333373069763 z"/><text style="font-size:10px;fill:#282828;font-family:sans-serif;text-anchor:start" id="svg_225" x="-145.333" y="-1.167"><tspan id="svg_226" x="-132.333" y="12.833">pitch number</tspan></text></g></g><g id="svg_227"><g id="svg_228" transform="translate(461,549) scale(1.5)"><path style="fill:#77c428;fill-opacity:1;stroke:#57ad02;stroke-width:1;stroke-linecap:round;stroke-opacity:1" id="svg_229" d="m-136.8333282470703,-0.6666666269302368 L-34.57746887207031,-0.6666666269302368 L-34.57746887207031,19.333333373069763 L-136.8333282470703,19.333333373069763 L-136.8333282470703,11.333333373069763 L-136.8333282470703,10.333333373069763 L-142.8333282470703,10.333333373069763 L-142.8333282470703,13.333333373069763 L-144.8333282470703,13.333333373069763 L-144.8333282470703,5.333333373069763 L-142.8333282470703,5.333333373069763 L-142.8333282470703,8.333333373069763 L-136.8333282470703,8.333333373069763 L-136.8333282470703,7.333333373069763 z"/><text style="font-size:10px;fill:#282828;font-family:sans-serif;text-anchor:start" id="svg_230" x="-145.333" y="-1.167"><tspan id="svg_231" x="-132.333" y="12.833">scalar step up</tspan></text></g></g><g id="svg_232"><g id="svg_233" transform="translate(260,549) scale(1.5)"><path style="fill:#b0b0b0;fill-opacity:1;stroke:#a0a0a0;stroke-width:1;stroke-linecap:round;stroke-opacity:1" id="svg_234" d="m-144.8333282470703,7.333333373069763 L-144.8333282470703,3.333333373069763 A4,4 90 0 1 -140.8333282470703,-0.6666666269302368 L-136.8333282470703,-0.6666666269302368 L-136.8333282470703,1.3333333730697632 L-126.83332824707031,1.3333333730697632 L-126.83332824707031,-0.6666666269302368 L-106.83332824707031,-0.6666666269302368 L-102.83332824707031,-0.6666666269302368 A4,4 90 0 1 -98.83332824707031,3.333333373069763 L-98.83332824707031,7.333333373069763 L-98.83332824707031,11.333333373069763 L-98.83332824707031,15.333333373069763 A4,4 90 0 1 -102.83332824707031,19.333333373069763 L-106.83332824707031,19.333333373069763 L-126.83332824707031,19.333333373069763 L-127.83332824707031,19.333333373069763 L-127.83332824707031,21.333333373069763 L-135.8333282470703,21.333333373069763 L-135.8333282470703,19.333333373069763 L-136.8333282470703,19.333333373069763 L-140.8333282470703,19.333333373069763 A4,4 90 0 1 -144.8333282470703,15.333333373069763 L-144.8333282470703,11.333333373069763 z"/><text style="font-size:10px;fill:#282828;font-family:sans-serif;text-anchor:end" id="svg_235" x="-145.333" y="-1.167"><tspan id="svg_236" x="-109.333" y="12.833">↓</tspan></text></g></g></g></svg>