<svg xmlns="http://www.w3.org/2000/svg" width="722" height="542"><rect id="backgroundrect" width="100%" height="100%" x="0" y="0" fill="none" stroke="none"/><g class="currentLayer"><title>Layer 1</title><g id="svg_22"><g id="svg_23"><g id="svg_24" transform="translate(702, 104) scale(1.5)"><path style="fill:#ff8b2d;fill-opacity:1;stroke:#e86b0e;stroke-width:1;stroke-linecap:round;stroke-opacity:1" id="svg_25" d="m-200,-40 L-200,-44 A4,4 90 0 1 -196,-48 L-192,-48 L-192,-46 L-182,-46 L-182,-48 L-173,-48 L-113,-48 L-109,-48 A4,4 90 0 1 -105,-44 L-105,-40 L-109,-40 L-109,-43 L-113,-43 L-113,-33 L-109,-33 L-109,-36 L-105,-36 L-105,-32 A4,4 90 0 1 -109,-28 L-113,-28 L-173,-28 L-174,-28 L-174,-26 L-182,-26 L-182,-28 L-183,-28 L-187,-28 A5,5 90 0 0 -192,-23 L-192,-19 L-192,-15 L-192,27 L-192,31 A5,5 90 0 0 -187,36 L-183,36 L-183,38 L-173,38 L-173,36 L-165,36 L-165,42 L-165,48 L-165,52 A4,4 90 0 1 -169,56 L-173,56 L-182,56 L-183,56 L-183,58 L-191,58 L-191,56 L-192,56 L-196,56 A4,4 90 0 1 -200,52 L-200,48 z"/><text style="font-size:10px;fill:#282828;font-family:sans-serif;text-anchor:start" id="svg_26" x="-200.5" y="-48.5"><tspan id="svg_27" x="-180.5" y="-33.5">note</tspan></text><text style="font-size:6.666666666666667px;fill:#282828;font-family:sans-serif;text-anchor:end" id="svg_28" x="-200.5" y="-48.5"><tspan id="svg_29" x="-115.5" y="-36.5">value</tspan></text></g></g><g id="svg_30" transform="translate(702, 108) scale(0.5)"><g style="isolation:isolate" id="svg_31"><g id="レイヤー_2" data-name="レイヤー 2"><g id="Icon"><rect style="fill:#292929;opacity:.4;mix-blend-mode:multiply" id="svg_32" width="42" height="42" x="-601.5" y="-145.5" rx="5" ry="5"/><path style="fill:#fff" id="svg_33" d="M-570.9400005340576,-115.70000076293945 l-4.170000076293945,-4.159999847412109 h2.259999990463257 a1,1 0 1 0 0,-2.069999933242798 H-577.5599994659424 a1.0800000429153442,1.0800000429153442 0 0 0 -1.1100000143051147,1 v0 s0,0 0,0.05999999865889549 v4.639999866485596 h0 a1,1 0 1 0 2.0799999237060547,0 V-118.42000007629395 l4.190000057220459,4.190000057220459 a1,1 0 0 0 1.4600000381469727,0 A1,1 0 0 0 -570.9400005340576,-115.70000076293945 z"/><path style="fill:#fff" id="svg_34" d="M-582.329999923706,-120.89999961853027 a1.0800000429153442,1.0800000429153442 0 0 0 -1.1100000143051147,-1 H-588.1499996185303 a1,1 0 1 0 0,2.069999933242798 H-585.8999996185303 L-590.0600004196167,-115.70000076293945 a1,1 0 0 0 1.4700000286102295,1.4700000286102295 l4.179999828338623,-4.190000057220459 v2.259999990463257 a1,1 0 1 0 2.0799999237060547,0 V-120.79999923706055 s0,0 0,-0.05999999865889549 A0.07999999821186066,0.07999999821186066 0 0 1 -582.329999923706,-120.89999961853027 z"/><path style="fill:#fff" id="svg_35" d="M-577.5599994659424,-125 h4.699999809265137 a1,1 0 1 0 0,-2.0799999237060547 H-575.1100006103516 l4.170000076293945,-4.159999847412109 a1,1 0 0 0 0,-1.4700000286102295 a1,1 0 0 0 -1.4600000381469727,0 L-576.5900001525879,-128.5 V-130.7799997329712 a1,1 0 1 0 -2.0799999237060547,0 v4.639999866485596 a0.4300000071525574,0.4300000071525574 0 0 0 0,0.05000000074505806 v0.05000000074505806 A1.090000033378601,1.090000033378601 0 0 0 -577.5599994659424,-125 z"/><path style="fill:#fff" id="svg_36" d="M-583.3700008392334,-131.88000011444092 a1.0800000429153442,1.0800000429153442 0 0 0 -1,1.090000033378601 V-128.5 l-4.179999828338623,-4.190000057220459 a1,1 0 0 0 -1.4700000286102295,0 a1,1 0 0 0 0,1.4600000381469727 l4.159999847412109,4.170000076293945 H-588.1499996185303 a1,1 0 1 0 0,2.0799999237060547 h4.710000038146973 a1.090000033378601,1.090000033378601 0 0 0 1.1100000143051147,-1 a0.07999999821186066,0.07999999821186066 0 0 1 0,0 s0,0 0,-0.05999999865889549 V-130.78999996185303 A1.0700000524520874,1.0700000524520874 0 0 0 -583.3700008392334,-131.88000011444092 z"/></g></g></g></g></g><g id="svg_37"><g id="svg_38" transform="translate(834, 104) scale(1.5)"><path style="fill:#ff5293;fill-opacity:1;stroke:#ff2c76;stroke-width:1;stroke-linecap:round;stroke-opacity:1" id="svg_39" d="m-192,-40 L-192,-44 A4,4 90 0 1 -188,-48 L-184,-48 L-174,-48 L-144,-48 L-140,-48 A4,4 90 0 1 -136,-44 L-136,-40 L-140,-40 L-140,-43 L-144,-43 L-144,-33 L-140,-33 L-140,-36 L-136,-36 L-136,-19 L-140,-19 L-140,-22 L-144,-22 L-144,-12 L-140,-12 L-140,-15 L-136,-15 L-136,-11 A4,4 90 0 1 -140,-7 L-144,-7 L-174,-7 L-184,-7 L-188,-7 A4,4 90 0 1 -192,-11 L-192,-15 L-192,-36 L-192,-37 L-198,-37 L-198,-34 L-200,-34 L-200,-42 L-198,-42 L-198,-39 L-192,-39 L-192,-40 z"/><text style="font-size:9px;fill:#282828;font-family:sans-serif;text-anchor:end" id="svg_40" x="-200.5" y="-48.5"><tspan id="svg_41" x="-146.5" y="-25.5">➗</tspan></text></g></g><g id="svg_46"><g id="svg_47" transform="translate(920, 104) scale(1.5)"><path style="fill:#ff5293;fill-opacity:1;stroke:#ff2c76;stroke-width:1;stroke-linecap:round;stroke-opacity:1" id="svg_48" d="m-192,-48 L-132,-48 L-132,-28 L-192,-28 L-192,-36 L-192,-37 L-198,-37 L-198,-34 L-200,-34 L-200,-42 L-198,-42 L-198,-39 L-192,-39 L-192,-40 z"/><text style="font-size:10px;fill:#282828;font-family:sans-serif;text-anchor:start" id="svg_49" x="-200.5" y="-48.5"><tspan id="svg_50" x="-187.5" y="-34.5">1</tspan></text></g></g><g id="svg_51"><g id="svg_52" transform="translate(920, 136) scale(1.5)"><path style="fill:#ff5293;fill-opacity:1;stroke:#ff2c76;stroke-width:1;stroke-linecap:round;stroke-opacity:1" id="svg_53" d="m-192,-48 L-132,-48 L-132,-28 L-192,-28 L-192,-36 L-192,-37 L-198,-37 L-198,-34 L-200,-34 L-200,-42 L-198,-42 L-198,-39 L-192,-39 L-192,-40 z"/><text style="font-size:10px;fill:#282828;font-family:sans-serif;text-anchor:start" id="svg_54" x="-200.5" y="-48.5"><tspan id="svg_55" x="-187.5" y="-34.5">4</tspan></text></g></g><g id="svg_56"><g id="svg_57" transform="translate(716, 136) scale(1.5)"><path style="fill:#b0b0b0;fill-opacity:1;stroke:#a0a0a0;stroke-width:1;stroke-linecap:round;stroke-opacity:1" id="svg_58" d="m-200,-40 L-200,-44 A4,4 90 0 1 -196,-48 L-192,-48 L-192,-46 L-182,-46 L-182,-48 L-162,-48 L-158,-48 A4,4 90 0 1 -154,-44 L-154,-40 L-154,-36 L-154,-32 A4,4 90 0 1 -158,-28 L-162,-28 L-182,-28 L-183,-28 L-183,-26 L-191,-26 L-191,-28 L-192,-28 L-196,-28 A4,4 90 0 1 -200,-32 L-200,-36 z"/><text style="font-size:10px;fill:#282828;font-family:sans-serif;text-anchor:end" id="svg_59" x="-200.5" y="-48.5"><tspan id="svg_60" x="-164.5" y="-34.5">↓</tspan></text></g></g><g id="svg_61"><g id="svg_62" transform="translate(716, 168) scale(1.5)"><path style="fill:#77c428;fill-opacity:1;stroke:#57ad02;stroke-width:1;stroke-linecap:round;stroke-opacity:1" id="svg_63" d="m-200,-40 L-200,-44 A4,4 90 0 1 -196,-48 L-192,-48 L-192,-46 L-182,-46 L-182,-48 L-152,-48 L-148,-48 A4,4 90 0 1 -144,-44 L-144,-40 L-148,-40 L-148,-43 L-152,-43 L-152,-33 L-148,-33 L-148,-36 L-144,-36 L-144,-19 L-148,-19 L-148,-22 L-152,-22 L-152,-12 L-148,-12 L-148,-15 L-144,-15 L-144,-11 A4,4 90 0 1 -148,-7 L-152,-7 L-182,-7 L-183,-7 L-183,-5 L-191,-5 L-191,-7 L-192,-7 L-196,-7 A4,4 90 0 1 -200,-11 L-200,-15 L-200,-36 L-200,-40 z"/><text style="font-size:10px;fill:#282828;font-family:sans-serif;text-anchor:end" id="svg_64" x="-200.5" y="-48.5"><tspan id="svg_65" x="-154.5" y="-24.5">pitch</tspan></text><text style="font-size:6.666666666666667px;fill:#282828;font-family:sans-serif;text-anchor:end" id="svg_66" x="-200.5" y="-48.5"><tspan id="svg_67" x="-154.5" y="-36.5">name</tspan></text><text style="font-size:6.666666666666667px;fill:#282828;font-family:sans-serif;text-anchor:end" id="svg_68" x="-200.5" y="-48.5"><tspan id="svg_69" x="-154.5" y="-15.5">octave</tspan></text></g></g><g id="svg_70"><g id="svg_71" transform="translate(790, 168) scale(1.5)"><path style="fill:#77c428;fill-opacity:1;stroke:#57ad02;stroke-width:1;stroke-linecap:round;stroke-opacity:1" id="svg_72" d="m-192,-48 L-132,-48 L-132,-28 L-192,-28 L-192,-36 L-192,-37 L-198,-37 L-198,-34 L-200,-34 L-200,-42 L-198,-42 L-198,-39 L-192,-39 L-192,-40 z"/><text style="font-size:10px;fill:#282828;font-family:sans-serif;text-anchor:start" id="svg_73" x="-200.5" y="-48.5"><tspan id="svg_74" x="-187.5" y="-34.5">sol</tspan></text></g></g><g id="svg_75"><g id="svg_76" transform="translate(790, 200) scale(1.5)"><path style="fill:#ff5293;fill-opacity:1;stroke:#ff2c76;stroke-width:1;stroke-linecap:round;stroke-opacity:1" id="svg_77" d="m-192,-48 L-132,-48 L-132,-28 L-192,-28 L-192,-36 L-192,-37 L-198,-37 L-198,-34 L-200,-34 L-200,-42 L-198,-42 L-198,-39 L-192,-39 L-192,-40 z"/><text style="font-size:10px;fill:#282828;font-family:sans-serif;text-anchor:start" id="svg_78" x="-200.5" y="-48.5"><tspan id="svg_79" x="-187.5" y="-34.5">5</tspan></text></g></g><g id="svg_80"><g id="svg_81"><g id="svg_82" transform="translate(702, 262) scale(1.5)"><path style="fill:#ff8b2d;fill-opacity:1;stroke:#e86b0e;stroke-width:1;stroke-linecap:round;stroke-opacity:1" id="svg_83" d="m-200,-40 L-200,-44 A4,4 90 0 1 -196,-48 L-192,-48 L-192,-46 L-182,-46 L-182,-48 L-173,-48 L-113,-48 L-109,-48 A4,4 90 0 1 -105,-44 L-105,-40 L-109,-40 L-109,-43 L-113,-43 L-113,-33 L-109,-33 L-109,-36 L-105,-36 L-105,-32 A4,4 90 0 1 -109,-28 L-113,-28 L-173,-28 L-174,-28 L-174,-26 L-182,-26 L-182,-28 L-183,-28 L-187,-28 A5,5 90 0 0 -192,-23 L-192,-19 L-192,-15 L-192,27 L-192,31 A5,5 90 0 0 -187,36 L-183,36 L-183,38 L-173,38 L-173,36 L-165,36 L-165,42 L-165,48 L-165,52 A4,4 90 0 1 -169,56 L-173,56 L-182,56 L-183,56 L-183,58 L-191,58 L-191,56 L-192,56 L-196,56 A4,4 90 0 1 -200,52 L-200,48 z"/><text style="font-size:10px;fill:#282828;font-family:sans-serif;text-anchor:start" id="svg_84" x="-200.5" y="-48.5"><tspan id="svg_85" x="-180.5" y="-33.5">note</tspan></text><text style="font-size:6.666666666666667px;fill:#282828;font-family:sans-serif;text-anchor:end" id="svg_86" x="-200.5" y="-48.5"><tspan id="svg_87" x="-115.5" y="-36.5">value</tspan></text></g></g><g id="svg_88" transform="translate(702, 266) scale(0.5)"><g style="isolation:isolate" id="svg_89"><g id="レイヤー_2" data-name="レイヤー 2"><g id="Icon"><rect style="fill:#292929;opacity:.4;mix-blend-mode:multiply" id="svg_90" width="42" height="42" x="-601.5" y="-145.5" rx="5" ry="5"/><path style="fill:#fff" id="svg_91" d="M-570.9400005340576,-115.70000076293945 l-4.170000076293945,-4.159999847412109 h2.259999990463257 a1,1 0 1 0 0,-2.069999933242798 H-577.5599994659424 a1.0800000429153442,1.0800000429153442 0 0 0 -1.1100000143051147,1 v0 s0,0 0,0.05999999865889549 v4.639999866485596 h0 a1,1 0 1 0 2.0799999237060547,0 V-118.42000007629395 l4.190000057220459,4.190000057220459 a1,1 0 0 0 1.4600000381469727,0 A1,1 0 0 0 -570.9400005340576,-115.70000076293945 z"/><path style="fill:#fff" id="svg_92" d="M-582.329999923706,-120.89999961853027 a1.0800000429153442,1.0800000429153442 0 0 0 -1.1100000143051147,-1 H-588.1499996185303 a1,1 0 1 0 0,2.069999933242798 H-585.8999996185303 L-590.0600004196167,-115.70000076293945 a1,1 0 0 0 1.4700000286102295,1.4700000286102295 l4.179999828338623,-4.190000057220459 v2.259999990463257 a1,1 0 1 0 2.0799999237060547,0 V-120.79999923706055 s0,0 0,-0.05999999865889549 A0.07999999821186066,0.07999999821186066 0 0 1 -582.329999923706,-120.89999961853027 z"/><path style="fill:#fff" id="svg_93" d="M-577.5599994659424,-125 h4.699999809265137 a1,1 0 1 0 0,-2.0799999237060547 H-575.1100006103516 l4.170000076293945,-4.159999847412109 a1,1 0 0 0 0,-1.4700000286102295 a1,1 0 0 0 -1.4600000381469727,0 L-576.5900001525879,-128.5 V-130.7799997329712 a1,1 0 1 0 -2.0799999237060547,0 v4.639999866485596 a0.4300000071525574,0.4300000071525574 0 0 0 0,0.05000000074505806 v0.05000000074505806 A1.090000033378601,1.090000033378601 0 0 0 -577.5599994659424,-125 z"/><path style="fill:#fff" id="svg_94" d="M-583.3700008392334,-131.88000011444092 a1.0800000429153442,1.0800000429153442 0 0 0 -1,1.090000033378601 V-128.5 l-4.179999828338623,-4.190000057220459 a1,1 0 0 0 -1.4700000286102295,0 a1,1 0 0 0 0,1.4600000381469727 l4.159999847412109,4.170000076293945 H-588.1499996185303 a1,1 0 1 0 0,2.0799999237060547 h4.710000038146973 a1.090000033378601,1.090000033378601 0 0 0 1.1100000143051147,-1 a0.07999999821186066,0.07999999821186066 0 0 1 0,0 s0,0 0,-0.05999999865889549 V-130.78999996185303 A1.0700000524520874,1.0700000524520874 0 0 0 -583.3700008392334,-131.88000011444092 z"/></g></g></g></g></g><g id="svg_95"><g id="svg_96" transform="translate(834, 262) scale(1.5)"><path style="fill:#ff5293;fill-opacity:1;stroke:#ff2c76;stroke-width:1;stroke-linecap:round;stroke-opacity:1" id="svg_97" d="m-192,-40 L-192,-44 A4,4 90 0 1 -188,-48 L-184,-48 L-174,-48 L-144,-48 L-140,-48 A4,4 90 0 1 -136,-44 L-136,-40 L-140,-40 L-140,-43 L-144,-43 L-144,-33 L-140,-33 L-140,-36 L-136,-36 L-136,-19 L-140,-19 L-140,-22 L-144,-22 L-144,-12 L-140,-12 L-140,-15 L-136,-15 L-136,-11 A4,4 90 0 1 -140,-7 L-144,-7 L-174,-7 L-184,-7 L-188,-7 A4,4 90 0 1 -192,-11 L-192,-15 L-192,-36 L-192,-37 L-198,-37 L-198,-34 L-200,-34 L-200,-42 L-198,-42 L-198,-39 L-192,-39 L-192,-40 z"/><text style="font-size:9px;fill:#282828;font-family:sans-serif;text-anchor:end" id="svg_98" x="-200.5" y="-48.5"><tspan id="svg_99" x="-146.5" y="-25.5">➗</tspan></text></g></g><g id="svg_104"><g id="svg_105" transform="translate(920, 262) scale(1.5)"><path style="fill:#ff5293;fill-opacity:1;stroke:#ff2c76;stroke-width:1;stroke-linecap:round;stroke-opacity:1" id="svg_106" d="m-192,-48 L-132,-48 L-132,-28 L-192,-28 L-192,-36 L-192,-37 L-198,-37 L-198,-34 L-200,-34 L-200,-42 L-198,-42 L-198,-39 L-192,-39 L-192,-40 z"/><text style="font-size:10px;fill:#282828;font-family:sans-serif;text-anchor:start" id="svg_107" x="-200.5" y="-48.5"><tspan id="svg_108" x="-187.5" y="-34.5">1</tspan></text></g></g><g id="svg_109"><g id="svg_110" transform="translate(920, 294) scale(1.5)"><path style="fill:#ff5293;fill-opacity:1;stroke:#ff2c76;stroke-width:1;stroke-linecap:round;stroke-opacity:1" id="svg_111" d="m-192,-48 L-132,-48 L-132,-28 L-192,-28 L-192,-36 L-192,-37 L-198,-37 L-198,-34 L-200,-34 L-200,-42 L-198,-42 L-198,-39 L-192,-39 L-192,-40 z"/><text style="font-size:10px;fill:#282828;font-family:sans-serif;text-anchor:start" id="svg_112" x="-200.5" y="-48.5"><tspan id="svg_113" x="-187.5" y="-34.5">4</tspan></text></g></g><g id="svg_114"><g id="svg_115" transform="translate(716, 294) scale(1.5)"><path style="fill:#b0b0b0;fill-opacity:1;stroke:#a0a0a0;stroke-width:1;stroke-linecap:round;stroke-opacity:1" id="svg_116" d="m-200,-40 L-200,-44 A4,4 90 0 1 -196,-48 L-192,-48 L-192,-46 L-182,-46 L-182,-48 L-162,-48 L-158,-48 A4,4 90 0 1 -154,-44 L-154,-40 L-154,-36 L-154,-32 A4,4 90 0 1 -158,-28 L-162,-28 L-182,-28 L-183,-28 L-183,-26 L-191,-26 L-191,-28 L-192,-28 L-196,-28 A4,4 90 0 1 -200,-32 L-200,-36 z"/><text style="font-size:10px;fill:#282828;font-family:sans-serif;text-anchor:end" id="svg_117" x="-200.5" y="-48.5"><tspan id="svg_118" x="-164.5" y="-34.5">↓</tspan></text></g></g><g id="svg_119"><g id="svg_120" transform="translate(716, 326) scale(1.5)"><path style="fill:#77c428;fill-opacity:1;stroke:#57ad02;stroke-width:1;stroke-linecap:round;stroke-opacity:1" id="svg_121" d="m-200,-40 L-200,-44 A4,4 90 0 1 -196,-48 L-192,-48 L-192,-46 L-182,-46 L-182,-48 L-152,-48 L-148,-48 A4,4 90 0 1 -144,-44 L-144,-40 L-148,-40 L-148,-43 L-152,-43 L-152,-33 L-148,-33 L-148,-36 L-144,-36 L-144,-19 L-148,-19 L-148,-22 L-152,-22 L-152,-12 L-148,-12 L-148,-15 L-144,-15 L-144,-11 A4,4 90 0 1 -148,-7 L-152,-7 L-182,-7 L-183,-7 L-183,-5 L-191,-5 L-191,-7 L-192,-7 L-196,-7 A4,4 90 0 1 -200,-11 L-200,-15 L-200,-36 L-200,-40 z"/><text style="font-size:10px;fill:#282828;font-family:sans-serif;text-anchor:end" id="svg_122" x="-200.5" y="-48.5"><tspan id="svg_123" x="-154.5" y="-24.5">pitch</tspan></text><text style="font-size:6.666666666666667px;fill:#282828;font-family:sans-serif;text-anchor:end" id="svg_124" x="-200.5" y="-48.5"><tspan id="svg_125" x="-154.5" y="-36.5">name</tspan></text><text style="font-size:6.666666666666667px;fill:#282828;font-family:sans-serif;text-anchor:end" id="svg_126" x="-200.5" y="-48.5"><tspan id="svg_127" x="-154.5" y="-15.5">octave</tspan></text></g></g><g id="svg_128"><g id="svg_129" transform="translate(790, 326) scale(1.5)"><path style="fill:#77c428;fill-opacity:1;stroke:#57ad02;stroke-width:1;stroke-linecap:round;stroke-opacity:1" id="svg_130" d="m-192,-48 L-132,-48 L-132,-28 L-192,-28 L-192,-36 L-192,-37 L-198,-37 L-198,-34 L-200,-34 L-200,-42 L-198,-42 L-198,-39 L-192,-39 L-192,-40 z"/><text style="font-size:10px;fill:#282828;font-family:sans-serif;text-anchor:start" id="svg_131" x="-200.5" y="-48.5"><tspan id="svg_132" x="-187.5" y="-34.5">re</tspan></text></g></g><g id="svg_133"><g id="svg_134" transform="translate(790, 358) scale(1.5)"><path style="fill:#ff5293;fill-opacity:1;stroke:#ff2c76;stroke-width:1;stroke-linecap:round;stroke-opacity:1" id="svg_135" d="m-192,-48 L-132,-48 L-132,-28 L-192,-28 L-192,-36 L-192,-37 L-198,-37 L-198,-34 L-200,-34 L-200,-42 L-198,-42 L-198,-39 L-192,-39 L-192,-40 z"/><text style="font-size:10px;fill:#282828;font-family:sans-serif;text-anchor:start" id="svg_136" x="-200.5" y="-48.5"><tspan id="svg_137" x="-187.5" y="-34.5">5</tspan></text></g></g><g id="svg_138"><g id="svg_139"><g id="svg_140" transform="translate(702, 420) scale(1.5)"><path style="fill:#ff8b2d;fill-opacity:1;stroke:#e86b0e;stroke-width:1;stroke-linecap:round;stroke-opacity:1" id="svg_141" d="m-200,-40 L-200,-44 A4,4 90 0 1 -196,-48 L-192,-48 L-192,-46 L-182,-46 L-182,-48 L-173,-48 L-113,-48 L-109,-48 A4,4 90 0 1 -105,-44 L-105,-40 L-109,-40 L-109,-43 L-113,-43 L-113,-33 L-109,-33 L-109,-36 L-105,-36 L-105,-32 A4,4 90 0 1 -109,-28 L-113,-28 L-173,-28 L-174,-28 L-174,-26 L-182,-26 L-182,-28 L-183,-28 L-187,-28 A5,5 90 0 0 -192,-23 L-192,-19 L-192,-15 L-192,27 L-192,31 A5,5 90 0 0 -187,36 L-183,36 L-183,38 L-173,38 L-173,36 L-165,36 L-165,42 L-165,48 L-165,52 A4,4 90 0 1 -169,56 L-173,56 L-182,56 L-183,56 L-183,58 L-191,58 L-191,56 L-192,56 L-196,56 A4,4 90 0 1 -200,52 L-200,48 z"/><text style="font-size:10px;fill:#282828;font-family:sans-serif;text-anchor:start" id="svg_142" x="-200.5" y="-48.5"><tspan id="svg_143" x="-180.5" y="-33.5">note</tspan></text><text style="font-size:6.666666666666667px;fill:#282828;font-family:sans-serif;text-anchor:end" id="svg_144" x="-200.5" y="-48.5"><tspan id="svg_145" x="-115.5" y="-36.5">value</tspan></text></g></g><g id="svg_146" transform="translate(702, 424) scale(0.5)"><g style="isolation:isolate" id="svg_147"><g id="レイヤー_2" data-name="レイヤー 2"><g id="Icon"><rect style="fill:#292929;opacity:.4;mix-blend-mode:multiply" id="svg_148" width="42" height="42" x="-601.5" y="-145.5" rx="5" ry="5"/><path style="fill:#fff" id="svg_149" d="M-570.9400005340576,-115.70000076293945 l-4.170000076293945,-4.159999847412109 h2.259999990463257 a1,1 0 1 0 0,-2.069999933242798 H-577.5599994659424 a1.0800000429153442,1.0800000429153442 0 0 0 -1.1100000143051147,1 v0 s0,0 0,0.05999999865889549 v4.639999866485596 h0 a1,1 0 1 0 2.0799999237060547,0 V-118.42000007629395 l4.190000057220459,4.190000057220459 a1,1 0 0 0 1.4600000381469727,0 A1,1 0 0 0 -570.9400005340576,-115.70000076293945 z"/><path style="fill:#fff" id="svg_150" d="M-582.329999923706,-120.89999961853027 a1.0800000429153442,1.0800000429153442 0 0 0 -1.1100000143051147,-1 H-588.1499996185303 a1,1 0 1 0 0,2.069999933242798 H-585.8999996185303 L-590.0600004196167,-115.70000076293945 a1,1 0 0 0 1.4700000286102295,1.4700000286102295 l4.179999828338623,-4.190000057220459 v2.259999990463257 a1,1 0 1 0 2.0799999237060547,0 V-120.79999923706055 s0,0 0,-0.05999999865889549 A0.07999999821186066,0.07999999821186066 0 0 1 -582.329999923706,-120.89999961853027 z"/><path style="fill:#fff" id="svg_151" d="M-577.5599994659424,-125 h4.699999809265137 a1,1 0 1 0 0,-2.0799999237060547 H-575.1100006103516 l4.170000076293945,-4.159999847412109 a1,1 0 0 0 0,-1.4700000286102295 a1,1 0 0 0 -1.4600000381469727,0 L-576.5900001525879,-128.5 V-130.7799997329712 a1,1 0 1 0 -2.0799999237060547,0 v4.639999866485596 a0.4300000071525574,0.4300000071525574 0 0 0 0,0.05000000074505806 v0.05000000074505806 A1.090000033378601,1.090000033378601 0 0 0 -577.5599994659424,-125 z"/><path style="fill:#fff" id="svg_152" d="M-583.3700008392334,-131.88000011444092 a1.0800000429153442,1.0800000429153442 0 0 0 -1,1.090000033378601 V-128.5 l-4.179999828338623,-4.190000057220459 a1,1 0 0 0 -1.4700000286102295,0 a1,1 0 0 0 0,1.4600000381469727 l4.159999847412109,4.170000076293945 H-588.1499996185303 a1,1 0 1 0 0,2.0799999237060547 h4.710000038146973 a1.090000033378601,1.090000033378601 0 0 0 1.1100000143051147,-1 a0.07999999821186066,0.07999999821186066 0 0 1 0,0 s0,0 0,-0.05999999865889549 V-130.78999996185303 A1.0700000524520874,1.0700000524520874 0 0 0 -583.3700008392334,-131.88000011444092 z"/></g></g></g></g></g><g id="svg_153"><g id="svg_154" transform="translate(834, 420) scale(1.5)"><path style="fill:#ff5293;fill-opacity:1;stroke:#ff2c76;stroke-width:1;stroke-linecap:round;stroke-opacity:1" id="svg_155" d="m-192,-40 L-192,-44 A4,4 90 0 1 -188,-48 L-184,-48 L-174,-48 L-144,-48 L-140,-48 A4,4 90 0 1 -136,-44 L-136,-40 L-140,-40 L-140,-43 L-144,-43 L-144,-33 L-140,-33 L-140,-36 L-136,-36 L-136,-19 L-140,-19 L-140,-22 L-144,-22 L-144,-12 L-140,-12 L-140,-15 L-136,-15 L-136,-11 A4,4 90 0 1 -140,-7 L-144,-7 L-174,-7 L-184,-7 L-188,-7 A4,4 90 0 1 -192,-11 L-192,-15 L-192,-36 L-192,-37 L-198,-37 L-198,-34 L-200,-34 L-200,-42 L-198,-42 L-198,-39 L-192,-39 L-192,-40 z"/><text style="font-size:9px;fill:#282828;font-family:sans-serif;text-anchor:end" id="svg_156" x="-200.5" y="-48.5"><tspan id="svg_157" x="-146.5" y="-25.5">➗</tspan></text></g></g><g id="svg_162"><g id="svg_163" transform="translate(920, 420) scale(1.5)"><path style="fill:#ff5293;fill-opacity:1;stroke:#ff2c76;stroke-width:1;stroke-linecap:round;stroke-opacity:1" id="svg_164" d="m-192,-48 L-132,-48 L-132,-28 L-192,-28 L-192,-36 L-192,-37 L-198,-37 L-198,-34 L-200,-34 L-200,-42 L-198,-42 L-198,-39 L-192,-39 L-192,-40 z"/><text style="font-size:10px;fill:#282828;font-family:sans-serif;text-anchor:start" id="svg_165" x="-200.5" y="-48.5"><tspan id="svg_166" x="-187.5" y="-34.5">1</tspan></text></g></g><g id="svg_167"><g id="svg_168" transform="translate(920, 452) scale(1.5)"><path style="fill:#ff5293;fill-opacity:1;stroke:#ff2c76;stroke-width:1;stroke-linecap:round;stroke-opacity:1" id="svg_169" d="m-192,-48 L-132,-48 L-132,-28 L-192,-28 L-192,-36 L-192,-37 L-198,-37 L-198,-34 L-200,-34 L-200,-42 L-198,-42 L-198,-39 L-192,-39 L-192,-40 z"/><text style="font-size:10px;fill:#282828;font-family:sans-serif;text-anchor:start" id="svg_170" x="-200.5" y="-48.5"><tspan id="svg_171" x="-187.5" y="-34.5">2</tspan></text></g></g><g id="svg_172"><g id="svg_173" transform="translate(716, 452) scale(1.5)"><path style="fill:#b0b0b0;fill-opacity:1;stroke:#a0a0a0;stroke-width:1;stroke-linecap:round;stroke-opacity:1" id="svg_174" d="m-200,-40 L-200,-44 A4,4 90 0 1 -196,-48 L-192,-48 L-192,-46 L-182,-46 L-182,-48 L-162,-48 L-158,-48 A4,4 90 0 1 -154,-44 L-154,-40 L-154,-36 L-154,-32 A4,4 90 0 1 -158,-28 L-162,-28 L-182,-28 L-183,-28 L-183,-26 L-191,-26 L-191,-28 L-192,-28 L-196,-28 A4,4 90 0 1 -200,-32 L-200,-36 z"/><text style="font-size:10px;fill:#282828;font-family:sans-serif;text-anchor:end" id="svg_175" x="-200.5" y="-48.5"><tspan id="svg_176" x="-164.5" y="-34.5">↓</tspan></text></g></g><g id="svg_177"><g id="svg_178" transform="translate(716, 484) scale(1.5)"><path style="fill:#77c428;fill-opacity:1;stroke:#57ad02;stroke-width:1;stroke-linecap:round;stroke-opacity:1" id="svg_179" d="m-200,-40 L-200,-44 A4,4 90 0 1 -196,-48 L-192,-48 L-192,-46 L-182,-46 L-182,-48 L-152,-48 L-148,-48 A4,4 90 0 1 -144,-44 L-144,-40 L-148,-40 L-148,-43 L-152,-43 L-152,-33 L-148,-33 L-148,-36 L-144,-36 L-144,-19 L-148,-19 L-148,-22 L-152,-22 L-152,-12 L-148,-12 L-148,-15 L-144,-15 L-144,-11 A4,4 90 0 1 -148,-7 L-152,-7 L-182,-7 L-183,-7 L-183,-5 L-191,-5 L-191,-7 L-192,-7 L-196,-7 A4,4 90 0 1 -200,-11 L-200,-15 L-200,-36 L-200,-40 z"/><text style="font-size:10px;fill:#282828;font-family:sans-serif;text-anchor:end" id="svg_180" x="-200.5" y="-48.5"><tspan id="svg_181" x="-154.5" y="-24.5">pitch</tspan></text><text style="font-size:6.666666666666667px;fill:#282828;font-family:sans-serif;text-anchor:end" id="svg_182" x="-200.5" y="-48.5"><tspan id="svg_183" x="-154.5" y="-36.5">name</tspan></text><text style="font-size:6.666666666666667px;fill:#282828;font-family:sans-serif;text-anchor:end" id="svg_184" x="-200.5" y="-48.5"><tspan id="svg_185" x="-154.5" y="-15.5">octave</tspan></text></g></g><g id="svg_186"><g id="svg_187" transform="translate(790, 484) scale(1.5)"><path style="fill:#77c428;fill-opacity:1;stroke:#57ad02;stroke-width:1;stroke-linecap:round;stroke-opacity:1" id="svg_188" d="m-192,-48 L-132,-48 L-132,-28 L-192,-28 L-192,-36 L-192,-37 L-198,-37 L-198,-34 L-200,-34 L-200,-42 L-198,-42 L-198,-39 L-192,-39 L-192,-40 z"/><text style="font-size:10px;fill:#282828;font-family:sans-serif;text-anchor:start" id="svg_189" x="-200.5" y="-48.5"><tspan id="svg_190" x="-187.5" y="-34.5">sol</tspan></text></g></g><g id="svg_191"><g id="svg_192" transform="translate(790, 516) scale(1.5)"><path style="fill:#ff5293;fill-opacity:1;stroke:#ff2c76;stroke-width:1;stroke-linecap:round;stroke-opacity:1" id="svg_193" d="m-192,-48 L-132,-48 L-132,-28 L-192,-28 L-192,-36 L-192,-37 L-198,-37 L-198,-34 L-200,-34 L-200,-42 L-198,-42 L-198,-39 L-192,-39 L-192,-40 z"/><text style="font-size:10px;fill:#282828;font-family:sans-serif;text-anchor:start" id="svg_194" x="-200.5" y="-48.5"><tspan id="svg_195" x="-187.5" y="-34.5">5</tspan></text></g></g><g id="svg_196"><g id="svg_197" transform="translate(300, 77) scale(1.5)"><path style="fill:#d68136;fill-opacity:1;stroke:#b7651a;stroke-width:1;stroke-linecap:round;stroke-opacity:1" id="svg_198" d="m-200,-40 L-200,-44 A4,4 90 0 1 -196,-48 L-192,-48 L-192,-46 L-182,-46 L-182,-48 L-173,-48 L-153,-48 L-149,-48 A4,4 90 0 1 -145,-44 L-145,-40 L-149,-40 L-149,-43 L-153,-43 L-153,-33 L-149,-33 L-149,-36 L-145,-36 L-145,-32 A4,4 90 0 1 -149,-28 L-153,-28 L-173,-28 L-174,-28 L-174,-26 L-182,-26 L-182,-28 L-183,-28 L-187,-28 A5,5 90 0 0 -192,-23 L-192,-19 L-192,-15 L-192,279 L-192,283 A5,5 90 0 0 -187,288 L-183,288 L-183,290 L-173,290 L-173,288 L-165,288 L-165,294 L-165,300 L-165,304 A4,4 90 0 1 -169,308 L-173,308 L-182,308 L-183,308 L-183,310 L-191,310 L-191,308 L-192,308 L-196,308 A4,4 90 0 1 -200,304 L-200,300 z"/><text style="font-size:10px;fill:#282828;font-family:sans-serif;text-anchor:start" id="svg_199" x="-200.5" y="-48.5"><tspan id="svg_200" x="-195.5" y="-33.5">repeat</tspan></text></g></g><g id="svg_203"><g id="svg_204" transform="translate(372, 77) scale(1.5)"><path style="fill:#ff5293;fill-opacity:1;stroke:#ff2c76;stroke-width:1;stroke-linecap:round;stroke-opacity:1" id="svg_205" d="m-192,-48 L-132,-48 L-132,-28 L-192,-28 L-192,-36 L-192,-37 L-198,-37 L-198,-34 L-200,-34 L-200,-42 L-198,-42 L-198,-39 L-192,-39 L-192,-40 z"/><text style="font-size:10px;fill:#282828;font-family:sans-serif;text-anchor:start" id="svg_206" x="-200.5" y="-48.5"><tspan id="svg_207" x="-187.5" y="-34.5">4</tspan></text></g></g><g id="svg_208"><g id="svg_209"><g id="svg_210" transform="translate(314, 109) scale(1.5)"><path style="fill:#ff8b2d;fill-opacity:1;stroke:#e86b0e;stroke-width:1;stroke-linecap:round;stroke-opacity:1" id="svg_211" d="m-200,-40 L-200,-44 A4,4 90 0 1 -196,-48 L-192,-48 L-192,-46 L-182,-46 L-182,-48 L-173,-48 L-113,-48 L-109,-48 A4,4 90 0 1 -105,-44 L-105,-40 L-109,-40 L-109,-43 L-113,-43 L-113,-33 L-109,-33 L-109,-36 L-105,-36 L-105,-32 A4,4 90 0 1 -109,-28 L-113,-28 L-173,-28 L-174,-28 L-174,-26 L-182,-26 L-182,-28 L-183,-28 L-187,-28 A5,5 90 0 0 -192,-23 L-192,-19 L-192,-15 L-192,27 L-192,31 A5,5 90 0 0 -187,36 L-183,36 L-183,38 L-173,38 L-173,36 L-165,36 L-165,42 L-165,48 L-165,52 A4,4 90 0 1 -169,56 L-173,56 L-182,56 L-183,56 L-183,58 L-191,58 L-191,56 L-192,56 L-196,56 A4,4 90 0 1 -200,52 L-200,48 z"/><text style="font-size:10px;fill:#282828;font-family:sans-serif;text-anchor:start" id="svg_212" x="-200.5" y="-48.5"><tspan id="svg_213" x="-180.5" y="-33.5">note</tspan></text><text style="font-size:6.666666666666667px;fill:#282828;font-family:sans-serif;text-anchor:end" id="svg_214" x="-200.5" y="-48.5"><tspan id="svg_215" x="-115.5" y="-36.5">value</tspan></text></g></g><g id="svg_216" transform="translate(314, 113) scale(0.5)"><g style="isolation:isolate" id="svg_217"><g id="レイヤー_2" data-name="レイヤー 2"><g id="Icon"><rect style="fill:#292929;opacity:.4;mix-blend-mode:multiply" id="svg_218" width="42" height="42" x="-601.5" y="-145.5" rx="5" ry="5"/><path style="fill:#fff" id="svg_219" d="M-570.9400005340576,-115.70000076293945 l-4.170000076293945,-4.159999847412109 h2.259999990463257 a1,1 0 1 0 0,-2.069999933242798 H-577.5599994659424 a1.0800000429153442,1.0800000429153442 0 0 0 -1.1100000143051147,1 v0 s0,0 0,0.05999999865889549 v4.639999866485596 h0 a1,1 0 1 0 2.0799999237060547,0 V-118.42000007629395 l4.190000057220459,4.190000057220459 a1,1 0 0 0 1.4600000381469727,0 A1,1 0 0 0 -570.9400005340576,-115.70000076293945 z"/><path style="fill:#fff" id="svg_220" d="M-582.329999923706,-120.89999961853027 a1.0800000429153442,1.0800000429153442 0 0 0 -1.1100000143051147,-1 H-588.1499996185303 a1,1 0 1 0 0,2.069999933242798 H-585.8999996185303 L-590.0600004196167,-115.70000076293945 a1,1 0 0 0 1.4700000286102295,1.4700000286102295 l4.179999828338623,-4.190000057220459 v2.259999990463257 a1,1 0 1 0 2.0799999237060547,0 V-120.79999923706055 s0,0 0,-0.05999999865889549 A0.07999999821186066,0.07999999821186066 0 0 1 -582.329999923706,-120.89999961853027 z"/><path style="fill:#fff" id="svg_221" d="M-577.5599994659424,-125 h4.699999809265137 a1,1 0 1 0 0,-2.0799999237060547 H-575.1100006103516 l4.170000076293945,-4.159999847412109 a1,1 0 0 0 0,-1.4700000286102295 a1,1 0 0 0 -1.4600000381469727,0 L-576.5900001525879,-128.5 V-130.7799997329712 a1,1 0 1 0 -2.0799999237060547,0 v4.639999866485596 a0.4300000071525574,0.4300000071525574 0 0 0 0,0.05000000074505806 v0.05000000074505806 A1.090000033378601,1.090000033378601 0 0 0 -577.5599994659424,-125 z"/><path style="fill:#fff" id="svg_222" d="M-583.3700008392334,-131.88000011444092 a1.0800000429153442,1.0800000429153442 0 0 0 -1,1.090000033378601 V-128.5 l-4.179999828338623,-4.190000057220459 a1,1 0 0 0 -1.4700000286102295,0 a1,1 0 0 0 0,1.4600000381469727 l4.159999847412109,4.170000076293945 H-588.1499996185303 a1,1 0 1 0 0,2.0799999237060547 h4.710000038146973 a1.090000033378601,1.090000033378601 0 0 0 1.1100000143051147,-1 a0.07999999821186066,0.07999999821186066 0 0 1 0,0 s0,0 0,-0.05999999865889549 V-130.78999996185303 A1.0700000524520874,1.0700000524520874 0 0 0 -583.3700008392334,-131.88000011444092 z"/></g></g></g></g></g><g id="svg_223"><g id="svg_224" transform="translate(446, 109) scale(1.5)"><path style="fill:#ff5293;fill-opacity:1;stroke:#ff2c76;stroke-width:1;stroke-linecap:round;stroke-opacity:1" id="svg_225" d="m-192,-40 L-192,-44 A4,4 90 0 1 -188,-48 L-184,-48 L-174,-48 L-144,-48 L-140,-48 A4,4 90 0 1 -136,-44 L-136,-40 L-140,-40 L-140,-43 L-144,-43 L-144,-33 L-140,-33 L-140,-36 L-136,-36 L-136,-19 L-140,-19 L-140,-22 L-144,-22 L-144,-12 L-140,-12 L-140,-15 L-136,-15 L-136,-11 A4,4 90 0 1 -140,-7 L-144,-7 L-174,-7 L-184,-7 L-188,-7 A4,4 90 0 1 -192,-11 L-192,-15 L-192,-36 L-192,-37 L-198,-37 L-198,-34 L-200,-34 L-200,-42 L-198,-42 L-198,-39 L-192,-39 L-192,-40 z"/><text style="font-size:9px;fill:#282828;font-family:sans-serif;text-anchor:end" id="svg_226" x="-200.5" y="-48.5"><tspan id="svg_227" x="-146.5" y="-25.5">➗</tspan></text></g></g><g id="svg_232"><g id="svg_233" transform="translate(532, 109) scale(1.5)"><path style="fill:#ff5293;fill-opacity:1;stroke:#ff2c76;stroke-width:1;stroke-linecap:round;stroke-opacity:1" id="svg_234" d="m-192,-48 L-132,-48 L-132,-28 L-192,-28 L-192,-36 L-192,-37 L-198,-37 L-198,-34 L-200,-34 L-200,-42 L-198,-42 L-198,-39 L-192,-39 L-192,-40 z"/><text style="font-size:10px;fill:#282828;font-family:sans-serif;text-anchor:start" id="svg_235" x="-200.5" y="-48.5"><tspan id="svg_236" x="-187.5" y="-34.5">1</tspan></text></g></g><g id="svg_237"><g id="svg_238" transform="translate(532, 141) scale(1.5)"><path style="fill:#ff5293;fill-opacity:1;stroke:#ff2c76;stroke-width:1;stroke-linecap:round;stroke-opacity:1" id="svg_239" d="m-192,-48 L-132,-48 L-132,-28 L-192,-28 L-192,-36 L-192,-37 L-198,-37 L-198,-34 L-200,-34 L-200,-42 L-198,-42 L-198,-39 L-192,-39 L-192,-40 z"/><text style="font-size:10px;fill:#282828;font-family:sans-serif;text-anchor:start" id="svg_240" x="-200.5" y="-48.5"><tspan id="svg_241" x="-187.5" y="-34.5">4</tspan></text></g></g><g id="svg_242"><g id="svg_243" transform="translate(328, 141) scale(1.5)"><path style="fill:#b0b0b0;fill-opacity:1;stroke:#a0a0a0;stroke-width:1;stroke-linecap:round;stroke-opacity:1" id="svg_244" d="m-200,-40 L-200,-44 A4,4 90 0 1 -196,-48 L-192,-48 L-192,-46 L-182,-46 L-182,-48 L-162,-48 L-158,-48 A4,4 90 0 1 -154,-44 L-154,-40 L-154,-36 L-154,-32 A4,4 90 0 1 -158,-28 L-162,-28 L-182,-28 L-183,-28 L-183,-26 L-191,-26 L-191,-28 L-192,-28 L-196,-28 A4,4 90 0 1 -200,-32 L-200,-36 z"/><text style="font-size:10px;fill:#282828;font-family:sans-serif;text-anchor:end" id="svg_245" x="-200.5" y="-48.5"><tspan id="svg_246" x="-164.5" y="-34.5">↓</tspan></text></g></g><g id="svg_247"><g id="svg_248" transform="translate(328, 173) scale(1.5)"><path style="fill:#77c428;fill-opacity:1;stroke:#57ad02;stroke-width:1;stroke-linecap:round;stroke-opacity:1" id="svg_249" d="m-200,-40 L-200,-44 A4,4 90 0 1 -196,-48 L-192,-48 L-192,-46 L-182,-46 L-182,-48 L-152,-48 L-148,-48 A4,4 90 0 1 -144,-44 L-144,-40 L-148,-40 L-148,-43 L-152,-43 L-152,-33 L-148,-33 L-148,-36 L-144,-36 L-144,-19 L-148,-19 L-148,-22 L-152,-22 L-152,-12 L-148,-12 L-148,-15 L-144,-15 L-144,-11 A4,4 90 0 1 -148,-7 L-152,-7 L-182,-7 L-183,-7 L-183,-5 L-191,-5 L-191,-7 L-192,-7 L-196,-7 A4,4 90 0 1 -200,-11 L-200,-15 L-200,-36 L-200,-40 z"/><text style="font-size:10px;fill:#282828;font-family:sans-serif;text-anchor:end" id="svg_250" x="-200.5" y="-48.5"><tspan id="svg_251" x="-154.5" y="-24.5">pitch</tspan></text><text style="font-size:6.666666666666667px;fill:#282828;font-family:sans-serif;text-anchor:end" id="svg_252" x="-200.5" y="-48.5"><tspan id="svg_253" x="-154.5" y="-36.5">name</tspan></text><text style="font-size:6.666666666666667px;fill:#282828;font-family:sans-serif;text-anchor:end" id="svg_254" x="-200.5" y="-48.5"><tspan id="svg_255" x="-154.5" y="-15.5">octave</tspan></text></g></g><g id="svg_256"><g id="svg_257" transform="translate(402, 173) scale(1.5)"><path style="fill:#77c428;fill-opacity:1;stroke:#57ad02;stroke-width:1;stroke-linecap:round;stroke-opacity:1" id="svg_258" d="m-192,-48 L-132,-48 L-132,-28 L-192,-28 L-192,-36 L-192,-37 L-198,-37 L-198,-34 L-200,-34 L-200,-42 L-198,-42 L-198,-39 L-192,-39 L-192,-40 z"/><text style="font-size:10px;fill:#282828;font-family:sans-serif;text-anchor:start" id="svg_259" x="-200.5" y="-48.5"><tspan id="svg_260" x="-187.5" y="-34.5">sol</tspan></text></g></g><g id="svg_261"><g id="svg_262" transform="translate(402, 205) scale(1.5)"><path style="fill:#ff5293;fill-opacity:1;stroke:#ff2c76;stroke-width:1;stroke-linecap:round;stroke-opacity:1" id="svg_263" d="m-192,-48 L-132,-48 L-132,-28 L-192,-28 L-192,-36 L-192,-37 L-198,-37 L-198,-34 L-200,-34 L-200,-42 L-198,-42 L-198,-39 L-192,-39 L-192,-40 z"/><text style="font-size:10px;fill:#282828;font-family:sans-serif;text-anchor:start" id="svg_264" x="-200.5" y="-48.5"><tspan id="svg_265" x="-187.5" y="-34.5">5</tspan></text></g></g><g id="svg_266"><g id="svg_267"><g id="svg_268" transform="translate(314, 267) scale(1.5)"><path style="fill:#ff8b2d;fill-opacity:1;stroke:#e86b0e;stroke-width:1;stroke-linecap:round;stroke-opacity:1" id="svg_269" d="m-200,-40 L-200,-44 A4,4 90 0 1 -196,-48 L-192,-48 L-192,-46 L-182,-46 L-182,-48 L-173,-48 L-113,-48 L-109,-48 A4,4 90 0 1 -105,-44 L-105,-40 L-109,-40 L-109,-43 L-113,-43 L-113,-33 L-109,-33 L-109,-36 L-105,-36 L-105,-32 A4,4 90 0 1 -109,-28 L-113,-28 L-173,-28 L-174,-28 L-174,-26 L-182,-26 L-182,-28 L-183,-28 L-187,-28 A5,5 90 0 0 -192,-23 L-192,-19 L-192,-15 L-192,27 L-192,31 A5,5 90 0 0 -187,36 L-183,36 L-183,38 L-173,38 L-173,36 L-165,36 L-165,42 L-165,48 L-165,52 A4,4 90 0 1 -169,56 L-173,56 L-182,56 L-183,56 L-183,58 L-191,58 L-191,56 L-192,56 L-196,56 A4,4 90 0 1 -200,52 L-200,48 z"/><text style="font-size:10px;fill:#282828;font-family:sans-serif;text-anchor:start" id="svg_270" x="-200.5" y="-48.5"><tspan id="svg_271" x="-180.5" y="-33.5">note</tspan></text><text style="font-size:6.666666666666667px;fill:#282828;font-family:sans-serif;text-anchor:end" id="svg_272" x="-200.5" y="-48.5"><tspan id="svg_273" x="-115.5" y="-36.5">value</tspan></text></g></g><g id="svg_274" transform="translate(314, 271) scale(0.5)"><g style="isolation:isolate" id="svg_275"><g id="レイヤー_2" data-name="レイヤー 2"><g id="Icon"><rect style="fill:#292929;opacity:.4;mix-blend-mode:multiply" id="svg_276" width="42" height="42" x="-601.5" y="-145.5" rx="5" ry="5"/><path style="fill:#fff" id="svg_277" d="M-570.9400005340576,-115.70000076293945 l-4.170000076293945,-4.159999847412109 h2.259999990463257 a1,1 0 1 0 0,-2.069999933242798 H-577.5599994659424 a1.0800000429153442,1.0800000429153442 0 0 0 -1.1100000143051147,1 v0 s0,0 0,0.05999999865889549 v4.639999866485596 h0 a1,1 0 1 0 2.0799999237060547,0 V-118.42000007629395 l4.190000057220459,4.190000057220459 a1,1 0 0 0 1.4600000381469727,0 A1,1 0 0 0 -570.9400005340576,-115.70000076293945 z"/><path style="fill:#fff" id="svg_278" d="M-582.329999923706,-120.89999961853027 a1.0800000429153442,1.0800000429153442 0 0 0 -1.1100000143051147,-1 H-588.1499996185303 a1,1 0 1 0 0,2.069999933242798 H-585.8999996185303 L-590.0600004196167,-115.70000076293945 a1,1 0 0 0 1.4700000286102295,1.4700000286102295 l4.179999828338623,-4.190000057220459 v2.259999990463257 a1,1 0 1 0 2.0799999237060547,0 V-120.79999923706055 s0,0 0,-0.05999999865889549 A0.07999999821186066,0.07999999821186066 0 0 1 -582.329999923706,-120.89999961853027 z"/><path style="fill:#fff" id="svg_279" d="M-577.5599994659424,-125 h4.699999809265137 a1,1 0 1 0 0,-2.0799999237060547 H-575.1100006103516 l4.170000076293945,-4.159999847412109 a1,1 0 0 0 0,-1.4700000286102295 a1,1 0 0 0 -1.4600000381469727,0 L-576.5900001525879,-128.5 V-130.7799997329712 a1,1 0 1 0 -2.0799999237060547,0 v4.639999866485596 a0.4300000071525574,0.4300000071525574 0 0 0 0,0.05000000074505806 v0.05000000074505806 A1.090000033378601,1.090000033378601 0 0 0 -577.5599994659424,-125 z"/><path style="fill:#fff" id="svg_280" d="M-583.3700008392334,-131.88000011444092 a1.0800000429153442,1.0800000429153442 0 0 0 -1,1.090000033378601 V-128.5 l-4.179999828338623,-4.190000057220459 a1,1 0 0 0 -1.4700000286102295,0 a1,1 0 0 0 0,1.4600000381469727 l4.159999847412109,4.170000076293945 H-588.1499996185303 a1,1 0 1 0 0,2.0799999237060547 h4.710000038146973 a1.090000033378601,1.090000033378601 0 0 0 1.1100000143051147,-1 a0.07999999821186066,0.07999999821186066 0 0 1 0,0 s0,0 0,-0.05999999865889549 V-130.78999996185303 A1.0700000524520874,1.0700000524520874 0 0 0 -583.3700008392334,-131.88000011444092 z"/></g></g></g></g></g><g id="svg_281"><g id="svg_282" transform="translate(446, 267) scale(1.5)"><path style="fill:#ff5293;fill-opacity:1;stroke:#ff2c76;stroke-width:1;stroke-linecap:round;stroke-opacity:1" id="svg_283" d="m-192,-40 L-192,-44 A4,4 90 0 1 -188,-48 L-184,-48 L-174,-48 L-144,-48 L-140,-48 A4,4 90 0 1 -136,-44 L-136,-40 L-140,-40 L-140,-43 L-144,-43 L-144,-33 L-140,-33 L-140,-36 L-136,-36 L-136,-19 L-140,-19 L-140,-22 L-144,-22 L-144,-12 L-140,-12 L-140,-15 L-136,-15 L-136,-11 A4,4 90 0 1 -140,-7 L-144,-7 L-174,-7 L-184,-7 L-188,-7 A4,4 90 0 1 -192,-11 L-192,-15 L-192,-36 L-192,-37 L-198,-37 L-198,-34 L-200,-34 L-200,-42 L-198,-42 L-198,-39 L-192,-39 L-192,-40 z"/><text style="font-size:9px;fill:#282828;font-family:sans-serif;text-anchor:end" id="svg_284" x="-200.5" y="-48.5"><tspan id="svg_285" x="-146.5" y="-25.5">➗</tspan></text></g></g><g id="svg_290"><g id="svg_291" transform="translate(532, 267) scale(1.5)"><path style="fill:#ff5293;fill-opacity:1;stroke:#ff2c76;stroke-width:1;stroke-linecap:round;stroke-opacity:1" id="svg_292" d="m-192,-48 L-132,-48 L-132,-28 L-192,-28 L-192,-36 L-192,-37 L-198,-37 L-198,-34 L-200,-34 L-200,-42 L-198,-42 L-198,-39 L-192,-39 L-192,-40 z"/><text style="font-size:10px;fill:#282828;font-family:sans-serif;text-anchor:start" id="svg_293" x="-200.5" y="-48.5"><tspan id="svg_294" x="-187.5" y="-34.5">1</tspan></text></g></g><g id="svg_295"><g id="svg_296" transform="translate(532, 299) scale(1.5)"><path style="fill:#ff5293;fill-opacity:1;stroke:#ff2c76;stroke-width:1;stroke-linecap:round;stroke-opacity:1" id="svg_297" d="m-192,-48 L-132,-48 L-132,-28 L-192,-28 L-192,-36 L-192,-37 L-198,-37 L-198,-34 L-200,-34 L-200,-42 L-198,-42 L-198,-39 L-192,-39 L-192,-40 z"/><text style="font-size:10px;fill:#282828;font-family:sans-serif;text-anchor:start" id="svg_298" x="-200.5" y="-48.5"><tspan id="svg_299" x="-187.5" y="-34.5">4</tspan></text></g></g><g id="svg_300"><g id="svg_301" transform="translate(328, 299) scale(1.5)"><path style="fill:#b0b0b0;fill-opacity:1;stroke:#a0a0a0;stroke-width:1;stroke-linecap:round;stroke-opacity:1" id="svg_302" d="m-200,-40 L-200,-44 A4,4 90 0 1 -196,-48 L-192,-48 L-192,-46 L-182,-46 L-182,-48 L-162,-48 L-158,-48 A4,4 90 0 1 -154,-44 L-154,-40 L-154,-36 L-154,-32 A4,4 90 0 1 -158,-28 L-162,-28 L-182,-28 L-183,-28 L-183,-26 L-191,-26 L-191,-28 L-192,-28 L-196,-28 A4,4 90 0 1 -200,-32 L-200,-36 z"/><text style="font-size:10px;fill:#282828;font-family:sans-serif;text-anchor:end" id="svg_303" x="-200.5" y="-48.5"><tspan id="svg_304" x="-164.5" y="-34.5">↓</tspan></text></g></g><g id="svg_305"><g id="svg_306" transform="translate(328, 331) scale(1.5)"><path style="fill:#77c428;fill-opacity:1;stroke:#57ad02;stroke-width:1;stroke-linecap:round;stroke-opacity:1" id="svg_307" d="m-200,-40 L-200,-44 A4,4 90 0 1 -196,-48 L-192,-48 L-192,-46 L-182,-46 L-182,-48 L-152,-48 L-148,-48 A4,4 90 0 1 -144,-44 L-144,-40 L-148,-40 L-148,-43 L-152,-43 L-152,-33 L-148,-33 L-148,-36 L-144,-36 L-144,-19 L-148,-19 L-148,-22 L-152,-22 L-152,-12 L-148,-12 L-148,-15 L-144,-15 L-144,-11 A4,4 90 0 1 -148,-7 L-152,-7 L-182,-7 L-183,-7 L-183,-5 L-191,-5 L-191,-7 L-192,-7 L-196,-7 A4,4 90 0 1 -200,-11 L-200,-15 L-200,-36 L-200,-40 z"/><text style="font-size:10px;fill:#282828;font-family:sans-serif;text-anchor:end" id="svg_308" x="-200.5" y="-48.5"><tspan id="svg_309" x="-154.5" y="-24.5">pitch</tspan></text><text style="font-size:6.666666666666667px;fill:#282828;font-family:sans-serif;text-anchor:end" id="svg_310" x="-200.5" y="-48.5"><tspan id="svg_311" x="-154.5" y="-36.5">name</tspan></text><text style="font-size:6.666666666666667px;fill:#282828;font-family:sans-serif;text-anchor:end" id="svg_312" x="-200.5" y="-48.5"><tspan id="svg_313" x="-154.5" y="-15.5">octave</tspan></text></g></g><g id="svg_314"><g id="svg_315" transform="translate(402, 331) scale(1.5)"><path style="fill:#77c428;fill-opacity:1;stroke:#57ad02;stroke-width:1;stroke-linecap:round;stroke-opacity:1" id="svg_316" d="m-192,-48 L-132,-48 L-132,-28 L-192,-28 L-192,-36 L-192,-37 L-198,-37 L-198,-34 L-200,-34 L-200,-42 L-198,-42 L-198,-39 L-192,-39 L-192,-40 z"/><text style="font-size:10px;fill:#282828;font-family:sans-serif;text-anchor:start" id="svg_317" x="-200.5" y="-48.5"><tspan id="svg_318" x="-187.5" y="-34.5">re</tspan></text></g></g><g id="svg_319"><g id="svg_320" transform="translate(402, 363) scale(1.5)"><path style="fill:#ff5293;fill-opacity:1;stroke:#ff2c76;stroke-width:1;stroke-linecap:round;stroke-opacity:1" id="svg_321" d="m-192,-48 L-132,-48 L-132,-28 L-192,-28 L-192,-36 L-192,-37 L-198,-37 L-198,-34 L-200,-34 L-200,-42 L-198,-42 L-198,-39 L-192,-39 L-192,-40 z"/><text style="font-size:10px;fill:#282828;font-family:sans-serif;text-anchor:start" id="svg_322" x="-200.5" y="-48.5"><tspan id="svg_323" x="-187.5" y="-34.5">5</tspan></text></g></g><g id="svg_324"><g id="svg_325"><g id="svg_326" transform="translate(314, 425) scale(1.5)"><path style="fill:#ff8b2d;fill-opacity:1;stroke:#e86b0e;stroke-width:1;stroke-linecap:round;stroke-opacity:1" id="svg_327" d="m-200,-40 L-200,-44 A4,4 90 0 1 -196,-48 L-192,-48 L-192,-46 L-182,-46 L-182,-48 L-173,-48 L-113,-48 L-109,-48 A4,4 90 0 1 -105,-44 L-105,-40 L-109,-40 L-109,-43 L-113,-43 L-113,-33 L-109,-33 L-109,-36 L-105,-36 L-105,-32 A4,4 90 0 1 -109,-28 L-113,-28 L-173,-28 L-174,-28 L-174,-26 L-182,-26 L-182,-28 L-183,-28 L-187,-28 A5,5 90 0 0 -192,-23 L-192,-19 L-192,-15 L-192,27 L-192,31 A5,5 90 0 0 -187,36 L-183,36 L-183,38 L-173,38 L-173,36 L-165,36 L-165,42 L-165,48 L-165,52 A4,4 90 0 1 -169,56 L-173,56 L-182,56 L-183,56 L-183,58 L-191,58 L-191,56 L-192,56 L-196,56 A4,4 90 0 1 -200,52 L-200,48 z"/><text style="font-size:10px;fill:#282828;font-family:sans-serif;text-anchor:start" id="svg_328" x="-200.5" y="-48.5"><tspan id="svg_329" x="-180.5" y="-33.5">note</tspan></text><text style="font-size:6.666666666666667px;fill:#282828;font-family:sans-serif;text-anchor:end" id="svg_330" x="-200.5" y="-48.5"><tspan id="svg_331" x="-115.5" y="-36.5">value</tspan></text></g></g><g id="svg_332" transform="translate(314, 429) scale(0.5)"><g style="isolation:isolate" id="svg_333"><g id="レイヤー_2" data-name="レイヤー 2"><g id="Icon"><rect style="fill:#292929;opacity:.4;mix-blend-mode:multiply" id="svg_334" width="42" height="42" x="-601.5" y="-145.5" rx="5" ry="5"/><path style="fill:#fff" id="svg_335" d="M-570.9400005340576,-115.70000076293945 l-4.170000076293945,-4.159999847412109 h2.259999990463257 a1,1 0 1 0 0,-2.069999933242798 H-577.5599994659424 a1.0800000429153442,1.0800000429153442 0 0 0 -1.1100000143051147,1 v0 s0,0 0,0.05999999865889549 v4.639999866485596 h0 a1,1 0 1 0 2.0799999237060547,0 V-118.42000007629395 l4.190000057220459,4.190000057220459 a1,1 0 0 0 1.4600000381469727,0 A1,1 0 0 0 -570.9400005340576,-115.70000076293945 z"/><path style="fill:#fff" id="svg_336" d="M-582.329999923706,-120.89999961853027 a1.0800000429153442,1.0800000429153442 0 0 0 -1.1100000143051147,-1 H-588.1499996185303 a1,1 0 1 0 0,2.069999933242798 H-585.8999996185303 L-590.0600004196167,-115.70000076293945 a1,1 0 0 0 1.4700000286102295,1.4700000286102295 l4.179999828338623,-4.190000057220459 v2.259999990463257 a1,1 0 1 0 2.0799999237060547,0 V-120.79999923706055 s0,0 0,-0.05999999865889549 A0.07999999821186066,0.07999999821186066 0 0 1 -582.329999923706,-120.89999961853027 z"/><path style="fill:#fff" id="svg_337" d="M-577.5599994659424,-125 h4.699999809265137 a1,1 0 1 0 0,-2.0799999237060547 H-575.1100006103516 l4.170000076293945,-4.159999847412109 a1,1 0 0 0 0,-1.4700000286102295 a1,1 0 0 0 -1.4600000381469727,0 L-576.5900001525879,-128.5 V-130.7799997329712 a1,1 0 1 0 -2.0799999237060547,0 v4.639999866485596 a0.4300000071525574,0.4300000071525574 0 0 0 0,0.05000000074505806 v0.05000000074505806 A1.090000033378601,1.090000033378601 0 0 0 -577.5599994659424,-125 z"/><path style="fill:#fff" id="svg_338" d="M-583.3700008392334,-131.88000011444092 a1.0800000429153442,1.0800000429153442 0 0 0 -1,1.090000033378601 V-128.5 l-4.179999828338623,-4.190000057220459 a1,1 0 0 0 -1.4700000286102295,0 a1,1 0 0 0 0,1.4600000381469727 l4.159999847412109,4.170000076293945 H-588.1499996185303 a1,1 0 1 0 0,2.0799999237060547 h4.710000038146973 a1.090000033378601,1.090000033378601 0 0 0 1.1100000143051147,-1 a0.07999999821186066,0.07999999821186066 0 0 1 0,0 s0,0 0,-0.05999999865889549 V-130.78999996185303 A1.0700000524520874,1.0700000524520874 0 0 0 -583.3700008392334,-131.88000011444092 z"/></g></g></g></g></g><g id="svg_339"><g id="svg_340" transform="translate(446, 425) scale(1.5)"><path style="fill:#ff5293;fill-opacity:1;stroke:#ff2c76;stroke-width:1;stroke-linecap:round;stroke-opacity:1" id="svg_341" d="m-192,-40 L-192,-44 A4,4 90 0 1 -188,-48 L-184,-48 L-174,-48 L-144,-48 L-140,-48 A4,4 90 0 1 -136,-44 L-136,-40 L-140,-40 L-140,-43 L-144,-43 L-144,-33 L-140,-33 L-140,-36 L-136,-36 L-136,-19 L-140,-19 L-140,-22 L-144,-22 L-144,-12 L-140,-12 L-140,-15 L-136,-15 L-136,-11 A4,4 90 0 1 -140,-7 L-144,-7 L-174,-7 L-184,-7 L-188,-7 A4,4 90 0 1 -192,-11 L-192,-15 L-192,-36 L-192,-37 L-198,-37 L-198,-34 L-200,-34 L-200,-42 L-198,-42 L-198,-39 L-192,-39 L-192,-40 z"/><text style="font-size:9px;fill:#282828;font-family:sans-serif;text-anchor:end" id="svg_342" x="-200.5" y="-48.5"><tspan id="svg_343" x="-146.5" y="-25.5">➗</tspan></text></g></g><g id="svg_348"><g id="svg_349" transform="translate(532, 425) scale(1.5)"><path style="fill:#ff5293;fill-opacity:1;stroke:#ff2c76;stroke-width:1;stroke-linecap:round;stroke-opacity:1" id="svg_350" d="m-192,-48 L-132,-48 L-132,-28 L-192,-28 L-192,-36 L-192,-37 L-198,-37 L-198,-34 L-200,-34 L-200,-42 L-198,-42 L-198,-39 L-192,-39 L-192,-40 z"/><text style="font-size:10px;fill:#282828;font-family:sans-serif;text-anchor:start" id="svg_351" x="-200.5" y="-48.5"><tspan id="svg_352" x="-187.5" y="-34.5">1</tspan></text></g></g><g id="svg_353"><g id="svg_354" transform="translate(532, 457) scale(1.5)"><path style="fill:#ff5293;fill-opacity:1;stroke:#ff2c76;stroke-width:1;stroke-linecap:round;stroke-opacity:1" id="svg_355" d="m-192,-48 L-132,-48 L-132,-28 L-192,-28 L-192,-36 L-192,-37 L-198,-37 L-198,-34 L-200,-34 L-200,-42 L-198,-42 L-198,-39 L-192,-39 L-192,-40 z"/><text style="font-size:10px;fill:#282828;font-family:sans-serif;text-anchor:start" id="svg_356" x="-200.5" y="-48.5"><tspan id="svg_357" x="-187.5" y="-34.5">2</tspan></text></g></g><g id="svg_358"><g id="svg_359" transform="translate(328, 457) scale(1.5)"><path style="fill:#b0b0b0;fill-opacity:1;stroke:#a0a0a0;stroke-width:1;stroke-linecap:round;stroke-opacity:1" id="svg_360" d="m-200,-40 L-200,-44 A4,4 90 0 1 -196,-48 L-192,-48 L-192,-46 L-182,-46 L-182,-48 L-162,-48 L-158,-48 A4,4 90 0 1 -154,-44 L-154,-40 L-154,-36 L-154,-32 A4,4 90 0 1 -158,-28 L-162,-28 L-182,-28 L-183,-28 L-183,-26 L-191,-26 L-191,-28 L-192,-28 L-196,-28 A4,4 90 0 1 -200,-32 L-200,-36 z"/><text style="font-size:10px;fill:#282828;font-family:sans-serif;text-anchor:end" id="svg_361" x="-200.5" y="-48.5"><tspan id="svg_362" x="-164.5" y="-34.5">↓</tspan></text></g></g><g id="svg_363"><g id="svg_364" transform="translate(328, 489) scale(1.5)"><path style="fill:#77c428;fill-opacity:1;stroke:#57ad02;stroke-width:1;stroke-linecap:round;stroke-opacity:1" id="svg_365" d="m-200,-40 L-200,-44 A4,4 90 0 1 -196,-48 L-192,-48 L-192,-46 L-182,-46 L-182,-48 L-152,-48 L-148,-48 A4,4 90 0 1 -144,-44 L-144,-40 L-148,-40 L-148,-43 L-152,-43 L-152,-33 L-148,-33 L-148,-36 L-144,-36 L-144,-19 L-148,-19 L-148,-22 L-152,-22 L-152,-12 L-148,-12 L-148,-15 L-144,-15 L-144,-11 A4,4 90 0 1 -148,-7 L-152,-7 L-182,-7 L-183,-7 L-183,-5 L-191,-5 L-191,-7 L-192,-7 L-196,-7 A4,4 90 0 1 -200,-11 L-200,-15 L-200,-36 L-200,-40 z"/><text style="font-size:10px;fill:#282828;font-family:sans-serif;text-anchor:end" id="svg_366" x="-200.5" y="-48.5"><tspan id="svg_367" x="-154.5" y="-24.5">pitch</tspan></text><text style="font-size:6.666666666666667px;fill:#282828;font-family:sans-serif;text-anchor:end" id="svg_368" x="-200.5" y="-48.5"><tspan id="svg_369" x="-154.5" y="-36.5">name</tspan></text><text style="font-size:6.666666666666667px;fill:#282828;font-family:sans-serif;text-anchor:end" id="svg_370" x="-200.5" y="-48.5"><tspan id="svg_371" x="-154.5" y="-15.5">octave</tspan></text></g></g><g id="svg_372"><g id="svg_373" transform="translate(402, 489) scale(1.5)"><path style="fill:#77c428;fill-opacity:1;stroke:#57ad02;stroke-width:1;stroke-linecap:round;stroke-opacity:1" id="svg_374" d="m-192,-48 L-132,-48 L-132,-28 L-192,-28 L-192,-36 L-192,-37 L-198,-37 L-198,-34 L-200,-34 L-200,-42 L-198,-42 L-198,-39 L-192,-39 L-192,-40 z"/><text style="font-size:10px;fill:#282828;font-family:sans-serif;text-anchor:start" id="svg_375" x="-200.5" y="-48.5"><tspan id="svg_376" x="-187.5" y="-34.5">sol</tspan></text></g></g><g id="svg_377"><g id="svg_378" transform="translate(402, 521) scale(1.5)"><path style="fill:#ff5293;fill-opacity:1;stroke:#ff2c76;stroke-width:1;stroke-linecap:round;stroke-opacity:1" id="svg_379" d="m-192,-48 L-132,-48 L-132,-28 L-192,-28 L-192,-36 L-192,-37 L-198,-37 L-198,-34 L-200,-34 L-200,-42 L-198,-42 L-198,-39 L-192,-39 L-192,-40 z"/><text style="font-size:10px;fill:#282828;font-family:sans-serif;text-anchor:start" id="svg_380" x="-200.5" y="-48.5"><tspan id="svg_381" x="-187.5" y="-34.5">5</tspan></text></g></g><g id="svg_382"><g id="svg_383" transform="translate(688, 72) scale(1.5)"><path style="fill:#d68136;fill-opacity:1;stroke:#b7651a;stroke-width:1;stroke-linecap:round;stroke-opacity:1" id="svg_384" d="m-200,-40 L-200,-44 A4,4 90 0 1 -196,-48 L-192,-48 L-192,-46 L-182,-46 L-182,-48 L-173,-48 L-139,-48 L-135,-48 A4,4 90 0 1 -131,-44 L-131,-40 L-135,-40 L-135,-43 L-139,-43 L-139,-33 L-135,-33 L-135,-36 L-131,-36 L-131,-32 A4,4 90 0 1 -135,-28 L-139,-28 L-173,-28 L-174,-28 L-174,-26 L-182,-26 L-182,-28 L-183,-28 L-187,-28 A5,5 90 0 0 -192,-23 L-192,-19 L-192,-15 L-192,279 L-192,283 A5,5 90 0 0 -187,288 L-183,288 L-183,290 L-173,290 L-173,288 L-165,288 L-165,294 L-165,300 L-165,304 A4,4 90 0 1 -169,308 L-173,308 L-182,308 L-183,308 L-183,310 L-191,310 L-191,308 L-192,308 L-196,308 A4,4 90 0 1 -200,304 L-200,300 z"/><text style="font-size:10px;fill:#282828;font-family:sans-serif;text-anchor:start" id="svg_385" x="-200.5" y="-48.5"><tspan id="svg_386" x="-195.5" y="-33.5">duplicate</tspan></text></g></g><g id="svg_389"><g id="svg_390" transform="translate(781, 72) scale(1.5)"><path style="fill:#ff5293;fill-opacity:1;stroke:#ff2c76;stroke-width:1;stroke-linecap:round;stroke-opacity:1" id="svg_391" d="m-192,-48 L-132,-48 L-132,-28 L-192,-28 L-192,-36 L-192,-37 L-198,-37 L-198,-34 L-200,-34 L-200,-42 L-198,-42 L-198,-39 L-192,-39 L-192,-40 z"/><text style="font-size:10px;fill:#282828;font-family:sans-serif;text-anchor:start" id="svg_392" x="-200.5" y="-48.5"><tspan id="svg_393" x="-187.5" y="-34.5">4</tspan></text></g></g></g></svg>