<svg xmlns="http://www.w3.org/2000/svg" xmlns:svg="http://www.w3.org/2000/svg" id="svg5931" width="349" height="615" version="1.1"><metadata id="metadata5937"/><rect id="backgroundrect" width="100%" height="100%" x="0" y="0" fill="none" stroke="none"/><g id="g5929" class="currentLayer"><title id="title5697">Layer 1</title><g id="svg_1"><g id="svg_2"><g id="svg_3" transform="translate(299,80) scale(1.5)"><path id="svg_4" d="m-198.8333384990692,-39.33333507180214 L-198.8333384990692,-43.33333507180214 A4,4 90 0 1 -194.8333384990692,-47.33333507180214 L-190.8333384990692,-47.33333507180214 L-185.8333384990692,-53.33333507180214 L-180.8333384990692,-47.33333507180214 L-171.8333384990692,-47.33333507180214 L-111.83333849906921,-47.33333507180214 L-107.83333849906921,-47.33333507180214 A4,4 90 0 1 -103.83333849906921,-43.33333507180214 L-103.83333849906921,-39.33333507180214 L-103.83333849906921,-35.33333507180214 L-103.83333849906921,-31.33333507180214 A4,4 90 0 1 -107.83333849906921,-27.33333507180214 L-111.83333849906921,-27.33333507180214 L-171.8333384990692,-27.33333507180214 L-172.8333384990692,-27.33333507180214 L-172.8333384990692,-25.33333507180214 L-180.8333384990692,-25.33333507180214 L-180.8333384990692,-27.33333507180214 L-181.8333384990692,-27.33333507180214 L-185.8333384990692,-27.33333507180214 A5,5 90 0 0 -190.8333384990692,-22.33333507180214 L-190.8333384990692,-18.33333507180214 L-190.8333384990692,-14.33333507180214 L-190.8333384990692,321.66666492819786 L-190.8333384990692,325.66666492819786 A5,5 90 0 0 -185.8333384990692,330.66666492819786 L-181.8333384990692,330.66666492819786 L-181.8333384990692,332.66666492819786 L-171.8333384990692,332.66666492819786 L-171.8333384990692,330.66666492819786 L-163.8333384990692,330.66666492819786 L-163.8333384990692,336.66666492819786 L-163.8333384990692,342.66666492819786 L-163.8333384990692,346.66666492819786 A4,4 90 0 1 -167.8333384990692,350.66666492819786 L-171.8333384990692,350.66666492819786 L-180.8333384990692,350.66666492819786 L-185.8333384990692,356.66666492819786 L-190.8333384990692,350.66666492819786 L-194.8333384990692,350.66666492819786 A4,4 90 0 1 -198.8333384990692,346.66666492819786 L-198.8333384990692,342.66666492819786 z" style="fill:#daa926;fill-opacity:1;stroke:#daaf30;stroke-width:1;stroke-linecap:round;stroke-opacity:1"/><text id="svg_5" x="-199.333" y="-53.833" style="font-size:10px;fill:#282828;font-family:sans-serif;text-anchor:start"><tspan id="svg_6" x="-177.333" y="-31.833">start</tspan></text></g></g></g><g id="svg_15"><g id="svg_16"><g id="svg_17" transform="translate(313,121) scale(1.5)"><path id="svg_18" d="m-198.8333384990692,-45.33333507180214 L-198.8333384990692,-49.33333507180214 A4,4 90 0 1 -194.8333384990692,-53.33333507180214 L-190.8333384990692,-53.33333507180214 L-190.8333384990692,-51.33333507180214 L-180.8333384990692,-51.33333507180214 L-180.8333384990692,-53.33333507180214 L-171.8333384990692,-53.33333507180214 L-111.83333849906921,-53.33333507180214 L-107.83333849906921,-53.33333507180214 A4,4 90 0 1 -103.83333849906921,-49.33333507180214 L-103.83333849906921,-45.33333507180214 L-107.83333849906921,-45.33333507180214 L-107.83333849906921,-48.33333507180214 L-111.83333849906921,-48.33333507180214 L-111.83333849906921,-38.33333507180214 L-107.83333849906921,-38.33333507180214 L-107.83333849906921,-41.33333507180214 L-103.83333849906921,-41.33333507180214 L-103.83333849906921,-37.33333507180214 A4,4 90 0 1 -107.83333849906921,-33.33333507180214 L-111.83333849906921,-33.33333507180214 L-171.8333384990692,-33.33333507180214 L-172.8333384990692,-33.33333507180214 L-172.8333384990692,-31.33333507180214 L-180.8333384990692,-31.33333507180214 L-180.8333384990692,-33.33333507180214 L-181.8333384990692,-33.33333507180214 L-185.8333384990692,-33.33333507180214 A5,5 90 0 0 -190.8333384990692,-28.33333507180214 L-190.8333384990692,-24.33333507180214 L-190.8333384990692,-20.33333507180214 L-190.8333384990692,21.66666492819786 L-190.8333384990692,25.66666492819786 A5,5 90 0 0 -185.8333384990692,30.66666492819786 L-181.8333384990692,30.66666492819786 L-181.8333384990692,32.66666492819786 L-171.8333384990692,32.66666492819786 L-171.8333384990692,30.66666492819786 L-163.8333384990692,30.66666492819786 L-163.8333384990692,36.66666492819786 L-163.8333384990692,42.66666492819786 L-163.8333384990692,46.66666492819786 A4,4 90 0 1 -167.8333384990692,50.66666492819786 L-171.8333384990692,50.66666492819786 L-180.8333384990692,50.66666492819786 L-181.8333384990692,50.66666492819786 L-181.8333384990692,52.66666492819786 L-189.8333384990692,52.66666492819786 L-189.8333384990692,50.66666492819786 L-190.8333384990692,50.66666492819786 L-194.8333384990692,50.66666492819786 A4,4 90 0 1 -198.8333384990692,46.66666492819786 L-198.8333384990692,42.66666492819786 z" style="fill:#ff8b2d;fill-opacity:1;stroke:#e86b0e;stroke-width:1;stroke-linecap:round;stroke-opacity:1"/><text id="svg_19" x="-199.333" y="-53.833" style="font-size:10px;fill:#282828;font-family:sans-serif;text-anchor:start"><tspan id="svg_20" x="-179.333" y="-38.833">note</tspan></text><text id="svg_21" x="-199.333" y="-53.833" style="font-size:6.666666666666667px;fill:#282828;font-family:sans-serif;text-anchor:end"><tspan id="svg_22" x="-114.333" y="-41.833">value</tspan></text></g></g></g><g id="svg_30"><g id="svg_31" transform="translate(445,121) scale(1.5)"><path id="svg_32" d="m-190.8333384990692,-45.33333507180214 L-190.8333384990692,-49.33333507180214 A4,4 90 0 1 -186.8333384990692,-53.33333507180214 L-182.8333384990692,-53.33333507180214 L-172.8333384990692,-53.33333507180214 L-142.8333384990692,-53.33333507180214 L-138.8333384990692,-53.33333507180214 A4,4 90 0 1 -134.8333384990692,-49.33333507180214 L-134.8333384990692,-45.33333507180214 L-138.8333384990692,-45.33333507180214 L-138.8333384990692,-48.33333507180214 L-142.8333384990692,-48.33333507180214 L-142.8333384990692,-38.33333507180214 L-138.8333384990692,-38.33333507180214 L-138.8333384990692,-41.33333507180214 L-134.8333384990692,-41.33333507180214 L-134.8333384990692,-24.33333507180214 L-138.8333384990692,-24.33333507180214 L-138.8333384990692,-27.33333507180214 L-142.8333384990692,-27.33333507180214 L-142.8333384990692,-17.33333507180214 L-138.8333384990692,-17.33333507180214 L-138.8333384990692,-20.33333507180214 L-134.8333384990692,-20.33333507180214 L-134.8333384990692,-16.33333507180214 A4,4 90 0 1 -138.8333384990692,-12.33333507180214 L-142.8333384990692,-12.33333507180214 L-172.8333384990692,-12.33333507180214 L-182.8333384990692,-12.33333507180214 L-186.8333384990692,-12.33333507180214 A4,4 90 0 1 -190.8333384990692,-16.33333507180214 L-190.8333384990692,-20.33333507180214 L-190.8333384990692,-41.33333507180214 L-190.8333384990692,-42.33333507180214 L-196.8333384990692,-42.33333507180214 L-196.8333384990692,-39.33333507180214 L-198.8333384990692,-39.33333507180214 L-198.8333384990692,-47.33333507180214 L-196.8333384990692,-47.33333507180214 L-196.8333384990692,-44.33333507180214 L-190.8333384990692,-44.33333507180214 L-190.8333384990692,-45.33333507180214 z" style="fill:#ff5293;fill-opacity:1;stroke:#ff2c76;stroke-width:1;stroke-linecap:round;stroke-opacity:1"/><text id="svg_33" x="-199.333" y="-53.833" style="font-size:9px;fill:#282828;font-family:sans-serif;text-anchor:end"><tspan id="svg_34" x="-145.333" y="-30.833">➗</tspan></text></g></g><g id="svg_39"><g id="svg_40" transform="translate(531,121) scale(1.5)"><path id="svg_41" d="m-190.8333384990692,-53.33333507180214 L-130.8333384990692,-53.33333507180214 L-130.8333384990692,-33.33333507180214 L-190.8333384990692,-33.33333507180214 L-190.8333384990692,-41.33333507180214 L-190.8333384990692,-42.33333507180214 L-196.8333384990692,-42.33333507180214 L-196.8333384990692,-39.33333507180214 L-198.8333384990692,-39.33333507180214 L-198.8333384990692,-47.33333507180214 L-196.8333384990692,-47.33333507180214 L-196.8333384990692,-44.33333507180214 L-190.8333384990692,-44.33333507180214 L-190.8333384990692,-45.33333507180214 z" style="fill:#ff5293;fill-opacity:1;stroke:#ff2c76;stroke-width:1;stroke-linecap:round;stroke-opacity:1"/><text id="svg_42" x="-199.333" y="-53.833" style="font-size:10px;fill:#282828;font-family:sans-serif;text-anchor:start"><tspan id="svg_43" x="-186.333" y="-39.833">1</tspan></text></g></g><g id="svg_44"><g id="svg_45" transform="translate(531,153) scale(1.5)"><path id="svg_46" d="m-190.8333384990692,-53.33333507180214 L-130.8333384990692,-53.33333507180214 L-130.8333384990692,-33.33333507180214 L-190.8333384990692,-33.33333507180214 L-190.8333384990692,-41.33333507180214 L-190.8333384990692,-42.33333507180214 L-196.8333384990692,-42.33333507180214 L-196.8333384990692,-39.33333507180214 L-198.8333384990692,-39.33333507180214 L-198.8333384990692,-47.33333507180214 L-196.8333384990692,-47.33333507180214 L-196.8333384990692,-44.33333507180214 L-190.8333384990692,-44.33333507180214 L-190.8333384990692,-45.33333507180214 z" style="fill:#ff5293;fill-opacity:1;stroke:#ff2c76;stroke-width:1;stroke-linecap:round;stroke-opacity:1"/><text id="svg_47" x="-199.333" y="-53.833" style="font-size:10px;fill:#282828;font-family:sans-serif;text-anchor:start"><tspan id="svg_48" x="-186.333" y="-39.833">8</tspan></text></g></g><g id="svg_49"><g id="svg_50" transform="translate(327,153) scale(1.5)"><path id="svg_51" d="m-198.8333384990692,-45.33333507180214 L-198.8333384990692,-49.33333507180214 A4,4 90 0 1 -194.8333384990692,-53.33333507180214 L-190.8333384990692,-53.33333507180214 L-190.8333384990692,-51.33333507180214 L-180.8333384990692,-51.33333507180214 L-180.8333384990692,-53.33333507180214 L-160.8333384990692,-53.33333507180214 L-156.8333384990692,-53.33333507180214 A4,4 90 0 1 -152.8333384990692,-49.33333507180214 L-152.8333384990692,-45.33333507180214 L-152.8333384990692,-41.33333507180214 L-152.8333384990692,-37.33333507180214 A4,4 90 0 1 -156.8333384990692,-33.33333507180214 L-160.8333384990692,-33.33333507180214 L-180.8333384990692,-33.33333507180214 L-181.8333384990692,-33.33333507180214 L-181.8333384990692,-31.33333507180214 L-189.8333384990692,-31.33333507180214 L-189.8333384990692,-33.33333507180214 L-190.8333384990692,-33.33333507180214 L-194.8333384990692,-33.33333507180214 A4,4 90 0 1 -198.8333384990692,-37.33333507180214 L-198.8333384990692,-41.33333507180214 z" style="fill:#b0b0b0;fill-opacity:1;stroke:#a0a0a0;stroke-width:1;stroke-linecap:round;stroke-opacity:1"/><text id="svg_52" x="-199.333" y="-53.833" style="font-size:10px;fill:#282828;font-family:sans-serif;text-anchor:end"><tspan id="svg_53" x="-163.333" y="-39.833">↓</tspan></text></g></g><g id="svg_54"><g id="svg_55" transform="translate(327,185) scale(1.5)"><path id="svg_56" d="m-198.8333384990692,-45.33333507180214 L-198.8333384990692,-49.33333507180214 A4,4 90 0 1 -194.8333384990692,-53.33333507180214 L-190.8333384990692,-53.33333507180214 L-190.8333384990692,-51.33333507180214 L-180.8333384990692,-51.33333507180214 L-180.8333384990692,-53.33333507180214 L-150.8333384990692,-53.33333507180214 L-146.8333384990692,-53.33333507180214 A4,4 90 0 1 -142.8333384990692,-49.33333507180214 L-142.8333384990692,-45.33333507180214 L-146.8333384990692,-45.33333507180214 L-146.8333384990692,-48.33333507180214 L-150.8333384990692,-48.33333507180214 L-150.8333384990692,-38.33333507180214 L-146.8333384990692,-38.33333507180214 L-146.8333384990692,-41.33333507180214 L-142.8333384990692,-41.33333507180214 L-142.8333384990692,-24.33333507180214 L-146.8333384990692,-24.33333507180214 L-146.8333384990692,-27.33333507180214 L-150.8333384990692,-27.33333507180214 L-150.8333384990692,-17.33333507180214 L-146.8333384990692,-17.33333507180214 L-146.8333384990692,-20.33333507180214 L-142.8333384990692,-20.33333507180214 L-142.8333384990692,-16.33333507180214 A4,4 90 0 1 -146.8333384990692,-12.33333507180214 L-150.8333384990692,-12.33333507180214 L-180.8333384990692,-12.33333507180214 L-181.8333384990692,-12.33333507180214 L-181.8333384990692,-10.33333507180214 L-189.8333384990692,-10.33333507180214 L-189.8333384990692,-12.33333507180214 L-190.8333384990692,-12.33333507180214 L-194.8333384990692,-12.33333507180214 A4,4 90 0 1 -198.8333384990692,-16.33333507180214 L-198.8333384990692,-20.33333507180214 L-198.8333384990692,-41.33333507180214 L-198.8333384990692,-45.33333507180214 z" style="fill:#77c428;fill-opacity:1;stroke:#57ad02;stroke-width:1;stroke-linecap:round;stroke-opacity:1"/><text id="svg_57" x="-199.333" y="-53.833" style="font-size:10px;fill:#282828;font-family:sans-serif;text-anchor:end"><tspan id="svg_58" x="-153.333" y="-29.833">pitch</tspan></text><text id="svg_59" x="-199.333" y="-53.833" style="font-size:6.666666666666667px;fill:#282828;font-family:sans-serif;text-anchor:end"><tspan id="svg_60" x="-153.333" y="-41.833">name</tspan></text><text id="svg_61" x="-199.333" y="-53.833" style="font-size:6.666666666666667px;fill:#282828;font-family:sans-serif;text-anchor:end"><tspan id="svg_62" x="-153.333" y="-20.833">octave</tspan></text></g></g><g id="svg_63"><g id="svg_64" transform="translate(401,185) scale(1.5)"><path id="svg_65" d="m-190.8333384990692,-53.33333507180214 L-130.8333384990692,-53.33333507180214 L-130.8333384990692,-33.33333507180214 L-190.8333384990692,-33.33333507180214 L-190.8333384990692,-41.33333507180214 L-190.8333384990692,-42.33333507180214 L-196.8333384990692,-42.33333507180214 L-196.8333384990692,-39.33333507180214 L-198.8333384990692,-39.33333507180214 L-198.8333384990692,-47.33333507180214 L-196.8333384990692,-47.33333507180214 L-196.8333384990692,-44.33333507180214 L-190.8333384990692,-44.33333507180214 L-190.8333384990692,-45.33333507180214 z" style="fill:#77c428;fill-opacity:1;stroke:#57ad02;stroke-width:1;stroke-linecap:round;stroke-opacity:1"/><text id="svg_66" x="-199.333" y="-53.833" style="font-size:10px;fill:#282828;font-family:sans-serif;text-anchor:start"><tspan id="svg_67" x="-186.333" y="-39.833">la</tspan></text></g></g><g id="svg_68"><g id="svg_69" transform="translate(401,217) scale(1.5)"><path id="svg_70" d="m-190.8333384990692,-53.33333507180214 L-130.8333384990692,-53.33333507180214 L-130.8333384990692,-33.33333507180214 L-190.8333384990692,-33.33333507180214 L-190.8333384990692,-41.33333507180214 L-190.8333384990692,-42.33333507180214 L-196.8333384990692,-42.33333507180214 L-196.8333384990692,-39.33333507180214 L-198.8333384990692,-39.33333507180214 L-198.8333384990692,-47.33333507180214 L-196.8333384990692,-47.33333507180214 L-196.8333384990692,-44.33333507180214 L-190.8333384990692,-44.33333507180214 L-190.8333384990692,-45.33333507180214 z" style="fill:#ff5293;fill-opacity:1;stroke:#ff2c76;stroke-width:1;stroke-linecap:round;stroke-opacity:1"/><text id="svg_71" x="-199.333" y="-53.833" style="font-size:10px;fill:#282828;font-family:sans-serif;text-anchor:start"><tspan id="svg_72" x="-186.333" y="-39.833">4</tspan></text></g></g><g id="svg_73"><g id="svg_74" transform="translate(313,279) scale(1.5)"><path id="svg_75" d="m-198.8333384990692,-45.33333507180214 L-198.8333384990692,-49.33333507180214 A4,4 90 0 1 -194.8333384990692,-53.33333507180214 L-190.8333384990692,-53.33333507180214 L-190.8333384990692,-51.33333507180214 L-180.8333384990692,-51.33333507180214 L-180.8333384990692,-53.33333507180214 L-171.8333384990692,-53.33333507180214 L-151.8333384990692,-53.33333507180214 L-147.8333384990692,-53.33333507180214 A4,4 90 0 1 -143.8333384990692,-49.33333507180214 L-143.8333384990692,-45.33333507180214 L-147.8333384990692,-45.33333507180214 L-147.8333384990692,-48.33333507180214 L-151.8333384990692,-48.33333507180214 L-151.8333384990692,-38.33333507180214 L-147.8333384990692,-38.33333507180214 L-147.8333384990692,-41.33333507180214 L-143.8333384990692,-41.33333507180214 L-143.8333384990692,-37.33333507180214 A4,4 90 0 1 -147.8333384990692,-33.33333507180214 L-151.8333384990692,-33.33333507180214 L-171.8333384990692,-33.33333507180214 L-172.8333384990692,-33.33333507180214 L-172.8333384990692,-31.33333507180214 L-180.8333384990692,-31.33333507180214 L-180.8333384990692,-33.33333507180214 L-181.8333384990692,-33.33333507180214 L-185.8333384990692,-33.33333507180214 A5,5 90 0 0 -190.8333384990692,-28.33333507180214 L-190.8333384990692,-24.33333507180214 L-190.8333384990692,-20.33333507180214 L-190.8333384990692,42.66666492819786 L-190.8333384990692,46.66666492819786 A5,5 90 0 0 -185.8333384990692,51.66666492819786 L-181.8333384990692,51.66666492819786 L-181.8333384990692,53.66666492819786 L-171.8333384990692,53.66666492819786 L-171.8333384990692,51.66666492819786 L-163.8333384990692,51.66666492819786 L-163.8333384990692,57.66666492819786 L-163.8333384990692,63.66666492819786 L-163.8333384990692,67.66666492819786 A4,4 90 0 1 -167.8333384990692,71.66666492819786 L-171.8333384990692,71.66666492819786 L-180.8333384990692,71.66666492819786 L-181.8333384990692,71.66666492819786 L-181.8333384990692,73.66666492819786 L-189.8333384990692,73.66666492819786 L-189.8333384990692,71.66666492819786 L-190.8333384990692,71.66666492819786 L-194.8333384990692,71.66666492819786 A4,4 90 0 1 -198.8333384990692,67.66666492819786 L-198.8333384990692,63.66666492819786 z" style="fill:#d68136;fill-opacity:1;stroke:#b7651a;stroke-width:1;stroke-linecap:round;stroke-opacity:1"/><text id="svg_76" x="-199.333" y="-53.833" style="font-size:10px;fill:#282828;font-family:sans-serif;text-anchor:start"><tspan id="svg_77" x="-194.333" y="-38.833">repeat</tspan></text></g></g><g id="svg_80"><g id="svg_81" transform="translate(385,279) scale(1.5)"><path id="svg_82" d="m-190.8333384990692,-53.33333507180214 L-130.8333384990692,-53.33333507180214 L-130.8333384990692,-33.33333507180214 L-190.8333384990692,-33.33333507180214 L-190.8333384990692,-41.33333507180214 L-190.8333384990692,-42.33333507180214 L-196.8333384990692,-42.33333507180214 L-196.8333384990692,-39.33333507180214 L-198.8333384990692,-39.33333507180214 L-198.8333384990692,-47.33333507180214 L-196.8333384990692,-47.33333507180214 L-196.8333384990692,-44.33333507180214 L-190.8333384990692,-44.33333507180214 L-190.8333384990692,-45.33333507180214 z" style="fill:#ff5293;fill-opacity:1;stroke:#ff2c76;stroke-width:1;stroke-linecap:round;stroke-opacity:1"/><text id="svg_83" x="-199.333" y="-53.833" style="font-size:10px;fill:#282828;font-family:sans-serif;text-anchor:start"><tspan id="svg_84" x="-186.333" y="-39.833">7</tspan></text></g></g><g id="svg_85"><g id="svg_86"><g id="svg_87" transform="translate(327,311) scale(1.5)"><path id="svg_88" d="m-198.8333384990692,-45.33333507180214 L-198.8333384990692,-49.33333507180214 A4,4 90 0 1 -194.8333384990692,-53.33333507180214 L-190.8333384990692,-53.33333507180214 L-190.8333384990692,-51.33333507180214 L-180.8333384990692,-51.33333507180214 L-180.8333384990692,-53.33333507180214 L-171.8333384990692,-53.33333507180214 L-111.83333849906921,-53.33333507180214 L-107.83333849906921,-53.33333507180214 A4,4 90 0 1 -103.83333849906921,-49.33333507180214 L-103.83333849906921,-45.33333507180214 L-107.83333849906921,-45.33333507180214 L-107.83333849906921,-48.33333507180214 L-111.83333849906921,-48.33333507180214 L-111.83333849906921,-38.33333507180214 L-107.83333849906921,-38.33333507180214 L-107.83333849906921,-41.33333507180214 L-103.83333849906921,-41.33333507180214 L-103.83333849906921,-37.33333507180214 A4,4 90 0 1 -107.83333849906921,-33.33333507180214 L-111.83333849906921,-33.33333507180214 L-171.8333384990692,-33.33333507180214 L-172.8333384990692,-33.33333507180214 L-172.8333384990692,-31.33333507180214 L-180.8333384990692,-31.33333507180214 L-180.8333384990692,-33.33333507180214 L-181.8333384990692,-33.33333507180214 L-185.8333384990692,-33.33333507180214 A5,5 90 0 0 -190.8333384990692,-28.33333507180214 L-190.8333384990692,-24.33333507180214 L-190.8333384990692,-20.33333507180214 L-190.8333384990692,0.6666649281978607 L-190.8333384990692,4.666664928197861 A5,5 90 0 0 -185.8333384990692,9.66666492819786 L-181.8333384990692,9.66666492819786 L-181.8333384990692,11.66666492819786 L-171.8333384990692,11.66666492819786 L-171.8333384990692,9.66666492819786 L-163.8333384990692,9.66666492819786 L-163.8333384990692,15.66666492819786 L-163.8333384990692,21.66666492819786 L-163.8333384990692,25.66666492819786 A4,4 90 0 1 -167.8333384990692,29.66666492819786 L-171.8333384990692,29.66666492819786 L-180.8333384990692,29.66666492819786 L-181.8333384990692,29.66666492819786 L-181.8333384990692,31.66666492819786 L-189.8333384990692,31.66666492819786 L-189.8333384990692,29.66666492819786 L-190.8333384990692,29.66666492819786 L-194.8333384990692,29.66666492819786 A4,4 90 0 1 -198.8333384990692,25.66666492819786 L-198.8333384990692,21.66666492819786 z" style="fill:#ff8b2d;fill-opacity:1;stroke:#e86b0e;stroke-width:1;stroke-linecap:round;stroke-opacity:1"/><text id="svg_89" x="-199.333" y="-53.833" style="font-size:10px;fill:#282828;font-family:sans-serif;text-anchor:start"><tspan id="svg_90" x="-179.333" y="-38.833">note</tspan></text><text id="svg_91" x="-199.333" y="-53.833" style="font-size:6.666666666666667px;fill:#282828;font-family:sans-serif;text-anchor:end"><tspan id="svg_92" x="-114.333" y="-41.833">value</tspan></text></g></g></g><g id="svg_100"><g id="svg_101" transform="translate(459,311) scale(1.5)"><path id="svg_102" d="m-190.8333384990692,-45.33333507180214 L-190.8333384990692,-49.33333507180214 A4,4 90 0 1 -186.8333384990692,-53.33333507180214 L-182.8333384990692,-53.33333507180214 L-172.8333384990692,-53.33333507180214 L-142.8333384990692,-53.33333507180214 L-138.8333384990692,-53.33333507180214 A4,4 90 0 1 -134.8333384990692,-49.33333507180214 L-134.8333384990692,-45.33333507180214 L-138.8333384990692,-45.33333507180214 L-138.8333384990692,-48.33333507180214 L-142.8333384990692,-48.33333507180214 L-142.8333384990692,-38.33333507180214 L-138.8333384990692,-38.33333507180214 L-138.8333384990692,-41.33333507180214 L-134.8333384990692,-41.33333507180214 L-134.8333384990692,-24.33333507180214 L-138.8333384990692,-24.33333507180214 L-138.8333384990692,-27.33333507180214 L-142.8333384990692,-27.33333507180214 L-142.8333384990692,-17.33333507180214 L-138.8333384990692,-17.33333507180214 L-138.8333384990692,-20.33333507180214 L-134.8333384990692,-20.33333507180214 L-134.8333384990692,-16.33333507180214 A4,4 90 0 1 -138.8333384990692,-12.33333507180214 L-142.8333384990692,-12.33333507180214 L-172.8333384990692,-12.33333507180214 L-182.8333384990692,-12.33333507180214 L-186.8333384990692,-12.33333507180214 A4,4 90 0 1 -190.8333384990692,-16.33333507180214 L-190.8333384990692,-20.33333507180214 L-190.8333384990692,-41.33333507180214 L-190.8333384990692,-42.33333507180214 L-196.8333384990692,-42.33333507180214 L-196.8333384990692,-39.33333507180214 L-198.8333384990692,-39.33333507180214 L-198.8333384990692,-47.33333507180214 L-196.8333384990692,-47.33333507180214 L-196.8333384990692,-44.33333507180214 L-190.8333384990692,-44.33333507180214 L-190.8333384990692,-45.33333507180214 z" style="fill:#ff5293;fill-opacity:1;stroke:#ff2c76;stroke-width:1;stroke-linecap:round;stroke-opacity:1"/><text id="svg_103" x="-199.333" y="-53.833" style="font-size:9px;fill:#282828;font-family:sans-serif;text-anchor:end"><tspan id="svg_104" x="-145.333" y="-30.833">➗</tspan></text></g></g><g id="svg_109"><g id="svg_110" transform="translate(545,311) scale(1.5)"><path id="svg_111" d="m-190.8333384990692,-53.33333507180214 L-130.8333384990692,-53.33333507180214 L-130.8333384990692,-33.33333507180214 L-190.8333384990692,-33.33333507180214 L-190.8333384990692,-41.33333507180214 L-190.8333384990692,-42.33333507180214 L-196.8333384990692,-42.33333507180214 L-196.8333384990692,-39.33333507180214 L-198.8333384990692,-39.33333507180214 L-198.8333384990692,-47.33333507180214 L-196.8333384990692,-47.33333507180214 L-196.8333384990692,-44.33333507180214 L-190.8333384990692,-44.33333507180214 L-190.8333384990692,-45.33333507180214 z" style="fill:#ff5293;fill-opacity:1;stroke:#ff2c76;stroke-width:1;stroke-linecap:round;stroke-opacity:1"/><text id="svg_112" x="-199.333" y="-53.833" style="font-size:10px;fill:#282828;font-family:sans-serif;text-anchor:start"><tspan id="svg_113" x="-186.333" y="-39.833">1</tspan></text></g></g><g id="svg_114"><g id="svg_115" transform="translate(545,343) scale(1.5)"><path id="svg_116" d="m-190.8333384990692,-53.33333507180214 L-130.8333384990692,-53.33333507180214 L-130.8333384990692,-33.33333507180214 L-190.8333384990692,-33.33333507180214 L-190.8333384990692,-41.33333507180214 L-190.8333384990692,-42.33333507180214 L-196.8333384990692,-42.33333507180214 L-196.8333384990692,-39.33333507180214 L-198.8333384990692,-39.33333507180214 L-198.8333384990692,-47.33333507180214 L-196.8333384990692,-47.33333507180214 L-196.8333384990692,-44.33333507180214 L-190.8333384990692,-44.33333507180214 L-190.8333384990692,-45.33333507180214 z" style="fill:#ff5293;fill-opacity:1;stroke:#ff2c76;stroke-width:1;stroke-linecap:round;stroke-opacity:1"/><text id="svg_117" x="-199.333" y="-53.833" style="font-size:10px;fill:#282828;font-family:sans-serif;text-anchor:start"><tspan id="svg_118" x="-186.333" y="-39.833">8</tspan></text></g></g><g id="svg_119"><g id="svg_120" transform="translate(341,343) scale(1.5)"><path id="svg_121" d="m-198.8333384990692,-45.33333507180214 L-198.8333384990692,-49.33333507180214 A4,4 90 0 1 -194.8333384990692,-53.33333507180214 L-190.8333384990692,-53.33333507180214 L-190.8333384990692,-51.33333507180214 L-180.8333384990692,-51.33333507180214 L-180.8333384990692,-53.33333507180214 L-160.8333384990692,-53.33333507180214 L-156.8333384990692,-53.33333507180214 A4,4 90 0 1 -152.8333384990692,-49.33333507180214 L-152.8333384990692,-45.33333507180214 L-152.8333384990692,-41.33333507180214 L-152.8333384990692,-37.33333507180214 A4,4 90 0 1 -156.8333384990692,-33.33333507180214 L-160.8333384990692,-33.33333507180214 L-180.8333384990692,-33.33333507180214 L-181.8333384990692,-33.33333507180214 L-181.8333384990692,-31.33333507180214 L-189.8333384990692,-31.33333507180214 L-189.8333384990692,-33.33333507180214 L-190.8333384990692,-33.33333507180214 L-194.8333384990692,-33.33333507180214 A4,4 90 0 1 -198.8333384990692,-37.33333507180214 L-198.8333384990692,-41.33333507180214 z" style="fill:#b0b0b0;fill-opacity:1;stroke:#a0a0a0;stroke-width:1;stroke-linecap:round;stroke-opacity:1"/><text id="svg_122" x="-199.333" y="-53.833" style="font-size:10px;fill:#282828;font-family:sans-serif;text-anchor:end"><tspan id="svg_123" x="-163.333" y="-39.833">↓</tspan></text></g></g><g id="svg_124"><g id="svg_125" transform="translate(341,375) scale(1.5)"><path id="svg_126" d="m-198.8333384990692,-45.33333507180214 L-198.8333384990692,-49.33333507180214 A4,4 90 0 1 -194.8333384990692,-53.33333507180214 L-190.8333384990692,-53.33333507180214 L-190.8333384990692,-51.33333507180214 L-180.8333384990692,-51.33333507180214 L-180.8333384990692,-53.33333507180214 L-108.86068224906921,-53.33333507180214 L-104.86068224906921,-53.33333507180214 A4,4 90 0 1 -100.86068224906921,-49.33333507180214 L-100.86068224906921,-45.33333507180214 L-104.86068224906921,-45.33333507180214 L-104.86068224906921,-48.33333507180214 L-108.86068224906921,-48.33333507180214 L-108.86068224906921,-38.33333507180214 L-104.86068224906921,-38.33333507180214 L-104.86068224906921,-41.33333507180214 L-100.86068224906921,-41.33333507180214 L-100.86068224906921,-37.33333507180214 A4,4 90 0 1 -104.86068224906921,-33.33333507180214 L-108.86068224906921,-33.33333507180214 L-180.8333384990692,-33.33333507180214 L-181.8333384990692,-33.33333507180214 L-181.8333384990692,-31.33333507180214 L-189.8333384990692,-31.33333507180214 L-189.8333384990692,-33.33333507180214 L-190.8333384990692,-33.33333507180214 L-194.8333384990692,-33.33333507180214 A4,4 90 0 1 -198.8333384990692,-37.33333507180214 L-198.8333384990692,-41.33333507180214 L-198.8333384990692,-45.33333507180214 z" style="fill:#77c428;fill-opacity:1;stroke:#57ad02;stroke-width:1;stroke-linecap:round;stroke-opacity:1"/><text id="svg_127" x="-199.333" y="-53.833" style="font-size:10px;fill:#282828;font-family:sans-serif;text-anchor:end"><tspan id="svg_128" x="-111.333" y="-39.833">scalar step (+/–)</tspan></text></g></g><g id="svg_131"><g id="svg_132" transform="translate(477,375) scale(1.5)"><path id="svg_133" d="m-190.8333384990692,-53.33333507180214 L-130.8333384990692,-53.33333507180214 L-130.8333384990692,-33.33333507180214 L-190.8333384990692,-33.33333507180214 L-190.8333384990692,-41.33333507180214 L-190.8333384990692,-42.33333507180214 L-196.8333384990692,-42.33333507180214 L-196.8333384990692,-39.33333507180214 L-198.8333384990692,-39.33333507180214 L-198.8333384990692,-47.33333507180214 L-196.8333384990692,-47.33333507180214 L-196.8333384990692,-44.33333507180214 L-190.8333384990692,-44.33333507180214 L-190.8333384990692,-45.33333507180214 z" style="fill:#ff5293;fill-opacity:1;stroke:#ff2c76;stroke-width:1;stroke-linecap:round;stroke-opacity:1"/><text id="svg_134" x="-199.333" y="-53.833" style="font-size:10px;fill:#282828;font-family:sans-serif;text-anchor:start"><tspan id="svg_135" x="-186.333" y="-39.833">1</tspan></text></g></g><g id="svg_136"><g id="svg_137" transform="translate(313,468) scale(1.5)"><path id="svg_138" d="m-198.8333384990692,-45.33333507180214 L-198.8333384990692,-49.33333507180214 A4,4 90 0 1 -194.8333384990692,-53.33333507180214 L-190.8333384990692,-53.33333507180214 L-190.8333384990692,-51.33333507180214 L-180.8333384990692,-51.33333507180214 L-180.8333384990692,-53.33333507180214 L-171.8333384990692,-53.33333507180214 L-151.8333384990692,-53.33333507180214 L-147.8333384990692,-53.33333507180214 A4,4 90 0 1 -143.8333384990692,-49.33333507180214 L-143.8333384990692,-45.33333507180214 L-147.8333384990692,-45.33333507180214 L-147.8333384990692,-48.33333507180214 L-151.8333384990692,-48.33333507180214 L-151.8333384990692,-38.33333507180214 L-147.8333384990692,-38.33333507180214 L-147.8333384990692,-41.33333507180214 L-143.8333384990692,-41.33333507180214 L-143.8333384990692,-37.33333507180214 A4,4 90 0 1 -147.8333384990692,-33.33333507180214 L-151.8333384990692,-33.33333507180214 L-171.8333384990692,-33.33333507180214 L-172.8333384990692,-33.33333507180214 L-172.8333384990692,-31.33333507180214 L-180.8333384990692,-31.33333507180214 L-180.8333384990692,-33.33333507180214 L-181.8333384990692,-33.33333507180214 L-185.8333384990692,-33.33333507180214 A5,5 90 0 0 -190.8333384990692,-28.33333507180214 L-190.8333384990692,-24.33333507180214 L-190.8333384990692,-20.33333507180214 L-190.8333384990692,42.66666492819786 L-190.8333384990692,46.66666492819786 A5,5 90 0 0 -185.8333384990692,51.66666492819786 L-181.8333384990692,51.66666492819786 L-181.8333384990692,53.66666492819786 L-171.8333384990692,53.66666492819786 L-171.8333384990692,51.66666492819786 L-163.8333384990692,51.66666492819786 L-163.8333384990692,57.66666492819786 L-163.8333384990692,63.66666492819786 L-163.8333384990692,67.66666492819786 A4,4 90 0 1 -167.8333384990692,71.66666492819786 L-171.8333384990692,71.66666492819786 L-180.8333384990692,71.66666492819786 L-181.8333384990692,71.66666492819786 L-181.8333384990692,73.66666492819786 L-189.8333384990692,73.66666492819786 L-189.8333384990692,71.66666492819786 L-190.8333384990692,71.66666492819786 L-194.8333384990692,71.66666492819786 A4,4 90 0 1 -198.8333384990692,67.66666492819786 L-198.8333384990692,63.66666492819786 z" style="fill:#d68136;fill-opacity:1;stroke:#b7651a;stroke-width:1;stroke-linecap:round;stroke-opacity:1"/><text id="svg_139" x="-199.333" y="-53.833" style="font-size:10px;fill:#282828;font-family:sans-serif;text-anchor:start"><tspan id="svg_140" x="-194.333" y="-38.833">repeat</tspan></text></g></g><g id="svg_143"><g id="svg_144" transform="translate(385,468) scale(1.5)"><path id="svg_145" d="m-190.8333384990692,-53.33333507180214 L-130.8333384990692,-53.33333507180214 L-130.8333384990692,-33.33333507180214 L-190.8333384990692,-33.33333507180214 L-190.8333384990692,-41.33333507180214 L-190.8333384990692,-42.33333507180214 L-196.8333384990692,-42.33333507180214 L-196.8333384990692,-39.33333507180214 L-198.8333384990692,-39.33333507180214 L-198.8333384990692,-47.33333507180214 L-196.8333384990692,-47.33333507180214 L-196.8333384990692,-44.33333507180214 L-190.8333384990692,-44.33333507180214 L-190.8333384990692,-45.33333507180214 z" style="fill:#ff5293;fill-opacity:1;stroke:#ff2c76;stroke-width:1;stroke-linecap:round;stroke-opacity:1"/><text id="svg_146" x="-199.333" y="-53.833" style="font-size:10px;fill:#282828;font-family:sans-serif;text-anchor:start"><tspan id="svg_147" x="-186.333" y="-39.833">7</tspan></text></g></g><g id="svg_148"><g id="svg_149"><g id="svg_150" transform="translate(327,500) scale(1.5)"><path id="svg_151" d="m-198.8333384990692,-45.33333507180214 L-198.8333384990692,-49.33333507180214 A4,4 90 0 1 -194.8333384990692,-53.33333507180214 L-190.8333384990692,-53.33333507180214 L-190.8333384990692,-51.33333507180214 L-180.8333384990692,-51.33333507180214 L-180.8333384990692,-53.33333507180214 L-171.8333384990692,-53.33333507180214 L-111.83333849906921,-53.33333507180214 L-107.83333849906921,-53.33333507180214 A4,4 90 0 1 -103.83333849906921,-49.33333507180214 L-103.83333849906921,-45.33333507180214 L-107.83333849906921,-45.33333507180214 L-107.83333849906921,-48.33333507180214 L-111.83333849906921,-48.33333507180214 L-111.83333849906921,-38.33333507180214 L-107.83333849906921,-38.33333507180214 L-107.83333849906921,-41.33333507180214 L-103.83333849906921,-41.33333507180214 L-103.83333849906921,-37.33333507180214 A4,4 90 0 1 -107.83333849906921,-33.33333507180214 L-111.83333849906921,-33.33333507180214 L-171.8333384990692,-33.33333507180214 L-172.8333384990692,-33.33333507180214 L-172.8333384990692,-31.33333507180214 L-180.8333384990692,-31.33333507180214 L-180.8333384990692,-33.33333507180214 L-181.8333384990692,-33.33333507180214 L-185.8333384990692,-33.33333507180214 A5,5 90 0 0 -190.8333384990692,-28.33333507180214 L-190.8333384990692,-24.33333507180214 L-190.8333384990692,-20.33333507180214 L-190.8333384990692,0.6666649281978607 L-190.8333384990692,4.666664928197861 A5,5 90 0 0 -185.8333384990692,9.66666492819786 L-181.8333384990692,9.66666492819786 L-181.8333384990692,11.66666492819786 L-171.8333384990692,11.66666492819786 L-171.8333384990692,9.66666492819786 L-163.8333384990692,9.66666492819786 L-163.8333384990692,15.66666492819786 L-163.8333384990692,21.66666492819786 L-163.8333384990692,25.66666492819786 A4,4 90 0 1 -167.8333384990692,29.66666492819786 L-171.8333384990692,29.66666492819786 L-180.8333384990692,29.66666492819786 L-181.8333384990692,29.66666492819786 L-181.8333384990692,31.66666492819786 L-189.8333384990692,31.66666492819786 L-189.8333384990692,29.66666492819786 L-190.8333384990692,29.66666492819786 L-194.8333384990692,29.66666492819786 A4,4 90 0 1 -198.8333384990692,25.66666492819786 L-198.8333384990692,21.66666492819786 z" style="fill:#ff8b2d;fill-opacity:1;stroke:#e86b0e;stroke-width:1;stroke-linecap:round;stroke-opacity:1"/><text id="svg_152" x="-199.333" y="-53.833" style="font-size:10px;fill:#282828;font-family:sans-serif;text-anchor:start"><tspan id="svg_153" x="-179.333" y="-38.833">note</tspan></text><text id="svg_154" x="-199.333" y="-53.833" style="font-size:6.666666666666667px;fill:#282828;font-family:sans-serif;text-anchor:end"><tspan id="svg_155" x="-114.333" y="-41.833">value</tspan></text></g></g></g><g id="svg_163"><g id="svg_164" transform="translate(459,500) scale(1.5)"><path id="svg_165" d="m-190.8333384990692,-45.33333507180214 L-190.8333384990692,-49.33333507180214 A4,4 90 0 1 -186.8333384990692,-53.33333507180214 L-182.8333384990692,-53.33333507180214 L-172.8333384990692,-53.33333507180214 L-142.8333384990692,-53.33333507180214 L-138.8333384990692,-53.33333507180214 A4,4 90 0 1 -134.8333384990692,-49.33333507180214 L-134.8333384990692,-45.33333507180214 L-138.8333384990692,-45.33333507180214 L-138.8333384990692,-48.33333507180214 L-142.8333384990692,-48.33333507180214 L-142.8333384990692,-38.33333507180214 L-138.8333384990692,-38.33333507180214 L-138.8333384990692,-41.33333507180214 L-134.8333384990692,-41.33333507180214 L-134.8333384990692,-24.33333507180214 L-138.8333384990692,-24.33333507180214 L-138.8333384990692,-27.33333507180214 L-142.8333384990692,-27.33333507180214 L-142.8333384990692,-17.33333507180214 L-138.8333384990692,-17.33333507180214 L-138.8333384990692,-20.33333507180214 L-134.8333384990692,-20.33333507180214 L-134.8333384990692,-16.33333507180214 A4,4 90 0 1 -138.8333384990692,-12.33333507180214 L-142.8333384990692,-12.33333507180214 L-172.8333384990692,-12.33333507180214 L-182.8333384990692,-12.33333507180214 L-186.8333384990692,-12.33333507180214 A4,4 90 0 1 -190.8333384990692,-16.33333507180214 L-190.8333384990692,-20.33333507180214 L-190.8333384990692,-41.33333507180214 L-190.8333384990692,-42.33333507180214 L-196.8333384990692,-42.33333507180214 L-196.8333384990692,-39.33333507180214 L-198.8333384990692,-39.33333507180214 L-198.8333384990692,-47.33333507180214 L-196.8333384990692,-47.33333507180214 L-196.8333384990692,-44.33333507180214 L-190.8333384990692,-44.33333507180214 L-190.8333384990692,-45.33333507180214 z" style="fill:#ff5293;fill-opacity:1;stroke:#ff2c76;stroke-width:1;stroke-linecap:round;stroke-opacity:1"/><text id="svg_166" x="-199.333" y="-53.833" style="font-size:9px;fill:#282828;font-family:sans-serif;text-anchor:end"><tspan id="svg_167" x="-145.333" y="-30.833">➗</tspan></text></g></g><g id="svg_172"><g id="svg_173" transform="translate(545,500) scale(1.5)"><path id="svg_174" d="m-190.8333384990692,-53.33333507180214 L-130.8333384990692,-53.33333507180214 L-130.8333384990692,-33.33333507180214 L-190.8333384990692,-33.33333507180214 L-190.8333384990692,-41.33333507180214 L-190.8333384990692,-42.33333507180214 L-196.8333384990692,-42.33333507180214 L-196.8333384990692,-39.33333507180214 L-198.8333384990692,-39.33333507180214 L-198.8333384990692,-47.33333507180214 L-196.8333384990692,-47.33333507180214 L-196.8333384990692,-44.33333507180214 L-190.8333384990692,-44.33333507180214 L-190.8333384990692,-45.33333507180214 z" style="fill:#ff5293;fill-opacity:1;stroke:#ff2c76;stroke-width:1;stroke-linecap:round;stroke-opacity:1"/><text id="svg_175" x="-199.333" y="-53.833" style="font-size:10px;fill:#282828;font-family:sans-serif;text-anchor:start"><tspan id="svg_176" x="-186.333" y="-39.833">1</tspan></text></g></g><g id="svg_177"><g id="svg_178" transform="translate(545,532) scale(1.5)"><path id="svg_179" d="m-190.8333384990692,-53.33333507180214 L-130.8333384990692,-53.33333507180214 L-130.8333384990692,-33.33333507180214 L-190.8333384990692,-33.33333507180214 L-190.8333384990692,-41.33333507180214 L-190.8333384990692,-42.33333507180214 L-196.8333384990692,-42.33333507180214 L-196.8333384990692,-39.33333507180214 L-198.8333384990692,-39.33333507180214 L-198.8333384990692,-47.33333507180214 L-196.8333384990692,-47.33333507180214 L-196.8333384990692,-44.33333507180214 L-190.8333384990692,-44.33333507180214 L-190.8333384990692,-45.33333507180214 z" style="fill:#ff5293;fill-opacity:1;stroke:#ff2c76;stroke-width:1;stroke-linecap:round;stroke-opacity:1"/><text id="svg_180" x="-199.333" y="-53.833" style="font-size:10px;fill:#282828;font-family:sans-serif;text-anchor:start"><tspan id="svg_181" x="-186.333" y="-39.833">8</tspan></text></g></g><g id="svg_182"><g id="svg_183" transform="translate(341,532) scale(1.5)"><path id="svg_184" d="m-198.8333384990692,-45.33333507180214 L-198.8333384990692,-49.33333507180214 A4,4 90 0 1 -194.8333384990692,-53.33333507180214 L-190.8333384990692,-53.33333507180214 L-190.8333384990692,-51.33333507180214 L-180.8333384990692,-51.33333507180214 L-180.8333384990692,-53.33333507180214 L-160.8333384990692,-53.33333507180214 L-156.8333384990692,-53.33333507180214 A4,4 90 0 1 -152.8333384990692,-49.33333507180214 L-152.8333384990692,-45.33333507180214 L-152.8333384990692,-41.33333507180214 L-152.8333384990692,-37.33333507180214 A4,4 90 0 1 -156.8333384990692,-33.33333507180214 L-160.8333384990692,-33.33333507180214 L-180.8333384990692,-33.33333507180214 L-181.8333384990692,-33.33333507180214 L-181.8333384990692,-31.33333507180214 L-189.8333384990692,-31.33333507180214 L-189.8333384990692,-33.33333507180214 L-190.8333384990692,-33.33333507180214 L-194.8333384990692,-33.33333507180214 A4,4 90 0 1 -198.8333384990692,-37.33333507180214 L-198.8333384990692,-41.33333507180214 z" style="fill:#b0b0b0;fill-opacity:1;stroke:#a0a0a0;stroke-width:1;stroke-linecap:round;stroke-opacity:1"/><text id="svg_185" x="-199.333" y="-53.833" style="font-size:10px;fill:#282828;font-family:sans-serif;text-anchor:end"><tspan id="svg_186" x="-163.333" y="-39.833">↓</tspan></text></g></g><g id="svg_187"><g id="svg_188" transform="translate(341,564) scale(1.5)"><path id="svg_189" d="m-198.8333384990692,-45.33333507180214 L-198.8333384990692,-49.33333507180214 A4,4 90 0 1 -194.8333384990692,-53.33333507180214 L-190.8333384990692,-53.33333507180214 L-190.8333384990692,-51.33333507180214 L-180.8333384990692,-51.33333507180214 L-180.8333384990692,-53.33333507180214 L-108.86068224906921,-53.33333507180214 L-104.86068224906921,-53.33333507180214 A4,4 90 0 1 -100.86068224906921,-49.33333507180214 L-100.86068224906921,-45.33333507180214 L-104.86068224906921,-45.33333507180214 L-104.86068224906921,-48.33333507180214 L-108.86068224906921,-48.33333507180214 L-108.86068224906921,-38.33333507180214 L-104.86068224906921,-38.33333507180214 L-104.86068224906921,-41.33333507180214 L-100.86068224906921,-41.33333507180214 L-100.86068224906921,-37.33333507180214 A4,4 90 0 1 -104.86068224906921,-33.33333507180214 L-108.86068224906921,-33.33333507180214 L-180.8333384990692,-33.33333507180214 L-181.8333384990692,-33.33333507180214 L-181.8333384990692,-31.33333507180214 L-189.8333384990692,-31.33333507180214 L-189.8333384990692,-33.33333507180214 L-190.8333384990692,-33.33333507180214 L-194.8333384990692,-33.33333507180214 A4,4 90 0 1 -198.8333384990692,-37.33333507180214 L-198.8333384990692,-41.33333507180214 L-198.8333384990692,-45.33333507180214 z" style="fill:#77c428;fill-opacity:1;stroke:#57ad02;stroke-width:1;stroke-linecap:round;stroke-opacity:1"/><text id="svg_190" x="-199.333" y="-53.833" style="font-size:10px;fill:#282828;font-family:sans-serif;text-anchor:end"><tspan id="svg_191" x="-111.333" y="-39.833">scalar step (+/–)</tspan></text></g></g><g id="svg_194"><g id="svg_195" transform="translate(477,564) scale(1.5)"><path id="svg_196" d="m-190.8333384990692,-53.33333507180214 L-130.8333384990692,-53.33333507180214 L-130.8333384990692,-33.33333507180214 L-190.8333384990692,-33.33333507180214 L-190.8333384990692,-41.33333507180214 L-190.8333384990692,-42.33333507180214 L-196.8333384990692,-42.33333507180214 L-196.8333384990692,-39.33333507180214 L-198.8333384990692,-39.33333507180214 L-198.8333384990692,-47.33333507180214 L-196.8333384990692,-47.33333507180214 L-196.8333384990692,-44.33333507180214 L-190.8333384990692,-44.33333507180214 L-190.8333384990692,-45.33333507180214 z" style="fill:#ff5293;fill-opacity:1;stroke:#ff2c76;stroke-width:1;stroke-linecap:round;stroke-opacity:1"/><text id="svg_197" x="-199.333" y="-53.833" style="font-size:10px;fill:#282828;font-family:sans-serif;text-anchor:start"><tspan id="svg_198" x="-186.333" y="-39.833">1</tspan></text></g></g></g></svg>