<svg xmlns="http://www.w3.org/2000/svg" width="556" height="443"><rect id="backgroundrect" width="100%" height="100%" x="0" y="0" fill="none" stroke="none"/><g class="currentLayer"><title>Layer 1</title><g id="svg_15"><g id="svg_16"><g id="svg_17" transform="translate(357, 200) scale(1.5)"><path style="fill:#ff8b2d;fill-opacity:1;stroke:#e86b0e;stroke-width:1;stroke-linecap:round;stroke-opacity:1" id="svg_18" d="m-228.1666717529297,-61.333335876464844 L-228.1666717529297,-65.33333587646484 A4,4 90 0 1 -224.1666717529297,-69.33333587646484 L-220.1666717529297,-69.33333587646484 L-220.1666717529297,-67.33333587646484 L-210.1666717529297,-67.33333587646484 L-210.1666717529297,-69.33333587646484 L-201.1666717529297,-69.33333587646484 L-141.1666717529297,-69.33333587646484 L-137.1666717529297,-69.33333587646484 A4,4 90 0 1 -133.1666717529297,-65.33333587646484 L-133.1666717529297,-61.333335876464844 L-137.1666717529297,-61.333335876464844 L-137.1666717529297,-64.33333587646484 L-141.1666717529297,-64.33333587646484 L-141.1666717529297,-54.333335876464844 L-137.1666717529297,-54.333335876464844 L-137.1666717529297,-57.333335876464844 L-133.1666717529297,-57.333335876464844 L-133.1666717529297,-53.333335876464844 A4,4 90 0 1 -137.1666717529297,-49.333335876464844 L-141.1666717529297,-49.333335876464844 L-201.1666717529297,-49.333335876464844 L-202.1666717529297,-49.333335876464844 L-202.1666717529297,-47.333335876464844 L-210.1666717529297,-47.333335876464844 L-210.1666717529297,-49.333335876464844 L-211.1666717529297,-49.333335876464844 L-215.1666717529297,-49.333335876464844 A5,5 90 0 0 -220.1666717529297,-44.333335876464844 L-220.1666717529297,-40.333335876464844 L-220.1666717529297,-36.333335876464844 L-220.1666717529297,5.666664123535156 L-220.1666717529297,9.666664123535156 A5,5 90 0 0 -215.1666717529297,14.666664123535156 L-211.1666717529297,14.666664123535156 L-211.1666717529297,16.666664123535156 L-201.1666717529297,16.666664123535156 L-201.1666717529297,14.666664123535156 L-193.1666717529297,14.666664123535156 L-193.1666717529297,20.666664123535156 L-193.1666717529297,26.666664123535156 L-193.1666717529297,30.666664123535156 A4,4 90 0 1 -197.1666717529297,34.666664123535156 L-201.1666717529297,34.666664123535156 L-210.1666717529297,34.666664123535156 L-211.1666717529297,34.666664123535156 L-211.1666717529297,36.666664123535156 L-219.1666717529297,36.666664123535156 L-219.1666717529297,34.666664123535156 L-220.1666717529297,34.666664123535156 L-224.1666717529297,34.666664123535156 A4,4 90 0 1 -228.1666717529297,30.666664123535156 L-228.1666717529297,26.666664123535156 z"/><text style="font-size:10px;fill:#282828;font-family:sans-serif;text-anchor:start" id="svg_19" x="-228.667" y="-69.833"><tspan id="svg_20" x="-208.667" y="-54.833">note</tspan></text><text style="font-size:6.666666666666667px;fill:#282828;font-family:sans-serif;text-anchor:end" id="svg_21" x="-228.667" y="-69.833"><tspan id="svg_22" x="-143.667" y="-57.833">value</tspan></text></g></g><g id="svg_23" transform="translate(357, 204) scale(0.5)"><g style="isolation:isolate" id="svg_24"><g id="レイヤー_2" data-name="レイヤー 2"><g id="Icon"><rect style="fill:#292929;opacity:.4;mix-blend-mode:multiply" id="svg_25" width="42" height="42" x="-686" y="-209.5" rx="5" ry="5"/><path style="fill:#fff" id="svg_26" d="M-655.4400005340576,-179.70000076293945 l-4.170000076293945,-4.159999847412109 h2.259999990463257 a1,1 0 1 0 0,-2.069999933242798 H-662.0599994659424 a1.0800000429153442,1.0800000429153442 0 0 0 -1.1100000143051147,1 v0 s0,0 0,0.05999999865889549 v4.639999866485596 h0 a1,1 0 1 0 2.0799999237060547,0 V-182.42000007629395 l4.190000057220459,4.190000057220459 a1,1 0 0 0 1.4600000381469727,0 A1,1 0 0 0 -655.4400005340576,-179.70000076293945 z"/><path style="fill:#fff" id="svg_27" d="M-666.829999923706,-184.89999961853027 a1.0800000429153442,1.0800000429153442 0 0 0 -1.1100000143051147,-1 H-672.6499996185303 a1,1 0 1 0 0,2.069999933242798 H-670.3999996185303 L-674.5600004196167,-179.70000076293945 a1,1 0 0 0 1.4700000286102295,1.4700000286102295 l4.179999828338623,-4.190000057220459 v2.259999990463257 a1,1 0 1 0 2.0799999237060547,0 V-184.79999923706055 s0,0 0,-0.05999999865889549 A0.07999999821186066,0.07999999821186066 0 0 1 -666.829999923706,-184.89999961853027 z"/><path style="fill:#fff" id="svg_28" d="M-662.0599994659424,-189 h4.699999809265137 a1,1 0 1 0 0,-2.0799999237060547 H-659.6100006103516 l4.170000076293945,-4.159999847412109 a1,1 0 0 0 0,-1.4700000286102295 a1,1 0 0 0 -1.4600000381469727,0 L-661.0900001525879,-192.5 V-194.7799997329712 a1,1 0 1 0 -2.0799999237060547,0 v4.639999866485596 a0.4300000071525574,0.4300000071525574 0 0 0 0,0.05000000074505806 v0.05000000074505806 A1.090000033378601,1.090000033378601 0 0 0 -662.0599994659424,-189 z"/><path style="fill:#fff" id="svg_29" d="M-667.8700008392334,-195.88000011444092 a1.0800000429153442,1.0800000429153442 0 0 0 -1,1.090000033378601 V-192.5 l-4.179999828338623,-4.190000057220459 a1,1 0 0 0 -1.4700000286102295,0 a1,1 0 0 0 0,1.4600000381469727 l4.159999847412109,4.170000076293945 H-672.6499996185303 a1,1 0 1 0 0,2.0799999237060547 h4.710000038146973 a1.090000033378601,1.090000033378601 0 0 0 1.1100000143051147,-1 a0.07999999821186066,0.07999999821186066 0 0 1 0,0 s0,0 0,-0.05999999865889549 V-194.78999996185303 A1.0700000524520874,1.0700000524520874 0 0 0 -667.8700008392334,-195.88000011444092 z"/></g></g></g></g></g><g id="svg_30"><g id="svg_31" transform="translate(489, 200) scale(1.5)"><path style="fill:#ff5293;fill-opacity:1;stroke:#ff2c76;stroke-width:1;stroke-linecap:round;stroke-opacity:1" id="svg_32" d="m-220.1666717529297,-61.333335876464844 L-220.1666717529297,-65.33333587646484 A4,4 90 0 1 -216.1666717529297,-69.33333587646484 L-212.1666717529297,-69.33333587646484 L-202.1666717529297,-69.33333587646484 L-172.1666717529297,-69.33333587646484 L-168.1666717529297,-69.33333587646484 A4,4 90 0 1 -164.1666717529297,-65.33333587646484 L-164.1666717529297,-61.333335876464844 L-168.1666717529297,-61.333335876464844 L-168.1666717529297,-64.33333587646484 L-172.1666717529297,-64.33333587646484 L-172.1666717529297,-54.333335876464844 L-168.1666717529297,-54.333335876464844 L-168.1666717529297,-57.333335876464844 L-164.1666717529297,-57.333335876464844 L-164.1666717529297,-40.333335876464844 L-168.1666717529297,-40.333335876464844 L-168.1666717529297,-43.333335876464844 L-172.1666717529297,-43.333335876464844 L-172.1666717529297,-33.333335876464844 L-168.1666717529297,-33.333335876464844 L-168.1666717529297,-36.333335876464844 L-164.1666717529297,-36.333335876464844 L-164.1666717529297,-32.333335876464844 A4,4 90 0 1 -168.1666717529297,-28.333335876464844 L-172.1666717529297,-28.333335876464844 L-202.1666717529297,-28.333335876464844 L-212.1666717529297,-28.333335876464844 L-216.1666717529297,-28.333335876464844 A4,4 90 0 1 -220.1666717529297,-32.333335876464844 L-220.1666717529297,-36.333335876464844 L-220.1666717529297,-57.333335876464844 L-220.1666717529297,-58.333335876464844 L-226.1666717529297,-58.333335876464844 L-226.1666717529297,-55.333335876464844 L-228.1666717529297,-55.333335876464844 L-228.1666717529297,-63.333335876464844 L-226.1666717529297,-63.333335876464844 L-226.1666717529297,-60.333335876464844 L-220.1666717529297,-60.333335876464844 L-220.1666717529297,-61.333335876464844 z"/><text style="font-size:9px;fill:#282828;font-family:sans-serif;text-anchor:end" id="svg_33" x="-228.667" y="-69.833"><tspan id="svg_34" x="-174.667" y="-46.833">➗</tspan></text></g></g><g id="svg_39"><g id="svg_40" transform="translate(575, 200) scale(1.5)"><path style="fill:#ff5293;fill-opacity:1;stroke:#ff2c76;stroke-width:1;stroke-linecap:round;stroke-opacity:1" id="svg_41" d="m-220.1666717529297,-69.33333587646484 L-160.1666717529297,-69.33333587646484 L-160.1666717529297,-49.333335876464844 L-220.1666717529297,-49.333335876464844 L-220.1666717529297,-57.333335876464844 L-220.1666717529297,-58.333335876464844 L-226.1666717529297,-58.333335876464844 L-226.1666717529297,-55.333335876464844 L-228.1666717529297,-55.333335876464844 L-228.1666717529297,-63.333335876464844 L-226.1666717529297,-63.333335876464844 L-226.1666717529297,-60.333335876464844 L-220.1666717529297,-60.333335876464844 L-220.1666717529297,-61.333335876464844 z"/><text style="font-size:10px;fill:#282828;font-family:sans-serif;text-anchor:start" id="svg_42" x="-228.667" y="-69.833"><tspan id="svg_43" x="-215.667" y="-55.833">1</tspan></text></g></g><g id="svg_44"><g id="svg_45" transform="translate(575, 232) scale(1.5)"><path style="fill:#ff5293;fill-opacity:1;stroke:#ff2c76;stroke-width:1;stroke-linecap:round;stroke-opacity:1" id="svg_46" d="m-220.1666717529297,-69.33333587646484 L-160.1666717529297,-69.33333587646484 L-160.1666717529297,-49.333335876464844 L-220.1666717529297,-49.333335876464844 L-220.1666717529297,-57.333335876464844 L-220.1666717529297,-58.333335876464844 L-226.1666717529297,-58.333335876464844 L-226.1666717529297,-55.333335876464844 L-228.1666717529297,-55.333335876464844 L-228.1666717529297,-63.333335876464844 L-226.1666717529297,-63.333335876464844 L-226.1666717529297,-60.333335876464844 L-220.1666717529297,-60.333335876464844 L-220.1666717529297,-61.333335876464844 z"/><text style="font-size:10px;fill:#282828;font-family:sans-serif;text-anchor:start" id="svg_47" x="-228.667" y="-69.833"><tspan id="svg_48" x="-215.667" y="-55.833">4</tspan></text></g></g><g id="svg_49"><g id="svg_50" transform="translate(371, 232) scale(1.5)"><path style="fill:#b0b0b0;fill-opacity:1;stroke:#a0a0a0;stroke-width:1;stroke-linecap:round;stroke-opacity:1" id="svg_51" d="m-228.1666717529297,-61.333335876464844 L-228.1666717529297,-65.33333587646484 A4,4 90 0 1 -224.1666717529297,-69.33333587646484 L-220.1666717529297,-69.33333587646484 L-220.1666717529297,-67.33333587646484 L-210.1666717529297,-67.33333587646484 L-210.1666717529297,-69.33333587646484 L-190.1666717529297,-69.33333587646484 L-186.1666717529297,-69.33333587646484 A4,4 90 0 1 -182.1666717529297,-65.33333587646484 L-182.1666717529297,-61.333335876464844 L-182.1666717529297,-57.333335876464844 L-182.1666717529297,-53.333335876464844 A4,4 90 0 1 -186.1666717529297,-49.333335876464844 L-190.1666717529297,-49.333335876464844 L-210.1666717529297,-49.333335876464844 L-211.1666717529297,-49.333335876464844 L-211.1666717529297,-47.333335876464844 L-219.1666717529297,-47.333335876464844 L-219.1666717529297,-49.333335876464844 L-220.1666717529297,-49.333335876464844 L-224.1666717529297,-49.333335876464844 A4,4 90 0 1 -228.1666717529297,-53.333335876464844 L-228.1666717529297,-57.333335876464844 z"/><text style="font-size:10px;fill:#282828;font-family:sans-serif;text-anchor:end" id="svg_52" x="-228.667" y="-69.833"><tspan id="svg_53" x="-192.667" y="-55.833">↓</tspan></text></g></g><g id="svg_54"><g id="svg_55" transform="translate(371, 264) scale(1.5)"><path style="fill:#77c428;fill-opacity:1;stroke:#57ad02;stroke-width:1;stroke-linecap:round;stroke-opacity:1" id="svg_56" d="m-228.1666717529297,-61.333335876464844 L-228.1666717529297,-65.33333587646484 A4,4 90 0 1 -224.1666717529297,-69.33333587646484 L-220.1666717529297,-69.33333587646484 L-220.1666717529297,-67.33333587646484 L-210.1666717529297,-67.33333587646484 L-210.1666717529297,-69.33333587646484 L-180.1666717529297,-69.33333587646484 L-176.1666717529297,-69.33333587646484 A4,4 90 0 1 -172.1666717529297,-65.33333587646484 L-172.1666717529297,-61.333335876464844 L-176.1666717529297,-61.333335876464844 L-176.1666717529297,-64.33333587646484 L-180.1666717529297,-64.33333587646484 L-180.1666717529297,-54.333335876464844 L-176.1666717529297,-54.333335876464844 L-176.1666717529297,-57.333335876464844 L-172.1666717529297,-57.333335876464844 L-172.1666717529297,-40.333335876464844 L-176.1666717529297,-40.333335876464844 L-176.1666717529297,-43.333335876464844 L-180.1666717529297,-43.333335876464844 L-180.1666717529297,-33.333335876464844 L-176.1666717529297,-33.333335876464844 L-176.1666717529297,-36.333335876464844 L-172.1666717529297,-36.333335876464844 L-172.1666717529297,-32.333335876464844 A4,4 90 0 1 -176.1666717529297,-28.333335876464844 L-180.1666717529297,-28.333335876464844 L-210.1666717529297,-28.333335876464844 L-211.1666717529297,-28.333335876464844 L-211.1666717529297,-26.333335876464844 L-219.1666717529297,-26.333335876464844 L-219.1666717529297,-28.333335876464844 L-220.1666717529297,-28.333335876464844 L-224.1666717529297,-28.333335876464844 A4,4 90 0 1 -228.1666717529297,-32.333335876464844 L-228.1666717529297,-36.333335876464844 L-228.1666717529297,-57.333335876464844 L-228.1666717529297,-61.333335876464844 z"/><text style="font-size:10px;fill:#282828;font-family:sans-serif;text-anchor:end" id="svg_57" x="-228.667" y="-69.833"><tspan id="svg_58" x="-182.667" y="-45.833">pitch</tspan></text><text style="font-size:6.666666666666667px;fill:#282828;font-family:sans-serif;text-anchor:end" id="svg_59" x="-228.667" y="-69.833"><tspan id="svg_60" x="-182.667" y="-57.833">name</tspan></text><text style="font-size:6.666666666666667px;fill:#282828;font-family:sans-serif;text-anchor:end" id="svg_61" x="-228.667" y="-69.833"><tspan id="svg_62" x="-182.667" y="-36.833">octave</tspan></text></g></g><g id="svg_63"><g id="svg_64" transform="translate(445, 264) scale(1.5)"><path style="fill:#77c428;fill-opacity:1;stroke:#57ad02;stroke-width:1;stroke-linecap:round;stroke-opacity:1" id="svg_65" d="m-220.1666717529297,-69.33333587646484 L-160.1666717529297,-69.33333587646484 L-160.1666717529297,-49.333335876464844 L-220.1666717529297,-49.333335876464844 L-220.1666717529297,-57.333335876464844 L-220.1666717529297,-58.333335876464844 L-226.1666717529297,-58.333335876464844 L-226.1666717529297,-55.333335876464844 L-228.1666717529297,-55.333335876464844 L-228.1666717529297,-63.333335876464844 L-226.1666717529297,-63.333335876464844 L-226.1666717529297,-60.333335876464844 L-220.1666717529297,-60.333335876464844 L-220.1666717529297,-61.333335876464844 z"/><text style="font-size:10px;fill:#282828;font-family:sans-serif;text-anchor:start" id="svg_66" x="-228.667" y="-69.833"><tspan id="svg_67" x="-215.667" y="-55.833">re</tspan></text></g></g><g id="svg_68"><g id="svg_69" transform="translate(445, 296) scale(1.5)"><path style="fill:#ff5293;fill-opacity:1;stroke:#ff2c76;stroke-width:1;stroke-linecap:round;stroke-opacity:1" id="svg_70" d="m-220.1666717529297,-69.33333587646484 L-160.1666717529297,-69.33333587646484 L-160.1666717529297,-49.333335876464844 L-220.1666717529297,-49.333335876464844 L-220.1666717529297,-57.333335876464844 L-220.1666717529297,-58.333335876464844 L-226.1666717529297,-58.333335876464844 L-226.1666717529297,-55.333335876464844 L-228.1666717529297,-55.333335876464844 L-228.1666717529297,-63.333335876464844 L-226.1666717529297,-63.333335876464844 L-226.1666717529297,-60.333335876464844 L-220.1666717529297,-60.333335876464844 L-220.1666717529297,-61.333335876464844 z"/><text style="font-size:10px;fill:#282828;font-family:sans-serif;text-anchor:start" id="svg_71" x="-228.667" y="-69.833"><tspan id="svg_72" x="-215.667" y="-55.833">5</tspan></text></g></g><g id="svg_73"><g id="svg_74"><g id="svg_75" transform="translate(357, 358) scale(1.5)"><path style="fill:#ff8b2d;fill-opacity:1;stroke:#e86b0e;stroke-width:1;stroke-linecap:round;stroke-opacity:1" id="svg_76" d="m-228.1666717529297,-61.333335876464844 L-228.1666717529297,-65.33333587646484 A4,4 90 0 1 -224.1666717529297,-69.33333587646484 L-220.1666717529297,-69.33333587646484 L-220.1666717529297,-67.33333587646484 L-210.1666717529297,-67.33333587646484 L-210.1666717529297,-69.33333587646484 L-201.1666717529297,-69.33333587646484 L-141.1666717529297,-69.33333587646484 L-137.1666717529297,-69.33333587646484 A4,4 90 0 1 -133.1666717529297,-65.33333587646484 L-133.1666717529297,-61.333335876464844 L-137.1666717529297,-61.333335876464844 L-137.1666717529297,-64.33333587646484 L-141.1666717529297,-64.33333587646484 L-141.1666717529297,-54.333335876464844 L-137.1666717529297,-54.333335876464844 L-137.1666717529297,-57.333335876464844 L-133.1666717529297,-57.333335876464844 L-133.1666717529297,-53.333335876464844 A4,4 90 0 1 -137.1666717529297,-49.333335876464844 L-141.1666717529297,-49.333335876464844 L-201.1666717529297,-49.333335876464844 L-202.1666717529297,-49.333335876464844 L-202.1666717529297,-47.333335876464844 L-210.1666717529297,-47.333335876464844 L-210.1666717529297,-49.333335876464844 L-211.1666717529297,-49.333335876464844 L-215.1666717529297,-49.333335876464844 A5,5 90 0 0 -220.1666717529297,-44.333335876464844 L-220.1666717529297,-40.333335876464844 L-220.1666717529297,-36.333335876464844 L-220.1666717529297,5.666664123535156 L-220.1666717529297,9.666664123535156 A5,5 90 0 0 -215.1666717529297,14.666664123535156 L-211.1666717529297,14.666664123535156 L-211.1666717529297,16.666664123535156 L-201.1666717529297,16.666664123535156 L-201.1666717529297,14.666664123535156 L-193.1666717529297,14.666664123535156 L-193.1666717529297,20.666664123535156 L-193.1666717529297,26.666664123535156 L-193.1666717529297,30.666664123535156 A4,4 90 0 1 -197.1666717529297,34.666664123535156 L-201.1666717529297,34.666664123535156 L-210.1666717529297,34.666664123535156 L-211.1666717529297,34.666664123535156 L-211.1666717529297,36.666664123535156 L-219.1666717529297,36.666664123535156 L-219.1666717529297,34.666664123535156 L-220.1666717529297,34.666664123535156 L-224.1666717529297,34.666664123535156 A4,4 90 0 1 -228.1666717529297,30.666664123535156 L-228.1666717529297,26.666664123535156 z"/><text style="font-size:10px;fill:#282828;font-family:sans-serif;text-anchor:start" id="svg_77" x="-228.667" y="-69.833"><tspan id="svg_78" x="-208.667" y="-54.833">note</tspan></text><text style="font-size:6.666666666666667px;fill:#282828;font-family:sans-serif;text-anchor:end" id="svg_79" x="-228.667" y="-69.833"><tspan id="svg_80" x="-143.667" y="-57.833">value</tspan></text></g></g><g id="svg_81" transform="translate(357, 362) scale(0.5)"><g style="isolation:isolate" id="svg_82"><g id="レイヤー_2" data-name="レイヤー 2"><g id="Icon"><rect style="fill:#292929;opacity:.4;mix-blend-mode:multiply" id="svg_83" width="42" height="42" x="-686" y="-209.5" rx="5" ry="5"/><path style="fill:#fff" id="svg_84" d="M-655.4400005340576,-179.70000076293945 l-4.170000076293945,-4.159999847412109 h2.259999990463257 a1,1 0 1 0 0,-2.069999933242798 H-662.0599994659424 a1.0800000429153442,1.0800000429153442 0 0 0 -1.1100000143051147,1 v0 s0,0 0,0.05999999865889549 v4.639999866485596 h0 a1,1 0 1 0 2.0799999237060547,0 V-182.42000007629395 l4.190000057220459,4.190000057220459 a1,1 0 0 0 1.4600000381469727,0 A1,1 0 0 0 -655.4400005340576,-179.70000076293945 z"/><path style="fill:#fff" id="svg_85" d="M-666.829999923706,-184.89999961853027 a1.0800000429153442,1.0800000429153442 0 0 0 -1.1100000143051147,-1 H-672.6499996185303 a1,1 0 1 0 0,2.069999933242798 H-670.3999996185303 L-674.5600004196167,-179.70000076293945 a1,1 0 0 0 1.4700000286102295,1.4700000286102295 l4.179999828338623,-4.190000057220459 v2.259999990463257 a1,1 0 1 0 2.0799999237060547,0 V-184.79999923706055 s0,0 0,-0.05999999865889549 A0.07999999821186066,0.07999999821186066 0 0 1 -666.829999923706,-184.89999961853027 z"/><path style="fill:#fff" id="svg_86" d="M-662.0599994659424,-189 h4.699999809265137 a1,1 0 1 0 0,-2.0799999237060547 H-659.6100006103516 l4.170000076293945,-4.159999847412109 a1,1 0 0 0 0,-1.4700000286102295 a1,1 0 0 0 -1.4600000381469727,0 L-661.0900001525879,-192.5 V-194.7799997329712 a1,1 0 1 0 -2.0799999237060547,0 v4.639999866485596 a0.4300000071525574,0.4300000071525574 0 0 0 0,0.05000000074505806 v0.05000000074505806 A1.090000033378601,1.090000033378601 0 0 0 -662.0599994659424,-189 z"/><path style="fill:#fff" id="svg_87" d="M-667.8700008392334,-195.88000011444092 a1.0800000429153442,1.0800000429153442 0 0 0 -1,1.090000033378601 V-192.5 l-4.179999828338623,-4.190000057220459 a1,1 0 0 0 -1.4700000286102295,0 a1,1 0 0 0 0,1.4600000381469727 l4.159999847412109,4.170000076293945 H-672.6499996185303 a1,1 0 1 0 0,2.0799999237060547 h4.710000038146973 a1.090000033378601,1.090000033378601 0 0 0 1.1100000143051147,-1 a0.07999999821186066,0.07999999821186066 0 0 1 0,0 s0,0 0,-0.05999999865889549 V-194.78999996185303 A1.0700000524520874,1.0700000524520874 0 0 0 -667.8700008392334,-195.88000011444092 z"/></g></g></g></g></g><g id="svg_88"><g id="svg_89" transform="translate(489, 358) scale(1.5)"><path style="fill:#ff5293;fill-opacity:1;stroke:#ff2c76;stroke-width:1;stroke-linecap:round;stroke-opacity:1" id="svg_90" d="m-220.1666717529297,-61.333335876464844 L-220.1666717529297,-65.33333587646484 A4,4 90 0 1 -216.1666717529297,-69.33333587646484 L-212.1666717529297,-69.33333587646484 L-202.1666717529297,-69.33333587646484 L-172.1666717529297,-69.33333587646484 L-168.1666717529297,-69.33333587646484 A4,4 90 0 1 -164.1666717529297,-65.33333587646484 L-164.1666717529297,-61.333335876464844 L-168.1666717529297,-61.333335876464844 L-168.1666717529297,-64.33333587646484 L-172.1666717529297,-64.33333587646484 L-172.1666717529297,-54.333335876464844 L-168.1666717529297,-54.333335876464844 L-168.1666717529297,-57.333335876464844 L-164.1666717529297,-57.333335876464844 L-164.1666717529297,-40.333335876464844 L-168.1666717529297,-40.333335876464844 L-168.1666717529297,-43.333335876464844 L-172.1666717529297,-43.333335876464844 L-172.1666717529297,-33.333335876464844 L-168.1666717529297,-33.333335876464844 L-168.1666717529297,-36.333335876464844 L-164.1666717529297,-36.333335876464844 L-164.1666717529297,-32.333335876464844 A4,4 90 0 1 -168.1666717529297,-28.333335876464844 L-172.1666717529297,-28.333335876464844 L-202.1666717529297,-28.333335876464844 L-212.1666717529297,-28.333335876464844 L-216.1666717529297,-28.333335876464844 A4,4 90 0 1 -220.1666717529297,-32.333335876464844 L-220.1666717529297,-36.333335876464844 L-220.1666717529297,-57.333335876464844 L-220.1666717529297,-58.333335876464844 L-226.1666717529297,-58.333335876464844 L-226.1666717529297,-55.333335876464844 L-228.1666717529297,-55.333335876464844 L-228.1666717529297,-63.333335876464844 L-226.1666717529297,-63.333335876464844 L-226.1666717529297,-60.333335876464844 L-220.1666717529297,-60.333335876464844 L-220.1666717529297,-61.333335876464844 z"/><text style="font-size:9px;fill:#282828;font-family:sans-serif;text-anchor:end" id="svg_91" x="-228.667" y="-69.833"><tspan id="svg_92" x="-174.667" y="-46.833">➗</tspan></text></g></g><g id="svg_97"><g id="svg_98" transform="translate(575, 358) scale(1.5)"><path style="fill:#ff5293;fill-opacity:1;stroke:#ff2c76;stroke-width:1;stroke-linecap:round;stroke-opacity:1" id="svg_99" d="m-220.1666717529297,-69.33333587646484 L-160.1666717529297,-69.33333587646484 L-160.1666717529297,-49.333335876464844 L-220.1666717529297,-49.333335876464844 L-220.1666717529297,-57.333335876464844 L-220.1666717529297,-58.333335876464844 L-226.1666717529297,-58.333335876464844 L-226.1666717529297,-55.333335876464844 L-228.1666717529297,-55.333335876464844 L-228.1666717529297,-63.333335876464844 L-226.1666717529297,-63.333335876464844 L-226.1666717529297,-60.333335876464844 L-220.1666717529297,-60.333335876464844 L-220.1666717529297,-61.333335876464844 z"/><text style="font-size:10px;fill:#282828;font-family:sans-serif;text-anchor:start" id="svg_100" x="-228.667" y="-69.833"><tspan id="svg_101" x="-215.667" y="-55.833">1</tspan></text></g></g><g id="svg_102"><g id="svg_103" transform="translate(575, 390) scale(1.5)"><path style="fill:#ff5293;fill-opacity:1;stroke:#ff2c76;stroke-width:1;stroke-linecap:round;stroke-opacity:1" id="svg_104" d="m-220.1666717529297,-69.33333587646484 L-160.1666717529297,-69.33333587646484 L-160.1666717529297,-49.333335876464844 L-220.1666717529297,-49.333335876464844 L-220.1666717529297,-57.333335876464844 L-220.1666717529297,-58.333335876464844 L-226.1666717529297,-58.333335876464844 L-226.1666717529297,-55.333335876464844 L-228.1666717529297,-55.333335876464844 L-228.1666717529297,-63.333335876464844 L-226.1666717529297,-63.333335876464844 L-226.1666717529297,-60.333335876464844 L-220.1666717529297,-60.333335876464844 L-220.1666717529297,-61.333335876464844 z"/><text style="font-size:10px;fill:#282828;font-family:sans-serif;text-anchor:start" id="svg_105" x="-228.667" y="-69.833"><tspan id="svg_106" x="-215.667" y="-55.833">4</tspan></text></g></g><g id="svg_107"><g id="svg_108" transform="translate(371, 390) scale(1.5)"><path style="fill:#b0b0b0;fill-opacity:1;stroke:#a0a0a0;stroke-width:1;stroke-linecap:round;stroke-opacity:1" id="svg_109" d="m-228.1666717529297,-61.333335876464844 L-228.1666717529297,-65.33333587646484 A4,4 90 0 1 -224.1666717529297,-69.33333587646484 L-220.1666717529297,-69.33333587646484 L-220.1666717529297,-67.33333587646484 L-210.1666717529297,-67.33333587646484 L-210.1666717529297,-69.33333587646484 L-190.1666717529297,-69.33333587646484 L-186.1666717529297,-69.33333587646484 A4,4 90 0 1 -182.1666717529297,-65.33333587646484 L-182.1666717529297,-61.333335876464844 L-182.1666717529297,-57.333335876464844 L-182.1666717529297,-53.333335876464844 A4,4 90 0 1 -186.1666717529297,-49.333335876464844 L-190.1666717529297,-49.333335876464844 L-210.1666717529297,-49.333335876464844 L-211.1666717529297,-49.333335876464844 L-211.1666717529297,-47.333335876464844 L-219.1666717529297,-47.333335876464844 L-219.1666717529297,-49.333335876464844 L-220.1666717529297,-49.333335876464844 L-224.1666717529297,-49.333335876464844 A4,4 90 0 1 -228.1666717529297,-53.333335876464844 L-228.1666717529297,-57.333335876464844 z"/><text style="font-size:10px;fill:#282828;font-family:sans-serif;text-anchor:end" id="svg_110" x="-228.667" y="-69.833"><tspan id="svg_111" x="-192.667" y="-55.833">↓</tspan></text></g></g><g id="svg_112"><g id="svg_113" transform="translate(371, 422) scale(1.5)"><path style="fill:#77c428;fill-opacity:1;stroke:#57ad02;stroke-width:1;stroke-linecap:round;stroke-opacity:1" id="svg_114" d="m-228.1666717529297,-61.333335876464844 L-228.1666717529297,-65.33333587646484 A4,4 90 0 1 -224.1666717529297,-69.33333587646484 L-220.1666717529297,-69.33333587646484 L-220.1666717529297,-67.33333587646484 L-210.1666717529297,-67.33333587646484 L-210.1666717529297,-69.33333587646484 L-180.1666717529297,-69.33333587646484 L-176.1666717529297,-69.33333587646484 A4,4 90 0 1 -172.1666717529297,-65.33333587646484 L-172.1666717529297,-61.333335876464844 L-176.1666717529297,-61.333335876464844 L-176.1666717529297,-64.33333587646484 L-180.1666717529297,-64.33333587646484 L-180.1666717529297,-54.333335876464844 L-176.1666717529297,-54.333335876464844 L-176.1666717529297,-57.333335876464844 L-172.1666717529297,-57.333335876464844 L-172.1666717529297,-40.333335876464844 L-176.1666717529297,-40.333335876464844 L-176.1666717529297,-43.333335876464844 L-180.1666717529297,-43.333335876464844 L-180.1666717529297,-33.333335876464844 L-176.1666717529297,-33.333335876464844 L-176.1666717529297,-36.333335876464844 L-172.1666717529297,-36.333335876464844 L-172.1666717529297,-32.333335876464844 A4,4 90 0 1 -176.1666717529297,-28.333335876464844 L-180.1666717529297,-28.333335876464844 L-210.1666717529297,-28.333335876464844 L-211.1666717529297,-28.333335876464844 L-211.1666717529297,-26.333335876464844 L-219.1666717529297,-26.333335876464844 L-219.1666717529297,-28.333335876464844 L-220.1666717529297,-28.333335876464844 L-224.1666717529297,-28.333335876464844 A4,4 90 0 1 -228.1666717529297,-32.333335876464844 L-228.1666717529297,-36.333335876464844 L-228.1666717529297,-57.333335876464844 L-228.1666717529297,-61.333335876464844 z"/><text style="font-size:10px;fill:#282828;font-family:sans-serif;text-anchor:end" id="svg_115" x="-228.667" y="-69.833"><tspan id="svg_116" x="-182.667" y="-45.833">pitch</tspan></text><text style="font-size:6.666666666666667px;fill:#282828;font-family:sans-serif;text-anchor:end" id="svg_117" x="-228.667" y="-69.833"><tspan id="svg_118" x="-182.667" y="-57.833">name</tspan></text><text style="font-size:6.666666666666667px;fill:#282828;font-family:sans-serif;text-anchor:end" id="svg_119" x="-228.667" y="-69.833"><tspan id="svg_120" x="-182.667" y="-36.833">octave</tspan></text></g></g><g id="svg_121"><g id="svg_122" transform="translate(445, 422) scale(1.5)"><path style="fill:#77c428;fill-opacity:1;stroke:#57ad02;stroke-width:1;stroke-linecap:round;stroke-opacity:1" id="svg_123" d="m-220.1666717529297,-69.33333587646484 L-160.1666717529297,-69.33333587646484 L-160.1666717529297,-49.333335876464844 L-220.1666717529297,-49.333335876464844 L-220.1666717529297,-57.333335876464844 L-220.1666717529297,-58.333335876464844 L-226.1666717529297,-58.333335876464844 L-226.1666717529297,-55.333335876464844 L-228.1666717529297,-55.333335876464844 L-228.1666717529297,-63.333335876464844 L-226.1666717529297,-63.333335876464844 L-226.1666717529297,-60.333335876464844 L-220.1666717529297,-60.333335876464844 L-220.1666717529297,-61.333335876464844 z"/><text style="font-size:10px;fill:#282828;font-family:sans-serif;text-anchor:start" id="svg_124" x="-228.667" y="-69.833"><tspan id="svg_125" x="-215.667" y="-55.833">mi</tspan></text></g></g><g id="svg_126"><g id="svg_127" transform="translate(445, 454) scale(1.5)"><path style="fill:#ff5293;fill-opacity:1;stroke:#ff2c76;stroke-width:1;stroke-linecap:round;stroke-opacity:1" id="svg_128" d="m-220.1666717529297,-69.33333587646484 L-160.1666717529297,-69.33333587646484 L-160.1666717529297,-49.333335876464844 L-220.1666717529297,-49.333335876464844 L-220.1666717529297,-57.333335876464844 L-220.1666717529297,-58.333335876464844 L-226.1666717529297,-58.333335876464844 L-226.1666717529297,-55.333335876464844 L-228.1666717529297,-55.333335876464844 L-228.1666717529297,-63.333335876464844 L-226.1666717529297,-63.333335876464844 L-226.1666717529297,-60.333335876464844 L-220.1666717529297,-60.333335876464844 L-220.1666717529297,-61.333335876464844 z"/><text style="font-size:10px;fill:#282828;font-family:sans-serif;text-anchor:start" id="svg_129" x="-228.667" y="-69.833"><tspan id="svg_130" x="-215.667" y="-55.833">5</tspan></text></g></g><g id="svg_131"><g id="svg_132"><g id="svg_133" transform="translate(343, 104) scale(1.5)"><path style="fill:#77c428;fill-opacity:1;stroke:#57ad02;stroke-width:1;stroke-linecap:round;stroke-opacity:1" id="svg_134" d="m-228.1666717529297,-61.333335876464844 L-228.1666717529297,-65.33333587646484 A4,4 90 0 1 -224.1666717529297,-69.33333587646484 L-220.1666717529297,-69.33333587646484 L-220.1666717529297,-67.33333587646484 L-210.1666717529297,-67.33333587646484 L-210.1666717529297,-69.33333587646484 L-201.1666717529297,-69.33333587646484 L-82.16667175292969,-69.33333587646484 L-78.16667175292969,-69.33333587646484 A4,4 90 0 1 -74.16667175292969,-65.33333587646484 L-74.16667175292969,-61.333335876464844 L-78.16667175292969,-61.333335876464844 L-78.16667175292969,-64.33333587646484 L-82.16667175292969,-64.33333587646484 L-82.16667175292969,-54.333335876464844 L-78.16667175292969,-54.333335876464844 L-78.16667175292969,-57.333335876464844 L-74.16667175292969,-57.333335876464844 L-74.16667175292969,-53.333335876464844 A4,4 90 0 1 -78.16667175292969,-49.333335876464844 L-82.16667175292969,-49.333335876464844 L-201.1666717529297,-49.333335876464844 L-202.1666717529297,-49.333335876464844 L-202.1666717529297,-47.333335876464844 L-210.1666717529297,-47.333335876464844 L-210.1666717529297,-49.333335876464844 L-211.1666717529297,-49.333335876464844 L-215.1666717529297,-49.333335876464844 A5,5 90 0 0 -220.1666717529297,-44.333335876464844 L-220.1666717529297,-40.333335876464844 L-220.1666717529297,-36.333335876464844 L-220.1666717529297,194.66666412353516 L-220.1666717529297,198.66666412353516 A5,5 90 0 0 -215.1666717529297,203.66666412353516 L-211.1666717529297,203.66666412353516 L-211.1666717529297,205.66666412353516 L-201.1666717529297,205.66666412353516 L-201.1666717529297,203.66666412353516 L-193.1666717529297,203.66666412353516 L-193.1666717529297,209.66666412353516 L-193.1666717529297,215.66666412353516 L-193.1666717529297,219.66666412353516 A4,4 90 0 1 -197.1666717529297,223.66666412353516 L-201.1666717529297,223.66666412353516 L-210.1666717529297,223.66666412353516 L-211.1666717529297,223.66666412353516 L-211.1666717529297,225.66666412353516 L-219.1666717529297,225.66666412353516 L-219.1666717529297,223.66666412353516 L-220.1666717529297,223.66666412353516 L-224.1666717529297,223.66666412353516 A4,4 90 0 1 -228.1666717529297,219.66666412353516 L-228.1666717529297,215.66666412353516 z"/><text style="font-size:10px;fill:#282828;font-family:sans-serif;text-anchor:start" id="svg_135" x="-228.667" y="-69.833"><tspan id="svg_136" x="-208.667" y="-54.833">scalar interval (+/–)</tspan></text></g></g><g id="svg_139" transform="translate(343, 108) scale(0.5)"><g style="isolation:isolate" id="svg_140"><g id="レイヤー_2" data-name="レイヤー 2"><g id="Icon"><rect style="fill:#292929;opacity:.4;mix-blend-mode:multiply" id="svg_141" width="42" height="42" x="-686" y="-209.5" rx="5" ry="5"/><path style="fill:#fff" id="svg_142" d="M-655.4400005340576,-179.70000076293945 l-4.170000076293945,-4.159999847412109 h2.259999990463257 a1,1 0 1 0 0,-2.069999933242798 H-662.0599994659424 a1.0800000429153442,1.0800000429153442 0 0 0 -1.1100000143051147,1 v0 s0,0 0,0.05999999865889549 v4.639999866485596 h0 a1,1 0 1 0 2.0799999237060547,0 V-182.42000007629395 l4.190000057220459,4.190000057220459 a1,1 0 0 0 1.4600000381469727,0 A1,1 0 0 0 -655.4400005340576,-179.70000076293945 z"/><path style="fill:#fff" id="svg_143" d="M-666.829999923706,-184.89999961853027 a1.0800000429153442,1.0800000429153442 0 0 0 -1.1100000143051147,-1 H-672.6499996185303 a1,1 0 1 0 0,2.069999933242798 H-670.3999996185303 L-674.5600004196167,-179.70000076293945 a1,1 0 0 0 1.4700000286102295,1.4700000286102295 l4.179999828338623,-4.190000057220459 v2.259999990463257 a1,1 0 1 0 2.0799999237060547,0 V-184.79999923706055 s0,0 0,-0.05999999865889549 A0.07999999821186066,0.07999999821186066 0 0 1 -666.829999923706,-184.89999961853027 z"/><path style="fill:#fff" id="svg_144" d="M-662.0599994659424,-189 h4.699999809265137 a1,1 0 1 0 0,-2.0799999237060547 H-659.6100006103516 l4.170000076293945,-4.159999847412109 a1,1 0 0 0 0,-1.4700000286102295 a1,1 0 0 0 -1.4600000381469727,0 L-661.0900001525879,-192.5 V-194.7799997329712 a1,1 0 1 0 -2.0799999237060547,0 v4.639999866485596 a0.4300000071525574,0.4300000071525574 0 0 0 0,0.05000000074505806 v0.05000000074505806 A1.090000033378601,1.090000033378601 0 0 0 -662.0599994659424,-189 z"/><path style="fill:#fff" id="svg_145" d="M-667.8700008392334,-195.88000011444092 a1.0800000429153442,1.0800000429153442 0 0 0 -1,1.090000033378601 V-192.5 l-4.179999828338623,-4.190000057220459 a1,1 0 0 0 -1.4700000286102295,0 a1,1 0 0 0 0,1.4600000381469727 l4.159999847412109,4.170000076293945 H-672.6499996185303 a1,1 0 1 0 0,2.0799999237060547 h4.710000038146973 a1.090000033378601,1.090000033378601 0 0 0 1.1100000143051147,-1 a0.07999999821186066,0.07999999821186066 0 0 1 0,0 s0,0 0,-0.05999999865889549 V-194.78999996185303 A1.0700000524520874,1.0700000524520874 0 0 0 -667.8700008392334,-195.88000011444092 z"/></g></g></g></g></g><g id="svg_146"><g id="svg_147" transform="translate(564, 104) scale(1.5)"><path style="fill:#ff5293;fill-opacity:1;stroke:#ff2c76;stroke-width:1;stroke-linecap:round;stroke-opacity:1" id="svg_148" d="m-220.1666717529297,-61.333335876464844 L-220.1666717529297,-65.33333587646484 A4,4 90 0 1 -216.1666717529297,-69.33333587646484 L-212.1666717529297,-69.33333587646484 L-202.1666717529297,-69.33333587646484 L-172.1666717529297,-69.33333587646484 L-168.1666717529297,-69.33333587646484 A4,4 90 0 1 -164.1666717529297,-65.33333587646484 L-164.1666717529297,-61.333335876464844 L-168.1666717529297,-61.333335876464844 L-168.1666717529297,-64.33333587646484 L-172.1666717529297,-64.33333587646484 L-172.1666717529297,-54.333335876464844 L-168.1666717529297,-54.333335876464844 L-168.1666717529297,-57.333335876464844 L-164.1666717529297,-57.333335876464844 L-164.1666717529297,-40.333335876464844 L-168.1666717529297,-40.333335876464844 L-168.1666717529297,-43.333335876464844 L-172.1666717529297,-43.333335876464844 L-172.1666717529297,-33.333335876464844 L-168.1666717529297,-33.333335876464844 L-168.1666717529297,-36.333335876464844 L-164.1666717529297,-36.333335876464844 L-164.1666717529297,-32.333335876464844 A4,4 90 0 1 -168.1666717529297,-28.333335876464844 L-172.1666717529297,-28.333335876464844 L-202.1666717529297,-28.333335876464844 L-212.1666717529297,-28.333335876464844 L-216.1666717529297,-28.333335876464844 A4,4 90 0 1 -220.1666717529297,-32.333335876464844 L-220.1666717529297,-36.333335876464844 L-220.1666717529297,-57.333335876464844 L-220.1666717529297,-58.333335876464844 L-226.1666717529297,-58.333335876464844 L-226.1666717529297,-55.333335876464844 L-228.1666717529297,-55.333335876464844 L-228.1666717529297,-63.333335876464844 L-226.1666717529297,-63.333335876464844 L-226.1666717529297,-60.333335876464844 L-220.1666717529297,-60.333335876464844 L-220.1666717529297,-61.333335876464844 z"/><text style="font-size:14px;fill:#282828;font-family:sans-serif;text-anchor:end" id="svg_149" x="-228.667" y="-69.833"><tspan id="svg_150" x="-174.667" y="-45.833">+</tspan></text></g></g><g id="svg_155"><g id="svg_156" transform="translate(650, 136) scale(1.5)"><path style="fill:#ff5293;fill-opacity:1;stroke:#ff2c76;stroke-width:1;stroke-linecap:round;stroke-opacity:1" id="svg_157" d="m-220.1666717529297,-61.333335876464844 L-220.1666717529297,-65.33333587646484 A4,4 90 0 1 -216.1666717529297,-69.33333587646484 L-212.1666717529297,-69.33333587646484 L-202.1666717529297,-69.33333587646484 L-172.1666717529297,-69.33333587646484 L-168.1666717529297,-69.33333587646484 A4,4 90 0 1 -164.1666717529297,-65.33333587646484 L-164.1666717529297,-61.333335876464844 L-168.1666717529297,-61.333335876464844 L-168.1666717529297,-64.33333587646484 L-172.1666717529297,-64.33333587646484 L-172.1666717529297,-54.333335876464844 L-168.1666717529297,-54.333335876464844 L-168.1666717529297,-57.333335876464844 L-164.1666717529297,-57.333335876464844 L-164.1666717529297,-40.333335876464844 L-168.1666717529297,-40.333335876464844 L-168.1666717529297,-43.333335876464844 L-172.1666717529297,-43.333335876464844 L-172.1666717529297,-33.333335876464844 L-168.1666717529297,-33.333335876464844 L-168.1666717529297,-36.333335876464844 L-164.1666717529297,-36.333335876464844 L-164.1666717529297,-32.333335876464844 A4,4 90 0 1 -168.1666717529297,-28.333335876464844 L-172.1666717529297,-28.333335876464844 L-202.1666717529297,-28.333335876464844 L-212.1666717529297,-28.333335876464844 L-216.1666717529297,-28.333335876464844 A4,4 90 0 1 -220.1666717529297,-32.333335876464844 L-220.1666717529297,-36.333335876464844 L-220.1666717529297,-57.333335876464844 L-220.1666717529297,-58.333335876464844 L-226.1666717529297,-58.333335876464844 L-226.1666717529297,-55.333335876464844 L-228.1666717529297,-55.333335876464844 L-228.1666717529297,-63.333335876464844 L-226.1666717529297,-63.333335876464844 L-226.1666717529297,-60.333335876464844 L-220.1666717529297,-60.333335876464844 L-220.1666717529297,-61.333335876464844 z"/><text style="font-size:14px;fill:#282828;font-family:sans-serif;text-anchor:end" id="svg_158" x="-228.667" y="-69.833"><tspan id="svg_159" x="-174.667" y="-45.833">×</tspan></text></g></g><g id="svg_164"><g id="svg_165" transform="translate(736, 136) scale(1.5)"><path style="fill:#ff5293;fill-opacity:1;stroke:#ff2c76;stroke-width:1;stroke-linecap:round;stroke-opacity:1" id="svg_166" d="m-220.1666717529297,-69.33333587646484 L-160.1666717529297,-69.33333587646484 L-160.1666717529297,-49.333335876464844 L-220.1666717529297,-49.333335876464844 L-220.1666717529297,-57.333335876464844 L-220.1666717529297,-58.333335876464844 L-226.1666717529297,-58.333335876464844 L-226.1666717529297,-55.333335876464844 L-228.1666717529297,-55.333335876464844 L-228.1666717529297,-63.333335876464844 L-226.1666717529297,-63.333335876464844 L-226.1666717529297,-60.333335876464844 L-220.1666717529297,-60.333335876464844 L-220.1666717529297,-61.333335876464844 z"/><text style="font-size:10px;fill:#282828;font-family:sans-serif;text-anchor:start" id="svg_167" x="-228.667" y="-69.833"><tspan id="svg_168" x="-215.667" y="-55.833">0</tspan></text></g></g><g id="svg_169"><g id="svg_170" transform="translate(650, 104) scale(1.5)"><path style="fill:#ff5293;fill-opacity:1;stroke:#ff2c76;stroke-width:1;stroke-linecap:round;stroke-opacity:1" id="svg_171" d="m-220.1666717529297,-69.33333587646484 L-160.1666717529297,-69.33333587646484 L-160.1666717529297,-49.333335876464844 L-220.1666717529297,-49.333335876464844 L-220.1666717529297,-57.333335876464844 L-220.1666717529297,-58.333335876464844 L-226.1666717529297,-58.333335876464844 L-226.1666717529297,-55.333335876464844 L-228.1666717529297,-55.333335876464844 L-228.1666717529297,-63.333335876464844 L-226.1666717529297,-63.333335876464844 L-226.1666717529297,-60.333335876464844 L-220.1666717529297,-60.333335876464844 L-220.1666717529297,-61.333335876464844 z"/><text style="font-size:10px;fill:#282828;font-family:sans-serif;text-anchor:start" id="svg_172" x="-228.667" y="-69.833"><tspan id="svg_173" x="-215.667" y="-55.833">4</tspan></text></g></g><g id="svg_174"><g id="svg_175" transform="translate(736, 168) scale(1.5)"><path style="fill:#77c428;fill-opacity:1;stroke:#57ad02;stroke-width:1;stroke-linecap:round;stroke-opacity:1" id="svg_176" d="m-220.1666717529297,-69.33333587646484 L-120.16667175292969,-69.33333587646484 L-120.16667175292969,-49.333335876464844 L-220.1666717529297,-49.333335876464844 L-220.1666717529297,-57.333335876464844 L-220.1666717529297,-58.333335876464844 L-226.1666717529297,-58.333335876464844 L-226.1666717529297,-55.333335876464844 L-228.1666717529297,-55.333335876464844 L-228.1666717529297,-63.333335876464844 L-226.1666717529297,-63.333335876464844 L-226.1666717529297,-60.333335876464844 L-220.1666717529297,-60.333335876464844 L-220.1666717529297,-61.333335876464844 z"/><text style="font-size:10px;fill:#282828;font-family:sans-serif;text-anchor:start" id="svg_177" x="-228.667" y="-69.833"><tspan id="svg_178" x="-215.667" y="-55.833">mode length</tspan></text></g></g><g id="svg_179"><g id="svg_180" transform="translate(357, 136) scale(1.5)"><path style="fill:#b0b0b0;fill-opacity:1;stroke:#a0a0a0;stroke-width:1;stroke-linecap:round;stroke-opacity:1" id="svg_181" d="m-228.1666717529297,-61.333335876464844 L-228.1666717529297,-65.33333587646484 A4,4 90 0 1 -224.1666717529297,-69.33333587646484 L-220.1666717529297,-69.33333587646484 L-220.1666717529297,-67.33333587646484 L-210.1666717529297,-67.33333587646484 L-210.1666717529297,-69.33333587646484 L-190.1666717529297,-69.33333587646484 L-186.1666717529297,-69.33333587646484 A4,4 90 0 1 -182.1666717529297,-65.33333587646484 L-182.1666717529297,-61.333335876464844 L-182.1666717529297,-57.333335876464844 L-182.1666717529297,-53.333335876464844 A4,4 90 0 1 -186.1666717529297,-49.333335876464844 L-190.1666717529297,-49.333335876464844 L-210.1666717529297,-49.333335876464844 L-211.1666717529297,-49.333335876464844 L-211.1666717529297,-47.333335876464844 L-219.1666717529297,-47.333335876464844 L-219.1666717529297,-49.333335876464844 L-220.1666717529297,-49.333335876464844 L-224.1666717529297,-49.333335876464844 A4,4 90 0 1 -228.1666717529297,-53.333335876464844 L-228.1666717529297,-57.333335876464844 z"/><text style="font-size:10px;fill:#282828;font-family:sans-serif;text-anchor:end" id="svg_182" x="-228.667" y="-69.833"><tspan id="svg_183" x="-192.667" y="-55.833">↓</tspan></text></g></g><g id="svg_184"><g id="svg_185" transform="translate(357, 168) scale(1.5)"><path style="fill:#b0b0b0;fill-opacity:1;stroke:#a0a0a0;stroke-width:1;stroke-linecap:round;stroke-opacity:1" id="svg_186" d="m-228.1666717529297,-61.333335876464844 L-228.1666717529297,-65.33333587646484 A4,4 90 0 1 -224.1666717529297,-69.33333587646484 L-220.1666717529297,-69.33333587646484 L-220.1666717529297,-67.33333587646484 L-210.1666717529297,-67.33333587646484 L-210.1666717529297,-69.33333587646484 L-190.1666717529297,-69.33333587646484 L-186.1666717529297,-69.33333587646484 A4,4 90 0 1 -182.1666717529297,-65.33333587646484 L-182.1666717529297,-61.333335876464844 L-182.1666717529297,-57.333335876464844 L-182.1666717529297,-53.333335876464844 A4,4 90 0 1 -186.1666717529297,-49.333335876464844 L-190.1666717529297,-49.333335876464844 L-210.1666717529297,-49.333335876464844 L-211.1666717529297,-49.333335876464844 L-211.1666717529297,-47.333335876464844 L-219.1666717529297,-47.333335876464844 L-219.1666717529297,-49.333335876464844 L-220.1666717529297,-49.333335876464844 L-224.1666717529297,-49.333335876464844 A4,4 90 0 1 -228.1666717529297,-53.333335876464844 L-228.1666717529297,-57.333335876464844 z"/><text style="font-size:10px;fill:#282828;font-family:sans-serif;text-anchor:end" id="svg_187" x="-228.667" y="-69.833"><tspan id="svg_188" x="-192.667" y="-55.833">↓</tspan></text></g></g></g></svg>