<svg xmlns="http://www.w3.org/2000/svg" xmlns:svg="http://www.w3.org/2000/svg" id="svg6283" width="683" height="285" version="1.1"><metadata id="metadata6289"/><rect id="backgroundrect" width="100%" height="100%" x="0" y="0" fill="none" stroke="none"/><g id="g6281" class="currentLayer"><title id="title6120">Layer 1</title><g id="svg_15"><g id="svg_16"><g id="svg_17" transform="translate(135,256) scale(1.5)"><path style="fill:#ff8b2d;fill-opacity:1;stroke:#e86b0e;stroke-width:1;stroke-linecap:round;stroke-opacity:1" id="svg_18" d="m-89.49999845027924,-162.57143115997314 L-89.49999845027924,-166.57143115997314 A4,4 90 0 1 -85.49999845027924,-170.57143115997314 L-81.49999845027924,-170.57143115997314 L-81.49999845027924,-168.57143115997314 L-71.49999845027924,-168.57143115997314 L-71.49999845027924,-170.57143115997314 L-62.499998450279236,-170.57143115997314 L-2.499998450279236,-170.57143115997314 L1.5000015497207642,-170.57143115997314 A4,4 90 0 1 5.500001549720764,-166.57143115997314 L5.500001549720764,-162.57143115997314 L1.5000015497207642,-162.57143115997314 L1.5000015497207642,-165.57143115997314 L-2.499998450279236,-165.57143115997314 L-2.499998450279236,-155.57143115997314 L1.5000015497207642,-155.57143115997314 L1.5000015497207642,-158.57143115997314 L5.500001549720764,-158.57143115997314 L5.500001549720764,-154.57143115997314 A4,4 90 0 1 1.5000015497207642,-150.57143115997314 L-2.499998450279236,-150.57143115997314 L-62.499998450279236,-150.57143115997314 L-63.499998450279236,-150.57143115997314 L-63.499998450279236,-148.57143115997314 L-71.49999845027924,-148.57143115997314 L-71.49999845027924,-150.57143115997314 L-72.49999845027924,-150.57143115997314 L-76.49999845027924,-150.57143115997314 A5,5 90 0 0 -81.49999845027924,-145.57143115997314 L-81.49999845027924,-141.57143115997314 L-81.49999845027924,-137.57143115997314 L-81.49999845027924,-53.571431159973145 L-81.49999845027924,-49.571431159973145 A5,5 90 0 0 -76.49999845027924,-44.571431159973145 L-72.49999845027924,-44.571431159973145 L-72.49999845027924,-42.571431159973145 L-62.499998450279236,-42.571431159973145 L-62.499998450279236,-44.571431159973145 L-54.499998450279236,-44.571431159973145 L-54.499998450279236,-38.571431159973145 L-54.499998450279236,-32.571431159973145 L-54.499998450279236,-28.571431159973145 A4,4 90 0 1 -58.499998450279236,-24.571431159973145 L-62.499998450279236,-24.571431159973145 L-71.49999845027924,-24.571431159973145 L-72.49999845027924,-24.571431159973145 L-72.49999845027924,-22.571431159973145 L-80.49999845027924,-22.571431159973145 L-80.49999845027924,-24.571431159973145 L-81.49999845027924,-24.571431159973145 L-85.49999845027924,-24.571431159973145 A4,4 90 0 1 -89.49999845027924,-28.571431159973145 L-89.49999845027924,-32.571431159973145 z"/><text style="font-size:10px;fill:#282828;font-family:sans-serif;text-anchor:start" id="svg_19" x="-90" y="-171.071"><tspan id="svg_20" x="-70" y="-156.071">note</tspan></text><text style="font-size:6.666666666666667px;fill:#282828;font-family:sans-serif;text-anchor:end" id="svg_21" x="-90" y="-171.071"><tspan id="svg_22" x="-5" y="-159.071">value</tspan></text></g></g></g><g id="svg_30"><g id="svg_31" transform="translate(267,256) scale(1.5)"><path style="fill:#ff5293;fill-opacity:1;stroke:#ff2c76;stroke-width:1;stroke-linecap:round;stroke-opacity:1" id="svg_32" d="m-81.49999845027924,-162.57143115997314 L-81.49999845027924,-166.57143115997314 A4,4 90 0 1 -77.49999845027924,-170.57143115997314 L-73.49999845027924,-170.57143115997314 L-63.499998450279236,-170.57143115997314 L-33.499998450279236,-170.57143115997314 L-29.499998450279236,-170.57143115997314 A4,4 90 0 1 -25.499998450279236,-166.57143115997314 L-25.499998450279236,-162.57143115997314 L-29.499998450279236,-162.57143115997314 L-29.499998450279236,-165.57143115997314 L-33.499998450279236,-165.57143115997314 L-33.499998450279236,-155.57143115997314 L-29.499998450279236,-155.57143115997314 L-29.499998450279236,-158.57143115997314 L-25.499998450279236,-158.57143115997314 L-25.499998450279236,-141.57143115997314 L-29.499998450279236,-141.57143115997314 L-29.499998450279236,-144.57143115997314 L-33.499998450279236,-144.57143115997314 L-33.499998450279236,-134.57143115997314 L-29.499998450279236,-134.57143115997314 L-29.499998450279236,-137.57143115997314 L-25.499998450279236,-137.57143115997314 L-25.499998450279236,-133.57143115997314 A4,4 90 0 1 -29.499998450279236,-129.57143115997314 L-33.499998450279236,-129.57143115997314 L-63.499998450279236,-129.57143115997314 L-73.49999845027924,-129.57143115997314 L-77.49999845027924,-129.57143115997314 A4,4 90 0 1 -81.49999845027924,-133.57143115997314 L-81.49999845027924,-137.57143115997314 L-81.49999845027924,-158.57143115997314 L-81.49999845027924,-159.57143115997314 L-87.49999845027924,-159.57143115997314 L-87.49999845027924,-156.57143115997314 L-89.49999845027924,-156.57143115997314 L-89.49999845027924,-164.57143115997314 L-87.49999845027924,-164.57143115997314 L-87.49999845027924,-161.57143115997314 L-81.49999845027924,-161.57143115997314 L-81.49999845027924,-162.57143115997314 z"/><text style="font-size:9px;fill:#282828;font-family:sans-serif;text-anchor:end" id="svg_33" x="-90" y="-171.071"><tspan id="svg_34" x="-36" y="-148.071">➗</tspan></text></g></g><g id="svg_39"><g id="svg_40" transform="translate(353,256) scale(1.5)"><path style="fill:#ff5293;fill-opacity:1;stroke:#ff2c76;stroke-width:1;stroke-linecap:round;stroke-opacity:1" id="svg_41" d="m-81.49999845027924,-170.57143115997314 L-21.499998450279236,-170.57143115997314 L-21.499998450279236,-150.57143115997314 L-81.49999845027924,-150.57143115997314 L-81.49999845027924,-158.57143115997314 L-81.49999845027924,-159.57143115997314 L-87.49999845027924,-159.57143115997314 L-87.49999845027924,-156.57143115997314 L-89.49999845027924,-156.57143115997314 L-89.49999845027924,-164.57143115997314 L-87.49999845027924,-164.57143115997314 L-87.49999845027924,-161.57143115997314 L-81.49999845027924,-161.57143115997314 L-81.49999845027924,-162.57143115997314 z"/><text style="font-size:10px;fill:#282828;font-family:sans-serif;text-anchor:start" id="svg_42" x="-90" y="-171.071"><tspan id="svg_43" x="-77" y="-157.071">1</tspan></text></g></g><g id="svg_44"><g id="svg_45" transform="translate(353,288) scale(1.5)"><path style="fill:#ff5293;fill-opacity:1;stroke:#ff2c76;stroke-width:1;stroke-linecap:round;stroke-opacity:1" id="svg_46" d="m-81.49999845027924,-170.57143115997314 L-21.499998450279236,-170.57143115997314 L-21.499998450279236,-150.57143115997314 L-81.49999845027924,-150.57143115997314 L-81.49999845027924,-158.57143115997314 L-81.49999845027924,-159.57143115997314 L-87.49999845027924,-159.57143115997314 L-87.49999845027924,-156.57143115997314 L-89.49999845027924,-156.57143115997314 L-89.49999845027924,-164.57143115997314 L-87.49999845027924,-164.57143115997314 L-87.49999845027924,-161.57143115997314 L-81.49999845027924,-161.57143115997314 L-81.49999845027924,-162.57143115997314 z"/><text style="font-size:10px;fill:#282828;font-family:sans-serif;text-anchor:start" id="svg_47" x="-90" y="-171.071"><tspan id="svg_48" x="-77" y="-157.071">4</tspan></text></g></g><g id="svg_49"><g id="svg_50" transform="translate(149,288) scale(1.5)"><path style="fill:#b0b0b0;fill-opacity:1;stroke:#a0a0a0;stroke-width:1;stroke-linecap:round;stroke-opacity:1" id="svg_51" d="m-89.49999845027924,-162.57143115997314 L-89.49999845027924,-166.57143115997314 A4,4 90 0 1 -85.49999845027924,-170.57143115997314 L-81.49999845027924,-170.57143115997314 L-81.49999845027924,-168.57143115997314 L-71.49999845027924,-168.57143115997314 L-71.49999845027924,-170.57143115997314 L-51.499998450279236,-170.57143115997314 L-47.499998450279236,-170.57143115997314 A4,4 90 0 1 -43.499998450279236,-166.57143115997314 L-43.499998450279236,-162.57143115997314 L-43.499998450279236,-158.57143115997314 L-43.499998450279236,-154.57143115997314 A4,4 90 0 1 -47.499998450279236,-150.57143115997314 L-51.499998450279236,-150.57143115997314 L-71.49999845027924,-150.57143115997314 L-72.49999845027924,-150.57143115997314 L-72.49999845027924,-148.57143115997314 L-80.49999845027924,-148.57143115997314 L-80.49999845027924,-150.57143115997314 L-81.49999845027924,-150.57143115997314 L-85.49999845027924,-150.57143115997314 A4,4 90 0 1 -89.49999845027924,-154.57143115997314 L-89.49999845027924,-158.57143115997314 z"/><text style="font-size:10px;fill:#282828;font-family:sans-serif;text-anchor:end" id="svg_52" x="-90" y="-171.071"><tspan id="svg_53" x="-54" y="-157.071">↓</tspan></text></g></g><g id="svg_54"><g id="svg_55" transform="translate(513,417) scale(1.5)"><path style="fill:#77c428;fill-opacity:1;stroke:#57ad02;stroke-width:1;stroke-linecap:round;stroke-opacity:1" id="svg_56" d="m-90.92856979370117,-164.00000250339508 L-90.92856979370117,-168.00000250339508 A4,4 90 0 1 -86.92856979370117,-172.00000250339508 L-82.92856979370117,-172.00000250339508 L-82.92856979370117,-170.00000250339508 L-72.92856979370117,-170.00000250339508 L-72.92856979370117,-172.00000250339508 L-42.92856979370117,-172.00000250339508 L-38.92856979370117,-172.00000250339508 A4,4 90 0 1 -34.92856979370117,-168.00000250339508 L-34.92856979370117,-164.00000250339508 L-38.92856979370117,-164.00000250339508 L-38.92856979370117,-167.00000250339508 L-42.92856979370117,-167.00000250339508 L-42.92856979370117,-157.00000250339508 L-38.92856979370117,-157.00000250339508 L-38.92856979370117,-160.00000250339508 L-34.92856979370117,-160.00000250339508 L-34.92856979370117,-143.00000250339508 L-38.92856979370117,-143.00000250339508 L-38.92856979370117,-146.00000250339508 L-42.92856979370117,-146.00000250339508 L-42.92856979370117,-136.00000250339508 L-38.92856979370117,-136.00000250339508 L-38.92856979370117,-139.00000250339508 L-34.92856979370117,-139.00000250339508 L-34.92856979370117,-135.00000250339508 A4,4 90 0 1 -38.92856979370117,-131.00000250339508 L-42.92856979370117,-131.00000250339508 L-72.92856979370117,-131.00000250339508 L-73.92856979370117,-131.00000250339508 L-73.92856979370117,-129.00000250339508 L-81.92856979370117,-129.00000250339508 L-81.92856979370117,-131.00000250339508 L-82.92856979370117,-131.00000250339508 L-86.92856979370117,-131.00000250339508 A4,4 90 0 1 -90.92856979370117,-135.00000250339508 L-90.92856979370117,-139.00000250339508 L-90.92856979370117,-160.00000250339508 L-90.92856979370117,-164.00000250339508 z"/><text style="font-size:10px;fill:#282828;font-family:sans-serif;text-anchor:end" id="svg_57" x="-91.429" y="-172.5"><tspan id="svg_58" x="-45.429" y="-148.5">pitch</tspan></text><text style="font-size:6.666666666666667px;fill:#282828;font-family:sans-serif;text-anchor:end" id="svg_59" x="-91.429" y="-172.5"><tspan id="svg_60" x="-45.429" y="-160.5">name</tspan></text><text style="font-size:6.666666666666667px;fill:#282828;font-family:sans-serif;text-anchor:end" id="svg_61" x="-91.429" y="-172.5"><tspan id="svg_62" x="-45.429" y="-139.5">octave</tspan></text></g></g><g id="svg_63"><g id="svg_64" transform="translate(587,417) scale(1.5)"><path style="fill:#77c428;fill-opacity:1;stroke:#57ad02;stroke-width:1;stroke-linecap:round;stroke-opacity:1" id="svg_65" d="m-82.92856979370117,-172.00000250339508 L-22.928569793701172,-172.00000250339508 L-22.928569793701172,-152.00000250339508 L-82.92856979370117,-152.00000250339508 L-82.92856979370117,-160.00000250339508 L-82.92856979370117,-161.00000250339508 L-88.92856979370117,-161.00000250339508 L-88.92856979370117,-158.00000250339508 L-90.92856979370117,-158.00000250339508 L-90.92856979370117,-166.00000250339508 L-88.92856979370117,-166.00000250339508 L-88.92856979370117,-163.00000250339508 L-82.92856979370117,-163.00000250339508 L-82.92856979370117,-164.00000250339508 z"/><text style="font-size:10px;fill:#282828;font-family:sans-serif;text-anchor:start" id="svg_66" x="-91.429" y="-172.5"><tspan id="svg_67" x="-78.429" y="-158.5">re</tspan></text></g></g><g id="svg_68"><g id="svg_69" transform="translate(587,449) scale(1.5)"><path style="fill:#ff5293;fill-opacity:1;stroke:#ff2c76;stroke-width:1;stroke-linecap:round;stroke-opacity:1" id="svg_70" d="m-82.92856979370117,-172.00000250339508 L-22.928569793701172,-172.00000250339508 L-22.928569793701172,-152.00000250339508 L-82.92856979370117,-152.00000250339508 L-82.92856979370117,-160.00000250339508 L-82.92856979370117,-161.00000250339508 L-88.92856979370117,-161.00000250339508 L-88.92856979370117,-158.00000250339508 L-90.92856979370117,-158.00000250339508 L-90.92856979370117,-166.00000250339508 L-88.92856979370117,-166.00000250339508 L-88.92856979370117,-163.00000250339508 L-82.92856979370117,-163.00000250339508 L-82.92856979370117,-164.00000250339508 z"/><text style="font-size:10px;fill:#282828;font-family:sans-serif;text-anchor:start" id="svg_71" x="-91.429" y="-172.5"><tspan id="svg_72" x="-78.429" y="-158.5">5</tspan></text></g></g><g id="svg_73"><g id="svg_74" transform="translate(149,320) scale(1.5)"><path style="fill:#77c428;fill-opacity:1;stroke:#57ad02;stroke-width:1;stroke-linecap:round;stroke-opacity:1" id="svg_75" d="m-89.49999845027924,-162.57143115997314 L-89.49999845027924,-166.57143115997314 A4,4 90 0 1 -85.49999845027924,-170.57143115997314 L-81.49999845027924,-170.57143115997314 L-81.49999845027924,-168.57143115997314 L-71.49999845027924,-168.57143115997314 L-71.49999845027924,-170.57143115997314 L-62.499998450279236,-170.57143115997314 L-27.470701575279236,-170.57143115997314 L-23.470701575279236,-170.57143115997314 A4,4 90 0 1 -19.470701575279236,-166.57143115997314 L-19.470701575279236,-162.57143115997314 L-23.470701575279236,-162.57143115997314 L-23.470701575279236,-165.57143115997314 L-27.470701575279236,-165.57143115997314 L-27.470701575279236,-155.57143115997314 L-23.470701575279236,-155.57143115997314 L-23.470701575279236,-158.57143115997314 L-19.470701575279236,-158.57143115997314 L-19.470701575279236,-154.57143115997314 A4,4 90 0 1 -23.470701575279236,-150.57143115997314 L-27.470701575279236,-150.57143115997314 L-62.499998450279236,-150.57143115997314 L-63.499998450279236,-150.57143115997314 L-63.499998450279236,-148.57143115997314 L-71.49999845027924,-148.57143115997314 L-71.49999845027924,-150.57143115997314 L-72.49999845027924,-150.57143115997314 L-76.49999845027924,-150.57143115997314 A5,5 90 0 0 -81.49999845027924,-145.57143115997314 L-81.49999845027924,-141.57143115997314 L-81.49999845027924,-137.57143115997314 L-81.49999845027924,-116.57143115997314 L-81.49999845027924,-112.57143115997314 A5,5 90 0 0 -76.49999845027924,-107.57143115997314 L-72.49999845027924,-107.57143115997314 L-72.49999845027924,-105.57143115997314 L-62.499998450279236,-105.57143115997314 L-62.499998450279236,-107.57143115997314 L-54.499998450279236,-107.57143115997314 L-54.499998450279236,-101.57143115997314 L-54.499998450279236,-95.57143115997314 L-54.499998450279236,-91.57143115997314 A4,4 90 0 1 -58.499998450279236,-87.57143115997314 L-62.499998450279236,-87.57143115997314 L-71.49999845027924,-87.57143115997314 L-72.49999845027924,-87.57143115997314 L-72.49999845027924,-85.57143115997314 L-80.49999845027924,-85.57143115997314 L-80.49999845027924,-87.57143115997314 L-81.49999845027924,-87.57143115997314 L-85.49999845027924,-87.57143115997314 A4,4 90 0 1 -89.49999845027924,-91.57143115997314 L-89.49999845027924,-95.57143115997314 z"/><text style="font-size:10px;fill:#282828;font-family:sans-serif;text-anchor:start" id="svg_76" x="-90" y="-171.071"><tspan id="svg_77" x="-85" y="-156.071">accidental</tspan></text></g></g><g id="svg_80"><g id="svg_81" transform="translate(163,352) scale(1.5)"><path style="fill:#77c428;fill-opacity:1;stroke:#57ad02;stroke-width:1;stroke-linecap:round;stroke-opacity:1" id="svg_82" d="m-89.49999845027924,-162.57143115997314 L-89.49999845027924,-166.57143115997314 A4,4 90 0 1 -85.49999845027924,-170.57143115997314 L-81.49999845027924,-170.57143115997314 L-81.49999845027924,-168.57143115997314 L-71.49999845027924,-168.57143115997314 L-71.49999845027924,-170.57143115997314 L-41.499998450279236,-170.57143115997314 L-37.499998450279236,-170.57143115997314 A4,4 90 0 1 -33.499998450279236,-166.57143115997314 L-33.499998450279236,-162.57143115997314 L-37.499998450279236,-162.57143115997314 L-37.499998450279236,-165.57143115997314 L-41.499998450279236,-165.57143115997314 L-41.499998450279236,-155.57143115997314 L-37.499998450279236,-155.57143115997314 L-37.499998450279236,-158.57143115997314 L-33.499998450279236,-158.57143115997314 L-33.499998450279236,-141.57143115997314 L-37.499998450279236,-141.57143115997314 L-37.499998450279236,-144.57143115997314 L-41.499998450279236,-144.57143115997314 L-41.499998450279236,-134.57143115997314 L-37.499998450279236,-134.57143115997314 L-37.499998450279236,-137.57143115997314 L-33.499998450279236,-137.57143115997314 L-33.499998450279236,-133.57143115997314 A4,4 90 0 1 -37.499998450279236,-129.57143115997314 L-41.499998450279236,-129.57143115997314 L-71.49999845027924,-129.57143115997314 L-72.49999845027924,-129.57143115997314 L-72.49999845027924,-127.57143115997314 L-80.49999845027924,-127.57143115997314 L-80.49999845027924,-129.57143115997314 L-81.49999845027924,-129.57143115997314 L-85.49999845027924,-129.57143115997314 A4,4 90 0 1 -89.49999845027924,-133.57143115997314 L-89.49999845027924,-137.57143115997314 L-89.49999845027924,-158.57143115997314 L-89.49999845027924,-162.57143115997314 z"/><text style="font-size:10px;fill:#282828;font-family:sans-serif;text-anchor:end" id="svg_83" x="-90" y="-171.071"><tspan id="svg_84" x="-44" y="-147.071">pitch</tspan></text><text style="font-size:6.666666666666667px;fill:#282828;font-family:sans-serif;text-anchor:end" id="svg_85" x="-90" y="-171.071"><tspan id="svg_86" x="-44" y="-159.071">name</tspan></text><text style="font-size:6.666666666666667px;fill:#282828;font-family:sans-serif;text-anchor:end" id="svg_87" x="-90" y="-171.071"><tspan id="svg_88" x="-44" y="-138.071">octave</tspan></text></g></g><g id="svg_89"><g id="svg_90" transform="translate(237,352) scale(1.5)"><path style="fill:#77c428;fill-opacity:1;stroke:#57ad02;stroke-width:1;stroke-linecap:round;stroke-opacity:1" id="svg_91" d="m-81.49999845027924,-170.57143115997314 L-21.499998450279236,-170.57143115997314 L-21.499998450279236,-150.57143115997314 L-81.49999845027924,-150.57143115997314 L-81.49999845027924,-158.57143115997314 L-81.49999845027924,-159.57143115997314 L-87.49999845027924,-159.57143115997314 L-87.49999845027924,-156.57143115997314 L-89.49999845027924,-156.57143115997314 L-89.49999845027924,-164.57143115997314 L-87.49999845027924,-164.57143115997314 L-87.49999845027924,-161.57143115997314 L-81.49999845027924,-161.57143115997314 L-81.49999845027924,-162.57143115997314 z"/><text style="font-size:10px;fill:#282828;font-family:sans-serif;text-anchor:start" id="svg_92" x="-90" y="-171.071"><tspan id="svg_93" x="-77" y="-157.071">re</tspan></text></g></g><g id="svg_94"><g id="svg_95" transform="translate(237,384) scale(1.5)"><path style="fill:#ff5293;fill-opacity:1;stroke:#ff2c76;stroke-width:1;stroke-linecap:round;stroke-opacity:1" id="svg_96" d="m-81.49999845027924,-170.57143115997314 L-21.499998450279236,-170.57143115997314 L-21.499998450279236,-150.57143115997314 L-81.49999845027924,-150.57143115997314 L-81.49999845027924,-158.57143115997314 L-81.49999845027924,-159.57143115997314 L-87.49999845027924,-159.57143115997314 L-87.49999845027924,-156.57143115997314 L-89.49999845027924,-156.57143115997314 L-89.49999845027924,-164.57143115997314 L-87.49999845027924,-164.57143115997314 L-87.49999845027924,-161.57143115997314 L-81.49999845027924,-161.57143115997314 L-81.49999845027924,-162.57143115997314 z"/><text style="font-size:10px;fill:#282828;font-family:sans-serif;text-anchor:start" id="svg_97" x="-90" y="-171.071"><tspan id="svg_98" x="-77" y="-157.071">5</tspan></text></g></g><g id="svg_99"><g id="svg_100" transform="translate(244,320) scale(1.5)"><path style="fill:#77c428;fill-opacity:1;stroke:#57ad02;stroke-width:1;stroke-linecap:round;stroke-opacity:1" id="svg_101" d="m-81.49999845027924,-170.57143115997314 L28.500001549720764,-170.57143115997314 L28.500001549720764,-150.57143115997314 L-81.49999845027924,-150.57143115997314 L-81.49999845027924,-158.57143115997314 L-81.49999845027924,-159.57143115997314 L-87.49999845027924,-159.57143115997314 L-87.49999845027924,-156.57143115997314 L-89.49999845027924,-156.57143115997314 L-89.49999845027924,-164.57143115997314 L-87.49999845027924,-164.57143115997314 L-87.49999845027924,-161.57143115997314 L-81.49999845027924,-161.57143115997314 L-81.49999845027924,-162.57143115997314 z"/><text style="font-size:10px;fill:#282828;font-family:sans-serif;text-anchor:start" id="svg_102" x="-90" y="-171.071"><tspan id="svg_103" x="-77" y="-157.071">flat ♭</tspan></text></g></g><g id="svg_104"><g id="svg_105" transform="translate(485,258) scale(1.5)"><path style="fill:#77c428;fill-opacity:1;stroke:#57ad02;stroke-width:1;stroke-linecap:round;stroke-opacity:1" id="svg_106" d="m-90.92856979370117,-164.00000250339508 L-90.92856979370117,-168.00000250339508 A4,4 90 0 1 -86.92856979370117,-172.00000250339508 L-82.92856979370117,-172.00000250339508 L-82.92856979370117,-170.00000250339508 L-72.92856979370117,-170.00000250339508 L-72.92856979370117,-172.00000250339508 L-63.92856979370117,-172.00000250339508 L-28.899272918701172,-172.00000250339508 L-24.899272918701172,-172.00000250339508 A4,4 90 0 1 -20.899272918701172,-168.00000250339508 L-20.899272918701172,-164.00000250339508 L-24.899272918701172,-164.00000250339508 L-24.899272918701172,-167.00000250339508 L-28.899272918701172,-167.00000250339508 L-28.899272918701172,-157.00000250339508 L-24.899272918701172,-157.00000250339508 L-24.899272918701172,-160.00000250339508 L-20.899272918701172,-160.00000250339508 L-20.899272918701172,-156.00000250339508 A4,4 90 0 1 -24.899272918701172,-152.00000250339508 L-28.899272918701172,-152.00000250339508 L-63.92856979370117,-152.00000250339508 L-64.92856979370117,-152.00000250339508 L-64.92856979370117,-150.00000250339508 L-72.92856979370117,-150.00000250339508 L-72.92856979370117,-152.00000250339508 L-73.92856979370117,-152.00000250339508 L-77.92856979370117,-152.00000250339508 A5,5 90 0 0 -82.92856979370117,-147.00000250339508 L-82.92856979370117,-143.00000250339508 L-82.92856979370117,-139.00000250339508 L-82.92856979370117,-13.00000250339508 L-82.92856979370117,-9.00000250339508 A5,5 90 0 0 -77.92856979370117,-4.000002503395081 L-73.92856979370117,-4.000002503395081 L-73.92856979370117,-2.000002503395081 L-63.92856979370117,-2.000002503395081 L-63.92856979370117,-4.000002503395081 L-55.92856979370117,-4.000002503395081 L-55.92856979370117,1.9999974966049194 L-55.92856979370117,7.999997496604919 L-55.92856979370117,11.99999749660492 A4,4 90 0 1 -59.92856979370117,15.99999749660492 L-63.92856979370117,15.99999749660492 L-72.92856979370117,15.99999749660492 L-73.92856979370117,15.99999749660492 L-73.92856979370117,17.99999749660492 L-81.92856979370117,17.99999749660492 L-81.92856979370117,15.99999749660492 L-82.92856979370117,15.99999749660492 L-86.92856979370117,15.99999749660492 A4,4 90 0 1 -90.92856979370117,11.99999749660492 L-90.92856979370117,7.999997496604919 z"/><text style="font-size:10px;fill:#282828;font-family:sans-serif;text-anchor:start" id="svg_107" x="-91.429" y="-172.5"><tspan id="svg_108" x="-86.429" y="-157.5">accidental</tspan></text></g></g><g id="svg_111"><g id="svg_112"><g id="svg_113" transform="translate(499,290) scale(1.5)"><path style="fill:#ff8b2d;fill-opacity:1;stroke:#e86b0e;stroke-width:1;stroke-linecap:round;stroke-opacity:1" id="svg_114" d="m-90.92856979370117,-164.00000250339508 L-90.92856979370117,-168.00000250339508 A4,4 90 0 1 -86.92856979370117,-172.00000250339508 L-82.92856979370117,-172.00000250339508 L-82.92856979370117,-170.00000250339508 L-72.92856979370117,-170.00000250339508 L-72.92856979370117,-172.00000250339508 L-63.92856979370117,-172.00000250339508 L-3.928569793701172,-172.00000250339508 L0.07143020629882812,-172.00000250339508 A4,4 90 0 1 4.071430206298828,-168.00000250339508 L4.071430206298828,-164.00000250339508 L0.07143020629882812,-164.00000250339508 L0.07143020629882812,-167.00000250339508 L-3.928569793701172,-167.00000250339508 L-3.928569793701172,-157.00000250339508 L0.07143020629882812,-157.00000250339508 L0.07143020629882812,-160.00000250339508 L4.071430206298828,-160.00000250339508 L4.071430206298828,-156.00000250339508 A4,4 90 0 1 0.07143020629882812,-152.00000250339508 L-3.928569793701172,-152.00000250339508 L-63.92856979370117,-152.00000250339508 L-64.92856979370117,-152.00000250339508 L-64.92856979370117,-150.00000250339508 L-72.92856979370117,-150.00000250339508 L-72.92856979370117,-152.00000250339508 L-73.92856979370117,-152.00000250339508 L-77.92856979370117,-152.00000250339508 A5,5 90 0 0 -82.92856979370117,-147.00000250339508 L-82.92856979370117,-143.00000250339508 L-82.92856979370117,-139.00000250339508 L-82.92856979370117,-55.00000250339508 L-82.92856979370117,-51.00000250339508 A5,5 90 0 0 -77.92856979370117,-46.00000250339508 L-73.92856979370117,-46.00000250339508 L-73.92856979370117,-44.00000250339508 L-63.92856979370117,-44.00000250339508 L-63.92856979370117,-46.00000250339508 L-55.92856979370117,-46.00000250339508 L-55.92856979370117,-40.00000250339508 L-55.92856979370117,-34.00000250339508 L-55.92856979370117,-30.00000250339508 A4,4 90 0 1 -59.92856979370117,-26.00000250339508 L-63.92856979370117,-26.00000250339508 L-72.92856979370117,-26.00000250339508 L-73.92856979370117,-26.00000250339508 L-73.92856979370117,-24.00000250339508 L-81.92856979370117,-24.00000250339508 L-81.92856979370117,-26.00000250339508 L-82.92856979370117,-26.00000250339508 L-86.92856979370117,-26.00000250339508 A4,4 90 0 1 -90.92856979370117,-30.00000250339508 L-90.92856979370117,-34.00000250339508 z"/><text style="font-size:10px;fill:#282828;font-family:sans-serif;text-anchor:start" id="svg_115" x="-91.429" y="-172.5"><tspan id="svg_116" x="-71.429" y="-157.5">note</tspan></text><text style="font-size:6.666666666666667px;fill:#282828;font-family:sans-serif;text-anchor:end" id="svg_117" x="-91.429" y="-172.5"><tspan id="svg_118" x="-6.429" y="-160.5">value</tspan></text></g></g></g><g id="svg_126"><g id="svg_127" transform="translate(631,290) scale(1.5)"><path style="fill:#ff5293;fill-opacity:1;stroke:#ff2c76;stroke-width:1;stroke-linecap:round;stroke-opacity:1" id="svg_128" d="m-82.92856979370117,-164.00000250339508 L-82.92856979370117,-168.00000250339508 A4,4 90 0 1 -78.92856979370117,-172.00000250339508 L-74.92856979370117,-172.00000250339508 L-64.92856979370117,-172.00000250339508 L-34.92856979370117,-172.00000250339508 L-30.928569793701172,-172.00000250339508 A4,4 90 0 1 -26.928569793701172,-168.00000250339508 L-26.928569793701172,-164.00000250339508 L-30.928569793701172,-164.00000250339508 L-30.928569793701172,-167.00000250339508 L-34.92856979370117,-167.00000250339508 L-34.92856979370117,-157.00000250339508 L-30.928569793701172,-157.00000250339508 L-30.928569793701172,-160.00000250339508 L-26.928569793701172,-160.00000250339508 L-26.928569793701172,-143.00000250339508 L-30.928569793701172,-143.00000250339508 L-30.928569793701172,-146.00000250339508 L-34.92856979370117,-146.00000250339508 L-34.92856979370117,-136.00000250339508 L-30.928569793701172,-136.00000250339508 L-30.928569793701172,-139.00000250339508 L-26.928569793701172,-139.00000250339508 L-26.928569793701172,-135.00000250339508 A4,4 90 0 1 -30.928569793701172,-131.00000250339508 L-34.92856979370117,-131.00000250339508 L-64.92856979370117,-131.00000250339508 L-74.92856979370117,-131.00000250339508 L-78.92856979370117,-131.00000250339508 A4,4 90 0 1 -82.92856979370117,-135.00000250339508 L-82.92856979370117,-139.00000250339508 L-82.92856979370117,-160.00000250339508 L-82.92856979370117,-161.00000250339508 L-88.92856979370117,-161.00000250339508 L-88.92856979370117,-158.00000250339508 L-90.92856979370117,-158.00000250339508 L-90.92856979370117,-166.00000250339508 L-88.92856979370117,-166.00000250339508 L-88.92856979370117,-163.00000250339508 L-82.92856979370117,-163.00000250339508 L-82.92856979370117,-164.00000250339508 z"/><text style="font-size:9px;fill:#282828;font-family:sans-serif;text-anchor:end" id="svg_129" x="-91.429" y="-172.5"><tspan id="svg_130" x="-37.429" y="-149.5">➗</tspan></text></g></g><g id="svg_135"><g id="svg_136" transform="translate(717,290) scale(1.5)"><path style="fill:#ff5293;fill-opacity:1;stroke:#ff2c76;stroke-width:1;stroke-linecap:round;stroke-opacity:1" id="svg_137" d="m-82.92856979370117,-172.00000250339508 L-22.928569793701172,-172.00000250339508 L-22.928569793701172,-152.00000250339508 L-82.92856979370117,-152.00000250339508 L-82.92856979370117,-160.00000250339508 L-82.92856979370117,-161.00000250339508 L-88.92856979370117,-161.00000250339508 L-88.92856979370117,-158.00000250339508 L-90.92856979370117,-158.00000250339508 L-90.92856979370117,-166.00000250339508 L-88.92856979370117,-166.00000250339508 L-88.92856979370117,-163.00000250339508 L-82.92856979370117,-163.00000250339508 L-82.92856979370117,-164.00000250339508 z"/><text style="font-size:10px;fill:#282828;font-family:sans-serif;text-anchor:start" id="svg_138" x="-91.429" y="-172.5"><tspan id="svg_139" x="-78.429" y="-158.5">1</tspan></text></g></g><g id="svg_140"><g id="svg_141" transform="translate(717,322) scale(1.5)"><path style="fill:#ff5293;fill-opacity:1;stroke:#ff2c76;stroke-width:1;stroke-linecap:round;stroke-opacity:1" id="svg_142" d="m-82.92856979370117,-172.00000250339508 L-22.928569793701172,-172.00000250339508 L-22.928569793701172,-152.00000250339508 L-82.92856979370117,-152.00000250339508 L-82.92856979370117,-160.00000250339508 L-82.92856979370117,-161.00000250339508 L-88.92856979370117,-161.00000250339508 L-88.92856979370117,-158.00000250339508 L-90.92856979370117,-158.00000250339508 L-90.92856979370117,-166.00000250339508 L-88.92856979370117,-166.00000250339508 L-88.92856979370117,-163.00000250339508 L-82.92856979370117,-163.00000250339508 L-82.92856979370117,-164.00000250339508 z"/><text style="font-size:10px;fill:#282828;font-family:sans-serif;text-anchor:start" id="svg_143" x="-91.429" y="-172.5"><tspan id="svg_144" x="-78.429" y="-158.5">4</tspan></text></g></g><g id="svg_145"><g id="svg_146" transform="translate(513,322) scale(1.5)"><path style="fill:#b0b0b0;fill-opacity:1;stroke:#a0a0a0;stroke-width:1;stroke-linecap:round;stroke-opacity:1" id="svg_147" d="m-90.92856979370117,-164.00000250339508 L-90.92856979370117,-168.00000250339508 A4,4 90 0 1 -86.92856979370117,-172.00000250339508 L-82.92856979370117,-172.00000250339508 L-82.92856979370117,-170.00000250339508 L-72.92856979370117,-170.00000250339508 L-72.92856979370117,-172.00000250339508 L-52.92856979370117,-172.00000250339508 L-48.92856979370117,-172.00000250339508 A4,4 90 0 1 -44.92856979370117,-168.00000250339508 L-44.92856979370117,-164.00000250339508 L-44.92856979370117,-160.00000250339508 L-44.92856979370117,-156.00000250339508 A4,4 90 0 1 -48.92856979370117,-152.00000250339508 L-52.92856979370117,-152.00000250339508 L-72.92856979370117,-152.00000250339508 L-73.92856979370117,-152.00000250339508 L-73.92856979370117,-150.00000250339508 L-81.92856979370117,-150.00000250339508 L-81.92856979370117,-152.00000250339508 L-82.92856979370117,-152.00000250339508 L-86.92856979370117,-152.00000250339508 A4,4 90 0 1 -90.92856979370117,-156.00000250339508 L-90.92856979370117,-160.00000250339508 z"/><text style="font-size:10px;fill:#282828;font-family:sans-serif;text-anchor:end" id="svg_148" x="-91.429" y="-172.5"><tspan id="svg_149" x="-55.429" y="-158.5">↓</tspan></text></g></g><g id="svg_150"><g id="svg_151" transform="translate(513,354) scale(1.5)"><path style="fill:#77c428;fill-opacity:1;stroke:#57ad02;stroke-width:1;stroke-linecap:round;stroke-opacity:1" id="svg_152" d="m-90.92856979370117,-164.00000250339508 L-90.92856979370117,-168.00000250339508 A4,4 90 0 1 -86.92856979370117,-172.00000250339508 L-82.92856979370117,-172.00000250339508 L-82.92856979370117,-170.00000250339508 L-72.92856979370117,-170.00000250339508 L-72.92856979370117,-172.00000250339508 L-42.92856979370117,-172.00000250339508 L-38.92856979370117,-172.00000250339508 A4,4 90 0 1 -34.92856979370117,-168.00000250339508 L-34.92856979370117,-164.00000250339508 L-38.92856979370117,-164.00000250339508 L-38.92856979370117,-167.00000250339508 L-42.92856979370117,-167.00000250339508 L-42.92856979370117,-157.00000250339508 L-38.92856979370117,-157.00000250339508 L-38.92856979370117,-160.00000250339508 L-34.92856979370117,-160.00000250339508 L-34.92856979370117,-143.00000250339508 L-38.92856979370117,-143.00000250339508 L-38.92856979370117,-146.00000250339508 L-42.92856979370117,-146.00000250339508 L-42.92856979370117,-136.00000250339508 L-38.92856979370117,-136.00000250339508 L-38.92856979370117,-139.00000250339508 L-34.92856979370117,-139.00000250339508 L-34.92856979370117,-135.00000250339508 A4,4 90 0 1 -38.92856979370117,-131.00000250339508 L-42.92856979370117,-131.00000250339508 L-72.92856979370117,-131.00000250339508 L-73.92856979370117,-131.00000250339508 L-73.92856979370117,-129.00000250339508 L-81.92856979370117,-129.00000250339508 L-81.92856979370117,-131.00000250339508 L-82.92856979370117,-131.00000250339508 L-86.92856979370117,-131.00000250339508 A4,4 90 0 1 -90.92856979370117,-135.00000250339508 L-90.92856979370117,-139.00000250339508 L-90.92856979370117,-160.00000250339508 L-90.92856979370117,-164.00000250339508 z"/><text style="font-size:10px;fill:#282828;font-family:sans-serif;text-anchor:end" id="svg_153" x="-91.429" y="-172.5"><tspan id="svg_154" x="-45.429" y="-148.5">pitch</tspan></text><text style="font-size:6.666666666666667px;fill:#282828;font-family:sans-serif;text-anchor:end" id="svg_155" x="-91.429" y="-172.5"><tspan id="svg_156" x="-45.429" y="-160.5">name</tspan></text><text style="font-size:6.666666666666667px;fill:#282828;font-family:sans-serif;text-anchor:end" id="svg_157" x="-91.429" y="-172.5"><tspan id="svg_158" x="-45.429" y="-139.5">octave</tspan></text></g></g><g id="svg_159"><g id="svg_160" transform="translate(587,354) scale(1.5)"><path style="fill:#77c428;fill-opacity:1;stroke:#57ad02;stroke-width:1;stroke-linecap:round;stroke-opacity:1" id="svg_161" d="m-82.92856979370117,-172.00000250339508 L-22.928569793701172,-172.00000250339508 L-22.928569793701172,-152.00000250339508 L-82.92856979370117,-152.00000250339508 L-82.92856979370117,-160.00000250339508 L-82.92856979370117,-161.00000250339508 L-88.92856979370117,-161.00000250339508 L-88.92856979370117,-158.00000250339508 L-90.92856979370117,-158.00000250339508 L-90.92856979370117,-166.00000250339508 L-88.92856979370117,-166.00000250339508 L-88.92856979370117,-163.00000250339508 L-82.92856979370117,-163.00000250339508 L-82.92856979370117,-164.00000250339508 z"/><text style="font-size:10px;fill:#282828;font-family:sans-serif;text-anchor:start" id="svg_162" x="-91.429" y="-172.5"><tspan id="svg_163" x="-78.429" y="-158.5">re</tspan></text></g></g><g id="svg_164"><g id="svg_165" transform="translate(587,386) scale(1.5)"><path style="fill:#ff5293;fill-opacity:1;stroke:#ff2c76;stroke-width:1;stroke-linecap:round;stroke-opacity:1" id="svg_166" d="m-82.92856979370117,-172.00000250339508 L-22.928569793701172,-172.00000250339508 L-22.928569793701172,-152.00000250339508 L-82.92856979370117,-152.00000250339508 L-82.92856979370117,-160.00000250339508 L-82.92856979370117,-161.00000250339508 L-88.92856979370117,-161.00000250339508 L-88.92856979370117,-158.00000250339508 L-90.92856979370117,-158.00000250339508 L-90.92856979370117,-166.00000250339508 L-88.92856979370117,-166.00000250339508 L-88.92856979370117,-163.00000250339508 L-82.92856979370117,-163.00000250339508 L-82.92856979370117,-164.00000250339508 z"/><text style="font-size:10px;fill:#282828;font-family:sans-serif;text-anchor:start" id="svg_167" x="-91.429" y="-172.5"><tspan id="svg_168" x="-78.429" y="-158.5">5</tspan></text></g></g><g id="svg_169"><g id="svg_170" transform="translate(580,258) scale(1.5)"><path style="fill:#77c428;fill-opacity:1;stroke:#57ad02;stroke-width:1;stroke-linecap:round;stroke-opacity:1" id="svg_171" d="m-82.92856979370117,-172.00000250339508 L27.071430206298828,-172.00000250339508 L27.071430206298828,-152.00000250339508 L-82.92856979370117,-152.00000250339508 L-82.92856979370117,-160.00000250339508 L-82.92856979370117,-161.00000250339508 L-88.92856979370117,-161.00000250339508 L-88.92856979370117,-158.00000250339508 L-90.92856979370117,-158.00000250339508 L-90.92856979370117,-166.00000250339508 L-88.92856979370117,-166.00000250339508 L-88.92856979370117,-163.00000250339508 L-82.92856979370117,-163.00000250339508 L-82.92856979370117,-164.00000250339508 z"/><text style="font-size:10px;fill:#282828;font-family:sans-serif;text-anchor:start" id="svg_172" x="-91.429" y="-172.5"><tspan id="svg_173" x="-78.429" y="-158.5">sharp ♯</tspan></text></g></g></g></svg>