<svg xmlns="http://www.w3.org/2000/svg" xmlns:svg="http://www.w3.org/2000/svg" id="svg9691" width="335" height="615" version="1.1"><metadata id="metadata9697"/><rect id="backgroundrect" width="100%" height="100%" x="0" y="0" fill="none" stroke="none"/><g id="g9689" class="currentLayer"><title id="title9451">Layer 1</title><g id="svg_1"><g id="svg_2"><g id="svg_3" transform="translate(525,-147) scale(1.5)"><path style="fill:#daa926;fill-opacity:1;stroke:#daaf30;stroke-width:1;stroke-linecap:round;stroke-opacity:1" id="svg_4" d="m-349.5,112 L-349.5,108 A4,4 90 0 1 -345.5,104 L-341.5,104 L-336.5,98 L-331.5,104 L-322.5,104 L-262.5,104 L-258.5,104 A4,4 90 0 1 -254.5,108 L-254.5,112 L-254.5,116 L-254.5,120 A4,4 90 0 1 -258.5,124 L-262.5,124 L-322.5,124 L-323.5,124 L-323.5,126 L-331.5,126 L-331.5,124 L-332.5,124 L-336.5,124 A5,5 90 0 0 -341.5,129 L-341.5,133 L-341.5,137 L-341.5,473 L-341.5,477 A5,5 90 0 0 -336.5,482 L-332.5,482 L-332.5,484 L-322.5,484 L-322.5,482 L-314.5,482 L-314.5,488 L-314.5,494 L-314.5,498 A4,4 90 0 1 -318.5,502 L-322.5,502 L-331.5,502 L-336.5,508 L-341.5,502 L-345.5,502 A4,4 90 0 1 -349.5,498 L-349.5,494 z"/><text style="font-size:10px;fill:#282828;font-family:sans-serif;text-anchor:start" id="svg_5" x="-350" y="97.5"><tspan id="svg_6" x="-330" y="119.5">start</tspan></text></g></g></g><g id="svg_15"><g id="svg_16"><g id="svg_17" transform="translate(539,-106) scale(1.5)"><path style="fill:#ff8b2d;fill-opacity:1;stroke:#e86b0e;stroke-width:1;stroke-linecap:round;stroke-opacity:1" id="svg_18" d="m-349.5,106 L-349.5,102 A4,4 90 0 1 -345.5,98 L-341.5,98 L-341.5,100 L-331.5,100 L-331.5,98 L-322.5,98 L-262.5,98 L-258.5,98 A4,4 90 0 1 -254.5,102 L-254.5,106 L-258.5,106 L-258.5,103 L-262.5,103 L-262.5,113 L-258.5,113 L-258.5,110 L-254.5,110 L-254.5,114 A4,4 90 0 1 -258.5,118 L-262.5,118 L-322.5,118 L-323.5,118 L-323.5,120 L-331.5,120 L-331.5,118 L-332.5,118 L-336.5,118 A5,5 90 0 0 -341.5,123 L-341.5,127 L-341.5,131 L-341.5,173 L-341.5,177 A5,5 90 0 0 -336.5,182 L-332.5,182 L-332.5,184 L-322.5,184 L-322.5,182 L-314.5,182 L-314.5,188 L-314.5,194 L-314.5,198 A4,4 90 0 1 -318.5,202 L-322.5,202 L-331.5,202 L-332.5,202 L-332.5,204 L-340.5,204 L-340.5,202 L-341.5,202 L-345.5,202 A4,4 90 0 1 -349.5,198 L-349.5,194 z"/><text style="font-size:10px;fill:#282828;font-family:sans-serif;text-anchor:start" id="svg_19" x="-350" y="97.5"><tspan id="svg_20" x="-330" y="112.5">note</tspan></text><text style="font-size:6.666666666666667px;fill:#282828;font-family:sans-serif;text-anchor:end" id="svg_21" x="-350" y="97.5"><tspan id="svg_22" x="-265" y="109.5">value</tspan></text></g></g></g><g id="svg_30"><g id="svg_31" transform="translate(671,-106) scale(1.5)"><path style="fill:#ff5293;fill-opacity:1;stroke:#ff2c76;stroke-width:1;stroke-linecap:round;stroke-opacity:1" id="svg_32" d="m-341.5,106 L-341.5,102 A4,4 90 0 1 -337.5,98 L-333.5,98 L-323.5,98 L-293.5,98 L-289.5,98 A4,4 90 0 1 -285.5,102 L-285.5,106 L-289.5,106 L-289.5,103 L-293.5,103 L-293.5,113 L-289.5,113 L-289.5,110 L-285.5,110 L-285.5,127 L-289.5,127 L-289.5,124 L-293.5,124 L-293.5,134 L-289.5,134 L-289.5,131 L-285.5,131 L-285.5,135 A4,4 90 0 1 -289.5,139 L-293.5,139 L-323.5,139 L-333.5,139 L-337.5,139 A4,4 90 0 1 -341.5,135 L-341.5,131 L-341.5,110 L-341.5,109 L-347.5,109 L-347.5,112 L-349.5,112 L-349.5,104 L-347.5,104 L-347.5,107 L-341.5,107 L-341.5,106 z"/><text style="font-size:9px;fill:#282828;font-family:sans-serif;text-anchor:end" id="svg_33" x="-350" y="97.5"><tspan id="svg_34" x="-296" y="120.5">➗</tspan></text></g></g><g id="svg_39"><g id="svg_40" transform="translate(757,-106) scale(1.5)"><path style="fill:#ff5293;fill-opacity:1;stroke:#ff2c76;stroke-width:1;stroke-linecap:round;stroke-opacity:1" id="svg_41" d="m-341.5,98 L-281.5,98 L-281.5,118 L-341.5,118 L-341.5,110 L-341.5,109 L-347.5,109 L-347.5,112 L-349.5,112 L-349.5,104 L-347.5,104 L-347.5,107 L-341.5,107 L-341.5,106 z"/><text style="font-size:10px;fill:#282828;font-family:sans-serif;text-anchor:start" id="svg_42" x="-350" y="97.5"><tspan id="svg_43" x="-337" y="111.5">1</tspan></text></g></g><g id="svg_44"><g id="svg_45" transform="translate(757,-74) scale(1.5)"><path style="fill:#ff5293;fill-opacity:1;stroke:#ff2c76;stroke-width:1;stroke-linecap:round;stroke-opacity:1" id="svg_46" d="m-341.5,98 L-281.5,98 L-281.5,118 L-341.5,118 L-341.5,110 L-341.5,109 L-347.5,109 L-347.5,112 L-349.5,112 L-349.5,104 L-347.5,104 L-347.5,107 L-341.5,107 L-341.5,106 z"/><text style="font-size:10px;fill:#282828;font-family:sans-serif;text-anchor:start" id="svg_47" x="-350" y="97.5"><tspan id="svg_48" x="-337" y="111.5">4</tspan></text></g></g><g id="svg_49"><g id="svg_50" transform="translate(553,-74) scale(1.5)"><path style="fill:#b0b0b0;fill-opacity:1;stroke:#a0a0a0;stroke-width:1;stroke-linecap:round;stroke-opacity:1" id="svg_51" d="m-349.5,106 L-349.5,102 A4,4 90 0 1 -345.5,98 L-341.5,98 L-341.5,100 L-331.5,100 L-331.5,98 L-311.5,98 L-307.5,98 A4,4 90 0 1 -303.5,102 L-303.5,106 L-303.5,110 L-303.5,114 A4,4 90 0 1 -307.5,118 L-311.5,118 L-331.5,118 L-332.5,118 L-332.5,120 L-340.5,120 L-340.5,118 L-341.5,118 L-345.5,118 A4,4 90 0 1 -349.5,114 L-349.5,110 z"/><text style="font-size:10px;fill:#282828;font-family:sans-serif;text-anchor:end" id="svg_52" x="-350" y="97.5"><tspan id="svg_53" x="-314" y="111.5">↓</tspan></text></g></g><g id="svg_54"><g id="svg_55" transform="translate(553,-42) scale(1.5)"><path style="fill:#77c428;fill-opacity:1;stroke:#57ad02;stroke-width:1;stroke-linecap:round;stroke-opacity:1" id="svg_56" d="m-349.5,106 L-349.5,102 A4,4 90 0 1 -345.5,98 L-341.5,98 L-341.5,100 L-331.5,100 L-331.5,98 L-301.5,98 L-297.5,98 A4,4 90 0 1 -293.5,102 L-293.5,106 L-297.5,106 L-297.5,103 L-301.5,103 L-301.5,113 L-297.5,113 L-297.5,110 L-293.5,110 L-293.5,127 L-297.5,127 L-297.5,124 L-301.5,124 L-301.5,134 L-297.5,134 L-297.5,131 L-293.5,131 L-293.5,135 A4,4 90 0 1 -297.5,139 L-301.5,139 L-331.5,139 L-332.5,139 L-332.5,141 L-340.5,141 L-340.5,139 L-341.5,139 L-345.5,139 A4,4 90 0 1 -349.5,135 L-349.5,131 L-349.5,110 L-349.5,106 z"/><text style="font-size:10px;fill:#282828;font-family:sans-serif;text-anchor:end" id="svg_57" x="-350" y="97.5"><tspan id="svg_58" x="-304" y="121.5">pitch</tspan></text><text style="font-size:6.666666666666667px;fill:#282828;font-family:sans-serif;text-anchor:end" id="svg_59" x="-350" y="97.5"><tspan id="svg_60" x="-304" y="109.5">name</tspan></text><text style="font-size:6.666666666666667px;fill:#282828;font-family:sans-serif;text-anchor:end" id="svg_61" x="-350" y="97.5"><tspan id="svg_62" x="-304" y="130.5">octave</tspan></text></g></g><g id="svg_63"><g id="svg_64" transform="translate(627,-42) scale(1.5)"><path style="fill:#77c428;fill-opacity:1;stroke:#57ad02;stroke-width:1;stroke-linecap:round;stroke-opacity:1" id="svg_65" d="m-341.5,98 L-281.5,98 L-281.5,118 L-341.5,118 L-341.5,110 L-341.5,109 L-347.5,109 L-347.5,112 L-349.5,112 L-349.5,104 L-347.5,104 L-347.5,107 L-341.5,107 L-341.5,106 z"/><text style="font-size:10px;fill:#282828;font-family:sans-serif;text-anchor:start" id="svg_66" x="-350" y="97.5"><tspan id="svg_67" x="-337" y="111.5">sol</tspan></text></g></g><g id="svg_68"><g id="svg_69" transform="translate(627,-10) scale(1.5)"><path style="fill:#ff5293;fill-opacity:1;stroke:#ff2c76;stroke-width:1;stroke-linecap:round;stroke-opacity:1" id="svg_70" d="m-341.5,98 L-281.5,98 L-281.5,118 L-341.5,118 L-341.5,110 L-341.5,109 L-347.5,109 L-347.5,112 L-349.5,112 L-349.5,104 L-347.5,104 L-347.5,107 L-341.5,107 L-341.5,106 z"/><text style="font-size:10px;fill:#282828;font-family:sans-serif;text-anchor:start" id="svg_71" x="-350" y="97.5"><tspan id="svg_72" x="-337" y="111.5">4</tspan></text></g></g><g id="svg_73"><g id="svg_74" transform="translate(539,52) scale(1.5)"><path style="fill:#77c428;fill-opacity:1;stroke:#57ad02;stroke-width:1;stroke-linecap:round;stroke-opacity:1" id="svg_75" d="m-349.5,106 L-349.5,102 A4,4 90 0 1 -345.5,98 L-341.5,98 L-341.5,100 L-331.5,100 L-331.5,98 L-298.1552734375,98 L-294.1552734375,98 A4,4 90 0 1 -290.1552734375,102 L-290.1552734375,106 L-294.1552734375,106 L-294.1552734375,103 L-298.1552734375,103 L-298.1552734375,113 L-294.1552734375,113 L-294.1552734375,110 L-290.1552734375,110 L-290.1552734375,114 A4,4 90 0 1 -294.1552734375,118 L-298.1552734375,118 L-331.5,118 L-332.5,118 L-332.5,120 L-340.5,120 L-340.5,118 L-341.5,118 L-345.5,118 A4,4 90 0 1 -349.5,114 L-349.5,110 L-349.5,106 z"/><text style="font-size:10px;fill:#282828;font-family:sans-serif;text-anchor:end" id="svg_76" x="-350" y="97.5"><tspan id="svg_77" x="-300" y="111.5">register</tspan></text></g></g><g id="svg_80"><g id="svg_81" transform="translate(618,52) scale(1.5)"><path style="fill:#ff5293;fill-opacity:1;stroke:#ff2c76;stroke-width:1;stroke-linecap:round;stroke-opacity:1" id="svg_82" d="m-341.5,98 L-281.5,98 L-281.5,118 L-341.5,118 L-341.5,110 L-341.5,109 L-347.5,109 L-347.5,112 L-349.5,112 L-349.5,104 L-347.5,104 L-347.5,107 L-341.5,107 L-341.5,106 z"/><text style="font-size:10px;fill:#282828;font-family:sans-serif;text-anchor:start" id="svg_83" x="-350" y="97.5"><tspan id="svg_84" x="-337" y="111.5">1</tspan></text></g></g><g id="svg_85"><g id="svg_86"><g id="svg_87" transform="translate(539,84) scale(1.5)"><path style="fill:#ff8b2d;fill-opacity:1;stroke:#e86b0e;stroke-width:1;stroke-linecap:round;stroke-opacity:1" id="svg_88" d="m-349.5,106 L-349.5,102 A4,4 90 0 1 -345.5,98 L-341.5,98 L-341.5,100 L-331.5,100 L-331.5,98 L-322.5,98 L-262.5,98 L-258.5,98 A4,4 90 0 1 -254.5,102 L-254.5,106 L-258.5,106 L-258.5,103 L-262.5,103 L-262.5,113 L-258.5,113 L-258.5,110 L-254.5,110 L-254.5,114 A4,4 90 0 1 -258.5,118 L-262.5,118 L-322.5,118 L-323.5,118 L-323.5,120 L-331.5,120 L-331.5,118 L-332.5,118 L-336.5,118 A5,5 90 0 0 -341.5,123 L-341.5,127 L-341.5,131 L-341.5,173 L-341.5,177 A5,5 90 0 0 -336.5,182 L-332.5,182 L-332.5,184 L-322.5,184 L-322.5,182 L-314.5,182 L-314.5,188 L-314.5,194 L-314.5,198 A4,4 90 0 1 -318.5,202 L-322.5,202 L-331.5,202 L-332.5,202 L-332.5,204 L-340.5,204 L-340.5,202 L-341.5,202 L-345.5,202 A4,4 90 0 1 -349.5,198 L-349.5,194 z"/><text style="font-size:10px;fill:#282828;font-family:sans-serif;text-anchor:start" id="svg_89" x="-350" y="97.5"><tspan id="svg_90" x="-330" y="112.5">note</tspan></text><text style="font-size:6.666666666666667px;fill:#282828;font-family:sans-serif;text-anchor:end" id="svg_91" x="-350" y="97.5"><tspan id="svg_92" x="-265" y="109.5">value</tspan></text></g></g></g><g id="svg_100"><g id="svg_101" transform="translate(671,84) scale(1.5)"><path style="fill:#ff5293;fill-opacity:1;stroke:#ff2c76;stroke-width:1;stroke-linecap:round;stroke-opacity:1" id="svg_102" d="m-341.5,106 L-341.5,102 A4,4 90 0 1 -337.5,98 L-333.5,98 L-323.5,98 L-293.5,98 L-289.5,98 A4,4 90 0 1 -285.5,102 L-285.5,106 L-289.5,106 L-289.5,103 L-293.5,103 L-293.5,113 L-289.5,113 L-289.5,110 L-285.5,110 L-285.5,127 L-289.5,127 L-289.5,124 L-293.5,124 L-293.5,134 L-289.5,134 L-289.5,131 L-285.5,131 L-285.5,135 A4,4 90 0 1 -289.5,139 L-293.5,139 L-323.5,139 L-333.5,139 L-337.5,139 A4,4 90 0 1 -341.5,135 L-341.5,131 L-341.5,110 L-341.5,109 L-347.5,109 L-347.5,112 L-349.5,112 L-349.5,104 L-347.5,104 L-347.5,107 L-341.5,107 L-341.5,106 z"/><text style="font-size:9px;fill:#282828;font-family:sans-serif;text-anchor:end" id="svg_103" x="-350" y="97.5"><tspan id="svg_104" x="-296" y="120.5">➗</tspan></text></g></g><g id="svg_109"><g id="svg_110" transform="translate(757,84) scale(1.5)"><path style="fill:#ff5293;fill-opacity:1;stroke:#ff2c76;stroke-width:1;stroke-linecap:round;stroke-opacity:1" id="svg_111" d="m-341.5,98 L-281.5,98 L-281.5,118 L-341.5,118 L-341.5,110 L-341.5,109 L-347.5,109 L-347.5,112 L-349.5,112 L-349.5,104 L-347.5,104 L-347.5,107 L-341.5,107 L-341.5,106 z"/><text style="font-size:10px;fill:#282828;font-family:sans-serif;text-anchor:start" id="svg_112" x="-350" y="97.5"><tspan id="svg_113" x="-337" y="111.5">1</tspan></text></g></g><g id="svg_114"><g id="svg_115" transform="translate(757,116) scale(1.5)"><path style="fill:#ff5293;fill-opacity:1;stroke:#ff2c76;stroke-width:1;stroke-linecap:round;stroke-opacity:1" id="svg_116" d="m-341.5,98 L-281.5,98 L-281.5,118 L-341.5,118 L-341.5,110 L-341.5,109 L-347.5,109 L-347.5,112 L-349.5,112 L-349.5,104 L-347.5,104 L-347.5,107 L-341.5,107 L-341.5,106 z"/><text style="font-size:10px;fill:#282828;font-family:sans-serif;text-anchor:start" id="svg_117" x="-350" y="97.5"><tspan id="svg_118" x="-337" y="111.5">4</tspan></text></g></g><g id="svg_119"><g id="svg_120" transform="translate(553,116) scale(1.5)"><path style="fill:#b0b0b0;fill-opacity:1;stroke:#a0a0a0;stroke-width:1;stroke-linecap:round;stroke-opacity:1" id="svg_121" d="m-349.5,106 L-349.5,102 A4,4 90 0 1 -345.5,98 L-341.5,98 L-341.5,100 L-331.5,100 L-331.5,98 L-311.5,98 L-307.5,98 A4,4 90 0 1 -303.5,102 L-303.5,106 L-303.5,110 L-303.5,114 A4,4 90 0 1 -307.5,118 L-311.5,118 L-331.5,118 L-332.5,118 L-332.5,120 L-340.5,120 L-340.5,118 L-341.5,118 L-345.5,118 A4,4 90 0 1 -349.5,114 L-349.5,110 z"/><text style="font-size:10px;fill:#282828;font-family:sans-serif;text-anchor:end" id="svg_122" x="-350" y="97.5"><tspan id="svg_123" x="-314" y="111.5">↓</tspan></text></g></g><g id="svg_124"><g id="svg_125" transform="translate(553,148) scale(1.5)"><path style="fill:#77c428;fill-opacity:1;stroke:#57ad02;stroke-width:1;stroke-linecap:round;stroke-opacity:1" id="svg_126" d="m-349.5,106 L-349.5,102 A4,4 90 0 1 -345.5,98 L-341.5,98 L-341.5,100 L-331.5,100 L-331.5,98 L-301.5,98 L-297.5,98 A4,4 90 0 1 -293.5,102 L-293.5,106 L-297.5,106 L-297.5,103 L-301.5,103 L-301.5,113 L-297.5,113 L-297.5,110 L-293.5,110 L-293.5,127 L-297.5,127 L-297.5,124 L-301.5,124 L-301.5,134 L-297.5,134 L-297.5,131 L-293.5,131 L-293.5,135 A4,4 90 0 1 -297.5,139 L-301.5,139 L-331.5,139 L-332.5,139 L-332.5,141 L-340.5,141 L-340.5,139 L-341.5,139 L-345.5,139 A4,4 90 0 1 -349.5,135 L-349.5,131 L-349.5,110 L-349.5,106 z"/><text style="font-size:10px;fill:#282828;font-family:sans-serif;text-anchor:end" id="svg_127" x="-350" y="97.5"><tspan id="svg_128" x="-304" y="121.5">pitch</tspan></text><text style="font-size:6.666666666666667px;fill:#282828;font-family:sans-serif;text-anchor:end" id="svg_129" x="-350" y="97.5"><tspan id="svg_130" x="-304" y="109.5">name</tspan></text><text style="font-size:6.666666666666667px;fill:#282828;font-family:sans-serif;text-anchor:end" id="svg_131" x="-350" y="97.5"><tspan id="svg_132" x="-304" y="130.5">octave</tspan></text></g></g><g id="svg_133"><g id="svg_134" transform="translate(627,148) scale(1.5)"><path style="fill:#77c428;fill-opacity:1;stroke:#57ad02;stroke-width:1;stroke-linecap:round;stroke-opacity:1" id="svg_135" d="m-341.5,98 L-281.5,98 L-281.5,118 L-341.5,118 L-341.5,110 L-341.5,109 L-347.5,109 L-347.5,112 L-349.5,112 L-349.5,104 L-347.5,104 L-347.5,107 L-341.5,107 L-341.5,106 z"/><text style="font-size:10px;fill:#282828;font-family:sans-serif;text-anchor:start" id="svg_136" x="-350" y="97.5"><tspan id="svg_137" x="-337" y="111.5">mi</tspan></text></g></g><g id="svg_138"><g id="svg_139" transform="translate(627,180) scale(1.5)"><path style="fill:#ff5293;fill-opacity:1;stroke:#ff2c76;stroke-width:1;stroke-linecap:round;stroke-opacity:1" id="svg_140" d="m-341.5,98 L-281.5,98 L-281.5,118 L-341.5,118 L-341.5,110 L-341.5,109 L-347.5,109 L-347.5,112 L-349.5,112 L-349.5,104 L-347.5,104 L-347.5,107 L-341.5,107 L-341.5,106 z"/><text style="font-size:10px;fill:#282828;font-family:sans-serif;text-anchor:start" id="svg_141" x="-350" y="97.5"><tspan id="svg_142" x="-337" y="111.5">4</tspan></text></g></g><g id="svg_143"><g id="svg_144" transform="translate(539,242) scale(1.5)"><path style="fill:#77c428;fill-opacity:1;stroke:#57ad02;stroke-width:1;stroke-linecap:round;stroke-opacity:1" id="svg_145" d="m-349.5,106 L-349.5,102 A4,4 90 0 1 -345.5,98 L-341.5,98 L-341.5,100 L-331.5,100 L-331.5,98 L-298.1552734375,98 L-294.1552734375,98 A4,4 90 0 1 -290.1552734375,102 L-290.1552734375,106 L-294.1552734375,106 L-294.1552734375,103 L-298.1552734375,103 L-298.1552734375,113 L-294.1552734375,113 L-294.1552734375,110 L-290.1552734375,110 L-290.1552734375,114 A4,4 90 0 1 -294.1552734375,118 L-298.1552734375,118 L-331.5,118 L-332.5,118 L-332.5,120 L-340.5,120 L-340.5,118 L-341.5,118 L-345.5,118 A4,4 90 0 1 -349.5,114 L-349.5,110 L-349.5,106 z"/><text style="font-size:10px;fill:#282828;font-family:sans-serif;text-anchor:end" id="svg_146" x="-350" y="97.5"><tspan id="svg_147" x="-300" y="111.5">register</tspan></text></g></g><g id="svg_150"><g id="svg_151" transform="translate(618,242) scale(1.5)"><path style="fill:#ff5293;fill-opacity:1;stroke:#ff2c76;stroke-width:1;stroke-linecap:round;stroke-opacity:1" id="svg_152" d="m-341.5,98 L-281.5,98 L-281.5,118 L-341.5,118 L-341.5,110 L-341.5,109 L-347.5,109 L-347.5,112 L-349.5,112 L-349.5,104 L-347.5,104 L-347.5,107 L-341.5,107 L-341.5,106 z"/><text style="font-size:10px;fill:#282828;font-family:sans-serif;text-anchor:start" id="svg_153" x="-350" y="97.5"><tspan id="svg_154" x="-337" y="111.5">-1</tspan></text></g></g><g id="svg_155"><g id="svg_156"><g id="svg_157" transform="translate(539,274) scale(1.5)"><path style="fill:#ff8b2d;fill-opacity:1;stroke:#e86b0e;stroke-width:1;stroke-linecap:round;stroke-opacity:1" id="svg_158" d="m-349.5,106 L-349.5,102 A4,4 90 0 1 -345.5,98 L-341.5,98 L-341.5,100 L-331.5,100 L-331.5,98 L-322.5,98 L-262.5,98 L-258.5,98 A4,4 90 0 1 -254.5,102 L-254.5,106 L-258.5,106 L-258.5,103 L-262.5,103 L-262.5,113 L-258.5,113 L-258.5,110 L-254.5,110 L-254.5,114 A4,4 90 0 1 -258.5,118 L-262.5,118 L-322.5,118 L-323.5,118 L-323.5,120 L-331.5,120 L-331.5,118 L-332.5,118 L-336.5,118 A5,5 90 0 0 -341.5,123 L-341.5,127 L-341.5,131 L-341.5,173 L-341.5,177 A5,5 90 0 0 -336.5,182 L-332.5,182 L-332.5,184 L-322.5,184 L-322.5,182 L-314.5,182 L-314.5,188 L-314.5,194 L-314.5,198 A4,4 90 0 1 -318.5,202 L-322.5,202 L-331.5,202 L-332.5,202 L-332.5,204 L-340.5,204 L-340.5,202 L-341.5,202 L-345.5,202 A4,4 90 0 1 -349.5,198 L-349.5,194 z"/><text style="font-size:10px;fill:#282828;font-family:sans-serif;text-anchor:start" id="svg_159" x="-350" y="97.5"><tspan id="svg_160" x="-330" y="112.5">note</tspan></text><text style="font-size:6.666666666666667px;fill:#282828;font-family:sans-serif;text-anchor:end" id="svg_161" x="-350" y="97.5"><tspan id="svg_162" x="-265" y="109.5">value</tspan></text></g></g></g><g id="svg_170"><g id="svg_171" transform="translate(671,274) scale(1.5)"><path style="fill:#ff5293;fill-opacity:1;stroke:#ff2c76;stroke-width:1;stroke-linecap:round;stroke-opacity:1" id="svg_172" d="m-341.5,106 L-341.5,102 A4,4 90 0 1 -337.5,98 L-333.5,98 L-323.5,98 L-293.5,98 L-289.5,98 A4,4 90 0 1 -285.5,102 L-285.5,106 L-289.5,106 L-289.5,103 L-293.5,103 L-293.5,113 L-289.5,113 L-289.5,110 L-285.5,110 L-285.5,127 L-289.5,127 L-289.5,124 L-293.5,124 L-293.5,134 L-289.5,134 L-289.5,131 L-285.5,131 L-285.5,135 A4,4 90 0 1 -289.5,139 L-293.5,139 L-323.5,139 L-333.5,139 L-337.5,139 A4,4 90 0 1 -341.5,135 L-341.5,131 L-341.5,110 L-341.5,109 L-347.5,109 L-347.5,112 L-349.5,112 L-349.5,104 L-347.5,104 L-347.5,107 L-341.5,107 L-341.5,106 z"/><text style="font-size:9px;fill:#282828;font-family:sans-serif;text-anchor:end" id="svg_173" x="-350" y="97.5"><tspan id="svg_174" x="-296" y="120.5">➗</tspan></text></g></g><g id="svg_179"><g id="svg_180" transform="translate(757,274) scale(1.5)"><path style="fill:#ff5293;fill-opacity:1;stroke:#ff2c76;stroke-width:1;stroke-linecap:round;stroke-opacity:1" id="svg_181" d="m-341.5,98 L-281.5,98 L-281.5,118 L-341.5,118 L-341.5,110 L-341.5,109 L-347.5,109 L-347.5,112 L-349.5,112 L-349.5,104 L-347.5,104 L-347.5,107 L-341.5,107 L-341.5,106 z"/><text style="font-size:10px;fill:#282828;font-family:sans-serif;text-anchor:start" id="svg_182" x="-350" y="97.5"><tspan id="svg_183" x="-337" y="111.5">1</tspan></text></g></g><g id="svg_184"><g id="svg_185" transform="translate(757,306) scale(1.5)"><path style="fill:#ff5293;fill-opacity:1;stroke:#ff2c76;stroke-width:1;stroke-linecap:round;stroke-opacity:1" id="svg_186" d="m-341.5,98 L-281.5,98 L-281.5,118 L-341.5,118 L-341.5,110 L-341.5,109 L-347.5,109 L-347.5,112 L-349.5,112 L-349.5,104 L-347.5,104 L-347.5,107 L-341.5,107 L-341.5,106 z"/><text style="font-size:10px;fill:#282828;font-family:sans-serif;text-anchor:start" id="svg_187" x="-350" y="97.5"><tspan id="svg_188" x="-337" y="111.5">2</tspan></text></g></g><g id="svg_189"><g id="svg_190" transform="translate(553,306) scale(1.5)"><path style="fill:#b0b0b0;fill-opacity:1;stroke:#a0a0a0;stroke-width:1;stroke-linecap:round;stroke-opacity:1" id="svg_191" d="m-349.5,106 L-349.5,102 A4,4 90 0 1 -345.5,98 L-341.5,98 L-341.5,100 L-331.5,100 L-331.5,98 L-311.5,98 L-307.5,98 A4,4 90 0 1 -303.5,102 L-303.5,106 L-303.5,110 L-303.5,114 A4,4 90 0 1 -307.5,118 L-311.5,118 L-331.5,118 L-332.5,118 L-332.5,120 L-340.5,120 L-340.5,118 L-341.5,118 L-345.5,118 A4,4 90 0 1 -349.5,114 L-349.5,110 z"/><text style="font-size:10px;fill:#282828;font-family:sans-serif;text-anchor:end" id="svg_192" x="-350" y="97.5"><tspan id="svg_193" x="-314" y="111.5">↓</tspan></text></g></g><g id="svg_194"><g id="svg_195" transform="translate(553,338) scale(1.5)"><path style="fill:#77c428;fill-opacity:1;stroke:#57ad02;stroke-width:1;stroke-linecap:round;stroke-opacity:1" id="svg_196" d="m-349.5,106 L-349.5,102 A4,4 90 0 1 -345.5,98 L-341.5,98 L-341.5,100 L-331.5,100 L-331.5,98 L-301.5,98 L-297.5,98 A4,4 90 0 1 -293.5,102 L-293.5,106 L-297.5,106 L-297.5,103 L-301.5,103 L-301.5,113 L-297.5,113 L-297.5,110 L-293.5,110 L-293.5,127 L-297.5,127 L-297.5,124 L-301.5,124 L-301.5,134 L-297.5,134 L-297.5,131 L-293.5,131 L-293.5,135 A4,4 90 0 1 -297.5,139 L-301.5,139 L-331.5,139 L-332.5,139 L-332.5,141 L-340.5,141 L-340.5,139 L-341.5,139 L-345.5,139 A4,4 90 0 1 -349.5,135 L-349.5,131 L-349.5,110 L-349.5,106 z"/><text style="font-size:10px;fill:#282828;font-family:sans-serif;text-anchor:end" id="svg_197" x="-350" y="97.5"><tspan id="svg_198" x="-304" y="121.5">pitch</tspan></text><text style="font-size:6.666666666666667px;fill:#282828;font-family:sans-serif;text-anchor:end" id="svg_199" x="-350" y="97.5"><tspan id="svg_200" x="-304" y="109.5">name</tspan></text><text style="font-size:6.666666666666667px;fill:#282828;font-family:sans-serif;text-anchor:end" id="svg_201" x="-350" y="97.5"><tspan id="svg_202" x="-304" y="130.5">octave</tspan></text></g></g><g id="svg_203"><g id="svg_204" transform="translate(627,338) scale(1.5)"><path style="fill:#77c428;fill-opacity:1;stroke:#57ad02;stroke-width:1;stroke-linecap:round;stroke-opacity:1" id="svg_205" d="m-341.5,98 L-281.5,98 L-281.5,118 L-341.5,118 L-341.5,110 L-341.5,109 L-347.5,109 L-347.5,112 L-349.5,112 L-349.5,104 L-347.5,104 L-347.5,107 L-341.5,107 L-341.5,106 z"/><text style="font-size:10px;fill:#282828;font-family:sans-serif;text-anchor:start" id="svg_206" x="-350" y="97.5"><tspan id="svg_207" x="-337" y="111.5">sol</tspan></text></g></g><g id="svg_208"><g id="svg_209" transform="translate(627,370) scale(1.5)"><path style="fill:#ff5293;fill-opacity:1;stroke:#ff2c76;stroke-width:1;stroke-linecap:round;stroke-opacity:1" id="svg_210" d="m-341.5,98 L-281.5,98 L-281.5,118 L-341.5,118 L-341.5,110 L-341.5,109 L-347.5,109 L-347.5,112 L-349.5,112 L-349.5,104 L-347.5,104 L-347.5,107 L-341.5,107 L-341.5,106 z"/><text style="font-size:10px;fill:#282828;font-family:sans-serif;text-anchor:start" id="svg_211" x="-350" y="97.5"><tspan id="svg_212" x="-337" y="111.5">4</tspan></text></g></g></g></svg>