<svg xmlns="http://www.w3.org/2000/svg" xmlns:svg="http://www.w3.org/2000/svg" id="svg7237" width="452" height="521" version="1.1"><metadata id="metadata7243"/><rect id="backgroundrect" width="100%" height="100%" x="0" y="0" fill="none" stroke="none"/><g id="g7235" class="currentLayer"><title id="title7100">Layer 1</title><g id="svg_1"><g id="svg_2"><g id="svg_3" transform="translate(277,25) scale(1.5)"><path style="fill:#daa926;fill-opacity:1;stroke:#daaf30;stroke-width:1;stroke-linecap:round;stroke-opacity:1" id="svg_4" d="m-184.1666717529297,-2.666666030883789 L-184.1666717529297,-6.666666030883789 A4,4 90 0 1 -180.1666717529297,-10.666666030883789 L-176.1666717529297,-10.666666030883789 L-171.1666717529297,-16.66666603088379 L-166.1666717529297,-10.666666030883789 L-157.1666717529297,-10.666666030883789 L-97.16667175292969,-10.666666030883789 L-93.16667175292969,-10.666666030883789 A4,4 90 0 1 -89.16667175292969,-6.666666030883789 L-89.16667175292969,-2.666666030883789 L-89.16667175292969,1.333333969116211 L-89.16667175292969,5.333333969116211 A4,4 90 0 1 -93.16667175292969,9.333333969116211 L-97.16667175292969,9.333333969116211 L-157.1666717529297,9.333333969116211 L-158.1666717529297,9.333333969116211 L-158.1666717529297,11.333333969116211 L-166.1666717529297,11.333333969116211 L-166.1666717529297,9.333333969116211 L-167.1666717529297,9.333333969116211 L-171.1666717529297,9.333333969116211 A5,5 90 0 0 -176.1666717529297,14.333333969116211 L-176.1666717529297,18.33333396911621 L-176.1666717529297,22.33333396911621 L-176.1666717529297,295.3333339691162 L-176.1666717529297,299.3333339691162 A5,5 90 0 0 -171.1666717529297,304.3333339691162 L-167.1666717529297,304.3333339691162 L-167.1666717529297,306.3333339691162 L-157.1666717529297,306.3333339691162 L-157.1666717529297,304.3333339691162 L-149.1666717529297,304.3333339691162 L-149.1666717529297,310.3333339691162 L-149.1666717529297,316.3333339691162 L-149.1666717529297,320.3333339691162 A4,4 90 0 1 -153.1666717529297,324.3333339691162 L-157.1666717529297,324.3333339691162 L-166.1666717529297,324.3333339691162 L-171.1666717529297,330.3333339691162 L-176.1666717529297,324.3333339691162 L-180.1666717529297,324.3333339691162 A4,4 90 0 1 -184.1666717529297,320.3333339691162 L-184.1666717529297,316.3333339691162 z"/><text style="font-size:10px;fill:#282828;font-family:sans-serif;text-anchor:start" id="svg_5" x="-184.667" y="-17.167"><tspan id="svg_6" x="-164.667" y="4.833">start</tspan></text></g></g></g><g id="svg_15"><g id="svg_16" transform="translate(291,66) scale(1.5)"><path style="fill:#77c428;fill-opacity:1;stroke:#57ad02;stroke-width:1;stroke-linecap:round;stroke-opacity:1" id="svg_17" d="m-184.1666717529297,-8.666666030883789 L-184.1666717529297,-12.666666030883789 A4,4 90 0 1 -180.1666717529297,-16.66666603088379 L-176.1666717529297,-16.66666603088379 L-176.1666717529297,-14.666666030883789 L-166.1666717529297,-14.666666030883789 L-166.1666717529297,-16.66666603088379 L-157.1666717529297,-16.66666603088379 L-76.56608581542969,-16.66666603088379 L-72.56608581542969,-16.66666603088379 A4,4 90 0 1 -68.56608581542969,-12.666666030883789 L-68.56608581542969,-8.666666030883789 L-72.56608581542969,-8.666666030883789 L-72.56608581542969,-11.666666030883789 L-76.56608581542969,-11.666666030883789 L-76.56608581542969,-1.666666030883789 L-72.56608581542969,-1.666666030883789 L-72.56608581542969,-4.666666030883789 L-68.56608581542969,-4.666666030883789 L-68.56608581542969,-0.6666660308837891 A4,4 90 0 1 -72.56608581542969,3.333333969116211 L-76.56608581542969,3.333333969116211 L-157.1666717529297,3.333333969116211 L-158.1666717529297,3.333333969116211 L-158.1666717529297,5.333333969116211 L-166.1666717529297,5.333333969116211 L-166.1666717529297,3.333333969116211 L-167.1666717529297,3.333333969116211 L-171.1666717529297,3.333333969116211 A5,5 90 0 0 -176.1666717529297,8.333333969116211 L-176.1666717529297,12.333333969116211 L-176.1666717529297,16.33333396911621 L-176.1666717529297,247.3333339691162 L-176.1666717529297,251.3333339691162 A5,5 90 0 0 -171.1666717529297,256.3333339691162 L-167.1666717529297,256.3333339691162 L-167.1666717529297,258.3333339691162 L-157.1666717529297,258.3333339691162 L-157.1666717529297,256.3333339691162 L-149.1666717529297,256.3333339691162 L-149.1666717529297,262.3333339691162 L-149.1666717529297,268.3333339691162 L-149.1666717529297,272.3333339691162 A4,4 90 0 1 -153.1666717529297,276.3333339691162 L-157.1666717529297,276.3333339691162 L-166.1666717529297,276.3333339691162 L-167.1666717529297,276.3333339691162 L-167.1666717529297,278.3333339691162 L-175.1666717529297,278.3333339691162 L-175.1666717529297,276.3333339691162 L-176.1666717529297,276.3333339691162 L-180.1666717529297,276.3333339691162 A4,4 90 0 1 -184.1666717529297,272.3333339691162 L-184.1666717529297,268.3333339691162 z"/><text style="font-size:10px;fill:#282828;font-family:sans-serif;text-anchor:start" id="svg_18" x="-184.667" y="-17.167"><tspan id="svg_19" x="-179.667" y="-2.167">semi-tone transpose</tspan></text></g></g><g id="svg_22"><g id="svg_23" transform="translate(454,66) scale(1.5)"><path style="fill:#ff5293;fill-opacity:1;stroke:#ff2c76;stroke-width:1;stroke-linecap:round;stroke-opacity:1" id="svg_24" d="m-176.1666717529297,-8.666666030883789 L-176.1666717529297,-12.666666030883789 A4,4 90 0 1 -172.1666717529297,-16.66666603088379 L-168.1666717529297,-16.66666603088379 L-158.1666717529297,-16.66666603088379 L-128.1666717529297,-16.66666603088379 L-124.16667175292969,-16.66666603088379 A4,4 90 0 1 -120.16667175292969,-12.666666030883789 L-120.16667175292969,-8.666666030883789 L-124.16667175292969,-8.666666030883789 L-124.16667175292969,-11.666666030883789 L-128.1666717529297,-11.666666030883789 L-128.1666717529297,-1.666666030883789 L-124.16667175292969,-1.666666030883789 L-124.16667175292969,-4.666666030883789 L-120.16667175292969,-4.666666030883789 L-120.16667175292969,12.333333969116211 L-124.16667175292969,12.333333969116211 L-124.16667175292969,9.333333969116211 L-128.1666717529297,9.333333969116211 L-128.1666717529297,19.33333396911621 L-124.16667175292969,19.33333396911621 L-124.16667175292969,16.33333396911621 L-120.16667175292969,16.33333396911621 L-120.16667175292969,20.33333396911621 A4,4 90 0 1 -124.16667175292969,24.33333396911621 L-128.1666717529297,24.33333396911621 L-158.1666717529297,24.33333396911621 L-168.1666717529297,24.33333396911621 L-172.1666717529297,24.33333396911621 A4,4 90 0 1 -176.1666717529297,20.33333396911621 L-176.1666717529297,16.33333396911621 L-176.1666717529297,-4.666666030883789 L-176.1666717529297,-5.666666030883789 L-182.1666717529297,-5.666666030883789 L-182.1666717529297,-2.666666030883789 L-184.1666717529297,-2.666666030883789 L-184.1666717529297,-10.666666030883789 L-182.1666717529297,-10.666666030883789 L-182.1666717529297,-7.666666030883789 L-176.1666717529297,-7.666666030883789 L-176.1666717529297,-8.666666030883789 z"/><text style="font-size:14px;fill:#282828;font-family:sans-serif;text-anchor:end" id="svg_25" x="-184.667" y="-17.167"><tspan id="svg_26" x="-130.667" y="6.833">+</tspan></text></g></g><g id="svg_31"><g id="svg_32" transform="translate(540,66) scale(1.5)"><path style="fill:#ff5293;fill-opacity:1;stroke:#ff2c76;stroke-width:1;stroke-linecap:round;stroke-opacity:1" id="svg_33" d="m-176.1666717529297,-16.66666603088379 L-116.16667175292969,-16.66666603088379 L-116.16667175292969,3.333333969116211 L-176.1666717529297,3.333333969116211 L-176.1666717529297,-4.666666030883789 L-176.1666717529297,-5.666666030883789 L-182.1666717529297,-5.666666030883789 L-182.1666717529297,-2.666666030883789 L-184.1666717529297,-2.666666030883789 L-184.1666717529297,-10.666666030883789 L-182.1666717529297,-10.666666030883789 L-182.1666717529297,-7.666666030883789 L-176.1666717529297,-7.666666030883789 L-176.1666717529297,-8.666666030883789 z"/><text style="font-size:10px;fill:#282828;font-family:sans-serif;text-anchor:start" id="svg_34" x="-184.667" y="-17.167"><tspan id="svg_35" x="-171.667" y="-3.167">0</tspan></text></g></g><g id="svg_36"><g id="svg_37" transform="translate(540,98) scale(1.5)"><path style="fill:#ff5293;fill-opacity:1;stroke:#ff2c76;stroke-width:1;stroke-linecap:round;stroke-opacity:1" id="svg_38" d="m-176.1666717529297,-8.666666030883789 L-176.1666717529297,-12.666666030883789 A4,4 90 0 1 -172.1666717529297,-16.66666603088379 L-168.1666717529297,-16.66666603088379 L-158.1666717529297,-16.66666603088379 L-128.1666717529297,-16.66666603088379 L-124.16667175292969,-16.66666603088379 A4,4 90 0 1 -120.16667175292969,-12.666666030883789 L-120.16667175292969,-8.666666030883789 L-124.16667175292969,-8.666666030883789 L-124.16667175292969,-11.666666030883789 L-128.1666717529297,-11.666666030883789 L-128.1666717529297,-1.666666030883789 L-124.16667175292969,-1.666666030883789 L-124.16667175292969,-4.666666030883789 L-120.16667175292969,-4.666666030883789 L-120.16667175292969,12.333333969116211 L-124.16667175292969,12.333333969116211 L-124.16667175292969,9.333333969116211 L-128.1666717529297,9.333333969116211 L-128.1666717529297,19.33333396911621 L-124.16667175292969,19.33333396911621 L-124.16667175292969,16.33333396911621 L-120.16667175292969,16.33333396911621 L-120.16667175292969,20.33333396911621 A4,4 90 0 1 -124.16667175292969,24.33333396911621 L-128.1666717529297,24.33333396911621 L-158.1666717529297,24.33333396911621 L-168.1666717529297,24.33333396911621 L-172.1666717529297,24.33333396911621 A4,4 90 0 1 -176.1666717529297,20.33333396911621 L-176.1666717529297,16.33333396911621 L-176.1666717529297,-4.666666030883789 L-176.1666717529297,-5.666666030883789 L-182.1666717529297,-5.666666030883789 L-182.1666717529297,-2.666666030883789 L-184.1666717529297,-2.666666030883789 L-184.1666717529297,-10.666666030883789 L-182.1666717529297,-10.666666030883789 L-182.1666717529297,-7.666666030883789 L-176.1666717529297,-7.666666030883789 L-176.1666717529297,-8.666666030883789 z"/><text style="font-size:14px;fill:#282828;font-family:sans-serif;text-anchor:end" id="svg_39" x="-184.667" y="-17.167"><tspan id="svg_40" x="-130.667" y="6.833">×</tspan></text></g></g><g id="svg_45"><g id="svg_46" transform="translate(626,98) scale(1.5)"><path style="fill:#ff5293;fill-opacity:1;stroke:#ff2c76;stroke-width:1;stroke-linecap:round;stroke-opacity:1" id="svg_47" d="m-176.1666717529297,-16.66666603088379 L-116.16667175292969,-16.66666603088379 L-116.16667175292969,3.333333969116211 L-176.1666717529297,3.333333969116211 L-176.1666717529297,-4.666666030883789 L-176.1666717529297,-5.666666030883789 L-182.1666717529297,-5.666666030883789 L-182.1666717529297,-2.666666030883789 L-184.1666717529297,-2.666666030883789 L-184.1666717529297,-10.666666030883789 L-182.1666717529297,-10.666666030883789 L-182.1666717529297,-7.666666030883789 L-176.1666717529297,-7.666666030883789 L-176.1666717529297,-8.666666030883789 z"/><text style="font-size:10px;fill:#282828;font-family:sans-serif;text-anchor:start" id="svg_48" x="-184.667" y="-17.167"><tspan id="svg_49" x="-171.667" y="-3.167">1</tspan></text></g></g><g id="svg_50"><g id="svg_51" transform="translate(626,130) scale(1.5)"><path style="fill:#ff5293;fill-opacity:1;stroke:#ff2c76;stroke-width:1;stroke-linecap:round;stroke-opacity:1" id="svg_52" d="m-176.1666717529297,-16.66666603088379 L-116.16667175292969,-16.66666603088379 L-116.16667175292969,3.333333969116211 L-176.1666717529297,3.333333969116211 L-176.1666717529297,-4.666666030883789 L-176.1666717529297,-5.666666030883789 L-182.1666717529297,-5.666666030883789 L-182.1666717529297,-2.666666030883789 L-184.1666717529297,-2.666666030883789 L-184.1666717529297,-10.666666030883789 L-182.1666717529297,-10.666666030883789 L-182.1666717529297,-7.666666030883789 L-176.1666717529297,-7.666666030883789 L-176.1666717529297,-8.666666030883789 z"/><text style="font-size:10px;fill:#282828;font-family:sans-serif;text-anchor:start" id="svg_53" x="-184.667" y="-17.167"><tspan id="svg_54" x="-171.667" y="-3.167">12</tspan></text></g></g><g id="svg_55"><g id="svg_56" transform="translate(305,288) scale(1.5)"><path style="fill:#d68136;fill-opacity:1;stroke:#b7651a;stroke-width:1;stroke-linecap:round;stroke-opacity:1" id="svg_57" d="m-184.1666717529297,-8.666666030883789 L-184.1666717529297,-12.666666030883789 A4,4 90 0 1 -180.1666717529297,-16.66666603088379 L-176.1666717529297,-16.66666603088379 L-176.1666717529297,-14.666666030883789 L-166.1666717529297,-14.666666030883789 L-166.1666717529297,-16.66666603088379 L-157.1666717529297,-16.66666603088379 L-137.1666717529297,-16.66666603088379 L-133.1666717529297,-16.66666603088379 A4,4 90 0 1 -129.1666717529297,-12.666666030883789 L-129.1666717529297,-8.666666030883789 L-133.1666717529297,-8.666666030883789 L-133.1666717529297,-11.666666030883789 L-137.1666717529297,-11.666666030883789 L-137.1666717529297,-1.666666030883789 L-133.1666717529297,-1.666666030883789 L-133.1666717529297,-4.666666030883789 L-129.1666717529297,-4.666666030883789 L-129.1666717529297,-0.6666660308837891 A4,4 90 0 1 -133.1666717529297,3.333333969116211 L-137.1666717529297,3.333333969116211 L-157.1666717529297,3.333333969116211 L-158.1666717529297,3.333333969116211 L-158.1666717529297,5.333333969116211 L-166.1666717529297,5.333333969116211 L-166.1666717529297,3.333333969116211 L-167.1666717529297,3.333333969116211 L-171.1666717529297,3.333333969116211 A5,5 90 0 0 -176.1666717529297,8.333333969116211 L-176.1666717529297,12.333333969116211 L-176.1666717529297,16.33333396911621 L-176.1666717529297,20.33333396911621 A5,5 90 0 0 -171.1666717529297,25.33333396911621 L-167.1666717529297,25.33333396911621 L-167.1666717529297,27.33333396911621 L-157.1666717529297,27.33333396911621 L-157.1666717529297,25.33333396911621 L-149.1666717529297,25.33333396911621 L-149.1666717529297,31.33333396911621 L-149.1666717529297,37.33333396911621 L-149.1666717529297,41.33333396911621 A4,4 90 0 1 -153.1666717529297,45.33333396911621 L-157.1666717529297,45.33333396911621 L-166.1666717529297,45.33333396911621 L-167.1666717529297,45.33333396911621 L-167.1666717529297,47.33333396911621 L-175.1666717529297,47.33333396911621 L-175.1666717529297,45.33333396911621 L-176.1666717529297,45.33333396911621 L-180.1666717529297,45.33333396911621 A4,4 90 0 1 -184.1666717529297,41.33333396911621 L-184.1666717529297,37.33333396911621 z"/><text style="font-size:10px;fill:#282828;font-family:sans-serif;text-anchor:start" id="svg_58" x="-184.667" y="-17.167"><tspan id="svg_59" x="-179.667" y="-2.167">repeat</tspan></text></g></g><g id="svg_62"><g id="svg_63" transform="translate(377,288) scale(1.5)"><path style="fill:#ff5293;fill-opacity:1;stroke:#ff2c76;stroke-width:1;stroke-linecap:round;stroke-opacity:1" id="svg_64" d="m-176.1666717529297,-16.66666603088379 L-116.16667175292969,-16.66666603088379 L-116.16667175292969,3.333333969116211 L-176.1666717529297,3.333333969116211 L-176.1666717529297,-4.666666030883789 L-176.1666717529297,-5.666666030883789 L-182.1666717529297,-5.666666030883789 L-182.1666717529297,-2.666666030883789 L-184.1666717529297,-2.666666030883789 L-184.1666717529297,-10.666666030883789 L-182.1666717529297,-10.666666030883789 L-182.1666717529297,-7.666666030883789 L-176.1666717529297,-7.666666030883789 L-176.1666717529297,-8.666666030883789 z"/><text style="font-size:10px;fill:#282828;font-family:sans-serif;text-anchor:start" id="svg_65" x="-184.667" y="-17.167"><tspan id="svg_66" x="-171.667" y="-3.167">2</tspan></text></g></g><g id="svg_67"><g id="svg_68" transform="translate(305,193) scale(1.5)"><path style="fill:#d68136;fill-opacity:1;stroke:#b7651a;stroke-width:1;stroke-linecap:round;stroke-opacity:1" id="svg_69" d="m-184.1666717529297,-8.666666030883789 L-184.1666717529297,-12.666666030883789 A4,4 90 0 1 -180.1666717529297,-16.66666603088379 L-176.1666717529297,-16.66666603088379 L-176.1666717529297,-14.666666030883789 L-166.1666717529297,-14.666666030883789 L-166.1666717529297,-16.66666603088379 L-157.1666717529297,-16.66666603088379 L-137.1666717529297,-16.66666603088379 L-133.1666717529297,-16.66666603088379 A4,4 90 0 1 -129.1666717529297,-12.666666030883789 L-129.1666717529297,-8.666666030883789 L-133.1666717529297,-8.666666030883789 L-133.1666717529297,-11.666666030883789 L-137.1666717529297,-11.666666030883789 L-137.1666717529297,-1.666666030883789 L-133.1666717529297,-1.666666030883789 L-133.1666717529297,-4.666666030883789 L-129.1666717529297,-4.666666030883789 L-129.1666717529297,-0.6666660308837891 A4,4 90 0 1 -133.1666717529297,3.333333969116211 L-137.1666717529297,3.333333969116211 L-157.1666717529297,3.333333969116211 L-158.1666717529297,3.333333969116211 L-158.1666717529297,5.333333969116211 L-166.1666717529297,5.333333969116211 L-166.1666717529297,3.333333969116211 L-167.1666717529297,3.333333969116211 L-171.1666717529297,3.333333969116211 A5,5 90 0 0 -176.1666717529297,8.333333969116211 L-176.1666717529297,12.333333969116211 L-176.1666717529297,16.33333396911621 L-176.1666717529297,20.33333396911621 A5,5 90 0 0 -171.1666717529297,25.33333396911621 L-167.1666717529297,25.33333396911621 L-167.1666717529297,27.33333396911621 L-157.1666717529297,27.33333396911621 L-157.1666717529297,25.33333396911621 L-149.1666717529297,25.33333396911621 L-149.1666717529297,31.33333396911621 L-149.1666717529297,37.33333396911621 L-149.1666717529297,41.33333396911621 A4,4 90 0 1 -153.1666717529297,45.33333396911621 L-157.1666717529297,45.33333396911621 L-166.1666717529297,45.33333396911621 L-167.1666717529297,45.33333396911621 L-167.1666717529297,47.33333396911621 L-175.1666717529297,47.33333396911621 L-175.1666717529297,45.33333396911621 L-176.1666717529297,45.33333396911621 L-180.1666717529297,45.33333396911621 A4,4 90 0 1 -184.1666717529297,41.33333396911621 L-184.1666717529297,37.33333396911621 z"/><text style="font-size:10px;fill:#282828;font-family:sans-serif;text-anchor:start" id="svg_70" x="-184.667" y="-17.167"><tspan id="svg_71" x="-179.667" y="-2.167">repeat</tspan></text></g></g><g id="svg_74"><g id="svg_75" transform="translate(377,193) scale(1.5)"><path style="fill:#ff5293;fill-opacity:1;stroke:#ff2c76;stroke-width:1;stroke-linecap:round;stroke-opacity:1" id="svg_76" d="m-176.1666717529297,-16.66666603088379 L-116.16667175292969,-16.66666603088379 L-116.16667175292969,3.333333969116211 L-176.1666717529297,3.333333969116211 L-176.1666717529297,-4.666666030883789 L-176.1666717529297,-5.666666030883789 L-182.1666717529297,-5.666666030883789 L-182.1666717529297,-2.666666030883789 L-184.1666717529297,-2.666666030883789 L-184.1666717529297,-10.666666030883789 L-182.1666717529297,-10.666666030883789 L-182.1666717529297,-7.666666030883789 L-176.1666717529297,-7.666666030883789 L-176.1666717529297,-8.666666030883789 z"/><text style="font-size:10px;fill:#282828;font-family:sans-serif;text-anchor:start" id="svg_77" x="-184.667" y="-17.167"><tspan id="svg_78" x="-171.667" y="-3.167">2</tspan></text></g></g><g id="svg_79"><g id="svg_80" transform="translate(305,98) scale(1.5)"><path style="fill:#d68136;fill-opacity:1;stroke:#b7651a;stroke-width:1;stroke-linecap:round;stroke-opacity:1" id="svg_81" d="m-184.1666717529297,-8.666666030883789 L-184.1666717529297,-12.666666030883789 A4,4 90 0 1 -180.1666717529297,-16.66666603088379 L-176.1666717529297,-16.66666603088379 L-176.1666717529297,-14.666666030883789 L-166.1666717529297,-14.666666030883789 L-166.1666717529297,-16.66666603088379 L-157.1666717529297,-16.66666603088379 L-137.1666717529297,-16.66666603088379 L-133.1666717529297,-16.66666603088379 A4,4 90 0 1 -129.1666717529297,-12.666666030883789 L-129.1666717529297,-8.666666030883789 L-133.1666717529297,-8.666666030883789 L-133.1666717529297,-11.666666030883789 L-137.1666717529297,-11.666666030883789 L-137.1666717529297,-1.666666030883789 L-133.1666717529297,-1.666666030883789 L-133.1666717529297,-4.666666030883789 L-129.1666717529297,-4.666666030883789 L-129.1666717529297,-0.6666660308837891 A4,4 90 0 1 -133.1666717529297,3.333333969116211 L-137.1666717529297,3.333333969116211 L-157.1666717529297,3.333333969116211 L-158.1666717529297,3.333333969116211 L-158.1666717529297,5.333333969116211 L-166.1666717529297,5.333333969116211 L-166.1666717529297,3.333333969116211 L-167.1666717529297,3.333333969116211 L-171.1666717529297,3.333333969116211 A5,5 90 0 0 -176.1666717529297,8.333333969116211 L-176.1666717529297,12.333333969116211 L-176.1666717529297,16.33333396911621 L-176.1666717529297,20.33333396911621 A5,5 90 0 0 -171.1666717529297,25.33333396911621 L-167.1666717529297,25.33333396911621 L-167.1666717529297,27.33333396911621 L-157.1666717529297,27.33333396911621 L-157.1666717529297,25.33333396911621 L-149.1666717529297,25.33333396911621 L-149.1666717529297,31.33333396911621 L-149.1666717529297,37.33333396911621 L-149.1666717529297,41.33333396911621 A4,4 90 0 1 -153.1666717529297,45.33333396911621 L-157.1666717529297,45.33333396911621 L-166.1666717529297,45.33333396911621 L-167.1666717529297,45.33333396911621 L-167.1666717529297,47.33333396911621 L-175.1666717529297,47.33333396911621 L-175.1666717529297,45.33333396911621 L-176.1666717529297,45.33333396911621 L-180.1666717529297,45.33333396911621 A4,4 90 0 1 -184.1666717529297,41.33333396911621 L-184.1666717529297,37.33333396911621 z"/><text style="font-size:10px;fill:#282828;font-family:sans-serif;text-anchor:start" id="svg_82" x="-184.667" y="-17.167"><tspan id="svg_83" x="-179.667" y="-2.167">repeat</tspan></text></g></g><g id="svg_86"><g id="svg_87" transform="translate(377,98) scale(1.5)"><path style="fill:#ff5293;fill-opacity:1;stroke:#ff2c76;stroke-width:1;stroke-linecap:round;stroke-opacity:1" id="svg_88" d="m-176.1666717529297,-16.66666603088379 L-116.16667175292969,-16.66666603088379 L-116.16667175292969,3.333333969116211 L-176.1666717529297,3.333333969116211 L-176.1666717529297,-4.666666030883789 L-176.1666717529297,-5.666666030883789 L-182.1666717529297,-5.666666030883789 L-182.1666717529297,-2.666666030883789 L-184.1666717529297,-2.666666030883789 L-184.1666717529297,-10.666666030883789 L-182.1666717529297,-10.666666030883789 L-182.1666717529297,-7.666666030883789 L-176.1666717529297,-7.666666030883789 L-176.1666717529297,-8.666666030883789 z"/><text style="font-size:10px;fill:#282828;font-family:sans-serif;text-anchor:start" id="svg_89" x="-184.667" y="-17.167"><tspan id="svg_90" x="-171.667" y="-3.167">2</tspan></text></g></g><g id="svg_111"><g id="svg_112" transform="translate(319,130) scale(1.5)"><path style="fill:#daa926;fill-opacity:1;stroke:#daaf30;stroke-width:1;stroke-linecap:round;stroke-opacity:1" id="svg_113" d="m-184.1666717529297,-8.666666030883789 L-184.1666717529297,-12.666666030883789 A4,4 90 0 1 -180.1666717529297,-16.66666603088379 L-176.1666717529297,-16.66666603088379 L-176.1666717529297,-14.666666030883789 L-166.1666717529297,-14.666666030883789 L-166.1666717529297,-16.66666603088379 L-96.16667175292969,-16.66666603088379 L-92.16667175292969,-16.66666603088379 A4,4 90 0 1 -88.16667175292969,-12.666666030883789 L-88.16667175292969,-8.666666030883789 L-88.16667175292969,-4.666666030883789 L-88.16667175292969,-0.6666660308837891 A4,4 90 0 1 -92.16667175292969,3.333333969116211 L-96.16667175292969,3.333333969116211 L-166.1666717529297,3.333333969116211 L-167.1666717529297,3.333333969116211 L-167.1666717529297,5.333333969116211 L-175.1666717529297,5.333333969116211 L-175.1666717529297,3.333333969116211 L-176.1666717529297,3.333333969116211 L-180.1666717529297,3.333333969116211 A4,4 90 0 1 -184.1666717529297,-0.6666660308837891 L-184.1666717529297,-4.666666030883789 z"/><text style="font-size:10px;fill:#282828;font-family:sans-serif;text-anchor:end" id="svg_114" x="-184.667" y="-17.167"><tspan id="svg_115" x="-98.667" y="-3.167">chunk0</tspan></text></g></g><g id="svg_176"><g id="svg_177" transform="translate(305,383) scale(1.5)"><path style="fill:#d68136;fill-opacity:1;stroke:#b7651a;stroke-width:1;stroke-linecap:round;stroke-opacity:1" id="svg_178" d="m-184.1666717529297,-8.666666030883789 L-184.1666717529297,-12.666666030883789 A4,4 90 0 1 -180.1666717529297,-16.66666603088379 L-176.1666717529297,-16.66666603088379 L-176.1666717529297,-14.666666030883789 L-166.1666717529297,-14.666666030883789 L-166.1666717529297,-16.66666603088379 L-157.1666717529297,-16.66666603088379 L-137.1666717529297,-16.66666603088379 L-133.1666717529297,-16.66666603088379 A4,4 90 0 1 -129.1666717529297,-12.666666030883789 L-129.1666717529297,-8.666666030883789 L-133.1666717529297,-8.666666030883789 L-133.1666717529297,-11.666666030883789 L-137.1666717529297,-11.666666030883789 L-137.1666717529297,-1.666666030883789 L-133.1666717529297,-1.666666030883789 L-133.1666717529297,-4.666666030883789 L-129.1666717529297,-4.666666030883789 L-129.1666717529297,-0.6666660308837891 A4,4 90 0 1 -133.1666717529297,3.333333969116211 L-137.1666717529297,3.333333969116211 L-157.1666717529297,3.333333969116211 L-158.1666717529297,3.333333969116211 L-158.1666717529297,5.333333969116211 L-166.1666717529297,5.333333969116211 L-166.1666717529297,3.333333969116211 L-167.1666717529297,3.333333969116211 L-171.1666717529297,3.333333969116211 A5,5 90 0 0 -176.1666717529297,8.333333969116211 L-176.1666717529297,12.333333969116211 L-176.1666717529297,16.33333396911621 L-176.1666717529297,20.33333396911621 A5,5 90 0 0 -171.1666717529297,25.33333396911621 L-167.1666717529297,25.33333396911621 L-167.1666717529297,27.33333396911621 L-157.1666717529297,27.33333396911621 L-157.1666717529297,25.33333396911621 L-149.1666717529297,25.33333396911621 L-149.1666717529297,31.33333396911621 L-149.1666717529297,37.33333396911621 L-149.1666717529297,41.33333396911621 A4,4 90 0 1 -153.1666717529297,45.33333396911621 L-157.1666717529297,45.33333396911621 L-166.1666717529297,45.33333396911621 L-167.1666717529297,45.33333396911621 L-167.1666717529297,47.33333396911621 L-175.1666717529297,47.33333396911621 L-175.1666717529297,45.33333396911621 L-176.1666717529297,45.33333396911621 L-180.1666717529297,45.33333396911621 A4,4 90 0 1 -184.1666717529297,41.33333396911621 L-184.1666717529297,37.33333396911621 z"/><text style="font-size:10px;fill:#282828;font-family:sans-serif;text-anchor:start" id="svg_179" x="-184.667" y="-17.167"><tspan id="svg_180" x="-179.667" y="-2.167">repeat</tspan></text></g></g><g id="svg_183"><g id="svg_184" transform="translate(377,383) scale(1.5)"><path style="fill:#ff5293;fill-opacity:1;stroke:#ff2c76;stroke-width:1;stroke-linecap:round;stroke-opacity:1" id="svg_185" d="m-176.1666717529297,-16.66666603088379 L-116.16667175292969,-16.66666603088379 L-116.16667175292969,3.333333969116211 L-176.1666717529297,3.333333969116211 L-176.1666717529297,-4.666666030883789 L-176.1666717529297,-5.666666030883789 L-182.1666717529297,-5.666666030883789 L-182.1666717529297,-2.666666030883789 L-184.1666717529297,-2.666666030883789 L-184.1666717529297,-10.666666030883789 L-182.1666717529297,-10.666666030883789 L-182.1666717529297,-7.666666030883789 L-176.1666717529297,-7.666666030883789 L-176.1666717529297,-8.666666030883789 z"/><text style="font-size:10px;fill:#282828;font-family:sans-serif;text-anchor:start" id="svg_186" x="-184.667" y="-17.167"><tspan id="svg_187" x="-171.667" y="-3.167">2</tspan></text></g></g><g id="svg_188"><g id="svg_189" transform="translate(319,225) scale(1.5)"><path style="fill:#daa926;fill-opacity:1;stroke:#daaf30;stroke-width:1;stroke-linecap:round;stroke-opacity:1" id="svg_190" d="m-184.1666717529297,-8.666666030883789 L-184.1666717529297,-12.666666030883789 A4,4 90 0 1 -180.1666717529297,-16.66666603088379 L-176.1666717529297,-16.66666603088379 L-176.1666717529297,-14.666666030883789 L-166.1666717529297,-14.666666030883789 L-166.1666717529297,-16.66666603088379 L-96.16667175292969,-16.66666603088379 L-92.16667175292969,-16.66666603088379 A4,4 90 0 1 -88.16667175292969,-12.666666030883789 L-88.16667175292969,-8.666666030883789 L-88.16667175292969,-4.666666030883789 L-88.16667175292969,-0.6666660308837891 A4,4 90 0 1 -92.16667175292969,3.333333969116211 L-96.16667175292969,3.333333969116211 L-166.1666717529297,3.333333969116211 L-167.1666717529297,3.333333969116211 L-167.1666717529297,5.333333969116211 L-175.1666717529297,5.333333969116211 L-175.1666717529297,3.333333969116211 L-176.1666717529297,3.333333969116211 L-180.1666717529297,3.333333969116211 A4,4 90 0 1 -184.1666717529297,-0.6666660308837891 L-184.1666717529297,-4.666666030883789 z"/><text style="font-size:10px;fill:#282828;font-family:sans-serif;text-anchor:end" id="svg_191" x="-184.667" y="-17.167"><tspan id="svg_192" x="-98.667" y="-3.167">chunk1</tspan></text></g></g><g id="svg_193"><g id="svg_194" transform="translate(319,320) scale(1.5)"><path style="fill:#daa926;fill-opacity:1;stroke:#daaf30;stroke-width:1;stroke-linecap:round;stroke-opacity:1" id="svg_195" d="m-184.1666717529297,-8.666666030883789 L-184.1666717529297,-12.666666030883789 A4,4 90 0 1 -180.1666717529297,-16.66666603088379 L-176.1666717529297,-16.66666603088379 L-176.1666717529297,-14.666666030883789 L-166.1666717529297,-14.666666030883789 L-166.1666717529297,-16.66666603088379 L-96.16667175292969,-16.66666603088379 L-92.16667175292969,-16.66666603088379 A4,4 90 0 1 -88.16667175292969,-12.666666030883789 L-88.16667175292969,-8.666666030883789 L-88.16667175292969,-4.666666030883789 L-88.16667175292969,-0.6666660308837891 A4,4 90 0 1 -92.16667175292969,3.333333969116211 L-96.16667175292969,3.333333969116211 L-166.1666717529297,3.333333969116211 L-167.1666717529297,3.333333969116211 L-167.1666717529297,5.333333969116211 L-175.1666717529297,5.333333969116211 L-175.1666717529297,3.333333969116211 L-176.1666717529297,3.333333969116211 L-180.1666717529297,3.333333969116211 A4,4 90 0 1 -184.1666717529297,-0.6666660308837891 L-184.1666717529297,-4.666666030883789 z"/><text style="font-size:10px;fill:#282828;font-family:sans-serif;text-anchor:end" id="svg_196" x="-184.667" y="-17.167"><tspan id="svg_197" x="-98.667" y="-3.167">chunk2</tspan></text></g></g><g id="svg_198"><g id="svg_199" transform="translate(319,415) scale(1.5)"><path style="fill:#daa926;fill-opacity:1;stroke:#daaf30;stroke-width:1;stroke-linecap:round;stroke-opacity:1" id="svg_200" d="m-184.1666717529297,-8.666666030883789 L-184.1666717529297,-12.666666030883789 A4,4 90 0 1 -180.1666717529297,-16.66666603088379 L-176.1666717529297,-16.66666603088379 L-176.1666717529297,-14.666666030883789 L-166.1666717529297,-14.666666030883789 L-166.1666717529297,-16.66666603088379 L-96.16667175292969,-16.66666603088379 L-92.16667175292969,-16.66666603088379 A4,4 90 0 1 -88.16667175292969,-12.666666030883789 L-88.16667175292969,-8.666666030883789 L-88.16667175292969,-4.666666030883789 L-88.16667175292969,-0.6666660308837891 A4,4 90 0 1 -92.16667175292969,3.333333969116211 L-96.16667175292969,3.333333969116211 L-166.1666717529297,3.333333969116211 L-167.1666717529297,3.333333969116211 L-167.1666717529297,5.333333969116211 L-175.1666717529297,5.333333969116211 L-175.1666717529297,3.333333969116211 L-176.1666717529297,3.333333969116211 L-180.1666717529297,3.333333969116211 A4,4 90 0 1 -184.1666717529297,-0.6666660308837891 L-184.1666717529297,-4.666666030883789 z"/><text style="font-size:10px;fill:#282828;font-family:sans-serif;text-anchor:end" id="svg_201" x="-184.667" y="-17.167"><tspan id="svg_202" x="-98.667" y="-3.167">chunk3</tspan></text></g></g></g></svg>