<svg xmlns="http://www.w3.org/2000/svg" xmlns:svg="http://www.w3.org/2000/svg" id="svg1020" width="676.523" height="1247.343" version="1.1"><metadata id="metadata1026"/><g id="g14" transform="translate(366.33333,40.921541)"><g id="g12" transform="scale(1.5)"><path id="path2" d="m 0.5,8.5 v -4 a 4,4 90 0 1 4,-4 h 4 v 2 h 10 v -2 h 9 4 a 4,4 90 0 1 4,4 v 4 9 a 8,8 90 0 0 -8,8 8,8 90 0 0 8,8 v 4 a 4,4 90 0 1 -4,4 h -4 -1 v 2 h -8 v -2 h -1 -4 a 5,5 90 0 0 -5,5 v 4 4 693 4 a 5,5 90 0 0 5,5 h 4 v 2 h 10 v -2 h 8 v 6 6 4 a 4,4 90 0 1 -4,4 h -4 -9 -1 v 2 h -8 v -2 h -1 -4 a 4,4 90 0 1 -4,-4 v -4 z" style="fill:#e9a066;fill-opacity:1;stroke:#b7651a;stroke-width:1;stroke-linecap:round;stroke-opacity:1"/><text id="text6" style="font-size:10px;font-family:sans-serif;text-anchor:start;fill:#000"><tspan id="tspan4" x="5.333" y="18.583">if</tspan></text><text id="text10" style="font-size:6.66666651px;font-family:sans-serif;text-anchor:end;fill:#000"><tspan id="tspan8" x="30.667" y="37.833">then</tspan></text></g></g><g id="g26" transform="translate(408.33333,40.921541)"><g id="g24" transform="scale(1.5)"><g id="g18" transform="translate(0,-16)"><path id="path16" d="m 0.5,41.5 a 7,7 90 0 1 7,-7 h 1 v -10 a 8,8 90 0 1 8,-8 h 34 v 8 h -4 v -3 h -4 v 10 h 4 v -3 h 4 v 17 h -4 v -3 h -4 v 10 h 4 v -3 h 4 v 8 h -30 -12 v -8 -1 h -1 a 7,7 90 0 1 -7,-7 z" style="fill:#d97df5;fill-opacity:1;stroke:#b653d3;stroke-width:1;stroke-linecap:round;stroke-opacity:1"/></g><text id="text22" style="font-size:14px;font-family:sans-serif;text-anchor:end;fill:#000"><tspan id="tspan20" x="37.667" y="25.667">&gt;</tspan></text></g></g><g id="g36" transform="translate(472.83333,72.421541)"><g id="g34" transform="scale(1.5)"><path id="path28" d="m 8.5,0.5 h 60 v 20 h -60 v -8 -1 h -6 v 3 h -2 v -8 h 2 v 3 h 6 v -1 z" style="fill:#ff6ea1;fill-opacity:1;stroke:#ff2c76;stroke-width:1;stroke-linecap:round;stroke-opacity:1"/><text id="text32" style="font-size:10px;font-family:sans-serif;text-anchor:start;fill:#000"><tspan id="tspan30" x="13.333" y="13.833">8</tspan></text></g></g><g id="g50" transform="translate(393.33333,261.42154)"><g id="g48" transform="scale(1.5)"><path id="path38" d="m 0.5,8.5 v -4 a 4,4 90 0 1 4,-4 h 4 v 2 h 10 v -2 h 33.344727 4 a 4,4 90 0 1 4,4 v 4 h -4 v -3 h -4 v 10 h 4 v -3 h 4 v 4 a 4,4 90 0 1 -4,4 h -4 H 18.5 h -1 v 2 h -8 v -2 h -1 -4 a 4,4 90 0 1 -4,-4 v -4 z" style="fill:#92a9ff;fill-opacity:1;stroke:#5370dc;stroke-width:1;stroke-linecap:round;stroke-opacity:1"/><text id="text42" style="font-size:10px;font-family:sans-serif;text-anchor:end;fill:#000"><tspan id="tspan40" x="49.678" y="13.5">forward</tspan></text></g></g><g id="g64" transform="translate(393.33333,481.92154)"><g id="g62" transform="scale(1.5)"><path id="path52" d="m 0.5,8.5 v -4 a 4,4 90 0 1 4,-4 h 4 v 2 h 10 v -2 h 30 4 a 4,4 90 0 1 4,4 v 4 h -4 v -3 h -4 v 10 h 4 v -3 h 4 v 4 a 4,4 90 0 1 -4,4 h -4 -30 -1 v 2 h -8 v -2 h -1 -4 a 4,4 90 0 1 -4,-4 v -4 z" style="fill:#92a9ff;fill-opacity:1;stroke:#5370dc;stroke-width:1;stroke-linecap:round;stroke-opacity:1"/><text id="text56" style="font-size:10px;font-family:sans-serif;text-anchor:end;fill:#000"><tspan id="tspan54" x="46.333" y="13.5">right</tspan></text></g></g><g id="g74" transform="translate(466.83333,481.92154)"><g id="g72" transform="scale(1.5)"><path id="path66" d="m 8.5,0.5 h 60 v 20 h -60 v -8 -1 h -6 v 3 h -2 v -8 h 2 v 3 h 6 v -1 z" style="fill:#ff6ea1;fill-opacity:1;stroke:#ff2c76;stroke-width:1;stroke-linecap:round;stroke-opacity:1"/><text id="text70" style="font-size:10px;font-family:sans-serif;text-anchor:start;fill:#000"><tspan id="tspan68" x="13.333" y="13.833">30</tspan></text></g></g><g id="g88" transform="translate(393.33333,639.42154)"><g id="g86" transform="scale(1.5)"><path id="path76" d="m 0.5,8.5 v -4 a 4,4 90 0 1 4,-4 h 4 v 2 h 10 v -2 h 30 4 a 4,4 90 0 1 4,4 v 4 h -4 v -3 h -4 v 10 h 4 v -3 h 4 v 4 a 4,4 90 0 1 -4,4 h -4 -30 -1 v 2 h -8 v -2 h -1 -4 a 4,4 90 0 1 -4,-4 v -4 z" style="fill:#92a9ff;fill-opacity:1;stroke:#5370dc;stroke-width:1;stroke-linecap:round;stroke-opacity:1"/><text id="text80" style="font-size:10px;font-family:sans-serif;text-anchor:end;fill:#000"><tspan id="tspan78" x="46.333" y="13.5">left</tspan></text></g></g><g id="g98" transform="translate(466.83333,639.42154)"><g id="g96" transform="scale(1.5)"><path id="path90" d="m 8.5,0.5 h 60 v 20 h -60 v -8 -1 h -6 v 3 h -2 v -8 h 2 v 3 h 6 v -1 z" style="fill:#ff6ea1;fill-opacity:1;stroke:#ff2c76;stroke-width:1;stroke-linecap:round;stroke-opacity:1"/><text id="text94" style="font-size:10px;font-family:sans-serif;text-anchor:start;fill:#000"><tspan id="tspan92" x="13.333" y="13.833">60</tspan></text></g></g><g id="g112" transform="translate(393.33333,796.92154)"><g id="g110" transform="scale(1.5)"><path id="path100" d="m 0.5,8.5 v -4 a 4,4 90 0 1 4,-4 h 4 v 2 h 10 v -2 h 30 4 a 4,4 90 0 1 4,4 v 4 h -4 v -3 h -4 v 10 h 4 v -3 h 4 v 4 a 4,4 90 0 1 -4,4 h -4 -30 -1 v 2 h -8 v -2 h -1 -4 a 4,4 90 0 1 -4,-4 v -4 z" style="fill:#92a9ff;fill-opacity:1;stroke:#5370dc;stroke-width:1;stroke-linecap:round;stroke-opacity:1"/><text id="text104" style="font-size:10px;font-family:sans-serif;text-anchor:end;fill:#000"><tspan id="tspan102" x="46.333" y="13.5">right</tspan></text></g></g><g id="g122" transform="translate(466.83333,796.92154)"><g id="g120" transform="scale(1.5)"><path id="path114" d="m 8.5,0.5 h 60 v 20 h -60 v -8 -1 h -6 v 3 h -2 v -8 h 2 v 3 h 6 v -1 z" style="fill:#ff6ea1;fill-opacity:1;stroke:#ff2c76;stroke-width:1;stroke-linecap:round;stroke-opacity:1"/><text id="text118" style="font-size:10px;font-family:sans-serif;text-anchor:start;fill:#000"><tspan id="tspan116" x="13.333" y="13.833">30</tspan></text></g></g><g id="g136" transform="translate(393.33333,1111.9216)"><g id="g134" transform="scale(1.5)"><path id="path124" d="m 0.5,8.5 v -4 a 4,4 90 0 1 4,-4 h 4 v 2 h 10 v -2 h 30 4 a 4,4 90 0 1 4,4 v 4 h -4 v -3 h -4 v 10 h 4 v -3 h 4 v 4 a 4,4 90 0 1 -4,4 h -4 -30 -1 v 2 h -8 v -2 h -1 -4 a 4,4 90 0 1 -4,-4 v -4 z" style="fill:#92a9ff;fill-opacity:1;stroke:#5370dc;stroke-width:1;stroke-linecap:round;stroke-opacity:1"/><text id="text128" style="font-size:10px;font-family:sans-serif;text-anchor:end;fill:#000"><tspan id="tspan126" x="46.333" y="13.5">back</tspan></text></g></g><g id="g146" transform="translate(40.500003,261.42154)"><g id="g144" transform="scale(1.5)"><path id="path138" d="m 0.5,8.5 v -4 a 4,4 90 0 1 4,-4 h 4 v 2 h 10 v -2 h 30 4 a 4,4 90 0 1 4,4 v 4 4 4 a 4,4 90 0 1 -4,4 h -4 -30 -1 v 2 h -8 v -2 h -1 -4 a 4,4 90 0 1 -4,-4 v -4 z" style="fill:#92a9ff;fill-opacity:1;stroke:#5370dc;stroke-width:1;stroke-linecap:round;stroke-opacity:1"/><text id="text142" style="font-size:10px;font-family:sans-serif;text-anchor:end;fill:#000"><tspan id="tspan140" x="46.333" y="13.5">clear</tspan></text></g></g><g id="g156" transform="translate(91.189453,72.421541)"><g id="g154" transform="scale(1.5)"><path id="path148" d="m 8.5,0.5 h 60 v 20 h -60 v -8 -1 h -6 v 3 h -2 v -8 h 2 v 3 h 6 v -1 z" style="fill:#ff6ea1;fill-opacity:1;stroke:#ff2c76;stroke-width:1;stroke-linecap:round;stroke-opacity:1"/><text id="text152" style="font-size:10px;font-family:sans-serif;text-anchor:start;fill:#000"><tspan id="tspan150" x="13.333" y="13.833">256</tspan></text></g></g><g id="g166" transform="translate(3.3333334e-6,0.42154078)"><g id="g164" transform="scale(1.5)"><path id="path158" d="m 0.5,14.5 v -4 a 4,4 90 0 1 4,-4 h 4 l 5,-6 5,6 h 9 30 4 a 4,4 90 0 1 4,4 v 4 4 4 a 4,4 90 0 1 -4,4 h -4 -30 -1 v 2 h -8 v -2 h -1 -4 a 5,5 90 0 0 -5,5 v 4 4 231 4 a 5,5 90 0 0 5,5 h 4 v 2 h 10 v -2 h 8 v 6 6 4 a 4,4 90 0 1 -4,4 h -4 -9 l -5,6 -5,-6 h -4 a 4,4 90 0 1 -4,-4 v -4 z" style="fill:#ffbf00;fill-opacity:1;stroke:#daaf30;stroke-width:1;stroke-linecap:round;stroke-opacity:1"/><text id="text162" style="font-size:10px;font-family:sans-serif;text-anchor:start;fill:#000"><tspan id="tspan160" x="5.333" y="21.5">start</tspan></text></g></g><g id="g184" transform="translate(457.52278,891.42157)"><g id="g182" transform="scale(1.5)"><path id="path168" d="m 8.5,8.5 v -4 a 4,4 90 0 1 4,-4 h 4 10 30 4 a 4,4 90 0 1 4,4 v 4 h -4 v -3 h -4 v 10 h 4 v -3 h 4 v 17 h -4 v -3 h -4 v 10 h 4 v -3 h 4 v 4 a 4,4 90 0 1 -4,4 h -4 -30 -10 -4 a 4,4 90 0 1 -4,-4 v -4 -21 -1 h -6 v 3 h -2 v -8 h 2 v 3 h 6 z" style="fill:#ff6ea1;fill-opacity:1;stroke:#ff2c76;stroke-width:1;stroke-linecap:round;stroke-opacity:1"/><text id="text172" style="font-size:14px;font-family:sans-serif;text-anchor:end;fill:#000"><tspan id="tspan170" x="54.333" y="23.8">×</tspan></text></g></g><g id="g194" transform="translate(543.02278,922.92157)"><g id="g192" transform="scale(1.5)"><path id="path186" d="m 8.5,0.5 h 60 v 20 h -60 v -8 -1 h -6 v 3 h -2 v -8 h 2 v 3 h 6 v -1 z" style="fill:#ff6ea1;fill-opacity:1;stroke:#ff2c76;stroke-width:1;stroke-linecap:round;stroke-opacity:1"/><text id="text190" style="font-size:10px;font-family:sans-serif;text-anchor:start;fill:#000"><tspan id="tspan188" x="13.333" y="13.833">2</tspan></text></g></g><g id="g212" transform="translate(457.52278,355.92154)"><g id="g210" transform="scale(1.5)"><path id="path196" d="m 8.5,8.5 v -4 a 4,4 90 0 1 4,-4 h 4 10 30 4 a 4,4 90 0 1 4,4 v 4 h -4 v -3 h -4 v 10 h 4 v -3 h 4 v 17 h -4 v -3 h -4 v 10 h 4 v -3 h 4 v 4 a 4,4 90 0 1 -4,4 h -4 -30 -10 -4 a 4,4 90 0 1 -4,-4 v -4 -21 -1 h -6 v 3 h -2 v -8 h 2 v 3 h 6 z" style="fill:#ff6ea1;fill-opacity:1;stroke:#ff2c76;stroke-width:1;stroke-linecap:round;stroke-opacity:1"/><text id="text200" style="font-size:14px;font-family:sans-serif;text-anchor:end;fill:#000"><tspan id="tspan198" x="54.333" y="23.8">/</tspan></text></g></g><g id="g222" transform="translate(543.02278,387.42154)"><g id="g220" transform="scale(1.5)"><path id="path214" d="m 8.5,0.5 h 60 v 20 h -60 v -8 -1 h -6 v 3 h -2 v -8 h 2 v 3 h 6 v -1 z" style="fill:#ff6ea1;fill-opacity:1;stroke:#ff2c76;stroke-width:1;stroke-linecap:round;stroke-opacity:1"/><text id="text218" style="font-size:10px;font-family:sans-serif;text-anchor:start;fill:#000"><tspan id="tspan216" x="13.333" y="13.833">2</tspan></text></g></g><path id="path224" d="m 380.58333,400.17154 v -6 a 6,6 0 0 1 6,-6 h 6 v 3 h 15 v -3 h 30 6 a 6,6 0 0 1 6,6 v 6 6 6 a 6,6 0 0 1 -6,6 h -6 -30 -1.5 v 3 h -12 v -3 h -1.5 -6 a 6,6 0 0 1 -6,-6 v -6 z" style="fill:#c4c4c4;fill-opacity:1;stroke:#a0a0a0;stroke-width:1.5;stroke-linecap:round;stroke-opacity:1"/><text id="text228" x="379.833" y="387.422" style="font-size:15px;font-family:sans-serif;text-anchor:end;fill:#000;stroke-width:1.5"><tspan id="tspan226" x="434.333" y="407.672" style="stroke-width:1.5">↓</tspan></text><g id="g246" transform="translate(352.83333,0.42154078)"><g id="g244" transform="scale(1.5)"><path id="path234" d="m 0.5,14.5 v -4 a 4,4 90 0 1 4,-4 h 4 l 5,-6 5,6 h 9 35 4 a 4,4 90 0 1 4,4 v 4 h -4 v -3 h -4 v 10 h 4 v -3 h 4 v 4 a 4,4 90 0 1 -4,4 h -4 -35 -1 v 2 h -8 v -2 h -1 -4 a 5,5 90 0 0 -5,5 v 4 4 756 4 a 5,5 90 0 0 5,5 h 4 v 2 h 10 v -2 h 8 v 6 6 4 a 4,4 90 0 1 -4,4 h -4 -9 l -5,6 -5,-6 h -4 a 4,4 90 0 1 -4,-4 v -4 z" style="fill:#ffbf00;fill-opacity:1;stroke:#daaf30;stroke-width:1;stroke-linecap:round;stroke-opacity:1"/><text id="text238" style="font-size:10px;font-family:sans-serif;text-anchor:start;fill:#000"><tspan id="tspan236" x="5.333" y="21.5">action</tspan></text></g></g><g id="g256" transform="translate(447.33333,9.4215408)"><g id="g254" transform="scale(1.5)"><path id="path248" d="m 8.5,0.5 h 60 v 20 h -60 v -8 -1 h -6 v 3 h -2 v -8 h 2 v 3 h 6 v -1 z" style="fill:#ff6648;fill-opacity:1;stroke:#ea4326;stroke-width:1;stroke-linecap:round;stroke-opacity:1"/><text id="text252" style="font-size:10px;font-family:sans-serif;text-anchor:start;fill:#000"><tspan id="tspan250" x="13.333" y="13.833">tree</tspan></text></g></g><g id="g274" transform="translate(379.83333,859.92157)"><g id="g272" transform="scale(1.5)"><path id="path258" d="m 0.5,8.5 v -4 a 4,4 90 0 1 4,-4 h 4 v 2 h 10 v -2 h 32.792969 4 a 4,4 90 0 1 4,4 v 4 h -4 v -3 h -4 v 10 h 4 v -3 h 4 v 17 h -4 v -3 h -4 v 10 h 4 v -3 h 4 v 4 a 4,4 90 0 1 -4,4 h -4 H 18.5 h -1 v 2 h -8 v -2 h -1 -4 a 4,4 90 0 1 -4,-4 v -4 -21 z" style="fill:#fe994f;fill-opacity:1;stroke:#e8680e;stroke-width:1;stroke-linecap:round;stroke-opacity:1"/><text id="text262" style="font-size:10px;font-family:sans-serif;text-anchor:end;fill:#000"><tspan id="tspan260" x="49.126" y="24">store in</tspan></text><text id="text266" style="font-size:6.66666651px;font-family:sans-serif;text-anchor:end;fill:#000"><tspan id="tspan264" x="49.126" y="11.25">name</tspan></text><text id="text270" style="font-size:6.66666651px;font-family:sans-serif;text-anchor:end;fill:#000"><tspan id="tspan268" x="49.126" y="32.25">value</tspan></text></g></g><g id="g284" transform="translate(457.52278,859.92157)"><g id="g282" transform="scale(1.5)"><path id="path276" d="m 8.5,0.5 h 60 v 20 h -60 v -8 -1 h -6 v 3 h -2 v -8 h 2 v 3 h 6 v -1 z" style="fill:#ff6648;fill-opacity:1;stroke:#ea4326;stroke-width:1;stroke-linecap:round;stroke-opacity:1"/><text id="text280" style="font-size:10px;font-family:sans-serif;text-anchor:start;fill:#000"><tspan id="tspan278" x="13.333" y="13.833">length</tspan></text></g></g><g id="g302" transform="translate(379.83333,324.42154)"><g id="g300" transform="scale(1.5)"><path id="path286" d="m 0.5,8.5 v -4 a 4,4 90 0 1 4,-4 h 4 v 2 h 10 v -2 h 32.792969 4 a 4,4 90 0 1 4,4 v 4 h -4 v -3 h -4 v 10 h 4 v -3 h 4 v 17 h -4 v -3 h -4 v 10 h 4 v -3 h 4 v 4 a 4,4 90 0 1 -4,4 h -4 H 18.5 h -1 v 2 h -8 v -2 h -1 -4 a 4,4 90 0 1 -4,-4 v -4 -21 z" style="fill:#fe994f;fill-opacity:1;stroke:#e8680e;stroke-width:1;stroke-linecap:round;stroke-opacity:1"/><text id="text290" style="font-size:10px;font-family:sans-serif;text-anchor:end;fill:#000"><tspan id="tspan288" x="49.126" y="24">store in</tspan></text><text id="text294" style="font-size:6.66666651px;font-family:sans-serif;text-anchor:end;fill:#000"><tspan id="tspan292" x="49.126" y="11.25">name</tspan></text><text id="text298" style="font-size:6.66666651px;font-family:sans-serif;text-anchor:end;fill:#000"><tspan id="tspan296" x="49.126" y="32.25">value</tspan></text></g></g><g id="g312" transform="translate(457.52278,324.42154)"><g id="g310" transform="scale(1.5)"><path id="path304" d="m 8.5,0.5 h 60 v 20 h -60 v -8 -1 h -6 v 3 h -2 v -8 h 2 v 3 h 6 v -1 z" style="fill:#ff6648;fill-opacity:1;stroke:#ea4326;stroke-width:1;stroke-linecap:round;stroke-opacity:1"/><text id="text308" style="font-size:10px;font-family:sans-serif;text-anchor:start;fill:#000"><tspan id="tspan306" x="13.333" y="13.833">length</tspan></text></g></g><g id="g330" transform="translate(13.500003,40.921541)"><g id="g328" transform="scale(1.5)"><path id="path314" d="m 0.5,8.5 v -4 a 4,4 90 0 1 4,-4 h 4 v 2 h 10 v -2 h 32.792969 4 a 4,4 90 0 1 4,4 v 4 h -4 v -3 h -4 v 10 h 4 v -3 h 4 v 17 h -4 v -3 h -4 v 10 h 4 v -3 h 4 v 4 a 4,4 90 0 1 -4,4 h -4 H 18.5 h -1 v 2 h -8 v -2 h -1 -4 a 4,4 90 0 1 -4,-4 v -4 -21 z" style="fill:#fe994f;fill-opacity:1;stroke:#e8680e;stroke-width:1;stroke-linecap:round;stroke-opacity:1"/><text id="text318" style="font-size:10px;font-family:sans-serif;text-anchor:end;fill:#000"><tspan id="tspan316" x="49.126" y="24">store in</tspan></text><text id="text322" style="font-size:6.66666651px;font-family:sans-serif;text-anchor:end;fill:#000"><tspan id="tspan320" x="49.126" y="11.25">name</tspan></text><text id="text326" style="font-size:6.66666651px;font-family:sans-serif;text-anchor:end;fill:#000"><tspan id="tspan324" x="49.126" y="32.25">value</tspan></text></g></g><g id="g340" transform="translate(91.189453,40.921541)"><g id="g338" transform="scale(1.5)"><path id="path332" d="m 8.5,0.5 h 60 v 20 h -60 v -8 -1 h -6 v 3 h -2 v -8 h 2 v 3 h 6 v -1 z" style="fill:#ff6648;fill-opacity:1;stroke:#ea4326;stroke-width:1;stroke-linecap:round;stroke-opacity:1"/><text id="text336" style="font-size:10px;font-family:sans-serif;text-anchor:start;fill:#000"><tspan id="tspan334" x="13.333" y="13.833">length</tspan></text></g></g><g id="g350" transform="translate(471.85042,261.42154)"><g id="g348" transform="scale(1.5)"><path id="path342" d="m 8.5,0.5 h 80 v 20 h -80 v -8 -1 h -6 v 3 h -2 v -8 h 2 v 3 h 6 v -1 z" style="fill:#fe994f;fill-opacity:1;stroke:#e8680e;stroke-width:1;stroke-linecap:round;stroke-opacity:1"/><text id="text346" style="font-size:10px;font-family:sans-serif;text-anchor:start;fill:#000"><tspan id="tspan344" x="13.333" y="13.833">length</tspan></text></g></g><g id="g360" transform="translate(543.02278,355.92154)"><g id="g358" transform="scale(1.5)"><path id="path352" d="m 8.5,0.5 h 80 v 20 h -80 v -8 -1 h -6 v 3 h -2 v -8 h 2 v 3 h 6 v -1 z" style="fill:#fe994f;fill-opacity:1;stroke:#e8680e;stroke-width:1;stroke-linecap:round;stroke-opacity:1"/><text id="text356" style="font-size:10px;font-family:sans-serif;text-anchor:start;fill:#000"><tspan id="tspan354" x="13.333" y="13.833">length</tspan></text></g></g><g id="g370" transform="translate(543.02278,891.42157)"><g id="g368" transform="scale(1.5)"><path id="path362" d="m 8.5,0.5 h 80 v 20 h -80 v -8 -1 h -6 v 3 h -2 v -8 h 2 v 3 h 6 v -1 z" style="fill:#fe994f;fill-opacity:1;stroke:#e8680e;stroke-width:1;stroke-linecap:round;stroke-opacity:1"/><text id="text366" style="font-size:10px;font-family:sans-serif;text-anchor:start;fill:#000"><tspan id="tspan364" x="13.333" y="13.833">length</tspan></text></g></g><g id="g380" transform="translate(466.83333,1111.9216)"><g id="g378" transform="scale(1.5)"><path id="path372" d="m 8.5,0.5 h 80 v 20 h -80 v -8 -1 h -6 v 3 h -2 v -8 h 2 v 3 h 6 v -1 z" style="fill:#fe994f;fill-opacity:1;stroke:#e8680e;stroke-width:1;stroke-linecap:round;stroke-opacity:1"/><text id="text376" style="font-size:10px;font-family:sans-serif;text-anchor:start;fill:#000"><tspan id="tspan374" x="13.333" y="13.833">length</tspan></text></g></g><g id="g390" transform="translate(472.83333,40.921541)"><g id="g388" transform="scale(1.5)"><path id="path382" d="m 8.5,0.5 h 80 v 20 h -80 v -8 -1 h -6 v 3 h -2 v -8 h 2 v 3 h 6 v -1 z" style="fill:#fe994f;fill-opacity:1;stroke:#e8680e;stroke-width:1;stroke-linecap:round;stroke-opacity:1"/><text id="text386" style="font-size:10px;font-family:sans-serif;text-anchor:start;fill:#000"><tspan id="tspan384" x="13.333" y="13.833">length</tspan></text></g></g><g id="g400" transform="translate(27.000003,355.92154)"><g id="g398" transform="scale(1.5)"><path id="path392" d="m 0.5,8.5 v -4 a 4,4 90 0 1 4,-4 h 4 v 2 h 10 v -2 h 40 4 a 4,4 90 0 1 4,4 v 4 4 4 a 4,4 90 0 1 -4,4 h -4 -40 -1 v 2 h -8 v -2 h -1 -4 a 4,4 90 0 1 -4,-4 v -4 z" style="fill:#ffbf00;fill-opacity:1;stroke:#daaf30;stroke-width:1;stroke-linecap:round;stroke-opacity:1"/><text id="text396" style="font-size:10px;font-family:sans-serif;text-anchor:end;fill:#000"><tspan id="tspan394" x="56.333" y="13.5">tree</tspan></text></g></g><g id="g410" transform="translate(379.83333,544.92154)"><g id="g408" transform="scale(1.5)"><path id="path402" d="m 0.5,8.5 v -4 a 4,4 90 0 1 4,-4 h 4 v 2 h 10 v -2 h 40 4 a 4,4 90 0 1 4,4 v 4 4 4 a 4,4 90 0 1 -4,4 h -4 -40 -1 v 2 h -8 v -2 h -1 -4 a 4,4 90 0 1 -4,-4 v -4 z" style="fill:#ffbf00;fill-opacity:1;stroke:#daaf30;stroke-width:1;stroke-linecap:round;stroke-opacity:1"/><text id="text406" style="font-size:10px;font-family:sans-serif;text-anchor:end;fill:#000"><tspan id="tspan404" x="56.333" y="13.5">tree</tspan></text></g></g><g id="g420" transform="translate(379.83333,702.42154)"><g id="g418" transform="scale(1.5)"><path id="path412" d="m 0.5,8.5 v -4 a 4,4 90 0 1 4,-4 h 4 v 2 h 10 v -2 h 40 4 a 4,4 90 0 1 4,4 v 4 4 4 a 4,4 90 0 1 -4,4 h -4 -40 -1 v 2 h -8 v -2 h -1 -4 a 4,4 90 0 1 -4,-4 v -4 z" style="fill:#ffbf00;fill-opacity:1;stroke:#daaf30;stroke-width:1;stroke-linecap:round;stroke-opacity:1"/><text id="text416" style="font-size:10px;font-family:sans-serif;text-anchor:end;fill:#000"><tspan id="tspan414" x="56.333" y="13.5">tree</tspan></text></g></g><g id="g434" transform="translate(27.000003,135.42154)"><g id="g432" transform="scale(1.5)"><path id="path422" d="m 0.5,8.5 v -4 a 4,4 90 0 1 4,-4 h 4 v 2 h 10 v -2 h 9 36.147461 4 a 4,4 90 0 1 4,4 v 4 h -4 v -3 h -4 v 10 h 4 v -3 h 4 v 4 a 4,4 90 0 1 -4,4 h -4 H 27.5 h -1 v 2 h -8 v -2 h -1 -4 a 5,5 90 0 0 -5,5 v 4 4 84 4 a 5,5 90 0 0 5,5 h 4 v 2 h 10 v -2 h 8 v 6 6 4 a 4,4 90 0 1 -4,4 h -4 -9 -1 v 2 h -8 v -2 h -1 -4 a 4,4 90 0 1 -4,-4 v -4 z" style="fill:#fe994f;fill-opacity:1;stroke:#e8680e;stroke-width:1;stroke-linecap:round;stroke-opacity:1"/><text id="text426" style="font-size:10px;font-family:sans-serif;text-anchor:start;fill:#000"><tspan id="tspan424" x="5.333" y="15.25">note value</tspan></text></g></g><g id="g452" transform="translate(123.22119,135.42154)"><g id="g450" transform="scale(1.5)"><path id="path436" d="m 8.5,8.5 v -4 a 4,4 90 0 1 4,-4 h 4 10 30 4 a 4,4 90 0 1 4,4 v 4 h -4 v -3 h -4 v 10 h 4 v -3 h 4 v 17 h -4 v -3 h -4 v 10 h 4 v -3 h 4 v 4 a 4,4 90 0 1 -4,4 h -4 -30 -10 -4 a 4,4 90 0 1 -4,-4 v -4 -21 -1 h -6 v 3 h -2 v -8 h 2 v 3 h 6 z" style="fill:#ff6ea1;fill-opacity:1;stroke:#ff2c76;stroke-width:1;stroke-linecap:round;stroke-opacity:1"/><text id="text440" style="font-size:14px;font-family:sans-serif;text-anchor:end;fill:#000"><tspan id="tspan438" x="54.333" y="23.8">/</tspan></text></g></g><g id="g462" transform="translate(208.72119,135.42154)"><g id="g460" transform="scale(1.5)"><path id="path454" d="m 8.5,0.5 h 60 v 20 h -60 v -8 -1 h -6 v 3 h -2 v -8 h 2 v 3 h 6 v -1 z" style="fill:#ff6ea1;fill-opacity:1;stroke:#ff2c76;stroke-width:1;stroke-linecap:round;stroke-opacity:1"/><text id="text458" style="font-size:10px;font-family:sans-serif;text-anchor:start;fill:#000"><tspan id="tspan456" x="13.333" y="13.833">1</tspan></text></g></g><g id="g472" transform="translate(208.72119,166.92154)"><g id="g470" transform="scale(1.5)"><path id="path464" d="m 8.5,0.5 h 60 v 20 h -60 v -8 -1 h -6 v 3 h -2 v -8 h 2 v 3 h 6 v -1 z" style="fill:#ff6ea1;fill-opacity:1;stroke:#ff2c76;stroke-width:1;stroke-linecap:round;stroke-opacity:1"/><text id="text468" style="font-size:10px;font-family:sans-serif;text-anchor:start;fill:#000"><tspan id="tspan466" x="13.333" y="13.833">16</tspan></text></g></g><path id="path474" d="m 41.250003,179.67154 v -6 a 6,6 0 0 1 6,-6 h 6 v 3 h 15 v -3 h 30 5.999997 a 6,6 0 0 1 6,6 v 6 6 6 a 6,6 0 0 1 -6,6 h -5.999997 -30 -1.5 v 3 h -12 v -3 h -1.5 -6 a 6,6 0 0 1 -6,-6 v -6 z" style="fill:#c4c4c4;fill-opacity:1;stroke:#a0a0a0;stroke-width:1.5;stroke-linecap:round;stroke-opacity:1"/><text id="text478" x="40.5" y="166.922" style="font-size:15px;font-family:sans-serif;text-anchor:end;fill:#000;stroke-width:1.5"><tspan id="tspan476" x="95" y="187.172" style="stroke-width:1.5">↓</tspan></text><g id="g500" transform="translate(40.500003,198.42154)"><g id="g498" transform="scale(1.5)"><path id="path484" d="m 0.5,8.5 v -4 a 4,4 90 0 1 4,-4 h 4 v 2 h 10 v -2 h 30 4 a 4,4 90 0 1 4,4 v 4 h -4 v -3 h -4 v 10 h 4 v -3 h 4 v 17 h -4 v -3 h -4 v 10 h 4 v -3 h 4 v 4 a 4,4 90 0 1 -4,4 h -4 -30 -1 v 2 h -8 v -2 h -1 -4 a 4,4 90 0 1 -4,-4 v -4 -21 z" style="fill:#7cd622;fill-opacity:1;stroke:#57ad02;stroke-width:1;stroke-linecap:round;stroke-opacity:1"/><text id="text488" style="font-size:10px;font-family:sans-serif;text-anchor:end;fill:#000"><tspan id="tspan486" x="46.333" y="24">pitch</tspan></text><text id="text492" style="font-size:6.66666651px;font-family:sans-serif;text-anchor:end;fill:#000"><tspan id="tspan490" x="46.333" y="11.25">name</tspan></text><text id="text496" style="font-size:6.66666651px;font-family:sans-serif;text-anchor:end;fill:#000"><tspan id="tspan494" x="46.333" y="32.25">octave</tspan></text></g></g><g id="g510" transform="translate(114,198.42154)"><g id="g508" transform="scale(1.5)"><path id="path502" d="m 8.5,0.5 h 60 v 20 h -60 v -8 -1 h -6 v 3 h -2 v -8 h 2 v 3 h 6 v -1 z" style="fill:#7cd622;fill-opacity:1;stroke:#57ad02;stroke-width:1;stroke-linecap:round;stroke-opacity:1"/><text id="text506" style="font-size:10px;font-family:sans-serif;text-anchor:start;fill:#000"><tspan id="tspan504" x="13.333" y="13.833">sol</tspan></text></g></g><g id="g520" transform="translate(114,229.92154)"><g id="g518" transform="scale(1.5)"><path id="path512" d="m 8.5,0.5 h 60 v 20 h -60 v -8 -1 h -6 v 3 h -2 v -8 h 2 v 3 h 6 v -1 z" style="fill:#ff6ea1;fill-opacity:1;stroke:#ff2c76;stroke-width:1;stroke-linecap:round;stroke-opacity:1"/><text id="text516" style="font-size:10px;font-family:sans-serif;text-anchor:start;fill:#000"><tspan id="tspan514" x="13.333" y="13.833">4</tspan></text></g></g><g id="g534" transform="translate(379.83333,954.42157)"><g id="g532" transform="scale(1.5)"><path id="path522" d="m 0.5,8.5 v -4 a 4,4 90 0 1 4,-4 h 4 v 2 h 10 v -2 h 9 36.147461 4 a 4,4 90 0 1 4,4 v 4 h -4 v -3 h -4 v 10 h 4 v -3 h 4 v 4 a 4,4 90 0 1 -4,4 h -4 H 27.5 h -1 v 2 h -8 v -2 h -1 -4 a 5,5 90 0 0 -5,5 v 4 4 84 4 a 5,5 90 0 0 5,5 h 4 v 2 h 10 v -2 h 8 v 6 6 4 a 4,4 90 0 1 -4,4 h -4 -9 -1 v 2 h -8 v -2 h -1 -4 a 4,4 90 0 1 -4,-4 v -4 z" style="fill:#fe994f;fill-opacity:1;stroke:#e8680e;stroke-width:1;stroke-linecap:round;stroke-opacity:1"/><text id="text526" style="font-size:10px;font-family:sans-serif;text-anchor:start;fill:#000"><tspan id="tspan524" x="5.333" y="15.25">note value</tspan></text></g></g><g id="g544" transform="translate(561.55452,985.92157)"><g id="g542" transform="scale(1.5)"><path id="path536" d="m 8.5,0.5 h 60 v 20 h -60 v -8 -1 h -6 v 3 h -2 v -8 h 2 v 3 h 6 v -1 z" style="fill:#ff6ea1;fill-opacity:1;stroke:#ff2c76;stroke-width:1;stroke-linecap:round;stroke-opacity:1"/><text id="text540" style="font-size:10px;font-family:sans-serif;text-anchor:start;fill:#000"><tspan id="tspan538" x="13.333" y="13.833">16</tspan></text></g></g><g id="g558" transform="translate(393.33333,1017.4216)"><g id="g556" transform="scale(1.5)"><path id="path546" d="m 0.5,8.5 v -4 a 4,4 90 0 1 4,-4 h 4 v 2 h 10 v -2 h 42.802734 4 a 4,4 90 0 1 4,4 v 4 h -4 v -3 h -4 v 10 h 4 v -3 h 4 v 4 a 4,4 90 0 1 -4,4 h -4 H 18.5 h -1 v 2 h -8 v -2 h -1 -4 a 4,4 90 0 1 -4,-4 v -4 z" style="fill:#7cd622;fill-opacity:1;stroke:#57ad02;stroke-width:1;stroke-linecap:round;stroke-opacity:1"/><text id="text550" style="font-size:10px;font-family:sans-serif;text-anchor:end;fill:#000"><tspan id="tspan548" x="59.136" y="13.5">step pitch</tspan></text></g></g><g id="g568" transform="translate(486.03743,1017.4216)"><g id="g566" transform="scale(1.5)"><path id="path560" d="m 8.5,0.5 h 60 v 20 h -60 v -8 -1 h -6 v 3 h -2 v -8 h 2 v 3 h 6 v -1 z" style="fill:#ff6ea1;fill-opacity:1;stroke:#ff2c76;stroke-width:1;stroke-linecap:round;stroke-opacity:1"/><text id="text564" style="font-size:10px;font-family:sans-serif;text-anchor:start;fill:#000"><tspan id="tspan562" x="13.333" y="13.833">-1</tspan></text></g></g><path id="path570" d="m 394.08333,998.67157 v -6 a 6,6 0 0 1 6,-6 h 6 v 3 h 15 v -3 h 30 6 a 6,6 0 0 1 6,6 v 6 6.00003 6 a 6,6 0 0 1 -6,6 h -6 -30 -1.5 v 3 h -12 v -3 h -1.5 -6 a 6,6 0 0 1 -6,-6 v -6 z" style="fill:#c4c4c4;fill-opacity:1;stroke:#a0a0a0;stroke-width:1.5;stroke-linecap:round;stroke-opacity:1"/><text id="text574" x="393.333" y="985.922" style="font-size:15px;font-family:sans-serif;text-anchor:end;fill:#000;stroke-width:1.5"><tspan id="tspan572" x="447.833" y="1006.172" style="stroke-width:1.5">↓</tspan></text><g id="g596" transform="translate(476.05452,954.42157)"><g id="g594" transform="scale(1.5)"><path id="path580" d="m 8.5,8.5 v -4 a 4,4 90 0 1 4,-4 h 4 10 30 4 a 4,4 90 0 1 4,4 v 4 h -4 v -3 h -4 v 10 h 4 v -3 h 4 v 17 h -4 v -3 h -4 v 10 h 4 v -3 h 4 v 4 a 4,4 90 0 1 -4,4 h -4 -30 -10 -4 a 4,4 90 0 1 -4,-4 v -4 -21 -1 h -6 v 3 h -2 v -8 h 2 v 3 h 6 z" style="fill:#ff6ea1;fill-opacity:1;stroke:#ff2c76;stroke-width:1;stroke-linecap:round;stroke-opacity:1"/><text id="text584" style="font-size:14px;font-family:sans-serif;text-anchor:end;fill:#000"><tspan id="tspan582" x="54.333" y="23.8">/</tspan></text></g></g><g id="g606" transform="translate(561.55452,954.42157)"><g id="g604" transform="scale(1.5)"><path id="path598" d="m 8.5,0.5 h 60 v 20 h -60 v -8 -1 h -6 v 3 h -2 v -8 h 2 v 3 h 6 v -1 z" style="fill:#ff6ea1;fill-opacity:1;stroke:#ff2c76;stroke-width:1;stroke-linecap:round;stroke-opacity:1"/><text id="text602" style="font-size:10px;font-family:sans-serif;text-anchor:start;fill:#000"><tspan id="tspan600" x="13.333" y="13.833">1</tspan></text></g></g><g id="g620" transform="translate(379.83333,103.92154)"><g id="g618" transform="scale(1.5)"><path id="path608" d="m 0.5,8.5 v -4 a 4,4 90 0 1 4,-4 h 4 v 2 h 10 v -2 h 9 36.147461 4 a 4,4 90 0 1 4,4 v 4 h -4 v -3 h -4 v 10 h 4 v -3 h 4 v 4 a 4,4 90 0 1 -4,4 h -4 H 27.5 h -1 v 2 h -8 v -2 h -1 -4 a 5,5 90 0 0 -5,5 v 4 4 84 4 a 5,5 90 0 0 5,5 h 4 v 2 h 10 v -2 h 8 v 6 6 4 a 4,4 90 0 1 -4,4 h -4 -9 -1 v 2 h -8 v -2 h -1 -4 a 4,4 90 0 1 -4,-4 v -4 z" style="fill:#fe994f;fill-opacity:1;stroke:#e8680e;stroke-width:1;stroke-linecap:round;stroke-opacity:1"/><text id="text612" style="font-size:10px;font-family:sans-serif;text-anchor:start;fill:#000"><tspan id="tspan610" x="5.333" y="15.25">note value</tspan></text></g></g><g id="g630" transform="translate(561.55452,135.42154)"><g id="g628" transform="scale(1.5)"><path id="path622" d="m 8.5,0.5 h 60 v 20 h -60 v -8 -1 h -6 v 3 h -2 v -8 h 2 v 3 h 6 v -1 z" style="fill:#ff6ea1;fill-opacity:1;stroke:#ff2c76;stroke-width:1;stroke-linecap:round;stroke-opacity:1"/><text id="text626" style="font-size:10px;font-family:sans-serif;text-anchor:start;fill:#000"><tspan id="tspan624" x="13.333" y="13.833">16</tspan></text></g></g><g id="g644" transform="translate(393.33333,166.92154)"><g id="g642" transform="scale(1.5)"><path id="path632" d="m 0.5,8.5 v -4 a 4,4 90 0 1 4,-4 h 4 v 2 h 10 v -2 h 42.802734 4 a 4,4 90 0 1 4,4 v 4 h -4 v -3 h -4 v 10 h 4 v -3 h 4 v 4 a 4,4 90 0 1 -4,4 h -4 H 18.5 h -1 v 2 h -8 v -2 h -1 -4 a 4,4 90 0 1 -4,-4 v -4 z" style="fill:#7cd622;fill-opacity:1;stroke:#57ad02;stroke-width:1;stroke-linecap:round;stroke-opacity:1"/><text id="text636" style="font-size:10px;font-family:sans-serif;text-anchor:end;fill:#000"><tspan id="tspan634" x="59.136" y="13.5">step pitch</tspan></text></g></g><g id="g654" transform="translate(486.03743,166.92154)"><g id="g652" transform="scale(1.5)"><path id="path646" d="m 8.5,0.5 h 60 v 20 h -60 v -8 -1 h -6 v 3 h -2 v -8 h 2 v 3 h 6 v -1 z" style="fill:#ff6ea1;fill-opacity:1;stroke:#ff2c76;stroke-width:1;stroke-linecap:round;stroke-opacity:1"/><text id="text650" style="font-size:10px;font-family:sans-serif;text-anchor:start;fill:#000"><tspan id="tspan648" x="13.333" y="13.833">1</tspan></text></g></g><path id="path656" d="m 394.08333,148.17154 v -6 a 6,6 0 0 1 6,-6 h 6 v 3 h 15 v -3 h 30 6 a 6,6 0 0 1 6,6 v 6 6 6 a 6,6 0 0 1 -6,6 h -6 -30 -1.5 v 3 h -12 v -3 h -1.5 -6 a 6,6 0 0 1 -6,-6 v -6 z" style="fill:#c4c4c4;fill-opacity:1;stroke:#a0a0a0;stroke-width:1.5;stroke-linecap:round;stroke-opacity:1"/><text id="text660" x="393.333" y="135.422" style="font-size:15px;font-family:sans-serif;text-anchor:end;fill:#000;stroke-width:1.5"><tspan id="tspan658" x="447.833" y="155.672" style="stroke-width:1.5">↓</tspan></text><g id="g682" transform="translate(476.05452,103.92154)"><g id="g680" transform="scale(1.5)"><path id="path666" d="m 8.5,8.5 v -4 a 4,4 90 0 1 4,-4 h 4 10 30 4 a 4,4 90 0 1 4,4 v 4 h -4 v -3 h -4 v 10 h 4 v -3 h 4 v 17 h -4 v -3 h -4 v 10 h 4 v -3 h 4 v 4 a 4,4 90 0 1 -4,4 h -4 -30 -10 -4 a 4,4 90 0 1 -4,-4 v -4 -21 -1 h -6 v 3 h -2 v -8 h 2 v 3 h 6 z" style="fill:#ff6ea1;fill-opacity:1;stroke:#ff2c76;stroke-width:1;stroke-linecap:round;stroke-opacity:1"/><text id="text670" style="font-size:14px;font-family:sans-serif;text-anchor:end;fill:#000"><tspan id="tspan668" x="54.333" y="23.8">/</tspan></text></g></g><g id="g692" transform="translate(561.55452,103.92154)"><g id="g690" transform="scale(1.5)"><path id="path684" d="m 8.5,0.5 h 60 v 20 h -60 v -8 -1 h -6 v 3 h -2 v -8 h 2 v 3 h 6 v -1 z" style="fill:#ff6ea1;fill-opacity:1;stroke:#ff2c76;stroke-width:1;stroke-linecap:round;stroke-opacity:1"/><text id="text688" style="font-size:10px;font-family:sans-serif;text-anchor:start;fill:#000"><tspan id="tspan686" x="13.333" y="13.833">1</tspan></text></g></g><g id="g702" transform="translate(13.500003,103.92154)"><g id="g700" transform="scale(1.5)"><path id="path694" d="m 0.5,8.5 v -4 a 4,4 90 0 1 4,-4 h 4 v 2 h 10 v -2 h 9 16.68457 4 a 4,4 90 0 1 4,4 v 4 4 4 a 4,4 90 0 1 -4,4 h -4 H 27.5 h -1 v 2 h -8 v -2 h -1 -4 a 5,5 90 0 0 -5,5 v 4 4 147 4 a 5,5 90 0 0 5,5 h 4 v 2 h 10 v -2 h 8 v 6 6 4 a 4,4 90 0 1 -4,4 h -4 -9 -1 v 2 h -8 v -2 h -1 -4 a 4,4 90 0 1 -4,-4 v -4 z" style="fill:#fe994f;fill-opacity:1;stroke:#e8680e;stroke-width:1;stroke-linecap:round;stroke-opacity:1"/><text id="text698" style="font-size:10px;font-family:sans-serif;text-anchor:start;fill:#000"><tspan id="tspan696" x="5.333" y="15.25">no clock</tspan></text></g></g><path id="path704" d="m 380.58333,935.67157 v -6 a 6,6 0 0 1 6,-6 h 6 v 3 h 15 v -3 h 30 6 a 6,6 0 0 1 6,6 v 6 6 6 a 6,6 0 0 1 -6,6 h -6 -30 -1.5 v 3 h -12 v -3 h -1.5 -6 a 6,6 0 0 1 -6,-6 v -6 z" style="fill:#c4c4c4;fill-opacity:1;stroke:#a0a0a0;stroke-width:1.5;stroke-linecap:round;stroke-opacity:1"/><text id="text708" x="379.833" y="922.922" style="font-size:15px;font-family:sans-serif;text-anchor:end;fill:#000;stroke-width:1.5"><tspan id="tspan706" x="434.333" y="943.172" style="stroke-width:1.5">↓</tspan></text><g id="g726" transform="translate(40.500003,292.92154)"><g id="g724" transform="scale(1.5)"><path id="path714" d="m 0.5,8.5 v -4 a 4,4 90 0 1 4,-4 h 4 v 2 h 10 v -2 h 30 4 a 4,4 90 0 1 4,4 v 4 h -4 v -3 h -4 v 10 h 4 v -3 h 4 v 4 a 4,4 90 0 1 -4,4 h -4 -30 -1 v 2 h -8 v -2 h -1 -4 a 4,4 90 0 1 -4,-4 v -4 z" style="fill:#92a9ff;fill-opacity:1;stroke:#5370dc;stroke-width:1;stroke-linecap:round;stroke-opacity:1"/><text id="text718" style="font-size:10px;font-family:sans-serif;text-anchor:end;fill:#000"><tspan id="tspan716" x="46.333" y="13.5">back</tspan></text></g></g><g id="g736" transform="translate(114,292.92154)"><g id="g734" transform="scale(1.5)"><path id="path728" d="m 8.5,0.5 h 60 v 20 h -60 v -8 -1 h -6 v 3 h -2 v -8 h 2 v 3 h 6 v -1 z" style="fill:#ff6ea1;fill-opacity:1;stroke:#ff2c76;stroke-width:1;stroke-linecap:round;stroke-opacity:1"/><text id="text732" style="font-size:10px;font-family:sans-serif;text-anchor:start;fill:#000"><tspan id="tspan730" x="13.333" y="13.833">256</tspan></text></g></g><path id="path738" d="m 394.08333,242.67154 v -6 a 6,6 0 0 1 6,-6 h 6 v 3 h 15 v -3 h 80.04639 6 a 6,6 0 0 1 6,6 v 6 h -6 v -4.5 h -6 v 15 h 6 v -4.5 h 6 v 6 a 6,6 0 0 1 -6,6 h -6 -80.04639 -1.5 v 3 h -12 v -3 h -1.5 -6 a 6,6 0 0 1 -6,-6 v -6 z" style="fill:#92a9ff;fill-opacity:1;stroke:#5370dc;stroke-width:1.5;stroke-linecap:round;stroke-opacity:1"/><text id="text742" x="393.333" y="229.922" style="font-size:15px;font-family:sans-serif;text-anchor:end;fill:#000;stroke-width:1.5"><tspan id="tspan740" x="497.88" y="250.172" style="stroke-width:1.5">set pen size</tspan></text><g id="g760" transform="translate(501.87972,229.92154)"><g id="g758" transform="scale(1.5)"><path id="path752" d="m 8.5,0.5 h 60 v 20 h -60 v -8 -1 h -6 v 3 h -2 v -8 h 2 v 3 h 6 v -1 z" style="fill:#ff6ea1;fill-opacity:1;stroke:#ff2c76;stroke-width:1;stroke-linecap:round;stroke-opacity:1"/><text id="text756" style="font-size:10px;font-family:sans-serif;text-anchor:start;fill:#000"><tspan id="tspan754" x="13.333" y="13.833">8</tspan></text></g></g><path id="path762" d="m 394.08333,211.17154 v -6 a 6,6 0 0 1 6,-6 h 6 v 3 h 15 v -3 h 65.04639 6 a 6,6 0 0 1 6,6 v 6 h -6 v -4.5 h -6 v 15 h 6 v -4.5 h 6 v 6 a 6,6 0 0 1 -6,6 h -6 -65.04639 -1.5 v 3 h -12 v -3 h -1.5 -6 a 6,6 0 0 1 -6,-6 v -6 z" style="fill:#92a9ff;fill-opacity:1;stroke:#5370dc;stroke-width:1.5;stroke-linecap:round;stroke-opacity:1"/><text id="text766" x="393.333" y="198.422" style="font-size:15px;font-family:sans-serif;text-anchor:end;fill:#000;stroke-width:1.5"><tspan id="tspan764" x="482.88" y="218.672" style="stroke-width:1.5">set shade</tspan></text><g id="g784" transform="translate(486.87972,198.42154)"><g id="g782" transform="scale(1.5)"><path id="path776" d="m 8.5,0.5 h 60 v 20 h -60 v -8 -1 h -6 v 3 h -2 v -8 h 2 v 3 h 6 v -1 z" style="fill:#ff6ea1;fill-opacity:1;stroke:#ff2c76;stroke-width:1;stroke-linecap:round;stroke-opacity:1"/><text id="text780" style="font-size:10px;font-family:sans-serif;text-anchor:start;fill:#000"><tspan id="tspan778" x="13.333" y="13.833">50</tspan></text></g></g><path id="path786" d="m 394.08333,1061.6716 v -6 a 6,6 0 0 1 6,-6 h 6 v 3 h 15 v -3 h 65.04639 6 a 6,6 0 0 1 6,6 v 6 h -6 v -4.5 h -6 v 15 h 6 v -4.5 h 6 v 6 a 6,6 0 0 1 -6,6 h -6 -65.04639 -1.5 v 3 h -12 v -3 h -1.5 -6 a 6,6 0 0 1 -6,-6 v -6 z" style="fill:#92a9ff;fill-opacity:1;stroke:#5370dc;stroke-width:1.5;stroke-linecap:round;stroke-opacity:1"/><text id="text790" x="393.333" y="1048.922" style="font-size:15px;font-family:sans-serif;text-anchor:end;fill:#000;stroke-width:1.5"><tspan id="tspan788" x="482.88" y="1069.172" style="stroke-width:1.5">set shade</tspan></text><g id="g808" transform="translate(486.87972,1048.9216)"><g id="g806" transform="scale(1.5)"><path id="path800" d="m 8.5,0.5 h 60 v 20 h -60 v -8 -1 h -6 v 3 h -2 v -8 h 2 v 3 h 6 v -1 z" style="fill:#ff6ea1;fill-opacity:1;stroke:#ff2c76;stroke-width:1;stroke-linecap:round;stroke-opacity:1"/><text id="text804" style="font-size:10px;font-family:sans-serif;text-anchor:start;fill:#000"><tspan id="tspan802" x="13.333" y="13.833">25</tspan></text></g></g><path id="path810" d="m 394.08333,1093.1716 v -6 a 6,6 0 0 1 6,-6 h 6 v 3 h 15 v -3 h 80.04639 6 a 6,6 0 0 1 6,6 v 6 h -6 v -4.5 h -6 v 15 h 6 v -4.5 h 6 v 6 a 6,6 0 0 1 -6,6 h -6 -80.04639 -1.5 v 3 h -12 v -3 h -1.5 -6 a 6,6 0 0 1 -6,-6 v -6 z" style="fill:#92a9ff;fill-opacity:1;stroke:#5370dc;stroke-width:1.5;stroke-linecap:round;stroke-opacity:1"/><text id="text814" x="393.333" y="1080.422" style="font-size:15px;font-family:sans-serif;text-anchor:end;fill:#000;stroke-width:1.5"><tspan id="tspan812" x="497.88" y="1100.672" style="stroke-width:1.5">set pen size</tspan></text><g id="g832" transform="translate(501.87972,1080.4216)"><g id="g830" transform="scale(1.5)"><path id="path824" d="m 8.5,0.5 h 60 v 20 h -60 v -8 -1 h -6 v 3 h -2 v -8 h 2 v 3 h 6 v -1 z" style="fill:#ff6ea1;fill-opacity:1;stroke:#ff2c76;stroke-width:1;stroke-linecap:round;stroke-opacity:1"/><text id="text828" style="font-size:10px;font-family:sans-serif;text-anchor:start;fill:#000"><tspan id="tspan826" x="13.333" y="13.833">2</tspan></text></g></g><g id="g846" transform="translate(379.83333,418.92154)"><g id="g844" transform="scale(1.5)"><path id="path834" d="m 0.5,8.5 v -4 a 4,4 90 0 1 4,-4 h 4 v 2 h 10 v -2 h 9 36.147461 4 a 4,4 90 0 1 4,4 v 4 h -4 v -3 h -4 v 10 h 4 v -3 h 4 v 4 a 4,4 90 0 1 -4,4 h -4 H 27.5 h -1 v 2 h -8 v -2 h -1 -4 a 5,5 90 0 0 -5,5 v 4 4 21 4 a 5,5 90 0 0 5,5 h 4 v 2 h 10 v -2 h 8 v 6 6 4 a 4,4 90 0 1 -4,4 h -4 -9 -1 v 2 h -8 v -2 h -1 -4 a 4,4 90 0 1 -4,-4 v -4 z" style="fill:#fe994f;fill-opacity:1;stroke:#e8680e;stroke-width:1;stroke-linecap:round;stroke-opacity:1"/><text id="text838" style="font-size:10px;font-family:sans-serif;text-anchor:start;fill:#000"><tspan id="tspan836" x="5.333" y="15.25">note value</tspan></text></g></g><g id="g864" transform="translate(476.05452,418.92154)"><g id="g862" transform="scale(1.5)"><path id="path848" d="m 8.5,8.5 v -4 a 4,4 90 0 1 4,-4 h 4 10 30 4 a 4,4 90 0 1 4,4 v 4 h -4 v -3 h -4 v 10 h 4 v -3 h 4 v 17 h -4 v -3 h -4 v 10 h 4 v -3 h 4 v 4 a 4,4 90 0 1 -4,4 h -4 -30 -10 -4 a 4,4 90 0 1 -4,-4 v -4 -21 -1 h -6 v 3 h -2 v -8 h 2 v 3 h 6 z" style="fill:#ff6ea1;fill-opacity:1;stroke:#ff2c76;stroke-width:1;stroke-linecap:round;stroke-opacity:1"/><text id="text852" style="font-size:14px;font-family:sans-serif;text-anchor:end;fill:#000"><tspan id="tspan850" x="54.333" y="23.8">/</tspan></text></g></g><g id="g874" transform="translate(561.55452,418.92154)"><g id="g872" transform="scale(1.5)"><path id="path866" d="m 8.5,0.5 h 60 v 20 h -60 v -8 -1 h -6 v 3 h -2 v -8 h 2 v 3 h 6 v -1 z" style="fill:#ff6ea1;fill-opacity:1;stroke:#ff2c76;stroke-width:1;stroke-linecap:round;stroke-opacity:1"/><text id="text870" style="font-size:10px;font-family:sans-serif;text-anchor:start;fill:#000"><tspan id="tspan868" x="13.333" y="13.833">1</tspan></text></g></g><g id="g884" transform="translate(561.55452,450.42154)"><g id="g882" transform="scale(1.5)"><path id="path876" d="m 8.5,0.5 h 60 v 20 h -60 v -8 -1 h -6 v 3 h -2 v -8 h 2 v 3 h 6 v -1 z" style="fill:#ff6ea1;fill-opacity:1;stroke:#ff2c76;stroke-width:1;stroke-linecap:round;stroke-opacity:1"/><text id="text880" style="font-size:10px;font-family:sans-serif;text-anchor:start;fill:#000"><tspan id="tspan878" x="13.333" y="13.833">64</tspan></text></g></g><path id="path886" d="m 394.08333,463.17154 v -6 a 6,6 0 0 1 6,-6 h 6 v 3 h 15 v -3 h 30 6 a 6,6 0 0 1 6,6 v 6 6 6 a 6,6 0 0 1 -6,6 h -6 -30 -1.5 v 3 h -12 v -3 h -1.5 -6 a 6,6 0 0 1 -6,-6 v -6 z" style="fill:#c4c4c4;fill-opacity:1;stroke:#a0a0a0;stroke-width:1.5;stroke-linecap:round;stroke-opacity:1"/><text id="text890" x="393.333" y="450.422" style="font-size:15px;font-family:sans-serif;text-anchor:end;fill:#000;stroke-width:1.5"><tspan id="tspan888" x="447.833" y="470.672" style="stroke-width:1.5">↓</tspan></text><g id="g908" transform="translate(379.83333,576.42154)"><g id="g906" transform="scale(1.5)"><path id="path896" d="m 0.5,8.5 v -4 a 4,4 90 0 1 4,-4 h 4 v 2 h 10 v -2 h 9 36.147461 4 a 4,4 90 0 1 4,4 v 4 h -4 v -3 h -4 v 10 h 4 v -3 h 4 v 4 a 4,4 90 0 1 -4,4 h -4 H 27.5 h -1 v 2 h -8 v -2 h -1 -4 a 5,5 90 0 0 -5,5 v 4 4 21 4 a 5,5 90 0 0 5,5 h 4 v 2 h 10 v -2 h 8 v 6 6 4 a 4,4 90 0 1 -4,4 h -4 -9 -1 v 2 h -8 v -2 h -1 -4 a 4,4 90 0 1 -4,-4 v -4 z" style="fill:#fe994f;fill-opacity:1;stroke:#e8680e;stroke-width:1;stroke-linecap:round;stroke-opacity:1"/><text id="text900" style="font-size:10px;font-family:sans-serif;text-anchor:start;fill:#000"><tspan id="tspan898" x="5.333" y="15.25">note value</tspan></text></g></g><g id="g926" transform="translate(476.05452,576.42154)"><g id="g924" transform="scale(1.5)"><path id="path910" d="m 8.5,8.5 v -4 a 4,4 90 0 1 4,-4 h 4 10 30 4 a 4,4 90 0 1 4,4 v 4 h -4 v -3 h -4 v 10 h 4 v -3 h 4 v 17 h -4 v -3 h -4 v 10 h 4 v -3 h 4 v 4 a 4,4 90 0 1 -4,4 h -4 -30 -10 -4 a 4,4 90 0 1 -4,-4 v -4 -21 -1 h -6 v 3 h -2 v -8 h 2 v 3 h 6 z" style="fill:#ff6ea1;fill-opacity:1;stroke:#ff2c76;stroke-width:1;stroke-linecap:round;stroke-opacity:1"/><text id="text914" style="font-size:14px;font-family:sans-serif;text-anchor:end;fill:#000"><tspan id="tspan912" x="54.333" y="23.8">/</tspan></text></g></g><g id="g936" transform="translate(561.55452,576.42154)"><g id="g934" transform="scale(1.5)"><path id="path928" d="m 8.5,0.5 h 60 v 20 h -60 v -8 -1 h -6 v 3 h -2 v -8 h 2 v 3 h 6 v -1 z" style="fill:#ff6ea1;fill-opacity:1;stroke:#ff2c76;stroke-width:1;stroke-linecap:round;stroke-opacity:1"/><text id="text932" style="font-size:10px;font-family:sans-serif;text-anchor:start;fill:#000"><tspan id="tspan930" x="13.333" y="13.833">1</tspan></text></g></g><g id="g946" transform="translate(561.55452,607.92154)"><g id="g944" transform="scale(1.5)"><path id="path938" d="m 8.5,0.5 h 60 v 20 h -60 v -8 -1 h -6 v 3 h -2 v -8 h 2 v 3 h 6 v -1 z" style="fill:#ff6ea1;fill-opacity:1;stroke:#ff2c76;stroke-width:1;stroke-linecap:round;stroke-opacity:1"/><text id="text942" style="font-size:10px;font-family:sans-serif;text-anchor:start;fill:#000"><tspan id="tspan940" x="13.333" y="13.833">32</tspan></text></g></g><path id="path948" d="m 394.08333,620.67154 v -6 a 6,6 0 0 1 6,-6 h 6 v 3 h 15 v -3 h 30 6 a 6,6 0 0 1 6,6 v 6 6 6 a 6,6 0 0 1 -6,6 h -6 -30 -1.5 v 3 h -12 v -3 h -1.5 -6 a 6,6 0 0 1 -6,-6 v -6 z" style="fill:#c4c4c4;fill-opacity:1;stroke:#a0a0a0;stroke-width:1.5;stroke-linecap:round;stroke-opacity:1"/><text id="text952" x="393.333" y="607.922" style="font-size:15px;font-family:sans-serif;text-anchor:end;fill:#000;stroke-width:1.5"><tspan id="tspan950" x="447.833" y="628.172" style="stroke-width:1.5">↓</tspan></text><g id="g970" transform="translate(379.83333,733.92154)"><g id="g968" transform="scale(1.5)"><path id="path958" d="m 0.5,8.5 v -4 a 4,4 90 0 1 4,-4 h 4 v 2 h 10 v -2 h 9 36.147461 4 a 4,4 90 0 1 4,4 v 4 h -4 v -3 h -4 v 10 h 4 v -3 h 4 v 4 a 4,4 90 0 1 -4,4 h -4 H 27.5 h -1 v 2 h -8 v -2 h -1 -4 a 5,5 90 0 0 -5,5 v 4 4 21 4 a 5,5 90 0 0 5,5 h 4 v 2 h 10 v -2 h 8 v 6 6 4 a 4,4 90 0 1 -4,4 h -4 -9 -1 v 2 h -8 v -2 h -1 -4 a 4,4 90 0 1 -4,-4 v -4 z" style="fill:#fe994f;fill-opacity:1;stroke:#e8680e;stroke-width:1;stroke-linecap:round;stroke-opacity:1"/><text id="text962" style="font-size:10px;font-family:sans-serif;text-anchor:start;fill:#000"><tspan id="tspan960" x="5.333" y="15.25">note value</tspan></text></g></g><g id="g988" transform="translate(476.05452,733.92154)"><g id="g986" transform="scale(1.5)"><path id="path972" d="m 8.5,8.5 v -4 a 4,4 90 0 1 4,-4 h 4 10 30 4 a 4,4 90 0 1 4,4 v 4 h -4 v -3 h -4 v 10 h 4 v -3 h 4 v 17 h -4 v -3 h -4 v 10 h 4 v -3 h 4 v 4 a 4,4 90 0 1 -4,4 h -4 -30 -10 -4 a 4,4 90 0 1 -4,-4 v -4 -21 -1 h -6 v 3 h -2 v -8 h 2 v 3 h 6 z" style="fill:#ff6ea1;fill-opacity:1;stroke:#ff2c76;stroke-width:1;stroke-linecap:round;stroke-opacity:1"/><text id="text976" style="font-size:14px;font-family:sans-serif;text-anchor:end;fill:#000"><tspan id="tspan974" x="54.333" y="23.8">/</tspan></text></g></g><g id="g998" transform="translate(561.55452,733.92154)"><g id="g996" transform="scale(1.5)"><path id="path990" d="m 8.5,0.5 h 60 v 20 h -60 v -8 -1 h -6 v 3 h -2 v -8 h 2 v 3 h 6 v -1 z" style="fill:#ff6ea1;fill-opacity:1;stroke:#ff2c76;stroke-width:1;stroke-linecap:round;stroke-opacity:1"/><text id="text994" style="font-size:10px;font-family:sans-serif;text-anchor:start;fill:#000"><tspan id="tspan992" x="13.333" y="13.833">1</tspan></text></g></g><g id="g1008" transform="translate(561.55452,765.42154)"><g id="g1006" transform="scale(1.5)"><path id="path1000" d="m 8.5,0.5 h 60 v 20 h -60 v -8 -1 h -6 v 3 h -2 v -8 h 2 v 3 h 6 v -1 z" style="fill:#ff6ea1;fill-opacity:1;stroke:#ff2c76;stroke-width:1;stroke-linecap:round;stroke-opacity:1"/><text id="text1004" style="font-size:10px;font-family:sans-serif;text-anchor:start;fill:#000"><tspan id="tspan1002" x="13.333" y="13.833">64</tspan></text></g></g><path id="path1010" d="m 394.08333,778.17154 v -6 a 6,6 0 0 1 6,-6 h 6 v 3 h 15 v -3 h 30 6 a 6,6 0 0 1 6,6 v 6 6 6 a 6,6 0 0 1 -6,6 h -6 -30 -1.5 v 3 h -12 v -3 h -1.5 -6 a 6,6 0 0 1 -6,-6 v -6 z" style="fill:#c4c4c4;fill-opacity:1;stroke:#a0a0a0;stroke-width:1.5;stroke-linecap:round;stroke-opacity:1"/><text id="text1014" x="393.333" y="765.422" style="font-size:15px;font-family:sans-serif;text-anchor:end;fill:#000;stroke-width:1.5"><tspan id="tspan1012" x="447.833" y="785.672" style="stroke-width:1.5">↓</tspan></text></svg>