<svg xmlns="http://www.w3.org/2000/svg" width="397" height="63.5"><g><g><path style="fill:#92a9ff;fill-opacity:1;stroke:#5370dc;stroke-width:1;stroke-linecap:round;stroke-opacity:1" d="m0.5 8.5 L 0.5 4.5 A 4 4 90 0 1 4.5 0.5 L 8.5 0.5 L 8.5 2.5 L 18.5 2.5 L 18.5 0.5 L 72.5 0.5 L 76.5 0.5 A 4 4 90 0 1 80.5 4.5 L 80.5 8.5 L 76.5 8.5 L 76.5 5.5 L 72.5 5.5 L 72.5 15.5 L 76.5 15.5 L 76.5 12.5 L 80.5 12.5 L 80.5 16.5 A 4 4 90 0 1 76.5 20.5 L 72.5 20.5 L 18.5 20.5 L 17.5 20.5 L 17.5 22.5 L 9.5 22.5 L 9.5 20.5 L 8.5 20.5 L 4.5 20.5 A 4 4 90 0 1 0.5 16.5 L 0.5 12.5 L 0.5 8.5 z" transform="translate(0, 0) scale(1.5, 1.5)"/><text transform="translate(0, 0) scale(1.5, 1.5)" style="font-size:10px;fill:#282828;font-family:sans-serif;text-anchor:end"><tspan x="70" y="14">fijar rumbo</tspan></text></g></g><g><g><path style="fill:#fe994f;fill-opacity:1;stroke:#e86b0e;stroke-width:1;stroke-linecap:round;stroke-opacity:1" d="m8.5 0.5 L 133.5 0.5 L 133.5 20.5 L 8.5 20.5 L 8.5 12.5 L 8.5 11.5 L 2.5 11.5 L 2.5 14.5 L 0.5 14.5 L 0.5 6.5 L 2.5 6.5 L 2.5 9.5 L 8.5 9.5 L 8.5 8.5 z" transform="translate(196, 0) scale(1.5, 1.5)"/><text transform="translate(196, 0) scale(1.5, 1.5)" style="font-size:10px;fill:#282828;font-family:sans-serif;text-anchor:start"><tspan x="13" y="14">cuenta de latidos</tspan></text></g></g><g><g><path style="fill:#ff6ea1;fill-opacity:1;stroke:#ff2c76;stroke-width:1;stroke-linecap:round;stroke-opacity:1" d="m8.5 8.5 L 8.5 4.5 A 4 4 90 0 1 12.5 0.5 L 16.5 0.5 L 26.5 0.5 L 56.5 0.5 L 60.5 0.5 A 4 4 90 0 1 64.5 4.5 L 64.5 8.5 L 60.5 8.5 L 60.5 5.5 L 56.5 5.5 L 56.5 15.5 L 60.5 15.5 L 60.5 12.5 L 64.5 12.5 L 64.5 29.5 L 60.5 29.5 L 60.5 26.5 L 56.5 26.5 L 56.5 36.5 L 60.5 36.5 L 60.5 33.5 L 64.5 33.5 L 64.5 37.5 A 4 4 90 0 1 60.5 41.5 L 56.5 41.5 L 26.5 41.5 L 16.5 41.5 L 12.5 41.5 A 4 4 90 0 1 8.5 37.5 L 8.5 33.5 L 8.5 12.5 L 8.5 11.5 L 2.5 11.5 L 2.5 14.5 L 0.5 14.5 L 0.5 6.5 L 2.5 6.5 L 2.5 9.5 L 8.5 9.5 L 8.5 8.5 z" transform="translate(110, 0) scale(1.5, 1.5)"/><text transform="translate(110, 0) scale(1.5, 1.5)" style="font-size:14px;fill:#282828;font-family:sans-serif;text-anchor:end"><tspan x="54" y="24">×</tspan></text></g></g><g><g><path style="fill:#ff6ea1;fill-opacity:1;stroke:#ff2c76;stroke-width:1;stroke-linecap:round;stroke-opacity:1" d="m8.5 0.5 L 68.5 0.5 L 68.5 20.5 L 8.5 20.5 L 8.5 12.5 L 8.5 11.5 L 2.5 11.5 L 2.5 14.5 L 0.5 14.5 L 0.5 6.5 L 2.5 6.5 L 2.5 9.5 L 8.5 9.5 L 8.5 8.5 z" transform="translate(196, 32) scale(1.5, 1.5)"/><text transform="translate(196, 32) scale(1.5, 1.5)" style="font-size:10px;fill:#282828;font-family:sans-serif;text-anchor:start"><tspan x="13" y="14">90</tspan></text></g></g></svg>