<svg xmlns="http://www.w3.org/2000/svg" xmlns:svg="http://www.w3.org/2000/svg" id="svg1191" width="82.5" height="97.5" version="1.1"><metadata id="metadata1197"/><g id="g106"><g id="g104" transform="scale(1.5)"><path id="path98" d="m 0.5,8.5 v -4 a 4,4 90 0 1 4,-4 h 4 v 2 h 10 v -2 h 9 19 4 a 4,4 90 0 1 4,4 v 4 4 4 a 4,4 90 0 1 -4,4 h -4 -19 -1 v 2 h -8 v -2 h -1 -4 a 5,5 90 0 0 -5,5 v 4 4 4 a 5,5 90 0 0 5,5 h 4 v 2 h 10 v -2 h 8 v 6 6 4 a 4,4 90 0 1 -4,4 h -4 -9 -1 v 2 h -8 v -2 h -1 -4 a 4,4 90 0 1 -4,-4 v -4 z" style="fill:#fe994f;fill-opacity:1;stroke:#e86b0e;stroke-width:1;stroke-linecap:round;stroke-opacity:1"/><text id="text102" style="font-size:10px;font-family:sans-serif;text-anchor:start;fill:#282828"><tspan id="tspan100" x="5" y="15">sin reloj</tspan></text></g></g></svg>