<svg xmlns="http://www.w3.org/2000/svg" width="114" height="34.5"><g><g><path style="fill:#ffbf00;fill-opacity:1;stroke:#daaf30;stroke-width:1;stroke-linecap:round;stroke-opacity:1" d="m0.5 8.5 L 0.5 4.5 A 4 4 90 0 1 4.5 0.5 L 8.5 0.5 L 8.5 2.5 L 18.5 2.5 L 18.5 0.5 L 67.5 0.5 L 71.5 0.5 A 4 4 90 0 1 75.5 4.5 L 75.5 8.5 L 71.5 8.5 L 71.5 5.5 L 67.5 5.5 L 67.5 15.5 L 71.5 15.5 L 71.5 12.5 L 75.5 12.5 L 75.5 16.5 A 4 4 90 0 1 71.5 20.5 L 67.5 20.5 L 18.5 20.5 L 17.5 20.5 L 17.5 22.5 L 9.5 22.5 L 9.5 20.5 L 8.5 20.5 L 4.5 20.5 A 4 4 90 0 1 0.5 16.5 L 0.5 12.5 L 0.5 8.5 z" transform="translate(0, 0) scale(1.5, 1.5)"/><text transform="translate(0, 0) scale(1.5, 1.5)" style="font-size:10px;fill:#282828;font-family:sans-serif;text-anchor:end"><tspan x="65" y="14">sumar 1 a</tspan></text></g></g></svg>