<svg xmlns="http://www.w3.org/2000/svg" width="385.5" height="66"><g><g><path style="fill:#d98a43;fill-opacity:1;stroke:#b7651a;stroke-width:1;stroke-linecap:round;stroke-opacity:1" d="m0.5 8.5 L 0.5 4.5 A 4 4 90 0 1 4.5 0.5 L 8.5 0.5 L 8.5 2.5 L 18.5 2.5 L 18.5 0.5 L 157.5 0.5 L 161.5 0.5 A 4 4 90 0 1 165.5 4.5 L 165.5 8.5 L 161.5 8.5 L 161.5 5.5 L 157.5 5.5 L 157.5 15.5 L 161.5 15.5 L 161.5 12.5 L 165.5 12.5 L 165.5 29.5 L 161.5 29.5 L 161.5 26.5 L 157.5 26.5 L 157.5 36.5 L 161.5 36.5 L 161.5 33.5 L 165.5 33.5 L 165.5 37.5 A 4 4 90 0 1 161.5 41.5 L 157.5 41.5 L 18.5 41.5 L 17.5 41.5 L 17.5 43.5 L 9.5 43.5 L 9.5 41.5 L 8.5 41.5 L 4.5 41.5 A 4 4 90 0 1 0.5 37.5 L 0.5 33.5 L 0.5 12.5 L 0.5 8.5 z" transform="translate(0, 0) scale(1.5, 1.5)"/><text transform="translate(0, 0) scale(1.5, 1.5)" style="font-size:10px;fill:#282828;font-family:sans-serif;text-anchor:end"><tspan x="155" y="24">cargar pila desde aplicación</tspan></text></g></g><g><g><path style="fill:#ff664b;fill-opacity:1;stroke:#ea4326;stroke-width:1;stroke-linecap:round;stroke-opacity:1" d="m8.5 0.5 L 98.5 0.5 L 98.5 20.5 L 8.5 20.5 L 8.5 12.5 L 8.5 11.5 L 2.5 11.5 L 2.5 14.5 L 0.5 14.5 L 0.5 6.5 L 2.5 6.5 L 2.5 9.5 L 8.5 9.5 L 8.5 8.5 z" transform="translate(237, 0) scale(1.5, 1.5)"/><text transform="translate(237, 0) scale(1.5, 1.5)" style="font-size:10px;fill:#282828;font-family:sans-serif;text-anchor:start"><tspan x="13" y="14">appName</tspan></text></g></g><g><g><path style="fill:#ff664b;fill-opacity:1;stroke:#ea4326;stroke-width:1;stroke-linecap:round;stroke-opacity:1" d="m8.5 0.5 L 98.5 0.5 L 98.5 20.5 L 8.5 20.5 L 8.5 12.5 L 8.5 11.5 L 2.5 11.5 L 2.5 14.5 L 0.5 14.5 L 0.5 6.5 L 2.5 6.5 L 2.5 9.5 L 8.5 9.5 L 8.5 8.5 z" transform="translate(237, 32) scale(1.5, 1.5)"/><text transform="translate(237, 32) scale(1.5, 1.5)" style="font-size:10px;fill:#282828;font-family:sans-serif;text-anchor:start"><tspan x="13" y="14">localhost</tspan></text></g></g></svg>