<svg xmlns="http://www.w3.org/2000/svg" xmlns:svg="http://www.w3.org/2000/svg" id="svg1870" width="222" height="34.5" version="1.1" viewBox="0 0 58.737 9.128"><metadata id="metadata1867"/><g id="layer1" transform="translate(-142.1966,-192.21369)"><g id="g676" transform="matrix(0.26458333,0,0,0.26458333,142.1966,192.21369)"><g id="g674" transform="scale(1.5)"><path style="fill:#ff6648;fill-opacity:1;stroke:#ea4326;stroke-width:1;stroke-linecap:round;stroke-opacity:1" id="path664" d="m 0.5,8.5 v -4 a 4,4 90 0 1 4,-4 h 4 v 2 h 10 v -2 h 30 4 a 4,4 90 0 1 4,4 v 4 h -4 v -3 h -4 v 10 h 4 v -3 h 4 v 4 a 4,4 90 0 1 -4,4 h -4 -30 -1 v 2 h -8 v -2 h -1 -4 a 4,4 90 0 1 -4,-4 v -4 z"/><text style="font-size:10px;font-family:sans-serif;text-anchor:end;fill:#282828" id="text668"><tspan id="tspan666" x="46" y="14">hablar</tspan></text></g></g><g id="g686" transform="matrix(0.26458333,0,0,0.26458333,161.64347,192.21369)"><g id="g684" transform="scale(1.5)"><path style="fill:#ff6648;fill-opacity:1;stroke:#ea4326;stroke-width:1;stroke-linecap:round;stroke-opacity:1" id="path678" d="m 8.5,0.5 h 90 v 20 h -90 v -8 -1 h -6 v 3 h -2 v -8 h 2 v 3 h 6 v -1 z"/><text style="font-size:10px;font-family:sans-serif;text-anchor:start;fill:#282828" id="text682"><tspan id="tspan680" x="13" y="14">hola</tspan></text></g></g></g></svg>