<svg xmlns="http://www.w3.org/2000/svg" xmlns:svg="http://www.w3.org/2000/svg" id="svg4537" width="357.5" height="31.5" version="1.1"><metadata id="metadata4543"/><g id="g164"><g id="g162" transform="scale(1.5)"><path style="fill:#92a9ff;fill-opacity:1;stroke:#5370dc;stroke-width:1;stroke-linecap:round;stroke-opacity:1" id="path152" d="m 8.5,8.5 v -4 a 4,4 90 0 1 4,-4 h 4 10 112 4 a 4,4 90 0 1 4,4 v 4 h -4 v -3 h -4 v 10 h 4 v -3 h 4 v 4 a 4,4 90 0 1 -4,4 h -4 -112 -10 -4 a 4,4 90 0 1 -4,-4 v -4 -1 h -6 v 3 h -2 v -8 h 2 v 3 h 6 z"/><text style="font-size:10px;font-family:sans-serif;text-anchor:end;fill:#282828" id="text156"><tspan id="tspan154" x="136" y="13">notas jugadas de ratón</tspan></text></g></g><g id="g174" transform="translate(209)"><g id="g172" transform="scale(1.5)"><path style="fill:#ff664b;fill-opacity:1;stroke:#ea4326;stroke-width:1;stroke-linecap:round;stroke-opacity:1" id="path166" d="m 8.5,0.5 h 90 v 20 h -90 v -8 -1 h -6 v 3 h -2 v -8 h 2 v 3 h 6 v -1 z"/><text style="font-size:10px;font-family:sans-serif;text-anchor:start;fill:#282828" id="text170"><tspan id="tspan168" x="13" y="14">Sr. Ratón</tspan></text></g></g></svg>