<svg xmlns="http://www.w3.org/2000/svg" width="187.5" height="34.5"><g><g><path style="fill:#c4c4c4;fill-opacity:1;stroke:#a0a0a0;stroke-width:1;stroke-linecap:round;stroke-opacity:1" d="m0.5 8.5 L 0.5 4.5 A 4 4 90 0 1 4.5 0.5 L 8.5 0.5 L 8.5 2.5 L 18.5 2.5 L 18.5 0.5 L 55.5 0.5 L 59.5 0.5 A 4 4 90 0 1 63.5 4.5 L 63.5 8.5 L 59.5 8.5 L 59.5 5.5 L 55.5 5.5 L 55.5 15.5 L 59.5 15.5 L 59.5 12.5 L 63.5 12.5 L 63.5 16.5 A 4 4 90 0 1 59.5 20.5 L 55.5 20.5 L 18.5 20.5 L 17.5 20.5 L 17.5 22.5 L 9.5 22.5 L 9.5 20.5 L 8.5 20.5 L 4.5 20.5 A 4 4 90 0 1 0.5 16.5 L 0.5 12.5 L 0.5 8.5 z" transform="translate(0, 0) scale(1.5, 1.5)"/><text transform="translate(0, 0) scale(1.5, 1.5)" style="font-size:10px;fill:#282828;font-family:sans-serif;text-anchor:end"><tspan x="53" y="14">esperar</tspan></text></g></g><g><g><path style="fill:#ff6ea1;fill-opacity:1;stroke:#ff2c76;stroke-width:1;stroke-linecap:round;stroke-opacity:1" d="m8.5 0.5 L 68.5 0.5 L 68.5 20.5 L 8.5 20.5 L 8.5 12.5 L 8.5 11.5 L 2.5 11.5 L 2.5 14.5 L 0.5 14.5 L 0.5 6.5 L 2.5 6.5 L 2.5 9.5 L 8.5 9.5 L 8.5 8.5 z" transform="translate(84, 0) scale(1.5, 1.5)"/><text transform="translate(84, 0) scale(1.5, 1.5)" style="font-size:10px;fill:#282828;font-family:sans-serif;text-anchor:start"><tspan x="13" y="14">1</tspan></text></g></g></svg>