<svg xmlns="http://www.w3.org/2000/svg" xmlns:svg="http://www.w3.org/2000/svg" id="svg500" width="204.5" height="126.5" version="1.1"><metadata id="metadata506"/><g id="g458"><g id="g456" transform="scale(1.5)"><path id="path434" d="m 8.5,8.5 v -4 a 4,4 90 0 1 4,-4 h 4 10 30 4 a 4,4 90 0 1 4,4 v 4 h -4 v -3 h -4 v 10 h 4 v -3 h 4 v 17 h -4 v -3 h -4 v 10 h 4 v -3 h 4 v 17 h -4 v -3 h -4 v 10 h 4 v -3 h 4 v 17 h -4 v -3 h -4 v 10 h 4 v -3 h 4 v 4 a 4,4 90 0 1 -4,4 h -4 -30 -10 -4 a 4,4 90 0 1 -4,-4 v -4 -63 -1 h -6 v 3 h -2 v -8 h 2 v 3 h 6 z" style="fill:#ff6ea1;fill-opacity:1;stroke:#ff2c76;stroke-width:1;stroke-linecap:round;stroke-opacity:1"/><text id="text438" style="font-size:10px;font-family:sans-serif;text-anchor:end;fill:#282828"><tspan id="tspan436" x="54" y="44">distance</tspan></text><text id="text442" style="font-size:6.66666651px;font-family:sans-serif;text-anchor:end;fill:#282828"><tspan id="tspan440" x="54" y="12">x1</tspan></text><text id="text446" style="font-size:6.66666651px;font-family:sans-serif;text-anchor:end;fill:#282828"><tspan id="tspan444" x="54" y="33">y1</tspan></text><text id="text450" style="font-size:6.66666651px;font-family:sans-serif;text-anchor:end;fill:#282828"><tspan id="tspan448" x="54" y="54">x2</tspan></text><text id="text454" style="font-size:6.66666651px;font-family:sans-serif;text-anchor:end;fill:#282828"><tspan id="tspan452" x="54" y="75">y2</tspan></text></g></g><g id="g468" transform="translate(86)"><g id="g466" transform="scale(1.5)"><path id="path460" d="m 8.5,0.5 h 60 v 20 h -60 v -8 -1 h -6 v 3 h -2 v -8 h 2 v 3 h 6 v -1 z" style="fill:#ff6ea1;fill-opacity:1;stroke:#ff2c76;stroke-width:1;stroke-linecap:round;stroke-opacity:1"/><text id="text464" style="font-size:10px;font-family:sans-serif;text-anchor:start;fill:#282828"><tspan id="tspan462" x="13" y="14">0</tspan></text></g></g><g id="g478" transform="translate(86,32)"><g id="g476" transform="scale(1.5)"><path id="path470" d="m 8.5,0.5 h 60 v 20 h -60 v -8 -1 h -6 v 3 h -2 v -8 h 2 v 3 h 6 v -1 z" style="fill:#ff6ea1;fill-opacity:1;stroke:#ff2c76;stroke-width:1;stroke-linecap:round;stroke-opacity:1"/><text id="text474" style="font-size:10px;font-family:sans-serif;text-anchor:start;fill:#282828"><tspan id="tspan472" x="13" y="14">0</tspan></text></g></g><g id="g488" transform="translate(86,63)"><g id="g486" transform="scale(1.5)"><path id="path480" d="m 8.5,0.5 h 70 v 20 h -70 v -8 -1 h -6 v 3 h -2 v -8 h 2 v 3 h 6 v -1 z" style="fill:#92a9ff;fill-opacity:1;stroke:#5370dc;stroke-width:1;stroke-linecap:round;stroke-opacity:1"/><text id="text484" style="font-size:10px;font-family:sans-serif;text-anchor:start;fill:#282828"><tspan id="tspan482" x="13" y="14">x</tspan></text></g></g><g id="g498" transform="translate(86,95)"><g id="g496" transform="scale(1.5)"><path id="path490" d="m 8.5,0.5 h 70 v 20 h -70 v -8 -1 h -6 v 3 h -2 v -8 h 2 v 3 h 6 v -1 z" style="fill:#92a9ff;fill-opacity:1;stroke:#5370dc;stroke-width:1;stroke-linecap:round;stroke-opacity:1"/><text id="text494" style="font-size:10px;font-family:sans-serif;text-anchor:start;fill:#282828"><tspan id="tspan492" x="13" y="14">y</tspan></text></g></g></svg>