<svg xmlns="http://www.w3.org/2000/svg" width="280.5" height="31.5"><g><g><path style="fill:#92a9ff;fill-opacity:1;stroke:#5370dc;stroke-width:1;stroke-linecap:round;stroke-opacity:1" d="m8.5 8.5 L 8.5 4.5 A 4 4 90 0 1 12.5 0.5 L 16.5 0.5 L 26.5 0.5 L 87.5 0.5 L 91.5 0.5 A 4 4 90 0 1 95.5 4.5 L 95.5 8.5 L 91.5 8.5 L 91.5 5.5 L 87.5 5.5 L 87.5 15.5 L 91.5 15.5 L 91.5 12.5 L 95.5 12.5 L 95.5 16.5 A 4 4 90 0 1 91.5 20.5 L 87.5 20.5 L 26.5 20.5 L 16.5 20.5 L 12.5 20.5 A 4 4 90 0 1 8.5 16.5 L 8.5 12.5 L 8.5 11.5 L 2.5 11.5 L 2.5 14.5 L 0.5 14.5 L 0.5 6.5 L 2.5 6.5 L 2.5 9.5 L 8.5 9.5 L 8.5 8.5 z" transform="translate(0, 0) scale(1.5, 1.5)"/><text transform="translate(0, 0) scale(1.5, 1.5)" style="font-size:10px;fill:#282828;font-family:sans-serif;text-anchor:end"><tspan x="85" y="13">mouse color</tspan></text></g></g><g><g><path style="fill:#ff664b;fill-opacity:1;stroke:#ea4326;stroke-width:1;stroke-linecap:round;stroke-opacity:1" d="m8.5 0.5 L 98.5 0.5 L 98.5 20.5 L 8.5 20.5 L 8.5 12.5 L 8.5 11.5 L 2.5 11.5 L 2.5 14.5 L 0.5 14.5 L 0.5 6.5 L 2.5 6.5 L 2.5 9.5 L 8.5 9.5 L 8.5 8.5 z" transform="translate(132, 0) scale(1.5, 1.5)"/><text transform="translate(132, 0) scale(1.5, 1.5)" style="font-size:10px;fill:#282828;font-family:sans-serif;text-anchor:start"><tspan x="13" y="14">Mr. Mouse</tspan></text></g></g></svg>