<svg xmlns="http://www.w3.org/2000/svg" xmlns:svg="http://www.w3.org/2000/svg" id="svg262" width="246.5" height="81.5" version="1.1"><metadata id="metadata268"/><g id="g62"><g id="g60" transform="scale(1.5)"><path style="fill:#92a9ff;fill-opacity:1;stroke:#5370dc;stroke-width:1;stroke-linecap:round;stroke-opacity:1" id="path50" d="m 0.5,8.5 v -4 a 4,4 90 0 1 4,-4 h 4 v 2 h 10 v -2 h 46 4 a 4,4 90 0 1 4,4 v 4 h -4 v -3 h -4 v 10 h 4 v -3 h 4 v 4 a 4,4 90 0 1 -4,4 h -4 -46 -1 v 2 h -8 v -2 h -1 -4 a 4,4 90 0 1 -4,-4 v -4 z"/><text style="font-size:10px;font-family:sans-serif;text-anchor:end;fill:#282828" id="text54"><tspan id="tspan52" x="62" y="14">set name</tspan></text></g></g><g id="g72" transform="translate(98)"><g id="g70" transform="scale(1.5)"><path style="fill:#ff664b;fill-opacity:1;stroke:#ea4326;stroke-width:1;stroke-linecap:round;stroke-opacity:1" id="path64" d="m 8.5,0.5 h 90 v 20 h -90 v -8 -1 h -6 v 3 h -2 v -8 h 2 v 3 h 6 v -1 z"/><text style="font-size:10px;font-family:sans-serif;text-anchor:start;fill:#282828" id="text68"><tspan id="tspan66" x="13" y="14">my name</tspan></text></g></g><g id="g260" transform="translate(2,50)"><g id="g258" transform="scale(1.5)"><path style="fill:#92a9ff;fill-opacity:1;stroke:#5370dc;stroke-width:1;stroke-linecap:round;stroke-opacity:1" id="path252" d="m 8.5,0.5 h 104 v 20 H 8.5 v -8 -1 h -6 v 3 h -2 v -8 h 2 v 3 h 6 v -1 z"/><text style="font-size:10px;font-family:sans-serif;text-anchor:start;fill:#282828" id="text256"><tspan id="tspan254" x="13" y="14">mouse name</tspan></text></g></g></svg>