<svg xmlns="http://www.w3.org/2000/svg" width="269.5" height="192"><g><g><path style="fill:#92a9ff;fill-opacity:1;stroke:#5370dc;stroke-width:1;stroke-linecap:round;stroke-opacity:1" d="m0.5 8.5 L 0.5 4.5 A 4 4 90 0 1 4.5 0.5 L 8.5 0.5 L 8.5 2.5 L 18.5 2.5 L 18.5 0.5 L 27.5 0.5 L 57.5 0.5 L 61.5 0.5 A 4 4 90 0 1 65.5 4.5 L 65.5 8.5 L 65.5 12.5 L 65.5 16.5 A 4 4 90 0 1 61.5 20.5 L 57.5 20.5 L 27.5 20.5 L 26.5 20.5 L 26.5 22.5 L 18.5 22.5 L 18.5 20.5 L 17.5 20.5 L 13.5 20.5 A 5 5 90 0 0 8.5 25.5 L 8.5 29.5 L 8.5 33.5 L 8.5 96.5 L 8.5 100.5 A 5 5 90 0 0 13.5 105.5 L 17.5 105.5 L 17.5 107.5 L 27.5 107.5 L 27.5 105.5 L 35.5 105.5 L 35.5 111.5 L 35.5 117.5 L 35.5 121.5 A 4 4 90 0 1 31.5 125.5 L 27.5 125.5 L 18.5 125.5 L 17.5 125.5 L 17.5 127.5 L 9.5 127.5 L 9.5 125.5 L 8.5 125.5 L 4.5 125.5 A 4 4 90 0 1 0.5 121.5 L 0.5 117.5 z" transform="translate(0, 0) scale(1.5, 1.5)"/><text transform="translate(0, 0) scale(1.5, 1.5)" style="font-size:10px;fill:#282828;font-family:sans-serif;text-anchor:start"><tspan x="5" y="15">ぬりつぶす</tspan></text></g></g><g><g><path style="fill:#d98a43;fill-opacity:1;stroke:#b7651a;stroke-width:1;stroke-linecap:round;stroke-opacity:1" d="m0.5 8.5 L 0.5 4.5 A 4 4 90 0 1 4.5 0.5 L 8.5 0.5 L 8.5 2.5 L 18.5 2.5 L 18.5 0.5 L 27.5 0.5 L 100.5 0.5 L 104.5 0.5 A 4 4 90 0 1 108.5 4.5 L 108.5 8.5 L 104.5 8.5 L 104.5 5.5 L 100.5 5.5 L 100.5 15.5 L 104.5 15.5 L 104.5 12.5 L 108.5 12.5 L 108.5 16.5 A 4 4 90 0 1 104.5 20.5 L 100.5 20.5 L 27.5 20.5 L 26.5 20.5 L 26.5 22.5 L 18.5 22.5 L 18.5 20.5 L 17.5 20.5 L 13.5 20.5 A 5 5 90 0 0 8.5 25.5 L 8.5 29.5 L 8.5 33.5 L 8.5 54.5 L 8.5 58.5 A 5 5 90 0 0 13.5 63.5 L 17.5 63.5 L 17.5 65.5 L 27.5 65.5 L 27.5 63.5 L 35.5 63.5 L 35.5 69.5 L 35.5 75.5 L 35.5 79.5 A 4 4 90 0 1 31.5 83.5 L 27.5 83.5 L 18.5 83.5 L 17.5 83.5 L 17.5 85.5 L 9.5 85.5 L 9.5 83.5 L 8.5 83.5 L 4.5 83.5 A 4 4 90 0 1 0.5 79.5 L 0.5 75.5 z" transform="translate(14, 32) scale(1.5, 1.5)"/><text transform="translate(14, 32) scale(1.5, 1.5)" style="font-size:10px;fill:#282828;font-family:sans-serif;text-anchor:start"><tspan x="5" y="15">～かい くりかえす</tspan></text></g></g><g><g><path style="fill:#ff6ea1;fill-opacity:1;stroke:#ff2c76;stroke-width:1;stroke-linecap:round;stroke-opacity:1" d="m8.5 0.5 L 68.5 0.5 L 68.5 20.5 L 8.5 20.5 L 8.5 12.5 L 8.5 11.5 L 2.5 11.5 L 2.5 14.5 L 0.5 14.5 L 0.5 6.5 L 2.5 6.5 L 2.5 9.5 L 8.5 9.5 L 8.5 8.5 z" transform="translate(166, 32) scale(1.5, 1.5)"/><text transform="translate(166, 32) scale(1.5, 1.5)" style="font-size:10px;fill:#282828;font-family:sans-serif;text-anchor:start"><tspan x="13" y="14">4</tspan></text></g></g><g><g><path style="fill:#92a9ff;fill-opacity:1;stroke:#5370dc;stroke-width:1;stroke-linecap:round;stroke-opacity:1" d="m0.5 8.5 L 0.5 4.5 A 4 4 90 0 1 4.5 0.5 L 8.5 0.5 L 8.5 2.5 L 18.5 2.5 L 18.5 0.5 L 81.5 0.5 L 85.5 0.5 A 4 4 90 0 1 89.5 4.5 L 89.5 8.5 L 85.5 8.5 L 85.5 5.5 L 81.5 5.5 L 81.5 15.5 L 85.5 15.5 L 85.5 12.5 L 89.5 12.5 L 89.5 16.5 A 4 4 90 0 1 85.5 20.5 L 81.5 20.5 L 18.5 20.5 L 17.5 20.5 L 17.5 22.5 L 9.5 22.5 L 9.5 20.5 L 8.5 20.5 L 4.5 20.5 A 4 4 90 0 1 0.5 16.5 L 0.5 12.5 L 0.5 8.5 z" transform="translate(28, 64) scale(1.5, 1.5)"/><text transform="translate(28, 64) scale(1.5, 1.5)" style="font-size:10px;fill:#282828;font-family:sans-serif;text-anchor:end"><tspan x="79" y="14">まえへ すすむ</tspan></text></g></g><g><g><path style="fill:#ff6ea1;fill-opacity:1;stroke:#ff2c76;stroke-width:1;stroke-linecap:round;stroke-opacity:1" d="m8.5 0.5 L 68.5 0.5 L 68.5 20.5 L 8.5 20.5 L 8.5 12.5 L 8.5 11.5 L 2.5 11.5 L 2.5 14.5 L 0.5 14.5 L 0.5 6.5 L 2.5 6.5 L 2.5 9.5 L 8.5 9.5 L 8.5 8.5 z" transform="translate(151, 64) scale(1.5, 1.5)"/><text transform="translate(151, 64) scale(1.5, 1.5)" style="font-size:10px;fill:#282828;font-family:sans-serif;text-anchor:start"><tspan x="13" y="14">100</tspan></text></g></g><g><g><path style="fill:#92a9ff;fill-opacity:1;stroke:#5370dc;stroke-width:1;stroke-linecap:round;stroke-opacity:1" d="m0.5 8.5 L 0.5 4.5 A 4 4 90 0 1 4.5 0.5 L 8.5 0.5 L 8.5 2.5 L 18.5 2.5 L 18.5 0.5 L 71.5 0.5 L 75.5 0.5 A 4 4 90 0 1 79.5 4.5 L 79.5 8.5 L 75.5 8.5 L 75.5 5.5 L 71.5 5.5 L 71.5 15.5 L 75.5 15.5 L 75.5 12.5 L 79.5 12.5 L 79.5 16.5 A 4 4 90 0 1 75.5 20.5 L 71.5 20.5 L 18.5 20.5 L 17.5 20.5 L 17.5 22.5 L 9.5 22.5 L 9.5 20.5 L 8.5 20.5 L 4.5 20.5 A 4 4 90 0 1 0.5 16.5 L 0.5 12.5 L 0.5 8.5 z" transform="translate(28, 96) scale(1.5, 1.5)"/><text transform="translate(28, 96) scale(1.5, 1.5)" style="font-size:10px;fill:#282828;font-family:sans-serif;text-anchor:end"><tspan x="69" y="14">みぎを むく</tspan></text></g></g><g><g><path style="fill:#ff6ea1;fill-opacity:1;stroke:#ff2c76;stroke-width:1;stroke-linecap:round;stroke-opacity:1" d="m8.5 0.5 L 68.5 0.5 L 68.5 20.5 L 8.5 20.5 L 8.5 12.5 L 8.5 11.5 L 2.5 11.5 L 2.5 14.5 L 0.5 14.5 L 0.5 6.5 L 2.5 6.5 L 2.5 9.5 L 8.5 9.5 L 8.5 8.5 z" transform="translate(136, 96) scale(1.5, 1.5)"/><text transform="translate(136, 96) scale(1.5, 1.5)" style="font-size:10px;fill:#282828;font-family:sans-serif;text-anchor:start"><tspan x="13" y="14">90</tspan></text></g></g></svg>