<svg xmlns="http://www.w3.org/2000/svg" width="206.5" height="160.5"><g><g><path style="fill:#3edcdd;fill-opacity:1;stroke:#1dbcbd;stroke-width:1;stroke-linecap:round;stroke-opacity:1" d="m0.5 8.5 L 0.5 4.5 A 4 4 90 0 1 4.5 0.5 L 8.5 0.5 L 8.5 2.5 L 18.5 2.5 L 18.5 0.5 L 27.5 0.5 L 87.5 0.5 L 91.5 0.5 A 4 4 90 0 1 95.5 4.5 L 95.5 8.5 L 95.5 12.5 L 95.5 16.5 A 4 4 90 0 1 91.5 20.5 L 87.5 20.5 L 27.5 20.5 L 26.5 20.5 L 26.5 22.5 L 18.5 22.5 L 18.5 20.5 L 17.5 20.5 L 13.5 20.5 A 5 5 90 0 0 8.5 25.5 L 8.5 29.5 L 8.5 33.5 L 8.5 75.5 L 8.5 79.5 A 5 5 90 0 0 13.5 84.5 L 17.5 84.5 L 17.5 86.5 L 27.5 86.5 L 27.5 84.5 L 35.5 84.5 L 35.5 90.5 L 35.5 96.5 L 35.5 100.5 A 4 4 90 0 1 31.5 104.5 L 27.5 104.5 L 18.5 104.5 L 17.5 104.5 L 17.5 106.5 L 9.5 106.5 L 9.5 104.5 L 8.5 104.5 L 4.5 104.5 A 4 4 90 0 1 0.5 100.5 L 0.5 96.5 z" transform="translate(0, 0) scale(1.5, 1.5)"/><text transform="translate(0, 0) scale(1.5, 1.5)" style="font-size:10px;fill:#282828;font-family:sans-serif;text-anchor:start"><tspan x="5" y="15">ウェートばいおん</tspan></text></g></g><g><g><path style="fill:#3edcdd;fill-opacity:1;stroke:#1dbcbd;stroke-width:1;stroke-linecap:round;stroke-opacity:1" d="m0.5 8.5 L 0.5 4.5 A 4 4 90 0 1 4.5 0.5 L 8.5 0.5 L 8.5 2.5 L 18.5 2.5 L 18.5 0.5 L 58.5 0.5 L 62.5 0.5 A 4 4 90 0 1 66.5 4.5 L 66.5 8.5 L 62.5 8.5 L 62.5 5.5 L 58.5 5.5 L 58.5 15.5 L 62.5 15.5 L 62.5 12.5 L 66.5 12.5 L 66.5 16.5 A 4 4 90 0 1 62.5 20.5 L 58.5 20.5 L 18.5 20.5 L 17.5 20.5 L 17.5 22.5 L 9.5 22.5 L 9.5 20.5 L 8.5 20.5 L 4.5 20.5 A 4 4 90 0 1 0.5 16.5 L 0.5 12.5 L 0.5 8.5 z" transform="translate(14, 32) scale(1.5, 1.5)"/><text transform="translate(14, 32) scale(1.5, 1.5)" style="font-size:10px;fill:#282828;font-family:sans-serif;text-anchor:end"><tspan x="56" y="14">ばいおん</tspan></text></g></g><g><g><path style="fill:#ff6ea1;fill-opacity:1;stroke:#ff2c76;stroke-width:1;stroke-linecap:round;stroke-opacity:1" d="m8.5 0.5 L 68.5 0.5 L 68.5 20.5 L 8.5 20.5 L 8.5 12.5 L 8.5 11.5 L 2.5 11.5 L 2.5 14.5 L 0.5 14.5 L 0.5 6.5 L 2.5 6.5 L 2.5 9.5 L 8.5 9.5 L 8.5 8.5 z" transform="translate(103, 32) scale(1.5, 1.5)"/><text transform="translate(103, 32) scale(1.5, 1.5)" style="font-size:10px;fill:#282828;font-family:sans-serif;text-anchor:start"><tspan x="13" y="14">1</tspan></text></g></g><g><g><path style="fill:#3edcdd;fill-opacity:1;stroke:#1dbcbd;stroke-width:1;stroke-linecap:round;stroke-opacity:1" d="m0.5 8.5 L 0.5 4.5 A 4 4 90 0 1 4.5 0.5 L 8.5 0.5 L 8.5 2.5 L 18.5 2.5 L 18.5 0.5 L 58.5 0.5 L 62.5 0.5 A 4 4 90 0 1 66.5 4.5 L 66.5 8.5 L 62.5 8.5 L 62.5 5.5 L 58.5 5.5 L 58.5 15.5 L 62.5 15.5 L 62.5 12.5 L 66.5 12.5 L 66.5 16.5 A 4 4 90 0 1 62.5 20.5 L 58.5 20.5 L 18.5 20.5 L 17.5 20.5 L 17.5 22.5 L 9.5 22.5 L 9.5 20.5 L 8.5 20.5 L 4.5 20.5 A 4 4 90 0 1 0.5 16.5 L 0.5 12.5 L 0.5 8.5 z" transform="translate(14, 64) scale(1.5, 1.5)"/><text transform="translate(14, 64) scale(1.5, 1.5)" style="font-size:10px;fill:#282828;font-family:sans-serif;text-anchor:end"><tspan x="56" y="14">ばいおん</tspan></text></g></g><g><g><path style="fill:#ff6ea1;fill-opacity:1;stroke:#ff2c76;stroke-width:1;stroke-linecap:round;stroke-opacity:1" d="m8.5 0.5 L 68.5 0.5 L 68.5 20.5 L 8.5 20.5 L 8.5 12.5 L 8.5 11.5 L 2.5 11.5 L 2.5 14.5 L 0.5 14.5 L 0.5 6.5 L 2.5 6.5 L 2.5 9.5 L 8.5 9.5 L 8.5 8.5 z" transform="translate(103, 64) scale(1.5, 1.5)"/><text transform="translate(103, 64) scale(1.5, 1.5)" style="font-size:10px;fill:#282828;font-family:sans-serif;text-anchor:start"><tspan x="13" y="14">0.2</tspan></text></g></g><g><g><path style="fill:#3edcdd;fill-opacity:1;stroke:#1dbcbd;stroke-width:1;stroke-linecap:round;stroke-opacity:1" d="m0.5 8.5 L 0.5 4.5 A 4 4 90 0 1 4.5 0.5 L 8.5 0.5 L 8.5 2.5 L 18.5 2.5 L 18.5 0.5 L 58.5 0.5 L 62.5 0.5 A 4 4 90 0 1 66.5 4.5 L 66.5 8.5 L 62.5 8.5 L 62.5 5.5 L 58.5 5.5 L 58.5 15.5 L 62.5 15.5 L 62.5 12.5 L 66.5 12.5 L 66.5 16.5 A 4 4 90 0 1 62.5 20.5 L 58.5 20.5 L 18.5 20.5 L 17.5 20.5 L 17.5 22.5 L 9.5 22.5 L 9.5 20.5 L 8.5 20.5 L 4.5 20.5 A 4 4 90 0 1 0.5 16.5 L 0.5 12.5 L 0.5 8.5 z" transform="translate(14, 96) scale(1.5, 1.5)"/><text transform="translate(14, 96) scale(1.5, 1.5)" style="font-size:10px;fill:#282828;font-family:sans-serif;text-anchor:end"><tspan x="56" y="14">ばいおん</tspan></text></g></g><g><g><path style="fill:#ff6ea1;fill-opacity:1;stroke:#ff2c76;stroke-width:1;stroke-linecap:round;stroke-opacity:1" d="m8.5 0.5 L 68.5 0.5 L 68.5 20.5 L 8.5 20.5 L 8.5 12.5 L 8.5 11.5 L 2.5 11.5 L 2.5 14.5 L 0.5 14.5 L 0.5 6.5 L 2.5 6.5 L 2.5 9.5 L 8.5 9.5 L 8.5 8.5 z" transform="translate(103, 96) scale(1.5, 1.5)"/><text transform="translate(103, 96) scale(1.5, 1.5)" style="font-size:10px;fill:#282828;font-family:sans-serif;text-anchor:start"><tspan x="13" y="14">0.01</tspan></text></g></g></svg>