<svg xmlns="http://www.w3.org/2000/svg" xmlns:svg="http://www.w3.org/2000/svg" id="svg1120" width="101.202" height="97.5" version="1.1" viewBox="0 0 26.776 25.797"><metadata id="metadata1117"/><g id="layer1" transform="translate(-323.76141,-397.53222)"><g id="g258" transform="matrix(0.26458333,0,0,0.26458333,323.76141,397.53222)"><g id="g256" transform="scale(1.5)"><path id="path250" d="m 0.5,8.5 v -4 c 0,-2.209139 1.790861,-4 4,-4 h 4 v 2 h 10 v -2 h 9 31.351237 4 c 2.209139,0 4.698591,1.9042267 4,4 v 4 4 4 c 0,2.209139 -1.790861,4 -4,4 h -4 H 27.5 h -1 v 2 h -8 v -2 h -1 -4 c -2.761424,0 -5,2.238576 -5,5 v 4 4 4 c 0,2.761424 2.238576,5 5,5 h 4 v 2 h 10 v -2 h 8 v 6 6 4 c 0,2.209139 -1.790861,4 -4,4 h -4 -9 -1 v 2 h -8 v -2 h -1 -4 c -2.209139,0 -4,-1.790861 -4,-4 v -4 z" style="fill:#ff8b2d;fill-opacity:1;stroke:#520000;stroke-width:1;stroke-linecap:round;stroke-opacity:1"/><text id="text254" style="font-size:10px;font-family:sans-serif;text-anchor:start;fill:#000"><tspan id="tspan252" x="5" y="15">クロックなし</tspan></text></g></g></g></svg>