<svg xmlns="http://www.w3.org/2000/svg" xmlns:svg="http://www.w3.org/2000/svg" id="svg244" width="632.614" height="633.143" version="1.1"><metadata id="metadata250"/><path id="path4" d="m 48.477072,325.40588 v -1.81771 -1.81771 -1.81771 -1.8177 -1.81771 -1.81771 -1.81771 -1.81771" style="fill:none;stroke:red;stroke-width:72.70833778pt;stroke-linecap:round;stroke-opacity:1"/><path id="path6" d="m 48.477072,310.86421 0.0951,-1.81521 0.0951,-1.81522 0.0951,-1.81522 0.0951,-1.81522 0.0951,-1.81521 0.0951,-1.81522 0.0951,-1.81522 0.0951,-1.81521" style="fill:none;stroke:#fe4500;stroke-width:69.80000496pt;stroke-linecap:round;stroke-opacity:1"/><path id="path8" d="m 49.238122,296.34248 0.19,-1.80776 0.19001,-1.80775 0.19,-1.80775 0.19,-1.80775 0.19,-1.80775 0.19001,-1.80775 0.19,-1.80775 0.19,-1.80775" style="fill:none;stroke:#fd5b00;stroke-width:66.89167213pt;stroke-linecap:round;stroke-opacity:1"/><path id="path10" d="m 50.758142,281.88047 0.28435,-1.79533 0.28435,-1.79533 0.28436,-1.79533 0.28435,-1.79533 0.28435,-1.79533 0.28435,-1.79533 0.28436,-1.79533 0.28435,-1.79532" style="fill:none;stroke:#fd7200;stroke-width:63.98333359pt;stroke-linecap:round;stroke-opacity:1"/><path id="path12" d="m 53.032962,267.51784 0.37792,-1.77799 0.37792,-1.77799 0.37793,-1.77799 0.37792,-1.77798 0.37792,-1.77799 0.37792,-1.77799 0.37793,-1.77798 0.37792,-1.77799" style="fill:none;stroke:#fe8a00;stroke-width:61.07500076pt;stroke-linecap:round;stroke-opacity:1"/><path id="path14" d="m 56.056342,253.29394 0.47046,-1.75577 0.47046,-1.75577 0.47045,-1.75578 0.47046,-1.75577 0.47046,-1.75577 0.47046,-1.75577 0.47045,-1.75577 0.47046,-1.75577" style="fill:none;stroke:#ffa300;stroke-width:58.16666794pt;stroke-linecap:round;stroke-opacity:1"/><path id="path16" d="m 59.820002,239.24777 0.5617,-1.72875 0.56171,-1.72874 0.5617,-1.72874 0.5617,-1.72875 0.5617,-1.72874 0.56171,-1.72874 0.5617,-1.72875 0.5617,-1.72874" style="fill:none;stroke:#ffa800;stroke-width:55.25833511pt;stroke-linecap:round;stroke-opacity:1"/><path id="path18" d="m 64.313622,225.41782 0.65141,-1.69698 0.65141,-1.69697 0.65141,-1.69698 0.65141,-1.69698 0.6514,-1.69697 0.65141,-1.69698 0.65141,-1.69698 0.65141,-1.69697" style="fill:none;stroke:#ffad00;stroke-width:52.34999657pt;stroke-linecap:round;stroke-opacity:1"/><path id="path20" d="m 69.524892,211.84201 0.73933,-1.66056 0.73933,-1.66056 0.73933,-1.66056 0.73932,-1.66056 0.73933,-1.66056 0.73933,-1.66056 0.73933,-1.66056 0.73933,-1.66056" style="fill:none;stroke:#ffb100;stroke-width:49.44166374pt;stroke-linecap:round;stroke-opacity:1"/><path id="path22" d="m 75.439522,198.55753 0.82522,-1.61959 0.82522,-1.61959 0.82523,-1.61959 0.82522,-1.61959 0.82522,-1.61959 0.82522,-1.61959 0.82523,-1.61959 0.82522,-1.61959" style="fill:none;stroke:#ffb500;stroke-width:46.53333378pt;stroke-linecap:round;stroke-opacity:1"/><path id="path24" d="m 82.041302,185.60081 0.90885,-1.57418 0.90886,-1.57418 0.90885,-1.57418 0.90885,-1.57418 0.90886,-1.57419 0.90885,-1.57418 0.90886,-1.57418 0.90885,-1.57418" style="fill:none;stroke:#ffb900;stroke-width:43.62500095pt;stroke-linecap:round;stroke-opacity:1"/><path id="path26" d="m 89.312132,173.00736 0.99,-1.52446 0.98999,-1.52446 0.99,-1.52446 0.98999,-1.52446 0.99,-1.52445 0.98999,-1.52446 0.99,-1.52446 0.98999,-1.52446" style="fill:none;stroke:#fb0;stroke-width:40.71666813pt;stroke-linecap:round;stroke-opacity:1"/><path id="path28" d="m 97.232092,160.81169 1.06842,-1.47056 1.06842,-1.47055 1.068428,-1.47056 1.06842,-1.47056 1.06842,-1.47055 1.06842,-1.47056 1.06843,-1.47056 1.06842,-1.47055" style="fill:none;stroke:#ffbe00;stroke-width:37.8083353pt;stroke-linecap:round;stroke-opacity:1"/><path id="path30" d="m 105.77947,149.04724 1.14392,-1.41263 1.14392,-1.41262 1.14392,-1.41263 1.14392,-1.41262 1.14392,-1.41263 1.14392,-1.41262 1.14392,-1.41263 1.14392,-1.41262" style="fill:none;stroke:#ffc700;stroke-width:34.90000248pt;stroke-linecap:round;stroke-opacity:1"/><path id="path32" d="m 114.93083,137.74624 1.21629,-1.35082 1.21628,-1.35082 1.21629,-1.35082 1.21628,-1.35082 1.21629,-1.35082 1.21628,-1.35083 1.21628,-1.35082 1.21629,-1.35082" style="fill:none;stroke:#ffd500;stroke-width:31.99166679pt;stroke-linecap:round;stroke-opacity:1"/><path id="path34" d="m 124.66111,126.93967 1.28531,-1.28531 1.28532,-1.28531 1.28531,-1.28532 1.28531,-1.28531 1.28532,-1.28532 1.28531,-1.28531 1.28532,-1.28531 1.28531,-1.28532" style="fill:none;stroke:#ffe400;stroke-width:29.08333397pt;stroke-linecap:round;stroke-opacity:1"/><path id="path36" d="m 134.94362,116.65716 1.35082,-1.21628 1.35082,-1.21629 1.35082,-1.21628 1.35082,-1.21628 1.35082,-1.21629 1.35082,-1.21628 1.35082,-1.21629 1.35082,-1.21628" style="fill:none;stroke:#ffe500;stroke-width:26.17499828pt;stroke-linecap:round;stroke-opacity:1"/><path id="path38" d="m 145.75018,106.92689 1.41263,-1.14392 1.41262,-1.14392 1.41263,-1.14392 1.41262,-1.14393 1.41263,-1.14392 1.41262,-1.14392 1.41263,-1.143923 1.41262,-1.14392" style="fill:none;stroke:#ffe700;stroke-width:23.26666689pt;stroke-linecap:round;stroke-opacity:1"/><path id="path40" d="m 157.05118,97.775517 1.47056,-1.06842 1.47056,-1.06842 1.47055,-1.06843 1.47056,-1.06842 1.47056,-1.06842 1.47055,-1.06842 1.47056,-1.06842 1.47056,-1.06843" style="fill:none;stroke:#fde900;stroke-width:20.35833406pt;stroke-linecap:round;stroke-opacity:1"/><path id="path42" d="m 168.81564,89.228137 1.52446,-0.98999 1.52445,-0.99 1.52446,-0.98999 1.52446,-0.99 1.5245,-0.98999 1.5244,-0.99 1.5245,-0.98999 1.5244,-0.99" style="fill:none;stroke:#f9eb00;stroke-width:17.45000124pt;stroke-linecap:round;stroke-opacity:1"/><path id="path44" d="m 181.01127,81.308177 1.5742,-0.90885 1.5742,-0.90885 1.5742,-0.90886 1.5742,-0.90885 1.5741,-0.90886 1.5742,-0.90885 1.5742,-0.90885 1.5742,-0.90886" style="fill:none;stroke:#f6ee00;stroke-width:14.54166698pt;stroke-linecap:round;stroke-opacity:1"/><path id="path46" d="m 193.60477,74.037347 1.6196,-0.82522 1.6196,-0.82522 1.6196,-0.82523 1.6195,-0.82522 1.6196,-0.82522 1.6196,-0.82522 1.6196,-0.82523 1.6196,-0.82522" style="fill:none;stroke:#edf000;stroke-width:11.63333344pt;stroke-linecap:round;stroke-opacity:1"/><path id="path48" d="m 206.56147,67.435567 1.6606,-0.73933 1.6605,-0.73932 1.6606,-0.73933 1.6605,-0.73933 1.6606,-0.73933 1.6606,-0.73933 1.6605,-0.73933 1.6606,-0.73933" style="fill:none;stroke:#e5f200;stroke-width:8.72500062pt;stroke-linecap:round;stroke-opacity:1"/><path id="path50" d="m 219.84597,61.520937 1.697,-0.6514 1.6969,-0.65141 1.697,-0.65141 1.697,-0.65141 1.697,-0.65141 1.6969,-0.65141 1.697,-0.6514 1.697,-0.65141" style="fill:none;stroke:#dbf500;stroke-width:5.81666672pt;stroke-linecap:round;stroke-opacity:1"/><path id="path52" d="m 233.42177,56.309677 1.7287,-0.56171 1.7288,-0.5617 1.7287,-0.5617 1.7288,-0.5617 1.7287,-0.56171 1.7288,-0.5617 1.7287,-0.5617 1.7287,-0.56171" style="fill:none;stroke:#cff800;stroke-width:72.70833778pt;stroke-linecap:round;stroke-opacity:1"/><path id="path54" d="m 247.25167,51.816047 1.7558,-0.47045 1.7558,-0.47046 1.7558,-0.47046 1.7557,-0.47046 1.7558,-0.47045 1.7558,-0.47046 1.7557,-0.47046 1.7558,-0.47046" style="fill:none;stroke:#c4fb00;stroke-width:69.80000496pt;stroke-linecap:round;stroke-opacity:1"/><path id="path56" d="m 261.29787,48.052387 1.778,-0.37792 1.778,-0.37792 1.778,-0.37792 1.778,-0.37793 1.778,-0.37792 1.7779,-0.37792 1.778,-0.37793 1.778,-0.37792" style="fill:none;stroke:#94f400;stroke-width:66.89167213pt;stroke-linecap:round;stroke-opacity:1"/><path id="path58" d="m 275.52177,45.029007 1.7953,-0.28435 1.7954,-0.28435 1.7953,-0.28435 1.7953,-0.28436 1.7954,-0.28435 1.7953,-0.28435 1.7953,-0.28435 1.7953,-0.28436" style="fill:none;stroke:#65ee00;stroke-width:63.98333359pt;stroke-linecap:round;stroke-opacity:1"/><path id="path60" d="m 289.88437,42.754187 1.8078,-0.19 1.8077,-0.19 1.8078,-0.19 1.8077,-0.19001 1.8078,-0.19 1.8078,-0.19 1.8077,-0.19 1.8078,-0.19" style="fill:none;stroke:#3eec00;stroke-width:61.07500076pt;stroke-linecap:round;stroke-opacity:1"/><path id="path62" d="m 304.34647,41.234177 1.8152,-0.0951 1.8152,-0.0951 1.8152,-0.0951 1.8152,-0.0951 1.8152,-0.0951 1.8153,-0.0951 1.8152,-0.0951 1.8152,-0.0951" style="fill:none;stroke:#1fef00;stroke-width:58.16666794pt;stroke-linecap:round;stroke-opacity:1"/><path id="path64" d="m 318.86817,40.473117 h 1.8177 1.8177 1.8177 1.8177 1.8177 1.8177 1.8177 1.8178" style="fill:none;stroke:#00f200;stroke-width:55.25833511pt;stroke-linecap:round;stroke-opacity:1"/><path id="path66" d="m 333.40987,40.473117 1.8152,0.0951 1.8152,0.0951 1.8152,0.0951 1.8152,0.0951 1.8152,0.0951 1.8153,0.0951 1.8152,0.0951 1.8152,0.0951" style="fill:none;stroke:#00f617;stroke-width:52.34999657pt;stroke-linecap:round;stroke-opacity:1"/><path id="path68" d="m 347.93157,41.234177 1.8077,0.19 1.8078,0.19 1.8077,0.19 1.8078,0.19 1.8077,0.19001 1.8078,0.19 1.8077,0.19 1.8078,0.19" style="fill:none;stroke:#00fa30;stroke-width:49.44166374pt;stroke-linecap:round;stroke-opacity:1"/><path id="path70" d="m 362.39357,42.754187 1.7953,0.28436 1.7954,0.28435 1.7953,0.28435 1.7953,0.28435 1.7953,0.28436 1.7954,0.28435 1.7953,0.28435 1.7953,0.28435" style="fill:none;stroke:#00f143;stroke-width:46.53333378pt;stroke-linecap:round;stroke-opacity:1"/><path id="path72" d="m 376.75617,45.029007 1.778,0.37792 1.778,0.37793 1.778,0.37792 1.778,0.37792 1.778,0.37793 1.778,0.37792 1.7779,0.37792 1.778,0.37792" style="fill:none;stroke:#00d951;stroke-width:43.62500095pt;stroke-linecap:round;stroke-opacity:1"/><path id="path74" d="m 390.98007,48.052387 1.7558,0.47046 1.7558,0.47046 1.7557,0.47046 1.7558,0.47045 1.7558,0.47046 1.7558,0.47046 1.7557,0.47046 1.7558,0.47045" style="fill:none;stroke:#00c260;stroke-width:40.71666813pt;stroke-linecap:round;stroke-opacity:1"/><path id="path76" d="m 405.02627,51.816047 1.7287,0.56171 1.7288,0.5617 1.7287,0.5617 1.7288,0.56171 1.7287,0.5617 1.7288,0.5617 1.7287,0.5617 1.7287,0.56171" style="fill:none;stroke:#00c267;stroke-width:37.8083353pt;stroke-linecap:round;stroke-opacity:1"/><path id="path78" d="m 418.85617,56.309677 1.697,0.65141 1.697,0.6514 1.697,0.65141 1.697,0.65141 1.6969,0.65141 1.697,0.65141 1.697,0.65141 1.697,0.6514" style="fill:none;stroke:#00c26f;stroke-width:34.90000248pt;stroke-linecap:round;stroke-opacity:1"/><path id="path80" d="m 432.43207,61.520937 1.6605,0.73933 1.6606,0.73933 1.6605,0.73933 1.6606,0.73933 1.6606,0.73933 1.6605,0.73933 1.6606,0.73932 1.6605,0.73933" style="fill:none;stroke:#00c276;stroke-width:31.99166679pt;stroke-linecap:round;stroke-opacity:1"/><path id="path82" d="m 445.71647,67.435567 1.6196,0.82522 1.6196,0.82523 1.6196,0.82522 1.6196,0.82522 1.6196,0.82522 1.6196,0.82523 1.6196,0.82522 1.6196,0.82522" style="fill:none;stroke:#00c27e;stroke-width:29.08333397pt;stroke-linecap:round;stroke-opacity:1"/><path id="path84" d="m 458.67327,74.037347 1.5741,0.90886 1.5742,0.90885 1.5742,0.90885 1.5742,0.90886 1.5742,0.90885 1.5741,0.90886 1.5742,0.90885 1.5742,0.90885" style="fill:none;stroke:#00c286;stroke-width:26.17499828pt;stroke-linecap:round;stroke-opacity:1"/><path id="path86" d="m 471.26667,81.308177 1.5245,0.99 1.5244,0.98999 1.5245,0.99 1.5244,0.98999 1.5245,0.99 1.5245,0.98999 1.5244,0.99 1.5245,0.98999" style="fill:none;stroke:#00c28f;stroke-width:23.26666689pt;stroke-linecap:round;stroke-opacity:1"/><path id="path88" d="m 483.46237,89.228137 1.4705,1.06843 1.4706,1.06842 1.4705,1.06842 1.4706,1.06842 1.4706,1.06842 1.4705,1.06843 1.4706,1.06842 1.4705,1.06842" style="fill:none;stroke:#00c298;stroke-width:20.35833406pt;stroke-linecap:round;stroke-opacity:1"/><path id="path90" d="m 495.22677,97.775517 1.4127,1.14392 1.4126,1.143923 1.4126,1.14392 1.4126,1.14392 1.4127,1.14393 1.4126,1.14392 1.4126,1.14392 1.4126,1.14392" style="fill:none;stroke:#00c1a1;stroke-width:17.45000124pt;stroke-linecap:round;stroke-opacity:1"/><path id="path92" d="m 506.52777,106.92689 1.3509,1.21628 1.3508,1.21629 1.3508,1.21628 1.3508,1.21629 1.3508,1.21628 1.3509,1.21628 1.3508,1.21629 1.3508,1.21628" style="fill:none;stroke:#00c1ac;stroke-width:14.54166698pt;stroke-linecap:round;stroke-opacity:1"/><path id="path94" d="m 517.33437,116.65716 1.2853,1.28532 1.2853,1.28531 1.2853,1.28531 1.2854,1.28532 1.2853,1.28531 1.2853,1.28532 1.2853,1.28531 1.2853,1.28531" style="fill:none;stroke:#00c1b6;stroke-width:11.63333344pt;stroke-linecap:round;stroke-opacity:1"/><path id="path96" d="m 527.61687,126.93967 1.2163,1.35082 1.2163,1.35082 1.2163,1.35083 1.2162,1.35082 1.2163,1.35082 1.2163,1.35082 1.2163,1.35082 1.2163,1.35082" style="fill:none;stroke:#00c0bd;stroke-width:8.72500062pt;stroke-linecap:round;stroke-opacity:1"/><path id="path98" d="m 537.34717,137.74624 1.1439,1.41262 1.1439,1.41263 1.1439,1.41262 1.144,1.41263 1.1439,1.41262 1.1439,1.41263 1.1439,1.41262 1.1439,1.41263" style="fill:none;stroke:#00c0c6;stroke-width:5.81666672pt;stroke-linecap:round;stroke-opacity:1"/><path id="path100" d="m 546.49847,149.04724 1.0685,1.47055 1.0684,1.47056 1.0684,1.47056 1.0684,1.47055 1.0685,1.47056 1.0684,1.47056 1.0684,1.47055 1.0684,1.47056" style="fill:none;stroke:#00c0cf;stroke-width:72.70833778pt;stroke-linecap:round;stroke-opacity:1"/><path id="path102" d="m 555.04587,160.81169 0.99,1.52446 0.99,1.52446 0.99,1.52446 0.99,1.52445 0.99,1.52446 0.99,1.52446 0.99,1.52446 0.99,1.52446" style="fill:none;stroke:#00c0db;stroke-width:69.80000496pt;stroke-linecap:round;stroke-opacity:1"/><path id="path104" d="m 562.96587,173.00736 0.9088,1.57418 0.9089,1.57418 0.9088,1.57418 0.9089,1.57419 0.9089,1.57418 0.9088,1.57418 0.9089,1.57418 0.9088,1.57418" style="fill:none;stroke:#00c0e7;stroke-width:66.89167213pt;stroke-linecap:round;stroke-opacity:1"/><path id="path106" d="m 570.23667,185.60081 0.8252,1.61959 0.8253,1.61959 0.8252,1.61959 0.8252,1.61959 0.8252,1.61959 0.8253,1.61959 0.8252,1.61959 0.8252,1.61959" style="fill:none;stroke:#00bdeb;stroke-width:63.98333359pt;stroke-linecap:round;stroke-opacity:1"/><path id="path108" d="m 576.83847,198.55753 0.7393,1.66056 0.7394,1.66056 0.7393,1.66056 0.7393,1.66056 0.7393,1.66056 0.7394,1.66056 0.7393,1.66056 0.7393,1.66056" style="fill:none;stroke:#00baef;stroke-width:61.07500076pt;stroke-linecap:round;stroke-opacity:1"/><path id="path110" d="m 582.75307,211.84201 0.6514,1.69697 0.6514,1.69698 0.6515,1.69698 0.6514,1.69697 0.6514,1.69698 0.6514,1.69698 0.6514,1.69697 0.6514,1.69698" style="fill:none;stroke:#00b8f3;stroke-width:58.16666794pt;stroke-linecap:round;stroke-opacity:1"/><path id="path112" d="m 587.96437,225.41782 0.5617,1.72874 0.5617,1.72875 0.5617,1.72874 0.5617,1.72874 0.5617,1.72875 0.5617,1.72874 0.5617,1.72874 0.5617,1.72875" style="fill:none;stroke:#00b6f9;stroke-width:55.25833511pt;stroke-linecap:round;stroke-opacity:1"/><path id="path114" d="m 592.45797,239.24777 0.4705,1.75577 0.4704,1.75577 0.4705,1.75577 0.4704,1.75577 0.4705,1.75577 0.4705,1.75578 0.4704,1.75577 0.4705,1.75577" style="fill:none;stroke:#00b5ff;stroke-width:52.34999657pt;stroke-linecap:round;stroke-opacity:1"/><path id="path116" d="m 596.22167,253.29394 0.3779,1.77799 0.3779,1.77798 0.3779,1.77799 0.378,1.77799 0.3779,1.77798 0.3779,1.77799 0.3779,1.77799 0.378,1.77799" style="fill:none;stroke:#00b3ff;stroke-width:49.44166374pt;stroke-linecap:round;stroke-opacity:1"/><path id="path118" d="m 599.24507,267.51784 0.2843,1.79532 0.2844,1.79533 0.2843,1.79533 0.2844,1.79533 0.2843,1.79533 0.2844,1.79533 0.2843,1.79533 0.2844,1.79533" style="fill:none;stroke:#00b1ff;stroke-width:46.53333378pt;stroke-linecap:round;stroke-opacity:1"/><path id="path120" d="m 601.51987,281.88047 0.19,1.80775 0.19,1.80775 0.19,1.80775 0.19,1.80775 0.19,1.80775 0.19,1.80775 0.19,1.80775 0.19,1.80776" style="fill:none;stroke:#00afff;stroke-width:43.62500095pt;stroke-linecap:round;stroke-opacity:1"/><path id="path122" d="m 603.03987,296.34248 0.095,1.81521 0.095,1.81522 0.095,1.81522 0.095,1.81521 0.095,1.81522 0.095,1.81522 0.095,1.81522 0.095,1.81521" style="fill:none;stroke:#00adff;stroke-width:40.71666813pt;stroke-linecap:round;stroke-opacity:1"/><path id="path124" d="m 603.80087,310.86421 v 1.81771 1.81771 1.81771 1.81771 1.8177 1.81771 1.81771 1.81771" style="fill:none;stroke:#00abff;stroke-width:37.8083353pt;stroke-linecap:round;stroke-opacity:1"/><path id="path126" d="m 603.80087,325.40588 -0.095,1.81522 -0.095,1.81521 -0.095,1.81522 -0.095,1.81522 -0.095,1.81522 -0.095,1.81521 -0.095,1.81522 -0.095,1.81522" style="fill:none;stroke:#00a7ff;stroke-width:34.90000248pt;stroke-linecap:round;stroke-opacity:1"/><path id="path128" d="m 603.03987,339.92762 -0.19,1.80775 -0.19,1.80775 -0.19,1.80775 -0.19,1.80775 -0.19,1.80775 -0.19,1.80775 -0.19,1.80775 -0.19,1.80775" style="fill:none;stroke:#00a3ff;stroke-width:31.99166679pt;stroke-linecap:round;stroke-opacity:1"/><path id="path130" d="m 601.51987,354.38962 -0.2844,1.79533 -0.2843,1.79533 -0.2844,1.79533 -0.2843,1.79533 -0.2844,1.79533 -0.2843,1.79533 -0.2844,1.79533 -0.2843,1.79533" style="fill:none;stroke:#0093ff;stroke-width:29.08333397pt;stroke-linecap:round;stroke-opacity:1"/><path id="path132" d="m 599.24507,368.75226 -0.378,1.77799 -0.3779,1.77798 -0.3779,1.77799 -0.3779,1.77799 -0.378,1.77798 -0.3779,1.77799 -0.3779,1.77799 -0.3779,1.77798" style="fill:none;stroke:#0078ff;stroke-width:26.17499828pt;stroke-linecap:round;stroke-opacity:1"/><path id="path134" d="m 596.22167,382.97615 -0.4705,1.75578 -0.4704,1.75577 -0.4705,1.75577 -0.4705,1.75577 -0.4704,1.75577 -0.4705,1.75577 -0.4704,1.75577 -0.4705,1.75578" style="fill:none;stroke:#005dff;stroke-width:23.26666689pt;stroke-linecap:round;stroke-opacity:1"/><path id="path136" d="m 592.45797,397.02233 -0.5617,1.72874 -0.5617,1.72874 -0.5617,1.72875 -0.5617,1.72874 -0.5617,1.72874 -0.5617,1.72875 -0.5617,1.72874 -0.5617,1.72874" style="fill:none;stroke:#1a4bff;stroke-width:20.35833406pt;stroke-linecap:round;stroke-opacity:1"/><path id="path138" d="m 587.96437,410.85227 -0.6514,1.69698 -0.6514,1.69698 -0.6514,1.69697 -0.6514,1.69698 -0.6514,1.69698 -0.6515,1.69697 -0.6514,1.69698 -0.6514,1.69698" style="fill:none;stroke:#3439ff;stroke-width:17.45000124pt;stroke-linecap:round;stroke-opacity:1"/><path id="path140" d="m 582.75307,424.42809 -0.7393,1.66056 -0.7393,1.66056 -0.7394,1.66056 -0.7393,1.66056 -0.7393,1.66055 -0.7393,1.66056 -0.7394,1.66056 -0.7393,1.66056" style="fill:none;stroke:#4e27fe;stroke-width:14.54166698pt;stroke-linecap:round;stroke-opacity:1"/><path id="path142" d="m 576.83847,437.71256 -0.8252,1.61959 -0.8252,1.61959 -0.8253,1.61959 -0.8252,1.61959 -0.8252,1.61959 -0.8252,1.61959 -0.8253,1.61959 -0.8252,1.61959" style="fill:none;stroke:#6713fe;stroke-width:11.63333344pt;stroke-linecap:round;stroke-opacity:1"/><path id="path144" d="m 570.23667,450.66928 -0.9088,1.57418 -0.9089,1.57418 -0.9088,1.57419 -0.9089,1.57418 -0.9089,1.57418 -0.9088,1.57418 -0.9089,1.57418 -0.9088,1.57418" style="fill:none;stroke:#8000fe;stroke-width:8.72500062pt;stroke-linecap:round;stroke-opacity:1"/><path id="path146" d="m 562.96587,463.26273 -0.99,1.52446 -0.99,1.52446 -0.99,1.52446 -0.99,1.52446 -0.99,1.52446 -0.99,1.52446 -0.99,1.52445 -0.99,1.52446" style="fill:none;stroke:#8c00f8;stroke-width:5.81666672pt;stroke-linecap:round;stroke-opacity:1"/><path id="path148" d="m 555.04587,475.4584 -1.0684,1.47056 -1.0684,1.47056 -1.0684,1.47055 -1.0685,1.47056 -1.0684,1.47056 -1.0684,1.47055 -1.0684,1.47056 -1.0685,1.47056" style="fill:none;stroke:#9900f2;stroke-width:72.70833778pt;stroke-linecap:round;stroke-opacity:1"/><path id="path150" d="m 546.49847,487.22286 -1.1439,1.41262 -1.1439,1.41263 -1.1439,1.41262 -1.1439,1.41263 -1.144,1.41262 -1.1439,1.41263 -1.1439,1.41262 -1.1439,1.41263" style="fill:none;stroke:#b001f2;stroke-width:69.80000496pt;stroke-linecap:round;stroke-opacity:1"/><path id="path152" d="m 537.34717,498.52386 -1.2163,1.35082 -1.2163,1.35082 -1.2163,1.35082 -1.2163,1.35082 -1.2162,1.35082 -1.2163,1.35082 -1.2163,1.35082 -1.2163,1.35082" style="fill:none;stroke:#d005f8;stroke-width:66.89167213pt;stroke-linecap:round;stroke-opacity:1"/><path id="path154" d="m 527.61687,509.33042 -1.2853,1.28531 -1.2853,1.28532 -1.2853,1.28531 -1.2853,1.28532 -1.2854,1.28531 -1.2853,1.28531 -1.2853,1.28532 -1.2853,1.28531" style="fill:none;stroke:#f009ff;stroke-width:63.98333359pt;stroke-linecap:round;stroke-opacity:1"/><path id="path156" d="m 517.33437,519.61293 -1.3508,1.21628 -1.3508,1.21629 -1.3509,1.21628 -1.3508,1.21629 -1.3508,1.21628 -1.3508,1.21629 -1.3508,1.21628 -1.3509,1.21628" style="fill:none;stroke:#f505ff;stroke-width:61.07500076pt;stroke-linecap:round;stroke-opacity:1"/><path id="path158" d="m 506.52777,529.3432 -1.4126,1.14393 -1.4126,1.14392 -1.4126,1.14392 -1.4127,1.14392 -1.4126,1.14392 -1.4126,1.14392 -1.4126,1.14392 -1.4127,1.14392" style="fill:none;stroke:#fb01ff;stroke-width:58.16666794pt;stroke-linecap:round;stroke-opacity:1"/><path id="path160" d="m 495.22677,538.49457 -1.4705,1.06842 -1.4706,1.06843 -1.4705,1.06842 -1.4706,1.06842 -1.4706,1.06842 -1.4705,1.06843 -1.4706,1.06842 -1.4705,1.06842" style="fill:none;stroke:#ff00fd;stroke-width:55.25833511pt;stroke-linecap:round;stroke-opacity:1"/><path id="path162" d="m 483.46237,547.04195 -1.5245,0.98999 -1.5244,0.99 -1.5245,0.98999 -1.5245,0.99 -1.5244,0.98999 -1.5245,0.99 -1.5244,0.98999 -1.5245,0.99" style="fill:none;stroke:#ff00fb;stroke-width:52.34999657pt;stroke-linecap:round;stroke-opacity:1"/><path id="path164" d="m 471.26667,554.96191 -1.5742,0.90885 -1.5742,0.90886 -1.5741,0.90885 -1.5742,0.90886 -1.5742,0.90885 -1.5742,0.90885 -1.5742,0.90886 -1.5741,0.90885" style="fill:none;stroke:#ff00f9;stroke-width:49.44166374pt;stroke-linecap:round;stroke-opacity:1"/><path id="path166" d="m 458.67327,562.23274 -1.6196,0.82522 -1.6196,0.82523 -1.6196,0.82522 -1.6196,0.82522 -1.6196,0.82522 -1.6196,0.82523 -1.6196,0.82522 -1.6196,0.82522" style="fill:none;stroke:#ff00ec;stroke-width:46.53333378pt;stroke-linecap:round;stroke-opacity:1"/><path id="path168" d="m 445.71647,568.83452 -1.6605,0.73933 -1.6606,0.73933 -1.6605,0.73933 -1.6606,0.73933 -1.6606,0.73932 -1.6605,0.73933 -1.6606,0.73933 -1.6605,0.73933" style="fill:none;stroke:#ff00df;stroke-width:43.62500095pt;stroke-linecap:round;stroke-opacity:1"/><path id="path170" d="m 432.43207,574.74915 -1.697,0.65141 -1.697,0.65141 -1.697,0.6514 -1.6969,0.65141 -1.697,0.65141 -1.697,0.65141 -1.697,0.65141 -1.697,0.65141" style="fill:none;stroke:#ff00d1;stroke-width:40.71666813pt;stroke-linecap:round;stroke-opacity:1"/><path id="path172" d="m 418.85617,579.96042 -1.7287,0.5617 -1.7287,0.5617 -1.7288,0.5617 -1.7287,0.56171 -1.7288,0.5617 -1.7287,0.5617 -1.7288,0.56171 -1.7287,0.5617" style="fill:none;stroke:#ff00c1;stroke-width:37.8083353pt;stroke-linecap:round;stroke-opacity:1"/><path id="path174" d="m 405.02627,584.45404 -1.7558,0.47046 -1.7557,0.47045 -1.7558,0.47046 -1.7558,0.47046 -1.7558,0.47046 -1.7557,0.47045 -1.7558,0.47046 -1.7558,0.47046" style="fill:none;stroke:#ff00b2;stroke-width:34.90000248pt;stroke-linecap:round;stroke-opacity:1"/><path id="path176" d="m 390.98007,588.2177 -1.778,0.37792 -1.7779,0.37792 -1.778,0.37793 -1.778,0.37792 -1.778,0.37792 -1.778,0.37793 -1.778,0.37792 -1.778,0.37792" style="fill:none;stroke:#ff00a7;stroke-width:31.99166679pt;stroke-linecap:round;stroke-opacity:1"/><path id="path178" d="m 376.75617,591.24108 -1.7953,0.28435 -1.7953,0.28436 -1.7954,0.28435 -1.7953,0.28435 -1.7953,0.28435 -1.7953,0.28435 -1.7954,0.28436 -1.7953,0.28435" style="fill:none;stroke:#ff009d;stroke-width:29.08333397pt;stroke-linecap:round;stroke-opacity:1"/><path id="path180" d="m 362.39357,593.5159 -1.8078,0.19 -1.8077,0.19 -1.8078,0.19001 -1.8077,0.19 -1.8078,0.19 -1.8077,0.19 -1.8078,0.19001 -1.8077,0.19" style="fill:none;stroke:#ff0092;stroke-width:26.17499828pt;stroke-linecap:round;stroke-opacity:1"/><path id="path182" d="m 347.93157,595.03592 -1.8152,0.0951 -1.8152,0.0951 -1.8153,0.0951 -1.8152,0.0951 -1.8152,0.0951 -1.8152,0.0951 -1.8152,0.0951 -1.8152,0.0951" style="fill:none;stroke:#f08;stroke-width:23.26666689pt;stroke-linecap:round;stroke-opacity:1"/><path id="path184" d="m 333.40987,595.79697 h -1.8178 -1.8177 -1.8177 -1.8177 -1.8177 -1.8177 -1.8177 -1.8177" style="fill:none;stroke:#ff007e;stroke-width:20.35833406pt;stroke-linecap:round;stroke-opacity:1"/><path id="path186" d="m 318.86817,595.79697 -1.8152,-0.0951 -1.8152,-0.0951 -1.8153,-0.0951 -1.8152,-0.0951 -1.8152,-0.0951 -1.8152,-0.0951 -1.8152,-0.0951 -1.8152,-0.0951" style="fill:none;stroke:#ff0074;stroke-width:17.45000124pt;stroke-linecap:round;stroke-opacity:1"/><path id="path188" d="m 304.34647,595.03592 -1.8078,-0.19 -1.8077,-0.19001 -1.8078,-0.19 -1.8078,-0.19 -1.8077,-0.19 -1.8078,-0.19001 -1.8077,-0.19 -1.8078,-0.19" style="fill:none;stroke:#ff006a;stroke-width:14.54166698pt;stroke-linecap:round;stroke-opacity:1"/><path id="path190" d="m 289.88437,593.5159 -1.7953,-0.28435 -1.7953,-0.28436 -1.7953,-0.28435 -1.7954,-0.28435 -1.7953,-0.28435 -1.7953,-0.28435 -1.7954,-0.28436 -1.7953,-0.28435" style="fill:none;stroke:#ff005f;stroke-width:11.63333344pt;stroke-linecap:round;stroke-opacity:1"/><path id="path192" d="m 275.52177,591.24108 -1.778,-0.37792 -1.778,-0.37792 -1.7779,-0.37793 -1.778,-0.37792 -1.778,-0.37792 -1.778,-0.37793 -1.778,-0.37792 -1.778,-0.37792" style="fill:none;stroke:#ff0053;stroke-width:8.72500062pt;stroke-linecap:round;stroke-opacity:1"/><path id="path194" d="m 261.29787,588.2177 -1.7558,-0.47046 -1.7557,-0.47046 -1.7558,-0.47045 -1.7558,-0.47046 -1.7557,-0.47046 -1.7558,-0.47046 -1.7558,-0.47045 -1.7558,-0.47046" style="fill:none;stroke:#ff0048;stroke-width:5.81666672pt;stroke-linecap:round;stroke-opacity:1"/><path id="path196" d="m 247.25167,584.45404 -1.7287,-0.5617 -1.7287,-0.56171 -1.7288,-0.5617 -1.7287,-0.5617 -1.7288,-0.56171 -1.7287,-0.5617 -1.7288,-0.5617 -1.7287,-0.5617" style="fill:none;stroke:#ff002b;stroke-width:72.70833778pt;stroke-linecap:round;stroke-opacity:1"/><path id="path198" d="m 233.42177,579.96042 -1.697,-0.65141 -1.697,-0.65141 -1.6969,-0.65141 -1.697,-0.65141 -1.697,-0.65141 -1.697,-0.6514 -1.6969,-0.65141 -1.697,-0.65141" style="fill:none;stroke:#ff000e;stroke-width:69.80000496pt;stroke-linecap:round;stroke-opacity:1"/><path id="path200" d="m 219.84597,574.74915 -1.6606,-0.73933 -1.6605,-0.73933 -1.6606,-0.73933 -1.6606,-0.73932 -1.6605,-0.73933 -1.6606,-0.73933 -1.6605,-0.73933 -1.6606,-0.73933" style="fill:none;stroke:#ff0900;stroke-width:66.89167213pt;stroke-linecap:round;stroke-opacity:1"/><path id="path202" d="m 206.56147,568.83452 -1.6196,-0.82522 -1.6196,-0.82522 -1.6196,-0.82523 -1.6196,-0.82522 -1.6195,-0.82522 -1.6196,-0.82522 -1.6196,-0.82523 -1.6196,-0.82522" style="fill:none;stroke:#ff1c00;stroke-width:63.98333359pt;stroke-linecap:round;stroke-opacity:1"/><path id="path204" d="m 193.60477,562.23274 -1.5742,-0.90885 -1.5742,-0.90886 -1.5742,-0.90885 -1.5741,-0.90885 -1.5742,-0.90886 -1.5742,-0.90885 -1.5742,-0.90886 -1.5742,-0.90885" style="fill:none;stroke:#ff3000;stroke-width:61.07500076pt;stroke-linecap:round;stroke-opacity:1"/><path id="path206" d="m 181.01127,554.96191 -1.5244,-0.99 -1.5245,-0.98999 -1.5244,-0.99 -1.5245,-0.98999 -1.52446,-0.99 -1.52446,-0.98999 -1.52445,-0.99 -1.52446,-0.98999" style="fill:none;stroke:#fe4500;stroke-width:58.16666794pt;stroke-linecap:round;stroke-opacity:1"/><path id="path208" d="m 168.81564,547.04195 -1.47056,-1.06842 -1.47056,-1.06842 -1.47055,-1.06843 -1.47056,-1.06842 -1.47056,-1.06842 -1.47055,-1.06842 -1.47056,-1.06843 -1.47056,-1.06842" style="fill:none;stroke:#fd5b00;stroke-width:55.25833511pt;stroke-linecap:round;stroke-opacity:1"/><path id="path210" d="m 157.05118,538.49457 -1.41262,-1.14392 -1.41263,-1.14392 -1.41262,-1.14392 -1.41263,-1.14392 -1.41262,-1.14392 -1.41263,-1.14392 -1.41262,-1.14392 -1.41263,-1.14393" style="fill:none;stroke:#fd7200;stroke-width:52.34999657pt;stroke-linecap:round;stroke-opacity:1"/><path id="path212" d="m 145.75018,529.3432 -1.35082,-1.21628 -1.35082,-1.21628 -1.35082,-1.21629 -1.35082,-1.21628 -1.35082,-1.21629 -1.35082,-1.21628 -1.35082,-1.21629 -1.35082,-1.21628" style="fill:none;stroke:#fe8a00;stroke-width:49.44166374pt;stroke-linecap:round;stroke-opacity:1"/><path id="path214" d="m 134.94362,519.61293 -1.28531,-1.28531 -1.28532,-1.28532 -1.28531,-1.28531 -1.28532,-1.28531 -1.28531,-1.28532 -1.28531,-1.28531 -1.28532,-1.28532 -1.28531,-1.28531" style="fill:none;stroke:#ffa300;stroke-width:46.53333378pt;stroke-linecap:round;stroke-opacity:1"/><path id="path216" d="m 124.66111,509.33042 -1.21629,-1.35082 -1.21628,-1.35082 -1.21628,-1.35082 -1.21629,-1.35082 -1.21628,-1.35082 -1.21629,-1.35082 -1.21628,-1.35082 -1.21629,-1.35082" style="fill:none;stroke:#ffa800;stroke-width:43.62500095pt;stroke-linecap:round;stroke-opacity:1"/><path id="path218" d="m 114.93083,498.52386 -1.14392,-1.41263 -1.14392,-1.41262 -1.14392,-1.41263 -1.14392,-1.41262 -1.14392,-1.41263 -1.14392,-1.41262 -1.14392,-1.41263 -1.14392,-1.41262" style="fill:none;stroke:#ffad00;stroke-width:40.71666813pt;stroke-linecap:round;stroke-opacity:1"/><path id="path220" d="m 105.77947,487.22286 -1.06842,-1.47056 -1.06843,-1.47056 -1.06842,-1.47055 -1.06842,-1.47056 -1.06842,-1.47056 -1.068428,-1.47055 -1.06842,-1.47056 -1.06842,-1.47056" style="fill:none;stroke:#ffb100;stroke-width:37.8083353pt;stroke-linecap:round;stroke-opacity:1"/><path id="path222" d="m 97.232092,475.4584 -0.98999,-1.52446 -0.99,-1.52445 -0.98999,-1.52446 -0.99,-1.52446 -0.98999,-1.52446 -0.99,-1.52446 -0.98999,-1.52446 -0.99,-1.52446" style="fill:none;stroke:#ffb500;stroke-width:34.90000248pt;stroke-linecap:round;stroke-opacity:1"/><path id="path224" d="m 89.312132,463.26273 -0.90885,-1.57418 -0.90886,-1.57418 -0.90885,-1.57418 -0.90886,-1.57418 -0.90885,-1.57418 -0.90885,-1.57419 -0.90886,-1.57418 -0.90885,-1.57418" style="fill:none;stroke:#ffb900;stroke-width:31.99166679pt;stroke-linecap:round;stroke-opacity:1"/><path id="path226" d="m 82.041302,450.66928 -0.82522,-1.61959 -0.82523,-1.61959 -0.82522,-1.61959 -0.82522,-1.61959 -0.82522,-1.61959 -0.82523,-1.61959 -0.82522,-1.61959 -0.82522,-1.61959" style="fill:none;stroke:#fb0;stroke-width:29.08333397pt;stroke-linecap:round;stroke-opacity:1"/><path id="path228" d="m 75.439522,437.71256 -0.73933,-1.66056 -0.73933,-1.66056 -0.73933,-1.66056 -0.73933,-1.66055 -0.73932,-1.66056 -0.73933,-1.66056 -0.73933,-1.66056 -0.73933,-1.66056" style="fill:none;stroke:#ffbe00;stroke-width:26.17499828pt;stroke-linecap:round;stroke-opacity:1"/><path id="path230" d="m 69.524892,424.42809 -0.65141,-1.69698 -0.65141,-1.69698 -0.65141,-1.69697 -0.6514,-1.69698 -0.65141,-1.69698 -0.65141,-1.69697 -0.65141,-1.69698 -0.65141,-1.69698" style="fill:none;stroke:#ffc700;stroke-width:23.26666689pt;stroke-linecap:round;stroke-opacity:1"/><path id="path232" d="m 64.313622,410.85227 -0.5617,-1.72874 -0.5617,-1.72874 -0.56171,-1.72875 -0.5617,-1.72874 -0.5617,-1.72874 -0.5617,-1.72875 -0.56171,-1.72874 -0.5617,-1.72874" style="fill:none;stroke:#ffd500;stroke-width:20.35833406pt;stroke-linecap:round;stroke-opacity:1"/><path id="path234" d="m 59.820002,397.02233 -0.47046,-1.75578 -0.47045,-1.75577 -0.47046,-1.75577 -0.47046,-1.75577 -0.47046,-1.75577 -0.47045,-1.75577 -0.47046,-1.75577 -0.47046,-1.75578" style="fill:none;stroke:#ffe400;stroke-width:17.45000124pt;stroke-linecap:round;stroke-opacity:1"/><path id="path236" d="m 56.056342,382.97615 -0.37792,-1.77798 -0.37793,-1.77799 -0.37792,-1.77799 -0.37792,-1.77798 -0.37792,-1.77799 -0.37793,-1.77799 -0.37792,-1.77798 -0.37792,-1.77799" style="fill:none;stroke:#ffe500;stroke-width:14.54166698pt;stroke-linecap:round;stroke-opacity:1"/><path id="path238" d="m 53.032962,368.75226 -0.28435,-1.79533 -0.28436,-1.79533 -0.28435,-1.79533 -0.28435,-1.79533 -0.28435,-1.79533 -0.28436,-1.79533 -0.28435,-1.79533 -0.28435,-1.79533" style="fill:none;stroke:#ffe700;stroke-width:11.63333344pt;stroke-linecap:round;stroke-opacity:1"/><path id="path240" d="m 50.758142,354.38962 -0.19,-1.80775 -0.19,-1.80775 -0.19001,-1.80775 -0.19,-1.80775 -0.19,-1.80775 -0.19,-1.80775 -0.19001,-1.80775 -0.19,-1.80775" style="fill:none;stroke:#fde900;stroke-width:8.72500062pt;stroke-linecap:round;stroke-opacity:1"/><path id="path242" d="m 49.238122,339.92762 -0.0951,-1.81522 -0.0951,-1.81522 -0.0951,-1.81521 -0.0951,-1.81522 -0.0951,-1.81522 -0.0951,-1.81522 -0.0951,-1.81521 -0.09535,-1.81522" style="fill:none;stroke:#f9eb00;stroke-width:5.81666672pt;stroke-linecap:round;stroke-opacity:1"/></svg>