<svg xmlns="http://www.w3.org/2000/svg" xmlns:svg="http://www.w3.org/2000/svg" id="svg5587" width="270.933" height="205.532" version="1.1" viewBox="0 0 254 192.686"><metadata id="metadata5592"/><path style="fill:#76c61c;fill-opacity:1;stroke:#538d38;stroke-width:2;stroke-linecap:round;stroke-opacity:1" id="path21-2-3-94" d="m 132.99991,55.68606 120,0 0,39.999999 -120,0 0,-16 0,-2 -12,0 0,6 -3.99999,0 0,-15.999999 3.99999,0 0,5.999999 12,0 0,-2 z"/><text style="font-size:20px;font-family:Sans;text-anchor:start;fill:#000" id="text23-0-6-52" x="164" y="54.686"><tspan id="tspan25-7-2-4" x="184" y="80.686">C</tspan></text><path id="path3194-3-8-43" d="m 18.999894,71.686059 0,-7.999999 a 8,8 0 0 1 8,-8 l 8,0 0,4 20,0 0,-4 59.999996,0 7.99999,0 a 8,8 0 0 1 8.00001,8 l 0,7.999999 -8.00001,0 0,-5.999999 -7.99999,0 0,19.999999 7.99999,0 0,-6 8.00001,0 0,34.000001 -8.00001,0 0,-6 -7.99999,0 0,20 7.99999,0 0,-6 8.00001,0 0,8 a 8,8 0 0 1 -8.00001,8 l -7.99999,0 -59.999996,0 -2,0 0,4 -16,0 0,-4 -2,0 -8,0 a 8,8 0 0 1 -8,-8 l 0,-8 0,-42.000001 0,-8 z" style="fill:#1d8989;fill-opacity:1;stroke:#005459;stroke-width:2;stroke-linecap:round;stroke-opacity:1"/><text id="text3196-7-6-6" x="18.896" y="54.403" style="font-size:20px;font-family:Sans;text-anchor:end;fill:#000"><tspan id="tspan3198-0-1-1" x="112.896" y="103.403">set key</tspan></text><text id="text3200-6-0-8" x="19.409" y="56.403" style="font-size:13.33333302px;font-family:Sans;text-anchor:end;fill:#000"><tspan id="tspan3202-5-0-1" x="113.409" y="78.903">key</tspan></text><text id="text3204-9-5-7" x="18.896" y="58.403" style="font-size:13.33333302px;font-family:Sans;text-anchor:end;fill:#000"><tspan id="tspan3206-0-8-6" x="112.896" y="122.903">mode</tspan></text><g id="g4225" transform="translate(-18.000091,-155.31398)"><path id="path21-2-3-9-1" d="m 150.99998,253.00004 120,0 0,40 -120,0 0,-16 0,-2 -12,0 0,6 -4,0 0,-16 4,0 0,6 12,0 0,-2 z" style="fill:#76c61c;fill-opacity:1;stroke:#538d38;stroke-width:2;stroke-linecap:round;stroke-opacity:1"/><text id="text23-0-6-5-0" x="162" y="252" style="font-size:20px;font-family:Sans;text-anchor:start;fill:#000"><tspan id="tspan25-7-2-2-6" x="182" y="278">Major</tspan></text></g><path style="fill:#76c61c;fill-opacity:1;stroke:#538d38;stroke-width:2;stroke-linecap:round;stroke-opacity:1" id="path3660" d="m 0.99998474,29.56205 0,-8 c 0,-4.18879 3.81120996,-8 7.99999996,-8 l 8.0000003,0 10,-12.0000001 10,12.0000001 18,0 88.000005,0 8,0 c 4.18879,0 8,3.81121 8,8 l 0,8 0,8 0,8 c 0,4.18879 -3.93628,9.01593 -8,8 l -8,0 -88.000005,0 -2,0 0,4 -16,0 0,-4 -2,0 -8,0 c -2.61799,0 -5.21987,1.07773 -7.07107,2.92893 -1.8512,1.85121 -2.92893,4.45308 -2.92893,7.07107 l 0,8 0,8 0,49.56196 c 0,2.61799 1.07773,5.21987 2.92893,7.07107 1.8512,1.8512 4.53124,2.29397 7.07107,2.92893 l 8,0 0,4 20,0 0,-4 16,0 0,12 0,12 0,8 c 0,4.18879 -3.93628,6.98407 -8,8 l -8,0 -18,0 -10,12 -10,-12 -8.0000003,0 c -4.18879,0 -7.99999996,-3.81121 -7.99999996,-8 l 0,-8 z"/><text style="font-size:20px;font-family:Sans;text-anchor:start;fill:#000" id="text3662" x="0" y=".562"><tspan id="tspan3664" x="8" y="43.562">custom mode</tspan></text></svg>