<svg xmlns="http://www.w3.org/2000/svg" xmlns:svg="http://www.w3.org/2000/svg" id="svg3659" width="285.221" height="223.5" version="1.1"><metadata id="metadata3665"/><g id="g3533"><g id="g3531" transform="scale(1.5)"><path id="path3521" d="m 0.5,8.5 v -4 a 4,4 90 0 1 4,-4 h 4 v 2 h 10 v -2 h 9 36.147461 4 a 4,4 90 0 1 4,4 v 4 h -4 v -3 h -4 v 10 h 4 v -3 h 4 v 4 a 4,4 90 0 1 -4,4 h -4 H 27.5 h -1 v 2 h -8 v -2 h -1 -4 a 5,5 90 0 0 -5,5 v 4 4 84 4 a 5,5 90 0 0 5,5 h 4 v 2 h 10 v -2 h 8 v 6 6 4 a 4,4 90 0 1 -4,4 h -4 -9 -1 v 2 h -8 v -2 h -1 -4 a 4,4 90 0 1 -4,-4 v -4 z" style="fill:#ff8b2d;fill-opacity:1;stroke:#520000;stroke-width:1;stroke-linecap:round;stroke-opacity:1"/><text id="text3525" style="font-size:10px;font-family:sans-serif;text-anchor:start;fill:#000"><tspan id="tspan3523" x="5.333" y="15.25">note value</tspan></text></g></g><g id="g3551" transform="translate(96.22119)"><g id="g3549" transform="scale(1.5)"><path id="path3535" d="m 8.5,8.5 v -4 a 4,4 90 0 1 4,-4 h 4 10 30 4 a 4,4 90 0 1 4,4 v 4 h -4 v -3 h -4 v 10 h 4 v -3 h 4 v 17 h -4 v -3 h -4 v 10 h 4 v -3 h 4 v 4 a 4,4 90 0 1 -4,4 h -4 -30 -10 -4 a 4,4 90 0 1 -4,-4 v -4 -21 -1 h -6 v 3 h -2 v -8 h 2 v 3 h 6 z" style="fill:#ffb2bc;fill-opacity:1;stroke:#601136;stroke-width:1;stroke-linecap:round;stroke-opacity:1"/><text id="text3539" style="font-size:14px;font-family:sans-serif;text-anchor:end;fill:#000"><tspan id="tspan3537" x="54.333" y="23.8">/</tspan></text></g></g><g id="g3561" transform="translate(181.72119)"><g id="g3559" transform="scale(1.5)"><path id="path3553" d="m 8.5,0.5 h 60 v 20 h -60 v -8 -1 h -6 v 3 h -2 v -8 h 2 v 3 h 6 v -1 z" style="fill:#ffb2bc;fill-opacity:1;stroke:#601136;stroke-width:1;stroke-linecap:round;stroke-opacity:1"/><text id="text3557" style="font-size:10px;font-family:sans-serif;text-anchor:start;fill:#000"><tspan id="tspan3555" x="13.333" y="13.833">1</tspan></text></g></g><g id="g3571" transform="translate(181.72119,31.5)"><g id="g3569" transform="scale(1.5)"><path id="path3563" d="m 8.5,0.5 h 60 v 20 h -60 v -8 -1 h -6 v 3 h -2 v -8 h 2 v 3 h 6 v -1 z" style="fill:#ffb2bc;fill-opacity:1;stroke:#601136;stroke-width:1;stroke-linecap:round;stroke-opacity:1"/><text id="text3567" style="font-size:10px;font-family:sans-serif;text-anchor:start;fill:#000"><tspan id="tspan3565" x="13.333" y="13.833">4</tspan></text></g></g><g id="g3581" transform="translate(13.5,31.5)"><g id="g3579" transform="scale(1.5)"><path id="path3573" d="m 0.5,8.5 v -4 a 4,4 90 0 1 4,-4 h 4 v 2 h 10 v -2 h 20 4 a 4,4 90 0 1 4,4 v 4 4 4 a 4,4 90 0 1 -4,4 h -4 -20 -1 v 2 h -8 v -2 h -1 -4 a 4,4 90 0 1 -4,-4 v -4 z" style="fill:#d57e6f;fill-opacity:1;stroke:#000;stroke-width:1;stroke-linecap:round;stroke-opacity:1"/><text id="text3577" style="font-size:10px;font-family:sans-serif;text-anchor:end;fill:#000"><tspan id="tspan3575" x="36.333" y="13.5">↓</tspan></text></g></g><g id="g3599" transform="translate(13.5,126)"><g id="g3597" transform="scale(1.5)"><path id="path3583" d="m 0.5,8.5 v -4 a 4,4 90 0 1 4,-4 h 4 v 2 h 10 v -2 h 30 4 a 4,4 90 0 1 4,4 v 4 h -4 v -3 h -4 v 10 h 4 v -3 h 4 v 17 h -4 v -3 h -4 v 10 h 4 v -3 h 4 v 4 a 4,4 90 0 1 -4,4 h -4 -30 -1 v 2 h -8 v -2 h -1 -4 a 4,4 90 0 1 -4,-4 v -4 -21 z" style="fill:#93e042;fill-opacity:1;stroke:#004000;stroke-width:1;stroke-linecap:round;stroke-opacity:1"/><text id="text3587" style="font-size:10px;font-family:sans-serif;text-anchor:end;fill:#000"><tspan id="tspan3585" x="46.333" y="24">pitch</tspan></text><text id="text3591" style="font-size:6.66666651px;font-family:sans-serif;text-anchor:end;fill:#000"><tspan id="tspan3589" x="46.333" y="11.25">name</tspan></text><text id="text3595" style="font-size:6.66666651px;font-family:sans-serif;text-anchor:end;fill:#000"><tspan id="tspan3593" x="46.333" y="32.25">octave</tspan></text></g></g><g id="g3609" transform="translate(87,126)"><g id="g3607" transform="scale(1.5)"><path id="path3601" d="m 8.5,0.5 h 60 v 20 h -60 v -8 -1 h -6 v 3 h -2 v -8 h 2 v 3 h 6 v -1 z" style="fill:#93e042;fill-opacity:1;stroke:#004000;stroke-width:1;stroke-linecap:round;stroke-opacity:1"/><text id="text3605" style="font-size:10px;font-family:sans-serif;text-anchor:start;fill:#000"><tspan id="tspan3603" x="13.333" y="13.833">mi</tspan></text></g></g><g id="g3619" transform="translate(87,157.5)"><g id="g3617" transform="scale(1.5)"><path id="path3611" d="m 8.5,0.5 h 60 v 20 h -60 v -8 -1 h -6 v 3 h -2 v -8 h 2 v 3 h 6 v -1 z" style="fill:#ffb2bc;fill-opacity:1;stroke:#601136;stroke-width:1;stroke-linecap:round;stroke-opacity:1"/><text id="text3615" style="font-size:10px;font-family:sans-serif;text-anchor:start;fill:#000"><tspan id="tspan3613" x="13.333" y="13.833">5</tspan></text></g></g><g id="g3637" transform="translate(13.5,63)"><g id="g3635" transform="scale(1.5)"><path id="path3621" d="m 0.5,8.5 v -4 a 4,4 90 0 1 4,-4 h 4 v 2 h 10 v -2 h 30 4 a 4,4 90 0 1 4,4 v 4 h -4 v -3 h -4 v 10 h 4 v -3 h 4 v 17 h -4 v -3 h -4 v 10 h 4 v -3 h 4 v 4 a 4,4 90 0 1 -4,4 h -4 -30 -1 v 2 h -8 v -2 h -1 -4 a 4,4 90 0 1 -4,-4 v -4 -21 z" style="fill:#93e042;fill-opacity:1;stroke:#004000;stroke-width:1;stroke-linecap:round;stroke-opacity:1"/><text id="text3625" style="font-size:10px;font-family:sans-serif;text-anchor:end;fill:#000"><tspan id="tspan3623" x="46.333" y="24">pitch</tspan></text><text id="text3629" style="font-size:6.66666651px;font-family:sans-serif;text-anchor:end;fill:#000"><tspan id="tspan3627" x="46.333" y="11.25">name</tspan></text><text id="text3633" style="font-size:6.66666651px;font-family:sans-serif;text-anchor:end;fill:#000"><tspan id="tspan3631" x="46.333" y="32.25">octave</tspan></text></g></g><g id="g3647" transform="translate(87,63)"><g id="g3645" transform="scale(1.5)"><path id="path3639" d="m 8.5,0.5 h 60 v 20 h -60 v -8 -1 h -6 v 3 h -2 v -8 h 2 v 3 h 6 v -1 z" style="fill:#93e042;fill-opacity:1;stroke:#004000;stroke-width:1;stroke-linecap:round;stroke-opacity:1"/><text id="text3643" style="font-size:10px;font-family:sans-serif;text-anchor:start;fill:#000"><tspan id="tspan3641" x="13.333" y="13.833">re</tspan></text></g></g><g id="g3657" transform="translate(87,94.5)"><g id="g3655" transform="scale(1.5)"><path id="path3649" d="m 8.5,0.5 h 60 v 20 h -60 v -8 -1 h -6 v 3 h -2 v -8 h 2 v 3 h 6 v -1 z" style="fill:#ffb2bc;fill-opacity:1;stroke:#601136;stroke-width:1;stroke-linecap:round;stroke-opacity:1"/><text id="text3653" style="font-size:10px;font-family:sans-serif;text-anchor:start;fill:#000"><tspan id="tspan3651" x="13.333" y="13.833">5</tspan></text></g></g></svg>