<svg xmlns="http://www.w3.org/2000/svg" xmlns:svg="http://www.w3.org/2000/svg" id="svg4075" width="392.533" height="183.467" version="1.1" viewBox="0 0 368 172"><metadata id="metadata4080"/><path id="path3194" d="m 19,101.00001 0,-8 c 0,-4.41828 3.58172,-8 8,-8 l 8,0 0,4 20,0 0,-4 60,0 8,0 c 4.41828,0 8,3.58172 8,8 l 0,8 -8,0 0,-6 -8,0 0,20 8,0 0,-6 8,0 0,8 c 0,4.41828 -3.58172,8 -8,8 l -8,0 -60,0 -2,0 0,4 -16,0 0,-4 -2,0 -8,0 c -4.41828,0 -8,-3.58172 -8,-8 l 0,-8 0,0 z" style="fill:#76c61c;fill-opacity:1;stroke:#538d38;stroke-width:2;stroke-linecap:round;stroke-opacity:1"/><text id="text3196" x="18" y="64" style="font-size:20px;font-family:Sans;text-anchor:end;fill:#000"><tspan id="tspan3198" x="112" y="113">hertz</tspan></text><g id="g3710" transform="translate(-165.83636,138.82425)"><path style="fill:#ee97a8;fill-opacity:1;stroke:#a75862;stroke-width:2;stroke-linecap:round;stroke-opacity:1" id="path21-6" d="m 298.83636,-53.824242 120,0 0,40 -120,0 0,-16 0,-2 -12,0 0,6 -4,0 0,-16 4,0 0,6 12,0 0,-2 z"/><text style="font-size:20px;font-family:Sans;text-anchor:start;fill:#000" id="text23-9" x="319.836" y="-54.824"><tspan id="tspan25-8" x="339.836" y="-28.824">373</tspan></text></g><path id="path3035-5" d="m 1,17.00001 0,-8 c 0,-4.41828 3.58173,-8 8.00001,-8 l 8,0 0,4 20,0 0,-4 18,0 59.99999,0 8.00002,0 c 4.41827,0 9.07158,3.71364 8,8 l 0,8 -8,0 0,-6 -8.00002,0 0,20 8.00002,0 0,-6 8,0 0,8 c 0,4.41828 -3.58173,8 -8,8 l -8.00002,0 -59.99999,0 -2,0 0,4 -16,0 0,-4 -2,0 -8,0 c -5.52285,0 -10,4.47715 -10,10 l 0,8 0,50.00001 0,7.99999 c 0,5.52285 4.64205,11.3395 10,10 l 8,0 0,4 20,0 0,-4 16,0 0,12 0,12 0,8 c 0,4.41828 -3.71364,9.07161 -8,8.00001 l -8,0 -18,0 -2,0 0,4 -16,0 0,-4 -2,0 -8,0 C 4.58173,167.00002 1,163.41829 1,159.00001 l 0,-8 z" style="fill:#f2740b;fill-opacity:1;stroke:#a86129;stroke-width:2;stroke-linecap:round;stroke-opacity:1"/><text id="text3037-3" x="-2" y="-2" style="font-size:20px;font-family:Sans;text-anchor:start;fill:#000"><tspan id="tspan3039-5" x="6" y="28.5">note value</tspan></text><path id="path21-6-1-7" d="m 247.00002,43.00001 120.00002,0 0,40 -120.00002,0 0,-16 0,-2 -12,0 0,6 -4,0 0,-16 4,0 0,6 12,0 0,-2 z" style="fill:#ee97a8;fill-opacity:1;stroke:#a75862;stroke-width:2;stroke-linecap:round;stroke-opacity:1"/><text id="text23-9-82-9" x="278" y="42" style="font-size:20px;font-family:Sans;text-anchor:start;fill:#000"><tspan id="tspan25-8-5-2" x="298" y="68">8</tspan></text><path id="path3798-4-4-5" d="m 133.00002,17.00001 0,-8 a 8.0000007,8.0000006 0 0 1 8,-8 l 8,0 20,0 60,0 8,0 a 8.0000007,8.0000006 0 0 1 8,8 l 0,8 -8,0 0,-6 -8,0 0,20 8,0 0,-6 8,0 0,34 -8,0 0,-6 -8,0 0,20 8,0 0,-6 8,0 0,8 a 8.0000007,8.0000006 0 0 1 -8,8 l -8,0 -60,0 -20,0 -8,0 a 8.0000007,8.0000006 0 0 1 -8,-8 l 0,-8 0,-42 0,-2 -12,0 0,6 -4.00002,0 0,-16 4.00002,0 0,6 12,0 0,-2 z" style="fill:#ee97a8;fill-opacity:1;stroke:#a75862;stroke-width:2;stroke-linecap:round;stroke-opacity:1"/><text id="text3800-3-2-0" x="108" y="0" style="font-size:28px;font-family:sans-serif;text-anchor:end;fill:#000"><tspan id="tspan3802-6-2-5" x="218" y="49">/</tspan></text><g id="g5147" transform="translate(0,-42)"><path style="fill:#ee97a8;fill-opacity:1;stroke:#a75862;stroke-width:2;stroke-linecap:round;stroke-opacity:1" id="path21-8-2-1-0-6" d="m 247,43 120,0 0,40 -120,0 0,-16 0,-2 -12,0 0,6 -4,0 0,-16 4,0 0,6 12,0 0,-2 z"/><text style="font-size:20px;font-family:Sans;text-anchor:start;fill:#000" id="text23-0-1-0-1-0" x="279" y="44"><tspan id="tspan25-7-0-5-2-5" x="299" y="70">1</tspan></text></g><path style="fill:#be6152;fill-opacity:1;stroke:#923111;stroke-width:2;stroke-linecap:round;stroke-opacity:1" id="path3124" d="m 19.00001,59.00001 0,-8 c 0,-4.41828 3.58172,-8 8,-8 l 8,0 0,4 20,0 0,-4 59.99999,0 8.00002,0 c 4.41827,0 8,3.58172 8,8 l 0,8 0,8 0,8 c 0,4.41828 -3.71365,6.92841 -8,8 l -8.00002,0 -59.99999,0 -2,0 0,4 -16,0 0,-4 -2,0 -8,0 c -4.41828,0 -8,-3.58172 -8,-8 l 0,-8 0,0 z"/><text id="text6137" x="100.823" y="69.923" xml:space="preserve" style="font-style:normal;font-weight:400;font-size:16px;line-height:125%;font-family:sans-serif;text-align:center;letter-spacing:0;word-spacing:0;text-anchor:middle;fill:#000;fill-opacity:1;stroke:none;stroke-width:1px;stroke-linecap:butt;stroke-linejoin:miter;stroke-opacity:1"><tspan style="font-size:22.5px" id="tspan6139" x="100.823" y="69.923">↓</tspan></text></svg>