<svg xmlns="http://www.w3.org/2000/svg" xmlns:svg="http://www.w3.org/2000/svg" id="svg5587" width="850.4" height="582.8" version="1.1" viewBox="0 0 797.25 546.375"><metadata id="metadata5592"/><path style="fill:#76c61c;fill-opacity:1;stroke:#538d38;stroke-width:2;stroke-linecap:round;stroke-opacity:1" id="path3194-2-19" d="m 448.25004,183.99995 v -8.00002 a 8.0000024,8.0000018 0 0 1 8,-8 h 8 v 4 h 20.00001 v -4 h 60.00001 8.00002 a 8.0000024,8.0000018 0 0 1 8,8 v 8.00002 h -8 v -6.00001 h -8.00002 v 20.00002 h 8.00002 v -6 h 8 v 34 h -8 v -5.99999 h -8.00002 v 19.99999 h 8.00002 v -6 h 8 v 8 a 8.0000024,8.0000018 0 0 1 -8,8 h -8.00002 -60.00001 -2 v 4 h -16.00001 v -4 h -2 -8 a 8.0000024,8.0000018 0 0 1 -8,-8 v -8 -42 z"/><text style="font-size:20px;font-family:Sans;text-anchor:end;fill:#000" id="text3196-91-6" x="447.25" y="167"><tspan id="tspan3198-2-2" x="541.25" y="216">pitch</tspan></text><text style="font-size:13.33333302px;font-family:Sans;text-anchor:end;fill:#000" id="text3200-7-1" x="447.25" y="169"><tspan id="tspan3202-0-2" x="541.25" y="191.5">name</tspan></text><text style="font-size:13.33333302px;font-family:Sans;text-anchor:end;fill:#000" id="text3204-93-0" x="447.25" y="171"><tspan id="tspan3206-6-7" x="541.25" y="235.5">octave</tspan></text><path id="path21-0-3" d="m 562.25008,167.99993 h 120.00003 v 40.00004 H 562.25008 v -16.00001 -2 h -12.00001 v 6 h -4.00001 v -16.00002 h 4.00001 v 6.00001 h 12.00001 v -2 z" style="fill:#76c61c;fill-opacity:1;stroke:#538d38;stroke-width:2;stroke-linecap:round;stroke-opacity:1"/><text id="text23-6-1" x="591.25" y="167" style="font-size:20px;font-family:Sans;text-anchor:start;fill:#000"><tspan id="tspan25-2-1" x="611.25" y="193">re</tspan></text><path style="fill:#ee97a8;fill-opacity:1;stroke:#a75862;stroke-width:2;stroke-linecap:round;stroke-opacity:1" id="path21-6-6-9" d="m 562.25008,209.99996 h 120.00003 v 40 H 562.25008 v -16 -2 h -12.00001 v 6 h -4.00001 v -16 h 4.00001 v 6 h 12.00001 v -2 z"/><text style="font-size:20px;font-family:Sans;text-anchor:start;fill:#000" id="text23-9-1-0" x="597.25" y="209"><tspan id="tspan25-8-8-56" x="617.25" y="235">5</tspan></text><path style="fill:#f2740b;fill-opacity:1;stroke:#a86129;stroke-width:2;stroke-linecap:round;stroke-opacity:1" id="path3035-5-7" d="m 430.25004,99.999953 v -8.00001 c 0,-4.41828 3.58172,-8 8,-8 h 8 v 4 h 20 v -4 h 18.00001 60.00001 8.00002 c 4.41828,0 9.07159,3.71364 8,8 v 8.00001 h -8 v -6 h -8.00002 v 19.999997 h 8.00002 v -6 h 8 v 8 c 0,4.41828 -3.58172,8 -8,8 h -8.00002 -60.00001 -2 v 4 h -16.00001 v -4 h -2 -8 c -5.52285,0 -10,4.47715 -10,10 v 8 92.00003 7.99999 c 0,5.52285 4.64205,11.3395 10,10 h 8 v 4.00001 h 20.00001 v -4.00001 h 16 v 12.00002 12 8 c 0,4.41828 -3.71364,9.07161 -8,8.00001 h -8 -18.00001 -2 v 4 h -16 v -4 h -2 -8 c -4.41828,0 -8,-3.58173 -8,-8.00001 v -8 z"/><text style="font-size:20px;font-family:Sans;text-anchor:start;fill:#000" id="text3037-3-7" x="427.25" y="81"><tspan id="tspan3039-5-40" x="435.25" y="111.5">note value</tspan></text><path style="fill:#ee97a8;fill-opacity:1;stroke:#a75862;stroke-width:2;stroke-linecap:round;stroke-opacity:1" id="path21-6-1-7-6" d="m 676.25011,125.99995 h 120.00004 v 40 H 676.25011 v -16 -2 h -12 v 6 h -4.00001 v -16 h 4.00001 v 6 h 12 v -2 z"/><text style="font-size:20px;font-family:Sans;text-anchor:start;fill:#000" id="text23-9-82-9-47" x="707.25" y="125"><tspan id="tspan25-8-5-2-48" x="727.25" y="151">8</tspan></text><path style="fill:#ee97a8;fill-opacity:1;stroke:#a75862;stroke-width:2;stroke-linecap:round;stroke-opacity:1" id="path3798-4-4-5-5" d="m 562.25008,99.999953 v -8.00001 a 8.0000024,8.0000018 0 0 1 8,-8 h 8 20.00001 60.00001 8.00001 a 8.0000024,8.0000018 0 0 1 8,8 v 8.00001 h -8 v -6 h -8.00001 v 19.999997 h 8.00001 v -6 h 8 v 34 h -8 v -6 h -8.00001 v 20 h 8.00001 v -6 h 8 v 8 a 8.0000024,8.0000018 0 0 1 -8,8 h -8.00001 -60.00001 -20.00001 -8 a 8.0000024,8.0000018 0 0 1 -8,-8 v -8 -42 -2 h -12.00001 v 6 h -4.00001 V 95.999953 h 4.00001 v 5.999997 h 12.00001 z"/><text style="font-size:28px;font-family:sans-serif;text-anchor:end;fill:#000" id="text3800-3-2-0-8" x="537.25" y="83"><tspan id="tspan3802-6-2-5-2" x="647.25" y="132">/</tspan></text><path style="fill:#ee97a8;fill-opacity:1;stroke:#a75862;stroke-width:2;stroke-linecap:round;stroke-opacity:1" id="path21-8-2-1-0-6-0" d="m 676.25004,83.999933 h 120 v 39.999997 h -120 v -16 -2 h -12 v 6 h -4 V 95.999933 h 4 v 5.999997 h 12 v -1.999997 z"/><text style="font-size:20px;font-family:Sans;text-anchor:start;fill:#000" id="text23-0-1-0-1-0-6" x="708.25" y="85"><tspan id="tspan25-7-0-5-2-5-6" x="728.25" y="111">1</tspan></text><path id="path3124-46" d="m 448.25004,141.99995 v -8 c 0,-4.41828 3.58172,-8 8,-8 h 8 v 4 h 20.00001 v -4 h 60.00001 8.00002 c 4.41828,0 8,3.58172 8,8 v 8 8 8 c 0,4.41828 -3.71364,6.92841 -8,8 h -8.00002 -60.00001 -2 v 4 h -16.00001 v -4 h -2 -8 c -4.41828,0 -8,-3.58172 -8,-8 v -8 0 z" style="fill:#be6152;fill-opacity:1;stroke:#923111;stroke-width:2;stroke-linecap:round;stroke-opacity:1"/><text style="font-style:normal;font-weight:400;font-size:16px;line-height:125%;font-family:sans-serif;text-align:center;letter-spacing:0;word-spacing:0;text-anchor:middle;fill:#000;fill-opacity:1;stroke:none;stroke-width:1px;stroke-linecap:butt;stroke-linejoin:miter;stroke-opacity:1" id="text6137-2" x="530.073" y="152.923" xml:space="preserve"><tspan id="tspan6139-8" x="530.073" y="152.923" style="font-size:22.5px">↓</tspan></text><path style="fill:#76c61c;fill-opacity:1;stroke:#538d38;stroke-width:2;stroke-linecap:round;stroke-opacity:1" id="path3194-2-1-9" d="m 448.25004,393.99998 v -8.00001 a 8.0000031,8.0000024 0 0 1 8,-8 h 8 v 4 h 20.00002 v -4 h 60 8.00003 a 8.0000031,8.0000024 0 0 1 8,8 v 8.00001 h -8 v -6.00001 h -8.00003 v 20.00002 h 8.00003 v -6 h 8 v 34 h -8 V 430 h -8.00003 v 19.99999 h 8.00003 v -6 h 8 v 8 a 8.0000031,8.0000024 0 0 1 -8,8 h -8.00003 -60 -2 v 4 h -16.00002 v -4 h -2 -8 a 8.0000031,8.0000024 0 0 1 -8,-8 v -8 -42 z"/><text style="font-size:20px;font-family:Sans;text-anchor:end;fill:#000" id="text3196-91-5-6" x="447.25" y="377"><tspan id="tspan3198-2-5-0" x="541.25" y="426">pitch</tspan></text><text style="font-size:13.33333302px;font-family:Sans;text-anchor:end;fill:#000" id="text3200-7-4-7" x="447.25" y="379"><tspan id="tspan3202-0-7-0" x="541.25" y="401.5">name</tspan></text><text style="font-size:13.33333302px;font-family:Sans;text-anchor:end;fill:#000" id="text3204-93-6-1" x="447.25" y="381"><tspan id="tspan3206-6-5-0" x="541.25" y="445.5">octave</tspan></text><path id="path21-0-6-1" d="M 562.25009,377.99997 H 682.25013 V 418 H 562.25009 v -16.00001 -2 h -12.00001 v 6 h -4.00002 v -16.00002 h 4.00002 v 6.00002 h 12.00001 v -2.00001 z" style="fill:#76c61c;fill-opacity:1;stroke:#538d38;stroke-width:2;stroke-linecap:round;stroke-opacity:1"/><text id="text23-6-9-3" x="591.25" y="377" style="font-size:20px;font-family:Sans;text-anchor:start;fill:#000"><tspan id="tspan25-2-3-7" x="611.25" y="403">mi</tspan></text><path style="fill:#ee97a8;fill-opacity:1;stroke:#a75862;stroke-width:2;stroke-linecap:round;stroke-opacity:1" id="path21-6-6-7-7" d="m 562.25009,419.99999 h 120.00004 v 40 H 562.25009 v -16 -2 h -12.00001 v 6 h -4.00002 v -16 h 4.00002 v 6 h 12.00001 v -2 z"/><text style="font-size:20px;font-family:Sans;text-anchor:start;fill:#000" id="text23-9-1-4-2" x="597.25" y="419"><tspan id="tspan25-8-8-5-6" x="617.25" y="445">5</tspan></text><path style="fill:#f2740b;fill-opacity:1;stroke:#a86129;stroke-width:2;stroke-linecap:round;stroke-opacity:1" id="path3035-5-2-4" d="m 430.25004,309.99997 v -8 c 0,-4.41828 3.58172,-8 8,-8 h 8 v 4 h 20 v -4 h 18.00002 60 8.00003 c 4.41828,0 9.07159,3.71364 8,8 v 8 h -8 v -6 h -8.00003 v 20 h 8.00003 v -6 h 8 v 8 c 0,4.41829 -3.58172,8.00001 -8,8.00001 h -8.00003 -60 -2 v 4 h -16.00002 v -4 h -2 -8 c -5.52285,0 -10,4.47715 -10,10 v 8 92.00003 V 452 c 0,5.52285 4.64205,11.3395 10,10 h 8 v 4.00001 h 20.00002 V 462 h 16 v 12.00001 12 8 c 0,4.41828 -3.71364,9.07162 -8,8.00002 h -8 -18.00002 -2 v 4 h -16 v -4 h -2 -8 c -4.41828,0 -8,-3.58174 -8,-8.00002 v -8 z"/><text style="font-size:20px;font-family:Sans;text-anchor:start;fill:#000" id="text3037-3-5-5" x="427.25" y="291"><tspan id="tspan3039-5-4-2" x="435.25" y="321.5">note value</tspan></text><path style="fill:#ee97a8;fill-opacity:1;stroke:#a75862;stroke-width:2;stroke-linecap:round;stroke-opacity:1" id="path21-6-1-7-7-0" d="m 676.25013,335.99998 h 120.00005 v 40.00001 H 676.25013 v -16.00001 -2 h -12 v 6 h -4.00002 v -16 h 4.00002 v 6 h 12 v -2 z"/><text style="font-size:20px;font-family:Sans;text-anchor:start;fill:#000" id="text23-9-82-9-4-2" x="707.25" y="335"><tspan id="tspan25-8-5-2-4-9" x="727.25" y="361">8</tspan></text><path style="fill:#ee97a8;fill-opacity:1;stroke:#a75862;stroke-width:2;stroke-linecap:round;stroke-opacity:1" id="path3798-4-4-5-3-0" d="m 562.25009,309.99997 v -8 a 8.0000031,8.0000024 0 0 1 8,-8 h 8 20.00001 60.00001 8.00002 a 8.0000031,8.0000024 0 0 1 8,8 v 8 h -8 v -6 h -8.00002 v 20 h 8.00002 v -6 h 8 v 34.00001 h -8 v -6 h -8.00002 v 20 h 8.00002 v -6 h 8 v 8 a 8.0000031,8.0000024 0 0 1 -8,8.00001 h -8.00002 -60.00001 -20.00001 -8 a 8.0000031,8.0000024 0 0 1 -8,-8.00001 v -8 -42.00001 -2 h -12.00001 v 6 h -4.00002 v -16 h 4.00002 v 6 h 12.00001 z"/><text style="font-size:28px;font-family:sans-serif;text-anchor:end;fill:#000" id="text3800-3-2-0-0-9" x="537.25" y="293"><tspan id="tspan3802-6-2-5-7-9" x="647.25" y="342">/</tspan></text><path style="fill:#ee97a8;fill-opacity:1;stroke:#a75862;stroke-width:2;stroke-linecap:round;stroke-opacity:1" id="path21-8-2-1-0-6-6-5" d="m 676.25003,293.99993 h 120 v 40 h -120 v -16 -2 h -12 v 6 h -4 v -16 h 4 v 6 h 12 v -2 z"/><text style="font-size:20px;font-family:Sans;text-anchor:start;fill:#000" id="text23-0-1-0-1-0-8-1" x="708.25" y="295"><tspan id="tspan25-7-0-5-2-5-8-0" x="728.25" y="321">1</tspan></text><path id="path3124-4-3" d="m 448.25004,351.99998 v -8 c 0,-4.41828 3.58172,-8 8,-8 h 8 v 4 h 20.00002 v -4 h 60 8.00003 c 4.41828,0 8,3.58172 8,8 v 8 8 8 c 0,4.41829 -3.71364,6.92842 -8,8.00001 h -8.00003 -60 -2 v 4 h -16.00002 v -4 h -2 -8 c -4.41828,0 -8,-3.58172 -8,-8.00001 v -8 0 z" style="fill:#be6152;fill-opacity:1;stroke:#923111;stroke-width:2;stroke-linecap:round;stroke-opacity:1"/><text style="font-style:normal;font-weight:400;font-size:16px;line-height:125%;font-family:sans-serif;text-align:center;letter-spacing:0;word-spacing:0;text-anchor:middle;fill:#000;fill-opacity:1;stroke:none;stroke-width:1px;stroke-linecap:butt;stroke-linejoin:miter;stroke-opacity:1" id="text6137-3-7" x="530.073" y="362.923" xml:space="preserve"><tspan id="tspan6139-1-8" x="530.073" y="362.923" style="font-size:22.5px">↓</tspan></text><path style="fill:#ee97a8;fill-opacity:1;stroke:#a75862;stroke-width:2;stroke-linecap:round;stroke-opacity:1" id="path21-6-1-7-6-6" d="M 562.62504,42.250004 H 682.62503 V 82.250003 H 562.62504 v -16 -2 h -12 v 6 h -4.00001 V 54.250002 h 4.00001 v 6.000001 h 12 v -2 z"/><text style="font-size:20px;font-family:Sans;text-anchor:start;fill:#000" id="text23-9-82-9-47-7" x="599.25" y="41.25"><tspan id="tspan25-8-5-2-48-5" x="619.25" y="67.25">1</tspan></text><path style="fill:#ee97a8;fill-opacity:1;stroke:#a75862;stroke-width:2;stroke-linecap:round;stroke-opacity:1" id="path21-8-2-1-0-6-0-9-6" d="m 562.62503,1.000001 h 120 V 41 h -120 V 25 23 h -12 v 6 h -4 V 13 h 4 v 6 h 12 v -2 z"/><text style="font-size:20px;font-family:Sans;text-anchor:start;fill:#000" id="text23-0-1-0-1-0-6-1-1" x="594.625" y="2"><tspan id="tspan25-7-0-5-2-5-6-2-8" x="614.625" y="28">3</tspan></text><g id="g5147-6-2-9" transform="translate(-96.874992,-0.749997)"><path id="path21-8-2-1-0-6-0-9-2" d="M 247,43 H 367 V 83 H 247 V 67 65 h -12 v 6 h -4 V 55 h 4 v 6 h 12 v -2 z" style="fill:#ee97a8;fill-opacity:1;stroke:#a75862;stroke-width:2;stroke-linecap:round;stroke-opacity:1"/><text id="text23-0-1-0-1-0-6-1-2" x="279" y="44" style="font-size:20px;font-family:Sans;text-anchor:start;fill:#000"><tspan id="tspan25-7-0-5-2-5-6-2-89" x="299" y="70">0</tspan></text></g><path style="fill:#ee97a8;fill-opacity:1;stroke:#a75862;stroke-width:2;stroke-linecap:round;stroke-opacity:1" id="path21-8-2-1-0-6-0-9-6-2" d="m 150.12501,1 h 120 v 40 h -120 V 25 23 h -12 v 6 h -4 V 13 h 4 v 6 h 12 v -2 z"/><text style="font-size:20px;font-family:Sans;text-anchor:start;fill:#000" id="text23-0-1-0-1-0-6-1-1-9" x="182.625" y="5.125"><tspan id="tspan25-7-0-5-2-5-6-2-8-3" x="202.625" y="31.125">5</tspan></text><path id="path21-8" d="m 0.9518615,17.74862 v -7.59556 c 0,-4.19491 3.5396665,-8.601207 7.63427,-7.595561 H 16.220412 V 6.35528 h 19.08568 V 2.557499 h 17.17712 80.503858 7.63427 c 4.21629,0 6.62892,3.5229 7.63428,7.595561 v 7.59556 h -8.10269 v -5.83466 h -7.5 v 18.75 h 7.5 l 0.007,-5.625 h 8.10269 l 3.1e-4,33.750003 h -8.10267 l -0.008,-5.624997 h -7.50001 v 18.749997 h 7.50001 l 0.008,-5.625 h 8.10268 l -0.007,7.9584 c -0.004,4.19491 -3.41798,8.06514 -7.63427,8.06514 h -7.63427 -79.533118 -1.90856 v 4.6875 h -16.84144 v -4.6875 h -1.90856 -7.03214 c -5.27036,0 -9.54284,3.78123 -9.54284,9.02487 v 7.59556 386.157097 7.59555 c 0,5.24364 4.59034,8.76182 9.54284,10.56445 h 7.98642 v 4.6875 h 18.750001 v -4.6875 h 15.252089 v 10.32334 11.39334 9.06313 c 0,4.19491 -3.53968,6.59496 -7.63428,7.59556 h -7.63427 -17.17712 -1.90856 v 3.79777 h -15.26855 v -3.79777 h -1.90857 -7.6342805 c -4.21629,0 -7.63427,-3.40065 -7.63427,-7.59556 v -9.06313 z" style="fill:#1d8989;fill-opacity:1;stroke:#005459;stroke-width:1.903723;stroke-linecap:round;stroke-opacity:1"/><text id="text3037-2" x=".896" y="17.842" style="font-size:20px;font-family:Sans;text-anchor:start;fill:#000"><tspan id="tspan3039-2" x="8.896" y="48.342">augmented</tspan></text><path id="path21-8-3" d="m 413.45189,17.748621 v -7.59556 c 0,-4.19491 3.53967,-8.60121 7.63427,-7.59556 h 7.63428 v 3.79778 h 19.08568 v -3.79778 h 17.17712 80.50386 7.63427 c 4.21629,0 6.62892,3.5229 7.63428,7.59556 v 7.59556 h -8.10269 v -5.83466 h -7.5 v 18.75 h 7.5 l 0.007,-5.625 h 8.10268 l 3.2e-4,33.750002 h -8.10267 l -0.008,-5.625002 h -7.50001 v 18.750002 h 7.50001 l 0.008,-5.625 h 8.10268 l -0.007,7.9584 c -0.004,4.19491 -3.41798,8.06514 -7.63427,8.06514 h -7.63427 -79.53312 -1.90856 v 4.6875 h -16.84144 v -4.6875 h -1.90856 -7.03214 c -5.27036,0 -9.54284,3.78123 -9.54284,9.02487 v 7.59556 386.157097 7.59555 c 0,5.24364 4.59034,8.76182 9.54284,10.56445 h 7.98642 v 4.6875 h 18.75001 v -4.6875 h 15.25208 v 10.32334 11.39335 9.06312 c 0,4.19491 -3.53968,6.59496 -7.63428,7.59556 h -7.63427 -17.17712 -1.90856 v 3.79777 h -15.26855 v -3.79777 h -1.90857 -7.63428 c -4.21629,0 -7.63427,-3.40065 -7.63427,-7.59556 v -9.06312 z" style="fill:#1d8989;fill-opacity:1;stroke:#005459;stroke-width:1.903723;stroke-linecap:round;stroke-opacity:1"/><path style="fill:#76c61c;fill-opacity:1;stroke:#538d38;stroke-width:2;stroke-linecap:round;stroke-opacity:1" id="path3194-2-19-6" d="m 35.875001,183.99995 v -8.00002 a 8.0000024,8.0000018 0 0 1 8,-8 h 8 v 4 h 20.00001 v -4 h 60.000009 8.00002 a 8.0000024,8.0000018 0 0 1 8,8 v 8.00002 h -8 v -6.00001 h -8.00002 v 20.00002 h 8.00002 v -6 h 8 v 34 h -8 v -5.99999 h -8.00002 v 19.99999 h 8.00002 v -6 h 8 v 8 a 8.0000024,8.0000018 0 0 1 -8,8 h -8.00002 -60.000009 -2 v 4 h -16.00001 v -4 h -2 -8 a 8.0000024,8.0000018 0 0 1 -8,-8 v -8 -42 z"/><text style="font-size:20px;font-family:Sans;text-anchor:end;fill:#000;stroke-width:1" id="text3196-91-6-7" x="34.875" y="167"><tspan style="stroke-width:1" id="tspan3198-2-2-5" x="128.875" y="216">pitch</tspan></text><text style="font-size:13.33333302px;font-family:Sans;text-anchor:end;fill:#000;stroke-width:1" id="text3200-7-1-3" x="34.875" y="169"><tspan style="stroke-width:1" id="tspan3202-0-2-5" x="128.875" y="191.5">name</tspan></text><text style="font-size:13.33333302px;font-family:Sans;text-anchor:end;fill:#000;stroke-width:1" id="text3204-93-0-6" x="34.875" y="171"><tspan style="stroke-width:1" id="tspan3206-6-7-2" x="128.875" y="235.5">octave</tspan></text><path id="path21-0-3-9" d="m 149.87504,167.99993 h 120.00003 v 40.00004 H 149.87504 v -16.00001 -2 h -12.00001 v 6 h -4.00001 v -16.00002 h 4.00001 v 6.00001 h 12.00001 v -2 z" style="fill:#76c61c;fill-opacity:1;stroke:#538d38;stroke-width:2;stroke-linecap:round;stroke-opacity:1"/><text id="text23-6-1-1" x="178.875" y="167" style="font-size:20px;font-family:Sans;text-anchor:start;fill:#000;stroke-width:1"><tspan style="stroke-width:1" id="tspan25-2-1-2" x="198.875" y="193">re</tspan></text><path style="fill:#ee97a8;fill-opacity:1;stroke:#a75862;stroke-width:2;stroke-linecap:round;stroke-opacity:1" id="path21-6-6-9-7" d="m 149.87504,209.99996 h 120.00003 v 40 H 149.87504 v -16 -2 h -12.00001 v 6 h -4.00001 v -16 h 4.00001 v 6 h 12.00001 v -2 z"/><text style="font-size:20px;font-family:Sans;text-anchor:start;fill:#000;stroke-width:1" id="text23-9-1-0-0" x="184.875" y="209"><tspan style="stroke-width:1" id="tspan25-8-8-56-9" x="204.875" y="235">5</tspan></text><path style="fill:#f2740b;fill-opacity:1;stroke:#a86129;stroke-width:2;stroke-linecap:round;stroke-opacity:1" id="path3035-5-7-3" d="m 17.875001,99.999953 v -8.00001 c 0,-4.41828 3.58172,-8 8,-8 h 8 v 4 h 20 v -4 h 18.00001 60.000009 8.00002 c 4.41828,0 9.07159,3.71364 8,8 v 8.00001 h -8 v -6 h -8.00002 v 19.999997 h 8.00002 v -6 h 8 v 8 c 0,4.41828 -3.58172,8 -8,8 h -8.00002 -60.000009 -2 v 4 h -16.00001 v -4 h -2 -8 c -5.52285,0 -10,4.47715 -10,10 v 8 92.00003 7.99999 c 0,5.52285 4.64205,11.3395 10,10 h 8 v 4.00001 h 20.00001 v -4.00001 h 16 v 12.00002 12 8 c 0,4.41828 -3.71364,9.07161 -8,8.00001 h -8 -18.00001 -2 v 4 h -16 v -4 h -2 -8 c -4.41828,0 -8,-3.58173 -8,-8.00001 v -8 z"/><text style="font-size:20px;font-family:Sans;text-anchor:start;fill:#000;stroke-width:1" id="text3037-3-7-6" x="14.875" y="81"><tspan style="stroke-width:1" id="tspan3039-5-40-0" x="22.875" y="111.5">note value</tspan></text><path style="fill:#ee97a8;fill-opacity:1;stroke:#a75862;stroke-width:2;stroke-linecap:round;stroke-opacity:1" id="path21-6-1-7-6-62" d="m 263.87507,125.99995 h 120.00002 v 40 H 263.87507 v -16 -2 h -12 v 6 h -4.00001 v -16 h 4.00001 v 6 h 12 v -2 z"/><text style="font-size:20px;font-family:Sans;text-anchor:start;fill:#000;stroke-width:1" id="text23-9-82-9-47-6" x="294.875" y="125"><tspan style="stroke-width:1" id="tspan25-8-5-2-48-1" x="314.875" y="151">8</tspan></text><path style="fill:#ee97a8;fill-opacity:1;stroke:#a75862;stroke-width:2;stroke-linecap:round;stroke-opacity:1" id="path3798-4-4-5-5-8" d="m 149.87504,99.999953 v -8.00001 a 8.0000024,8.0000018 0 0 1 8,-8 h 8 20.00001 60.00001 8.00001 a 8.0000024,8.0000018 0 0 1 8,8 v 8.00001 h -8 v -6 h -8.00001 v 19.999997 h 8.00001 v -6 h 8 v 34 h -8 v -6 h -8.00001 v 20 h 8.00001 v -6 h 8 v 8 a 8.0000024,8.0000018 0 0 1 -8,8 h -8.00001 -60.00001 -20.00001 -8 a 8.0000024,8.0000018 0 0 1 -8,-8 v -8 -42 -2 h -12.00001 v 6 h -4.00001 V 95.999953 h 4.00001 v 5.999997 h 12.00001 z"/><text style="font-size:28px;font-family:sans-serif;text-anchor:end;fill:#000;stroke-width:1" id="text3800-3-2-0-8-7" x="124.875" y="83"><tspan style="stroke-width:1" id="tspan3802-6-2-5-2-9" x="234.875" y="132">/</tspan></text><path style="fill:#ee97a8;fill-opacity:1;stroke:#a75862;stroke-width:2;stroke-linecap:round;stroke-opacity:1" id="path21-8-2-1-0-6-0-2" d="M 263.875,83.999933 H 383.87499 V 123.99993 H 263.875 v -16 -2 h -12 v 6 h -4 V 95.999933 h 4 v 5.999997 h 12 v -1.999997 z"/><text style="font-size:20px;font-family:Sans;text-anchor:start;fill:#000;stroke-width:1" id="text23-0-1-0-1-0-6-0" x="295.875" y="85"><tspan style="stroke-width:1" id="tspan25-7-0-5-2-5-6-2" x="315.875" y="111">1</tspan></text><path id="path3124-46-3" d="m 35.875001,141.99995 v -8 c 0,-4.41828 3.58172,-8 8,-8 h 8 v 4 h 20.00001 v -4 h 60.000009 8.00002 c 4.41828,0 8,3.58172 8,8 v 8 8 8 c 0,4.41828 -3.71364,6.92841 -8,8 h -8.00002 -60.000009 -2 v 4 h -16.00001 v -4 h -2 -8 c -4.41828,0 -8,-3.58172 -8,-8 v -8 0 z" style="fill:#be6152;fill-opacity:1;stroke:#923111;stroke-width:2;stroke-linecap:round;stroke-opacity:1"/><text style="font-style:normal;font-weight:400;font-size:16px;line-height:125%;font-family:sans-serif;text-align:center;letter-spacing:0;word-spacing:0;text-anchor:middle;fill:#000;fill-opacity:1;stroke:none;stroke-width:1px;stroke-linecap:butt;stroke-linejoin:miter;stroke-opacity:1" id="text6137-2-7" x="117.698" y="152.923" xml:space="preserve"><tspan id="tspan6139-8-5" x="117.698" y="152.923" style="font-size:22.5px;stroke-width:1px">↓</tspan></text><path style="fill:#76c61c;fill-opacity:1;stroke:#538d38;stroke-width:2;stroke-linecap:round;stroke-opacity:1" id="path3194-2-1-9-9" d="m 35.875001,393.99998 v -8.00001 a 8.0000031,8.0000024 0 0 1 8,-8 h 8 v 4 h 20.00002 v -4 h 59.999999 8.00003 a 8.0000031,8.0000024 0 0 1 8,8 v 8.00001 h -8 v -6.00001 h -8.00003 v 20.00002 h 8.00003 v -6 h 8 v 34 h -8 V 430 h -8.00003 v 19.99999 h 8.00003 v -6 h 8 v 8 a 8.0000031,8.0000024 0 0 1 -8,8 h -8.00003 -59.999999 -2 v 4 h -16.00002 v -4 h -2 -8 a 8.0000031,8.0000024 0 0 1 -8,-8 v -8 -42 z"/><text style="font-size:20px;font-family:Sans;text-anchor:end;fill:#000;stroke-width:1" id="text3196-91-5-6-2" x="34.875" y="377"><tspan style="stroke-width:1" id="tspan3198-2-5-0-2" x="128.875" y="426">pitch</tspan></text><text style="font-size:13.33333302px;font-family:Sans;text-anchor:end;fill:#000;stroke-width:1" id="text3200-7-4-7-8" x="34.875" y="379"><tspan style="stroke-width:1" id="tspan3202-0-7-0-9" x="128.875" y="401.5">name</tspan></text><text style="font-size:13.33333302px;font-family:Sans;text-anchor:end;fill:#000;stroke-width:1" id="text3204-93-6-1-7" x="34.875" y="381"><tspan style="stroke-width:1" id="tspan3206-6-5-0-3" x="128.875" y="445.5">octave</tspan></text><path id="path21-0-6-1-6" d="M 149.87505,377.99997 H 269.87509 V 418 H 149.87505 v -16.00001 -2 h -12.00001 v 6 h -4.00002 v -16.00002 h 4.00002 v 6.00002 h 12.00001 v -2.00001 z" style="fill:#76c61c;fill-opacity:1;stroke:#538d38;stroke-width:2;stroke-linecap:round;stroke-opacity:1"/><text id="text23-6-9-3-1" x="178.875" y="377" style="font-size:20px;font-family:Sans;text-anchor:start;fill:#000;stroke-width:1"><tspan style="stroke-width:1" id="tspan25-2-3-7-2" x="198.875" y="403">mi</tspan></text><path style="fill:#ee97a8;fill-opacity:1;stroke:#a75862;stroke-width:2;stroke-linecap:round;stroke-opacity:1" id="path21-6-6-7-7-9" d="m 149.87505,419.99999 h 120.00004 v 40 H 149.87505 v -16 -2 h -12.00001 v 6 h -4.00002 v -16 h 4.00002 v 6 h 12.00001 v -2 z"/><text style="font-size:20px;font-family:Sans;text-anchor:start;fill:#000;stroke-width:1" id="text23-9-1-4-2-3" x="184.875" y="419"><tspan style="stroke-width:1" id="tspan25-8-8-5-6-1" x="204.875" y="445">5</tspan></text><path style="fill:#f2740b;fill-opacity:1;stroke:#a86129;stroke-width:2;stroke-linecap:round;stroke-opacity:1" id="path3035-5-2-4-9" d="m 17.875001,309.99997 v -8 c 0,-4.41828 3.58172,-8 8,-8 h 8 v 4 h 20 v -4 h 18.00002 59.999999 8.00003 c 4.41828,0 9.07159,3.71364 8,8 v 8 h -8 v -6 h -8.00003 v 20 h 8.00003 v -6 h 8 v 8 c 0,4.41829 -3.58172,8.00001 -8,8.00001 h -8.00003 -59.999999 -2 v 4 h -16.00002 v -4 h -2 -8 c -5.52285,0 -10,4.47715 -10,10 v 8 92.00003 V 452 c 0,5.52285 4.64205,11.3395 10,10 h 8 v 4.00001 h 20.00002 V 462 h 16 v 12.00001 12 8 c 0,4.41828 -3.71364,9.07162 -8,8.00002 h -8 -18.00002 -2 v 4 h -16 v -4 h -2 -8 c -4.41828,0 -8,-3.58174 -8,-8.00002 v -8 z"/><text style="font-size:20px;font-family:Sans;text-anchor:start;fill:#000;stroke-width:1" id="text3037-3-5-5-4" x="14.875" y="291"><tspan style="stroke-width:1" id="tspan3039-5-4-2-7" x="22.875" y="321.5">note value</tspan></text><path style="fill:#ee97a8;fill-opacity:1;stroke:#a75862;stroke-width:2;stroke-linecap:round;stroke-opacity:1" id="path21-6-1-7-7-0-8" d="m 263.87509,335.99998 h 120 v 40.00001 h -120 v -16.00001 -2 h -12 v 6 h -4.00002 v -16 h 4.00002 v 6 h 12 v -2 z"/><text style="font-size:20px;font-family:Sans;text-anchor:start;fill:#000;stroke-width:1" id="text23-9-82-9-4-2-4" x="294.875" y="335"><tspan style="stroke-width:1" id="tspan25-8-5-2-4-9-5" x="314.875" y="361">8</tspan></text><path style="fill:#ee97a8;fill-opacity:1;stroke:#a75862;stroke-width:2;stroke-linecap:round;stroke-opacity:1" id="path3798-4-4-5-3-0-0" d="m 149.87505,309.99997 v -8 a 8.0000031,8.0000024 0 0 1 8,-8 h 8 20.00001 60.00001 8.00002 a 8.0000031,8.0000024 0 0 1 8,8 v 8 h -8 v -6 h -8.00002 v 20 h 8.00002 v -6 h 8 v 34.00001 h -8 v -6 h -8.00002 v 20 h 8.00002 v -6 h 8 v 8 a 8.0000031,8.0000024 0 0 1 -8,8.00001 h -8.00002 -60.00001 -20.00001 -8 a 8.0000031,8.0000024 0 0 1 -8,-8.00001 v -8 -42.00001 -2 h -12.00001 v 6 h -4.00002 v -16 h 4.00002 v 6 h 12.00001 z"/><text style="font-size:28px;font-family:sans-serif;text-anchor:end;fill:#000;stroke-width:1" id="text3800-3-2-0-0-9-3" x="124.875" y="293"><tspan style="stroke-width:1" id="tspan3802-6-2-5-7-9-6" x="234.875" y="342">/</tspan></text><path style="fill:#ee97a8;fill-opacity:1;stroke:#a75862;stroke-width:2;stroke-linecap:round;stroke-opacity:1" id="path21-8-2-1-0-6-6-5-1" d="m 263.87499,293.99993 h 120 v 40 h -120 v -16 -2 h -12 v 6 h -4 v -16 h 4 v 6 h 12 v -2 z"/><text style="font-size:20px;font-family:Sans;text-anchor:start;fill:#000;stroke-width:1" id="text23-0-1-0-1-0-8-1-0" x="295.875" y="295"><tspan style="stroke-width:1" id="tspan25-7-0-5-2-5-8-0-6" x="315.875" y="321">1</tspan></text><path id="path3124-4-3-3" d="m 35.875001,351.99998 v -8 c 0,-4.41828 3.58172,-8 8,-8 h 8 v 4 h 20.00002 v -4 h 59.999999 8.00003 c 4.41828,0 8,3.58172 8,8 v 8 8 8 c 0,4.41829 -3.71364,6.92842 -8,8.00001 h -8.00003 -59.999999 -2 v 4 h -16.00002 v -4 h -2 -8 c -4.41828,0 -8,-3.58172 -8,-8.00001 v -8 0 z" style="fill:#be6152;fill-opacity:1;stroke:#923111;stroke-width:2;stroke-linecap:round;stroke-opacity:1"/><text style="font-style:normal;font-weight:400;font-size:16px;line-height:125%;font-family:sans-serif;text-align:center;letter-spacing:0;word-spacing:0;text-anchor:middle;fill:#000;fill-opacity:1;stroke:none;stroke-width:1px;stroke-linecap:butt;stroke-linejoin:miter;stroke-opacity:1" id="text6137-3-7-2" x="117.698" y="362.923" xml:space="preserve"><tspan id="tspan6139-1-8-0" x="117.698" y="362.923" style="font-size:22.5px;stroke-width:1px">↓</tspan></text><text id="text3037-2-2" x="419.647" y="19.717" style="font-size:20px;font-family:Sans;text-anchor:start;fill:#000"><tspan id="tspan3039-2-1" x="427.647" y="50.217">minor</tspan></text><text style="font-size:13.33333302px;font-family:Sans;text-anchor:end;fill:#000;stroke-width:1" id="text3204-93-0-6-6" x="31.373" y="2.768"><tspan style="stroke-width:1" id="tspan3206-6-7-2-1" x="125.373" y="67.268">octave +/-</tspan></text><text style="font-size:13.33333302px;font-family:Sans;text-anchor:end;fill:#000;stroke-width:1" id="text3204-93-0-6-6-5" x="442.383" y="2.768"><tspan style="stroke-width:1" id="tspan3206-6-7-2-1-5" x="536.383" y="67.268">octave +/-</tspan></text><text style="font-size:13.33333302px;font-family:Sans;text-anchor:end;fill:#000;stroke-width:1" id="text3200-7-1-3-4" x="31.959" y="3.371"><tspan style="stroke-width:1" id="tspan3202-0-2-5-7" x="125.959" y="25.871">interval</tspan></text><text style="font-size:13.33333302px;font-family:Sans;text-anchor:end;fill:#000;stroke-width:1" id="text3200-7-1-3-4-6" x="442.969" y="3.371"><tspan style="stroke-width:1" id="tspan3202-0-2-5-7-5" x="536.969" y="25.871">interval</tspan></text></svg>