<svg xmlns="http://www.w3.org/2000/svg" xmlns:svg="http://www.w3.org/2000/svg" id="svg5922" width="838.4" height="765.867" version="1.1" viewBox="0 0 786 718"><metadata id="metadata5927"/><path style="fill:#e37a00;fill-opacity:1;stroke:#a34600;stroke-width:2;stroke-linecap:round;stroke-opacity:1" id="path3035-8" d="M 1,17 1,9 C 1,4.81121 4.81121,1 9,1 l 8,0 0,4 20,0 0,-4 18,0 39.99999,0 8,0 c 4.1888,0 8,3.81121 8,8 l 0,8 -8,0 0,-6 -8,0 0,20 8,0 0,-6 8,0 0,8 c 0,4.18879 -3.8112,8 -8,8 l -8,0 L 55,41 l -2,0 0,4 -16,0 0,-4 -2,0 -8,0 c -2.61799,0 -5.21987,1.07773 -7.07107,2.92893 C 18.07773,45.78014 17,48.38201 17,51 l 0,8 0,596 0,8 c 0,2.618 1.07773,5.2199 2.92893,7.0711 1.8512,1.8512 4.53124,3.5639 7.07107,2.9289 l 8,0 0,4 20,0 0,-4 16,0 0,12 0,12 0,8 c 0,4.1888 -3.93628,6.9841 -8,8 l -8,0 -18,0 -2,0 0,4 -16,0 0,-4 -2,0 -8,0 c -4.18879,0 -8,-3.8112 -8,-8 l 0,-8 z"/><text style="font-size:20px;font-family:Sans;text-anchor:start;fill:#000" id="text3037-5" x="0" y="0"><tspan id="tspan3039-2" x="8" y="30.5">repeat</tspan></text><path style="fill:#ee97a8;fill-opacity:1;stroke:#a75862;stroke-width:2;stroke-linecap:round;stroke-opacity:1" id="path21-8" d="m 112.99999,1.00001 120,0 0,40 -120,0 0,-16 0,-2 -12,0 0,6 -4,0 0,-16 4,0 0,6 12,0 0,-2 z"/><text style="font-size:20px;font-family:Sans;text-anchor:start;fill:#000" id="text23-0" x="143" y="2"><tspan id="tspan25-7" x="163" y="28">4</tspan></text><path id="path3035" d="m 401,17.00001 0,-8 c 0,-4.1887902 3.81121,-8 8,-8 l 8,0 0,4 20,0 0,-4 18,0 116,0 8,0 c 4.18879,0 9.01593,3.9362768 8,8 l 0,8 -8,0 0,-6 -8,0 0,20 8,0 0,-6 8,0 0,8 c 0,4.18879 -3.81121,8 -8,8 l -8,0 -116,0 -2,0 0,4 -16,0 0,-4 -2,0 -8,0 c -2.61799,0 -5.21987,1.077731 -7.07107,2.928932 C 418.07773,45.780143 417,48.382016 417,51.00001 l 0,8 0,596 0,8 c 0,2.61799 1.07773,5.21987 2.92893,7.07107 1.8512,1.8512 4.53125,2.29397 7.07107,2.92893 l 8,0 0,4 20,0 0,-4 16,0 0,12 0,12 0,8 c 0,4.18879 -3.93628,6.98407 -8,8 l -8,0 -18,0 -2,0 0,4 -16,0 0,-4 -2,0 -8,0 c -4.18879,0 -8,-3.81121 -8,-8 l 0,-8 z" style="fill:#f2740b;fill-opacity:1;stroke:#a86129;stroke-width:2;stroke-linecap:round;stroke-opacity:1"/><text id="text3037" x="400" y="0" style="font-size:20px;font-family:Sans;text-anchor:start;fill:#000"><tspan id="tspan3039" x="408" y="30.5">duplicate notes</tspan></text><path style="fill:#ee97a8;fill-opacity:1;stroke:#a75862;stroke-width:2;stroke-linecap:round;stroke-opacity:1" id="path21-8-0" d="m 589,1.00001 120,0 0,40 -120,0 0,-16 0,-2 -12,0 0,6 -4,0 0,-16 4,0 0,6 12,0 0,-2 z"/><text style="font-size:20px;font-family:Sans;text-anchor:start;fill:#000" id="text23-0-4" x="619" y="2"><tspan id="tspan25-7-3" x="639" y="28">4</tspan></text><path style="fill:#76c61c;fill-opacity:1;stroke:#538d38;stroke-width:2;stroke-linecap:round;stroke-opacity:1" id="path3194-2" d="m 437.00001,353 0,-8.00002 a 8.0000007,8.0000006 0 0 1 8,-7.99999 l 8,0 0,4 20,0 0,-4 59.99999,0 8.00001,0 a 8.0000007,8.0000006 0 0 1 8,7.99999 l 0,8.00002 -8,0 0,-6.00002 -8.00001,0 0,20.00002 8.00001,0 0,-6 8,0 0,34 -8,0 0,-5.99999 -8.00001,0 0,19.99999 8.00001,0 0,-6 8,0 0,8 a 8.0000007,8.0000006 0 0 1 -8,8 L 533,419 l -59.99999,0 -2,0 0,4 -16,0 0,-4 -2,0 -8,0 a 8.0000007,8.0000006 0 0 1 -8,-8 l 0,-8 0,-42 0,-8 z"/><text style="font-size:20px;font-family:Sans;text-anchor:end;fill:#000" id="text3196-91" x="436" y="336"><tspan id="tspan3198-2" x="530" y="385">pitch</tspan></text><text style="font-size:13.33333302px;font-family:Sans;text-anchor:end;fill:#000" id="text3200-7" x="436" y="338"><tspan id="tspan3202-0" x="530" y="360.5">name</tspan></text><text style="font-size:13.33333302px;font-family:Sans;text-anchor:end;fill:#000" id="text3204-93" x="436" y="340"><tspan id="tspan3206-6" x="530" y="404.5">octave</tspan></text><path id="path21-0" d="m 551.00001,336.99999 119.99999,0 0,40.00002 -119.99999,0 0,-16.00001 0,-2 -12,0 0,6 -4.00001,0 0,-16.00002 4.00001,0 0,6.00002 12,0 0,-2 z" style="fill:#76c61c;fill-opacity:1;stroke:#538d38;stroke-width:2;stroke-linecap:round;stroke-opacity:1"/><text id="text23-6" x="580" y="336" style="font-size:20px;font-family:Sans;text-anchor:start;fill:#000"><tspan id="tspan25-2" x="600" y="362">re</tspan></text><path style="fill:#ee97a8;fill-opacity:1;stroke:#a75862;stroke-width:2;stroke-linecap:round;stroke-opacity:1" id="path21-6-6" d="M 551.00001,379 671,379 l 0,40 -119.99999,0 0,-16 0,-2 -12,0 0,6 -4.00001,0 0,-16 4.00001,0 0,6 12,0 0,-2 z"/><text style="font-size:20px;font-family:Sans;text-anchor:start;fill:#000" id="text23-9-1" x="586" y="378"><tspan id="tspan25-8-8" x="606" y="404">5</tspan></text><path style="fill:#f2740b;fill-opacity:1;stroke:#a86129;stroke-width:2;stroke-linecap:round;stroke-opacity:1" id="path3035-5" d="m 419,269.00001 0,-8 c 0,-4.41828 3.58172,-8 8,-8 l 8.00001,0 0,4 20,0 0,-4 18,0 59.99999,0 8.00001,0 c 4.41828,0 9.07159,3.71364 8,8 l 0,8 -8,0 0,-6 -8.00001,0 0,20 8.00001,0 0,-6 8,0 0,8 c 0,4.41828 -3.58172,8 -8,8 l -8.00001,0 -59.99999,0 -2,0 0,4 -16,0 0,-4 -2,0 -8,0 c -5.52285,0 -10,4.47715 -10,10 l 0,8 0,92.00001 0,7.99999 c 0,5.52285 4.64205,11.3395 10,10 l 8,0 0,4 20,0 0,-4 16,0 0,12 0,12 0,8 c 0,4.41828 -3.71364,9.07161 -8,8.00001 l -8,0 -18,0 -2,0 0,4 -16,0 0,-4 -2,0 -8.00001,0 c -4.41828,0 -8,-3.58173 -8,-8.00001 l 0,-8 z"/><text style="font-size:20px;font-family:Sans;text-anchor:start;fill:#000" id="text3037-3" x="416" y="250"><tspan id="tspan3039-5" x="424" y="280.5">note value</tspan></text><path style="fill:#ee97a8;fill-opacity:1;stroke:#a75862;stroke-width:2;stroke-linecap:round;stroke-opacity:1" id="path21-6-1-7" d="m 665,295.00001 120,0 0,40 -120,0 0,-16 0,-2 -12,0 0,6 -4,0 0,-16 4,0 0,6 12,0 0,-2 z"/><text style="font-size:20px;font-family:Sans;text-anchor:start;fill:#000" id="text23-9-82-9" x="696" y="294"><tspan id="tspan25-8-5-2" x="716" y="320">4</tspan></text><path style="fill:#ee97a8;fill-opacity:1;stroke:#a75862;stroke-width:2;stroke-linecap:round;stroke-opacity:1" id="path3798-4-4-5" d="m 551.00001,269.00001 0,-8 a 8.0000007,8.0000006 0 0 1 8,-8 l 8,0 20,0 59.99999,0 8,0 a 8.0000007,8.0000006 0 0 1 8,8 l 0,8 -8,0 0,-6 -8,0 0,20 8,0 0,-6 8,0 0,34 -8,0 0,-6 -8,0 0,20 8,0 0,-6 8,0 0,8 a 8.0000007,8.0000006 0 0 1 -8,8 l -8,0 -59.99999,0 -20,0 -8,0 a 8.0000007,8.0000006 0 0 1 -8,-8 l 0,-8 0,-42 0,-2 -12,0 0,6 -4.00001,0 0,-16 4.00001,0 0,6 12,0 0,-2 z"/><text style="font-size:28px;font-family:sans-serif;text-anchor:end;fill:#000" id="text3800-3-2-0" x="526" y="252"><tspan id="tspan3802-6-2-5" x="636" y="301">/</tspan></text><path style="fill:#ee97a8;fill-opacity:1;stroke:#a75862;stroke-width:2;stroke-linecap:round;stroke-opacity:1" id="path21-8-2-1-0-6" d="m 665,253 h 120 v 40 H 665 v -16 -2 h -12 v 6 h -4 v -16 h 4 v 6 h 12 v -2 z"/><text style="font-size:20px;font-family:Sans;text-anchor:start;fill:#000" id="text23-0-1-0-1-0" x="697" y="254"><tspan id="tspan25-7-0-5-2-5" x="717" y="280">1</tspan></text><path id="path3124" d="m 437.00001,311.00001 0,-8 c 0,-4.41828 3.58172,-8 8,-8 l 8,0 0,4 20,0 0,-4 59.99999,0 8.00001,0 c 4.41828,0 8,3.58172 8,8 l 0,8 0,8 0,8 c 0,4.41828 -3.71364,6.92841 -8,8 l -8.00001,0 -59.99999,0 -2,0 0,4 -16,0 0,-4 -2,0 -8,0 c -4.41828,0 -8,-3.58172 -8,-8 l 0,-8 0,0 z" style="fill:#be6152;fill-opacity:1;stroke:#923111;stroke-width:2;stroke-linecap:round;stroke-opacity:1"/><text style="font-style:normal;font-weight:400;font-size:16px;line-height:125%;font-family:sans-serif;text-align:center;letter-spacing:0;word-spacing:0;text-anchor:middle;fill:#000;fill-opacity:1;stroke:none;stroke-width:1px;stroke-linecap:butt;stroke-linejoin:miter;stroke-opacity:1" id="text6137" x="518.823" y="321.923" xml:space="preserve"><tspan id="tspan6139" x="518.823" y="321.923" style="font-size:22.5px">↓</tspan></text><path style="fill:#76c61c;fill-opacity:1;stroke:#538d38;stroke-width:2;stroke-linecap:round;stroke-opacity:1" id="path3194-2-1" d="m 437.00001,562.99999 0,-8.00001 a 8.0000014,8.0000012 0 0 1 8,-8 l 8,0 0,4 20.00001,0 0,-4 59.99998,0 8.00002,0 a 8.0000014,8.0000012 0 0 1 8,8 l 0,8.00001 -8,0 0,-6.00001 -8.00002,0 0,20.00001 8.00002,0 0,-6 8,0 0,34 -8,0 0,-5.99999 -8.00002,0 0,19.99999 8.00002,0 0,-6 8,0 0,8 a 8.0000014,8.0000012 0 0 1 -8,8 l -8.00002,0 -59.99998,0 -2.00001,0 0,4 -16,0 0,-4 -2,0 -8,0 a 8.0000014,8.0000012 0 0 1 -8,-8 l 0,-8 0,-42 0,-8 z"/><text style="font-size:20px;font-family:Sans;text-anchor:end;fill:#000" id="text3196-91-5" x="436" y="546"><tspan id="tspan3198-2-5" x="530" y="595">pitch</tspan></text><text style="font-size:13.33333302px;font-family:Sans;text-anchor:end;fill:#000" id="text3200-7-4" x="436" y="548"><tspan id="tspan3202-0-7" x="530" y="570.5">name</tspan></text><text style="font-size:13.33333302px;font-family:Sans;text-anchor:end;fill:#000" id="text3204-93-6" x="436" y="550"><tspan id="tspan3206-6-5" x="530" y="614.5">octave</tspan></text><path id="path21-0-6" d="m 551.00002,546.99998 119.99998,0 0,40.00002 -119.99998,0 0,-16.00001 0,-2 -12,0 0,6 -4.00002,0 0,-16.00001 4.00002,0 0,6.00001 12,0 0,-2 z" style="fill:#76c61c;fill-opacity:1;stroke:#538d38;stroke-width:2;stroke-linecap:round;stroke-opacity:1"/><text id="text23-6-9" x="576" y="546" style="font-size:20px;font-family:Sans;text-anchor:start;fill:#000"><tspan id="tspan25-2-3" x="596" y="572">sol</tspan></text><path style="fill:#ee97a8;fill-opacity:1;stroke:#a75862;stroke-width:2;stroke-linecap:round;stroke-opacity:1" id="path21-6-6-7" d="m 551.00002,588.99999 119.99998,0 0,40 -119.99998,0 0,-16 0,-2 -12,0 0,6 -4.00002,0 0,-16 4.00002,0 0,6 12,0 0,-2 z"/><text style="font-size:20px;font-family:Sans;text-anchor:start;fill:#000" id="text23-9-1-4" x="586" y="588"><tspan id="tspan25-8-8-5" x="606" y="614">5</tspan></text><path style="fill:#f2740b;fill-opacity:1;stroke:#a86129;stroke-width:2;stroke-linecap:round;stroke-opacity:1" id="path3035-5-2" d="m 419,478.99999 0,-8 c 0,-4.41828 3.58173,-8 8.00001,-8 l 8,0 0,4 20,0 0,-4 18.00001,0 59.99998,0 8.00002,0 c 4.41828,0 9.07159,3.71364 8,8 l 0,8 -8,0 0,-6 -8.00002,0 0,20 8.00002,0 0,-6 8,0 0,8 c 0,4.41828 -3.58172,8 -8,8 l -8.00002,0 -59.99998,0 -2.00001,0 0,4 -16,0 0,-4 -2,0 -8,0 c -5.52285,0 -10,4.47715 -10,10 l 0,8 0,92.00002 0,7.99999 c 0,5.52285 4.64205,11.3395 10,10 l 8,0 0,4 20.00001,0 0,-4 16,0 0,12 0,12 0,8 c 0,4.41828 -3.71364,9.07162 -8,8.00002 l -8,0 -18.00001,0 -2,0 0,4 -16,0 0,-4 -2,0 -8,0 C 422.58173,671.00002 419,667.41828 419,663 l 0,-8 z"/><text style="font-size:20px;font-family:Sans;text-anchor:start;fill:#000" id="text3037-3-5" x="416" y="460"><tspan id="tspan3039-5-4" x="424" y="490.5">note value</tspan></text><path style="fill:#ee97a8;fill-opacity:1;stroke:#a75862;stroke-width:2;stroke-linecap:round;stroke-opacity:1" id="path21-6-1-7-7" d="m 665,504.99999 120.0001,0 0,40.00001 -120.0001,0 0,-16.00001 0,-2 -12,0 0,6 -4,0 0,-16 4,0 0,6 12,0 0,-2 z"/><text style="font-size:20px;font-family:Sans;text-anchor:start;fill:#000" id="text23-9-82-9-4" x="696" y="504"><tspan id="tspan25-8-5-2-4" x="716" y="530">2</tspan></text><path style="fill:#ee97a8;fill-opacity:1;stroke:#a75862;stroke-width:2;stroke-linecap:round;stroke-opacity:1" id="path3798-4-4-5-3" d="m 551.00002,478.99999 0,-8 a 8.0000014,8.0000012 0 0 1 8,-8 l 8,0 20,0 59.99998,0 8,0 a 8.0000014,8.0000012 0 0 1 8,8 l 0,8 -8,0 0,-6 -8,0 0,20 8,0 0,-6 8,0 0,34 -8,0 0,-6 -8,0 0,20 8,0 0,-6 8,0 0,8 A 8.0000014,8.0000012 0 0 1 655,545 l -8,0 -59.99998,0 -20,0 -8,0 a 8.0000014,8.0000012 0 0 1 -8,-8.00001 l 0,-8 0,-42 0,-2 -12,0 0,6 -4.00002,0 0,-16 4.00002,0 0,6 12,0 0,-2 z"/><text style="font-size:28px;font-family:sans-serif;text-anchor:end;fill:#000" id="text3800-3-2-0-0" x="526" y="462"><tspan id="tspan3802-6-2-5-7" x="636" y="511">/</tspan></text><path style="fill:#ee97a8;fill-opacity:1;stroke:#a75862;stroke-width:2;stroke-linecap:round;stroke-opacity:1" id="path21-8-2-1-0-6-6" d="m 665,462.99997 h 120 v 40 H 665 v -16 -2 h -12 v 6 h -4 v -16 h 4 v 6 h 12 v -2 z"/><text style="font-size:20px;font-family:Sans;text-anchor:start;fill:#000" id="text23-0-1-0-1-0-8" x="697" y="464"><tspan id="tspan25-7-0-5-2-5-8" x="717" y="490">1</tspan></text><path id="path3124-4" d="m 437.00001,520.99999 0,-8 c 0,-4.41828 3.58172,-8 8,-8 l 8,0 0,4 20.00001,0 0,-4 59.99998,0 8.00002,0 c 4.41828,0 8,3.58172 8,8 l 0,8 0,8 0,8 c 0,4.41829 -3.71364,6.92842 -8,8.00001 L 533,545 l -59.99998,0 -2.00001,0 0,4 -16,0 0,-4 -2,0 -8,0 c -4.41828,0 -8,-3.58172 -8,-8.00001 l 0,-8 0,0 z" style="fill:#be6152;fill-opacity:1;stroke:#923111;stroke-width:2;stroke-linecap:round;stroke-opacity:1"/><text style="font-style:normal;font-weight:400;font-size:16px;line-height:125%;font-family:sans-serif;text-align:center;letter-spacing:0;word-spacing:0;text-anchor:middle;fill:#000;fill-opacity:1;stroke:none;stroke-width:1px;stroke-linecap:butt;stroke-linejoin:miter;stroke-opacity:1" id="text6137-3" x="518.823" y="531.923" xml:space="preserve"><tspan id="tspan6139-1" x="518.823" y="531.923" style="font-size:22.5px">↓</tspan></text><path id="path21-0-2" d="m 551,126.99999 h 120 v 40.00002 H 551 V 151 149 h -12 v 6 h -4 v -16.00002 h 4 V 145 h 12 v -2 z" style="fill:#76c61c;fill-opacity:1;stroke:#538d38;stroke-width:2;stroke-linecap:round;stroke-opacity:1"/><text id="text23-6-91" x="574" y="126" style="font-size:20px;font-family:Sans;text-anchor:start;fill:#000"><tspan id="tspan25-2-2" x="594" y="152">sol</tspan></text><path style="fill:#ee97a8;fill-opacity:1;stroke:#a75862;stroke-width:2;stroke-linecap:round;stroke-opacity:1" id="path21-6-6-70" d="m 551,169 h 120 v 40 H 551 v -16 -2 h -12 v 6 h -4 v -16 h 4 v 6 h 12 v -2 z"/><text style="font-size:20px;font-family:Sans;text-anchor:start;fill:#000" id="text23-9-1-9" x="586" y="168"><tspan id="tspan25-8-8-3" x="606" y="194">5</tspan></text><path style="fill:#ee97a8;fill-opacity:1;stroke:#a75862;stroke-width:2;stroke-linecap:round;stroke-opacity:1" id="path21-6-1-7-2" d="m 665,85.00001 h 120 v 40 H 665 v -16 -2 h -12 v 6 h -4 v -16 h 4 v 6 h 12 v -2 z"/><text style="font-size:20px;font-family:Sans;text-anchor:start;fill:#000" id="text23-9-82-9-6" x="696" y="84"><tspan id="tspan25-8-5-2-1" x="716" y="110">4</tspan></text><path style="fill:#ee97a8;fill-opacity:1;stroke:#a75862;stroke-width:2;stroke-linecap:round;stroke-opacity:1" id="path3798-4-4-5-8" d="m 551,59.00001 v -8 a 8.0000007,8.0000006 0 0 1 8,-8 h 8 20 60 8 a 8.0000007,8.0000006 0 0 1 8,8 v 8 h -8 v -6 h -8 v 20 h 8 v -6 h 8 v 34 h -8 v -6 h -8 v 20 h 8 v -6 h 8 v 8 a 8.0000007,8.0000006 0 0 1 -8,8 h -8 -60 -20 -8 a 8.0000007,8.0000006 0 0 1 -8,-8 v -8 -42 -2 h -12 v 6 h -4 v -16 h 4 v 6 h 12 z"/><text style="font-size:28px;font-family:sans-serif;text-anchor:end;fill:#000" id="text3800-3-2-0-7" x="526" y="42"><tspan id="tspan3802-6-2-5-9" x="636" y="91">/</tspan></text><path style="fill:#ee97a8;fill-opacity:1;stroke:#a75862;stroke-width:2;stroke-linecap:round;stroke-opacity:1" id="path21-8-2-1-0-6-0" d="M 665,43 H 785 V 83 H 665 V 67 65 h -12 v 6 h -4 V 55 h 4 v 6 h 12 v -2 z"/><text style="font-size:20px;font-family:Sans;text-anchor:start;fill:#000" id="text23-0-1-0-1-0-2" x="697" y="44"><tspan id="tspan25-7-0-5-2-5-3" x="717" y="70">1</tspan></text><path style="fill:#76c61c;fill-opacity:1;stroke:#538d38;stroke-width:2;stroke-linecap:round;stroke-opacity:1" id="path3194-2-3" d="m 437,143 v -8.00002 a 8.0000007,8.0000006 0 0 1 8,-7.99999 h 8 v 4 h 20 v -4 h 60 8 a 8.0000007,8.0000006 0 0 1 8,7.99999 V 143 h -8 v -6.00002 h -8 V 157 h 8 v -6 h 8 v 34 h -8 v -5.99999 h -8 V 199 h 8 v -6 h 8 v 8 a 8.0000007,8.0000006 0 0 1 -8,8 h -8 -60 -2 v 4 h -16 v -4 h -2 -8 a 8.0000007,8.0000006 0 0 1 -8,-8 v -8 -42 z"/><text style="font-size:20px;font-family:Sans;text-anchor:end;fill:#000" id="text3196-91-6" x="436" y="126"><tspan id="tspan3198-2-7" x="530" y="175">pitch</tspan></text><text style="font-size:13.33333302px;font-family:Sans;text-anchor:end;fill:#000" id="text3200-7-5" x="436" y="128"><tspan id="tspan3202-0-3" x="530" y="150.5">name</tspan></text><text style="font-size:13.33333302px;font-family:Sans;text-anchor:end;fill:#000" id="text3204-93-5" x="436" y="130"><tspan id="tspan3206-6-6" x="530" y="194.5">octave</tspan></text><path style="fill:#f2740b;fill-opacity:1;stroke:#a86129;stroke-width:2;stroke-linecap:round;stroke-opacity:1" id="path3035-5-6" d="m 419,59.00001 v -8 c 0,-4.41828 3.5817,-8 8,-8 h 8 v 4 h 20 v -4 h 18 60 8 c 4.4183,0 9.0716,3.71364 8,8 v 8 h -8 v -6 h -8 v 20 h 8 v -6 h 8 v 8 c 0,4.41828 -3.5817,8 -8,8 h -8 -60 -2 v 4 h -16 v -4 h -2 -8 c -5.5229,0 -10,4.47715 -10,10 v 8 92.00001 7.99999 c 0,5.52285 4.642,11.3395 10,10 h 8 v 4 h 20 v -4 h 16 v 12 12 8 c 0,4.41828 -3.7137,9.07161 -8,8.00001 h -8 -18 -2 v 4 h -16 v -4 h -2 -8 c -4.4183,0 -8,-3.58173 -8,-8.00001 v -8 z"/><text style="font-size:20px;font-family:Sans;text-anchor:start;fill:#000" id="text3037-3-0" x="416" y="40"><tspan id="tspan3039-5-6" x="424" y="70.5">note value</tspan></text><path id="path3124-7" d="m 437,101.00001 v -8 c 0,-4.41828 3.5817,-8 8,-8 h 8 v 4 h 20 v -4 h 60 8 c 4.4183,0 8,3.58172 8,8 v 8 8 8 c 0,4.41828 -3.7137,6.92841 -8,8 h -8 -60 -2 v 4 h -16 v -4 h -2 -8 c -4.4183,0 -8,-3.58172 -8,-8 v -8 0 z" style="fill:#be6152;fill-opacity:1;stroke:#923111;stroke-width:2;stroke-linecap:round;stroke-opacity:1"/><text style="font-style:normal;font-weight:400;font-size:16px;line-height:125%;font-family:sans-serif;text-align:center;letter-spacing:0;word-spacing:0;text-anchor:middle;fill:#000;fill-opacity:1;stroke:none;stroke-width:1px;stroke-linecap:butt;stroke-linejoin:miter;stroke-opacity:1" id="text6137-5" x="518.823" y="111.923" xml:space="preserve"><tspan id="tspan6139-9" x="518.823" y="111.923" style="font-size:22.5px">↓</tspan></text><path style="fill:#76c61c;fill-opacity:1;stroke:#538d38;stroke-width:2;stroke-linecap:round;stroke-opacity:1" id="path3194-2-2" d="m 37.00001,353 0,-8.00002 a 8.0000007,8.0000006 0 0 1 8,-7.99999 l 8,0 0,4 20,0 0,-4 59.99999,0 8.00001,0 a 8.0000007,8.0000006 0 0 1 8,7.99999 l 0,8.00002 -8,0 0,-6.00002 -8.00001,0 0,20.00002 8.00001,0 0,-6 8,0 0,34 -8,0 0,-5.99999 -8.00001,0 0,19.99999 8.00001,0 0,-6 8,0 0,8 a 8.0000007,8.0000006 0 0 1 -8,8 L 133,419 l -59.99999,0 -2,0 0,4 -16,0 0,-4 -2,0 -8,0 a 8.0000007,8.0000006 0 0 1 -8,-8 l 0,-8 0,-42 0,-8 z"/><text style="font-size:20px;font-family:Sans;text-anchor:end;fill:#000" id="text3196-91-2" x="36" y="336"><tspan id="tspan3198-2-8" x="130" y="385">pitch</tspan></text><text style="font-size:13.33333302px;font-family:Sans;text-anchor:end;fill:#000" id="text3200-7-9" x="36" y="338"><tspan id="tspan3202-0-73" x="130" y="360.5">name</tspan></text><text style="font-size:13.33333302px;font-family:Sans;text-anchor:end;fill:#000" id="text3204-93-61" x="36" y="340"><tspan id="tspan3206-6-2" x="130" y="404.5">octave</tspan></text><path id="path21-0-9" d="m 151.00001,336.99999 119.99999,0 0,40.00002 -119.99999,0 0,-16.00001 0,-2 -12,0 0,6 -4.00001,0 0,-16.00002 4.00001,0 0,6.00002 12,0 0,-2 z" style="fill:#76c61c;fill-opacity:1;stroke:#538d38;stroke-width:2;stroke-linecap:round;stroke-opacity:1"/><text id="text23-6-3" x="180" y="336" style="font-size:20px;font-family:Sans;text-anchor:start;fill:#000"><tspan id="tspan25-2-1" x="200" y="362">re</tspan></text><path style="fill:#ee97a8;fill-opacity:1;stroke:#a75862;stroke-width:2;stroke-linecap:round;stroke-opacity:1" id="path21-6-6-9" d="M 151.00001,379 271,379 l 0,40 -119.99999,0 0,-16 0,-2 -12,0 0,6 -4.00001,0 0,-16 4.00001,0 0,6 12,0 0,-2 z"/><text style="font-size:20px;font-family:Sans;text-anchor:start;fill:#000" id="text23-9-1-47" x="186" y="378"><tspan id="tspan25-8-8-8" x="206" y="404">5</tspan></text><path style="fill:#f2740b;fill-opacity:1;stroke:#a86129;stroke-width:2;stroke-linecap:round;stroke-opacity:1" id="path3035-5-4" d="m 19,269.00001 0,-8 c 0,-4.41828 3.58172,-8 8,-8 l 8.00001,0 0,4 20,0 0,-4 18,0 59.99999,0 8.00001,0 c 4.41828,0 9.07159,3.71364 8,8 l 0,8 -8,0 0,-6 -8.00001,0 0,20 8.00001,0 0,-6 8,0 0,8 c 0,4.41828 -3.58172,8 -8,8 l -8.00001,0 -59.99999,0 -2,0 0,4 -16,0 0,-4 -2,0 -8,0 c -5.52285,0 -10,4.47715 -10,10 l 0,8 0,92.00001 0,7.99999 c 0,5.52285 4.64205,11.3395 10,10 l 8,0 0,4 20,0 0,-4 16,0 0,12 0,12 0,8 c 0,4.41828 -3.71364,9.07161 -8,8.00001 l -8,0 -18,0 -2,0 0,4 -16,0 0,-4 -2,0 -8.00001,0 c -4.41828,0 -8,-3.58173 -8,-8.00001 l 0,-8 z"/><text style="font-size:20px;font-family:Sans;text-anchor:start;fill:#000" id="text3037-3-50" x="16" y="250"><tspan id="tspan3039-5-3" x="24" y="280.5">note value</tspan></text><path style="fill:#ee97a8;fill-opacity:1;stroke:#a75862;stroke-width:2;stroke-linecap:round;stroke-opacity:1" id="path21-6-1-7-6" d="m 265,295.00001 120,0 0,40 -120,0 0,-16 0,-2 -12,0 0,6 -4,0 0,-16 4,0 0,6 12,0 0,-2 z"/><text style="font-size:20px;font-family:Sans;text-anchor:start;fill:#000" id="text23-9-82-9-1" x="296" y="294"><tspan id="tspan25-8-5-2-0" x="316" y="320">4</tspan></text><path style="fill:#ee97a8;fill-opacity:1;stroke:#a75862;stroke-width:2;stroke-linecap:round;stroke-opacity:1" id="path3798-4-4-5-6" d="m 151.00001,269.00001 0,-8 a 8.0000007,8.0000006 0 0 1 8,-8 l 8,0 20,0 59.99999,0 8,0 a 8.0000007,8.0000006 0 0 1 8,8 l 0,8 -8,0 0,-6 -8,0 0,20 8,0 0,-6 8,0 0,34 -8,0 0,-6 -8,0 0,20 8,0 0,-6 8,0 0,8 a 8.0000007,8.0000006 0 0 1 -8,8 l -8,0 -59.99999,0 -20,0 -8,0 a 8.0000007,8.0000006 0 0 1 -8,-8 l 0,-8 0,-42 0,-2 -12,0 0,6 -4.00001,0 0,-16 4.00001,0 0,6 12,0 0,-2 z"/><text style="font-size:28px;font-family:sans-serif;text-anchor:end;fill:#000" id="text3800-3-2-0-3" x="126" y="252"><tspan id="tspan3802-6-2-5-2" x="236" y="301">/</tspan></text><path style="fill:#ee97a8;fill-opacity:1;stroke:#a75862;stroke-width:2;stroke-linecap:round;stroke-opacity:1" id="path21-8-2-1-0-6-61" d="m 265,253 h 120 v 40 H 265 v -16 -2 h -12 v 6 h -4 v -16 h 4 v 6 h 12 v -2 z"/><text style="font-size:20px;font-family:Sans;text-anchor:start;fill:#000" id="text23-0-1-0-1-0-5" x="297" y="254"><tspan id="tspan25-7-0-5-2-5-5" x="317" y="280">1</tspan></text><path id="path3124-47" d="m 37.00001,311.00001 0,-8 c 0,-4.41828 3.58172,-8 8,-8 l 8,0 0,4 20,0 0,-4 59.99999,0 8.00001,0 c 4.41828,0 8,3.58172 8,8 l 0,8 0,8 0,8 c 0,4.41828 -3.71364,6.92841 -8,8 l -8.00001,0 -59.99999,0 -2,0 0,4 -16,0 0,-4 -2,0 -8,0 c -4.41828,0 -8,-3.58172 -8,-8 l 0,-8 0,0 z" style="fill:#be6152;fill-opacity:1;stroke:#923111;stroke-width:2;stroke-linecap:round;stroke-opacity:1"/><text style="font-style:normal;font-weight:400;font-size:16px;line-height:125%;font-family:sans-serif;text-align:center;letter-spacing:0;word-spacing:0;text-anchor:middle;fill:#000;fill-opacity:1;stroke:none;stroke-width:1px;stroke-linecap:butt;stroke-linejoin:miter;stroke-opacity:1" id="text6137-6" x="118.823" y="321.923" xml:space="preserve"><tspan id="tspan6139-5" x="118.823" y="321.923" style="font-size:22.5px">↓</tspan></text><path style="fill:#76c61c;fill-opacity:1;stroke:#538d38;stroke-width:2;stroke-linecap:round;stroke-opacity:1" id="path3194-2-1-6" d="m 37.00001,562.99999 0,-8.00001 a 8.0000014,8.0000012 0 0 1 8,-8 l 8,0 0,4 20.00001,0 0,-4 59.99998,0 8.00002,0 a 8.0000014,8.0000012 0 0 1 8,8 l 0,8.00001 -8,0 0,-6.00001 -8.00002,0 0,20.00001 8.00002,0 0,-6 8,0 0,34 -8,0 0,-5.99999 -8.00002,0 0,19.99999 8.00002,0 0,-6 8,0 0,8 a 8.0000014,8.0000012 0 0 1 -8,8 l -8.00002,0 -59.99998,0 -2.00001,0 0,4 -16,0 0,-4 -2,0 -8,0 a 8.0000014,8.0000012 0 0 1 -8,-8 l 0,-8 0,-42 0,-8 z"/><text style="font-size:20px;font-family:Sans;text-anchor:end;fill:#000" id="text3196-91-5-9" x="36" y="546"><tspan id="tspan3198-2-5-3" x="130" y="595">pitch</tspan></text><text style="font-size:13.33333302px;font-family:Sans;text-anchor:end;fill:#000" id="text3200-7-4-7" x="36" y="548"><tspan id="tspan3202-0-7-4" x="130" y="570.5">name</tspan></text><text style="font-size:13.33333302px;font-family:Sans;text-anchor:end;fill:#000" id="text3204-93-6-5" x="36" y="550"><tspan id="tspan3206-6-5-2" x="130" y="614.5">octave</tspan></text><path id="path21-0-6-5" d="m 151.00002,546.99998 119.99998,0 0,40.00002 -119.99998,0 0,-16.00001 0,-2 -12,0 0,6 -4.00002,0 0,-16.00001 4.00002,0 0,6.00001 12,0 0,-2 z" style="fill:#76c61c;fill-opacity:1;stroke:#538d38;stroke-width:2;stroke-linecap:round;stroke-opacity:1"/><text id="text23-6-9-4" x="176" y="546" style="font-size:20px;font-family:Sans;text-anchor:start;fill:#000"><tspan id="tspan25-2-3-7" x="196" y="572">sol</tspan></text><path style="fill:#ee97a8;fill-opacity:1;stroke:#a75862;stroke-width:2;stroke-linecap:round;stroke-opacity:1" id="path21-6-6-7-4" d="m 151.00002,588.99999 119.99998,0 0,40 -119.99998,0 0,-16 0,-2 -12,0 0,6 -4.00002,0 0,-16 4.00002,0 0,6 12,0 0,-2 z"/><text style="font-size:20px;font-family:Sans;text-anchor:start;fill:#000" id="text23-9-1-4-4" x="186" y="588"><tspan id="tspan25-8-8-5-3" x="206" y="614">5</tspan></text><path style="fill:#f2740b;fill-opacity:1;stroke:#a86129;stroke-width:2;stroke-linecap:round;stroke-opacity:1" id="path3035-5-2-0" d="m 19,478.99999 0,-8 c 0,-4.41828 3.58173,-8 8.00001,-8 l 8,0 0,4 20,0 0,-4 18.00001,0 59.99998,0 8.00002,0 c 4.41828,0 9.07159,3.71364 8,8 l 0,8 -8,0 0,-6 -8.00002,0 0,20 8.00002,0 0,-6 8,0 0,8 c 0,4.41828 -3.58172,8 -8,8 l -8.00002,0 -59.99998,0 -2.00001,0 0,4 -16,0 0,-4 -2,0 -8,0 c -5.52285,0 -10,4.47715 -10,10 l 0,8 0,92.00002 0,7.99999 c 0,5.52285 4.64205,11.3395 10,10 l 8,0 0,4 20.00001,0 0,-4 16,0 0,12 0,12 0,8 c 0,4.41828 -3.71364,9.07162 -8,8.00002 l -8,0 -18.00001,0 -2,0 0,4 -16,0 0,-4 -2,0 -8,0 C 22.58173,671.00002 19,667.41828 19,663 l 0,-8 z"/><text style="font-size:20px;font-family:Sans;text-anchor:start;fill:#000" id="text3037-3-5-7" x="16" y="460"><tspan id="tspan3039-5-4-8" x="24" y="490.5">note value</tspan></text><path style="fill:#ee97a8;fill-opacity:1;stroke:#a75862;stroke-width:2;stroke-linecap:round;stroke-opacity:1" id="path21-6-1-7-7-6" d="m 265,504.99999 120.0001,0 0,40.00001 -120.0001,0 0,-16.00001 0,-2 -12,0 0,6 -4,0 0,-16 4,0 0,6 12,0 0,-2 z"/><text style="font-size:20px;font-family:Sans;text-anchor:start;fill:#000" id="text23-9-82-9-4-8" x="296" y="504"><tspan id="tspan25-8-5-2-4-8" x="316" y="530">2</tspan></text><path style="fill:#ee97a8;fill-opacity:1;stroke:#a75862;stroke-width:2;stroke-linecap:round;stroke-opacity:1" id="path3798-4-4-5-3-4" d="m 151.00002,478.99999 0,-8 a 8.0000014,8.0000012 0 0 1 8,-8 l 8,0 20,0 59.99998,0 8,0 a 8.0000014,8.0000012 0 0 1 8,8 l 0,8 -8,0 0,-6 -8,0 0,20 8,0 0,-6 8,0 0,34 -8,0 0,-6 -8,0 0,20 8,0 0,-6 8,0 0,8 A 8.0000014,8.0000012 0 0 1 255,545 l -8,0 -59.99998,0 -20,0 -8,0 a 8.0000014,8.0000012 0 0 1 -8,-8.00001 l 0,-8 0,-42 0,-2 -12,0 0,6 -4.00002,0 0,-16 4.00002,0 0,6 12,0 0,-2 z"/><text style="font-size:28px;font-family:sans-serif;text-anchor:end;fill:#000" id="text3800-3-2-0-0-3" x="126" y="462"><tspan id="tspan3802-6-2-5-7-1" x="236" y="511">/</tspan></text><path style="fill:#ee97a8;fill-opacity:1;stroke:#a75862;stroke-width:2;stroke-linecap:round;stroke-opacity:1" id="path21-8-2-1-0-6-6-9" d="m 265,462.99997 h 120 v 40 H 265 v -16 -2 h -12 v 6 h -4 v -16 h 4 v 6 h 12 v -2 z"/><text style="font-size:20px;font-family:Sans;text-anchor:start;fill:#000" id="text23-0-1-0-1-0-8-2" x="297" y="464"><tspan id="tspan25-7-0-5-2-5-8-0" x="317" y="490">1</tspan></text><path id="path3124-4-6" d="m 37.00001,520.99999 0,-8 c 0,-4.41828 3.58172,-8 8,-8 l 8,0 0,4 20.00001,0 0,-4 59.99998,0 8.00002,0 c 4.41828,0 8,3.58172 8,8 l 0,8 0,8 0,8 c 0,4.41829 -3.71364,6.92842 -8,8.00001 L 133,545 l -59.99998,0 -2.00001,0 0,4 -16,0 0,-4 -2,0 -8,0 c -4.41828,0 -8,-3.58172 -8,-8.00001 l 0,-8 0,0 z" style="fill:#be6152;fill-opacity:1;stroke:#923111;stroke-width:2;stroke-linecap:round;stroke-opacity:1"/><text style="font-style:normal;font-weight:400;font-size:16px;line-height:125%;font-family:sans-serif;text-align:center;letter-spacing:0;word-spacing:0;text-anchor:middle;fill:#000;fill-opacity:1;stroke:none;stroke-width:1px;stroke-linecap:butt;stroke-linejoin:miter;stroke-opacity:1" id="text6137-3-8" x="118.823" y="531.923" xml:space="preserve"><tspan id="tspan6139-1-9" x="118.823" y="531.923" style="font-size:22.5px">↓</tspan></text><path id="path21-0-2-6" d="m 151,126.99999 h 120 v 40.00002 H 151 V 151 149 h -12 v 6 h -4 v -16.00002 h 4 V 145 h 12 v -2 z" style="fill:#76c61c;fill-opacity:1;stroke:#538d38;stroke-width:2;stroke-linecap:round;stroke-opacity:1"/><text id="text23-6-91-6" x="174" y="126" style="font-size:20px;font-family:Sans;text-anchor:start;fill:#000"><tspan id="tspan25-2-2-4" x="194" y="152">sol</tspan></text><path style="fill:#ee97a8;fill-opacity:1;stroke:#a75862;stroke-width:2;stroke-linecap:round;stroke-opacity:1" id="path21-6-6-70-9" d="m 151,169 h 120 v 40 H 151 v -16 -2 h -12 v 6 h -4 v -16 h 4 v 6 h 12 v -2 z"/><text style="font-size:20px;font-family:Sans;text-anchor:start;fill:#000" id="text23-9-1-9-5" x="186" y="168"><tspan id="tspan25-8-8-3-0" x="206" y="194">5</tspan></text><path style="fill:#ee97a8;fill-opacity:1;stroke:#a75862;stroke-width:2;stroke-linecap:round;stroke-opacity:1" id="path21-6-1-7-2-4" d="m 265,85.00001 h 120 v 40 H 265 v -16 -2 h -12 v 6 h -4 v -16 h 4 v 6 h 12 v -2 z"/><text style="font-size:20px;font-family:Sans;text-anchor:start;fill:#000" id="text23-9-82-9-6-8" x="296" y="84"><tspan id="tspan25-8-5-2-1-7" x="316" y="110">4</tspan></text><path style="fill:#ee97a8;fill-opacity:1;stroke:#a75862;stroke-width:2;stroke-linecap:round;stroke-opacity:1" id="path3798-4-4-5-8-1" d="m 151,59.00001 v -8 a 8.0000007,8.0000006 0 0 1 8,-8 h 8 20 60 8 a 8.0000007,8.0000006 0 0 1 8,8 v 8 h -8 v -6 h -8 v 20 h 8 v -6 h 8 v 34 h -8 v -6 h -8 v 20 h 8 v -6 h 8 v 8 a 8.0000007,8.0000006 0 0 1 -8,8 h -8 -60 -20 -8 a 8.0000007,8.0000006 0 0 1 -8,-8 v -8 -42 -2 h -12 v 6 h -4 v -16 h 4 v 6 h 12 z"/><text style="font-size:28px;font-family:sans-serif;text-anchor:end;fill:#000" id="text3800-3-2-0-7-7" x="126" y="42"><tspan id="tspan3802-6-2-5-9-2" x="236" y="91">/</tspan></text><path style="fill:#ee97a8;fill-opacity:1;stroke:#a75862;stroke-width:2;stroke-linecap:round;stroke-opacity:1" id="path21-8-2-1-0-6-0-2" d="M 265,43 H 385 V 83 H 265 V 67 65 h -12 v 6 h -4 V 55 h 4 v 6 h 12 v -2 z"/><text style="font-size:20px;font-family:Sans;text-anchor:start;fill:#000" id="text23-0-1-0-1-0-2-2" x="297" y="44"><tspan id="tspan25-7-0-5-2-5-3-6" x="317" y="70">1</tspan></text><path style="fill:#76c61c;fill-opacity:1;stroke:#538d38;stroke-width:2;stroke-linecap:round;stroke-opacity:1" id="path3194-2-3-0" d="m 37,143 v -8.00002 a 8.0000007,8.0000006 0 0 1 8,-7.99999 h 8 v 4 h 20 v -4 h 60 8 a 8.0000007,8.0000006 0 0 1 8,7.99999 V 143 h -8 v -6.00002 h -8 V 157 h 8 v -6 h 8 v 34 h -8 v -5.99999 h -8 V 199 h 8 v -6 h 8 v 8 a 8.0000007,8.0000006 0 0 1 -8,8 h -8 -60 -2 v 4 H 55 v -4 h -2 -8 a 8.0000007,8.0000006 0 0 1 -8,-8 v -8 -42 z"/><text style="font-size:20px;font-family:Sans;text-anchor:end;fill:#000" id="text3196-91-6-6" x="36" y="126"><tspan id="tspan3198-2-7-1" x="130" y="175">pitch</tspan></text><text style="font-size:13.33333302px;font-family:Sans;text-anchor:end;fill:#000" id="text3200-7-5-5" x="36" y="128"><tspan id="tspan3202-0-3-9" x="130" y="150.5">name</tspan></text><text style="font-size:13.33333302px;font-family:Sans;text-anchor:end;fill:#000" id="text3204-93-5-4" x="36" y="130"><tspan id="tspan3206-6-6-9" x="130" y="194.5">octave</tspan></text><path style="fill:#f2740b;fill-opacity:1;stroke:#a86129;stroke-width:2;stroke-linecap:round;stroke-opacity:1" id="path3035-5-6-0" d="m 19,59.00001 v -8 c 0,-4.41828 3.5817,-8 8,-8 h 8 v 4 h 20 v -4 h 18 60 8 c 4.4183,0 9.0716,3.71364 8,8 v 8 h -8 v -6 h -8 v 20 h 8 v -6 h 8 v 8 c 0,4.41828 -3.5817,8 -8,8 h -8 -60 -2 v 4 H 55 v -4 h -2 -8 c -5.5229,0 -10,4.47715 -10,10 v 8 92.00001 7.99999 c 0,5.52285 4.642,11.3395 10,10 h 8 v 4 h 20 v -4 h 16 v 12 12 8 c 0,4.41828 -3.7137,9.07161 -8,8.00001 H 73 55 53 v 4 H 37 v -4 h -2 -8 c -4.4183,0 -8,-3.58173 -8,-8.00001 v -8 z"/><text style="font-size:20px;font-family:Sans;text-anchor:start;fill:#000" id="text3037-3-0-9" x="16" y="40"><tspan id="tspan3039-5-6-1" x="24" y="70.5">note value</tspan></text><path id="path3124-7-7" d="m 37,101.00001 v -8 c 0,-4.41828 3.5817,-8 8,-8 h 8 v 4 h 20 v -4 h 60 8 c 4.4183,0 8,3.58172 8,8 v 8 8 8 c 0,4.41828 -3.7137,6.92841 -8,8 h -8 -60 -2 v 4 H 55 v -4 h -2 -8 c -4.4183,0 -8,-3.58172 -8,-8 v -8 0 z" style="fill:#be6152;fill-opacity:1;stroke:#923111;stroke-width:2;stroke-linecap:round;stroke-opacity:1"/><text style="font-style:normal;font-weight:400;font-size:16px;line-height:125%;font-family:sans-serif;text-align:center;letter-spacing:0;word-spacing:0;text-anchor:middle;fill:#000;fill-opacity:1;stroke:none;stroke-width:1px;stroke-linecap:butt;stroke-linejoin:miter;stroke-opacity:1" id="text6137-5-7" x="118.823" y="111.923" xml:space="preserve"><tspan id="tspan6139-9-1" x="118.823" y="111.923" style="font-size:22.5px">↓</tspan></text></svg>