<svg xmlns="http://www.w3.org/2000/svg" xmlns:svg="http://www.w3.org/2000/svg" id="svg2490" width="710.376" height="638.025" version="1.1"><metadata id="metadata2496"/><g id="g7248" transform="translate(-252.9767)"><g id="g6961" transform="translate(68.342303,-77.578463)"><g id="g302" transform="translate(424,78)"><g id="g300" transform="scale(1.5)"><path style="fill:#ffe05c;fill-opacity:1;stroke:#644300;stroke-width:1;stroke-linecap:round;stroke-opacity:1" id="path294" d="m 0.5,14.5 v -4 a 4,4 90 0 1 4,-4 h 4 l 5,-6 5,6 h 9 30 4 a 4,4 90 0 1 4,4 v 4 4 4 a 4,4 90 0 1 -4,4 h -4 -30 -1 v 2 h -8 v -2 h -1 -4 a 5,5 90 0 0 -5,5 v 4 4 21 4 a 5,5 90 0 0 5,5 h 4 v 2 h 10 v -2 h 8 v 6 6 4 a 4,4 90 0 1 -4,4 h -4 -9 l -5,6 -5,-6 h -4 a 4,4 90 0 1 -4,-4 v -4 z"/><text style="font-size:10px;font-family:sans-serif;text-anchor:start;fill:#000" id="text298"><tspan id="tspan296" x="5.333" y="21.5">start</tspan></text></g></g><g id="g6934"><g id="g2040" transform="translate(437.5,118.5)"><g id="g2038" transform="scale(1.5)"><path id="path2024" d="m 0.5,8.5 v -4 a 4,4 90 0 1 4,-4 h 4 v 2 h 10 v -2 h 30 4 a 4,4 90 0 1 4,4 v 4 h -4 v -3 h -4 v 10 h 4 v -3 h 4 v 17 h -4 v -3 h -4 v 10 h 4 v -3 h 4 v 4 a 4,4 90 0 1 -4,4 h -4 -30 -1 v 2 h -8 v -2 h -1 -4 a 4,4 90 0 1 -4,-4 v -4 -21 z" style="fill:#ffe05c;fill-opacity:1;stroke:#644300;stroke-width:1;stroke-linecap:round;stroke-opacity:1"/><text id="text2028" style="font-size:10px;font-family:sans-serif;text-anchor:end;fill:#000"><tspan id="tspan2026" x="46.333" y="24">on</tspan></text><text id="text2032" style="font-size:6.66666651px;font-family:sans-serif;text-anchor:end;fill:#000"><tspan id="tspan2030" x="46.333" y="11.25">event</tspan></text><text id="text2036" style="font-size:6.66666651px;font-family:sans-serif;text-anchor:end;fill:#000"><tspan id="tspan2034" x="46.333" y="32.25">do</tspan></text></g></g><g id="g2050" transform="translate(511,118.5)"><g id="g2048" transform="scale(1.5)"><path id="path2042" d="m 8.5,0.5 h 60 v 20 h -60 v -8 -1 h -6 v 3 h -2 v -8 h 2 v 3 h 6 v -1 z" style="fill:#76dbd7;fill-opacity:1;stroke:#003b41;stroke-width:1;stroke-linecap:round;stroke-opacity:1"/><text id="text2046" style="font-size:10px;font-family:sans-serif;text-anchor:start;fill:#000"><tspan id="tspan2044" x="13.333" y="13.833">b</tspan></text></g></g><g id="g2060" transform="translate(511,150)"><g id="g2058" transform="scale(1.5)"><path id="path2052" d="m 8.5,0.5 h 60 v 20 h -60 v -8 -1 h -6 v 3 h -2 v -8 h 2 v 3 h 6 v -1 z" style="fill:#76dbd7;fill-opacity:1;stroke:#003b41;stroke-width:1;stroke-linecap:round;stroke-opacity:1"/><text id="text2056" style="font-size:10px;font-family:sans-serif;text-anchor:start;fill:#000"><tspan id="tspan2054" x="13.333" y="13.833">b</tspan></text></g></g></g></g><g id="g6844" transform="translate(-2.657697,25.51267)"><g id="g1182" transform="translate(495,190)"><g id="g1180" transform="scale(1.5)"><path style="fill:#ffe05c;fill-opacity:1;stroke:#644300;stroke-width:1;stroke-linecap:round;stroke-opacity:1" id="path1174" d="m 0.5,14.5 v -4 a 4,4 90 0 1 4,-4 h 4 l 5,-6 5,6 h 9 30 4 a 4,4 90 0 1 4,4 v 4 4 4 a 4,4 90 0 1 -4,4 h -4 -30 -1 v 2 h -8 v -2 h -1 -4 a 5,5 90 0 0 -5,5 v 4 4 21 4 a 5,5 90 0 0 5,5 h 4 v 2 h 10 v -2 h 8 v 6 6 4 a 4,4 90 0 1 -4,4 h -4 -9 l -5,6 -5,-6 h -4 a 4,4 90 0 1 -4,-4 v -4 z"/><text style="font-size:10px;font-family:sans-serif;text-anchor:start;fill:#000" id="text1178"><tspan id="tspan1176" x="5.333" y="21.5">start</tspan></text></g></g><g id="g2238" transform="translate(508.5,230.5)"><g id="g2236" transform="scale(1.5)"><path style="fill:#ffe05c;fill-opacity:1;stroke:#644300;stroke-width:1;stroke-linecap:round;stroke-opacity:1" id="path2222" d="m 0.5,8.5 v -4 a 4,4 90 0 1 4,-4 h 4 v 2 h 10 v -2 h 30 4 a 4,4 90 0 1 4,4 v 4 h -4 v -3 h -4 v 10 h 4 v -3 h 4 v 17 h -4 v -3 h -4 v 10 h 4 v -3 h 4 v 4 a 4,4 90 0 1 -4,4 h -4 -30 -1 v 2 h -8 v -2 h -1 -4 a 4,4 90 0 1 -4,-4 v -4 -21 z"/><text style="font-size:10px;font-family:sans-serif;text-anchor:end;fill:#000" id="text2226"><tspan id="tspan2224" x="46.333" y="24">on</tspan></text><text style="font-size:6.66666651px;font-family:sans-serif;text-anchor:end;fill:#000" id="text2230"><tspan id="tspan2228" x="46.333" y="11.25">event</tspan></text><text style="font-size:6.66666651px;font-family:sans-serif;text-anchor:end;fill:#000" id="text2234"><tspan id="tspan2232" x="46.333" y="32.25">do</tspan></text></g></g><g id="g2248" transform="translate(582,230.5)"><g id="g2246" transform="scale(1.5)"><path style="fill:#76dbd7;fill-opacity:1;stroke:#003b41;stroke-width:1;stroke-linecap:round;stroke-opacity:1" id="path2240" d="m 8.5,0.5 h 60 v 20 h -60 v -8 -1 h -6 v 3 h -2 v -8 h 2 v 3 h 6 v -1 z"/><text style="font-size:10px;font-family:sans-serif;text-anchor:start;fill:#000" id="text2244"><tspan id="tspan2242" x="13.333" y="13.833">c</tspan></text></g></g><g id="g2258" transform="translate(582,262)"><g id="g2256" transform="scale(1.5)"><path style="fill:#76dbd7;fill-opacity:1;stroke:#003b41;stroke-width:1;stroke-linecap:round;stroke-opacity:1" id="path2250" d="m 8.5,0.5 h 60 v 20 h -60 v -8 -1 h -6 v 3 h -2 v -8 h 2 v 3 h 6 v -1 z"/><text style="font-size:10px;font-family:sans-serif;text-anchor:start;fill:#000" id="text2254"><tspan id="tspan2252" x="13.333" y="13.833">c</tspan></text></g></g></g><g id="g6913" transform="translate(87.342303,-39.39636)"><g id="g1202" transform="translate(405,470)"><g id="g1200" transform="scale(1.5)"><path style="fill:#ffe05c;fill-opacity:1;stroke:#644300;stroke-width:1;stroke-linecap:round;stroke-opacity:1" id="path1194" d="m 0.5,14.5 v -4 a 4,4 90 0 1 4,-4 h 4 l 5,-6 5,6 h 9 30 4 a 4,4 90 0 1 4,4 v 4 4 4 a 4,4 90 0 1 -4,4 h -4 -30 -1 v 2 h -8 v -2 h -1 -4 a 5,5 90 0 0 -5,5 v 4 4 21 4 a 5,5 90 0 0 5,5 h 4 v 2 h 10 v -2 h 8 v 6 6 4 a 4,4 90 0 1 -4,4 h -4 -9 l -5,6 -5,-6 h -4 a 4,4 90 0 1 -4,-4 v -4 z"/><text style="font-size:10px;font-family:sans-serif;text-anchor:start;fill:#000" id="text1198"><tspan id="tspan1196" x="5.333" y="21.5">start</tspan></text></g></g><g id="g2276" transform="translate(418.5,510.5)"><g id="g2274" transform="scale(1.5)"><path style="fill:#ffe05c;fill-opacity:1;stroke:#644300;stroke-width:1;stroke-linecap:round;stroke-opacity:1" id="path2260" d="m 0.5,8.5 v -4 a 4,4 90 0 1 4,-4 h 4 v 2 h 10 v -2 h 30 4 a 4,4 90 0 1 4,4 v 4 h -4 v -3 h -4 v 10 h 4 v -3 h 4 v 17 h -4 v -3 h -4 v 10 h 4 v -3 h 4 v 4 a 4,4 90 0 1 -4,4 h -4 -30 -1 v 2 h -8 v -2 h -1 -4 a 4,4 90 0 1 -4,-4 v -4 -21 z"/><text style="font-size:10px;font-family:sans-serif;text-anchor:end;fill:#000" id="text2264"><tspan id="tspan2262" x="46.333" y="24">on</tspan></text><text style="font-size:6.66666651px;font-family:sans-serif;text-anchor:end;fill:#000" id="text2268"><tspan id="tspan2266" x="46.333" y="11.25">event</tspan></text><text style="font-size:6.66666651px;font-family:sans-serif;text-anchor:end;fill:#000" id="text2272"><tspan id="tspan2270" x="46.333" y="32.25">do</tspan></text></g></g><g id="g2286" transform="translate(492,510.5)"><g id="g2284" transform="scale(1.5)"><path style="fill:#76dbd7;fill-opacity:1;stroke:#003b41;stroke-width:1;stroke-linecap:round;stroke-opacity:1" id="path2278" d="m 8.5,0.5 h 60 v 20 h -60 v -8 -1 h -6 v 3 h -2 v -8 h 2 v 3 h 6 v -1 z"/><text style="font-size:10px;font-family:sans-serif;text-anchor:start;fill:#000" id="text2282"><tspan id="tspan2280" x="13.333" y="13.833">d</tspan></text></g></g><g id="g2296" transform="translate(492,542)"><g id="g2294" transform="scale(1.5)"><path style="fill:#76dbd7;fill-opacity:1;stroke:#003b41;stroke-width:1;stroke-linecap:round;stroke-opacity:1" id="path2288" d="m 8.5,0.5 h 60 v 20 h -60 v -8 -1 h -6 v 3 h -2 v -8 h 2 v 3 h 6 v -1 z"/><text style="font-size:10px;font-family:sans-serif;text-anchor:start;fill:#000" id="text2292"><tspan id="tspan2290" x="13.333" y="13.833">d</tspan></text></g></g></g></g><g id="g7376" transform="translate(-288.9767)"><g id="g7127" transform="translate(92.10968,-164.48733)"><g id="g1212" transform="translate(661,483.5)"><g id="g1210" transform="scale(1.5)"><path style="fill:#ffe05c;fill-opacity:1;stroke:#644300;stroke-width:1;stroke-linecap:round;stroke-opacity:1" id="path1204" d="m 0.5,8.5 v -4 a 4,4 90 0 1 4,-4 h 4 v 2 h 10 v -2 h 40 4 a 4,4 90 0 1 4,4 v 4 4 4 a 4,4 90 0 1 -4,4 h -4 -40 -1 v 2 h -8 v -2 h -1 -4 a 4,4 90 0 1 -4,-4 v -4 z"/><text style="font-size:10px;font-family:sans-serif;text-anchor:end;fill:#000" id="text1208"><tspan id="tspan1206" x="56.333" y="13.5">action</tspan></text></g></g><g id="g1332" transform="translate(647.5,452)"><g id="g1330" transform="scale(1.5)"><path style="fill:#93e042;fill-opacity:1;stroke:#004000;stroke-width:1;stroke-linecap:round;stroke-opacity:1" id="path1320" d="m 0.5,8.5 v -4 a 4,4 90 0 1 4,-4 h 4 v 2 h 10 v -2 h 9 76.16211 4 a 4,4 90 0 1 4,4 v 4 h -4 v -3 h -4 v 10 h 4 v -3 h 4 v 4 a 4,4 90 0 1 -4,4 h -4 H 27.5 h -1 v 2 h -8 v -2 h -1 -4 a 5,5 90 0 0 -5,5 v 4 4 4 a 5,5 90 0 0 5,5 h 4 v 2 h 10 v -2 h 8 v 6 6 4 a 4,4 90 0 1 -4,4 h -4 -9 -1 v 2 h -8 v -2 h -1 -4 a 4,4 90 0 1 -4,-4 v -4 z"/><text style="font-size:10px;font-family:sans-serif;text-anchor:start;fill:#000" id="text1324"><tspan id="tspan1322" x="5.333" y="15.25">adjust transposition</tspan></text></g></g><g id="g1342" transform="translate(803.74316,452)"><g id="g1340" transform="scale(1.5)"><path style="fill:#ffb2bc;fill-opacity:1;stroke:#601136;stroke-width:1;stroke-linecap:round;stroke-opacity:1" id="path1334" d="m 8.5,0.5 h 60 v 20 h -60 v -8 -1 h -6 v 3 h -2 v -8 h 2 v 3 h 6 v -1 z"/><text style="font-size:10px;font-family:sans-serif;text-anchor:start;fill:#000" id="text1338"><tspan id="tspan1336" x="13.333" y="13.833">-24</tspan></text></g></g><g id="g2310" transform="translate(634,380)"><g id="g2308" transform="scale(1.5)"><path style="fill:#ffe05c;fill-opacity:1;stroke:#644300;stroke-width:1;stroke-linecap:round;stroke-opacity:1" id="path2298" d="m 0.5,14.5 v -4 a 4,4 90 0 1 4,-4 h 4 l 5,-6 5,6 h 9 35 4 a 4,4 90 0 1 4,4 v 4 h -4 v -3 h -4 v 10 h 4 v -3 h 4 v 4 a 4,4 90 0 1 -4,4 h -4 -35 -1 v 2 h -8 v -2 h -1 -4 a 5,5 90 0 0 -5,5 v 4 4 63 4 a 5,5 90 0 0 5,5 h 4 v 2 h 10 v -2 h 8 v 6 6 4 a 4,4 90 0 1 -4,4 h -4 -9 l -5,6 -5,-6 h -4 a 4,4 90 0 1 -4,-4 v -4 z"/><text style="font-size:10px;font-family:sans-serif;text-anchor:start;fill:#000" id="text2302"><tspan id="tspan2300" x="5.333" y="21.5">action</tspan></text></g></g><g id="g2320" transform="translate(728.5,389)"><g id="g2318" transform="scale(1.5)"><path style="fill:#76dbd7;fill-opacity:1;stroke:#003b41;stroke-width:1;stroke-linecap:round;stroke-opacity:1" id="path2312" d="m 8.5,0.5 h 60 v 20 h -60 v -8 -1 h -6 v 3 h -2 v -8 h 2 v 3 h 6 v -1 z"/><text style="font-size:10px;font-family:sans-serif;text-anchor:start;fill:#000" id="text2316"><tspan id="tspan2314" x="13.333" y="13.833">c</tspan></text></g></g><g id="g2406" transform="translate(647.5,420.5)"><g id="g2404" transform="scale(1.5)"><path style="fill:#949494;fill-opacity:1;stroke:#000;stroke-width:1;stroke-linecap:round;stroke-opacity:1" id="path2394" d="m 0.5,8.5 v -4 a 4,4 90 0 1 4,-4 h 4 v 2 h 10 v -2 h 53.354492 4 a 4,4 90 0 1 4,4 v 4 h -4 v -3 h -4 v 10 h 4 v -3 h 4 v 4 a 4,4 90 0 1 -4,4 h -4 H 18.5 h -1 v 2 h -8 v -2 h -1 -4 a 4,4 90 0 1 -4,-4 v -4 z"/><text style="font-size:10px;font-family:sans-serif;text-anchor:end;fill:#000" id="text2398"><tspan id="tspan2396" x="69.688" y="13.5">mouse sync</tspan></text></g></g><g id="g2416" transform="translate(756.03174,420.5)"><g id="g2414" transform="scale(1.5)"><path style="fill:#76dbd7;fill-opacity:1;stroke:#003b41;stroke-width:1;stroke-linecap:round;stroke-opacity:1" id="path2408" d="m 8.5,0.5 h 60 v 20 h -60 v -8 -1 h -6 v 3 h -2 v -8 h 2 v 3 h 6 v -1 z"/><text style="font-size:10px;font-family:sans-serif;text-anchor:start;fill:#000" id="text2412"><tspan id="tspan2410" x="13.333" y="13.833">Mr. Mouse</tspan></text></g></g></g><g id="g6887" transform="translate(444.10968,-199.39636)"><g id="g1192" transform="translate(309,733.5)"><g id="g1190" transform="scale(1.5)"><path style="fill:#ffe05c;fill-opacity:1;stroke:#644300;stroke-width:1;stroke-linecap:round;stroke-opacity:1" id="path1184" d="m 0.5,8.5 v -4 a 4,4 90 0 1 4,-4 h 4 v 2 h 10 v -2 h 40 4 a 4,4 90 0 1 4,4 v 4 4 4 a 4,4 90 0 1 -4,4 h -4 -40 -1 v 2 h -8 v -2 h -1 -4 a 4,4 90 0 1 -4,-4 v -4 z"/><text style="font-size:10px;font-family:sans-serif;text-anchor:end;fill:#000" id="text1188"><tspan id="tspan1186" x="56.333" y="13.5">action</tspan></text></g></g><g id="g1356" transform="translate(295.5,702)"><g id="g1354" transform="scale(1.5)"><path style="fill:#93e042;fill-opacity:1;stroke:#004000;stroke-width:1;stroke-linecap:round;stroke-opacity:1" id="path1344" d="m 0.5,8.5 v -4 a 4,4 90 0 1 4,-4 h 4 v 2 h 10 v -2 h 9 76.16211 4 a 4,4 90 0 1 4,4 v 4 h -4 v -3 h -4 v 10 h 4 v -3 h 4 v 4 a 4,4 90 0 1 -4,4 h -4 H 27.5 h -1 v 2 h -8 v -2 h -1 -4 a 5,5 90 0 0 -5,5 v 4 4 4 a 5,5 90 0 0 5,5 h 4 v 2 h 10 v -2 h 8 v 6 6 4 a 4,4 90 0 1 -4,4 h -4 -9 -1 v 2 h -8 v -2 h -1 -4 a 4,4 90 0 1 -4,-4 v -4 z"/><text style="font-size:10px;font-family:sans-serif;text-anchor:start;fill:#000" id="text1348"><tspan id="tspan1346" x="5.333" y="15.25">adjust transposition</tspan></text></g></g><g id="g1366" transform="translate(451.74316,702)"><g id="g1364" transform="scale(1.5)"><path style="fill:#ffb2bc;fill-opacity:1;stroke:#601136;stroke-width:1;stroke-linecap:round;stroke-opacity:1" id="path1358" d="m 8.5,0.5 h 60 v 20 h -60 v -8 -1 h -6 v 3 h -2 v -8 h 2 v 3 h 6 v -1 z"/><text style="font-size:10px;font-family:sans-serif;text-anchor:start;fill:#000" id="text1362"><tspan id="tspan1360" x="13.333" y="13.833">12</tspan></text></g></g><g id="g2334" transform="translate(282,630)"><g id="g2332" transform="scale(1.5)"><path style="fill:#ffe05c;fill-opacity:1;stroke:#644300;stroke-width:1;stroke-linecap:round;stroke-opacity:1" id="path2322" d="m 0.5,14.5 v -4 a 4,4 90 0 1 4,-4 h 4 l 5,-6 5,6 h 9 35 4 a 4,4 90 0 1 4,4 v 4 h -4 v -3 h -4 v 10 h 4 v -3 h 4 v 4 a 4,4 90 0 1 -4,4 h -4 -35 -1 v 2 h -8 v -2 h -1 -4 a 5,5 90 0 0 -5,5 v 4 4 63 4 a 5,5 90 0 0 5,5 h 4 v 2 h 10 v -2 h 8 v 6 6 4 a 4,4 90 0 1 -4,4 h -4 -9 l -5,6 -5,-6 h -4 a 4,4 90 0 1 -4,-4 v -4 z"/><text style="font-size:10px;font-family:sans-serif;text-anchor:start;fill:#000" id="text2326"><tspan id="tspan2324" x="5.333" y="21.5">action</tspan></text></g></g><g id="g2344" transform="translate(376.5,639)"><g id="g2342" transform="scale(1.5)"><path style="fill:#76dbd7;fill-opacity:1;stroke:#003b41;stroke-width:1;stroke-linecap:round;stroke-opacity:1" id="path2336" d="m 8.5,0.5 h 60 v 20 h -60 v -8 -1 h -6 v 3 h -2 v -8 h 2 v 3 h 6 v -1 z"/><text style="font-size:10px;font-family:sans-serif;text-anchor:start;fill:#000" id="text2340"><tspan id="tspan2338" x="13.333" y="13.833">d</tspan></text></g></g><g id="g2430" transform="translate(295.5,670.5)"><g id="g2428" transform="scale(1.5)"><path style="fill:#949494;fill-opacity:1;stroke:#000;stroke-width:1;stroke-linecap:round;stroke-opacity:1" id="path2418" d="m 0.5,8.5 v -4 a 4,4 90 0 1 4,-4 h 4 v 2 h 10 v -2 h 53.354492 4 a 4,4 90 0 1 4,4 v 4 h -4 v -3 h -4 v 10 h 4 v -3 h 4 v 4 a 4,4 90 0 1 -4,4 h -4 H 18.5 h -1 v 2 h -8 v -2 h -1 -4 a 4,4 90 0 1 -4,-4 v -4 z"/><text style="font-size:10px;font-family:sans-serif;text-anchor:end;fill:#000" id="text2422"><tspan id="tspan2420" x="69.688" y="13.5">mouse sync</tspan></text></g></g><g id="g2440" transform="translate(404.03174,670.5)"><g id="g2438" transform="scale(1.5)"><path style="fill:#76dbd7;fill-opacity:1;stroke:#003b41;stroke-width:1;stroke-linecap:round;stroke-opacity:1" id="path2432" d="m 8.5,0.5 h 60 v 20 h -60 v -8 -1 h -6 v 3 h -2 v -8 h 2 v 3 h 6 v -1 z"/><text style="font-size:10px;font-family:sans-serif;text-anchor:start;fill:#000" id="text2436"><tspan id="tspan2434" x="13.333" y="13.833">Mr. Mouse</tspan></text></g></g></g><g id="g7170" transform="translate(32.10968,-567.5784)"><g id="g1222" transform="translate(721,671.5)"><g id="g1220" transform="scale(1.5)"><path style="fill:#ffe05c;fill-opacity:1;stroke:#644300;stroke-width:1;stroke-linecap:round;stroke-opacity:1" id="path1214" d="m 0.5,8.5 v -4 a 4,4 90 0 1 4,-4 h 4 v 2 h 10 v -2 h 40 4 a 4,4 90 0 1 4,4 v 4 4 4 a 4,4 90 0 1 -4,4 h -4 -40 -1 v 2 h -8 v -2 h -1 -4 a 4,4 90 0 1 -4,-4 v -4 z"/><text style="font-size:10px;font-family:sans-serif;text-anchor:end;fill:#000" id="text1218"><tspan id="tspan1216" x="56.333" y="13.5">action</tspan></text></g></g><g id="g1380" transform="translate(707.5,640)"><g id="g1378" transform="scale(1.5)"><path style="fill:#93e042;fill-opacity:1;stroke:#004000;stroke-width:1;stroke-linecap:round;stroke-opacity:1" id="path1368" d="m 0.5,8.5 v -4 a 4,4 90 0 1 4,-4 h 4 v 2 h 10 v -2 h 9 76.16211 4 a 4,4 90 0 1 4,4 v 4 h -4 v -3 h -4 v 10 h 4 v -3 h 4 v 4 a 4,4 90 0 1 -4,4 h -4 H 27.5 h -1 v 2 h -8 v -2 h -1 -4 a 5,5 90 0 0 -5,5 v 4 4 4 a 5,5 90 0 0 5,5 h 4 v 2 h 10 v -2 h 8 v 6 6 4 a 4,4 90 0 1 -4,4 h -4 -9 -1 v 2 h -8 v -2 h -1 -4 a 4,4 90 0 1 -4,-4 v -4 z"/><text style="font-size:10px;font-family:sans-serif;text-anchor:start;fill:#000" id="text1372"><tspan id="tspan1370" x="5.333" y="15.25">adjust transposition</tspan></text></g></g><g id="g1390" transform="translate(863.74316,640)"><g id="g1388" transform="scale(1.5)"><path style="fill:#ffb2bc;fill-opacity:1;stroke:#601136;stroke-width:1;stroke-linecap:round;stroke-opacity:1" id="path1382" d="m 8.5,0.5 h 60 v 20 h -60 v -8 -1 h -6 v 3 h -2 v -8 h 2 v 3 h 6 v -1 z"/><text style="font-size:10px;font-family:sans-serif;text-anchor:start;fill:#000" id="text1386"><tspan id="tspan1384" x="13.333" y="13.833">-12</tspan></text></g></g><g id="g2012" transform="translate(694,568)"><g id="g2010" transform="scale(1.5)"><path style="fill:#ffe05c;fill-opacity:1;stroke:#644300;stroke-width:1;stroke-linecap:round;stroke-opacity:1" id="path2000" d="m 0.5,14.5 v -4 a 4,4 90 0 1 4,-4 h 4 l 5,-6 5,6 h 9 35 4 a 4,4 90 0 1 4,4 v 4 h -4 v -3 h -4 v 10 h 4 v -3 h 4 v 4 a 4,4 90 0 1 -4,4 h -4 -35 -1 v 2 h -8 v -2 h -1 -4 a 5,5 90 0 0 -5,5 v 4 4 63 4 a 5,5 90 0 0 5,5 h 4 v 2 h 10 v -2 h 8 v 6 6 4 a 4,4 90 0 1 -4,4 h -4 -9 l -5,6 -5,-6 h -4 a 4,4 90 0 1 -4,-4 v -4 z"/><text style="font-size:10px;font-family:sans-serif;text-anchor:start;fill:#000" id="text2004"><tspan id="tspan2002" x="5.333" y="21.5">action</tspan></text></g></g><g id="g2022" transform="translate(788.5,577)"><g id="g2020" transform="scale(1.5)"><path style="fill:#76dbd7;fill-opacity:1;stroke:#003b41;stroke-width:1;stroke-linecap:round;stroke-opacity:1" id="path2014" d="m 8.5,0.5 h 60 v 20 h -60 v -8 -1 h -6 v 3 h -2 v -8 h 2 v 3 h 6 v -1 z"/><text style="font-size:10px;font-family:sans-serif;text-anchor:start;fill:#000" id="text2018"><tspan id="tspan2016" x="13.333" y="13.833">b</tspan></text></g></g><g id="g2454" transform="translate(707.5,608.5)"><g id="g2452" transform="scale(1.5)"><path style="fill:#949494;fill-opacity:1;stroke:#000;stroke-width:1;stroke-linecap:round;stroke-opacity:1" id="path2442" d="m 0.5,8.5 v -4 a 4,4 90 0 1 4,-4 h 4 v 2 h 10 v -2 h 53.354492 4 a 4,4 90 0 1 4,4 v 4 h -4 v -3 h -4 v 10 h 4 v -3 h 4 v 4 a 4,4 90 0 1 -4,4 h -4 H 18.5 h -1 v 2 h -8 v -2 h -1 -4 a 4,4 90 0 1 -4,-4 v -4 z"/><text style="font-size:10px;font-family:sans-serif;text-anchor:end;fill:#000" id="text2446"><tspan id="tspan2444" x="69.688" y="13.5">mouse sync</tspan></text></g></g><g id="g2464" transform="translate(816.03174,608.5)"><g id="g2462" transform="scale(1.5)"><path style="fill:#76dbd7;fill-opacity:1;stroke:#003b41;stroke-width:1;stroke-linecap:round;stroke-opacity:1" id="path2456" d="m 8.5,0.5 h 60 v 20 h -60 v -8 -1 h -6 v 3 h -2 v -8 h 2 v 3 h 6 v -1 z"/><text style="font-size:10px;font-family:sans-serif;text-anchor:start;fill:#000" id="text2460"><tspan id="tspan2458" x="13.333" y="13.833">Mr. Mouse</tspan></text></g></g></g></g><g id="g7084" transform="translate(-181,-87.578463)"><g id="g10" transform="translate(181,88)"><g id="g8" transform="scale(1.5)"><path id="path2" d="m 0.5,14.5 v -4 a 4,4 90 0 1 4,-4 h 4 l 5,-6 5,6 h 9 30 4 a 4,4 90 0 1 4,4 v 4 4 4 a 4,4 90 0 1 -4,4 h -4 -30 -1 v 2 h -8 v -2 h -1 -4 a 5,5 90 0 0 -5,5 v 4 4 315 4 a 5,5 90 0 0 5,5 h 4 v 2 h 10 v -2 h 8 v 6 6 4 a 4,4 90 0 1 -4,4 h -4 -9 l -5,6 -5,-6 h -4 a 4,4 90 0 1 -4,-4 v -4 z" style="fill:#ffe05c;fill-opacity:1;stroke:#644300;stroke-width:1;stroke-linecap:round;stroke-opacity:1"/><text id="text6" style="font-size:10px;font-family:sans-serif;text-anchor:start;fill:#000"><tspan id="tspan4" x="5.333" y="21.5">start</tspan></text></g></g><g id="g2074" transform="translate(194.5,254.5)"><g id="g2072" transform="scale(1.5)"><path id="path2062" d="m 0.5,8.5 v -4 a 4,4 90 0 1 4,-4 h 4 v 2 h 10 v -2 h 43.916016 4 a 4,4 90 0 1 4,4 v 4 h -4 v -3 h -4 v 10 h 4 v -3 h 4 v 4 a 4,4 90 0 1 -4,4 h -4 H 18.5 h -1 v 2 h -8 v -2 h -1 -4 a 4,4 90 0 1 -4,-4 v -4 z" style="fill:#ffe05c;fill-opacity:1;stroke:#644300;stroke-width:1;stroke-linecap:round;stroke-opacity:1"/><text id="text2066" style="font-size:10px;font-family:sans-serif;text-anchor:end;fill:#000"><tspan id="tspan2064" x="60.249" y="13.5">broadcast</tspan></text></g></g><g id="g2084" transform="translate(288.87402,254.5)"><g id="g2082" transform="scale(1.5)"><path id="path2076" d="m 8.5,0.5 h 60 v 20 h -60 v -8 -1 h -6 v 3 h -2 v -8 h 2 v 3 h 6 v -1 z" style="fill:#76dbd7;fill-opacity:1;stroke:#003b41;stroke-width:1;stroke-linecap:round;stroke-opacity:1"/><text id="text2080" style="font-size:10px;font-family:sans-serif;text-anchor:start;fill:#000"><tspan id="tspan2078" x="13.333" y="13.833">b</tspan></text></g></g><g id="g2098" transform="translate(194.5,160)"><g id="g2096" transform="scale(1.5)"><path id="path2086" d="m 0.5,8.5 v -4 a 4,4 90 0 1 4,-4 h 4 v 2 h 10 v -2 h 9 20 4 a 4,4 90 0 1 4,4 v 4 h -4 v -3 h -4 v 10 h 4 v -3 h 4 v 4 a 4,4 90 0 1 -4,4 h -4 -20 -1 v 2 h -8 v -2 h -1 -4 a 5,5 90 0 0 -5,5 v 4 4 4 a 5,5 90 0 0 5,5 h 4 v 2 h 10 v -2 h 8 v 6 6 4 a 4,4 90 0 1 -4,4 h -4 -9 -1 v 2 h -8 v -2 h -1 -4 a 4,4 90 0 1 -4,-4 v -4 z" style="fill:#e9a066;fill-opacity:1;stroke:#3f0a00;stroke-width:1;stroke-linecap:round;stroke-opacity:1"/><text id="text2090" style="font-size:10px;font-family:sans-serif;text-anchor:start;fill:#000"><tspan id="tspan2088" x="5.333" y="15.25">repeat</tspan></text></g></g><g id="g2108" transform="translate(266.5,160)"><g id="g2106" transform="scale(1.5)"><path id="path2100" d="m 8.5,0.5 h 60 v 20 h -60 v -8 -1 h -6 v 3 h -2 v -8 h 2 v 3 h 6 v -1 z" style="fill:#ffb2bc;fill-opacity:1;stroke:#601136;stroke-width:1;stroke-linecap:round;stroke-opacity:1"/><text id="text2104" style="font-size:10px;font-family:sans-serif;text-anchor:start;fill:#000"><tspan id="tspan2102" x="13.333" y="13.833">2</tspan></text></g></g><g id="g2118" transform="translate(208,191.5)"><g id="g2116" transform="scale(1.5)"><path id="path2110" d="m 0.5,8.5 v -4 a 4,4 90 0 1 4,-4 h 4 v 2 h 10 v -2 h 40 4 a 4,4 90 0 1 4,4 v 4 4 4 a 4,4 90 0 1 -4,4 h -4 -40 -1 v 2 h -8 v -2 h -1 -4 a 4,4 90 0 1 -4,-4 v -4 z" style="fill:#ffe05c;fill-opacity:1;stroke:#644300;stroke-width:1;stroke-linecap:round;stroke-opacity:1"/><text id="text2114" style="font-size:10px;font-family:sans-serif;text-anchor:end;fill:#000"><tspan id="tspan2112" x="56.333" y="13.5">chunk0</tspan></text></g></g><g id="g2132" transform="translate(194.5,286)"><g id="g2130" transform="scale(1.5)"><path id="path2120" d="m 0.5,8.5 v -4 a 4,4 90 0 1 4,-4 h 4 v 2 h 10 v -2 h 9 20 4 a 4,4 90 0 1 4,4 v 4 h -4 v -3 h -4 v 10 h 4 v -3 h 4 v 4 a 4,4 90 0 1 -4,4 h -4 -20 -1 v 2 h -8 v -2 h -1 -4 a 5,5 90 0 0 -5,5 v 4 4 4 a 5,5 90 0 0 5,5 h 4 v 2 h 10 v -2 h 8 v 6 6 4 a 4,4 90 0 1 -4,4 h -4 -9 -1 v 2 h -8 v -2 h -1 -4 a 4,4 90 0 1 -4,-4 v -4 z" style="fill:#e9a066;fill-opacity:1;stroke:#3f0a00;stroke-width:1;stroke-linecap:round;stroke-opacity:1"/><text id="text2124" style="font-size:10px;font-family:sans-serif;text-anchor:start;fill:#000"><tspan id="tspan2122" x="5.333" y="15.25">repeat</tspan></text></g></g><g id="g2142" transform="translate(266.5,286)"><g id="g2140" transform="scale(1.5)"><path id="path2134" d="m 8.5,0.5 h 60 v 20 h -60 v -8 -1 h -6 v 3 h -2 v -8 h 2 v 3 h 6 v -1 z" style="fill:#ffb2bc;fill-opacity:1;stroke:#601136;stroke-width:1;stroke-linecap:round;stroke-opacity:1"/><text id="text2138" style="font-size:10px;font-family:sans-serif;text-anchor:start;fill:#000"><tspan id="tspan2136" x="13.333" y="13.833">2</tspan></text></g></g><g id="g2152" transform="translate(208,317.5)"><g id="g2150" transform="scale(1.5)"><path id="path2144" d="m 0.5,8.5 v -4 a 4,4 90 0 1 4,-4 h 4 v 2 h 10 v -2 h 40 4 a 4,4 90 0 1 4,4 v 4 4 4 a 4,4 90 0 1 -4,4 h -4 -40 -1 v 2 h -8 v -2 h -1 -4 a 4,4 90 0 1 -4,-4 v -4 z" style="fill:#ffe05c;fill-opacity:1;stroke:#644300;stroke-width:1;stroke-linecap:round;stroke-opacity:1"/><text id="text2148" style="font-size:10px;font-family:sans-serif;text-anchor:end;fill:#000"><tspan id="tspan2146" x="56.333" y="13.5">chunk1</tspan></text></g></g><g id="g2166" transform="translate(194.5,412)"><g id="g2164" transform="scale(1.5)"><path id="path2154" d="m 0.5,8.5 v -4 a 4,4 90 0 1 4,-4 h 4 v 2 h 10 v -2 h 9 20 4 a 4,4 90 0 1 4,4 v 4 h -4 v -3 h -4 v 10 h 4 v -3 h 4 v 4 a 4,4 90 0 1 -4,4 h -4 -20 -1 v 2 h -8 v -2 h -1 -4 a 5,5 90 0 0 -5,5 v 4 4 4 a 5,5 90 0 0 5,5 h 4 v 2 h 10 v -2 h 8 v 6 6 4 a 4,4 90 0 1 -4,4 h -4 -9 -1 v 2 h -8 v -2 h -1 -4 a 4,4 90 0 1 -4,-4 v -4 z" style="fill:#e9a066;fill-opacity:1;stroke:#3f0a00;stroke-width:1;stroke-linecap:round;stroke-opacity:1"/><text id="text2158" style="font-size:10px;font-family:sans-serif;text-anchor:start;fill:#000"><tspan id="tspan2156" x="5.333" y="15.25">repeat</tspan></text></g></g><g id="g2176" transform="translate(266.5,412)"><g id="g2174" transform="scale(1.5)"><path id="path2168" d="m 8.5,0.5 h 60 v 20 h -60 v -8 -1 h -6 v 3 h -2 v -8 h 2 v 3 h 6 v -1 z" style="fill:#ffb2bc;fill-opacity:1;stroke:#601136;stroke-width:1;stroke-linecap:round;stroke-opacity:1"/><text id="text2172" style="font-size:10px;font-family:sans-serif;text-anchor:start;fill:#000"><tspan id="tspan2170" x="13.333" y="13.833">2</tspan></text></g></g><g id="g2186" transform="translate(208,443.5)"><g id="g2184" transform="scale(1.5)"><path id="path2178" d="m 0.5,8.5 v -4 a 4,4 90 0 1 4,-4 h 4 v 2 h 10 v -2 h 40 4 a 4,4 90 0 1 4,4 v 4 4 4 a 4,4 90 0 1 -4,4 h -4 -40 -1 v 2 h -8 v -2 h -1 -4 a 4,4 90 0 1 -4,-4 v -4 z" style="fill:#ffe05c;fill-opacity:1;stroke:#644300;stroke-width:1;stroke-linecap:round;stroke-opacity:1"/><text id="text2182" style="font-size:10px;font-family:sans-serif;text-anchor:end;fill:#000"><tspan id="tspan2180" x="56.333" y="13.5">chunk2</tspan></text></g></g><g id="g2200" transform="translate(194.5,538)"><g id="g2198" transform="scale(1.5)"><path id="path2188" d="m 0.5,8.5 v -4 a 4,4 90 0 1 4,-4 h 4 v 2 h 10 v -2 h 9 20 4 a 4,4 90 0 1 4,4 v 4 h -4 v -3 h -4 v 10 h 4 v -3 h 4 v 4 a 4,4 90 0 1 -4,4 h -4 -20 -1 v 2 h -8 v -2 h -1 -4 a 5,5 90 0 0 -5,5 v 4 4 4 a 5,5 90 0 0 5,5 h 4 v 2 h 10 v -2 h 8 v 6 6 4 a 4,4 90 0 1 -4,4 h -4 -9 -1 v 2 h -8 v -2 h -1 -4 a 4,4 90 0 1 -4,-4 v -4 z" style="fill:#e9a066;fill-opacity:1;stroke:#3f0a00;stroke-width:1;stroke-linecap:round;stroke-opacity:1"/><text id="text2192" style="font-size:10px;font-family:sans-serif;text-anchor:start;fill:#000"><tspan id="tspan2190" x="5.333" y="15.25">repeat</tspan></text></g></g><g id="g2210" transform="translate(266.5,538)"><g id="g2208" transform="scale(1.5)"><path id="path2202" d="m 8.5,0.5 h 60 v 20 h -60 v -8 -1 h -6 v 3 h -2 v -8 h 2 v 3 h 6 v -1 z" style="fill:#ffb2bc;fill-opacity:1;stroke:#601136;stroke-width:1;stroke-linecap:round;stroke-opacity:1"/><text id="text2206" style="font-size:10px;font-family:sans-serif;text-anchor:start;fill:#000"><tspan id="tspan2204" x="13.333" y="13.833">2</tspan></text></g></g><g id="g2220" transform="translate(208,569.5)"><g id="g2218" transform="scale(1.5)"><path id="path2212" d="m 0.5,8.5 v -4 a 4,4 90 0 1 4,-4 h 4 v 2 h 10 v -2 h 40 4 a 4,4 90 0 1 4,4 v 4 4 4 a 4,4 90 0 1 -4,4 h -4 -40 -1 v 2 h -8 v -2 h -1 -4 a 4,4 90 0 1 -4,-4 v -4 z" style="fill:#ffe05c;fill-opacity:1;stroke:#644300;stroke-width:1;stroke-linecap:round;stroke-opacity:1"/><text id="text2216" style="font-size:10px;font-family:sans-serif;text-anchor:end;fill:#000"><tspan id="tspan2214" x="56.333" y="13.5">chunk3</tspan></text></g></g><g id="g2358" transform="translate(194.5,380.5)"><g id="g2356" transform="scale(1.5)"><path id="path2346" d="m 0.5,8.5 v -4 a 4,4 90 0 1 4,-4 h 4 v 2 h 10 v -2 h 43.916016 4 a 4,4 90 0 1 4,4 v 4 h -4 v -3 h -4 v 10 h 4 v -3 h 4 v 4 a 4,4 90 0 1 -4,4 h -4 H 18.5 h -1 v 2 h -8 v -2 h -1 -4 a 4,4 90 0 1 -4,-4 v -4 z" style="fill:#ffe05c;fill-opacity:1;stroke:#644300;stroke-width:1;stroke-linecap:round;stroke-opacity:1"/><text id="text2350" style="font-size:10px;font-family:sans-serif;text-anchor:end;fill:#000"><tspan id="tspan2348" x="60.249" y="13.5">broadcast</tspan></text></g></g><g id="g2368" transform="translate(288.87402,380.5)"><g id="g2366" transform="scale(1.5)"><path id="path2360" d="m 8.5,0.5 h 60 v 20 h -60 v -8 -1 h -6 v 3 h -2 v -8 h 2 v 3 h 6 v -1 z" style="fill:#76dbd7;fill-opacity:1;stroke:#003b41;stroke-width:1;stroke-linecap:round;stroke-opacity:1"/><text id="text2364" style="font-size:10px;font-family:sans-serif;text-anchor:start;fill:#000"><tspan id="tspan2362" x="13.333" y="13.833">c</tspan></text></g></g><g id="g2382" transform="translate(194.5,506.5)"><g id="g2380" transform="scale(1.5)"><path id="path2370" d="m 0.5,8.5 v -4 a 4,4 90 0 1 4,-4 h 4 v 2 h 10 v -2 h 43.916016 4 a 4,4 90 0 1 4,4 v 4 h -4 v -3 h -4 v 10 h 4 v -3 h 4 v 4 a 4,4 90 0 1 -4,4 h -4 H 18.5 h -1 v 2 h -8 v -2 h -1 -4 a 4,4 90 0 1 -4,-4 v -4 z" style="fill:#ffe05c;fill-opacity:1;stroke:#644300;stroke-width:1;stroke-linecap:round;stroke-opacity:1"/><text id="text2374" style="font-size:10px;font-family:sans-serif;text-anchor:end;fill:#000"><tspan id="tspan2372" x="60.249" y="13.5">broadcast</tspan></text></g></g><g id="g2392" transform="translate(288.87402,506.5)"><g id="g2390" transform="scale(1.5)"><path id="path2384" d="m 8.5,0.5 h 60 v 20 h -60 v -8 -1 h -6 v 3 h -2 v -8 h 2 v 3 h 6 v -1 z" style="fill:#76dbd7;fill-opacity:1;stroke:#003b41;stroke-width:1;stroke-linecap:round;stroke-opacity:1"/><text id="text2388" style="font-size:10px;font-family:sans-serif;text-anchor:start;fill:#000"><tspan id="tspan2386" x="13.333" y="13.833">d</tspan></text></g></g><g id="g2478" transform="translate(194.5,128.5)"><g id="g2476" transform="scale(1.5)"><path id="path2466" d="m 0.5,8.5 v -4 a 4,4 90 0 1 4,-4 h 4 v 2 h 10 v -2 h 57.807617 4 a 4,4 90 0 1 4,4 v 4 h -4 v -3 h -4 v 10 h 4 v -3 h 4 v 4 a 4,4 90 0 1 -4,4 h -4 H 18.5 h -1 v 2 h -8 v -2 h -1 -4 a 4,4 90 0 1 -4,-4 v -4 z" style="fill:#949494;fill-opacity:1;stroke:#000;stroke-width:1;stroke-linecap:round;stroke-opacity:1"/><text id="text2470" style="font-size:10px;font-family:sans-serif;text-anchor:end;fill:#000"><tspan id="tspan2468" x="74.141" y="13.5">mouse name</tspan></text></g></g><g id="g2488" transform="translate(309.71143,128.5)"><g id="g2486" transform="scale(1.5)"><path id="path2480" d="m 8.5,0.5 h 60 v 20 h -60 v -8 -1 h -6 v 3 h -2 v -8 h 2 v 3 h 6 v -1 z" style="fill:#76dbd7;fill-opacity:1;stroke:#003b41;stroke-width:1;stroke-linecap:round;stroke-opacity:1"/><text id="text2484" style="font-size:10px;font-family:sans-serif;text-anchor:start;fill:#000"><tspan id="tspan2482" x="13.333" y="13.833">Mr. Mouse</tspan></text></g></g></g></svg>